<?xml version="1.0" encoding="UTF-8" standalone="no"?>
<!DOCTYPE svg PUBLIC "-//W3C//DTD SVG 1.1//EN"
 "http://www.w3.org/Graphics/SVG/1.1/DTD/svg11.dtd">
<!-- Generated by graphviz version 2.43.0 (0)
 -->
<!-- Title: cpplint._BlockInfo Pages: 1 -->
<svg width="518pt" height="559pt"
 viewBox="0.00 0.00 518.00 559.00" xmlns="http://www.w3.org/2000/svg" xmlns:xlink="http://www.w3.org/1999/xlink">
<g id="graph0" class="graph" transform="scale(1 1) rotate(0) translate(4 555)">
<title>cpplint._BlockInfo</title>
<!-- Node1 -->
<g id="Node000001" class="node">
<title>Node1</title>
<g id="a_Node000001"><a xlink:title=" ">
<polygon fill="#999999" stroke="transparent" points="341,-466 169,-466 169,-264 341,-264 341,-466"/>
<text text-anchor="start" x="211" y="-454" font-family="Helvetica,sans-Serif" font-size="10.00">cpplint._BlockInfo</text>
<text text-anchor="start" x="173" y="-439" font-family="Helvetica,sans-Serif" font-size="10.00">+</text>
<text text-anchor="start" x="186" y="-439" font-family="Helvetica,sans-Serif" font-size="10.00">starting_linenum</text>
<text text-anchor="start" x="173" y="-424" font-family="Helvetica,sans-Serif" font-size="10.00">+</text>
<text text-anchor="start" x="186" y="-424" font-family="Helvetica,sans-Serif" font-size="10.00">seen_open_brace</text>
<text text-anchor="start" x="173" y="-409" font-family="Helvetica,sans-Serif" font-size="10.00">+</text>
<text text-anchor="start" x="186" y="-409" font-family="Helvetica,sans-Serif" font-size="10.00">open_parentheses</text>
<text text-anchor="start" x="173" y="-394" font-family="Helvetica,sans-Serif" font-size="10.00">+</text>
<text text-anchor="start" x="186" y="-394" font-family="Helvetica,sans-Serif" font-size="10.00">inline_asm</text>
<text text-anchor="start" x="173" y="-379" font-family="Helvetica,sans-Serif" font-size="10.00">+</text>
<text text-anchor="start" x="186" y="-379" font-family="Helvetica,sans-Serif" font-size="10.00">check_namespace_indentation</text>
<text text-anchor="start" x="175.5" y="-364" font-family="Helvetica,sans-Serif" font-size="10.00">&#45;</text>
<text text-anchor="start" x="186" y="-364" font-family="Helvetica,sans-Serif" font-size="10.00">__class__</text>
<text text-anchor="start" x="173" y="-349" font-family="Helvetica,sans-Serif" font-size="10.00">+</text>
<text text-anchor="start" x="186" y="-349" font-family="Helvetica,sans-Serif" font-size="10.00">__init__(self, linenum,</text>
<text text-anchor="start" x="186" y="-338" font-family="Helvetica,sans-Serif" font-size="10.00"> seen_open_brace)</text>
<text text-anchor="start" x="173" y="-323" font-family="Helvetica,sans-Serif" font-size="10.00">+</text>
<text text-anchor="start" x="186" y="-323" font-family="Helvetica,sans-Serif" font-size="10.00">CheckBegin(self, filename,</text>
<text text-anchor="start" x="186" y="-312" font-family="Helvetica,sans-Serif" font-size="10.00"> clean_lines, linenum, error)</text>
<text text-anchor="start" x="173" y="-297" font-family="Helvetica,sans-Serif" font-size="10.00">+</text>
<text text-anchor="start" x="186" y="-297" font-family="Helvetica,sans-Serif" font-size="10.00">CheckEnd(self, filename,</text>
<text text-anchor="start" x="186" y="-286" font-family="Helvetica,sans-Serif" font-size="10.00"> clean_lines, linenum, error)</text>
<text text-anchor="start" x="173" y="-271" font-family="Helvetica,sans-Serif" font-size="10.00">+</text>
<text text-anchor="start" x="186" y="-271" font-family="Helvetica,sans-Serif" font-size="10.00">IsBlockInfo(self)</text>
<polygon fill="#666666" stroke="#666666" points="169,-449 169,-449 341,-449 341,-449 169,-449"/>
<polygon fill="#666666" stroke="#666666" points="169,-359 169,-359 184,-359 184,-359 169,-359"/>
<polygon fill="#666666" stroke="#666666" points="184,-359 184,-359 341,-359 341,-359 184,-359"/>
<polygon fill="none" stroke="#666666" points="169,-264 169,-466 341,-466 341,-264 169,-264"/>
</a>
</g>
</g>
<!-- Node3 -->
<g id="Node000003" class="node">
<title>Node3</title>
<g id="a_Node000003"><a xlink:href="../../d8/d09/classcpplint_1_1__ClassInfo.xhtml" target="_top" xlink:title=" ">
<polygon fill="white" stroke="transparent" points="172,-228 0,-228 0,0 172,0 172,-228"/>
<text text-anchor="start" x="42.5" y="-216" font-family="Helvetica,sans-Serif" font-size="10.00">cpplint._ClassInfo</text>
<text text-anchor="start" x="4" y="-201" font-family="Helvetica,sans-Serif" font-size="10.00">+</text>
<text text-anchor="start" x="17" y="-201" font-family="Helvetica,sans-Serif" font-size="10.00">name</text>
<text text-anchor="start" x="4" y="-186" font-family="Helvetica,sans-Serif" font-size="10.00">+</text>
<text text-anchor="start" x="17" y="-186" font-family="Helvetica,sans-Serif" font-size="10.00">is_derived</text>
<text text-anchor="start" x="4" y="-171" font-family="Helvetica,sans-Serif" font-size="10.00">+</text>
<text text-anchor="start" x="17" y="-171" font-family="Helvetica,sans-Serif" font-size="10.00">check_namespace_indentation</text>
<text text-anchor="start" x="4" y="-156" font-family="Helvetica,sans-Serif" font-size="10.00">+</text>
<text text-anchor="start" x="17" y="-156" font-family="Helvetica,sans-Serif" font-size="10.00">access</text>
<text text-anchor="start" x="4" y="-141" font-family="Helvetica,sans-Serif" font-size="10.00">+</text>
<text text-anchor="start" x="17" y="-141" font-family="Helvetica,sans-Serif" font-size="10.00">is_struct</text>
<text text-anchor="start" x="4" y="-126" font-family="Helvetica,sans-Serif" font-size="10.00">+</text>
<text text-anchor="start" x="17" y="-126" font-family="Helvetica,sans-Serif" font-size="10.00">class_indent</text>
<text text-anchor="start" x="4" y="-111" font-family="Helvetica,sans-Serif" font-size="10.00">+</text>
<text text-anchor="start" x="17" y="-111" font-family="Helvetica,sans-Serif" font-size="10.00">last_line</text>
<text text-anchor="start" x="4" y="-96" font-family="Helvetica,sans-Serif" font-size="10.00">+</text>
<text text-anchor="start" x="17" y="-96" font-family="Helvetica,sans-Serif" font-size="10.00">starting_linenum</text>
<text text-anchor="start" x="4" y="-81" font-family="Helvetica,sans-Serif" font-size="10.00">+</text>
<text text-anchor="start" x="17" y="-81" font-family="Helvetica,sans-Serif" font-size="10.00">__init__(self, name,</text>
<text text-anchor="start" x="17" y="-70" font-family="Helvetica,sans-Serif" font-size="10.00"> class_or_struct, clean</text>
<text text-anchor="start" x="17" y="-59" font-family="Helvetica,sans-Serif" font-size="10.00">_lines, linenum)</text>
<text text-anchor="start" x="4" y="-44" font-family="Helvetica,sans-Serif" font-size="10.00">+</text>
<text text-anchor="start" x="17" y="-44" font-family="Helvetica,sans-Serif" font-size="10.00">CheckBegin(self, filename,</text>
<text text-anchor="start" x="17" y="-33" font-family="Helvetica,sans-Serif" font-size="10.00"> clean_lines, linenum, error)</text>
<text text-anchor="start" x="4" y="-18" font-family="Helvetica,sans-Serif" font-size="10.00">+</text>
<text text-anchor="start" x="17" y="-18" font-family="Helvetica,sans-Serif" font-size="10.00">CheckEnd(self, filename,</text>
<text text-anchor="start" x="17" y="-7" font-family="Helvetica,sans-Serif" font-size="10.00"> clean_lines, linenum, error)</text>
<polygon fill="#666666" stroke="#666666" points="0,-211 0,-211 172,-211 172,-211 0,-211"/>
<polygon fill="#666666" stroke="#666666" points="0,-91 0,-91 15,-91 15,-91 0,-91"/>
<polygon fill="#666666" stroke="#666666" points="15,-91 15,-91 172,-91 172,-91 15,-91"/>
<polygon fill="none" stroke="#666666" points="0,0 0,-228 172,-228 172,0 0,0"/>
</a>
</g>
</g>
<!-- Node1&#45;&gt;Node3 -->
<g id="edge2_Node000001_Node000003" class="edge">
<title>Node1&#45;&gt;Node3</title>
<g id="a_edge2_Node000001_Node000003"><a xlink:title=" ">
<path fill="none" stroke="#63b8ff" d="M181.35,-255.49C175.18,-246.4 168.93,-237.19 162.74,-228.07"/>
<polygon fill="none" stroke="#63b8ff" points="178.48,-257.49 186.99,-263.8 184.27,-253.56 178.48,-257.49"/>
</a>
</g>
</g>
<!-- Node4 -->
<g id="Node000004" class="node">
<title>Node4</title>
<g id="a_Node000004"><a xlink:href="../../db/df6/classcpplint_1_1__ExternCInfo.xhtml" target="_top" xlink:title=" ">
<polygon fill="white" stroke="transparent" points="320,-138.5 190,-138.5 190,-89.5 320,-89.5 320,-138.5"/>
<text text-anchor="start" x="205.5" y="-126" font-family="Helvetica,sans-Serif" font-size="10.00">cpplint._ExternCInfo</text>
<text text-anchor="start" x="253" y="-111" font-family="Helvetica,sans-Serif" font-size="10.00"> </text>
<text text-anchor="start" x="194" y="-96" font-family="Helvetica,sans-Serif" font-size="10.00">+</text>
<text text-anchor="start" x="207" y="-96" font-family="Helvetica,sans-Serif" font-size="10.00">__init__(self, linenum)</text>
<polygon fill="#666666" stroke="#666666" points="190,-121 190,-121 320,-121 320,-121 190,-121"/>
<polygon fill="#666666" stroke="#666666" points="190,-106 190,-106 320,-106 320,-106 190,-106"/>
<polygon fill="none" stroke="#666666" points="190,-89.5 190,-138.5 320,-138.5 320,-89.5 190,-89.5"/>
</a>
</g>
</g>
<!-- Node1&#45;&gt;Node4 -->
<g id="edge3_Node000001_Node000004" class="edge">
<title>Node1&#45;&gt;Node4</title>
<g id="a_edge3_Node000001_Node000004"><a xlink:title=" ">
<path fill="none" stroke="#63b8ff" d="M255,-253.78C255,-210.66 255,-165.23 255,-138.54"/>
<polygon fill="none" stroke="#63b8ff" points="251.5,-253.8 255,-263.8 258.5,-253.8 251.5,-253.8"/>
</a>
</g>
</g>
<!-- Node5 -->
<g id="Node000005" class="node">
<title>Node5</title>
<g id="a_Node000005"><a xlink:href="../../dc/d64/classcpplint_1_1__NamespaceInfo.xhtml" target="_top" xlink:title=" ">
<polygon fill="white" stroke="transparent" points="510,-164.5 338,-164.5 338,-63.5 510,-63.5 510,-164.5"/>
<text text-anchor="start" x="365" y="-152" font-family="Helvetica,sans-Serif" font-size="10.00">cpplint._NamespaceInfo</text>
<text text-anchor="start" x="342" y="-137" font-family="Helvetica,sans-Serif" font-size="10.00">+</text>
<text text-anchor="start" x="355" y="-137" font-family="Helvetica,sans-Serif" font-size="10.00">name</text>
<text text-anchor="start" x="342" y="-122" font-family="Helvetica,sans-Serif" font-size="10.00">+</text>
<text text-anchor="start" x="355" y="-122" font-family="Helvetica,sans-Serif" font-size="10.00">check_namespace_indentation</text>
<text text-anchor="start" x="342" y="-107" font-family="Helvetica,sans-Serif" font-size="10.00">+</text>
<text text-anchor="start" x="355" y="-107" font-family="Helvetica,sans-Serif" font-size="10.00">__init__(self, name,</text>
<text text-anchor="start" x="355" y="-96" font-family="Helvetica,sans-Serif" font-size="10.00"> linenum)</text>
<text text-anchor="start" x="342" y="-81" font-family="Helvetica,sans-Serif" font-size="10.00">+</text>
<text text-anchor="start" x="355" y="-81" font-family="Helvetica,sans-Serif" font-size="10.00">CheckEnd(self, filename,</text>
<text text-anchor="start" x="355" y="-70" font-family="Helvetica,sans-Serif" font-size="10.00"> clean_lines, linenum, error)</text>
<polygon fill="#666666" stroke="#666666" points="338,-147 338,-147 510,-147 510,-147 338,-147"/>
<polygon fill="#666666" stroke="#666666" points="338,-117 338,-117 353,-117 353,-117 338,-117"/>
<polygon fill="#666666" stroke="#666666" points="353,-117 353,-117 510,-117 510,-117 353,-117"/>
<polygon fill="none" stroke="#666666" points="338,-63.5 338,-164.5 510,-164.5 510,-63.5 338,-63.5"/>
</a>
</g>
</g>
<!-- Node1&#45;&gt;Node5 -->
<g id="edge4_Node000001_Node000005" class="edge">
<title>Node1&#45;&gt;Node5</title>
<g id="a_edge4_Node000001_Node000005"><a xlink:title=" ">
<path fill="none" stroke="#63b8ff" d="M328.73,-255.37C350.16,-223.8 372.53,-190.84 390.2,-164.8"/>
<polygon fill="none" stroke="#63b8ff" points="325.73,-253.56 323.01,-263.8 331.52,-257.49 325.73,-253.56"/>
</a>
</g>
</g>
<!-- Node2 -->
<g id="Node000002" class="node">
<title>Node2</title>
<g id="a_Node000002"><a xlink:title=" ">
<polygon fill="white" stroke="transparent" points="275.5,-551 234.5,-551 234.5,-502 275.5,-502 275.5,-551"/>
<text text-anchor="start" x="240" y="-538.5" font-family="Helvetica,sans-Serif" font-size="10.00">object</text>
<text text-anchor="start" x="253.5" y="-523.5" font-family="Helvetica,sans-Serif" font-size="10.00"> </text>
<text text-anchor="start" x="253.5" y="-508.5" font-family="Helvetica,sans-Serif" font-size="10.00"> </text>
<polygon fill="#666666" stroke="#666666" points="235,-533.5 235,-533.5 276,-533.5 276,-533.5 235,-533.5"/>
<polygon fill="#666666" stroke="#666666" points="235,-518.5 235,-518.5 276,-518.5 276,-518.5 235,-518.5"/>
<polygon fill="none" stroke="#666666" points="234.5,-502 234.5,-551 275.5,-551 275.5,-502 234.5,-502"/>
</a>
</g>
</g>
<!-- Node2&#45;&gt;Node1 -->
<g id="edge1_Node000001_Node000002" class="edge">
<title>Node2&#45;&gt;Node1</title>
<g id="a_edge1_Node000001_Node000002"><a xlink:title=" ">
<path fill="none" stroke="#63b8ff" d="M255,-491.88C255,-484.04 255,-475.28 255,-466.15"/>
<polygon fill="none" stroke="#63b8ff" points="251.5,-491.97 255,-501.97 258.5,-491.97 251.5,-491.97"/>
</a>
</g>
</g>
</g>
</svg>
