<?xml version="1.0" encoding="UTF-8" standalone="no"?>
<!DOCTYPE svg PUBLIC "-//W3C//DTD SVG 1.1//EN"
 "http://www.w3.org/Graphics/SVG/1.1/DTD/svg11.dtd">
<!-- Generated by graphviz version 2.43.0 (0)
 -->
<!-- Title: Server Pages: 1 -->
<svg width="148pt" height="469pt"
 viewBox="0.00 0.00 148.00 469.00" xmlns="http://www.w3.org/2000/svg" xmlns:xlink="http://www.w3.org/1999/xlink">
<g id="graph0" class="graph" transform="scale(1 1) rotate(0) translate(4 465)">
<title>Server</title>
<!-- Node1 -->
<g id="Node000001" class="node">
<title>Node1</title>
<g id="a_Node000001"><a xlink:title=" ">
<polygon fill="#999999" stroke="transparent" points="134.5,-49 5.5,-49 5.5,0 134.5,0 134.5,-49"/>
<text text-anchor="start" x="54.5" y="-36.5" font-family="Helvetica,sans-Serif" font-size="10.00">Server</text>
<text text-anchor="start" x="68.5" y="-21.5" font-family="Helvetica,sans-Serif" font-size="10.00"> </text>
<text text-anchor="start" x="10" y="-6.5" font-family="Helvetica,sans-Serif" font-size="10.00">+</text>
<text text-anchor="start" x="23" y="-6.5" font-family="Helvetica,sans-Serif" font-size="10.00">virtual void begin()=0</text>
<polygon fill="#666666" stroke="#666666" points="6,-31.5 6,-31.5 135,-31.5 135,-31.5 6,-31.5"/>
<polygon fill="#666666" stroke="#666666" points="6,-16.5 6,-16.5 135,-16.5 135,-16.5 6,-16.5"/>
<polygon fill="none" stroke="#666666" points="5.5,0 5.5,-49 134.5,-49 134.5,0 5.5,0"/>
</a>
</g>
</g>
<!-- Node2 -->
<g id="Node000002" class="node">
<title>Node2</title>
<g id="a_Node000002"><a xlink:href="../../d9/df9/classPrint.xhtml" target="_top" xlink:title=" ">
<polygon fill="white" stroke="transparent" points="140,-461 0,-461 0,-85 140,-85 140,-461"/>
<text text-anchor="start" x="58.5" y="-449" font-family="Helvetica,sans-Serif" font-size="10.00">Print</text>
<text text-anchor="start" x="6.5" y="-434" font-family="Helvetica,sans-Serif" font-size="10.00">&#45;</text>
<text text-anchor="start" x="17" y="-434" font-family="Helvetica,sans-Serif" font-size="10.00">int write_error</text>
<text text-anchor="start" x="4" y="-419" font-family="Helvetica,sans-Serif" font-size="10.00">+</text>
<text text-anchor="start" x="17" y="-419" font-family="Helvetica,sans-Serif" font-size="10.00">Print()</text>
<text text-anchor="start" x="4" y="-404" font-family="Helvetica,sans-Serif" font-size="10.00">+</text>
<text text-anchor="start" x="17" y="-404" font-family="Helvetica,sans-Serif" font-size="10.00">int getWriteError()</text>
<text text-anchor="start" x="4" y="-389" font-family="Helvetica,sans-Serif" font-size="10.00">+</text>
<text text-anchor="start" x="17" y="-389" font-family="Helvetica,sans-Serif" font-size="10.00">void clearWriteError()</text>
<text text-anchor="start" x="4" y="-374" font-family="Helvetica,sans-Serif" font-size="10.00">+</text>
<text text-anchor="start" x="17" y="-374" font-family="Helvetica,sans-Serif" font-size="10.00">virtual size_t write</text>
<text text-anchor="start" x="17" y="-363" font-family="Helvetica,sans-Serif" font-size="10.00">(uint8_t)=0</text>
<text text-anchor="start" x="4" y="-348" font-family="Helvetica,sans-Serif" font-size="10.00">+</text>
<text text-anchor="start" x="17" y="-348" font-family="Helvetica,sans-Serif" font-size="10.00">size_t write(const</text>
<text text-anchor="start" x="17" y="-337" font-family="Helvetica,sans-Serif" font-size="10.00"> char *str)</text>
<text text-anchor="start" x="4" y="-322" font-family="Helvetica,sans-Serif" font-size="10.00">+</text>
<text text-anchor="start" x="17" y="-322" font-family="Helvetica,sans-Serif" font-size="10.00">virtual size_t write</text>
<text text-anchor="start" x="17" y="-311" font-family="Helvetica,sans-Serif" font-size="10.00">(const uint8_t *buffer,</text>
<text text-anchor="start" x="17" y="-300" font-family="Helvetica,sans-Serif" font-size="10.00"> size_t size)</text>
<text text-anchor="start" x="4" y="-285" font-family="Helvetica,sans-Serif" font-size="10.00">+</text>
<text text-anchor="start" x="17" y="-285" font-family="Helvetica,sans-Serif" font-size="10.00">size_t write(const</text>
<text text-anchor="start" x="17" y="-274" font-family="Helvetica,sans-Serif" font-size="10.00"> char *buffer, size</text>
<text text-anchor="start" x="17" y="-263" font-family="Helvetica,sans-Serif" font-size="10.00">_t size)</text>
<text text-anchor="start" x="4" y="-248" font-family="Helvetica,sans-Serif" font-size="10.00">+</text>
<text text-anchor="start" x="17" y="-248" font-family="Helvetica,sans-Serif" font-size="10.00">virtual int availableFor</text>
<text text-anchor="start" x="17" y="-237" font-family="Helvetica,sans-Serif" font-size="10.00">Write()</text>
<text text-anchor="start" x="4" y="-222" font-family="Helvetica,sans-Serif" font-size="10.00">+</text>
<text text-anchor="start" x="17" y="-222" font-family="Helvetica,sans-Serif" font-size="10.00">size_t print(const</text>
<text text-anchor="start" x="17" y="-211" font-family="Helvetica,sans-Serif" font-size="10.00"> __FlashStringHelper *)</text>
<text text-anchor="start" x="4" y="-196" font-family="Helvetica,sans-Serif" font-size="10.00">+</text>
<text text-anchor="start" x="17" y="-196" font-family="Helvetica,sans-Serif" font-size="10.00">size_t print(const</text>
<text text-anchor="start" x="17" y="-185" font-family="Helvetica,sans-Serif" font-size="10.00"> String &amp;)</text>
<text text-anchor="start" x="17" y="-170" font-family="Helvetica,sans-Serif" font-size="10.00">et 22 de plus...</text>
<text text-anchor="start" x="4" y="-155" font-family="Helvetica,sans-Serif" font-size="10.00">#</text>
<text text-anchor="start" x="17" y="-155" font-family="Helvetica,sans-Serif" font-size="10.00">void setWriteError</text>
<text text-anchor="start" x="17" y="-144" font-family="Helvetica,sans-Serif" font-size="10.00">(int err=1)</text>
<text text-anchor="start" x="6.5" y="-129" font-family="Helvetica,sans-Serif" font-size="10.00">&#45;</text>
<text text-anchor="start" x="17" y="-129" font-family="Helvetica,sans-Serif" font-size="10.00">size_t printNumber</text>
<text text-anchor="start" x="17" y="-118" font-family="Helvetica,sans-Serif" font-size="10.00">(unsigned long, uint8_t)</text>
<text text-anchor="start" x="6.5" y="-103" font-family="Helvetica,sans-Serif" font-size="10.00">&#45;</text>
<text text-anchor="start" x="17" y="-103" font-family="Helvetica,sans-Serif" font-size="10.00">size_t printFloat(double,</text>
<text text-anchor="start" x="17" y="-92" font-family="Helvetica,sans-Serif" font-size="10.00"> uint8_t)</text>
<polygon fill="#666666" stroke="#666666" points="0,-444 0,-444 140,-444 140,-444 0,-444"/>
<polygon fill="#666666" stroke="#666666" points="0,-429 0,-429 15,-429 15,-429 0,-429"/>
<polygon fill="#666666" stroke="#666666" points="15,-429 15,-429 140,-429 140,-429 15,-429"/>
<polygon fill="none" stroke="#666666" points="0,-85 0,-461 140,-461 140,-85 0,-85"/>
</a>
</g>
</g>
<!-- Node2&#45;&gt;Node1 -->
<g id="edge1_Node000001_Node000002" class="edge">
<title>Node2&#45;&gt;Node1</title>
<g id="a_edge1_Node000001_Node000002"><a xlink:title=" ">
<path fill="none" stroke="#63b8ff" d="M70,-74.82C70,-65.1 70,-56.35 70,-49.01"/>
<polygon fill="none" stroke="#63b8ff" points="66.5,-74.86 70,-84.86 73.5,-74.86 66.5,-74.86"/>
</a>
</g>
</g>
</g>
</svg>
