<?xml version="1.0" encoding="UTF-8" standalone="no"?>
<!DOCTYPE svg PUBLIC "-//W3C//DTD SVG 1.1//EN"
 "http://www.w3.org/Graphics/SVG/1.1/DTD/svg11.dtd">
<!-- Generated by graphviz version 2.43.0 (0)
 -->
<!-- Title: switchLEDToWhite Pages: 1 -->
<!--zoomable 362 -->

<svg id="main" version="1.1" xmlns="http://www.w3.org/2000/svg" xmlns:xlink="http://www.w3.org/1999/xlink" xml:space="preserve" onload="init(evt)">
<style type="text/css"><![CDATA[
.node, .edge {opacity: 0.7;}
.node.selected, .edge.selected {opacity: 1;}
.edge:hover path { stroke: red; }
.edge:hover polygon { stroke: red; fill: red; }
]]></style>

<defs>
  <circle id="rim" cx="0" cy="0" r="7"/>
  <circle id="rim2" cx="0" cy="0" r="3.5"/>
  <g id="zoomPlus">
    <use xlink:href="#rim" fill="#404040"><set attributeName="fill" to="#808080" begin="zoomplus.mouseover" end="zoomplus.mouseout"/></use>
    <path d="M-4,0h8M0,-4v8" fill="none" stroke="white" stroke-width="1.5" pointer-events="none"/>
  </g>
  <g id="zoomMin">
    <use xlink:href="#rim" fill="#404040"><set attributeName="fill" to="#808080" begin="zoomminus.mouseover" end="zoomminus.mouseout"/></use>
    <path d="M-4,0h8" fill="none" stroke="white" stroke-width="1.5" pointer-events="none"/>
  </g>
  <g id="arrowUp" transform="translate(30 24)">
    <use xlink:href="#rim"/>
    <path pointer-events="none" fill="none" stroke="white" stroke-width="1.5" d="M0,-3.0v7 M-2.5,-0.5L0,-3.0L2.5,-0.5"/>
  </g>
  <g id="arrowRight" transform="rotate(90) translate(36 -43)">
    <use xlink:href="#rim"/>
    <path pointer-events="none" fill="none" stroke="white" stroke-width="1.5" d="M0,-3.0v7 M-2.5,-0.5L0,-3.0L2.5,-0.5"/>
  </g>
  <g id="arrowDown" transform="rotate(180) translate(-30 -48)">
    <use xlink:href="#rim"/>
    <path pointer-events="none" fill="none" stroke="white" stroke-width="1.5" d="M0,-3.0v7 M-2.5,-0.5L0,-3.0L2.5,-0.5"/>
  </g>
  <g id="arrowLeft" transform="rotate(270) translate(-36 17)">
    <use xlink:href="#rim"/>
    <path pointer-events="none" fill="none" stroke="white" stroke-width="1.5" d="M0,-3.0v7 M-2.5,-0.5L0,-3.0L2.5,-0.5"/>
  </g>
  <g id="resetDef">
    <use xlink:href="#rim2" fill="#404040"><set attributeName="fill" to="#808080" begin="reset.mouseover" end="reset.mouseout"/></use>
  </g>
</defs>
<script type="application/ecmascript">
var viewWidth = 1212;
var viewHeight = 362;
var sectionId = 'dynsection-32';
</script>
<script type="application/ecmascript" xlink:href="../../svg.min.js"/>
<svg id="graph" class="graph">
<g id="viewport">
<title>switchLEDToWhite</title>
<!-- Node1 -->
<g id="Node000001" class="node">
<title>Node1</title>
<g id="a_Node000001"><a xlink:title="Allume la LED en blanc.">
<polygon fill="#999999" stroke="#666666" points="1204,-92 1098,-92 1098,-73 1204,-73 1204,-92"/>
<text text-anchor="middle" x="1151" y="-80" font-family="Helvetica,sans-Serif" font-size="10.00">switchLEDToWhite</text>
</a>
</g>
</g>
<!-- Node2 -->
<g id="Node000002" class="node">
<title>Node2</title>
<g id="a_Node000002"><a xlink:href="../../d6/d30/acquisition_8cpp.xhtml#aa378a3751950c161e743d0fcac2044f2" target="_top" xlink:title="Fonction d&#39;acquisition des données.">
<polygon fill="white" stroke="#666666" points="599,-54 529,-54 529,-35 599,-35 599,-54"/>
<text text-anchor="middle" x="564" y="-42" font-family="Helvetica,sans-Serif" font-size="10.00">acquisition</text>
</a>
</g>
</g>
<!-- Node1&#45;&gt;Node2 -->
<g id="edge1_Node000001_Node000002" class="edge">
<title>Node1&#45;&gt;Node2</title>
<g id="a_edge1_Node000001_Node000002"><a xlink:title=" ">
<path fill="none" stroke="#63b8ff" d="M1104.75,-70.46C1018.92,-49.09 826.5,-8.25 664,-24.5 642.19,-26.68 618.08,-31.5 599.11,-35.86"/>
<polygon fill="#63b8ff" stroke="#63b8ff" points="1104.13,-73.91 1114.68,-72.96 1105.84,-67.12 1104.13,-73.91"/>
</a>
</g>
</g>
<!-- Node8 -->
<g id="Node000008" class="node">
<title>Node8</title>
<g id="a_Node000008"><a xlink:href="../../db/d17/led_8cpp.xhtml#ac050c3041978fab0c3028de0fdc31618" target="_top" xlink:title="La LED passe successivement du rouge au blanc. La LED reste rouge pendant 1 seconde puis passe au bla...">
<polygon fill="white" stroke="#666666" points="1062,-129 931,-129 931,-110 1062,-110 1062,-129"/>
<text text-anchor="middle" x="996.5" y="-117" font-family="Helvetica,sans-Serif" font-size="10.00">switchLEDToRed2White</text>
</a>
</g>
</g>
<!-- Node1&#45;&gt;Node8 -->
<g id="edge9_Node000001_Node000008" class="edge">
<title>Node1&#45;&gt;Node8</title>
<g id="a_edge9_Node000001_Node000008"><a xlink:title=" ">
<path fill="none" stroke="#63b8ff" d="M1100.85,-94.43C1080.16,-99.44 1056.41,-105.21 1036.9,-109.94"/>
<polygon fill="#63b8ff" stroke="#63b8ff" points="1101.83,-97.79 1110.73,-92.03 1100.18,-90.98 1101.83,-97.79"/>
</a>
</g>
</g>
<!-- Node25 -->
<g id="Node000025" class="node">
<title>Node25</title>
<g id="a_Node000025"><a xlink:href="../../db/d17/led_8cpp.xhtml#a3f8b463c1fa4e1715beb1a4a6e4c36b3" target="_top" xlink:title="La LED passe successivement du rouge au blanc avec une fréquence de 1 seconde.">
<polygon fill="white" stroke="#666666" points="1059,-92 934,-92 934,-73 1059,-73 1059,-92"/>
<text text-anchor="middle" x="996.5" y="-80" font-family="Helvetica,sans-Serif" font-size="10.00">switchLEDToRedWhite</text>
</a>
</g>
</g>
<!-- Node1&#45;&gt;Node25 -->
<g id="edge36_Node000001_Node000025" class="edge">
<title>Node1&#45;&gt;Node25</title>
<g id="a_edge36_Node000001_Node000025"><a xlink:title=" ">
<path fill="none" stroke="#63b8ff" d="M1087.8,-82.5C1078.31,-82.5 1068.53,-82.5 1059.05,-82.5"/>
<polygon fill="#63b8ff" stroke="#63b8ff" points="1087.94,-86 1097.94,-82.5 1087.94,-79 1087.94,-86"/>
</a>
</g>
</g>
<!-- Node3 -->
<g id="Node000003" class="node">
<title>Node3</title>
<g id="a_Node000003"><a xlink:href="../../d9/ddd/economy_8cpp.xhtml#a35740c7a73b48d918cb4e6d891d46bed" target="_top" xlink:title="Exécute une étape de la boucle principale du mode économique.">
<polygon fill="white" stroke="#666666" points="455,-93 329,-93 329,-74 455,-74 455,-93"/>
<text text-anchor="middle" x="392" y="-81" font-family="Helvetica,sans-Serif" font-size="10.00">runEconomyModeStep</text>
</a>
</g>
</g>
<!-- Node2&#45;&gt;Node3 -->
<g id="edge2_Node000002_Node000003" class="edge">
<title>Node2&#45;&gt;Node3</title>
<g id="a_edge2_Node000002_Node000003"><a xlink:title=" ">
<path fill="none" stroke="#63b8ff" d="M518.63,-54.68C492.65,-60.64 460.04,-68.12 434.56,-73.97"/>
<polygon fill="#63b8ff" stroke="#63b8ff" points="519.63,-58.04 528.6,-52.39 518.07,-51.22 519.63,-58.04"/>
</a>
</g>
</g>
<!-- Node6 -->
<g id="Node000006" class="node">
<title>Node6</title>
<g id="a_Node000006"><a xlink:href="../../d6/d46/maintenance_8cpp.xhtml#ae80c7faecffa585182b14e2ee396009e" target="_top" xlink:title="Exécute une étape de la boucle principale du mode maintenance.">
<polygon fill="white" stroke="#666666" points="464,-19 320,-19 320,0 464,0 464,-19"/>
<text text-anchor="middle" x="392" y="-7" font-family="Helvetica,sans-Serif" font-size="10.00">runMaintenanceModeStep</text>
</a>
</g>
</g>
<!-- Node2&#45;&gt;Node6 -->
<g id="edge5_Node000002_Node000006" class="edge">
<title>Node2&#45;&gt;Node6</title>
<g id="a_edge5_Node000002_Node000006"><a xlink:title=" ">
<path fill="none" stroke="#63b8ff" d="M518.53,-35.35C494.15,-30.32 463.94,-24.11 439.27,-19.03"/>
<polygon fill="#63b8ff" stroke="#63b8ff" points="518.1,-38.83 528.6,-37.42 519.51,-31.97 518.1,-38.83"/>
</a>
</g>
</g>
<!-- Node7 -->
<g id="Node000007" class="node">
<title>Node7</title>
<g id="a_Node000007"><a xlink:href="../../df/d92/standard_8cpp.xhtml#ad0b3e86793f7441084351fc2de4d4c45" target="_top" xlink:title="Exécute une étape de la boucle principale du mode standard.">
<polygon fill="white" stroke="#666666" points="454.5,-56 329.5,-56 329.5,-37 454.5,-37 454.5,-56"/>
<text text-anchor="middle" x="392" y="-44" font-family="Helvetica,sans-Serif" font-size="10.00">runStandardModeStep</text>
</a>
</g>
</g>
<!-- Node2&#45;&gt;Node7 -->
<g id="edge7_Node000002_Node000007" class="edge">
<title>Node2&#45;&gt;Node7</title>
<g id="a_edge7_Node000002_Node000007"><a xlink:title=" ">
<path fill="none" stroke="#63b8ff" d="M518.46,-45.02C498.92,-45.25 475.67,-45.53 454.52,-45.78"/>
<polygon fill="#63b8ff" stroke="#63b8ff" points="518.64,-48.52 528.6,-44.9 518.56,-41.52 518.64,-48.52"/>
</a>
</g>
</g>
<!-- Node4 -->
<g id="Node000004" class="node">
<title>Node4</title>
<g id="a_Node000004"><a xlink:href="../../de/dfb/src_2main_8cpp.xhtml#afe461d27b9c48d5921c00d521181f12f" target="_top" xlink:title=" ">
<polygon fill="white" stroke="#666666" points="239.5,-56 201.5,-56 201.5,-37 239.5,-37 239.5,-56"/>
<text text-anchor="middle" x="220.5" y="-44" font-family="Helvetica,sans-Serif" font-size="10.00">loop</text>
</a>
</g>
</g>
<!-- Node3&#45;&gt;Node4 -->
<g id="edge3_Node000003_Node000004" class="edge">
<title>Node3&#45;&gt;Node4</title>
<g id="a_edge3_Node000003_Node000004"><a xlink:title=" ">
<path fill="none" stroke="#63b8ff" d="M337.23,-71.76C303.77,-64.46 262.83,-55.52 239.7,-50.47"/>
<polygon fill="#63b8ff" stroke="#63b8ff" points="336.83,-75.26 347.35,-73.97 338.33,-68.42 336.83,-75.26"/>
</a>
</g>
</g>
<!-- Node5 -->
<g id="Node000005" class="node">
<title>Node5</title>
<g id="a_Node000005"><a xlink:href="../../d2/d81/libs_2Arduino__AVR_2main_8cpp.xhtml#a840291bc02cba5474a4cb46a9b9566fe" target="_top" xlink:title=" ">
<polygon fill="white" stroke="#666666" points="41,-111 0,-111 0,-92 41,-92 41,-111"/>
<text text-anchor="middle" x="20.5" y="-99" font-family="Helvetica,sans-Serif" font-size="10.00">main</text>
</a>
</g>
</g>
<!-- Node4&#45;&gt;Node5 -->
<g id="edge4_Node000004_Node000005" class="edge">
<title>Node4&#45;&gt;Node5</title>
<g id="a_edge4_Node000004_Node000005"><a xlink:title=" ">
<path fill="none" stroke="#63b8ff" d="M191.42,-54.3C150.76,-65.59 76.51,-86.22 41.19,-96.03"/>
<polygon fill="#63b8ff" stroke="#63b8ff" points="192.53,-57.62 201.23,-51.58 190.66,-50.88 192.53,-57.62"/>
</a>
</g>
</g>
<!-- Node6&#45;&gt;Node4 -->
<g id="edge6_Node000006_Node000004" class="edge">
<title>Node6&#45;&gt;Node4</title>
<g id="a_edge6_Node000006_Node000004"><a xlink:title=" ">
<path fill="none" stroke="#63b8ff" d="M337.23,-21.24C303.77,-28.54 262.83,-37.48 239.7,-42.53"/>
<polygon fill="#63b8ff" stroke="#63b8ff" points="338.33,-24.58 347.35,-19.03 336.83,-17.74 338.33,-24.58"/>
</a>
</g>
</g>
<!-- Node7&#45;&gt;Node4 -->
<g id="edge8_Node000007_Node000004" class="edge">
<title>Node7&#45;&gt;Node4</title>
<g id="a_edge8_Node000007_Node000004"><a xlink:title=" ">
<path fill="none" stroke="#63b8ff" d="M319.13,-46.5C289.99,-46.5 258.77,-46.5 239.69,-46.5"/>
<polygon fill="#63b8ff" stroke="#63b8ff" points="319.33,-50 329.33,-46.5 319.33,-43 319.33,-50"/>
</a>
</g>
</g>
<!-- Node9 -->
<g id="Node000009" class="node">
<title>Node9</title>
<g id="a_Node000009"><a xlink:href="../../dd/db1/error_8cpp.xhtml#aa07018cc68b21b664b4ca75a67e679f0" target="_top" xlink:title=" ">
<polygon fill="white" stroke="#666666" points="895,-129 786,-129 786,-110 895,-110 895,-129"/>
<text text-anchor="middle" x="840.5" y="-117" font-family="Helvetica,sans-Serif" font-size="10.00">switchToErrorMode</text>
</a>
</g>
</g>
<!-- Node8&#45;&gt;Node9 -->
<g id="edge10_Node000008_Node000009" class="edge">
<title>Node8&#45;&gt;Node9</title>
<g id="a_edge10_Node000008_Node000009"><a xlink:title=" ">
<path fill="none" stroke="#63b8ff" d="M920.58,-119.5C911.98,-119.5 903.35,-119.5 895.11,-119.5"/>
<polygon fill="#63b8ff" stroke="#63b8ff" points="920.64,-123 930.64,-119.5 920.64,-116 920.64,-123"/>
</a>
</g>
</g>
<!-- Node9&#45;&gt;Node2 -->
<g id="edge11_Node000009_Node000002" class="edge">
<title>Node9&#45;&gt;Node2</title>
<g id="a_edge11_Node000009_Node000002"><a xlink:title=" ">
<path fill="none" stroke="#63b8ff" d="M794.69,-107.26C740.04,-92.33 648.85,-67.41 599.4,-53.9"/>
<polygon fill="#63b8ff" stroke="#63b8ff" points="793.89,-110.67 804.46,-109.93 795.73,-103.91 793.89,-110.67"/>
</a>
</g>
</g>
<!-- Node10 -->
<g id="Node000010" class="node">
<title>Node10</title>
<g id="a_Node000010"><a xlink:href="../../d4/d82/bme_8cpp.xhtml#a60b50a3dd4d18262c0376da53233f071" target="_top" xlink:title="Initialise le capteur BME280.">
<polygon fill="white" stroke="#666666" points="419,-149 365,-149 365,-130 419,-130 419,-149"/>
<text text-anchor="middle" x="392" y="-137" font-family="Helvetica,sans-Serif" font-size="10.00">initBME</text>
</a>
</g>
</g>
<!-- Node9&#45;&gt;Node10 -->
<g id="edge12_Node000009_Node000010" class="edge">
<title>Node9&#45;&gt;Node10</title>
<g id="a_edge12_Node000009_Node000010"><a xlink:title=" ">
<path fill="none" stroke="#63b8ff" d="M775.4,-122.37C675.71,-126.84 487.82,-135.25 419.06,-138.33"/>
<polygon fill="#63b8ff" stroke="#63b8ff" points="775.81,-125.86 785.64,-121.91 775.5,-118.86 775.81,-125.86"/>
</a>
</g>
</g>
<!-- Node15 -->
<g id="Node000015" class="node">
<title>Node15</title>
<g id="a_Node000015"><a xlink:href="../../d0/ded/sd_8cpp.xhtml#a9d3643dd7aeaea6f58648a50f1ad7833" target="_top" xlink:title="Montage de la carte SD.">
<polygon fill="white" stroke="#666666" points="731,-224 683,-224 683,-205 731,-205 731,-224"/>
<text text-anchor="middle" x="707" y="-212" font-family="Helvetica,sans-Serif" font-size="10.00">mount</text>
</a>
</g>
</g>
<!-- Node9&#45;&gt;Node15 -->
<g id="edge20_Node000009_Node000015" class="edge">
<title>Node9&#45;&gt;Node15</title>
<g id="a_edge20_Node000009_Node000015"><a xlink:title=" ">
<path fill="none" stroke="#63b8ff" d="M817.73,-135.23C790.29,-155.05 743.98,-188.51 721.31,-204.89"/>
<polygon fill="#63b8ff" stroke="#63b8ff" points="819.87,-138 825.92,-129.31 815.77,-132.33 819.87,-138"/>
</a>
</g>
</g>
<!-- Node18 -->
<g id="Node000018" class="node">
<title>Node18</title>
<g id="a_Node000018"><a xlink:href="../../dc/d3d/gps_8cpp.xhtml#a05a3d705d8063851304bb49200834d1b" target="_top" xlink:title="Lit les données GPS.">
<polygon fill="white" stroke="#666666" points="736,-53 678,-53 678,-34 736,-34 736,-53"/>
<text text-anchor="middle" x="707" y="-41" font-family="Helvetica,sans-Serif" font-size="10.00">readGPS</text>
</a>
</g>
</g>
<!-- Node9&#45;&gt;Node18 -->
<g id="edge24_Node000009_Node000018" class="edge">
<title>Node9&#45;&gt;Node18</title>
<g id="a_edge24_Node000009_Node000018"><a xlink:title=" ">
<path fill="none" stroke="#63b8ff" d="M814.32,-104.81C796.4,-94.36 771.75,-80.03 750,-67.5 741.7,-62.72 732.47,-57.44 724.77,-53.05"/>
<polygon fill="#63b8ff" stroke="#63b8ff" points="812.62,-107.87 823.02,-109.88 816.15,-101.82 812.62,-107.87"/>
</a>
</g>
</g>
<!-- Node19 -->
<g id="Node000019" class="node">
<title>Node19</title>
<g id="a_Node000019"><a xlink:href="../../d0/ded/sd_8cpp.xhtml#a5b86241374c9a379af845d4adaa170b5" target="_top" xlink:title="Sauvegarde des données sur la carte SD.">
<polygon fill="white" stroke="#666666" points="595.5,-93 532.5,-93 532.5,-74 595.5,-74 595.5,-93"/>
<text text-anchor="middle" x="564" y="-81" font-family="Helvetica,sans-Serif" font-size="10.00">saveData</text>
</a>
</g>
</g>
<!-- Node9&#45;&gt;Node19 -->
<g id="edge26_Node000009_Node000019" class="edge">
<title>Node9&#45;&gt;Node19</title>
<g id="a_edge26_Node000009_Node000019"><a xlink:title=" ">
<path fill="none" stroke="#63b8ff" d="M775.66,-111.13C719.19,-103.72 639.21,-93.23 595.85,-87.55"/>
<polygon fill="#63b8ff" stroke="#63b8ff" points="775.55,-114.64 785.92,-112.47 776.46,-107.7 775.55,-114.64"/>
</a>
</g>
</g>
<!-- Node20 -->
<g id="Node000020" class="node">
<title>Node20</title>
<g id="a_Node000020"><a xlink:href="../../d9/d88/mode_8cpp.xhtml#a5117cd9a1dd27db325ab6540d8d2c983" target="_top" xlink:title="Change le mode actuel.">
<polygon fill="white" stroke="#666666" points="750,-317 664,-317 664,-298 750,-298 750,-317"/>
<text text-anchor="middle" x="707" y="-305" font-family="Helvetica,sans-Serif" font-size="10.00">switchToMode</text>
</a>
</g>
</g>
<!-- Node9&#45;&gt;Node20 -->
<g id="edge29_Node000009_Node000020" class="edge">
<title>Node9&#45;&gt;Node20</title>
<g id="a_edge29_Node000009_Node000020"><a xlink:title=" ">
<path fill="none" stroke="#63b8ff" d="M827,-137.37C799.77,-176.3 735.88,-267.64 714.85,-297.71"/>
<polygon fill="#63b8ff" stroke="#63b8ff" points="829.93,-139.28 832.8,-129.08 824.2,-135.27 829.93,-139.28"/>
</a>
</g>
</g>
<!-- Node11 -->
<g id="Node000011" class="node">
<title>Node11</title>
<g id="a_Node000011"><a xlink:href="../../dd/d8e/humidity_8cpp.xhtml#a8813b724c24b006d720ff4e9be164093" target="_top" xlink:title="Initialise le capteur d&#39;humidité.">
<polygon fill="white" stroke="#666666" points="275.5,-167 165.5,-167 165.5,-148 275.5,-148 275.5,-167"/>
<text text-anchor="middle" x="220.5" y="-155" font-family="Helvetica,sans-Serif" font-size="10.00">initHumiditySensor</text>
</a>
</g>
</g>
<!-- Node10&#45;&gt;Node11 -->
<g id="edge13_Node000010_Node000011" class="edge">
<title>Node10&#45;&gt;Node11</title>
<g id="a_edge13_Node000010_Node000011"><a xlink:title=" ">
<path fill="none" stroke="#63b8ff" d="M354.86,-143.34C331.84,-145.78 301.58,-149 275.71,-151.74"/>
<polygon fill="#63b8ff" stroke="#63b8ff" points="355.31,-146.81 364.89,-142.27 354.57,-139.85 355.31,-146.81"/>
</a>
</g>
</g>
<!-- Node13 -->
<g id="Node000013" class="node">
<title>Node13</title>
<g id="a_Node000013"><a xlink:href="../../d8/ddf/pressure_8cpp.xhtml#afeb7254ac3d1603fe28432de687313fb" target="_top" xlink:title="Initialise le capteur de pression.">
<polygon fill="white" stroke="#666666" points="274,-130 167,-130 167,-111 274,-111 274,-130"/>
<text text-anchor="middle" x="220.5" y="-118" font-family="Helvetica,sans-Serif" font-size="10.00">initPressureSensor</text>
</a>
</g>
</g>
<!-- Node10&#45;&gt;Node13 -->
<g id="edge16_Node000010_Node000013" class="edge">
<title>Node10&#45;&gt;Node13</title>
<g id="a_edge16_Node000010_Node000013"><a xlink:title=" ">
<path fill="none" stroke="#63b8ff" d="M354.69,-135.43C331.28,-132.81 300.43,-129.35 274.31,-126.42"/>
<polygon fill="#63b8ff" stroke="#63b8ff" points="354.56,-138.94 364.89,-136.57 355.34,-131.98 354.56,-138.94"/>
</a>
</g>
</g>
<!-- Node14 -->
<g id="Node000014" class="node">
<title>Node14</title>
<g id="a_Node000014"><a xlink:href="../../d0/d3d/temperature_8cpp.xhtml#ac69c9a2d697216ab21dcab3087b54729" target="_top" xlink:title="Initialise le capteur de température.">
<polygon fill="white" stroke="#666666" points="284,-93 157,-93 157,-74 284,-74 284,-93"/>
<text text-anchor="middle" x="220.5" y="-81" font-family="Helvetica,sans-Serif" font-size="10.00">initTemperatureSensor</text>
</a>
</g>
</g>
<!-- Node10&#45;&gt;Node14 -->
<g id="edge18_Node000010_Node000014" class="edge">
<title>Node10&#45;&gt;Node14</title>
<g id="a_edge18_Node000010_Node000014"><a xlink:title=" ">
<path fill="none" stroke="#63b8ff" d="M355.05,-126.69C334.34,-119.4 307.78,-110.22 284,-102.5 274.18,-99.31 263.45,-95.99 253.69,-93.03"/>
<polygon fill="#63b8ff" stroke="#63b8ff" points="354.12,-130.07 364.71,-130.1 356.44,-123.47 354.12,-130.07"/>
</a>
</g>
</g>
<!-- Node12 -->
<g id="Node000012" class="node">
<title>Node12</title>
<g id="a_Node000012"><a xlink:href="../../de/dfb/src_2main_8cpp.xhtml#a4fc01d736fe50cf5b977f755b675f11d" target="_top" xlink:title=" ">
<polygon fill="white" stroke="#666666" points="121,-148 77,-148 77,-129 121,-129 121,-148"/>
<text text-anchor="middle" x="99" y="-136" font-family="Helvetica,sans-Serif" font-size="10.00">setup</text>
</a>
</g>
</g>
<!-- Node11&#45;&gt;Node12 -->
<g id="edge14_Node000011_Node000012" class="edge">
<title>Node11&#45;&gt;Node12</title>
<g id="a_edge14_Node000011_Node000012"><a xlink:title=" ">
<path fill="none" stroke="#63b8ff" d="M155.39,-147.31C142.99,-145.34 130.85,-143.4 121.11,-141.86"/>
<polygon fill="#63b8ff" stroke="#63b8ff" points="154.92,-150.78 165.34,-148.89 156.02,-143.86 154.92,-150.78"/>
</a>
</g>
</g>
<!-- Node12&#45;&gt;Node5 -->
<g id="edge15_Node000012_Node000005" class="edge">
<title>Node12&#45;&gt;Node5</title>
<g id="a_edge15_Node000012_Node000005"><a xlink:title=" ">
<path fill="none" stroke="#63b8ff" d="M69.28,-124.61C59.89,-120.07 49.69,-115.14 41.13,-111"/>
<polygon fill="#63b8ff" stroke="#63b8ff" points="67.77,-127.77 78.3,-128.97 70.82,-121.47 67.77,-127.77"/>
</a>
</g>
</g>
<!-- Node13&#45;&gt;Node12 -->
<g id="edge17_Node000013_Node000012" class="edge">
<title>Node13&#45;&gt;Node12</title>
<g id="a_edge17_Node000013_Node000012"><a xlink:title=" ">
<path fill="none" stroke="#63b8ff" d="M156.48,-129.99C143.69,-131.92 131.1,-133.81 121.07,-135.33"/>
<polygon fill="#63b8ff" stroke="#63b8ff" points="157.37,-133.4 166.74,-128.45 156.33,-126.48 157.37,-133.4"/>
</a>
</g>
</g>
<!-- Node14&#45;&gt;Node12 -->
<g id="edge19_Node000014_Node000012" class="edge">
<title>Node14&#45;&gt;Node12</title>
<g id="a_edge19_Node000014_Node000012"><a xlink:title=" ">
<path fill="none" stroke="#63b8ff" d="M172.61,-96.25C167.27,-98.14 161.96,-100.23 157,-102.5 141.04,-109.81 124.21,-120.91 113.01,-128.85"/>
<polygon fill="#63b8ff" stroke="#63b8ff" points="173.83,-99.53 182.21,-93.05 171.61,-92.89 173.83,-99.53"/>
</a>
</g>
</g>
<!-- Node15&#45;&gt;Node12 -->
<g id="edge23_Node000015_Node000012" class="edge">
<title>Node15&#45;&gt;Node12</title>
<g id="a_edge23_Node000015_Node000012"><a xlink:title=" ">
<path fill="none" stroke="#63b8ff" d="M672.48,-214.42C568.59,-213.82 253.18,-209.29 157,-176.5 139.21,-170.44 121.67,-157.38 110.84,-148.28"/>
<polygon fill="#63b8ff" stroke="#63b8ff" points="672.68,-217.92 682.7,-214.47 672.71,-210.92 672.68,-217.92"/>
</a>
</g>
</g>
<!-- Node16 -->
<g id="Node000016" class="node">
<title>Node16</title>
<g id="a_Node000016"><a xlink:href="../../df/d22/configuration_8cpp.xhtml#a9e246d9996b76ad7b81266d6533a930e" target="_top" xlink:title="Quitte le mode de configuration.">
<polygon fill="white" stroke="#666666" points="628,-280 500,-280 500,-261 628,-261 628,-280"/>
<text text-anchor="middle" x="564" y="-268" font-family="Helvetica,sans-Serif" font-size="10.00">quitConfigurationMode</text>
</a>
</g>
</g>
<!-- Node15&#45;&gt;Node16 -->
<g id="edge21_Node000015_Node000016" class="edge">
<title>Node15&#45;&gt;Node16</title>
<g id="a_edge21_Node000015_Node000016"><a xlink:title=" ">
<path fill="none" stroke="#63b8ff" d="M679.62,-228.78C664.75,-236.47 645.65,-245.74 628,-252.5 619.93,-255.59 611.09,-258.44 602.67,-260.9"/>
<polygon fill="#63b8ff" stroke="#63b8ff" points="681.51,-231.75 688.73,-224 678.25,-225.55 681.51,-231.75"/>
</a>
</g>
</g>
<!-- Node17 -->
<g id="Node000017" class="node">
<title>Node17</title>
<g id="a_Node000017"><a xlink:href="../../d6/d46/maintenance_8cpp.xhtml#ac99882e56a7b3976942cb3ffb6bebe98" target="_top" xlink:title="Quitte le mode maintenance.">
<polygon fill="white" stroke="#666666" points="626.5,-243 501.5,-243 501.5,-224 626.5,-224 626.5,-243"/>
<text text-anchor="middle" x="564" y="-231" font-family="Helvetica,sans-Serif" font-size="10.00">quitMaintenanceMode</text>
</a>
</g>
</g>
<!-- Node15&#45;&gt;Node17 -->
<g id="edge22_Node000015_Node000017" class="edge">
<title>Node15&#45;&gt;Node17</title>
<g id="a_edge22_Node000015_Node000017"><a xlink:title=" ">
<path fill="none" stroke="#63b8ff" d="M672.75,-218.98C658.96,-220.84 642.5,-223.06 626.65,-225.19"/>
<polygon fill="#63b8ff" stroke="#63b8ff" points="673.27,-222.44 682.72,-217.64 672.34,-215.5 673.27,-222.44"/>
</a>
</g>
</g>
<!-- Node18&#45;&gt;Node2 -->
<g id="edge25_Node000018_Node000002" class="edge">
<title>Node18&#45;&gt;Node2</title>
<g id="a_edge25_Node000018_Node000002"><a xlink:title=" ">
<path fill="none" stroke="#63b8ff" d="M667.74,-43.77C646.32,-43.92 619.83,-44.11 599.12,-44.26"/>
<polygon fill="#63b8ff" stroke="#63b8ff" points="667.83,-47.27 677.81,-43.7 667.78,-40.27 667.83,-47.27"/>
</a>
</g>
</g>
<!-- Node19&#45;&gt;Node3 -->
<g id="edge27_Node000019_Node000003" class="edge">
<title>Node19&#45;&gt;Node3</title>
<g id="a_edge27_Node000019_Node000003"><a xlink:title=" ">
<path fill="none" stroke="#63b8ff" d="M522.18,-83.5C502.14,-83.5 477.57,-83.5 455.25,-83.5"/>
<polygon fill="#63b8ff" stroke="#63b8ff" points="522.21,-87 532.21,-83.5 522.21,-80 522.21,-87"/>
</a>
</g>
</g>
<!-- Node19&#45;&gt;Node7 -->
<g id="edge28_Node000019_Node000007" class="edge">
<title>Node19&#45;&gt;Node7</title>
<g id="a_edge28_Node000019_Node000007"><a xlink:title=" ">
<path fill="none" stroke="#63b8ff" d="M522.36,-74.65C496.52,-69.03 463.07,-61.75 436.67,-56"/>
<polygon fill="#63b8ff" stroke="#63b8ff" points="521.7,-78.09 532.21,-76.8 523.19,-71.25 521.7,-78.09"/>
</a>
</g>
</g>
<!-- Node21 -->
<g id="Node000021" class="node">
<title>Node21</title>
<g id="a_Node000021"><a xlink:href="../../d9/d88/mode_8cpp.xhtml#aebf1ca4bb83f667202b4a32cc7d3e2a9" target="_top" xlink:title="Réalise le changement de mode lorsqu&#39;on appuie sur le bouton vert pendant BUTTON_DELAY.">
<polygon fill="white" stroke="#666666" points="621.5,-317 506.5,-317 506.5,-298 621.5,-298 621.5,-317"/>
<text text-anchor="middle" x="564" y="-305" font-family="Helvetica,sans-Serif" font-size="10.00">greenButtonPressed</text>
</a>
</g>
</g>
<!-- Node20&#45;&gt;Node21 -->
<g id="edge30_Node000020_Node000021" class="edge">
<title>Node20&#45;&gt;Node21</title>
<g id="a_edge30_Node000020_Node000021"><a xlink:title=" ">
<path fill="none" stroke="#63b8ff" d="M653.52,-307.5C643.12,-307.5 632.16,-307.5 621.62,-307.5"/>
<polygon fill="#63b8ff" stroke="#63b8ff" points="653.7,-311 663.7,-307.5 653.7,-304 653.7,-311"/>
</a>
</g>
</g>
<!-- Node24 -->
<g id="Node000024" class="node">
<title>Node24</title>
<g id="a_Node000024"><a xlink:href="../../d9/d88/mode_8cpp.xhtml#abfb388c3517fd2ecbd1a89e7e15e43fd" target="_top" xlink:title="Réalise le changement de mode lorsqu&#39;on appuie sur le bouton rouge pendant BUTTON_DELAY.">
<polygon fill="white" stroke="#666666" points="615.5,-354 512.5,-354 512.5,-335 615.5,-335 615.5,-354"/>
<text text-anchor="middle" x="564" y="-342" font-family="Helvetica,sans-Serif" font-size="10.00">redButtonPressed</text>
</a>
</g>
</g>
<!-- Node20&#45;&gt;Node24 -->
<g id="edge34_Node000020_Node000024" class="edge">
<title>Node20&#45;&gt;Node24</title>
<g id="a_edge34_Node000020_Node000024"><a xlink:title=" ">
<path fill="none" stroke="#63b8ff" d="M659.81,-319.62C640.95,-324.57 619.44,-330.22 601.68,-334.88"/>
<polygon fill="#63b8ff" stroke="#63b8ff" points="660.9,-322.95 669.69,-317.03 659.13,-316.18 660.9,-322.95"/>
</a>
</g>
</g>
<!-- Node22 -->
<g id="Node000022" class="node">
<title>Node22</title>
<g id="a_Node000022"><a xlink:href="../../d9/d52/buttons_8cpp.xhtml#a54d82e2e60914d150743dcfe6ddbbece" target="_top" xlink:title="Fonction appelée lors de l&#39;appui sur le bouton vert ou rouge.">
<polygon fill="white" stroke="#666666" points="435,-317 349,-317 349,-298 435,-298 435,-317"/>
<text text-anchor="middle" x="392" y="-305" font-family="Helvetica,sans-Serif" font-size="10.00">buttonPressed</text>
</a>
</g>
</g>
<!-- Node21&#45;&gt;Node22 -->
<g id="edge31_Node000021_Node000022" class="edge">
<title>Node21&#45;&gt;Node22</title>
<g id="a_edge31_Node000021_Node000022"><a xlink:title=" ">
<path fill="none" stroke="#63b8ff" d="M496.12,-307.5C475.56,-307.5 453.52,-307.5 435.11,-307.5"/>
<polygon fill="#63b8ff" stroke="#63b8ff" points="496.39,-311 506.39,-307.5 496.39,-304 496.39,-311"/>
</a>
</g>
</g>
<!-- Node23 -->
<g id="Node000023" class="node">
<title>Node23</title>
<g id="a_Node000023"><a xlink:href="../../d9/d52/buttons_8cpp.xhtml#a82677b3df6b653b673a4b1735af9d45d" target="_top" xlink:title="Initialise les interruptions sur les boutons.">
<polygon fill="white" stroke="#666666" points="276.5,-280 164.5,-280 164.5,-261 276.5,-261 276.5,-280"/>
<text text-anchor="middle" x="220.5" y="-268" font-family="Helvetica,sans-Serif" font-size="10.00">initButtonsInterrupt</text>
</a>
</g>
</g>
<!-- Node22&#45;&gt;Node23 -->
<g id="edge32_Node000022_Node000023" class="edge">
<title>Node22&#45;&gt;Node23</title>
<g id="a_edge32_Node000022_Node000023"><a xlink:title=" ">
<path fill="none" stroke="#63b8ff" d="M338.81,-296.11C315.18,-290.95 287.56,-284.92 265.06,-280.01"/>
<polygon fill="#63b8ff" stroke="#63b8ff" points="338.15,-299.55 348.67,-298.26 339.64,-292.71 338.15,-299.55"/>
</a>
</g>
</g>
<!-- Node23&#45;&gt;Node12 -->
<g id="edge33_Node000023_Node000012" class="edge">
<title>Node23&#45;&gt;Node12</title>
<g id="a_edge33_Node000023_Node000012"><a xlink:title=" ">
<path fill="none" stroke="#63b8ff" d="M201.27,-253.82C188.49,-241.86 171.21,-225.16 157,-209.5 138.09,-188.67 117.92,-162.48 107.38,-148.45"/>
<polygon fill="#63b8ff" stroke="#63b8ff" points="199.23,-256.7 208.94,-260.93 203.99,-251.57 199.23,-256.7"/>
</a>
</g>
</g>
<!-- Node24&#45;&gt;Node22 -->
<g id="edge35_Node000024_Node000022" class="edge">
<title>Node24&#45;&gt;Node22</title>
<g id="a_edge35_Node000024_Node000022"><a xlink:title=" ">
<path fill="none" stroke="#63b8ff" d="M509.23,-332.8C485.31,-327.59 457.55,-321.55 435.16,-316.68"/>
<polygon fill="#63b8ff" stroke="#63b8ff" points="508.71,-336.26 519.22,-334.97 510.19,-329.42 508.71,-336.26"/>
</a>
</g>
</g>
<!-- Node25&#45;&gt;Node9 -->
<g id="edge37_Node000025_Node000009" class="edge">
<title>Node25&#45;&gt;Node9</title>
<g id="a_edge37_Node000025_Node000009"><a xlink:title=" ">
<path fill="none" stroke="#63b8ff" d="M945.87,-94.43C924.97,-99.44 900.99,-105.21 881.29,-109.94"/>
<polygon fill="#63b8ff" stroke="#63b8ff" points="946.94,-97.77 955.84,-92.03 945.3,-90.96 946.94,-97.77"/>
</a>
</g>
</g>
</g>
</svg>

<g id="navigator" transform="translate(0 0)" fill="#404254">
  <rect fill="#f2f5e9" fill-opacity="0.5" stroke="#606060" stroke-width=".5" x="0" y="0" width="60" height="60"/>
  <use id="zoomplus" xlink:href="#zoomPlus" x="17" y="9" onmousedown="handleZoom(evt,'in')"/>
  <use id="zoomminus" xlink:href="#zoomMin" x="42" y="9" onmousedown="handleZoom(evt,'out')"/>
  <use id="reset" xlink:href="#resetDef" x="30" y="36" onmousedown="handleReset()"/>
   <use id="arrowup" xlink:href="#arrowUp" x="0" y="0" onmousedown="handlePan(0,-1)"/>
  <use id="arrowright" xlink:href="#arrowRight" x="0" y="0" onmousedown="handlePan(1,0)"/>
  <use id="arrowdown" xlink:href="#arrowDown" x="0" y="0" onmousedown="handlePan(0,1)"/>
  <use id="arrowleft" xlink:href="#arrowLeft" x="0" y="0" onmousedown="handlePan(-1,0)"/>
</g>
<svg viewBox="0 0 15 15" width="100%" height="30px" preserveAspectRatio="xMaxYMin meet">
 <g id="arrow_out" transform="scale(0.3 0.3)">
  <a xlink:href="led_8cpp_ac69de171075f82d3c3f75385a54ce10a_icgraph_org.svg" target="_base">
   <rect id="button" ry="5" rx="5" y="6" x="6" height="38" width="38"
        fill="#f2f5e9" fill-opacity="0.5" stroke="#606060" stroke-width="1.0"/>
   <path id="arrow"
     d="M 11.500037,31.436501 C 11.940474,20.09759 22.043105,11.32322 32.158766,21.979434 L 37.068811,17.246167 C 37.068811,17.246167 37.088388,32 37.088388,32 L 22.160133,31.978069 C 22.160133,31.978069 26.997745,27.140456 26.997745,27.140456 C 18.528582,18.264221 13.291696,25.230495 11.500037,31.436501 z"
     style="fill:#404040;"/>
  </a>
 </g>
</svg>

<style type='text/css'>
<![CDATA[
[data-mouse-over-selected='false'] { opacity: 0.7; }
[data-mouse-over-selected='true']  { opacity: 1.0; }
]]>
</style>
<script type="application/ecmascript"><![CDATA[
document.addEventListener('DOMContentLoaded', (event) => {
  highlightEdges();
  highlightAdjacentNodes();
});
]]></script>
</svg>
