<?xml version="1.0" encoding="UTF-8" standalone="no"?>
<!DOCTYPE svg PUBLIC "-//W3C//DTD SVG 1.1//EN"
 "http://www.w3.org/Graphics/SVG/1.1/DTD/svg11.dtd">
<!-- Generated by graphviz version 2.43.0 (0)
 -->
<!-- Title: switchLEDToRedYellow Pages: 1 -->
<!--zoomable 255 -->

<svg id="main" version="1.1" xmlns="http://www.w3.org/2000/svg" xmlns:xlink="http://www.w3.org/1999/xlink" xml:space="preserve" onload="init(evt)">
<style type="text/css"><![CDATA[
.node, .edge {opacity: 0.7;}
.node.selected, .edge.selected {opacity: 1;}
.edge:hover path { stroke: red; }
.edge:hover polygon { stroke: red; fill: red; }
]]></style>

<defs>
  <circle id="rim" cx="0" cy="0" r="7"/>
  <circle id="rim2" cx="0" cy="0" r="3.5"/>
  <g id="zoomPlus">
    <use xlink:href="#rim" fill="#404040"><set attributeName="fill" to="#808080" begin="zoomplus.mouseover" end="zoomplus.mouseout"/></use>
    <path d="M-4,0h8M0,-4v8" fill="none" stroke="white" stroke-width="1.5" pointer-events="none"/>
  </g>
  <g id="zoomMin">
    <use xlink:href="#rim" fill="#404040"><set attributeName="fill" to="#808080" begin="zoomminus.mouseover" end="zoomminus.mouseout"/></use>
    <path d="M-4,0h8" fill="none" stroke="white" stroke-width="1.5" pointer-events="none"/>
  </g>
  <g id="arrowUp" transform="translate(30 24)">
    <use xlink:href="#rim"/>
    <path pointer-events="none" fill="none" stroke="white" stroke-width="1.5" d="M0,-3.0v7 M-2.5,-0.5L0,-3.0L2.5,-0.5"/>
  </g>
  <g id="arrowRight" transform="rotate(90) translate(36 -43)">
    <use xlink:href="#rim"/>
    <path pointer-events="none" fill="none" stroke="white" stroke-width="1.5" d="M0,-3.0v7 M-2.5,-0.5L0,-3.0L2.5,-0.5"/>
  </g>
  <g id="arrowDown" transform="rotate(180) translate(-30 -48)">
    <use xlink:href="#rim"/>
    <path pointer-events="none" fill="none" stroke="white" stroke-width="1.5" d="M0,-3.0v7 M-2.5,-0.5L0,-3.0L2.5,-0.5"/>
  </g>
  <g id="arrowLeft" transform="rotate(270) translate(-36 17)">
    <use xlink:href="#rim"/>
    <path pointer-events="none" fill="none" stroke="white" stroke-width="1.5" d="M0,-3.0v7 M-2.5,-0.5L0,-3.0L2.5,-0.5"/>
  </g>
  <g id="resetDef">
    <use xlink:href="#rim2" fill="#404040"><set attributeName="fill" to="#808080" begin="reset.mouseover" end="reset.mouseout"/></use>
  </g>
</defs>
<script type="application/ecmascript">
var viewWidth = 1348;
var viewHeight = 255;
var sectionId = 'dynsection-29';
</script>
<script type="application/ecmascript" xlink:href="../../svg.min.js"/>
<svg id="graph" class="graph">
<g id="viewport">
<title>switchLEDToRedYellow</title>
<!-- Node1 -->
<g id="Node000001" class="node">
<title>Node1</title>
<g id="a_Node000001"><a xlink:title="La LED passe successivement du rouge au jaune avec une fréquence de 1 seconde.">
<polygon fill="#999999" stroke="#666666" points="127,-57 0,-57 0,-38 127,-38 127,-57"/>
<text text-anchor="middle" x="63.5" y="-45" font-family="Helvetica,sans-Serif" font-size="10.00">switchLEDToRedYellow</text>
</a>
</g>
</g>
<!-- Node2 -->
<g id="Node000002" class="node">
<title>Node2</title>
<g id="a_Node000002"><a xlink:href="../../db/d17/led_8cpp.xhtml#aa2d49caed8f5ce97778549e0ef0a03c6" target="_top" xlink:title="Fait clignoter la LED en alternant entre deux couleurs avec une fréquence de 1 secondes pendant durat...">
<polygon fill="white" stroke="#666666" points="251,-131 171,-131 171,-112 251,-112 251,-131"/>
<text text-anchor="middle" x="211" y="-119" font-family="Helvetica,sans-Serif" font-size="10.00">initLEDTimer</text>
</a>
</g>
</g>
<!-- Node1&#45;&gt;Node2 -->
<g id="edge1_Node000001_Node000002" class="edge">
<title>Node1&#45;&gt;Node2</title>
<g id="a_edge1_Node000001_Node000002"><a xlink:title=" ">
<path fill="none" stroke="#63b8ff" d="M83.22,-57.02C108.19,-69.72 152.59,-92.3 181.66,-107.09"/>
<polygon fill="#63b8ff" stroke="#63b8ff" points="180.39,-110.37 190.89,-111.78 183.56,-104.13 180.39,-110.37"/>
</a>
</g>
</g>
<!-- Node18 -->
<g id="Node000018" class="node">
<title>Node18</title>
<g id="a_Node000018"><a xlink:href="../../db/d17/led_8cpp.xhtml#af8230cfc3cf386fa1253cd37b3cd215d" target="_top" xlink:title="Allume la LED en jaune.">
<polygon fill="white" stroke="#666666" points="405.5,-57 297.5,-57 297.5,-38 405.5,-38 405.5,-57"/>
<text text-anchor="middle" x="351.5" y="-45" font-family="Helvetica,sans-Serif" font-size="10.00">switchLEDToYellow</text>
</a>
</g>
</g>
<!-- Node1&#45;&gt;Node18 -->
<g id="edge27_Node000001_Node000018" class="edge">
<title>Node1&#45;&gt;Node18</title>
<g id="a_edge27_Node000001_Node000018"><a xlink:title=" ">
<path fill="none" stroke="#63b8ff" d="M127.26,-47.5C174.75,-47.5 239.7,-47.5 287.29,-47.5"/>
<polygon fill="#63b8ff" stroke="#63b8ff" points="287.48,-51 297.48,-47.5 287.48,-44 287.48,-51"/>
</a>
</g>
</g>
<!-- Node19 -->
<g id="Node000019" class="node">
<title>Node19</title>
<g id="a_Node000019"><a xlink:href="../../db/d17/led_8cpp.xhtml#ae18cd762c6f843eb4421cd651a5d3940" target="_top" xlink:title="Allume la LED en rouge.">
<polygon fill="white" stroke="#666666" points="259,-19 163,-19 163,0 259,0 259,-19"/>
<text text-anchor="middle" x="211" y="-7" font-family="Helvetica,sans-Serif" font-size="10.00">switchLEDToRed</text>
</a>
</g>
</g>
<!-- Node1&#45;&gt;Node19 -->
<g id="edge25_Node000001_Node000019" class="edge">
<title>Node1&#45;&gt;Node19</title>
<g id="a_edge25_Node000001_Node000019"><a xlink:title=" ">
<path fill="none" stroke="#63b8ff" d="M101.22,-37.91C120.16,-32.96 143.46,-26.88 163.63,-21.61"/>
<polygon fill="#63b8ff" stroke="#63b8ff" points="164.76,-24.93 173.55,-19.02 162.99,-18.16 164.76,-24.93"/>
</a>
</g>
</g>
<!-- Node3 -->
<g id="Node000003" class="node">
<title>Node3</title>
<g id="a_Node000003"><a xlink:href="../../dc/de5/timer_8cpp.xhtml#a75f67483e2c676b6e8ea29bca518e6c7" target="_top" xlink:title="Crée une nouvelle instance du timer.">
<polygon fill="white" stroke="#666666" points="561,-210 479,-210 479,-191 561,-191 561,-210"/>
<text text-anchor="middle" x="520" y="-198" font-family="Helvetica,sans-Serif" font-size="10.00">createTimer2</text>
</a>
</g>
</g>
<!-- Node2&#45;&gt;Node3 -->
<g id="edge2_Node000002_Node000003" class="edge">
<title>Node2&#45;&gt;Node3</title>
<g id="a_edge2_Node000002_Node000003"><a xlink:title=" ">
<path fill="none" stroke="#63b8ff" d="M215.72,-131.33C224.99,-154.21 251.54,-210.73 295,-232.5 359.66,-264.89 447.15,-234.15 491.2,-214.33"/>
<polygon fill="#63b8ff" stroke="#63b8ff" points="492.83,-217.43 500.43,-210.05 489.88,-211.08 492.83,-217.43"/>
</a>
</g>
</g>
<!-- Node7 -->
<g id="Node000007" class="node">
<title>Node7</title>
<g id="a_Node000007"><a xlink:href="../../db/d17/led_8cpp.xhtml#ab88ba8c1c79f75d5caa97fa7939bc4fb" target="_top" xlink:title="Fonction exécutée à chaque interruption du timer 2.">
<polygon fill="white" stroke="#666666" points="390,-205 313,-205 313,-186 390,-186 390,-205"/>
<text text-anchor="middle" x="351.5" y="-193" font-family="Helvetica,sans-Serif" font-size="10.00">LEDInterrupt</text>
</a>
</g>
</g>
<!-- Node2&#45;&gt;Node7 -->
<g id="edge6_Node000002_Node000007" class="edge">
<title>Node2&#45;&gt;Node7</title>
<g id="a_edge6_Node000002_Node000007"><a xlink:title=" ">
<path fill="none" stroke="#63b8ff" d="M223.99,-131.19C239.57,-143.38 267.97,-164.32 295,-177.5 298.59,-179.25 302.38,-180.88 306.24,-182.4"/>
<polygon fill="#63b8ff" stroke="#63b8ff" points="305.27,-185.77 315.86,-185.92 307.67,-179.2 305.27,-185.77"/>
</a>
</g>
</g>
<!-- Node8 -->
<g id="Node000008" class="node">
<title>Node8</title>
<g id="a_Node000008"><a xlink:href="../../db/d17/led_8cpp.xhtml#a4f39000a638bc309a30f90d7fbb5a8a1" target="_top" xlink:title="Allume la LED en bleu.">
<polygon fill="white" stroke="#666666" points="401,-168 302,-168 302,-149 401,-149 401,-168"/>
<text text-anchor="middle" x="351.5" y="-156" font-family="Helvetica,sans-Serif" font-size="10.00">switchLEDToBlue</text>
</a>
</g>
</g>
<!-- Node2&#45;&gt;Node8 -->
<g id="edge9_Node000002_Node000008" class="edge">
<title>Node2&#45;&gt;Node8</title>
<g id="a_edge9_Node000002_Node000008"><a xlink:title=" ">
<path fill="none" stroke="#63b8ff" d="M247.67,-131.03C265.06,-135.67 286.18,-141.32 304.75,-146.28"/>
<polygon fill="#63b8ff" stroke="#63b8ff" points="303.91,-149.68 314.47,-148.88 305.71,-142.91 303.91,-149.68"/>
</a>
</g>
</g>
<!-- Node16 -->
<g id="Node000016" class="node">
<title>Node16</title>
<g id="a_Node000016"><a xlink:href="../../db/d17/led_8cpp.xhtml#a1c1c60dba65e2b65592bf4a0fe46b91c" target="_top" xlink:title="Allume la LED en vert.">
<polygon fill="white" stroke="#666666" points="405,-131 298,-131 298,-112 405,-112 405,-131"/>
<text text-anchor="middle" x="351.5" y="-119" font-family="Helvetica,sans-Serif" font-size="10.00">switchLEDToGreen</text>
</a>
</g>
</g>
<!-- Node2&#45;&gt;Node16 -->
<g id="edge19_Node000002_Node000016" class="edge">
<title>Node2&#45;&gt;Node16</title>
<g id="a_edge19_Node000002_Node000016"><a xlink:title=" ">
<path fill="none" stroke="#63b8ff" d="M251.32,-121.5C262.63,-121.5 275.25,-121.5 287.61,-121.5"/>
<polygon fill="#63b8ff" stroke="#63b8ff" points="287.89,-125 297.89,-121.5 287.89,-118 287.89,-125"/>
</a>
</g>
</g>
<!-- Node17 -->
<g id="Node000017" class="node">
<title>Node17</title>
<g id="a_Node000017"><a xlink:href="../../db/d17/led_8cpp.xhtml#aa58a00fd07d1ae6fd45c10c874766911" target="_top" xlink:title="Allume la LED en orange.">
<polygon fill="white" stroke="#666666" points="408,-94 295,-94 295,-75 408,-75 408,-94"/>
<text text-anchor="middle" x="351.5" y="-82" font-family="Helvetica,sans-Serif" font-size="10.00">switchLEDToOrange</text>
</a>
</g>
</g>
<!-- Node2&#45;&gt;Node17 -->
<g id="edge21_Node000002_Node000017" class="edge">
<title>Node2&#45;&gt;Node17</title>
<g id="a_edge21_Node000002_Node000017"><a xlink:title=" ">
<path fill="none" stroke="#63b8ff" d="M247.67,-111.97C265.06,-107.33 286.18,-101.68 304.75,-96.72"/>
<polygon fill="#63b8ff" stroke="#63b8ff" points="305.71,-100.09 314.47,-94.12 303.91,-93.32 305.71,-100.09"/>
</a>
</g>
</g>
<!-- Node2&#45;&gt;Node18 -->
<g id="edge23_Node000002_Node000018" class="edge">
<title>Node2&#45;&gt;Node18</title>
<g id="a_edge23_Node000002_Node000018"><a xlink:title=" ">
<path fill="none" stroke="#63b8ff" d="M224.33,-111.86C240.03,-99.95 268.33,-79.63 295,-66.5 299.29,-64.39 303.86,-62.42 308.48,-60.6"/>
<polygon fill="#63b8ff" stroke="#63b8ff" points="309.78,-63.85 317.95,-57.09 307.35,-57.28 309.78,-63.85"/>
</a>
</g>
</g>
<!-- Node4 -->
<g id="Node000004" class="node">
<title>Node4</title>
<g id="a_Node000004"><a xlink:href="../../d5/df3/wiring_8c.xhtml#a6bc5f943544a887f8b23cadfb26a5e30" target="_top" xlink:title=" ">
<polygon fill="white" stroke="#666666" points="723.5,-210 679.5,-210 679.5,-191 723.5,-191 723.5,-210"/>
<text text-anchor="middle" x="701.5" y="-198" font-family="Helvetica,sans-Serif" font-size="10.00">delay</text>
</a>
</g>
</g>
<!-- Node3&#45;&gt;Node4 -->
<g id="edge3_Node000003_Node000004" class="edge">
<title>Node3&#45;&gt;Node4</title>
<g id="a_edge3_Node000003_Node000004"><a xlink:title=" ">
<path fill="none" stroke="#63b8ff" d="M561.28,-200.5C593.87,-200.5 639.12,-200.5 669.07,-200.5"/>
<polygon fill="#63b8ff" stroke="#63b8ff" points="669.36,-204 679.36,-200.5 669.36,-197 669.36,-204"/>
</a>
</g>
</g>
<!-- Node5 -->
<g id="Node000005" class="node">
<title>Node5</title>
<g id="a_Node000005"><a xlink:href="../../d5/df3/wiring_8c.xhtml#a8b24cbb7c3486e1bfa05c86db83ecb01" target="_top" xlink:title=" ">
<polygon fill="white" stroke="#666666" points="900,-219 850,-219 850,-200 900,-200 900,-219"/>
<text text-anchor="middle" x="875" y="-207" font-family="Helvetica,sans-Serif" font-size="10.00">micros</text>
</a>
</g>
</g>
<!-- Node4&#45;&gt;Node5 -->
<g id="edge4_Node000004_Node000005" class="edge">
<title>Node4&#45;&gt;Node5</title>
<g id="a_edge4_Node000004_Node000005"><a xlink:title=" ">
<path fill="none" stroke="#63b8ff" d="M723.53,-201.6C752.47,-203.12 804.92,-205.87 839.61,-207.7"/>
<polygon fill="#63b8ff" stroke="#63b8ff" points="839.59,-211.2 849.76,-208.23 839.96,-204.21 839.59,-211.2"/>
</a>
</g>
</g>
<!-- Node6 -->
<g id="Node000006" class="node">
<title>Node6</title>
<g id="a_Node000006"><a xlink:href="../../de/df0/Arduino_8h.xhtml#a7cb51f5c2b5cad3766f19eb69c92793b" target="_top" xlink:title=" ">
<polygon fill="white" stroke="#666666" points="895.5,-182 854.5,-182 854.5,-163 895.5,-163 895.5,-182"/>
<text text-anchor="middle" x="875" y="-170" font-family="Helvetica,sans-Serif" font-size="10.00">yield</text>
</a>
</g>
</g>
<!-- Node4&#45;&gt;Node6 -->
<g id="edge5_Node000004_Node000006" class="edge">
<title>Node4&#45;&gt;Node6</title>
<g id="a_edge5_Node000004_Node000006"><a xlink:title=" ">
<path fill="none" stroke="#63b8ff" d="M723.53,-197.07C753.85,-192.12 809.96,-182.95 844.44,-177.33"/>
<polygon fill="#63b8ff" stroke="#63b8ff" points="845.08,-180.77 854.39,-175.7 843.96,-173.86 845.08,-180.77"/>
</a>
</g>
</g>
<!-- Node7&#45;&gt;Node3 -->
<g id="edge7_Node000007_Node000003" class="edge">
<title>Node7&#45;&gt;Node3</title>
<g id="a_edge7_Node000007_Node000003"><a xlink:title=" ">
<path fill="none" stroke="#63b8ff" d="M390.28,-196.63C413.47,-197.33 443.45,-198.23 468.64,-198.99"/>
<polygon fill="#63b8ff" stroke="#63b8ff" points="468.65,-202.49 478.75,-199.29 468.86,-195.49 468.65,-202.49"/>
</a>
</g>
</g>
<!-- Node7&#45;&gt;Node7 -->
<g id="edge8_Node000007_Node000007" class="edge">
<title>Node7&#45;&gt;Node7</title>
<g id="a_edge8_Node000007_Node000007"><a xlink:title=" ">
<path fill="none" stroke="#63b8ff" d="M329.92,-205.08C319.42,-213.73 326.62,-223 351.5,-223 367.44,-223 376.12,-219.2 377.54,-214.19"/>
<polygon fill="#63b8ff" stroke="#63b8ff" points="380.62,-212.52 373.08,-205.08 374.34,-215.6 380.62,-212.52"/>
</a>
</g>
</g>
<!-- Node9 -->
<g id="Node000009" class="node">
<title>Node9</title>
<g id="a_Node000009"><a xlink:href="../../d5/dc9/classChainableLED.xhtml#a2b8a41a192a231e77cad268bdbaebd34" target="_top" xlink:title=" ">
<polygon fill="white" stroke="#666666" points="596,-94 444,-94 444,-75 596,-75 596,-94"/>
<text text-anchor="middle" x="520" y="-82" font-family="Helvetica,sans-Serif" font-size="10.00">ChainableLED::setColorRGB</text>
</a>
</g>
</g>
<!-- Node8&#45;&gt;Node9 -->
<g id="edge10_Node000008_Node000009" class="edge">
<title>Node8&#45;&gt;Node9</title>
<g id="a_edge10_Node000008_Node000009"><a xlink:title=" ">
<path fill="none" stroke="#63b8ff" d="M384.79,-148.95C392.48,-146.43 400.6,-143.55 408,-140.5 438.04,-128.14 471.12,-110.96 493.29,-98.89"/>
<polygon fill="#63b8ff" stroke="#63b8ff" points="495,-101.95 502.08,-94.07 491.63,-95.81 495,-101.95"/>
</a>
</g>
</g>
<!-- Node10 -->
<g id="Node000010" class="node">
<title>Node10</title>
<g id="a_Node000010"><a xlink:href="../../d5/dc9/classChainableLED.xhtml#af9dddebec83065625cbd6f8f05b992e7" target="_top" xlink:title=" ">
<polygon fill="white" stroke="#666666" points="943,-127 807,-127 807,-108 943,-108 943,-127"/>
<text text-anchor="middle" x="875" y="-115" font-family="Helvetica,sans-Serif" font-size="10.00">ChainableLED::sendByte</text>
</a>
</g>
</g>
<!-- Node9&#45;&gt;Node10 -->
<g id="edge11_Node000009_Node000010" class="edge">
<title>Node9&#45;&gt;Node10</title>
<g id="a_edge11_Node000009_Node000010"><a xlink:title=" ">
<path fill="none" stroke="#63b8ff" d="M569.46,-94C588.84,-97.49 611.41,-101.15 632,-103.5 686.83,-109.76 748.98,-113.28 796.57,-115.22"/>
<polygon fill="#63b8ff" stroke="#63b8ff" points="796.67,-118.73 806.8,-115.63 796.95,-111.74 796.67,-118.73"/>
</a>
</g>
</g>
<!-- Node15 -->
<g id="Node000015" class="node">
<title>Node15</title>
<g id="a_Node000015"><a xlink:href="../../d5/dc9/classChainableLED.xhtml#a7c5c2661fc02dee9f174485a2fadeb7a" target="_top" xlink:title=" ">
<polygon fill="white" stroke="#666666" points="771,-94 632,-94 632,-75 771,-75 771,-94"/>
<text text-anchor="middle" x="701.5" y="-82" font-family="Helvetica,sans-Serif" font-size="10.00">ChainableLED::sendColor</text>
</a>
</g>
</g>
<!-- Node9&#45;&gt;Node15 -->
<g id="edge17_Node000009_Node000015" class="edge">
<title>Node9&#45;&gt;Node15</title>
<g id="a_edge17_Node000009_Node000015"><a xlink:title=" ">
<path fill="none" stroke="#63b8ff" d="M596.08,-84.5C604.48,-84.5 613.06,-84.5 621.51,-84.5"/>
<polygon fill="#63b8ff" stroke="#63b8ff" points="621.73,-88 631.73,-84.5 621.73,-81 621.73,-88"/>
</a>
</g>
</g>
<!-- Node11 -->
<g id="Node000011" class="node">
<title>Node11</title>
<g id="a_Node000011"><a xlink:href="../../d5/dc9/classChainableLED.xhtml#af384841b6f083865c7fce288b039d275" target="_top" xlink:title=" ">
<polygon fill="white" stroke="#666666" points="1083,-146 979,-146 979,-127 1083,-127 1083,-146"/>
<text text-anchor="middle" x="1031" y="-134" font-family="Helvetica,sans-Serif" font-size="10.00">ChainableLED::clk</text>
</a>
</g>
</g>
<!-- Node10&#45;&gt;Node11 -->
<g id="edge12_Node000010_Node000011" class="edge">
<title>Node10&#45;&gt;Node11</title>
<g id="a_edge12_Node000010_Node000011"><a xlink:title=" ">
<path fill="none" stroke="#63b8ff" d="M943.1,-125.78C951.63,-126.83 960.32,-127.9 968.75,-128.94"/>
<polygon fill="#63b8ff" stroke="#63b8ff" points="968.52,-132.44 978.87,-130.19 969.38,-125.49 968.52,-132.44"/>
</a>
</g>
</g>
<!-- Node13 -->
<g id="Node000013" class="node">
<title>Node13</title>
<g id="a_Node000013"><a xlink:href="../../d5/d45/wiring__digital_8c.xhtml#a73b9b61feeaf7d790d107f2954a7fd93" target="_top" xlink:title=" ">
<polygon fill="white" stroke="#666666" points="1211,-109 1137,-109 1137,-90 1211,-90 1211,-109"/>
<text text-anchor="middle" x="1174" y="-97" font-family="Helvetica,sans-Serif" font-size="10.00">digitalWrite</text>
</a>
</g>
</g>
<!-- Node10&#45;&gt;Node13 -->
<g id="edge16_Node000010_Node000013" class="edge">
<title>Node10&#45;&gt;Node13</title>
<g id="a_edge16_Node000010_Node000013"><a xlink:title=" ">
<path fill="none" stroke="#63b8ff" d="M943.02,-113.44C999.09,-110.04 1077.59,-105.28 1126.85,-102.3"/>
<polygon fill="#63b8ff" stroke="#63b8ff" points="1127.12,-105.79 1136.89,-101.69 1126.7,-98.8 1127.12,-105.79"/>
</a>
</g>
</g>
<!-- Node12 -->
<g id="Node000012" class="node">
<title>Node12</title>
<g id="a_Node000012"><a xlink:href="../../d5/df3/wiring_8c.xhtml#a62e0a53bc261f9de8700cc5a92307e85" target="_top" xlink:title=" ">
<polygon fill="white" stroke="#666666" points="1229,-146 1119,-146 1119,-127 1229,-127 1229,-146"/>
<text text-anchor="middle" x="1174" y="-134" font-family="Helvetica,sans-Serif" font-size="10.00">delayMicroseconds</text>
</a>
</g>
</g>
<!-- Node11&#45;&gt;Node12 -->
<g id="edge13_Node000011_Node000012" class="edge">
<title>Node11&#45;&gt;Node12</title>
<g id="a_edge13_Node000011_Node000012"><a xlink:title=" ">
<path fill="none" stroke="#63b8ff" d="M1083.3,-136.5C1091.48,-136.5 1100.02,-136.5 1108.45,-136.5"/>
<polygon fill="#63b8ff" stroke="#63b8ff" points="1108.65,-140 1118.65,-136.5 1108.65,-133 1108.65,-140"/>
</a>
</g>
</g>
<!-- Node11&#45;&gt;Node13 -->
<g id="edge14_Node000011_Node000013" class="edge">
<title>Node11&#45;&gt;Node13</title>
<g id="a_edge14_Node000011_Node000013"><a xlink:title=" ">
<path fill="none" stroke="#63b8ff" d="M1068.31,-126.97C1086.24,-122.27 1108.06,-116.54 1127.13,-111.54"/>
<polygon fill="#63b8ff" stroke="#63b8ff" points="1128.03,-114.92 1136.81,-109 1126.25,-108.15 1128.03,-114.92"/>
</a>
</g>
</g>
<!-- Node14 -->
<g id="Node000014" class="node">
<title>Node14</title>
<g id="a_Node000014"><a xlink:href="../../d5/d45/wiring__digital_8c.xhtml#ae3d0bcbe4eb927ca8f5d5c21b7e4f224" target="_top" xlink:title=" ">
<polygon fill="white" stroke="#666666" points="1340,-109 1265,-109 1265,-90 1340,-90 1340,-109"/>
<text text-anchor="middle" x="1302.5" y="-97" font-family="Helvetica,sans-Serif" font-size="10.00">turnOffPWM</text>
</a>
</g>
</g>
<!-- Node13&#45;&gt;Node14 -->
<g id="edge15_Node000013_Node000014" class="edge">
<title>Node13&#45;&gt;Node14</title>
<g id="a_edge15_Node000013_Node000014"><a xlink:title=" ">
<path fill="none" stroke="#63b8ff" d="M1211.25,-99.5C1224.76,-99.5 1240.3,-99.5 1254.63,-99.5"/>
<polygon fill="#63b8ff" stroke="#63b8ff" points="1254.81,-103 1264.81,-99.5 1254.81,-96 1254.81,-103"/>
</a>
</g>
</g>
<!-- Node15&#45;&gt;Node10 -->
<g id="edge18_Node000015_Node000010" class="edge">
<title>Node15&#45;&gt;Node10</title>
<g id="a_edge18_Node000015_Node000010"><a xlink:title=" ">
<path fill="none" stroke="#63b8ff" d="M752.1,-94.04C771.57,-97.79 794.08,-102.12 814.41,-106.03"/>
<polygon fill="#63b8ff" stroke="#63b8ff" points="814.03,-109.52 824.51,-107.98 815.35,-102.65 814.03,-109.52"/>
</a>
</g>
</g>
<!-- Node16&#45;&gt;Node9 -->
<g id="edge20_Node000016_Node000009" class="edge">
<title>Node16&#45;&gt;Node9</title>
<g id="a_edge20_Node000016_Node000009"><a xlink:title=" ">
<path fill="none" stroke="#63b8ff" d="M395.38,-111.97C416.95,-107.18 443.29,-101.32 466.11,-96.25"/>
<polygon fill="#63b8ff" stroke="#63b8ff" points="466.98,-99.65 475.98,-94.06 465.46,-92.81 466.98,-99.65"/>
</a>
</g>
</g>
<!-- Node17&#45;&gt;Node9 -->
<g id="edge22_Node000017_Node000009" class="edge">
<title>Node17&#45;&gt;Node9</title>
<g id="a_edge22_Node000017_Node000009"><a xlink:title=" ">
<path fill="none" stroke="#63b8ff" d="M408.41,-84.5C416.55,-84.5 425.09,-84.5 433.67,-84.5"/>
<polygon fill="#63b8ff" stroke="#63b8ff" points="433.72,-88 443.72,-84.5 433.72,-81 433.72,-88"/>
</a>
</g>
</g>
<!-- Node18&#45;&gt;Node9 -->
<g id="edge24_Node000018_Node000009" class="edge">
<title>Node18&#45;&gt;Node9</title>
<g id="a_edge24_Node000018_Node000009"><a xlink:title=" ">
<path fill="none" stroke="#63b8ff" d="M395.38,-57.03C416.95,-61.82 443.29,-67.68 466.11,-72.75"/>
<polygon fill="#63b8ff" stroke="#63b8ff" points="465.46,-76.19 475.98,-74.94 466.98,-69.35 465.46,-76.19"/>
</a>
</g>
</g>
<!-- Node19&#45;&gt;Node9 -->
<g id="edge26_Node000019_Node000009" class="edge">
<title>Node19&#45;&gt;Node9</title>
<g id="a_edge26_Node000019_Node000009"><a xlink:title=" ">
<path fill="none" stroke="#63b8ff" d="M259.25,-9.23C299.53,-10.13 358.58,-14.19 408,-28.5 440.11,-37.8 473.99,-56.34 495.75,-69.54"/>
<polygon fill="#63b8ff" stroke="#63b8ff" points="493.95,-72.54 504.3,-74.83 497.63,-66.59 493.95,-72.54"/>
</a>
</g>
</g>
</g>
</svg>

<g id="navigator" transform="translate(0 0)" fill="#404254">
  <rect fill="#f2f5e9" fill-opacity="0.5" stroke="#606060" stroke-width=".5" x="0" y="0" width="60" height="60"/>
  <use id="zoomplus" xlink:href="#zoomPlus" x="17" y="9" onmousedown="handleZoom(evt,'in')"/>
  <use id="zoomminus" xlink:href="#zoomMin" x="42" y="9" onmousedown="handleZoom(evt,'out')"/>
  <use id="reset" xlink:href="#resetDef" x="30" y="36" onmousedown="handleReset()"/>
   <use id="arrowup" xlink:href="#arrowUp" x="0" y="0" onmousedown="handlePan(0,-1)"/>
  <use id="arrowright" xlink:href="#arrowRight" x="0" y="0" onmousedown="handlePan(1,0)"/>
  <use id="arrowdown" xlink:href="#arrowDown" x="0" y="0" onmousedown="handlePan(0,1)"/>
  <use id="arrowleft" xlink:href="#arrowLeft" x="0" y="0" onmousedown="handlePan(-1,0)"/>
</g>
<svg viewBox="0 0 15 15" width="100%" height="30px" preserveAspectRatio="xMaxYMin meet">
 <g id="arrow_out" transform="scale(0.3 0.3)">
  <a xlink:href="led_8cpp_a91398c440a9f9f48d59e14eb727e61ae_cgraph_org.svg" target="_base">
   <rect id="button" ry="5" rx="5" y="6" x="6" height="38" width="38"
        fill="#f2f5e9" fill-opacity="0.5" stroke="#606060" stroke-width="1.0"/>
   <path id="arrow"
     d="M 11.500037,31.436501 C 11.940474,20.09759 22.043105,11.32322 32.158766,21.979434 L 37.068811,17.246167 C 37.068811,17.246167 37.088388,32 37.088388,32 L 22.160133,31.978069 C 22.160133,31.978069 26.997745,27.140456 26.997745,27.140456 C 18.528582,18.264221 13.291696,25.230495 11.500037,31.436501 z"
     style="fill:#404040;"/>
  </a>
 </g>
</svg>

<style type='text/css'>
<![CDATA[
[data-mouse-over-selected='false'] { opacity: 0.7; }
[data-mouse-over-selected='true']  { opacity: 1.0; }
]]>
</style>
<script type="application/ecmascript"><![CDATA[
document.addEventListener('DOMContentLoaded', (event) => {
  highlightEdges();
  highlightAdjacentNodes();
});
]]></script>
</svg>
