<?xml version="1.0" encoding="UTF-8" standalone="no"?>
<!DOCTYPE svg PUBLIC "-//W3C//DTD SVG 1.1//EN"
 "http://www.w3.org/Graphics/SVG/1.1/DTD/svg11.dtd">
<!-- Generated by graphviz version 2.43.0 (0)
 -->
<!-- Title: switchLEDToRedGreen Pages: 1 -->
<svg width="1022pt" height="399pt"
 viewBox="0.00 0.00 1022.00 399.00" xmlns="http://www.w3.org/2000/svg" xmlns:xlink="http://www.w3.org/1999/xlink">
<g id="graph0" class="graph" transform="scale(1 1) rotate(0) translate(4 395)">
<title>switchLEDToRedGreen</title>
<!-- Node1 -->
<g id="Node000001" class="node">
<title>Node1</title>
<g id="a_Node000001"><a xlink:title=" ">
<polygon fill="#999999" stroke="#666666" points="1014,-261 889,-261 889,-242 1014,-242 1014,-261"/>
<text text-anchor="middle" x="951.5" y="-249" font-family="Helvetica,sans-Serif" font-size="10.00">switchLEDToRedGreen</text>
</a>
</g>
</g>
<!-- Node2 -->
<g id="Node000002" class="node">
<title>Node2</title>
<g id="a_Node000002"><a xlink:href="../../dd/db1/error_8cpp_aa07018cc68b21b664b4ca75a67e679f0.xhtml#aa07018cc68b21b664b4ca75a67e679f0" target="_top" xlink:title=" ">
<polygon fill="white" stroke="#666666" points="853,-261 744,-261 744,-242 853,-242 853,-261"/>
<text text-anchor="middle" x="798.5" y="-249" font-family="Helvetica,sans-Serif" font-size="10.00">switchToErrorMode</text>
</a>
</g>
</g>
<!-- Node1&#45;&gt;Node2 -->
<g id="edge1_Node000001_Node000002" class="edge">
<title>Node1&#45;&gt;Node2</title>
<g id="a_edge1_Node000001_Node000002"><a xlink:title=" ">
<path fill="none" stroke="#63b8ff" d="M878.39,-251.5C869.94,-251.5 861.42,-251.5 853.28,-251.5"/>
<polygon fill="#63b8ff" stroke="#63b8ff" points="878.65,-255 888.65,-251.5 878.65,-248 878.65,-255"/>
</a>
</g>
</g>
<!-- Node3 -->
<g id="Node000003" class="node">
<title>Node3</title>
<g id="a_Node000003"><a xlink:href="../../d6/d30/acquisition_8cpp_aa378a3751950c161e743d0fcac2044f2.xhtml#aa378a3751950c161e743d0fcac2044f2" target="_top" xlink:title="Fonction d&#39;acquisition des données.">
<polygon fill="white" stroke="#666666" points="700,-354 630,-354 630,-335 700,-335 700,-354"/>
<text text-anchor="middle" x="665" y="-342" font-family="Helvetica,sans-Serif" font-size="10.00">acquisition</text>
</a>
</g>
</g>
<!-- Node2&#45;&gt;Node3 -->
<g id="edge2_Node000002_Node000003" class="edge">
<title>Node2&#45;&gt;Node3</title>
<g id="a_edge2_Node000002_Node000003"><a xlink:title=" ">
<path fill="none" stroke="#63b8ff" d="M780.23,-268.64C763.03,-285.05 735.31,-309.71 708,-326.5 703,-329.57 697.38,-332.38 691.92,-334.8"/>
<polygon fill="#63b8ff" stroke="#63b8ff" points="783.04,-270.8 787.78,-261.33 778.17,-265.77 783.04,-270.8"/>
</a>
</g>
</g>
<!-- Node9 -->
<g id="Node000009" class="node">
<title>Node9</title>
<g id="a_Node000009"><a xlink:href="../../d4/d82/bme_8cpp_a60b50a3dd4d18262c0376da53233f071.xhtml#a60b50a3dd4d18262c0376da53233f071" target="_top" xlink:title=" ">
<polygon fill="white" stroke="#666666" points="390,-75 336,-75 336,-56 390,-56 390,-75"/>
<text text-anchor="middle" x="363" y="-63" font-family="Helvetica,sans-Serif" font-size="10.00">initBME</text>
</a>
</g>
</g>
<!-- Node2&#45;&gt;Node9 -->
<g id="edge10_Node000002_Node000009" class="edge">
<title>Node2&#45;&gt;Node9</title>
<g id="a_edge10_Node000002_Node000009"><a xlink:title=" ">
<path fill="none" stroke="#63b8ff" d="M784.09,-233.67C767.94,-213.22 739.09,-179.78 708,-158.5 605.13,-88.08 451.08,-70.9 390.15,-66.78"/>
<polygon fill="#63b8ff" stroke="#63b8ff" points="781.5,-236.05 790.39,-241.81 787.04,-231.76 781.5,-236.05"/>
</a>
</g>
</g>
<!-- Node14 -->
<g id="Node000014" class="node">
<title>Node14</title>
<g id="a_Node000014"><a xlink:href="../../d0/ded/sd_8cpp_a9d3643dd7aeaea6f58648a50f1ad7833.xhtml#a9d3643dd7aeaea6f58648a50f1ad7833" target="_top" xlink:title="Montage de la carte SD.">
<polygon fill="white" stroke="#666666" points="689,-187 641,-187 641,-168 689,-168 689,-187"/>
<text text-anchor="middle" x="665" y="-175" font-family="Helvetica,sans-Serif" font-size="10.00">mount</text>
</a>
</g>
</g>
<!-- Node2&#45;&gt;Node14 -->
<g id="edge18_Node000002_Node000014" class="edge">
<title>Node2&#45;&gt;Node14</title>
<g id="a_edge18_Node000002_Node000014"><a xlink:title=" ">
<path fill="none" stroke="#63b8ff" d="M771.61,-236.93C745.47,-222.22 705.82,-199.91 683.27,-187.22"/>
<polygon fill="#63b8ff" stroke="#63b8ff" points="770.15,-240.12 780.58,-241.98 773.58,-234.02 770.15,-240.12"/>
</a>
</g>
</g>
<!-- Node17 -->
<g id="Node000017" class="node">
<title>Node17</title>
<g id="a_Node000017"><a xlink:href="../../d0/ded/sd_8cpp_a5b86241374c9a379af845d4adaa170b5.xhtml#a5b86241374c9a379af845d4adaa170b5" target="_top" xlink:title="Sauvegarde des données sur la carte SD.">
<polygon fill="white" stroke="#666666" points="696.5,-317 633.5,-317 633.5,-298 696.5,-298 696.5,-317"/>
<text text-anchor="middle" x="665" y="-305" font-family="Helvetica,sans-Serif" font-size="10.00">saveData</text>
</a>
</g>
</g>
<!-- Node2&#45;&gt;Node17 -->
<g id="edge22_Node000002_Node000017" class="edge">
<title>Node2&#45;&gt;Node17</title>
<g id="a_edge22_Node000002_Node000017"><a xlink:title=" ">
<path fill="none" stroke="#63b8ff" d="M765.53,-265.12C741.61,-275.3 709.51,-288.97 688.31,-298"/>
<polygon fill="#63b8ff" stroke="#63b8ff" points="767.07,-268.27 774.89,-261.13 764.32,-261.82 767.07,-268.27"/>
</a>
</g>
</g>
<!-- Node18 -->
<g id="Node000018" class="node">
<title>Node18</title>
<g id="a_Node000018"><a xlink:href="../../d9/d88/mode_8cpp_a5117cd9a1dd27db325ab6540d8d2c983.xhtml#a5117cd9a1dd27db325ab6540d8d2c983" target="_top" xlink:title="Change le mode actuel.">
<polygon fill="white" stroke="#666666" points="708,-261 622,-261 622,-242 708,-242 708,-261"/>
<text text-anchor="middle" x="665" y="-249" font-family="Helvetica,sans-Serif" font-size="10.00">switchToMode</text>
</a>
</g>
</g>
<!-- Node2&#45;&gt;Node18 -->
<g id="edge25_Node000002_Node000018" class="edge">
<title>Node2&#45;&gt;Node18</title>
<g id="a_edge25_Node000002_Node000018"><a xlink:title=" ">
<path fill="none" stroke="#63b8ff" d="M733.61,-251.5C725.02,-251.5 716.4,-251.5 708.31,-251.5"/>
<polygon fill="#63b8ff" stroke="#63b8ff" points="733.63,-255 743.63,-251.5 733.63,-248 733.63,-255"/>
</a>
</g>
</g>
<!-- Node4 -->
<g id="Node000004" class="node">
<title>Node4</title>
<g id="a_Node000004"><a xlink:href="../../d9/ddd/economy_8cpp_a35740c7a73b48d918cb4e6d891d46bed.xhtml#a35740c7a73b48d918cb4e6d891d46bed" target="_top" xlink:title=" ">
<polygon fill="white" stroke="#666666" points="577,-317 451,-317 451,-298 577,-298 577,-317"/>
<text text-anchor="middle" x="514" y="-305" font-family="Helvetica,sans-Serif" font-size="10.00">runEconomyModeStep</text>
</a>
</g>
</g>
<!-- Node3&#45;&gt;Node4 -->
<g id="edge3_Node000003_Node000004" class="edge">
<title>Node3&#45;&gt;Node4</title>
<g id="a_edge3_Node000003_Node000004"><a xlink:title=" ">
<path fill="none" stroke="#63b8ff" d="M620.11,-333.6C598.98,-328.35 573.86,-322.12 553.49,-317.06"/>
<polygon fill="#63b8ff" stroke="#63b8ff" points="619.27,-337 629.82,-336.01 620.95,-330.2 619.27,-337"/>
</a>
</g>
</g>
<!-- Node7 -->
<g id="Node000007" class="node">
<title>Node7</title>
<g id="a_Node000007"><a xlink:href="../../d6/d46/maintenance_8cpp_ae80c7faecffa585182b14e2ee396009e.xhtml#ae80c7faecffa585182b14e2ee396009e" target="_top" xlink:title=" ">
<polygon fill="white" stroke="#666666" points="586,-391 442,-391 442,-372 586,-372 586,-391"/>
<text text-anchor="middle" x="514" y="-379" font-family="Helvetica,sans-Serif" font-size="10.00">runMaintenanceModeStep</text>
</a>
</g>
</g>
<!-- Node3&#45;&gt;Node7 -->
<g id="edge6_Node000003_Node000007" class="edge">
<title>Node3&#45;&gt;Node7</title>
<g id="a_edge6_Node000003_Node000007"><a xlink:title=" ">
<path fill="none" stroke="#63b8ff" d="M620.11,-355.4C598.98,-360.65 573.86,-366.88 553.49,-371.94"/>
<polygon fill="#63b8ff" stroke="#63b8ff" points="620.95,-358.8 629.82,-352.99 619.27,-352 620.95,-358.8"/>
</a>
</g>
</g>
<!-- Node8 -->
<g id="Node000008" class="node">
<title>Node8</title>
<g id="a_Node000008"><a xlink:href="../../df/d92/standard_8cpp_ad0b3e86793f7441084351fc2de4d4c45.xhtml#ad0b3e86793f7441084351fc2de4d4c45" target="_top" xlink:title=" ">
<polygon fill="white" stroke="#666666" points="576.5,-354 451.5,-354 451.5,-335 576.5,-335 576.5,-354"/>
<text text-anchor="middle" x="514" y="-342" font-family="Helvetica,sans-Serif" font-size="10.00">runStandardModeStep</text>
</a>
</g>
</g>
<!-- Node3&#45;&gt;Node8 -->
<g id="edge8_Node000003_Node000008" class="edge">
<title>Node3&#45;&gt;Node8</title>
<g id="a_edge8_Node000003_Node000008"><a xlink:title=" ">
<path fill="none" stroke="#63b8ff" d="M619.79,-344.5C606.22,-344.5 591.03,-344.5 576.52,-344.5"/>
<polygon fill="#63b8ff" stroke="#63b8ff" points="619.82,-348 629.82,-344.5 619.82,-341 619.82,-348"/>
</a>
</g>
</g>
<!-- Node5 -->
<g id="Node000005" class="node">
<title>Node5</title>
<g id="a_Node000005"><a xlink:href="../../de/dfb/src_2main_8cpp_afe461d27b9c48d5921c00d521181f12f.xhtml#afe461d27b9c48d5921c00d521181f12f" target="_top" xlink:title=" ">
<polygon fill="white" stroke="#666666" points="382,-335 344,-335 344,-316 382,-316 382,-335"/>
<text text-anchor="middle" x="363" y="-323" font-family="Helvetica,sans-Serif" font-size="10.00">loop</text>
</a>
</g>
</g>
<!-- Node4&#45;&gt;Node5 -->
<g id="edge4_Node000004_Node000005" class="edge">
<title>Node4&#45;&gt;Node5</title>
<g id="a_edge4_Node000004_Node000005"><a xlink:title=" ">
<path fill="none" stroke="#63b8ff" d="M440.46,-316.26C418.87,-318.87 397.05,-321.51 382.28,-323.29"/>
<polygon fill="#63b8ff" stroke="#63b8ff" points="441.17,-319.7 450.67,-315.03 440.33,-312.75 441.17,-319.7"/>
</a>
</g>
</g>
<!-- Node6 -->
<g id="Node000006" class="node">
<title>Node6</title>
<g id="a_Node000006"><a xlink:href="../../d2/d81/libs_2Arduino__AVR_2main_8cpp_a840291bc02cba5474a4cb46a9b9566fe.xhtml#a840291bc02cba5474a4cb46a9b9566fe" target="_top" xlink:title=" ">
<polygon fill="white" stroke="#666666" points="41,-205 0,-205 0,-186 41,-186 41,-205"/>
<text text-anchor="middle" x="20.5" y="-193" font-family="Helvetica,sans-Serif" font-size="10.00">main</text>
</a>
</g>
</g>
<!-- Node5&#45;&gt;Node6 -->
<g id="edge5_Node000005_Node000006" class="edge">
<title>Node5&#45;&gt;Node6</title>
<g id="a_edge5_Node000005_Node000006"><a xlink:title=" ">
<path fill="none" stroke="#63b8ff" d="M334.23,-314.9C267.38,-289.38 98.78,-225.01 41.16,-203.01"/>
<polygon fill="#63b8ff" stroke="#63b8ff" points="333.1,-318.21 343.69,-318.51 335.6,-311.67 333.1,-318.21"/>
</a>
</g>
</g>
<!-- Node7&#45;&gt;Node5 -->
<g id="edge7_Node000007_Node000005" class="edge">
<title>Node7&#45;&gt;Node5</title>
<g id="a_edge7_Node000007_Node000005"><a xlink:title=" ">
<path fill="none" stroke="#63b8ff" d="M459.43,-369.18C453.5,-367.44 447.58,-365.54 442,-363.5 420.36,-355.58 396.72,-343.55 381.21,-335.16"/>
<polygon fill="#63b8ff" stroke="#63b8ff" points="458.82,-372.64 469.39,-371.95 460.69,-365.9 458.82,-372.64"/>
</a>
</g>
</g>
<!-- Node8&#45;&gt;Node5 -->
<g id="edge9_Node000008_Node000005" class="edge">
<title>Node8&#45;&gt;Node5</title>
<g id="a_edge9_Node000008_Node000005"><a xlink:title=" ">
<path fill="none" stroke="#63b8ff" d="M441.09,-335.33C419.19,-332.54 396.99,-329.71 382.07,-327.8"/>
<polygon fill="#63b8ff" stroke="#63b8ff" points="440.74,-338.81 451.11,-336.61 441.63,-331.87 440.74,-338.81"/>
</a>
</g>
</g>
<!-- Node10 -->
<g id="Node000010" class="node">
<title>Node10</title>
<g id="a_Node000010"><a xlink:href="../../dd/d8e/humidity_8cpp_a8813b724c24b006d720ff4e9be164093.xhtml#a8813b724c24b006d720ff4e9be164093" target="_top" xlink:title=" ">
<polygon fill="white" stroke="#666666" points="275.5,-56 165.5,-56 165.5,-37 275.5,-37 275.5,-56"/>
<text text-anchor="middle" x="220.5" y="-44" font-family="Helvetica,sans-Serif" font-size="10.00">initHumiditySensor</text>
</a>
</g>
</g>
<!-- Node9&#45;&gt;Node10 -->
<g id="edge11_Node000009_Node000010" class="edge">
<title>Node9&#45;&gt;Node10</title>
<g id="a_edge11_Node000009_Node000010"><a xlink:title=" ">
<path fill="none" stroke="#63b8ff" d="M325.84,-60.61C310.58,-58.55 292.48,-56.1 275.68,-53.83"/>
<polygon fill="#63b8ff" stroke="#63b8ff" points="325.52,-64.1 335.9,-61.97 326.46,-57.16 325.52,-64.1"/>
</a>
</g>
</g>
<!-- Node12 -->
<g id="Node000012" class="node">
<title>Node12</title>
<g id="a_Node000012"><a xlink:href="../../d8/ddf/pressure_8cpp_afeb7254ac3d1603fe28432de687313fb.xhtml#afeb7254ac3d1603fe28432de687313fb" target="_top" xlink:title=" ">
<polygon fill="white" stroke="#666666" points="274,-19 167,-19 167,0 274,0 274,-19"/>
<text text-anchor="middle" x="220.5" y="-7" font-family="Helvetica,sans-Serif" font-size="10.00">initPressureSensor</text>
</a>
</g>
</g>
<!-- Node9&#45;&gt;Node12 -->
<g id="edge14_Node000009_Node000012" class="edge">
<title>Node9&#45;&gt;Node12</title>
<g id="a_edge14_Node000009_Node000012"><a xlink:title=" ">
<path fill="none" stroke="#63b8ff" d="M335.32,-51.08C320.49,-43.43 301.53,-34.24 284,-27.5 275.88,-24.38 267,-21.51 258.53,-19.02"/>
<polygon fill="#63b8ff" stroke="#63b8ff" points="333.94,-54.31 344.42,-55.85 337.19,-48.11 333.94,-54.31"/>
</a>
</g>
</g>
<!-- Node13 -->
<g id="Node000013" class="node">
<title>Node13</title>
<g id="a_Node000013"><a xlink:href="../../d0/d3d/temperature_8cpp_ac69c9a2d697216ab21dcab3087b54729.xhtml#ac69c9a2d697216ab21dcab3087b54729" target="_top" xlink:title=" ">
<polygon fill="white" stroke="#666666" points="284,-93 157,-93 157,-74 284,-74 284,-93"/>
<text text-anchor="middle" x="220.5" y="-81" font-family="Helvetica,sans-Serif" font-size="10.00">initTemperatureSensor</text>
</a>
</g>
</g>
<!-- Node9&#45;&gt;Node13 -->
<g id="edge16_Node000009_Node000013" class="edge">
<title>Node9&#45;&gt;Node13</title>
<g id="a_edge16_Node000009_Node000013"><a xlink:title=" ">
<path fill="none" stroke="#63b8ff" d="M325.76,-70.14C313.07,-71.77 298.44,-73.64 284.22,-75.46"/>
<polygon fill="#63b8ff" stroke="#63b8ff" points="326.43,-73.59 335.9,-68.84 325.54,-66.64 326.43,-73.59"/>
</a>
</g>
</g>
<!-- Node11 -->
<g id="Node000011" class="node">
<title>Node11</title>
<g id="a_Node000011"><a xlink:href="../../de/dfb/src_2main_8cpp_a4fc01d736fe50cf5b977f755b675f11d.xhtml#a4fc01d736fe50cf5b977f755b675f11d" target="_top" xlink:title=" ">
<polygon fill="white" stroke="#666666" points="121,-112 77,-112 77,-93 121,-93 121,-112"/>
<text text-anchor="middle" x="99" y="-100" font-family="Helvetica,sans-Serif" font-size="10.00">setup</text>
</a>
</g>
</g>
<!-- Node10&#45;&gt;Node11 -->
<g id="edge12_Node000010_Node000011" class="edge">
<title>Node10&#45;&gt;Node11</title>
<g id="a_edge12_Node000010_Node000011"><a xlink:title=" ">
<path fill="none" stroke="#63b8ff" d="M169.82,-59.27C165.42,-60.86 161.09,-62.61 157,-64.5 140.38,-72.21 123.13,-84.39 112.02,-92.88"/>
<polygon fill="#63b8ff" stroke="#63b8ff" points="171.12,-62.53 179.49,-56.04 168.89,-55.89 171.12,-62.53"/>
</a>
</g>
</g>
<!-- Node11&#45;&gt;Node6 -->
<g id="edge13_Node000011_Node000006" class="edge">
<title>Node11&#45;&gt;Node6</title>
<g id="a_edge13_Node000011_Node000006"><a xlink:title=" ">
<path fill="none" stroke="#63b8ff" d="M83.68,-119.91C67.66,-139.39 42.29,-170.23 29.47,-185.81"/>
<polygon fill="#63b8ff" stroke="#63b8ff" points="86.45,-122.05 90.1,-112.1 81.05,-117.6 86.45,-122.05"/>
</a>
</g>
</g>
<!-- Node12&#45;&gt;Node11 -->
<g id="edge15_Node000012_Node000011" class="edge">
<title>Node12&#45;&gt;Node11</title>
<g id="a_edge15_Node000012_Node000011"><a xlink:title=" ">
<path fill="none" stroke="#63b8ff" d="M164.06,-23.28C161.6,-24.56 159.24,-25.97 157,-27.5 131.77,-44.79 112.99,-76.84 104.69,-92.86"/>
<polygon fill="#63b8ff" stroke="#63b8ff" points="165.57,-26.44 173.24,-19.12 162.69,-20.06 165.57,-26.44"/>
</a>
</g>
</g>
<!-- Node13&#45;&gt;Node11 -->
<g id="edge17_Node000013_Node000011" class="edge">
<title>Node13&#45;&gt;Node11</title>
<g id="a_edge17_Node000013_Node000011"><a xlink:title=" ">
<path fill="none" stroke="#63b8ff" d="M149.48,-94.63C139.22,-96.26 129.38,-97.83 121.22,-99.13"/>
<polygon fill="#63b8ff" stroke="#63b8ff" points="150.07,-98.08 159.4,-93.06 148.97,-91.17 150.07,-98.08"/>
</a>
</g>
</g>
<!-- Node14&#45;&gt;Node11 -->
<g id="edge21_Node000014_Node000011" class="edge">
<title>Node14&#45;&gt;Node11</title>
<g id="a_edge21_Node000014_Node000011"><a xlink:title=" ">
<path fill="none" stroke="#63b8ff" d="M639.18,-162.85C624.28,-154.81 604.65,-145.47 586,-140.5 496.15,-116.55 202.45,-105.72 121.07,-103.13"/>
<polygon fill="#63b8ff" stroke="#63b8ff" points="637.79,-166.09 648.23,-167.9 641.2,-159.97 637.79,-166.09"/>
</a>
</g>
</g>
<!-- Node15 -->
<g id="Node000015" class="node">
<title>Node15</title>
<g id="a_Node000015"><a xlink:href="../../df/d22/configuration_8cpp_a9e246d9996b76ad7b81266d6533a930e.xhtml#a9e246d9996b76ad7b81266d6533a930e" target="_top" xlink:title=" ">
<polygon fill="white" stroke="#666666" points="578,-169 450,-169 450,-150 578,-150 578,-169"/>
<text text-anchor="middle" x="514" y="-157" font-family="Helvetica,sans-Serif" font-size="10.00">quitConfigurationMode</text>
</a>
</g>
</g>
<!-- Node14&#45;&gt;Node15 -->
<g id="edge19_Node000014_Node000015" class="edge">
<title>Node14&#45;&gt;Node15</title>
<g id="a_edge19_Node000014_Node000015"><a xlink:title=" ">
<path fill="none" stroke="#63b8ff" d="M630.63,-173.47C615.18,-171.6 596.29,-169.32 578.3,-167.15"/>
<polygon fill="#63b8ff" stroke="#63b8ff" points="630.37,-176.96 640.72,-174.69 631.21,-170.01 630.37,-176.96"/>
</a>
</g>
</g>
<!-- Node16 -->
<g id="Node000016" class="node">
<title>Node16</title>
<g id="a_Node000016"><a xlink:href="../../d6/d46/maintenance_8cpp_ac99882e56a7b3976942cb3ffb6bebe98.xhtml#ac99882e56a7b3976942cb3ffb6bebe98" target="_top" xlink:title=" ">
<polygon fill="white" stroke="#666666" points="576.5,-206 451.5,-206 451.5,-187 576.5,-187 576.5,-206"/>
<text text-anchor="middle" x="514" y="-194" font-family="Helvetica,sans-Serif" font-size="10.00">quitMaintenanceMode</text>
</a>
</g>
</g>
<!-- Node14&#45;&gt;Node16 -->
<g id="edge20_Node000014_Node000016" class="edge">
<title>Node14&#45;&gt;Node16</title>
<g id="a_edge20_Node000014_Node000016"><a xlink:title=" ">
<path fill="none" stroke="#63b8ff" d="M630.36,-181.79C614.5,-183.81 595.05,-186.29 576.68,-188.63"/>
<polygon fill="#63b8ff" stroke="#63b8ff" points="631.24,-185.21 640.72,-180.47 630.36,-178.26 631.24,-185.21"/>
</a>
</g>
</g>
<!-- Node17&#45;&gt;Node4 -->
<g id="edge23_Node000017_Node000004" class="edge">
<title>Node17&#45;&gt;Node4</title>
<g id="a_edge23_Node000017_Node000004"><a xlink:title=" ">
<path fill="none" stroke="#63b8ff" d="M623.09,-307.5C608.9,-307.5 592.65,-307.5 577.15,-307.5"/>
<polygon fill="#63b8ff" stroke="#63b8ff" points="623.49,-311 633.49,-307.5 623.49,-304 623.49,-311"/>
</a>
</g>
</g>
<!-- Node17&#45;&gt;Node8 -->
<g id="edge24_Node000017_Node000008" class="edge">
<title>Node17&#45;&gt;Node8</title>
<g id="a_edge24_Node000017_Node000008"><a xlink:title=" ">
<path fill="none" stroke="#63b8ff" d="M623.53,-317.55C601.71,-322.97 574.93,-329.62 553.43,-334.96"/>
<polygon fill="#63b8ff" stroke="#63b8ff" points="624.63,-320.88 633.49,-315.08 622.94,-314.09 624.63,-320.88"/>
</a>
</g>
</g>
<!-- Node19 -->
<g id="Node000019" class="node">
<title>Node19</title>
<g id="a_Node000019"><a xlink:href="../../d9/d88/mode_8cpp_aebf1ca4bb83f667202b4a32cc7d3e2a9.xhtml#aebf1ca4bb83f667202b4a32cc7d3e2a9" target="_top" xlink:title="Réalise le changement de mode lorsqu&#39;on appuie sur le bouton vert pendant BUTTON_DELAY.">
<polygon fill="white" stroke="#666666" points="571.5,-243 456.5,-243 456.5,-224 571.5,-224 571.5,-243"/>
<text text-anchor="middle" x="514" y="-231" font-family="Helvetica,sans-Serif" font-size="10.00">greenButtonPressed</text>
</a>
</g>
</g>
<!-- Node18&#45;&gt;Node19 -->
<g id="edge26_Node000018_Node000019" class="edge">
<title>Node18&#45;&gt;Node19</title>
<g id="a_edge26_Node000018_Node000019"><a xlink:title=" ">
<path fill="none" stroke="#63b8ff" d="M611.57,-245.17C598.63,-243.6 584.72,-241.92 571.6,-240.34"/>
<polygon fill="#63b8ff" stroke="#63b8ff" points="611.35,-248.67 621.7,-246.39 612.19,-241.72 611.35,-248.67"/>
</a>
</g>
</g>
<!-- Node22 -->
<g id="Node000022" class="node">
<title>Node22</title>
<g id="a_Node000022"><a xlink:href="../../d9/d88/mode_8cpp_abfb388c3517fd2ecbd1a89e7e15e43fd.xhtml#abfb388c3517fd2ecbd1a89e7e15e43fd" target="_top" xlink:title="Réalise le changement de mode lorsqu&#39;on appuie sur le bouton rouge pendant BUTTON_DELAY.">
<polygon fill="white" stroke="#666666" points="565.5,-280 462.5,-280 462.5,-261 565.5,-261 565.5,-280"/>
<text text-anchor="middle" x="514" y="-268" font-family="Helvetica,sans-Serif" font-size="10.00">redButtonPressed</text>
</a>
</g>
</g>
<!-- Node18&#45;&gt;Node22 -->
<g id="edge30_Node000018_Node000022" class="edge">
<title>Node18&#45;&gt;Node22</title>
<g id="a_edge30_Node000018_Node000022"><a xlink:title=" ">
<path fill="none" stroke="#63b8ff" d="M611.6,-258.18C596.66,-260.09 580.42,-262.16 565.6,-264.05"/>
<polygon fill="#63b8ff" stroke="#63b8ff" points="612.22,-261.63 621.7,-256.89 611.34,-254.69 612.22,-261.63"/>
</a>
</g>
</g>
<!-- Node20 -->
<g id="Node000020" class="node">
<title>Node20</title>
<g id="a_Node000020"><a xlink:href="../../d9/d52/buttons_8cpp_a54d82e2e60914d150743dcfe6ddbbece.xhtml#a54d82e2e60914d150743dcfe6ddbbece" target="_top" xlink:title="Fonction appelée lors de l&#39;appui sur le bouton vert ou rouge.">
<polygon fill="white" stroke="#666666" points="406,-243 320,-243 320,-224 406,-224 406,-243"/>
<text text-anchor="middle" x="363" y="-231" font-family="Helvetica,sans-Serif" font-size="10.00">buttonPressed</text>
</a>
</g>
</g>
<!-- Node19&#45;&gt;Node20 -->
<g id="edge27_Node000019_Node000020" class="edge">
<title>Node19&#45;&gt;Node20</title>
<g id="a_edge27_Node000019_Node000020"><a xlink:title=" ">
<path fill="none" stroke="#63b8ff" d="M446,-233.5C432.47,-233.5 418.61,-233.5 406.23,-233.5"/>
<polygon fill="#63b8ff" stroke="#63b8ff" points="446.24,-237 456.24,-233.5 446.24,-230 446.24,-237"/>
</a>
</g>
</g>
<!-- Node21 -->
<g id="Node000021" class="node">
<title>Node21</title>
<g id="a_Node000021"><a xlink:href="../../d9/d52/buttons_8cpp_a82677b3df6b653b673a4b1735af9d45d.xhtml#a82677b3df6b653b673a4b1735af9d45d" target="_top" xlink:title="Initialise les interruptions sur les boutons.">
<polygon fill="white" stroke="#666666" points="276.5,-206 164.5,-206 164.5,-187 276.5,-187 276.5,-206"/>
<text text-anchor="middle" x="220.5" y="-194" font-family="Helvetica,sans-Serif" font-size="10.00">initButtonsInterrupt</text>
</a>
</g>
</g>
<!-- Node20&#45;&gt;Node21 -->
<g id="edge28_Node000020_Node000021" class="edge">
<title>Node20&#45;&gt;Node21</title>
<g id="a_edge28_Node000020_Node000021"><a xlink:title=" ">
<path fill="none" stroke="#63b8ff" d="M315.98,-221.38C297.18,-216.43 275.74,-210.78 258.05,-206.12"/>
<polygon fill="#63b8ff" stroke="#63b8ff" points="315.26,-224.81 325.82,-223.97 317.04,-218.04 315.26,-224.81"/>
</a>
</g>
</g>
<!-- Node21&#45;&gt;Node11 -->
<g id="edge29_Node000021_Node000011" class="edge">
<title>Node21&#45;&gt;Node11</title>
<g id="a_edge29_Node000021_Node000011"><a xlink:title=" ">
<path fill="none" stroke="#63b8ff" d="M199.07,-180.43C174.05,-160.75 132.52,-128.08 112.09,-112.01"/>
<polygon fill="#63b8ff" stroke="#63b8ff" points="197.14,-183.36 207.16,-186.79 201.47,-177.86 197.14,-183.36"/>
</a>
</g>
</g>
<!-- Node22&#45;&gt;Node20 -->
<g id="edge31_Node000022_Node000020" class="edge">
<title>Node22&#45;&gt;Node20</title>
<g id="a_edge31_Node000022_Node000020"><a xlink:title=" ">
<path fill="none" stroke="#63b8ff" d="M464.7,-258.51C444.55,-253.5 421.48,-247.77 402.5,-243.06"/>
<polygon fill="#63b8ff" stroke="#63b8ff" points="464.08,-261.96 474.63,-260.97 465.77,-255.16 464.08,-261.96"/>
</a>
</g>
</g>
</g>
</svg>
