<?xml version="1.0" encoding="UTF-8" standalone="no"?>
<!DOCTYPE svg PUBLIC "-//W3C//DTD SVG 1.1//EN"
 "http://www.w3.org/Graphics/SVG/1.1/DTD/svg11.dtd">
<!-- Generated by graphviz version 2.43.0 (0)
 -->
<!-- Title: switchLEDToRed2Green Pages: 1 -->
<svg width="1346pt" height="120pt"
 viewBox="0.00 0.00 1346.00 120.00" xmlns="http://www.w3.org/2000/svg" xmlns:xlink="http://www.w3.org/1999/xlink">
<g id="graph0" class="graph" transform="scale(1 1) rotate(0) translate(4 116)">
<title>switchLEDToRed2Green</title>
<!-- Node1 -->
<g id="Node000001" class="node">
<title>Node1</title>
<g id="a_Node000001"><a xlink:title=" ">
<polygon fill="#999999" stroke="#666666" points="131,-38 0,-38 0,-19 131,-19 131,-38"/>
<text text-anchor="middle" x="65.5" y="-26" font-family="Helvetica,sans-Serif" font-size="10.00">switchLEDToRed2Green</text>
</a>
</g>
</g>
<!-- Node2 -->
<g id="Node000002" class="node">
<title>Node2</title>
<g id="a_Node000002"><a xlink:href="../../db/d17/led_8cpp_a568e3f9750c24e5262ff1953d439acaa.xhtml#a568e3f9750c24e5262ff1953d439acaa" target="_top" xlink:title=" ">
<polygon fill="white" stroke="#666666" points="257.5,-57 183.5,-57 183.5,-38 257.5,-38 257.5,-57"/>
<text text-anchor="middle" x="220.5" y="-45" font-family="Helvetica,sans-Serif" font-size="10.00">initLEDLoop</text>
</a>
</g>
</g>
<!-- Node1&#45;&gt;Node2 -->
<g id="edge1_Node000001_Node000002" class="edge">
<title>Node1&#45;&gt;Node2</title>
<g id="a_edge1_Node000001_Node000002"><a xlink:title=" ">
<path fill="none" stroke="#63b8ff" d="M131.39,-36.56C145.4,-38.3 159.94,-40.1 173.07,-41.73"/>
<polygon fill="#63b8ff" stroke="#63b8ff" points="172.91,-45.24 183.27,-43 173.78,-38.29 172.91,-45.24"/>
</a>
</g>
</g>
<!-- Node14 -->
<g id="Node000014" class="node">
<title>Node14</title>
<g id="a_Node000014"><a xlink:href="../../db/d17/led_8cpp_a1c1c60dba65e2b65592bf4a0fe46b91c.xhtml#a1c1c60dba65e2b65592bf4a0fe46b91c" target="_top" xlink:title=" ">
<polygon fill="white" stroke="#666666" points="274,-20 167,-20 167,-1 274,-1 274,-20"/>
<text text-anchor="middle" x="220.5" y="-8" font-family="Helvetica,sans-Serif" font-size="10.00">switchLEDToGreen</text>
</a>
</g>
</g>
<!-- Node1&#45;&gt;Node14 -->
<g id="edge15_Node000001_Node000014" class="edge">
<title>Node1&#45;&gt;Node14</title>
<g id="a_edge15_Node000001_Node000014"><a xlink:title=" ">
<path fill="none" stroke="#63b8ff" d="M131.39,-20.87C139.72,-19.89 148.25,-18.88 156.56,-17.91"/>
<polygon fill="#63b8ff" stroke="#63b8ff" points="157.03,-21.37 166.55,-16.73 156.21,-14.42 157.03,-21.37"/>
</a>
</g>
</g>
<!-- Node3 -->
<g id="Node000003" class="node">
<title>Node3</title>
<g id="a_Node000003"><a xlink:href="../../d5/df3/wiring_8c_a6bc5f943544a887f8b23cadfb26a5e30.xhtml#a6bc5f943544a887f8b23cadfb26a5e30" target="_top" xlink:title=" ">
<polygon fill="white" stroke="#666666" points="380,-94 336,-94 336,-75 380,-75 380,-94"/>
<text text-anchor="middle" x="358" y="-82" font-family="Helvetica,sans-Serif" font-size="10.00">delay</text>
</a>
</g>
</g>
<!-- Node2&#45;&gt;Node3 -->
<g id="edge2_Node000002_Node000003" class="edge">
<title>Node2&#45;&gt;Node3</title>
<g id="a_edge2_Node000002_Node000003"><a xlink:title=" ">
<path fill="none" stroke="#63b8ff" d="M256.39,-57.03C277.86,-62.89 305.13,-70.34 325.86,-76"/>
<polygon fill="#63b8ff" stroke="#63b8ff" points="325.18,-79.44 335.75,-78.7 327.03,-72.69 325.18,-79.44"/>
</a>
</g>
</g>
<!-- Node6 -->
<g id="Node000006" class="node">
<title>Node6</title>
<g id="a_Node000006"><a xlink:href="../../db/d17/led_8cpp_ae18cd762c6f843eb4421cd651a5d3940.xhtml#ae18cd762c6f843eb4421cd651a5d3940" target="_top" xlink:title=" ">
<polygon fill="white" stroke="#666666" points="406,-57 310,-57 310,-38 406,-38 406,-57"/>
<text text-anchor="middle" x="358" y="-45" font-family="Helvetica,sans-Serif" font-size="10.00">switchLEDToRed</text>
</a>
</g>
</g>
<!-- Node2&#45;&gt;Node6 -->
<g id="edge5_Node000002_Node000006" class="edge">
<title>Node2&#45;&gt;Node6</title>
<g id="a_edge5_Node000002_Node000006"><a xlink:title=" ">
<path fill="none" stroke="#63b8ff" d="M257.81,-47.5C270.68,-47.5 285.49,-47.5 299.68,-47.5"/>
<polygon fill="#63b8ff" stroke="#63b8ff" points="299.86,-51 309.86,-47.5 299.86,-44 299.86,-51"/>
</a>
</g>
</g>
<!-- Node4 -->
<g id="Node000004" class="node">
<title>Node4</title>
<g id="a_Node000004"><a xlink:href="../../d5/df3/wiring_8c_a8b24cbb7c3486e1bfa05c86db83ecb01.xhtml#a8b24cbb7c3486e1bfa05c86db83ecb01" target="_top" xlink:title=" ">
<polygon fill="white" stroke="#666666" points="543,-112 493,-112 493,-93 543,-93 543,-112"/>
<text text-anchor="middle" x="518" y="-100" font-family="Helvetica,sans-Serif" font-size="10.00">micros</text>
</a>
</g>
</g>
<!-- Node3&#45;&gt;Node4 -->
<g id="edge3_Node000003_Node000004" class="edge">
<title>Node3&#45;&gt;Node4</title>
<g id="a_edge3_Node000003_Node000004"><a xlink:title=" ">
<path fill="none" stroke="#63b8ff" d="M380.31,-86.93C406.64,-89.93 451.79,-95.07 482.95,-98.62"/>
<polygon fill="#63b8ff" stroke="#63b8ff" points="482.6,-102.1 492.93,-99.76 483.39,-95.15 482.6,-102.1"/>
</a>
</g>
</g>
<!-- Node5 -->
<g id="Node000005" class="node">
<title>Node5</title>
<g id="a_Node000005"><a xlink:href="../../de/df0/Arduino_8h_a7cb51f5c2b5cad3766f19eb69c92793b.xhtml#a7cb51f5c2b5cad3766f19eb69c92793b" target="_top" xlink:title=" ">
<polygon fill="white" stroke="#666666" points="538.5,-75 497.5,-75 497.5,-56 538.5,-56 538.5,-75"/>
<text text-anchor="middle" x="518" y="-63" font-family="Helvetica,sans-Serif" font-size="10.00">yield</text>
</a>
</g>
</g>
<!-- Node3&#45;&gt;Node5 -->
<g id="edge4_Node000003_Node000005" class="edge">
<title>Node3&#45;&gt;Node5</title>
<g id="a_edge4_Node000003_Node000005"><a xlink:title=" ">
<path fill="none" stroke="#63b8ff" d="M380.31,-81.94C407.74,-78.64 455.56,-72.89 486.75,-69.14"/>
<polygon fill="#63b8ff" stroke="#63b8ff" points="487.51,-72.57 497.02,-67.9 486.68,-65.62 487.51,-72.57"/>
</a>
</g>
</g>
<!-- Node7 -->
<g id="Node000007" class="node">
<title>Node7</title>
<g id="a_Node000007"><a xlink:href="../../d5/dc9/classChainableLED_a2b8a41a192a231e77cad268bdbaebd34.xhtml#a2b8a41a192a231e77cad268bdbaebd34" target="_top" xlink:title=" ">
<polygon fill="white" stroke="#666666" points="594,-38 442,-38 442,-19 594,-19 594,-38"/>
<text text-anchor="middle" x="518" y="-26" font-family="Helvetica,sans-Serif" font-size="10.00">ChainableLED::setColorRGB</text>
</a>
</g>
</g>
<!-- Node6&#45;&gt;Node7 -->
<g id="edge6_Node000006_Node000007" class="edge">
<title>Node6&#45;&gt;Node7</title>
<g id="a_edge6_Node000006_Node000007"><a xlink:title=" ">
<path fill="none" stroke="#63b8ff" d="M406.41,-41.8C414.44,-40.83 423,-39.8 431.66,-38.76"/>
<polygon fill="#63b8ff" stroke="#63b8ff" points="432.34,-42.21 441.85,-37.54 431.5,-35.26 432.34,-42.21"/>
</a>
</g>
</g>
<!-- Node8 -->
<g id="Node000008" class="node">
<title>Node8</title>
<g id="a_Node000008"><a xlink:href="../../d5/dc9/classChainableLED_af9dddebec83065625cbd6f8f05b992e7.xhtml#af9dddebec83065625cbd6f8f05b992e7" target="_top" xlink:title=" ">
<polygon fill="white" stroke="#666666" points="941,-38 805,-38 805,-19 941,-19 941,-38"/>
<text text-anchor="middle" x="873" y="-26" font-family="Helvetica,sans-Serif" font-size="10.00">ChainableLED::sendByte</text>
</a>
</g>
</g>
<!-- Node7&#45;&gt;Node8 -->
<g id="edge7_Node000007_Node000008" class="edge">
<title>Node7&#45;&gt;Node8</title>
<g id="a_edge7_Node000007_Node000008"><a xlink:title=" ">
<path fill="none" stroke="#63b8ff" d="M594.29,-28.5C653.34,-28.5 735.22,-28.5 794.77,-28.5"/>
<polygon fill="#63b8ff" stroke="#63b8ff" points="794.87,-32 804.87,-28.5 794.87,-25 794.87,-32"/>
</a>
</g>
</g>
<!-- Node13 -->
<g id="Node000013" class="node">
<title>Node13</title>
<g id="a_Node000013"><a xlink:href="../../d5/dc9/classChainableLED_a7c5c2661fc02dee9f174485a2fadeb7a.xhtml#a7c5c2661fc02dee9f174485a2fadeb7a" target="_top" xlink:title=" ">
<polygon fill="white" stroke="#666666" points="769,-19 630,-19 630,0 769,0 769,-19"/>
<text text-anchor="middle" x="699.5" y="-7" font-family="Helvetica,sans-Serif" font-size="10.00">ChainableLED::sendColor</text>
</a>
</g>
</g>
<!-- Node7&#45;&gt;Node13 -->
<g id="edge13_Node000007_Node000013" class="edge">
<title>Node7&#45;&gt;Node13</title>
<g id="a_edge13_Node000007_Node000013"><a xlink:title=" ">
<path fill="none" stroke="#63b8ff" d="M594.08,-20.55C602.48,-19.66 611.06,-18.76 619.51,-17.86"/>
<polygon fill="#63b8ff" stroke="#63b8ff" points="620.15,-21.31 629.73,-16.78 619.42,-14.35 620.15,-21.31"/>
</a>
</g>
</g>
<!-- Node9 -->
<g id="Node000009" class="node">
<title>Node9</title>
<g id="a_Node000009"><a xlink:href="../../d5/dc9/classChainableLED_af384841b6f083865c7fce288b039d275.xhtml#af384841b6f083865c7fce288b039d275" target="_top" xlink:title=" ">
<polygon fill="white" stroke="#666666" points="1081,-57 977,-57 977,-38 1081,-38 1081,-57"/>
<text text-anchor="middle" x="1029" y="-45" font-family="Helvetica,sans-Serif" font-size="10.00">ChainableLED::clk</text>
</a>
</g>
</g>
<!-- Node8&#45;&gt;Node9 -->
<g id="edge8_Node000008_Node000009" class="edge">
<title>Node8&#45;&gt;Node9</title>
<g id="a_edge8_Node000008_Node000009"><a xlink:title=" ">
<path fill="none" stroke="#63b8ff" d="M941.1,-36.78C949.63,-37.83 958.32,-38.9 966.75,-39.94"/>
<polygon fill="#63b8ff" stroke="#63b8ff" points="966.52,-43.44 976.87,-41.19 967.38,-36.49 966.52,-43.44"/>
</a>
</g>
</g>
<!-- Node11 -->
<g id="Node000011" class="node">
<title>Node11</title>
<g id="a_Node000011"><a xlink:href="../../d5/d45/wiring__digital_8c_a73b9b61feeaf7d790d107f2954a7fd93.xhtml#a73b9b61feeaf7d790d107f2954a7fd93" target="_top" xlink:title=" ">
<polygon fill="white" stroke="#666666" points="1209,-20 1135,-20 1135,-1 1209,-1 1209,-20"/>
<text text-anchor="middle" x="1172" y="-8" font-family="Helvetica,sans-Serif" font-size="10.00">digitalWrite</text>
</a>
</g>
</g>
<!-- Node8&#45;&gt;Node11 -->
<g id="edge12_Node000008_Node000011" class="edge">
<title>Node8&#45;&gt;Node11</title>
<g id="a_edge12_Node000008_Node000011"><a xlink:title=" ">
<path fill="none" stroke="#63b8ff" d="M941.02,-24.44C997.09,-21.04 1075.59,-16.28 1124.85,-13.3"/>
<polygon fill="#63b8ff" stroke="#63b8ff" points="1125.12,-16.79 1134.89,-12.69 1124.7,-9.8 1125.12,-16.79"/>
</a>
</g>
</g>
<!-- Node10 -->
<g id="Node000010" class="node">
<title>Node10</title>
<g id="a_Node000010"><a xlink:href="../../d5/df3/wiring_8c_a62e0a53bc261f9de8700cc5a92307e85.xhtml#a62e0a53bc261f9de8700cc5a92307e85" target="_top" xlink:title=" ">
<polygon fill="white" stroke="#666666" points="1227,-57 1117,-57 1117,-38 1227,-38 1227,-57"/>
<text text-anchor="middle" x="1172" y="-45" font-family="Helvetica,sans-Serif" font-size="10.00">delayMicroseconds</text>
</a>
</g>
</g>
<!-- Node9&#45;&gt;Node10 -->
<g id="edge9_Node000009_Node000010" class="edge">
<title>Node9&#45;&gt;Node10</title>
<g id="a_edge9_Node000009_Node000010"><a xlink:title=" ">
<path fill="none" stroke="#63b8ff" d="M1081.3,-47.5C1089.48,-47.5 1098.02,-47.5 1106.45,-47.5"/>
<polygon fill="#63b8ff" stroke="#63b8ff" points="1106.65,-51 1116.65,-47.5 1106.65,-44 1106.65,-51"/>
</a>
</g>
</g>
<!-- Node9&#45;&gt;Node11 -->
<g id="edge10_Node000009_Node000011" class="edge">
<title>Node9&#45;&gt;Node11</title>
<g id="a_edge10_Node000009_Node000011"><a xlink:title=" ">
<path fill="none" stroke="#63b8ff" d="M1066.31,-37.97C1084.24,-33.27 1106.06,-27.54 1125.13,-22.54"/>
<polygon fill="#63b8ff" stroke="#63b8ff" points="1126.03,-25.92 1134.81,-20 1124.25,-19.15 1126.03,-25.92"/>
</a>
</g>
</g>
<!-- Node12 -->
<g id="Node000012" class="node">
<title>Node12</title>
<g id="a_Node000012"><a xlink:href="../../d5/d45/wiring__digital_8c_ae3d0bcbe4eb927ca8f5d5c21b7e4f224.xhtml#ae3d0bcbe4eb927ca8f5d5c21b7e4f224" target="_top" xlink:title=" ">
<polygon fill="white" stroke="#666666" points="1338,-20 1263,-20 1263,-1 1338,-1 1338,-20"/>
<text text-anchor="middle" x="1300.5" y="-8" font-family="Helvetica,sans-Serif" font-size="10.00">turnOffPWM</text>
</a>
</g>
</g>
<!-- Node11&#45;&gt;Node12 -->
<g id="edge11_Node000011_Node000012" class="edge">
<title>Node11&#45;&gt;Node12</title>
<g id="a_edge11_Node000011_Node000012"><a xlink:title=" ">
<path fill="none" stroke="#63b8ff" d="M1209.25,-10.5C1222.76,-10.5 1238.3,-10.5 1252.63,-10.5"/>
<polygon fill="#63b8ff" stroke="#63b8ff" points="1252.81,-14 1262.81,-10.5 1252.81,-7 1252.81,-14"/>
</a>
</g>
</g>
<!-- Node13&#45;&gt;Node8 -->
<g id="edge14_Node000013_Node000008" class="edge">
<title>Node13&#45;&gt;Node8</title>
<g id="a_edge14_Node000013_Node000008"><a xlink:title=" ">
<path fill="none" stroke="#63b8ff" d="M769.27,-17.12C777.71,-18.05 786.37,-19.01 794.93,-19.96"/>
<polygon fill="#63b8ff" stroke="#63b8ff" points="794.57,-23.44 804.89,-21.07 795.34,-16.49 794.57,-23.44"/>
</a>
</g>
</g>
<!-- Node14&#45;&gt;Node7 -->
<g id="edge16_Node000014_Node000007" class="edge">
<title>Node14&#45;&gt;Node7</title>
<g id="a_edge16_Node000014_Node000007"><a xlink:title=" ">
<path fill="none" stroke="#63b8ff" d="M274.33,-13.72C318.06,-16.38 381.04,-20.22 431.87,-23.31"/>
<polygon fill="#63b8ff" stroke="#63b8ff" points="431.67,-26.81 441.87,-23.92 432.1,-19.82 431.67,-26.81"/>
</a>
</g>
</g>
</g>
</svg>
