<?xml version="1.0" encoding="UTF-8" standalone="no"?>
<!DOCTYPE svg PUBLIC "-//W3C//DTD SVG 1.1//EN"
 "http://www.w3.org/Graphics/SVG/1.1/DTD/svg11.dtd">
<!-- Generated by graphviz version 2.43.0 (0)
 -->
<!-- Title: acquisition Pages: 1 -->
<svg width="1655pt" height="309pt"
 viewBox="0.00 0.00 1655.00 309.00" xmlns="http://www.w3.org/2000/svg" xmlns:xlink="http://www.w3.org/1999/xlink">
<g id="graph0" class="graph" transform="scale(1 1) rotate(0) translate(4 305)">
<title>acquisition</title>
<!-- Node1 -->
<g id="Node000001" class="node">
<title>Node1</title>
<g id="a_Node000001"><a xlink:title="Fonction d&#39;acquisition des données.">
<polygon fill="#999999" stroke="#666666" points="70,-262 0,-262 0,-243 70,-243 70,-262"/>
<text text-anchor="middle" x="35" y="-250" font-family="Helvetica,sans-Serif" font-size="10.00">acquisition</text>
</a>
</g>
</g>
<!-- Node2 -->
<g id="Node000002" class="node">
<title>Node2</title>
<g id="a_Node000002"><a xlink:href="../../d5/df3/wiring_8c_a6ff7f2532a22366f0013bc41397129fd.xhtml#a6ff7f2532a22366f0013bc41397129fd" target="_top" xlink:title=" ">
<polygon fill="white" stroke="#666666" points="683,-301 639,-301 639,-282 683,-282 683,-301"/>
<text text-anchor="middle" x="661" y="-289" font-family="Helvetica,sans-Serif" font-size="10.00">millis</text>
</a>
</g>
</g>
<!-- Node1&#45;&gt;Node2 -->
<g id="edge1_Node000001_Node000002" class="edge">
<title>Node1&#45;&gt;Node2</title>
<g id="a_edge1_Node000001_Node000002"><a xlink:title=" ">
<path fill="none" stroke="#63b8ff" d="M67.5,-262.02C79.47,-265.38 93.28,-268.95 106,-271.5 301.7,-310.7 543.89,-299.51 628.82,-293.85"/>
<polygon fill="#63b8ff" stroke="#63b8ff" points="629.1,-297.34 638.84,-293.16 628.62,-290.36 629.1,-297.34"/>
</a>
</g>
</g>
<!-- Node3 -->
<g id="Node000003" class="node">
<title>Node3</title>
<g id="a_Node000003"><a xlink:href="../../dc/d3d/gps_8cpp_a05a3d705d8063851304bb49200834d1b.xhtml#a05a3d705d8063851304bb49200834d1b" target="_top" xlink:title="Lit les données GPS.">
<polygon fill="white" stroke="#666666" points="189.5,-262 131.5,-262 131.5,-243 189.5,-243 189.5,-262"/>
<text text-anchor="middle" x="160.5" y="-250" font-family="Helvetica,sans-Serif" font-size="10.00">readGPS</text>
</a>
</g>
</g>
<!-- Node1&#45;&gt;Node3 -->
<g id="edge2_Node000001_Node000003" class="edge">
<title>Node1&#45;&gt;Node3</title>
<g id="a_edge2_Node000001_Node000003"><a xlink:title=" ">
<path fill="none" stroke="#63b8ff" d="M70.07,-252.5C85.89,-252.5 104.75,-252.5 121.07,-252.5"/>
<polygon fill="#63b8ff" stroke="#63b8ff" points="121.37,-256 131.37,-252.5 121.37,-249 121.37,-256"/>
</a>
</g>
</g>
<!-- Node9 -->
<g id="Node000009" class="node">
<title>Node9</title>
<g id="a_Node000009"><a xlink:href="../../dd/db1/error_8cpp_aa07018cc68b21b664b4ca75a67e679f0.xhtml#aa07018cc68b21b664b4ca75a67e679f0" target="_top" xlink:title=" ">
<polygon fill="white" stroke="#666666" points="215,-132 106,-132 106,-113 215,-113 215,-132"/>
<text text-anchor="middle" x="160.5" y="-120" font-family="Helvetica,sans-Serif" font-size="10.00">switchToErrorMode</text>
</a>
</g>
</g>
<!-- Node1&#45;&gt;Node9 -->
<g id="edge9_Node000001_Node000009" class="edge">
<title>Node1&#45;&gt;Node9</title>
<g id="a_edge9_Node000001_Node000009"><a xlink:title=" ">
<path fill="none" stroke="#63b8ff" d="M45.28,-242.73C66.22,-220.69 117.31,-166.91 143.48,-139.37"/>
<polygon fill="#63b8ff" stroke="#63b8ff" points="146.1,-141.69 150.45,-132.03 141.02,-136.87 146.1,-141.69"/>
</a>
</g>
</g>
<!-- Node4 -->
<g id="Node000004" class="node">
<title>Node4</title>
<g id="a_Node000004"><a xlink:href="../../d2/de7/classSoftwareSerial_a4cbf77a4e90e15ca576972d7952659c5.xhtml#a4cbf77a4e90e15ca576972d7952659c5" target="_top" xlink:title=" ">
<polygon fill="white" stroke="#666666" points="389,-281 251,-281 251,-262 389,-262 389,-281"/>
<text text-anchor="middle" x="320" y="-269" font-family="Helvetica,sans-Serif" font-size="10.00">SoftwareSerial::available</text>
</a>
</g>
</g>
<!-- Node3&#45;&gt;Node4 -->
<g id="edge3_Node000003_Node000004" class="edge">
<title>Node3&#45;&gt;Node4</title>
<g id="a_edge3_Node000003_Node000004"><a xlink:title=" ">
<path fill="none" stroke="#63b8ff" d="M189.66,-255.9C204.07,-257.64 222.39,-259.85 240.69,-262.05"/>
<polygon fill="#63b8ff" stroke="#63b8ff" points="240.48,-265.55 250.83,-263.28 241.32,-258.6 240.48,-265.55"/>
</a>
</g>
</g>
<!-- Node6 -->
<g id="Node000006" class="node">
<title>Node6</title>
<g id="a_Node000006"><a xlink:href="../../dc/de8/classStream_af84672a4fb2620466958d3118d4fea00.xhtml#af84672a4fb2620466958d3118d4fea00" target="_top" xlink:title=" ">
<polygon fill="white" stroke="#666666" points="385.5,-244 254.5,-244 254.5,-225 385.5,-225 385.5,-244"/>
<text text-anchor="middle" x="320" y="-232" font-family="Helvetica,sans-Serif" font-size="10.00">Stream::readBytesUntil</text>
</a>
</g>
</g>
<!-- Node3&#45;&gt;Node6 -->
<g id="edge5_Node000003_Node000006" class="edge">
<title>Node3&#45;&gt;Node6</title>
<g id="a_edge5_Node000003_Node000006"><a xlink:title=" ">
<path fill="none" stroke="#63b8ff" d="M189.66,-249.28C205.03,-247.53 224.86,-245.26 244.35,-243.03"/>
<polygon fill="#63b8ff" stroke="#63b8ff" points="244.95,-246.49 254.49,-241.87 244.16,-239.53 244.95,-246.49"/>
</a>
</g>
</g>
<!-- Node5 -->
<g id="Node000005" class="node">
<title>Node5</title>
<g id="a_Node000005"><a xlink:href="../../d2/de7/classSoftwareSerial_a7b3fb4a8f57d2b5f2233f841d71ef80f.xhtml#a7b3fb4a8f57d2b5f2233f841d71ef80f" target="_top" xlink:title=" ">
<polygon fill="white" stroke="#666666" points="571,-281 425,-281 425,-262 571,-262 571,-281"/>
<text text-anchor="middle" x="498" y="-269" font-family="Helvetica,sans-Serif" font-size="10.00">SoftwareSerial::isListening</text>
</a>
</g>
</g>
<!-- Node4&#45;&gt;Node5 -->
<g id="edge4_Node000004_Node000005" class="edge">
<title>Node4&#45;&gt;Node5</title>
<g id="a_edge4_Node000004_Node000005"><a xlink:title=" ">
<path fill="none" stroke="#63b8ff" d="M389.05,-271.5C397.46,-271.5 406.13,-271.5 414.72,-271.5"/>
<polygon fill="#63b8ff" stroke="#63b8ff" points="414.76,-275 424.76,-271.5 414.76,-268 414.76,-275"/>
</a>
</g>
</g>
<!-- Node7 -->
<g id="Node000007" class="node">
<title>Node7</title>
<g id="a_Node000007"><a xlink:href="../../dc/de8/classStream_a416a0ada5ed3c9d27f1e72c7d73f0aa1.xhtml#a416a0ada5ed3c9d27f1e72c7d73f0aa1" target="_top" xlink:title=" ">
<polygon fill="white" stroke="#666666" points="553.5,-244 442.5,-244 442.5,-225 553.5,-225 553.5,-244"/>
<text text-anchor="middle" x="498" y="-232" font-family="Helvetica,sans-Serif" font-size="10.00">Stream::timedRead</text>
</a>
</g>
</g>
<!-- Node6&#45;&gt;Node7 -->
<g id="edge6_Node000006_Node000007" class="edge">
<title>Node6&#45;&gt;Node7</title>
<g id="a_edge6_Node000006_Node000007"><a xlink:title=" ">
<path fill="none" stroke="#63b8ff" d="M385.54,-234.5C400.68,-234.5 416.83,-234.5 431.99,-234.5"/>
<polygon fill="#63b8ff" stroke="#63b8ff" points="432.31,-238 442.31,-234.5 432.31,-231 432.31,-238"/>
</a>
</g>
</g>
<!-- Node7&#45;&gt;Node2 -->
<g id="edge7_Node000007_Node000002" class="edge">
<title>Node7&#45;&gt;Node2</title>
<g id="a_edge7_Node000007_Node000002"><a xlink:title=" ">
<path fill="none" stroke="#63b8ff" d="M539.3,-244.03C549.72,-246.79 560.85,-250.02 571,-253.5 591.19,-260.43 613.26,-269.85 630.38,-277.57"/>
<polygon fill="#63b8ff" stroke="#63b8ff" points="629.28,-280.91 639.83,-281.89 632.19,-274.55 629.28,-280.91"/>
</a>
</g>
</g>
<!-- Node8 -->
<g id="Node000008" class="node">
<title>Node8</title>
<g id="a_Node000008"><a xlink:href="../../dc/de8/classStream_aea5dee9fcb038148515b7c9212d38dc0.xhtml#aea5dee9fcb038148515b7c9212d38dc0" target="_top" xlink:title=" ">
<polygon fill="white" stroke="#666666" points="701,-245 621,-245 621,-226 701,-226 701,-245"/>
<text text-anchor="middle" x="661" y="-233" font-family="Helvetica,sans-Serif" font-size="10.00">Stream::read</text>
</a>
</g>
</g>
<!-- Node7&#45;&gt;Node8 -->
<g id="edge8_Node000007_Node000008" class="edge">
<title>Node7&#45;&gt;Node8</title>
<g id="a_edge8_Node000007_Node000008"><a xlink:title=" ">
<path fill="none" stroke="#63b8ff" d="M553.51,-234.84C572.05,-234.95 592.65,-235.08 610.75,-235.19"/>
<polygon fill="#63b8ff" stroke="#63b8ff" points="610.79,-238.69 620.81,-235.26 610.83,-231.69 610.79,-238.69"/>
</a>
</g>
</g>
<!-- Node10 -->
<g id="Node000010" class="node">
<title>Node10</title>
<g id="a_Node000010"><a xlink:href="../../db/d17/led_8cpp_a7ba25f44529972e627561bcf6efc192f.xhtml#a7ba25f44529972e627561bcf6efc192f" target="_top" xlink:title=" ">
<polygon fill="white" stroke="#666666" points="385.5,-95 254.5,-95 254.5,-76 385.5,-76 385.5,-95"/>
<text text-anchor="middle" x="320" y="-83" font-family="Helvetica,sans-Serif" font-size="10.00">switchLEDToRed2Green</text>
</a>
</g>
</g>
<!-- Node9&#45;&gt;Node10 -->
<g id="edge10_Node000009_Node000010" class="edge">
<title>Node9&#45;&gt;Node10</title>
<g id="a_edge10_Node000009_Node000010"><a xlink:title=" ">
<path fill="none" stroke="#63b8ff" d="M202.06,-112.97C222.28,-108.22 246.94,-102.43 268.38,-97.39"/>
<polygon fill="#63b8ff" stroke="#63b8ff" points="269.37,-100.75 278.3,-95.06 267.77,-93.94 269.37,-100.75"/>
</a>
</g>
</g>
<!-- Node24 -->
<g id="Node000024" class="node">
<title>Node24</title>
<g id="a_Node000024"><a xlink:href="../../db/d17/led_8cpp_ac050c3041978fab0c3028de0fdc31618.xhtml#ac050c3041978fab0c3028de0fdc31618" target="_top" xlink:title=" ">
<polygon fill="white" stroke="#666666" points="385.5,-206 254.5,-206 254.5,-187 385.5,-187 385.5,-206"/>
<text text-anchor="middle" x="320" y="-194" font-family="Helvetica,sans-Serif" font-size="10.00">switchLEDToRed2White</text>
</a>
</g>
</g>
<!-- Node9&#45;&gt;Node24 -->
<g id="edge27_Node000009_Node000024" class="edge">
<title>Node9&#45;&gt;Node24</title>
<g id="a_edge27_Node000009_Node000024"><a xlink:title=" ">
<path fill="none" stroke="#63b8ff" d="M174.16,-132.15C190.91,-144.51 221.74,-165.82 251,-178.5 255.64,-180.51 260.56,-182.34 265.55,-184"/>
<polygon fill="#63b8ff" stroke="#63b8ff" points="264.58,-187.37 275.17,-186.98 266.65,-180.68 264.58,-187.37"/>
</a>
</g>
</g>
<!-- Node26 -->
<g id="Node000026" class="node">
<title>Node26</title>
<g id="a_Node000026"><a xlink:href="../../db/d17/led_8cpp_aa04c4b7972bc68200e4d2da56b097115.xhtml#aa04c4b7972bc68200e4d2da56b097115" target="_top" xlink:title=" ">
<polygon fill="white" stroke="#666666" points="379,-58 261,-58 261,-39 379,-39 379,-58"/>
<text text-anchor="middle" x="320" y="-46" font-family="Helvetica,sans-Serif" font-size="10.00">switchLEDToRedBlue</text>
</a>
</g>
</g>
<!-- Node9&#45;&gt;Node26 -->
<g id="edge31_Node000009_Node000026" class="edge">
<title>Node9&#45;&gt;Node26</title>
<g id="a_edge31_Node000009_Node000026"><a xlink:title=" ">
<path fill="none" stroke="#63b8ff" d="M174.51,-112.89C191.38,-100.81 222.09,-80.13 251,-67.5 256.4,-65.14 262.16,-63 267.97,-61.08"/>
<polygon fill="#63b8ff" stroke="#63b8ff" points="269.21,-64.36 277.72,-58.05 267.14,-57.67 269.21,-64.36"/>
</a>
</g>
</g>
<!-- Node28 -->
<g id="Node000028" class="node">
<title>Node28</title>
<g id="a_Node000028"><a xlink:href="../../db/d17/led_8cpp_a59bf7437503d490ee53223c3bd20aa0c.xhtml#a59bf7437503d490ee53223c3bd20aa0c" target="_top" xlink:title=" ">
<polygon fill="white" stroke="#666666" points="382.5,-132 257.5,-132 257.5,-113 382.5,-113 382.5,-132"/>
<text text-anchor="middle" x="320" y="-120" font-family="Helvetica,sans-Serif" font-size="10.00">switchLEDToRedGreen</text>
</a>
</g>
</g>
<!-- Node9&#45;&gt;Node28 -->
<g id="edge35_Node000009_Node000028" class="edge">
<title>Node9&#45;&gt;Node28</title>
<g id="a_edge35_Node000009_Node000028"><a xlink:title=" ">
<path fill="none" stroke="#63b8ff" d="M215.26,-122.5C225.53,-122.5 236.42,-122.5 247.15,-122.5"/>
<polygon fill="#63b8ff" stroke="#63b8ff" points="247.35,-126 257.35,-122.5 247.35,-119 247.35,-126"/>
</a>
</g>
</g>
<!-- Node29 -->
<g id="Node000029" class="node">
<title>Node29</title>
<g id="a_Node000029"><a xlink:href="../../db/d17/led_8cpp_a3f8b463c1fa4e1715beb1a4a6e4c36b3.xhtml#a3f8b463c1fa4e1715beb1a4a6e4c36b3" target="_top" xlink:title=" ">
<polygon fill="white" stroke="#666666" points="382.5,-169 257.5,-169 257.5,-150 382.5,-150 382.5,-169"/>
<text text-anchor="middle" x="320" y="-157" font-family="Helvetica,sans-Serif" font-size="10.00">switchLEDToRedWhite</text>
</a>
</g>
</g>
<!-- Node9&#45;&gt;Node29 -->
<g id="edge38_Node000009_Node000029" class="edge">
<title>Node9&#45;&gt;Node29</title>
<g id="a_edge38_Node000009_Node000029"><a xlink:title=" ">
<path fill="none" stroke="#63b8ff" d="M202.06,-132.03C222.28,-136.78 246.94,-142.57 268.38,-147.61"/>
<polygon fill="#63b8ff" stroke="#63b8ff" points="267.77,-151.06 278.3,-149.94 269.37,-144.25 267.77,-151.06"/>
</a>
</g>
</g>
<!-- Node30 -->
<g id="Node000030" class="node">
<title>Node30</title>
<g id="a_Node000030"><a xlink:href="../../db/d17/led_8cpp_a91398c440a9f9f48d59e14eb727e61ae.xhtml#a91398c440a9f9f48d59e14eb727e61ae" target="_top" xlink:title=" ">
<polygon fill="white" stroke="#666666" points="383.5,-21 256.5,-21 256.5,-2 383.5,-2 383.5,-21"/>
<text text-anchor="middle" x="320" y="-9" font-family="Helvetica,sans-Serif" font-size="10.00">switchLEDToRedYellow</text>
</a>
</g>
</g>
<!-- Node9&#45;&gt;Node30 -->
<g id="edge41_Node000009_Node000030" class="edge">
<title>Node9&#45;&gt;Node30</title>
<g id="a_edge41_Node000009_Node000030"><a xlink:title=" ">
<path fill="none" stroke="#63b8ff" d="M167.91,-112.95C181.12,-94.02 213.34,-51.65 251,-29.5 253.99,-27.74 257.14,-26.16 260.4,-24.72"/>
<polygon fill="#63b8ff" stroke="#63b8ff" points="261.73,-27.96 269.77,-21.07 259.19,-21.44 261.73,-27.96"/>
</a>
</g>
</g>
<!-- Node11 -->
<g id="Node000011" class="node">
<title>Node11</title>
<g id="a_Node000011"><a xlink:href="../../db/d17/led_8cpp_a568e3f9750c24e5262ff1953d439acaa.xhtml#a568e3f9750c24e5262ff1953d439acaa" target="_top" xlink:title=" ">
<polygon fill="white" stroke="#666666" points="535,-132 461,-132 461,-113 535,-113 535,-132"/>
<text text-anchor="middle" x="498" y="-120" font-family="Helvetica,sans-Serif" font-size="10.00">initLEDLoop</text>
</a>
</g>
</g>
<!-- Node10&#45;&gt;Node11 -->
<g id="edge11_Node000010_Node000011" class="edge">
<title>Node10&#45;&gt;Node11</title>
<g id="a_edge11_Node000010_Node000011"><a xlink:title=" ">
<path fill="none" stroke="#63b8ff" d="M366.32,-95.03C392.31,-100.49 424.85,-107.33 450.95,-112.82"/>
<polygon fill="#63b8ff" stroke="#63b8ff" points="450.47,-116.29 460.98,-114.93 451.91,-109.44 450.47,-116.29"/>
</a>
</g>
</g>
<!-- Node23 -->
<g id="Node000023" class="node">
<title>Node23</title>
<g id="a_Node000023"><a xlink:href="../../db/d17/led_8cpp_a1c1c60dba65e2b65592bf4a0fe46b91c.xhtml#a1c1c60dba65e2b65592bf4a0fe46b91c" target="_top" xlink:title=" ">
<polygon fill="white" stroke="#666666" points="551.5,-95 444.5,-95 444.5,-76 551.5,-76 551.5,-95"/>
<text text-anchor="middle" x="498" y="-83" font-family="Helvetica,sans-Serif" font-size="10.00">switchLEDToGreen</text>
</a>
</g>
</g>
<!-- Node10&#45;&gt;Node23 -->
<g id="edge25_Node000010_Node000023" class="edge">
<title>Node10&#45;&gt;Node23</title>
<g id="a_edge25_Node000010_Node000023"><a xlink:title=" ">
<path fill="none" stroke="#63b8ff" d="M385.54,-85.5C401.39,-85.5 418.34,-85.5 434.12,-85.5"/>
<polygon fill="#63b8ff" stroke="#63b8ff" points="434.29,-89 444.29,-85.5 434.29,-82 434.29,-89"/>
</a>
</g>
</g>
<!-- Node12 -->
<g id="Node000012" class="node">
<title>Node12</title>
<g id="a_Node000012"><a xlink:href="../../d5/df3/wiring_8c_a6bc5f943544a887f8b23cadfb26a5e30.xhtml#a6bc5f943544a887f8b23cadfb26a5e30" target="_top" xlink:title=" ">
<polygon fill="white" stroke="#666666" points="683,-208 639,-208 639,-189 683,-189 683,-208"/>
<text text-anchor="middle" x="661" y="-196" font-family="Helvetica,sans-Serif" font-size="10.00">delay</text>
</a>
</g>
</g>
<!-- Node11&#45;&gt;Node12 -->
<g id="edge12_Node000011_Node000012" class="edge">
<title>Node11&#45;&gt;Node12</title>
<g id="a_edge12_Node000011_Node000012"><a xlink:title=" ">
<path fill="none" stroke="#63b8ff" d="M535.24,-130.37C546.91,-133.48 559.73,-137.52 571,-142.5 595.74,-153.44 621.66,-170.47 639.1,-182.89"/>
<polygon fill="#63b8ff" stroke="#63b8ff" points="637.25,-185.86 647.4,-188.9 641.35,-180.2 637.25,-185.86"/>
</a>
</g>
</g>
<!-- Node15 -->
<g id="Node000015" class="node">
<title>Node15</title>
<g id="a_Node000015"><a xlink:href="../../db/d17/led_8cpp_ae18cd762c6f843eb4421cd651a5d3940.xhtml#ae18cd762c6f843eb4421cd651a5d3940" target="_top" xlink:title=" ">
<polygon fill="white" stroke="#666666" points="709,-132 613,-132 613,-113 709,-113 709,-132"/>
<text text-anchor="middle" x="661" y="-120" font-family="Helvetica,sans-Serif" font-size="10.00">switchLEDToRed</text>
</a>
</g>
</g>
<!-- Node11&#45;&gt;Node15 -->
<g id="edge15_Node000011_Node000015" class="edge">
<title>Node11&#45;&gt;Node15</title>
<g id="a_edge15_Node000011_Node000015"><a xlink:title=" ">
<path fill="none" stroke="#63b8ff" d="M535.13,-122.5C555.07,-122.5 580.29,-122.5 602.84,-122.5"/>
<polygon fill="#63b8ff" stroke="#63b8ff" points="602.98,-126 612.98,-122.5 602.98,-119 602.98,-126"/>
</a>
</g>
</g>
<!-- Node13 -->
<g id="Node000013" class="node">
<title>Node13</title>
<g id="a_Node000013"><a xlink:href="../../d5/df3/wiring_8c_a8b24cbb7c3486e1bfa05c86db83ecb01.xhtml#a8b24cbb7c3486e1bfa05c86db83ecb01" target="_top" xlink:title=" ">
<polygon fill="white" stroke="#666666" points="852,-189 802,-189 802,-170 852,-170 852,-189"/>
<text text-anchor="middle" x="827" y="-177" font-family="Helvetica,sans-Serif" font-size="10.00">micros</text>
</a>
</g>
</g>
<!-- Node12&#45;&gt;Node13 -->
<g id="edge13_Node000012_Node000013" class="edge">
<title>Node12&#45;&gt;Node13</title>
<g id="a_edge13_Node000012_Node000013"><a xlink:title=" ">
<path fill="none" stroke="#63b8ff" d="M683.1,-196.05C710.58,-192.87 758.96,-187.27 791.73,-183.47"/>
<polygon fill="#63b8ff" stroke="#63b8ff" points="792.25,-186.93 801.78,-182.31 791.44,-179.98 792.25,-186.93"/>
</a>
</g>
</g>
<!-- Node14 -->
<g id="Node000014" class="node">
<title>Node14</title>
<g id="a_Node000014"><a xlink:href="../../de/df0/Arduino_8h_a7cb51f5c2b5cad3766f19eb69c92793b.xhtml#a7cb51f5c2b5cad3766f19eb69c92793b" target="_top" xlink:title=" ">
<polygon fill="white" stroke="#666666" points="847.5,-226 806.5,-226 806.5,-207 847.5,-207 847.5,-226"/>
<text text-anchor="middle" x="827" y="-214" font-family="Helvetica,sans-Serif" font-size="10.00">yield</text>
</a>
</g>
</g>
<!-- Node12&#45;&gt;Node14 -->
<g id="edge14_Node000012_Node000014" class="edge">
<title>Node12&#45;&gt;Node14</title>
<g id="a_edge14_Node000012_Node000014"><a xlink:title=" ">
<path fill="none" stroke="#63b8ff" d="M683.1,-200.82C711.78,-203.96 763.23,-209.61 795.94,-213.2"/>
<polygon fill="#63b8ff" stroke="#63b8ff" points="795.93,-216.72 806.26,-214.33 796.7,-209.76 795.93,-216.72"/>
</a>
</g>
</g>
<!-- Node16 -->
<g id="Node000016" class="node">
<title>Node16</title>
<g id="a_Node000016"><a xlink:href="../../d5/dc9/classChainableLED_a2b8a41a192a231e77cad268bdbaebd34.xhtml#a2b8a41a192a231e77cad268bdbaebd34" target="_top" xlink:title=" ">
<polygon fill="white" stroke="#666666" points="903,-94 751,-94 751,-75 903,-75 903,-94"/>
<text text-anchor="middle" x="827" y="-82" font-family="Helvetica,sans-Serif" font-size="10.00">ChainableLED::setColorRGB</text>
</a>
</g>
</g>
<!-- Node15&#45;&gt;Node16 -->
<g id="edge16_Node000015_Node000016" class="edge">
<title>Node15&#45;&gt;Node16</title>
<g id="a_edge16_Node000015_Node000016"><a xlink:title=" ">
<path fill="none" stroke="#63b8ff" d="M703.38,-112.91C725.12,-107.87 751.96,-101.66 774.97,-96.32"/>
<polygon fill="#63b8ff" stroke="#63b8ff" points="775.96,-99.69 784.91,-94.02 774.38,-92.87 775.96,-99.69"/>
</a>
</g>
</g>
<!-- Node17 -->
<g id="Node000017" class="node">
<title>Node17</title>
<g id="a_Node000017"><a xlink:href="../../d5/dc9/classChainableLED_af9dddebec83065625cbd6f8f05b992e7.xhtml#af9dddebec83065625cbd6f8f05b992e7" target="_top" xlink:title=" ">
<polygon fill="white" stroke="#666666" points="1250,-94 1114,-94 1114,-75 1250,-75 1250,-94"/>
<text text-anchor="middle" x="1182" y="-82" font-family="Helvetica,sans-Serif" font-size="10.00">ChainableLED::sendByte</text>
</a>
</g>
</g>
<!-- Node16&#45;&gt;Node17 -->
<g id="edge17_Node000016_Node000017" class="edge">
<title>Node16&#45;&gt;Node17</title>
<g id="a_edge17_Node000016_Node000017"><a xlink:title=" ">
<path fill="none" stroke="#63b8ff" d="M903.29,-84.5C962.34,-84.5 1044.22,-84.5 1103.77,-84.5"/>
<polygon fill="#63b8ff" stroke="#63b8ff" points="1103.87,-88 1113.87,-84.5 1103.87,-81 1103.87,-88"/>
</a>
</g>
</g>
<!-- Node22 -->
<g id="Node000022" class="node">
<title>Node22</title>
<g id="a_Node000022"><a xlink:href="../../d5/dc9/classChainableLED_a7c5c2661fc02dee9f174485a2fadeb7a.xhtml#a7c5c2661fc02dee9f174485a2fadeb7a" target="_top" xlink:title=" ">
<polygon fill="white" stroke="#666666" points="1078,-75 939,-75 939,-56 1078,-56 1078,-75"/>
<text text-anchor="middle" x="1008.5" y="-63" font-family="Helvetica,sans-Serif" font-size="10.00">ChainableLED::sendColor</text>
</a>
</g>
</g>
<!-- Node16&#45;&gt;Node22 -->
<g id="edge23_Node000016_Node000022" class="edge">
<title>Node16&#45;&gt;Node22</title>
<g id="a_edge23_Node000016_Node000022"><a xlink:title=" ">
<path fill="none" stroke="#63b8ff" d="M903.08,-76.55C911.48,-75.66 920.06,-74.76 928.51,-73.86"/>
<polygon fill="#63b8ff" stroke="#63b8ff" points="929.15,-77.31 938.73,-72.78 928.42,-70.35 929.15,-77.31"/>
</a>
</g>
</g>
<!-- Node18 -->
<g id="Node000018" class="node">
<title>Node18</title>
<g id="a_Node000018"><a xlink:href="../../d5/dc9/classChainableLED_af384841b6f083865c7fce288b039d275.xhtml#af384841b6f083865c7fce288b039d275" target="_top" xlink:title=" ">
<polygon fill="white" stroke="#666666" points="1390,-113 1286,-113 1286,-94 1390,-94 1390,-113"/>
<text text-anchor="middle" x="1338" y="-101" font-family="Helvetica,sans-Serif" font-size="10.00">ChainableLED::clk</text>
</a>
</g>
</g>
<!-- Node17&#45;&gt;Node18 -->
<g id="edge18_Node000017_Node000018" class="edge">
<title>Node17&#45;&gt;Node18</title>
<g id="a_edge18_Node000017_Node000018"><a xlink:title=" ">
<path fill="none" stroke="#63b8ff" d="M1250.1,-92.78C1258.63,-93.83 1267.32,-94.9 1275.75,-95.94"/>
<polygon fill="#63b8ff" stroke="#63b8ff" points="1275.52,-99.44 1285.87,-97.19 1276.38,-92.49 1275.52,-99.44"/>
</a>
</g>
</g>
<!-- Node20 -->
<g id="Node000020" class="node">
<title>Node20</title>
<g id="a_Node000020"><a xlink:href="../../d5/d45/wiring__digital_8c_a73b9b61feeaf7d790d107f2954a7fd93.xhtml#a73b9b61feeaf7d790d107f2954a7fd93" target="_top" xlink:title=" ">
<polygon fill="white" stroke="#666666" points="1518,-76 1444,-76 1444,-57 1518,-57 1518,-76"/>
<text text-anchor="middle" x="1481" y="-64" font-family="Helvetica,sans-Serif" font-size="10.00">digitalWrite</text>
</a>
</g>
</g>
<!-- Node17&#45;&gt;Node20 -->
<g id="edge22_Node000017_Node000020" class="edge">
<title>Node17&#45;&gt;Node20</title>
<g id="a_edge22_Node000017_Node000020"><a xlink:title=" ">
<path fill="none" stroke="#63b8ff" d="M1250.02,-80.44C1306.09,-77.04 1384.59,-72.28 1433.85,-69.3"/>
<polygon fill="#63b8ff" stroke="#63b8ff" points="1434.12,-72.79 1443.89,-68.69 1433.7,-65.8 1434.12,-72.79"/>
</a>
</g>
</g>
<!-- Node19 -->
<g id="Node000019" class="node">
<title>Node19</title>
<g id="a_Node000019"><a xlink:href="../../d5/df3/wiring_8c_a62e0a53bc261f9de8700cc5a92307e85.xhtml#a62e0a53bc261f9de8700cc5a92307e85" target="_top" xlink:title=" ">
<polygon fill="white" stroke="#666666" points="1536,-113 1426,-113 1426,-94 1536,-94 1536,-113"/>
<text text-anchor="middle" x="1481" y="-101" font-family="Helvetica,sans-Serif" font-size="10.00">delayMicroseconds</text>
</a>
</g>
</g>
<!-- Node18&#45;&gt;Node19 -->
<g id="edge19_Node000018_Node000019" class="edge">
<title>Node18&#45;&gt;Node19</title>
<g id="a_edge19_Node000018_Node000019"><a xlink:title=" ">
<path fill="none" stroke="#63b8ff" d="M1390.3,-103.5C1398.48,-103.5 1407.02,-103.5 1415.45,-103.5"/>
<polygon fill="#63b8ff" stroke="#63b8ff" points="1415.65,-107 1425.65,-103.5 1415.65,-100 1415.65,-107"/>
</a>
</g>
</g>
<!-- Node18&#45;&gt;Node20 -->
<g id="edge20_Node000018_Node000020" class="edge">
<title>Node18&#45;&gt;Node20</title>
<g id="a_edge20_Node000018_Node000020"><a xlink:title=" ">
<path fill="none" stroke="#63b8ff" d="M1375.31,-93.97C1393.24,-89.27 1415.06,-83.54 1434.13,-78.54"/>
<polygon fill="#63b8ff" stroke="#63b8ff" points="1435.03,-81.92 1443.81,-76 1433.25,-75.15 1435.03,-81.92"/>
</a>
</g>
</g>
<!-- Node21 -->
<g id="Node000021" class="node">
<title>Node21</title>
<g id="a_Node000021"><a xlink:href="../../d5/d45/wiring__digital_8c_ae3d0bcbe4eb927ca8f5d5c21b7e4f224.xhtml#ae3d0bcbe4eb927ca8f5d5c21b7e4f224" target="_top" xlink:title=" ">
<polygon fill="white" stroke="#666666" points="1647,-76 1572,-76 1572,-57 1647,-57 1647,-76"/>
<text text-anchor="middle" x="1609.5" y="-64" font-family="Helvetica,sans-Serif" font-size="10.00">turnOffPWM</text>
</a>
</g>
</g>
<!-- Node20&#45;&gt;Node21 -->
<g id="edge21_Node000020_Node000021" class="edge">
<title>Node20&#45;&gt;Node21</title>
<g id="a_edge21_Node000020_Node000021"><a xlink:title=" ">
<path fill="none" stroke="#63b8ff" d="M1518.25,-66.5C1531.76,-66.5 1547.3,-66.5 1561.63,-66.5"/>
<polygon fill="#63b8ff" stroke="#63b8ff" points="1561.81,-70 1571.81,-66.5 1561.81,-63 1561.81,-70"/>
</a>
</g>
</g>
<!-- Node22&#45;&gt;Node17 -->
<g id="edge24_Node000022_Node000017" class="edge">
<title>Node22&#45;&gt;Node17</title>
<g id="a_edge24_Node000022_Node000017"><a xlink:title=" ">
<path fill="none" stroke="#63b8ff" d="M1078.27,-73.12C1086.71,-74.05 1095.37,-75.01 1103.93,-75.96"/>
<polygon fill="#63b8ff" stroke="#63b8ff" points="1103.57,-79.44 1113.89,-77.07 1104.34,-72.49 1103.57,-79.44"/>
</a>
</g>
</g>
<!-- Node23&#45;&gt;Node16 -->
<g id="edge26_Node000023_Node000016" class="edge">
<title>Node23&#45;&gt;Node16</title>
<g id="a_edge26_Node000023_Node000016"><a xlink:title=" ">
<path fill="none" stroke="#63b8ff" d="M551.54,-85.34C602.48,-85.18 680.64,-84.94 740.54,-84.76"/>
<polygon fill="#63b8ff" stroke="#63b8ff" points="740.75,-88.26 750.74,-84.73 740.73,-81.26 740.75,-88.26"/>
</a>
</g>
</g>
<!-- Node24&#45;&gt;Node11 -->
<g id="edge28_Node000024_Node000011" class="edge">
<title>Node24&#45;&gt;Node11</title>
<g id="a_edge28_Node000024_Node000011"><a xlink:title=" ">
<path fill="none" stroke="#63b8ff" d="M369.81,-186.95C376.48,-184.69 383.07,-181.91 389,-178.5 408.61,-167.22 405.46,-153.9 425,-142.5 432.98,-137.84 442.1,-134.23 451.1,-131.44"/>
<polygon fill="#63b8ff" stroke="#63b8ff" points="452.08,-134.8 460.76,-128.72 450.18,-128.06 452.08,-134.8"/>
</a>
</g>
</g>
<!-- Node25 -->
<g id="Node000025" class="node">
<title>Node25</title>
<g id="a_Node000025"><a xlink:href="../../db/d17/led_8cpp_ac69de171075f82d3c3f75385a54ce10a.xhtml#ac69de171075f82d3c3f75385a54ce10a" target="_top" xlink:title=" ">
<polygon fill="white" stroke="#666666" points="551,-170 445,-170 445,-151 551,-151 551,-170"/>
<text text-anchor="middle" x="498" y="-158" font-family="Helvetica,sans-Serif" font-size="10.00">switchLEDToWhite</text>
</a>
</g>
</g>
<!-- Node24&#45;&gt;Node25 -->
<g id="edge29_Node000024_Node000025" class="edge">
<title>Node24&#45;&gt;Node25</title>
<g id="a_edge29_Node000024_Node000025"><a xlink:title=" ">
<path fill="none" stroke="#63b8ff" d="M367.7,-186.95C390.07,-182.37 417.04,-176.86 440.55,-172.05"/>
<polygon fill="#63b8ff" stroke="#63b8ff" points="441.29,-175.47 450.38,-170.03 439.89,-168.61 441.29,-175.47"/>
</a>
</g>
</g>
<!-- Node25&#45;&gt;Node16 -->
<g id="edge30_Node000025_Node000016" class="edge">
<title>Node25&#45;&gt;Node16</title>
<g id="a_edge30_Node000025_Node000016"><a xlink:title=" ">
<path fill="none" stroke="#63b8ff" d="M551.08,-161.49C595.48,-161.02 660.57,-157.22 715,-141.5 747.42,-132.14 781.48,-113.07 803.18,-99.57"/>
<polygon fill="#63b8ff" stroke="#63b8ff" points="805.12,-102.49 811.68,-94.17 801.37,-96.58 805.12,-102.49"/>
</a>
</g>
</g>
<!-- Node26&#45;&gt;Node11 -->
<g id="edge32_Node000026_Node000011" class="edge">
<title>Node26&#45;&gt;Node11</title>
<g id="a_edge32_Node000026_Node000011"><a xlink:title=" ">
<path fill="none" stroke="#63b8ff" d="M367.71,-58.01C375.11,-60.51 382.47,-63.62 389,-67.5 408.73,-79.21 405.11,-93.06 425,-104.5 432.87,-109.03 441.87,-112.43 450.77,-114.98"/>
<polygon fill="#63b8ff" stroke="#63b8ff" points="450.16,-118.43 460.71,-117.51 451.89,-111.65 450.16,-118.43"/>
</a>
</g>
</g>
<!-- Node27 -->
<g id="Node000027" class="node">
<title>Node27</title>
<g id="a_Node000027"><a xlink:href="../../db/d17/led_8cpp_a4f39000a638bc309a30f90d7fbb5a8a1.xhtml#a4f39000a638bc309a30f90d7fbb5a8a1" target="_top" xlink:title=" ">
<polygon fill="white" stroke="#666666" points="710.5,-56 611.5,-56 611.5,-37 710.5,-37 710.5,-56"/>
<text text-anchor="middle" x="661" y="-44" font-family="Helvetica,sans-Serif" font-size="10.00">switchLEDToBlue</text>
</a>
</g>
</g>
<!-- Node26&#45;&gt;Node27 -->
<g id="edge33_Node000026_Node000027" class="edge">
<title>Node26&#45;&gt;Node27</title>
<g id="a_edge33_Node000026_Node000027"><a xlink:title=" ">
<path fill="none" stroke="#63b8ff" d="M379.28,-48.16C441.32,-47.79 538.97,-47.21 601.21,-46.85"/>
<polygon fill="#63b8ff" stroke="#63b8ff" points="601.28,-50.35 611.26,-46.79 601.24,-43.35 601.28,-50.35"/>
</a>
</g>
</g>
<!-- Node27&#45;&gt;Node16 -->
<g id="edge34_Node000027_Node000016" class="edge">
<title>Node27&#45;&gt;Node16</title>
<g id="a_edge34_Node000027_Node000016"><a xlink:title=" ">
<path fill="none" stroke="#63b8ff" d="M703.38,-56.09C725.12,-61.13 751.96,-67.34 774.97,-72.68"/>
<polygon fill="#63b8ff" stroke="#63b8ff" points="774.38,-76.13 784.91,-74.98 775.96,-69.31 774.38,-76.13"/>
</a>
</g>
</g>
<!-- Node28&#45;&gt;Node11 -->
<g id="edge36_Node000028_Node000011" class="edge">
<title>Node28&#45;&gt;Node11</title>
<g id="a_edge36_Node000028_Node000011"><a xlink:title=" ">
<path fill="none" stroke="#63b8ff" d="M382.56,-122.5C404.94,-122.5 429.85,-122.5 450.69,-122.5"/>
<polygon fill="#63b8ff" stroke="#63b8ff" points="450.88,-126 460.88,-122.5 450.88,-119 450.88,-126"/>
</a>
</g>
</g>
<!-- Node28&#45;&gt;Node23 -->
<g id="edge37_Node000028_Node000023" class="edge">
<title>Node28&#45;&gt;Node23</title>
<g id="a_edge37_Node000028_Node000023"><a xlink:title=" ">
<path fill="none" stroke="#63b8ff" d="M366.32,-112.97C389.33,-108.14 417.47,-102.22 441.74,-97.12"/>
<polygon fill="#63b8ff" stroke="#63b8ff" points="442.46,-100.54 451.52,-95.06 441.02,-93.69 442.46,-100.54"/>
</a>
</g>
</g>
<!-- Node29&#45;&gt;Node11 -->
<g id="edge39_Node000029_Node000011" class="edge">
<title>Node29&#45;&gt;Node11</title>
<g id="a_edge39_Node000029_Node000011"><a xlink:title=" ">
<path fill="none" stroke="#63b8ff" d="M366.32,-149.97C392.31,-144.51 424.85,-137.67 450.95,-132.18"/>
<polygon fill="#63b8ff" stroke="#63b8ff" points="451.91,-135.56 460.98,-130.07 450.47,-128.71 451.91,-135.56"/>
</a>
</g>
</g>
<!-- Node29&#45;&gt;Node25 -->
<g id="edge40_Node000029_Node000025" class="edge">
<title>Node29&#45;&gt;Node25</title>
<g id="a_edge40_Node000029_Node000025"><a xlink:title=" ">
<path fill="none" stroke="#63b8ff" d="M382.56,-159.85C399.38,-159.95 417.64,-160.05 434.52,-160.14"/>
<polygon fill="#63b8ff" stroke="#63b8ff" points="434.8,-163.65 444.82,-160.2 434.84,-156.65 434.8,-163.65"/>
</a>
</g>
</g>
<!-- Node30&#45;&gt;Node11 -->
<g id="edge42_Node000030_Node000011" class="edge">
<title>Node30&#45;&gt;Node11</title>
<g id="a_edge42_Node000030_Node000011"><a xlink:title=" ">
<path fill="none" stroke="#63b8ff" d="M375.15,-21.04C380.13,-23.3 384.86,-26.08 389,-29.5 417.49,-53.06 396.35,-81.13 425,-104.5 432.49,-110.6 441.76,-114.68 451.13,-117.38"/>
<polygon fill="#63b8ff" stroke="#63b8ff" points="450.33,-120.79 460.87,-119.74 451.97,-113.99 450.33,-120.79"/>
</a>
</g>
</g>
<!-- Node31 -->
<g id="Node000031" class="node">
<title>Node31</title>
<g id="a_Node000031"><a xlink:href="../../db/d17/led_8cpp_af8230cfc3cf386fa1253cd37b3cd215d.xhtml#af8230cfc3cf386fa1253cd37b3cd215d" target="_top" xlink:title=" ">
<polygon fill="white" stroke="#666666" points="715,-19 607,-19 607,0 715,0 715,-19"/>
<text text-anchor="middle" x="661" y="-7" font-family="Helvetica,sans-Serif" font-size="10.00">switchLEDToYellow</text>
</a>
</g>
</g>
<!-- Node30&#45;&gt;Node31 -->
<g id="edge43_Node000030_Node000031" class="edge">
<title>Node30&#45;&gt;Node31</title>
<g id="a_edge43_Node000030_Node000031"><a xlink:title=" ">
<path fill="none" stroke="#63b8ff" d="M383.57,-11.13C444.25,-10.77 535.82,-10.23 596.73,-9.87"/>
<polygon fill="#63b8ff" stroke="#63b8ff" points="597,-13.37 606.98,-9.81 596.96,-6.37 597,-13.37"/>
</a>
</g>
</g>
<!-- Node31&#45;&gt;Node16 -->
<g id="edge44_Node000031_Node000016" class="edge">
<title>Node31&#45;&gt;Node16</title>
<g id="a_edge44_Node000031_Node000016"><a xlink:title=" ">
<path fill="none" stroke="#63b8ff" d="M692.56,-19.02C699.98,-21.57 707.84,-24.47 715,-27.5 745.02,-40.22 778.1,-57.69 800.28,-69.92"/>
<polygon fill="#63b8ff" stroke="#63b8ff" points="798.63,-73.01 809.07,-74.81 802.03,-66.89 798.63,-73.01"/>
</a>
</g>
</g>
</g>
</svg>
