<?xml version="1.0" encoding="UTF-8" standalone="no"?>
<!DOCTYPE svg PUBLIC "-//W3C//DTD SVG 1.1//EN"
 "http://www.w3.org/Graphics/SVG/1.1/DTD/svg11.dtd">
<!-- Generated by graphviz version 2.43.0 (0)
 -->
<!-- Title: FsDateTime.cpp Pages: 1 -->
<!--zoomable 357 -->

<svg id="main" version="1.1" xmlns="http://www.w3.org/2000/svg" xmlns:xlink="http://www.w3.org/1999/xlink" xml:space="preserve" onload="init(evt)">
<style type="text/css"><![CDATA[
.node, .edge {opacity: 0.7;}
.node.selected, .edge.selected {opacity: 1;}
.edge:hover path { stroke: red; }
.edge:hover polygon { stroke: red; fill: red; }
]]></style>

<defs>
  <circle id="rim" cx="0" cy="0" r="7"/>
  <circle id="rim2" cx="0" cy="0" r="3.5"/>
  <g id="zoomPlus">
    <use xlink:href="#rim" fill="#404040"><set attributeName="fill" to="#808080" begin="zoomplus.mouseover" end="zoomplus.mouseout"/></use>
    <path d="M-4,0h8M0,-4v8" fill="none" stroke="white" stroke-width="1.5" pointer-events="none"/>
  </g>
  <g id="zoomMin">
    <use xlink:href="#rim" fill="#404040"><set attributeName="fill" to="#808080" begin="zoomminus.mouseover" end="zoomminus.mouseout"/></use>
    <path d="M-4,0h8" fill="none" stroke="white" stroke-width="1.5" pointer-events="none"/>
  </g>
  <g id="arrowUp" transform="translate(30 24)">
    <use xlink:href="#rim"/>
    <path pointer-events="none" fill="none" stroke="white" stroke-width="1.5" d="M0,-3.0v7 M-2.5,-0.5L0,-3.0L2.5,-0.5"/>
  </g>
  <g id="arrowRight" transform="rotate(90) translate(36 -43)">
    <use xlink:href="#rim"/>
    <path pointer-events="none" fill="none" stroke="white" stroke-width="1.5" d="M0,-3.0v7 M-2.5,-0.5L0,-3.0L2.5,-0.5"/>
  </g>
  <g id="arrowDown" transform="rotate(180) translate(-30 -48)">
    <use xlink:href="#rim"/>
    <path pointer-events="none" fill="none" stroke="white" stroke-width="1.5" d="M0,-3.0v7 M-2.5,-0.5L0,-3.0L2.5,-0.5"/>
  </g>
  <g id="arrowLeft" transform="rotate(270) translate(-36 17)">
    <use xlink:href="#rim"/>
    <path pointer-events="none" fill="none" stroke="white" stroke-width="1.5" d="M0,-3.0v7 M-2.5,-0.5L0,-3.0L2.5,-0.5"/>
  </g>
  <g id="resetDef">
    <use xlink:href="#rim2" fill="#404040"><set attributeName="fill" to="#808080" begin="reset.mouseover" end="reset.mouseout"/></use>
  </g>
</defs>
<script type="application/ecmascript">
var viewWidth = 676;
var viewHeight = 357;
var sectionId = 'dynsection-0';
</script>
<script type="application/ecmascript" xlink:href="../../svg.min.js"/>
<svg id="graph" class="graph">
<g id="viewport">
<title>FsDateTime.cpp</title>
<!-- Node1 -->
<g id="Node000001" class="node">
<title>Node1</title>
<g id="a_Node000001"><a xlink:title=" ">
<polygon fill="#999999" stroke="#666666" points="367.5,-349 271.5,-349 271.5,-330 367.5,-330 367.5,-349"/>
<text text-anchor="middle" x="319.5" y="-337" font-family="Helvetica,sans-Serif" font-size="10.00">FsDateTime.cpp</text>
</a>
</g>
</g>
<!-- Node2 -->
<g id="Node000002" class="node">
<title>Node2</title>
<g id="a_Node000002"><a xlink:href="../../d9/d5f/FsDateTime_8h.xhtml" target="_top" xlink:title=" ">
<polygon fill="white" stroke="#666666" points="284,-294 199,-294 199,-275 284,-275 284,-294"/>
<text text-anchor="middle" x="241.5" y="-282" font-family="Helvetica,sans-Serif" font-size="10.00">FsDateTime.h</text>
</a>
</g>
</g>
<!-- Node1&#45;&gt;Node2 -->
<g id="edge1_Node000001_Node000002" class="edge">
<title>Node1&#45;&gt;Node2</title>
<g id="a_edge1_Node000001_Node000002"><a xlink:title=" ">
<path fill="none" stroke="#63b8ff" d="M306.97,-329.98C295.1,-321.92 277.04,-309.65 262.89,-300.03"/>
<polygon fill="#63b8ff" stroke="#63b8ff" points="264.5,-296.9 254.26,-294.17 260.56,-302.69 264.5,-296.9"/>
</a>
</g>
</g>
<!-- Node5 -->
<g id="Node000005" class="node">
<title>Node5</title>
<g id="a_Node000005"><a xlink:href="../../d0/d1b/SysCall_8h.xhtml" target="_top" xlink:title="SysCall class.">
<polygon fill="white" stroke="#666666" points="350.5,-239 288.5,-239 288.5,-220 350.5,-220 350.5,-239"/>
<text text-anchor="middle" x="319.5" y="-227" font-family="Helvetica,sans-Serif" font-size="10.00">SysCall.h</text>
</a>
</g>
</g>
<!-- Node1&#45;&gt;Node5 -->
<g id="edge25_Node000001_Node000005" class="edge">
<title>Node1&#45;&gt;Node5</title>
<g id="a_edge25_Node000001_Node000005"><a xlink:title=" ">
<path fill="none" stroke="#63b8ff" d="M319.5,-329.66C319.5,-312.17 319.5,-272.8 319.5,-249.27"/>
<polygon fill="#63b8ff" stroke="#63b8ff" points="323,-249.16 319.5,-239.16 316,-249.16 323,-249.16"/>
</a>
</g>
</g>
<!-- Node18 -->
<g id="Node000018" class="node">
<title>Node18</title>
<g id="a_Node000018"><a xlink:href="../../d3/d4d/FmtNumber_8h.xhtml" target="_top" xlink:title=" ">
<polygon fill="white" stroke="#666666" points="523,-239 440,-239 440,-220 523,-220 523,-239"/>
<text text-anchor="middle" x="481.5" y="-227" font-family="Helvetica,sans-Serif" font-size="10.00">FmtNumber.h</text>
</a>
</g>
</g>
<!-- Node1&#45;&gt;Node18 -->
<g id="edge21_Node000001_Node000018" class="edge">
<title>Node1&#45;&gt;Node18</title>
<g id="a_edge21_Node000001_Node000018"><a xlink:title=" ">
<path fill="none" stroke="#63b8ff" d="M332.48,-329.84C360.33,-311.28 426.02,-267.49 460.12,-244.75"/>
<polygon fill="#63b8ff" stroke="#63b8ff" points="462.08,-247.66 468.45,-239.2 458.19,-241.83 462.08,-247.66"/>
</a>
</g>
</g>
<!-- Node3 -->
<g id="Node000003" class="node">
<title>Node3</title>
<g id="a_Node000003"><a xlink:title=" ">
<polygon fill="#e0e0e0" stroke="#999999" points="312,-129 259,-129 259,-110 312,-110 312,-129"/>
<text text-anchor="middle" x="285.5" y="-117" font-family="Helvetica,sans-Serif" font-size="10.00">stdint.h</text>
</a>
</g>
</g>
<!-- Node2&#45;&gt;Node3 -->
<g id="edge2_Node000002_Node000003" class="edge">
<title>Node2&#45;&gt;Node3</title>
<g id="a_edge2_Node000002_Node000003"><a xlink:title=" ">
<path fill="none" stroke="#63b8ff" d="M223.05,-274.87C184.99,-255.9 103.9,-208.75 136.5,-165 162.15,-130.57 213.44,-121.74 248.61,-120"/>
<polygon fill="#63b8ff" stroke="#63b8ff" points="249.08,-123.48 258.96,-119.66 248.85,-116.49 249.08,-123.48"/>
</a>
</g>
</g>
<!-- Node4 -->
<g id="Node000004" class="node">
<title>Node4</title>
<g id="a_Node000004"><a xlink:href="../../dd/ded/CompileDateTime_8h.xhtml" target="_top" xlink:title=" ">
<polygon fill="white" stroke="#666666" points="259.5,-184 145.5,-184 145.5,-165 259.5,-165 259.5,-184"/>
<text text-anchor="middle" x="202.5" y="-172" font-family="Helvetica,sans-Serif" font-size="10.00">CompileDateTime.h</text>
</a>
</g>
</g>
<!-- Node2&#45;&gt;Node4 -->
<g id="edge3_Node000002_Node000004" class="edge">
<title>Node2&#45;&gt;Node4</title>
<g id="a_edge3_Node000002_Node000004"><a xlink:title=" ">
<path fill="none" stroke="#63b8ff" d="M238.31,-274.66C231.93,-257.01 217.52,-217.09 209.05,-193.64"/>
<polygon fill="#63b8ff" stroke="#63b8ff" points="212.32,-192.38 205.63,-184.16 205.73,-194.75 212.32,-192.38"/>
</a>
</g>
</g>
<!-- Node2&#45;&gt;Node5 -->
<g id="edge5_Node000002_Node000005" class="edge">
<title>Node2&#45;&gt;Node5</title>
<g id="a_edge5_Node000002_Node000005"><a xlink:title=" ">
<path fill="none" stroke="#63b8ff" d="M254.03,-274.98C265.9,-266.92 283.96,-254.65 298.11,-245.03"/>
<polygon fill="#63b8ff" stroke="#63b8ff" points="300.44,-247.69 306.74,-239.17 296.5,-241.9 300.44,-247.69"/>
</a>
</g>
</g>
<!-- Node4&#45;&gt;Node3 -->
<g id="edge4_Node000004_Node000003" class="edge">
<title>Node4&#45;&gt;Node3</title>
<g id="a_edge4_Node000004_Node000003"><a xlink:title=" ">
<path fill="none" stroke="#63b8ff" d="M215.84,-164.98C228.59,-156.84 248.05,-144.41 263.17,-134.76"/>
<polygon fill="#63b8ff" stroke="#63b8ff" points="265.38,-137.5 271.92,-129.17 261.61,-131.6 265.38,-137.5"/>
</a>
</g>
</g>
<!-- Node5&#45;&gt;Node3 -->
<g id="edge7_Node000005_Node000003" class="edge">
<title>Node5&#45;&gt;Node3</title>
<g id="a_edge7_Node000005_Node000003"><a xlink:title=" ">
<path fill="none" stroke="#63b8ff" d="M316.72,-219.66C311.19,-202.09 298.71,-162.45 291.31,-138.95"/>
<polygon fill="#63b8ff" stroke="#63b8ff" points="294.57,-137.65 288.23,-129.16 287.89,-139.75 294.57,-137.65"/>
</a>
</g>
</g>
<!-- Node6 -->
<g id="Node000006" class="node">
<title>Node6</title>
<g id="a_Node000006"><a xlink:title=" ">
<polygon fill="#e0e0e0" stroke="#999999" points="481.5,-184 425.5,-184 425.5,-165 481.5,-165 481.5,-184"/>
<text text-anchor="middle" x="453.5" y="-172" font-family="Helvetica,sans-Serif" font-size="10.00">stddef.h</text>
</a>
</g>
</g>
<!-- Node5&#45;&gt;Node6 -->
<g id="edge6_Node000005_Node000006" class="edge">
<title>Node5&#45;&gt;Node6</title>
<g id="a_edge6_Node000005_Node000006"><a xlink:title=" ">
<path fill="none" stroke="#63b8ff" d="M341.03,-219.98C362.97,-211.3 397.24,-197.75 422.19,-187.88"/>
<polygon fill="#63b8ff" stroke="#63b8ff" points="423.57,-191.1 431.58,-184.17 420.99,-184.59 423.57,-191.1"/>
</a>
</g>
</g>
<!-- Node7 -->
<g id="Node000007" class="node">
<title>Node7</title>
<g id="a_Node000007"><a xlink:href="../../d4/d1f/SdFatConfig_8h.xhtml" target="_top" xlink:title="configuration definitions">
<polygon fill="white" stroke="#666666" points="407.5,-184 315.5,-184 315.5,-165 407.5,-165 407.5,-184"/>
<text text-anchor="middle" x="361.5" y="-172" font-family="Helvetica,sans-Serif" font-size="10.00">../SdFatConfig.h</text>
</a>
</g>
</g>
<!-- Node5&#45;&gt;Node7 -->
<g id="edge8_Node000005_Node000007" class="edge">
<title>Node5&#45;&gt;Node7</title>
<g id="a_edge8_Node000005_Node000007"><a xlink:title=" ">
<path fill="none" stroke="#63b8ff" d="M326.44,-219.75C332.37,-212.26 341.07,-201.28 348.32,-192.13"/>
<polygon fill="#63b8ff" stroke="#63b8ff" points="351.23,-194.1 354.69,-184.09 345.74,-189.75 351.23,-194.1"/>
</a>
</g>
</g>
<!-- Node7&#45;&gt;Node3 -->
<g id="edge9_Node000007_Node000003" class="edge">
<title>Node7&#45;&gt;Node3</title>
<g id="a_edge9_Node000007_Node000003"><a xlink:title=" ">
<path fill="none" stroke="#63b8ff" d="M349.29,-164.98C337.72,-156.92 320.12,-144.65 306.34,-135.03"/>
<polygon fill="#63b8ff" stroke="#63b8ff" points="308.14,-132.02 297.93,-129.17 304.13,-137.76 308.14,-132.02"/>
</a>
</g>
</g>
<!-- Node8 -->
<g id="Node000008" class="node">
<title>Node8</title>
<g id="a_Node000008"><a xlink:href="../../de/df0/Arduino_8h.xhtml" target="_top" xlink:title=" ">
<polygon fill="white" stroke="#666666" points="393,-129 330,-129 330,-110 393,-110 393,-129"/>
<text text-anchor="middle" x="361.5" y="-117" font-family="Helvetica,sans-Serif" font-size="10.00">Arduino.h</text>
</a>
</g>
</g>
<!-- Node7&#45;&gt;Node8 -->
<g id="edge10_Node000007_Node000008" class="edge">
<title>Node7&#45;&gt;Node8</title>
<g id="a_edge10_Node000007_Node000008"><a xlink:title=" ">
<path fill="none" stroke="#63b8ff" d="M361.5,-164.75C361.5,-157.8 361.5,-147.85 361.5,-139.13"/>
<polygon fill="#63b8ff" stroke="#63b8ff" points="365,-139.09 361.5,-129.09 358,-139.09 365,-139.09"/>
</a>
</g>
</g>
<!-- Node9 -->
<g id="Node000009" class="node">
<title>Node9</title>
<g id="a_Node000009"><a xlink:title=" ">
<polygon fill="#e0e0e0" stroke="#999999" points="518,-74 465,-74 465,-55 518,-55 518,-74"/>
<text text-anchor="middle" x="491.5" y="-62" font-family="Helvetica,sans-Serif" font-size="10.00">stdlib.h</text>
</a>
</g>
</g>
<!-- Node8&#45;&gt;Node9 -->
<g id="edge11_Node000008_Node000009" class="edge">
<title>Node8&#45;&gt;Node9</title>
<g id="a_edge11_Node000008_Node000009"><a xlink:title=" ">
<path fill="none" stroke="#63b8ff" d="M382.39,-109.98C403.58,-101.34 436.63,-87.87 460.8,-78.02"/>
<polygon fill="#63b8ff" stroke="#63b8ff" points="462.29,-81.19 470.23,-74.17 459.65,-74.7 462.29,-81.19"/>
</a>
</g>
</g>
<!-- Node10 -->
<g id="Node000010" class="node">
<title>Node10</title>
<g id="a_Node000010"><a xlink:title=" ">
<polygon fill="#e0e0e0" stroke="#999999" points="598.5,-74 536.5,-74 536.5,-55 598.5,-55 598.5,-74"/>
<text text-anchor="middle" x="567.5" y="-62" font-family="Helvetica,sans-Serif" font-size="10.00">stdbool.h</text>
</a>
</g>
</g>
<!-- Node8&#45;&gt;Node10 -->
<g id="edge12_Node000008_Node000010" class="edge">
<title>Node8&#45;&gt;Node10</title>
<g id="a_edge12_Node000008_Node000010"><a xlink:title=" ">
<path fill="none" stroke="#63b8ff" d="M393.24,-110.33C429.05,-101.12 487.43,-86.1 526.63,-76.02"/>
<polygon fill="#63b8ff" stroke="#63b8ff" points="527.59,-79.38 536.4,-73.5 525.85,-72.6 527.59,-79.38"/>
</a>
</g>
</g>
<!-- Node11 -->
<g id="Node000011" class="node">
<title>Node11</title>
<g id="a_Node000011"><a xlink:title=" ">
<polygon fill="#e0e0e0" stroke="#999999" points="53,-74 0,-74 0,-55 53,-55 53,-74"/>
<text text-anchor="middle" x="26.5" y="-62" font-family="Helvetica,sans-Serif" font-size="10.00">string.h</text>
</a>
</g>
</g>
<!-- Node8&#45;&gt;Node11 -->
<g id="edge13_Node000008_Node000011" class="edge">
<title>Node8&#45;&gt;Node11</title>
<g id="a_edge13_Node000008_Node000011"><a xlink:title=" ">
<path fill="none" stroke="#63b8ff" d="M329.76,-111.7C326.63,-111.1 323.51,-110.52 320.5,-110 209.54,-90.78 178.01,-95.07 63.07,-73.93"/>
<polygon fill="#63b8ff" stroke="#63b8ff" points="63.65,-70.48 53.18,-72.09 62.37,-77.36 63.65,-70.48"/>
</a>
</g>
</g>
<!-- Node12 -->
<g id="Node000012" class="node">
<title>Node12</title>
<g id="a_Node000012"><a xlink:title=" ">
<polygon fill="#e0e0e0" stroke="#999999" points="668,-74 617,-74 617,-55 668,-55 668,-74"/>
<text text-anchor="middle" x="642.5" y="-62" font-family="Helvetica,sans-Serif" font-size="10.00">math.h</text>
</a>
</g>
</g>
<!-- Node8&#45;&gt;Node12 -->
<g id="edge14_Node000008_Node000012" class="edge">
<title>Node8&#45;&gt;Node12</title>
<g id="a_edge14_Node000008_Node000012"><a xlink:title=" ">
<path fill="none" stroke="#63b8ff" d="M393.07,-113.4C438.21,-105.99 524,-91.39 607.07,-73.98"/>
<polygon fill="#63b8ff" stroke="#63b8ff" points="607.87,-77.39 616.93,-71.9 606.42,-70.54 607.87,-77.39"/>
</a>
</g>
</g>
<!-- Node13 -->
<g id="Node000013" class="node">
<title>Node13</title>
<g id="a_Node000013"><a xlink:title=" ">
<polygon fill="#e0e0e0" stroke="#999999" points="199,-19 104,-19 104,0 199,0 199,-19"/>
<text text-anchor="middle" x="151.5" y="-7" font-family="Helvetica,sans-Serif" font-size="10.00">avr/pgmspace.h</text>
</a>
</g>
</g>
<!-- Node8&#45;&gt;Node13 -->
<g id="edge15_Node000008_Node000013" class="edge">
<title>Node8&#45;&gt;Node13</title>
<g id="a_edge15_Node000008_Node000013"><a xlink:title=" ">
<path fill="none" stroke="#63b8ff" d="M329.96,-111.69C290.89,-102.86 226.97,-87.07 206.5,-74 187.95,-62.15 172.15,-42.2 162.31,-27.82"/>
<polygon fill="#63b8ff" stroke="#63b8ff" points="165.15,-25.76 156.74,-19.32 159.29,-29.6 165.15,-25.76"/>
</a>
</g>
</g>
<!-- Node14 -->
<g id="Node000014" class="node">
<title>Node14</title>
<g id="a_Node000014"><a xlink:title=" ">
<polygon fill="#e0e0e0" stroke="#999999" points="269,-74 216,-74 216,-55 269,-55 269,-74"/>
<text text-anchor="middle" x="242.5" y="-62" font-family="Helvetica,sans-Serif" font-size="10.00">avr/io.h</text>
</a>
</g>
</g>
<!-- Node8&#45;&gt;Node14 -->
<g id="edge16_Node000008_Node000014" class="edge">
<title>Node8&#45;&gt;Node14</title>
<g id="a_edge16_Node000008_Node000014"><a xlink:title=" ">
<path fill="none" stroke="#63b8ff" d="M342.38,-109.98C323.15,-101.42 293.27,-88.11 271.19,-78.28"/>
<polygon fill="#63b8ff" stroke="#63b8ff" points="272.53,-75.04 261.97,-74.17 269.68,-81.44 272.53,-75.04"/>
</a>
</g>
</g>
<!-- Node15 -->
<g id="Node000015" class="node">
<title>Node15</title>
<g id="a_Node000015"><a xlink:title=" ">
<polygon fill="#e0e0e0" stroke="#999999" points="373.5,-74 287.5,-74 287.5,-55 373.5,-55 373.5,-74"/>
<text text-anchor="middle" x="330.5" y="-62" font-family="Helvetica,sans-Serif" font-size="10.00">avr/interrupt.h</text>
</a>
</g>
</g>
<!-- Node8&#45;&gt;Node15 -->
<g id="edge17_Node000008_Node000015" class="edge">
<title>Node8&#45;&gt;Node15</title>
<g id="a_edge17_Node000008_Node000015"><a xlink:title=" ">
<path fill="none" stroke="#63b8ff" d="M356.38,-109.75C352.14,-102.49 345.97,-91.95 340.72,-82.98"/>
<polygon fill="#63b8ff" stroke="#63b8ff" points="343.59,-80.95 335.52,-74.09 337.55,-84.49 343.59,-80.95"/>
</a>
</g>
</g>
<!-- Node16 -->
<g id="Node000016" class="node">
<title>Node16</title>
<g id="a_Node000016"><a xlink:href="../../d8/da4/binary_8h.xhtml" target="_top" xlink:title=" ">
<polygon fill="white" stroke="#666666" points="447,-74 392,-74 392,-55 447,-55 447,-74"/>
<text text-anchor="middle" x="419.5" y="-62" font-family="Helvetica,sans-Serif" font-size="10.00">binary.h</text>
</a>
</g>
</g>
<!-- Node8&#45;&gt;Node16 -->
<g id="edge18_Node000008_Node000016" class="edge">
<title>Node8&#45;&gt;Node16</title>
<g id="a_edge18_Node000008_Node000016"><a xlink:title=" ">
<path fill="none" stroke="#63b8ff" d="M370.82,-109.98C379.31,-102.23 392.06,-90.58 402.38,-81.14"/>
<polygon fill="#63b8ff" stroke="#63b8ff" points="404.99,-83.5 410.01,-74.17 400.27,-78.33 404.99,-83.5"/>
</a>
</g>
</g>
<!-- Node17 -->
<g id="Node000017" class="node">
<title>Node17</title>
<g id="a_Node000017"><a xlink:href="../../d1/dce/pins__arduino_8h.xhtml" target="_top" xlink:title=" ">
<polygon fill="white" stroke="#666666" points="159.5,-74 71.5,-74 71.5,-55 159.5,-55 159.5,-74"/>
<text text-anchor="middle" x="115.5" y="-62" font-family="Helvetica,sans-Serif" font-size="10.00">pins_arduino.h</text>
</a>
</g>
</g>
<!-- Node8&#45;&gt;Node17 -->
<g id="edge19_Node000008_Node000017" class="edge">
<title>Node8&#45;&gt;Node17</title>
<g id="a_edge19_Node000008_Node000017"><a xlink:title=" ">
<path fill="none" stroke="#63b8ff" d="M329.84,-111.68C288.08,-102.68 214.13,-86.75 164.96,-76.16"/>
<polygon fill="#63b8ff" stroke="#63b8ff" points="165.68,-72.73 155.17,-74.05 164.21,-79.57 165.68,-72.73"/>
</a>
</g>
</g>
<!-- Node17&#45;&gt;Node13 -->
<g id="edge20_Node000017_Node000013" class="edge">
<title>Node17&#45;&gt;Node13</title>
<g id="a_edge20_Node000017_Node000013"><a xlink:title=" ">
<path fill="none" stroke="#63b8ff" d="M121.44,-54.75C126.48,-47.34 133.84,-36.5 140.01,-27.41"/>
<polygon fill="#63b8ff" stroke="#63b8ff" points="142.94,-29.33 145.67,-19.09 137.15,-25.39 142.94,-29.33"/>
</a>
</g>
</g>
<!-- Node18&#45;&gt;Node3 -->
<g id="edge24_Node000018_Node000003" class="edge">
<title>Node18&#45;&gt;Node3</title>
<g id="a_edge24_Node000018_Node000003"><a xlink:title=" ">
<path fill="none" stroke="#63b8ff" d="M486.52,-219.6C493.33,-206.2 503.26,-180.74 490.5,-165 443.87,-107.46 399.59,-142.91 322.33,-129.13"/>
<polygon fill="#63b8ff" stroke="#63b8ff" points="322.73,-125.64 312.23,-127.08 321.34,-132.5 322.73,-125.64"/>
</a>
</g>
</g>
<!-- Node18&#45;&gt;Node6 -->
<g id="edge23_Node000018_Node000006" class="edge">
<title>Node18&#45;&gt;Node6</title>
<g id="a_edge23_Node000018_Node000006"><a xlink:title=" ">
<path fill="none" stroke="#63b8ff" d="M476.88,-219.75C473.04,-212.49 467.48,-201.95 462.74,-192.98"/>
<polygon fill="#63b8ff" stroke="#63b8ff" points="465.8,-191.3 458.04,-184.09 459.61,-194.57 465.8,-191.3"/>
</a>
</g>
</g>
<!-- Node18&#45;&gt;Node12 -->
<g id="edge22_Node000018_Node000012" class="edge">
<title>Node18&#45;&gt;Node12</title>
<g id="a_edge22_Node000018_Node000012"><a xlink:title=" ">
<path fill="none" stroke="#63b8ff" d="M490.16,-219.74C516.04,-193.53 593.1,-115.51 626.63,-81.57"/>
<polygon fill="#63b8ff" stroke="#63b8ff" points="629.26,-83.88 633.8,-74.31 624.28,-78.96 629.26,-83.88"/>
</a>
</g>
</g>
</g>
</svg>

<g id="navigator" transform="translate(0 0)" fill="#404254">
  <rect fill="#f2f5e9" fill-opacity="0.5" stroke="#606060" stroke-width=".5" x="0" y="0" width="60" height="60"/>
  <use id="zoomplus" xlink:href="#zoomPlus" x="17" y="9" onmousedown="handleZoom(evt,'in')"/>
  <use id="zoomminus" xlink:href="#zoomMin" x="42" y="9" onmousedown="handleZoom(evt,'out')"/>
  <use id="reset" xlink:href="#resetDef" x="30" y="36" onmousedown="handleReset()"/>
   <use id="arrowup" xlink:href="#arrowUp" x="0" y="0" onmousedown="handlePan(0,-1)"/>
  <use id="arrowright" xlink:href="#arrowRight" x="0" y="0" onmousedown="handlePan(1,0)"/>
  <use id="arrowdown" xlink:href="#arrowDown" x="0" y="0" onmousedown="handlePan(0,1)"/>
  <use id="arrowleft" xlink:href="#arrowLeft" x="0" y="0" onmousedown="handlePan(-1,0)"/>
</g>
<svg viewBox="0 0 15 15" width="100%" height="30px" preserveAspectRatio="xMaxYMin meet">
 <g id="arrow_out" transform="scale(0.3 0.3)">
  <a xlink:href="FsDateTime_8cpp__incl_org.svg" target="_base">
   <rect id="button" ry="5" rx="5" y="6" x="6" height="38" width="38"
        fill="#f2f5e9" fill-opacity="0.5" stroke="#606060" stroke-width="1.0"/>
   <path id="arrow"
     d="M 11.500037,31.436501 C 11.940474,20.09759 22.043105,11.32322 32.158766,21.979434 L 37.068811,17.246167 C 37.068811,17.246167 37.088388,32 37.088388,32 L 22.160133,31.978069 C 22.160133,31.978069 26.997745,27.140456 26.997745,27.140456 C 18.528582,18.264221 13.291696,25.230495 11.500037,31.436501 z"
     style="fill:#404040;"/>
  </a>
 </g>
</svg>

<style type='text/css'>
<![CDATA[
[data-mouse-over-selected='false'] { opacity: 0.7; }
[data-mouse-over-selected='true']  { opacity: 1.0; }
]]>
</style>
<script type="application/ecmascript"><![CDATA[
document.addEventListener('DOMContentLoaded', (event) => {
  highlightEdges();
  highlightAdjacentNodes();
});
]]></script>
</svg>
