<?xml version="1.0" encoding="UTF-8" standalone="no"?>
<!DOCTYPE svg PUBLIC "-//W3C//DTD SVG 1.1//EN"
 "http://www.w3.org/Graphics/SVG/1.1/DTD/svg11.dtd">
<!-- Generated by graphviz version 2.43.0 (0)
 -->
<!-- Title: ExFatVolume.h Pages: 1 -->
<!--zoomable 742 -->

<svg id="main" version="1.1" xmlns="http://www.w3.org/2000/svg" xmlns:xlink="http://www.w3.org/1999/xlink" xml:space="preserve" onload="init(evt)">
<style type="text/css"><![CDATA[
.node, .edge {opacity: 0.7;}
.node.selected, .edge.selected {opacity: 1;}
.edge:hover path { stroke: red; }
.edge:hover polygon { stroke: red; fill: red; }
]]></style>

<defs>
  <circle id="rim" cx="0" cy="0" r="7"/>
  <circle id="rim2" cx="0" cy="0" r="3.5"/>
  <g id="zoomPlus">
    <use xlink:href="#rim" fill="#404040"><set attributeName="fill" to="#808080" begin="zoomplus.mouseover" end="zoomplus.mouseout"/></use>
    <path d="M-4,0h8M0,-4v8" fill="none" stroke="white" stroke-width="1.5" pointer-events="none"/>
  </g>
  <g id="zoomMin">
    <use xlink:href="#rim" fill="#404040"><set attributeName="fill" to="#808080" begin="zoomminus.mouseover" end="zoomminus.mouseout"/></use>
    <path d="M-4,0h8" fill="none" stroke="white" stroke-width="1.5" pointer-events="none"/>
  </g>
  <g id="arrowUp" transform="translate(30 24)">
    <use xlink:href="#rim"/>
    <path pointer-events="none" fill="none" stroke="white" stroke-width="1.5" d="M0,-3.0v7 M-2.5,-0.5L0,-3.0L2.5,-0.5"/>
  </g>
  <g id="arrowRight" transform="rotate(90) translate(36 -43)">
    <use xlink:href="#rim"/>
    <path pointer-events="none" fill="none" stroke="white" stroke-width="1.5" d="M0,-3.0v7 M-2.5,-0.5L0,-3.0L2.5,-0.5"/>
  </g>
  <g id="arrowDown" transform="rotate(180) translate(-30 -48)">
    <use xlink:href="#rim"/>
    <path pointer-events="none" fill="none" stroke="white" stroke-width="1.5" d="M0,-3.0v7 M-2.5,-0.5L0,-3.0L2.5,-0.5"/>
  </g>
  <g id="arrowLeft" transform="rotate(270) translate(-36 17)">
    <use xlink:href="#rim"/>
    <path pointer-events="none" fill="none" stroke="white" stroke-width="1.5" d="M0,-3.0v7 M-2.5,-0.5L0,-3.0L2.5,-0.5"/>
  </g>
  <g id="resetDef">
    <use xlink:href="#rim2" fill="#404040"><set attributeName="fill" to="#808080" begin="reset.mouseover" end="reset.mouseout"/></use>
  </g>
</defs>
<script type="application/ecmascript">
var viewWidth = 1238;
var viewHeight = 742;
var sectionId = 'dynsection-0';
</script>
<script type="application/ecmascript" xlink:href="../../svg.min.js"/>
<svg id="graph" class="graph">
<g id="viewport">
<title>ExFatVolume.h</title>
<!-- Node1 -->
<g id="Node000001" class="node">
<title>Node1</title>
<g id="a_Node000001"><a xlink:title=" ">
<polygon fill="#999999" stroke="#666666" points="805,-734 716,-734 716,-715 805,-715 805,-734"/>
<text text-anchor="middle" x="760.5" y="-722" font-family="Helvetica,sans-Serif" font-size="10.00">ExFatVolume.h</text>
</a>
</g>
</g>
<!-- Node2 -->
<g id="Node000002" class="node">
<title>Node2</title>
<g id="a_Node000002"><a xlink:href="../../d3/da9/ExFatFile_8h.xhtml" target="_top" xlink:title="ExFatFile class.">
<polygon fill="white" stroke="#666666" points="795,-679 726,-679 726,-660 795,-660 795,-679"/>
<text text-anchor="middle" x="760.5" y="-667" font-family="Helvetica,sans-Serif" font-size="10.00">ExFatFile.h</text>
</a>
</g>
</g>
<!-- Node1&#45;&gt;Node2 -->
<g id="edge1_Node000001_Node000002" class="edge">
<title>Node1&#45;&gt;Node2</title>
<g id="a_edge1_Node000001_Node000002"><a xlink:title=" ">
<path fill="none" stroke="#63b8ff" d="M760.5,-714.75C760.5,-707.8 760.5,-697.85 760.5,-689.13"/>
<polygon fill="#63b8ff" stroke="#63b8ff" points="764,-689.09 760.5,-679.09 757,-689.09 764,-689.09"/>
</a>
</g>
</g>
<!-- Node3 -->
<g id="Node000003" class="node">
<title>Node3</title>
<g id="a_Node000003"><a xlink:title=" ">
<polygon fill="#e0e0e0" stroke="#999999" points="53,-624 0,-624 0,-605 53,-605 53,-624"/>
<text text-anchor="middle" x="26.5" y="-612" font-family="Helvetica,sans-Serif" font-size="10.00">limits.h</text>
</a>
</g>
</g>
<!-- Node2&#45;&gt;Node3 -->
<g id="edge2_Node000002_Node000003" class="edge">
<title>Node2&#45;&gt;Node3</title>
<g id="a_edge2_Node000002_Node000003"><a xlink:title=" ">
<path fill="none" stroke="#63b8ff" d="M725.72,-667.99C623.99,-666.12 318.4,-657.89 67.5,-624 66.2,-623.82 64.89,-623.63 63.56,-623.43"/>
<polygon fill="#63b8ff" stroke="#63b8ff" points="63.77,-619.91 53.31,-621.62 62.55,-626.8 63.77,-619.91"/>
</a>
</g>
</g>
<!-- Node4 -->
<g id="Node000004" class="node">
<title>Node4</title>
<g id="a_Node000004"><a xlink:title=" ">
<polygon fill="#e0e0e0" stroke="#999999" points="176,-74 123,-74 123,-55 176,-55 176,-74"/>
<text text-anchor="middle" x="149.5" y="-62" font-family="Helvetica,sans-Serif" font-size="10.00">string.h</text>
</a>
</g>
</g>
<!-- Node2&#45;&gt;Node4 -->
<g id="edge3_Node000002_Node000004" class="edge">
<title>Node2&#45;&gt;Node4</title>
<g id="a_edge3_Node000002_Node000004"><a xlink:title=" ">
<path fill="none" stroke="#63b8ff" d="M725.93,-668.86C642.27,-669.01 422.75,-665.09 245.5,-624 169.36,-606.35 81.5,-638.66 81.5,-560.5 81.5,-560.5 81.5,-560.5 81.5,-173.5 81.5,-135.75 111.62,-100.41 131.77,-80.99"/>
<polygon fill="#63b8ff" stroke="#63b8ff" points="134.22,-83.5 139.17,-74.13 129.46,-78.36 134.22,-83.5"/>
</a>
</g>
</g>
<!-- Node5 -->
<g id="Node000005" class="node">
<title>Node5</title>
<g id="a_Node000005"><a xlink:href="../../d3/d4d/FmtNumber_8h.xhtml" target="_top" xlink:title=" ">
<polygon fill="white" stroke="#666666" points="247.5,-239 109.5,-239 109.5,-220 247.5,-220 247.5,-239"/>
<text text-anchor="middle" x="178.5" y="-227" font-family="Helvetica,sans-Serif" font-size="10.00">../common/FmtNumber.h</text>
</a>
</g>
</g>
<!-- Node2&#45;&gt;Node5 -->
<g id="edge4_Node000002_Node000005" class="edge">
<title>Node2&#45;&gt;Node5</title>
<g id="a_edge4_Node000002_Node000005"><a xlink:title=" ">
<path fill="none" stroke="#63b8ff" d="M725.74,-669.09C605.06,-670.2 211.5,-665.77 211.5,-560.5 211.5,-560.5 211.5,-560.5 211.5,-338.5 211.5,-305.63 197.34,-269.49 187.57,-248.46"/>
<polygon fill="#63b8ff" stroke="#63b8ff" points="190.59,-246.66 183.09,-239.18 184.29,-249.71 190.59,-246.66"/>
</a>
</g>
</g>
<!-- Node9 -->
<g id="Node000009" class="node">
<title>Node9</title>
<g id="a_Node000009"><a xlink:href="../../d9/d33/FsApiConstants_8h.xhtml" target="_top" xlink:title=" ">
<polygon fill="white" stroke="#666666" points="1008.5,-569 852.5,-569 852.5,-550 1008.5,-550 1008.5,-569"/>
<text text-anchor="middle" x="930.5" y="-557" font-family="Helvetica,sans-Serif" font-size="10.00">../common/FsApiConstants.h</text>
</a>
</g>
</g>
<!-- Node2&#45;&gt;Node9 -->
<g id="edge8_Node000002_Node000009" class="edge">
<title>Node2&#45;&gt;Node9</title>
<g id="a_edge8_Node000002_Node000009"><a xlink:title=" ">
<path fill="none" stroke="#63b8ff" d="M776.57,-659.86C792.51,-651.17 817.51,-637.19 838.5,-624 863.91,-608.02 892.21,-588.17 910.62,-574.96"/>
<polygon fill="#63b8ff" stroke="#63b8ff" points="912.74,-577.74 918.81,-569.05 908.65,-572.06 912.74,-577.74"/>
</a>
</g>
</g>
<!-- Node20 -->
<g id="Node000020" class="node">
<title>Node20</title>
<g id="a_Node000020"><a xlink:href="../../d9/d5f/FsDateTime_8h.xhtml" target="_top" xlink:title=" ">
<polygon fill="white" stroke="#666666" points="1090.5,-294 950.5,-294 950.5,-275 1090.5,-275 1090.5,-294"/>
<text text-anchor="middle" x="1020.5" y="-282" font-family="Helvetica,sans-Serif" font-size="10.00">../common/FsDateTime.h</text>
</a>
</g>
</g>
<!-- Node2&#45;&gt;Node20 -->
<g id="edge25_Node000002_Node000020" class="edge">
<title>Node2&#45;&gt;Node20</title>
<g id="a_edge25_Node000002_Node000020"><a xlink:title=" ">
<path fill="none" stroke="#63b8ff" d="M795.18,-662.49C869.3,-648.65 1036.5,-611.76 1036.5,-560.5 1036.5,-560.5 1036.5,-560.5 1036.5,-393.5 1036.5,-361.85 1029.69,-325.54 1024.96,-304.11"/>
<polygon fill="#63b8ff" stroke="#63b8ff" points="1028.31,-303.08 1022.66,-294.12 1021.49,-304.65 1028.31,-303.08"/>
</a>
</g>
</g>
<!-- Node22 -->
<g id="Node000022" class="node">
<title>Node22</title>
<g id="a_Node000022"><a xlink:href="../../de/d72/FsName_8h.xhtml" target="_top" xlink:title="FsName class.">
<polygon fill="white" stroke="#666666" points="1230,-294 1109,-294 1109,-275 1230,-275 1230,-294"/>
<text text-anchor="middle" x="1169.5" y="-282" font-family="Helvetica,sans-Serif" font-size="10.00">../common/FsName.h</text>
</a>
</g>
</g>
<!-- Node2&#45;&gt;Node22 -->
<g id="edge30_Node000002_Node000022" class="edge">
<title>Node2&#45;&gt;Node22</title>
<g id="a_edge30_Node000002_Node000022"><a xlink:title=" ">
<path fill="none" stroke="#63b8ff" d="M795.11,-665.59C885.47,-657.03 1121.5,-628.21 1121.5,-560.5 1121.5,-560.5 1121.5,-560.5 1121.5,-393.5 1121.5,-358.8 1142.44,-322.82 1156.66,-302.39"/>
<polygon fill="#63b8ff" stroke="#63b8ff" points="1159.59,-304.31 1162.62,-294.16 1153.92,-300.21 1159.59,-304.31"/>
</a>
</g>
</g>
<!-- Node23 -->
<g id="Node000023" class="node">
<title>Node23</title>
<g id="a_Node000023"><a xlink:href="../../d2/d24/ExFatPartition_8h.xhtml" target="_top" xlink:title="ExFatPartition include file.">
<polygon fill="white" stroke="#666666" points="743.5,-624 651.5,-624 651.5,-605 743.5,-605 743.5,-624"/>
<text text-anchor="middle" x="697.5" y="-612" font-family="Helvetica,sans-Serif" font-size="10.00">ExFatPartition.h</text>
</a>
</g>
</g>
<!-- Node2&#45;&gt;Node23 -->
<g id="edge33_Node000002_Node000023" class="edge">
<title>Node2&#45;&gt;Node23</title>
<g id="a_edge33_Node000002_Node000023"><a xlink:title=" ">
<path fill="none" stroke="#63b8ff" d="M750.38,-659.98C741.06,-652.15 727.03,-640.34 715.76,-630.86"/>
<polygon fill="#63b8ff" stroke="#63b8ff" points="717.71,-627.93 707.81,-624.17 713.21,-633.29 717.71,-627.93"/>
</a>
</g>
</g>
<!-- Node37 -->
<g id="Node000037" class="node">
<title>Node37</title>
<g id="a_Node000037"><a xlink:href="../../d8/db8/ArduinoFiles_8h.xhtml" target="_top" xlink:title=" ">
<polygon fill="white" stroke="#666666" points="954.5,-514 814.5,-514 814.5,-495 954.5,-495 954.5,-514"/>
<text text-anchor="middle" x="884.5" y="-502" font-family="Helvetica,sans-Serif" font-size="10.00">../common/ArduinoFiles.h</text>
</a>
</g>
</g>
<!-- Node2&#45;&gt;Node37 -->
<g id="edge62_Node000002_Node000037" class="edge">
<title>Node2&#45;&gt;Node37</title>
<g id="a_edge62_Node000002_Node000037"><a xlink:title=" ">
<path fill="none" stroke="#63b8ff" d="M765.96,-659.89C778.73,-639.95 811.84,-589.33 843.5,-550 851.49,-540.08 861.11,-529.57 869.02,-521.26"/>
<polygon fill="#63b8ff" stroke="#63b8ff" points="871.55,-523.68 875.97,-514.06 866.51,-518.82 871.55,-523.68"/>
</a>
</g>
</g>
<!-- Node6 -->
<g id="Node000006" class="node">
<title>Node6</title>
<g id="a_Node000006"><a xlink:title=" ">
<polygon fill="#e0e0e0" stroke="#999999" points="306,-74 255,-74 255,-55 306,-55 306,-74"/>
<text text-anchor="middle" x="280.5" y="-62" font-family="Helvetica,sans-Serif" font-size="10.00">math.h</text>
</a>
</g>
</g>
<!-- Node5&#45;&gt;Node6 -->
<g id="edge5_Node000005_Node000006" class="edge">
<title>Node5&#45;&gt;Node6</title>
<g id="a_edge5_Node000005_Node000006"><a xlink:title=" ">
<path fill="none" stroke="#63b8ff" d="M183.98,-219.74C200.17,-193.87 247.97,-117.48 269.62,-82.88"/>
<polygon fill="#63b8ff" stroke="#63b8ff" points="272.65,-84.64 274.99,-74.31 266.72,-80.93 272.65,-84.64"/>
</a>
</g>
</g>
<!-- Node7 -->
<g id="Node000007" class="node">
<title>Node7</title>
<g id="a_Node000007"><a xlink:title=" ">
<polygon fill="#e0e0e0" stroke="#999999" points="447.5,-184 391.5,-184 391.5,-165 447.5,-165 447.5,-184"/>
<text text-anchor="middle" x="419.5" y="-172" font-family="Helvetica,sans-Serif" font-size="10.00">stddef.h</text>
</a>
</g>
</g>
<!-- Node5&#45;&gt;Node7 -->
<g id="edge6_Node000005_Node000007" class="edge">
<title>Node5&#45;&gt;Node7</title>
<g id="a_edge6_Node000005_Node000007"><a xlink:title=" ">
<path fill="none" stroke="#63b8ff" d="M217.22,-219.98C262.4,-210.05 336.62,-193.73 381.49,-183.86"/>
<polygon fill="#63b8ff" stroke="#63b8ff" points="382.4,-187.24 391.42,-181.68 380.9,-180.41 382.4,-187.24"/>
</a>
</g>
</g>
<!-- Node8 -->
<g id="Node000008" class="node">
<title>Node8</title>
<g id="a_Node000008"><a xlink:title=" ">
<polygon fill="#e0e0e0" stroke="#999999" points="655,-129 602,-129 602,-110 655,-110 655,-129"/>
<text text-anchor="middle" x="628.5" y="-117" font-family="Helvetica,sans-Serif" font-size="10.00">stdint.h</text>
</a>
</g>
</g>
<!-- Node5&#45;&gt;Node8 -->
<g id="edge7_Node000005_Node000008" class="edge">
<title>Node5&#45;&gt;Node8</title>
<g id="a_edge7_Node000005_Node000008"><a xlink:title=" ">
<path fill="none" stroke="#63b8ff" d="M198.56,-219.94C230.99,-206.41 297.18,-180.08 355.5,-165 438.58,-143.52 538.69,-130.35 591.57,-124.35"/>
<polygon fill="#63b8ff" stroke="#63b8ff" points="592.26,-127.79 601.81,-123.21 591.49,-120.84 592.26,-127.79"/>
</a>
</g>
</g>
<!-- Node10 -->
<g id="Node000010" class="node">
<title>Node10</title>
<g id="a_Node000010"><a xlink:href="../../d0/d1b/SysCall_8h.xhtml" target="_top" xlink:title="SysCall class.">
<polygon fill="white" stroke="#666666" points="875.5,-239 813.5,-239 813.5,-220 875.5,-220 875.5,-239"/>
<text text-anchor="middle" x="844.5" y="-227" font-family="Helvetica,sans-Serif" font-size="10.00">SysCall.h</text>
</a>
</g>
</g>
<!-- Node9&#45;&gt;Node10 -->
<g id="edge9_Node000009_Node000010" class="edge">
<title>Node9&#45;&gt;Node10</title>
<g id="a_edge9_Node000009_Node000010"><a xlink:title=" ">
<path fill="none" stroke="#63b8ff" d="M939.52,-549.96C947.57,-541.66 958.79,-528.25 963.5,-514 966.15,-505.98 964.91,-503.33 963.5,-495 946.14,-392.87 940.35,-363.5 886.5,-275 879.97,-264.27 870.52,-253.96 862.23,-245.97"/>
<polygon fill="#63b8ff" stroke="#63b8ff" points="864.5,-243.3 854.78,-239.08 859.75,-248.44 864.5,-243.3"/>
</a>
</g>
</g>
<!-- Node10&#45;&gt;Node7 -->
<g id="edge10_Node000010_Node000007" class="edge">
<title>Node10&#45;&gt;Node7</title>
<g id="a_edge10_Node000010_Node000007"><a xlink:title=" ">
<path fill="none" stroke="#63b8ff" d="M813.11,-221.54C810.21,-220.98 807.3,-220.46 804.5,-220 678.18,-199.33 527,-184.8 457.66,-178.71"/>
<polygon fill="#63b8ff" stroke="#63b8ff" points="457.91,-175.22 447.64,-177.84 457.3,-182.19 457.91,-175.22"/>
</a>
</g>
</g>
<!-- Node10&#45;&gt;Node8 -->
<g id="edge11_Node000010_Node000008" class="edge">
<title>Node10&#45;&gt;Node8</title>
<g id="a_edge11_Node000010_Node000008"><a xlink:title=" ">
<path fill="none" stroke="#63b8ff" d="M813.19,-221.33C763.72,-209.9 672.45,-188.41 666.5,-184 651.22,-172.67 640.91,-153.2 634.92,-138.8"/>
<polygon fill="#63b8ff" stroke="#63b8ff" points="638.17,-137.49 631.32,-129.4 631.63,-139.99 638.17,-137.49"/>
</a>
</g>
</g>
<!-- Node11 -->
<g id="Node000011" class="node">
<title>Node11</title>
<g id="a_Node000011"><a xlink:href="../../d4/d1f/SdFatConfig_8h.xhtml" target="_top" xlink:title="configuration definitions">
<polygon fill="white" stroke="#666666" points="899.5,-184 807.5,-184 807.5,-165 899.5,-165 899.5,-184"/>
<text text-anchor="middle" x="853.5" y="-172" font-family="Helvetica,sans-Serif" font-size="10.00">../SdFatConfig.h</text>
</a>
</g>
</g>
<!-- Node10&#45;&gt;Node11 -->
<g id="edge12_Node000010_Node000011" class="edge">
<title>Node10&#45;&gt;Node11</title>
<g id="a_edge12_Node000010_Node000011"><a xlink:title=" ">
<path fill="none" stroke="#63b8ff" d="M845.99,-219.75C847.17,-212.8 848.86,-202.85 850.34,-194.13"/>
<polygon fill="#63b8ff" stroke="#63b8ff" points="853.82,-194.53 852.04,-184.09 846.92,-193.36 853.82,-194.53"/>
</a>
</g>
</g>
<!-- Node11&#45;&gt;Node8 -->
<g id="edge13_Node000011_Node000008" class="edge">
<title>Node11&#45;&gt;Node8</title>
<g id="a_edge13_Node000011_Node000008"><a xlink:title=" ">
<path fill="none" stroke="#63b8ff" d="M817.27,-164.98C781.23,-156.5 724.08,-143.05 665.1,-129.14"/>
<polygon fill="#63b8ff" stroke="#63b8ff" points="665.77,-125.7 655.24,-126.81 664.17,-132.52 665.77,-125.7"/>
</a>
</g>
</g>
<!-- Node12 -->
<g id="Node000012" class="node">
<title>Node12</title>
<g id="a_Node000012"><a xlink:href="../../de/df0/Arduino_8h.xhtml" target="_top" xlink:title=" ">
<polygon fill="white" stroke="#666666" points="736,-129 673,-129 673,-110 736,-110 736,-129"/>
<text text-anchor="middle" x="704.5" y="-117" font-family="Helvetica,sans-Serif" font-size="10.00">Arduino.h</text>
</a>
</g>
</g>
<!-- Node11&#45;&gt;Node12 -->
<g id="edge14_Node000011_Node000012" class="edge">
<title>Node11&#45;&gt;Node12</title>
<g id="a_edge14_Node000011_Node000012"><a xlink:title=" ">
<path fill="none" stroke="#63b8ff" d="M829.56,-164.98C804.94,-156.23 766.38,-142.51 738.58,-132.62"/>
<polygon fill="#63b8ff" stroke="#63b8ff" points="739.47,-129.22 728.88,-129.17 737.12,-135.82 739.47,-129.22"/>
</a>
</g>
</g>
<!-- Node12&#45;&gt;Node4 -->
<g id="edge17_Node000012_Node000004" class="edge">
<title>Node12&#45;&gt;Node4</title>
<g id="a_edge17_Node000012_Node000004"><a xlink:title=" ">
<path fill="none" stroke="#63b8ff" d="M672.69,-111.37C669.93,-110.86 667.17,-110.4 664.5,-110 479.62,-82.52 431.7,-90.24 245.5,-74 225.99,-72.3 204.26,-70.38 186.41,-68.79"/>
<polygon fill="#63b8ff" stroke="#63b8ff" points="186.67,-65.3 176.4,-67.9 186.05,-72.27 186.67,-65.3"/>
</a>
</g>
</g>
<!-- Node12&#45;&gt;Node6 -->
<g id="edge18_Node000012_Node000006" class="edge">
<title>Node12&#45;&gt;Node6</title>
<g id="a_edge18_Node000012_Node000006"><a xlink:title=" ">
<path fill="none" stroke="#63b8ff" d="M672.67,-111.46C669.92,-110.93 667.16,-110.44 664.5,-110 537.19,-89.14 384.57,-74.52 316.43,-68.53"/>
<polygon fill="#63b8ff" stroke="#63b8ff" points="316.5,-65.02 306.23,-67.64 315.89,-71.99 316.5,-65.02"/>
</a>
</g>
</g>
<!-- Node13 -->
<g id="Node000013" class="node">
<title>Node13</title>
<g id="a_Node000013"><a xlink:title=" ">
<polygon fill="#e0e0e0" stroke="#999999" points="842,-74 789,-74 789,-55 842,-55 842,-74"/>
<text text-anchor="middle" x="815.5" y="-62" font-family="Helvetica,sans-Serif" font-size="10.00">stdlib.h</text>
</a>
</g>
</g>
<!-- Node12&#45;&gt;Node13 -->
<g id="edge15_Node000012_Node000013" class="edge">
<title>Node12&#45;&gt;Node13</title>
<g id="a_edge15_Node000012_Node000013"><a xlink:title=" ">
<path fill="none" stroke="#63b8ff" d="M722.33,-109.98C740.11,-101.5 767.65,-88.35 788.18,-78.54"/>
<polygon fill="#63b8ff" stroke="#63b8ff" points="789.83,-81.64 797.34,-74.17 786.81,-75.32 789.83,-81.64"/>
</a>
</g>
</g>
<!-- Node14 -->
<g id="Node000014" class="node">
<title>Node14</title>
<g id="a_Node000014"><a xlink:title=" ">
<polygon fill="#e0e0e0" stroke="#999999" points="922.5,-74 860.5,-74 860.5,-55 922.5,-55 922.5,-74"/>
<text text-anchor="middle" x="891.5" y="-62" font-family="Helvetica,sans-Serif" font-size="10.00">stdbool.h</text>
</a>
</g>
</g>
<!-- Node12&#45;&gt;Node14 -->
<g id="edge16_Node000012_Node000014" class="edge">
<title>Node12&#45;&gt;Node14</title>
<g id="a_edge16_Node000012_Node000014"><a xlink:title=" ">
<path fill="none" stroke="#63b8ff" d="M734.54,-109.98C766.21,-101.01 816.27,-86.82 851.31,-76.89"/>
<polygon fill="#63b8ff" stroke="#63b8ff" points="852.55,-80.18 861.22,-74.08 850.64,-73.44 852.55,-80.18"/>
</a>
</g>
</g>
<!-- Node15 -->
<g id="Node000015" class="node">
<title>Node15</title>
<g id="a_Node000015"><a xlink:title=" ">
<polygon fill="#e0e0e0" stroke="#999999" points="647,-19 552,-19 552,0 647,0 647,-19"/>
<text text-anchor="middle" x="599.5" y="-7" font-family="Helvetica,sans-Serif" font-size="10.00">avr/pgmspace.h</text>
</a>
</g>
</g>
<!-- Node12&#45;&gt;Node15 -->
<g id="edge19_Node000012_Node000015" class="edge">
<title>Node12&#45;&gt;Node15</title>
<g id="a_edge19_Node000012_Node000015"><a xlink:title=" ">
<path fill="none" stroke="#63b8ff" d="M715.94,-109.93C731.28,-97.38 755.1,-73.51 741.5,-55 722.19,-28.72 687.4,-17.53 657.09,-12.95"/>
<polygon fill="#63b8ff" stroke="#63b8ff" points="657.38,-9.46 647.01,-11.64 656.47,-16.4 657.38,-9.46"/>
</a>
</g>
</g>
<!-- Node16 -->
<g id="Node000016" class="node">
<title>Node16</title>
<g id="a_Node000016"><a xlink:title=" ">
<polygon fill="#e0e0e0" stroke="#999999" points="554,-74 501,-74 501,-55 554,-55 554,-74"/>
<text text-anchor="middle" x="527.5" y="-62" font-family="Helvetica,sans-Serif" font-size="10.00">avr/io.h</text>
</a>
</g>
</g>
<!-- Node12&#45;&gt;Node16 -->
<g id="edge20_Node000012_Node000016" class="edge">
<title>Node12&#45;&gt;Node16</title>
<g id="a_edge20_Node000012_Node000016"><a xlink:title=" ">
<path fill="none" stroke="#63b8ff" d="M676.06,-109.98C645.6,-100.86 597.15,-86.36 563.92,-76.41"/>
<polygon fill="#63b8ff" stroke="#63b8ff" points="564.71,-72.99 554.13,-73.47 562.71,-79.7 564.71,-72.99"/>
</a>
</g>
</g>
<!-- Node17 -->
<g id="Node000017" class="node">
<title>Node17</title>
<g id="a_Node000017"><a xlink:title=" ">
<polygon fill="#e0e0e0" stroke="#999999" points="658.5,-74 572.5,-74 572.5,-55 658.5,-55 658.5,-74"/>
<text text-anchor="middle" x="615.5" y="-62" font-family="Helvetica,sans-Serif" font-size="10.00">avr/interrupt.h</text>
</a>
</g>
</g>
<!-- Node12&#45;&gt;Node17 -->
<g id="edge21_Node000012_Node000017" class="edge">
<title>Node12&#45;&gt;Node17</title>
<g id="a_edge21_Node000012_Node000017"><a xlink:title=" ">
<path fill="none" stroke="#63b8ff" d="M690.2,-109.98C676.4,-101.77 655.26,-89.18 638.99,-79.49"/>
<polygon fill="#63b8ff" stroke="#63b8ff" points="640.44,-76.28 630.06,-74.17 636.86,-82.29 640.44,-76.28"/>
</a>
</g>
</g>
<!-- Node18 -->
<g id="Node000018" class="node">
<title>Node18</title>
<g id="a_Node000018"><a xlink:href="../../d8/da4/binary_8h.xhtml" target="_top" xlink:title=" ">
<polygon fill="white" stroke="#666666" points="732,-74 677,-74 677,-55 732,-55 732,-74"/>
<text text-anchor="middle" x="704.5" y="-62" font-family="Helvetica,sans-Serif" font-size="10.00">binary.h</text>
</a>
</g>
</g>
<!-- Node12&#45;&gt;Node18 -->
<g id="edge22_Node000012_Node000018" class="edge">
<title>Node12&#45;&gt;Node18</title>
<g id="a_edge22_Node000012_Node000018"><a xlink:title=" ">
<path fill="none" stroke="#63b8ff" d="M704.5,-109.75C704.5,-102.8 704.5,-92.85 704.5,-84.13"/>
<polygon fill="#63b8ff" stroke="#63b8ff" points="708,-84.09 704.5,-74.09 701,-84.09 708,-84.09"/>
</a>
</g>
</g>
<!-- Node19 -->
<g id="Node000019" class="node">
<title>Node19</title>
<g id="a_Node000019"><a xlink:href="../../d1/dce/pins__arduino_8h.xhtml" target="_top" xlink:title=" ">
<polygon fill="white" stroke="#666666" points="483.5,-74 395.5,-74 395.5,-55 483.5,-55 483.5,-74"/>
<text text-anchor="middle" x="439.5" y="-62" font-family="Helvetica,sans-Serif" font-size="10.00">pins_arduino.h</text>
</a>
</g>
</g>
<!-- Node12&#45;&gt;Node19 -->
<g id="edge23_Node000012_Node000019" class="edge">
<title>Node12&#45;&gt;Node19</title>
<g id="a_edge23_Node000012_Node000019"><a xlink:title=" ">
<path fill="none" stroke="#63b8ff" d="M672.63,-111.69C669.88,-111.11 667.14,-110.54 664.5,-110 606.11,-98.02 539.09,-84.84 493.48,-75.95"/>
<polygon fill="#63b8ff" stroke="#63b8ff" points="494,-72.49 483.51,-74.01 492.66,-79.36 494,-72.49"/>
</a>
</g>
</g>
<!-- Node19&#45;&gt;Node15 -->
<g id="edge24_Node000019_Node000015" class="edge">
<title>Node19&#45;&gt;Node15</title>
<g id="a_edge24_Node000019_Node000015"><a xlink:title=" ">
<path fill="none" stroke="#63b8ff" d="M465.21,-54.98C491.95,-46.13 534.03,-32.19 563.95,-22.28"/>
<polygon fill="#63b8ff" stroke="#63b8ff" points="565.2,-25.55 573.59,-19.08 563,-18.9 565.2,-25.55"/>
</a>
</g>
</g>
<!-- Node20&#45;&gt;Node8 -->
<g id="edge26_Node000020_Node000008" class="edge">
<title>Node20&#45;&gt;Node8</title>
<g id="a_edge26_Node000020_Node000008"><a xlink:title=" ">
<path fill="none" stroke="#63b8ff" d="M1015.27,-274.79C1001.23,-252.25 960.22,-191.93 908.5,-165 814.12,-115.86 774.5,-147.62 665.27,-128.9"/>
<polygon fill="#63b8ff" stroke="#63b8ff" points="665.65,-125.42 655.18,-127.07 664.39,-132.3 665.65,-125.42"/>
</a>
</g>
</g>
<!-- Node20&#45;&gt;Node10 -->
<g id="edge29_Node000020_Node000010" class="edge">
<title>Node20&#45;&gt;Node10</title>
<g id="a_edge29_Node000020_Node000010"><a xlink:title=" ">
<path fill="none" stroke="#63b8ff" d="M992.22,-274.98C962.55,-266.05 915.71,-251.94 882.75,-242.02"/>
<polygon fill="#63b8ff" stroke="#63b8ff" points="883.58,-238.61 873,-239.08 881.57,-245.32 883.58,-238.61"/>
</a>
</g>
</g>
<!-- Node21 -->
<g id="Node000021" class="node">
<title>Node21</title>
<g id="a_Node000021"><a xlink:href="../../dd/ded/CompileDateTime_8h.xhtml" target="_top" xlink:title=" ">
<polygon fill="white" stroke="#666666" points="789.5,-184 675.5,-184 675.5,-165 789.5,-165 789.5,-184"/>
<text text-anchor="middle" x="732.5" y="-172" font-family="Helvetica,sans-Serif" font-size="10.00">CompileDateTime.h</text>
</a>
</g>
</g>
<!-- Node20&#45;&gt;Node21 -->
<g id="edge27_Node000020_Node000021" class="edge">
<title>Node20&#45;&gt;Node21</title>
<g id="a_edge27_Node000020_Node000021"><a xlink:title=" ">
<path fill="none" stroke="#63b8ff" d="M1004.1,-274.85C978.89,-261.77 928.87,-236.74 884.5,-220 849.02,-206.61 807.66,-194.73 777.04,-186.63"/>
<polygon fill="#63b8ff" stroke="#63b8ff" points="777.66,-183.17 767.1,-184.02 775.89,-189.94 777.66,-183.17"/>
</a>
</g>
</g>
<!-- Node21&#45;&gt;Node8 -->
<g id="edge28_Node000021_Node000008" class="edge">
<title>Node21&#45;&gt;Node8</title>
<g id="a_edge28_Node000021_Node000008"><a xlink:title=" ">
<path fill="none" stroke="#63b8ff" d="M715.79,-164.98C699.29,-156.57 673.8,-143.59 654.62,-133.81"/>
<polygon fill="#63b8ff" stroke="#63b8ff" points="656.01,-130.59 645.51,-129.17 652.83,-136.83 656.01,-130.59"/>
</a>
</g>
</g>
<!-- Node22&#45;&gt;Node8 -->
<g id="edge31_Node000022_Node000008" class="edge">
<title>Node22&#45;&gt;Node8</title>
<g id="a_edge31_Node000022_Node000008"><a xlink:title=" ">
<path fill="none" stroke="#63b8ff" d="M1156.46,-274.88C1122.02,-252.57 1025.11,-192.76 935.5,-165 822.5,-129.99 785.92,-149.87 665.17,-128.91"/>
<polygon fill="#63b8ff" stroke="#63b8ff" points="665.63,-125.43 655.17,-127.11 664.4,-132.32 665.63,-125.43"/>
</a>
</g>
</g>
<!-- Node22&#45;&gt;Node10 -->
<g id="edge32_Node000022_Node000010" class="edge">
<title>Node22&#45;&gt;Node10</title>
<g id="a_edge32_Node000022_Node000010"><a xlink:title=" ">
<path fill="none" stroke="#63b8ff" d="M1117.28,-274.98C1052.79,-264.47 944.42,-246.79 885.56,-237.2"/>
<polygon fill="#63b8ff" stroke="#63b8ff" points="885.94,-233.71 875.51,-235.56 884.81,-240.62 885.94,-233.71"/>
</a>
</g>
</g>
<!-- Node23&#45;&gt;Node10 -->
<g id="edge61_Node000023_Node000010" class="edge">
<title>Node23&#45;&gt;Node10</title>
<g id="a_edge61_Node000023_Node000010"><a xlink:title=" ">
<path fill="none" stroke="#63b8ff" d="M719.4,-604.95C735.12,-597.7 755.56,-585.78 767.5,-569 805.16,-516.06 834,-312.23 842.16,-249.19"/>
<polygon fill="#63b8ff" stroke="#63b8ff" points="845.65,-249.49 843.45,-239.13 838.71,-248.6 845.65,-249.49"/>
</a>
</g>
</g>
<!-- Node24 -->
<g id="Node000024" class="node">
<title>Node24</title>
<g id="a_Node000024"><a xlink:href="../../d8/d4c/FsBlockDevice_8h.xhtml" target="_top" xlink:title=" ">
<polygon fill="white" stroke="#666666" points="702.5,-514 550.5,-514 550.5,-495 702.5,-495 702.5,-514"/>
<text text-anchor="middle" x="626.5" y="-502" font-family="Helvetica,sans-Serif" font-size="10.00">../common/FsBlockDevice.h</text>
</a>
</g>
</g>
<!-- Node23&#45;&gt;Node24 -->
<g id="edge34_Node000023_Node000024" class="edge">
<title>Node23&#45;&gt;Node24</title>
<g id="a_edge34_Node000023_Node000024"><a xlink:title=" ">
<path fill="none" stroke="#63b8ff" d="M672.78,-604.91C656.79,-597.92 637.2,-586.34 627.5,-569 619.93,-555.47 620.37,-537.64 622.31,-524.32"/>
<polygon fill="#63b8ff" stroke="#63b8ff" points="625.77,-524.86 624.15,-514.39 618.89,-523.58 625.77,-524.86"/>
</a>
</g>
</g>
<!-- Node35 -->
<g id="Node000035" class="node">
<title>Node35</title>
<g id="a_Node000035"><a xlink:href="../../d2/df7/FsCache_8h.xhtml" target="_top" xlink:title="Common cache code for exFAT and FAT.">
<polygon fill="white" stroke="#666666" points="758.5,-569 636.5,-569 636.5,-550 758.5,-550 758.5,-569"/>
<text text-anchor="middle" x="697.5" y="-557" font-family="Helvetica,sans-Serif" font-size="10.00">../common/FsCache.h</text>
</a>
</g>
</g>
<!-- Node23&#45;&gt;Node35 -->
<g id="edge55_Node000023_Node000035" class="edge">
<title>Node23&#45;&gt;Node35</title>
<g id="a_edge55_Node000023_Node000035"><a xlink:title=" ">
<path fill="none" stroke="#63b8ff" d="M697.5,-604.75C697.5,-597.8 697.5,-587.85 697.5,-579.13"/>
<polygon fill="#63b8ff" stroke="#63b8ff" points="701,-579.09 697.5,-569.09 694,-579.09 701,-579.09"/>
</a>
</g>
</g>
<!-- Node36 -->
<g id="Node000036" class="node">
<title>Node36</title>
<g id="a_Node000036"><a xlink:href="../../dc/d87/FsStructs_8h.xhtml" target="_top" xlink:title=" ">
<polygon fill="white" stroke="#666666" points="391,-239 266,-239 266,-220 391,-220 391,-239"/>
<text text-anchor="middle" x="328.5" y="-227" font-family="Helvetica,sans-Serif" font-size="10.00">../common/FsStructs.h</text>
</a>
</g>
</g>
<!-- Node23&#45;&gt;Node36 -->
<g id="edge58_Node000023_Node000036" class="edge">
<title>Node23&#45;&gt;Node36</title>
<g id="a_edge58_Node000023_Node000036"><a xlink:title=" ">
<path fill="none" stroke="#63b8ff" d="M651.44,-611.16C543.93,-604.43 285.5,-580.46 285.5,-505.5 285.5,-505.5 285.5,-505.5 285.5,-338.5 285.5,-304.53 304.09,-268.53 316.83,-247.87"/>
<polygon fill="#63b8ff" stroke="#63b8ff" points="319.89,-249.58 322.34,-239.27 314,-245.8 319.89,-249.58"/>
</a>
</g>
</g>
<!-- Node25 -->
<g id="Node000025" class="node">
<title>Node25</title>
<g id="a_Node000025"><a xlink:href="../../d5/d77/SdCard_8h.xhtml" target="_top" xlink:title="Top level include for SPI and SDIO cards.">
<polygon fill="white" stroke="#666666" points="675.5,-459 577.5,-459 577.5,-440 675.5,-440 675.5,-459"/>
<text text-anchor="middle" x="626.5" y="-447" font-family="Helvetica,sans-Serif" font-size="10.00">SdCard/SdCard.h</text>
</a>
</g>
</g>
<!-- Node24&#45;&gt;Node25 -->
<g id="edge35_Node000024_Node000025" class="edge">
<title>Node24&#45;&gt;Node25</title>
<g id="a_edge35_Node000024_Node000025"><a xlink:title=" ">
<path fill="none" stroke="#63b8ff" d="M626.5,-494.75C626.5,-487.8 626.5,-477.85 626.5,-469.13"/>
<polygon fill="#63b8ff" stroke="#63b8ff" points="630,-469.09 626.5,-459.09 623,-469.09 630,-469.09"/>
</a>
</g>
</g>
<!-- Node26 -->
<g id="Node000026" class="node">
<title>Node26</title>
<g id="a_Node000026"><a xlink:href="../../d5/dc1/SdSpiCard_8h.xhtml" target="_top" xlink:title="Classes for SPI access to SD/SDHC cards.">
<polygon fill="white" stroke="#666666" points="610,-404 535,-404 535,-385 610,-385 610,-404"/>
<text text-anchor="middle" x="572.5" y="-392" font-family="Helvetica,sans-Serif" font-size="10.00">SdSpiCard.h</text>
</a>
</g>
</g>
<!-- Node25&#45;&gt;Node26 -->
<g id="edge36_Node000025_Node000026" class="edge">
<title>Node25&#45;&gt;Node26</title>
<g id="a_edge36_Node000025_Node000026"><a xlink:title=" ">
<path fill="none" stroke="#63b8ff" d="M617.58,-439.75C609.72,-432.03 598.07,-420.6 588.58,-411.28"/>
<polygon fill="#63b8ff" stroke="#63b8ff" points="590.84,-408.6 581.25,-404.09 585.94,-413.59 590.84,-408.6"/>
</a>
</g>
</g>
<!-- Node34 -->
<g id="Node000034" class="node">
<title>Node34</title>
<g id="a_Node000034"><a xlink:href="../../d9/d0a/SdioCard_8h.xhtml" target="_top" xlink:title="Classes for SDIO cards.">
<polygon fill="white" stroke="#666666" points="697,-404 628,-404 628,-385 697,-385 697,-404"/>
<text text-anchor="middle" x="662.5" y="-392" font-family="Helvetica,sans-Serif" font-size="10.00">SdioCard.h</text>
</a>
</g>
</g>
<!-- Node25&#45;&gt;Node34 -->
<g id="edge52_Node000025_Node000034" class="edge">
<title>Node25&#45;&gt;Node34</title>
<g id="a_edge52_Node000025_Node000034"><a xlink:title=" ">
<path fill="none" stroke="#63b8ff" d="M632.44,-439.75C637.48,-432.34 644.84,-421.5 651.01,-412.41"/>
<polygon fill="#63b8ff" stroke="#63b8ff" points="653.94,-414.33 656.67,-404.09 648.15,-410.39 653.94,-414.33"/>
</a>
</g>
</g>
<!-- Node26&#45;&gt;Node7 -->
<g id="edge37_Node000026_Node000007" class="edge">
<title>Node26&#45;&gt;Node7</title>
<g id="a_edge37_Node000026_Node000007"><a xlink:title=" ">
<path fill="none" stroke="#63b8ff" d="M534.96,-391.83C478.01,-386.9 373.26,-367.77 343.5,-294 340.34,-286.17 339.42,-282.4 343.5,-275 357.96,-248.76 382.39,-262.87 400.5,-239 410.39,-225.97 415.16,-207.82 417.44,-194.26"/>
<polygon fill="#63b8ff" stroke="#63b8ff" points="420.93,-194.55 418.83,-184.17 414,-193.6 420.93,-194.55"/>
</a>
</g>
</g>
<!-- Node26&#45;&gt;Node10 -->
<g id="edge43_Node000026_Node000010" class="edge">
<title>Node26&#45;&gt;Node10</title>
<g id="a_edge43_Node000026_Node000010"><a xlink:title=" ">
<path fill="none" stroke="#63b8ff" d="M606.92,-384.98C642.7,-375.72 695.9,-360.67 713.5,-349 749.5,-325.13 744.1,-303.56 776.5,-275 789.83,-263.25 806.5,-252.29 820,-244.19"/>
<polygon fill="#63b8ff" stroke="#63b8ff" points="821.9,-247.13 828.76,-239.06 818.36,-241.09 821.9,-247.13"/>
</a>
</g>
</g>
<!-- Node27 -->
<g id="Node000027" class="node">
<title>Node27</title>
<g id="a_Node000027"><a xlink:href="../../df/d48/SdSpiDriver_8h.xhtml" target="_top" xlink:title="SpiDriver classes.">
<polygon fill="white" stroke="#666666" points="544,-349 405,-349 405,-330 544,-330 544,-349"/>
<text text-anchor="middle" x="474.5" y="-337" font-family="Helvetica,sans-Serif" font-size="10.00">../SpiDriver/SdSpiDriver.h</text>
</a>
</g>
</g>
<!-- Node26&#45;&gt;Node27 -->
<g id="edge38_Node000026_Node000027" class="edge">
<title>Node26&#45;&gt;Node27</title>
<g id="a_edge38_Node000026_Node000027"><a xlink:title=" ">
<path fill="none" stroke="#63b8ff" d="M556.75,-384.98C541.27,-376.61 517.41,-363.7 499.36,-353.95"/>
<polygon fill="#63b8ff" stroke="#63b8ff" points="500.99,-350.85 490.53,-349.17 497.66,-357.01 500.99,-350.85"/>
</a>
</g>
</g>
<!-- Node31 -->
<g id="Node000031" class="node">
<title>Node31</title>
<g id="a_Node000031"><a xlink:href="../../d4/da0/SdCardInfo_8h.xhtml" target="_top" xlink:title="Definitions for SD cards.">
<polygon fill="white" stroke="#666666" points="666,-294 587,-294 587,-275 666,-275 666,-294"/>
<text text-anchor="middle" x="626.5" y="-282" font-family="Helvetica,sans-Serif" font-size="10.00">SdCardInfo.h</text>
</a>
</g>
</g>
<!-- Node26&#45;&gt;Node31 -->
<g id="edge44_Node000026_Node000031" class="edge">
<title>Node26&#45;&gt;Node31</title>
<g id="a_edge44_Node000026_Node000031"><a xlink:title=" ">
<path fill="none" stroke="#63b8ff" d="M574.01,-384.89C576.44,-372.31 581.96,-348.39 591.5,-330 596.81,-319.77 604.6,-309.57 611.48,-301.53"/>
<polygon fill="#63b8ff" stroke="#63b8ff" points="614.14,-303.8 618.18,-294.01 608.92,-299.14 614.14,-303.8"/>
</a>
</g>
</g>
<!-- Node32 -->
<g id="Node000032" class="node">
<title>Node32</title>
<g id="a_Node000032"><a xlink:href="../../dd/d48/SdCardInterface_8h.xhtml" target="_top" xlink:title="Abstract interface for an SD card.">
<polygon fill="white" stroke="#666666" points="704.5,-349 600.5,-349 600.5,-330 704.5,-330 704.5,-349"/>
<text text-anchor="middle" x="652.5" y="-337" font-family="Helvetica,sans-Serif" font-size="10.00">SdCardInterface.h</text>
</a>
</g>
</g>
<!-- Node26&#45;&gt;Node32 -->
<g id="edge47_Node000026_Node000032" class="edge">
<title>Node26&#45;&gt;Node32</title>
<g id="a_edge47_Node000026_Node000032"><a xlink:title=" ">
<path fill="none" stroke="#63b8ff" d="M585.35,-384.98C597.64,-376.84 616.41,-364.41 630.98,-354.76"/>
<polygon fill="#63b8ff" stroke="#63b8ff" points="633.01,-357.61 639.41,-349.17 629.14,-351.78 633.01,-357.61"/>
</a>
</g>
</g>
<!-- Node27&#45;&gt;Node10 -->
<g id="edge39_Node000027_Node000010" class="edge">
<title>Node27&#45;&gt;Node10</title>
<g id="a_edge39_Node000027_Node000010"><a xlink:title=" ">
<path fill="none" stroke="#63b8ff" d="M477.92,-329.75C483.96,-315.59 497.94,-287.92 519.5,-275 626.23,-211.03 676.06,-257.78 803.02,-239.03"/>
<polygon fill="#63b8ff" stroke="#63b8ff" points="803.78,-242.46 813.1,-237.43 802.68,-235.54 803.78,-242.46"/>
</a>
</g>
</g>
<!-- Node28 -->
<g id="Node000028" class="node">
<title>Node28</title>
<g id="a_Node000028"><a xlink:title=" ">
<polygon fill="#e0e0e0" stroke="#999999" points="569,-294 528,-294 528,-275 569,-275 569,-294"/>
<text text-anchor="middle" x="548.5" y="-282" font-family="Helvetica,sans-Serif" font-size="10.00">SPI.h</text>
</a>
</g>
</g>
<!-- Node27&#45;&gt;Node28 -->
<g id="edge40_Node000027_Node000028" class="edge">
<title>Node27&#45;&gt;Node28</title>
<g id="a_edge40_Node000027_Node000028"><a xlink:title=" ">
<path fill="none" stroke="#63b8ff" d="M486.39,-329.98C497.65,-321.92 514.79,-309.65 528.21,-300.03"/>
<polygon fill="#63b8ff" stroke="#63b8ff" points="530.3,-302.84 536.39,-294.17 526.23,-297.15 530.3,-302.84"/>
</a>
</g>
</g>
<!-- Node29 -->
<g id="Node000029" class="node">
<title>Node29</title>
<g id="a_Node000029"><a xlink:href="../../da/de9/SdSpiArduinoDriver_8h.xhtml" target="_top" xlink:title="SpiDriver classes for Arduino compatible systems.">
<polygon fill="white" stroke="#666666" points="471,-294 352,-294 352,-275 471,-275 471,-294"/>
<text text-anchor="middle" x="411.5" y="-282" font-family="Helvetica,sans-Serif" font-size="10.00">SdSpiArduinoDriver.h</text>
</a>
</g>
</g>
<!-- Node27&#45;&gt;Node29 -->
<g id="edge41_Node000027_Node000029" class="edge">
<title>Node27&#45;&gt;Node29</title>
<g id="a_edge41_Node000027_Node000029"><a xlink:title=" ">
<path fill="none" stroke="#63b8ff" d="M464.38,-329.98C455.06,-322.15 441.03,-310.34 429.76,-300.86"/>
<polygon fill="#63b8ff" stroke="#63b8ff" points="431.71,-297.93 421.81,-294.17 427.21,-303.29 431.71,-297.93"/>
</a>
</g>
</g>
<!-- Node30 -->
<g id="Node000030" class="node">
<title>Node30</title>
<g id="a_Node000030"><a xlink:href="../../db/d6a/SdSpiLibDriver_8h.xhtml" target="_top" xlink:title="Class using only simple SPI library functions.">
<polygon fill="white" stroke="#666666" points="543.5,-239 447.5,-239 447.5,-220 543.5,-220 543.5,-239"/>
<text text-anchor="middle" x="495.5" y="-227" font-family="Helvetica,sans-Serif" font-size="10.00">SdSpiLibDriver.h</text>
</a>
</g>
</g>
<!-- Node29&#45;&gt;Node30 -->
<g id="edge42_Node000029_Node000030" class="edge">
<title>Node29&#45;&gt;Node30</title>
<g id="a_edge42_Node000029_Node000030"><a xlink:title=" ">
<path fill="none" stroke="#63b8ff" d="M425,-274.98C437.9,-266.84 457.6,-254.41 472.9,-244.76"/>
<polygon fill="#63b8ff" stroke="#63b8ff" points="475.17,-247.47 481.76,-239.17 471.43,-241.55 475.17,-247.47"/>
</a>
</g>
</g>
<!-- Node31&#45;&gt;Node8 -->
<g id="edge45_Node000031_Node000008" class="edge">
<title>Node31&#45;&gt;Node8</title>
<g id="a_edge45_Node000031_Node000008"><a xlink:title=" ">
<path fill="none" stroke="#63b8ff" d="M616.34,-274.81C607.6,-266.6 595.6,-253.43 590.5,-239 577.83,-203.2 600.48,-160.69 615.91,-137.57"/>
<polygon fill="#63b8ff" stroke="#63b8ff" points="618.91,-139.38 621.77,-129.18 613.18,-135.38 618.91,-139.38"/>
</a>
</g>
</g>
<!-- Node31&#45;&gt;Node10 -->
<g id="edge46_Node000031_Node000010" class="edge">
<title>Node31&#45;&gt;Node10</title>
<g id="a_edge46_Node000031_Node000010"><a xlink:title=" ">
<path fill="none" stroke="#63b8ff" d="M661.53,-274.98C700.25,-265.57 762.56,-250.42 803.52,-240.46"/>
<polygon fill="#63b8ff" stroke="#63b8ff" points="804.55,-243.81 813.45,-238.05 802.9,-237.01 804.55,-243.81"/>
</a>
</g>
</g>
<!-- Node32&#45;&gt;Node31 -->
<g id="edge51_Node000032_Node000031" class="edge">
<title>Node32&#45;&gt;Node31</title>
<g id="a_edge51_Node000032_Node000031"><a xlink:title=" ">
<path fill="none" stroke="#63b8ff" d="M648.21,-329.75C644.69,-322.57 639.59,-312.18 635.22,-303.27"/>
<polygon fill="#63b8ff" stroke="#63b8ff" points="638.26,-301.53 630.71,-294.09 631.98,-304.61 638.26,-301.53"/>
</a>
</g>
</g>
<!-- Node33 -->
<g id="Node000033" class="node">
<title>Node33</title>
<g id="a_Node000033"><a xlink:href="../../dc/de5/FsBlockDeviceInterface_8h.xhtml" target="_top" xlink:title="FsBlockDeviceInterface include file.">
<polygon fill="white" stroke="#666666" points="795.5,-239 599.5,-239 599.5,-220 795.5,-220 795.5,-239"/>
<text text-anchor="middle" x="697.5" y="-227" font-family="Helvetica,sans-Serif" font-size="10.00">../common/FsBlockDeviceInterface.h</text>
</a>
</g>
</g>
<!-- Node32&#45;&gt;Node33 -->
<g id="edge48_Node000032_Node000033" class="edge">
<title>Node32&#45;&gt;Node33</title>
<g id="a_edge48_Node000032_Node000033"><a xlink:title=" ">
<path fill="none" stroke="#63b8ff" d="M657.46,-329.81C662.4,-320.97 670.01,-306.79 675.5,-294 681.83,-279.24 687.72,-261.99 691.8,-249.2"/>
<polygon fill="#63b8ff" stroke="#63b8ff" points="695.26,-249.87 694.9,-239.28 688.58,-247.78 695.26,-249.87"/>
</a>
</g>
</g>
<!-- Node33&#45;&gt;Node7 -->
<g id="edge49_Node000033_Node000007" class="edge">
<title>Node33&#45;&gt;Node7</title>
<g id="a_edge49_Node000033_Node000007"><a xlink:title=" ">
<path fill="none" stroke="#63b8ff" d="M652.83,-219.98C598.7,-209.66 508.42,-192.45 457.49,-182.74"/>
<polygon fill="#63b8ff" stroke="#63b8ff" points="458.02,-179.28 447.54,-180.85 456.71,-186.16 458.02,-179.28"/>
</a>
</g>
</g>
<!-- Node33&#45;&gt;Node8 -->
<g id="edge50_Node000033_Node000008" class="edge">
<title>Node33&#45;&gt;Node8</title>
<g id="a_edge50_Node000033_Node000008"><a xlink:title=" ">
<path fill="none" stroke="#63b8ff" d="M676.73,-219.95C661.97,-212.7 643.13,-200.79 633.5,-184 625.84,-170.65 625.03,-153.04 625.89,-139.75"/>
<polygon fill="#63b8ff" stroke="#63b8ff" points="629.41,-139.7 626.94,-129.4 622.45,-139 629.41,-139.7"/>
</a>
</g>
</g>
<!-- Node34&#45;&gt;Node10 -->
<g id="edge53_Node000034_Node000010" class="edge">
<title>Node34&#45;&gt;Node10</title>
<g id="a_edge53_Node000034_Node000010"><a xlink:title=" ">
<path fill="none" stroke="#63b8ff" d="M685.85,-384.92C703.91,-377.46 728.73,-365.27 746.5,-349 775.42,-322.53 768.96,-304.74 794.5,-275 803.63,-264.36 815.26,-253.87 825.01,-245.74"/>
<polygon fill="#63b8ff" stroke="#63b8ff" points="827.42,-248.29 832.98,-239.27 823.01,-242.86 827.42,-248.29"/>
</a>
</g>
</g>
<!-- Node34&#45;&gt;Node32 -->
<g id="edge54_Node000034_Node000032" class="edge">
<title>Node34&#45;&gt;Node32</title>
<g id="a_edge54_Node000034_Node000032"><a xlink:title=" ">
<path fill="none" stroke="#63b8ff" d="M660.85,-384.75C659.54,-377.8 657.66,-367.85 656.02,-359.13"/>
<polygon fill="#63b8ff" stroke="#63b8ff" points="659.41,-358.27 654.12,-349.09 652.54,-359.56 659.41,-358.27"/>
</a>
</g>
</g>
<!-- Node35&#45;&gt;Node10 -->
<g id="edge57_Node000035_Node000010" class="edge">
<title>Node35&#45;&gt;Node10</title>
<g id="a_edge57_Node000035_Node000010"><a xlink:title=" ">
<path fill="none" stroke="#63b8ff" d="M701.43,-549.73C721.12,-505.81 809.09,-309.52 836.39,-248.6"/>
<polygon fill="#63b8ff" stroke="#63b8ff" points="839.73,-249.7 840.62,-239.15 833.34,-246.84 839.73,-249.7"/>
</a>
</g>
</g>
<!-- Node35&#45;&gt;Node24 -->
<g id="edge56_Node000035_Node000024" class="edge">
<title>Node35&#45;&gt;Node24</title>
<g id="a_edge56_Node000035_Node000024"><a xlink:title=" ">
<path fill="none" stroke="#63b8ff" d="M686.09,-549.98C675.39,-542 659.16,-529.88 646.34,-520.31"/>
<polygon fill="#63b8ff" stroke="#63b8ff" points="648.22,-517.35 638.11,-514.17 644.03,-522.96 648.22,-517.35"/>
</a>
</g>
</g>
<!-- Node36&#45;&gt;Node7 -->
<g id="edge59_Node000036_Node000007" class="edge">
<title>Node36&#45;&gt;Node7</title>
<g id="a_edge59_Node000036_Node000007"><a xlink:title=" ">
<path fill="none" stroke="#63b8ff" d="M343.12,-219.98C357.36,-211.69 379.25,-198.94 395.95,-189.22"/>
<polygon fill="#63b8ff" stroke="#63b8ff" points="397.73,-192.23 404.61,-184.17 394.21,-186.18 397.73,-192.23"/>
</a>
</g>
</g>
<!-- Node36&#45;&gt;Node8 -->
<g id="edge60_Node000036_Node000008" class="edge">
<title>Node36&#45;&gt;Node8</title>
<g id="a_edge60_Node000036_Node000008"><a xlink:title=" ">
<path fill="none" stroke="#63b8ff" d="M333.17,-219.87C341.24,-205.87 359.17,-178.43 382.5,-165 449.04,-126.68 541.1,-120.07 591.63,-119.65"/>
<polygon fill="#63b8ff" stroke="#63b8ff" points="591.76,-123.15 601.75,-119.64 591.75,-116.15 591.76,-123.15"/>
</a>
</g>
</g>
<!-- Node37&#45;&gt;Node10 -->
<g id="edge63_Node000037_Node000010" class="edge">
<title>Node37&#45;&gt;Node10</title>
<g id="a_edge63_Node000037_Node000010"><a xlink:title=" ">
<path fill="none" stroke="#63b8ff" d="M884.5,-494.82C884.5,-476.48 884.5,-432.44 884.5,-395.5 884.5,-395.5 884.5,-395.5 884.5,-338.5 884.5,-304.67 867.03,-268.38 855.18,-247.66"/>
<polygon fill="#63b8ff" stroke="#63b8ff" points="858.18,-245.86 850.06,-239.06 852.16,-249.44 858.18,-245.86"/>
</a>
</g>
</g>
</g>
</svg>

<g id="navigator" transform="translate(0 0)" fill="#404254">
  <rect fill="#f2f5e9" fill-opacity="0.5" stroke="#606060" stroke-width=".5" x="0" y="0" width="60" height="60"/>
  <use id="zoomplus" xlink:href="#zoomPlus" x="17" y="9" onmousedown="handleZoom(evt,'in')"/>
  <use id="zoomminus" xlink:href="#zoomMin" x="42" y="9" onmousedown="handleZoom(evt,'out')"/>
  <use id="reset" xlink:href="#resetDef" x="30" y="36" onmousedown="handleReset()"/>
   <use id="arrowup" xlink:href="#arrowUp" x="0" y="0" onmousedown="handlePan(0,-1)"/>
  <use id="arrowright" xlink:href="#arrowRight" x="0" y="0" onmousedown="handlePan(1,0)"/>
  <use id="arrowdown" xlink:href="#arrowDown" x="0" y="0" onmousedown="handlePan(0,1)"/>
  <use id="arrowleft" xlink:href="#arrowLeft" x="0" y="0" onmousedown="handlePan(-1,0)"/>
</g>
<svg viewBox="0 0 15 15" width="100%" height="30px" preserveAspectRatio="xMaxYMin meet">
 <g id="arrow_out" transform="scale(0.3 0.3)">
  <a xlink:href="ExFatVolume_8h__incl_org.svg" target="_base">
   <rect id="button" ry="5" rx="5" y="6" x="6" height="38" width="38"
        fill="#f2f5e9" fill-opacity="0.5" stroke="#606060" stroke-width="1.0"/>
   <path id="arrow"
     d="M 11.500037,31.436501 C 11.940474,20.09759 22.043105,11.32322 32.158766,21.979434 L 37.068811,17.246167 C 37.068811,17.246167 37.088388,32 37.088388,32 L 22.160133,31.978069 C 22.160133,31.978069 26.997745,27.140456 26.997745,27.140456 C 18.528582,18.264221 13.291696,25.230495 11.500037,31.436501 z"
     style="fill:#404040;"/>
  </a>
 </g>
</svg>

<style type='text/css'>
<![CDATA[
[data-mouse-over-selected='false'] { opacity: 0.7; }
[data-mouse-over-selected='true']  { opacity: 1.0; }
]]>
</style>
<script type="application/ecmascript"><![CDATA[
document.addEventListener('DOMContentLoaded', (event) => {
  highlightEdges();
  highlightAdjacentNodes();
});
]]></script>
</svg>
