<?xml version="1.0" encoding="UTF-8" standalone="no"?>
<!DOCTYPE svg PUBLIC "-//W3C//DTD SVG 1.1//EN"
 "http://www.w3.org/Graphics/SVG/1.1/DTD/svg11.dtd">
<!-- Generated by graphviz version 2.43.0 (0)
 -->
<!-- Title: /mnt/d/Cours/10. CESI A2/Blocs/01 &#45; Systeme embarque/Livrables/Station_Meteo_Groupe_1 &#45; Copy/libs/SoftwareSerial/SoftwareSerial.cpp Pages: 1 -->
<svg width="842pt" height="401pt"
 viewBox="0.00 0.00 842.27 401.00" xmlns="http://www.w3.org/2000/svg" xmlns:xlink="http://www.w3.org/1999/xlink">
<g id="graph0" class="graph" transform="scale(1 1) rotate(0) translate(4 397)">
<title>/mnt/d/Cours/10. CESI A2/Blocs/01 &#45; Systeme embarque/Livrables/Station_Meteo_Groupe_1 &#45; Copy/libs/SoftwareSerial/SoftwareSerial.cpp</title>
<!-- Node1 -->
<g id="Node000001" class="node">
<title>Node1</title>
<g id="a_Node000001"><a xlink:title=" ">
<polygon fill="#999999" stroke="#666666" points="344.15,-393 160.15,-393 160.15,-330 344.15,-330 344.15,-393"/>
<text text-anchor="start" x="168.15" y="-381" font-family="Helvetica,sans-Serif" font-size="10.00">/mnt/d/Cours/10. CESI</text>
<text text-anchor="start" x="168.15" y="-370" font-family="Helvetica,sans-Serif" font-size="10.00"> A2/Blocs/01 &#45; Systeme</text>
<text text-anchor="start" x="168.15" y="-359" font-family="Helvetica,sans-Serif" font-size="10.00"> embarque/Livrables/Station</text>
<text text-anchor="start" x="168.15" y="-348" font-family="Helvetica,sans-Serif" font-size="10.00">_Meteo_Groupe_1 &#45; Copy/libs</text>
<text text-anchor="middle" x="252.15" y="-337" font-family="Helvetica,sans-Serif" font-size="10.00">/SoftwareSerial/SoftwareSerial.cpp</text>
</a>
</g>
</g>
<!-- Node2 -->
<g id="Node000002" class="node">
<title>Node2</title>
<g id="a_Node000002"><a xlink:title=" ">
<polygon fill="#e0e0e0" stroke="#999999" points="108.15,-239 22.15,-239 22.15,-220 108.15,-220 108.15,-239"/>
<text text-anchor="middle" x="65.15" y="-227" font-family="Helvetica,sans-Serif" font-size="10.00">avr/interrupt.h</text>
</a>
</g>
</g>
<!-- Node1&#45;&gt;Node2 -->
<g id="edge1_Node000001_Node000002" class="edge">
<title>Node1&#45;&gt;Node2</title>
<g id="a_edge1_Node000001_Node000002"><a xlink:title=" ">
<path fill="none" stroke="#63b8ff" d="M207.83,-329.69C169.27,-302.88 115.1,-265.22 85.84,-244.89"/>
<polygon fill="#63b8ff" stroke="#63b8ff" points="87.82,-242 77.61,-239.16 83.82,-247.75 87.82,-242"/>
</a>
</g>
</g>
<!-- Node3 -->
<g id="Node000003" class="node">
<title>Node3</title>
<g id="a_Node000003"><a xlink:title=" ">
<polygon fill="#e0e0e0" stroke="#999999" points="362.65,-184 267.65,-184 267.65,-165 362.65,-165 362.65,-184"/>
<text text-anchor="middle" x="315.15" y="-172" font-family="Helvetica,sans-Serif" font-size="10.00">avr/pgmspace.h</text>
</a>
</g>
</g>
<!-- Node1&#45;&gt;Node3 -->
<g id="edge2_Node000001_Node000003" class="edge">
<title>Node1&#45;&gt;Node3</title>
<g id="a_edge2_Node000001_Node000003"><a xlink:title=" ">
<path fill="none" stroke="#63b8ff" d="M160.14,-341.86C72.79,-320.1 -38.12,-279.38 13.15,-220 44.06,-184.2 178.67,-176.69 257.35,-175.42"/>
<polygon fill="#63b8ff" stroke="#63b8ff" points="257.65,-178.92 267.6,-175.29 257.55,-171.92 257.65,-178.92"/>
</a>
</g>
</g>
<!-- Node4 -->
<g id="Node000004" class="node">
<title>Node4</title>
<g id="a_Node000004"><a xlink:href="../../de/df0/Arduino_8h.xhtml" target="_top" xlink:title=" ">
<polygon fill="white" stroke="#666666" points="382.65,-294 319.65,-294 319.65,-275 382.65,-275 382.65,-294"/>
<text text-anchor="middle" x="351.15" y="-282" font-family="Helvetica,sans-Serif" font-size="10.00">Arduino.h</text>
</a>
</g>
</g>
<!-- Node1&#45;&gt;Node4 -->
<g id="edge3_Node000001_Node000004" class="edge">
<title>Node1&#45;&gt;Node4</title>
<g id="a_edge3_Node000001_Node000004"><a xlink:title=" ">
<path fill="none" stroke="#63b8ff" d="M292.42,-329.99C305.93,-319.75 320.4,-308.79 331.6,-300.31"/>
<polygon fill="#63b8ff" stroke="#63b8ff" points="333.93,-302.93 339.79,-294.1 329.71,-297.35 333.93,-302.93"/>
</a>
</g>
</g>
<!-- Node12 -->
<g id="Node000012" class="node">
<title>Node12</title>
<g id="a_Node000012"><a xlink:href="../../d1/de5/SoftwareSerial_8h.xhtml" target="_top" xlink:title=" ">
<polygon fill="white" stroke="#666666" points="771.15,-294 675.15,-294 675.15,-275 771.15,-275 771.15,-294"/>
<text text-anchor="middle" x="723.15" y="-282" font-family="Helvetica,sans-Serif" font-size="10.00">SoftwareSerial.h</text>
</a>
</g>
</g>
<!-- Node1&#45;&gt;Node12 -->
<g id="edge14_Node000001_Node000012" class="edge">
<title>Node1&#45;&gt;Node12</title>
<g id="a_edge14_Node000001_Node000012"><a xlink:title=" ">
<path fill="none" stroke="#63b8ff" d="M344.36,-345.82C439.51,-330.66 585.02,-307.5 665.17,-294.73"/>
<polygon fill="#63b8ff" stroke="#63b8ff" points="665.76,-298.18 675.08,-293.15 664.66,-291.27 665.76,-298.18"/>
</a>
</g>
</g>
<!-- Node4&#45;&gt;Node2 -->
<g id="edge10_Node000004_Node000002" class="edge">
<title>Node4&#45;&gt;Node2</title>
<g id="a_edge10_Node000004_Node000002"><a xlink:title=" ">
<path fill="none" stroke="#63b8ff" d="M319.45,-277.63C270.92,-268.63 177.63,-251.34 118.53,-240.39"/>
<polygon fill="#63b8ff" stroke="#63b8ff" points="119.11,-236.94 108.64,-238.56 117.83,-243.82 119.11,-236.94"/>
</a>
</g>
</g>
<!-- Node4&#45;&gt;Node3 -->
<g id="edge8_Node000004_Node000003" class="edge">
<title>Node4&#45;&gt;Node3</title>
<g id="a_edge8_Node000004_Node000003"><a xlink:title=" ">
<path fill="none" stroke="#63b8ff" d="M357.05,-274.96C364.9,-262.45 376.83,-238.62 368.15,-220 362.32,-207.49 351.05,-197.25 340.4,-189.76"/>
<polygon fill="#63b8ff" stroke="#63b8ff" points="342.03,-186.64 331.73,-184.13 338.21,-192.51 342.03,-186.64"/>
</a>
</g>
</g>
<!-- Node5 -->
<g id="Node000005" class="node">
<title>Node5</title>
<g id="a_Node000005"><a xlink:title=" ">
<polygon fill="#e0e0e0" stroke="#999999" points="543.65,-19 490.65,-19 490.65,0 543.65,0 543.65,-19"/>
<text text-anchor="middle" x="517.15" y="-7" font-family="Helvetica,sans-Serif" font-size="10.00">stdlib.h</text>
</a>
</g>
</g>
<!-- Node4&#45;&gt;Node5 -->
<g id="edge4_Node000004_Node000005" class="edge">
<title>Node4&#45;&gt;Node5</title>
<g id="a_edge4_Node000004_Node000005"><a xlink:title=" ">
<path fill="none" stroke="#63b8ff" d="M362.71,-274.81C383.52,-258.07 425.15,-219.14 425.15,-175.5 425.15,-175.5 425.15,-175.5 425.15,-118.5 425.15,-76.45 466.05,-42.46 493.31,-24.48"/>
<polygon fill="#63b8ff" stroke="#63b8ff" points="495.38,-27.31 501.96,-19 491.64,-21.4 495.38,-27.31"/>
</a>
</g>
</g>
<!-- Node6 -->
<g id="Node000006" class="node">
<title>Node6</title>
<g id="a_Node000006"><a xlink:title=" ">
<polygon fill="#e0e0e0" stroke="#999999" points="515.15,-239 453.15,-239 453.15,-220 515.15,-220 515.15,-239"/>
<text text-anchor="middle" x="484.15" y="-227" font-family="Helvetica,sans-Serif" font-size="10.00">stdbool.h</text>
</a>
</g>
</g>
<!-- Node4&#45;&gt;Node6 -->
<g id="edge5_Node000004_Node000006" class="edge">
<title>Node4&#45;&gt;Node6</title>
<g id="a_edge5_Node000004_Node000006"><a xlink:title=" ">
<path fill="none" stroke="#63b8ff" d="M372.52,-274.98C394.3,-266.3 428.31,-252.75 453.07,-242.88"/>
<polygon fill="#63b8ff" stroke="#63b8ff" points="454.4,-246.12 462.39,-239.17 451.81,-239.62 454.4,-246.12"/>
</a>
</g>
</g>
<!-- Node7 -->
<g id="Node000007" class="node">
<title>Node7</title>
<g id="a_Node000007"><a xlink:title=" ">
<polygon fill="#e0e0e0" stroke="#999999" points="586.65,-239 533.65,-239 533.65,-220 586.65,-220 586.65,-239"/>
<text text-anchor="middle" x="560.15" y="-227" font-family="Helvetica,sans-Serif" font-size="10.00">string.h</text>
</a>
</g>
</g>
<!-- Node4&#45;&gt;Node7 -->
<g id="edge6_Node000004_Node000007" class="edge">
<title>Node4&#45;&gt;Node7</title>
<g id="a_edge6_Node000004_Node000007"><a xlink:title=" ">
<path fill="none" stroke="#63b8ff" d="M382.89,-275.45C420.71,-265.86 483.76,-249.87 523.59,-239.77"/>
<polygon fill="#63b8ff" stroke="#63b8ff" points="524.59,-243.13 533.43,-237.28 522.87,-236.34 524.59,-243.13"/>
</a>
</g>
</g>
<!-- Node8 -->
<g id="Node000008" class="node">
<title>Node8</title>
<g id="a_Node000008"><a xlink:title=" ">
<polygon fill="#e0e0e0" stroke="#999999" points="655.65,-239 604.65,-239 604.65,-220 655.65,-220 655.65,-239"/>
<text text-anchor="middle" x="630.15" y="-227" font-family="Helvetica,sans-Serif" font-size="10.00">math.h</text>
</a>
</g>
</g>
<!-- Node4&#45;&gt;Node8 -->
<g id="edge7_Node000004_Node000008" class="edge">
<title>Node4&#45;&gt;Node8</title>
<g id="a_edge7_Node000004_Node000008"><a xlink:title=" ">
<path fill="none" stroke="#63b8ff" d="M382.85,-278.32C427.68,-270.87 512.38,-256.3 594.57,-239.01"/>
<polygon fill="#63b8ff" stroke="#63b8ff" points="595.52,-242.39 604.57,-236.89 594.06,-235.54 595.52,-242.39"/>
</a>
</g>
</g>
<!-- Node9 -->
<g id="Node000009" class="node">
<title>Node9</title>
<g id="a_Node000009"><a xlink:title=" ">
<polygon fill="#e0e0e0" stroke="#999999" points="179.65,-239 126.65,-239 126.65,-220 179.65,-220 179.65,-239"/>
<text text-anchor="middle" x="153.15" y="-227" font-family="Helvetica,sans-Serif" font-size="10.00">avr/io.h</text>
</a>
</g>
</g>
<!-- Node4&#45;&gt;Node9 -->
<g id="edge9_Node000004_Node000009" class="edge">
<title>Node4&#45;&gt;Node9</title>
<g id="a_edge9_Node000004_Node000009"><a xlink:title=" ">
<path fill="none" stroke="#63b8ff" d="M319.34,-274.98C283.96,-265.52 226.92,-250.25 189.73,-240.29"/>
<polygon fill="#63b8ff" stroke="#63b8ff" points="190.37,-236.84 179.8,-237.63 188.56,-243.6 190.37,-236.84"/>
</a>
</g>
</g>
<!-- Node10 -->
<g id="Node000010" class="node">
<title>Node10</title>
<g id="a_Node000010"><a xlink:href="../../d8/da4/binary_8h.xhtml" target="_top" xlink:title=" ">
<polygon fill="white" stroke="#666666" points="252.65,-239 197.65,-239 197.65,-220 252.65,-220 252.65,-239"/>
<text text-anchor="middle" x="225.15" y="-227" font-family="Helvetica,sans-Serif" font-size="10.00">binary.h</text>
</a>
</g>
</g>
<!-- Node4&#45;&gt;Node10 -->
<g id="edge11_Node000004_Node000010" class="edge">
<title>Node4&#45;&gt;Node10</title>
<g id="a_edge11_Node000004_Node000010"><a xlink:title=" ">
<path fill="none" stroke="#63b8ff" d="M330.9,-274.98C310.45,-266.38 278.62,-252.99 255.22,-243.15"/>
<polygon fill="#63b8ff" stroke="#63b8ff" points="256.34,-239.82 245.76,-239.17 253.62,-246.27 256.34,-239.82"/>
</a>
</g>
</g>
<!-- Node11 -->
<g id="Node000011" class="node">
<title>Node11</title>
<g id="a_Node000011"><a xlink:href="../../d1/dce/pins__arduino_8h.xhtml" target="_top" xlink:title=" ">
<polygon fill="white" stroke="#666666" points="359.15,-239 271.15,-239 271.15,-220 359.15,-220 359.15,-239"/>
<text text-anchor="middle" x="315.15" y="-227" font-family="Helvetica,sans-Serif" font-size="10.00">pins_arduino.h</text>
</a>
</g>
</g>
<!-- Node4&#45;&gt;Node11 -->
<g id="edge12_Node000004_Node000011" class="edge">
<title>Node4&#45;&gt;Node11</title>
<g id="a_edge12_Node000004_Node000011"><a xlink:title=" ">
<path fill="none" stroke="#63b8ff" d="M345.2,-274.75C340.17,-267.34 332.81,-256.5 326.63,-247.41"/>
<polygon fill="#63b8ff" stroke="#63b8ff" points="329.5,-245.39 320.98,-239.09 323.71,-249.33 329.5,-245.39"/>
</a>
</g>
</g>
<!-- Node11&#45;&gt;Node3 -->
<g id="edge13_Node000011_Node000003" class="edge">
<title>Node11&#45;&gt;Node3</title>
<g id="a_edge13_Node000011_Node000003"><a xlink:title=" ">
<path fill="none" stroke="#63b8ff" d="M315.15,-219.75C315.15,-212.8 315.15,-202.85 315.15,-194.13"/>
<polygon fill="#63b8ff" stroke="#63b8ff" points="318.65,-194.09 315.15,-184.09 311.65,-194.09 318.65,-194.09"/>
</a>
</g>
</g>
<!-- Node13 -->
<g id="Node000013" class="node">
<title>Node13</title>
<g id="a_Node000013"><a xlink:title=" ">
<polygon fill="#e0e0e0" stroke="#999999" points="792.65,-74 727.65,-74 727.65,-55 792.65,-55 792.65,-74"/>
<text text-anchor="middle" x="760.15" y="-62" font-family="Helvetica,sans-Serif" font-size="10.00">inttypes.h</text>
</a>
</g>
</g>
<!-- Node12&#45;&gt;Node13 -->
<g id="edge15_Node000012_Node000013" class="edge">
<title>Node12&#45;&gt;Node13</title>
<g id="a_edge15_Node000012_Node000013"><a xlink:title=" ">
<path fill="none" stroke="#63b8ff" d="M768.61,-274.96C788.92,-268.64 810.99,-257.72 823.15,-239 857.12,-186.7 803.03,-113.65 775.14,-81.62"/>
<polygon fill="#63b8ff" stroke="#63b8ff" points="777.65,-79.18 768.37,-74.07 772.44,-83.85 777.65,-79.18"/>
</a>
</g>
</g>
<!-- Node14 -->
<g id="Node000014" class="node">
<title>Node14</title>
<g id="a_Node000014"><a xlink:href="../../de/dd1/Stream_8h.xhtml" target="_top" xlink:title=" ">
<polygon fill="white" stroke="#666666" points="724.65,-184 663.65,-184 663.65,-165 724.65,-165 724.65,-184"/>
<text text-anchor="middle" x="694.15" y="-172" font-family="Helvetica,sans-Serif" font-size="10.00">Stream.h</text>
</a>
</g>
</g>
<!-- Node12&#45;&gt;Node14 -->
<g id="edge16_Node000012_Node000014" class="edge">
<title>Node12&#45;&gt;Node14</title>
<g id="a_edge16_Node000012_Node000014"><a xlink:title=" ">
<path fill="none" stroke="#63b8ff" d="M718.41,-274.91C713.79,-266.15 706.91,-252.02 703.15,-239 698.93,-224.42 696.65,-207.37 695.45,-194.61"/>
<polygon fill="#63b8ff" stroke="#63b8ff" points="698.91,-193.98 694.61,-184.29 691.93,-194.54 698.91,-193.98"/>
</a>
</g>
</g>
<!-- Node19 -->
<g id="Node000019" class="node">
<title>Node19</title>
<g id="a_Node000019"><a xlink:href="../../d7/d96/HardwareSerial_8h.xhtml" target="_top" xlink:title=" ">
<polygon fill="white" stroke="#666666" points="813.65,-239 712.65,-239 712.65,-220 813.65,-220 813.65,-239"/>
<text text-anchor="middle" x="763.15" y="-227" font-family="Helvetica,sans-Serif" font-size="10.00">HardwareSerial.h</text>
</a>
</g>
</g>
<!-- Node12&#45;&gt;Node19 -->
<g id="edge24_Node000012_Node000019" class="edge">
<title>Node12&#45;&gt;Node19</title>
<g id="a_edge24_Node000012_Node000019"><a xlink:title=" ">
<path fill="none" stroke="#63b8ff" d="M729.75,-274.75C735.4,-267.26 743.69,-256.28 750.6,-247.13"/>
<polygon fill="#63b8ff" stroke="#63b8ff" points="753.44,-249.18 756.67,-239.09 747.85,-244.96 753.44,-249.18"/>
</a>
</g>
</g>
<!-- Node14&#45;&gt;Node13 -->
<g id="edge17_Node000014_Node000013" class="edge">
<title>Node14&#45;&gt;Node13</title>
<g id="a_edge17_Node000014_Node000013"><a xlink:title=" ">
<path fill="none" stroke="#63b8ff" d="M699.55,-164.66C710.48,-146.77 735.4,-106 749.64,-82.69"/>
<polygon fill="#63b8ff" stroke="#63b8ff" points="752.63,-84.52 754.86,-74.16 746.66,-80.87 752.63,-84.52"/>
</a>
</g>
</g>
<!-- Node15 -->
<g id="Node000015" class="node">
<title>Node15</title>
<g id="a_Node000015"><a xlink:href="../../d8/d19/Print_8h.xhtml" target="_top" xlink:title=" ">
<polygon fill="white" stroke="#666666" points="697.15,-129 649.15,-129 649.15,-110 697.15,-110 697.15,-129"/>
<text text-anchor="middle" x="673.15" y="-117" font-family="Helvetica,sans-Serif" font-size="10.00">Print.h</text>
</a>
</g>
</g>
<!-- Node14&#45;&gt;Node15 -->
<g id="edge18_Node000014_Node000015" class="edge">
<title>Node14&#45;&gt;Node15</title>
<g id="a_edge18_Node000014_Node000015"><a xlink:title=" ">
<path fill="none" stroke="#63b8ff" d="M690.68,-164.75C687.87,-157.65 683.81,-147.4 680.3,-138.56"/>
<polygon fill="#63b8ff" stroke="#63b8ff" points="683.49,-137.1 676.55,-129.09 676.98,-139.68 683.49,-137.1"/>
</a>
</g>
</g>
<!-- Node15&#45;&gt;Node13 -->
<g id="edge19_Node000015_Node000013" class="edge">
<title>Node15&#45;&gt;Node13</title>
<g id="a_edge19_Node000015_Node000013"><a xlink:title=" ">
<path fill="none" stroke="#63b8ff" d="M687.13,-109.98C700.62,-101.77 721.28,-89.18 737.19,-79.49"/>
<polygon fill="#63b8ff" stroke="#63b8ff" points="739.2,-82.36 745.92,-74.17 735.56,-76.38 739.2,-82.36"/>
</a>
</g>
</g>
<!-- Node16 -->
<g id="Node000016" class="node">
<title>Node16</title>
<g id="a_Node000016"><a xlink:title=" ">
<polygon fill="#e0e0e0" stroke="#999999" points="702.15,-74 652.15,-74 652.15,-55 702.15,-55 702.15,-74"/>
<text text-anchor="middle" x="677.15" y="-62" font-family="Helvetica,sans-Serif" font-size="10.00">stdio.h</text>
</a>
</g>
</g>
<!-- Node15&#45;&gt;Node16 -->
<g id="edge20_Node000015_Node000016" class="edge">
<title>Node15&#45;&gt;Node16</title>
<g id="a_edge20_Node000015_Node000016"><a xlink:title=" ">
<path fill="none" stroke="#63b8ff" d="M673.81,-109.75C674.33,-102.8 675.08,-92.85 675.74,-84.13"/>
<polygon fill="#63b8ff" stroke="#63b8ff" points="679.24,-84.32 676.5,-74.09 672.26,-83.8 679.24,-84.32"/>
</a>
</g>
</g>
<!-- Node17 -->
<g id="Node000017" class="node">
<title>Node17</title>
<g id="a_Node000017"><a xlink:href="../../db/d8b/WString_8h.xhtml" target="_top" xlink:title=" ">
<polygon fill="white" stroke="#666666" points="546.15,-74 482.15,-74 482.15,-55 546.15,-55 546.15,-74"/>
<text text-anchor="middle" x="514.15" y="-62" font-family="Helvetica,sans-Serif" font-size="10.00">WString.h</text>
</a>
</g>
</g>
<!-- Node15&#45;&gt;Node17 -->
<g id="edge21_Node000015_Node000017" class="edge">
<title>Node15&#45;&gt;Node17</title>
<g id="a_edge21_Node000015_Node000017"><a xlink:title=" ">
<path fill="none" stroke="#63b8ff" d="M649,-110.45C622.54,-101.63 579.84,-87.4 549.59,-77.31"/>
<polygon fill="#63b8ff" stroke="#63b8ff" points="550.44,-73.91 539.85,-74.07 548.23,-80.55 550.44,-73.91"/>
</a>
</g>
</g>
<!-- Node18 -->
<g id="Node000018" class="node">
<title>Node18</title>
<g id="a_Node000018"><a xlink:href="../../d2/df2/Printable_8h.xhtml" target="_top" xlink:title=" ">
<polygon fill="white" stroke="#666666" points="633.65,-74 564.65,-74 564.65,-55 633.65,-55 633.65,-74"/>
<text text-anchor="middle" x="599.15" y="-62" font-family="Helvetica,sans-Serif" font-size="10.00">Printable.h</text>
</a>
</g>
</g>
<!-- Node15&#45;&gt;Node18 -->
<g id="edge22_Node000015_Node000018" class="edge">
<title>Node15&#45;&gt;Node18</title>
<g id="a_edge22_Node000015_Node000018"><a xlink:title=" ">
<path fill="none" stroke="#63b8ff" d="M661.26,-109.98C650,-101.92 632.86,-89.65 619.44,-80.03"/>
<polygon fill="#63b8ff" stroke="#63b8ff" points="621.42,-77.15 611.25,-74.17 617.35,-82.84 621.42,-77.15"/>
</a>
</g>
</g>
<!-- Node18&#45;&gt;Node5 -->
<g id="edge23_Node000018_Node000005" class="edge">
<title>Node18&#45;&gt;Node5</title>
<g id="a_edge23_Node000018_Node000005"><a xlink:title=" ">
<path fill="none" stroke="#63b8ff" d="M585.97,-54.98C573.38,-46.84 554.14,-34.41 539.21,-24.76"/>
<polygon fill="#63b8ff" stroke="#63b8ff" points="540.86,-21.66 530.56,-19.17 537.06,-27.54 540.86,-21.66"/>
</a>
</g>
</g>
<!-- Node19&#45;&gt;Node13 -->
<g id="edge25_Node000019_Node000013" class="edge">
<title>Node19&#45;&gt;Node13</title>
<g id="a_edge25_Node000019_Node000013"><a xlink:title=" ">
<path fill="none" stroke="#63b8ff" d="M762.99,-219.74C762.52,-194.31 761.15,-120.08 760.5,-84.69"/>
<polygon fill="#63b8ff" stroke="#63b8ff" points="763.99,-84.24 760.31,-74.31 757,-84.37 763.99,-84.24"/>
</a>
</g>
</g>
<!-- Node19&#45;&gt;Node14 -->
<g id="edge26_Node000019_Node000014" class="edge">
<title>Node19&#45;&gt;Node14</title>
<g id="a_edge26_Node000019_Node000014"><a xlink:title=" ">
<path fill="none" stroke="#63b8ff" d="M752.06,-219.98C741.66,-212 725.89,-199.88 713.43,-190.31"/>
<polygon fill="#63b8ff" stroke="#63b8ff" points="715.5,-187.49 705.44,-184.17 711.23,-193.04 715.5,-187.49"/>
</a>
</g>
</g>
</g>
</svg>
