<?xml version="1.0" encoding="UTF-8" standalone="no"?>
<!DOCTYPE svg PUBLIC "-//W3C//DTD SVG 1.1//EN"
 "http://www.w3.org/Graphics/SVG/1.1/DTD/svg11.dtd">
<!-- Generated by graphviz version 2.43.0 (0)
 -->
<!-- Title: printExFatBoot Pages: 1 -->
<svg width="203pt" height="175pt"
 viewBox="0.00 0.00 203.00 175.00" xmlns="http://www.w3.org/2000/svg" xmlns:xlink="http://www.w3.org/1999/xlink">

<svg id="main" version="1.1" xmlns="http://www.w3.org/2000/svg" xmlns:xlink="http://www.w3.org/1999/xlink" xml:space="preserve" onload="init(evt)">
<style type="text/css"><![CDATA[
.node, .edge {opacity: 0.7;}
.node.selected, .edge.selected {opacity: 1;}
.edge:hover path { stroke: red; }
.edge:hover polygon { stroke: red; fill: red; }
]]></style>
<script type="application/ecmascript" xlink:href="../../svg.min.js"/>
<svg id="graph" class="graph">
<g id="graph0" class="graph" transform="scale(1 1) rotate(0) translate(4 171)">
<title>printExFatBoot</title>
<!-- Node1 -->
<g id="Node000001" class="node">
<title>Node1</title>
<g id="a_Node000001"><a xlink:title=" ">
<polygon fill="#999999" stroke="#666666" points="88,-93 0,-93 0,-74 88,-74 88,-93"/>
<text text-anchor="middle" x="44" y="-81" font-family="Helvetica,sans-Serif" font-size="10.00">printExFatBoot</text>
</a>
</g>
</g>
<!-- Node2 -->
<g id="Node000002" class="node">
<title>Node2</title>
<g id="a_Node000002"><a xlink:href="../../dc/d87/FsStructs_8h_a89aef4aa8e8032eab2982d660e7b8a81.xhtml#a89aef4aa8e8032eab2982d660e7b8a81" target="_top" xlink:title=" ">
<polygon fill="white" stroke="#666666" points="187.5,-167 131.5,-167 131.5,-148 187.5,-148 187.5,-167"/>
<text text-anchor="middle" x="159.5" y="-155" font-family="Helvetica,sans-Serif" font-size="10.00">getLe16</text>
</a>
</g>
</g>
<!-- Node1&#45;&gt;Node2 -->
<g id="edge1_Node000001_Node000002" class="edge">
<title>Node1&#45;&gt;Node2</title>
<g id="a_edge1_Node000001_Node000002"><a xlink:title=" ">
<path fill="none" stroke="#63b8ff" d="M57.5,-93.17C72.78,-104.79 99.62,-124.59 124,-139.5 125.92,-140.67 127.92,-141.85 129.96,-143"/>
<polygon fill="#63b8ff" stroke="#63b8ff" points="128.44,-146.16 138.9,-147.86 131.79,-140.01 128.44,-146.16"/>
</a>
</g>
</g>
<!-- Node3 -->
<g id="Node000003" class="node">
<title>Node3</title>
<g id="a_Node000003"><a xlink:href="../../dc/d87/FsStructs_8h_a07fdcae728ab56cd53f71c6c17b1889c.xhtml#a07fdcae728ab56cd53f71c6c17b1889c" target="_top" xlink:title=" ">
<polygon fill="white" stroke="#666666" points="187.5,-130 131.5,-130 131.5,-111 187.5,-111 187.5,-130"/>
<text text-anchor="middle" x="159.5" y="-118" font-family="Helvetica,sans-Serif" font-size="10.00">getLe32</text>
</a>
</g>
</g>
<!-- Node1&#45;&gt;Node3 -->
<g id="edge2_Node000001_Node000003" class="edge">
<title>Node1&#45;&gt;Node3</title>
<g id="a_edge2_Node000001_Node000003"><a xlink:title=" ">
<path fill="none" stroke="#63b8ff" d="M74.23,-93.03C88.67,-97.74 106.25,-103.47 121.6,-108.47"/>
<polygon fill="#63b8ff" stroke="#63b8ff" points="120.73,-111.87 131.32,-111.64 122.9,-105.21 120.73,-111.87"/>
</a>
</g>
</g>
<!-- Node4 -->
<g id="Node000004" class="node">
<title>Node4</title>
<g id="a_Node000004"><a xlink:href="../../dc/d87/FsStructs_8h_a25b748b219c3d782e4138208c54e70d9.xhtml#a25b748b219c3d782e4138208c54e70d9" target="_top" xlink:title=" ">
<polygon fill="white" stroke="#666666" points="187.5,-93 131.5,-93 131.5,-74 187.5,-74 187.5,-93"/>
<text text-anchor="middle" x="159.5" y="-81" font-family="Helvetica,sans-Serif" font-size="10.00">getLe64</text>
</a>
</g>
</g>
<!-- Node1&#45;&gt;Node4 -->
<g id="edge3_Node000001_Node000004" class="edge">
<title>Node1&#45;&gt;Node4</title>
<g id="a_edge3_Node000001_Node000004"><a xlink:title=" ">
<path fill="none" stroke="#63b8ff" d="M88.23,-83.5C99.13,-83.5 110.74,-83.5 121.31,-83.5"/>
<polygon fill="#63b8ff" stroke="#63b8ff" points="121.48,-87 131.48,-83.5 121.48,-80 121.48,-87"/>
</a>
</g>
</g>
<!-- Node5 -->
<g id="Node000005" class="node">
<title>Node5</title>
<g id="a_Node000005"><a xlink:href="../../d2/d2b/ExFatDbg_8cpp_a493dd09bc96dd94a426e9aa49e660a9e.xhtml#a493dd09bc96dd94a426e9aa49e660a9e" target="_top" xlink:title=" ">
<polygon fill="white" stroke="#666666" points="195,-56 124,-56 124,-37 195,-37 195,-56"/>
<text text-anchor="middle" x="159.5" y="-44" font-family="Helvetica,sans-Serif" font-size="10.00">printHex64</text>
</a>
</g>
</g>
<!-- Node1&#45;&gt;Node5 -->
<g id="edge4_Node000001_Node000005" class="edge">
<title>Node1&#45;&gt;Node5</title>
<g id="a_edge4_Node000001_Node000005"><a xlink:title=" ">
<path fill="none" stroke="#63b8ff" d="M74.23,-73.97C87.89,-69.52 104.36,-64.15 119.1,-59.34"/>
<polygon fill="#63b8ff" stroke="#63b8ff" points="120.55,-62.55 128.98,-56.12 118.38,-55.9 120.55,-62.55"/>
</a>
</g>
</g>
<!-- Node6 -->
<g id="Node000006" class="node">
<title>Node6</title>
<g id="a_Node000006"><a xlink:href="../../d2/d2b/ExFatDbg_8cpp_ad41fd2acf165b8571304d1690d92ffdb.xhtml#ad41fd2acf165b8571304d1690d92ffdb" target="_top" xlink:title=" ">
<polygon fill="white" stroke="#666666" points="189.5,-19 129.5,-19 129.5,0 189.5,0 189.5,-19"/>
<text text-anchor="middle" x="159.5" y="-7" font-family="Helvetica,sans-Serif" font-size="10.00">println64</text>
</a>
</g>
</g>
<!-- Node1&#45;&gt;Node6 -->
<g id="edge5_Node000001_Node000006" class="edge">
<title>Node1&#45;&gt;Node6</title>
<g id="a_edge5_Node000001_Node000006"><a xlink:title=" ">
<path fill="none" stroke="#63b8ff" d="M57.86,-73.92C73.26,-62.6 100.01,-43.4 124,-28.5 126.45,-26.98 129.03,-25.44 131.63,-23.94"/>
<polygon fill="#63b8ff" stroke="#63b8ff" points="133.39,-26.96 140.39,-19.01 129.96,-20.86 133.39,-26.96"/>
</a>
</g>
</g>
</g>
</svg>
</svg>

<style type='text/css'>
<![CDATA[
[data-mouse-over-selected='false'] { opacity: 0.7; }
[data-mouse-over-selected='true']  { opacity: 1.0; }
]]>
</style>
<script type="application/ecmascript"><![CDATA[
document.addEventListener('DOMContentLoaded', (event) => {
  highlightEdges();
  highlightAdjacentNodes();
});
]]></script>
</svg>
