<?xml version="1.0" encoding="UTF-8" standalone="no"?>
<!DOCTYPE svg PUBLIC "-//W3C//DTD SVG 1.1//EN"
 "http://www.w3.org/Graphics/SVG/1.1/DTD/svg11.dtd">
<!-- Generated by graphviz version 2.43.0 (0)
 -->
<!-- Title: printDateTime Pages: 1 -->
<svg width="543pt" height="64pt"
 viewBox="0.00 0.00 543.00 64.00" xmlns="http://www.w3.org/2000/svg" xmlns:xlink="http://www.w3.org/1999/xlink">
<g id="graph0" class="graph" transform="scale(1 1) rotate(0) translate(4 60)">
<title>printDateTime</title>
<!-- Node1 -->
<g id="Node000001" class="node">
<title>Node1</title>
<g id="a_Node000001"><a xlink:title=" ">
<polygon fill="#999999" stroke="#666666" points="87,-37 0,-37 0,-18 87,-18 87,-37"/>
<text text-anchor="middle" x="43.5" y="-25" font-family="Helvetica,sans-Serif" font-size="10.00">printDateTime</text>
</a>
</g>
</g>
<!-- Node2 -->
<g id="Node000002" class="node">
<title>Node2</title>
<g id="a_Node000002"><a xlink:href="../../d3/d80/FsDateTime_8cpp_a8eed4f2175da7c12f53ed62fccda5b12.xhtml#a8eed4f2175da7c12f53ed62fccda5b12" target="_top" xlink:title=" ">
<polygon fill="white" stroke="#666666" points="219,-37 123,-37 123,-18 219,-18 219,-37"/>
<text text-anchor="middle" x="171" y="-25" font-family="Helvetica,sans-Serif" font-size="10.00">fsPrintDateTime</text>
</a>
</g>
</g>
<!-- Node1&#45;&gt;Node2 -->
<g id="edge1_Node000001_Node000002" class="edge">
<title>Node1&#45;&gt;Node2</title>
<g id="a_edge1_Node000001_Node000002"><a xlink:title=" ">
<path fill="none" stroke="#63b8ff" d="M87.34,-27.5C95.42,-27.5 103.98,-27.5 112.43,-27.5"/>
<polygon fill="#63b8ff" stroke="#63b8ff" points="112.62,-31 122.62,-27.5 112.62,-24 112.62,-31"/>
</a>
</g>
</g>
<!-- Node3 -->
<g id="Node000003" class="node">
<title>Node3</title>
<g id="a_Node000003"><a xlink:href="../../d3/d80/FsDateTime_8cpp_a088d1d9eeb33fc81eafe27c05e0cc9ce.xhtml#a088d1d9eeb33fc81eafe27c05e0cc9ce" target="_top" xlink:title=" ">
<polygon fill="white" stroke="#666666" points="324,-56 256,-56 256,-37 324,-37 324,-56"/>
<text text-anchor="middle" x="290" y="-44" font-family="Helvetica,sans-Serif" font-size="10.00">fsFmtDate</text>
</a>
</g>
</g>
<!-- Node2&#45;&gt;Node3 -->
<g id="edge2_Node000002_Node000003" class="edge">
<title>Node2&#45;&gt;Node3</title>
<g id="a_edge2_Node000002_Node000003"><a xlink:title=" ">
<path fill="none" stroke="#63b8ff" d="M219.25,-35.17C228.09,-36.61 237.29,-38.1 246,-39.52"/>
<polygon fill="#63b8ff" stroke="#63b8ff" points="245.51,-42.98 255.94,-41.13 246.63,-36.07 245.51,-42.98"/>
</a>
</g>
</g>
<!-- Node6 -->
<g id="Node000006" class="node">
<title>Node6</title>
<g id="a_Node000006"><a xlink:href="../../d3/d80/FsDateTime_8cpp_aa500940592fd8cbd147771e54243ac73.xhtml#aa500940592fd8cbd147771e54243ac73" target="_top" xlink:title=" ">
<polygon fill="white" stroke="#666666" points="325,-19 255,-19 255,0 325,0 325,-19"/>
<text text-anchor="middle" x="290" y="-7" font-family="Helvetica,sans-Serif" font-size="10.00">fsFmtTime</text>
</a>
</g>
</g>
<!-- Node2&#45;&gt;Node6 -->
<g id="edge5_Node000002_Node000006" class="edge">
<title>Node2&#45;&gt;Node6</title>
<g id="a_edge5_Node000002_Node000006"><a xlink:title=" ">
<path fill="none" stroke="#63b8ff" d="M219.25,-20.23C227.73,-18.93 236.53,-17.57 244.91,-16.28"/>
<polygon fill="#63b8ff" stroke="#63b8ff" points="245.53,-19.73 254.88,-14.75 244.47,-12.81 245.53,-19.73"/>
</a>
</g>
</g>
<!-- Node4 -->
<g id="Node000004" class="node">
<title>Node4</title>
<g id="a_Node000004"><a xlink:href="../../d3/d80/FsDateTime_8cpp_a45cb92b5a748663234bb5213234105ce.xhtml#a45cb92b5a748663234bb5213234105ce" target="_top" xlink:title=" ">
<polygon fill="white" stroke="#666666" points="429,-37 361,-37 361,-18 429,-18 429,-37"/>
<text text-anchor="middle" x="395" y="-25" font-family="Helvetica,sans-Serif" font-size="10.00">fsFmtField</text>
</a>
</g>
</g>
<!-- Node3&#45;&gt;Node4 -->
<g id="edge3_Node000003_Node000004" class="edge">
<title>Node3&#45;&gt;Node4</title>
<g id="a_edge3_Node000003_Node000004"><a xlink:title=" ">
<path fill="none" stroke="#63b8ff" d="M324.16,-40.38C332.7,-38.81 342.02,-37.09 350.99,-35.43"/>
<polygon fill="#63b8ff" stroke="#63b8ff" points="351.71,-38.86 360.91,-33.6 350.44,-31.98 351.71,-38.86"/>
</a>
</g>
</g>
<!-- Node5 -->
<g id="Node000005" class="node">
<title>Node5</title>
<g id="a_Node000005"><a xlink:href="../../d4/d7f/FmtNumber_8cpp_af68574870cae526800333ab6a615f955.xhtml#af68574870cae526800333ab6a615f955" target="_top" xlink:title=" ">
<polygon fill="white" stroke="#666666" points="535,-37 465,-37 465,-18 535,-18 535,-37"/>
<text text-anchor="middle" x="500" y="-25" font-family="Helvetica,sans-Serif" font-size="10.00">fmtBase10</text>
</a>
</g>
</g>
<!-- Node4&#45;&gt;Node5 -->
<g id="edge4_Node000004_Node000005" class="edge">
<title>Node4&#45;&gt;Node5</title>
<g id="a_edge4_Node000004_Node000005"><a xlink:title=" ">
<path fill="none" stroke="#63b8ff" d="M429.16,-27.5C437.27,-27.5 446.08,-27.5 454.62,-27.5"/>
<polygon fill="#63b8ff" stroke="#63b8ff" points="454.84,-31 464.84,-27.5 454.84,-24 454.84,-31"/>
</a>
</g>
</g>
<!-- Node6&#45;&gt;Node4 -->
<g id="edge6_Node000006_Node000004" class="edge">
<title>Node6&#45;&gt;Node4</title>
<g id="a_edge6_Node000006_Node000004"><a xlink:title=" ">
<path fill="none" stroke="#63b8ff" d="M325.01,-15.44C333.27,-16.89 342.2,-18.45 350.82,-19.95"/>
<polygon fill="#63b8ff" stroke="#63b8ff" points="350.27,-23.41 360.73,-21.69 351.48,-16.52 350.27,-23.41"/>
</a>
</g>
</g>
</g>
</svg>
