<?xml version="1.0" encoding="UTF-8" standalone="no"?>
<!DOCTYPE svg PUBLIC "-//W3C//DTD SVG 1.1//EN"
 "http://www.w3.org/Graphics/SVG/1.1/DTD/svg11.dtd">
<!-- Generated by graphviz version 2.43.0 (0)
 -->
<!-- Title: hashDir Pages: 1 -->
<svg width="470pt" height="82pt"
 viewBox="0.00 0.00 470.00 82.00" xmlns="http://www.w3.org/2000/svg" xmlns:xlink="http://www.w3.org/1999/xlink">
<g id="graph0" class="graph" transform="scale(1 1) rotate(0) translate(4 78)">
<title>hashDir</title>
<!-- Node1 -->
<g id="Node000001" class="node">
<title>Node1</title>
<g id="a_Node000001"><a xlink:title=" ">
<polygon fill="#999999" stroke="#666666" points="54,-55 0,-55 0,-36 54,-36 54,-55"/>
<text text-anchor="middle" x="27" y="-43" font-family="Helvetica,sans-Serif" font-size="10.00">hashDir</text>
</a>
</g>
</g>
<!-- Node2 -->
<g id="Node000002" class="node">
<title>Node2</title>
<g id="a_Node000002"><a xlink:href="../../dc/d87/FsStructs_8h_a89aef4aa8e8032eab2982d660e7b8a81.xhtml#a89aef4aa8e8032eab2982d660e7b8a81" target="_top" xlink:title=" ">
<polygon fill="white" stroke="#666666" points="149,-74 93,-74 93,-55 149,-55 149,-74"/>
<text text-anchor="middle" x="121" y="-62" font-family="Helvetica,sans-Serif" font-size="10.00">getLe16</text>
</a>
</g>
</g>
<!-- Node1&#45;&gt;Node2 -->
<g id="edge1_Node000001_Node000002" class="edge">
<title>Node1&#45;&gt;Node2</title>
<g id="a_edge1_Node000001_Node000002"><a xlink:title=" ">
<path fill="none" stroke="#63b8ff" d="M54.12,-50.89C63.11,-52.75 73.35,-54.87 83.04,-56.87"/>
<polygon fill="#63b8ff" stroke="#63b8ff" points="82.35,-60.3 92.86,-58.89 83.77,-53.44 82.35,-60.3"/>
</a>
</g>
</g>
<!-- Node3 -->
<g id="Node000003" class="node">
<title>Node3</title>
<g id="a_Node000003"><a xlink:href="../../de/d22/upcase_8cpp_a21b6d308ac42097fe276a6cb2f392818.xhtml#a21b6d308ac42097fe276a6cb2f392818" target="_top" xlink:title=" ">
<polygon fill="white" stroke="#666666" points="152,-37 90,-37 90,-18 152,-18 152,-37"/>
<text text-anchor="middle" x="121" y="-25" font-family="Helvetica,sans-Serif" font-size="10.00">toUpcase</text>
</a>
</g>
</g>
<!-- Node1&#45;&gt;Node3 -->
<g id="edge2_Node000001_Node000003" class="edge">
<title>Node1&#45;&gt;Node3</title>
<g id="a_edge2_Node000001_Node000003"><a xlink:title=" ">
<path fill="none" stroke="#63b8ff" d="M54.12,-40.39C62.14,-38.82 71.15,-37.06 79.88,-35.35"/>
<polygon fill="#63b8ff" stroke="#63b8ff" points="80.78,-38.74 89.92,-33.39 79.43,-31.87 80.78,-38.74"/>
</a>
</g>
</g>
<!-- Node4 -->
<g id="Node000004" class="node">
<title>Node4</title>
<g id="a_Node000004"><a xlink:href="../../de/d22/upcase_8cpp_ad530d8c884214dce68a3e55efae606fd.xhtml#ad530d8c884214dce68a3e55efae606fd" target="_top" xlink:title=" ">
<polygon fill="white" stroke="#666666" points="267,-37 188,-37 188,-18 267,-18 267,-37"/>
<text text-anchor="middle" x="227.5" y="-25" font-family="Helvetica,sans-Serif" font-size="10.00">searchPair16</text>
</a>
</g>
</g>
<!-- Node3&#45;&gt;Node4 -->
<g id="edge3_Node000003_Node000004" class="edge">
<title>Node3&#45;&gt;Node4</title>
<g id="a_edge3_Node000003_Node000004"><a xlink:title=" ">
<path fill="none" stroke="#63b8ff" d="M152.23,-27.5C160.2,-27.5 169.01,-27.5 177.69,-27.5"/>
<polygon fill="#63b8ff" stroke="#63b8ff" points="177.76,-31 187.76,-27.5 177.76,-24 177.76,-31"/>
</a>
</g>
</g>
<!-- Node5 -->
<g id="Node000005" class="node">
<title>Node5</title>
<g id="a_Node000005"><a xlink:href="../../df/dd5/ios_8h_a86053192dca0759aeb201ff65725c7f0.xhtml#a86053192dca0759aeb201ff65725c7f0" target="_top" xlink:title=" ">
<polygon fill="white" stroke="#666666" points="338.5,-56 306.5,-56 306.5,-37 338.5,-37 338.5,-56"/>
<text text-anchor="middle" x="322.5" y="-44" font-family="Helvetica,sans-Serif" font-size="10.00">left</text>
</a>
</g>
</g>
<!-- Node4&#45;&gt;Node5 -->
<g id="edge4_Node000004_Node000005" class="edge">
<title>Node4&#45;&gt;Node5</title>
<g id="a_edge4_Node000004_Node000005"><a xlink:title=" ">
<path fill="none" stroke="#63b8ff" d="M267.13,-35.39C277.03,-37.42 287.42,-39.54 296.44,-41.38"/>
<polygon fill="#63b8ff" stroke="#63b8ff" points="295.78,-44.82 306.27,-43.39 297.18,-37.96 295.78,-44.82"/>
</a>
</g>
</g>
<!-- Node7 -->
<g id="Node000007" class="node">
<title>Node7</title>
<g id="a_Node000007"><a xlink:href="../../df/dd5/ios_8h_a5c2656b1fa09ef8554f2bdc336b93e4b.xhtml#a5c2656b1fa09ef8554f2bdc336b93e4b" target="_top" xlink:title=" ">
<polygon fill="white" stroke="#666666" points="342,-19 303,-19 303,0 342,0 342,-19"/>
<text text-anchor="middle" x="322.5" y="-7" font-family="Helvetica,sans-Serif" font-size="10.00">right</text>
</a>
</g>
</g>
<!-- Node4&#45;&gt;Node7 -->
<g id="edge6_Node000004_Node000007" class="edge">
<title>Node4&#45;&gt;Node7</title>
<g id="a_edge6_Node000004_Node000007"><a xlink:title=" ">
<path fill="none" stroke="#63b8ff" d="M267.13,-20.02C275.74,-18.36 284.71,-16.62 292.83,-15.05"/>
<polygon fill="#63b8ff" stroke="#63b8ff" points="293.76,-18.43 302.91,-13.1 292.43,-11.56 293.76,-18.43"/>
</a>
</g>
</g>
<!-- Node6 -->
<g id="Node000006" class="node">
<title>Node6</title>
<g id="a_Node000006"><a xlink:href="../../d4/dc1/classios__base_ab5db835cb45bba7684ebf72d9a3cccb4.xhtml#ab5db835cb45bba7684ebf72d9a3cccb4" target="_top" xlink:title=" ">
<polygon fill="white" stroke="#666666" points="462,-37 378,-37 378,-18 462,-18 462,-37"/>
<text text-anchor="middle" x="420" y="-25" font-family="Helvetica,sans-Serif" font-size="10.00">ios_base::setf</text>
</a>
</g>
</g>
<!-- Node5&#45;&gt;Node6 -->
<g id="edge5_Node000005_Node000006" class="edge">
<title>Node5&#45;&gt;Node6</title>
<g id="a_edge5_Node000005_Node000006"><a xlink:title=" ">
<path fill="none" stroke="#63b8ff" d="M338.84,-43.45C346.83,-41.86 357.12,-39.81 367.64,-37.72"/>
<polygon fill="#63b8ff" stroke="#63b8ff" points="368.6,-41.1 377.73,-35.71 367.24,-34.23 368.6,-41.1"/>
</a>
</g>
</g>
<!-- Node7&#45;&gt;Node6 -->
<g id="edge7_Node000007_Node000006" class="edge">
<title>Node7&#45;&gt;Node6</title>
<g id="a_edge7_Node000007_Node000006"><a xlink:title=" ">
<path fill="none" stroke="#63b8ff" d="M342.37,-13.06C349.79,-14.46 358.71,-16.14 367.8,-17.85"/>
<polygon fill="#63b8ff" stroke="#63b8ff" points="367.18,-21.29 377.66,-19.71 368.48,-14.42 367.18,-21.29"/>
</a>
</g>
</g>
</g>
</svg>
