<?xml version="1.0" encoding="UTF-8" standalone="no"?>
<!DOCTYPE svg PUBLIC "-//W3C//DTD SVG 1.1//EN"
 "http://www.w3.org/Graphics/SVG/1.1/DTD/svg11.dtd">
<!-- Generated by graphviz version 2.43.0 (0)
 -->
<!-- Title: FatFile::rmdir Pages: 1 -->
<svg width="225pt" height="101pt"
 viewBox="0.00 0.00 225.00 101.00" xmlns="http://www.w3.org/2000/svg" xmlns:xlink="http://www.w3.org/1999/xlink">
<g id="graph0" class="graph" transform="scale(1 1) rotate(0) translate(4 97)">
<title>FatFile::rmdir</title>
<!-- Node1 -->
<g id="Node000001" class="node">
<title>Node1</title>
<g id="a_Node000001"><a xlink:title=" ">
<polygon fill="#999999" stroke="#666666" points="217,-56 137,-56 137,-37 217,-37 217,-56"/>
<text text-anchor="middle" x="177" y="-44" font-family="Helvetica,sans-Serif" font-size="10.00">FatFile::rmdir</text>
</a>
</g>
</g>
<!-- Node2 -->
<g id="Node000002" class="node">
<title>Node2</title>
<g id="a_Node000002"><a xlink:href="../../d0/db5/classFsBaseFile.xhtml#ac47870fd89b0849cda33f2780918a286" target="_top" xlink:title=" ">
<polygon fill="white" stroke="#666666" points="101,-93 0,-93 0,-74 101,-74 101,-93"/>
<text text-anchor="middle" x="50.5" y="-81" font-family="Helvetica,sans-Serif" font-size="10.00">FsBaseFile::rmdir</text>
</a>
</g>
</g>
<!-- Node1&#45;&gt;Node2 -->
<g id="edge1_Node000001_Node000002" class="edge">
<title>Node1&#45;&gt;Node2</title>
<g id="a_edge1_Node000001_Node000002"><a xlink:title=" ">
<path fill="none" stroke="#63b8ff" d="M134.06,-58.96C117.69,-63.83 99.2,-69.32 83.89,-73.88"/>
<polygon fill="#63b8ff" stroke="#63b8ff" points="135.35,-62.23 143.94,-56.03 133.36,-55.52 135.35,-62.23"/>
</a>
</g>
</g>
<!-- Node3 -->
<g id="Node000003" class="node">
<title>Node3</title>
<g id="a_Node000003"><a xlink:href="../../d3/dd5/classFatVolume.xhtml#af1181990bcece7dbb7d19293dd4fe11a" target="_top" xlink:title=" ">
<polygon fill="white" stroke="#666666" points="100.5,-56 0.5,-56 0.5,-37 100.5,-37 100.5,-56"/>
<text text-anchor="middle" x="50.5" y="-44" font-family="Helvetica,sans-Serif" font-size="10.00">FatVolume::rmdir</text>
</a>
</g>
</g>
<!-- Node1&#45;&gt;Node3 -->
<g id="edge2_Node000001_Node000003" class="edge">
<title>Node1&#45;&gt;Node3</title>
<g id="a_edge2_Node000001_Node000003"><a xlink:title=" ">
<path fill="none" stroke="#63b8ff" d="M126.67,-46.5C118.06,-46.5 109.1,-46.5 100.5,-46.5"/>
<polygon fill="#63b8ff" stroke="#63b8ff" points="126.95,-50 136.95,-46.5 126.95,-43 126.95,-50"/>
</a>
</g>
</g>
<!-- Node4 -->
<g id="Node000004" class="node">
<title>Node4</title>
<g id="a_Node000004"><a xlink:href="../../d3/db4/classFatFile.xhtml#ac780a80526f86d3def701ecdc99d8bfe" target="_top" xlink:title=" ">
<polygon fill="white" stroke="#666666" points="99.5,-19 1.5,-19 1.5,0 99.5,0 99.5,-19"/>
<text text-anchor="middle" x="50.5" y="-7" font-family="Helvetica,sans-Serif" font-size="10.00">FatFile::rmRfStar</text>
</a>
</g>
</g>
<!-- Node1&#45;&gt;Node4 -->
<g id="edge3_Node000001_Node000004" class="edge">
<title>Node1&#45;&gt;Node4</title>
<g id="a_edge3_Node000001_Node000004"><a xlink:title=" ">
<path fill="none" stroke="#63b8ff" d="M134.06,-34.04C117.69,-29.17 99.2,-23.68 83.89,-19.12"/>
<polygon fill="#63b8ff" stroke="#63b8ff" points="133.36,-37.48 143.94,-36.97 135.35,-30.77 133.36,-37.48"/>
</a>
</g>
</g>
</g>
</svg>
