<?xml version="1.0" encoding="UTF-8" standalone="no"?>
<!DOCTYPE svg PUBLIC "-//W3C//DTD SVG 1.1//EN"
 "http://www.w3.org/Graphics/SVG/1.1/DTD/svg11.dtd">
<!-- Generated by graphviz version 2.43.0 (0)
 -->
<!-- Title: FatFile::printField Pages: 1 -->
<svg width="329pt" height="82pt"
 viewBox="0.00 0.00 329.00 82.00" xmlns="http://www.w3.org/2000/svg" xmlns:xlink="http://www.w3.org/1999/xlink">

<svg id="main" version="1.1" xmlns="http://www.w3.org/2000/svg" xmlns:xlink="http://www.w3.org/1999/xlink" xml:space="preserve" onload="init(evt)">
<style type="text/css"><![CDATA[
.node, .edge {opacity: 0.7;}
.node.selected, .edge.selected {opacity: 1;}
.edge:hover path { stroke: red; }
.edge:hover polygon { stroke: red; fill: red; }
]]></style>
<script type="application/ecmascript" xlink:href="../../svg.min.js"/>
<svg id="graph" class="graph">
<g id="graph0" class="graph" transform="scale(1 1) rotate(0) translate(4 78)">
<title>FatFile::printField</title>
<!-- Node1 -->
<g id="Node000001" class="node">
<title>Node1</title>
<g id="a_Node000001"><a xlink:title=" ">
<polygon fill="#999999" stroke="#666666" points="100,-46 0,-46 0,-27 100,-27 100,-46"/>
<text text-anchor="middle" x="50" y="-34" font-family="Helvetica,sans-Serif" font-size="10.00">FatFile::printField</text>
</a>
</g>
</g>
<!-- Node2 -->
<g id="Node000002" class="node">
<title>Node2</title>
<g id="a_Node000002"><a xlink:href="../../d4/d7f/FmtNumber_8cpp.xhtml#aa406e3ddeb7cfe6c5bc9c681f1f68b02" target="_top" xlink:title=" ">
<polygon fill="white" stroke="#666666" points="209.5,-74 141.5,-74 141.5,-55 209.5,-55 209.5,-74"/>
<text text-anchor="middle" x="175.5" y="-62" font-family="Helvetica,sans-Serif" font-size="10.00">fmtDouble</text>
</a>
</g>
</g>
<!-- Node1&#45;&gt;Node2 -->
<g id="edge1_Node000001_Node000002" class="edge">
<title>Node1&#45;&gt;Node2</title>
<g id="a_edge1_Node000001_Node000002"><a xlink:title=" ">
<path fill="none" stroke="#63b8ff" d="M93.16,-46.06C105.49,-48.85 119,-51.92 131.39,-54.73"/>
<polygon fill="#63b8ff" stroke="#63b8ff" points="130.97,-58.22 141.49,-57.02 132.52,-51.39 130.97,-58.22"/>
</a>
</g>
</g>
<!-- Node4 -->
<g id="Node000004" class="node">
<title>Node4</title>
<g id="a_Node000004"><a xlink:href="../../d3/db4/classFatFile.xhtml#a081dd810835f1ebf8c23ffe92706b485" target="_top" xlink:title=" ">
<polygon fill="white" stroke="#666666" points="215,-19 136,-19 136,0 215,0 215,-19"/>
<text text-anchor="middle" x="175.5" y="-7" font-family="Helvetica,sans-Serif" font-size="10.00">FatFile::write</text>
</a>
</g>
</g>
<!-- Node1&#45;&gt;Node4 -->
<g id="edge3_Node000001_Node000004" class="edge">
<title>Node1&#45;&gt;Node4</title>
<g id="a_edge3_Node000001_Node000004"><a xlink:title=" ">
<path fill="none" stroke="#63b8ff" d="M94.54,-26.98C104.75,-24.75 115.69,-22.36 126.1,-20.08"/>
<polygon fill="#63b8ff" stroke="#63b8ff" points="126.85,-23.5 135.87,-17.94 125.36,-16.66 126.85,-23.5"/>
</a>
</g>
</g>
<!-- Node3 -->
<g id="Node000003" class="node">
<title>Node3</title>
<g id="a_Node000003"><a xlink:href="../../d4/d7f/FmtNumber_8cpp.xhtml#af68574870cae526800333ab6a615f955" target="_top" xlink:title=" ">
<polygon fill="white" stroke="#666666" points="321,-74 251,-74 251,-55 321,-55 321,-74"/>
<text text-anchor="middle" x="286" y="-62" font-family="Helvetica,sans-Serif" font-size="10.00">fmtBase10</text>
</a>
</g>
</g>
<!-- Node2&#45;&gt;Node3 -->
<g id="edge2_Node000002_Node000003" class="edge">
<title>Node2&#45;&gt;Node3</title>
<g id="a_edge2_Node000002_Node000003"><a xlink:title=" ">
<path fill="none" stroke="#63b8ff" d="M209.64,-64.5C219.46,-64.5 230.37,-64.5 240.76,-64.5"/>
<polygon fill="#63b8ff" stroke="#63b8ff" points="240.94,-68 250.94,-64.5 240.94,-61 240.94,-68"/>
</a>
</g>
</g>
<!-- Node4&#45;&gt;Node4 -->
<g id="edge4_Node000004_Node000004" class="edge">
<title>Node4&#45;&gt;Node4</title>
<g id="a_edge4_Node000004_Node000004"><a xlink:title=" ">
<path fill="none" stroke="#63b8ff" d="M158.55,-19.08C150.3,-27.73 155.95,-37 175.5,-37 187.72,-37 194.51,-33.38 195.87,-28.55"/>
<polygon fill="#63b8ff" stroke="#63b8ff" points="199.14,-27.3 192.45,-19.08 192.55,-29.68 199.14,-27.3"/>
</a>
</g>
</g>
</g>
</svg>
</svg>

<style type='text/css'>
<![CDATA[
[data-mouse-over-selected='false'] { opacity: 0.7; }
[data-mouse-over-selected='true']  { opacity: 1.0; }
]]>
</style>
<script type="application/ecmascript"><![CDATA[
document.addEventListener('DOMContentLoaded', (event) => {
  highlightEdges();
  highlightAdjacentNodes();
});
]]></script>
</svg>
