<?xml version="1.0" encoding="UTF-8" standalone="no"?>
<!DOCTYPE svg PUBLIC "-//W3C//DTD SVG 1.1//EN"
 "http://www.w3.org/Graphics/SVG/1.1/DTD/svg11.dtd">
<!-- Generated by graphviz version 2.43.0 (0)
 -->
<!-- Title: FatFile::close Pages: 1 -->
<!--zoomable 693 -->

<svg id="main" version="1.1" xmlns="http://www.w3.org/2000/svg" xmlns:xlink="http://www.w3.org/1999/xlink" xml:space="preserve" onload="init(evt)">
<style type="text/css"><![CDATA[
.node, .edge {opacity: 0.7;}
.node.selected, .edge.selected {opacity: 1;}
.edge:hover path { stroke: red; }
.edge:hover polygon { stroke: red; fill: red; }
]]></style>

<defs>
  <circle id="rim" cx="0" cy="0" r="7"/>
  <circle id="rim2" cx="0" cy="0" r="3.5"/>
  <g id="zoomPlus">
    <use xlink:href="#rim" fill="#404040"><set attributeName="fill" to="#808080" begin="zoomplus.mouseover" end="zoomplus.mouseout"/></use>
    <path d="M-4,0h8M0,-4v8" fill="none" stroke="white" stroke-width="1.5" pointer-events="none"/>
  </g>
  <g id="zoomMin">
    <use xlink:href="#rim" fill="#404040"><set attributeName="fill" to="#808080" begin="zoomminus.mouseover" end="zoomminus.mouseout"/></use>
    <path d="M-4,0h8" fill="none" stroke="white" stroke-width="1.5" pointer-events="none"/>
  </g>
  <g id="arrowUp" transform="translate(30 24)">
    <use xlink:href="#rim"/>
    <path pointer-events="none" fill="none" stroke="white" stroke-width="1.5" d="M0,-3.0v7 M-2.5,-0.5L0,-3.0L2.5,-0.5"/>
  </g>
  <g id="arrowRight" transform="rotate(90) translate(36 -43)">
    <use xlink:href="#rim"/>
    <path pointer-events="none" fill="none" stroke="white" stroke-width="1.5" d="M0,-3.0v7 M-2.5,-0.5L0,-3.0L2.5,-0.5"/>
  </g>
  <g id="arrowDown" transform="rotate(180) translate(-30 -48)">
    <use xlink:href="#rim"/>
    <path pointer-events="none" fill="none" stroke="white" stroke-width="1.5" d="M0,-3.0v7 M-2.5,-0.5L0,-3.0L2.5,-0.5"/>
  </g>
  <g id="arrowLeft" transform="rotate(270) translate(-36 17)">
    <use xlink:href="#rim"/>
    <path pointer-events="none" fill="none" stroke="white" stroke-width="1.5" d="M0,-3.0v7 M-2.5,-0.5L0,-3.0L2.5,-0.5"/>
  </g>
  <g id="resetDef">
    <use xlink:href="#rim2" fill="#404040"><set attributeName="fill" to="#808080" begin="reset.mouseover" end="reset.mouseout"/></use>
  </g>
</defs>
<script type="application/ecmascript">
var viewWidth = 731;
var viewHeight = 693;
var sectionId = 'dynsection-1';
</script>
<script type="application/ecmascript" xlink:href="../../svg.min.js"/>
<svg id="graph" class="graph">
<g id="viewport">
<title>FatFile::close</title>
<!-- Node1 -->
<g id="Node000001" class="node">
<title>Node1</title>
<g id="a_Node000001"><a xlink:title=" ">
<polygon fill="#999999" stroke="#666666" points="723,-296 643,-296 643,-277 723,-277 723,-296"/>
<text text-anchor="middle" x="683" y="-284" font-family="Helvetica,sans-Serif" font-size="10.00">FatFile::close</text>
</a>
</g>
</g>
<!-- Node2 -->
<g id="Node000002" class="node">
<title>Node2</title>
<g id="a_Node000002"><a xlink:href="../../d3/dd5/classFatVolume_a659d921b3efd52d310a33cba69eff18b.xhtml#a659d921b3efd52d310a33cba69eff18b" target="_top" xlink:title=" ">
<polygon fill="white" stroke="#666666" points="586,-666 488,-666 488,-647 586,-647 586,-666"/>
<text text-anchor="middle" x="537" y="-654" font-family="Helvetica,sans-Serif" font-size="10.00">FatVolume::chdir</text>
</a>
</g>
</g>
<!-- Node1&#45;&gt;Node2 -->
<g id="edge1_Node000001_Node000002" class="edge">
<title>Node1&#45;&gt;Node2</title>
<g id="a_edge1_Node000001_Node000002"><a xlink:title=" ">
<path fill="none" stroke="#63b8ff" d="M679.72,-306.25C672.04,-369.97 645.4,-568.99 607,-619.5 597.29,-632.27 581.87,-641.13 568.07,-646.97"/>
<polygon fill="#63b8ff" stroke="#63b8ff" points="683.2,-306.63 680.9,-296.29 676.25,-305.81 683.2,-306.63"/>
</a>
</g>
</g>
<!-- Node5 -->
<g id="Node000005" class="node">
<title>Node5</title>
<g id="a_Node000005"><a xlink:href="../../d0/db5/classFsBaseFile_aa669c695a839e68e417fb15eebe3de13.xhtml#aa669c695a839e68e417fb15eebe3de13" target="_top" xlink:title=" ">
<polygon fill="white" stroke="#666666" points="587.5,-444 486.5,-444 486.5,-425 587.5,-425 587.5,-444"/>
<text text-anchor="middle" x="537" y="-432" font-family="Helvetica,sans-Serif" font-size="10.00">FsBaseFile::close</text>
</a>
</g>
</g>
<!-- Node1&#45;&gt;Node5 -->
<g id="edge4_Node000001_Node000005" class="edge">
<title>Node1&#45;&gt;Node5</title>
<g id="a_edge4_Node000001_Node000005"><a xlink:title=" ">
<path fill="none" stroke="#63b8ff" d="M676.24,-305.71C666.66,-334.3 644.67,-387.78 607,-416.5 601.29,-420.85 594.62,-424.16 587.73,-426.67"/>
<polygon fill="#63b8ff" stroke="#63b8ff" points="679.61,-306.66 679.31,-296.07 672.94,-304.53 679.61,-306.66"/>
</a>
</g>
</g>
<!-- Node21 -->
<g id="Node000021" class="node">
<title>Node21</title>
<g id="a_Node000021"><a xlink:href="../../d7/df9/classfstream_ac5720ee620c09d63dd186823e688ea9a.xhtml#ac5720ee620c09d63dd186823e688ea9a" target="_top" xlink:title=" ">
<polygon fill="white" stroke="#666666" points="580,-407 494,-407 494,-388 580,-388 580,-407"/>
<text text-anchor="middle" x="537" y="-395" font-family="Helvetica,sans-Serif" font-size="10.00">fstream::close</text>
</a>
</g>
</g>
<!-- Node1&#45;&gt;Node21 -->
<g id="edge20_Node000001_Node000021" class="edge">
<title>Node1&#45;&gt;Node21</title>
<g id="a_edge20_Node000001_Node000021"><a xlink:title=" ">
<path fill="none" stroke="#63b8ff" d="M671.96,-305.08C659.52,-326.31 636.33,-360.55 607,-379.5 598.99,-384.67 589.56,-388.36 580.28,-390.99"/>
<polygon fill="#63b8ff" stroke="#63b8ff" points="675.17,-306.51 677.04,-296.09 669.07,-303.07 675.17,-306.51"/>
</a>
</g>
</g>
<!-- Node22 -->
<g id="Node000022" class="node">
<title>Node22</title>
<g id="a_Node000022"><a xlink:href="../../d9/d93/classofstream_a240f3752c7ff7a78d10c143d2083715f.xhtml#a240f3752c7ff7a78d10c143d2083715f" target="_top" xlink:title=" ">
<polygon fill="white" stroke="#666666" points="583,-370 491,-370 491,-351 583,-351 583,-370"/>
<text text-anchor="middle" x="537" y="-358" font-family="Helvetica,sans-Serif" font-size="10.00">ofstream::close</text>
</a>
</g>
</g>
<!-- Node1&#45;&gt;Node22 -->
<g id="edge21_Node000001_Node000022" class="edge">
<title>Node1&#45;&gt;Node22</title>
<g id="a_edge21_Node000001_Node000022"><a xlink:title=" ">
<path fill="none" stroke="#63b8ff" d="M664.04,-303.08C649.61,-315.57 628.3,-332.26 607,-342.5 599.52,-346.09 591.24,-349.04 583.07,-351.43"/>
<polygon fill="#63b8ff" stroke="#63b8ff" points="666.54,-305.54 671.69,-296.28 661.89,-300.31 666.54,-305.54"/>
</a>
</g>
</g>
<!-- Node23 -->
<g id="Node000023" class="node">
<title>Node23</title>
<g id="a_Node000023"><a xlink:href="../../d3/db4/classFatFile_a0853fbd44aee2798d14d8e3aed78f8bf.xhtml#a0853fbd44aee2798d14d8e3aed78f8bf" target="_top" xlink:title=" ">
<polygon fill="white" stroke="#666666" points="607,-333 467,-333 467,-314 607,-314 607,-333"/>
<text text-anchor="middle" x="537" y="-321" font-family="Helvetica,sans-Serif" font-size="10.00">FatFile::createContiguous</text>
</a>
</g>
</g>
<!-- Node1&#45;&gt;Node23 -->
<g id="edge22_Node000001_Node000023" class="edge">
<title>Node1&#45;&gt;Node23</title>
<g id="a_edge22_Node000001_Node000023"><a xlink:title=" ">
<path fill="none" stroke="#63b8ff" d="M635.09,-298.55C615.77,-303.52 593.68,-309.19 575.46,-313.88"/>
<polygon fill="#63b8ff" stroke="#63b8ff" points="636.1,-301.91 644.92,-296.03 634.36,-295.13 636.1,-301.91"/>
</a>
</g>
</g>
<!-- Node24 -->
<g id="Node000024" class="node">
<title>Node24</title>
<g id="a_Node000024"><a xlink:href="../../d3/db4/classFatFile_a0afc2a1cffa238d1cb2049bfa2d8d199.xhtml#a0afc2a1cffa238d1cb2049bfa2d8d199" target="_top" xlink:title=" ">
<polygon fill="white" stroke="#666666" points="607,-296 467,-296 467,-277 607,-277 607,-296"/>
<text text-anchor="middle" x="537" y="-284" font-family="Helvetica,sans-Serif" font-size="10.00">FatFile::createContiguous</text>
</a>
</g>
</g>
<!-- Node1&#45;&gt;Node24 -->
<g id="edge23_Node000001_Node000024" class="edge">
<title>Node1&#45;&gt;Node24</title>
<g id="a_edge23_Node000001_Node000024"><a xlink:title=" ">
<path fill="none" stroke="#63b8ff" d="M632.56,-286.5C624.38,-286.5 615.77,-286.5 607.21,-286.5"/>
<polygon fill="#63b8ff" stroke="#63b8ff" points="632.65,-290 642.65,-286.5 632.65,-283 632.65,-290"/>
</a>
</g>
</g>
<!-- Node25 -->
<g id="Node000025" class="node">
<title>Node25</title>
<g id="a_Node000025"><a xlink:href="../../da/d64/classStdioStream_a4ddd4658d49182013d2fa2a181e96c5a.xhtml#a4ddd4658d49182013d2fa2a181e96c5a" target="_top" xlink:title=" ">
<polygon fill="white" stroke="#666666" points="593,-259 481,-259 481,-240 593,-240 593,-259"/>
<text text-anchor="middle" x="537" y="-247" font-family="Helvetica,sans-Serif" font-size="10.00">StdioStream::fclose</text>
</a>
</g>
</g>
<!-- Node1&#45;&gt;Node25 -->
<g id="edge24_Node000001_Node000025" class="edge">
<title>Node1&#45;&gt;Node25</title>
<g id="a_edge24_Node000001_Node000025"><a xlink:title=" ">
<path fill="none" stroke="#63b8ff" d="M635.09,-274.45C615.77,-269.48 593.68,-263.81 575.46,-259.12"/>
<polygon fill="#63b8ff" stroke="#63b8ff" points="634.36,-277.87 644.92,-276.97 636.1,-271.09 634.36,-277.87"/>
</a>
</g>
</g>
<!-- Node26 -->
<g id="Node000026" class="node">
<title>Node26</title>
<g id="a_Node000026"><a xlink:href="../../d3/db4/classFatFile_a60ab9d16bcc778150a364c26de467de1.xhtml#a60ab9d16bcc778150a364c26de467de1" target="_top" xlink:title=" ">
<polygon fill="white" stroke="#666666" points="568,-204 506,-204 506,-185 568,-185 568,-204"/>
<text text-anchor="middle" x="537" y="-192" font-family="Helvetica,sans-Serif" font-size="10.00">FatFile::ls</text>
</a>
</g>
</g>
<!-- Node1&#45;&gt;Node26 -->
<g id="edge25_Node000001_Node000026" class="edge">
<title>Node1&#45;&gt;Node26</title>
<g id="a_edge25_Node000001_Node000026"><a xlink:title=" ">
<path fill="none" stroke="#63b8ff" d="M661.94,-270.59C647.14,-259.15 626.3,-243.66 607,-231.5 590.79,-221.28 571.5,-211.09 557.45,-204"/>
<polygon fill="#63b8ff" stroke="#63b8ff" points="659.86,-273.41 669.9,-276.8 664.17,-267.89 659.86,-273.41"/>
</a>
</g>
</g>
<!-- Node30 -->
<g id="Node000030" class="node">
<title>Node30</title>
<g id="a_Node000030"><a xlink:href="../../d3/db4/classFatFile_abab5b9f72cc796388dd4eed01d13d90d.xhtml#abab5b9f72cc796388dd4eed01d13d90d" target="_top" xlink:title=" ">
<polygon fill="white" stroke="#666666" points="578.5,-592 495.5,-592 495.5,-573 578.5,-573 578.5,-592"/>
<text text-anchor="middle" x="537" y="-580" font-family="Helvetica,sans-Serif" font-size="10.00">FatFile::mkdir</text>
</a>
</g>
</g>
<!-- Node1&#45;&gt;Node30 -->
<g id="edge30_Node000001_Node000030" class="edge">
<title>Node1&#45;&gt;Node30</title>
<g id="a_edge30_Node000001_Node000030"><a xlink:title=" ">
<path fill="none" stroke="#63b8ff" d="M674.09,-305.24C660.84,-336.34 633.06,-400.45 607,-453.5 584.71,-498.86 555.38,-551.65 543.42,-572.91"/>
<polygon fill="#63b8ff" stroke="#63b8ff" points="677.31,-306.6 678,-296.02 670.87,-303.86 677.31,-306.6"/>
</a>
</g>
</g>
<!-- Node34 -->
<g id="Node000034" class="node">
<title>Node34</title>
<g id="a_Node000034"><a xlink:href="../../d0/d4a/classStreamBaseClass_ae35297f11506f154597015f9216b72df.xhtml#ae35297f11506f154597015f9216b72df" target="_top" xlink:title=" ">
<polygon fill="white" stroke="#666666" points="603,-167 471,-167 471,-148 603,-148 603,-167"/>
<text text-anchor="middle" x="537" y="-155" font-family="Helvetica,sans-Serif" font-size="10.00">StreamBaseClass::open</text>
</a>
</g>
</g>
<!-- Node1&#45;&gt;Node34 -->
<g id="edge36_Node000001_Node000034" class="edge">
<title>Node1&#45;&gt;Node34</title>
<g id="a_edge36_Node000001_Node000034"><a xlink:title=" ">
<path fill="none" stroke="#63b8ff" d="M674.11,-267.5C662.87,-242.79 639.91,-200.02 607,-176.5 601.54,-172.6 595.32,-169.5 588.89,-167.03"/>
<polygon fill="#63b8ff" stroke="#63b8ff" points="670.99,-269.11 678.2,-276.87 677.41,-266.31 670.99,-269.11"/>
</a>
</g>
</g>
<!-- Node41 -->
<g id="Node000041" class="node">
<title>Node41</title>
<g id="a_Node000041"><a xlink:href="../../d3/db4/classFatFile_a22c2b68a8a426758d15981de17431b5d.xhtml#a22c2b68a8a426758d15981de17431b5d" target="_top" xlink:title=" ">
<polygon fill="white" stroke="#666666" points="576,-130 498,-130 498,-111 576,-111 576,-130"/>
<text text-anchor="middle" x="537" y="-118" font-family="Helvetica,sans-Serif" font-size="10.00">FatFile::open</text>
</a>
</g>
</g>
<!-- Node1&#45;&gt;Node41 -->
<g id="edge43_Node000001_Node000041" class="edge">
<title>Node1&#45;&gt;Node41</title>
<g id="a_edge43_Node000001_Node000041"><a xlink:title=" ">
<path fill="none" stroke="#63b8ff" d="M677.52,-267.12C669.2,-235.55 648.32,-173.18 607,-139.5 598.24,-132.36 586.98,-127.89 576.12,-125.1"/>
<polygon fill="#63b8ff" stroke="#63b8ff" points="674.14,-268.05 679.95,-276.91 680.93,-266.36 674.14,-268.05"/>
</a>
</g>
</g>
<!-- Node42 -->
<g id="Node000042" class="node">
<title>Node42</title>
<g id="a_Node000042"><a xlink:href="../../d3/db4/classFatFile_a5318ee7a7700ff23721497945fba363d.xhtml#a5318ee7a7700ff23721497945fba363d" target="_top" xlink:title=" ">
<polygon fill="white" stroke="#666666" points="576,-93 498,-93 498,-74 576,-74 576,-93"/>
<text text-anchor="middle" x="537" y="-81" font-family="Helvetica,sans-Serif" font-size="10.00">FatFile::open</text>
</a>
</g>
</g>
<!-- Node1&#45;&gt;Node42 -->
<g id="edge44_Node000001_Node000042" class="edge">
<title>Node1&#45;&gt;Node42</title>
<g id="a_edge44_Node000001_Node000042"><a xlink:title=" ">
<path fill="none" stroke="#63b8ff" d="M679.66,-266.61C674.13,-228.87 656.79,-146.72 607,-102.5 598.45,-94.91 587.14,-90.32 576.15,-87.56"/>
<polygon fill="#63b8ff" stroke="#63b8ff" points="676.22,-267.35 681.01,-276.8 683.16,-266.43 676.22,-267.35"/>
</a>
</g>
</g>
<!-- Node43 -->
<g id="Node000043" class="node">
<title>Node43</title>
<g id="a_Node000043"><a xlink:href="../../d0/ded/sd_8cpp_a5b86241374c9a379af845d4adaa170b5.xhtml#a5b86241374c9a379af845d4adaa170b5" target="_top" xlink:title="Sauvegarde des données sur la carte SD.">
<polygon fill="white" stroke="#666666" points="568.5,-56 505.5,-56 505.5,-37 568.5,-37 568.5,-56"/>
<text text-anchor="middle" x="537" y="-44" font-family="Helvetica,sans-Serif" font-size="10.00">saveData</text>
</a>
</g>
</g>
<!-- Node1&#45;&gt;Node43 -->
<g id="edge45_Node000001_Node000043" class="edge">
<title>Node1&#45;&gt;Node43</title>
<g id="a_edge45_Node000001_Node000043"><a xlink:title=" ">
<path fill="none" stroke="#63b8ff" d="M681.23,-266.87C678.47,-223.88 665.71,-120.88 607,-65.5 596.7,-55.78 581.89,-50.95 568.63,-48.58"/>
<polygon fill="#63b8ff" stroke="#63b8ff" points="677.74,-267.07 681.76,-276.88 684.73,-266.71 677.74,-267.07"/>
</a>
</g>
</g>
<!-- Node3 -->
<g id="Node000003" class="node">
<title>Node3</title>
<g id="a_Node000003"><a xlink:href="../../d3/dd5/classFatVolume_aca9d690376f26a80938564bc0138e21a.xhtml#aca9d690376f26a80938564bc0138e21a" target="_top" xlink:title=" ">
<polygon fill="white" stroke="#666666" points="413.5,-685 312.5,-685 312.5,-666 413.5,-666 413.5,-685"/>
<text text-anchor="middle" x="363" y="-673" font-family="Helvetica,sans-Serif" font-size="10.00">FatVolume::begin</text>
</a>
</g>
</g>
<!-- Node2&#45;&gt;Node3 -->
<g id="edge2_Node000002_Node000003" class="edge">
<title>Node2&#45;&gt;Node3</title>
<g id="a_edge2_Node000002_Node000003"><a xlink:title=" ">
<path fill="none" stroke="#63b8ff" d="M477.66,-662.94C456.92,-665.24 433.77,-667.79 413.8,-670"/>
<polygon fill="#63b8ff" stroke="#63b8ff" points="478.08,-666.42 487.63,-661.84 477.31,-659.46 478.08,-666.42"/>
</a>
</g>
</g>
<!-- Node4 -->
<g id="Node000004" class="node">
<title>Node4</title>
<g id="a_Node000004"><a xlink:href="../../d4/d27/classFsVolume_a5acb97d16ad71be085886d4d5af2e909.xhtml#a5acb97d16ad71be085886d4d5af2e909" target="_top" xlink:title=" ">
<polygon fill="white" stroke="#666666" points="244,-685 146,-685 146,-666 244,-666 244,-685"/>
<text text-anchor="middle" x="195" y="-673" font-family="Helvetica,sans-Serif" font-size="10.00">FsVolume::begin</text>
</a>
</g>
</g>
<!-- Node3&#45;&gt;Node4 -->
<g id="edge3_Node000003_Node000004" class="edge">
<title>Node3&#45;&gt;Node4</title>
<g id="a_edge3_Node000003_Node000004"><a xlink:title=" ">
<path fill="none" stroke="#63b8ff" d="M302.11,-675.5C283.03,-675.5 262.19,-675.5 244.06,-675.5"/>
<polygon fill="#63b8ff" stroke="#63b8ff" points="302.19,-679 312.19,-675.5 302.19,-672 302.19,-679"/>
</a>
</g>
</g>
<!-- Node6 -->
<g id="Node000006" class="node">
<title>Node6</title>
<g id="a_Node000006"><a xlink:href="../../d0/db5/classFsBaseFile_a8b7aa7f2c63882e483336dfe12ef6800.xhtml#a8b7aa7f2c63882e483336dfe12ef6800" target="_top" xlink:title=" ">
<polygon fill="white" stroke="#666666" points="415,-574 311,-574 311,-555 415,-555 415,-574"/>
<text text-anchor="middle" x="363" y="-562" font-family="Helvetica,sans-Serif" font-size="10.00">FsBaseFile::mkdir</text>
</a>
</g>
</g>
<!-- Node5&#45;&gt;Node6 -->
<g id="edge5_Node000005_Node000006" class="edge">
<title>Node5&#45;&gt;Node6</title>
<g id="a_edge5_Node000005_Node000006"><a xlink:title=" ">
<path fill="none" stroke="#63b8ff" d="M523.84,-452.84C506.3,-477.82 471.54,-522.2 431,-546.5 425.32,-549.91 418.99,-552.68 412.54,-554.93"/>
<polygon fill="#63b8ff" stroke="#63b8ff" points="526.92,-454.53 529.69,-444.3 521.15,-450.57 526.92,-454.53"/>
</a>
</g>
</g>
<!-- Node7 -->
<g id="Node000007" class="node">
<title>Node7</title>
<g id="a_Node000007"><a xlink:href="../../d0/db5/classFsBaseFile_aa767859d4a4b4716ebbc4ea42a6d74df.xhtml#aa767859d4a4b4716ebbc4ea42a6d74df" target="_top" xlink:title=" ">
<polygon fill="white" stroke="#666666" points="412.5,-537 313.5,-537 313.5,-518 412.5,-518 412.5,-537"/>
<text text-anchor="middle" x="363" y="-525" font-family="Helvetica,sans-Serif" font-size="10.00">FsBaseFile::open</text>
</a>
</g>
</g>
<!-- Node5&#45;&gt;Node7 -->
<g id="edge6_Node000005_Node000007" class="edge">
<title>Node5&#45;&gt;Node7</title>
<g id="a_edge6_Node000005_Node000007"><a xlink:title=" ">
<path fill="none" stroke="#63b8ff" d="M517.8,-450.63C497.81,-467.56 464.14,-493.84 431,-509.5 423.92,-512.84 416.12,-515.65 408.41,-517.98"/>
<polygon fill="#63b8ff" stroke="#63b8ff" points="520.19,-453.19 525.48,-444.01 515.62,-447.89 520.19,-453.19"/>
</a>
</g>
</g>
<!-- Node12 -->
<g id="Node000012" class="node">
<title>Node12</title>
<g id="a_Node000012"><a xlink:href="../../d0/db5/classFsBaseFile_a4743d118f085f6a13692d12bdd3c4556.xhtml#a4743d118f085f6a13692d12bdd3c4556" target="_top" xlink:title=" ">
<polygon fill="white" stroke="#666666" points="412.5,-500 313.5,-500 313.5,-481 412.5,-481 412.5,-500"/>
<text text-anchor="middle" x="363" y="-488" font-family="Helvetica,sans-Serif" font-size="10.00">FsBaseFile::open</text>
</a>
</g>
</g>
<!-- Node5&#45;&gt;Node12 -->
<g id="edge11_Node000005_Node000012" class="edge">
<title>Node5&#45;&gt;Node12</title>
<g id="a_edge11_Node000005_Node000012"><a xlink:title=" ">
<path fill="none" stroke="#63b8ff" d="M501.68,-447.75C481.29,-455.42 454.84,-465 431,-472.5 421.58,-475.46 411.32,-478.38 401.72,-480.97"/>
<polygon fill="#63b8ff" stroke="#63b8ff" points="503.06,-450.97 511.17,-444.16 500.58,-444.43 503.06,-450.97"/>
</a>
</g>
</g>
<!-- Node13 -->
<g id="Node000013" class="node">
<title>Node13</title>
<g id="a_Node000013"><a xlink:href="../../d0/db5/classFsBaseFile_a0186e56b21fd584b02db4b763df05f64.xhtml#a0186e56b21fd584b02db4b763df05f64" target="_top" xlink:title=" ">
<polygon fill="white" stroke="#666666" points="412.5,-463 313.5,-463 313.5,-444 412.5,-444 412.5,-463"/>
<text text-anchor="middle" x="363" y="-451" font-family="Helvetica,sans-Serif" font-size="10.00">FsBaseFile::open</text>
</a>
</g>
</g>
<!-- Node5&#45;&gt;Node13 -->
<g id="edge12_Node000005_Node000013" class="edge">
<title>Node5&#45;&gt;Node13</title>
<g id="a_edge12_Node000005_Node000013"><a xlink:title=" ">
<path fill="none" stroke="#63b8ff" d="M476.27,-441.1C455.52,-443.39 432.51,-445.93 412.75,-448.12"/>
<polygon fill="#63b8ff" stroke="#63b8ff" points="476.7,-444.57 486.25,-440 475.93,-437.61 476.7,-444.57"/>
</a>
</g>
</g>
<!-- Node14 -->
<g id="Node000014" class="node">
<title>Node14</title>
<g id="a_Node000014"><a xlink:href="../../d0/db5/classFsBaseFile_acdb7fd29ecf8db85d790e6b4acf24c9d.xhtml#acdb7fd29ecf8db85d790e6b4acf24c9d" target="_top" xlink:title=" ">
<polygon fill="white" stroke="#666666" points="423,-426 303,-426 303,-407 423,-407 423,-426"/>
<text text-anchor="middle" x="363" y="-414" font-family="Helvetica,sans-Serif" font-size="10.00">FsBaseFile::openCwd</text>
</a>
</g>
</g>
<!-- Node5&#45;&gt;Node14 -->
<g id="edge13_Node000005_Node000014" class="edge">
<title>Node5&#45;&gt;Node14</title>
<g id="a_edge13_Node000005_Node000014"><a xlink:title=" ">
<path fill="none" stroke="#63b8ff" d="M476.3,-428.25C459.07,-426.45 440.27,-424.48 423.07,-422.68"/>
<polygon fill="#63b8ff" stroke="#63b8ff" points="475.94,-431.73 486.25,-429.29 476.67,-424.77 475.94,-431.73"/>
</a>
</g>
</g>
<!-- Node16 -->
<g id="Node000016" class="node">
<title>Node16</title>
<g id="a_Node000016"><a xlink:href="../../d0/db5/classFsBaseFile_acb9b1075f4db76fa7e0521c9aff9c3df.xhtml#acb9b1075f4db76fa7e0521c9aff9c3df" target="_top" xlink:title=" ">
<polygon fill="white" stroke="#666666" points="424,-389 302,-389 302,-370 424,-370 424,-389"/>
<text text-anchor="middle" x="363" y="-377" font-family="Helvetica,sans-Serif" font-size="10.00">FsBaseFile::openNext</text>
</a>
</g>
</g>
<!-- Node5&#45;&gt;Node16 -->
<g id="edge15_Node000005_Node000016" class="edge">
<title>Node5&#45;&gt;Node16</title>
<g id="a_edge15_Node000005_Node000016"><a xlink:title=" ">
<path fill="none" stroke="#63b8ff" d="M483.93,-422.16C478.16,-420.43 472.42,-418.54 467,-416.5 450.25,-410.21 447.68,-404.97 431,-398.5 421.87,-394.96 411.81,-391.76 402.32,-389.03"/>
<polygon fill="#63b8ff" stroke="#63b8ff" points="483.02,-425.55 493.6,-424.93 484.95,-418.82 483.02,-425.55"/>
</a>
</g>
</g>
<!-- Node18 -->
<g id="Node000018" class="node">
<title>Node18</title>
<g id="a_Node000018"><a xlink:href="../../d0/db5/classFsBaseFile_a0b4574665073272dd811224df9f0e23c.xhtml#a0b4574665073272dd811224df9f0e23c" target="_top" xlink:title=" ">
<polygon fill="white" stroke="#666666" points="424,-352 302,-352 302,-333 424,-333 424,-352"/>
<text text-anchor="middle" x="363" y="-340" font-family="Helvetica,sans-Serif" font-size="10.00">FsBaseFile::openRoot</text>
</a>
</g>
</g>
<!-- Node5&#45;&gt;Node18 -->
<g id="edge17_Node000005_Node000018" class="edge">
<title>Node5&#45;&gt;Node18</title>
<g id="a_edge17_Node000005_Node000018"><a xlink:title=" ">
<path fill="none" stroke="#63b8ff" d="M476.95,-422.39C473.45,-420.68 470.1,-418.73 467,-416.5 443.28,-399.45 454.54,-378.8 431,-361.5 425.74,-357.63 419.72,-354.55 413.49,-352.1"/>
<polygon fill="#63b8ff" stroke="#63b8ff" points="475.91,-425.75 486.48,-426.37 478.61,-419.29 475.91,-425.75"/>
</a>
</g>
</g>
<!-- Node19 -->
<g id="Node000019" class="node">
<title>Node19</title>
<g id="a_Node000019"><a xlink:href="../../d0/db5/classFsBaseFile_ae4f6d168072bb4f2a61976f621659d20.xhtml#ae4f6d168072bb4f2a61976f621659d20" target="_top" xlink:title=" ">
<polygon fill="white" stroke="#666666" points="425.5,-315 300.5,-315 300.5,-296 425.5,-296 425.5,-315"/>
<text text-anchor="middle" x="363" y="-303" font-family="Helvetica,sans-Serif" font-size="10.00">FsBaseFile::operator=</text>
</a>
</g>
</g>
<!-- Node5&#45;&gt;Node19 -->
<g id="edge18_Node000005_Node000019" class="edge">
<title>Node5&#45;&gt;Node19</title>
<g id="a_edge18_Node000005_Node000019"><a xlink:title=" ">
<path fill="none" stroke="#63b8ff" d="M477.03,-423.46C473.43,-421.5 470.04,-419.2 467,-416.5 434.18,-387.33 463.51,-354.01 431,-324.5 426.7,-320.6 421.66,-317.49 416.31,-315.02"/>
<polygon fill="#63b8ff" stroke="#63b8ff" points="475.8,-426.75 486.36,-427.68 478.69,-420.37 475.8,-426.75"/>
</a>
</g>
</g>
<!-- Node20 -->
<g id="Node000020" class="node">
<title>Node20</title>
<g id="a_Node000020"><a xlink:href="../../d0/db5/classFsBaseFile_ab148c0eb86197666a251a2f0a15f2a02.xhtml#ab148c0eb86197666a251a2f0a15f2a02" target="_top" xlink:title=" ">
<polygon fill="white" stroke="#666666" points="431,-278 295,-278 295,-259 431,-259 431,-278"/>
<text text-anchor="middle" x="363" y="-266" font-family="Helvetica,sans-Serif" font-size="10.00">FsBaseFile::~FsBaseFile</text>
</a>
</g>
</g>
<!-- Node5&#45;&gt;Node20 -->
<g id="edge19_Node000005_Node000020" class="edge">
<title>Node5&#45;&gt;Node20</title>
<g id="a_edge19_Node000005_Node000020"><a xlink:title=" ">
<path fill="none" stroke="#63b8ff" d="M476.89,-423.91C473.29,-421.84 469.94,-419.4 467,-416.5 424.55,-374.77 473,-329.68 431,-287.5 427.16,-283.64 422.6,-280.56 417.69,-278.09"/>
<polygon fill="#63b8ff" stroke="#63b8ff" points="475.72,-427.22 486.26,-428.29 478.69,-420.88 475.72,-427.22"/>
</a>
</g>
</g>
<!-- Node8 -->
<g id="Node000008" class="node">
<title>Node8</title>
<g id="a_Node000008"><a xlink:href="../../d0/db5/classFsBaseFile_a6034c6dfce320e2869901890398831b4.xhtml#a6034c6dfce320e2869901890398831b4" target="_top" xlink:title=" ">
<polygon fill="white" stroke="#666666" points="259,-574 131,-574 131,-555 259,-555 259,-574"/>
<text text-anchor="middle" x="195" y="-562" font-family="Helvetica,sans-Serif" font-size="10.00">FsBaseFile::FsBaseFile</text>
</a>
</g>
</g>
<!-- Node7&#45;&gt;Node8 -->
<g id="edge7_Node000007_Node000008" class="edge">
<title>Node7&#45;&gt;Node8</title>
<g id="a_edge7_Node000007_Node000008"><a xlink:title=" ">
<path fill="none" stroke="#63b8ff" d="M309.42,-539.22C286.69,-544.29 260.42,-550.14 238.89,-554.94"/>
<polygon fill="#63b8ff" stroke="#63b8ff" points="310.25,-542.62 319.25,-537.03 308.73,-535.79 310.25,-542.62"/>
</a>
</g>
</g>
<!-- Node9 -->
<g id="Node000009" class="node">
<title>Node9</title>
<g id="a_Node000009"><a xlink:href="../../d4/d27/classFsVolume_ab429316ed9e57a52ecfb938aca7dff6c.xhtml#ab429316ed9e57a52ecfb938aca7dff6c" target="_top" xlink:title=" ">
<polygon fill="white" stroke="#666666" points="234.5,-537 155.5,-537 155.5,-518 234.5,-518 234.5,-537"/>
<text text-anchor="middle" x="195" y="-525" font-family="Helvetica,sans-Serif" font-size="10.00">FsVolume::ls</text>
</a>
</g>
</g>
<!-- Node7&#45;&gt;Node9 -->
<g id="edge8_Node000007_Node000009" class="edge">
<title>Node7&#45;&gt;Node9</title>
<g id="a_edge8_Node000007_Node000009"><a xlink:title=" ">
<path fill="none" stroke="#63b8ff" d="M302.87,-527.5C280.16,-527.5 254.85,-527.5 234.57,-527.5"/>
<polygon fill="#63b8ff" stroke="#63b8ff" points="303.09,-531 313.09,-527.5 303.09,-524 303.09,-531"/>
</a>
</g>
</g>
<!-- Node10 -->
<g id="Node000010" class="node">
<title>Node10</title>
<g id="a_Node000010"><a xlink:href="../../d4/d27/classFsVolume_a6d51ed047796f7d382384c60c7bfac75.xhtml#a6d51ed047796f7d382384c60c7bfac75" target="_top" xlink:title=" ">
<polygon fill="white" stroke="#666666" points="242.5,-500 147.5,-500 147.5,-481 242.5,-481 242.5,-500"/>
<text text-anchor="middle" x="195" y="-488" font-family="Helvetica,sans-Serif" font-size="10.00">FsVolume::open</text>
</a>
</g>
</g>
<!-- Node7&#45;&gt;Node10 -->
<g id="edge9_Node000007_Node000010" class="edge">
<title>Node7&#45;&gt;Node10</title>
<g id="a_edge9_Node000007_Node000010"><a xlink:title=" ">
<path fill="none" stroke="#63b8ff" d="M309.42,-515.78C286.69,-510.71 260.42,-504.86 238.89,-500.06"/>
<polygon fill="#63b8ff" stroke="#63b8ff" points="308.73,-519.21 319.25,-517.97 310.25,-512.38 308.73,-519.21"/>
</a>
</g>
</g>
<!-- Node11 -->
<g id="Node000011" class="node">
<title>Node11</title>
<g id="a_Node000011"><a xlink:href="../../d4/d27/classFsVolume_ad41f53fd35fa60aa8972ac2036dae4de.xhtml#ad41f53fd35fa60aa8972ac2036dae4de" target="_top" xlink:title=" ">
<polygon fill="white" stroke="#666666" points="95,-500 0,-500 0,-481 95,-481 95,-500"/>
<text text-anchor="middle" x="47.5" y="-488" font-family="Helvetica,sans-Serif" font-size="10.00">FsVolume::open</text>
</a>
</g>
</g>
<!-- Node10&#45;&gt;Node11 -->
<g id="edge10_Node000010_Node000011" class="edge">
<title>Node10&#45;&gt;Node11</title>
<g id="a_edge10_Node000010_Node000011"><a xlink:title=" ">
<path fill="none" stroke="#63b8ff" d="M136.82,-490.5C123.04,-490.5 108.48,-490.5 95.25,-490.5"/>
<polygon fill="#63b8ff" stroke="#63b8ff" points="137.16,-494 147.16,-490.5 137.16,-487 137.16,-494"/>
</a>
</g>
</g>
<!-- Node15 -->
<g id="Node000015" class="node">
<title>Node15</title>
<g id="a_Node000015"><a xlink:href="../../d0/db5/classFsBaseFile_a59568fad94a70ea88e167ac8fb4bd43c.xhtml#a59568fad94a70ea88e167ac8fb4bd43c" target="_top" xlink:title=" ">
<polygon fill="white" stroke="#666666" points="244.5,-426 145.5,-426 145.5,-407 244.5,-407 244.5,-426"/>
<text text-anchor="middle" x="195" y="-414" font-family="Helvetica,sans-Serif" font-size="10.00">FsBaseFile::open</text>
</a>
</g>
</g>
<!-- Node14&#45;&gt;Node15 -->
<g id="edge14_Node000014_Node000015" class="edge">
<title>Node14&#45;&gt;Node15</title>
<g id="a_edge14_Node000014_Node000015"><a xlink:title=" ">
<path fill="none" stroke="#63b8ff" d="M292.16,-416.5C276.18,-416.5 259.54,-416.5 244.67,-416.5"/>
<polygon fill="#63b8ff" stroke="#63b8ff" points="292.54,-420 302.54,-416.5 292.54,-413 292.54,-420"/>
</a>
</g>
</g>
<!-- Node17 -->
<g id="Node000017" class="node">
<title>Node17</title>
<g id="a_Node000017"><a xlink:href="../../d5/d4f/classFsFile_ab2f85961e3831d0d654da862becb7433.xhtml#ab2f85961e3831d0d654da862becb7433" target="_top" xlink:title=" ">
<polygon fill="white" stroke="#666666" points="253,-389 137,-389 137,-370 253,-370 253,-389"/>
<text text-anchor="middle" x="195" y="-377" font-family="Helvetica,sans-Serif" font-size="10.00">FsFile::openNextFile</text>
</a>
</g>
</g>
<!-- Node16&#45;&gt;Node17 -->
<g id="edge16_Node000016_Node000017" class="edge">
<title>Node16&#45;&gt;Node17</title>
<g id="a_edge16_Node000016_Node000017"><a xlink:title=" ">
<path fill="none" stroke="#63b8ff" d="M291.43,-379.5C278.62,-379.5 265.4,-379.5 253.04,-379.5"/>
<polygon fill="#63b8ff" stroke="#63b8ff" points="291.6,-383 301.6,-379.5 291.6,-376 291.6,-383"/>
</a>
</g>
</g>
<!-- Node26&#45;&gt;Node26 -->
<g id="edge29_Node000026_Node000026" class="edge">
<title>Node26&#45;&gt;Node26</title>
<g id="a_edge29_Node000026_Node000026"><a xlink:title=" ">
<path fill="none" stroke="#63b8ff" d="M564.16,-213.19C562.68,-218.2 553.62,-222 537,-222 511.05,-222 503.55,-212.73 514.5,-204.08"/>
<polygon fill="#63b8ff" stroke="#63b8ff" points="567.17,-211.39 559.5,-204.08 560.94,-214.58 567.17,-211.39"/>
</a>
</g>
</g>
<!-- Node27 -->
<g id="Node000027" class="node">
<title>Node27</title>
<g id="a_Node000027"><a xlink:href="../../d3/dd5/classFatVolume_ac5fc83cac7fd3af0b140a7986b9472f8.xhtml#ac5fc83cac7fd3af0b140a7986b9472f8" target="_top" xlink:title=" ">
<polygon fill="white" stroke="#666666" points="404,-241 322,-241 322,-222 404,-222 404,-241"/>
<text text-anchor="middle" x="363" y="-229" font-family="Helvetica,sans-Serif" font-size="10.00">FatVolume::ls</text>
</a>
</g>
</g>
<!-- Node26&#45;&gt;Node27 -->
<g id="edge26_Node000026_Node000027" class="edge">
<title>Node26&#45;&gt;Node27</title>
<g id="a_edge26_Node000026_Node000027"><a xlink:title=" ">
<path fill="none" stroke="#63b8ff" d="M495.54,-203.2C467.95,-209.14 431.57,-216.96 404.07,-222.88"/>
<polygon fill="#63b8ff" stroke="#63b8ff" points="496.61,-206.55 505.65,-201.03 495.13,-199.71 496.61,-206.55"/>
</a>
</g>
</g>
<!-- Node28 -->
<g id="Node000028" class="node">
<title>Node28</title>
<g id="a_Node000028"><a xlink:href="../../d3/dd5/classFatVolume_ae40964f357cfff4208812344a0e6f26f.xhtml#ae40964f357cfff4208812344a0e6f26f" target="_top" xlink:title=" ">
<polygon fill="white" stroke="#666666" points="404,-204 322,-204 322,-185 404,-185 404,-204"/>
<text text-anchor="middle" x="363" y="-192" font-family="Helvetica,sans-Serif" font-size="10.00">FatVolume::ls</text>
</a>
</g>
</g>
<!-- Node26&#45;&gt;Node28 -->
<g id="edge27_Node000026_Node000028" class="edge">
<title>Node26&#45;&gt;Node28</title>
<g id="a_edge27_Node000026_Node000028"><a xlink:title=" ">
<path fill="none" stroke="#63b8ff" d="M495.54,-194.5C467.95,-194.5 431.57,-194.5 404.07,-194.5"/>
<polygon fill="#63b8ff" stroke="#63b8ff" points="495.65,-198 505.65,-194.5 495.65,-191 495.65,-198"/>
</a>
</g>
</g>
<!-- Node29 -->
<g id="Node000029" class="node">
<title>Node29</title>
<g id="a_Node000029"><a xlink:href="../../d3/dd5/classFatVolume_a455ad7b2a5b6b31551dca08087a3c404.xhtml#a455ad7b2a5b6b31551dca08087a3c404" target="_top" xlink:title=" ">
<polygon fill="white" stroke="#666666" points="236,-204 154,-204 154,-185 236,-185 236,-204"/>
<text text-anchor="middle" x="195" y="-192" font-family="Helvetica,sans-Serif" font-size="10.00">FatVolume::ls</text>
</a>
</g>
</g>
<!-- Node28&#45;&gt;Node29 -->
<g id="edge28_Node000028_Node000029" class="edge">
<title>Node28&#45;&gt;Node29</title>
<g id="a_edge28_Node000028_Node000029"><a xlink:title=" ">
<path fill="none" stroke="#63b8ff" d="M311.73,-194.5C287.5,-194.5 258.84,-194.5 236.1,-194.5"/>
<polygon fill="#63b8ff" stroke="#63b8ff" points="311.82,-198 321.82,-194.5 311.82,-191 311.82,-198"/>
</a>
</g>
</g>
<!-- Node30&#45;&gt;Node6 -->
<g id="edge34_Node000030_Node000006" class="edge">
<title>Node30&#45;&gt;Node6</title>
<g id="a_edge34_Node000030_Node000006"><a xlink:title=" ">
<path fill="none" stroke="#63b8ff" d="M485.08,-577.17C463.05,-574.87 437.32,-572.17 415.26,-569.86"/>
<polygon fill="#63b8ff" stroke="#63b8ff" points="484.93,-580.67 495.24,-578.23 485.66,-573.71 484.93,-580.67"/>
</a>
</g>
</g>
<!-- Node30&#45;&gt;Node30 -->
<g id="edge33_Node000030_Node000030" class="edge">
<title>Node30&#45;&gt;Node30</title>
<g id="a_edge33_Node000030_Node000030"><a xlink:title=" ">
<path fill="none" stroke="#63b8ff" d="M564.16,-601.19C562.68,-606.2 553.62,-610 537,-610 511.05,-610 503.55,-600.73 514.5,-592.08"/>
<polygon fill="#63b8ff" stroke="#63b8ff" points="567.17,-599.39 559.5,-592.08 560.94,-602.58 567.17,-599.39"/>
</a>
</g>
</g>
<!-- Node31 -->
<g id="Node000031" class="node">
<title>Node31</title>
<g id="a_Node000031"><a xlink:href="../../d3/dd5/classFatVolume_ad80bccf8f24ff001a7b9277effc2cc52.xhtml#ad80bccf8f24ff001a7b9277effc2cc52" target="_top" xlink:title=" ">
<polygon fill="white" stroke="#666666" points="414,-648 312,-648 312,-629 414,-629 414,-648"/>
<text text-anchor="middle" x="363" y="-636" font-family="Helvetica,sans-Serif" font-size="10.00">FatVolume::mkdir</text>
</a>
</g>
</g>
<!-- Node30&#45;&gt;Node31 -->
<g id="edge31_Node000030_Node000031" class="edge">
<title>Node30&#45;&gt;Node31</title>
<g id="a_edge31_Node000030_Node000031"><a xlink:title=" ">
<path fill="none" stroke="#63b8ff" d="M501.68,-595.75C481.29,-603.42 454.84,-613 431,-620.5 421.58,-623.46 411.32,-626.38 401.72,-628.97"/>
<polygon fill="#63b8ff" stroke="#63b8ff" points="503.06,-598.97 511.17,-592.16 500.58,-592.43 503.06,-598.97"/>
</a>
</g>
</g>
<!-- Node33 -->
<g id="Node000033" class="node">
<title>Node33</title>
<g id="a_Node000033"><a xlink:href="../../d3/db4/classFatFile_a4b42f2454ff462555c07ea094a92a1e0.xhtml#a4b42f2454ff462555c07ea094a92a1e0" target="_top" xlink:title=" ">
<polygon fill="white" stroke="#666666" points="409,-611 317,-611 317,-592 409,-592 409,-611"/>
<text text-anchor="middle" x="363" y="-599" font-family="Helvetica,sans-Serif" font-size="10.00">FatFile::rename</text>
</a>
</g>
</g>
<!-- Node30&#45;&gt;Node33 -->
<g id="edge35_Node000030_Node000033" class="edge">
<title>Node30&#45;&gt;Node33</title>
<g id="a_edge35_Node000030_Node000033"><a xlink:title=" ">
<path fill="none" stroke="#63b8ff" d="M485.18,-588.11C461.02,-590.78 432.37,-593.95 409,-596.53"/>
<polygon fill="#63b8ff" stroke="#63b8ff" points="485.68,-591.58 495.24,-587 484.91,-584.62 485.68,-591.58"/>
</a>
</g>
</g>
<!-- Node32 -->
<g id="Node000032" class="node">
<title>Node32</title>
<g id="a_Node000032"><a xlink:href="../../d3/dd5/classFatVolume_ab423ec4f7e5b58a6d454f328f61fd864.xhtml#ab423ec4f7e5b58a6d454f328f61fd864" target="_top" xlink:title=" ">
<polygon fill="white" stroke="#666666" points="246,-648 144,-648 144,-629 246,-629 246,-648"/>
<text text-anchor="middle" x="195" y="-636" font-family="Helvetica,sans-Serif" font-size="10.00">FatVolume::mkdir</text>
</a>
</g>
</g>
<!-- Node31&#45;&gt;Node32 -->
<g id="edge32_Node000031_Node000032" class="edge">
<title>Node31&#45;&gt;Node32</title>
<g id="a_edge32_Node000031_Node000032"><a xlink:title=" ">
<path fill="none" stroke="#63b8ff" d="M301.52,-638.5C283.32,-638.5 263.54,-638.5 246.09,-638.5"/>
<polygon fill="#63b8ff" stroke="#63b8ff" points="301.74,-642 311.74,-638.5 301.74,-635 301.74,-642"/>
</a>
</g>
</g>
<!-- Node35 -->
<g id="Node000035" class="node">
<title>Node35</title>
<g id="a_Node000035"><a xlink:href="../../d0/d68/classifstream_a169694d6535fd551fd6db48a2867590e.xhtml#a169694d6535fd551fd6db48a2867590e" target="_top" xlink:title=" ">
<polygon fill="white" stroke="#666666" points="407,-167 319,-167 319,-148 407,-148 407,-167"/>
<text text-anchor="middle" x="363" y="-155" font-family="Helvetica,sans-Serif" font-size="10.00">ifstream::open</text>
</a>
</g>
</g>
<!-- Node34&#45;&gt;Node35 -->
<g id="edge37_Node000034_Node000035" class="edge">
<title>Node34&#45;&gt;Node35</title>
<g id="a_edge37_Node000034_Node000035"><a xlink:title=" ">
<path fill="none" stroke="#63b8ff" d="M460.87,-157.5C442.53,-157.5 423.51,-157.5 407.24,-157.5"/>
<polygon fill="#63b8ff" stroke="#63b8ff" points="460.97,-161 470.97,-157.5 460.97,-154 460.97,-161"/>
</a>
</g>
</g>
<!-- Node37 -->
<g id="Node000037" class="node">
<title>Node37</title>
<g id="a_Node000037"><a xlink:href="../../d7/df9/classfstream_a85b24d94552991f33caf4c3a83420879.xhtml#a85b24d94552991f33caf4c3a83420879" target="_top" xlink:title=" ">
<polygon fill="white" stroke="#666666" points="405.5,-130 320.5,-130 320.5,-111 405.5,-111 405.5,-130"/>
<text text-anchor="middle" x="363" y="-118" font-family="Helvetica,sans-Serif" font-size="10.00">fstream::open</text>
</a>
</g>
</g>
<!-- Node34&#45;&gt;Node37 -->
<g id="edge39_Node000034_Node000037" class="edge">
<title>Node34&#45;&gt;Node37</title>
<g id="a_edge39_Node000034_Node000037"><a xlink:title=" ">
<path fill="none" stroke="#63b8ff" d="M481.81,-145.84C457.24,-140.56 428.64,-134.41 405.78,-129.49"/>
<polygon fill="#63b8ff" stroke="#63b8ff" points="481.19,-149.29 491.71,-147.97 482.67,-142.45 481.19,-149.29"/>
</a>
</g>
</g>
<!-- Node39 -->
<g id="Node000039" class="node">
<title>Node39</title>
<g id="a_Node000039"><a xlink:href="../../d9/d93/classofstream_a4b9d30c742fbe01baa336406c7afdcb2.xhtml#a4b9d30c742fbe01baa336406c7afdcb2" target="_top" xlink:title=" ">
<polygon fill="white" stroke="#666666" points="408.5,-93 317.5,-93 317.5,-74 408.5,-74 408.5,-93"/>
<text text-anchor="middle" x="363" y="-81" font-family="Helvetica,sans-Serif" font-size="10.00">ofstream::open</text>
</a>
</g>
</g>
<!-- Node34&#45;&gt;Node39 -->
<g id="edge41_Node000034_Node000039" class="edge">
<title>Node34&#45;&gt;Node39</title>
<g id="a_edge41_Node000034_Node000039"><a xlink:title=" ">
<path fill="none" stroke="#63b8ff" d="M476.55,-144.3C473.24,-142.86 470.03,-141.27 467,-139.5 447.17,-127.96 450.71,-114.25 431,-102.5 424.15,-98.41 416.37,-95.17 408.61,-92.61"/>
<polygon fill="#63b8ff" stroke="#63b8ff" points="475.48,-147.64 486.07,-147.97 478,-141.11 475.48,-147.64"/>
</a>
</g>
</g>
<!-- Node36 -->
<g id="Node000036" class="node">
<title>Node36</title>
<g id="a_Node000036"><a xlink:href="../../d0/d68/classifstream_a11f4bfaa5c37cfcf8878c367fd861a88.xhtml#a11f4bfaa5c37cfcf8878c367fd861a88" target="_top" xlink:title=" ">
<polygon fill="white" stroke="#666666" points="247.5,-167 142.5,-167 142.5,-148 247.5,-148 247.5,-167"/>
<text text-anchor="middle" x="195" y="-155" font-family="Helvetica,sans-Serif" font-size="10.00">ifstream::ifstream</text>
</a>
</g>
</g>
<!-- Node35&#45;&gt;Node36 -->
<g id="edge38_Node000035_Node000036" class="edge">
<title>Node35&#45;&gt;Node36</title>
<g id="a_edge38_Node000035_Node000036"><a xlink:title=" ">
<path fill="none" stroke="#63b8ff" d="M308.82,-157.5C289.19,-157.5 267,-157.5 247.53,-157.5"/>
<polygon fill="#63b8ff" stroke="#63b8ff" points="308.82,-161 318.82,-157.5 308.82,-154 308.82,-161"/>
</a>
</g>
</g>
<!-- Node38 -->
<g id="Node000038" class="node">
<title>Node38</title>
<g id="a_Node000038"><a xlink:href="../../d7/df9/classfstream_aed23877c52f828cab8de7a23603b3b6c.xhtml#aed23877c52f828cab8de7a23603b3b6c" target="_top" xlink:title=" ">
<polygon fill="white" stroke="#666666" points="244.5,-130 145.5,-130 145.5,-111 244.5,-111 244.5,-130"/>
<text text-anchor="middle" x="195" y="-118" font-family="Helvetica,sans-Serif" font-size="10.00">fstream::fstream</text>
</a>
</g>
</g>
<!-- Node37&#45;&gt;Node38 -->
<g id="edge40_Node000037_Node000038" class="edge">
<title>Node37&#45;&gt;Node38</title>
<g id="a_edge40_Node000037_Node000038"><a xlink:title=" ">
<path fill="none" stroke="#63b8ff" d="M309.84,-120.5C288.99,-120.5 265.13,-120.5 244.65,-120.5"/>
<polygon fill="#63b8ff" stroke="#63b8ff" points="310.11,-124 320.11,-120.5 310.11,-117 310.11,-124"/>
</a>
</g>
</g>
<!-- Node40 -->
<g id="Node000040" class="node">
<title>Node40</title>
<g id="a_Node000040"><a xlink:href="../../d9/d93/classofstream_abd1a07c492699c44f149da45b8d593c1.xhtml#abd1a07c492699c44f149da45b8d593c1" target="_top" xlink:title=" ">
<polygon fill="white" stroke="#666666" points="250.5,-93 139.5,-93 139.5,-74 250.5,-74 250.5,-93"/>
<text text-anchor="middle" x="195" y="-81" font-family="Helvetica,sans-Serif" font-size="10.00">ofstream::ofstream</text>
</a>
</g>
</g>
<!-- Node39&#45;&gt;Node40 -->
<g id="edge42_Node000039_Node000040" class="edge">
<title>Node39&#45;&gt;Node40</title>
<g id="a_edge42_Node000039_Node000040"><a xlink:title=" ">
<path fill="none" stroke="#63b8ff" d="M306.98,-83.5C288.89,-83.5 268.79,-83.5 250.72,-83.5"/>
<polygon fill="#63b8ff" stroke="#63b8ff" points="307.08,-87 317.08,-83.5 307.08,-80 307.08,-87"/>
</a>
</g>
</g>
<!-- Node44 -->
<g id="Node000044" class="node">
<title>Node44</title>
<g id="a_Node000044"><a xlink:href="../../d9/ddd/economy_8cpp_a35740c7a73b48d918cb4e6d891d46bed.xhtml#a35740c7a73b48d918cb4e6d891d46bed" target="_top" xlink:title="Exécute une étape de la boucle principale du mode économique.">
<polygon fill="white" stroke="#666666" points="426,-56 300,-56 300,-37 426,-37 426,-56"/>
<text text-anchor="middle" x="363" y="-44" font-family="Helvetica,sans-Serif" font-size="10.00">runEconomyModeStep</text>
</a>
</g>
</g>
<!-- Node43&#45;&gt;Node44 -->
<g id="edge46_Node000043_Node000044" class="edge">
<title>Node43&#45;&gt;Node44</title>
<g id="a_edge46_Node000043_Node000044"><a xlink:title=" ">
<path fill="none" stroke="#63b8ff" d="M494.97,-46.5C474.41,-46.5 449.08,-46.5 426.19,-46.5"/>
<polygon fill="#63b8ff" stroke="#63b8ff" points="495.25,-50 505.25,-46.5 495.25,-43 495.25,-50"/>
</a>
</g>
</g>
<!-- Node47 -->
<g id="Node000047" class="node">
<title>Node47</title>
<g id="a_Node000047"><a xlink:href="../../df/d92/standard_8cpp_ad0b3e86793f7441084351fc2de4d4c45.xhtml#ad0b3e86793f7441084351fc2de4d4c45" target="_top" xlink:title="Exécute une étape de la boucle principale du mode standard.">
<polygon fill="white" stroke="#666666" points="425.5,-19 300.5,-19 300.5,0 425.5,0 425.5,-19"/>
<text text-anchor="middle" x="363" y="-7" font-family="Helvetica,sans-Serif" font-size="10.00">runStandardModeStep</text>
</a>
</g>
</g>
<!-- Node43&#45;&gt;Node47 -->
<g id="edge49_Node000043_Node000047" class="edge">
<title>Node43&#45;&gt;Node47</title>
<g id="a_edge49_Node000043_Node000047"><a xlink:title=" ">
<path fill="none" stroke="#63b8ff" d="M495.29,-37.74C469.15,-32.12 435.21,-24.82 408.38,-19.05"/>
<polygon fill="#63b8ff" stroke="#63b8ff" points="494.74,-41.2 505.25,-39.89 496.21,-34.36 494.74,-41.2"/>
</a>
</g>
</g>
<!-- Node45 -->
<g id="Node000045" class="node">
<title>Node45</title>
<g id="a_Node000045"><a xlink:href="../../de/dfb/src_2main_8cpp_afe461d27b9c48d5921c00d521181f12f.xhtml#afe461d27b9c48d5921c00d521181f12f" target="_top" xlink:title=" ">
<polygon fill="white" stroke="#666666" points="214,-38 176,-38 176,-19 214,-19 214,-38"/>
<text text-anchor="middle" x="195" y="-26" font-family="Helvetica,sans-Serif" font-size="10.00">loop</text>
</a>
</g>
</g>
<!-- Node44&#45;&gt;Node45 -->
<g id="edge47_Node000044_Node000045" class="edge">
<title>Node44&#45;&gt;Node45</title>
<g id="a_edge47_Node000044_Node000045"><a xlink:title=" ">
<path fill="none" stroke="#63b8ff" d="M289.57,-38.65C261.78,-35.63 232.39,-32.45 214.12,-30.46"/>
<polygon fill="#63b8ff" stroke="#63b8ff" points="289.4,-42.15 299.72,-39.75 290.15,-35.19 289.4,-42.15"/>
</a>
</g>
</g>
<!-- Node46 -->
<g id="Node000046" class="node">
<title>Node46</title>
<g id="a_Node000046"><a xlink:href="../../d2/d81/libs_2Arduino__AVR_2main_8cpp_a840291bc02cba5474a4cb46a9b9566fe.xhtml#a840291bc02cba5474a4cb46a9b9566fe" target="_top" xlink:title=" ">
<polygon fill="white" stroke="#666666" points="68,-38 27,-38 27,-19 68,-19 68,-38"/>
<text text-anchor="middle" x="47.5" y="-26" font-family="Helvetica,sans-Serif" font-size="10.00">main</text>
</a>
</g>
</g>
<!-- Node45&#45;&gt;Node46 -->
<g id="edge48_Node000045_Node000046" class="edge">
<title>Node45&#45;&gt;Node46</title>
<g id="a_edge48_Node000045_Node000046"><a xlink:title=" ">
<path fill="none" stroke="#63b8ff" d="M165.68,-28.5C137,-28.5 93.4,-28.5 68.26,-28.5"/>
<polygon fill="#63b8ff" stroke="#63b8ff" points="165.87,-32 175.87,-28.5 165.87,-25 165.87,-32"/>
</a>
</g>
</g>
<!-- Node47&#45;&gt;Node45 -->
<g id="edge50_Node000047_Node000045" class="edge">
<title>Node47&#45;&gt;Node45</title>
<g id="a_edge50_Node000047_Node000045"><a xlink:title=" ">
<path fill="none" stroke="#63b8ff" d="M290.02,-17.74C262.16,-20.93 232.6,-24.31 214.23,-26.41"/>
<polygon fill="#63b8ff" stroke="#63b8ff" points="290.65,-21.19 300.19,-16.57 289.85,-14.23 290.65,-21.19"/>
</a>
</g>
</g>
</g>
</svg>

<g id="navigator" transform="translate(0 0)" fill="#404254">
  <rect fill="#f2f5e9" fill-opacity="0.5" stroke="#606060" stroke-width=".5" x="0" y="0" width="60" height="60"/>
  <use id="zoomplus" xlink:href="#zoomPlus" x="17" y="9" onmousedown="handleZoom(evt,'in')"/>
  <use id="zoomminus" xlink:href="#zoomMin" x="42" y="9" onmousedown="handleZoom(evt,'out')"/>
  <use id="reset" xlink:href="#resetDef" x="30" y="36" onmousedown="handleReset()"/>
   <use id="arrowup" xlink:href="#arrowUp" x="0" y="0" onmousedown="handlePan(0,-1)"/>
  <use id="arrowright" xlink:href="#arrowRight" x="0" y="0" onmousedown="handlePan(1,0)"/>
  <use id="arrowdown" xlink:href="#arrowDown" x="0" y="0" onmousedown="handlePan(0,1)"/>
  <use id="arrowleft" xlink:href="#arrowLeft" x="0" y="0" onmousedown="handlePan(-1,0)"/>
</g>
<svg viewBox="0 0 15 15" width="100%" height="30px" preserveAspectRatio="xMaxYMin meet">
 <g id="arrow_out" transform="scale(0.3 0.3)">
  <a xlink:href="classFatFile_afd16af325e0642e4bff6430b7d8bb18b_afd16af325e0642e4bff6430b7d8bb18b_icgraph_org.svg" target="_base">
   <rect id="button" ry="5" rx="5" y="6" x="6" height="38" width="38"
        fill="#f2f5e9" fill-opacity="0.5" stroke="#606060" stroke-width="1.0"/>
   <path id="arrow"
     d="M 11.500037,31.436501 C 11.940474,20.09759 22.043105,11.32322 32.158766,21.979434 L 37.068811,17.246167 C 37.068811,17.246167 37.088388,32 37.088388,32 L 22.160133,31.978069 C 22.160133,31.978069 26.997745,27.140456 26.997745,27.140456 C 18.528582,18.264221 13.291696,25.230495 11.500037,31.436501 z"
     style="fill:#404040;"/>
  </a>
 </g>
</svg>

<style type='text/css'>
<![CDATA[
[data-mouse-over-selected='false'] { opacity: 0.7; }
[data-mouse-over-selected='true']  { opacity: 1.0; }
]]>
</style>
<script type="application/ecmascript"><![CDATA[
document.addEventListener('DOMContentLoaded', (event) => {
  highlightEdges();
  highlightAdjacentNodes();
});
]]></script>
</svg>
