<?xml version="1.0" encoding="UTF-8" standalone="no"?>
<!DOCTYPE svg PUBLIC "-//W3C//DTD SVG 1.1//EN"
 "http://www.w3.org/Graphics/SVG/1.1/DTD/svg11.dtd">
<!-- Generated by graphviz version 2.43.0 (0)
 -->
<!-- Title: FatFile::getName7 Pages: 1 -->
<svg width="404pt" height="27pt"
 viewBox="0.00 0.00 404.00 27.00" xmlns="http://www.w3.org/2000/svg" xmlns:xlink="http://www.w3.org/1999/xlink">
<g id="graph0" class="graph" transform="scale(1 1) rotate(0) translate(4 23)">
<title>FatFile::getName7</title>
<!-- Node1 -->
<g id="Node000001" class="node">
<title>Node1</title>
<g id="a_Node000001"><a xlink:title=" ">
<polygon fill="#999999" stroke="#666666" points="396,-19 291,-19 291,0 396,0 396,-19"/>
<text text-anchor="middle" x="343.5" y="-7" font-family="Helvetica,sans-Serif" font-size="10.00">FatFile::getName7</text>
</a>
</g>
</g>
<!-- Node2 -->
<g id="Node000002" class="node">
<title>Node2</title>
<g id="a_Node000002"><a xlink:href="../../d3/db4/classFatFile_a0313d518970d1438d5cad721720cc109.xhtml#a0313d518970d1438d5cad721720cc109" target="_top" xlink:title=" ">
<polygon fill="white" stroke="#666666" points="255,-19 156,-19 156,0 255,0 255,-19"/>
<text text-anchor="middle" x="205.5" y="-7" font-family="Helvetica,sans-Serif" font-size="10.00">FatFile::getName</text>
</a>
</g>
</g>
<!-- Node1&#45;&gt;Node2 -->
<g id="edge1_Node000001_Node000002" class="edge">
<title>Node1&#45;&gt;Node2</title>
<g id="a_edge1_Node000001_Node000002"><a xlink:title=" ">
<path fill="none" stroke="#63b8ff" d="M280.69,-9.5C272.08,-9.5 263.34,-9.5 255.03,-9.5"/>
<polygon fill="#63b8ff" stroke="#63b8ff" points="280.7,-13 290.7,-9.5 280.7,-6 280.7,-13"/>
</a>
</g>
</g>
<!-- Node3 -->
<g id="Node000003" class="node">
<title>Node3</title>
<g id="a_Node000003"><a xlink:href="../../d0/db5/classFsBaseFile_ad2099dbe6bb8f61e1bf933d8e97b2d86.xhtml#ad2099dbe6bb8f61e1bf933d8e97b2d86" target="_top" xlink:title=" ">
<polygon fill="white" stroke="#666666" points="120,-19 0,-19 0,0 120,0 120,-19"/>
<text text-anchor="middle" x="60" y="-7" font-family="Helvetica,sans-Serif" font-size="10.00">FsBaseFile::getName</text>
</a>
</g>
</g>
<!-- Node2&#45;&gt;Node3 -->
<g id="edge2_Node000002_Node000003" class="edge">
<title>Node2&#45;&gt;Node3</title>
<g id="a_edge2_Node000002_Node000003"><a xlink:title=" ">
<path fill="none" stroke="#63b8ff" d="M145.79,-9.5C137.35,-9.5 128.67,-9.5 120.23,-9.5"/>
<polygon fill="#63b8ff" stroke="#63b8ff" points="145.92,-13 155.92,-9.5 145.92,-6 145.92,-13"/>
</a>
</g>
</g>
</g>
</svg>
