<?xml version="1.0" encoding="UTF-8" standalone="no"?>
<!DOCTYPE svg PUBLIC "-//W3C//DTD SVG 1.1//EN"
 "http://www.w3.org/Graphics/SVG/1.1/DTD/svg11.dtd">
<!-- Generated by graphviz version 2.43.0 (0)
 -->
<!-- Title: FatFile::getSFN Pages: 1 -->
<svg width="876pt" height="154pt"
 viewBox="0.00 0.00 876.00 154.39" xmlns="http://www.w3.org/2000/svg" xmlns:xlink="http://www.w3.org/1999/xlink">
<g id="graph0" class="graph" transform="scale(1 1) rotate(0) translate(4 150.39)">
<title>FatFile::getSFN</title>
<!-- Node1 -->
<g id="Node000001" class="node">
<title>Node1</title>
<g id="a_Node000001"><a xlink:title=" ">
<polygon fill="#999999" stroke="#666666" points="868,-112 779,-112 779,-93 868,-93 868,-112"/>
<text text-anchor="middle" x="823.5" y="-100" font-family="Helvetica,sans-Serif" font-size="10.00">FatFile::getSFN</text>
</a>
</g>
</g>
<!-- Node2 -->
<g id="Node000002" class="node">
<title>Node2</title>
<g id="a_Node000002"><a xlink:href="../../d3/db4/classFatFile.xhtml#a0313d518970d1438d5cad721720cc109" target="_top" xlink:title=" ">
<polygon fill="white" stroke="#666666" points="595.5,-132 496.5,-132 496.5,-113 595.5,-113 595.5,-132"/>
<text text-anchor="middle" x="546" y="-120" font-family="Helvetica,sans-Serif" font-size="10.00">FatFile::getName</text>
</a>
</g>
</g>
<!-- Node1&#45;&gt;Node2 -->
<g id="edge1_Node000001_Node000002" class="edge">
<title>Node1&#45;&gt;Node2</title>
<g id="a_edge1_Node000001_Node000002"><a xlink:title=" ">
<path fill="none" stroke="#63b8ff" d="M798.93,-117.21C783.63,-125.87 762.89,-135.99 743,-140.5 687.18,-153.15 620.5,-141.54 581.06,-132"/>
<polygon fill="#63b8ff" stroke="#63b8ff" points="800.85,-120.14 807.7,-112.07 797.31,-114.1 800.85,-120.14"/>
</a>
</g>
</g>
<!-- Node4 -->
<g id="Node000004" class="node">
<title>Node4</title>
<g id="a_Node000004"><a xlink:href="../../d3/db4/classFatFile.xhtml#abf906ba7948cf1331d80e530bacea489" target="_top" xlink:title=" ">
<polygon fill="white" stroke="#666666" points="743,-131 638,-131 638,-112 743,-112 743,-131"/>
<text text-anchor="middle" x="690.5" y="-119" font-family="Helvetica,sans-Serif" font-size="10.00">FatFile::getName7</text>
</a>
</g>
</g>
<!-- Node1&#45;&gt;Node4 -->
<g id="edge3_Node000001_Node000004" class="edge">
<title>Node1&#45;&gt;Node4</title>
<g id="a_edge3_Node000001_Node000004"><a xlink:title=" ">
<path fill="none" stroke="#63b8ff" d="M768.73,-110.3C760.26,-111.53 751.52,-112.79 743.11,-114.01"/>
<polygon fill="#63b8ff" stroke="#63b8ff" points="769.48,-113.73 778.88,-108.83 768.48,-106.8 769.48,-113.73"/>
</a>
</g>
</g>
<!-- Node5 -->
<g id="Node000005" class="node">
<title>Node5</title>
<g id="a_Node000005"><a xlink:href="../../d3/db4/classFatFile.xhtml#a2369692e7bc19a68ac106fd7499a2910" target="_top" xlink:title=" ">
<polygon fill="white" stroke="#666666" points="743,-94 638,-94 638,-75 743,-75 743,-94"/>
<text text-anchor="middle" x="690.5" y="-82" font-family="Helvetica,sans-Serif" font-size="10.00">FatFile::getName8</text>
</a>
</g>
</g>
<!-- Node1&#45;&gt;Node5 -->
<g id="edge5_Node000001_Node000005" class="edge">
<title>Node1&#45;&gt;Node5</title>
<g id="a_edge5_Node000001_Node000005"><a xlink:title=" ">
<path fill="none" stroke="#63b8ff" d="M768.73,-95.11C760.26,-93.95 751.52,-92.75 743.11,-91.59"/>
<polygon fill="#63b8ff" stroke="#63b8ff" points="768.5,-98.61 778.88,-96.51 769.45,-91.68 768.5,-98.61"/>
</a>
</g>
</g>
<!-- Node6 -->
<g id="Node000006" class="node">
<title>Node6</title>
<g id="a_Node000006"><a xlink:href="../../d3/db4/classFatFile.xhtml#a791cd7aade71f609aab62ec018aea3c0" target="_top" xlink:title=" ">
<polygon fill="white" stroke="#666666" points="738.5,-57 642.5,-57 642.5,-38 738.5,-38 738.5,-57"/>
<text text-anchor="middle" x="690.5" y="-45" font-family="Helvetica,sans-Serif" font-size="10.00">FatFile::printSFN</text>
</a>
</g>
</g>
<!-- Node1&#45;&gt;Node6 -->
<g id="edge7_Node000001_Node000006" class="edge">
<title>Node1&#45;&gt;Node6</title>
<g id="a_edge7_Node000001_Node000006"><a xlink:title=" ">
<path fill="none" stroke="#63b8ff" d="M793.18,-88.62C778.27,-81.71 759.79,-73.39 743,-66.5 735.15,-63.28 726.54,-60 718.64,-57.1"/>
<polygon fill="#63b8ff" stroke="#63b8ff" points="791.87,-91.87 802.42,-92.92 794.83,-85.52 791.87,-91.87"/>
</a>
</g>
</g>
<!-- Node3 -->
<g id="Node000003" class="node">
<title>Node3</title>
<g id="a_Node000003"><a xlink:href="../../d0/db5/classFsBaseFile.xhtml#ad2099dbe6bb8f61e1bf933d8e97b2d86" target="_top" xlink:title=" ">
<polygon fill="white" stroke="#666666" points="454,-132 334,-132 334,-113 454,-113 454,-132"/>
<text text-anchor="middle" x="394" y="-120" font-family="Helvetica,sans-Serif" font-size="10.00">FsBaseFile::getName</text>
</a>
</g>
</g>
<!-- Node2&#45;&gt;Node3 -->
<g id="edge2_Node000002_Node000003" class="edge">
<title>Node2&#45;&gt;Node3</title>
<g id="a_edge2_Node000002_Node000003"><a xlink:title=" ">
<path fill="none" stroke="#63b8ff" d="M486.02,-122.5C475.56,-122.5 464.66,-122.5 454.2,-122.5"/>
<polygon fill="#63b8ff" stroke="#63b8ff" points="486.3,-126 496.3,-122.5 486.3,-119 486.3,-126"/>
</a>
</g>
</g>
<!-- Node4&#45;&gt;Node2 -->
<g id="edge4_Node000004_Node000002" class="edge">
<title>Node4&#45;&gt;Node2</title>
<g id="a_edge4_Node000004_Node000002"><a xlink:title=" ">
<path fill="none" stroke="#63b8ff" d="M627.56,-121.93C616.9,-122.01 605.97,-122.09 595.73,-122.16"/>
<polygon fill="#63b8ff" stroke="#63b8ff" points="627.68,-125.43 637.65,-121.86 627.63,-118.43 627.68,-125.43"/>
</a>
</g>
</g>
<!-- Node5&#45;&gt;Node2 -->
<g id="edge6_Node000005_Node000002" class="edge">
<title>Node5&#45;&gt;Node2</title>
<g id="a_edge6_Node000005_Node000002"><a xlink:title=" ">
<path fill="none" stroke="#63b8ff" d="M643.85,-96.67C624.14,-101.93 601.43,-107.99 582.95,-112.91"/>
<polygon fill="#63b8ff" stroke="#63b8ff" points="644.78,-100.05 653.54,-94.09 642.98,-93.28 644.78,-100.05"/>
</a>
</g>
</g>
<!-- Node7 -->
<g id="Node000007" class="node">
<title>Node7</title>
<g id="a_Node000007"><a xlink:href="../../d3/db4/classFatFile.xhtml#afe18a787fb8640e2d2483370c770f82f" target="_top" xlink:title=" ">
<polygon fill="white" stroke="#666666" points="447,-56 341,-56 341,-37 447,-37 447,-56"/>
<text text-anchor="middle" x="394" y="-44" font-family="Helvetica,sans-Serif" font-size="10.00">FatFile::printName</text>
</a>
</g>
</g>
<!-- Node6&#45;&gt;Node7 -->
<g id="edge8_Node000006_Node000007" class="edge">
<title>Node6&#45;&gt;Node7</title>
<g id="a_edge8_Node000006_Node000007"><a xlink:title=" ">
<path fill="none" stroke="#63b8ff" d="M641.47,-59.2C628.72,-61.81 614.91,-64.19 602,-65.5 552.48,-70.54 539.54,-70.4 490,-65.5 471.25,-63.64 450.73,-59.77 433.57,-56.01"/>
<polygon fill="#63b8ff" stroke="#63b8ff" points="642.38,-62.59 651.43,-57.08 640.92,-55.74 642.38,-62.59"/>
</a>
</g>
</g>
<!-- Node12 -->
<g id="Node000012" class="node">
<title>Node12</title>
<g id="a_Node000012"><a xlink:href="../../d3/db4/classFatFile.xhtml#a35dedc90d44758d10d967785dc14da2b" target="_top" xlink:title=" ">
<polygon fill="white" stroke="#666666" points="602,-56 490,-56 490,-37 602,-37 602,-56"/>
<text text-anchor="middle" x="546" y="-44" font-family="Helvetica,sans-Serif" font-size="10.00">FatFile::printName7</text>
</a>
</g>
</g>
<!-- Node6&#45;&gt;Node12 -->
<g id="edge14_Node000006_Node000012" class="edge">
<title>Node6&#45;&gt;Node12</title>
<g id="a_edge14_Node000006_Node000012"><a xlink:title=" ">
<path fill="none" stroke="#63b8ff" d="M632.27,-47.1C622.34,-47.03 612.04,-46.96 602.17,-46.89"/>
<polygon fill="#63b8ff" stroke="#63b8ff" points="632.42,-50.6 642.45,-47.17 632.47,-43.6 632.42,-50.6"/>
</a>
</g>
</g>
<!-- Node13 -->
<g id="Node000013" class="node">
<title>Node13</title>
<g id="a_Node000013"><a xlink:href="../../d3/db4/classFatFile.xhtml#a508c86ed62a34a920574dd270dc64322" target="_top" xlink:title=" ">
<polygon fill="white" stroke="#666666" points="602,-19 490,-19 490,0 602,0 602,-19"/>
<text text-anchor="middle" x="546" y="-7" font-family="Helvetica,sans-Serif" font-size="10.00">FatFile::printName8</text>
</a>
</g>
</g>
<!-- Node6&#45;&gt;Node13 -->
<g id="edge16_Node000006_Node000013" class="edge">
<title>Node6&#45;&gt;Node13</title>
<g id="a_edge16_Node000006_Node000013"><a xlink:title=" ">
<path fill="none" stroke="#63b8ff" d="M643.85,-35.33C624.14,-30.07 601.43,-24.01 582.95,-19.09"/>
<polygon fill="#63b8ff" stroke="#63b8ff" points="642.98,-38.72 653.54,-37.91 644.78,-31.95 642.98,-38.72"/>
</a>
</g>
</g>
<!-- Node8 -->
<g id="Node000008" class="node">
<title>Node8</title>
<g id="a_Node000008"><a xlink:href="../../d3/db4/classFatFile.xhtml#a60ab9d16bcc778150a364c26de467de1" target="_top" xlink:title=" ">
<polygon fill="white" stroke="#666666" points="298,-56 236,-56 236,-37 298,-37 298,-56"/>
<text text-anchor="middle" x="267" y="-44" font-family="Helvetica,sans-Serif" font-size="10.00">FatFile::ls</text>
</a>
</g>
</g>
<!-- Node7&#45;&gt;Node8 -->
<g id="edge9_Node000007_Node000008" class="edge">
<title>Node7&#45;&gt;Node8</title>
<g id="a_edge9_Node000007_Node000008"><a xlink:title=" ">
<path fill="none" stroke="#63b8ff" d="M330.47,-46.5C319.27,-46.5 308.08,-46.5 298.32,-46.5"/>
<polygon fill="#63b8ff" stroke="#63b8ff" points="330.71,-50 340.71,-46.5 330.71,-43 330.71,-50"/>
</a>
</g>
</g>
<!-- Node8&#45;&gt;Node8 -->
<g id="edge13_Node000008_Node000008" class="edge">
<title>Node8&#45;&gt;Node8</title>
<g id="a_edge13_Node000008_Node000008"><a xlink:title=" ">
<path fill="none" stroke="#63b8ff" d="M287,-65.55C285.66,-70.38 279,-74 267,-74 247.8,-74 242.26,-64.73 250.35,-56.08"/>
<polygon fill="#63b8ff" stroke="#63b8ff" points="290.28,-64.34 283.65,-56.08 283.68,-66.68 290.28,-64.34"/>
</a>
</g>
</g>
<!-- Node9 -->
<g id="Node000009" class="node">
<title>Node9</title>
<g id="a_Node000009"><a xlink:href="../../d3/dd5/classFatVolume.xhtml#ac5fc83cac7fd3af0b140a7986b9472f8" target="_top" xlink:title=" ">
<polygon fill="white" stroke="#666666" points="200,-75 118,-75 118,-56 200,-56 200,-75"/>
<text text-anchor="middle" x="159" y="-63" font-family="Helvetica,sans-Serif" font-size="10.00">FatVolume::ls</text>
</a>
</g>
</g>
<!-- Node8&#45;&gt;Node9 -->
<g id="edge10_Node000008_Node000009" class="edge">
<title>Node8&#45;&gt;Node9</title>
<g id="a_edge10_Node000008_Node000009"><a xlink:title=" ">
<path fill="none" stroke="#63b8ff" d="M225.89,-53.69C217.44,-55.2 208.52,-56.8 200.07,-58.32"/>
<polygon fill="#63b8ff" stroke="#63b8ff" points="226.68,-57.1 235.91,-51.89 225.45,-50.21 226.68,-57.1"/>
</a>
</g>
</g>
<!-- Node10 -->
<g id="Node000010" class="node">
<title>Node10</title>
<g id="a_Node000010"><a xlink:href="../../d3/dd5/classFatVolume.xhtml#ae40964f357cfff4208812344a0e6f26f" target="_top" xlink:title=" ">
<polygon fill="white" stroke="#666666" points="200,-38 118,-38 118,-19 200,-19 200,-38"/>
<text text-anchor="middle" x="159" y="-26" font-family="Helvetica,sans-Serif" font-size="10.00">FatVolume::ls</text>
</a>
</g>
</g>
<!-- Node8&#45;&gt;Node10 -->
<g id="edge11_Node000008_Node000010" class="edge">
<title>Node8&#45;&gt;Node10</title>
<g id="a_edge11_Node000008_Node000010"><a xlink:title=" ">
<path fill="none" stroke="#63b8ff" d="M225.89,-39.69C217.44,-38.25 208.52,-36.74 200.07,-35.3"/>
<polygon fill="#63b8ff" stroke="#63b8ff" points="225.46,-43.17 235.91,-41.39 226.64,-36.27 225.46,-43.17"/>
</a>
</g>
</g>
<!-- Node11 -->
<g id="Node000011" class="node">
<title>Node11</title>
<g id="a_Node000011"><a xlink:href="../../d3/dd5/classFatVolume.xhtml#a455ad7b2a5b6b31551dca08087a3c404" target="_top" xlink:title=" ">
<polygon fill="white" stroke="#666666" points="82,-38 0,-38 0,-19 82,-19 82,-38"/>
<text text-anchor="middle" x="41" y="-26" font-family="Helvetica,sans-Serif" font-size="10.00">FatVolume::ls</text>
</a>
</g>
</g>
<!-- Node10&#45;&gt;Node11 -->
<g id="edge12_Node000010_Node000011" class="edge">
<title>Node10&#45;&gt;Node11</title>
<g id="a_edge12_Node000010_Node000011"><a xlink:title=" ">
<path fill="none" stroke="#63b8ff" d="M107.56,-28.5C99.07,-28.5 90.36,-28.5 82.17,-28.5"/>
<polygon fill="#63b8ff" stroke="#63b8ff" points="107.75,-32 117.75,-28.5 107.75,-25 107.75,-32"/>
</a>
</g>
</g>
<!-- Node12&#45;&gt;Node7 -->
<g id="edge15_Node000012_Node000007" class="edge">
<title>Node12&#45;&gt;Node7</title>
<g id="a_edge15_Node000012_Node000007"><a xlink:title=" ">
<path fill="none" stroke="#63b8ff" d="M479.98,-46.5C468.96,-46.5 457.64,-46.5 447,-46.5"/>
<polygon fill="#63b8ff" stroke="#63b8ff" points="480,-50 490,-46.5 480,-43 480,-50"/>
</a>
</g>
</g>
<!-- Node13&#45;&gt;Node7 -->
<g id="edge17_Node000013_Node000007" class="edge">
<title>Node13&#45;&gt;Node7</title>
<g id="a_edge17_Node000013_Node000007"><a xlink:title=" ">
<path fill="none" stroke="#63b8ff" d="M496.66,-21.43C476.31,-26.44 452.95,-32.21 433.76,-36.94"/>
<polygon fill="#63b8ff" stroke="#63b8ff" points="497.5,-24.82 506.37,-19.03 495.82,-18.03 497.5,-24.82"/>
</a>
</g>
</g>
</g>
</svg>
