<?xml version="1.0" encoding="UTF-8" standalone="no"?>
<!DOCTYPE svg PUBLIC "-//W3C//DTD SVG 1.1//EN"
 "http://www.w3.org/Graphics/SVG/1.1/DTD/svg11.dtd">
<!-- Generated by graphviz version 2.43.0 (0)
 -->
<!-- Title: FatFile::isLFN Pages: 1 -->
<!--zoomable 303 -->

<svg id="main" version="1.1" xmlns="http://www.w3.org/2000/svg" xmlns:xlink="http://www.w3.org/1999/xlink" xml:space="preserve" onload="init(evt)">
<style type="text/css"><![CDATA[
.node, .edge {opacity: 0.7;}
.node.selected, .edge.selected {opacity: 1;}
.edge:hover path { stroke: red; }
.edge:hover polygon { stroke: red; fill: red; }
]]></style>

<defs>
  <circle id="rim" cx="0" cy="0" r="7"/>
  <circle id="rim2" cx="0" cy="0" r="3.5"/>
  <g id="zoomPlus">
    <use xlink:href="#rim" fill="#404040"><set attributeName="fill" to="#808080" begin="zoomplus.mouseover" end="zoomplus.mouseout"/></use>
    <path d="M-4,0h8M0,-4v8" fill="none" stroke="white" stroke-width="1.5" pointer-events="none"/>
  </g>
  <g id="zoomMin">
    <use xlink:href="#rim" fill="#404040"><set attributeName="fill" to="#808080" begin="zoomminus.mouseover" end="zoomminus.mouseout"/></use>
    <path d="M-4,0h8" fill="none" stroke="white" stroke-width="1.5" pointer-events="none"/>
  </g>
  <g id="arrowUp" transform="translate(30 24)">
    <use xlink:href="#rim"/>
    <path pointer-events="none" fill="none" stroke="white" stroke-width="1.5" d="M0,-3.0v7 M-2.5,-0.5L0,-3.0L2.5,-0.5"/>
  </g>
  <g id="arrowRight" transform="rotate(90) translate(36 -43)">
    <use xlink:href="#rim"/>
    <path pointer-events="none" fill="none" stroke="white" stroke-width="1.5" d="M0,-3.0v7 M-2.5,-0.5L0,-3.0L2.5,-0.5"/>
  </g>
  <g id="arrowDown" transform="rotate(180) translate(-30 -48)">
    <use xlink:href="#rim"/>
    <path pointer-events="none" fill="none" stroke="white" stroke-width="1.5" d="M0,-3.0v7 M-2.5,-0.5L0,-3.0L2.5,-0.5"/>
  </g>
  <g id="arrowLeft" transform="rotate(270) translate(-36 17)">
    <use xlink:href="#rim"/>
    <path pointer-events="none" fill="none" stroke="white" stroke-width="1.5" d="M0,-3.0v7 M-2.5,-0.5L0,-3.0L2.5,-0.5"/>
  </g>
  <g id="resetDef">
    <use xlink:href="#rim2" fill="#404040"><set attributeName="fill" to="#808080" begin="reset.mouseover" end="reset.mouseout"/></use>
  </g>
</defs>
<script type="application/ecmascript">
var viewWidth = 778;
var viewHeight = 303;
var sectionId = 'dynsection-0';
</script>
<script type="application/ecmascript" xlink:href="../../svg.min.js"/>
<svg id="graph" class="graph">
<g id="viewport">
<title>FatFile::isLFN</title>
<!-- Node1 -->
<g id="Node000001" class="node">
<title>Node1</title>
<g id="a_Node000001"><a xlink:title=" ">
<polygon fill="#999999" stroke="#666666" points="770,-184 689,-184 689,-165 770,-165 770,-184"/>
<text text-anchor="middle" x="729.5" y="-172" font-family="Helvetica,sans-Serif" font-size="10.00">FatFile::isLFN</text>
</a>
</g>
</g>
<!-- Node2 -->
<g id="Node000002" class="node">
<title>Node2</title>
<g id="a_Node000002"><a xlink:href="../../d3/db4/classFatFile_abf906ba7948cf1331d80e530bacea489.xhtml#abf906ba7948cf1331d80e530bacea489" target="_top" xlink:title=" ">
<polygon fill="white" stroke="#666666" points="649.5,-258 544.5,-258 544.5,-239 649.5,-239 649.5,-258"/>
<text text-anchor="middle" x="597" y="-246" font-family="Helvetica,sans-Serif" font-size="10.00">FatFile::getName7</text>
</a>
</g>
</g>
<!-- Node1&#45;&gt;Node2 -->
<g id="edge1_Node000001_Node000002" class="edge">
<title>Node1&#45;&gt;Node2</title>
<g id="a_edge1_Node000001_Node000002"><a xlink:title=" ">
<path fill="none" stroke="#63b8ff" d="M710.22,-190.71C695.58,-203.01 674.09,-219.6 653,-230.5 646.75,-233.73 639.81,-236.54 633.02,-238.92"/>
<polygon fill="#63b8ff" stroke="#63b8ff" points="712.68,-193.21 717.99,-184.04 708.12,-187.9 712.68,-193.21"/>
</a>
</g>
</g>
<!-- Node5 -->
<g id="Node000005" class="node">
<title>Node5</title>
<g id="a_Node000005"><a xlink:href="../../d3/db4/classFatFile_a2369692e7bc19a68ac106fd7499a2910.xhtml#a2369692e7bc19a68ac106fd7499a2910" target="_top" xlink:title=" ">
<polygon fill="white" stroke="#666666" points="649.5,-295 544.5,-295 544.5,-276 649.5,-276 649.5,-295"/>
<text text-anchor="middle" x="597" y="-283" font-family="Helvetica,sans-Serif" font-size="10.00">FatFile::getName8</text>
</a>
</g>
</g>
<!-- Node1&#45;&gt;Node5 -->
<g id="edge4_Node000001_Node000005" class="edge">
<title>Node1&#45;&gt;Node5</title>
<g id="a_edge4_Node000001_Node000005"><a xlink:title=" ">
<path fill="none" stroke="#63b8ff" d="M717.95,-193.09C705.16,-214.05 681.7,-247.76 653,-267.5 648.12,-270.86 642.56,-273.63 636.91,-275.9"/>
<polygon fill="#63b8ff" stroke="#63b8ff" points="721.13,-194.59 723.21,-184.2 715.11,-191.03 721.13,-194.59"/>
</a>
</g>
</g>
<!-- Node6 -->
<g id="Node000006" class="node">
<title>Node6</title>
<g id="a_Node000006"><a xlink:href="../../d3/db4/classFatFile_a35dedc90d44758d10d967785dc14da2b.xhtml#a35dedc90d44758d10d967785dc14da2b" target="_top" xlink:title=" ">
<polygon fill="white" stroke="#666666" points="653,-184 541,-184 541,-165 653,-165 653,-184"/>
<text text-anchor="middle" x="597" y="-172" font-family="Helvetica,sans-Serif" font-size="10.00">FatFile::printName7</text>
</a>
</g>
</g>
<!-- Node1&#45;&gt;Node6 -->
<g id="edge6_Node000001_Node000006" class="edge">
<title>Node1&#45;&gt;Node6</title>
<g id="a_edge6_Node000001_Node000006"><a xlink:title=" ">
<path fill="none" stroke="#63b8ff" d="M678.97,-174.5C670.57,-174.5 661.8,-174.5 653.26,-174.5"/>
<polygon fill="#63b8ff" stroke="#63b8ff" points="678.99,-178 688.99,-174.5 678.99,-171 678.99,-178"/>
</a>
</g>
</g>
<!-- Node12 -->
<g id="Node000012" class="node">
<title>Node12</title>
<g id="a_Node000012"><a xlink:href="../../d3/db4/classFatFile_a508c86ed62a34a920574dd270dc64322.xhtml#a508c86ed62a34a920574dd270dc64322" target="_top" xlink:title=" ">
<polygon fill="white" stroke="#666666" points="653,-221 541,-221 541,-202 653,-202 653,-221"/>
<text text-anchor="middle" x="597" y="-209" font-family="Helvetica,sans-Serif" font-size="10.00">FatFile::printName8</text>
</a>
</g>
</g>
<!-- Node1&#45;&gt;Node12 -->
<g id="edge13_Node000001_Node000012" class="edge">
<title>Node1&#45;&gt;Node12</title>
<g id="a_edge13_Node000001_Node000012"><a xlink:title=" ">
<path fill="none" stroke="#63b8ff" d="M685.03,-186.83C667.74,-191.73 648.16,-197.28 631.95,-201.88"/>
<polygon fill="#63b8ff" stroke="#63b8ff" points="686.23,-190.12 694.89,-184.03 684.32,-183.39 686.23,-190.12"/>
</a>
</g>
</g>
<!-- Node13 -->
<g id="Node000013" class="node">
<title>Node13</title>
<g id="a_Node000013"><a xlink:href="../../d3/db4/classFatFile_ac837a537fbcca14c7aa390c5fc9f4e7c.xhtml#ac837a537fbcca14c7aa390c5fc9f4e7c" target="_top" xlink:title=" ">
<polygon fill="white" stroke="#666666" points="643,-146 551,-146 551,-127 643,-127 643,-146"/>
<text text-anchor="middle" x="597" y="-134" font-family="Helvetica,sans-Serif" font-size="10.00">FatFile::remove</text>
</a>
</g>
</g>
<!-- Node1&#45;&gt;Node13 -->
<g id="edge15_Node000001_Node000013" class="edge">
<title>Node1&#45;&gt;Node13</title>
<g id="a_edge15_Node000001_Node000013"><a xlink:title=" ">
<path fill="none" stroke="#63b8ff" d="M685.95,-162.11C668.08,-156.91 647.61,-150.95 630.92,-146.09"/>
<polygon fill="#63b8ff" stroke="#63b8ff" points="684.99,-165.48 695.57,-164.91 686.95,-158.75 684.99,-165.48"/>
</a>
</g>
</g>
<!-- Node17 -->
<g id="Node000017" class="node">
<title>Node17</title>
<g id="a_Node000017"><a xlink:href="../../d3/db4/classFatFile_a4b42f2454ff462555c07ea094a92a1e0.xhtml#a4b42f2454ff462555c07ea094a92a1e0" target="_top" xlink:title=" ">
<polygon fill="white" stroke="#666666" points="494.5,-93 402.5,-93 402.5,-74 494.5,-74 494.5,-93"/>
<text text-anchor="middle" x="448.5" y="-81" font-family="Helvetica,sans-Serif" font-size="10.00">FatFile::rename</text>
</a>
</g>
</g>
<!-- Node1&#45;&gt;Node17 -->
<g id="edge24_Node000001_Node000017" class="edge">
<title>Node1&#45;&gt;Node17</title>
<g id="a_edge24_Node000001_Node000017"><a xlink:title=" ">
<path fill="none" stroke="#63b8ff" d="M711.13,-157.85C696.71,-145.03 675.08,-127.94 653,-118.5 601.58,-96.5 537.26,-88.32 494.86,-85.28"/>
<polygon fill="#63b8ff" stroke="#63b8ff" points="708.99,-160.64 718.73,-164.82 713.72,-155.48 708.99,-160.64"/>
</a>
</g>
</g>
<!-- Node18 -->
<g id="Node000018" class="node">
<title>Node18</title>
<g id="a_Node000018"><a xlink:href="../../d3/db4/classFatFile_a9515bac181d33e7f0125e88fa2ccd283.xhtml#a9515bac181d33e7f0125e88fa2ccd283" target="_top" xlink:title=" ">
<polygon fill="white" stroke="#666666" points="488.5,-56 408.5,-56 408.5,-37 488.5,-37 488.5,-56"/>
<text text-anchor="middle" x="448.5" y="-44" font-family="Helvetica,sans-Serif" font-size="10.00">FatFile::rmdir</text>
</a>
</g>
</g>
<!-- Node1&#45;&gt;Node18 -->
<g id="edge25_Node000001_Node000018" class="edge">
<title>Node1&#45;&gt;Node18</title>
<g id="a_edge25_Node000001_Node000018"><a xlink:title=" ">
<path fill="none" stroke="#63b8ff" d="M718.11,-156.3C705.45,-135.91 682.12,-103.48 653,-86.5 601.52,-56.48 531.55,-48.56 488.51,-46.71"/>
<polygon fill="#63b8ff" stroke="#63b8ff" points="715.16,-158.19 723.3,-164.98 721.17,-154.6 715.16,-158.19"/>
</a>
</g>
</g>
<!-- Node3 -->
<g id="Node000003" class="node">
<title>Node3</title>
<g id="a_Node000003"><a xlink:href="../../d3/db4/classFatFile_a0313d518970d1438d5cad721720cc109.xhtml#a0313d518970d1438d5cad721720cc109" target="_top" xlink:title=" ">
<polygon fill="white" stroke="#666666" points="498,-295 399,-295 399,-276 498,-276 498,-295"/>
<text text-anchor="middle" x="448.5" y="-283" font-family="Helvetica,sans-Serif" font-size="10.00">FatFile::getName</text>
</a>
</g>
</g>
<!-- Node2&#45;&gt;Node3 -->
<g id="edge2_Node000002_Node000003" class="edge">
<title>Node2&#45;&gt;Node3</title>
<g id="a_edge2_Node000002_Node000003"><a xlink:title=" ">
<path fill="none" stroke="#63b8ff" d="M548.51,-260.49C528.7,-265.5 506.01,-271.23 487.35,-275.94"/>
<polygon fill="#63b8ff" stroke="#63b8ff" points="549.43,-263.87 558.27,-258.03 547.72,-257.08 549.43,-263.87"/>
</a>
</g>
</g>
<!-- Node4 -->
<g id="Node000004" class="node">
<title>Node4</title>
<g id="a_Node000004"><a xlink:href="../../d0/db5/classFsBaseFile_ad2099dbe6bb8f61e1bf933d8e97b2d86.xhtml#ad2099dbe6bb8f61e1bf933d8e97b2d86" target="_top" xlink:title=" ">
<polygon fill="white" stroke="#666666" points="356,-295 236,-295 236,-276 356,-276 356,-295"/>
<text text-anchor="middle" x="296" y="-283" font-family="Helvetica,sans-Serif" font-size="10.00">FsBaseFile::getName</text>
</a>
</g>
</g>
<!-- Node3&#45;&gt;Node4 -->
<g id="edge3_Node000003_Node000004" class="edge">
<title>Node3&#45;&gt;Node4</title>
<g id="a_edge3_Node000003_Node000004"><a xlink:title=" ">
<path fill="none" stroke="#63b8ff" d="M388.58,-285.5C377.92,-285.5 366.8,-285.5 356.13,-285.5"/>
<polygon fill="#63b8ff" stroke="#63b8ff" points="388.64,-289 398.64,-285.5 388.64,-282 388.64,-289"/>
</a>
</g>
</g>
<!-- Node5&#45;&gt;Node3 -->
<g id="edge5_Node000005_Node000003" class="edge">
<title>Node5&#45;&gt;Node3</title>
<g id="a_edge5_Node000005_Node000003"><a xlink:title=" ">
<path fill="none" stroke="#63b8ff" d="M533.99,-285.5C522.04,-285.5 509.68,-285.5 498.23,-285.5"/>
<polygon fill="#63b8ff" stroke="#63b8ff" points="534.35,-289 544.35,-285.5 534.35,-282 534.35,-289"/>
</a>
</g>
</g>
<!-- Node7 -->
<g id="Node000007" class="node">
<title>Node7</title>
<g id="a_Node000007"><a xlink:href="../../d3/db4/classFatFile_afe18a787fb8640e2d2483370c770f82f.xhtml#afe18a787fb8640e2d2483370c770f82f" target="_top" xlink:title=" ">
<polygon fill="white" stroke="#666666" points="501.5,-241 395.5,-241 395.5,-222 501.5,-222 501.5,-241"/>
<text text-anchor="middle" x="448.5" y="-229" font-family="Helvetica,sans-Serif" font-size="10.00">FatFile::printName</text>
</a>
</g>
</g>
<!-- Node6&#45;&gt;Node7 -->
<g id="edge7_Node000006_Node000007" class="edge">
<title>Node6&#45;&gt;Node7</title>
<g id="a_edge7_Node000006_Node000007"><a xlink:title=" ">
<path fill="none" stroke="#63b8ff" d="M555.78,-187.48C550.75,-189.37 545.72,-191.39 541,-193.5 524.29,-200.96 521.78,-206.2 505,-213.5 497.85,-216.61 489.98,-219.48 482.47,-221.97"/>
<polygon fill="#63b8ff" stroke="#63b8ff" points="557.15,-190.7 565.37,-184.02 554.78,-184.12 557.15,-190.7"/>
</a>
</g>
</g>
<!-- Node8 -->
<g id="Node000008" class="node">
<title>Node8</title>
<g id="a_Node000008"><a xlink:href="../../d3/db4/classFatFile_a60ab9d16bcc778150a364c26de467de1.xhtml#a60ab9d16bcc778150a364c26de467de1" target="_top" xlink:title=" ">
<polygon fill="white" stroke="#666666" points="327,-240 265,-240 265,-221 327,-221 327,-240"/>
<text text-anchor="middle" x="296" y="-228" font-family="Helvetica,sans-Serif" font-size="10.00">FatFile::ls</text>
</a>
</g>
</g>
<!-- Node7&#45;&gt;Node8 -->
<g id="edge8_Node000007_Node000008" class="edge">
<title>Node7&#45;&gt;Node8</title>
<g id="a_edge8_Node000007_Node000008"><a xlink:title=" ">
<path fill="none" stroke="#63b8ff" d="M385.25,-231.09C365.19,-230.95 343.85,-230.81 327.19,-230.7"/>
<polygon fill="#63b8ff" stroke="#63b8ff" points="385.26,-234.59 395.28,-231.15 385.31,-227.59 385.26,-234.59"/>
</a>
</g>
</g>
<!-- Node8&#45;&gt;Node8 -->
<g id="edge12_Node000008_Node000008" class="edge">
<title>Node8&#45;&gt;Node8</title>
<g id="a_edge12_Node000008_Node000008"><a xlink:title=" ">
<path fill="none" stroke="#63b8ff" d="M321.3,-249.19C319.92,-254.2 311.49,-258 296,-258 271.83,-258 264.84,-248.73 275.04,-240.08"/>
<polygon fill="#63b8ff" stroke="#63b8ff" points="324.42,-247.61 316.96,-240.08 318.1,-250.62 324.42,-247.61"/>
</a>
</g>
</g>
<!-- Node9 -->
<g id="Node000009" class="node">
<title>Node9</title>
<g id="a_Node000009"><a xlink:href="../../d3/dd5/classFatVolume_ac5fc83cac7fd3af0b140a7986b9472f8.xhtml#ac5fc83cac7fd3af0b140a7986b9472f8" target="_top" xlink:title=" ">
<polygon fill="white" stroke="#666666" points="200,-258 118,-258 118,-239 200,-239 200,-258"/>
<text text-anchor="middle" x="159" y="-246" font-family="Helvetica,sans-Serif" font-size="10.00">FatVolume::ls</text>
</a>
</g>
</g>
<!-- Node8&#45;&gt;Node9 -->
<g id="edge9_Node000008_Node000009" class="edge">
<title>Node8&#45;&gt;Node9</title>
<g id="a_edge9_Node000008_Node000009"><a xlink:title=" ">
<path fill="none" stroke="#63b8ff" d="M254.42,-235.91C237.26,-238.2 217.31,-240.86 200.19,-243.14"/>
<polygon fill="#63b8ff" stroke="#63b8ff" points="255.25,-239.33 264.7,-234.54 254.33,-232.39 255.25,-239.33"/>
</a>
</g>
</g>
<!-- Node10 -->
<g id="Node000010" class="node">
<title>Node10</title>
<g id="a_Node000010"><a xlink:href="../../d3/dd5/classFatVolume_ae40964f357cfff4208812344a0e6f26f.xhtml#ae40964f357cfff4208812344a0e6f26f" target="_top" xlink:title=" ">
<polygon fill="white" stroke="#666666" points="200,-221 118,-221 118,-202 200,-202 200,-221"/>
<text text-anchor="middle" x="159" y="-209" font-family="Helvetica,sans-Serif" font-size="10.00">FatVolume::ls</text>
</a>
</g>
</g>
<!-- Node8&#45;&gt;Node10 -->
<g id="edge10_Node000008_Node000010" class="edge">
<title>Node8&#45;&gt;Node10</title>
<g id="a_edge10_Node000008_Node000010"><a xlink:title=" ">
<path fill="none" stroke="#63b8ff" d="M254.42,-224.79C237.26,-222.37 217.31,-219.57 200.19,-217.16"/>
<polygon fill="#63b8ff" stroke="#63b8ff" points="254.31,-228.31 264.7,-226.24 255.29,-221.38 254.31,-228.31"/>
</a>
</g>
</g>
<!-- Node11 -->
<g id="Node000011" class="node">
<title>Node11</title>
<g id="a_Node000011"><a xlink:href="../../d3/dd5/classFatVolume_a455ad7b2a5b6b31551dca08087a3c404.xhtml#a455ad7b2a5b6b31551dca08087a3c404" target="_top" xlink:title=" ">
<polygon fill="white" stroke="#666666" points="82,-221 0,-221 0,-202 82,-202 82,-221"/>
<text text-anchor="middle" x="41" y="-209" font-family="Helvetica,sans-Serif" font-size="10.00">FatVolume::ls</text>
</a>
</g>
</g>
<!-- Node10&#45;&gt;Node11 -->
<g id="edge11_Node000010_Node000011" class="edge">
<title>Node10&#45;&gt;Node11</title>
<g id="a_edge11_Node000010_Node000011"><a xlink:title=" ">
<path fill="none" stroke="#63b8ff" d="M107.56,-211.5C99.07,-211.5 90.36,-211.5 82.17,-211.5"/>
<polygon fill="#63b8ff" stroke="#63b8ff" points="107.75,-215 117.75,-211.5 107.75,-208 107.75,-215"/>
</a>
</g>
</g>
<!-- Node12&#45;&gt;Node7 -->
<g id="edge14_Node000012_Node000007" class="edge">
<title>Node12&#45;&gt;Node7</title>
<g id="a_edge14_Node000012_Node000007"><a xlink:title=" ">
<path fill="none" stroke="#63b8ff" d="M530.59,-220.43C520.87,-221.76 510.97,-223.11 501.58,-224.39"/>
<polygon fill="#63b8ff" stroke="#63b8ff" points="531.18,-223.88 540.61,-219.06 530.23,-216.95 531.18,-223.88"/>
</a>
</g>
</g>
<!-- Node14 -->
<g id="Node000014" class="node">
<title>Node14</title>
<g id="a_Node000014"><a xlink:href="../../d0/db5/classFsBaseFile_a8d21f9df86e846e34c3bb11cf7db21bc.xhtml#a8d21f9df86e846e34c3bb11cf7db21bc" target="_top" xlink:title=" ">
<polygon fill="white" stroke="#666666" points="505,-204 392,-204 392,-185 505,-185 505,-204"/>
<text text-anchor="middle" x="448.5" y="-192" font-family="Helvetica,sans-Serif" font-size="10.00">FsBaseFile::remove</text>
</a>
</g>
</g>
<!-- Node13&#45;&gt;Node14 -->
<g id="edge16_Node000013_Node000014" class="edge">
<title>Node13&#45;&gt;Node14</title>
<g id="a_edge16_Node000013_Node000014"><a xlink:title=" ">
<path fill="none" stroke="#63b8ff" d="M557.71,-149.54C552.05,-151.72 546.33,-154.07 541,-156.5 524.35,-164.1 521.78,-169.2 505,-176.5 497.85,-179.61 489.98,-182.48 482.47,-184.97"/>
<polygon fill="#63b8ff" stroke="#63b8ff" points="558.96,-152.81 567.11,-146.04 556.52,-146.25 558.96,-152.81"/>
</a>
</g>
</g>
<!-- Node15 -->
<g id="Node000015" class="node">
<title>Node15</title>
<g id="a_Node000015"><a xlink:href="../../d3/db4/classFatFile_a75d3276f0b02b03e863afafe5731fedb.xhtml#a75d3276f0b02b03e863afafe5731fedb" target="_top" xlink:title=" ">
<polygon fill="white" stroke="#666666" points="494.5,-167 402.5,-167 402.5,-148 494.5,-148 494.5,-167"/>
<text text-anchor="middle" x="448.5" y="-155" font-family="Helvetica,sans-Serif" font-size="10.00">FatFile::remove</text>
</a>
</g>
</g>
<!-- Node13&#45;&gt;Node15 -->
<g id="edge17_Node000013_Node000015" class="edge">
<title>Node13&#45;&gt;Node15</title>
<g id="a_edge17_Node000013_Node000015"><a xlink:title=" ">
<path fill="none" stroke="#63b8ff" d="M540.53,-144.45C525.33,-146.63 509.04,-148.97 494.5,-151.05"/>
<polygon fill="#63b8ff" stroke="#63b8ff" points="541.45,-147.86 550.85,-142.97 540.45,-140.93 541.45,-147.86"/>
</a>
</g>
</g>
<!-- Node16 -->
<g id="Node000016" class="node">
<title>Node16</title>
<g id="a_Node000016"><a xlink:href="../../d3/dd5/classFatVolume_abb11d05ef407775bcdb9b14a6c608433.xhtml#abb11d05ef407775bcdb9b14a6c608433" target="_top" xlink:title=" ">
<polygon fill="white" stroke="#666666" points="504,-130 393,-130 393,-111 504,-111 504,-130"/>
<text text-anchor="middle" x="448.5" y="-118" font-family="Helvetica,sans-Serif" font-size="10.00">FatVolume::remove</text>
</a>
</g>
</g>
<!-- Node13&#45;&gt;Node16 -->
<g id="edge18_Node000013_Node000016" class="edge">
<title>Node13&#45;&gt;Node16</title>
<g id="a_edge18_Node000013_Node000016"><a xlink:title=" ">
<path fill="none" stroke="#63b8ff" d="M540.55,-130.44C528.59,-129.14 515.96,-127.76 504.04,-126.46"/>
<polygon fill="#63b8ff" stroke="#63b8ff" points="540.53,-133.96 550.85,-131.57 541.29,-127 540.53,-133.96"/>
</a>
</g>
</g>
<!-- Node13&#45;&gt;Node17 -->
<g id="edge19_Node000013_Node000017" class="edge">
<title>Node13&#45;&gt;Node17</title>
<g id="a_edge19_Node000013_Node000017"><a xlink:title=" ">
<path fill="none" stroke="#63b8ff" d="M561.46,-123.34C544.49,-116.94 523.72,-109.2 505,-102.5 496.18,-99.34 486.53,-96 477.79,-93.01"/>
<polygon fill="#63b8ff" stroke="#63b8ff" points="560.37,-126.67 570.96,-126.93 562.85,-120.12 560.37,-126.67"/>
</a>
</g>
</g>
<!-- Node13&#45;&gt;Node18 -->
<g id="edge20_Node000013_Node000018" class="edge">
<title>Node13&#45;&gt;Node18</title>
<g id="a_edge20_Node000013_Node000018"><a xlink:title=" ">
<path fill="none" stroke="#63b8ff" d="M578.58,-119.57C561.19,-103.47 533.08,-79.53 505,-64.5 498.84,-61.2 491.97,-58.37 485.21,-56"/>
<polygon fill="#63b8ff" stroke="#63b8ff" points="576.54,-122.45 586.21,-126.77 581.34,-117.36 576.54,-122.45"/>
</a>
</g>
</g>
<!-- Node19 -->
<g id="Node000019" class="node">
<title>Node19</title>
<g id="a_Node000019"><a xlink:href="../../d0/db5/classFsBaseFile_ac47870fd89b0849cda33f2780918a286.xhtml#ac47870fd89b0849cda33f2780918a286" target="_top" xlink:title=" ">
<polygon fill="white" stroke="#666666" points="346.5,-93 245.5,-93 245.5,-74 346.5,-74 346.5,-93"/>
<text text-anchor="middle" x="296" y="-81" font-family="Helvetica,sans-Serif" font-size="10.00">FsBaseFile::rmdir</text>
</a>
</g>
</g>
<!-- Node18&#45;&gt;Node19 -->
<g id="edge21_Node000018_Node000019" class="edge">
<title>Node18&#45;&gt;Node19</title>
<g id="a_edge21_Node000018_Node000019"><a xlink:title=" ">
<path fill="none" stroke="#63b8ff" d="M398.99,-58.43C378.58,-63.44 355.14,-69.21 335.89,-73.94"/>
<polygon fill="#63b8ff" stroke="#63b8ff" points="399.87,-61.81 408.74,-56.03 398.2,-55.02 399.87,-61.81"/>
</a>
</g>
</g>
<!-- Node20 -->
<g id="Node000020" class="node">
<title>Node20</title>
<g id="a_Node000020"><a xlink:href="../../d3/dd5/classFatVolume_af1181990bcece7dbb7d19293dd4fe11a.xhtml#af1181990bcece7dbb7d19293dd4fe11a" target="_top" xlink:title=" ">
<polygon fill="white" stroke="#666666" points="346,-56 246,-56 246,-37 346,-37 346,-56"/>
<text text-anchor="middle" x="296" y="-44" font-family="Helvetica,sans-Serif" font-size="10.00">FatVolume::rmdir</text>
</a>
</g>
</g>
<!-- Node18&#45;&gt;Node20 -->
<g id="edge22_Node000018_Node000020" class="edge">
<title>Node18&#45;&gt;Node20</title>
<g id="a_edge22_Node000018_Node000020"><a xlink:title=" ">
<path fill="none" stroke="#63b8ff" d="M398.24,-46.5C381.54,-46.5 362.89,-46.5 346.2,-46.5"/>
<polygon fill="#63b8ff" stroke="#63b8ff" points="398.35,-50 408.35,-46.5 398.35,-43 398.35,-50"/>
</a>
</g>
</g>
<!-- Node21 -->
<g id="Node000021" class="node">
<title>Node21</title>
<g id="a_Node000021"><a xlink:href="../../d3/db4/classFatFile_ac780a80526f86d3def701ecdc99d8bfe.xhtml#ac780a80526f86d3def701ecdc99d8bfe" target="_top" xlink:title=" ">
<polygon fill="white" stroke="#666666" points="345,-19 247,-19 247,0 345,0 345,-19"/>
<text text-anchor="middle" x="296" y="-7" font-family="Helvetica,sans-Serif" font-size="10.00">FatFile::rmRfStar</text>
</a>
</g>
</g>
<!-- Node18&#45;&gt;Node21 -->
<g id="edge23_Node000018_Node000021" class="edge">
<title>Node18&#45;&gt;Node21</title>
<g id="a_edge23_Node000018_Node000021"><a xlink:title=" ">
<path fill="none" stroke="#63b8ff" d="M398.99,-34.57C378.58,-29.56 355.14,-23.79 335.89,-19.06"/>
<polygon fill="#63b8ff" stroke="#63b8ff" points="398.2,-37.98 408.74,-36.97 399.87,-31.19 398.2,-37.98"/>
</a>
</g>
</g>
</g>
</svg>

<g id="navigator" transform="translate(0 0)" fill="#404254">
  <rect fill="#f2f5e9" fill-opacity="0.5" stroke="#606060" stroke-width=".5" x="0" y="0" width="60" height="60"/>
  <use id="zoomplus" xlink:href="#zoomPlus" x="17" y="9" onmousedown="handleZoom(evt,'in')"/>
  <use id="zoomminus" xlink:href="#zoomMin" x="42" y="9" onmousedown="handleZoom(evt,'out')"/>
  <use id="reset" xlink:href="#resetDef" x="30" y="36" onmousedown="handleReset()"/>
   <use id="arrowup" xlink:href="#arrowUp" x="0" y="0" onmousedown="handlePan(0,-1)"/>
  <use id="arrowright" xlink:href="#arrowRight" x="0" y="0" onmousedown="handlePan(1,0)"/>
  <use id="arrowdown" xlink:href="#arrowDown" x="0" y="0" onmousedown="handlePan(0,1)"/>
  <use id="arrowleft" xlink:href="#arrowLeft" x="0" y="0" onmousedown="handlePan(-1,0)"/>
</g>
<svg viewBox="0 0 15 15" width="100%" height="30px" preserveAspectRatio="xMaxYMin meet">
 <g id="arrow_out" transform="scale(0.3 0.3)">
  <a xlink:href="classFatFile_af8f456ab790e818bfdd225cf6ffd40f3_af8f456ab790e818bfdd225cf6ffd40f3_icgraph_org.svg" target="_base">
   <rect id="button" ry="5" rx="5" y="6" x="6" height="38" width="38"
        fill="#f2f5e9" fill-opacity="0.5" stroke="#606060" stroke-width="1.0"/>
   <path id="arrow"
     d="M 11.500037,31.436501 C 11.940474,20.09759 22.043105,11.32322 32.158766,21.979434 L 37.068811,17.246167 C 37.068811,17.246167 37.088388,32 37.088388,32 L 22.160133,31.978069 C 22.160133,31.978069 26.997745,27.140456 26.997745,27.140456 C 18.528582,18.264221 13.291696,25.230495 11.500037,31.436501 z"
     style="fill:#404040;"/>
  </a>
 </g>
</svg>

<style type='text/css'>
<![CDATA[
[data-mouse-over-selected='false'] { opacity: 0.7; }
[data-mouse-over-selected='true']  { opacity: 1.0; }
]]>
</style>
<script type="application/ecmascript"><![CDATA[
document.addEventListener('DOMContentLoaded', (event) => {
  highlightEdges();
  highlightAdjacentNodes();
});
]]></script>
</svg>
