<?xml version="1.0" encoding="UTF-8" standalone="no"?>
<!DOCTYPE svg PUBLIC "-//W3C//DTD SVG 1.1//EN"
 "http://www.w3.org/Graphics/SVG/1.1/DTD/svg11.dtd">
<!-- Generated by graphviz version 2.43.0 (0)
 -->
<!-- Title: FatFile::lfnChecksum Pages: 1 -->
<!--zoomable 415 -->

<svg id="main" version="1.1" xmlns="http://www.w3.org/2000/svg" xmlns:xlink="http://www.w3.org/1999/xlink" xml:space="preserve" onload="init(evt)">
<style type="text/css"><![CDATA[
.node, .edge {opacity: 0.7;}
.node.selected, .edge.selected {opacity: 1;}
.edge:hover path { stroke: red; }
.edge:hover polygon { stroke: red; fill: red; }
]]></style>

<defs>
  <circle id="rim" cx="0" cy="0" r="7"/>
  <circle id="rim2" cx="0" cy="0" r="3.5"/>
  <g id="zoomPlus">
    <use xlink:href="#rim" fill="#404040"><set attributeName="fill" to="#808080" begin="zoomplus.mouseover" end="zoomplus.mouseout"/></use>
    <path d="M-4,0h8M0,-4v8" fill="none" stroke="white" stroke-width="1.5" pointer-events="none"/>
  </g>
  <g id="zoomMin">
    <use xlink:href="#rim" fill="#404040"><set attributeName="fill" to="#808080" begin="zoomminus.mouseover" end="zoomminus.mouseout"/></use>
    <path d="M-4,0h8" fill="none" stroke="white" stroke-width="1.5" pointer-events="none"/>
  </g>
  <g id="arrowUp" transform="translate(30 24)">
    <use xlink:href="#rim"/>
    <path pointer-events="none" fill="none" stroke="white" stroke-width="1.5" d="M0,-3.0v7 M-2.5,-0.5L0,-3.0L2.5,-0.5"/>
  </g>
  <g id="arrowRight" transform="rotate(90) translate(36 -43)">
    <use xlink:href="#rim"/>
    <path pointer-events="none" fill="none" stroke="white" stroke-width="1.5" d="M0,-3.0v7 M-2.5,-0.5L0,-3.0L2.5,-0.5"/>
  </g>
  <g id="arrowDown" transform="rotate(180) translate(-30 -48)">
    <use xlink:href="#rim"/>
    <path pointer-events="none" fill="none" stroke="white" stroke-width="1.5" d="M0,-3.0v7 M-2.5,-0.5L0,-3.0L2.5,-0.5"/>
  </g>
  <g id="arrowLeft" transform="rotate(270) translate(-36 17)">
    <use xlink:href="#rim"/>
    <path pointer-events="none" fill="none" stroke="white" stroke-width="1.5" d="M0,-3.0v7 M-2.5,-0.5L0,-3.0L2.5,-0.5"/>
  </g>
  <g id="resetDef">
    <use xlink:href="#rim2" fill="#404040"><set attributeName="fill" to="#808080" begin="reset.mouseover" end="reset.mouseout"/></use>
  </g>
</defs>
<script type="application/ecmascript">
var viewWidth = 694;
var viewHeight = 415;
var sectionId = 'dynsection-84';
</script>
<script type="application/ecmascript" xlink:href="../../svg.min.js"/>
<svg id="graph" class="graph">
<g id="viewport">
<title>FatFile::lfnChecksum</title>
<!-- Node1 -->
<g id="Node000001" class="node">
<title>Node1</title>
<g id="a_Node000001"><a xlink:title=" ">
<polygon fill="#999999" stroke="#666666" points="686,-331 568,-331 568,-312 686,-312 686,-331"/>
<text text-anchor="middle" x="627" y="-319" font-family="Helvetica,sans-Serif" font-size="10.00">FatFile::lfnChecksum</text>
</a>
</g>
</g>
<!-- Node2 -->
<g id="Node000002" class="node">
<title>Node2</title>
<g id="a_Node000002"><a xlink:href="../../d3/db4/classFatFile.xhtml#af2f9fe3d3081c0bfbca25360adf391a8" target="_top" xlink:title=" ">
<polygon fill="white" stroke="#666666" points="532,-407 428,-407 428,-388 532,-388 532,-407"/>
<text text-anchor="middle" x="480" y="-395" font-family="Helvetica,sans-Serif" font-size="10.00">FatFile::createLFN</text>
</a>
</g>
</g>
<!-- Node1&#45;&gt;Node2 -->
<g id="edge1_Node000001_Node000002" class="edge">
<title>Node1&#45;&gt;Node2</title>
<g id="a_edge1_Node000001_Node000002"><a xlink:title=" ">
<path fill="none" stroke="#63b8ff" d="M600.71,-336.08C581.93,-346.76 555.58,-361.44 532,-373.5 522.24,-378.49 511.26,-383.71 501.99,-388"/>
<polygon fill="#63b8ff" stroke="#63b8ff" points="602.59,-339.04 609.54,-331.04 599.12,-332.96 602.59,-339.04"/>
</a>
</g>
</g>
<!-- Node3 -->
<g id="Node000003" class="node">
<title>Node3</title>
<g id="a_Node000003"><a xlink:href="../../d3/db4/classFatFile.xhtml#aa729447d16ce34a9a575c27ac58dbb12" target="_top" xlink:title=" ">
<polygon fill="white" stroke="#666666" points="370,-407 292,-407 292,-388 370,-388 370,-407"/>
<text text-anchor="middle" x="331" y="-395" font-family="Helvetica,sans-Serif" font-size="10.00">FatFile::open</text>
</a>
</g>
</g>
<!-- Node1&#45;&gt;Node3 -->
<g id="edge3_Node000001_Node000003" class="edge">
<title>Node1&#45;&gt;Node3</title>
<g id="a_edge3_Node000001_Node000003"><a xlink:title=" ">
<path fill="none" stroke="#63b8ff" d="M579.36,-333.56C521.05,-348.63 422.42,-374.13 369.02,-387.93"/>
<polygon fill="#63b8ff" stroke="#63b8ff" points="580.26,-336.94 589.06,-331.05 578.5,-330.16 580.26,-336.94"/>
</a>
</g>
</g>
<!-- Node4 -->
<g id="Node000004" class="node">
<title>Node4</title>
<g id="a_Node000004"><a xlink:href="../../d3/db4/classFatFile.xhtml#aefd095e898758e6008f33cca17e92b72" target="_top" xlink:title=" ">
<polygon fill="white" stroke="#666666" points="519,-331 441,-331 441,-312 519,-312 519,-331"/>
<text text-anchor="middle" x="480" y="-319" font-family="Helvetica,sans-Serif" font-size="10.00">FatFile::open</text>
</a>
</g>
</g>
<!-- Node1&#45;&gt;Node4 -->
<g id="edge4_Node000001_Node000004" class="edge">
<title>Node1&#45;&gt;Node4</title>
<g id="a_edge4_Node000001_Node000004"><a xlink:title=" ">
<path fill="none" stroke="#63b8ff" d="M557.78,-321.5C544.5,-321.5 531.04,-321.5 519.17,-321.5"/>
<polygon fill="#63b8ff" stroke="#63b8ff" points="557.86,-325 567.86,-321.5 557.86,-318 557.86,-325"/>
</a>
</g>
</g>
<!-- Node5 -->
<g id="Node000005" class="node">
<title>Node5</title>
<g id="a_Node000005"><a xlink:href="../../d3/db4/classFatFile.xhtml#acda9b1bf547d43e183e657bee053a48d" target="_top" xlink:title=" ">
<polygon fill="white" stroke="#666666" points="530.5,-294 429.5,-294 429.5,-275 530.5,-275 530.5,-294"/>
<text text-anchor="middle" x="480" y="-282" font-family="Helvetica,sans-Serif" font-size="10.00">FatFile::openNext</text>
</a>
</g>
</g>
<!-- Node1&#45;&gt;Node5 -->
<g id="edge5_Node000001_Node000005" class="edge">
<title>Node1&#45;&gt;Node5</title>
<g id="a_edge5_Node000001_Node000005"><a xlink:title=" ">
<path fill="none" stroke="#63b8ff" d="M578.73,-309.44C559.19,-304.45 536.85,-298.75 518.47,-294.06"/>
<polygon fill="#63b8ff" stroke="#63b8ff" points="578.1,-312.89 588.66,-311.97 579.83,-306.11 578.1,-312.89"/>
</a>
</g>
</g>
<!-- Node14 -->
<g id="Node000014" class="node">
<title>Node14</title>
<g id="a_Node000014"><a xlink:href="../../d3/db4/classFatFile.xhtml#ac837a537fbcca14c7aa390c5fc9f4e7c" target="_top" xlink:title=" ">
<polygon fill="white" stroke="#666666" points="526,-149 434,-149 434,-130 526,-130 526,-149"/>
<text text-anchor="middle" x="480" y="-137" font-family="Helvetica,sans-Serif" font-size="10.00">FatFile::remove</text>
</a>
</g>
</g>
<!-- Node1&#45;&gt;Node14 -->
<g id="edge15_Node000001_Node000014" class="edge">
<title>Node1&#45;&gt;Node14</title>
<g id="a_edge15_Node000001_Node000014"><a xlink:title=" ">
<path fill="none" stroke="#63b8ff" d="M611.75,-303.62C581.6,-265.77 512.19,-178.65 488.83,-149.33"/>
<polygon fill="#63b8ff" stroke="#63b8ff" points="609.24,-306.07 618.2,-311.71 614.71,-301.71 609.24,-306.07"/>
</a>
</g>
</g>
<!-- Node2&#45;&gt;Node3 -->
<g id="edge2_Node000002_Node000003" class="edge">
<title>Node2&#45;&gt;Node3</title>
<g id="a_edge2_Node000002_Node000003"><a xlink:title=" ">
<path fill="none" stroke="#63b8ff" d="M417.63,-397.5C401.62,-397.5 384.83,-397.5 370.39,-397.5"/>
<polygon fill="#63b8ff" stroke="#63b8ff" points="418,-401 428,-397.5 418,-394 418,-401"/>
</a>
</g>
</g>
<!-- Node6 -->
<g id="Node000006" class="node">
<title>Node6</title>
<g id="a_Node000006"><a xlink:href="../../d3/db4/classFatFile.xhtml#a60ab9d16bcc778150a364c26de467de1" target="_top" xlink:title=" ">
<polygon fill="white" stroke="#666666" points="362,-352 300,-352 300,-333 362,-333 362,-352"/>
<text text-anchor="middle" x="331" y="-340" font-family="Helvetica,sans-Serif" font-size="10.00">FatFile::ls</text>
</a>
</g>
</g>
<!-- Node5&#45;&gt;Node6 -->
<g id="edge6_Node000005_Node000006" class="edge">
<title>Node5&#45;&gt;Node6</title>
<g id="a_edge6_Node000005_Node000006"><a xlink:title=" ">
<path fill="none" stroke="#63b8ff" d="M441.5,-297.63C436.9,-299.48 432.31,-301.46 428,-303.5 411.26,-311.43 408.99,-317.12 392,-324.5 382.52,-328.62 371.82,-332.16 362.1,-334.98"/>
<polygon fill="#63b8ff" stroke="#63b8ff" points="442.79,-300.88 450.85,-294.01 440.26,-294.35 442.79,-300.88"/>
</a>
</g>
</g>
<!-- Node10 -->
<g id="Node000010" class="node">
<title>Node10</title>
<g id="a_Node000010"><a xlink:href="../../d3/db4/classFatFile.xhtml#a5318ee7a7700ff23721497945fba363d" target="_top" xlink:title=" ">
<polygon fill="white" stroke="#666666" points="370,-315 292,-315 292,-296 370,-296 370,-315"/>
<text text-anchor="middle" x="331" y="-303" font-family="Helvetica,sans-Serif" font-size="10.00">FatFile::open</text>
</a>
</g>
</g>
<!-- Node5&#45;&gt;Node10 -->
<g id="edge11_Node000005_Node000010" class="edge">
<title>Node5&#45;&gt;Node10</title>
<g id="a_edge11_Node000005_Node000010"><a xlink:title=" ">
<path fill="none" stroke="#63b8ff" d="M419.08,-293.06C402.53,-295.42 385.03,-297.92 370.1,-300.06"/>
<polygon fill="#63b8ff" stroke="#63b8ff" points="419.83,-296.49 429.23,-291.61 418.84,-289.56 419.83,-296.49"/>
</a>
</g>
</g>
<!-- Node11 -->
<g id="Node000011" class="node">
<title>Node11</title>
<g id="a_Node000011"><a xlink:href="../../d0/db5/classFsBaseFile.xhtml#acb9b1075f4db76fa7e0521c9aff9c3df" target="_top" xlink:title=" ">
<polygon fill="white" stroke="#666666" points="392,-278 270,-278 270,-259 392,-259 392,-278"/>
<text text-anchor="middle" x="331" y="-266" font-family="Helvetica,sans-Serif" font-size="10.00">FsBaseFile::openNext</text>
</a>
</g>
</g>
<!-- Node5&#45;&gt;Node11 -->
<g id="edge12_Node000005_Node000011" class="edge">
<title>Node5&#45;&gt;Node11</title>
<g id="a_edge12_Node000005_Node000011"><a xlink:title=" ">
<path fill="none" stroke="#63b8ff" d="M419.28,-278C410.34,-277.03 401.11,-276.02 392.16,-275.05"/>
<polygon fill="#63b8ff" stroke="#63b8ff" points="418.91,-281.48 429.23,-279.08 419.67,-274.52 418.91,-281.48"/>
</a>
</g>
</g>
<!-- Node13 -->
<g id="Node000013" class="node">
<title>Node13</title>
<g id="a_Node000013"><a xlink:href="../../d6/d53/classFile32.xhtml#adc01f4a1ebc44ef36f3ffb8295c8d779" target="_top" xlink:title=" ">
<polygon fill="white" stroke="#666666" points="389,-241 273,-241 273,-222 389,-222 389,-241"/>
<text text-anchor="middle" x="331" y="-229" font-family="Helvetica,sans-Serif" font-size="10.00">File32::openNextFile</text>
</a>
</g>
</g>
<!-- Node5&#45;&gt;Node13 -->
<g id="edge14_Node000005_Node000013" class="edge">
<title>Node5&#45;&gt;Node13</title>
<g id="a_edge14_Node000005_Node000013"><a xlink:title=" ">
<path fill="none" stroke="#63b8ff" d="M446.32,-271.14C430.08,-264.65 410.11,-256.9 392,-250.5 382.83,-247.26 372.79,-243.98 363.58,-241.07"/>
<polygon fill="#63b8ff" stroke="#63b8ff" points="445.31,-274.51 455.89,-274.99 447.92,-268.01 445.31,-274.51"/>
</a>
</g>
</g>
<!-- Node6&#45;&gt;Node6 -->
<g id="edge10_Node000006_Node000006" class="edge">
<title>Node6&#45;&gt;Node6</title>
<g id="a_edge10_Node000006_Node000006"><a xlink:title=" ">
<path fill="none" stroke="#63b8ff" d="M358.53,-361.19C357.03,-366.2 347.85,-370 331,-370 304.7,-370 297.09,-360.73 308.19,-352.08"/>
<polygon fill="#63b8ff" stroke="#63b8ff" points="361.52,-359.35 353.81,-352.08 355.3,-362.57 361.52,-359.35"/>
</a>
</g>
</g>
<!-- Node7 -->
<g id="Node000007" class="node">
<title>Node7</title>
<g id="a_Node000007"><a xlink:href="../../d3/dd5/classFatVolume.xhtml#ac5fc83cac7fd3af0b140a7986b9472f8" target="_top" xlink:title=" ">
<polygon fill="white" stroke="#666666" points="217,-370 135,-370 135,-351 217,-351 217,-370"/>
<text text-anchor="middle" x="176" y="-358" font-family="Helvetica,sans-Serif" font-size="10.00">FatVolume::ls</text>
</a>
</g>
</g>
<!-- Node6&#45;&gt;Node7 -->
<g id="edge7_Node000006_Node000007" class="edge">
<title>Node6&#45;&gt;Node7</title>
<g id="a_edge7_Node000006_Node000007"><a xlink:title=" ">
<path fill="none" stroke="#63b8ff" d="M289.57,-347.26C267.15,-349.89 239.38,-353.16 217.02,-355.79"/>
<polygon fill="#63b8ff" stroke="#63b8ff" points="290.25,-350.7 299.77,-346.06 289.43,-343.75 290.25,-350.7"/>
</a>
</g>
</g>
<!-- Node8 -->
<g id="Node000008" class="node">
<title>Node8</title>
<g id="a_Node000008"><a xlink:href="../../d3/dd5/classFatVolume.xhtml#ae40964f357cfff4208812344a0e6f26f" target="_top" xlink:title=" ">
<polygon fill="white" stroke="#666666" points="217,-333 135,-333 135,-314 217,-314 217,-333"/>
<text text-anchor="middle" x="176" y="-321" font-family="Helvetica,sans-Serif" font-size="10.00">FatVolume::ls</text>
</a>
</g>
</g>
<!-- Node6&#45;&gt;Node8 -->
<g id="edge8_Node000006_Node000008" class="edge">
<title>Node6&#45;&gt;Node8</title>
<g id="a_edge8_Node000006_Node000008"><a xlink:title=" ">
<path fill="none" stroke="#63b8ff" d="M289.57,-337.48C267.15,-334.7 239.38,-331.25 217.02,-328.47"/>
<polygon fill="#63b8ff" stroke="#63b8ff" points="289.42,-340.99 299.77,-338.75 290.28,-334.04 289.42,-340.99"/>
</a>
</g>
</g>
<!-- Node9 -->
<g id="Node000009" class="node">
<title>Node9</title>
<g id="a_Node000009"><a xlink:href="../../d3/dd5/classFatVolume.xhtml#a455ad7b2a5b6b31551dca08087a3c404" target="_top" xlink:title=" ">
<polygon fill="white" stroke="#666666" points="82,-333 0,-333 0,-314 82,-314 82,-333"/>
<text text-anchor="middle" x="41" y="-321" font-family="Helvetica,sans-Serif" font-size="10.00">FatVolume::ls</text>
</a>
</g>
</g>
<!-- Node8&#45;&gt;Node9 -->
<g id="edge9_Node000008_Node000009" class="edge">
<title>Node8&#45;&gt;Node9</title>
<g id="a_edge9_Node000008_Node000009"><a xlink:title=" ">
<path fill="none" stroke="#63b8ff" d="M124.71,-323.5C110.63,-323.5 95.53,-323.5 82.13,-323.5"/>
<polygon fill="#63b8ff" stroke="#63b8ff" points="124.73,-327 134.73,-323.5 124.73,-320 124.73,-327"/>
</a>
</g>
</g>
<!-- Node12 -->
<g id="Node000012" class="node">
<title>Node12</title>
<g id="a_Node000012"><a xlink:href="../../d5/d4f/classFsFile.xhtml#ab2f85961e3831d0d654da862becb7433" target="_top" xlink:title=" ">
<polygon fill="white" stroke="#666666" points="234,-278 118,-278 118,-259 234,-259 234,-278"/>
<text text-anchor="middle" x="176" y="-266" font-family="Helvetica,sans-Serif" font-size="10.00">FsFile::openNextFile</text>
</a>
</g>
</g>
<!-- Node11&#45;&gt;Node12 -->
<g id="edge13_Node000011_Node000012" class="edge">
<title>Node11&#45;&gt;Node12</title>
<g id="a_edge13_Node000011_Node000012"><a xlink:title=" ">
<path fill="none" stroke="#63b8ff" d="M259.7,-268.5C251.21,-268.5 242.62,-268.5 234.36,-268.5"/>
<polygon fill="#63b8ff" stroke="#63b8ff" points="259.97,-272 269.97,-268.5 259.97,-265 259.97,-272"/>
</a>
</g>
</g>
<!-- Node15 -->
<g id="Node000015" class="node">
<title>Node15</title>
<g id="a_Node000015"><a xlink:href="../../d0/db5/classFsBaseFile.xhtml#a8d21f9df86e846e34c3bb11cf7db21bc" target="_top" xlink:title=" ">
<polygon fill="white" stroke="#666666" points="387.5,-204 274.5,-204 274.5,-185 387.5,-185 387.5,-204"/>
<text text-anchor="middle" x="331" y="-192" font-family="Helvetica,sans-Serif" font-size="10.00">FsBaseFile::remove</text>
</a>
</g>
</g>
<!-- Node14&#45;&gt;Node15 -->
<g id="edge16_Node000014_Node000015" class="edge">
<title>Node14&#45;&gt;Node15</title>
<g id="a_edge16_Node000014_Node000015"><a xlink:title=" ">
<path fill="none" stroke="#63b8ff" d="M448.95,-153.25C432.34,-160.61 411.23,-169.55 392,-176.5 383.72,-179.49 374.67,-182.4 366.17,-184.96"/>
<polygon fill="#63b8ff" stroke="#63b8ff" points="450.46,-156.41 458.16,-149.13 447.61,-150.02 450.46,-156.41"/>
</a>
</g>
</g>
<!-- Node16 -->
<g id="Node000016" class="node">
<title>Node16</title>
<g id="a_Node000016"><a xlink:href="../../d3/db4/classFatFile.xhtml#a75d3276f0b02b03e863afafe5731fedb" target="_top" xlink:title=" ">
<polygon fill="white" stroke="#666666" points="377,-167 285,-167 285,-148 377,-148 377,-167"/>
<text text-anchor="middle" x="331" y="-155" font-family="Helvetica,sans-Serif" font-size="10.00">FatFile::remove</text>
</a>
</g>
</g>
<!-- Node14&#45;&gt;Node16 -->
<g id="edge17_Node000014_Node000016" class="edge">
<title>Node14&#45;&gt;Node16</title>
<g id="a_edge17_Node000014_Node000016"><a xlink:title=" ">
<path fill="none" stroke="#63b8ff" d="M423.34,-146.32C408.09,-148.18 391.74,-150.18 377.15,-151.97"/>
<polygon fill="#63b8ff" stroke="#63b8ff" points="424.2,-149.74 433.7,-145.05 423.34,-142.79 424.2,-149.74"/>
</a>
</g>
</g>
<!-- Node17 -->
<g id="Node000017" class="node">
<title>Node17</title>
<g id="a_Node000017"><a xlink:href="../../d3/dd5/classFatVolume.xhtml#abb11d05ef407775bcdb9b14a6c608433" target="_top" xlink:title=" ">
<polygon fill="white" stroke="#666666" points="386.5,-130 275.5,-130 275.5,-111 386.5,-111 386.5,-130"/>
<text text-anchor="middle" x="331" y="-118" font-family="Helvetica,sans-Serif" font-size="10.00">FatVolume::remove</text>
</a>
</g>
</g>
<!-- Node14&#45;&gt;Node17 -->
<g id="edge18_Node000014_Node000017" class="edge">
<title>Node14&#45;&gt;Node17</title>
<g id="a_edge18_Node000014_Node000017"><a xlink:title=" ">
<path fill="none" stroke="#63b8ff" d="M423.72,-132.36C411.62,-130.79 398.81,-129.14 386.72,-127.57"/>
<polygon fill="#63b8ff" stroke="#63b8ff" points="423.33,-135.83 433.7,-133.64 424.23,-128.89 423.33,-135.83"/>
</a>
</g>
</g>
<!-- Node18 -->
<g id="Node000018" class="node">
<title>Node18</title>
<g id="a_Node000018"><a xlink:href="../../d3/db4/classFatFile.xhtml#a4b42f2454ff462555c07ea094a92a1e0" target="_top" xlink:title=" ">
<polygon fill="white" stroke="#666666" points="377,-93 285,-93 285,-74 377,-74 377,-93"/>
<text text-anchor="middle" x="331" y="-81" font-family="Helvetica,sans-Serif" font-size="10.00">FatFile::rename</text>
</a>
</g>
</g>
<!-- Node14&#45;&gt;Node18 -->
<g id="edge19_Node000014_Node000018" class="edge">
<title>Node14&#45;&gt;Node18</title>
<g id="a_edge19_Node000014_Node000018"><a xlink:title=" ">
<path fill="none" stroke="#63b8ff" d="M449.65,-125.63C432.95,-118 411.53,-108.67 392,-101.5 383.83,-98.5 374.91,-95.62 366.5,-93.08"/>
<polygon fill="#63b8ff" stroke="#63b8ff" points="448.34,-128.88 458.89,-129.89 451.28,-122.52 448.34,-128.88"/>
</a>
</g>
</g>
<!-- Node19 -->
<g id="Node000019" class="node">
<title>Node19</title>
<g id="a_Node000019"><a xlink:href="../../d3/db4/classFatFile.xhtml#a9515bac181d33e7f0125e88fa2ccd283" target="_top" xlink:title=" ">
<polygon fill="white" stroke="#666666" points="371,-56 291,-56 291,-37 371,-37 371,-56"/>
<text text-anchor="middle" x="331" y="-44" font-family="Helvetica,sans-Serif" font-size="10.00">FatFile::rmdir</text>
</a>
</g>
</g>
<!-- Node14&#45;&gt;Node19 -->
<g id="edge20_Node000014_Node000019" class="edge">
<title>Node14&#45;&gt;Node19</title>
<g id="a_edge20_Node000014_Node000019"><a xlink:title=" ">
<path fill="none" stroke="#63b8ff" d="M463.49,-122.46C447.21,-105.52 420.1,-79.91 392,-64.5 385.52,-60.95 378.24,-58.01 371.06,-55.61"/>
<polygon fill="#63b8ff" stroke="#63b8ff" points="461.17,-125.11 470.57,-130 466.27,-120.31 461.17,-125.11"/>
</a>
</g>
</g>
<!-- Node20 -->
<g id="Node000020" class="node">
<title>Node20</title>
<g id="a_Node000020"><a xlink:href="../../d0/db5/classFsBaseFile.xhtml#ac47870fd89b0849cda33f2780918a286" target="_top" xlink:title=" ">
<polygon fill="white" stroke="#666666" points="226.5,-93 125.5,-93 125.5,-74 226.5,-74 226.5,-93"/>
<text text-anchor="middle" x="176" y="-81" font-family="Helvetica,sans-Serif" font-size="10.00">FsBaseFile::rmdir</text>
</a>
</g>
</g>
<!-- Node19&#45;&gt;Node20 -->
<g id="edge21_Node000019_Node000020" class="edge">
<title>Node19&#45;&gt;Node20</title>
<g id="a_edge21_Node000019_Node000020"><a xlink:title=" ">
<path fill="none" stroke="#63b8ff" d="M281.04,-58.34C260.18,-63.38 236.16,-69.19 216.47,-73.96"/>
<polygon fill="#63b8ff" stroke="#63b8ff" points="282.1,-61.68 291,-55.93 280.45,-54.88 282.1,-61.68"/>
</a>
</g>
</g>
<!-- Node21 -->
<g id="Node000021" class="node">
<title>Node21</title>
<g id="a_Node000021"><a xlink:href="../../d3/dd5/classFatVolume.xhtml#af1181990bcece7dbb7d19293dd4fe11a" target="_top" xlink:title=" ">
<polygon fill="white" stroke="#666666" points="226,-56 126,-56 126,-37 226,-37 226,-56"/>
<text text-anchor="middle" x="176" y="-44" font-family="Helvetica,sans-Serif" font-size="10.00">FatVolume::rmdir</text>
</a>
</g>
</g>
<!-- Node19&#45;&gt;Node21 -->
<g id="edge22_Node000019_Node000021" class="edge">
<title>Node19&#45;&gt;Node21</title>
<g id="a_edge22_Node000019_Node000021"><a xlink:title=" ">
<path fill="none" stroke="#63b8ff" d="M280.95,-46.5C263.41,-46.5 243.64,-46.5 226.09,-46.5"/>
<polygon fill="#63b8ff" stroke="#63b8ff" points="281,-50 291,-46.5 281,-43 281,-50"/>
</a>
</g>
</g>
<!-- Node22 -->
<g id="Node000022" class="node">
<title>Node22</title>
<g id="a_Node000022"><a xlink:href="../../d3/db4/classFatFile.xhtml#ac780a80526f86d3def701ecdc99d8bfe" target="_top" xlink:title=" ">
<polygon fill="white" stroke="#666666" points="225,-19 127,-19 127,0 225,0 225,-19"/>
<text text-anchor="middle" x="176" y="-7" font-family="Helvetica,sans-Serif" font-size="10.00">FatFile::rmRfStar</text>
</a>
</g>
</g>
<!-- Node19&#45;&gt;Node22 -->
<g id="edge23_Node000019_Node000022" class="edge">
<title>Node19&#45;&gt;Node22</title>
<g id="a_edge23_Node000019_Node000022"><a xlink:title=" ">
<path fill="none" stroke="#63b8ff" d="M281.04,-34.66C260.18,-29.62 236.16,-23.81 216.47,-19.04"/>
<polygon fill="#63b8ff" stroke="#63b8ff" points="280.45,-38.12 291,-37.07 282.1,-31.32 280.45,-38.12"/>
</a>
</g>
</g>
</g>
</svg>

<g id="navigator" transform="translate(0 0)" fill="#404254">
  <rect fill="#f2f5e9" fill-opacity="0.5" stroke="#606060" stroke-width=".5" x="0" y="0" width="60" height="60"/>
  <use id="zoomplus" xlink:href="#zoomPlus" x="17" y="9" onmousedown="handleZoom(evt,'in')"/>
  <use id="zoomminus" xlink:href="#zoomMin" x="42" y="9" onmousedown="handleZoom(evt,'out')"/>
  <use id="reset" xlink:href="#resetDef" x="30" y="36" onmousedown="handleReset()"/>
   <use id="arrowup" xlink:href="#arrowUp" x="0" y="0" onmousedown="handlePan(0,-1)"/>
  <use id="arrowright" xlink:href="#arrowRight" x="0" y="0" onmousedown="handlePan(1,0)"/>
  <use id="arrowdown" xlink:href="#arrowDown" x="0" y="0" onmousedown="handlePan(0,1)"/>
  <use id="arrowleft" xlink:href="#arrowLeft" x="0" y="0" onmousedown="handlePan(-1,0)"/>
</g>
<svg viewBox="0 0 15 15" width="100%" height="30px" preserveAspectRatio="xMaxYMin meet">
 <g id="arrow_out" transform="scale(0.3 0.3)">
  <a xlink:href="classFatFile_a4b8a4ebe4e7ce29bf01e549bdb8f568b_icgraph_org.svg" target="_base">
   <rect id="button" ry="5" rx="5" y="6" x="6" height="38" width="38"
        fill="#f2f5e9" fill-opacity="0.5" stroke="#606060" stroke-width="1.0"/>
   <path id="arrow"
     d="M 11.500037,31.436501 C 11.940474,20.09759 22.043105,11.32322 32.158766,21.979434 L 37.068811,17.246167 C 37.068811,17.246167 37.088388,32 37.088388,32 L 22.160133,31.978069 C 22.160133,31.978069 26.997745,27.140456 26.997745,27.140456 C 18.528582,18.264221 13.291696,25.230495 11.500037,31.436501 z"
     style="fill:#404040;"/>
  </a>
 </g>
</svg>

<style type='text/css'>
<![CDATA[
[data-mouse-over-selected='false'] { opacity: 0.7; }
[data-mouse-over-selected='true']  { opacity: 1.0; }
]]>
</style>
<script type="application/ecmascript"><![CDATA[
document.addEventListener('DOMContentLoaded', (event) => {
  highlightEdges();
  highlightAdjacentNodes();
});
]]></script>
</svg>
