<?xml version="1.0" encoding="UTF-8" standalone="no"?>
<!DOCTYPE svg PUBLIC "-//W3C//DTD SVG 1.1//EN"
 "http://www.w3.org/Graphics/SVG/1.1/DTD/svg11.dtd">
<!-- Generated by graphviz version 2.43.0 (0)
 -->
<!-- Title: FatFile::open Pages: 1 -->
<!--zoomable 1027 -->

<svg id="main" version="1.1" xmlns="http://www.w3.org/2000/svg" xmlns:xlink="http://www.w3.org/1999/xlink" xml:space="preserve" onload="init(evt)">
<style type="text/css"><![CDATA[
.node, .edge {opacity: 0.7;}
.node.selected, .edge.selected {opacity: 1;}
.edge:hover path { stroke: red; }
.edge:hover polygon { stroke: red; fill: red; }
]]></style>

<defs>
  <circle id="rim" cx="0" cy="0" r="7"/>
  <circle id="rim2" cx="0" cy="0" r="3.5"/>
  <g id="zoomPlus">
    <use xlink:href="#rim" fill="#404040"><set attributeName="fill" to="#808080" begin="zoomplus.mouseover" end="zoomplus.mouseout"/></use>
    <path d="M-4,0h8M0,-4v8" fill="none" stroke="white" stroke-width="1.5" pointer-events="none"/>
  </g>
  <g id="zoomMin">
    <use xlink:href="#rim" fill="#404040"><set attributeName="fill" to="#808080" begin="zoomminus.mouseover" end="zoomminus.mouseout"/></use>
    <path d="M-4,0h8" fill="none" stroke="white" stroke-width="1.5" pointer-events="none"/>
  </g>
  <g id="arrowUp" transform="translate(30 24)">
    <use xlink:href="#rim"/>
    <path pointer-events="none" fill="none" stroke="white" stroke-width="1.5" d="M0,-3.0v7 M-2.5,-0.5L0,-3.0L2.5,-0.5"/>
  </g>
  <g id="arrowRight" transform="rotate(90) translate(36 -43)">
    <use xlink:href="#rim"/>
    <path pointer-events="none" fill="none" stroke="white" stroke-width="1.5" d="M0,-3.0v7 M-2.5,-0.5L0,-3.0L2.5,-0.5"/>
  </g>
  <g id="arrowDown" transform="rotate(180) translate(-30 -48)">
    <use xlink:href="#rim"/>
    <path pointer-events="none" fill="none" stroke="white" stroke-width="1.5" d="M0,-3.0v7 M-2.5,-0.5L0,-3.0L2.5,-0.5"/>
  </g>
  <g id="arrowLeft" transform="rotate(270) translate(-36 17)">
    <use xlink:href="#rim"/>
    <path pointer-events="none" fill="none" stroke="white" stroke-width="1.5" d="M0,-3.0v7 M-2.5,-0.5L0,-3.0L2.5,-0.5"/>
  </g>
  <g id="resetDef">
    <use xlink:href="#rim2" fill="#404040"><set attributeName="fill" to="#808080" begin="reset.mouseover" end="reset.mouseout"/></use>
  </g>
</defs>
<script type="application/ecmascript">
var viewWidth = 588;
var viewHeight = 1027;
var sectionId = 'dynsection-1';
</script>
<script type="application/ecmascript" xlink:href="../../svg.min.js"/>
<svg id="graph" class="graph">
<g id="viewport">
<title>FatFile::open</title>
<!-- Node1 -->
<g id="Node000001" class="node">
<title>Node1</title>
<g id="a_Node000001"><a xlink:title=" ">
<polygon fill="#999999" stroke="#666666" points="580,-500 502,-500 502,-481 580,-481 580,-500"/>
<text text-anchor="middle" x="541" y="-488" font-family="Helvetica,sans-Serif" font-size="10.00">FatFile::open</text>
</a>
</g>
</g>
<!-- Node1&#45;&gt;Node1 -->
<g id="edge36_Node000001_Node000001" class="edge">
<title>Node1&#45;&gt;Node1</title>
<g id="a_edge36_Node000001_Node000001"><a xlink:title=" ">
<path fill="none" stroke="#63b8ff" d="M567.79,-509.19C566.32,-514.2 557.4,-518 541,-518 515.41,-518 508.01,-508.73 518.81,-500.08"/>
<polygon fill="#63b8ff" stroke="#63b8ff" points="570.82,-507.44 563.19,-500.08 564.57,-510.59 570.82,-507.44"/>
</a>
</g>
</g>
<!-- Node2 -->
<g id="Node000002" class="node">
<title>Node2</title>
<g id="a_Node000002"><a xlink:href="../../d3/dd5/classFatVolume_a8d4aff8746c44b1c7a14d38f4e3851ba.xhtml#a8d4aff8746c44b1c7a14d38f4e3851ba" target="_top" xlink:title=" ">
<polygon fill="white" stroke="#666666" points="446,-1001 346,-1001 346,-982 446,-982 446,-1001"/>
<text text-anchor="middle" x="396" y="-989" font-family="Helvetica,sans-Serif" font-size="10.00">FatVolume::attrib</text>
</a>
</g>
</g>
<!-- Node1&#45;&gt;Node2 -->
<g id="edge1_Node000001_Node000002" class="edge">
<title>Node1&#45;&gt;Node2</title>
<g id="a_edge1_Node000001_Node000002"><a xlink:title=" ">
<path fill="none" stroke="#63b8ff" d="M539.76,-510.54C538.37,-592.82 528.95,-903.7 466,-973.5 460.69,-979.38 453.73,-983.45 446.26,-986.24"/>
<polygon fill="#63b8ff" stroke="#63b8ff" points="543.27,-510.16 539.91,-500.11 536.27,-510.06 543.27,-510.16"/>
</a>
</g>
</g>
<!-- Node5 -->
<g id="Node000005" class="node">
<title>Node5</title>
<g id="a_Node000005"><a xlink:href="../../d3/dd5/classFatVolume_a4c2f4b84089d6c03ef82f886f9fcd936.xhtml#a4c2f4b84089d6c03ef82f886f9fcd936" target="_top" xlink:title=" ">
<polygon fill="white" stroke="#666666" points="446,-964 346,-964 346,-945 446,-945 446,-964"/>
<text text-anchor="middle" x="396" y="-952" font-family="Helvetica,sans-Serif" font-size="10.00">FatVolume::attrib</text>
</a>
</g>
</g>
<!-- Node1&#45;&gt;Node5 -->
<g id="edge4_Node000001_Node000005" class="edge">
<title>Node1&#45;&gt;Node5</title>
<g id="a_edge4_Node000001_Node000005"><a xlink:title=" ">
<path fill="none" stroke="#63b8ff" d="M539.48,-510.49C537.05,-588.68 524.27,-872.69 466,-936.5 460.66,-942.35 453.67,-946.4 446.2,-949.19"/>
<polygon fill="#63b8ff" stroke="#63b8ff" points="542.99,-510.23 539.78,-500.13 535.99,-510.02 542.99,-510.23"/>
</a>
</g>
</g>
<!-- Node6 -->
<g id="Node000006" class="node">
<title>Node6</title>
<g id="a_Node000006"><a xlink:href="../../d3/dd5/classFatVolume_ac0f6cf6ece2285af777c1fdf5cf8c219.xhtml#ac0f6cf6ece2285af777c1fdf5cf8c219" target="_top" xlink:title=" ">
<polygon fill="white" stroke="#666666" points="445,-927 347,-927 347,-908 445,-908 445,-927"/>
<text text-anchor="middle" x="396" y="-915" font-family="Helvetica,sans-Serif" font-size="10.00">FatVolume::chdir</text>
</a>
</g>
</g>
<!-- Node1&#45;&gt;Node6 -->
<g id="edge5_Node000001_Node000006" class="edge">
<title>Node1&#45;&gt;Node6</title>
<g id="a_edge5_Node000001_Node000006"><a xlink:title=" ">
<path fill="none" stroke="#63b8ff" d="M539.17,-510.24C535.65,-583.91 519.65,-841.59 466,-899.5 460.36,-905.58 452.95,-909.72 445.08,-912.5"/>
<polygon fill="#63b8ff" stroke="#63b8ff" points="542.67,-510.2 539.63,-500.05 535.68,-509.88 542.67,-510.2"/>
</a>
</g>
</g>
<!-- Node7 -->
<g id="Node000007" class="node">
<title>Node7</title>
<g id="a_Node000007"><a xlink:href="../../d3/db4/classFatFile_a0853fbd44aee2798d14d8e3aed78f8bf.xhtml#a0853fbd44aee2798d14d8e3aed78f8bf" target="_top" xlink:title=" ">
<polygon fill="white" stroke="#666666" points="466,-890 326,-890 326,-871 466,-871 466,-890"/>
<text text-anchor="middle" x="396" y="-878" font-family="Helvetica,sans-Serif" font-size="10.00">FatFile::createContiguous</text>
</a>
</g>
</g>
<!-- Node1&#45;&gt;Node7 -->
<g id="edge6_Node000001_Node000007" class="edge">
<title>Node1&#45;&gt;Node7</title>
<g id="a_edge6_Node000001_Node000007"><a xlink:title=" ">
<path fill="none" stroke="#63b8ff" d="M538.78,-510.22C534.09,-579.53 515,-810.53 466,-862.5 462.86,-865.83 459.18,-868.58 455.19,-870.84"/>
<polygon fill="#63b8ff" stroke="#63b8ff" points="542.27,-510.42 539.43,-500.21 535.29,-509.96 542.27,-510.42"/>
</a>
</g>
</g>
<!-- Node8 -->
<g id="Node000008" class="node">
<title>Node8</title>
<g id="a_Node000008"><a xlink:href="../../d3/db4/classFatFile_a0afc2a1cffa238d1cb2049bfa2d8d199.xhtml#a0afc2a1cffa238d1cb2049bfa2d8d199" target="_top" xlink:title=" ">
<polygon fill="white" stroke="#666666" points="466,-853 326,-853 326,-834 466,-834 466,-853"/>
<text text-anchor="middle" x="396" y="-841" font-family="Helvetica,sans-Serif" font-size="10.00">FatFile::createContiguous</text>
</a>
</g>
</g>
<!-- Node1&#45;&gt;Node8 -->
<g id="edge7_Node000001_Node000008" class="edge">
<title>Node1&#45;&gt;Node8</title>
<g id="a_edge7_Node000001_Node000008"><a xlink:title=" ">
<path fill="none" stroke="#63b8ff" d="M538.3,-510.33C532.34,-575.17 510.33,-779.46 466,-825.5 462.74,-828.89 458.92,-831.67 454.79,-833.94"/>
<polygon fill="#63b8ff" stroke="#63b8ff" points="541.8,-510.49 539.2,-500.22 534.83,-509.87 541.8,-510.49"/>
</a>
</g>
</g>
<!-- Node9 -->
<g id="Node000009" class="node">
<title>Node9</title>
<g id="a_Node000009"><a xlink:href="../../d3/db4/classFatFile_a50242f98dea0d4488ce4039a279f2a57.xhtml#a50242f98dea0d4488ce4039a279f2a57" target="_top" xlink:title=" ">
<polygon fill="white" stroke="#666666" points="437.5,-816 354.5,-816 354.5,-797 437.5,-797 437.5,-816"/>
<text text-anchor="middle" x="396" y="-804" font-family="Helvetica,sans-Serif" font-size="10.00">FatFile::exists</text>
</a>
</g>
</g>
<!-- Node1&#45;&gt;Node9 -->
<g id="edge8_Node000001_Node000009" class="edge">
<title>Node1&#45;&gt;Node9</title>
<g id="a_edge8_Node000001_Node000009"><a xlink:title=" ">
<path fill="none" stroke="#63b8ff" d="M537.75,-510.05C530.48,-569.79 505.78,-748.25 466,-788.5 458.43,-796.16 448.03,-800.69 437.61,-803.34"/>
<polygon fill="#63b8ff" stroke="#63b8ff" points="541.23,-510.4 538.93,-500.05 534.28,-509.57 541.23,-510.4"/>
</a>
</g>
</g>
<!-- Node11 -->
<g id="Node000011" class="node">
<title>Node11</title>
<g id="a_Node000011"><a xlink:href="../../d3/dd5/classFatVolume_a21541734ad76f64ea24b9f45e2bd6117.xhtml#a21541734ad76f64ea24b9f45e2bd6117" target="_top" xlink:title=" ">
<polygon fill="white" stroke="#666666" points="447.5,-779 344.5,-779 344.5,-760 447.5,-760 447.5,-779"/>
<text text-anchor="middle" x="396" y="-767" font-family="Helvetica,sans-Serif" font-size="10.00">FatVolume::exists</text>
</a>
</g>
</g>
<!-- Node1&#45;&gt;Node11 -->
<g id="edge10_Node000001_Node000011" class="edge">
<title>Node1&#45;&gt;Node11</title>
<g id="a_edge10_Node000001_Node000011"><a xlink:title=" ">
<path fill="none" stroke="#63b8ff" d="M540.58,-510.35C540.86,-558.86 534.54,-684.39 466,-751.5 460.87,-756.52 454.52,-760.19 447.77,-762.87"/>
<polygon fill="#63b8ff" stroke="#63b8ff" points="544.08,-510.17 540.41,-500.23 537.08,-510.29 544.08,-510.17"/>
</a>
</g>
</g>
<!-- Node12 -->
<g id="Node000012" class="node">
<title>Node12</title>
<g id="a_Node000012"><a xlink:href="../../d3/db4/classFatFile_a38f9a296138648d6135cbbbf41ef6b92.xhtml#a38f9a296138648d6135cbbbf41ef6b92" target="_top" xlink:title=" ">
<polygon fill="white" stroke="#666666" points="439,-742 353,-742 353,-723 439,-723 439,-742"/>
<text text-anchor="middle" x="396" y="-730" font-family="Helvetica,sans-Serif" font-size="10.00">FatFile::FatFile</text>
</a>
</g>
</g>
<!-- Node1&#45;&gt;Node12 -->
<g id="edge11_Node000001_Node000012" class="edge">
<title>Node1&#45;&gt;Node12</title>
<g id="a_edge11_Node000001_Node000012"><a xlink:title=" ">
<path fill="none" stroke="#63b8ff" d="M539.48,-510.45C537.21,-554.1 525.5,-658.68 466,-714.5 458.6,-721.45 448.86,-725.79 439.04,-728.48"/>
<polygon fill="#63b8ff" stroke="#63b8ff" points="542.98,-510.41 539.88,-500.28 535.99,-510.13 542.98,-510.41"/>
</a>
</g>
</g>
<!-- Node13 -->
<g id="Node000013" class="node">
<title>Node13</title>
<g id="a_Node000013"><a xlink:href="../../da/d64/classStdioStream_a4ffc37225fb6deed98905aa71d1f9c4b.xhtml#a4ffc37225fb6deed98905aa71d1f9c4b" target="_top" xlink:title=" ">
<polygon fill="white" stroke="#666666" points="451,-705 341,-705 341,-686 451,-686 451,-705"/>
<text text-anchor="middle" x="396" y="-693" font-family="Helvetica,sans-Serif" font-size="10.00">StdioStream::fopen</text>
</a>
</g>
</g>
<!-- Node1&#45;&gt;Node13 -->
<g id="edge12_Node000001_Node000013" class="edge">
<title>Node1&#45;&gt;Node13</title>
<g id="a_edge12_Node000001_Node000013"><a xlink:title=" ">
<path fill="none" stroke="#63b8ff" d="M537.93,-510.77C532.9,-549.2 516.46,-632.83 466,-677.5 461.64,-681.36 456.56,-684.4 451.16,-686.81"/>
<polygon fill="#63b8ff" stroke="#63b8ff" points="541.46,-510.72 539.15,-500.38 534.51,-509.91 541.46,-510.72"/>
</a>
</g>
</g>
<!-- Node14 -->
<g id="Node000014" class="node">
<title>Node14</title>
<g id="a_Node000014"><a xlink:href="../../d3/dd5/classFatVolume_ac5fc83cac7fd3af0b140a7986b9472f8.xhtml#ac5fc83cac7fd3af0b140a7986b9472f8" target="_top" xlink:title=" ">
<polygon fill="white" stroke="#666666" points="437,-668 355,-668 355,-649 437,-649 437,-668"/>
<text text-anchor="middle" x="396" y="-656" font-family="Helvetica,sans-Serif" font-size="10.00">FatVolume::ls</text>
</a>
</g>
</g>
<!-- Node1&#45;&gt;Node14 -->
<g id="edge13_Node000001_Node000014" class="edge">
<title>Node1&#45;&gt;Node14</title>
<g id="a_edge13_Node000001_Node000014"><a xlink:title=" ">
<path fill="none" stroke="#63b8ff" d="M535.83,-510.33C527.97,-542.61 507.88,-606.37 466,-640.5 457.84,-647.15 447.5,-651.37 437.31,-654.03"/>
<polygon fill="#63b8ff" stroke="#63b8ff" points="539.3,-510.85 538.11,-500.32 532.47,-509.29 539.3,-510.85"/>
</a>
</g>
</g>
<!-- Node15 -->
<g id="Node000015" class="node">
<title>Node15</title>
<g id="a_Node000015"><a xlink:href="../../d3/db4/classFatFile_abab5b9f72cc796388dd4eed01d13d90d.xhtml#abab5b9f72cc796388dd4eed01d13d90d" target="_top" xlink:title=" ">
<polygon fill="white" stroke="#666666" points="437.5,-613 354.5,-613 354.5,-594 437.5,-594 437.5,-613"/>
<text text-anchor="middle" x="396" y="-601" font-family="Helvetica,sans-Serif" font-size="10.00">FatFile::mkdir</text>
</a>
</g>
</g>
<!-- Node1&#45;&gt;Node15 -->
<g id="edge14_Node000001_Node000015" class="edge">
<title>Node1&#45;&gt;Node15</title>
<g id="a_edge14_Node000001_Node000015"><a xlink:title=" ">
<path fill="none" stroke="#63b8ff" d="M529.13,-508.77C516.35,-528.77 493.4,-560.52 466,-579.5 457.14,-585.64 446.56,-590.35 436.37,-593.9"/>
<polygon fill="#63b8ff" stroke="#63b8ff" points="532.27,-510.35 534.55,-500 526.31,-506.67 532.27,-510.35"/>
</a>
</g>
</g>
<!-- Node19 -->
<g id="Node000019" class="node">
<title>Node19</title>
<g id="a_Node000019"><a xlink:href="../../d3/db4/classFatFile_a4b42f2454ff462555c07ea094a92a1e0.xhtml#a4b42f2454ff462555c07ea094a92a1e0" target="_top" xlink:title=" ">
<polygon fill="white" stroke="#666666" points="272,-575 180,-575 180,-556 272,-556 272,-575"/>
<text text-anchor="middle" x="226" y="-563" font-family="Helvetica,sans-Serif" font-size="10.00">FatFile::rename</text>
</a>
</g>
</g>
<!-- Node1&#45;&gt;Node19 -->
<g id="edge49_Node000001_Node000019" class="edge">
<title>Node1&#45;&gt;Node19</title>
<g id="a_edge49_Node000001_Node000019"><a xlink:title=" ">
<path fill="none" stroke="#63b8ff" d="M523.73,-507.25C509.77,-520.44 488.41,-537.97 466,-546.5 402,-570.85 321.57,-571.75 272.24,-569.29"/>
<polygon fill="#63b8ff" stroke="#63b8ff" points="526.34,-509.58 531.04,-500.09 521.45,-504.58 526.34,-509.58"/>
</a>
</g>
</g>
<!-- Node20 -->
<g id="Node000020" class="node">
<title>Node20</title>
<g id="a_Node000020"><a xlink:href="../../d3/db4/classFatFile_acb4108f33aa7e10fff747b4939787c5a.xhtml#acb4108f33aa7e10fff747b4939787c5a" target="_top" xlink:title=" ">
<polygon fill="white" stroke="#666666" points="437.5,-537 354.5,-537 354.5,-518 437.5,-518 437.5,-537"/>
<text text-anchor="middle" x="396" y="-525" font-family="Helvetica,sans-Serif" font-size="10.00">FatFile::mkdir</text>
</a>
</g>
</g>
<!-- Node1&#45;&gt;Node20 -->
<g id="edge20_Node000001_Node000020" class="edge">
<title>Node1&#45;&gt;Node20</title>
<g id="a_edge20_Node000001_Node000020"><a xlink:title=" ">
<path fill="none" stroke="#63b8ff" d="M493.42,-502.55C474.23,-507.52 452.29,-513.19 434.2,-517.88"/>
<polygon fill="#63b8ff" stroke="#63b8ff" points="494.37,-505.92 503.17,-500.03 492.62,-499.14 494.37,-505.92"/>
</a>
</g>
</g>
<!-- Node21 -->
<g id="Node000021" class="node">
<title>Node21</title>
<g id="a_Node000021"><a xlink:href="../../d0/d4a/classStreamBaseClass_ae35297f11506f154597015f9216b72df.xhtml#ae35297f11506f154597015f9216b72df" target="_top" xlink:title=" ">
<polygon fill="white" stroke="#666666" points="462,-500 330,-500 330,-481 462,-481 462,-500"/>
<text text-anchor="middle" x="396" y="-488" font-family="Helvetica,sans-Serif" font-size="10.00">StreamBaseClass::open</text>
</a>
</g>
</g>
<!-- Node1&#45;&gt;Node21 -->
<g id="edge21_Node000001_Node000021" class="edge">
<title>Node1&#45;&gt;Node21</title>
<g id="a_edge21_Node000001_Node000021"><a xlink:title=" ">
<path fill="none" stroke="#63b8ff" d="M491.68,-490.5C482.2,-490.5 472.12,-490.5 462.21,-490.5"/>
<polygon fill="#63b8ff" stroke="#63b8ff" points="491.68,-494 501.68,-490.5 491.68,-487 491.68,-494"/>
</a>
</g>
</g>
<!-- Node28 -->
<g id="Node000028" class="node">
<title>Node28</title>
<g id="a_Node000028"><a xlink:href="../../d3/db4/classFatFile_a2da94d4556eebd807669e0514433fffa.xhtml#a2da94d4556eebd807669e0514433fffa" target="_top" xlink:title=" ">
<polygon fill="white" stroke="#666666" points="435,-463 357,-463 357,-444 435,-444 435,-463"/>
<text text-anchor="middle" x="396" y="-451" font-family="Helvetica,sans-Serif" font-size="10.00">FatFile::open</text>
</a>
</g>
</g>
<!-- Node1&#45;&gt;Node28 -->
<g id="edge28_Node000001_Node000028" class="edge">
<title>Node1&#45;&gt;Node28</title>
<g id="a_edge28_Node000001_Node000028"><a xlink:title=" ">
<path fill="none" stroke="#63b8ff" d="M493.42,-478.45C474.23,-473.48 452.29,-467.81 434.2,-463.12"/>
<polygon fill="#63b8ff" stroke="#63b8ff" points="492.62,-481.86 503.17,-480.97 494.37,-475.08 492.62,-481.86"/>
</a>
</g>
</g>
<!-- Node29 -->
<g id="Node000029" class="node">
<title>Node29</title>
<g id="a_Node000029"><a xlink:href="../../d3/dd5/classFatVolume_a30b9fc33526a5c7716b95da93fbe0989.xhtml#a30b9fc33526a5c7716b95da93fbe0989" target="_top" xlink:title=" ">
<polygon fill="white" stroke="#666666" points="445,-426 347,-426 347,-407 445,-407 445,-426"/>
<text text-anchor="middle" x="396" y="-414" font-family="Helvetica,sans-Serif" font-size="10.00">FatVolume::open</text>
</a>
</g>
</g>
<!-- Node1&#45;&gt;Node29 -->
<g id="edge29_Node000001_Node000029" class="edge">
<title>Node1&#45;&gt;Node29</title>
<g id="a_edge29_Node000001_Node000029"><a xlink:title=" ">
<path fill="none" stroke="#63b8ff" d="M522.23,-474.3C507.96,-462.07 486.92,-445.71 466,-435.5 458.29,-431.74 449.73,-428.63 441.33,-426.09"/>
<polygon fill="#63b8ff" stroke="#63b8ff" points="519.97,-476.98 529.79,-480.95 524.59,-471.72 519.97,-476.98"/>
</a>
</g>
</g>
<!-- Node36 -->
<g id="Node000036" class="node">
<title>Node36</title>
<g id="a_Node000036"><a xlink:href="../../d3/db4/classFatFile_a22c2b68a8a426758d15981de17431b5d.xhtml#a22c2b68a8a426758d15981de17431b5d" target="_top" xlink:title=" ">
<polygon fill="white" stroke="#666666" points="435,-389 357,-389 357,-370 435,-370 435,-389"/>
<text text-anchor="middle" x="396" y="-377" font-family="Helvetica,sans-Serif" font-size="10.00">FatFile::open</text>
</a>
</g>
</g>
<!-- Node1&#45;&gt;Node36 -->
<g id="edge34_Node000001_Node000036" class="edge">
<title>Node1&#45;&gt;Node36</title>
<g id="a_edge34_Node000001_Node000036"><a xlink:title=" ">
<path fill="none" stroke="#63b8ff" d="M529.87,-471.87C517.52,-450.91 494.7,-417.34 466,-398.5 456.86,-392.5 445.85,-388.38 435.34,-385.55"/>
<polygon fill="#63b8ff" stroke="#63b8ff" points="526.94,-473.8 534.93,-480.77 533.03,-470.34 526.94,-473.8"/>
</a>
</g>
</g>
<!-- Node37 -->
<g id="Node000037" class="node">
<title>Node37</title>
<g id="a_Node000037"><a xlink:href="../../d3/db4/classFatFile_aa729447d16ce34a9a575c27ac58dbb12.xhtml#aa729447d16ce34a9a575c27ac58dbb12" target="_top" xlink:title=" ">
<polygon fill="white" stroke="#666666" points="435,-352 357,-352 357,-333 435,-333 435,-352"/>
<text text-anchor="middle" x="396" y="-340" font-family="Helvetica,sans-Serif" font-size="10.00">FatFile::open</text>
</a>
</g>
</g>
<!-- Node1&#45;&gt;Node37 -->
<g id="edge35_Node000001_Node000037" class="edge">
<title>Node1&#45;&gt;Node37</title>
<g id="a_edge35_Node000001_Node000037"><a xlink:title=" ">
<path fill="none" stroke="#63b8ff" d="M534.16,-471.09C524.61,-442.7 502.91,-390.11 466,-361.5 457.16,-354.65 446.01,-350.27 435.26,-347.47"/>
<polygon fill="#63b8ff" stroke="#63b8ff" points="530.85,-472.23 537.23,-480.69 537.52,-470.1 530.85,-472.23"/>
</a>
</g>
</g>
<!-- Node38 -->
<g id="Node000038" class="node">
<title>Node38</title>
<g id="a_Node000038"><a xlink:href="../../d0/db5/classFsBaseFile_aa767859d4a4b4716ebbc4ea42a6d74df.xhtml#aa767859d4a4b4716ebbc4ea42a6d74df" target="_top" xlink:title=" ">
<polygon fill="white" stroke="#666666" points="445.5,-315 346.5,-315 346.5,-296 445.5,-296 445.5,-315"/>
<text text-anchor="middle" x="396" y="-303" font-family="Helvetica,sans-Serif" font-size="10.00">FsBaseFile::open</text>
</a>
</g>
</g>
<!-- Node1&#45;&gt;Node38 -->
<g id="edge37_Node000001_Node000038" class="edge">
<title>Node1&#45;&gt;Node38</title>
<g id="a_edge37_Node000001_Node000038"><a xlink:title=" ">
<path fill="none" stroke="#63b8ff" d="M536.8,-470.64C530.12,-435.76 511.36,-363.49 466,-324.5 460.16,-319.48 453.1,-315.77 445.75,-313.04"/>
<polygon fill="#63b8ff" stroke="#63b8ff" points="533.43,-471.7 538.62,-480.94 540.33,-470.48 533.43,-471.7"/>
</a>
</g>
</g>
<!-- Node43 -->
<g id="Node000043" class="node">
<title>Node43</title>
<g id="a_Node000043"><a xlink:href="../../d0/db5/classFsBaseFile_a4743d118f085f6a13692d12bdd3c4556.xhtml#a4743d118f085f6a13692d12bdd3c4556" target="_top" xlink:title=" ">
<polygon fill="white" stroke="#666666" points="445.5,-278 346.5,-278 346.5,-259 445.5,-259 445.5,-278"/>
<text text-anchor="middle" x="396" y="-266" font-family="Helvetica,sans-Serif" font-size="10.00">FsBaseFile::open</text>
</a>
</g>
</g>
<!-- Node1&#45;&gt;Node43 -->
<g id="edge42_Node000001_Node000043" class="edge">
<title>Node1&#45;&gt;Node43</title>
<g id="a_edge42_Node000001_Node000043"><a xlink:title=" ">
<path fill="none" stroke="#63b8ff" d="M538.62,-470.55C534.73,-429.96 520.08,-337.37 466,-287.5 460.25,-282.19 453.14,-278.35 445.71,-275.57"/>
<polygon fill="#63b8ff" stroke="#63b8ff" points="535.16,-471.08 539.48,-480.75 542.13,-470.5 535.16,-471.08"/>
</a>
</g>
</g>
<!-- Node44 -->
<g id="Node000044" class="node">
<title>Node44</title>
<g id="a_Node000044"><a xlink:href="../../d0/db5/classFsBaseFile_a0186e56b21fd584b02db4b763df05f64.xhtml#a0186e56b21fd584b02db4b763df05f64" target="_top" xlink:title=" ">
<polygon fill="white" stroke="#666666" points="445.5,-241 346.5,-241 346.5,-222 445.5,-222 445.5,-241"/>
<text text-anchor="middle" x="396" y="-229" font-family="Helvetica,sans-Serif" font-size="10.00">FsBaseFile::open</text>
</a>
</g>
</g>
<!-- Node1&#45;&gt;Node44 -->
<g id="edge43_Node000001_Node000044" class="edge">
<title>Node1&#45;&gt;Node44</title>
<g id="a_edge43_Node000001_Node000044"><a xlink:title=" ">
<path fill="none" stroke="#63b8ff" d="M539.93,-470.46C538.65,-424.64 528.9,-311.51 466,-250.5 460.29,-244.96 453.13,-241.01 445.59,-238.19"/>
<polygon fill="#63b8ff" stroke="#63b8ff" points="536.43,-470.64 540.1,-480.58 543.43,-470.52 536.43,-470.64"/>
</a>
</g>
</g>
<!-- Node45 -->
<g id="Node000045" class="node">
<title>Node45</title>
<g id="a_Node000045"><a xlink:href="../../d3/db4/classFatFile_a662db270440e29b619cbc89f5595f73d.xhtml#a662db270440e29b619cbc89f5595f73d" target="_top" xlink:title=" ">
<polygon fill="white" stroke="#666666" points="435,-204 357,-204 357,-185 435,-185 435,-204"/>
<text text-anchor="middle" x="396" y="-192" font-family="Helvetica,sans-Serif" font-size="10.00">FatFile::open</text>
</a>
</g>
</g>
<!-- Node1&#45;&gt;Node45 -->
<g id="edge44_Node000001_Node000045" class="edge">
<title>Node1&#45;&gt;Node45</title>
<g id="a_edge44_Node000001_Node000045"><a xlink:title=" ">
<path fill="none" stroke="#63b8ff" d="M537.26,-470.5C529.03,-413.28 502.82,-250.6 466,-213.5 457.77,-205.21 446.28,-200.45 435.04,-197.74"/>
<polygon fill="#63b8ff" stroke="#63b8ff" points="533.84,-471.34 538.7,-480.75 540.78,-470.36 533.84,-471.34"/>
</a>
</g>
</g>
<!-- Node46 -->
<g id="Node000046" class="node">
<title>Node46</title>
<g id="a_Node000046"><a xlink:href="../../d3/db4/classFatFile_a75d3276f0b02b03e863afafe5731fedb.xhtml#a75d3276f0b02b03e863afafe5731fedb" target="_top" xlink:title=" ">
<polygon fill="white" stroke="#666666" points="442,-167 350,-167 350,-148 442,-148 442,-167"/>
<text text-anchor="middle" x="396" y="-155" font-family="Helvetica,sans-Serif" font-size="10.00">FatFile::remove</text>
</a>
</g>
</g>
<!-- Node1&#45;&gt;Node46 -->
<g id="edge45_Node000001_Node000046" class="edge">
<title>Node1&#45;&gt;Node46</title>
<g id="a_edge45_Node000001_Node000046"><a xlink:title=" ">
<path fill="none" stroke="#63b8ff" d="M537.96,-470.73C531.18,-408.71 507.43,-219.5 466,-176.5 459.53,-169.79 450.94,-165.38 442.01,-162.5"/>
<polygon fill="#63b8ff" stroke="#63b8ff" points="534.49,-471.2 539.03,-480.77 541.45,-470.46 534.49,-471.2"/>
</a>
</g>
</g>
<!-- Node47 -->
<g id="Node000047" class="node">
<title>Node47</title>
<g id="a_Node000047"><a xlink:href="../../d3/dd5/classFatVolume_abb11d05ef407775bcdb9b14a6c608433.xhtml#abb11d05ef407775bcdb9b14a6c608433" target="_top" xlink:title=" ">
<polygon fill="white" stroke="#666666" points="451.5,-130 340.5,-130 340.5,-111 451.5,-111 451.5,-130"/>
<text text-anchor="middle" x="396" y="-118" font-family="Helvetica,sans-Serif" font-size="10.00">FatVolume::remove</text>
</a>
</g>
</g>
<!-- Node1&#45;&gt;Node47 -->
<g id="edge46_Node000001_Node000047" class="edge">
<title>Node1&#45;&gt;Node47</title>
<g id="a_edge46_Node000001_Node000047"><a xlink:title=" ">
<path fill="none" stroke="#63b8ff" d="M538.48,-470.62C532.99,-403.75 511.99,-188.38 466,-139.5 461.91,-135.16 456.93,-131.77 451.54,-129.14"/>
<polygon fill="#63b8ff" stroke="#63b8ff" points="535,-470.99 539.28,-480.68 541.98,-470.43 535,-470.99"/>
</a>
</g>
</g>
<!-- Node48 -->
<g id="Node000048" class="node">
<title>Node48</title>
<g id="a_Node000048"><a xlink:href="../../d3/dd5/classFatVolume_a5e4ea6c91569dc435c7aacd7ba704911.xhtml#a5e4ea6c91569dc435c7aacd7ba704911" target="_top" xlink:title=" ">
<polygon fill="white" stroke="#666666" points="451.5,-93 340.5,-93 340.5,-74 451.5,-74 451.5,-93"/>
<text text-anchor="middle" x="396" y="-81" font-family="Helvetica,sans-Serif" font-size="10.00">FatVolume::rename</text>
</a>
</g>
</g>
<!-- Node1&#45;&gt;Node48 -->
<g id="edge47_Node000001_Node000048" class="edge">
<title>Node1&#45;&gt;Node48</title>
<g id="a_edge47_Node000001_Node000048"><a xlink:title=" ">
<path fill="none" stroke="#63b8ff" d="M538.91,-470.43C534.61,-398.83 516.55,-157.28 466,-102.5 461.96,-98.12 457,-94.71 451.62,-92.07"/>
<polygon fill="#63b8ff" stroke="#63b8ff" points="535.43,-470.96 539.5,-480.75 542.42,-470.56 535.43,-470.96"/>
</a>
</g>
</g>
<!-- Node50 -->
<g id="Node000050" class="node">
<title>Node50</title>
<g id="a_Node000050"><a xlink:href="../../d3/dd5/classFatVolume_af1181990bcece7dbb7d19293dd4fe11a.xhtml#af1181990bcece7dbb7d19293dd4fe11a" target="_top" xlink:title=" ">
<polygon fill="white" stroke="#666666" points="446,-56 346,-56 346,-37 446,-37 446,-56"/>
<text text-anchor="middle" x="396" y="-44" font-family="Helvetica,sans-Serif" font-size="10.00">FatVolume::rmdir</text>
</a>
</g>
</g>
<!-- Node1&#45;&gt;Node50 -->
<g id="edge50_Node000001_Node000050" class="edge">
<title>Node1&#45;&gt;Node50</title>
<g id="a_edge50_Node000001_Node000050"><a xlink:title=" ">
<path fill="none" stroke="#63b8ff" d="M539.28,-470.52C536.13,-394.74 521.2,-126.29 466,-65.5 460.65,-59.61 453.67,-55.48 446.2,-52.6"/>
<polygon fill="#63b8ff" stroke="#63b8ff" points="535.8,-471.11 539.68,-480.96 542.79,-470.84 535.8,-471.11"/>
</a>
</g>
</g>
<!-- Node51 -->
<g id="Node000051" class="node">
<title>Node51</title>
<g id="a_Node000051"><a xlink:href="../../d3/dd5/classFatVolume_a86a08bf789e33567418465b9b12751e2.xhtml#a86a08bf789e33567418465b9b12751e2" target="_top" xlink:title=" ">
<polygon fill="white" stroke="#666666" points="453,-19 339,-19 339,0 453,0 453,-19"/>
<text text-anchor="middle" x="396" y="-7" font-family="Helvetica,sans-Serif" font-size="10.00">FatVolume::truncate</text>
</a>
</g>
</g>
<!-- Node1&#45;&gt;Node51 -->
<g id="edge51_Node000001_Node000051" class="edge">
<title>Node1&#45;&gt;Node51</title>
<g id="a_edge51_Node000001_Node000051"><a xlink:title=" ">
<path fill="none" stroke="#63b8ff" d="M539.62,-470.77C537.69,-391.1 526.49,-94.14 466,-27.5 462.34,-23.47 457.9,-20.29 453.05,-17.79"/>
<polygon fill="#63b8ff" stroke="#63b8ff" points="536.13,-470.98 539.84,-480.9 543.12,-470.82 536.13,-470.98"/>
</a>
</g>
</g>
<!-- Node3 -->
<g id="Node000003" class="node">
<title>Node3</title>
<g id="a_Node000003"><a xlink:href="../../d4/d27/classFsVolume_a10bf5efca24ce1412e03b3e15837b2fd.xhtml#a10bf5efca24ce1412e03b3e15837b2fd" target="_top" xlink:title=" ">
<polygon fill="white" stroke="#666666" points="274.5,-1019 177.5,-1019 177.5,-1000 274.5,-1000 274.5,-1019"/>
<text text-anchor="middle" x="226" y="-1007" font-family="Helvetica,sans-Serif" font-size="10.00">FsVolume::attrib</text>
</a>
</g>
</g>
<!-- Node2&#45;&gt;Node3 -->
<g id="edge2_Node000002_Node000003" class="edge">
<title>Node2&#45;&gt;Node3</title>
<g id="a_edge2_Node000002_Node000003"><a xlink:title=" ">
<path fill="none" stroke="#63b8ff" d="M335.98,-997.82C315.91,-999.97 293.73,-1002.35 274.66,-1004.39"/>
<polygon fill="#63b8ff" stroke="#63b8ff" points="336.39,-1001.3 345.96,-996.75 335.64,-994.34 336.39,-1001.3"/>
</a>
</g>
</g>
<!-- Node4 -->
<g id="Node000004" class="node">
<title>Node4</title>
<g id="a_Node000004"><a xlink:href="../../d4/d27/classFsVolume_a76ac996fb61db9665fb5d5b4916ca16f.xhtml#a76ac996fb61db9665fb5d5b4916ca16f" target="_top" xlink:title=" ">
<polygon fill="white" stroke="#666666" points="274.5,-982 177.5,-982 177.5,-963 274.5,-963 274.5,-982"/>
<text text-anchor="middle" x="226" y="-970" font-family="Helvetica,sans-Serif" font-size="10.00">FsVolume::attrib</text>
</a>
</g>
</g>
<!-- Node2&#45;&gt;Node4 -->
<g id="edge3_Node000002_Node000004" class="edge">
<title>Node2&#45;&gt;Node4</title>
<g id="a_edge3_Node000002_Node000004"><a xlink:title=" ">
<path fill="none" stroke="#63b8ff" d="M335.98,-984.83C315.91,-982.55 293.73,-980.05 274.66,-977.89"/>
<polygon fill="#63b8ff" stroke="#63b8ff" points="335.63,-988.31 345.96,-985.95 336.41,-981.35 335.63,-988.31"/>
</a>
</g>
</g>
<!-- Node10 -->
<g id="Node000010" class="node">
<title>Node10</title>
<g id="a_Node000010"><a xlink:href="../../d0/db5/classFsBaseFile_a76aea9766ffeae5454381a0704e62505.xhtml#a76aea9766ffeae5454381a0704e62505" target="_top" xlink:title=" ">
<polygon fill="white" stroke="#666666" points="278,-816 174,-816 174,-797 278,-797 278,-816"/>
<text text-anchor="middle" x="226" y="-804" font-family="Helvetica,sans-Serif" font-size="10.00">FsBaseFile::exists</text>
</a>
</g>
</g>
<!-- Node9&#45;&gt;Node10 -->
<g id="edge9_Node000009_Node000010" class="edge">
<title>Node9&#45;&gt;Node10</title>
<g id="a_edge9_Node000009_Node000010"><a xlink:title=" ">
<path fill="none" stroke="#63b8ff" d="M344.05,-806.5C323.17,-806.5 299.04,-806.5 278.13,-806.5"/>
<polygon fill="#63b8ff" stroke="#63b8ff" points="344.33,-810 354.33,-806.5 344.33,-803 344.33,-810"/>
</a>
</g>
</g>
<!-- Node15&#45;&gt;Node15 -->
<g id="edge17_Node000015_Node000015" class="edge">
<title>Node15&#45;&gt;Node15</title>
<g id="a_edge17_Node000015_Node000015"><a xlink:title=" ">
<path fill="none" stroke="#63b8ff" d="M422.79,-622.19C421.32,-627.2 412.4,-631 396,-631 370.41,-631 363.01,-621.73 373.81,-613.08"/>
<polygon fill="#63b8ff" stroke="#63b8ff" points="425.82,-620.44 418.19,-613.08 419.57,-623.59 425.82,-620.44"/>
</a>
</g>
</g>
<!-- Node16 -->
<g id="Node000016" class="node">
<title>Node16</title>
<g id="a_Node000016"><a xlink:href="../../d3/dd5/classFatVolume_ad80bccf8f24ff001a7b9277effc2cc52.xhtml#ad80bccf8f24ff001a7b9277effc2cc52" target="_top" xlink:title=" ">
<polygon fill="white" stroke="#666666" points="277,-649 175,-649 175,-630 277,-630 277,-649"/>
<text text-anchor="middle" x="226" y="-637" font-family="Helvetica,sans-Serif" font-size="10.00">FatVolume::mkdir</text>
</a>
</g>
</g>
<!-- Node15&#45;&gt;Node16 -->
<g id="edge15_Node000015_Node000016" class="edge">
<title>Node15&#45;&gt;Node16</title>
<g id="a_edge15_Node000015_Node000016"><a xlink:title=" ">
<path fill="none" stroke="#63b8ff" d="M344.32,-614.36C321.1,-619.34 293.83,-625.18 271.42,-629.98"/>
<polygon fill="#63b8ff" stroke="#63b8ff" points="345.29,-617.73 354.33,-612.21 343.82,-610.89 345.29,-617.73"/>
</a>
</g>
</g>
<!-- Node18 -->
<g id="Node000018" class="node">
<title>Node18</title>
<g id="a_Node000018"><a xlink:href="../../d0/db5/classFsBaseFile_a8b7aa7f2c63882e483336dfe12ef6800.xhtml#a8b7aa7f2c63882e483336dfe12ef6800" target="_top" xlink:title=" ">
<polygon fill="white" stroke="#666666" points="278,-612 174,-612 174,-593 278,-593 278,-612"/>
<text text-anchor="middle" x="226" y="-600" font-family="Helvetica,sans-Serif" font-size="10.00">FsBaseFile::mkdir</text>
</a>
</g>
</g>
<!-- Node15&#45;&gt;Node18 -->
<g id="edge18_Node000015_Node000018" class="edge">
<title>Node15&#45;&gt;Node18</title>
<g id="a_edge18_Node000015_Node000018"><a xlink:title=" ">
<path fill="none" stroke="#63b8ff" d="M344.05,-603.2C323.17,-603.07 299.04,-602.93 278.13,-602.8"/>
<polygon fill="#63b8ff" stroke="#63b8ff" points="344.31,-606.7 354.33,-603.26 344.35,-599.7 344.31,-606.7"/>
</a>
</g>
</g>
<!-- Node15&#45;&gt;Node19 -->
<g id="edge19_Node000015_Node000019" class="edge">
<title>Node15&#45;&gt;Node19</title>
<g id="a_edge19_Node000015_Node000019"><a xlink:title=" ">
<path fill="none" stroke="#63b8ff" d="M344.32,-592.04C320.27,-586.6 291.88,-580.18 269.05,-575.01"/>
<polygon fill="#63b8ff" stroke="#63b8ff" points="343.81,-595.51 354.33,-594.3 345.35,-588.68 343.81,-595.51"/>
</a>
</g>
</g>
<!-- Node17 -->
<g id="Node000017" class="node">
<title>Node17</title>
<g id="a_Node000017"><a xlink:href="../../d3/dd5/classFatVolume_ab423ec4f7e5b58a6d454f328f61fd864.xhtml#ab423ec4f7e5b58a6d454f328f61fd864" target="_top" xlink:title=" ">
<polygon fill="white" stroke="#666666" points="114,-649 12,-649 12,-630 114,-630 114,-649"/>
<text text-anchor="middle" x="63" y="-637" font-family="Helvetica,sans-Serif" font-size="10.00">FatVolume::mkdir</text>
</a>
</g>
</g>
<!-- Node16&#45;&gt;Node17 -->
<g id="edge16_Node000016_Node000017" class="edge">
<title>Node16&#45;&gt;Node17</title>
<g id="a_edge16_Node000016_Node000017"><a xlink:title=" ">
<path fill="none" stroke="#63b8ff" d="M164.73,-639.5C148.03,-639.5 130.08,-639.5 114.03,-639.5"/>
<polygon fill="#63b8ff" stroke="#63b8ff" points="164.94,-643 174.94,-639.5 164.94,-636 164.94,-643"/>
</a>
</g>
</g>
<!-- Node22 -->
<g id="Node000022" class="node">
<title>Node22</title>
<g id="a_Node000022"><a xlink:href="../../d0/d68/classifstream_a169694d6535fd551fd6db48a2867590e.xhtml#a169694d6535fd551fd6db48a2867590e" target="_top" xlink:title=" ">
<polygon fill="white" stroke="#666666" points="270,-537 182,-537 182,-518 270,-518 270,-537"/>
<text text-anchor="middle" x="226" y="-525" font-family="Helvetica,sans-Serif" font-size="10.00">ifstream::open</text>
</a>
</g>
</g>
<!-- Node21&#45;&gt;Node22 -->
<g id="edge22_Node000021_Node000022" class="edge">
<title>Node21&#45;&gt;Node22</title>
<g id="a_edge22_Node000021_Node000022"><a xlink:title=" ">
<path fill="none" stroke="#63b8ff" d="M341.74,-502.23C318.64,-507.32 291.95,-513.2 270.12,-518"/>
<polygon fill="#63b8ff" stroke="#63b8ff" points="342.72,-505.6 351.74,-500.03 341.22,-498.76 342.72,-505.6"/>
</a>
</g>
</g>
<!-- Node24 -->
<g id="Node000024" class="node">
<title>Node24</title>
<g id="a_Node000024"><a xlink:href="../../d7/df9/classfstream_a85b24d94552991f33caf4c3a83420879.xhtml#a85b24d94552991f33caf4c3a83420879" target="_top" xlink:title=" ">
<polygon fill="white" stroke="#666666" points="268.5,-500 183.5,-500 183.5,-481 268.5,-481 268.5,-500"/>
<text text-anchor="middle" x="226" y="-488" font-family="Helvetica,sans-Serif" font-size="10.00">fstream::open</text>
</a>
</g>
</g>
<!-- Node21&#45;&gt;Node24 -->
<g id="edge24_Node000021_Node000024" class="edge">
<title>Node21&#45;&gt;Node24</title>
<g id="a_edge24_Node000021_Node000024"><a xlink:title=" ">
<path fill="none" stroke="#63b8ff" d="M319.4,-490.5C301.99,-490.5 284.1,-490.5 268.75,-490.5"/>
<polygon fill="#63b8ff" stroke="#63b8ff" points="319.57,-494 329.57,-490.5 319.57,-487 319.57,-494"/>
</a>
</g>
</g>
<!-- Node26 -->
<g id="Node000026" class="node">
<title>Node26</title>
<g id="a_Node000026"><a xlink:href="../../d9/d93/classofstream_a4b9d30c742fbe01baa336406c7afdcb2.xhtml#a4b9d30c742fbe01baa336406c7afdcb2" target="_top" xlink:title=" ">
<polygon fill="white" stroke="#666666" points="271.5,-463 180.5,-463 180.5,-444 271.5,-444 271.5,-463"/>
<text text-anchor="middle" x="226" y="-451" font-family="Helvetica,sans-Serif" font-size="10.00">ofstream::open</text>
</a>
</g>
</g>
<!-- Node21&#45;&gt;Node26 -->
<g id="edge26_Node000021_Node000026" class="edge">
<title>Node21&#45;&gt;Node26</title>
<g id="a_edge26_Node000021_Node000026"><a xlink:title=" ">
<path fill="none" stroke="#63b8ff" d="M341.78,-478.78C318.78,-473.71 292.2,-467.86 270.41,-463.06"/>
<polygon fill="#63b8ff" stroke="#63b8ff" points="341.22,-482.24 351.74,-480.97 342.72,-475.4 341.22,-482.24"/>
</a>
</g>
</g>
<!-- Node23 -->
<g id="Node000023" class="node">
<title>Node23</title>
<g id="a_Node000023"><a xlink:href="../../d0/d68/classifstream_a11f4bfaa5c37cfcf8878c367fd861a88.xhtml#a11f4bfaa5c37cfcf8878c367fd861a88" target="_top" xlink:title=" ">
<polygon fill="white" stroke="#666666" points="115.5,-537 10.5,-537 10.5,-518 115.5,-518 115.5,-537"/>
<text text-anchor="middle" x="63" y="-525" font-family="Helvetica,sans-Serif" font-size="10.00">ifstream::ifstream</text>
</a>
</g>
</g>
<!-- Node22&#45;&gt;Node23 -->
<g id="edge23_Node000022_Node000023" class="edge">
<title>Node22&#45;&gt;Node23</title>
<g id="a_edge23_Node000022_Node000023"><a xlink:title=" ">
<path fill="none" stroke="#63b8ff" d="M171.77,-527.5C153.69,-527.5 133.52,-527.5 115.57,-527.5"/>
<polygon fill="#63b8ff" stroke="#63b8ff" points="171.85,-531 181.85,-527.5 171.85,-524 171.85,-531"/>
</a>
</g>
</g>
<!-- Node25 -->
<g id="Node000025" class="node">
<title>Node25</title>
<g id="a_Node000025"><a xlink:href="../../d7/df9/classfstream_aed23877c52f828cab8de7a23603b3b6c.xhtml#aed23877c52f828cab8de7a23603b3b6c" target="_top" xlink:title=" ">
<polygon fill="white" stroke="#666666" points="112.5,-500 13.5,-500 13.5,-481 112.5,-481 112.5,-500"/>
<text text-anchor="middle" x="63" y="-488" font-family="Helvetica,sans-Serif" font-size="10.00">fstream::fstream</text>
</a>
</g>
</g>
<!-- Node24&#45;&gt;Node25 -->
<g id="edge25_Node000024_Node000025" class="edge">
<title>Node24&#45;&gt;Node25</title>
<g id="a_edge25_Node000024_Node000025"><a xlink:title=" ">
<path fill="none" stroke="#63b8ff" d="M172.93,-490.5C153.53,-490.5 131.59,-490.5 112.52,-490.5"/>
<polygon fill="#63b8ff" stroke="#63b8ff" points="173.12,-494 183.12,-490.5 173.12,-487 173.12,-494"/>
</a>
</g>
</g>
<!-- Node27 -->
<g id="Node000027" class="node">
<title>Node27</title>
<g id="a_Node000027"><a xlink:href="../../d9/d93/classofstream_abd1a07c492699c44f149da45b8d593c1.xhtml#abd1a07c492699c44f149da45b8d593c1" target="_top" xlink:title=" ">
<polygon fill="white" stroke="#666666" points="118.5,-463 7.5,-463 7.5,-444 118.5,-444 118.5,-463"/>
<text text-anchor="middle" x="63" y="-451" font-family="Helvetica,sans-Serif" font-size="10.00">ofstream::ofstream</text>
</a>
</g>
</g>
<!-- Node26&#45;&gt;Node27 -->
<g id="edge27_Node000026_Node000027" class="edge">
<title>Node26&#45;&gt;Node27</title>
<g id="a_edge27_Node000026_Node000027"><a xlink:title=" ">
<path fill="none" stroke="#63b8ff" d="M170.05,-453.5C153.44,-453.5 135.22,-453.5 118.63,-453.5"/>
<polygon fill="#63b8ff" stroke="#63b8ff" points="170.15,-457 180.15,-453.5 170.15,-450 170.15,-457"/>
</a>
</g>
</g>
<!-- Node30 -->
<g id="Node000030" class="node">
<title>Node30</title>
<g id="a_Node000030"><a xlink:href="../../d3/dd5/classFatVolume_a0df7015cd9c918718948e6746d3c5161.xhtml#a0df7015cd9c918718948e6746d3c5161" target="_top" xlink:title=" ">
<polygon fill="white" stroke="#666666" points="275,-426 177,-426 177,-407 275,-407 275,-426"/>
<text text-anchor="middle" x="226" y="-414" font-family="Helvetica,sans-Serif" font-size="10.00">FatVolume::open</text>
</a>
</g>
</g>
<!-- Node29&#45;&gt;Node30 -->
<g id="edge30_Node000029_Node000030" class="edge">
<title>Node29&#45;&gt;Node30</title>
<g id="a_edge30_Node000029_Node000030"><a xlink:title=" ">
<path fill="none" stroke="#63b8ff" d="M336.59,-416.5C316.52,-416.5 294.31,-416.5 275.15,-416.5"/>
<polygon fill="#63b8ff" stroke="#63b8ff" points="336.86,-420 346.86,-416.5 336.86,-413 336.86,-420"/>
</a>
</g>
</g>
<!-- Node31 -->
<g id="Node000031" class="node">
<title>Node31</title>
<g id="a_Node000031"><a xlink:href="../../d0/ded/sd_8cpp_a5b86241374c9a379af845d4adaa170b5.xhtml#a5b86241374c9a379af845d4adaa170b5" target="_top" xlink:title="Sauvegarde des données sur la carte SD.">
<polygon fill="white" stroke="#666666" points="257.5,-389 194.5,-389 194.5,-370 257.5,-370 257.5,-389"/>
<text text-anchor="middle" x="226" y="-377" font-family="Helvetica,sans-Serif" font-size="10.00">saveData</text>
</a>
</g>
</g>
<!-- Node29&#45;&gt;Node31 -->
<g id="edge31_Node000029_Node000031" class="edge">
<title>Node29&#45;&gt;Node31</title>
<g id="a_edge31_Node000029_Node000031"><a xlink:title=" ">
<path fill="none" stroke="#63b8ff" d="M341.78,-404.78C314.05,-398.67 281.12,-391.42 257.66,-386.25"/>
<polygon fill="#63b8ff" stroke="#63b8ff" points="341.22,-408.24 351.74,-406.97 342.72,-401.4 341.22,-408.24"/>
</a>
</g>
</g>
<!-- Node32 -->
<g id="Node000032" class="node">
<title>Node32</title>
<g id="a_Node000032"><a xlink:href="../../d9/ddd/economy_8cpp_a35740c7a73b48d918cb4e6d891d46bed.xhtml#a35740c7a73b48d918cb4e6d891d46bed" target="_top" xlink:title=" ">
<polygon fill="#fff0f0" stroke="red" points="126,-407 0,-407 0,-388 126,-388 126,-407"/>
<text text-anchor="middle" x="63" y="-395" font-family="Helvetica,sans-Serif" font-size="10.00">runEconomyModeStep</text>
</a>
</g>
</g>
<!-- Node31&#45;&gt;Node32 -->
<g id="edge32_Node000031_Node000032" class="edge">
<title>Node31&#45;&gt;Node32</title>
<g id="a_edge32_Node000031_Node000032"><a xlink:title=" ">
<path fill="none" stroke="#63b8ff" d="M184.39,-384.04C166.77,-386.01 145.74,-388.36 126.22,-390.54"/>
<polygon fill="#63b8ff" stroke="#63b8ff" points="184.79,-387.52 194.34,-382.93 184.01,-380.56 184.79,-387.52"/>
</a>
</g>
</g>
<!-- Node35 -->
<g id="Node000035" class="node">
<title>Node35</title>
<g id="a_Node000035"><a xlink:href="../../df/d92/standard_8cpp_ad0b3e86793f7441084351fc2de4d4c45.xhtml#ad0b3e86793f7441084351fc2de4d4c45" target="_top" xlink:title=" ">
<polygon fill="#fff0f0" stroke="red" points="125.5,-370 0.5,-370 0.5,-351 125.5,-351 125.5,-370"/>
<text text-anchor="middle" x="63" y="-358" font-family="Helvetica,sans-Serif" font-size="10.00">runStandardModeStep</text>
</a>
</g>
</g>
<!-- Node31&#45;&gt;Node35 -->
<g id="edge33_Node000031_Node000035" class="edge">
<title>Node31&#45;&gt;Node35</title>
<g id="a_edge33_Node000031_Node000035"><a xlink:title=" ">
<path fill="none" stroke="#63b8ff" d="M184.3,-374.7C166.49,-372.6 145.22,-370.09 125.55,-367.76"/>
<polygon fill="#63b8ff" stroke="#63b8ff" points="184,-378.19 194.34,-375.88 184.82,-371.23 184,-378.19"/>
</a>
</g>
</g>
<!-- Node39 -->
<g id="Node000039" class="node">
<title>Node39</title>
<g id="a_Node000039"><a xlink:href="../../d0/db5/classFsBaseFile_a6034c6dfce320e2869901890398831b4.xhtml#a6034c6dfce320e2869901890398831b4" target="_top" xlink:title=" ">
<polygon fill="white" stroke="#666666" points="290,-352 162,-352 162,-333 290,-333 290,-352"/>
<text text-anchor="middle" x="226" y="-340" font-family="Helvetica,sans-Serif" font-size="10.00">FsBaseFile::FsBaseFile</text>
</a>
</g>
</g>
<!-- Node38&#45;&gt;Node39 -->
<g id="edge38_Node000038_Node000039" class="edge">
<title>Node38&#45;&gt;Node39</title>
<g id="a_edge38_Node000038_Node000039"><a xlink:title=" ">
<path fill="none" stroke="#63b8ff" d="M341.78,-317.22C318.78,-322.29 292.2,-328.14 270.41,-332.94"/>
<polygon fill="#63b8ff" stroke="#63b8ff" points="342.72,-320.6 351.74,-315.03 341.22,-313.76 342.72,-320.6"/>
</a>
</g>
</g>
<!-- Node40 -->
<g id="Node000040" class="node">
<title>Node40</title>
<g id="a_Node000040"><a xlink:href="../../d4/d27/classFsVolume_ab429316ed9e57a52ecfb938aca7dff6c.xhtml#ab429316ed9e57a52ecfb938aca7dff6c" target="_top" xlink:title=" ">
<polygon fill="white" stroke="#666666" points="265.5,-315 186.5,-315 186.5,-296 265.5,-296 265.5,-315"/>
<text text-anchor="middle" x="226" y="-303" font-family="Helvetica,sans-Serif" font-size="10.00">FsVolume::ls</text>
</a>
</g>
</g>
<!-- Node38&#45;&gt;Node40 -->
<g id="edge39_Node000038_Node000040" class="edge">
<title>Node38&#45;&gt;Node40</title>
<g id="a_edge39_Node000038_Node000040"><a xlink:title=" ">
<path fill="none" stroke="#63b8ff" d="M336.23,-305.5C312.83,-305.5 286.55,-305.5 265.63,-305.5"/>
<polygon fill="#63b8ff" stroke="#63b8ff" points="336.41,-309 346.41,-305.5 336.41,-302 336.41,-309"/>
</a>
</g>
</g>
<!-- Node41 -->
<g id="Node000041" class="node">
<title>Node41</title>
<g id="a_Node000041"><a xlink:href="../../d4/d27/classFsVolume_a6d51ed047796f7d382384c60c7bfac75.xhtml#a6d51ed047796f7d382384c60c7bfac75" target="_top" xlink:title=" ">
<polygon fill="white" stroke="#666666" points="273.5,-278 178.5,-278 178.5,-259 273.5,-259 273.5,-278"/>
<text text-anchor="middle" x="226" y="-266" font-family="Helvetica,sans-Serif" font-size="10.00">FsVolume::open</text>
</a>
</g>
</g>
<!-- Node38&#45;&gt;Node41 -->
<g id="edge40_Node000038_Node000041" class="edge">
<title>Node38&#45;&gt;Node41</title>
<g id="a_edge40_Node000038_Node000041"><a xlink:title=" ">
<path fill="none" stroke="#63b8ff" d="M341.78,-293.78C318.78,-288.71 292.2,-282.86 270.41,-278.06"/>
<polygon fill="#63b8ff" stroke="#63b8ff" points="341.22,-297.24 351.74,-295.97 342.72,-290.4 341.22,-297.24"/>
</a>
</g>
</g>
<!-- Node42 -->
<g id="Node000042" class="node">
<title>Node42</title>
<g id="a_Node000042"><a xlink:href="../../d4/d27/classFsVolume_ad41f53fd35fa60aa8972ac2036dae4de.xhtml#ad41f53fd35fa60aa8972ac2036dae4de" target="_top" xlink:title=" ">
<polygon fill="white" stroke="#666666" points="110.5,-278 15.5,-278 15.5,-259 110.5,-259 110.5,-278"/>
<text text-anchor="middle" x="63" y="-266" font-family="Helvetica,sans-Serif" font-size="10.00">FsVolume::open</text>
</a>
</g>
</g>
<!-- Node41&#45;&gt;Node42 -->
<g id="edge41_Node000041_Node000042" class="edge">
<title>Node41&#45;&gt;Node42</title>
<g id="a_edge41_Node000041_Node000042"><a xlink:title=" ">
<path fill="none" stroke="#63b8ff" d="M168.21,-268.5C149.4,-268.5 128.7,-268.5 110.74,-268.5"/>
<polygon fill="#63b8ff" stroke="#63b8ff" points="168.43,-272 178.43,-268.5 168.43,-265 168.43,-272"/>
</a>
</g>
</g>
<!-- Node49 -->
<g id="Node000049" class="node">
<title>Node49</title>
<g id="a_Node000049"><a xlink:href="../../d3/dd5/classFatVolume_aa7015c0f694261780081c79c05d0882d.xhtml#aa7015c0f694261780081c79c05d0882d" target="_top" xlink:title=" ">
<polygon fill="white" stroke="#666666" points="281.5,-93 170.5,-93 170.5,-74 281.5,-74 281.5,-93"/>
<text text-anchor="middle" x="226" y="-81" font-family="Helvetica,sans-Serif" font-size="10.00">FatVolume::rename</text>
</a>
</g>
</g>
<!-- Node48&#45;&gt;Node49 -->
<g id="edge48_Node000048_Node000049" class="edge">
<title>Node48&#45;&gt;Node49</title>
<g id="a_edge48_Node000048_Node000049"><a xlink:title=" ">
<path fill="none" stroke="#63b8ff" d="M330.09,-83.5C314.05,-83.5 297.04,-83.5 281.56,-83.5"/>
<polygon fill="#63b8ff" stroke="#63b8ff" points="330.46,-87 340.46,-83.5 330.46,-80 330.46,-87"/>
</a>
</g>
</g>
<!-- Node52 -->
<g id="Node000052" class="node">
<title>Node52</title>
<g id="a_Node000052"><a xlink:href="../../d3/dd5/classFatVolume_a97ef39ec02c38c0772f0029d42edcb46.xhtml#a97ef39ec02c38c0772f0029d42edcb46" target="_top" xlink:title=" ">
<polygon fill="white" stroke="#666666" points="283,-19 169,-19 169,0 283,0 283,-19"/>
<text text-anchor="middle" x="226" y="-7" font-family="Helvetica,sans-Serif" font-size="10.00">FatVolume::truncate</text>
</a>
</g>
</g>
<!-- Node51&#45;&gt;Node52 -->
<g id="edge52_Node000051_Node000052" class="edge">
<title>Node51&#45;&gt;Node52</title>
<g id="a_edge52_Node000051_Node000052"><a xlink:title=" ">
<path fill="none" stroke="#63b8ff" d="M328.39,-9.5C313.45,-9.5 297.73,-9.5 283.26,-9.5"/>
<polygon fill="#63b8ff" stroke="#63b8ff" points="328.59,-13 338.59,-9.5 328.59,-6 328.59,-13"/>
</a>
</g>
</g>
</g>
</svg>

<g id="navigator" transform="translate(0 0)" fill="#404254">
  <rect fill="#f2f5e9" fill-opacity="0.5" stroke="#606060" stroke-width=".5" x="0" y="0" width="60" height="60"/>
  <use id="zoomplus" xlink:href="#zoomPlus" x="17" y="9" onmousedown="handleZoom(evt,'in')"/>
  <use id="zoomminus" xlink:href="#zoomMin" x="42" y="9" onmousedown="handleZoom(evt,'out')"/>
  <use id="reset" xlink:href="#resetDef" x="30" y="36" onmousedown="handleReset()"/>
   <use id="arrowup" xlink:href="#arrowUp" x="0" y="0" onmousedown="handlePan(0,-1)"/>
  <use id="arrowright" xlink:href="#arrowRight" x="0" y="0" onmousedown="handlePan(1,0)"/>
  <use id="arrowdown" xlink:href="#arrowDown" x="0" y="0" onmousedown="handlePan(0,1)"/>
  <use id="arrowleft" xlink:href="#arrowLeft" x="0" y="0" onmousedown="handlePan(-1,0)"/>
</g>
<svg viewBox="0 0 15 15" width="100%" height="30px" preserveAspectRatio="xMaxYMin meet">
 <g id="arrow_out" transform="scale(0.3 0.3)">
  <a xlink:href="classFatFile_a5f2bbee53059029f7a22c8eaec81cb8a_a5f2bbee53059029f7a22c8eaec81cb8a_icgraph_org.svg" target="_base">
   <rect id="button" ry="5" rx="5" y="6" x="6" height="38" width="38"
        fill="#f2f5e9" fill-opacity="0.5" stroke="#606060" stroke-width="1.0"/>
   <path id="arrow"
     d="M 11.500037,31.436501 C 11.940474,20.09759 22.043105,11.32322 32.158766,21.979434 L 37.068811,17.246167 C 37.068811,17.246167 37.088388,32 37.088388,32 L 22.160133,31.978069 C 22.160133,31.978069 26.997745,27.140456 26.997745,27.140456 C 18.528582,18.264221 13.291696,25.230495 11.500037,31.436501 z"
     style="fill:#404040;"/>
  </a>
 </g>
</svg>

<style type='text/css'>
<![CDATA[
[data-mouse-over-selected='false'] { opacity: 0.7; }
[data-mouse-over-selected='true']  { opacity: 1.0; }
]]>
</style>
<script type="application/ecmascript"><![CDATA[
document.addEventListener('DOMContentLoaded', (event) => {
  highlightEdges();
  highlightAdjacentNodes();
});
]]></script>
</svg>
