<?xml version="1.0" encoding="UTF-8" standalone="no"?>
<!DOCTYPE svg PUBLIC "-//W3C//DTD SVG 1.1//EN"
 "http://www.w3.org/Graphics/SVG/1.1/DTD/svg11.dtd">
<!-- Generated by graphviz version 2.43.0 (0)
 -->
<!-- Title: FatFile::rewind Pages: 1 -->
<!--zoomable 346 -->

<svg id="main" version="1.1" xmlns="http://www.w3.org/2000/svg" xmlns:xlink="http://www.w3.org/1999/xlink" xml:space="preserve" onload="init(evt)">
<style type="text/css"><![CDATA[
.node, .edge {opacity: 0.7;}
.node.selected, .edge.selected {opacity: 1;}
.edge:hover path { stroke: red; }
.edge:hover polygon { stroke: red; fill: red; }
]]></style>

<defs>
  <circle id="rim" cx="0" cy="0" r="7"/>
  <circle id="rim2" cx="0" cy="0" r="3.5"/>
  <g id="zoomPlus">
    <use xlink:href="#rim" fill="#404040"><set attributeName="fill" to="#808080" begin="zoomplus.mouseover" end="zoomplus.mouseout"/></use>
    <path d="M-4,0h8M0,-4v8" fill="none" stroke="white" stroke-width="1.5" pointer-events="none"/>
  </g>
  <g id="zoomMin">
    <use xlink:href="#rim" fill="#404040"><set attributeName="fill" to="#808080" begin="zoomminus.mouseover" end="zoomminus.mouseout"/></use>
    <path d="M-4,0h8" fill="none" stroke="white" stroke-width="1.5" pointer-events="none"/>
  </g>
  <g id="arrowUp" transform="translate(30 24)">
    <use xlink:href="#rim"/>
    <path pointer-events="none" fill="none" stroke="white" stroke-width="1.5" d="M0,-3.0v7 M-2.5,-0.5L0,-3.0L2.5,-0.5"/>
  </g>
  <g id="arrowRight" transform="rotate(90) translate(36 -43)">
    <use xlink:href="#rim"/>
    <path pointer-events="none" fill="none" stroke="white" stroke-width="1.5" d="M0,-3.0v7 M-2.5,-0.5L0,-3.0L2.5,-0.5"/>
  </g>
  <g id="arrowDown" transform="rotate(180) translate(-30 -48)">
    <use xlink:href="#rim"/>
    <path pointer-events="none" fill="none" stroke="white" stroke-width="1.5" d="M0,-3.0v7 M-2.5,-0.5L0,-3.0L2.5,-0.5"/>
  </g>
  <g id="arrowLeft" transform="rotate(270) translate(-36 17)">
    <use xlink:href="#rim"/>
    <path pointer-events="none" fill="none" stroke="white" stroke-width="1.5" d="M0,-3.0v7 M-2.5,-0.5L0,-3.0L2.5,-0.5"/>
  </g>
  <g id="resetDef">
    <use xlink:href="#rim2" fill="#404040"><set attributeName="fill" to="#808080" begin="reset.mouseover" end="reset.mouseout"/></use>
  </g>
</defs>
<script type="application/ecmascript">
var viewWidth = 553;
var viewHeight = 346;
var sectionId = 'dynsection-158';
</script>
<script type="application/ecmascript" xlink:href="../../svg.min.js"/>
<svg id="graph" class="graph">
<g id="viewport">
<title>FatFile::rewind</title>
<!-- Node1 -->
<g id="Node000001" class="node">
<title>Node1</title>
<g id="a_Node000001"><a xlink:title=" ">
<polygon fill="#999999" stroke="#666666" points="545,-169.54 458,-169.54 458,-150.54 545,-150.54 545,-169.54"/>
<text text-anchor="middle" x="501.5" y="-157.54" font-family="Helvetica,sans-Serif" font-size="10.00">FatFile::rewind</text>
</a>
</g>
</g>
<!-- Node2 -->
<g id="Node000002" class="node">
<title>Node2</title>
<g id="a_Node000002"><a xlink:href="../../d3/db4/classFatFile.xhtml#a60ab9d16bcc778150a364c26de467de1" target="_top" xlink:title=" ">
<polygon fill="white" stroke="#666666" points="387.5,-319.54 325.5,-319.54 325.5,-300.54 387.5,-300.54 387.5,-319.54"/>
<text text-anchor="middle" x="356.5" y="-307.54" font-family="Helvetica,sans-Serif" font-size="10.00">FatFile::ls</text>
</a>
</g>
</g>
<!-- Node1&#45;&gt;Node2 -->
<g id="edge1_Node000001_Node000002" class="edge">
<title>Node1&#45;&gt;Node2</title>
<g id="a_edge1_Node000001_Node000002"><a xlink:title=" ">
<path fill="none" stroke="#63b8ff" d="M494.24,-179.47C483.9,-208.41 460.49,-262.59 422,-292.04 412.12,-299.6 399.23,-303.99 387.58,-306.53"/>
<polygon fill="#63b8ff" stroke="#63b8ff" points="497.65,-180.31 497.56,-169.72 491.02,-178.05 497.65,-180.31"/>
</a>
</g>
</g>
<!-- Node6 -->
<g id="Node000006" class="node">
<title>Node6</title>
<g id="a_Node000006"><a xlink:href="../../d3/db4/classFatFile.xhtml#afa1b89789fd86994d0518c69247d8c27" target="_top" xlink:title=" ">
<polygon fill="white" stroke="#666666" points="422,-282.54 291,-282.54 291,-263.54 422,-263.54 422,-282.54"/>
<text text-anchor="middle" x="356.5" y="-270.54" font-family="Helvetica,sans-Serif" font-size="10.00">FatFile::makeUniqueSfn</text>
</a>
</g>
</g>
<!-- Node1&#45;&gt;Node6 -->
<g id="edge6_Node000001_Node000006" class="edge">
<title>Node1&#45;&gt;Node6</title>
<g id="a_edge6_Node000001_Node000006"><a xlink:title=" ">
<path fill="none" stroke="#63b8ff" d="M488.6,-178.21C474.75,-198.09 450.14,-229.7 422,-249.04 413.14,-255.13 402.53,-259.91 392.51,-263.54"/>
<polygon fill="#63b8ff" stroke="#63b8ff" points="491.63,-179.99 494.35,-169.75 485.84,-176.06 491.63,-179.99"/>
</a>
</g>
</g>
<!-- Node7 -->
<g id="Node000007" class="node">
<title>Node7</title>
<g id="a_Node000007"><a xlink:href="../../d3/db4/classFatFile.xhtml#aa729447d16ce34a9a575c27ac58dbb12" target="_top" xlink:title=" ">
<polygon fill="white" stroke="#666666" points="234,-253.54 156,-253.54 156,-234.54 234,-234.54 234,-253.54"/>
<text text-anchor="middle" x="195" y="-241.54" font-family="Helvetica,sans-Serif" font-size="10.00">FatFile::open</text>
</a>
</g>
</g>
<!-- Node1&#45;&gt;Node7 -->
<g id="edge9_Node000001_Node000007" class="edge">
<title>Node1&#45;&gt;Node7</title>
<g id="a_edge9_Node000001_Node000007"><a xlink:title=" ">
<path fill="none" stroke="#63b8ff" d="M482.85,-176.6C467.87,-189.62 445.16,-207.02 422,-216.04 359.37,-240.44 280.26,-244.78 234.18,-244.94"/>
<polygon fill="#63b8ff" stroke="#63b8ff" points="485.22,-179.18 490.34,-169.9 480.55,-173.96 485.22,-179.18"/>
</a>
</g>
</g>
<!-- Node8 -->
<g id="Node000008" class="node">
<title>Node8</title>
<g id="a_Node000008"><a xlink:href="../../d3/db4/classFatFile.xhtml#acb4108f33aa7e10fff747b4939787c5a" target="_top" xlink:title=" ">
<polygon fill="white" stroke="#666666" points="398,-206.54 315,-206.54 315,-187.54 398,-187.54 398,-206.54"/>
<text text-anchor="middle" x="356.5" y="-194.54" font-family="Helvetica,sans-Serif" font-size="10.00">FatFile::mkdir</text>
</a>
</g>
</g>
<!-- Node1&#45;&gt;Node8 -->
<g id="edge8_Node000001_Node000008" class="edge">
<title>Node1&#45;&gt;Node8</title>
<g id="a_edge8_Node000001_Node000008"><a xlink:title=" ">
<path fill="none" stroke="#63b8ff" d="M453.92,-172.09C434.73,-177.06 412.79,-182.73 394.7,-187.42"/>
<polygon fill="#63b8ff" stroke="#63b8ff" points="454.87,-175.46 463.67,-169.57 453.12,-168.69 454.87,-175.46"/>
</a>
</g>
</g>
<!-- Node9 -->
<g id="Node000009" class="node">
<title>Node9</title>
<g id="a_Node000009"><a xlink:href="../../d3/db4/classFatFile.xhtml#aefd095e898758e6008f33cca17e92b72" target="_top" xlink:title=" ">
<polygon fill="white" stroke="#666666" points="395.5,-169.54 317.5,-169.54 317.5,-150.54 395.5,-150.54 395.5,-169.54"/>
<text text-anchor="middle" x="356.5" y="-157.54" font-family="Helvetica,sans-Serif" font-size="10.00">FatFile::open</text>
</a>
</g>
</g>
<!-- Node1&#45;&gt;Node9 -->
<g id="edge10_Node000001_Node000009" class="edge">
<title>Node1&#45;&gt;Node9</title>
<g id="a_edge10_Node000001_Node000009"><a xlink:title=" ">
<path fill="none" stroke="#63b8ff" d="M447.52,-160.04C430.33,-160.04 411.61,-160.04 395.72,-160.04"/>
<polygon fill="#63b8ff" stroke="#63b8ff" points="447.98,-163.54 457.98,-160.04 447.98,-156.54 447.98,-163.54"/>
</a>
</g>
</g>
<!-- Node10 -->
<g id="Node000010" class="node">
<title>Node10</title>
<g id="a_Node000010"><a xlink:href="../../d3/db4/classFatFile.xhtml#a5318ee7a7700ff23721497945fba363d" target="_top" xlink:title=" ">
<polygon fill="white" stroke="#666666" points="395.5,-132.54 317.5,-132.54 317.5,-113.54 395.5,-113.54 395.5,-132.54"/>
<text text-anchor="middle" x="356.5" y="-120.54" font-family="Helvetica,sans-Serif" font-size="10.00">FatFile::open</text>
</a>
</g>
</g>
<!-- Node1&#45;&gt;Node10 -->
<g id="edge11_Node000001_Node000010" class="edge">
<title>Node1&#45;&gt;Node10</title>
<g id="a_edge11_Node000001_Node000010"><a xlink:title=" ">
<path fill="none" stroke="#63b8ff" d="M453.92,-147.99C434.73,-143.02 412.79,-137.35 394.7,-132.67"/>
<polygon fill="#63b8ff" stroke="#63b8ff" points="453.12,-151.4 463.67,-150.51 454.87,-144.62 453.12,-151.4"/>
</a>
</g>
</g>
<!-- Node11 -->
<g id="Node000011" class="node">
<title>Node11</title>
<g id="a_Node000011"><a xlink:href="../../d3/db4/classFatFile.xhtml#ad8977563ad297039946e13a1acd5c651" target="_top" xlink:title=" ">
<polygon fill="white" stroke="#666666" points="406,-95.54 307,-95.54 307,-76.54 406,-76.54 406,-95.54"/>
<text text-anchor="middle" x="356.5" y="-83.54" font-family="Helvetica,sans-Serif" font-size="10.00">FatFile::openCwd</text>
</a>
</g>
</g>
<!-- Node1&#45;&gt;Node11 -->
<g id="edge12_Node000001_Node000011" class="edge">
<title>Node1&#45;&gt;Node11</title>
<g id="a_edge12_Node000001_Node000011"><a xlink:title=" ">
<path fill="none" stroke="#63b8ff" d="M481.16,-143.8C465.92,-131.68 443.68,-115.48 422,-105.04 414.32,-101.34 405.78,-98.21 397.49,-95.62"/>
<polygon fill="#63b8ff" stroke="#63b8ff" points="479.31,-146.8 489.27,-150.38 483.72,-141.36 479.31,-146.8"/>
</a>
</g>
</g>
<!-- Node14 -->
<g id="Node000014" class="node">
<title>Node14</title>
<g id="a_Node000014"><a xlink:href="../../d3/db4/classFatFile.xhtml#a9515bac181d33e7f0125e88fa2ccd283" target="_top" xlink:title=" ">
<polygon fill="white" stroke="#666666" points="396.5,-58.54 316.5,-58.54 316.5,-39.54 396.5,-39.54 396.5,-58.54"/>
<text text-anchor="middle" x="356.5" y="-46.54" font-family="Helvetica,sans-Serif" font-size="10.00">FatFile::rmdir</text>
</a>
</g>
</g>
<!-- Node1&#45;&gt;Node14 -->
<g id="edge15_Node000001_Node000014" class="edge">
<title>Node1&#45;&gt;Node14</title>
<g id="a_edge15_Node000001_Node000014"><a xlink:title=" ">
<path fill="none" stroke="#63b8ff" d="M489.9,-141.84C476.66,-120.73 452.06,-86.35 422,-67.04 414.37,-62.14 405.4,-58.56 396.62,-55.94"/>
<polygon fill="#63b8ff" stroke="#63b8ff" points="486.98,-143.78 495.16,-150.51 492.96,-140.14 486.98,-143.78"/>
</a>
</g>
</g>
<!-- Node17 -->
<g id="Node000017" class="node">
<title>Node17</title>
<g id="a_Node000017"><a xlink:href="../../d3/db4/classFatFile.xhtml#ac780a80526f86d3def701ecdc99d8bfe" target="_top" xlink:title=" ">
<polygon fill="white" stroke="#666666" points="244,-20.54 146,-20.54 146,-1.54 244,-1.54 244,-20.54"/>
<text text-anchor="middle" x="195" y="-8.54" font-family="Helvetica,sans-Serif" font-size="10.00">FatFile::rmRfStar</text>
</a>
</g>
</g>
<!-- Node1&#45;&gt;Node17 -->
<g id="edge19_Node000001_Node000017" class="edge">
<title>Node1&#45;&gt;Node17</title>
<g id="a_edge19_Node000001_Node000017"><a xlink:title=" ">
<path fill="none" stroke="#63b8ff" d="M495.06,-140.79C485.6,-111.27 463.09,-55.56 422,-30.04 368.15,3.4 292.64,2.29 244.02,-3.13"/>
<polygon fill="#63b8ff" stroke="#63b8ff" points="491.72,-141.82 497.97,-150.38 498.42,-139.79 491.72,-141.82"/>
</a>
</g>
</g>
<!-- Node2&#45;&gt;Node2 -->
<g id="edge5_Node000002_Node000002" class="edge">
<title>Node2&#45;&gt;Node2</title>
<g id="a_edge5_Node000002_Node000002"><a xlink:title=" ">
<path fill="none" stroke="#63b8ff" d="M383.29,-328.73C381.82,-333.74 372.9,-337.54 356.5,-337.54 330.91,-337.54 323.51,-328.27 334.31,-319.62"/>
<polygon fill="#63b8ff" stroke="#63b8ff" points="386.32,-326.98 378.69,-319.62 380.07,-330.13 386.32,-326.98"/>
</a>
</g>
</g>
<!-- Node3 -->
<g id="Node000003" class="node">
<title>Node3</title>
<g id="a_Node000003"><a xlink:href="../../d3/dd5/classFatVolume.xhtml#ac5fc83cac7fd3af0b140a7986b9472f8" target="_top" xlink:title=" ">
<polygon fill="white" stroke="#666666" points="236,-337.54 154,-337.54 154,-318.54 236,-318.54 236,-337.54"/>
<text text-anchor="middle" x="195" y="-325.54" font-family="Helvetica,sans-Serif" font-size="10.00">FatVolume::ls</text>
</a>
</g>
</g>
<!-- Node2&#45;&gt;Node3 -->
<g id="edge2_Node000002_Node000003" class="edge">
<title>Node2&#45;&gt;Node3</title>
<g id="a_edge2_Node000002_Node000003"><a xlink:title=" ">
<path fill="none" stroke="#63b8ff" d="M315.54,-314.55C291.28,-317.29 260.4,-320.77 236.11,-323.51"/>
<polygon fill="#63b8ff" stroke="#63b8ff" points="315.95,-318.03 325.5,-313.43 315.17,-311.07 315.95,-318.03"/>
</a>
</g>
</g>
<!-- Node4 -->
<g id="Node000004" class="node">
<title>Node4</title>
<g id="a_Node000004"><a xlink:href="../../d3/dd5/classFatVolume.xhtml#ae40964f357cfff4208812344a0e6f26f" target="_top" xlink:title=" ">
<polygon fill="white" stroke="#666666" points="236,-300.54 154,-300.54 154,-281.54 236,-281.54 236,-300.54"/>
<text text-anchor="middle" x="195" y="-288.54" font-family="Helvetica,sans-Serif" font-size="10.00">FatVolume::ls</text>
</a>
</g>
</g>
<!-- Node2&#45;&gt;Node4 -->
<g id="edge3_Node000002_Node000004" class="edge">
<title>Node2&#45;&gt;Node4</title>
<g id="a_edge3_Node000002_Node000004"><a xlink:title=" ">
<path fill="none" stroke="#63b8ff" d="M315.54,-305.28C291.28,-302.39 260.4,-298.71 236.11,-295.82"/>
<polygon fill="#63b8ff" stroke="#63b8ff" points="315.16,-308.76 325.5,-306.47 315.98,-301.81 315.16,-308.76"/>
</a>
</g>
</g>
<!-- Node5 -->
<g id="Node000005" class="node">
<title>Node5</title>
<g id="a_Node000005"><a xlink:href="../../d3/dd5/classFatVolume.xhtml#a455ad7b2a5b6b31551dca08087a3c404" target="_top" xlink:title=" ">
<polygon fill="white" stroke="#666666" points="90.5,-300.54 8.5,-300.54 8.5,-281.54 90.5,-281.54 90.5,-300.54"/>
<text text-anchor="middle" x="49.5" y="-288.54" font-family="Helvetica,sans-Serif" font-size="10.00">FatVolume::ls</text>
</a>
</g>
</g>
<!-- Node4&#45;&gt;Node5 -->
<g id="edge4_Node000004_Node000005" class="edge">
<title>Node4&#45;&gt;Node5</title>
<g id="a_edge4_Node000004_Node000005"><a xlink:title=" ">
<path fill="none" stroke="#63b8ff" d="M143.16,-291.04C125.9,-291.04 106.86,-291.04 90.55,-291.04"/>
<polygon fill="#63b8ff" stroke="#63b8ff" points="143.65,-294.54 153.65,-291.04 143.65,-287.54 143.65,-294.54"/>
</a>
</g>
</g>
<!-- Node6&#45;&gt;Node7 -->
<g id="edge7_Node000006_Node000007" class="edge">
<title>Node6&#45;&gt;Node7</title>
<g id="a_edge7_Node000006_Node000007"><a xlink:title=" ">
<path fill="none" stroke="#63b8ff" d="M292.94,-261.67C273.11,-258.06 251.8,-254.19 234.22,-250.99"/>
<polygon fill="#63b8ff" stroke="#63b8ff" points="292.37,-265.12 302.83,-263.47 293.62,-258.23 292.37,-265.12"/>
</a>
</g>
</g>
<!-- Node12 -->
<g id="Node000012" class="node">
<title>Node12</title>
<g id="a_Node000012"><a xlink:href="../../d0/db5/classFsBaseFile.xhtml#acdb7fd29ecf8db85d790e6b4acf24c9d" target="_top" xlink:title=" ">
<polygon fill="white" stroke="#666666" points="255,-131.54 135,-131.54 135,-112.54 255,-112.54 255,-131.54"/>
<text text-anchor="middle" x="195" y="-119.54" font-family="Helvetica,sans-Serif" font-size="10.00">FsBaseFile::openCwd</text>
</a>
</g>
</g>
<!-- Node11&#45;&gt;Node12 -->
<g id="edge13_Node000011_Node000012" class="edge">
<title>Node11&#45;&gt;Node12</title>
<g id="a_edge13_Node000011_Node000012"><a xlink:title=" ">
<path fill="none" stroke="#63b8ff" d="M303.4,-97.8C282.29,-102.57 258.23,-108 238.25,-112.51"/>
<polygon fill="#63b8ff" stroke="#63b8ff" points="304.19,-101.21 313.18,-95.59 302.65,-94.38 304.19,-101.21"/>
</a>
</g>
</g>
<!-- Node13 -->
<g id="Node000013" class="node">
<title>Node13</title>
<g id="a_Node000013"><a xlink:href="../../d0/db5/classFsBaseFile.xhtml#a59568fad94a70ea88e167ac8fb4bd43c" target="_top" xlink:title=" ">
<polygon fill="white" stroke="#666666" points="99,-131.54 0,-131.54 0,-112.54 99,-112.54 99,-131.54"/>
<text text-anchor="middle" x="49.5" y="-119.54" font-family="Helvetica,sans-Serif" font-size="10.00">FsBaseFile::open</text>
</a>
</g>
</g>
<!-- Node12&#45;&gt;Node13 -->
<g id="edge14_Node000012_Node000013" class="edge">
<title>Node12&#45;&gt;Node13</title>
<g id="a_edge14_Node000012_Node000013"><a xlink:title=" ">
<path fill="none" stroke="#63b8ff" d="M124.69,-122.04C116.03,-122.04 107.32,-122.04 99.07,-122.04"/>
<polygon fill="#63b8ff" stroke="#63b8ff" points="124.8,-125.54 134.8,-122.04 124.8,-118.54 124.8,-125.54"/>
</a>
</g>
</g>
<!-- Node15 -->
<g id="Node000015" class="node">
<title>Node15</title>
<g id="a_Node000015"><a xlink:href="../../d0/db5/classFsBaseFile.xhtml#ac47870fd89b0849cda33f2780918a286" target="_top" xlink:title=" ">
<polygon fill="white" stroke="#666666" points="245.5,-94.54 144.5,-94.54 144.5,-75.54 245.5,-75.54 245.5,-94.54"/>
<text text-anchor="middle" x="195" y="-82.54" font-family="Helvetica,sans-Serif" font-size="10.00">FsBaseFile::rmdir</text>
</a>
</g>
</g>
<!-- Node14&#45;&gt;Node15 -->
<g id="edge16_Node000014_Node000015" class="edge">
<title>Node14&#45;&gt;Node15</title>
<g id="a_edge16_Node000014_Node000015"><a xlink:title=" ">
<path fill="none" stroke="#63b8ff" d="M306.72,-60.05C284.85,-64.99 259.29,-70.76 238.25,-75.51"/>
<polygon fill="#63b8ff" stroke="#63b8ff" points="307.5,-63.46 316.48,-57.85 305.96,-56.64 307.5,-63.46"/>
</a>
</g>
</g>
<!-- Node16 -->
<g id="Node000016" class="node">
<title>Node16</title>
<g id="a_Node000016"><a xlink:href="../../d3/dd5/classFatVolume.xhtml#af1181990bcece7dbb7d19293dd4fe11a" target="_top" xlink:title=" ">
<polygon fill="white" stroke="#666666" points="245,-57.54 145,-57.54 145,-38.54 245,-38.54 245,-57.54"/>
<text text-anchor="middle" x="195" y="-45.54" font-family="Helvetica,sans-Serif" font-size="10.00">FatVolume::rmdir</text>
</a>
</g>
</g>
<!-- Node14&#45;&gt;Node16 -->
<g id="edge17_Node000014_Node000016" class="edge">
<title>Node14&#45;&gt;Node16</title>
<g id="a_edge17_Node000014_Node000016"><a xlink:title=" ">
<path fill="none" stroke="#63b8ff" d="M306.32,-48.73C286.89,-48.61 264.62,-48.47 245.19,-48.35"/>
<polygon fill="#63b8ff" stroke="#63b8ff" points="306.46,-52.23 316.48,-48.8 306.5,-45.23 306.46,-52.23"/>
</a>
</g>
</g>
<!-- Node14&#45;&gt;Node17 -->
<g id="edge18_Node000014_Node000017" class="edge">
<title>Node14&#45;&gt;Node17</title>
<g id="a_edge18_Node000014_Node000017"><a xlink:title=" ">
<path fill="none" stroke="#63b8ff" d="M306.71,-37.42C284.06,-32.02 257.45,-25.68 236,-20.57"/>
<polygon fill="#63b8ff" stroke="#63b8ff" points="305.94,-40.83 316.48,-39.75 307.57,-34.02 305.94,-40.83"/>
</a>
</g>
</g>
</g>
</svg>

<g id="navigator" transform="translate(0 0)" fill="#404254">
  <rect fill="#f2f5e9" fill-opacity="0.5" stroke="#606060" stroke-width=".5" x="0" y="0" width="60" height="60"/>
  <use id="zoomplus" xlink:href="#zoomPlus" x="17" y="9" onmousedown="handleZoom(evt,'in')"/>
  <use id="zoomminus" xlink:href="#zoomMin" x="42" y="9" onmousedown="handleZoom(evt,'out')"/>
  <use id="reset" xlink:href="#resetDef" x="30" y="36" onmousedown="handleReset()"/>
   <use id="arrowup" xlink:href="#arrowUp" x="0" y="0" onmousedown="handlePan(0,-1)"/>
  <use id="arrowright" xlink:href="#arrowRight" x="0" y="0" onmousedown="handlePan(1,0)"/>
  <use id="arrowdown" xlink:href="#arrowDown" x="0" y="0" onmousedown="handlePan(0,1)"/>
  <use id="arrowleft" xlink:href="#arrowLeft" x="0" y="0" onmousedown="handlePan(-1,0)"/>
</g>
<svg viewBox="0 0 15 15" width="100%" height="30px" preserveAspectRatio="xMaxYMin meet">
 <g id="arrow_out" transform="scale(0.3 0.3)">
  <a xlink:href="classFatFile_a5aac6e0b3cb08fc8b8668e916a8b0ca5_icgraph_org.svg" target="_base">
   <rect id="button" ry="5" rx="5" y="6" x="6" height="38" width="38"
        fill="#f2f5e9" fill-opacity="0.5" stroke="#606060" stroke-width="1.0"/>
   <path id="arrow"
     d="M 11.500037,31.436501 C 11.940474,20.09759 22.043105,11.32322 32.158766,21.979434 L 37.068811,17.246167 C 37.068811,17.246167 37.088388,32 37.088388,32 L 22.160133,31.978069 C 22.160133,31.978069 26.997745,27.140456 26.997745,27.140456 C 18.528582,18.264221 13.291696,25.230495 11.500037,31.436501 z"
     style="fill:#404040;"/>
  </a>
 </g>
</svg>

<style type='text/css'>
<![CDATA[
[data-mouse-over-selected='false'] { opacity: 0.7; }
[data-mouse-over-selected='true']  { opacity: 1.0; }
]]>
</style>
<script type="application/ecmascript"><![CDATA[
document.addEventListener('DOMContentLoaded', (event) => {
  highlightEdges();
  highlightAdjacentNodes();
});
]]></script>
</svg>
