<?xml version="1.0" encoding="UTF-8" standalone="no"?>
<!DOCTYPE svg PUBLIC "-//W3C//DTD SVG 1.1//EN"
 "http://www.w3.org/Graphics/SVG/1.1/DTD/svg11.dtd">
<!-- Generated by graphviz version 2.43.0 (0)
 -->
<!-- Title: FatFile::getSFN Pages: 1 -->
<svg width="2222pt" height="568pt"
 viewBox="0.00 0.00 2222.00 567.50" xmlns="http://www.w3.org/2000/svg" xmlns:xlink="http://www.w3.org/1999/xlink">
<g id="graph0" class="graph" transform="scale(1 1) rotate(0) translate(4 563.5)">
<title>FatFile::getSFN</title>
<!-- Node1 -->
<g id="Node000001" class="node">
<title>Node1</title>
<g id="a_Node000001"><a xlink:title=" ">
<polygon fill="#999999" stroke="#666666" points="89,-332.5 0,-332.5 0,-313.5 89,-313.5 89,-332.5"/>
<text text-anchor="middle" x="44.5" y="-320.5" font-family="Helvetica,sans-Serif" font-size="10.00">FatFile::getSFN</text>
</a>
</g>
</g>
<!-- Node2 -->
<g id="Node000002" class="node">
<title>Node2</title>
<g id="a_Node000002"><a xlink:href="../../d3/db4/classFatFile.xhtml#a1de799df045e4f60e9ebbcd6d341f9a8" target="_top" xlink:title=" ">
<polygon fill="white" stroke="#666666" points="247,-369.5 125,-369.5 125,-350.5 247,-350.5 247,-369.5"/>
<text text-anchor="middle" x="186" y="-357.5" font-family="Helvetica,sans-Serif" font-size="10.00">FatFile::cacheDirEntry</text>
</a>
</g>
</g>
<!-- Node1&#45;&gt;Node2 -->
<g id="edge1_Node000001_Node000002" class="edge">
<title>Node1&#45;&gt;Node2</title>
<g id="a_edge1_Node000001_Node000002"><a xlink:title=" ">
<path fill="none" stroke="#63b8ff" d="M81.42,-332.53C98.94,-337.17 120.22,-342.82 138.92,-347.78"/>
<polygon fill="#63b8ff" stroke="#63b8ff" points="138.15,-351.19 148.71,-350.38 139.94,-344.43 138.15,-351.19"/>
</a>
</g>
</g>
<!-- Node36 -->
<g id="Node000036" class="node">
<title>Node36</title>
<g id="a_Node000036"><a xlink:href="../../d3/db4/classFatFile.xhtml#a8b8a2850c086d3ce79bee64a23fbf7a6" target="_top" xlink:title=" ">
<polygon fill="white" stroke="#666666" points="230,-332.5 142,-332.5 142,-313.5 230,-313.5 230,-332.5"/>
<text text-anchor="middle" x="186" y="-320.5" font-family="Helvetica,sans-Serif" font-size="10.00">FatFile::isOpen</text>
</a>
</g>
</g>
<!-- Node1&#45;&gt;Node36 -->
<g id="edge57_Node000001_Node000036" class="edge">
<title>Node1&#45;&gt;Node36</title>
<g id="a_edge57_Node000001_Node000036"><a xlink:title=" ">
<path fill="none" stroke="#63b8ff" d="M89.26,-323C102.76,-323 117.78,-323 131.84,-323"/>
<polygon fill="#63b8ff" stroke="#63b8ff" points="131.88,-326.5 141.88,-323 131.88,-319.5 131.88,-326.5"/>
</a>
</g>
</g>
<!-- Node37 -->
<g id="Node000037" class="node">
<title>Node37</title>
<g id="a_Node000037"><a xlink:href="../../d3/db4/classFatFile.xhtml#a03421a0c28649332f55e6ca06d3aeedb" target="_top" xlink:title=" ">
<polygon fill="white" stroke="#666666" points="228.5,-295.5 143.5,-295.5 143.5,-276.5 228.5,-276.5 228.5,-295.5"/>
<text text-anchor="middle" x="186" y="-283.5" font-family="Helvetica,sans-Serif" font-size="10.00">FatFile::isRoot</text>
</a>
</g>
</g>
<!-- Node1&#45;&gt;Node37 -->
<g id="edge58_Node000001_Node000037" class="edge">
<title>Node1&#45;&gt;Node37</title>
<g id="a_edge58_Node000001_Node000037"><a xlink:title=" ">
<path fill="none" stroke="#63b8ff" d="M81.42,-313.47C98.94,-308.83 120.22,-303.18 138.92,-298.22"/>
<polygon fill="#63b8ff" stroke="#63b8ff" points="139.94,-301.57 148.71,-295.62 138.15,-294.81 139.94,-301.57"/>
</a>
</g>
</g>
<!-- Node3 -->
<g id="Node000003" class="node">
<title>Node3</title>
<g id="a_Node000003"><a xlink:href="../../d8/d15/classFatPartition.xhtml#ae4a3cea22302bfdf2ee6872e528260a9" target="_top" xlink:title=" ">
<polygon fill="white" stroke="#666666" points="450,-369.5 283,-369.5 283,-350.5 450,-350.5 450,-369.5"/>
<text text-anchor="middle" x="366.5" y="-357.5" font-family="Helvetica,sans-Serif" font-size="10.00">FatPartition::dataCachePrepare</text>
</a>
</g>
</g>
<!-- Node2&#45;&gt;Node3 -->
<g id="edge2_Node000002_Node000003" class="edge">
<title>Node2&#45;&gt;Node3</title>
<g id="a_edge2_Node000002_Node000003"><a xlink:title=" ">
<path fill="none" stroke="#63b8ff" d="M247.43,-360C255.65,-360 264.23,-360 272.85,-360"/>
<polygon fill="#63b8ff" stroke="#63b8ff" points="272.97,-363.5 282.97,-360 272.97,-356.5 272.97,-363.5"/>
</a>
</g>
</g>
<!-- Node4 -->
<g id="Node000004" class="node">
<title>Node4</title>
<g id="a_Node000004"><a xlink:href="../../dd/db1/classFsCache.xhtml#a8c11f064a2ce0a380f522392f09d63cb" target="_top" xlink:title=" ">
<polygon fill="white" stroke="#666666" points="587,-369.5 486,-369.5 486,-350.5 587,-350.5 587,-369.5"/>
<text text-anchor="middle" x="536.5" y="-357.5" font-family="Helvetica,sans-Serif" font-size="10.00">FsCache::prepare</text>
</a>
</g>
</g>
<!-- Node3&#45;&gt;Node4 -->
<g id="edge3_Node000003_Node000004" class="edge">
<title>Node3&#45;&gt;Node4</title>
<g id="a_edge3_Node000003_Node000004"><a xlink:title=" ">
<path fill="none" stroke="#63b8ff" d="M450.02,-360C458.75,-360 467.51,-360 475.9,-360"/>
<polygon fill="#63b8ff" stroke="#63b8ff" points="475.94,-363.5 485.94,-360 475.94,-356.5 475.94,-363.5"/>
</a>
</g>
</g>
<!-- Node5 -->
<g id="Node000005" class="node">
<title>Node5</title>
<g id="a_Node000005"><a xlink:href="../../d8/d7f/classSharedSpiCard.xhtml#a61d86f4092f8ddbc7339d7cbcf6f70c0" target="_top" xlink:title=" ">
<polygon fill="white" stroke="#666666" points="900.5,-446.5 754.5,-446.5 754.5,-427.5 900.5,-427.5 900.5,-446.5"/>
<text text-anchor="middle" x="827.5" y="-434.5" font-family="Helvetica,sans-Serif" font-size="10.00">SharedSpiCard::readSector</text>
</a>
</g>
</g>
<!-- Node4&#45;&gt;Node5 -->
<g id="edge4_Node000004_Node000005" class="edge">
<title>Node4&#45;&gt;Node5</title>
<g id="a_edge4_Node000004_Node000005"><a xlink:title=" ">
<path fill="none" stroke="#63b8ff" d="M573.23,-369.52C625.51,-383.45 722.89,-409.4 780.48,-424.74"/>
<polygon fill="#63b8ff" stroke="#63b8ff" points="779.84,-428.19 790.4,-427.38 781.64,-421.43 779.84,-428.19"/>
</a>
</g>
</g>
<!-- Node32 -->
<g id="Node000032" class="node">
<title>Node32</title>
<g id="a_Node000032"><a xlink:href="../../dd/db1/classFsCache.xhtml#a5b90e145400de8687d9f34536b134130" target="_top" xlink:title=" ">
<polygon fill="white" stroke="#666666" points="717,-369.5 623,-369.5 623,-350.5 717,-350.5 717,-369.5"/>
<text text-anchor="middle" x="670" y="-357.5" font-family="Helvetica,sans-Serif" font-size="10.00">FsCache::sector</text>
</a>
</g>
</g>
<!-- Node4&#45;&gt;Node32 -->
<g id="edge43_Node000004_Node000032" class="edge">
<title>Node4&#45;&gt;Node32</title>
<g id="a_edge43_Node000004_Node000032"><a xlink:title=" ">
<path fill="none" stroke="#63b8ff" d="M587.21,-360C595.49,-360 604.12,-360 612.55,-360"/>
<polygon fill="#63b8ff" stroke="#63b8ff" points="612.68,-363.5 622.68,-360 612.68,-356.5 612.68,-363.5"/>
</a>
</g>
</g>
<!-- Node33 -->
<g id="Node000033" class="node">
<title>Node33</title>
<g id="a_Node000033"><a xlink:href="../../dd/db1/classFsCache.xhtml#a5a2c8fb432d7b7590ebb43200ca21893" target="_top" xlink:title=" ">
<polygon fill="white" stroke="#666666" points="713,-332.5 627,-332.5 627,-313.5 713,-313.5 713,-332.5"/>
<text text-anchor="middle" x="670" y="-320.5" font-family="Helvetica,sans-Serif" font-size="10.00">FsCache::sync</text>
</a>
</g>
</g>
<!-- Node4&#45;&gt;Node33 -->
<g id="edge44_Node000004_Node000033" class="edge">
<title>Node4&#45;&gt;Node33</title>
<g id="a_edge44_Node000004_Node000033"><a xlink:title=" ">
<path fill="none" stroke="#63b8ff" d="M571.36,-350.47C587.65,-345.89 607.38,-340.34 624.83,-335.43"/>
<polygon fill="#63b8ff" stroke="#63b8ff" points="626.11,-338.7 634.79,-332.62 624.22,-331.96 626.11,-338.7"/>
</a>
</g>
</g>
<!-- Node6 -->
<g id="Node000006" class="node">
<title>Node6</title>
<g id="a_Node000006"><a xlink:href="../../d8/d7f/classSharedSpiCard.xhtml#adda33199753fc2aec74fe317cbaabc06" target="_top" xlink:title=" ">
<polygon fill="white" stroke="#666666" points="1103,-218.5 938,-218.5 938,-199.5 1103,-199.5 1103,-218.5"/>
<text text-anchor="middle" x="1020.5" y="-206.5" font-family="Helvetica,sans-Serif" font-size="10.00">SharedSpiCard::cardCommand</text>
</a>
</g>
</g>
<!-- Node5&#45;&gt;Node6 -->
<g id="edge5_Node000005_Node000006" class="edge">
<title>Node5&#45;&gt;Node6</title>
<g id="a_edge5_Node000005_Node000006"><a xlink:title=" ">
<path fill="none" stroke="#63b8ff" d="M836.46,-427.49C865.65,-392.66 967.01,-271.66 1004.99,-226.33"/>
<polygon fill="#63b8ff" stroke="#63b8ff" points="1007.76,-228.46 1011.5,-218.55 1002.4,-223.97 1007.76,-228.46"/>
</a>
</g>
</g>
<!-- Node20 -->
<g id="Node000020" class="node">
<title>Node20</title>
<g id="a_Node000020"><a xlink:href="../../d8/d7f/classSharedSpiCard.xhtml#a747c3f0b962098cf0c097f3c4c2b4fd4" target="_top" xlink:title=" ">
<polygon fill="white" stroke="#666666" points="1634.5,-350.5 1517.5,-350.5 1517.5,-331.5 1634.5,-331.5 1634.5,-350.5"/>
<text text-anchor="middle" x="1576" y="-338.5" font-family="Helvetica,sans-Serif" font-size="10.00">SharedSpiCard::error</text>
</a>
</g>
</g>
<!-- Node5&#45;&gt;Node20 -->
<g id="edge38_Node000005_Node000020" class="edge">
<title>Node5&#45;&gt;Node20</title>
<g id="a_edge38_Node000005_Node000020"><a xlink:title=" ">
<path fill="none" stroke="#63b8ff" d="M854.48,-446.6C944.56,-478.21 1249.76,-571.45 1467,-470 1516,-447.12 1550.62,-389.85 1566.03,-359.91"/>
<polygon fill="#63b8ff" stroke="#63b8ff" points="1569.36,-361.07 1570.67,-350.56 1563.09,-357.96 1569.36,-361.07"/>
</a>
</g>
</g>
<!-- Node21 -->
<g id="Node000021" class="node">
<title>Node21</title>
<g id="a_Node000021"><a xlink:href="../../d8/d7f/classSharedSpiCard.xhtml#a0f511c39c50055a4fc97e720933aee3a" target="_top" xlink:title=" ">
<polygon fill="white" stroke="#666666" points="1641,-293.5 1511,-293.5 1511,-274.5 1641,-274.5 1641,-293.5"/>
<text text-anchor="middle" x="1576" y="-281.5" font-family="Helvetica,sans-Serif" font-size="10.00">SharedSpiCard::spiStop</text>
</a>
</g>
</g>
<!-- Node5&#45;&gt;Node21 -->
<g id="edge41_Node000005_Node000021" class="edge">
<title>Node5&#45;&gt;Node21</title>
<g id="a_edge41_Node000005_Node000021"><a xlink:title=" ">
<path fill="none" stroke="#63b8ff" d="M876.15,-446.51C989.18,-466.32 1278.17,-500.63 1467,-378 1491.5,-362.09 1481.5,-342.78 1503,-323 1514.11,-312.78 1528.4,-304.32 1541.31,-297.93"/>
<polygon fill="#63b8ff" stroke="#63b8ff" points="1542.85,-301.07 1550.41,-293.64 1539.87,-294.74 1542.85,-301.07"/>
</a>
</g>
</g>
<!-- Node30 -->
<g id="Node000030" class="node">
<title>Node30</title>
<g id="a_Node000030"><a xlink:href="../../d8/d7f/classSharedSpiCard.xhtml#abeae3cdc162f24c2d450abe4e1ed8340" target="_top" xlink:title=" ">
<polygon fill="white" stroke="#666666" points="1090,-541.5 951,-541.5 951,-522.5 1090,-522.5 1090,-541.5"/>
<text text-anchor="middle" x="1020.5" y="-529.5" font-family="Helvetica,sans-Serif" font-size="10.00">SharedSpiCard::readData</text>
</a>
</g>
</g>
<!-- Node5&#45;&gt;Node30 -->
<g id="edge39_Node000005_Node000030" class="edge">
<title>Node5&#45;&gt;Node30</title>
<g id="a_edge39_Node000005_Node000030"><a xlink:title=" ">
<path fill="none" stroke="#63b8ff" d="M840.62,-446.56C860.12,-461.53 900.12,-490.59 938,-508 947.65,-512.43 958.32,-516.27 968.67,-519.5"/>
<polygon fill="#63b8ff" stroke="#63b8ff" points="967.87,-522.91 978.45,-522.41 969.86,-516.2 967.87,-522.91"/>
</a>
</g>
</g>
<!-- Node31 -->
<g id="Node000031" class="node">
<title>Node31</title>
<g id="a_Node000031"><a xlink:href="../../d8/d7f/classSharedSpiCard.xhtml#a7dac2190763d7b4b72163ed7131e8a87" target="_top" xlink:title=" ">
<polygon fill="white" stroke="#666666" points="1078.5,-427.5 962.5,-427.5 962.5,-408.5 1078.5,-408.5 1078.5,-427.5"/>
<text text-anchor="middle" x="1020.5" y="-415.5" font-family="Helvetica,sans-Serif" font-size="10.00">SharedSpiCard::type</text>
</a>
</g>
</g>
<!-- Node5&#45;&gt;Node31 -->
<g id="edge42_Node000005_Node000031" class="edge">
<title>Node5&#45;&gt;Node31</title>
<g id="a_edge42_Node000005_Node000031"><a xlink:title=" ">
<path fill="none" stroke="#63b8ff" d="M900.71,-429.82C917.59,-428.14 935.51,-426.35 952.17,-424.7"/>
<polygon fill="#63b8ff" stroke="#63b8ff" points="952.76,-428.16 962.37,-423.68 952.07,-421.19 952.76,-428.16"/>
</a>
</g>
</g>
<!-- Node7 -->
<g id="Node000007" class="node">
<title>Node7</title>
<g id="a_Node000007"><a xlink:href="../../d8/d7f/classSharedSpiCard.xhtml#a08363209d938db87521cca6a84146041" target="_top" xlink:title=" ">
<polygon fill="white" stroke="#666666" points="1839,-79.5 1692,-79.5 1692,-60.5 1839,-60.5 1839,-79.5"/>
<text text-anchor="middle" x="1765.5" y="-67.5" font-family="Helvetica,sans-Serif" font-size="10.00">SharedSpiCard::spiReceive</text>
</a>
</g>
</g>
<!-- Node6&#45;&gt;Node7 -->
<g id="edge6_Node000006_Node000007" class="edge">
<title>Node6&#45;&gt;Node7</title>
<g id="a_edge6_Node000006_Node000007"><a xlink:title=" ">
<path fill="none" stroke="#63b8ff" d="M1030.76,-199.34C1049.27,-180.72 1093.07,-140.19 1139,-123 1323.4,-53.97 1559.07,-55.98 1681.8,-63.14"/>
<polygon fill="#63b8ff" stroke="#63b8ff" points="1681.68,-66.64 1691.87,-63.75 1682.11,-59.65 1681.68,-66.64"/>
</a>
</g>
</g>
<!-- Node9 -->
<g id="Node000009" class="node">
<title>Node9</title>
<g id="a_Node000009"><a xlink:href="../../d8/d7f/classSharedSpiCard.xhtml#ab311b9ad8a250f06afbe091f7abb118b" target="_top" xlink:title=" ">
<polygon fill="white" stroke="#666666" points="1831.5,-237.5 1699.5,-237.5 1699.5,-218.5 1831.5,-218.5 1831.5,-237.5"/>
<text text-anchor="middle" x="1765.5" y="-225.5" font-family="Helvetica,sans-Serif" font-size="10.00">SharedSpiCard::spiSend</text>
</a>
</g>
</g>
<!-- Node6&#45;&gt;Node9 -->
<g id="edge8_Node000006_Node000009" class="edge">
<title>Node6&#45;&gt;Node9</title>
<g id="a_edge8_Node000006_Node000009"><a xlink:title=" ">
<path fill="none" stroke="#63b8ff" d="M1103.22,-207.76C1192.59,-206.74 1340.02,-206.02 1467,-210 1542.66,-212.37 1628.99,-217.91 1689.1,-222.22"/>
<polygon fill="#63b8ff" stroke="#63b8ff" points="1689.03,-225.73 1699.26,-222.96 1689.54,-218.74 1689.03,-225.73"/>
</a>
</g>
</g>
<!-- Node11 -->
<g id="Node000011" class="node">
<title>Node11</title>
<g id="a_Node000011"><a xlink:href="../../d8/d7f/classSharedSpiCard.xhtml#aef2dfa72e8d5643c90720f9f8c6a4254" target="_top" xlink:title=" ">
<polygon fill="white" stroke="#666666" points="1641.5,-161.5 1510.5,-161.5 1510.5,-142.5 1641.5,-142.5 1641.5,-161.5"/>
<text text-anchor="middle" x="1576" y="-149.5" font-family="Helvetica,sans-Serif" font-size="10.00">SharedSpiCard::spiStart</text>
</a>
</g>
</g>
<!-- Node6&#45;&gt;Node11 -->
<g id="edge10_Node000006_Node000011" class="edge">
<title>Node6&#45;&gt;Node11</title>
<g id="a_edge10_Node000006_Node000011"><a xlink:title=" ">
<path fill="none" stroke="#63b8ff" d="M1049.13,-199.39C1072.69,-191.64 1107.65,-181.2 1139,-176 1264.53,-155.18 1412.89,-151.34 1500.17,-151.17"/>
<polygon fill="#63b8ff" stroke="#63b8ff" points="1500.25,-154.67 1510.25,-151.17 1500.25,-147.67 1500.25,-154.67"/>
</a>
</g>
</g>
<!-- Node18 -->
<g id="Node000018" class="node">
<title>Node18</title>
<g id="a_Node000018"><a xlink:href="../../d8/d7f/classSharedSpiCard.xhtml#a2f181b3d6f27413a0f5ee883dfd94d87" target="_top" xlink:title=" ">
<polygon fill="white" stroke="#666666" points="1289,-237.5 1139,-237.5 1139,-218.5 1289,-218.5 1289,-237.5"/>
<text text-anchor="middle" x="1214" y="-225.5" font-family="Helvetica,sans-Serif" font-size="10.00">SharedSpiCard::syncDevice</text>
</a>
</g>
</g>
<!-- Node6&#45;&gt;Node18 -->
<g id="edge18_Node000006_Node000018" class="edge">
<title>Node6&#45;&gt;Node18</title>
<g id="a_edge18_Node000006_Node000018"><a xlink:title=" ">
<path fill="none" stroke="#63b8ff" d="M1103.27,-217.11C1111.65,-217.94 1120.18,-218.79 1128.59,-219.63"/>
<polygon fill="#63b8ff" stroke="#63b8ff" points="1128.48,-223.13 1138.78,-220.64 1129.17,-216.17 1128.48,-223.13"/>
</a>
</g>
</g>
<!-- Node26 -->
<g id="Node000026" class="node">
<title>Node26</title>
<g id="a_Node000026"><a xlink:href="../../d8/d7f/classSharedSpiCard.xhtml#ab3468397bb3b12d29dd2f31e45b3dcaf" target="_top" xlink:title=" ">
<polygon fill="white" stroke="#666666" points="1649,-123.5 1503,-123.5 1503,-104.5 1649,-104.5 1649,-123.5"/>
<text text-anchor="middle" x="1576" y="-111.5" font-family="Helvetica,sans-Serif" font-size="10.00">SharedSpiCard::waitReady</text>
</a>
</g>
</g>
<!-- Node6&#45;&gt;Node26 -->
<g id="edge37_Node000006_Node000026" class="edge">
<title>Node6&#45;&gt;Node26</title>
<g id="a_edge37_Node000006_Node000026"><a xlink:title=" ">
<path fill="none" stroke="#63b8ff" d="M1037.57,-199.48C1059.61,-186.93 1100.84,-165.24 1139,-155 1259.2,-122.73 1403.94,-114.97 1492.7,-113.56"/>
<polygon fill="#63b8ff" stroke="#63b8ff" points="1492.76,-117.06 1502.71,-113.43 1492.66,-110.06 1492.76,-117.06"/>
</a>
</g>
</g>
<!-- Node8 -->
<g id="Node000008" class="node">
<title>Node8</title>
<g id="a_Node000008"><a xlink:href="../../d0/d25/classSdSpiArduinoDriver.xhtml#a8d6bc852a52e9d69c4b1e48ee062e8d1" target="_top" xlink:title=" ">
<polygon fill="white" stroke="#666666" points="1993,-83 1882,-83 1882,-53 1993,-53 1993,-83"/>
<text text-anchor="start" x="1890" y="-71" font-family="Helvetica,sans-Serif" font-size="10.00">SdSpiArduinoDriver</text>
<text text-anchor="middle" x="1937.5" y="-60" font-family="Helvetica,sans-Serif" font-size="10.00">::receive</text>
</a>
</g>
</g>
<!-- Node7&#45;&gt;Node8 -->
<g id="edge7_Node000007_Node000008" class="edge">
<title>Node7&#45;&gt;Node8</title>
<g id="a_edge7_Node000007_Node000008"><a xlink:title=" ">
<path fill="none" stroke="#63b8ff" d="M1839.09,-69.15C1849.96,-69.02 1861.11,-68.89 1871.81,-68.76"/>
<polygon fill="#63b8ff" stroke="#63b8ff" points="1871.94,-72.26 1881.9,-68.64 1871.86,-65.26 1871.94,-72.26"/>
</a>
</g>
</g>
<!-- Node10 -->
<g id="Node000010" class="node">
<title>Node10</title>
<g id="a_Node000010"><a xlink:href="../../d0/d25/classSdSpiArduinoDriver.xhtml#a3c4842e47f98fe5d3799cd6028778ab5" target="_top" xlink:title=" ">
<polygon fill="white" stroke="#666666" points="1993,-255 1882,-255 1882,-225 1993,-225 1993,-255"/>
<text text-anchor="start" x="1890" y="-243" font-family="Helvetica,sans-Serif" font-size="10.00">SdSpiArduinoDriver</text>
<text text-anchor="middle" x="1937.5" y="-232" font-family="Helvetica,sans-Serif" font-size="10.00">::send</text>
</a>
</g>
</g>
<!-- Node9&#45;&gt;Node10 -->
<g id="edge9_Node000009_Node000010" class="edge">
<title>Node9&#45;&gt;Node10</title>
<g id="a_edge9_Node000009_Node000010"><a xlink:title=" ">
<path fill="none" stroke="#63b8ff" d="M1831.74,-232.61C1844.82,-233.53 1858.56,-234.5 1871.62,-235.42"/>
<polygon fill="#63b8ff" stroke="#63b8ff" points="1871.71,-238.94 1881.93,-236.15 1872.2,-231.95 1871.71,-238.94"/>
</a>
</g>
</g>
<!-- Node11&#45;&gt;Node9 -->
<g id="edge17_Node000011_Node000009" class="edge">
<title>Node11&#45;&gt;Node9</title>
<g id="a_edge17_Node000011_Node000009"><a xlink:title=" ">
<path fill="none" stroke="#63b8ff" d="M1615.72,-161.51C1626.9,-165.14 1638.82,-169.91 1649,-176 1667.88,-187.3 1665.58,-199.65 1685,-210 1688.48,-211.86 1692.15,-213.52 1695.92,-215.02"/>
<polygon fill="#63b8ff" stroke="#63b8ff" points="1694.87,-218.36 1705.46,-218.39 1697.2,-211.76 1694.87,-218.36"/>
</a>
</g>
</g>
<!-- Node12 -->
<g id="Node000012" class="node">
<title>Node12</title>
<g id="a_Node000012"><a xlink:href="../../d8/d7f/classSharedSpiCard.xhtml#a69ee2fe49dfaeea2347d8a265806d2b6" target="_top" xlink:title=" ">
<polygon fill="white" stroke="#666666" points="1840,-162.5 1691,-162.5 1691,-143.5 1840,-143.5 1840,-162.5"/>
<text text-anchor="middle" x="1765.5" y="-150.5" font-family="Helvetica,sans-Serif" font-size="10.00">SharedSpiCard::spiActivate</text>
</a>
</g>
</g>
<!-- Node11&#45;&gt;Node12 -->
<g id="edge11_Node000011_Node000012" class="edge">
<title>Node11&#45;&gt;Node12</title>
<g id="a_edge11_Node000011_Node000012"><a xlink:title=" ">
<path fill="none" stroke="#63b8ff" d="M1641.53,-152.34C1654.19,-152.41 1667.64,-152.48 1680.82,-152.55"/>
<polygon fill="#63b8ff" stroke="#63b8ff" points="1680.82,-156.05 1690.84,-152.61 1680.86,-149.05 1680.82,-156.05"/>
</a>
</g>
</g>
<!-- Node14 -->
<g id="Node000014" class="node">
<title>Node14</title>
<g id="a_Node000014"><a xlink:href="../../d8/d7f/classSharedSpiCard.xhtml#a8c3088599862ff6e84ae79bfdf32aea8" target="_top" xlink:title=" ">
<polygon fill="white" stroke="#666666" points="1834.5,-200.5 1696.5,-200.5 1696.5,-181.5 1834.5,-181.5 1834.5,-200.5"/>
<text text-anchor="middle" x="1765.5" y="-188.5" font-family="Helvetica,sans-Serif" font-size="10.00">SharedSpiCard::spiSelect</text>
</a>
</g>
</g>
<!-- Node11&#45;&gt;Node14 -->
<g id="edge13_Node000011_Node000014" class="edge">
<title>Node11&#45;&gt;Node14</title>
<g id="a_edge13_Node000011_Node000014"><a xlink:title=" ">
<path fill="none" stroke="#63b8ff" d="M1622.87,-161.54C1648.84,-166.94 1681.52,-173.74 1708.94,-179.44"/>
<polygon fill="#63b8ff" stroke="#63b8ff" points="1708.28,-182.88 1718.78,-181.49 1709.7,-176.03 1708.28,-182.88"/>
</a>
</g>
</g>
<!-- Node13 -->
<g id="Node000013" class="node">
<title>Node13</title>
<g id="a_Node000013"><a xlink:href="../../d0/d25/classSdSpiArduinoDriver.xhtml#abb6b88c5c8b87fc344a69f23f6eab3d9" target="_top" xlink:title=" ">
<polygon fill="white" stroke="#666666" points="1993,-169 1882,-169 1882,-139 1993,-139 1993,-169"/>
<text text-anchor="start" x="1890" y="-157" font-family="Helvetica,sans-Serif" font-size="10.00">SdSpiArduinoDriver</text>
<text text-anchor="middle" x="1937.5" y="-146" font-family="Helvetica,sans-Serif" font-size="10.00">::activate</text>
</a>
</g>
</g>
<!-- Node12&#45;&gt;Node13 -->
<g id="edge12_Node000012_Node000013" class="edge">
<title>Node12&#45;&gt;Node13</title>
<g id="a_edge12_Node000012_Node000013"><a xlink:title=" ">
<path fill="none" stroke="#63b8ff" d="M1840.08,-153.43C1850.57,-153.49 1861.31,-153.56 1871.63,-153.62"/>
<polygon fill="#63b8ff" stroke="#63b8ff" points="1871.76,-157.12 1881.78,-153.68 1871.8,-150.12 1871.76,-157.12"/>
</a>
</g>
</g>
<!-- Node15 -->
<g id="Node000015" class="node">
<title>Node15</title>
<g id="a_Node000015"><a xlink:href="../../d2/df0/SdSpiChipSelect_8cpp.xhtml#ac469bbe2d31ffde9b00ffc68258d7428" target="_top" xlink:title=" ">
<polygon fill="white" stroke="#666666" points="1970.5,-206.5 1904.5,-206.5 1904.5,-187.5 1970.5,-187.5 1970.5,-206.5"/>
<text text-anchor="middle" x="1937.5" y="-194.5" font-family="Helvetica,sans-Serif" font-size="10.00">sdCsWrite</text>
</a>
</g>
</g>
<!-- Node14&#45;&gt;Node15 -->
<g id="edge14_Node000014_Node000015" class="edge">
<title>Node14&#45;&gt;Node15</title>
<g id="a_edge14_Node000014_Node000015"><a xlink:title=" ">
<path fill="none" stroke="#63b8ff" d="M1834.67,-193.41C1854.74,-194.11 1876.12,-194.87 1894.09,-195.5"/>
<polygon fill="#63b8ff" stroke="#63b8ff" points="1894.11,-199.01 1904.23,-195.86 1894.36,-192.01 1894.11,-199.01"/>
</a>
</g>
</g>
<!-- Node16 -->
<g id="Node000016" class="node">
<title>Node16</title>
<g id="a_Node000016"><a xlink:href="../../d5/d45/wiring__digital_8c.xhtml#a73b9b61feeaf7d790d107f2954a7fd93" target="_top" xlink:title=" ">
<polygon fill="white" stroke="#666666" points="2103,-206.5 2029,-206.5 2029,-187.5 2103,-187.5 2103,-206.5"/>
<text text-anchor="middle" x="2066" y="-194.5" font-family="Helvetica,sans-Serif" font-size="10.00">digitalWrite</text>
</a>
</g>
</g>
<!-- Node15&#45;&gt;Node16 -->
<g id="edge15_Node000015_Node000016" class="edge">
<title>Node15&#45;&gt;Node16</title>
<g id="a_edge15_Node000015_Node000016"><a xlink:title=" ">
<path fill="none" stroke="#63b8ff" d="M1970.75,-197C1985.28,-197 2002.71,-197 2018.61,-197"/>
<polygon fill="#63b8ff" stroke="#63b8ff" points="2018.79,-200.5 2028.79,-197 2018.79,-193.5 2018.79,-200.5"/>
</a>
</g>
</g>
<!-- Node17 -->
<g id="Node000017" class="node">
<title>Node17</title>
<g id="a_Node000017"><a xlink:href="../../d5/d45/wiring__digital_8c.xhtml#ae3d0bcbe4eb927ca8f5d5c21b7e4f224" target="_top" xlink:title=" ">
<polygon fill="white" stroke="#666666" points="2214,-206.5 2139,-206.5 2139,-187.5 2214,-187.5 2214,-206.5"/>
<text text-anchor="middle" x="2176.5" y="-194.5" font-family="Helvetica,sans-Serif" font-size="10.00">turnOffPWM</text>
</a>
</g>
</g>
<!-- Node16&#45;&gt;Node17 -->
<g id="edge16_Node000016_Node000017" class="edge">
<title>Node16&#45;&gt;Node17</title>
<g id="a_edge16_Node000016_Node000017"><a xlink:title=" ">
<path fill="none" stroke="#63b8ff" d="M2103.13,-197C2111.28,-197 2120.05,-197 2128.57,-197"/>
<polygon fill="#63b8ff" stroke="#63b8ff" points="2128.79,-200.5 2138.79,-197 2128.79,-193.5 2128.79,-200.5"/>
</a>
</g>
</g>
<!-- Node19 -->
<g id="Node000019" class="node">
<title>Node19</title>
<g id="a_Node000019"><a xlink:href="../../d8/d7f/classSharedSpiCard.xhtml#ab33ad2aefbb9cff905cad0879dffc78b" target="_top" xlink:title=" ">
<polygon fill="white" stroke="#666666" points="1464.5,-274.5 1327.5,-274.5 1327.5,-255.5 1464.5,-255.5 1464.5,-274.5"/>
<text text-anchor="middle" x="1396" y="-262.5" font-family="Helvetica,sans-Serif" font-size="10.00">SharedSpiCard::readStop</text>
</a>
</g>
</g>
<!-- Node18&#45;&gt;Node19 -->
<g id="edge19_Node000018_Node000019" class="edge">
<title>Node18&#45;&gt;Node19</title>
<g id="a_edge19_Node000018_Node000019"><a xlink:title=" ">
<path fill="none" stroke="#63b8ff" d="M1261.35,-237.53C1284.88,-242.36 1313.66,-248.28 1338.48,-253.38"/>
<polygon fill="#63b8ff" stroke="#63b8ff" points="1337.99,-256.85 1348.49,-255.44 1339.4,-250 1337.99,-256.85"/>
</a>
</g>
</g>
<!-- Node25 -->
<g id="Node000025" class="node">
<title>Node25</title>
<g id="a_Node000025"><a xlink:href="../../d8/d7f/classSharedSpiCard.xhtml#ae9a34a573077e43e7c6028a16ae77fb3" target="_top" xlink:title=" ">
<polygon fill="white" stroke="#666666" points="1466,-237.5 1326,-237.5 1326,-218.5 1466,-218.5 1466,-237.5"/>
<text text-anchor="middle" x="1396" y="-225.5" font-family="Helvetica,sans-Serif" font-size="10.00">SharedSpiCard::writeStop</text>
</a>
</g>
</g>
<!-- Node18&#45;&gt;Node25 -->
<g id="edge28_Node000018_Node000025" class="edge">
<title>Node18&#45;&gt;Node25</title>
<g id="a_edge28_Node000018_Node000025"><a xlink:title=" ">
<path fill="none" stroke="#63b8ff" d="M1289.25,-228C1297.95,-228 1306.86,-228 1315.62,-228"/>
<polygon fill="#63b8ff" stroke="#63b8ff" points="1315.83,-231.5 1325.83,-228 1315.83,-224.5 1315.83,-231.5"/>
</a>
</g>
</g>
<!-- Node19&#45;&gt;Node6 -->
<g id="edge20_Node000019_Node000006" class="edge">
<title>Node19&#45;&gt;Node6</title>
<g id="a_edge20_Node000019_Node000006"><a xlink:title=" ">
<path fill="none" stroke="#63b8ff" d="M1327.31,-264.7C1275.37,-263.39 1202.09,-259.23 1139,-247 1109.9,-241.36 1077.96,-230.73 1054.74,-222.14"/>
<polygon fill="#63b8ff" stroke="#63b8ff" points="1055.95,-218.86 1045.35,-218.61 1053.48,-225.41 1055.95,-218.86"/>
</a>
</g>
</g>
<!-- Node19&#45;&gt;Node20 -->
<g id="edge21_Node000019_Node000020" class="edge">
<title>Node19&#45;&gt;Node20</title>
<g id="a_edge21_Node000019_Node000020"><a xlink:title=" ">
<path fill="none" stroke="#63b8ff" d="M1419.54,-274.63C1450.84,-287.99 1507.61,-312.23 1543.2,-327.42"/>
<polygon fill="#63b8ff" stroke="#63b8ff" points="1542.07,-330.74 1552.64,-331.45 1544.82,-324.31 1542.07,-330.74"/>
</a>
</g>
</g>
<!-- Node19&#45;&gt;Node21 -->
<g id="edge22_Node000019_Node000021" class="edge">
<title>Node19&#45;&gt;Node21</title>
<g id="a_edge22_Node000019_Node000021"><a xlink:title=" ">
<path fill="none" stroke="#63b8ff" d="M1464.55,-272.21C1476.38,-273.47 1488.75,-274.79 1500.75,-276.07"/>
<polygon fill="#63b8ff" stroke="#63b8ff" points="1500.41,-279.56 1510.73,-277.14 1501.16,-272.6 1500.41,-279.56"/>
</a>
</g>
</g>
<!-- Node21&#45;&gt;Node9 -->
<g id="edge25_Node000021_Node000009" class="edge">
<title>Node21&#45;&gt;Node9</title>
<g id="a_edge25_Node000021_Node000009"><a xlink:title=" ">
<path fill="none" stroke="#63b8ff" d="M1602.53,-274.48C1624.28,-266.56 1656.45,-255.28 1685,-247 1693.52,-244.53 1702.61,-242.13 1711.5,-239.92"/>
<polygon fill="#63b8ff" stroke="#63b8ff" points="1712.51,-243.28 1721.39,-237.51 1710.85,-236.48 1712.51,-243.28"/>
</a>
</g>
</g>
<!-- Node22 -->
<g id="Node000022" class="node">
<title>Node22</title>
<g id="a_Node000022"><a xlink:href="../../d8/d7f/classSharedSpiCard.xhtml#ac6acfca5a23337977d2e4436ab8ab39a" target="_top" xlink:title=" ">
<polygon fill="white" stroke="#666666" points="1846,-311.5 1685,-311.5 1685,-292.5 1846,-292.5 1846,-311.5"/>
<text text-anchor="middle" x="1765.5" y="-299.5" font-family="Helvetica,sans-Serif" font-size="10.00">SharedSpiCard::spiDeactivate</text>
</a>
</g>
</g>
<!-- Node21&#45;&gt;Node22 -->
<g id="edge23_Node000021_Node000022" class="edge">
<title>Node21&#45;&gt;Node22</title>
<g id="a_edge23_Node000021_Node000022"><a xlink:title=" ">
<path fill="none" stroke="#63b8ff" d="M1641,-290.14C1651.92,-291.19 1663.43,-292.3 1674.86,-293.39"/>
<polygon fill="#63b8ff" stroke="#63b8ff" points="1674.58,-296.88 1684.87,-294.36 1675.25,-289.92 1674.58,-296.88"/>
</a>
</g>
</g>
<!-- Node24 -->
<g id="Node000024" class="node">
<title>Node24</title>
<g id="a_Node000024"><a xlink:href="../../d8/d7f/classSharedSpiCard.xhtml#ad06a3278372300987b97876cf598c114" target="_top" xlink:title=" ">
<polygon fill="white" stroke="#666666" points="1841,-274.5 1690,-274.5 1690,-255.5 1841,-255.5 1841,-274.5"/>
<text text-anchor="middle" x="1765.5" y="-262.5" font-family="Helvetica,sans-Serif" font-size="10.00">SharedSpiCard::spiUnselect</text>
</a>
</g>
</g>
<!-- Node21&#45;&gt;Node24 -->
<g id="edge26_Node000021_Node000024" class="edge">
<title>Node21&#45;&gt;Node24</title>
<g id="a_edge26_Node000021_Node000024"><a xlink:title=" ">
<path fill="none" stroke="#63b8ff" d="M1641,-277.51C1653.39,-276.26 1666.55,-274.93 1679.49,-273.61"/>
<polygon fill="#63b8ff" stroke="#63b8ff" points="1680.21,-277.06 1689.8,-272.57 1679.5,-270.1 1680.21,-277.06"/>
</a>
</g>
</g>
<!-- Node23 -->
<g id="Node000023" class="node">
<title>Node23</title>
<g id="a_Node000023"><a xlink:href="../../d0/d25/classSdSpiArduinoDriver.xhtml#ae88a255f533e3acb41d1221025a69b55" target="_top" xlink:title=" ">
<polygon fill="white" stroke="#666666" points="1993,-317 1882,-317 1882,-287 1993,-287 1993,-317"/>
<text text-anchor="start" x="1890" y="-305" font-family="Helvetica,sans-Serif" font-size="10.00">SdSpiArduinoDriver</text>
<text text-anchor="middle" x="1937.5" y="-294" font-family="Helvetica,sans-Serif" font-size="10.00">::deactivate</text>
</a>
</g>
</g>
<!-- Node22&#45;&gt;Node23 -->
<g id="edge24_Node000022_Node000023" class="edge">
<title>Node22&#45;&gt;Node23</title>
<g id="a_edge24_Node000022_Node000023"><a xlink:title=" ">
<path fill="none" stroke="#63b8ff" d="M1846.02,-302C1854.63,-302 1863.3,-302 1871.7,-302"/>
<polygon fill="#63b8ff" stroke="#63b8ff" points="1871.78,-305.5 1881.78,-302 1871.78,-298.5 1871.78,-305.5"/>
</a>
</g>
</g>
<!-- Node24&#45;&gt;Node15 -->
<g id="edge27_Node000024_Node000015" class="edge">
<title>Node24&#45;&gt;Node15</title>
<g id="a_edge27_Node000024_Node000015"><a xlink:title=" ">
<path fill="none" stroke="#63b8ff" d="M1824.13,-255.49C1831.69,-253.23 1839.18,-250.44 1846,-247 1864.86,-237.5 1863.71,-226.55 1882,-216 1886.12,-213.62 1890.59,-211.47 1895.14,-209.55"/>
<polygon fill="#63b8ff" stroke="#63b8ff" points="1896.43,-212.8 1904.49,-205.91 1893.9,-206.27 1896.43,-212.8"/>
</a>
</g>
</g>
<!-- Node25&#45;&gt;Node9 -->
<g id="edge30_Node000025_Node000009" class="edge">
<title>Node25&#45;&gt;Node9</title>
<g id="a_edge30_Node000025_Node000009"><a xlink:title=" ">
<path fill="none" stroke="#63b8ff" d="M1466.12,-228C1529.67,-228 1623.68,-228 1689.14,-228"/>
<polygon fill="#63b8ff" stroke="#63b8ff" points="1689.39,-231.5 1699.39,-228 1689.39,-224.5 1689.39,-231.5"/>
</a>
</g>
</g>
<!-- Node25&#45;&gt;Node20 -->
<g id="edge29_Node000025_Node000020" class="edge">
<title>Node25&#45;&gt;Node20</title>
<g id="a_edge29_Node000025_Node000020"><a xlink:title=" ">
<path fill="none" stroke="#63b8ff" d="M1449.45,-237.59C1455.69,-240.05 1461.72,-243.13 1467,-247 1490.87,-264.49 1481.2,-282.99 1503,-303 1513.79,-312.9 1527.63,-321.01 1540.3,-327.16"/>
<polygon fill="#63b8ff" stroke="#63b8ff" points="1539.13,-330.48 1549.68,-331.47 1542.06,-324.12 1539.13,-330.48"/>
</a>
</g>
</g>
<!-- Node25&#45;&gt;Node21 -->
<g id="edge31_Node000025_Node000021" class="edge">
<title>Node25&#45;&gt;Node21</title>
<g id="a_edge31_Node000025_Node000021"><a xlink:title=" ">
<path fill="none" stroke="#63b8ff" d="M1433.82,-237.51C1444.56,-240.42 1456.29,-243.71 1467,-247 1491.21,-254.42 1518.16,-263.65 1539.08,-271.04"/>
<polygon fill="#63b8ff" stroke="#63b8ff" points="1537.93,-274.35 1548.53,-274.39 1540.27,-267.75 1537.93,-274.35"/>
</a>
</g>
</g>
<!-- Node25&#45;&gt;Node26 -->
<g id="edge32_Node000025_Node000026" class="edge">
<title>Node25&#45;&gt;Node26</title>
<g id="a_edge32_Node000025_Node000026"><a xlink:title=" ">
<path fill="none" stroke="#63b8ff" d="M1405.01,-218.44C1421.42,-199.46 1460.87,-156.92 1503,-134 1507.91,-131.33 1513.22,-128.99 1518.64,-126.94"/>
<polygon fill="#63b8ff" stroke="#63b8ff" points="1520.13,-130.13 1528.46,-123.58 1517.86,-123.51 1520.13,-130.13"/>
</a>
</g>
</g>
<!-- Node26&#45;&gt;Node7 -->
<g id="edge33_Node000026_Node000007" class="edge">
<title>Node26&#45;&gt;Node7</title>
<g id="a_edge33_Node000026_Node000007"><a xlink:title=" ">
<path fill="none" stroke="#63b8ff" d="M1617.68,-104.45C1645.94,-97.82 1683.79,-88.94 1713.98,-81.86"/>
<polygon fill="#63b8ff" stroke="#63b8ff" points="1714.96,-85.22 1723.89,-79.53 1713.36,-78.41 1714.96,-85.22"/>
</a>
</g>
</g>
<!-- Node27 -->
<g id="Node000027" class="node">
<title>Node27</title>
<g id="a_Node000027"><a xlink:href="../../db/df4/classTimeout.xhtml#abbabe99f42e52472ddd3a7e9d22dce95" target="_top" xlink:title=" ">
<polygon fill="white" stroke="#666666" points="1820,-121.5 1711,-121.5 1711,-102.5 1820,-102.5 1820,-121.5"/>
<text text-anchor="middle" x="1765.5" y="-109.5" font-family="Helvetica,sans-Serif" font-size="10.00">Timeout::timedOut</text>
</a>
</g>
</g>
<!-- Node26&#45;&gt;Node27 -->
<g id="edge34_Node000026_Node000027" class="edge">
<title>Node26&#45;&gt;Node27</title>
<g id="a_edge34_Node000026_Node000027"><a xlink:title=" ">
<path fill="none" stroke="#63b8ff" d="M1649.22,-113.23C1666.23,-113.05 1684.22,-112.86 1700.82,-112.68"/>
<polygon fill="#63b8ff" stroke="#63b8ff" points="1700.98,-116.18 1710.95,-112.57 1700.91,-109.18 1700.98,-116.18"/>
</a>
</g>
</g>
<!-- Node28 -->
<g id="Node000028" class="node">
<title>Node28</title>
<g id="a_Node000028"><a xlink:href="../../db/df4/classTimeout.xhtml#a9a72ea0591f11452fb15bfaa1ae5108a" target="_top" xlink:title=" ">
<polygon fill="white" stroke="#666666" points="1988.5,-120.5 1886.5,-120.5 1886.5,-101.5 1988.5,-101.5 1988.5,-120.5"/>
<text text-anchor="middle" x="1937.5" y="-108.5" font-family="Helvetica,sans-Serif" font-size="10.00">Timeout::millis16</text>
</a>
</g>
</g>
<!-- Node27&#45;&gt;Node28 -->
<g id="edge35_Node000027_Node000028" class="edge">
<title>Node27&#45;&gt;Node28</title>
<g id="a_edge35_Node000027_Node000028"><a xlink:title=" ">
<path fill="none" stroke="#63b8ff" d="M1820.29,-111.68C1838.02,-111.58 1857.85,-111.46 1876.04,-111.36"/>
<polygon fill="#63b8ff" stroke="#63b8ff" points="1876.26,-114.85 1886.24,-111.3 1876.22,-107.85 1876.26,-114.85"/>
</a>
</g>
</g>
<!-- Node29 -->
<g id="Node000029" class="node">
<title>Node29</title>
<g id="a_Node000029"><a xlink:href="../../d5/df3/wiring_8c.xhtml#a6ff7f2532a22366f0013bc41397129fd" target="_top" xlink:title=" ">
<polygon fill="white" stroke="#666666" points="2088,-120.5 2044,-120.5 2044,-101.5 2088,-101.5 2088,-120.5"/>
<text text-anchor="middle" x="2066" y="-108.5" font-family="Helvetica,sans-Serif" font-size="10.00">millis</text>
</a>
</g>
</g>
<!-- Node28&#45;&gt;Node29 -->
<g id="edge36_Node000028_Node000029" class="edge">
<title>Node28&#45;&gt;Node29</title>
<g id="a_edge36_Node000028_Node000029"><a xlink:title=" ">
<path fill="none" stroke="#63b8ff" d="M1988.86,-111C2003.97,-111 2020.11,-111 2033.62,-111"/>
<polygon fill="#63b8ff" stroke="#63b8ff" points="2033.83,-114.5 2043.83,-111 2033.83,-107.5 2033.83,-114.5"/>
</a>
</g>
</g>
<!-- Node30&#45;&gt;Node30 -->
<g id="edge40_Node000030_Node000030" class="edge">
<title>Node30&#45;&gt;Node30</title>
<g id="a_edge40_Node000030_Node000030"><a xlink:title=" ">
<path fill="none" stroke="#63b8ff" d="M990.91,-541.58C976.51,-550.23 986.38,-559.5 1020.5,-559.5 1043.96,-559.5 1055.95,-555.12 1056.48,-549.57"/>
<polygon fill="#63b8ff" stroke="#63b8ff" points="1059.07,-547.21 1050.09,-541.58 1053.61,-551.58 1059.07,-547.21"/>
</a>
</g>
</g>
<!-- Node34 -->
<g id="Node000034" class="node">
<title>Node34</title>
<g id="a_Node000034"><a xlink:href="../../d8/d7f/classSharedSpiCard.xhtml#adf2ce56ca0a56fe841fbdf75f7f3faee" target="_top" xlink:title=" ">
<polygon fill="white" stroke="#666666" points="902,-332.5 753,-332.5 753,-313.5 902,-313.5 902,-332.5"/>
<text text-anchor="middle" x="827.5" y="-320.5" font-family="Helvetica,sans-Serif" font-size="10.00">SharedSpiCard::writeSector</text>
</a>
</g>
</g>
<!-- Node33&#45;&gt;Node34 -->
<g id="edge45_Node000033_Node000034" class="edge">
<title>Node33&#45;&gt;Node34</title>
<g id="a_edge45_Node000033_Node000034"><a xlink:title=" ">
<path fill="none" stroke="#63b8ff" d="M713.08,-323C722.32,-323 732.42,-323 742.66,-323"/>
<polygon fill="#63b8ff" stroke="#63b8ff" points="742.93,-326.5 752.93,-323 742.93,-319.5 742.93,-326.5"/>
</a>
</g>
</g>
<!-- Node34&#45;&gt;Node6 -->
<g id="edge46_Node000034_Node000006" class="edge">
<title>Node34&#45;&gt;Node6</title>
<g id="a_edge46_Node000034_Node000006"><a xlink:title=" ">
<path fill="none" stroke="#63b8ff" d="M844.46,-313.48C877.74,-293.61 954.78,-247.63 994.63,-223.84"/>
<polygon fill="#63b8ff" stroke="#63b8ff" points="996.66,-226.71 1003.46,-218.58 993.07,-220.7 996.66,-226.71"/>
</a>
</g>
</g>
<!-- Node34&#45;&gt;Node7 -->
<g id="edge48_Node000034_Node000007" class="edge">
<title>Node34&#45;&gt;Node7</title>
<g id="a_edge48_Node000034_Node000007"><a xlink:title=" ">
<path fill="none" stroke="#63b8ff" d="M831.07,-313.32C840.12,-280.92 873.55,-175.05 938,-116 1035.81,-26.39 1080.35,0 1213,0 1213,0 1213,0 1397,0 1518.39,0 1658.42,-37.31 1725.17,-57.45"/>
<polygon fill="#63b8ff" stroke="#63b8ff" points="1724.27,-60.84 1734.85,-60.41 1726.31,-54.15 1724.27,-60.84"/>
</a>
</g>
</g>
<!-- Node34&#45;&gt;Node20 -->
<g id="edge47_Node000034_Node000020" class="edge">
<title>Node34&#45;&gt;Node20</title>
<g id="a_edge47_Node000034_Node000020"><a xlink:title=" ">
<path fill="none" stroke="#63b8ff" d="M865.11,-332.52C963.24,-356.67 1240.09,-415.79 1467,-378 1494,-373.5 1523.31,-363.09 1544.57,-354.45"/>
<polygon fill="#63b8ff" stroke="#63b8ff" points="1546.14,-357.59 1554.02,-350.51 1543.45,-351.12 1546.14,-357.59"/>
</a>
</g>
</g>
<!-- Node34&#45;&gt;Node21 -->
<g id="edge49_Node000034_Node000021" class="edge">
<title>Node34&#45;&gt;Node21</title>
<g id="a_edge49_Node000034_Node000021"><a xlink:title=" ">
<path fill="none" stroke="#63b8ff" d="M902.12,-319.15C1044.82,-311.7 1357.57,-295.36 1500.76,-287.88"/>
<polygon fill="#63b8ff" stroke="#63b8ff" points="1500.97,-291.37 1510.77,-287.36 1500.6,-284.38 1500.97,-291.37"/>
</a>
</g>
</g>
<!-- Node34&#45;&gt;Node26 -->
<g id="edge51_Node000034_Node000026" class="edge">
<title>Node34&#45;&gt;Node26</title>
<g id="a_edge51_Node000034_Node000026"><a xlink:title=" ">
<path fill="none" stroke="#63b8ff" d="M833.82,-313.49C847.74,-289.42 887.7,-225.58 938,-191 1113.45,-70.39 1381.98,-86.95 1506.81,-103.09"/>
<polygon fill="#63b8ff" stroke="#63b8ff" points="1506.62,-106.6 1517,-104.45 1507.55,-99.66 1506.62,-106.6"/>
</a>
</g>
</g>
<!-- Node34&#45;&gt;Node31 -->
<g id="edge50_Node000034_Node000031" class="edge">
<title>Node34&#45;&gt;Node31</title>
<g id="a_edge50_Node000034_Node000031"><a xlink:title=" ">
<path fill="none" stroke="#63b8ff" d="M840.62,-332.56C860.12,-347.53 900.12,-376.59 938,-394 947.65,-398.43 958.32,-402.27 968.67,-405.5"/>
<polygon fill="#63b8ff" stroke="#63b8ff" points="967.87,-408.91 978.45,-408.41 969.86,-402.2 967.87,-408.91"/>
</a>
</g>
</g>
<!-- Node35 -->
<g id="Node000035" class="node">
<title>Node35</title>
<g id="a_Node000035"><a xlink:href="../../d8/d7f/classSharedSpiCard.xhtml#a5b6d7ad34f56d0d6a6c5059d920499ba" target="_top" xlink:title=" ">
<polygon fill="white" stroke="#666666" points="1467,-350.5 1325,-350.5 1325,-331.5 1467,-331.5 1467,-350.5"/>
<text text-anchor="middle" x="1396" y="-338.5" font-family="Helvetica,sans-Serif" font-size="10.00">SharedSpiCard::writeData</text>
</a>
</g>
</g>
<!-- Node34&#45;&gt;Node35 -->
<g id="edge52_Node000034_Node000035" class="edge">
<title>Node34&#45;&gt;Node35</title>
<g id="a_edge52_Node000034_Node000035"><a xlink:title=" ">
<path fill="none" stroke="#63b8ff" d="M902.27,-325.34C1008.77,-328.73 1204.83,-334.96 1314.8,-338.45"/>
<polygon fill="#63b8ff" stroke="#63b8ff" points="1314.74,-341.95 1324.85,-338.77 1314.96,-334.96 1314.74,-341.95"/>
</a>
</g>
</g>
<!-- Node35&#45;&gt;Node20 -->
<g id="edge53_Node000035_Node000020" class="edge">
<title>Node35&#45;&gt;Node20</title>
<g id="a_edge53_Node000035_Node000020"><a xlink:title=" ">
<path fill="none" stroke="#63b8ff" d="M1467.09,-341C1480.22,-341 1493.92,-341 1506.99,-341"/>
<polygon fill="#63b8ff" stroke="#63b8ff" points="1507.3,-344.5 1517.3,-341 1507.3,-337.5 1507.3,-344.5"/>
</a>
</g>
</g>
<!-- Node35&#45;&gt;Node21 -->
<g id="edge54_Node000035_Node000021" class="edge">
<title>Node35&#45;&gt;Node21</title>
<g id="a_edge54_Node000035_Node000021"><a xlink:title=" ">
<path fill="none" stroke="#63b8ff" d="M1426.79,-331.46C1456.57,-321.92 1502.53,-307.21 1535.37,-296.69"/>
<polygon fill="#63b8ff" stroke="#63b8ff" points="1536.65,-299.95 1545.11,-293.57 1534.52,-293.29 1536.65,-299.95"/>
</a>
</g>
</g>
<!-- Node35&#45;&gt;Node26 -->
<g id="edge55_Node000035_Node000026" class="edge">
<title>Node35&#45;&gt;Node26</title>
<g id="a_edge55_Node000035_Node000026"><a xlink:title=" ">
<path fill="none" stroke="#63b8ff" d="M1414.43,-331.36C1430.54,-321.55 1453.9,-304.83 1467,-284 1503.5,-225.97 1455.39,-183.33 1503,-134 1504.81,-132.12 1506.79,-130.41 1508.88,-128.86"/>
<polygon fill="#63b8ff" stroke="#63b8ff" points="1510.78,-131.81 1517.51,-123.63 1507.14,-125.83 1510.78,-131.81"/>
</a>
</g>
</g>
<!-- Node35&#45;&gt;Node35 -->
<g id="edge56_Node000035_Node000035" class="edge">
<title>Node35&#45;&gt;Node35</title>
<g id="a_edge56_Node000035_Node000035"><a xlink:title=" ">
<path fill="none" stroke="#63b8ff" d="M1368.26,-350.58C1354.76,-359.23 1364.01,-368.5 1396,-368.5 1417.49,-368.5 1428.72,-364.32 1429.68,-358.95"/>
<polygon fill="#63b8ff" stroke="#63b8ff" points="1432.39,-356.71 1423.74,-350.58 1426.68,-360.76 1432.39,-356.71"/>
</a>
</g>
</g>
</g>
</svg>
