<?xml version="1.0" encoding="UTF-8" standalone="no"?>
<!DOCTYPE svg PUBLIC "-//W3C//DTD SVG 1.1//EN"
 "http://www.w3.org/Graphics/SVG/1.1/DTD/svg11.dtd">
<!-- Generated by graphviz version 2.43.0 (0)
 -->
<!-- Title: FatFile::available32 Pages: 1 -->
<svg width="443pt" height="64pt"
 viewBox="0.00 0.00 443.00 64.00" xmlns="http://www.w3.org/2000/svg" xmlns:xlink="http://www.w3.org/1999/xlink">
<g id="graph0" class="graph" transform="scale(1 1) rotate(0) translate(4 60)">
<title>FatFile::available32</title>
<!-- Node1 -->
<g id="Node000001" class="node">
<title>Node1</title>
<g id="a_Node000001"><a xlink:title=" ">
<polygon fill="#999999" stroke="#666666" points="435,-37 324,-37 324,-18 435,-18 435,-37"/>
<text text-anchor="middle" x="379.5" y="-25" font-family="Helvetica,sans-Serif" font-size="10.00">FatFile::available32</text>
</a>
</g>
</g>
<!-- Node2 -->
<g id="Node000002" class="node">
<title>Node2</title>
<g id="a_Node000002"><a xlink:href="../../d3/db4/classFatFile.xhtml#a7b3cb9982c0e8e6e627f28d8ee552446" target="_top" xlink:title=" ">
<polygon fill="white" stroke="#666666" points="271.5,-56 172.5,-56 172.5,-37 271.5,-37 271.5,-56"/>
<text text-anchor="middle" x="222" y="-44" font-family="Helvetica,sans-Serif" font-size="10.00">FatFile::available</text>
</a>
</g>
</g>
<!-- Node1&#45;&gt;Node2 -->
<g id="edge1_Node000001_Node000002" class="edge">
<title>Node1&#45;&gt;Node2</title>
<g id="a_edge1_Node000001_Node000002"><a xlink:title=" ">
<path fill="none" stroke="#63b8ff" d="M313.58,-35.43C299.54,-37.15 284.93,-38.93 271.64,-40.56"/>
<polygon fill="#63b8ff" stroke="#63b8ff" points="314.17,-38.89 323.68,-34.2 313.33,-31.94 314.17,-38.89"/>
</a>
</g>
</g>
<!-- Node4 -->
<g id="Node000004" class="node">
<title>Node4</title>
<g id="a_Node000004"><a xlink:href="../../d0/db5/classFsBaseFile.xhtml#a51ef5e33a8d4c9db1a5b212e15fb7da4" target="_top" xlink:title=" ">
<polygon fill="white" stroke="#666666" points="288,-19 156,-19 156,0 288,0 288,-19"/>
<text text-anchor="middle" x="222" y="-7" font-family="Helvetica,sans-Serif" font-size="10.00">FsBaseFile::available64</text>
</a>
</g>
</g>
<!-- Node1&#45;&gt;Node4 -->
<g id="edge3_Node000001_Node000004" class="edge">
<title>Node1&#45;&gt;Node4</title>
<g id="a_edge3_Node000001_Node000004"><a xlink:title=" ">
<path fill="none" stroke="#63b8ff" d="M313.59,-19.99C305.21,-19.02 296.63,-18.02 288.25,-17.05"/>
<polygon fill="#63b8ff" stroke="#63b8ff" points="313.34,-23.48 323.68,-21.15 314.15,-16.53 313.34,-23.48"/>
</a>
</g>
</g>
<!-- Node3 -->
<g id="Node000003" class="node">
<title>Node3</title>
<g id="a_Node000003"><a xlink:href="../../d0/db5/classFsBaseFile.xhtml#aac7a88177eec39ec7d4709ae861d5296" target="_top" xlink:title=" ">
<polygon fill="white" stroke="#666666" points="120,-56 0,-56 0,-37 120,-37 120,-56"/>
<text text-anchor="middle" x="60" y="-44" font-family="Helvetica,sans-Serif" font-size="10.00">FsBaseFile::available</text>
</a>
</g>
</g>
<!-- Node2&#45;&gt;Node3 -->
<g id="edge2_Node000002_Node000003" class="edge">
<title>Node2&#45;&gt;Node3</title>
<g id="a_edge2_Node000002_Node000003"><a xlink:title=" ">
<path fill="none" stroke="#63b8ff" d="M161.93,-46.5C148.34,-46.5 133.89,-46.5 120.29,-46.5"/>
<polygon fill="#63b8ff" stroke="#63b8ff" points="162.13,-50 172.13,-46.5 162.13,-43 162.13,-50"/>
</a>
</g>
</g>
</g>
</svg>
