<?xml version="1.0" encoding="UTF-8" standalone="no"?>
<!DOCTYPE svg PUBLIC "-//W3C//DTD SVG 1.1//EN"
 "http://www.w3.org/Graphics/SVG/1.1/DTD/svg11.dtd">
<!-- Generated by graphviz version 2.43.0 (0)
 -->
<!-- Title: FatFile::dirEntry Pages: 1 -->
<svg width="940pt" height="230pt"
 viewBox="0.00 0.00 940.00 230.00" xmlns="http://www.w3.org/2000/svg" xmlns:xlink="http://www.w3.org/1999/xlink">
<g id="graph0" class="graph" transform="scale(1 1) rotate(0) translate(4 226)">
<title>FatFile::dirEntry</title>
<!-- Node1 -->
<g id="Node000001" class="node">
<title>Node1</title>
<g id="a_Node000001"><a xlink:title=" ">
<polygon fill="#999999" stroke="#666666" points="932,-130 840,-130 840,-111 932,-111 932,-130"/>
<text text-anchor="middle" x="886" y="-118" font-family="Helvetica,sans-Serif" font-size="10.00">FatFile::dirEntry</text>
</a>
</g>
</g>
<!-- Node2 -->
<g id="Node000002" class="node">
<title>Node2</title>
<g id="a_Node000002"><a xlink:href="../../d3/db4/classFatFile_a5d085c695e920b658a1505e480bc467f.xhtml#a5d085c695e920b658a1505e480bc467f" target="_top" xlink:title=" ">
<polygon fill="white" stroke="#666666" points="792,-185 665,-185 665,-166 792,-166 792,-185"/>
<text text-anchor="middle" x="728.5" y="-173" font-family="Helvetica,sans-Serif" font-size="10.00">FatFile::getAccessDate</text>
</a>
</g>
</g>
<!-- Node1&#45;&gt;Node2 -->
<g id="edge1_Node000001_Node000002" class="edge">
<title>Node1&#45;&gt;Node2</title>
<g id="a_edge1_Node000001_Node000002"><a xlink:title=" ">
<path fill="none" stroke="#63b8ff" d="M848.41,-133.44C820.25,-143.4 781.97,-156.94 756.54,-165.94"/>
<polygon fill="#63b8ff" stroke="#63b8ff" points="849.65,-136.71 857.91,-130.08 847.32,-130.12 849.65,-136.71"/>
</a>
</g>
</g>
<!-- Node7 -->
<g id="Node000007" class="node">
<title>Node7</title>
<g id="a_Node000007"><a xlink:href="../../d3/db4/classFatFile_a94d484b5198032a9e00194e72182cc57.xhtml#a94d484b5198032a9e00194e72182cc57" target="_top" xlink:title=" ">
<polygon fill="white" stroke="#666666" points="803.5,-130 653.5,-130 653.5,-111 803.5,-111 803.5,-130"/>
<text text-anchor="middle" x="728.5" y="-118" font-family="Helvetica,sans-Serif" font-size="10.00">FatFile::getCreateDateTime</text>
</a>
</g>
</g>
<!-- Node1&#45;&gt;Node7 -->
<g id="edge6_Node000001_Node000007" class="edge">
<title>Node1&#45;&gt;Node7</title>
<g id="a_edge6_Node000001_Node000007"><a xlink:title=" ">
<path fill="none" stroke="#63b8ff" d="M829.56,-120.5C821.15,-120.5 812.36,-120.5 803.62,-120.5"/>
<polygon fill="#63b8ff" stroke="#63b8ff" points="829.6,-124 839.6,-120.5 829.6,-117 829.6,-124"/>
</a>
</g>
</g>
<!-- Node10 -->
<g id="Node000010" class="node">
<title>Node10</title>
<g id="a_Node000010"><a xlink:href="../../d3/db4/classFatFile_a28537b48ed2cb886c5f22984d07492b7.xhtml#a28537b48ed2cb886c5f22984d07492b7" target="_top" xlink:title=" ">
<polygon fill="white" stroke="#666666" points="804,-74 653,-74 653,-55 804,-55 804,-74"/>
<text text-anchor="middle" x="728.5" y="-62" font-family="Helvetica,sans-Serif" font-size="10.00">FatFile::getModifyDateTime</text>
</a>
</g>
</g>
<!-- Node1&#45;&gt;Node10 -->
<g id="edge9_Node000001_Node000010" class="edge">
<title>Node1&#45;&gt;Node10</title>
<g id="a_edge9_Node000001_Node000010"><a xlink:title=" ">
<path fill="none" stroke="#63b8ff" d="M848.69,-107.42C820.26,-97.19 781.4,-83.19 755.88,-74"/>
<polygon fill="#63b8ff" stroke="#63b8ff" points="847.67,-110.78 858.27,-110.87 850.05,-104.19 847.67,-110.78"/>
</a>
</g>
</g>
<!-- Node3 -->
<g id="Node000003" class="node">
<title>Node3</title>
<g id="a_Node000003"><a xlink:href="../../d3/db4/classFatFile_af70c42baeb45e0d7047ae63de568d0d2.xhtml#af70c42baeb45e0d7047ae63de568d0d2" target="_top" xlink:title=" ">
<polygon fill="white" stroke="#666666" points="607,-222 455,-222 455,-203 607,-203 607,-222"/>
<text text-anchor="middle" x="531" y="-210" font-family="Helvetica,sans-Serif" font-size="10.00">FatFile::getAccessDateTime</text>
</a>
</g>
</g>
<!-- Node2&#45;&gt;Node3 -->
<g id="edge2_Node000002_Node000003" class="edge">
<title>Node2&#45;&gt;Node3</title>
<g id="a_edge2_Node000002_Node000003"><a xlink:title=" ">
<path fill="none" stroke="#63b8ff" d="M667.01,-186.95C639.91,-192.08 608.32,-198.06 582.51,-202.94"/>
<polygon fill="#63b8ff" stroke="#63b8ff" points="667.98,-190.33 677.15,-185.03 666.68,-183.45 667.98,-190.33"/>
</a>
</g>
</g>
<!-- Node5 -->
<g id="Node000005" class="node">
<title>Node5</title>
<g id="a_Node000005"><a xlink:href="../../d3/db4/classFatFile_a22be4c339d0bfa331f75415b74dd4f37.xhtml#a22be4c339d0bfa331f75415b74dd4f37" target="_top" xlink:title=" ">
<polygon fill="white" stroke="#666666" points="598,-185 464,-185 464,-166 598,-166 598,-185"/>
<text text-anchor="middle" x="531" y="-173" font-family="Helvetica,sans-Serif" font-size="10.00">FatFile::printAccessDate</text>
</a>
</g>
</g>
<!-- Node2&#45;&gt;Node5 -->
<g id="edge4_Node000002_Node000005" class="edge">
<title>Node2&#45;&gt;Node5</title>
<g id="a_edge4_Node000002_Node000005"><a xlink:title=" ">
<path fill="none" stroke="#63b8ff" d="M654.67,-175.5C636.09,-175.5 616.23,-175.5 598.02,-175.5"/>
<polygon fill="#63b8ff" stroke="#63b8ff" points="654.84,-179 664.84,-175.5 654.84,-172 654.84,-179"/>
</a>
</g>
</g>
<!-- Node4 -->
<g id="Node000004" class="node">
<title>Node4</title>
<g id="a_Node000004"><a xlink:href="../../d0/db5/classFsBaseFile_add0901e13594348e1919a9df2fbad985.xhtml#add0901e13594348e1919a9df2fbad985" target="_top" xlink:title=" ">
<polygon fill="white" stroke="#666666" points="409,-222 236,-222 236,-203 409,-203 409,-222"/>
<text text-anchor="middle" x="322.5" y="-210" font-family="Helvetica,sans-Serif" font-size="10.00">FsBaseFile::getAccessDateTime</text>
</a>
</g>
</g>
<!-- Node3&#45;&gt;Node4 -->
<g id="edge3_Node000003_Node000004" class="edge">
<title>Node3&#45;&gt;Node4</title>
<g id="a_edge3_Node000003_Node000004"><a xlink:title=" ">
<path fill="none" stroke="#63b8ff" d="M444.64,-212.5C432.89,-212.5 420.83,-212.5 409.08,-212.5"/>
<polygon fill="#63b8ff" stroke="#63b8ff" points="444.86,-216 454.86,-212.5 444.86,-209 444.86,-216"/>
</a>
</g>
</g>
<!-- Node6 -->
<g id="Node000006" class="node">
<title>Node6</title>
<g id="a_Node000006"><a xlink:href="../../d3/db4/classFatFile_a19b3196bb1f6a68a2447e53b09369aef.xhtml#a19b3196bb1f6a68a2447e53b09369aef" target="_top" xlink:title=" ">
<polygon fill="white" stroke="#666666" points="401.5,-185 243.5,-185 243.5,-166 401.5,-166 401.5,-185"/>
<text text-anchor="middle" x="322.5" y="-173" font-family="Helvetica,sans-Serif" font-size="10.00">FatFile::printAccessDateTime</text>
</a>
</g>
</g>
<!-- Node5&#45;&gt;Node6 -->
<g id="edge5_Node000005_Node000006" class="edge">
<title>Node5&#45;&gt;Node6</title>
<g id="a_edge5_Node000005_Node000006"><a xlink:title=" ">
<path fill="none" stroke="#63b8ff" d="M453.42,-175.5C436.5,-175.5 418.55,-175.5 401.56,-175.5"/>
<polygon fill="#63b8ff" stroke="#63b8ff" points="453.81,-179 463.81,-175.5 453.81,-172 453.81,-179"/>
</a>
</g>
</g>
<!-- Node8 -->
<g id="Node000008" class="node">
<title>Node8</title>
<g id="a_Node000008"><a xlink:href="../../d0/db5/classFsBaseFile_a5101edd57ee4ac0cd771b97cd089e4be.xhtml#a5101edd57ee4ac0cd771b97cd089e4be" target="_top" xlink:title=" ">
<polygon fill="white" stroke="#666666" points="616.5,-148 445.5,-148 445.5,-129 616.5,-129 616.5,-148"/>
<text text-anchor="middle" x="531" y="-136" font-family="Helvetica,sans-Serif" font-size="10.00">FsBaseFile::getCreateDateTime</text>
</a>
</g>
</g>
<!-- Node7&#45;&gt;Node8 -->
<g id="edge7_Node000007_Node000008" class="edge">
<title>Node7&#45;&gt;Node8</title>
<g id="a_edge7_Node000007_Node000008"><a xlink:title=" ">
<path fill="none" stroke="#63b8ff" d="M643.09,-128.27C634.32,-129.08 625.39,-129.9 616.61,-130.71"/>
<polygon fill="#63b8ff" stroke="#63b8ff" points="643.67,-131.73 653.31,-127.33 643.03,-124.76 643.67,-131.73"/>
</a>
</g>
</g>
<!-- Node9 -->
<g id="Node000009" class="node">
<title>Node9</title>
<g id="a_Node000009"><a xlink:href="../../d3/db4/classFatFile_ab22396a285e27b53501a0047ddd97f59.xhtml#ab22396a285e27b53501a0047ddd97f59" target="_top" xlink:title=" ">
<polygon fill="white" stroke="#666666" points="609.5,-111 452.5,-111 452.5,-92 609.5,-92 609.5,-111"/>
<text text-anchor="middle" x="531" y="-99" font-family="Helvetica,sans-Serif" font-size="10.00">FatFile::printCreateDateTime</text>
</a>
</g>
</g>
<!-- Node7&#45;&gt;Node9 -->
<g id="edge8_Node000007_Node000009" class="edge">
<title>Node7&#45;&gt;Node9</title>
<g id="a_edge8_Node000007_Node000009"><a xlink:title=" ">
<path fill="none" stroke="#63b8ff" d="M643.19,-112.31C632.07,-111.23 620.72,-110.12 609.72,-109.05"/>
<polygon fill="#63b8ff" stroke="#63b8ff" points="643.02,-115.81 653.31,-113.29 643.7,-108.84 643.02,-115.81"/>
</a>
</g>
</g>
<!-- Node11 -->
<g id="Node000011" class="node">
<title>Node11</title>
<g id="a_Node000011"><a xlink:href="../../d0/db5/classFsBaseFile_aee20c403ceed3b036dae70838c9f1bbf.xhtml#aee20c403ceed3b036dae70838c9f1bbf" target="_top" xlink:title=" ">
<polygon fill="white" stroke="#666666" points="617,-74 445,-74 445,-55 617,-55 617,-74"/>
<text text-anchor="middle" x="531" y="-62" font-family="Helvetica,sans-Serif" font-size="10.00">FsBaseFile::getModifyDateTime</text>
</a>
</g>
</g>
<!-- Node10&#45;&gt;Node11 -->
<g id="edge10_Node000010_Node000011" class="edge">
<title>Node10&#45;&gt;Node11</title>
<g id="a_edge10_Node000010_Node000011"><a xlink:title=" ">
<path fill="none" stroke="#63b8ff" d="M642.56,-64.5C634.14,-64.5 625.58,-64.5 617.16,-64.5"/>
<polygon fill="#63b8ff" stroke="#63b8ff" points="642.75,-68 652.75,-64.5 642.75,-61 642.75,-68"/>
</a>
</g>
</g>
<!-- Node12 -->
<g id="Node000012" class="node">
<title>Node12</title>
<g id="a_Node000012"><a xlink:href="../../d3/db4/classFatFile_a43c8a1cabcae673e43c590f5db44c65a.xhtml#a43c8a1cabcae673e43c590f5db44c65a" target="_top" xlink:title=" ">
<polygon fill="white" stroke="#666666" points="610,-37 452,-37 452,-18 610,-18 610,-37"/>
<text text-anchor="middle" x="531" y="-25" font-family="Helvetica,sans-Serif" font-size="10.00">FatFile::printModifyDateTime</text>
</a>
</g>
</g>
<!-- Node10&#45;&gt;Node12 -->
<g id="edge11_Node000010_Node000012" class="edge">
<title>Node10&#45;&gt;Node12</title>
<g id="a_edge11_Node000010_Node000012"><a xlink:title=" ">
<path fill="none" stroke="#63b8ff" d="M667.01,-53.05C639.91,-47.92 608.32,-41.94 582.51,-37.06"/>
<polygon fill="#63b8ff" stroke="#63b8ff" points="666.68,-56.55 677.15,-54.97 667.98,-49.67 666.68,-56.55"/>
</a>
</g>
</g>
<!-- Node13 -->
<g id="Node000013" class="node">
<title>Node13</title>
<g id="a_Node000013"><a xlink:href="../../d3/db4/classFatFile_a60ab9d16bcc778150a364c26de467de1.xhtml#a60ab9d16bcc778150a364c26de467de1" target="_top" xlink:title=" ">
<polygon fill="white" stroke="#666666" points="353.5,-37 291.5,-37 291.5,-18 353.5,-18 353.5,-37"/>
<text text-anchor="middle" x="322.5" y="-25" font-family="Helvetica,sans-Serif" font-size="10.00">FatFile::ls</text>
</a>
</g>
</g>
<!-- Node12&#45;&gt;Node13 -->
<g id="edge12_Node000012_Node000013" class="edge">
<title>Node12&#45;&gt;Node13</title>
<g id="a_edge12_Node000012_Node000013"><a xlink:title=" ">
<path fill="none" stroke="#63b8ff" d="M441.8,-27.5C410.32,-27.5 376.95,-27.5 353.7,-27.5"/>
<polygon fill="#63b8ff" stroke="#63b8ff" points="441.93,-31 451.93,-27.5 441.93,-24 441.93,-31"/>
</a>
</g>
</g>
<!-- Node13&#45;&gt;Node13 -->
<g id="edge16_Node000013_Node000013" class="edge">
<title>Node13&#45;&gt;Node13</title>
<g id="a_edge16_Node000013_Node000013"><a xlink:title=" ">
<path fill="none" stroke="#63b8ff" d="M352.74,-45.82C351.48,-51.01 341.4,-55 322.5,-55 293.71,-55 285.38,-45.73 297.53,-37.08"/>
<polygon fill="#63b8ff" stroke="#63b8ff" points="355.63,-43.84 347.47,-37.08 349.64,-47.45 355.63,-43.84"/>
</a>
</g>
</g>
<!-- Node14 -->
<g id="Node000014" class="node">
<title>Node14</title>
<g id="a_Node000014"><a xlink:href="../../d3/dd5/classFatVolume_ac5fc83cac7fd3af0b140a7986b9472f8.xhtml#ac5fc83cac7fd3af0b140a7986b9472f8" target="_top" xlink:title=" ">
<polygon fill="white" stroke="#666666" points="200,-56 118,-56 118,-37 200,-37 200,-56"/>
<text text-anchor="middle" x="159" y="-44" font-family="Helvetica,sans-Serif" font-size="10.00">FatVolume::ls</text>
</a>
</g>
</g>
<!-- Node13&#45;&gt;Node14 -->
<g id="edge13_Node000013_Node000014" class="edge">
<title>Node13&#45;&gt;Node14</title>
<g id="a_edge13_Node000013_Node000014"><a xlink:title=" ">
<path fill="none" stroke="#63b8ff" d="M280.97,-32.27C256.21,-35.18 224.67,-38.89 200.01,-41.79"/>
<polygon fill="#63b8ff" stroke="#63b8ff" points="281.6,-35.72 291.12,-31.07 280.78,-28.77 281.6,-35.72"/>
</a>
</g>
</g>
<!-- Node15 -->
<g id="Node000015" class="node">
<title>Node15</title>
<g id="a_Node000015"><a xlink:href="../../d3/dd5/classFatVolume_ae40964f357cfff4208812344a0e6f26f.xhtml#ae40964f357cfff4208812344a0e6f26f" target="_top" xlink:title=" ">
<polygon fill="white" stroke="#666666" points="200,-19 118,-19 118,0 200,0 200,-19"/>
<text text-anchor="middle" x="159" y="-7" font-family="Helvetica,sans-Serif" font-size="10.00">FatVolume::ls</text>
</a>
</g>
</g>
<!-- Node13&#45;&gt;Node15 -->
<g id="edge14_Node000013_Node000015" class="edge">
<title>Node13&#45;&gt;Node15</title>
<g id="a_edge14_Node000013_Node000015"><a xlink:title=" ">
<path fill="none" stroke="#63b8ff" d="M280.97,-22.98C256.21,-20.22 224.67,-16.71 200.01,-13.96"/>
<polygon fill="#63b8ff" stroke="#63b8ff" points="280.8,-26.49 291.12,-24.11 281.57,-19.53 280.8,-26.49"/>
</a>
</g>
</g>
<!-- Node16 -->
<g id="Node000016" class="node">
<title>Node16</title>
<g id="a_Node000016"><a xlink:href="../../d3/dd5/classFatVolume_a455ad7b2a5b6b31551dca08087a3c404.xhtml#a455ad7b2a5b6b31551dca08087a3c404" target="_top" xlink:title=" ">
<polygon fill="white" stroke="#666666" points="82,-19 0,-19 0,0 82,0 82,-19"/>
<text text-anchor="middle" x="41" y="-7" font-family="Helvetica,sans-Serif" font-size="10.00">FatVolume::ls</text>
</a>
</g>
</g>
<!-- Node15&#45;&gt;Node16 -->
<g id="edge15_Node000015_Node000016" class="edge">
<title>Node15&#45;&gt;Node16</title>
<g id="a_edge15_Node000015_Node000016"><a xlink:title=" ">
<path fill="none" stroke="#63b8ff" d="M107.56,-9.5C99.07,-9.5 90.36,-9.5 82.17,-9.5"/>
<polygon fill="#63b8ff" stroke="#63b8ff" points="107.75,-13 117.75,-9.5 107.75,-6 107.75,-13"/>
</a>
</g>
</g>
</g>
</svg>
