<?xml version="1.0" encoding="UTF-8" standalone="no"?>
<!DOCTYPE svg PUBLIC "-//W3C//DTD SVG 1.1//EN"
 "http://www.w3.org/Graphics/SVG/1.1/DTD/svg11.dtd">
<!-- Generated by graphviz version 2.43.0 (0)
 -->
<!-- Title: FatFile::isReadOnly Pages: 1 -->
<!--zoomable 156 -->

<svg id="main" version="1.1" xmlns="http://www.w3.org/2000/svg" xmlns:xlink="http://www.w3.org/1999/xlink" xml:space="preserve" onload="init(evt)">
<style type="text/css"><![CDATA[
.node, .edge {opacity: 0.7;}
.node.selected, .edge.selected {opacity: 1;}
.edge:hover path { stroke: red; }
.edge:hover polygon { stroke: red; fill: red; }
]]></style>

<defs>
  <circle id="rim" cx="0" cy="0" r="7"/>
  <circle id="rim2" cx="0" cy="0" r="3.5"/>
  <g id="zoomPlus">
    <use xlink:href="#rim" fill="#404040"><set attributeName="fill" to="#808080" begin="zoomplus.mouseover" end="zoomplus.mouseout"/></use>
    <path d="M-4,0h8M0,-4v8" fill="none" stroke="white" stroke-width="1.5" pointer-events="none"/>
  </g>
  <g id="zoomMin">
    <use xlink:href="#rim" fill="#404040"><set attributeName="fill" to="#808080" begin="zoomminus.mouseover" end="zoomminus.mouseout"/></use>
    <path d="M-4,0h8" fill="none" stroke="white" stroke-width="1.5" pointer-events="none"/>
  </g>
  <g id="arrowUp" transform="translate(30 24)">
    <use xlink:href="#rim"/>
    <path pointer-events="none" fill="none" stroke="white" stroke-width="1.5" d="M0,-3.0v7 M-2.5,-0.5L0,-3.0L2.5,-0.5"/>
  </g>
  <g id="arrowRight" transform="rotate(90) translate(36 -43)">
    <use xlink:href="#rim"/>
    <path pointer-events="none" fill="none" stroke="white" stroke-width="1.5" d="M0,-3.0v7 M-2.5,-0.5L0,-3.0L2.5,-0.5"/>
  </g>
  <g id="arrowDown" transform="rotate(180) translate(-30 -48)">
    <use xlink:href="#rim"/>
    <path pointer-events="none" fill="none" stroke="white" stroke-width="1.5" d="M0,-3.0v7 M-2.5,-0.5L0,-3.0L2.5,-0.5"/>
  </g>
  <g id="arrowLeft" transform="rotate(270) translate(-36 17)">
    <use xlink:href="#rim"/>
    <path pointer-events="none" fill="none" stroke="white" stroke-width="1.5" d="M0,-3.0v7 M-2.5,-0.5L0,-3.0L2.5,-0.5"/>
  </g>
  <g id="resetDef">
    <use xlink:href="#rim2" fill="#404040"><set attributeName="fill" to="#808080" begin="reset.mouseover" end="reset.mouseout"/></use>
  </g>
</defs>
<script type="application/ecmascript">
var viewWidth = 895;
var viewHeight = 156;
var sectionId = 'dynsection-78';
</script>
<script type="application/ecmascript" xlink:href="../../svg.min.js"/>
<svg id="graph" class="graph">
<g id="viewport">
<title>FatFile::isReadOnly</title>
<!-- Node1 -->
<g id="Node000001" class="node">
<title>Node1</title>
<g id="a_Node000001"><a xlink:title=" ">
<polygon fill="#999999" stroke="#666666" points="887,-101 777,-101 777,-82 887,-82 887,-101"/>
<text text-anchor="middle" x="832" y="-89" font-family="Helvetica,sans-Serif" font-size="10.00">FatFile::isReadOnly</text>
</a>
</g>
</g>
<!-- Node2 -->
<g id="Node000002" class="node">
<title>Node2</title>
<g id="a_Node000002"><a xlink:href="../../d0/db5/classFsBaseFile.xhtml#a3816261b4fbc7d3e3f1c42cda838f256" target="_top" xlink:title=" ">
<polygon fill="white" stroke="#666666" points="736.5,-138 605.5,-138 605.5,-119 736.5,-119 736.5,-138"/>
<text text-anchor="middle" x="671" y="-126" font-family="Helvetica,sans-Serif" font-size="10.00">FsBaseFile::isReadOnly</text>
</a>
</g>
</g>
<!-- Node1&#45;&gt;Node2 -->
<g id="edge1_Node000001_Node000002" class="edge">
<title>Node1&#45;&gt;Node2</title>
<g id="a_edge1_Node000001_Node000002"><a xlink:title=" ">
<path fill="none" stroke="#63b8ff" d="M780.05,-103.36C758.41,-108.39 733.52,-114.18 713.08,-118.94"/>
<polygon fill="#63b8ff" stroke="#63b8ff" points="781.11,-106.7 790.05,-101.03 779.52,-99.89 781.11,-106.7"/>
</a>
</g>
</g>
<!-- Node3 -->
<g id="Node000003" class="node">
<title>Node3</title>
<g id="a_Node000003"><a xlink:href="../../d3/db4/classFatFile.xhtml#ad39f3c4d83135ad181c58306b23df0aa" target="_top" xlink:title=" ">
<polygon fill="white" stroke="#666666" points="741,-101 601,-101 601,-82 741,-82 741,-101"/>
<text text-anchor="middle" x="671" y="-89" font-family="Helvetica,sans-Serif" font-size="10.00">FatFile::openCachedEntry</text>
</a>
</g>
</g>
<!-- Node1&#45;&gt;Node3 -->
<g id="edge2_Node000001_Node000003" class="edge">
<title>Node1&#45;&gt;Node3</title>
<g id="a_edge2_Node000001_Node000003"><a xlink:title=" ">
<path fill="none" stroke="#63b8ff" d="M766.65,-91.5C758.27,-91.5 749.66,-91.5 741.21,-91.5"/>
<polygon fill="#63b8ff" stroke="#63b8ff" points="766.73,-95 776.73,-91.5 766.73,-88 766.73,-95"/>
</a>
</g>
</g>
<!-- Node15 -->
<g id="Node000015" class="node">
<title>Node15</title>
<g id="a_Node000015"><a xlink:href="../../d3/db4/classFatFile.xhtml#a8aa6e2d722bdf14ef34671beb23488ea" target="_top" xlink:title=" ">
<polygon fill="white" stroke="#666666" points="720,-55 622,-55 622,-36 720,-36 720,-55"/>
<text text-anchor="middle" x="671" y="-43" font-family="Helvetica,sans-Serif" font-size="10.00">FatFile::openSFN</text>
</a>
</g>
</g>
<!-- Node1&#45;&gt;Node15 -->
<g id="edge15_Node000001_Node000015" class="edge">
<title>Node1&#45;&gt;Node15</title>
<g id="a_edge15_Node000001_Node000015"><a xlink:title=" ">
<path fill="none" stroke="#63b8ff" d="M788.38,-79.17C762.17,-71.59 729.09,-62.02 704.9,-55.02"/>
<polygon fill="#63b8ff" stroke="#63b8ff" points="787.48,-82.55 798.06,-81.97 789.42,-75.83 787.48,-82.55"/>
</a>
</g>
</g>
<!-- Node4 -->
<g id="Node000004" class="node">
<title>Node4</title>
<g id="a_Node000004"><a xlink:href="../../d3/db4/classFatFile.xhtml#aa729447d16ce34a9a575c27ac58dbb12" target="_top" xlink:title=" ">
<polygon fill="white" stroke="#666666" points="535.5,-148 457.5,-148 457.5,-129 535.5,-129 535.5,-148"/>
<text text-anchor="middle" x="496.5" y="-136" font-family="Helvetica,sans-Serif" font-size="10.00">FatFile::open</text>
</a>
</g>
</g>
<!-- Node3&#45;&gt;Node4 -->
<g id="edge3_Node000003_Node000004" class="edge">
<title>Node3&#45;&gt;Node4</title>
<g id="a_edge3_Node000003_Node000004"><a xlink:title=" ">
<path fill="none" stroke="#63b8ff" d="M625.5,-103.74C617.35,-105.98 608.92,-108.31 601,-110.5 585,-114.93 581.02,-116.14 565,-120.5 554.82,-123.27 543.76,-126.24 533.6,-128.95"/>
<polygon fill="#63b8ff" stroke="#63b8ff" points="626.54,-107.08 635.25,-101.05 624.68,-100.33 626.54,-107.08"/>
</a>
</g>
</g>
<!-- Node5 -->
<g id="Node000005" class="node">
<title>Node5</title>
<g id="a_Node000005"><a xlink:href="../../d3/db4/classFatFile.xhtml#aefd095e898758e6008f33cca17e92b72" target="_top" xlink:title=" ">
<polygon fill="white" stroke="#666666" points="535.5,-111 457.5,-111 457.5,-92 535.5,-92 535.5,-111"/>
<text text-anchor="middle" x="496.5" y="-99" font-family="Helvetica,sans-Serif" font-size="10.00">FatFile::open</text>
</a>
</g>
</g>
<!-- Node3&#45;&gt;Node5 -->
<g id="edge4_Node000003_Node000005" class="edge">
<title>Node3&#45;&gt;Node5</title>
<g id="a_edge4_Node000003_Node000005"><a xlink:title=" ">
<path fill="none" stroke="#63b8ff" d="M590.63,-96.1C571.6,-97.2 552.12,-98.33 535.92,-99.27"/>
<polygon fill="#63b8ff" stroke="#63b8ff" points="591.05,-99.58 600.83,-95.51 590.65,-92.59 591.05,-99.58"/>
</a>
</g>
</g>
<!-- Node6 -->
<g id="Node000006" class="node">
<title>Node6</title>
<g id="a_Node000006"><a xlink:href="../../d3/db4/classFatFile.xhtml#acda9b1bf547d43e183e657bee053a48d" target="_top" xlink:title=" ">
<polygon fill="white" stroke="#666666" points="547,-74 446,-74 446,-55 547,-55 547,-74"/>
<text text-anchor="middle" x="496.5" y="-62" font-family="Helvetica,sans-Serif" font-size="10.00">FatFile::openNext</text>
</a>
</g>
</g>
<!-- Node3&#45;&gt;Node6 -->
<g id="edge5_Node000003_Node000006" class="edge">
<title>Node3&#45;&gt;Node6</title>
<g id="a_edge5_Node000003_Node000006"><a xlink:title=" ">
<path fill="none" stroke="#63b8ff" d="M599.06,-80.4C581.66,-77.67 563.41,-74.82 547.25,-72.29"/>
<polygon fill="#63b8ff" stroke="#63b8ff" points="598.76,-83.89 609.18,-81.98 599.84,-76.98 598.76,-83.89"/>
</a>
</g>
</g>
<!-- Node7 -->
<g id="Node000007" class="node">
<title>Node7</title>
<g id="a_Node000007"><a xlink:href="../../d3/db4/classFatFile.xhtml#a60ab9d16bcc778150a364c26de467de1" target="_top" xlink:title=" ">
<polygon fill="white" stroke="#666666" points="362,-130 300,-130 300,-111 362,-111 362,-130"/>
<text text-anchor="middle" x="331" y="-118" font-family="Helvetica,sans-Serif" font-size="10.00">FatFile::ls</text>
</a>
</g>
</g>
<!-- Node6&#45;&gt;Node7 -->
<g id="edge6_Node000006_Node000007" class="edge">
<title>Node6&#45;&gt;Node7</title>
<g id="a_edge6_Node000006_Node000007"><a xlink:title=" ">
<path fill="none" stroke="#63b8ff" d="M446.37,-77.01C440.12,-78.99 433.86,-81.16 428,-83.5 411.2,-90.21 408.74,-95.65 392,-102.5 382.54,-106.37 371.94,-109.83 362.31,-112.65"/>
<polygon fill="#63b8ff" stroke="#63b8ff" points="447.56,-80.31 456.13,-74.07 445.54,-73.6 447.56,-80.31"/>
</a>
</g>
</g>
<!-- Node11 -->
<g id="Node000011" class="node">
<title>Node11</title>
<g id="a_Node000011"><a xlink:href="../../d3/db4/classFatFile.xhtml#a5318ee7a7700ff23721497945fba363d" target="_top" xlink:title=" ">
<polygon fill="white" stroke="#666666" points="370,-93 292,-93 292,-74 370,-74 370,-93"/>
<text text-anchor="middle" x="331" y="-81" font-family="Helvetica,sans-Serif" font-size="10.00">FatFile::open</text>
</a>
</g>
</g>
<!-- Node6&#45;&gt;Node11 -->
<g id="edge11_Node000006_Node000011" class="edge">
<title>Node6&#45;&gt;Node11</title>
<g id="a_edge11_Node000006_Node000011"><a xlink:title=" ">
<path fill="none" stroke="#63b8ff" d="M435.4,-71.48C413.61,-74.02 389.61,-76.81 370.22,-79.06"/>
<polygon fill="#63b8ff" stroke="#63b8ff" points="436.03,-74.93 445.56,-70.3 435.22,-67.98 436.03,-74.93"/>
</a>
</g>
</g>
<!-- Node12 -->
<g id="Node000012" class="node">
<title>Node12</title>
<g id="a_Node000012"><a xlink:href="../../d0/db5/classFsBaseFile.xhtml#acb9b1075f4db76fa7e0521c9aff9c3df" target="_top" xlink:title=" ">
<polygon fill="white" stroke="#666666" points="392,-56 270,-56 270,-37 392,-37 392,-56"/>
<text text-anchor="middle" x="331" y="-44" font-family="Helvetica,sans-Serif" font-size="10.00">FsBaseFile::openNext</text>
</a>
</g>
</g>
<!-- Node6&#45;&gt;Node12 -->
<g id="edge12_Node000006_Node000012" class="edge">
<title>Node6&#45;&gt;Node12</title>
<g id="a_edge12_Node000006_Node000012"><a xlink:title=" ">
<path fill="none" stroke="#63b8ff" d="M435.49,-57.89C421.4,-56.34 406.39,-54.69 392.29,-53.14"/>
<polygon fill="#63b8ff" stroke="#63b8ff" points="435.23,-61.39 445.56,-59 436,-54.43 435.23,-61.39"/>
</a>
</g>
</g>
<!-- Node14 -->
<g id="Node000014" class="node">
<title>Node14</title>
<g id="a_Node000014"><a xlink:href="../../d6/d53/classFile32.xhtml#adc01f4a1ebc44ef36f3ffb8295c8d779" target="_top" xlink:title=" ">
<polygon fill="white" stroke="#666666" points="389,-19 273,-19 273,0 389,0 389,-19"/>
<text text-anchor="middle" x="331" y="-7" font-family="Helvetica,sans-Serif" font-size="10.00">File32::openNextFile</text>
</a>
</g>
</g>
<!-- Node6&#45;&gt;Node14 -->
<g id="edge14_Node000006_Node000014" class="edge">
<title>Node6&#45;&gt;Node14</title>
<g id="a_edge14_Node000006_Node000014"><a xlink:title=" ">
<path fill="none" stroke="#63b8ff" d="M446.89,-52.01C440.48,-50.02 434.04,-47.83 428,-45.5 411.32,-39.05 408.63,-34.09 392,-27.5 384.22,-24.41 375.69,-21.55 367.56,-19.07"/>
<polygon fill="#63b8ff" stroke="#63b8ff" points="446.31,-55.49 456.89,-54.99 448.3,-48.78 446.31,-55.49"/>
</a>
</g>
</g>
<!-- Node7&#45;&gt;Node7 -->
<g id="edge10_Node000007_Node000007" class="edge">
<title>Node7&#45;&gt;Node7</title>
<g id="a_edge10_Node000007_Node000007"><a xlink:title=" ">
<path fill="none" stroke="#63b8ff" d="M359.75,-138.82C358.54,-144.01 348.96,-148 331,-148 303.63,-148 295.72,-138.73 307.26,-130.08"/>
<polygon fill="#63b8ff" stroke="#63b8ff" points="362.75,-137.02 354.74,-130.08 356.67,-140.5 362.75,-137.02"/>
</a>
</g>
</g>
<!-- Node8 -->
<g id="Node000008" class="node">
<title>Node8</title>
<g id="a_Node000008"><a xlink:href="../../d3/dd5/classFatVolume.xhtml#ac5fc83cac7fd3af0b140a7986b9472f8" target="_top" xlink:title=" ">
<polygon fill="white" stroke="#666666" points="217,-148 135,-148 135,-129 217,-129 217,-148"/>
<text text-anchor="middle" x="176" y="-136" font-family="Helvetica,sans-Serif" font-size="10.00">FatVolume::ls</text>
</a>
</g>
</g>
<!-- Node7&#45;&gt;Node8 -->
<g id="edge7_Node000007_Node000008" class="edge">
<title>Node7&#45;&gt;Node8</title>
<g id="a_edge7_Node000007_Node000008"><a xlink:title=" ">
<path fill="none" stroke="#63b8ff" d="M289.57,-125.26C267.15,-127.89 239.38,-131.16 217.02,-133.79"/>
<polygon fill="#63b8ff" stroke="#63b8ff" points="290.25,-128.7 299.77,-124.06 289.43,-121.75 290.25,-128.7"/>
</a>
</g>
</g>
<!-- Node9 -->
<g id="Node000009" class="node">
<title>Node9</title>
<g id="a_Node000009"><a xlink:href="../../d3/dd5/classFatVolume.xhtml#ae40964f357cfff4208812344a0e6f26f" target="_top" xlink:title=" ">
<polygon fill="white" stroke="#666666" points="217,-111 135,-111 135,-92 217,-92 217,-111"/>
<text text-anchor="middle" x="176" y="-99" font-family="Helvetica,sans-Serif" font-size="10.00">FatVolume::ls</text>
</a>
</g>
</g>
<!-- Node7&#45;&gt;Node9 -->
<g id="edge8_Node000007_Node000009" class="edge">
<title>Node7&#45;&gt;Node9</title>
<g id="a_edge8_Node000007_Node000009"><a xlink:title=" ">
<path fill="none" stroke="#63b8ff" d="M289.57,-115.48C267.15,-112.7 239.38,-109.25 217.02,-106.47"/>
<polygon fill="#63b8ff" stroke="#63b8ff" points="289.42,-118.99 299.77,-116.75 290.28,-112.04 289.42,-118.99"/>
</a>
</g>
</g>
<!-- Node10 -->
<g id="Node000010" class="node">
<title>Node10</title>
<g id="a_Node000010"><a xlink:href="../../d3/dd5/classFatVolume.xhtml#a455ad7b2a5b6b31551dca08087a3c404" target="_top" xlink:title=" ">
<polygon fill="white" stroke="#666666" points="82,-111 0,-111 0,-92 82,-92 82,-111"/>
<text text-anchor="middle" x="41" y="-99" font-family="Helvetica,sans-Serif" font-size="10.00">FatVolume::ls</text>
</a>
</g>
</g>
<!-- Node9&#45;&gt;Node10 -->
<g id="edge9_Node000009_Node000010" class="edge">
<title>Node9&#45;&gt;Node10</title>
<g id="a_edge9_Node000009_Node000010"><a xlink:title=" ">
<path fill="none" stroke="#63b8ff" d="M124.71,-101.5C110.63,-101.5 95.53,-101.5 82.13,-101.5"/>
<polygon fill="#63b8ff" stroke="#63b8ff" points="124.73,-105 134.73,-101.5 124.73,-98 124.73,-105"/>
</a>
</g>
</g>
<!-- Node13 -->
<g id="Node000013" class="node">
<title>Node13</title>
<g id="a_Node000013"><a xlink:href="../../d5/d4f/classFsFile.xhtml#ab2f85961e3831d0d654da862becb7433" target="_top" xlink:title=" ">
<polygon fill="white" stroke="#666666" points="234,-56 118,-56 118,-37 234,-37 234,-56"/>
<text text-anchor="middle" x="176" y="-44" font-family="Helvetica,sans-Serif" font-size="10.00">FsFile::openNextFile</text>
</a>
</g>
</g>
<!-- Node12&#45;&gt;Node13 -->
<g id="edge13_Node000012_Node000013" class="edge">
<title>Node12&#45;&gt;Node13</title>
<g id="a_edge13_Node000012_Node000013"><a xlink:title=" ">
<path fill="none" stroke="#63b8ff" d="M259.7,-46.5C251.21,-46.5 242.62,-46.5 234.36,-46.5"/>
<polygon fill="#63b8ff" stroke="#63b8ff" points="259.97,-50 269.97,-46.5 259.97,-43 259.97,-50"/>
</a>
</g>
</g>
<!-- Node16 -->
<g id="Node000016" class="node">
<title>Node16</title>
<g id="a_Node000016"><a xlink:href="../../d3/db4/classFatFile.xhtml#a4ca76086a89af45d2cae451b55e6f20f" target="_top" xlink:title=" ">
<polygon fill="white" stroke="#666666" points="565,-37 428,-37 428,-18 565,-18 565,-37"/>
<text text-anchor="middle" x="496.5" y="-25" font-family="Helvetica,sans-Serif" font-size="10.00">FatFile::openExistingSFN</text>
</a>
</g>
</g>
<!-- Node15&#45;&gt;Node16 -->
<g id="edge16_Node000015_Node000016" class="edge">
<title>Node15&#45;&gt;Node16</title>
<g id="a_edge16_Node000015_Node000016"><a xlink:title=" ">
<path fill="none" stroke="#63b8ff" d="M611.83,-39.43C596.88,-37.87 580.66,-36.18 565.27,-34.57"/>
<polygon fill="#63b8ff" stroke="#63b8ff" points="611.64,-42.93 621.95,-40.49 612.37,-35.97 611.64,-42.93"/>
</a>
</g>
</g>
</g>
</svg>

<g id="navigator" transform="translate(0 0)" fill="#404254">
  <rect fill="#f2f5e9" fill-opacity="0.5" stroke="#606060" stroke-width=".5" x="0" y="0" width="60" height="60"/>
  <use id="zoomplus" xlink:href="#zoomPlus" x="17" y="9" onmousedown="handleZoom(evt,'in')"/>
  <use id="zoomminus" xlink:href="#zoomMin" x="42" y="9" onmousedown="handleZoom(evt,'out')"/>
  <use id="reset" xlink:href="#resetDef" x="30" y="36" onmousedown="handleReset()"/>
   <use id="arrowup" xlink:href="#arrowUp" x="0" y="0" onmousedown="handlePan(0,-1)"/>
  <use id="arrowright" xlink:href="#arrowRight" x="0" y="0" onmousedown="handlePan(1,0)"/>
  <use id="arrowdown" xlink:href="#arrowDown" x="0" y="0" onmousedown="handlePan(0,1)"/>
  <use id="arrowleft" xlink:href="#arrowLeft" x="0" y="0" onmousedown="handlePan(-1,0)"/>
</g>
<svg viewBox="0 0 15 15" width="100%" height="30px" preserveAspectRatio="xMaxYMin meet">
 <g id="arrow_out" transform="scale(0.3 0.3)">
  <a xlink:href="classFatFile_abaf639ec8f86f34aeb7e6b3615526f0b_icgraph_org.svg" target="_base">
   <rect id="button" ry="5" rx="5" y="6" x="6" height="38" width="38"
        fill="#f2f5e9" fill-opacity="0.5" stroke="#606060" stroke-width="1.0"/>
   <path id="arrow"
     d="M 11.500037,31.436501 C 11.940474,20.09759 22.043105,11.32322 32.158766,21.979434 L 37.068811,17.246167 C 37.068811,17.246167 37.088388,32 37.088388,32 L 22.160133,31.978069 C 22.160133,31.978069 26.997745,27.140456 26.997745,27.140456 C 18.528582,18.264221 13.291696,25.230495 11.500037,31.436501 z"
     style="fill:#404040;"/>
  </a>
 </g>
</svg>

<style type='text/css'>
<![CDATA[
[data-mouse-over-selected='false'] { opacity: 0.7; }
[data-mouse-over-selected='true']  { opacity: 1.0; }
]]>
</style>
<script type="application/ecmascript"><![CDATA[
document.addEventListener('DOMContentLoaded', (event) => {
  highlightEdges();
  highlightAdjacentNodes();
});
]]></script>
</svg>
