<?xml version="1.0" encoding="UTF-8" standalone="no"?>
<!DOCTYPE svg PUBLIC "-//W3C//DTD SVG 1.1//EN"
 "http://www.w3.org/Graphics/SVG/1.1/DTD/svg11.dtd">
<!-- Generated by graphviz version 2.43.0 (0)
 -->
<!-- Title: FatFile::isSubDir Pages: 1 -->
<!--zoomable 373 -->

<svg id="main" version="1.1" xmlns="http://www.w3.org/2000/svg" xmlns:xlink="http://www.w3.org/1999/xlink" xml:space="preserve" onload="init(evt)">
<style type="text/css"><![CDATA[
.node, .edge {opacity: 0.7;}
.node.selected, .edge.selected {opacity: 1;}
.edge:hover path { stroke: red; }
.edge:hover polygon { stroke: red; fill: red; }
]]></style>

<defs>
  <circle id="rim" cx="0" cy="0" r="7"/>
  <circle id="rim2" cx="0" cy="0" r="3.5"/>
  <g id="zoomPlus">
    <use xlink:href="#rim" fill="#404040"><set attributeName="fill" to="#808080" begin="zoomplus.mouseover" end="zoomplus.mouseout"/></use>
    <path d="M-4,0h8M0,-4v8" fill="none" stroke="white" stroke-width="1.5" pointer-events="none"/>
  </g>
  <g id="zoomMin">
    <use xlink:href="#rim" fill="#404040"><set attributeName="fill" to="#808080" begin="zoomminus.mouseover" end="zoomminus.mouseout"/></use>
    <path d="M-4,0h8" fill="none" stroke="white" stroke-width="1.5" pointer-events="none"/>
  </g>
  <g id="arrowUp" transform="translate(30 24)">
    <use xlink:href="#rim"/>
    <path pointer-events="none" fill="none" stroke="white" stroke-width="1.5" d="M0,-3.0v7 M-2.5,-0.5L0,-3.0L2.5,-0.5"/>
  </g>
  <g id="arrowRight" transform="rotate(90) translate(36 -43)">
    <use xlink:href="#rim"/>
    <path pointer-events="none" fill="none" stroke="white" stroke-width="1.5" d="M0,-3.0v7 M-2.5,-0.5L0,-3.0L2.5,-0.5"/>
  </g>
  <g id="arrowDown" transform="rotate(180) translate(-30 -48)">
    <use xlink:href="#rim"/>
    <path pointer-events="none" fill="none" stroke="white" stroke-width="1.5" d="M0,-3.0v7 M-2.5,-0.5L0,-3.0L2.5,-0.5"/>
  </g>
  <g id="arrowLeft" transform="rotate(270) translate(-36 17)">
    <use xlink:href="#rim"/>
    <path pointer-events="none" fill="none" stroke="white" stroke-width="1.5" d="M0,-3.0v7 M-2.5,-0.5L0,-3.0L2.5,-0.5"/>
  </g>
  <g id="resetDef">
    <use xlink:href="#rim2" fill="#404040"><set attributeName="fill" to="#808080" begin="reset.mouseover" end="reset.mouseout"/></use>
  </g>
</defs>
<script type="application/ecmascript">
var viewWidth = 887;
var viewHeight = 373;
var sectionId = 'dynsection-82';
</script>
<script type="application/ecmascript" xlink:href="../../svg.min.js"/>
<svg id="graph" class="graph">
<g id="viewport">
<title>FatFile::isSubDir</title>
<!-- Node1 -->
<g id="Node000001" class="node">
<title>Node1</title>
<g id="a_Node000001"><a xlink:title=" ">
<polygon fill="#999999" stroke="#666666" points="879,-167 784,-167 784,-148 879,-148 879,-167"/>
<text text-anchor="middle" x="831.5" y="-155" font-family="Helvetica,sans-Serif" font-size="10.00">FatFile::isSubDir</text>
</a>
</g>
</g>
<!-- Node2 -->
<g id="Node000002" class="node">
<title>Node2</title>
<g id="a_Node000002"><a xlink:href="../../d3/db4/classFatFile.xhtml#ae6917ba9b62b4de6fc77d356d1f077a9" target="_top" xlink:title=" ">
<polygon fill="white" stroke="#666666" points="739.5,-259 616.5,-259 616.5,-240 739.5,-240 739.5,-259"/>
<text text-anchor="middle" x="678" y="-247" font-family="Helvetica,sans-Serif" font-size="10.00">FatFile::isFileOrSubDir</text>
</a>
</g>
</g>
<!-- Node1&#45;&gt;Node2 -->
<g id="edge1_Node000001_Node000002" class="edge">
<title>Node1&#45;&gt;Node2</title>
<g id="a_edge1_Node000001_Node000002"><a xlink:title=" ">
<path fill="none" stroke="#63b8ff" d="M809.04,-173.07C792.64,-184.72 769.31,-200.76 748,-213.5 731.88,-223.13 712.92,-232.92 698.96,-239.85"/>
<polygon fill="#63b8ff" stroke="#63b8ff" points="811.28,-175.77 817.38,-167.1 807.21,-170.08 811.28,-175.77"/>
</a>
</g>
</g>
<!-- Node12 -->
<g id="Node000012" class="node">
<title>Node12</title>
<g id="a_Node000012"><a xlink:href="../../d0/db5/classFsBaseFile.xhtml#a1e35dd84dc4b802acac1eef87ab69224" target="_top" xlink:title=" ">
<polygon fill="white" stroke="#666666" points="736,-204 620,-204 620,-185 736,-185 736,-204"/>
<text text-anchor="middle" x="678" y="-192" font-family="Helvetica,sans-Serif" font-size="10.00">FsBaseFile::isSubDir</text>
</a>
</g>
</g>
<!-- Node1&#45;&gt;Node12 -->
<g id="edge11_Node000001_Node000012" class="edge">
<title>Node1&#45;&gt;Node12</title>
<g id="a_edge11_Node000001_Node000012"><a xlink:title=" ">
<path fill="none" stroke="#63b8ff" d="M781.67,-169.43C761.12,-174.44 737.53,-180.21 718.15,-184.94"/>
<polygon fill="#63b8ff" stroke="#63b8ff" points="782.6,-172.8 791.48,-167.03 780.94,-166 782.6,-172.8"/>
</a>
</g>
</g>
<!-- Node13 -->
<g id="Node000013" class="node">
<title>Node13</title>
<g id="a_Node000013"><a xlink:href="../../d3/db4/classFatFile.xhtml#ad39f3c4d83135ad181c58306b23df0aa" target="_top" xlink:title=" ">
<polygon fill="white" stroke="#666666" points="748,-167 608,-167 608,-148 748,-148 748,-167"/>
<text text-anchor="middle" x="678" y="-155" font-family="Helvetica,sans-Serif" font-size="10.00">FatFile::openCachedEntry</text>
</a>
</g>
</g>
<!-- Node1&#45;&gt;Node13 -->
<g id="edge12_Node000001_Node000013" class="edge">
<title>Node1&#45;&gt;Node13</title>
<g id="a_edge12_Node000001_Node000013"><a xlink:title=" ">
<path fill="none" stroke="#63b8ff" d="M773.78,-157.5C765.4,-157.5 756.69,-157.5 748.09,-157.5"/>
<polygon fill="#63b8ff" stroke="#63b8ff" points="773.81,-161 783.81,-157.5 773.81,-154 773.81,-161"/>
</a>
</g>
</g>
<!-- Node25 -->
<g id="Node000025" class="node">
<title>Node25</title>
<g id="a_Node000025"><a xlink:href="../../d3/db4/classFatFile.xhtml#a4b42f2454ff462555c07ea094a92a1e0" target="_top" xlink:title=" ">
<polygon fill="white" stroke="#666666" points="724,-130 632,-130 632,-111 724,-111 724,-130"/>
<text text-anchor="middle" x="678" y="-118" font-family="Helvetica,sans-Serif" font-size="10.00">FatFile::rename</text>
</a>
</g>
</g>
<!-- Node1&#45;&gt;Node25 -->
<g id="edge25_Node000001_Node000025" class="edge">
<title>Node1&#45;&gt;Node25</title>
<g id="a_edge25_Node000001_Node000025"><a xlink:title=" ">
<path fill="none" stroke="#63b8ff" d="M781.67,-145.57C761.12,-140.56 737.53,-134.79 718.15,-130.06"/>
<polygon fill="#63b8ff" stroke="#63b8ff" points="780.94,-149 791.48,-147.97 782.6,-142.2 780.94,-149"/>
</a>
</g>
</g>
<!-- Node26 -->
<g id="Node000026" class="node">
<title>Node26</title>
<g id="a_Node000026"><a xlink:href="../../d3/db4/classFatFile.xhtml#a9515bac181d33e7f0125e88fa2ccd283" target="_top" xlink:title=" ">
<polygon fill="white" stroke="#666666" points="718,-75 638,-75 638,-56 718,-56 718,-75"/>
<text text-anchor="middle" x="678" y="-63" font-family="Helvetica,sans-Serif" font-size="10.00">FatFile::rmdir</text>
</a>
</g>
</g>
<!-- Node1&#45;&gt;Node26 -->
<g id="edge26_Node000001_Node000026" class="edge">
<title>Node1&#45;&gt;Node26</title>
<g id="a_edge26_Node000001_Node000026"><a xlink:title=" ">
<path fill="none" stroke="#63b8ff" d="M808.67,-142.11C792.25,-130.75 769.05,-115.12 748,-102.5 731.45,-92.57 712.03,-82.28 698.01,-75.07"/>
<polygon fill="#63b8ff" stroke="#63b8ff" points="806.83,-145.1 817.04,-147.94 810.83,-139.36 806.83,-145.1"/>
</a>
</g>
</g>
<!-- Node3 -->
<g id="Node000003" class="node">
<title>Node3</title>
<g id="a_Node000003"><a xlink:href="../../d3/db4/classFatFile.xhtml#a2f40718e0e4923659a1b38e3cd24d0dd" target="_top" xlink:title=" ">
<polygon fill="white" stroke="#666666" points="540,-315 460,-315 460,-296 540,-296 540,-315"/>
<text text-anchor="middle" x="500" y="-303" font-family="Helvetica,sans-Serif" font-size="10.00">FatFile::attrib</text>
</a>
</g>
</g>
<!-- Node2&#45;&gt;Node3 -->
<g id="edge2_Node000002_Node000003" class="edge">
<title>Node2&#45;&gt;Node3</title>
<g id="a_edge2_Node000002_Node000003"><a xlink:title=" ">
<path fill="none" stroke="#63b8ff" d="M643.13,-262.72C622.7,-270.46 596.05,-280.12 572,-287.5 561.79,-290.63 550.63,-293.65 540.25,-296.29"/>
<polygon fill="#63b8ff" stroke="#63b8ff" points="644.53,-265.94 652.62,-259.1 642.03,-259.4 644.53,-265.94"/>
</a>
</g>
</g>
<!-- Node10 -->
<g id="Node000010" class="node">
<title>Node10</title>
<g id="a_Node000010"><a xlink:href="../../d3/db4/classFatFile.xhtml#a6470379dc6d57c62a8cc650635049da9" target="_top" xlink:title=" ">
<polygon fill="white" stroke="#666666" points="540,-278 460,-278 460,-259 540,-259 540,-278"/>
<text text-anchor="middle" x="500" y="-266" font-family="Helvetica,sans-Serif" font-size="10.00">FatFile::attrib</text>
</a>
</g>
</g>
<!-- Node2&#45;&gt;Node10 -->
<g id="edge9_Node000002_Node000010" class="edge">
<title>Node2&#45;&gt;Node10</title>
<g id="a_edge9_Node000002_Node000010"><a xlink:title=" ">
<path fill="none" stroke="#63b8ff" d="M606.21,-257.14C583.69,-259.57 559.59,-262.17 540.15,-264.27"/>
<polygon fill="#63b8ff" stroke="#63b8ff" points="606.86,-260.59 616.43,-256.04 606.11,-253.63 606.86,-260.59"/>
</a>
</g>
</g>
<!-- Node11 -->
<g id="Node000011" class="node">
<title>Node11</title>
<g id="a_Node000011"><a xlink:href="../../d0/db5/classFsBaseFile.xhtml#a1ba381b5b72e8531583b1620ca4b0b54" target="_top" xlink:title=" ">
<polygon fill="white" stroke="#666666" points="572,-241 428,-241 428,-222 572,-222 572,-241"/>
<text text-anchor="middle" x="500" y="-229" font-family="Helvetica,sans-Serif" font-size="10.00">FsBaseFile::isFileOrSubDir</text>
</a>
</g>
</g>
<!-- Node2&#45;&gt;Node11 -->
<g id="edge10_Node000002_Node000011" class="edge">
<title>Node2&#45;&gt;Node11</title>
<g id="a_edge10_Node000002_Node000011"><a xlink:title=" ">
<path fill="none" stroke="#63b8ff" d="M606.28,-242.27C595.08,-241.12 583.5,-239.94 572.29,-238.79"/>
<polygon fill="#63b8ff" stroke="#63b8ff" points="606.13,-245.77 616.43,-243.31 606.84,-238.81 606.13,-245.77"/>
</a>
</g>
</g>
<!-- Node4 -->
<g id="Node000004" class="node">
<title>Node4</title>
<g id="a_Node000004"><a xlink:href="../../d0/db5/classFsBaseFile.xhtml#a97de3349d1d3439ce3f09fdd47e6f397" target="_top" xlink:title=" ">
<polygon fill="white" stroke="#666666" points="381.5,-365 280.5,-365 280.5,-346 381.5,-346 381.5,-365"/>
<text text-anchor="middle" x="331" y="-353" font-family="Helvetica,sans-Serif" font-size="10.00">FsBaseFile::attrib</text>
</a>
</g>
</g>
<!-- Node3&#45;&gt;Node4 -->
<g id="edge3_Node000003_Node000004" class="edge">
<title>Node3&#45;&gt;Node4</title>
<g id="a_edge3_Node000003_Node000004"><a xlink:title=" ">
<path fill="none" stroke="#63b8ff" d="M457.38,-317.96C428.47,-326.62 390.51,-337.98 363.97,-345.93"/>
<polygon fill="#63b8ff" stroke="#63b8ff" points="458.62,-321.24 467.2,-315.02 456.61,-314.54 458.62,-321.24"/>
</a>
</g>
</g>
<!-- Node5 -->
<g id="Node000005" class="node">
<title>Node5</title>
<g id="a_Node000005"><a xlink:href="../../d3/dd5/classFatVolume.xhtml#a8d4aff8746c44b1c7a14d38f4e3851ba" target="_top" xlink:title=" ">
<polygon fill="white" stroke="#666666" points="381,-328 281,-328 281,-309 381,-309 381,-328"/>
<text text-anchor="middle" x="331" y="-316" font-family="Helvetica,sans-Serif" font-size="10.00">FatVolume::attrib</text>
</a>
</g>
</g>
<!-- Node3&#45;&gt;Node5 -->
<g id="edge4_Node000003_Node000005" class="edge">
<title>Node3&#45;&gt;Node5</title>
<g id="a_edge4_Node000003_Node000005"><a xlink:title=" ">
<path fill="none" stroke="#63b8ff" d="M449.86,-309.33C428.18,-311.01 402.75,-312.99 381.08,-314.68"/>
<polygon fill="#63b8ff" stroke="#63b8ff" points="450.15,-312.81 459.85,-308.55 449.6,-305.83 450.15,-312.81"/>
</a>
</g>
</g>
<!-- Node8 -->
<g id="Node000008" class="node">
<title>Node8</title>
<g id="a_Node000008"><a xlink:href="../../d3/dd5/classFatVolume.xhtml#a4c2f4b84089d6c03ef82f886f9fcd936" target="_top" xlink:title=" ">
<polygon fill="white" stroke="#666666" points="381,-291 281,-291 281,-272 381,-272 381,-291"/>
<text text-anchor="middle" x="331" y="-279" font-family="Helvetica,sans-Serif" font-size="10.00">FatVolume::attrib</text>
</a>
</g>
</g>
<!-- Node3&#45;&gt;Node8 -->
<g id="edge7_Node000003_Node000008" class="edge">
<title>Node3&#45;&gt;Node8</title>
<g id="a_edge7_Node000003_Node000008"><a xlink:title=" ">
<path fill="none" stroke="#63b8ff" d="M449.86,-298.44C428.18,-295.32 402.75,-291.67 381.08,-288.55"/>
<polygon fill="#63b8ff" stroke="#63b8ff" points="449.45,-301.91 459.85,-299.87 450.45,-294.99 449.45,-301.91"/>
</a>
</g>
</g>
<!-- Node9 -->
<g id="Node000009" class="node">
<title>Node9</title>
<g id="a_Node000009"><a xlink:href="../../d0/db5/classFsBaseFile.xhtml#a9aa5c87929919bd35862e0942587969d" target="_top" xlink:title=" ">
<polygon fill="white" stroke="#666666" points="381.5,-254 280.5,-254 280.5,-235 381.5,-235 381.5,-254"/>
<text text-anchor="middle" x="331" y="-242" font-family="Helvetica,sans-Serif" font-size="10.00">FsBaseFile::attrib</text>
</a>
</g>
</g>
<!-- Node3&#45;&gt;Node9 -->
<g id="edge8_Node000003_Node000009" class="edge">
<title>Node3&#45;&gt;Node9</title>
<g id="a_edge8_Node000003_Node000009"><a xlink:title=" ">
<path fill="none" stroke="#63b8ff" d="M450.06,-295.43C442.53,-293.22 434.95,-290.59 428,-287.5 410.43,-279.69 409.34,-271.82 392,-263.5 384.41,-259.86 375.96,-256.69 367.86,-254.04"/>
<polygon fill="#63b8ff" stroke="#63b8ff" points="449.31,-298.85 459.88,-298.1 451.15,-292.1 449.31,-298.85"/>
</a>
</g>
</g>
<!-- Node6 -->
<g id="Node000006" class="node">
<title>Node6</title>
<g id="a_Node000006"><a xlink:href="../../d4/d27/classFsVolume.xhtml#a10bf5efca24ce1412e03b3e15837b2fd" target="_top" xlink:title=" ">
<polygon fill="white" stroke="#666666" points="224.5,-346 127.5,-346 127.5,-327 224.5,-327 224.5,-346"/>
<text text-anchor="middle" x="176" y="-334" font-family="Helvetica,sans-Serif" font-size="10.00">FsVolume::attrib</text>
</a>
</g>
</g>
<!-- Node5&#45;&gt;Node6 -->
<g id="edge5_Node000005_Node000006" class="edge">
<title>Node5&#45;&gt;Node6</title>
<g id="a_edge5_Node000005_Node000006"><a xlink:title=" ">
<path fill="none" stroke="#63b8ff" d="M270.41,-325.51C255.22,-327.3 239.1,-329.19 224.59,-330.9"/>
<polygon fill="#63b8ff" stroke="#63b8ff" points="271.23,-328.94 280.75,-324.29 270.41,-321.99 271.23,-328.94"/>
</a>
</g>
</g>
<!-- Node7 -->
<g id="Node000007" class="node">
<title>Node7</title>
<g id="a_Node000007"><a xlink:href="../../d4/d27/classFsVolume.xhtml#a76ac996fb61db9665fb5d5b4916ca16f" target="_top" xlink:title=" ">
<polygon fill="white" stroke="#666666" points="224.5,-309 127.5,-309 127.5,-290 224.5,-290 224.5,-309"/>
<text text-anchor="middle" x="176" y="-297" font-family="Helvetica,sans-Serif" font-size="10.00">FsVolume::attrib</text>
</a>
</g>
</g>
<!-- Node5&#45;&gt;Node7 -->
<g id="edge6_Node000005_Node000007" class="edge">
<title>Node5&#45;&gt;Node7</title>
<g id="a_edge6_Node000005_Node000007"><a xlink:title=" ">
<path fill="none" stroke="#63b8ff" d="M270.41,-311.1C255.22,-309.21 239.1,-307.21 224.59,-305.41"/>
<polygon fill="#63b8ff" stroke="#63b8ff" points="270.39,-314.62 280.75,-312.38 271.26,-307.68 270.39,-314.62"/>
</a>
</g>
</g>
<!-- Node14 -->
<g id="Node000014" class="node">
<title>Node14</title>
<g id="a_Node000014"><a xlink:href="../../d3/db4/classFatFile.xhtml#aa729447d16ce34a9a575c27ac58dbb12" target="_top" xlink:title=" ">
<polygon fill="white" stroke="#666666" points="539,-204 461,-204 461,-185 539,-185 539,-204"/>
<text text-anchor="middle" x="500" y="-192" font-family="Helvetica,sans-Serif" font-size="10.00">FatFile::open</text>
</a>
</g>
</g>
<!-- Node13&#45;&gt;Node14 -->
<g id="edge13_Node000013_Node000014" class="edge">
<title>Node13&#45;&gt;Node14</title>
<g id="a_edge13_Node000013_Node000014"><a xlink:title=" ">
<path fill="none" stroke="#63b8ff" d="M621.63,-169.14C594.76,-174.79 563.15,-181.43 539.03,-186.51"/>
<polygon fill="#63b8ff" stroke="#63b8ff" points="622.61,-172.51 631.68,-167.03 621.17,-165.66 622.61,-172.51"/>
</a>
</g>
</g>
<!-- Node15 -->
<g id="Node000015" class="node">
<title>Node15</title>
<g id="a_Node000015"><a xlink:href="../../d3/db4/classFatFile.xhtml#aefd095e898758e6008f33cca17e92b72" target="_top" xlink:title=" ">
<polygon fill="white" stroke="#666666" points="539,-167 461,-167 461,-148 539,-148 539,-167"/>
<text text-anchor="middle" x="500" y="-155" font-family="Helvetica,sans-Serif" font-size="10.00">FatFile::open</text>
</a>
</g>
</g>
<!-- Node13&#45;&gt;Node15 -->
<g id="edge14_Node000013_Node000015" class="edge">
<title>Node13&#45;&gt;Node15</title>
<g id="a_edge14_Node000013_Node000015"><a xlink:title=" ">
<path fill="none" stroke="#63b8ff" d="M597.74,-157.5C577.47,-157.5 556.57,-157.5 539.41,-157.5"/>
<polygon fill="#63b8ff" stroke="#63b8ff" points="597.95,-161 607.95,-157.5 597.95,-154 597.95,-161"/>
</a>
</g>
</g>
<!-- Node16 -->
<g id="Node000016" class="node">
<title>Node16</title>
<g id="a_Node000016"><a xlink:href="../../d3/db4/classFatFile.xhtml#acda9b1bf547d43e183e657bee053a48d" target="_top" xlink:title=" ">
<polygon fill="white" stroke="#666666" points="550.5,-130 449.5,-130 449.5,-111 550.5,-111 550.5,-130"/>
<text text-anchor="middle" x="500" y="-118" font-family="Helvetica,sans-Serif" font-size="10.00">FatFile::openNext</text>
</a>
</g>
</g>
<!-- Node13&#45;&gt;Node16 -->
<g id="edge15_Node000013_Node000016" class="edge">
<title>Node13&#45;&gt;Node16</title>
<g id="a_edge15_Node000013_Node000016"><a xlink:title=" ">
<path fill="none" stroke="#63b8ff" d="M621.57,-145.85C597.4,-140.77 569.4,-134.88 546.48,-130.06"/>
<polygon fill="#63b8ff" stroke="#63b8ff" points="621.17,-149.34 631.68,-147.97 622.61,-142.49 621.17,-149.34"/>
</a>
</g>
</g>
<!-- Node17 -->
<g id="Node000017" class="node">
<title>Node17</title>
<g id="a_Node000017"><a xlink:href="../../d3/db4/classFatFile.xhtml#a60ab9d16bcc778150a364c26de467de1" target="_top" xlink:title=" ">
<polygon fill="white" stroke="#666666" points="362,-190 300,-190 300,-171 362,-171 362,-190"/>
<text text-anchor="middle" x="331" y="-178" font-family="Helvetica,sans-Serif" font-size="10.00">FatFile::ls</text>
</a>
</g>
</g>
<!-- Node16&#45;&gt;Node17 -->
<g id="edge16_Node000016_Node000017" class="edge">
<title>Node16&#45;&gt;Node17</title>
<g id="a_edge16_Node000016_Node000017"><a xlink:title=" ">
<path fill="none" stroke="#63b8ff" d="M444.94,-133.09C439.14,-134.99 433.39,-137.13 428,-139.5 410.62,-147.16 409.26,-154.59 392,-162.5 382.61,-166.81 371.93,-170.4 362.2,-173.21"/>
<polygon fill="#63b8ff" stroke="#63b8ff" points="446.18,-136.37 454.72,-130.1 444.13,-129.68 446.18,-136.37"/>
</a>
</g>
</g>
<!-- Node21 -->
<g id="Node000021" class="node">
<title>Node21</title>
<g id="a_Node000021"><a xlink:href="../../d3/db4/classFatFile.xhtml#a5318ee7a7700ff23721497945fba363d" target="_top" xlink:title=" ">
<polygon fill="white" stroke="#666666" points="370,-153 292,-153 292,-134 370,-134 370,-153"/>
<text text-anchor="middle" x="331" y="-141" font-family="Helvetica,sans-Serif" font-size="10.00">FatFile::open</text>
</a>
</g>
</g>
<!-- Node16&#45;&gt;Node21 -->
<g id="edge21_Node000016_Node000021" class="edge">
<title>Node16&#45;&gt;Node21</title>
<g id="a_edge21_Node000016_Node000021"><a xlink:title=" ">
<path fill="none" stroke="#63b8ff" d="M439.31,-128.72C416.24,-131.9 390.53,-135.44 370.06,-138.26"/>
<polygon fill="#63b8ff" stroke="#63b8ff" points="439.92,-132.17 449.35,-127.34 438.96,-125.24 439.92,-132.17"/>
</a>
</g>
</g>
<!-- Node22 -->
<g id="Node000022" class="node">
<title>Node22</title>
<g id="a_Node000022"><a xlink:href="../../d0/db5/classFsBaseFile.xhtml#acb9b1075f4db76fa7e0521c9aff9c3df" target="_top" xlink:title=" ">
<polygon fill="white" stroke="#666666" points="392,-116 270,-116 270,-97 392,-97 392,-116"/>
<text text-anchor="middle" x="331" y="-104" font-family="Helvetica,sans-Serif" font-size="10.00">FsBaseFile::openNext</text>
</a>
</g>
</g>
<!-- Node16&#45;&gt;Node22 -->
<g id="edge22_Node000016_Node000022" class="edge">
<title>Node16&#45;&gt;Node22</title>
<g id="a_edge22_Node000016_Node000022"><a xlink:title=" ">
<path fill="none" stroke="#63b8ff" d="M439,-115.47C423.74,-114.19 407.35,-112.82 392.09,-111.54"/>
<polygon fill="#63b8ff" stroke="#63b8ff" points="439.09,-118.99 449.35,-116.34 439.67,-112.01 439.09,-118.99"/>
</a>
</g>
</g>
<!-- Node24 -->
<g id="Node000024" class="node">
<title>Node24</title>
<g id="a_Node000024"><a xlink:href="../../d6/d53/classFile32.xhtml#adc01f4a1ebc44ef36f3ffb8295c8d779" target="_top" xlink:title=" ">
<polygon fill="white" stroke="#666666" points="389,-79 273,-79 273,-60 389,-60 389,-79"/>
<text text-anchor="middle" x="331" y="-67" font-family="Helvetica,sans-Serif" font-size="10.00">File32::openNextFile</text>
</a>
</g>
</g>
<!-- Node16&#45;&gt;Node24 -->
<g id="edge24_Node000016_Node000024" class="edge">
<title>Node16&#45;&gt;Node24</title>
<g id="a_edge24_Node000016_Node000024"><a xlink:title=" ">
<path fill="none" stroke="#63b8ff" d="M448.01,-108.38C441.24,-106.53 434.43,-104.56 428,-102.5 411.65,-97.27 408.19,-94.21 392,-88.5 382.83,-85.27 372.78,-81.99 363.58,-79.08"/>
<polygon fill="#63b8ff" stroke="#63b8ff" points="447.27,-111.8 457.83,-110.97 449.06,-105.03 447.27,-111.8"/>
</a>
</g>
</g>
<!-- Node17&#45;&gt;Node17 -->
<g id="edge20_Node000017_Node000017" class="edge">
<title>Node17&#45;&gt;Node17</title>
<g id="a_edge20_Node000017_Node000017"><a xlink:title=" ">
<path fill="none" stroke="#63b8ff" d="M359.75,-198.82C358.54,-204.01 348.96,-208 331,-208 303.63,-208 295.72,-198.73 307.26,-190.08"/>
<polygon fill="#63b8ff" stroke="#63b8ff" points="362.75,-197.02 354.74,-190.08 356.67,-200.5 362.75,-197.02"/>
</a>
</g>
</g>
<!-- Node18 -->
<g id="Node000018" class="node">
<title>Node18</title>
<g id="a_Node000018"><a xlink:href="../../d3/dd5/classFatVolume.xhtml#ac5fc83cac7fd3af0b140a7986b9472f8" target="_top" xlink:title=" ">
<polygon fill="white" stroke="#666666" points="217,-209 135,-209 135,-190 217,-190 217,-209"/>
<text text-anchor="middle" x="176" y="-197" font-family="Helvetica,sans-Serif" font-size="10.00">FatVolume::ls</text>
</a>
</g>
</g>
<!-- Node17&#45;&gt;Node18 -->
<g id="edge17_Node000017_Node000018" class="edge">
<title>Node17&#45;&gt;Node18</title>
<g id="a_edge17_Node000017_Node000018"><a xlink:title=" ">
<path fill="none" stroke="#63b8ff" d="M289.57,-185.52C267.15,-188.3 239.38,-191.75 217.02,-194.53"/>
<polygon fill="#63b8ff" stroke="#63b8ff" points="290.28,-188.96 299.77,-184.25 289.42,-182.01 290.28,-188.96"/>
</a>
</g>
</g>
<!-- Node19 -->
<g id="Node000019" class="node">
<title>Node19</title>
<g id="a_Node000019"><a xlink:href="../../d3/dd5/classFatVolume.xhtml#ae40964f357cfff4208812344a0e6f26f" target="_top" xlink:title=" ">
<polygon fill="white" stroke="#666666" points="217,-172 135,-172 135,-153 217,-153 217,-172"/>
<text text-anchor="middle" x="176" y="-160" font-family="Helvetica,sans-Serif" font-size="10.00">FatVolume::ls</text>
</a>
</g>
</g>
<!-- Node17&#45;&gt;Node19 -->
<g id="edge18_Node000017_Node000019" class="edge">
<title>Node17&#45;&gt;Node19</title>
<g id="a_edge18_Node000017_Node000019"><a xlink:title=" ">
<path fill="none" stroke="#63b8ff" d="M289.57,-175.74C267.15,-173.11 239.38,-169.84 217.02,-167.21"/>
<polygon fill="#63b8ff" stroke="#63b8ff" points="289.43,-179.25 299.77,-176.94 290.25,-172.3 289.43,-179.25"/>
</a>
</g>
</g>
<!-- Node20 -->
<g id="Node000020" class="node">
<title>Node20</title>
<g id="a_Node000020"><a xlink:href="../../d3/dd5/classFatVolume.xhtml#a455ad7b2a5b6b31551dca08087a3c404" target="_top" xlink:title=" ">
<polygon fill="white" stroke="#666666" points="82,-172 0,-172 0,-153 82,-153 82,-172"/>
<text text-anchor="middle" x="41" y="-160" font-family="Helvetica,sans-Serif" font-size="10.00">FatVolume::ls</text>
</a>
</g>
</g>
<!-- Node19&#45;&gt;Node20 -->
<g id="edge19_Node000019_Node000020" class="edge">
<title>Node19&#45;&gt;Node20</title>
<g id="a_edge19_Node000019_Node000020"><a xlink:title=" ">
<path fill="none" stroke="#63b8ff" d="M124.71,-162.5C110.63,-162.5 95.53,-162.5 82.13,-162.5"/>
<polygon fill="#63b8ff" stroke="#63b8ff" points="124.73,-166 134.73,-162.5 124.73,-159 124.73,-166"/>
</a>
</g>
</g>
<!-- Node23 -->
<g id="Node000023" class="node">
<title>Node23</title>
<g id="a_Node000023"><a xlink:href="../../d5/d4f/classFsFile.xhtml#ab2f85961e3831d0d654da862becb7433" target="_top" xlink:title=" ">
<polygon fill="white" stroke="#666666" points="234,-116 118,-116 118,-97 234,-97 234,-116"/>
<text text-anchor="middle" x="176" y="-104" font-family="Helvetica,sans-Serif" font-size="10.00">FsFile::openNextFile</text>
</a>
</g>
</g>
<!-- Node22&#45;&gt;Node23 -->
<g id="edge23_Node000022_Node000023" class="edge">
<title>Node22&#45;&gt;Node23</title>
<g id="a_edge23_Node000022_Node000023"><a xlink:title=" ">
<path fill="none" stroke="#63b8ff" d="M259.7,-106.5C251.21,-106.5 242.62,-106.5 234.36,-106.5"/>
<polygon fill="#63b8ff" stroke="#63b8ff" points="259.97,-110 269.97,-106.5 259.97,-103 259.97,-110"/>
</a>
</g>
</g>
<!-- Node27 -->
<g id="Node000027" class="node">
<title>Node27</title>
<g id="a_Node000027"><a xlink:href="../../d0/db5/classFsBaseFile.xhtml#ac47870fd89b0849cda33f2780918a286" target="_top" xlink:title=" ">
<polygon fill="white" stroke="#666666" points="550.5,-93 449.5,-93 449.5,-74 550.5,-74 550.5,-93"/>
<text text-anchor="middle" x="500" y="-81" font-family="Helvetica,sans-Serif" font-size="10.00">FsBaseFile::rmdir</text>
</a>
</g>
</g>
<!-- Node26&#45;&gt;Node27 -->
<g id="edge27_Node000026_Node000027" class="edge">
<title>Node26&#45;&gt;Node27</title>
<g id="a_edge27_Node000026_Node000027"><a xlink:title=" ">
<path fill="none" stroke="#63b8ff" d="M627.94,-70.52C603.84,-72.98 574.86,-75.95 550.68,-78.42"/>
<polygon fill="#63b8ff" stroke="#63b8ff" points="628.35,-73.99 637.94,-69.49 627.64,-67.03 628.35,-73.99"/>
</a>
</g>
</g>
<!-- Node28 -->
<g id="Node000028" class="node">
<title>Node28</title>
<g id="a_Node000028"><a xlink:href="../../d3/dd5/classFatVolume.xhtml#af1181990bcece7dbb7d19293dd4fe11a" target="_top" xlink:title=" ">
<polygon fill="white" stroke="#666666" points="550,-56 450,-56 450,-37 550,-37 550,-56"/>
<text text-anchor="middle" x="500" y="-44" font-family="Helvetica,sans-Serif" font-size="10.00">FatVolume::rmdir</text>
</a>
</g>
</g>
<!-- Node26&#45;&gt;Node28 -->
<g id="edge28_Node000026_Node000028" class="edge">
<title>Node26&#45;&gt;Node28</title>
<g id="a_edge28_Node000026_Node000028"><a xlink:title=" ">
<path fill="none" stroke="#63b8ff" d="M627.86,-60.19C603.56,-57.57 574.31,-54.41 550.03,-51.79"/>
<polygon fill="#63b8ff" stroke="#63b8ff" points="627.62,-63.69 637.94,-61.28 628.37,-56.73 627.62,-63.69"/>
</a>
</g>
</g>
<!-- Node29 -->
<g id="Node000029" class="node">
<title>Node29</title>
<g id="a_Node000029"><a xlink:href="../../d3/db4/classFatFile.xhtml#ac780a80526f86d3def701ecdc99d8bfe" target="_top" xlink:title=" ">
<polygon fill="white" stroke="#666666" points="549,-19 451,-19 451,0 549,0 549,-19"/>
<text text-anchor="middle" x="500" y="-7" font-family="Helvetica,sans-Serif" font-size="10.00">FatFile::rmRfStar</text>
</a>
</g>
</g>
<!-- Node26&#45;&gt;Node29 -->
<g id="edge29_Node000026_Node000029" class="edge">
<title>Node26&#45;&gt;Node29</title>
<g id="a_edge29_Node000026_Node000029"><a xlink:title=" ">
<path fill="none" stroke="#63b8ff" d="M643.13,-52.28C622.7,-44.54 596.05,-34.88 572,-27.5 562.27,-24.52 551.69,-21.64 541.74,-19.09"/>
<polygon fill="#63b8ff" stroke="#63b8ff" points="642.03,-55.6 652.62,-55.9 644.53,-49.06 642.03,-55.6"/>
</a>
</g>
</g>
</g>
</svg>

<g id="navigator" transform="translate(0 0)" fill="#404254">
  <rect fill="#f2f5e9" fill-opacity="0.5" stroke="#606060" stroke-width=".5" x="0" y="0" width="60" height="60"/>
  <use id="zoomplus" xlink:href="#zoomPlus" x="17" y="9" onmousedown="handleZoom(evt,'in')"/>
  <use id="zoomminus" xlink:href="#zoomMin" x="42" y="9" onmousedown="handleZoom(evt,'out')"/>
  <use id="reset" xlink:href="#resetDef" x="30" y="36" onmousedown="handleReset()"/>
   <use id="arrowup" xlink:href="#arrowUp" x="0" y="0" onmousedown="handlePan(0,-1)"/>
  <use id="arrowright" xlink:href="#arrowRight" x="0" y="0" onmousedown="handlePan(1,0)"/>
  <use id="arrowdown" xlink:href="#arrowDown" x="0" y="0" onmousedown="handlePan(0,1)"/>
  <use id="arrowleft" xlink:href="#arrowLeft" x="0" y="0" onmousedown="handlePan(-1,0)"/>
</g>
<svg viewBox="0 0 15 15" width="100%" height="30px" preserveAspectRatio="xMaxYMin meet">
 <g id="arrow_out" transform="scale(0.3 0.3)">
  <a xlink:href="classFatFile_abfd02c5d26f7d4f8739a8610116a6660_icgraph_org.svg" target="_base">
   <rect id="button" ry="5" rx="5" y="6" x="6" height="38" width="38"
        fill="#f2f5e9" fill-opacity="0.5" stroke="#606060" stroke-width="1.0"/>
   <path id="arrow"
     d="M 11.500037,31.436501 C 11.940474,20.09759 22.043105,11.32322 32.158766,21.979434 L 37.068811,17.246167 C 37.068811,17.246167 37.088388,32 37.088388,32 L 22.160133,31.978069 C 22.160133,31.978069 26.997745,27.140456 26.997745,27.140456 C 18.528582,18.264221 13.291696,25.230495 11.500037,31.436501 z"
     style="fill:#404040;"/>
  </a>
 </g>
</svg>

<style type='text/css'>
<![CDATA[
[data-mouse-over-selected='false'] { opacity: 0.7; }
[data-mouse-over-selected='true']  { opacity: 1.0; }
]]>
</style>
<script type="application/ecmascript"><![CDATA[
document.addEventListener('DOMContentLoaded', (event) => {
  highlightEdges();
  highlightAdjacentNodes();
});
]]></script>
</svg>
