<?xml version="1.0" encoding="UTF-8" standalone="no"?>
<!DOCTYPE svg PUBLIC "-//W3C//DTD SVG 1.1//EN"
 "http://www.w3.org/Graphics/SVG/1.1/DTD/svg11.dtd">
<!-- Generated by graphviz version 2.43.0 (0)
 -->
<!-- Title: initBME Pages: 1 -->
<!--zoomable 558 -->

<svg id="main" version="1.1" xmlns="http://www.w3.org/2000/svg" xmlns:xlink="http://www.w3.org/1999/xlink" xml:space="preserve" onload="init(evt)">
<style type="text/css"><![CDATA[
.node, .edge {opacity: 0.7;}
.node.selected, .edge.selected {opacity: 1;}
.edge:hover path { stroke: red; }
.edge:hover polygon { stroke: red; fill: red; }
]]></style>

<defs>
  <circle id="rim" cx="0" cy="0" r="7"/>
  <circle id="rim2" cx="0" cy="0" r="3.5"/>
  <g id="zoomPlus">
    <use xlink:href="#rim" fill="#404040"><set attributeName="fill" to="#808080" begin="zoomplus.mouseover" end="zoomplus.mouseout"/></use>
    <path d="M-4,0h8M0,-4v8" fill="none" stroke="white" stroke-width="1.5" pointer-events="none"/>
  </g>
  <g id="zoomMin">
    <use xlink:href="#rim" fill="#404040"><set attributeName="fill" to="#808080" begin="zoomminus.mouseover" end="zoomminus.mouseout"/></use>
    <path d="M-4,0h8" fill="none" stroke="white" stroke-width="1.5" pointer-events="none"/>
  </g>
  <g id="arrowUp" transform="translate(30 24)">
    <use xlink:href="#rim"/>
    <path pointer-events="none" fill="none" stroke="white" stroke-width="1.5" d="M0,-3.0v7 M-2.5,-0.5L0,-3.0L2.5,-0.5"/>
  </g>
  <g id="arrowRight" transform="rotate(90) translate(36 -43)">
    <use xlink:href="#rim"/>
    <path pointer-events="none" fill="none" stroke="white" stroke-width="1.5" d="M0,-3.0v7 M-2.5,-0.5L0,-3.0L2.5,-0.5"/>
  </g>
  <g id="arrowDown" transform="rotate(180) translate(-30 -48)">
    <use xlink:href="#rim"/>
    <path pointer-events="none" fill="none" stroke="white" stroke-width="1.5" d="M0,-3.0v7 M-2.5,-0.5L0,-3.0L2.5,-0.5"/>
  </g>
  <g id="arrowLeft" transform="rotate(270) translate(-36 17)">
    <use xlink:href="#rim"/>
    <path pointer-events="none" fill="none" stroke="white" stroke-width="1.5" d="M0,-3.0v7 M-2.5,-0.5L0,-3.0L2.5,-0.5"/>
  </g>
  <g id="resetDef">
    <use xlink:href="#rim2" fill="#404040"><set attributeName="fill" to="#808080" begin="reset.mouseover" end="reset.mouseout"/></use>
  </g>
</defs>
<script type="application/ecmascript">
var viewWidth = 1692;
var viewHeight = 558;
var sectionId = 'dynsection-2';
</script>
<script type="application/ecmascript" xlink:href="../../svg.min.js"/>
<svg id="graph" class="graph">
<g id="viewport">
<title>initBME</title>
<!-- Node1 -->
<g id="Node000001" class="node">
<title>Node1</title>
<g id="a_Node000001"><a xlink:title="Initialise le capteur BME280.">
<polygon fill="#999999" stroke="#666666" points="54,-342 0,-342 0,-323 54,-323 54,-342"/>
<text text-anchor="middle" x="27" y="-330" font-family="Helvetica,sans-Serif" font-size="10.00">initBME</text>
</a>
</g>
</g>
<!-- Node2 -->
<g id="Node000002" class="node">
<title>Node2</title>
<g id="a_Node000002"><a xlink:href="../../d6/d24/classBME280.xhtml#aff7bde27ccf8fbba0177b7be4c935220" target="_top" xlink:title=" ">
<polygon fill="white" stroke="#666666" points="183.5,-455 105.5,-455 105.5,-436 183.5,-436 183.5,-455"/>
<text text-anchor="middle" x="144.5" y="-443" font-family="Helvetica,sans-Serif" font-size="10.00">BME280::init</text>
</a>
</g>
</g>
<!-- Node1&#45;&gt;Node2 -->
<g id="edge1_Node000001_Node000002" class="edge">
<title>Node1&#45;&gt;Node2</title>
<g id="a_edge1_Node000001_Node000002"><a xlink:title=" ">
<path fill="none" stroke="#63b8ff" d="M37.85,-342.13C57.54,-361.4 101.97,-404.87 126.48,-428.85"/>
<polygon fill="#63b8ff" stroke="#63b8ff" points="124.08,-431.4 133.68,-435.89 128.98,-426.39 124.08,-431.4"/>
</a>
</g>
</g>
<!-- Node11 -->
<g id="Node000011" class="node">
<title>Node11</title>
<g id="a_Node000011"><a xlink:href="../../dd/db1/error_8cpp.xhtml#aa07018cc68b21b664b4ca75a67e679f0" target="_top" xlink:title=" ">
<polygon fill="white" stroke="#666666" points="199,-248 90,-248 90,-229 199,-229 199,-248"/>
<text text-anchor="middle" x="144.5" y="-236" font-family="Helvetica,sans-Serif" font-size="10.00">switchToErrorMode</text>
</a>
</g>
</g>
<!-- Node1&#45;&gt;Node11 -->
<g id="edge11_Node000001_Node000011" class="edge">
<title>Node1&#45;&gt;Node11</title>
<g id="a_edge11_Node000001_Node000011"><a xlink:title=" ">
<path fill="none" stroke="#63b8ff" d="M39.93,-322.79C59.83,-306.6 99.99,-273.91 124.04,-254.34"/>
<polygon fill="#63b8ff" stroke="#63b8ff" points="126.26,-257.04 131.81,-248.01 121.85,-251.61 126.26,-257.04"/>
</a>
</g>
</g>
<!-- Node3 -->
<g id="Node000003" class="node">
<title>Node3</title>
<g id="a_Node000003"><a xlink:href="../../d6/d24/classBME280.xhtml#a6846cf01eac22e69dbf6516b1255d332" target="_top" xlink:title=" ">
<polygon fill="white" stroke="#666666" points="577,-531 427,-531 427,-512 577,-512 577,-531"/>
<text text-anchor="middle" x="502" y="-519" font-family="Helvetica,sans-Serif" font-size="10.00">BME280::BME280Read16LE</text>
</a>
</g>
</g>
<!-- Node2&#45;&gt;Node3 -->
<g id="edge2_Node000002_Node000003" class="edge">
<title>Node2&#45;&gt;Node3</title>
<g id="a_edge2_Node000002_Node000003"><a xlink:title=" ">
<path fill="none" stroke="#63b8ff" d="M164.19,-455.13C181.95,-463.87 209.63,-476.43 235,-483.5 294.63,-500.11 363.91,-509.71 416.82,-515.11"/>
<polygon fill="#63b8ff" stroke="#63b8ff" points="416.54,-518.6 426.84,-516.1 417.23,-511.63 416.54,-518.6"/>
</a>
</g>
</g>
<!-- Node5 -->
<g id="Node000005" class="node">
<title>Node5</title>
<g id="a_Node000005"><a xlink:href="../../d6/d24/classBME280.xhtml#a266f0487e91104454224b14f689b6e55" target="_top" xlink:title=" ">
<polygon fill="white" stroke="#666666" points="379.5,-398 246.5,-398 246.5,-379 379.5,-379 379.5,-398"/>
<text text-anchor="middle" x="313" y="-386" font-family="Helvetica,sans-Serif" font-size="10.00">BME280::BME280Read8</text>
</a>
</g>
</g>
<!-- Node2&#45;&gt;Node5 -->
<g id="edge4_Node000002_Node000005" class="edge">
<title>Node2&#45;&gt;Node5</title>
<g id="a_edge4_Node000002_Node000005"><a xlink:title=" ">
<path fill="none" stroke="#63b8ff" d="M170.45,-435.91C188.34,-429.13 213.05,-419.96 235,-412.5 246.38,-408.63 258.79,-404.66 270.25,-401.09"/>
<polygon fill="#63b8ff" stroke="#63b8ff" points="271.52,-404.36 280.04,-398.06 269.45,-397.67 271.52,-404.36"/>
</a>
</g>
</g>
<!-- Node6 -->
<g id="Node000006" class="node">
<title>Node6</title>
<g id="a_Node000006"><a xlink:href="../../d6/d24/classBME280.xhtml#aad9d880a35154d473937450bc87152b0" target="_top" xlink:title=" ">
<polygon fill="white" stroke="#666666" points="391,-550 235,-550 235,-531 391,-531 391,-550"/>
<text text-anchor="middle" x="313" y="-538" font-family="Helvetica,sans-Serif" font-size="10.00">BME280::BME280ReadS16LE</text>
</a>
</g>
</g>
<!-- Node2&#45;&gt;Node6 -->
<g id="edge5_Node000002_Node000006" class="edge">
<title>Node2&#45;&gt;Node6</title>
<g id="a_edge5_Node000002_Node000006"><a xlink:title=" ">
<path fill="none" stroke="#63b8ff" d="M155.1,-455.14C170.62,-470.23 202.74,-499.44 235,-516.5 243.45,-520.97 252.87,-524.76 262.15,-527.92"/>
<polygon fill="#63b8ff" stroke="#63b8ff" points="261.12,-531.27 271.71,-530.98 263.25,-524.6 261.12,-531.27"/>
</a>
</g>
</g>
<!-- Node7 -->
<g id="Node000007" class="node">
<title>Node7</title>
<g id="a_Node000007"><a xlink:href="../../d5/df3/wiring_8c.xhtml#a6bc5f943544a887f8b23cadfb26a5e30" target="_top" xlink:title=" ">
<polygon fill="white" stroke="#666666" points="1067.5,-312 1023.5,-312 1023.5,-293 1067.5,-293 1067.5,-312"/>
<text text-anchor="middle" x="1045.5" y="-300" font-family="Helvetica,sans-Serif" font-size="10.00">delay</text>
</a>
</g>
</g>
<!-- Node2&#45;&gt;Node7 -->
<g id="edge7_Node000002_Node000007" class="edge">
<title>Node2&#45;&gt;Node7</title>
<g id="a_edge7_Node000002_Node000007"><a xlink:title=" ">
<path fill="none" stroke="#63b8ff" d="M183.61,-442.13C248.64,-436.67 385.27,-426.5 501,-426.5 501,-426.5 501,-426.5 683.5,-426.5 816.62,-426.5 963.1,-350.15 1020.01,-317.27"/>
<polygon fill="#63b8ff" stroke="#63b8ff" points="1022.11,-320.1 1028.97,-312.02 1018.57,-314.06 1022.11,-320.1"/>
</a>
</g>
</g>
<!-- Node10 -->
<g id="Node000010" class="node">
<title>Node10</title>
<g id="a_Node000010"><a xlink:href="../../d6/d24/classBME280.xhtml#a8d378248d5baa2cd07d9fd4be1386ff9" target="_top" xlink:title=" ">
<polygon fill="white" stroke="#666666" points="377,-474 249,-474 249,-455 377,-455 377,-474"/>
<text text-anchor="middle" x="313" y="-462" font-family="Helvetica,sans-Serif" font-size="10.00">BME280::writeRegister</text>
</a>
</g>
</g>
<!-- Node2&#45;&gt;Node10 -->
<g id="edge10_Node000002_Node000010" class="edge">
<title>Node2&#45;&gt;Node10</title>
<g id="a_edge10_Node000002_Node000010"><a xlink:title=" ">
<path fill="none" stroke="#63b8ff" d="M183.7,-449.86C200.06,-451.73 219.74,-453.97 238.71,-456.14"/>
<polygon fill="#63b8ff" stroke="#63b8ff" points="238.52,-459.64 248.85,-457.29 239.32,-452.68 238.52,-459.64"/>
</a>
</g>
</g>
<!-- Node4 -->
<g id="Node000004" class="node">
<title>Node4</title>
<g id="a_Node000004"><a xlink:href="../../d6/d24/classBME280.xhtml#aa4fe8af66d6cd1cb5699ee359c71e190" target="_top" xlink:title=" ">
<polygon fill="white" stroke="#666666" points="752,-531 613,-531 613,-512 752,-512 752,-531"/>
<text text-anchor="middle" x="682.5" y="-519" font-family="Helvetica,sans-Serif" font-size="10.00">BME280::BME280Read16</text>
</a>
</g>
</g>
<!-- Node3&#45;&gt;Node4 -->
<g id="edge3_Node000003_Node000004" class="edge">
<title>Node3&#45;&gt;Node4</title>
<g id="a_edge3_Node000003_Node000004"><a xlink:title=" ">
<path fill="none" stroke="#63b8ff" d="M577.15,-521.5C585.53,-521.5 594.08,-521.5 602.52,-521.5"/>
<polygon fill="#63b8ff" stroke="#63b8ff" points="602.73,-525 612.73,-521.5 602.73,-518 602.73,-525"/>
</a>
</g>
</g>
<!-- Node6&#45;&gt;Node3 -->
<g id="edge6_Node000006_Node000003" class="edge">
<title>Node6&#45;&gt;Node3</title>
<g id="a_edge6_Node000006_Node000003"><a xlink:title=" ">
<path fill="none" stroke="#63b8ff" d="M391.14,-532.66C399.6,-531.8 408.25,-530.92 416.79,-530.06"/>
<polygon fill="#63b8ff" stroke="#63b8ff" points="417.15,-533.54 426.75,-529.04 416.44,-526.57 417.15,-533.54"/>
</a>
</g>
</g>
<!-- Node8 -->
<g id="Node000008" class="node">
<title>Node8</title>
<g id="a_Node000008"><a xlink:href="../../d5/df3/wiring_8c.xhtml#a8b24cbb7c3486e1bfa05c86db83ecb01" target="_top" xlink:title=" ">
<polygon fill="white" stroke="#666666" points="1244,-293 1194,-293 1194,-274 1244,-274 1244,-293"/>
<text text-anchor="middle" x="1219" y="-281" font-family="Helvetica,sans-Serif" font-size="10.00">micros</text>
</a>
</g>
</g>
<!-- Node7&#45;&gt;Node8 -->
<g id="edge8_Node000007_Node000008" class="edge">
<title>Node7&#45;&gt;Node8</title>
<g id="a_edge8_Node000007_Node000008"><a xlink:title=" ">
<path fill="none" stroke="#63b8ff" d="M1067.53,-300.17C1096.47,-296.96 1148.92,-291.15 1183.61,-287.31"/>
<polygon fill="#63b8ff" stroke="#63b8ff" points="1184.2,-290.77 1193.76,-286.19 1183.43,-283.81 1184.2,-290.77"/>
</a>
</g>
</g>
<!-- Node9 -->
<g id="Node000009" class="node">
<title>Node9</title>
<g id="a_Node000009"><a xlink:href="../../de/df0/Arduino_8h.xhtml#a7cb51f5c2b5cad3766f19eb69c92793b" target="_top" xlink:title=" ">
<polygon fill="white" stroke="#666666" points="1239.5,-330 1198.5,-330 1198.5,-311 1239.5,-311 1239.5,-330"/>
<text text-anchor="middle" x="1219" y="-318" font-family="Helvetica,sans-Serif" font-size="10.00">yield</text>
</a>
</g>
</g>
<!-- Node7&#45;&gt;Node9 -->
<g id="edge9_Node000007_Node000009" class="edge">
<title>Node7&#45;&gt;Node9</title>
<g id="a_edge9_Node000007_Node000009"><a xlink:title=" ">
<path fill="none" stroke="#63b8ff" d="M1067.53,-304.71C1097.85,-307.89 1153.96,-313.78 1188.44,-317.4"/>
<polygon fill="#63b8ff" stroke="#63b8ff" points="1188.08,-320.88 1198.39,-318.44 1188.81,-313.92 1188.08,-320.88"/>
</a>
</g>
</g>
<!-- Node12 -->
<g id="Node000012" class="node">
<title>Node12</title>
<g id="a_Node000012"><a xlink:href="../../db/d17/led_8cpp.xhtml#a7ba25f44529972e627561bcf6efc192f" target="_top" xlink:title="La LED passe successivement du rouge au vert. La LED reste rouge pendant 1 seconde puis passe au vert...">
<polygon fill="white" stroke="#666666" points="378.5,-322 247.5,-322 247.5,-303 378.5,-303 378.5,-322"/>
<text text-anchor="middle" x="313" y="-310" font-family="Helvetica,sans-Serif" font-size="10.00">switchLEDToRed2Green</text>
</a>
</g>
</g>
<!-- Node11&#45;&gt;Node12 -->
<g id="edge12_Node000011_Node000012" class="edge">
<title>Node11&#45;&gt;Node12</title>
<g id="a_edge12_Node000011_Node000012"><a xlink:title=" ">
<path fill="none" stroke="#63b8ff" d="M157.82,-248.07C174.44,-260.53 205.39,-282.18 235,-294.5 239.99,-296.58 245.27,-298.44 250.62,-300.11"/>
<polygon fill="#63b8ff" stroke="#63b8ff" points="249.73,-303.49 260.31,-302.9 251.67,-296.77 249.73,-303.49"/>
</a>
</g>
</g>
<!-- Node28 -->
<g id="Node000028" class="node">
<title>Node28</title>
<g id="a_Node000028"><a xlink:href="../../db/d17/led_8cpp.xhtml#ac050c3041978fab0c3028de0fdc31618" target="_top" xlink:title="La LED passe successivement du rouge au blanc. La LED reste rouge pendant 1 seconde puis passe au bla...">
<polygon fill="white" stroke="#666666" points="378.5,-38 247.5,-38 247.5,-19 378.5,-19 378.5,-38"/>
<text text-anchor="middle" x="313" y="-26" font-family="Helvetica,sans-Serif" font-size="10.00">switchLEDToRed2White</text>
</a>
</g>
</g>
<!-- Node11&#45;&gt;Node28 -->
<g id="edge38_Node000011_Node000028" class="edge">
<title>Node11&#45;&gt;Node28</title>
<g id="a_edge38_Node000011_Node000028"><a xlink:title=" ">
<path fill="none" stroke="#63b8ff" d="M147,-228.7C152.41,-196.95 173.91,-96.12 235,-46.5 236.56,-45.23 238.19,-44.05 239.88,-42.95"/>
<polygon fill="#63b8ff" stroke="#63b8ff" points="241.68,-45.96 248.78,-38.1 238.32,-39.82 241.68,-45.96"/>
</a>
</g>
</g>
<!-- Node31 -->
<g id="Node000031" class="node">
<title>Node31</title>
<g id="a_Node000031"><a xlink:href="../../db/d17/led_8cpp.xhtml#aa04c4b7972bc68200e4d2da56b097115" target="_top" xlink:title="La LED passe successivement du rouge au bleu avec une fréquence de 1 seconde.">
<polygon fill="white" stroke="#666666" points="372,-172 254,-172 254,-153 372,-153 372,-172"/>
<text text-anchor="middle" x="313" y="-160" font-family="Helvetica,sans-Serif" font-size="10.00">switchLEDToRedBlue</text>
</a>
</g>
</g>
<!-- Node11&#45;&gt;Node31 -->
<g id="edge44_Node000011_Node000031" class="edge">
<title>Node11&#45;&gt;Node31</title>
<g id="a_edge44_Node000011_Node000031"><a xlink:title=" ">
<path fill="none" stroke="#63b8ff" d="M166.59,-228.87C195.74,-215.57 248.51,-191.48 281.83,-176.27"/>
<polygon fill="#63b8ff" stroke="#63b8ff" points="283.44,-179.38 291.08,-172.05 280.53,-173.02 283.44,-179.38"/>
</a>
</g>
</g>
<!-- Node32 -->
<g id="Node000032" class="node">
<title>Node32</title>
<g id="a_Node000032"><a xlink:href="../../db/d17/led_8cpp.xhtml#a59bf7437503d490ee53223c3bd20aa0c" target="_top" xlink:title="La LED passe successivement du rouge au vert avec une fréquence de 1 seconde.">
<polygon fill="white" stroke="#666666" points="375.5,-285 250.5,-285 250.5,-266 375.5,-266 375.5,-285"/>
<text text-anchor="middle" x="313" y="-273" font-family="Helvetica,sans-Serif" font-size="10.00">switchLEDToRedGreen</text>
</a>
</g>
</g>
<!-- Node11&#45;&gt;Node32 -->
<g id="edge48_Node000011_Node000032" class="edge">
<title>Node11&#45;&gt;Node32</title>
<g id="a_edge48_Node000011_Node000032"><a xlink:title=" ">
<path fill="none" stroke="#63b8ff" d="M188.38,-248.03C209.95,-252.82 236.29,-258.68 259.11,-263.75"/>
<polygon fill="#63b8ff" stroke="#63b8ff" points="258.46,-267.19 268.98,-265.94 259.98,-260.35 258.46,-267.19"/>
</a>
</g>
</g>
<!-- Node33 -->
<g id="Node000033" class="node">
<title>Node33</title>
<g id="a_Node000033"><a xlink:href="../../db/d17/led_8cpp.xhtml#a3f8b463c1fa4e1715beb1a4a6e4c36b3" target="_top" xlink:title="La LED passe successivement du rouge au blanc avec une fréquence de 1 seconde.">
<polygon fill="white" stroke="#666666" points="375.5,-75 250.5,-75 250.5,-56 375.5,-56 375.5,-75"/>
<text text-anchor="middle" x="313" y="-63" font-family="Helvetica,sans-Serif" font-size="10.00">switchLEDToRedWhite</text>
</a>
</g>
</g>
<!-- Node11&#45;&gt;Node33 -->
<g id="edge52_Node000011_Node000033" class="edge">
<title>Node11&#45;&gt;Node33</title>
<g id="a_edge52_Node000011_Node000033"><a xlink:title=" ">
<path fill="none" stroke="#63b8ff" d="M154.32,-228.99C170.29,-211.81 205.11,-174.49 235,-143.5 255.47,-122.27 279.38,-98.16 295.06,-82.43"/>
<polygon fill="#63b8ff" stroke="#63b8ff" points="297.86,-84.59 302.44,-75.04 292.9,-79.64 297.86,-84.59"/>
</a>
</g>
</g>
<!-- Node34 -->
<g id="Node000034" class="node">
<title>Node34</title>
<g id="a_Node000034"><a xlink:href="../../db/d17/led_8cpp.xhtml#a91398c440a9f9f48d59e14eb727e61ae" target="_top" xlink:title="La LED passe successivement du rouge au jaune avec une fréquence de 1 seconde.">
<polygon fill="white" stroke="#666666" points="376.5,-248 249.5,-248 249.5,-229 376.5,-229 376.5,-248"/>
<text text-anchor="middle" x="313" y="-236" font-family="Helvetica,sans-Serif" font-size="10.00">switchLEDToRedYellow</text>
</a>
</g>
</g>
<!-- Node11&#45;&gt;Node34 -->
<g id="edge55_Node000011_Node000034" class="edge">
<title>Node11&#45;&gt;Node34</title>
<g id="a_edge55_Node000011_Node000034"><a xlink:title=" ">
<path fill="none" stroke="#63b8ff" d="M199.1,-238.5C211.82,-238.5 225.62,-238.5 239.04,-238.5"/>
<polygon fill="#63b8ff" stroke="#63b8ff" points="239.22,-242 249.22,-238.5 239.22,-235 239.22,-242"/>
</a>
</g>
</g>
<!-- Node13 -->
<g id="Node000013" class="node">
<title>Node13</title>
<g id="a_Node000013"><a xlink:href="../../db/d17/led_8cpp.xhtml#aa2d49caed8f5ce97778549e0ef0a03c6" target="_top" xlink:title="Fait clignoter la LED en alternant entre deux couleurs avec une fréquence de 1 secondes pendant durat...">
<polygon fill="white" stroke="#666666" points="542,-322 462,-322 462,-303 542,-303 542,-322"/>
<text text-anchor="middle" x="502" y="-310" font-family="Helvetica,sans-Serif" font-size="10.00">initLEDTimer</text>
</a>
</g>
</g>
<!-- Node12&#45;&gt;Node13 -->
<g id="edge13_Node000012_Node000013" class="edge">
<title>Node12&#45;&gt;Node13</title>
<g id="a_edge13_Node000012_Node000013"><a xlink:title=" ">
<path fill="none" stroke="#63b8ff" d="M378.62,-312.5C402.49,-312.5 429.16,-312.5 451.49,-312.5"/>
<polygon fill="#63b8ff" stroke="#63b8ff" points="451.74,-316 461.74,-312.5 451.74,-309 451.74,-316"/>
</a>
</g>
</g>
<!-- Node24 -->
<g id="Node000024" class="node">
<title>Node24</title>
<g id="a_Node000024"><a xlink:href="../../db/d17/led_8cpp.xhtml#a1c1c60dba65e2b65592bf4a0fe46b91c" target="_top" xlink:title="Allume la LED en vert.">
<polygon fill="white" stroke="#666666" points="736,-398 629,-398 629,-379 736,-379 736,-398"/>
<text text-anchor="middle" x="682.5" y="-386" font-family="Helvetica,sans-Serif" font-size="10.00">switchLEDToGreen</text>
</a>
</g>
</g>
<!-- Node12&#45;&gt;Node24 -->
<g id="edge35_Node000012_Node000024" class="edge">
<title>Node12&#45;&gt;Node24</title>
<g id="a_edge35_Node000012_Node000024"><a xlink:title=" ">
<path fill="none" stroke="#63b8ff" d="M330.18,-322.08C351.55,-334.23 390.71,-354.74 427,-364.5 490.89,-381.68 566.66,-386.99 618.82,-388.43"/>
<polygon fill="#63b8ff" stroke="#63b8ff" points="618.84,-391.93 628.92,-388.67 619.01,-384.93 618.84,-391.93"/>
</a>
</g>
</g>
<!-- Node27 -->
<g id="Node000027" class="node">
<title>Node27</title>
<g id="a_Node000027"><a xlink:href="../../db/d17/led_8cpp.xhtml#ae18cd762c6f843eb4421cd651a5d3940" target="_top" xlink:title="Allume la LED en rouge.">
<polygon fill="white" stroke="#666666" points="730.5,-156 634.5,-156 634.5,-137 730.5,-137 730.5,-156"/>
<text text-anchor="middle" x="682.5" y="-144" font-family="Helvetica,sans-Serif" font-size="10.00">switchLEDToRed</text>
</a>
</g>
</g>
<!-- Node12&#45;&gt;Node27 -->
<g id="edge36_Node000012_Node000027" class="edge">
<title>Node12&#45;&gt;Node27</title>
<g id="a_edge36_Node000012_Node000027"><a xlink:title=" ">
<path fill="none" stroke="#63b8ff" d="M360.35,-302.96C370.53,-300.5 381.2,-297.65 391,-294.5 476.18,-267.12 507.62,-273.99 577,-217.5 599.08,-199.52 589.75,-180.94 613,-164.5 616.66,-161.91 620.66,-159.7 624.84,-157.8"/>
<polygon fill="#63b8ff" stroke="#63b8ff" points="626.15,-161.05 634.19,-154.14 623.6,-154.53 626.15,-161.05"/>
</a>
</g>
</g>
<!-- Node14 -->
<g id="Node000014" class="node">
<title>Node14</title>
<g id="a_Node000014"><a xlink:href="../../dc/de5/timer_8cpp.xhtml#a75f67483e2c676b6e8ea29bca518e6c7" target="_top" xlink:title="Crée une nouvelle instance du timer.">
<polygon fill="white" stroke="#666666" points="905,-312 823,-312 823,-293 905,-293 905,-312"/>
<text text-anchor="middle" x="864" y="-300" font-family="Helvetica,sans-Serif" font-size="10.00">createTimer2</text>
</a>
</g>
</g>
<!-- Node13&#45;&gt;Node14 -->
<g id="edge14_Node000013_Node000014" class="edge">
<title>Node13&#45;&gt;Node14</title>
<g id="a_edge14_Node000013_Node000014"><a xlink:title=" ">
<path fill="none" stroke="#63b8ff" d="M542.25,-320.96C563.14,-325.03 589.35,-329.47 613,-331.5 674.55,-336.78 690.73,-339.37 752,-331.5 776.73,-328.32 803.81,-321.32 825.04,-314.99"/>
<polygon fill="#63b8ff" stroke="#63b8ff" points="826.11,-318.32 834.65,-312.05 824.06,-311.63 826.11,-318.32"/>
</a>
</g>
</g>
<!-- Node15 -->
<g id="Node000015" class="node">
<title>Node15</title>
<g id="a_Node000015"><a xlink:href="../../db/d17/led_8cpp.xhtml#ab88ba8c1c79f75d5caa97fa7939bc4fb" target="_top" xlink:title="Fonction exécutée à chaque interruption du timer 2.">
<polygon fill="white" stroke="#666666" points="721,-304 644,-304 644,-285 721,-285 721,-304"/>
<text text-anchor="middle" x="682.5" y="-292" font-family="Helvetica,sans-Serif" font-size="10.00">LEDInterrupt</text>
</a>
</g>
</g>
<!-- Node13&#45;&gt;Node15 -->
<g id="edge16_Node000013_Node000015" class="edge">
<title>Node13&#45;&gt;Node15</title>
<g id="a_edge16_Node000013_Node000015"><a xlink:title=" ">
<path fill="none" stroke="#63b8ff" d="M542.17,-308.55C569.14,-305.83 605.12,-302.2 633.76,-299.31"/>
<polygon fill="#63b8ff" stroke="#63b8ff" points="634.35,-302.77 643.95,-298.29 633.65,-295.81 634.35,-302.77"/>
</a>
</g>
</g>
<!-- Node16 -->
<g id="Node000016" class="node">
<title>Node16</title>
<g id="a_Node000016"><a xlink:href="../../db/d17/led_8cpp.xhtml#a4f39000a638bc309a30f90d7fbb5a8a1" target="_top" xlink:title="Allume la LED en bleu.">
<polygon fill="white" stroke="#666666" points="732,-193 633,-193 633,-174 732,-174 732,-193"/>
<text text-anchor="middle" x="682.5" y="-181" font-family="Helvetica,sans-Serif" font-size="10.00">switchLEDToBlue</text>
</a>
</g>
</g>
<!-- Node13&#45;&gt;Node16 -->
<g id="edge19_Node000013_Node000016" class="edge">
<title>Node13&#45;&gt;Node16</title>
<g id="a_edge19_Node000013_Node000016"><a xlink:title=" ">
<path fill="none" stroke="#63b8ff" d="M516.39,-302.84C531.89,-291.32 557.73,-271.03 577,-250.5 595.49,-230.79 590.65,-216.69 613,-201.5 616.28,-199.27 619.82,-197.32 623.51,-195.6"/>
<polygon fill="#63b8ff" stroke="#63b8ff" points="624.93,-198.81 632.9,-191.83 622.31,-192.31 624.93,-198.81"/>
</a>
</g>
</g>
<!-- Node13&#45;&gt;Node24 -->
<g id="edge29_Node000013_Node000024" class="edge">
<title>Node13&#45;&gt;Node24</title>
<g id="a_edge29_Node000013_Node000024"><a xlink:title=" ">
<path fill="none" stroke="#63b8ff" d="M540.92,-322.03C552.83,-325.74 565.78,-330.56 577,-336.5 594.91,-345.99 595.2,-354.8 613,-364.5 620.8,-368.75 629.49,-372.48 638,-375.65"/>
<polygon fill="#63b8ff" stroke="#63b8ff" points="636.88,-378.97 647.47,-379 639.21,-372.37 636.88,-378.97"/>
</a>
</g>
</g>
<!-- Node25 -->
<g id="Node000025" class="node">
<title>Node25</title>
<g id="a_Node000025"><a xlink:href="../../db/d17/led_8cpp.xhtml#aa58a00fd07d1ae6fd45c10c874766911" target="_top" xlink:title="Allume la LED en orange.">
<polygon fill="white" stroke="#666666" points="739,-267 626,-267 626,-248 739,-248 739,-267"/>
<text text-anchor="middle" x="682.5" y="-255" font-family="Helvetica,sans-Serif" font-size="10.00">switchLEDToOrange</text>
</a>
</g>
</g>
<!-- Node13&#45;&gt;Node25 -->
<g id="edge31_Node000013_Node000025" class="edge">
<title>Node13&#45;&gt;Node25</title>
<g id="a_edge31_Node000013_Node000025"><a xlink:title=" ">
<path fill="none" stroke="#63b8ff" d="M532.55,-302.98C546.1,-298.59 562.37,-293.31 577,-288.5 593.02,-283.23 596.87,-281.42 613,-276.5 620.47,-274.22 628.43,-271.91 636.19,-269.72"/>
<polygon fill="#63b8ff" stroke="#63b8ff" points="637.16,-273.08 645.85,-267.02 635.27,-266.34 637.16,-273.08"/>
</a>
</g>
</g>
<!-- Node26 -->
<g id="Node000026" class="node">
<title>Node26</title>
<g id="a_Node000026"><a xlink:href="../../db/d17/led_8cpp.xhtml#af8230cfc3cf386fa1253cd37b3cd215d" target="_top" xlink:title="Allume la LED en jaune.">
<polygon fill="white" stroke="#666666" points="736.5,-230 628.5,-230 628.5,-211 736.5,-211 736.5,-230"/>
<text text-anchor="middle" x="682.5" y="-218" font-family="Helvetica,sans-Serif" font-size="10.00">switchLEDToYellow</text>
</a>
</g>
</g>
<!-- Node13&#45;&gt;Node26 -->
<g id="edge33_Node000013_Node000026" class="edge">
<title>Node13&#45;&gt;Node26</title>
<g id="a_edge33_Node000013_Node000026"><a xlink:title=" ">
<path fill="none" stroke="#63b8ff" d="M542.07,-304.82C554.04,-301.2 566.74,-295.98 577,-288.5 599.12,-272.36 590.43,-254 613,-238.5 615.25,-236.95 617.63,-235.54 620.09,-234.25"/>
<polygon fill="#63b8ff" stroke="#63b8ff" points="621.64,-237.39 629.31,-230.08 618.76,-231.01 621.64,-237.39"/>
</a>
</g>
</g>
<!-- Node14&#45;&gt;Node7 -->
<g id="edge15_Node000014_Node000007" class="edge">
<title>Node14&#45;&gt;Node7</title>
<g id="a_edge15_Node000014_Node000007"><a xlink:title=" ">
<path fill="none" stroke="#63b8ff" d="M905.28,-302.5C937.87,-302.5 983.12,-302.5 1013.07,-302.5"/>
<polygon fill="#63b8ff" stroke="#63b8ff" points="1013.36,-306 1023.36,-302.5 1013.36,-299 1013.36,-306"/>
</a>
</g>
</g>
<!-- Node15&#45;&gt;Node14 -->
<g id="edge17_Node000015_Node000014" class="edge">
<title>Node15&#45;&gt;Node14</title>
<g id="a_edge17_Node000015_Node000014"><a xlink:title=" ">
<path fill="none" stroke="#63b8ff" d="M721.13,-296.18C747.68,-297.36 783.55,-298.96 812.57,-300.25"/>
<polygon fill="#63b8ff" stroke="#63b8ff" points="812.78,-303.77 822.93,-300.71 813.09,-296.77 812.78,-303.77"/>
</a>
</g>
</g>
<!-- Node15&#45;&gt;Node15 -->
<g id="edge18_Node000015_Node000015" class="edge">
<title>Node15&#45;&gt;Node15</title>
<g id="a_edge18_Node000015_Node000015"><a xlink:title=" ">
<path fill="none" stroke="#63b8ff" d="M654.76,-304.08C641.26,-312.73 650.51,-322 682.5,-322 703.99,-322 715.22,-317.82 716.18,-312.45"/>
<polygon fill="#63b8ff" stroke="#63b8ff" points="718.89,-310.21 710.24,-304.08 713.18,-314.26 718.89,-310.21"/>
</a>
</g>
</g>
<!-- Node17 -->
<g id="Node000017" class="node">
<title>Node17</title>
<g id="a_Node000017"><a xlink:href="../../d5/dc9/classChainableLED.xhtml#a2b8a41a192a231e77cad268bdbaebd34" target="_top" xlink:title=" ">
<polygon fill="white" stroke="#666666" points="940,-223 788,-223 788,-204 940,-204 940,-223"/>
<text text-anchor="middle" x="864" y="-211" font-family="Helvetica,sans-Serif" font-size="10.00">ChainableLED::setColorRGB</text>
</a>
</g>
</g>
<!-- Node16&#45;&gt;Node17 -->
<g id="edge20_Node000016_Node000017" class="edge">
<title>Node16&#45;&gt;Node17</title>
<g id="a_edge20_Node000016_Node000017"><a xlink:title=" ">
<path fill="none" stroke="#63b8ff" d="M732.08,-191.62C751.79,-194.91 774.9,-198.78 796.16,-202.33"/>
<polygon fill="#63b8ff" stroke="#63b8ff" points="795.67,-205.8 806.11,-203.99 796.82,-198.89 795.67,-205.8"/>
</a>
</g>
</g>
<!-- Node18 -->
<g id="Node000018" class="node">
<title>Node18</title>
<g id="a_Node000018"><a xlink:href="../../d5/dc9/classChainableLED.xhtml#af9dddebec83065625cbd6f8f05b992e7" target="_top" xlink:title=" ">
<polygon fill="white" stroke="#666666" points="1287,-223 1151,-223 1151,-204 1287,-204 1287,-223"/>
<text text-anchor="middle" x="1219" y="-211" font-family="Helvetica,sans-Serif" font-size="10.00">ChainableLED::sendByte</text>
</a>
</g>
</g>
<!-- Node17&#45;&gt;Node18 -->
<g id="edge21_Node000017_Node000018" class="edge">
<title>Node17&#45;&gt;Node18</title>
<g id="a_edge21_Node000017_Node000018"><a xlink:title=" ">
<path fill="none" stroke="#63b8ff" d="M940.22,-216.58C952.19,-216.96 964.43,-217.29 976,-217.5 1037.77,-218.61 1053.23,-218.7 1115,-217.5 1123.36,-217.34 1132.1,-217.1 1140.8,-216.82"/>
<polygon fill="#63b8ff" stroke="#63b8ff" points="1141.09,-220.32 1150.97,-216.48 1140.86,-213.32 1141.09,-220.32"/>
</a>
</g>
</g>
<!-- Node23 -->
<g id="Node000023" class="node">
<title>Node23</title>
<g id="a_Node000023"><a xlink:href="../../d5/dc9/classChainableLED.xhtml#a7c5c2661fc02dee9f174485a2fadeb7a" target="_top" xlink:title=" ">
<polygon fill="white" stroke="#666666" points="1115,-209 976,-209 976,-190 1115,-190 1115,-209"/>
<text text-anchor="middle" x="1045.5" y="-197" font-family="Helvetica,sans-Serif" font-size="10.00">ChainableLED::sendColor</text>
</a>
</g>
</g>
<!-- Node17&#45;&gt;Node23 -->
<g id="edge27_Node000017_Node000023" class="edge">
<title>Node17&#45;&gt;Node23</title>
<g id="a_edge27_Node000017_Node000023"><a xlink:title=" ">
<path fill="none" stroke="#63b8ff" d="M940.08,-207.64C948.48,-206.99 957.06,-206.32 965.51,-205.66"/>
<polygon fill="#63b8ff" stroke="#63b8ff" points="966.03,-209.13 975.73,-204.86 965.49,-202.15 966.03,-209.13"/>
</a>
</g>
</g>
<!-- Node19 -->
<g id="Node000019" class="node">
<title>Node19</title>
<g id="a_Node000019"><a xlink:href="../../d5/dc9/classChainableLED.xhtml#af384841b6f083865c7fce288b039d275" target="_top" xlink:title=" ">
<polygon fill="white" stroke="#666666" points="1427,-242 1323,-242 1323,-223 1427,-223 1427,-242"/>
<text text-anchor="middle" x="1375" y="-230" font-family="Helvetica,sans-Serif" font-size="10.00">ChainableLED::clk</text>
</a>
</g>
</g>
<!-- Node18&#45;&gt;Node19 -->
<g id="edge22_Node000018_Node000019" class="edge">
<title>Node18&#45;&gt;Node19</title>
<g id="a_edge22_Node000018_Node000019"><a xlink:title=" ">
<path fill="none" stroke="#63b8ff" d="M1287.1,-221.78C1295.63,-222.83 1304.32,-223.9 1312.75,-224.94"/>
<polygon fill="#63b8ff" stroke="#63b8ff" points="1312.52,-228.44 1322.87,-226.19 1313.38,-221.49 1312.52,-228.44"/>
</a>
</g>
</g>
<!-- Node21 -->
<g id="Node000021" class="node">
<title>Node21</title>
<g id="a_Node000021"><a xlink:href="../../d5/d45/wiring__digital_8c.xhtml#a73b9b61feeaf7d790d107f2954a7fd93" target="_top" xlink:title=" ">
<polygon fill="white" stroke="#666666" points="1555,-205 1481,-205 1481,-186 1555,-186 1555,-205"/>
<text text-anchor="middle" x="1518" y="-193" font-family="Helvetica,sans-Serif" font-size="10.00">digitalWrite</text>
</a>
</g>
</g>
<!-- Node18&#45;&gt;Node21 -->
<g id="edge26_Node000018_Node000021" class="edge">
<title>Node18&#45;&gt;Node21</title>
<g id="a_edge26_Node000018_Node000021"><a xlink:title=" ">
<path fill="none" stroke="#63b8ff" d="M1287.02,-209.44C1343.09,-206.04 1421.59,-201.28 1470.85,-198.3"/>
<polygon fill="#63b8ff" stroke="#63b8ff" points="1471.12,-201.79 1480.89,-197.69 1470.7,-194.8 1471.12,-201.79"/>
</a>
</g>
</g>
<!-- Node20 -->
<g id="Node000020" class="node">
<title>Node20</title>
<g id="a_Node000020"><a xlink:href="../../d5/df3/wiring_8c.xhtml#a62e0a53bc261f9de8700cc5a92307e85" target="_top" xlink:title=" ">
<polygon fill="white" stroke="#666666" points="1573,-242 1463,-242 1463,-223 1573,-223 1573,-242"/>
<text text-anchor="middle" x="1518" y="-230" font-family="Helvetica,sans-Serif" font-size="10.00">delayMicroseconds</text>
</a>
</g>
</g>
<!-- Node19&#45;&gt;Node20 -->
<g id="edge23_Node000019_Node000020" class="edge">
<title>Node19&#45;&gt;Node20</title>
<g id="a_edge23_Node000019_Node000020"><a xlink:title=" ">
<path fill="none" stroke="#63b8ff" d="M1427.3,-232.5C1435.48,-232.5 1444.02,-232.5 1452.45,-232.5"/>
<polygon fill="#63b8ff" stroke="#63b8ff" points="1452.65,-236 1462.65,-232.5 1452.65,-229 1452.65,-236"/>
</a>
</g>
</g>
<!-- Node19&#45;&gt;Node21 -->
<g id="edge24_Node000019_Node000021" class="edge">
<title>Node19&#45;&gt;Node21</title>
<g id="a_edge24_Node000019_Node000021"><a xlink:title=" ">
<path fill="none" stroke="#63b8ff" d="M1412.31,-222.97C1430.24,-218.27 1452.06,-212.54 1471.13,-207.54"/>
<polygon fill="#63b8ff" stroke="#63b8ff" points="1472.03,-210.92 1480.81,-205 1470.25,-204.15 1472.03,-210.92"/>
</a>
</g>
</g>
<!-- Node22 -->
<g id="Node000022" class="node">
<title>Node22</title>
<g id="a_Node000022"><a xlink:href="../../d5/d45/wiring__digital_8c.xhtml#ae3d0bcbe4eb927ca8f5d5c21b7e4f224" target="_top" xlink:title=" ">
<polygon fill="white" stroke="#666666" points="1684,-205 1609,-205 1609,-186 1684,-186 1684,-205"/>
<text text-anchor="middle" x="1646.5" y="-193" font-family="Helvetica,sans-Serif" font-size="10.00">turnOffPWM</text>
</a>
</g>
</g>
<!-- Node21&#45;&gt;Node22 -->
<g id="edge25_Node000021_Node000022" class="edge">
<title>Node21&#45;&gt;Node22</title>
<g id="a_edge25_Node000021_Node000022"><a xlink:title=" ">
<path fill="none" stroke="#63b8ff" d="M1555.25,-195.5C1568.76,-195.5 1584.3,-195.5 1598.63,-195.5"/>
<polygon fill="#63b8ff" stroke="#63b8ff" points="1598.81,-199 1608.81,-195.5 1598.81,-192 1598.81,-199"/>
</a>
</g>
</g>
<!-- Node23&#45;&gt;Node18 -->
<g id="edge28_Node000023_Node000018" class="edge">
<title>Node23&#45;&gt;Node18</title>
<g id="a_edge28_Node000023_Node000018"><a xlink:title=" ">
<path fill="none" stroke="#63b8ff" d="M1115.27,-205.11C1123.62,-205.8 1132.19,-206.49 1140.65,-207.19"/>
<polygon fill="#63b8ff" stroke="#63b8ff" points="1140.64,-210.7 1150.89,-208.02 1141.21,-203.72 1140.64,-210.7"/>
</a>
</g>
</g>
<!-- Node24&#45;&gt;Node17 -->
<g id="edge30_Node000024_Node000017" class="edge">
<title>Node24&#45;&gt;Node17</title>
<g id="a_edge30_Node000024_Node000017"><a xlink:title=" ">
<path fill="none" stroke="#63b8ff" d="M696.61,-378.99C710.97,-368.27 734.32,-349.91 752,-331.5 770.23,-312.52 770.39,-304.05 788,-284.5 805.82,-264.72 828.2,-243.99 843.86,-230.08"/>
<polygon fill="#63b8ff" stroke="#63b8ff" points="846.6,-232.33 851.79,-223.1 841.97,-227.08 846.6,-232.33"/>
</a>
</g>
</g>
<!-- Node25&#45;&gt;Node17 -->
<g id="edge32_Node000025_Node000017" class="edge">
<title>Node25&#45;&gt;Node17</title>
<g id="a_edge32_Node000025_Node000017"><a xlink:title=" ">
<path fill="none" stroke="#63b8ff" d="M722.45,-247.95C749.38,-241.35 785.41,-232.52 814.25,-225.45"/>
<polygon fill="#63b8ff" stroke="#63b8ff" points="815.25,-228.81 824.13,-223.03 813.58,-222.01 815.25,-228.81"/>
</a>
</g>
</g>
<!-- Node26&#45;&gt;Node17 -->
<g id="edge34_Node000026_Node000017" class="edge">
<title>Node26&#45;&gt;Node17</title>
<g id="a_edge34_Node000026_Node000017"><a xlink:title=" ">
<path fill="none" stroke="#63b8ff" d="M736.87,-218.42C749.76,-217.92 763.85,-217.37 777.8,-216.82"/>
<polygon fill="#63b8ff" stroke="#63b8ff" points="778.06,-220.32 787.91,-216.43 777.78,-213.32 778.06,-220.32"/>
</a>
</g>
</g>
<!-- Node27&#45;&gt;Node17 -->
<g id="edge37_Node000027_Node000017" class="edge">
<title>Node27&#45;&gt;Node17</title>
<g id="a_edge37_Node000027_Node000017"><a xlink:title=" ">
<path fill="none" stroke="#63b8ff" d="M724.03,-156.01C733.3,-158.5 743.06,-161.38 752,-164.5 780.75,-174.55 812.44,-188.88 834.57,-199.45"/>
<polygon fill="#63b8ff" stroke="#63b8ff" points="833.2,-202.68 843.73,-203.87 836.24,-196.37 833.2,-202.68"/>
</a>
</g>
</g>
<!-- Node29 -->
<g id="Node000029" class="node">
<title>Node29</title>
<g id="a_Node000029"><a xlink:href="../../db/d17/led_8cpp.xhtml#a568e3f9750c24e5262ff1953d439acaa" target="_top" xlink:title="Initialise la boucle de clignotement de la LED.">
<polygon fill="white" stroke="#666666" points="539,-19 465,-19 465,0 539,0 539,-19"/>
<text text-anchor="middle" x="502" y="-7" font-family="Helvetica,sans-Serif" font-size="10.00">initLEDLoop</text>
</a>
</g>
</g>
<!-- Node28&#45;&gt;Node29 -->
<g id="edge39_Node000028_Node000029" class="edge">
<title>Node28&#45;&gt;Node29</title>
<g id="a_edge39_Node000028_Node000029"><a xlink:title=" ">
<path fill="none" stroke="#63b8ff" d="M378.62,-21.93C403.61,-19.4 431.66,-16.55 454.59,-14.22"/>
<polygon fill="#63b8ff" stroke="#63b8ff" points="455.14,-17.68 464.73,-13.18 454.43,-10.71 455.14,-17.68"/>
</a>
</g>
</g>
<!-- Node30 -->
<g id="Node000030" class="node">
<title>Node30</title>
<g id="a_Node000030"><a xlink:href="../../db/d17/led_8cpp.xhtml#ac69de171075f82d3c3f75385a54ce10a" target="_top" xlink:title="Allume la LED en blanc.">
<polygon fill="white" stroke="#666666" points="555,-56 449,-56 449,-37 555,-37 555,-56"/>
<text text-anchor="middle" x="502" y="-44" font-family="Helvetica,sans-Serif" font-size="10.00">switchLEDToWhite</text>
</a>
</g>
</g>
<!-- Node28&#45;&gt;Node30 -->
<g id="edge42_Node000028_Node000030" class="edge">
<title>Node28&#45;&gt;Node30</title>
<g id="a_edge42_Node000028_Node000030"><a xlink:title=" ">
<path fill="none" stroke="#63b8ff" d="M378.62,-34.72C398.04,-36.59 419.3,-38.64 438.57,-40.49"/>
<polygon fill="#63b8ff" stroke="#63b8ff" points="438.46,-44 448.75,-41.47 439.13,-37.03 438.46,-44"/>
</a>
</g>
</g>
<!-- Node29&#45;&gt;Node7 -->
<g id="edge40_Node000029_Node000007" class="edge">
<title>Node29&#45;&gt;Node7</title>
<g id="a_edge40_Node000029_Node000007"><a xlink:title=" ">
<path fill="none" stroke="#63b8ff" d="M539.14,-18.27C551.18,-21.2 564.67,-24.49 577,-27.5 654.8,-46.52 678.61,-38.43 752,-70.5 843.72,-110.58 862.96,-130.6 940,-194.5 974.9,-223.45 1010.58,-262.87 1029.89,-285.2"/>
<polygon fill="#63b8ff" stroke="#63b8ff" points="1027.29,-287.55 1036.46,-292.86 1032.61,-282.99 1027.29,-287.55"/>
</a>
</g>
</g>
<!-- Node29&#45;&gt;Node27 -->
<g id="edge41_Node000029_Node000027" class="edge">
<title>Node29&#45;&gt;Node27</title>
<g id="a_edge41_Node000029_Node000027"><a xlink:title=" ">
<path fill="none" stroke="#63b8ff" d="M539.35,-13.78C551.92,-16.41 565.69,-20.65 577,-27.5 619.31,-53.12 653.76,-101.5 670.51,-128"/>
<polygon fill="#63b8ff" stroke="#63b8ff" points="667.63,-130.01 675.85,-136.69 673.59,-126.34 667.63,-130.01"/>
</a>
</g>
</g>
<!-- Node30&#45;&gt;Node17 -->
<g id="edge43_Node000030_Node000017" class="edge">
<title>Node30&#45;&gt;Node17</title>
<g id="a_edge43_Node000030_Node000017"><a xlink:title=" ">
<path fill="none" stroke="#63b8ff" d="M547.57,-56.08C598.87,-68.19 684.7,-91.88 752,-127.5 788.33,-146.73 824.96,-177.94 845.73,-197"/>
<polygon fill="#63b8ff" stroke="#63b8ff" points="843.42,-199.64 853.12,-203.9 848.2,-194.52 843.42,-199.64"/>
</a>
</g>
</g>
<!-- Node31&#45;&gt;Node13 -->
<g id="edge45_Node000031_Node000013" class="edge">
<title>Node31&#45;&gt;Node13</title>
<g id="a_edge45_Node000031_Node000013"><a xlink:title=" ">
<path fill="none" stroke="#63b8ff" d="M327.55,-172.13C343.09,-183.26 369.22,-202.26 391,-219.5 423.72,-245.4 460.51,-277.04 482.17,-295.94"/>
<polygon fill="#63b8ff" stroke="#63b8ff" points="480.13,-298.8 489.96,-302.75 484.74,-293.53 480.13,-298.8"/>
</a>
</g>
</g>
<!-- Node31&#45;&gt;Node16 -->
<g id="edge46_Node000031_Node000016" class="edge">
<title>Node31&#45;&gt;Node16</title>
<g id="a_edge46_Node000031_Node000016"><a xlink:title=" ">
<path fill="none" stroke="#63b8ff" d="M372.23,-165.83C440.77,-169.74 553.92,-176.21 622.7,-180.14"/>
<polygon fill="#63b8ff" stroke="#63b8ff" points="622.75,-183.65 632.93,-180.72 623.15,-176.66 622.75,-183.65"/>
</a>
</g>
</g>
<!-- Node31&#45;&gt;Node27 -->
<g id="edge47_Node000031_Node000027" class="edge">
<title>Node31&#45;&gt;Node27</title>
<g id="a_edge47_Node000031_Node000027"><a xlink:title=" ">
<path fill="none" stroke="#63b8ff" d="M328.57,-152.9C349.37,-139.82 389.25,-117.06 427,-108.5 492.02,-93.76 511.34,-96.93 577,-108.5 603.3,-113.13 631.7,-123.86 652.24,-132.74"/>
<polygon fill="#63b8ff" stroke="#63b8ff" points="651.09,-136.06 661.65,-136.91 653.93,-129.66 651.09,-136.06"/>
</a>
</g>
</g>
<!-- Node32&#45;&gt;Node13 -->
<g id="edge49_Node000032_Node000013" class="edge">
<title>Node32&#45;&gt;Node13</title>
<g id="a_edge49_Node000032_Node000013"><a xlink:title=" ">
<path fill="none" stroke="#63b8ff" d="M362.16,-285.03C389.72,-290.48 424.22,-297.31 451.94,-302.79"/>
<polygon fill="#63b8ff" stroke="#63b8ff" points="451.33,-306.24 461.82,-304.75 452.69,-299.37 451.33,-306.24"/>
</a>
</g>
</g>
<!-- Node32&#45;&gt;Node24 -->
<g id="edge50_Node000032_Node000024" class="edge">
<title>Node32&#45;&gt;Node24</title>
<g id="a_edge50_Node000032_Node000024"><a xlink:title=" ">
<path fill="none" stroke="#63b8ff" d="M368.9,-285.02C376.6,-287.49 384.19,-290.6 391,-294.5 410.91,-305.91 406.95,-320.34 427,-331.5 486.65,-364.69 510.4,-349.53 577,-364.5 594.46,-368.43 613.54,-372.79 630.57,-376.7"/>
<polygon fill="#63b8ff" stroke="#63b8ff" points="629.79,-380.12 640.32,-378.95 631.37,-373.3 629.79,-380.12"/>
</a>
</g>
</g>
<!-- Node32&#45;&gt;Node27 -->
<g id="edge51_Node000032_Node000027" class="edge">
<title>Node32&#45;&gt;Node27</title>
<g id="a_edge51_Node000032_Node000027"><a xlink:title=" ">
<path fill="none" stroke="#63b8ff" d="M370.83,-265.95C377.84,-263.7 384.74,-260.93 391,-257.5 410.58,-246.79 407.52,-233.39 427,-222.5 487.03,-188.94 513.07,-209.86 577,-184.5 594.01,-177.75 596.02,-171.32 613,-164.5 618.06,-162.47 623.43,-160.6 628.84,-158.89"/>
<polygon fill="#63b8ff" stroke="#63b8ff" points="629.98,-162.21 638.58,-156.02 627.99,-155.5 629.98,-162.21"/>
</a>
</g>
</g>
<!-- Node33&#45;&gt;Node29 -->
<g id="edge53_Node000033_Node000029" class="edge">
<title>Node33&#45;&gt;Node29</title>
<g id="a_edge53_Node000033_Node000029"><a xlink:title=" ">
<path fill="none" stroke="#63b8ff" d="M360.57,-55.95C370.74,-53.33 381.35,-50.17 391,-46.5 407.91,-40.06 410.08,-33.91 427,-27.5 435.81,-24.16 445.44,-21.29 454.76,-18.88"/>
<polygon fill="#63b8ff" stroke="#63b8ff" points="455.82,-22.23 464.7,-16.45 454.16,-15.43 455.82,-22.23"/>
</a>
</g>
</g>
<!-- Node33&#45;&gt;Node30 -->
<g id="edge54_Node000033_Node000030" class="edge">
<title>Node33&#45;&gt;Node30</title>
<g id="a_edge54_Node000033_Node000030"><a xlink:title=" ">
<path fill="none" stroke="#63b8ff" d="M375.75,-59.23C395.95,-57.17 418.4,-54.89 438.65,-52.84"/>
<polygon fill="#63b8ff" stroke="#63b8ff" points="439.11,-56.31 448.7,-51.81 438.4,-49.34 439.11,-56.31"/>
</a>
</g>
</g>
<!-- Node34&#45;&gt;Node13 -->
<g id="edge56_Node000034_Node000013" class="edge">
<title>Node34&#45;&gt;Node13</title>
<g id="a_edge56_Node000034_Node000013"><a xlink:title=" ">
<path fill="none" stroke="#63b8ff" d="M366.98,-248.07C375.26,-250.55 383.54,-253.65 391,-257.5 409.76,-267.18 408.6,-278.15 427,-288.5 434.78,-292.88 443.48,-296.59 452.11,-299.7"/>
<polygon fill="#63b8ff" stroke="#63b8ff" points="451.16,-303.07 461.75,-302.95 453.39,-296.44 451.16,-303.07"/>
</a>
</g>
</g>
<!-- Node34&#45;&gt;Node26 -->
<g id="edge58_Node000034_Node000026" class="edge">
<title>Node34&#45;&gt;Node26</title>
<g id="a_edge58_Node000034_Node000026"><a xlink:title=" ">
<path fill="none" stroke="#63b8ff" d="M376.76,-235.43C444.13,-232.13 550.56,-226.91 618.16,-223.6"/>
<polygon fill="#63b8ff" stroke="#63b8ff" points="618.43,-227.09 628.25,-223.11 618.09,-220.1 618.43,-227.09"/>
</a>
</g>
</g>
<!-- Node34&#45;&gt;Node27 -->
<g id="edge57_Node000034_Node000027" class="edge">
<title>Node34&#45;&gt;Node27</title>
<g id="a_edge57_Node000034_Node000027"><a xlink:title=" ">
<path fill="none" stroke="#63b8ff" d="M330.22,-228.84C351.62,-216.54 390.82,-195.57 427,-184.5 492.88,-164.34 571.74,-154.68 624.04,-150.18"/>
<polygon fill="#63b8ff" stroke="#63b8ff" points="624.46,-153.66 634.14,-149.35 623.88,-146.68 624.46,-153.66"/>
</a>
</g>
</g>
</g>
</svg>

<g id="navigator" transform="translate(0 0)" fill="#404254">
  <rect fill="#f2f5e9" fill-opacity="0.5" stroke="#606060" stroke-width=".5" x="0" y="0" width="60" height="60"/>
  <use id="zoomplus" xlink:href="#zoomPlus" x="17" y="9" onmousedown="handleZoom(evt,'in')"/>
  <use id="zoomminus" xlink:href="#zoomMin" x="42" y="9" onmousedown="handleZoom(evt,'out')"/>
  <use id="reset" xlink:href="#resetDef" x="30" y="36" onmousedown="handleReset()"/>
   <use id="arrowup" xlink:href="#arrowUp" x="0" y="0" onmousedown="handlePan(0,-1)"/>
  <use id="arrowright" xlink:href="#arrowRight" x="0" y="0" onmousedown="handlePan(1,0)"/>
  <use id="arrowdown" xlink:href="#arrowDown" x="0" y="0" onmousedown="handlePan(0,1)"/>
  <use id="arrowleft" xlink:href="#arrowLeft" x="0" y="0" onmousedown="handlePan(-1,0)"/>
</g>
<svg viewBox="0 0 15 15" width="100%" height="30px" preserveAspectRatio="xMaxYMin meet">
 <g id="arrow_out" transform="scale(0.3 0.3)">
  <a xlink:href="bme_8hpp_a60b50a3dd4d18262c0376da53233f071_cgraph_org.svg" target="_base">
   <rect id="button" ry="5" rx="5" y="6" x="6" height="38" width="38"
        fill="#f2f5e9" fill-opacity="0.5" stroke="#606060" stroke-width="1.0"/>
   <path id="arrow"
     d="M 11.500037,31.436501 C 11.940474,20.09759 22.043105,11.32322 32.158766,21.979434 L 37.068811,17.246167 C 37.068811,17.246167 37.088388,32 37.088388,32 L 22.160133,31.978069 C 22.160133,31.978069 26.997745,27.140456 26.997745,27.140456 C 18.528582,18.264221 13.291696,25.230495 11.500037,31.436501 z"
     style="fill:#404040;"/>
  </a>
 </g>
</svg>

<style type='text/css'>
<![CDATA[
[data-mouse-over-selected='false'] { opacity: 0.7; }
[data-mouse-over-selected='true']  { opacity: 1.0; }
]]>
</style>
<script type="application/ecmascript"><![CDATA[
document.addEventListener('DOMContentLoaded', (event) => {
  highlightEdges();
  highlightAdjacentNodes();
});
]]></script>
</svg>
