<?xml version="1.0" encoding="UTF-8" standalone="no"?>
<!DOCTYPE svg PUBLIC "-//W3C//DTD SVG 1.1//EN"
 "http://www.w3.org/Graphics/SVG/1.1/DTD/svg11.dtd">
<!-- Generated by graphviz version 2.43.0 (0)
 -->
<!-- Title: humidity.hpp Pages: 1 -->
<!--zoomable 412 -->

<svg id="main" version="1.1" xmlns="http://www.w3.org/2000/svg" xmlns:xlink="http://www.w3.org/1999/xlink" xml:space="preserve" onload="init(evt)">
<style type="text/css"><![CDATA[
.node, .edge {opacity: 0.7;}
.node.selected, .edge.selected {opacity: 1;}
.edge:hover path { stroke: red; }
.edge:hover polygon { stroke: red; fill: red; }
]]></style>

<defs>
  <circle id="rim" cx="0" cy="0" r="7"/>
  <circle id="rim2" cx="0" cy="0" r="3.5"/>
  <g id="zoomPlus">
    <use xlink:href="#rim" fill="#404040"><set attributeName="fill" to="#808080" begin="zoomplus.mouseover" end="zoomplus.mouseout"/></use>
    <path d="M-4,0h8M0,-4v8" fill="none" stroke="white" stroke-width="1.5" pointer-events="none"/>
  </g>
  <g id="zoomMin">
    <use xlink:href="#rim" fill="#404040"><set attributeName="fill" to="#808080" begin="zoomminus.mouseover" end="zoomminus.mouseout"/></use>
    <path d="M-4,0h8" fill="none" stroke="white" stroke-width="1.5" pointer-events="none"/>
  </g>
  <g id="arrowUp" transform="translate(30 24)">
    <use xlink:href="#rim"/>
    <path pointer-events="none" fill="none" stroke="white" stroke-width="1.5" d="M0,-3.0v7 M-2.5,-0.5L0,-3.0L2.5,-0.5"/>
  </g>
  <g id="arrowRight" transform="rotate(90) translate(36 -43)">
    <use xlink:href="#rim"/>
    <path pointer-events="none" fill="none" stroke="white" stroke-width="1.5" d="M0,-3.0v7 M-2.5,-0.5L0,-3.0L2.5,-0.5"/>
  </g>
  <g id="arrowDown" transform="rotate(180) translate(-30 -48)">
    <use xlink:href="#rim"/>
    <path pointer-events="none" fill="none" stroke="white" stroke-width="1.5" d="M0,-3.0v7 M-2.5,-0.5L0,-3.0L2.5,-0.5"/>
  </g>
  <g id="arrowLeft" transform="rotate(270) translate(-36 17)">
    <use xlink:href="#rim"/>
    <path pointer-events="none" fill="none" stroke="white" stroke-width="1.5" d="M0,-3.0v7 M-2.5,-0.5L0,-3.0L2.5,-0.5"/>
  </g>
  <g id="resetDef">
    <use xlink:href="#rim2" fill="#404040"><set attributeName="fill" to="#808080" begin="reset.mouseover" end="reset.mouseout"/></use>
  </g>
</defs>
<script type="application/ecmascript">
var viewWidth = 1332;
var viewHeight = 412;
var sectionId = 'dynsection-1';
</script>
<script type="application/ecmascript" xlink:href="../../svg.min.js"/>
<svg id="graph" class="graph">
<g id="viewport">
<title>humidity.hpp</title>
<!-- Node1 -->
<g id="Node000001" class="node">
<title>Node1</title>
<g id="a_Node000001"><a xlink:title=" ">
<polygon fill="#999999" stroke="#666666" points="697.45,-404 617.45,-404 617.45,-385 697.45,-385 697.45,-404"/>
<text text-anchor="middle" x="657.45" y="-392" font-family="Helvetica,sans-Serif" font-size="10.00">humidity.hpp</text>
</a>
</g>
</g>
<!-- Node2 -->
<g id="Node000002" class="node">
<title>Node2</title>
<g id="a_Node000002"><a xlink:href="../../dd/d8e/humidity_8cpp.xhtml" target="_top" xlink:title=" ">
<polygon fill="white" stroke="#666666" points="608.95,-349 529.95,-349 529.95,-330 608.95,-330 608.95,-349"/>
<text text-anchor="middle" x="569.45" y="-337" font-family="Helvetica,sans-Serif" font-size="10.00">humidity.cpp</text>
</a>
</g>
</g>
<!-- Node1&#45;&gt;Node2 -->
<g id="edge1_Node000001_Node000002" class="edge">
<title>Node1&#45;&gt;Node2</title>
<g id="a_edge1_Node000001_Node000002"><a xlink:title=" ">
<path fill="none" stroke="#63b8ff" d="M634.53,-379.7C618.5,-370.04 597.58,-357.44 583.85,-349.17"/>
<polygon fill="#63b8ff" stroke="#63b8ff" points="632.94,-382.82 643.31,-384.98 636.55,-376.83 632.94,-382.82"/>
</a>
</g>
</g>
<!-- Node3 -->
<g id="Node000003" class="node">
<title>Node3</title>
<g id="a_Node000003"><a xlink:href="../../d0/d00/main_8hpp.xhtml" target="_top" xlink:title=" ">
<polygon fill="white" stroke="#666666" points="688.45,-349 626.45,-349 626.45,-330 688.45,-330 688.45,-349"/>
<text text-anchor="middle" x="657.45" y="-337" font-family="Helvetica,sans-Serif" font-size="10.00">main.hpp</text>
</a>
</g>
</g>
<!-- Node1&#45;&gt;Node3 -->
<g id="edge2_Node000001_Node000003" class="edge">
<title>Node1&#45;&gt;Node3</title>
<g id="a_edge2_Node000001_Node000003"><a xlink:title=" ">
<path fill="none" stroke="#63b8ff" d="M650.96,-374.66C650.36,-365.93 650.81,-355.99 652.32,-349.09"/>
<polygon fill="#63b8ff" stroke="#63b8ff" points="647.51,-375.29 652.28,-384.75 654.45,-374.38 647.51,-375.29"/>
</a>
</g>
</g>
<!-- Node3&#45;&gt;Node1 -->
<g id="edge24_Node000003_Node000001" class="edge">
<title>Node3&#45;&gt;Node1</title>
<g id="a_edge24_Node000003_Node000001"><a xlink:title=" ">
<path fill="none" stroke="#63b8ff" d="M663.93,-359.13C664.55,-367.85 664.11,-377.8 662.62,-384.75"/>
<polygon fill="#63b8ff" stroke="#63b8ff" points="667.38,-358.53 662.58,-349.09 660.44,-359.47 667.38,-358.53"/>
</a>
</g>
</g>
<!-- Node4 -->
<g id="Node000004" class="node">
<title>Node4</title>
<g id="a_Node000004"><a xlink:href="../../db/d0c/acquisition_8hpp.xhtml" target="_top" xlink:title=" ">
<polygon fill="white" stroke="#666666" points="201.95,-294 110.95,-294 110.95,-275 201.95,-275 201.95,-294"/>
<text text-anchor="middle" x="156.45" y="-282" font-family="Helvetica,sans-Serif" font-size="10.00">acquisition.hpp</text>
</a>
</g>
</g>
<!-- Node3&#45;&gt;Node4 -->
<g id="edge3_Node000003_Node000004" class="edge">
<title>Node3&#45;&gt;Node4</title>
<g id="a_edge3_Node000003_Node000004"><a xlink:title=" ">
<path fill="none" stroke="#63b8ff" d="M616.15,-329.98C438.79,-303.75 390.99,-314.18 216.45,-294 211.75,-293.46 206.84,-292.84 201.96,-292.2"/>
<polygon fill="#63b8ff" stroke="#63b8ff" points="615.66,-333.44 626.07,-331.46 616.7,-326.52 615.66,-333.44"/>
</a>
</g>
</g>
<!-- Node6 -->
<g id="Node000006" class="node">
<title>Node6</title>
<g id="a_Node000006"><a xlink:href="../../d8/dc9/maintenance_8hpp.xhtml" target="_top" xlink:title=" ">
<polygon fill="white" stroke="#666666" points="151.95,-184 50.95,-184 50.95,-165 151.95,-165 151.95,-184"/>
<text text-anchor="middle" x="101.45" y="-172" font-family="Helvetica,sans-Serif" font-size="10.00">maintenance.hpp</text>
</a>
</g>
</g>
<!-- Node3&#45;&gt;Node6 -->
<g id="edge45_Node000003_Node000006" class="edge">
<title>Node3&#45;&gt;Node6</title>
<g id="a_edge45_Node000003_Node000006"><a xlink:title=" ">
<path fill="none" stroke="#63b8ff" d="M616.49,-331.29C613.76,-330.81 611.06,-330.37 608.45,-330 380.79,-298.03 310.72,-366.17 92.45,-294 44.57,-278.17 -19.76,-263.08 6.45,-220 17.55,-201.76 38.8,-190.67 58.5,-184.12"/>
<polygon fill="#63b8ff" stroke="#63b8ff" points="615.94,-334.75 626.42,-333.18 617.25,-327.87 615.94,-334.75"/>
</a>
</g>
</g>
<!-- Node8 -->
<g id="Node000008" class="node">
<title>Node8</title>
<g id="a_Node000008"><a xlink:href="../../d5/d98/sd_8hpp.xhtml" target="_top" xlink:title=" ">
<polygon fill="white" stroke="#666666" points="257.95,-239 208.95,-239 208.95,-220 257.95,-220 257.95,-239"/>
<text text-anchor="middle" x="233.45" y="-227" font-family="Helvetica,sans-Serif" font-size="10.00">sd.hpp</text>
</a>
</g>
</g>
<!-- Node3&#45;&gt;Node8 -->
<g id="edge57_Node000003_Node000008" class="edge">
<title>Node3&#45;&gt;Node8</title>
<g id="a_edge57_Node000003_Node000008"><a xlink:title=" ">
<path fill="none" stroke="#63b8ff" d="M616.47,-331.39C613.75,-330.88 611.06,-330.41 608.45,-330 532.31,-317.97 328.68,-335.08 263.45,-294 243.09,-281.18 231.73,-253.47 230.49,-239.27"/>
<polygon fill="#63b8ff" stroke="#63b8ff" points="615.91,-334.84 626.4,-333.32 617.25,-327.97 615.91,-334.84"/>
</a>
</g>
</g>
<!-- Node10 -->
<g id="Node000010" class="node">
<title>Node10</title>
<g id="a_Node000010"><a xlink:href="../../df/d04/standard_8hpp.xhtml" target="_top" xlink:title=" ">
<polygon fill="white" stroke="#666666" points="335.45,-129 255.45,-129 255.45,-110 335.45,-110 335.45,-129"/>
<text text-anchor="middle" x="295.45" y="-117" font-family="Helvetica,sans-Serif" font-size="10.00">standard.hpp</text>
</a>
</g>
</g>
<!-- Node3&#45;&gt;Node10 -->
<g id="edge59_Node000003_Node000010" class="edge">
<title>Node3&#45;&gt;Node10</title>
<g id="a_edge59_Node000003_Node000010"><a xlink:title=" ">
<path fill="none" stroke="#63b8ff" d="M616.45,-331.5C613.73,-330.97 611.05,-330.46 608.45,-330 499.25,-310.46 458.58,-347.59 361.45,-294 299.39,-259.76 288.66,-159.78 292.23,-129.38"/>
<polygon fill="#63b8ff" stroke="#63b8ff" points="615.88,-334.96 626.37,-333.48 617.25,-328.09 615.88,-334.96"/>
</a>
</g>
</g>
<!-- Node12 -->
<g id="Node000012" class="node">
<title>Node12</title>
<g id="a_Node000012"><a xlink:href="../../de/d53/brightness_8hpp.xhtml" target="_top" xlink:title=" ">
<polygon fill="white" stroke="#666666" points="774.95,-294 685.95,-294 685.95,-275 774.95,-275 774.95,-294"/>
<text text-anchor="middle" x="730.45" y="-282" font-family="Helvetica,sans-Serif" font-size="10.00">brightness.hpp</text>
</a>
</g>
</g>
<!-- Node3&#45;&gt;Node12 -->
<g id="edge15_Node000003_Node000012" class="edge">
<title>Node3&#45;&gt;Node12</title>
<g id="a_edge15_Node000003_Node000012"><a xlink:title=" ">
<path fill="none" stroke="#63b8ff" d="M671.83,-323.6C683.84,-314.11 700.66,-302.13 713.36,-294.17"/>
<polygon fill="#63b8ff" stroke="#63b8ff" points="669.57,-320.93 664.06,-329.98 674.01,-326.34 669.57,-320.93"/>
</a>
</g>
</g>
<!-- Node14 -->
<g id="Node000014" class="node">
<title>Node14</title>
<g id="a_Node000014"><a xlink:href="../../dc/d0a/configuration_8hpp.xhtml" target="_top" xlink:title=" ">
<polygon fill="white" stroke="#666666" points="893.95,-294 792.95,-294 792.95,-275 893.95,-275 893.95,-294"/>
<text text-anchor="middle" x="843.45" y="-282" font-family="Helvetica,sans-Serif" font-size="10.00">configuration.hpp</text>
</a>
</g>
</g>
<!-- Node3&#45;&gt;Node14 -->
<g id="edge18_Node000003_Node000014" class="edge">
<title>Node3&#45;&gt;Node14</title>
<g id="a_edge18_Node000003_Node000014"><a xlink:title=" ">
<path fill="none" stroke="#63b8ff" d="M691.94,-327.06C725.1,-317.15 774.79,-303.04 808.2,-294.08"/>
<polygon fill="#63b8ff" stroke="#63b8ff" points="690.78,-323.75 682.22,-329.98 692.8,-330.45 690.78,-323.75"/>
</a>
</g>
</g>
<!-- Node16 -->
<g id="Node000016" class="node">
<title>Node16</title>
<g id="a_Node000016"><a xlink:href="../../d0/d42/economy_8hpp.xhtml" target="_top" xlink:title=" ">
<polygon fill="white" stroke="#666666" points="1073.95,-294 992.95,-294 992.95,-275 1073.95,-275 1073.95,-294"/>
<text text-anchor="middle" x="1033.45" y="-282" font-family="Helvetica,sans-Serif" font-size="10.00">economy.hpp</text>
</a>
</g>
</g>
<!-- Node3&#45;&gt;Node16 -->
<g id="edge21_Node000003_Node000016" class="edge">
<title>Node3&#45;&gt;Node16</title>
<g id="a_edge21_Node000003_Node000016"><a xlink:title=" ">
<path fill="none" stroke="#63b8ff" d="M698.54,-332.55C759.11,-324.44 875.44,-309.17 974.45,-294 980.37,-293.09 986.67,-292.07 992.9,-291.05"/>
<polygon fill="#63b8ff" stroke="#63b8ff" points="698.04,-329.09 688.6,-333.89 698.97,-336.02 698.04,-329.09"/>
</a>
</g>
</g>
<!-- Node18 -->
<g id="Node000018" class="node">
<title>Node18</title>
<g id="a_Node000018"><a xlink:href="../../db/d42/interpreter_8hpp.xhtml" target="_top" xlink:title=" ">
<polygon fill="white" stroke="#666666" points="468.95,-294 379.95,-294 379.95,-275 468.95,-275 468.95,-294"/>
<text text-anchor="middle" x="424.45" y="-282" font-family="Helvetica,sans-Serif" font-size="10.00">interpreter.hpp</text>
</a>
</g>
</g>
<!-- Node3&#45;&gt;Node18 -->
<g id="edge25_Node000003_Node000018" class="edge">
<title>Node3&#45;&gt;Node18</title>
<g id="a_edge25_Node000003_Node000018"><a xlink:title=" ">
<path fill="none" stroke="#63b8ff" d="M616.01,-329.07C572.31,-319.13 504.05,-303.61 461.91,-294.02"/>
<polygon fill="#63b8ff" stroke="#63b8ff" points="615.5,-332.55 626.03,-331.35 617.05,-325.72 615.5,-332.55"/>
</a>
</g>
</g>
<!-- Node20 -->
<g id="Node000020" class="node">
<title>Node20</title>
<g id="a_Node000020"><a xlink:href="../../d1/dc5/serial_8hpp.xhtml" target="_top" xlink:title=" ">
<polygon fill="white" stroke="#666666" points="503.95,-239 438.95,-239 438.95,-220 503.95,-220 503.95,-239"/>
<text text-anchor="middle" x="471.45" y="-227" font-family="Helvetica,sans-Serif" font-size="10.00">serial.hpp</text>
</a>
</g>
</g>
<!-- Node3&#45;&gt;Node20 -->
<g id="edge58_Node000003_Node000020" class="edge">
<title>Node3&#45;&gt;Node20</title>
<g id="a_edge58_Node000003_Node000020"><a xlink:title=" ">
<path fill="none" stroke="#63b8ff" d="M617.43,-326.72C594.81,-319.14 566.52,-308.06 543.45,-294 517.55,-278.21 492.08,-252.78 479.53,-239.39"/>
<polygon fill="#63b8ff" stroke="#63b8ff" points="616.47,-330.09 627.06,-329.86 618.64,-323.43 616.47,-330.09"/>
</a>
</g>
</g>
<!-- Node24 -->
<g id="Node000024" class="node">
<title>Node24</title>
<g id="a_Node000024"><a xlink:href="../../d5/ddb/pressure_8hpp.xhtml" target="_top" xlink:title=" ">
<polygon fill="white" stroke="#666666" points="1130.45,-74 1050.45,-74 1050.45,-55 1130.45,-55 1130.45,-74"/>
<text text-anchor="middle" x="1090.45" y="-62" font-family="Helvetica,sans-Serif" font-size="10.00">pressure.hpp</text>
</a>
</g>
</g>
<!-- Node3&#45;&gt;Node24 -->
<g id="edge56_Node000003_Node000024" class="edge">
<title>Node3&#45;&gt;Node24</title>
<g id="a_edge56_Node000003_Node000024"><a xlink:title=" ">
<path fill="none" stroke="#63b8ff" d="M698.64,-339.35C791.86,-340.28 1014.85,-337.44 1074.45,-294 1099.38,-275.83 1102.45,-261.34 1102.45,-230.5 1102.45,-230.5 1102.45,-230.5 1102.45,-173.5 1102.45,-135.87 1090.01,-92.2 1088.38,-74.07"/>
<polygon fill="#63b8ff" stroke="#63b8ff" points="698.5,-335.85 688.46,-339.23 698.42,-342.85 698.5,-335.85"/>
</a>
</g>
</g>
<!-- Node26 -->
<g id="Node000026" class="node">
<title>Node26</title>
<g id="a_Node000026"><a xlink:href="../../dc/d32/temperature_8hpp.xhtml" target="_top" xlink:title=" ">
<polygon fill="white" stroke="#666666" points="1324.45,-74 1226.45,-74 1226.45,-55 1324.45,-55 1324.45,-74"/>
<text text-anchor="middle" x="1275.45" y="-62" font-family="Helvetica,sans-Serif" font-size="10.00">temperature.hpp</text>
</a>
</g>
</g>
<!-- Node3&#45;&gt;Node26 -->
<g id="edge60_Node000003_Node000026" class="edge">
<title>Node3&#45;&gt;Node26</title>
<g id="a_edge60_Node000003_Node000026"><a xlink:title=" ">
<path fill="none" stroke="#63b8ff" d="M698.67,-339.39C778.91,-339.81 960.41,-335.3 1106.45,-294 1168.33,-276.5 1236.45,-294.8 1236.45,-230.5 1236.45,-230.5 1236.45,-230.5 1236.45,-173.5 1236.45,-135.36 1254.04,-92.31 1266.32,-74.23"/>
<polygon fill="#63b8ff" stroke="#63b8ff" points="698.52,-335.89 688.49,-339.31 698.46,-342.89 698.52,-335.89"/>
</a>
</g>
</g>
<!-- Node32 -->
<g id="Node000032" class="node">
<title>Node32</title>
<g id="a_Node000032"><a xlink:href="../../de/dfb/src_2main_8cpp.xhtml" target="_top" xlink:title=" ">
<polygon fill="white" stroke="#666666" points="974.45,-294 912.45,-294 912.45,-275 974.45,-275 974.45,-294"/>
<text text-anchor="middle" x="943.45" y="-282" font-family="Helvetica,sans-Serif" font-size="10.00">main.cpp</text>
</a>
</g>
</g>
<!-- Node3&#45;&gt;Node32 -->
<g id="edge44_Node000003_Node000032" class="edge">
<title>Node3&#45;&gt;Node32</title>
<g id="a_edge44_Node000003_Node000032"><a xlink:title=" ">
<path fill="none" stroke="#63b8ff" d="M698.45,-331.48C747.34,-323.01 831.49,-308.15 903.45,-294 906.24,-293.45 909.13,-292.87 912.03,-292.27"/>
<polygon fill="#63b8ff" stroke="#63b8ff" points="697.83,-328.03 688.57,-333.18 699.02,-334.93 697.83,-328.03"/>
</a>
</g>
</g>
<!-- Node33 -->
<g id="Node000033" class="node">
<title>Node33</title>
<g id="a_Node000033"><a xlink:href="../../d1/dfa/mode_8hpp.xhtml" target="_top" xlink:title=" ">
<polygon fill="white" stroke="#666666" points="628.95,-294 563.95,-294 563.95,-275 628.95,-275 628.95,-294"/>
<text text-anchor="middle" x="596.45" y="-282" font-family="Helvetica,sans-Serif" font-size="10.00">mode.hpp</text>
</a>
</g>
</g>
<!-- Node3&#45;&gt;Node33 -->
<g id="edge46_Node000003_Node000033" class="edge">
<title>Node3&#45;&gt;Node33</title>
<g id="a_edge46_Node000003_Node000033"><a xlink:title=" ">
<path fill="none" stroke="#63b8ff" d="M634.51,-323.88C622.43,-314.34 608.79,-302.21 601.28,-294.17"/>
<polygon fill="#63b8ff" stroke="#63b8ff" points="632.46,-326.71 642.53,-329.98 636.7,-321.14 632.46,-326.71"/>
</a>
</g>
</g>
<!-- Node5 -->
<g id="Node000005" class="node">
<title>Node5</title>
<g id="a_Node000005"><a xlink:href="../../d6/d30/acquisition_8cpp.xhtml" target="_top" xlink:title=" ">
<polygon fill="white" stroke="#666666" points="114.45,-239 24.45,-239 24.45,-220 114.45,-220 114.45,-239"/>
<text text-anchor="middle" x="69.45" y="-227" font-family="Helvetica,sans-Serif" font-size="10.00">acquisition.cpp</text>
</a>
</g>
</g>
<!-- Node4&#45;&gt;Node5 -->
<g id="edge4_Node000004_Node000005" class="edge">
<title>Node4&#45;&gt;Node5</title>
<g id="a_edge4_Node000004_Node000005"><a xlink:title=" ">
<path fill="none" stroke="#63b8ff" d="M133.79,-269.7C117.94,-260.04 97.26,-247.44 83.68,-239.17"/>
<polygon fill="#63b8ff" stroke="#63b8ff" points="132.11,-272.77 142.47,-274.98 135.75,-266.79 132.11,-272.77"/>
</a>
</g>
</g>
<!-- Node4&#45;&gt;Node6 -->
<g id="edge5_Node000004_Node000006" class="edge">
<title>Node4&#45;&gt;Node6</title>
<g id="a_edge5_Node000004_Node000006"><a xlink:title=" ">
<path fill="none" stroke="#63b8ff" d="M147.25,-265.44C135.28,-241.92 114.81,-201.73 105.86,-184.16"/>
<polygon fill="#63b8ff" stroke="#63b8ff" points="144.29,-267.34 151.95,-274.66 150.53,-264.16 144.29,-267.34"/>
</a>
</g>
</g>
<!-- Node4&#45;&gt;Node8 -->
<g id="edge8_Node000004_Node000008" class="edge">
<title>Node4&#45;&gt;Node8</title>
<g id="a_edge8_Node000004_Node000008"><a xlink:title=" ">
<path fill="none" stroke="#63b8ff" d="M177.3,-269.15C191.21,-259.57 209.06,-247.29 220.85,-239.17"/>
<polygon fill="#63b8ff" stroke="#63b8ff" points="175.07,-266.43 168.82,-274.98 179.04,-272.2 175.07,-266.43"/>
</a>
</g>
</g>
<!-- Node4&#45;&gt;Node10 -->
<g id="edge12_Node000004_Node000010" class="edge">
<title>Node4&#45;&gt;Node10</title>
<g id="a_edge12_Node000004_Node000010"><a xlink:title=" ">
<path fill="none" stroke="#63b8ff" d="M158.92,-264.73C163.19,-239.24 174.15,-193.56 200.45,-165 216.86,-147.18 241.86,-135.86 262.09,-129.11"/>
<polygon fill="#63b8ff" stroke="#63b8ff" points="155.42,-264.49 157.41,-274.9 162.35,-265.52 155.42,-264.49"/>
</a>
</g>
</g>
<!-- Node6&#45;&gt;Node3 -->
<g id="edge6_Node000006_Node000003" class="edge">
<title>Node6&#45;&gt;Node3</title>
<g id="a_edge6_Node000006_Node000003"><a xlink:title=" ">
<path fill="none" stroke="#63b8ff" d="M65.02,-187.91C49.79,-194.69 33.64,-204.9 24.45,-220 -1.76,-263.08 62.57,-278.17 110.45,-294 328.72,-366.17 398.79,-298.03 626.45,-330 626.59,-330.02 626.73,-330.04 626.87,-330.06"/>
<polygon fill="#63b8ff" stroke="#63b8ff" points="66.37,-191.14 74.3,-184.12 63.72,-184.66 66.37,-191.14"/>
</a>
</g>
</g>
<!-- Node7 -->
<g id="Node000007" class="node">
<title>Node7</title>
<g id="a_Node000007"><a xlink:href="../../d6/d46/maintenance_8cpp.xhtml" target="_top" xlink:title=" ">
<polygon fill="white" stroke="#666666" points="151.95,-129 50.95,-129 50.95,-110 151.95,-110 151.95,-129"/>
<text text-anchor="middle" x="101.45" y="-117" font-family="Helvetica,sans-Serif" font-size="10.00">maintenance.cpp</text>
</a>
</g>
</g>
<!-- Node6&#45;&gt;Node7 -->
<g id="edge7_Node000006_Node000007" class="edge">
<title>Node6&#45;&gt;Node7</title>
<g id="a_edge7_Node000006_Node000007"><a xlink:title=" ">
<path fill="none" stroke="#63b8ff" d="M101.45,-154.66C101.45,-145.93 101.45,-135.99 101.45,-129.09"/>
<polygon fill="#63b8ff" stroke="#63b8ff" points="97.95,-154.75 101.45,-164.75 104.95,-154.75 97.95,-154.75"/>
</a>
</g>
</g>
<!-- Node8&#45;&gt;Node3 -->
<g id="edge9_Node000008_Node000003" class="edge">
<title>Node8&#45;&gt;Node3</title>
<g id="a_edge9_Node000008_Node000003"><a xlink:title=" ">
<path fill="none" stroke="#63b8ff" d="M246.54,-248.49C254.3,-263.33 264.91,-283.58 281.45,-294 346.68,-335.08 550.31,-317.97 626.45,-330 626.59,-330.02 626.73,-330.04 626.87,-330.07"/>
<polygon fill="#63b8ff" stroke="#63b8ff" points="249.4,-246.42 241.58,-239.27 243.24,-249.74 249.4,-246.42"/>
</a>
</g>
</g>
<!-- Node8&#45;&gt;Node6 -->
<g id="edge10_Node000008_Node000006" class="edge">
<title>Node8&#45;&gt;Node6</title>
<g id="a_edge10_Node000008_Node000006"><a xlink:title=" ">
<path fill="none" stroke="#63b8ff" d="M202.72,-216.16C178.28,-206.35 144.71,-192.87 123.04,-184.17"/>
<polygon fill="#63b8ff" stroke="#63b8ff" points="201.66,-219.51 212.24,-219.98 204.27,-213.01 201.66,-219.51"/>
</a>
</g>
</g>
<!-- Node9 -->
<g id="Node000009" class="node">
<title>Node9</title>
<g id="a_Node000009"><a xlink:href="../../d0/ded/sd_8cpp.xhtml" target="_top" xlink:title=" ">
<polygon fill="white" stroke="#666666" points="257.45,-184 209.45,-184 209.45,-165 257.45,-165 257.45,-184"/>
<text text-anchor="middle" x="233.45" y="-172" font-family="Helvetica,sans-Serif" font-size="10.00">sd.cpp</text>
</a>
</g>
</g>
<!-- Node8&#45;&gt;Node9 -->
<g id="edge11_Node000008_Node000009" class="edge">
<title>Node8&#45;&gt;Node9</title>
<g id="a_edge11_Node000008_Node000009"><a xlink:title=" ">
<path fill="none" stroke="#63b8ff" d="M233.45,-209.66C233.45,-200.93 233.45,-190.99 233.45,-184.09"/>
<polygon fill="#63b8ff" stroke="#63b8ff" points="229.95,-209.75 233.45,-219.75 236.95,-209.75 229.95,-209.75"/>
</a>
</g>
</g>
<!-- Node10&#45;&gt;Node3 -->
<g id="edge13_Node000010_Node000003" class="edge">
<title>Node10&#45;&gt;Node3</title>
<g id="a_edge13_Node000010_Node000003"><a xlink:title=" ">
<path fill="none" stroke="#63b8ff" d="M301.59,-139.65C309.12,-177.95 323.21,-262.97 379.45,-294 476.58,-347.59 517.25,-310.46 626.45,-330 626.59,-330.03 626.73,-330.05 626.87,-330.08"/>
<polygon fill="#63b8ff" stroke="#63b8ff" points="304.91,-138.44 299.42,-129.38 298.06,-139.88 304.91,-138.44"/>
</a>
</g>
</g>
<!-- Node11 -->
<g id="Node000011" class="node">
<title>Node11</title>
<g id="a_Node000011"><a xlink:href="../../df/d92/standard_8cpp.xhtml" target="_top" xlink:title=" ">
<polygon fill="white" stroke="#666666" points="335.45,-74 255.45,-74 255.45,-55 335.45,-55 335.45,-74"/>
<text text-anchor="middle" x="295.45" y="-62" font-family="Helvetica,sans-Serif" font-size="10.00">standard.cpp</text>
</a>
</g>
</g>
<!-- Node10&#45;&gt;Node11 -->
<g id="edge14_Node000010_Node000011" class="edge">
<title>Node10&#45;&gt;Node11</title>
<g id="a_edge14_Node000010_Node000011"><a xlink:title=" ">
<path fill="none" stroke="#63b8ff" d="M295.45,-99.66C295.45,-90.93 295.45,-80.99 295.45,-74.09"/>
<polygon fill="#63b8ff" stroke="#63b8ff" points="291.95,-99.75 295.45,-109.75 298.95,-99.75 291.95,-99.75"/>
</a>
</g>
</g>
<!-- Node12&#45;&gt;Node3 -->
<g id="edge17_Node000012_Node000003" class="edge">
<title>Node12&#45;&gt;Node3</title>
<g id="a_edge17_Node000012_Node000003"><a xlink:title=" ">
<path fill="none" stroke="#63b8ff" d="M715.83,-300.58C703.76,-310.11 686.94,-322.07 674.29,-329.98"/>
<polygon fill="#63b8ff" stroke="#63b8ff" points="718.14,-303.22 723.66,-294.17 713.7,-297.8 718.14,-303.22"/>
</a>
</g>
</g>
<!-- Node13 -->
<g id="Node000013" class="node">
<title>Node13</title>
<g id="a_Node000013"><a xlink:href="../../d8/d9d/brightness_8cpp.xhtml" target="_top" xlink:title=" ">
<polygon fill="white" stroke="#666666" points="856.45,-239 768.45,-239 768.45,-220 856.45,-220 856.45,-239"/>
<text text-anchor="middle" x="812.45" y="-227" font-family="Helvetica,sans-Serif" font-size="10.00">brightness.cpp</text>
</a>
</g>
</g>
<!-- Node12&#45;&gt;Node13 -->
<g id="edge16_Node000012_Node000013" class="edge">
<title>Node12&#45;&gt;Node13</title>
<g id="a_edge16_Node000012_Node000013"><a xlink:title=" ">
<path fill="none" stroke="#63b8ff" d="M752.23,-269.42C767.11,-259.81 786.35,-247.37 799.04,-239.17"/>
<polygon fill="#63b8ff" stroke="#63b8ff" points="750.12,-266.62 743.62,-274.98 753.92,-272.5 750.12,-266.62"/>
</a>
</g>
</g>
<!-- Node14&#45;&gt;Node3 -->
<g id="edge20_Node000014_Node000003" class="edge">
<title>Node14&#45;&gt;Node3</title>
<g id="a_edge20_Node000014_Node000003"><a xlink:title=" ">
<path fill="none" stroke="#63b8ff" d="M808.78,-297C774.22,-307.32 721.85,-322.16 688.58,-331.02"/>
<polygon fill="#63b8ff" stroke="#63b8ff" points="809.89,-300.32 818.45,-294.08 807.87,-293.62 809.89,-300.32"/>
</a>
</g>
</g>
<!-- Node15 -->
<g id="Node000015" class="node">
<title>Node15</title>
<g id="a_Node000015"><a xlink:href="../../df/d22/configuration_8cpp.xhtml" target="_top" xlink:title=" ">
<polygon fill="white" stroke="#666666" points="975.95,-239 874.95,-239 874.95,-220 975.95,-220 975.95,-239"/>
<text text-anchor="middle" x="925.45" y="-227" font-family="Helvetica,sans-Serif" font-size="10.00">configuration.cpp</text>
</a>
</g>
</g>
<!-- Node14&#45;&gt;Node15 -->
<g id="edge19_Node000014_Node000015" class="edge">
<title>Node14&#45;&gt;Node15</title>
<g id="a_edge19_Node000014_Node000015"><a xlink:title=" ">
<path fill="none" stroke="#63b8ff" d="M865.23,-269.42C880.11,-259.81 899.35,-247.37 912.04,-239.17"/>
<polygon fill="#63b8ff" stroke="#63b8ff" points="863.12,-266.62 856.62,-274.98 866.92,-272.5 863.12,-266.62"/>
</a>
</g>
</g>
<!-- Node16&#45;&gt;Node3 -->
<g id="edge23_Node000016_Node000003" class="edge">
<title>Node16&#45;&gt;Node3</title>
<g id="a_edge23_Node000016_Node000003"><a xlink:title=" ">
<path fill="none" stroke="#63b8ff" d="M982.53,-295.51C873.23,-312.07 746.33,-328.42 688.59,-335.21"/>
<polygon fill="#63b8ff" stroke="#63b8ff" points="983.35,-298.93 992.71,-293.96 982.3,-292.01 983.35,-298.93"/>
</a>
</g>
</g>
<!-- Node17 -->
<g id="Node000017" class="node">
<title>Node17</title>
<g id="a_Node000017"><a xlink:href="../../d9/ddd/economy_8cpp.xhtml" target="_top" xlink:title=" ">
<polygon fill="white" stroke="#666666" points="1074.45,-239 994.45,-239 994.45,-220 1074.45,-220 1074.45,-239"/>
<text text-anchor="middle" x="1034.45" y="-227" font-family="Helvetica,sans-Serif" font-size="10.00">economy.cpp</text>
</a>
</g>
</g>
<!-- Node16&#45;&gt;Node17 -->
<g id="edge22_Node000016_Node000017" class="edge">
<title>Node16&#45;&gt;Node17</title>
<g id="a_edge22_Node000016_Node000017"><a xlink:title=" ">
<path fill="none" stroke="#63b8ff" d="M1033.81,-264.66C1033.97,-255.93 1034.16,-245.99 1034.29,-239.09"/>
<polygon fill="#63b8ff" stroke="#63b8ff" points="1030.3,-264.68 1033.61,-274.75 1037.3,-264.82 1030.3,-264.68"/>
</a>
</g>
</g>
<!-- Node19 -->
<g id="Node000019" class="node">
<title>Node19</title>
<g id="a_Node000019"><a xlink:href="../../d2/de2/interpreter_8cpp.xhtml" target="_top" xlink:title=" ">
<polygon fill="white" stroke="#666666" points="420.45,-239 332.45,-239 332.45,-220 420.45,-220 420.45,-239"/>
<text text-anchor="middle" x="376.45" y="-227" font-family="Helvetica,sans-Serif" font-size="10.00">interpreter.cpp</text>
</a>
</g>
</g>
<!-- Node18&#45;&gt;Node19 -->
<g id="edge26_Node000018_Node000019" class="edge">
<title>Node18&#45;&gt;Node19</title>
<g id="a_edge26_Node000018_Node000019"><a xlink:title=" ">
<path fill="none" stroke="#63b8ff" d="M409.72,-267.24C401.31,-257.95 391.1,-246.68 384.23,-239.09"/>
<polygon fill="#63b8ff" stroke="#63b8ff" points="407.22,-269.69 416.52,-274.75 412.41,-264.99 407.22,-269.69"/>
</a>
</g>
</g>
<!-- Node18&#45;&gt;Node20 -->
<g id="edge27_Node000018_Node000020" class="edge">
<title>Node18&#45;&gt;Node20</title>
<g id="a_edge27_Node000018_Node000020"><a xlink:title=" ">
<path fill="none" stroke="#63b8ff" d="M438.87,-267.24C447.11,-257.95 457.1,-246.68 463.83,-239.09"/>
<polygon fill="#63b8ff" stroke="#63b8ff" points="436.23,-264.94 432.21,-274.75 441.46,-269.59 436.23,-264.94"/>
</a>
</g>
</g>
<!-- Node20&#45;&gt;Node6 -->
<g id="edge42_Node000020_Node000006" class="edge">
<title>Node20&#45;&gt;Node6</title>
<g id="a_edge42_Node000020_Node000006"><a xlink:title=" ">
<path fill="none" stroke="#63b8ff" d="M428.86,-220.01C324.57,-202.6 214.74,-188.79 152.18,-181.35"/>
<polygon fill="#63b8ff" stroke="#63b8ff" points="428.49,-223.49 438.93,-221.7 429.65,-216.59 428.49,-223.49"/>
</a>
</g>
</g>
<!-- Node21 -->
<g id="Node000021" class="node">
<title>Node21</title>
<g id="a_Node000021"><a xlink:href="../../d9/d99/error_8hpp.xhtml" target="_top" xlink:title=" ">
<polygon fill="white" stroke="#666666" points="541.45,-184 481.45,-184 481.45,-165 541.45,-165 541.45,-184"/>
<text text-anchor="middle" x="511.45" y="-172" font-family="Helvetica,sans-Serif" font-size="10.00">error.hpp</text>
</a>
</g>
</g>
<!-- Node20&#45;&gt;Node21 -->
<g id="edge28_Node000020_Node000021" class="edge">
<title>Node20&#45;&gt;Node21</title>
<g id="a_edge28_Node000020_Node000021"><a xlink:title=" ">
<path fill="none" stroke="#63b8ff" d="M484.15,-211.67C491.08,-202.5 499.36,-191.52 504.97,-184.09"/>
<polygon fill="#63b8ff" stroke="#63b8ff" points="481.29,-209.66 478.06,-219.75 486.87,-213.87 481.29,-209.66"/>
</a>
</g>
</g>
<!-- Node31 -->
<g id="Node000031" class="node">
<title>Node31</title>
<g id="a_Node000031"><a xlink:href="../../de/d25/serial_8cpp.xhtml" target="_top" xlink:title=" ">
<polygon fill="white" stroke="#666666" points="463.45,-184 399.45,-184 399.45,-165 463.45,-165 463.45,-184"/>
<text text-anchor="middle" x="431.45" y="-172" font-family="Helvetica,sans-Serif" font-size="10.00">serial.cpp</text>
</a>
</g>
</g>
<!-- Node20&#45;&gt;Node31 -->
<g id="edge43_Node000020_Node000031" class="edge">
<title>Node20&#45;&gt;Node31</title>
<g id="a_edge43_Node000020_Node000031"><a xlink:title=" ">
<path fill="none" stroke="#63b8ff" d="M458.75,-211.67C451.82,-202.5 443.54,-191.52 437.93,-184.09"/>
<polygon fill="#63b8ff" stroke="#63b8ff" points="456.03,-213.87 464.84,-219.75 461.61,-209.66 456.03,-213.87"/>
</a>
</g>
</g>
<!-- Node21&#45;&gt;Node10 -->
<g id="edge41_Node000021_Node000010" class="edge">
<title>Node21&#45;&gt;Node10</title>
<g id="a_edge41_Node000021_Node000010"><a xlink:title=" ">
<path fill="none" stroke="#63b8ff" d="M471.6,-163.72C431.06,-153.77 368.84,-138.51 330.23,-129.03"/>
<polygon fill="#63b8ff" stroke="#63b8ff" points="470.87,-167.15 481.42,-166.13 472.54,-160.35 470.87,-167.15"/>
</a>
</g>
</g>
<!-- Node22 -->
<g id="Node000022" class="node">
<title>Node22</title>
<g id="a_Node000022"><a xlink:href="../../d3/d42/bme_8hpp.xhtml" target="_top" xlink:title=" ">
<polygon fill="white" stroke="#666666" points="1207.95,-129 1148.95,-129 1148.95,-110 1207.95,-110 1207.95,-129"/>
<text text-anchor="middle" x="1178.45" y="-117" font-family="Helvetica,sans-Serif" font-size="10.00">bme.hpp</text>
</a>
</g>
</g>
<!-- Node21&#45;&gt;Node22 -->
<g id="edge29_Node000021_Node000022" class="edge">
<title>Node21&#45;&gt;Node22</title>
<g id="a_edge29_Node000021_Node000022"><a xlink:title=" ">
<path fill="none" stroke="#63b8ff" d="M551.73,-165.03C787.15,-131.88 1059.93,-123.17 1148.86,-121.09"/>
<polygon fill="#63b8ff" stroke="#63b8ff" points="551.01,-161.6 541.61,-166.48 552,-168.53 551.01,-161.6"/>
</a>
</g>
</g>
<!-- Node28 -->
<g id="Node000028" class="node">
<title>Node28</title>
<g id="a_Node000028"><a xlink:href="../../dd/db1/error_8cpp.xhtml" target="_top" xlink:title=" ">
<polygon fill="white" stroke="#666666" points="578.95,-129 519.95,-129 519.95,-110 578.95,-110 578.95,-129"/>
<text text-anchor="middle" x="549.45" y="-117" font-family="Helvetica,sans-Serif" font-size="10.00">error.cpp</text>
</a>
</g>
</g>
<!-- Node21&#45;&gt;Node28 -->
<g id="edge38_Node000021_Node000028" class="edge">
<title>Node21&#45;&gt;Node28</title>
<g id="a_edge38_Node000021_Node000028"><a xlink:title=" ">
<path fill="none" stroke="#63b8ff" d="M523.72,-156.39C530.26,-147.27 538.02,-136.45 543.29,-129.09"/>
<polygon fill="#63b8ff" stroke="#63b8ff" points="520.71,-154.58 517.72,-164.75 526.4,-158.66 520.71,-154.58"/>
</a>
</g>
</g>
<!-- Node29 -->
<g id="Node000029" class="node">
<title>Node29</title>
<g id="a_Node000029"><a xlink:href="../../db/d45/gps_8hpp.xhtml" target="_top" xlink:title=" ">
<polygon fill="white" stroke="#666666" points="501.95,-129 446.95,-129 446.95,-110 501.95,-110 501.95,-129"/>
<text text-anchor="middle" x="474.45" y="-117" font-family="Helvetica,sans-Serif" font-size="10.00">gps.hpp</text>
</a>
</g>
</g>
<!-- Node21&#45;&gt;Node29 -->
<g id="edge39_Node000021_Node000029" class="edge">
<title>Node21&#45;&gt;Node29</title>
<g id="a_edge39_Node000021_Node000029"><a xlink:title=" ">
<path fill="none" stroke="#63b8ff" d="M499.5,-156.39C493.14,-147.27 485.58,-136.45 480.45,-129.09"/>
<polygon fill="#63b8ff" stroke="#63b8ff" points="496.75,-158.55 505.34,-164.75 502.49,-154.55 496.75,-158.55"/>
</a>
</g>
</g>
<!-- Node22&#45;&gt;Node1 -->
<g id="edge31_Node000022_Node000001" class="edge">
<title>Node22&#45;&gt;Node1</title>
<g id="a_edge31_Node000022_Node000001"><a xlink:title=" ">
<path fill="none" stroke="#63b8ff" d="M1209.1,-133.53C1242.87,-150.18 1292.45,-182.47 1292.45,-228.5 1292.45,-285.5 1292.45,-285.5 1292.45,-285.5 1292.45,-346.1 837.24,-381.5 697.65,-390.94"/>
<polygon fill="#63b8ff" stroke="#63b8ff" points="1210.16,-130.16 1199.63,-129.05 1207.17,-136.49 1210.16,-130.16"/>
</a>
</g>
</g>
<!-- Node23 -->
<g id="Node000023" class="node">
<title>Node23</title>
<g id="a_Node000023"><a xlink:href="../../d4/d82/bme_8cpp.xhtml" target="_top" xlink:title=" ">
<polygon fill="white" stroke="#666666" points="1207.95,-74 1148.95,-74 1148.95,-55 1207.95,-55 1207.95,-74"/>
<text text-anchor="middle" x="1178.45" y="-62" font-family="Helvetica,sans-Serif" font-size="10.00">bme.cpp</text>
</a>
</g>
</g>
<!-- Node22&#45;&gt;Node23 -->
<g id="edge30_Node000022_Node000023" class="edge">
<title>Node22&#45;&gt;Node23</title>
<g id="a_edge30_Node000022_Node000023"><a xlink:title=" ">
<path fill="none" stroke="#63b8ff" d="M1178.45,-99.66C1178.45,-90.93 1178.45,-80.99 1178.45,-74.09"/>
<polygon fill="#63b8ff" stroke="#63b8ff" points="1174.95,-99.75 1178.45,-109.75 1181.95,-99.75 1174.95,-99.75"/>
</a>
</g>
</g>
<!-- Node22&#45;&gt;Node24 -->
<g id="edge32_Node000022_Node000024" class="edge">
<title>Node22&#45;&gt;Node24</title>
<g id="a_edge32_Node000022_Node000024"><a xlink:title=" ">
<path fill="none" stroke="#63b8ff" d="M1155.53,-104.7C1139.5,-95.04 1118.58,-82.44 1104.85,-74.17"/>
<polygon fill="#63b8ff" stroke="#63b8ff" points="1153.94,-107.82 1164.31,-109.98 1157.55,-101.83 1153.94,-107.82"/>
</a>
</g>
</g>
<!-- Node22&#45;&gt;Node26 -->
<g id="edge35_Node000022_Node000026" class="edge">
<title>Node22&#45;&gt;Node26</title>
<g id="a_edge35_Node000022_Node000026"><a xlink:title=" ">
<path fill="none" stroke="#63b8ff" d="M1203.22,-104.97C1220.95,-95.28 1244.3,-82.52 1259.58,-74.17"/>
<polygon fill="#63b8ff" stroke="#63b8ff" points="1201.13,-102.12 1194.03,-109.98 1204.49,-108.26 1201.13,-102.12"/>
</a>
</g>
</g>
<!-- Node24&#45;&gt;Node3 -->
<g id="edge33_Node000024_Node000003" class="edge">
<title>Node24&#45;&gt;Node3</title>
<g id="a_edge33_Node000024_Node000003"><a xlink:title=" ">
<path fill="none" stroke="#63b8ff" d="M1102.44,-83.15C1111.27,-104.36 1120.45,-141.16 1120.45,-173.5 1120.45,-230.5 1120.45,-230.5 1120.45,-230.5 1120.45,-261.34 1117.38,-275.83 1092.45,-294 1028.6,-340.53 777.22,-340.48 688.49,-339.11"/>
<polygon fill="#63b8ff" stroke="#63b8ff" points="1105.6,-81.63 1098.18,-74.07 1099.26,-84.61 1105.6,-81.63"/>
</a>
</g>
</g>
<!-- Node25 -->
<g id="Node000025" class="node">
<title>Node25</title>
<g id="a_Node000025"><a xlink:href="../../d8/ddf/pressure_8cpp.xhtml" target="_top" xlink:title=" ">
<polygon fill="white" stroke="#666666" points="1129.95,-19 1050.95,-19 1050.95,0 1129.95,0 1129.95,-19"/>
<text text-anchor="middle" x="1090.45" y="-7" font-family="Helvetica,sans-Serif" font-size="10.00">pressure.cpp</text>
</a>
</g>
</g>
<!-- Node24&#45;&gt;Node25 -->
<g id="edge34_Node000024_Node000025" class="edge">
<title>Node24&#45;&gt;Node25</title>
<g id="a_edge34_Node000024_Node000025"><a xlink:title=" ">
<path fill="none" stroke="#63b8ff" d="M1090.45,-44.66C1090.45,-35.93 1090.45,-25.99 1090.45,-19.09"/>
<polygon fill="#63b8ff" stroke="#63b8ff" points="1086.95,-44.75 1090.45,-54.75 1093.95,-44.75 1086.95,-44.75"/>
</a>
</g>
</g>
<!-- Node26&#45;&gt;Node3 -->
<g id="edge36_Node000026_Node000003" class="edge">
<title>Node26&#45;&gt;Node3</title>
<g id="a_edge36_Node000026_Node000003"><a xlink:title=" ">
<path fill="none" stroke="#63b8ff" d="M1273.5,-84.13C1267.09,-105.32 1254.45,-141.17 1254.45,-173.5 1254.45,-230.5 1254.45,-230.5 1254.45,-230.5 1254.45,-294.8 1186.33,-276.5 1124.45,-294 965.71,-338.89 765.05,-340.32 688.67,-339.19"/>
<polygon fill="#63b8ff" stroke="#63b8ff" points="1276.94,-84.8 1276.24,-74.23 1270.19,-82.93 1276.94,-84.8"/>
</a>
</g>
</g>
<!-- Node27 -->
<g id="Node000027" class="node">
<title>Node27</title>
<g id="a_Node000027"><a xlink:href="../../d0/d3d/temperature_8cpp.xhtml" target="_top" xlink:title=" ">
<polygon fill="white" stroke="#666666" points="1324.45,-19 1226.45,-19 1226.45,0 1324.45,0 1324.45,-19"/>
<text text-anchor="middle" x="1275.45" y="-7" font-family="Helvetica,sans-Serif" font-size="10.00">temperature.cpp</text>
</a>
</g>
</g>
<!-- Node26&#45;&gt;Node27 -->
<g id="edge37_Node000026_Node000027" class="edge">
<title>Node26&#45;&gt;Node27</title>
<g id="a_edge37_Node000026_Node000027"><a xlink:title=" ">
<path fill="none" stroke="#63b8ff" d="M1275.45,-44.66C1275.45,-35.93 1275.45,-25.99 1275.45,-19.09"/>
<polygon fill="#63b8ff" stroke="#63b8ff" points="1271.95,-44.75 1275.45,-54.75 1278.95,-44.75 1271.95,-44.75"/>
</a>
</g>
</g>
<!-- Node30 -->
<g id="Node000030" class="node">
<title>Node30</title>
<g id="a_Node000030"><a xlink:href="../../dc/d3d/gps_8cpp.xhtml" target="_top" xlink:title=" ">
<polygon fill="white" stroke="#666666" points="501.45,-74 447.45,-74 447.45,-55 501.45,-55 501.45,-74"/>
<text text-anchor="middle" x="474.45" y="-62" font-family="Helvetica,sans-Serif" font-size="10.00">gps.cpp</text>
</a>
</g>
</g>
<!-- Node29&#45;&gt;Node30 -->
<g id="edge40_Node000029_Node000030" class="edge">
<title>Node29&#45;&gt;Node30</title>
<g id="a_edge40_Node000029_Node000030"><a xlink:title=" ">
<path fill="none" stroke="#63b8ff" d="M474.45,-99.66C474.45,-90.93 474.45,-80.99 474.45,-74.09"/>
<polygon fill="#63b8ff" stroke="#63b8ff" points="470.95,-99.75 474.45,-109.75 477.95,-99.75 470.95,-99.75"/>
</a>
</g>
</g>
<!-- Node33&#45;&gt;Node3 -->
<g id="edge54_Node000033_Node000003" class="edge">
<title>Node33&#45;&gt;Node3</title>
<g id="a_edge54_Node000033_Node000003"><a xlink:title=" ">
<path fill="none" stroke="#63b8ff" d="M619.46,-300.18C631.48,-309.67 645.03,-321.72 652.54,-329.75"/>
<polygon fill="#63b8ff" stroke="#63b8ff" points="621.54,-297.37 611.47,-294.09 617.3,-302.93 621.54,-297.37"/>
</a>
</g>
</g>
<!-- Node34 -->
<g id="Node000034" class="node">
<title>Node34</title>
<g id="a_Node000034"><a xlink:href="../../df/d0a/buttons_8hpp.xhtml" target="_top" xlink:title=" ">
<polygon fill="white" stroke="#666666" points="750.45,-239 676.45,-239 676.45,-220 750.45,-220 750.45,-239"/>
<text text-anchor="middle" x="713.45" y="-227" font-family="Helvetica,sans-Serif" font-size="10.00">buttons.hpp</text>
</a>
</g>
</g>
<!-- Node33&#45;&gt;Node34 -->
<g id="edge47_Node000033_Node000034" class="edge">
<title>Node33&#45;&gt;Node34</title>
<g id="a_edge47_Node000033_Node000034"><a xlink:title=" ">
<path fill="none" stroke="#63b8ff" d="M624.56,-270.77C646.14,-260.99 675.36,-247.75 694.31,-239.17"/>
<polygon fill="#63b8ff" stroke="#63b8ff" points="622.91,-267.67 615.25,-274.98 625.8,-274.05 622.91,-267.67"/>
</a>
</g>
</g>
<!-- Node36 -->
<g id="Node000036" class="node">
<title>Node36</title>
<g id="a_Node000036"><a xlink:href="../../d4/d76/led_8hpp.xhtml" target="_top" xlink:title=" ">
<polygon fill="white" stroke="#666666" points="574.95,-239 521.95,-239 521.95,-220 574.95,-220 574.95,-239"/>
<text text-anchor="middle" x="548.45" y="-227" font-family="Helvetica,sans-Serif" font-size="10.00">led.hpp</text>
</a>
</g>
</g>
<!-- Node33&#45;&gt;Node36 -->
<g id="edge50_Node000033_Node000036" class="edge">
<title>Node33&#45;&gt;Node36</title>
<g id="a_edge50_Node000033_Node000036"><a xlink:title=" ">
<path fill="none" stroke="#63b8ff" d="M581.72,-267.24C573.31,-257.95 563.1,-246.68 556.23,-239.09"/>
<polygon fill="#63b8ff" stroke="#63b8ff" points="579.22,-269.69 588.52,-274.75 584.41,-264.99 579.22,-269.69"/>
</a>
</g>
</g>
<!-- Node38 -->
<g id="Node000038" class="node">
<title>Node38</title>
<g id="a_Node000038"><a xlink:href="../../d9/d88/mode_8cpp.xhtml" target="_top" xlink:title=" ">
<polygon fill="white" stroke="#666666" points="657.95,-239 592.95,-239 592.95,-220 657.95,-220 657.95,-239"/>
<text text-anchor="middle" x="625.45" y="-227" font-family="Helvetica,sans-Serif" font-size="10.00">mode.cpp</text>
</a>
</g>
</g>
<!-- Node33&#45;&gt;Node38 -->
<g id="edge55_Node000033_Node000038" class="edge">
<title>Node33&#45;&gt;Node38</title>
<g id="a_edge55_Node000033_Node000038"><a xlink:title=" ">
<path fill="none" stroke="#63b8ff" d="M606.13,-265.82C611.05,-256.82 616.81,-246.29 620.75,-239.09"/>
<polygon fill="#63b8ff" stroke="#63b8ff" points="602.97,-264.3 601.24,-274.75 609.11,-267.66 602.97,-264.3"/>
</a>
</g>
</g>
<!-- Node34&#45;&gt;Node3 -->
<g id="edge49_Node000034_Node000003" class="edge">
<title>Node34&#45;&gt;Node3</title>
<g id="a_edge49_Node000034_Node000003"><a xlink:title=" ">
<path fill="none" stroke="#63b8ff" d="M697.26,-246.7C690.04,-254.67 681.95,-264.75 676.45,-275 666.66,-293.25 661.24,-317.23 658.89,-329.86"/>
<polygon fill="#63b8ff" stroke="#63b8ff" points="699.98,-248.91 704.31,-239.24 694.9,-244.1 699.98,-248.91"/>
</a>
</g>
</g>
<!-- Node35 -->
<g id="Node000035" class="node">
<title>Node35</title>
<g id="a_Node000035"><a xlink:href="../../d9/d52/buttons_8cpp.xhtml" target="_top" xlink:title=" ">
<polygon fill="white" stroke="#666666" points="750.45,-184 676.45,-184 676.45,-165 750.45,-165 750.45,-184"/>
<text text-anchor="middle" x="713.45" y="-172" font-family="Helvetica,sans-Serif" font-size="10.00">buttons.cpp</text>
</a>
</g>
</g>
<!-- Node34&#45;&gt;Node35 -->
<g id="edge48_Node000034_Node000035" class="edge">
<title>Node34&#45;&gt;Node35</title>
<g id="a_edge48_Node000034_Node000035"><a xlink:title=" ">
<path fill="none" stroke="#63b8ff" d="M713.45,-209.66C713.45,-200.93 713.45,-190.99 713.45,-184.09"/>
<polygon fill="#63b8ff" stroke="#63b8ff" points="709.95,-209.75 713.45,-219.75 716.95,-209.75 709.95,-209.75"/>
</a>
</g>
</g>
<!-- Node36&#45;&gt;Node3 -->
<g id="edge53_Node000036_Node000003" class="edge">
<title>Node36&#45;&gt;Node3</title>
<g id="a_edge53_Node000036_Node000003"><a xlink:title=" ">
<path fill="none" stroke="#63b8ff" d="M545.46,-249.44C544.37,-263.09 545.19,-281.26 554.45,-294 563.7,-306.72 602.27,-321.1 629.49,-329.99"/>
<polygon fill="#63b8ff" stroke="#63b8ff" points="548.97,-249.61 546.69,-239.26 542.02,-248.77 548.97,-249.61"/>
</a>
</g>
</g>
<!-- Node36&#45;&gt;Node21 -->
<g id="edge51_Node000036_Node000021" class="edge">
<title>Node36&#45;&gt;Node21</title>
<g id="a_edge51_Node000036_Node000021"><a xlink:title=" ">
<path fill="none" stroke="#63b8ff" d="M536.5,-211.39C530.14,-202.27 522.58,-191.45 517.45,-184.09"/>
<polygon fill="#63b8ff" stroke="#63b8ff" points="533.75,-213.55 542.34,-219.75 539.49,-209.55 533.75,-213.55"/>
</a>
</g>
</g>
<!-- Node37 -->
<g id="Node000037" class="node">
<title>Node37</title>
<g id="a_Node000037"><a xlink:href="../../db/d17/led_8cpp.xhtml" target="_top" xlink:title=" ">
<polygon fill="white" stroke="#666666" points="611.45,-184 559.45,-184 559.45,-165 611.45,-165 611.45,-184"/>
<text text-anchor="middle" x="585.45" y="-172" font-family="Helvetica,sans-Serif" font-size="10.00">led.cpp</text>
</a>
</g>
</g>
<!-- Node36&#45;&gt;Node37 -->
<g id="edge52_Node000036_Node000037" class="edge">
<title>Node36&#45;&gt;Node37</title>
<g id="a_edge52_Node000036_Node000037"><a xlink:title=" ">
<path fill="none" stroke="#63b8ff" d="M560.4,-211.39C566.76,-202.27 574.32,-191.45 579.45,-184.09"/>
<polygon fill="#63b8ff" stroke="#63b8ff" points="557.41,-209.55 554.56,-219.75 563.15,-213.55 557.41,-209.55"/>
</a>
</g>
</g>
</g>
</svg>

<g id="navigator" transform="translate(0 0)" fill="#404254">
  <rect fill="#f2f5e9" fill-opacity="0.5" stroke="#606060" stroke-width=".5" x="0" y="0" width="60" height="60"/>
  <use id="zoomplus" xlink:href="#zoomPlus" x="17" y="9" onmousedown="handleZoom(evt,'in')"/>
  <use id="zoomminus" xlink:href="#zoomMin" x="42" y="9" onmousedown="handleZoom(evt,'out')"/>
  <use id="reset" xlink:href="#resetDef" x="30" y="36" onmousedown="handleReset()"/>
   <use id="arrowup" xlink:href="#arrowUp" x="0" y="0" onmousedown="handlePan(0,-1)"/>
  <use id="arrowright" xlink:href="#arrowRight" x="0" y="0" onmousedown="handlePan(1,0)"/>
  <use id="arrowdown" xlink:href="#arrowDown" x="0" y="0" onmousedown="handlePan(0,1)"/>
  <use id="arrowleft" xlink:href="#arrowLeft" x="0" y="0" onmousedown="handlePan(-1,0)"/>
</g>
<svg viewBox="0 0 15 15" width="100%" height="30px" preserveAspectRatio="xMaxYMin meet">
 <g id="arrow_out" transform="scale(0.3 0.3)">
  <a xlink:href="humidity_8hpp__dep__incl_org.svg" target="_base">
   <rect id="button" ry="5" rx="5" y="6" x="6" height="38" width="38"
        fill="#f2f5e9" fill-opacity="0.5" stroke="#606060" stroke-width="1.0"/>
   <path id="arrow"
     d="M 11.500037,31.436501 C 11.940474,20.09759 22.043105,11.32322 32.158766,21.979434 L 37.068811,17.246167 C 37.068811,17.246167 37.088388,32 37.088388,32 L 22.160133,31.978069 C 22.160133,31.978069 26.997745,27.140456 26.997745,27.140456 C 18.528582,18.264221 13.291696,25.230495 11.500037,31.436501 z"
     style="fill:#404040;"/>
  </a>
 </g>
</svg>

<style type='text/css'>
<![CDATA[
[data-mouse-over-selected='false'] { opacity: 0.7; }
[data-mouse-over-selected='true']  { opacity: 1.0; }
]]>
</style>
<script type="application/ecmascript"><![CDATA[
document.addEventListener('DOMContentLoaded', (event) => {
  highlightEdges();
  highlightAdjacentNodes();
});
]]></script>
</svg>
