<?xml version="1.0" encoding="UTF-8" standalone="no"?>
<!DOCTYPE svg PUBLIC "-//W3C//DTD SVG 1.1//EN"
 "http://www.w3.org/Graphics/SVG/1.1/DTD/svg11.dtd">
<!-- Generated by graphviz version 2.43.0 (0)
 -->
<!-- Title: FatFormatter::makeFat16 Pages: 1 -->
<svg width="1808pt" height="452pt"
 viewBox="0.00 0.00 1808.00 451.50" xmlns="http://www.w3.org/2000/svg" xmlns:xlink="http://www.w3.org/1999/xlink">
<g id="graph0" class="graph" transform="scale(1 1) rotate(0) translate(4 447.5)">
<title>FatFormatter::makeFat16</title>
<!-- Node1 -->
<g id="Node000001" class="node">
<title>Node1</title>
<g id="a_Node000001"><a xlink:title=" ">
<polygon fill="#999999" stroke="#666666" points="138,-115 0,-115 0,-96 138,-96 138,-115"/>
<text text-anchor="middle" x="69" y="-103" font-family="Helvetica,sans-Serif" font-size="10.00">FatFormatter::makeFat16</text>
</a>
</g>
</g>
<!-- Node2 -->
<g id="Node000002" class="node">
<title>Node2</title>
<g id="a_Node000002"><a xlink:href="../../d1/d0f/classFatFormatter_afb65ae6ae8d5dc13720955643451aaa4.xhtml#afb65ae6ae8d5dc13720955643451aaa4" target="_top" xlink:title=" ">
<polygon fill="white" stroke="#666666" points="303,-171 174,-171 174,-152 303,-152 303,-171"/>
<text text-anchor="middle" x="238.5" y="-159" font-family="Helvetica,sans-Serif" font-size="10.00">FatFormatter::initFatDir</text>
</a>
</g>
</g>
<!-- Node1&#45;&gt;Node2 -->
<g id="edge1_Node000001_Node000002" class="edge">
<title>Node1&#45;&gt;Node2</title>
<g id="a_edge1_Node000001_Node000002"><a xlink:title=" ">
<path fill="none" stroke="#63b8ff" d="M94.62,-115.08C115.58,-123.1 146.57,-134.61 174,-143.5 179.94,-145.42 186.22,-147.34 192.44,-149.17"/>
<polygon fill="#63b8ff" stroke="#63b8ff" points="191.51,-152.55 202.09,-151.96 193.46,-145.82 191.51,-152.55"/>
</a>
</g>
</g>
<!-- Node3 -->
<g id="Node000003" class="node">
<title>Node3</title>
<g id="a_Node000003"><a xlink:href="../../d8/d7f/classSharedSpiCard_adf2ce56ca0a56fe841fbdf75f7f3faee.xhtml#adf2ce56ca0a56fe841fbdf75f7f3faee" target="_top" xlink:title=" ">
<polygon fill="white" stroke="#666666" points="488,-171 339,-171 339,-152 488,-152 488,-171"/>
<text text-anchor="middle" x="413.5" y="-159" font-family="Helvetica,sans-Serif" font-size="10.00">SharedSpiCard::writeSector</text>
</a>
</g>
</g>
<!-- Node1&#45;&gt;Node3 -->
<g id="edge56_Node000001_Node000003" class="edge">
<title>Node1&#45;&gt;Node3</title>
<g id="a_edge56_Node000001_Node000003"><a xlink:title=" ">
<path fill="none" stroke="#63b8ff" d="M78.88,-115.02C95.56,-132.12 133.54,-167.43 174,-180.5 241.35,-202.25 324.69,-186.63 372.91,-173.75"/>
<polygon fill="#63b8ff" stroke="#63b8ff" points="373.94,-177.1 382.65,-171.06 372.08,-170.35 373.94,-177.1"/>
</a>
</g>
</g>
<!-- Node30 -->
<g id="Node000030" class="node">
<title>Node30</title>
<g id="a_Node000030"><a xlink:href="../../d1/d0f/classFatFormatter_a119d530132839305fb40e12ff989dab8.xhtml#a119d530132839305fb40e12ff989dab8" target="_top" xlink:title=" ">
<polygon fill="white" stroke="#666666" points="297.5,-58 179.5,-58 179.5,-39 297.5,-39 297.5,-58"/>
<text text-anchor="middle" x="238.5" y="-46" font-family="Helvetica,sans-Serif" font-size="10.00">FatFormatter::initPbs</text>
</a>
</g>
</g>
<!-- Node1&#45;&gt;Node30 -->
<g id="edge46_Node000001_Node000030" class="edge">
<title>Node1&#45;&gt;Node30</title>
<g id="a_edge46_Node000001_Node000030"><a xlink:title=" ">
<path fill="none" stroke="#63b8ff" d="M98.04,-95.96C125.94,-86.47 168.93,-71.83 199.81,-61.33"/>
<polygon fill="#63b8ff" stroke="#63b8ff" points="201.03,-64.61 209.37,-58.07 198.78,-57.98 201.03,-64.61"/>
</a>
</g>
</g>
<!-- Node31 -->
<g id="Node000031" class="node">
<title>Node31</title>
<g id="a_Node000031"><a xlink:href="../../dc/d87/FsStructs_8h_a2a47595a3bb5c1f0f67d4f3dddac0a0e.xhtml#a2a47595a3bb5c1f0f67d4f3dddac0a0e" target="_top" xlink:title=" ">
<polygon fill="white" stroke="#666666" points="441,-96 386,-96 386,-77 441,-77 441,-96"/>
<text text-anchor="middle" x="413.5" y="-84" font-family="Helvetica,sans-Serif" font-size="10.00">setLe16</text>
</a>
</g>
</g>
<!-- Node1&#45;&gt;Node31 -->
<g id="edge49_Node000001_Node000031" class="edge">
<title>Node1&#45;&gt;Node31</title>
<g id="a_edge49_Node000001_Node000031"><a xlink:title=" ">
<path fill="none" stroke="#63b8ff" d="M138.08,-101.72C209.37,-97.77 318.7,-91.7 375.44,-88.56"/>
<polygon fill="#63b8ff" stroke="#63b8ff" points="375.94,-92.03 385.74,-87.98 375.56,-85.04 375.94,-92.03"/>
</a>
</g>
</g>
<!-- Node32 -->
<g id="Node000032" class="node">
<title>Node32</title>
<g id="a_Node000032"><a xlink:href="../../dc/d87/FsStructs_8h_a294114e9924b0436c1d110e692bef464.xhtml#a294114e9924b0436c1d110e692bef464" target="_top" xlink:title=" ">
<polygon fill="white" stroke="#666666" points="441,-58 386,-58 386,-39 441,-39 441,-58"/>
<text text-anchor="middle" x="413.5" y="-46" font-family="Helvetica,sans-Serif" font-size="10.00">setLe32</text>
</a>
</g>
</g>
<!-- Node1&#45;&gt;Node32 -->
<g id="edge50_Node000001_Node000032" class="edge">
<title>Node1&#45;&gt;Node32</title>
<g id="a_edge50_Node000001_Node000032"><a xlink:title=" ">
<path fill="none" stroke="#63b8ff" d="M78.86,-95.85C95.49,-78.54 133.4,-42.76 174,-29.5 242.79,-7.04 328.41,-23.95 376.09,-37.05"/>
<polygon fill="#63b8ff" stroke="#63b8ff" points="375.38,-40.48 385.95,-39.85 377.29,-33.75 375.38,-40.48"/>
</a>
</g>
</g>
<!-- Node33 -->
<g id="Node000033" class="node">
<title>Node33</title>
<g id="a_Node000033"><a xlink:href="../../d1/d0f/classFatFormatter_abca37f702400b0cb277970b8fc0af980.xhtml#abca37f702400b0cb277970b8fc0af980" target="_top" xlink:title=" ">
<polygon fill="white" stroke="#666666" points="302.5,-134 174.5,-134 174.5,-115 302.5,-115 302.5,-134"/>
<text text-anchor="middle" x="238.5" y="-122" font-family="Helvetica,sans-Serif" font-size="10.00">FatFormatter::writeMbr</text>
</a>
</g>
</g>
<!-- Node1&#45;&gt;Node33 -->
<g id="edge51_Node000001_Node000033" class="edge">
<title>Node1&#45;&gt;Node33</title>
<g id="a_edge51_Node000001_Node000033"><a xlink:title=" ">
<path fill="none" stroke="#63b8ff" d="M138.13,-113.23C146.72,-114.2 155.54,-115.2 164.21,-116.19"/>
<polygon fill="#63b8ff" stroke="#63b8ff" points="163.96,-119.68 174.29,-117.33 164.75,-112.73 163.96,-119.68"/>
</a>
</g>
</g>
<!-- Node2&#45;&gt;Node3 -->
<g id="edge2_Node000002_Node000003" class="edge">
<title>Node2&#45;&gt;Node3</title>
<g id="a_edge2_Node000002_Node000003"><a xlink:title=" ">
<path fill="none" stroke="#63b8ff" d="M303.43,-161.5C311.73,-161.5 320.33,-161.5 328.89,-161.5"/>
<polygon fill="#63b8ff" stroke="#63b8ff" points="328.91,-165 338.91,-161.5 328.91,-158 328.91,-165"/>
</a>
</g>
</g>
<!-- Node4 -->
<g id="Node000004" class="node">
<title>Node4</title>
<g id="a_Node000004"><a xlink:href="../../d8/d7f/classSharedSpiCard_adda33199753fc2aec74fe317cbaabc06.xhtml#adda33199753fc2aec74fe317cbaabc06" target="_top" xlink:title=" ">
<polygon fill="white" stroke="#666666" points="689,-263 524,-263 524,-244 689,-244 689,-263"/>
<text text-anchor="middle" x="606.5" y="-251" font-family="Helvetica,sans-Serif" font-size="10.00">SharedSpiCard::cardCommand</text>
</a>
</g>
</g>
<!-- Node3&#45;&gt;Node4 -->
<g id="edge3_Node000003_Node000004" class="edge">
<title>Node3&#45;&gt;Node4</title>
<g id="a_edge3_Node000003_Node000004"><a xlink:title=" ">
<path fill="none" stroke="#63b8ff" d="M434.58,-171.17C468.48,-187.5 537.21,-220.61 576.4,-239.48"/>
<polygon fill="#63b8ff" stroke="#63b8ff" points="575.16,-242.77 585.69,-243.96 578.2,-236.46 575.16,-242.77"/>
</a>
</g>
</g>
<!-- Node5 -->
<g id="Node000005" class="node">
<title>Node5</title>
<g id="a_Node000005"><a xlink:href="../../d8/d7f/classSharedSpiCard_a08363209d938db87521cca6a84146041.xhtml#a08363209d938db87521cca6a84146041" target="_top" xlink:title=" ">
<polygon fill="white" stroke="#666666" points="1425,-415 1278,-415 1278,-396 1425,-396 1425,-415"/>
<text text-anchor="middle" x="1351.5" y="-403" font-family="Helvetica,sans-Serif" font-size="10.00">SharedSpiCard::spiReceive</text>
</a>
</g>
</g>
<!-- Node3&#45;&gt;Node5 -->
<g id="edge37_Node000003_Node000005" class="edge">
<title>Node3&#45;&gt;Node5</title>
<g id="a_edge37_Node000003_Node000005"><a xlink:title=" ">
<path fill="none" stroke="#63b8ff" d="M419.1,-171.04C432.13,-197.2 471.78,-271.04 524,-314.5 627.76,-400.86 664,-443.5 799,-443.5 799,-443.5 799,-443.5 983,-443.5 1088.52,-443.5 1210.19,-427.81 1283.67,-416.59"/>
<polygon fill="#63b8ff" stroke="#63b8ff" points="1284.36,-420.03 1293.71,-415.04 1283.3,-413.11 1284.36,-420.03"/>
</a>
</g>
</g>
<!-- Node18 -->
<g id="Node000018" class="node">
<title>Node18</title>
<g id="a_Node000018"><a xlink:href="../../d8/d7f/classSharedSpiCard_a747c3f0b962098cf0c097f3c4c2b4fd4.xhtml#a747c3f0b962098cf0c097f3c4c2b4fd4" target="_top" xlink:title=" ">
<polygon fill="white" stroke="#666666" points="1220.5,-195 1103.5,-195 1103.5,-176 1220.5,-176 1220.5,-195"/>
<text text-anchor="middle" x="1162" y="-183" font-family="Helvetica,sans-Serif" font-size="10.00">SharedSpiCard::error</text>
</a>
</g>
</g>
<!-- Node3&#45;&gt;Node18 -->
<g id="edge36_Node000003_Node000018" class="edge">
<title>Node3&#45;&gt;Node18</title>
<g id="a_edge36_Node000003_Node000018"><a xlink:title=" ">
<path fill="none" stroke="#63b8ff" d="M463.75,-151.97C571.96,-132.78 837.94,-95.27 1053,-143.5 1070.27,-147.37 1072.62,-153.81 1089,-160.5 1099.5,-164.79 1111.05,-169.01 1121.76,-172.73"/>
<polygon fill="#63b8ff" stroke="#63b8ff" points="1120.71,-176.07 1131.31,-175.99 1122.98,-169.44 1120.71,-176.07"/>
</a>
</g>
</g>
<!-- Node19 -->
<g id="Node000019" class="node">
<title>Node19</title>
<g id="a_Node000019"><a xlink:href="../../d8/d7f/classSharedSpiCard_a0f511c39c50055a4fc97e720933aee3a.xhtml#a0f511c39c50055a4fc97e720933aee3a" target="_top" xlink:title=" ">
<polygon fill="white" stroke="#666666" points="1227,-118 1097,-118 1097,-99 1227,-99 1227,-118"/>
<text text-anchor="middle" x="1162" y="-106" font-family="Helvetica,sans-Serif" font-size="10.00">SharedSpiCard::spiStop</text>
</a>
</g>
</g>
<!-- Node3&#45;&gt;Node19 -->
<g id="edge38_Node000003_Node000019" class="edge">
<title>Node3&#45;&gt;Node19</title>
<g id="a_edge38_Node000003_Node000019"><a xlink:title=" ">
<path fill="none" stroke="#63b8ff" d="M463.47,-151.89C471.81,-149.59 480.27,-146.81 488,-143.5 505.46,-136.03 506.54,-127.96 524,-120.5 741.13,-27.72 820.09,-32.71 1053,-71.5 1080,-76 1109.31,-86.41 1130.57,-95.05"/>
<polygon fill="#63b8ff" stroke="#63b8ff" points="1129.45,-98.38 1140.02,-98.99 1132.14,-91.91 1129.45,-98.38"/>
</a>
</g>
</g>
<!-- Node24 -->
<g id="Node000024" class="node">
<title>Node24</title>
<g id="a_Node000024"><a xlink:href="../../d8/d7f/classSharedSpiCard_ab3468397bb3b12d29dd2f31e45b3dcaf.xhtml#ab3468397bb3b12d29dd2f31e45b3dcaf" target="_top" xlink:title=" ">
<polygon fill="white" stroke="#666666" points="1235,-339 1089,-339 1089,-320 1235,-320 1235,-339"/>
<text text-anchor="middle" x="1162" y="-327" font-family="Helvetica,sans-Serif" font-size="10.00">SharedSpiCard::waitReady</text>
</a>
</g>
</g>
<!-- Node3&#45;&gt;Node24 -->
<g id="edge40_Node000003_Node000024" class="edge">
<title>Node3&#45;&gt;Node24</title>
<g id="a_edge40_Node000003_Node000024"><a xlink:title=" ">
<path fill="none" stroke="#63b8ff" d="M420.87,-171.08C435.94,-192.93 476.17,-246.57 524,-272.5 708.67,-372.6 968.27,-355.88 1091.21,-340.34"/>
<polygon fill="#63b8ff" stroke="#63b8ff" points="1091.78,-343.79 1101.25,-339.03 1090.88,-336.85 1091.78,-343.79"/>
</a>
</g>
</g>
<!-- Node28 -->
<g id="Node000028" class="node">
<title>Node28</title>
<g id="a_Node000028"><a xlink:href="../../d8/d7f/classSharedSpiCard_a7dac2190763d7b4b72163ed7131e8a87.xhtml#a7dac2190763d7b4b72163ed7131e8a87" target="_top" xlink:title=" ">
<polygon fill="white" stroke="#666666" points="664.5,-19 548.5,-19 548.5,0 664.5,0 664.5,-19"/>
<text text-anchor="middle" x="606.5" y="-7" font-family="Helvetica,sans-Serif" font-size="10.00">SharedSpiCard::type</text>
</a>
</g>
</g>
<!-- Node3&#45;&gt;Node28 -->
<g id="edge39_Node000003_Node000028" class="edge">
<title>Node3&#45;&gt;Node28</title>
<g id="a_edge39_Node000003_Node000028"><a xlink:title=" ">
<path fill="none" stroke="#63b8ff" d="M475.66,-151.95C480.14,-149.68 484.34,-146.89 488,-143.5 525.73,-108.54 487.09,-69.33 524,-33.5 528.34,-29.29 533.38,-25.81 538.78,-22.94"/>
<polygon fill="#63b8ff" stroke="#63b8ff" points="540.52,-25.99 548.17,-18.66 537.62,-19.62 540.52,-25.99"/>
</a>
</g>
</g>
<!-- Node29 -->
<g id="Node000029" class="node">
<title>Node29</title>
<g id="a_Node000029"><a xlink:href="../../d8/d7f/classSharedSpiCard_a5b6d7ad34f56d0d6a6c5059d920499ba.xhtml#a5b6d7ad34f56d0d6a6c5059d920499ba" target="_top" xlink:title=" ">
<polygon fill="white" stroke="#666666" points="1053,-171 911,-171 911,-152 1053,-152 1053,-171"/>
<text text-anchor="middle" x="982" y="-159" font-family="Helvetica,sans-Serif" font-size="10.00">SharedSpiCard::writeData</text>
</a>
</g>
</g>
<!-- Node3&#45;&gt;Node29 -->
<g id="edge41_Node000003_Node000029" class="edge">
<title>Node3&#45;&gt;Node29</title>
<g id="a_edge41_Node000003_Node000029"><a xlink:title=" ">
<path fill="none" stroke="#63b8ff" d="M488.27,-161.5C594.77,-161.5 790.83,-161.5 900.8,-161.5"/>
<polygon fill="#63b8ff" stroke="#63b8ff" points="900.85,-165 910.85,-161.5 900.85,-158 900.85,-165"/>
</a>
</g>
</g>
<!-- Node4&#45;&gt;Node5 -->
<g id="edge4_Node000004_Node000005" class="edge">
<title>Node4&#45;&gt;Node5</title>
<g id="a_edge4_Node000004_Node000005"><a xlink:title=" ">
<path fill="none" stroke="#63b8ff" d="M622.4,-263.13C644.06,-276.66 685.94,-301.03 725,-313.5 913.21,-373.6 1146,-394.67 1267.62,-401.88"/>
<polygon fill="#63b8ff" stroke="#63b8ff" points="1267.78,-405.39 1277.97,-402.48 1268.18,-398.41 1267.78,-405.39"/>
</a>
</g>
</g>
<!-- Node7 -->
<g id="Node000007" class="node">
<title>Node7</title>
<g id="a_Node000007"><a xlink:href="../../d8/d7f/classSharedSpiCard_ab311b9ad8a250f06afbe091f7abb118b.xhtml#ab311b9ad8a250f06afbe091f7abb118b" target="_top" xlink:title=" ">
<polygon fill="white" stroke="#666666" points="1417.5,-198 1285.5,-198 1285.5,-179 1417.5,-179 1417.5,-198"/>
<text text-anchor="middle" x="1351.5" y="-186" font-family="Helvetica,sans-Serif" font-size="10.00">SharedSpiCard::spiSend</text>
</a>
</g>
</g>
<!-- Node4&#45;&gt;Node7 -->
<g id="edge6_Node000004_Node000007" class="edge">
<title>Node4&#45;&gt;Node7</title>
<g id="a_edge6_Node000004_Node000007"><a xlink:title=" ">
<path fill="none" stroke="#63b8ff" d="M626.73,-243.84C673.76,-220.82 798.94,-163.18 911,-143.5 1053.22,-118.52 1092.35,-145.14 1235,-167.5 1253.26,-170.36 1273.08,-173.83 1291.07,-177.12"/>
<polygon fill="#63b8ff" stroke="#63b8ff" points="1290.66,-180.61 1301.13,-178.98 1291.93,-173.72 1290.66,-180.61"/>
</a>
</g>
</g>
<!-- Node9 -->
<g id="Node000009" class="node">
<title>Node9</title>
<g id="a_Node000009"><a xlink:href="../../d8/d7f/classSharedSpiCard_aef2dfa72e8d5643c90720f9f8c6a4254.xhtml#aef2dfa72e8d5643c90720f9f8c6a4254" target="_top" xlink:title=" ">
<polygon fill="white" stroke="#666666" points="1227.5,-272 1096.5,-272 1096.5,-253 1227.5,-253 1227.5,-272"/>
<text text-anchor="middle" x="1162" y="-260" font-family="Helvetica,sans-Serif" font-size="10.00">SharedSpiCard::spiStart</text>
</a>
</g>
</g>
<!-- Node4&#45;&gt;Node9 -->
<g id="edge8_Node000004_Node000009" class="edge">
<title>Node4&#45;&gt;Node9</title>
<g id="a_edge8_Node000004_Node000009"><a xlink:title=" ">
<path fill="none" stroke="#63b8ff" d="M655.31,-263.01C676.56,-266.78 701.93,-270.65 725,-272.5 870.31,-284.17 907.38,-279.23 1053,-272.5 1063.73,-272 1075.04,-271.23 1086.14,-270.33"/>
<polygon fill="#63b8ff" stroke="#63b8ff" points="1086.58,-273.81 1096.25,-269.48 1085.99,-266.83 1086.58,-273.81"/>
</a>
</g>
</g>
<!-- Node16 -->
<g id="Node000016" class="node">
<title>Node16</title>
<g id="a_Node000016"><a xlink:href="../../d8/d7f/classSharedSpiCard_a2f181b3d6f27413a0f5ee883dfd94d87.xhtml#a2f181b3d6f27413a0f5ee883dfd94d87" target="_top" xlink:title=" ">
<polygon fill="white" stroke="#666666" points="875,-263 725,-263 725,-244 875,-244 875,-263"/>
<text text-anchor="middle" x="800" y="-251" font-family="Helvetica,sans-Serif" font-size="10.00">SharedSpiCard::syncDevice</text>
</a>
</g>
</g>
<!-- Node4&#45;&gt;Node16 -->
<g id="edge16_Node000004_Node000016" class="edge">
<title>Node4&#45;&gt;Node16</title>
<g id="a_edge16_Node000004_Node000016"><a xlink:title=" ">
<path fill="none" stroke="#63b8ff" d="M689.27,-253.5C697.65,-253.5 706.18,-253.5 714.59,-253.5"/>
<polygon fill="#63b8ff" stroke="#63b8ff" points="714.78,-257 724.78,-253.5 714.78,-250 714.78,-257"/>
</a>
</g>
</g>
<!-- Node4&#45;&gt;Node24 -->
<g id="edge35_Node000004_Node000024" class="edge">
<title>Node4&#45;&gt;Node24</title>
<g id="a_edge35_Node000004_Node000024"><a xlink:title=" ">
<path fill="none" stroke="#63b8ff" d="M633.24,-263.07C656.79,-271.41 692.76,-283.15 725,-289.5 846.78,-313.48 990.59,-323.14 1078.78,-326.99"/>
<polygon fill="#63b8ff" stroke="#63b8ff" points="1078.85,-330.5 1088.99,-327.43 1079.14,-323.51 1078.85,-330.5"/>
</a>
</g>
</g>
<!-- Node6 -->
<g id="Node000006" class="node">
<title>Node6</title>
<g id="a_Node000006"><a xlink:href="../../d0/d25/classSdSpiArduinoDriver_a8d6bc852a52e9d69c4b1e48ee062e8d1.xhtml#a8d6bc852a52e9d69c4b1e48ee062e8d1" target="_top" xlink:title=" ">
<polygon fill="white" stroke="#666666" points="1579,-420.5 1468,-420.5 1468,-390.5 1579,-390.5 1579,-420.5"/>
<text text-anchor="start" x="1476" y="-408.5" font-family="Helvetica,sans-Serif" font-size="10.00">SdSpiArduinoDriver</text>
<text text-anchor="middle" x="1523.5" y="-397.5" font-family="Helvetica,sans-Serif" font-size="10.00">::receive</text>
</a>
</g>
</g>
<!-- Node5&#45;&gt;Node6 -->
<g id="edge5_Node000005_Node000006" class="edge">
<title>Node5&#45;&gt;Node6</title>
<g id="a_edge5_Node000005_Node000006"><a xlink:title=" ">
<path fill="none" stroke="#63b8ff" d="M1425.09,-405.5C1435.96,-405.5 1447.11,-405.5 1457.81,-405.5"/>
<polygon fill="#63b8ff" stroke="#63b8ff" points="1457.9,-409 1467.9,-405.5 1457.9,-402 1457.9,-409"/>
</a>
</g>
</g>
<!-- Node8 -->
<g id="Node000008" class="node">
<title>Node8</title>
<g id="a_Node000008"><a xlink:href="../../d0/d25/classSdSpiArduinoDriver_a3c4842e47f98fe5d3799cd6028778ab5.xhtml#a3c4842e47f98fe5d3799cd6028778ab5" target="_top" xlink:title=" ">
<polygon fill="white" stroke="#666666" points="1579,-208.5 1468,-208.5 1468,-178.5 1579,-178.5 1579,-208.5"/>
<text text-anchor="start" x="1476" y="-196.5" font-family="Helvetica,sans-Serif" font-size="10.00">SdSpiArduinoDriver</text>
<text text-anchor="middle" x="1523.5" y="-185.5" font-family="Helvetica,sans-Serif" font-size="10.00">::send</text>
</a>
</g>
</g>
<!-- Node7&#45;&gt;Node8 -->
<g id="edge7_Node000007_Node000008" class="edge">
<title>Node7&#45;&gt;Node8</title>
<g id="a_edge7_Node000007_Node000008"><a xlink:title=" ">
<path fill="none" stroke="#63b8ff" d="M1417.74,-190.42C1430.82,-190.8 1444.56,-191.21 1457.62,-191.59"/>
<polygon fill="#63b8ff" stroke="#63b8ff" points="1457.83,-195.1 1467.93,-191.89 1458.04,-188.1 1457.83,-195.1"/>
</a>
</g>
</g>
<!-- Node9&#45;&gt;Node7 -->
<g id="edge15_Node000009_Node000007" class="edge">
<title>Node9&#45;&gt;Node7</title>
<g id="a_edge15_Node000009_Node000007"><a xlink:title=" ">
<path fill="none" stroke="#63b8ff" d="M1200.81,-252.94C1212.19,-249.27 1224.46,-244.48 1235,-238.5 1253.36,-228.08 1252.2,-217.11 1271,-207.5 1275.62,-205.14 1280.54,-203.06 1285.58,-201.24"/>
<polygon fill="#63b8ff" stroke="#63b8ff" points="1286.97,-204.47 1295.38,-198.04 1284.79,-197.82 1286.97,-204.47"/>
</a>
</g>
</g>
<!-- Node10 -->
<g id="Node000010" class="node">
<title>Node10</title>
<g id="a_Node000010"><a xlink:href="../../d8/d7f/classSharedSpiCard_a69ee2fe49dfaeea2347d8a265806d2b6.xhtml#a69ee2fe49dfaeea2347d8a265806d2b6" target="_top" xlink:title=" ">
<polygon fill="white" stroke="#666666" points="1426,-272 1277,-272 1277,-253 1426,-253 1426,-272"/>
<text text-anchor="middle" x="1351.5" y="-260" font-family="Helvetica,sans-Serif" font-size="10.00">SharedSpiCard::spiActivate</text>
</a>
</g>
</g>
<!-- Node9&#45;&gt;Node10 -->
<g id="edge9_Node000009_Node000010" class="edge">
<title>Node9&#45;&gt;Node10</title>
<g id="a_edge9_Node000009_Node000010"><a xlink:title=" ">
<path fill="none" stroke="#63b8ff" d="M1227.53,-262.5C1240.19,-262.5 1253.64,-262.5 1266.82,-262.5"/>
<polygon fill="#63b8ff" stroke="#63b8ff" points="1266.84,-266 1276.84,-262.5 1266.84,-259 1266.84,-266"/>
</a>
</g>
</g>
<!-- Node12 -->
<g id="Node000012" class="node">
<title>Node12</title>
<g id="a_Node000012"><a xlink:href="../../d8/d7f/classSharedSpiCard_a8c3088599862ff6e84ae79bfdf32aea8.xhtml#a8c3088599862ff6e84ae79bfdf32aea8" target="_top" xlink:title=" ">
<polygon fill="white" stroke="#666666" points="1420.5,-235 1282.5,-235 1282.5,-216 1420.5,-216 1420.5,-235"/>
<text text-anchor="middle" x="1351.5" y="-223" font-family="Helvetica,sans-Serif" font-size="10.00">SharedSpiCard::spiSelect</text>
</a>
</g>
</g>
<!-- Node9&#45;&gt;Node12 -->
<g id="edge11_Node000009_Node000012" class="edge">
<title>Node9&#45;&gt;Node12</title>
<g id="a_edge11_Node000009_Node000012"><a xlink:title=" ">
<path fill="none" stroke="#63b8ff" d="M1211.29,-252.97C1235.9,-248.11 1266.04,-242.17 1291.97,-237.05"/>
<polygon fill="#63b8ff" stroke="#63b8ff" points="1292.92,-240.43 1302.05,-235.06 1291.56,-233.56 1292.92,-240.43"/>
</a>
</g>
</g>
<!-- Node11 -->
<g id="Node000011" class="node">
<title>Node11</title>
<g id="a_Node000011"><a xlink:href="../../d0/d25/classSdSpiArduinoDriver_abb6b88c5c8b87fc344a69f23f6eab3d9.xhtml#abb6b88c5c8b87fc344a69f23f6eab3d9" target="_top" xlink:title=" ">
<polygon fill="white" stroke="#666666" points="1579,-277.5 1468,-277.5 1468,-247.5 1579,-247.5 1579,-277.5"/>
<text text-anchor="start" x="1476" y="-265.5" font-family="Helvetica,sans-Serif" font-size="10.00">SdSpiArduinoDriver</text>
<text text-anchor="middle" x="1523.5" y="-254.5" font-family="Helvetica,sans-Serif" font-size="10.00">::activate</text>
</a>
</g>
</g>
<!-- Node10&#45;&gt;Node11 -->
<g id="edge10_Node000010_Node000011" class="edge">
<title>Node10&#45;&gt;Node11</title>
<g id="a_edge10_Node000010_Node000011"><a xlink:title=" ">
<path fill="none" stroke="#63b8ff" d="M1426.08,-262.5C1436.57,-262.5 1447.31,-262.5 1457.63,-262.5"/>
<polygon fill="#63b8ff" stroke="#63b8ff" points="1457.78,-266 1467.78,-262.5 1457.78,-259 1457.78,-266"/>
</a>
</g>
</g>
<!-- Node13 -->
<g id="Node000013" class="node">
<title>Node13</title>
<g id="a_Node000013"><a xlink:href="../../d2/df0/SdSpiChipSelect_8cpp_ac469bbe2d31ffde9b00ffc68258d7428.xhtml#ac469bbe2d31ffde9b00ffc68258d7428" target="_top" xlink:title=" ">
<polygon fill="white" stroke="#666666" points="1556.5,-160 1490.5,-160 1490.5,-141 1556.5,-141 1556.5,-160"/>
<text text-anchor="middle" x="1523.5" y="-148" font-family="Helvetica,sans-Serif" font-size="10.00">sdCsWrite</text>
</a>
</g>
</g>
<!-- Node12&#45;&gt;Node13 -->
<g id="edge12_Node000012_Node000013" class="edge">
<title>Node12&#45;&gt;Node13</title>
<g id="a_edge12_Node000012_Node000013"><a xlink:title=" ">
<path fill="none" stroke="#63b8ff" d="M1412.56,-215.96C1419.34,-213.71 1425.97,-210.93 1432,-207.5 1452.22,-195.99 1448.46,-182.13 1468,-169.5 1472.05,-166.88 1476.5,-164.58 1481.06,-162.56"/>
<polygon fill="#63b8ff" stroke="#63b8ff" points="1482.47,-165.77 1490.47,-158.82 1479.89,-159.26 1482.47,-165.77"/>
</a>
</g>
</g>
<!-- Node14 -->
<g id="Node000014" class="node">
<title>Node14</title>
<g id="a_Node000014"><a xlink:href="../../d5/d45/wiring__digital_8c_a73b9b61feeaf7d790d107f2954a7fd93.xhtml#a73b9b61feeaf7d790d107f2954a7fd93" target="_top" xlink:title=" ">
<polygon fill="white" stroke="#666666" points="1689,-160 1615,-160 1615,-141 1689,-141 1689,-160"/>
<text text-anchor="middle" x="1652" y="-148" font-family="Helvetica,sans-Serif" font-size="10.00">digitalWrite</text>
</a>
</g>
</g>
<!-- Node13&#45;&gt;Node14 -->
<g id="edge13_Node000013_Node000014" class="edge">
<title>Node13&#45;&gt;Node14</title>
<g id="a_edge13_Node000013_Node000014"><a xlink:title=" ">
<path fill="none" stroke="#63b8ff" d="M1556.75,-150.5C1571.28,-150.5 1588.71,-150.5 1604.61,-150.5"/>
<polygon fill="#63b8ff" stroke="#63b8ff" points="1604.79,-154 1614.79,-150.5 1604.79,-147 1604.79,-154"/>
</a>
</g>
</g>
<!-- Node15 -->
<g id="Node000015" class="node">
<title>Node15</title>
<g id="a_Node000015"><a xlink:href="../../d5/d45/wiring__digital_8c_ae3d0bcbe4eb927ca8f5d5c21b7e4f224.xhtml#ae3d0bcbe4eb927ca8f5d5c21b7e4f224" target="_top" xlink:title=" ">
<polygon fill="white" stroke="#666666" points="1800,-160 1725,-160 1725,-141 1800,-141 1800,-160"/>
<text text-anchor="middle" x="1762.5" y="-148" font-family="Helvetica,sans-Serif" font-size="10.00">turnOffPWM</text>
</a>
</g>
</g>
<!-- Node14&#45;&gt;Node15 -->
<g id="edge14_Node000014_Node000015" class="edge">
<title>Node14&#45;&gt;Node15</title>
<g id="a_edge14_Node000014_Node000015"><a xlink:title=" ">
<path fill="none" stroke="#63b8ff" d="M1689.13,-150.5C1697.28,-150.5 1706.05,-150.5 1714.57,-150.5"/>
<polygon fill="#63b8ff" stroke="#63b8ff" points="1714.79,-154 1724.79,-150.5 1714.79,-147 1714.79,-154"/>
</a>
</g>
</g>
<!-- Node17 -->
<g id="Node000017" class="node">
<title>Node17</title>
<g id="a_Node000017"><a xlink:href="../../d8/d7f/classSharedSpiCard_ab33ad2aefbb9cff905cad0879dffc78b.xhtml#ab33ad2aefbb9cff905cad0879dffc78b" target="_top" xlink:title=" ">
<polygon fill="white" stroke="#666666" points="1050.5,-226 913.5,-226 913.5,-207 1050.5,-207 1050.5,-226"/>
<text text-anchor="middle" x="982" y="-214" font-family="Helvetica,sans-Serif" font-size="10.00">SharedSpiCard::readStop</text>
</a>
</g>
</g>
<!-- Node16&#45;&gt;Node17 -->
<g id="edge17_Node000016_Node000017" class="edge">
<title>Node16&#45;&gt;Node17</title>
<g id="a_edge17_Node000016_Node000017"><a xlink:title=" ">
<path fill="none" stroke="#63b8ff" d="M847.35,-243.97C870.88,-239.14 899.66,-233.22 924.48,-228.12"/>
<polygon fill="#63b8ff" stroke="#63b8ff" points="925.4,-231.5 934.49,-226.06 923.99,-224.65 925.4,-231.5"/>
</a>
</g>
</g>
<!-- Node23 -->
<g id="Node000023" class="node">
<title>Node23</title>
<g id="a_Node000023"><a xlink:href="../../d8/d7f/classSharedSpiCard_ae9a34a573077e43e7c6028a16ae77fb3.xhtml#ae9a34a573077e43e7c6028a16ae77fb3" target="_top" xlink:title=" ">
<polygon fill="white" stroke="#666666" points="1052,-263 912,-263 912,-244 1052,-244 1052,-263"/>
<text text-anchor="middle" x="982" y="-251" font-family="Helvetica,sans-Serif" font-size="10.00">SharedSpiCard::writeStop</text>
</a>
</g>
</g>
<!-- Node16&#45;&gt;Node23 -->
<g id="edge26_Node000016_Node000023" class="edge">
<title>Node16&#45;&gt;Node23</title>
<g id="a_edge26_Node000016_Node000023"><a xlink:title=" ">
<path fill="none" stroke="#63b8ff" d="M875.25,-253.5C883.95,-253.5 892.86,-253.5 901.62,-253.5"/>
<polygon fill="#63b8ff" stroke="#63b8ff" points="901.83,-257 911.83,-253.5 901.83,-250 901.83,-257"/>
</a>
</g>
</g>
<!-- Node17&#45;&gt;Node4 -->
<g id="edge18_Node000017_Node000004" class="edge">
<title>Node17&#45;&gt;Node4</title>
<g id="a_edge18_Node000017_Node000004"><a xlink:title=" ">
<path fill="none" stroke="#63b8ff" d="M913.49,-220.07C861.8,-223.15 788.77,-228.26 725,-235.5 708.44,-237.38 690.64,-239.86 674.03,-242.39"/>
<polygon fill="#63b8ff" stroke="#63b8ff" points="673.21,-238.97 663.86,-243.95 674.28,-245.89 673.21,-238.97"/>
</a>
</g>
</g>
<!-- Node17&#45;&gt;Node18 -->
<g id="edge19_Node000017_Node000018" class="edge">
<title>Node17&#45;&gt;Node18</title>
<g id="a_edge19_Node000017_Node000018"><a xlink:title=" ">
<path fill="none" stroke="#63b8ff" d="M1037.86,-206.95C1056.39,-203.72 1077.24,-200.09 1096.45,-196.74"/>
<polygon fill="#63b8ff" stroke="#63b8ff" points="1097.07,-200.19 1106.32,-195.02 1095.87,-193.29 1097.07,-200.19"/>
</a>
</g>
</g>
<!-- Node17&#45;&gt;Node19 -->
<g id="edge20_Node000017_Node000019" class="edge">
<title>Node17&#45;&gt;Node19</title>
<g id="a_edge20_Node000017_Node000019"><a xlink:title=" ">
<path fill="none" stroke="#63b8ff" d="M1032.27,-206.9C1039.43,-204.64 1046.55,-201.87 1053,-198.5 1071.72,-188.73 1072.83,-181.08 1089,-167.5 1106.58,-152.73 1126.83,-136.18 1141.37,-124.37"/>
<polygon fill="#63b8ff" stroke="#63b8ff" points="1143.64,-127.04 1149.2,-118.02 1139.23,-121.6 1143.64,-127.04"/>
</a>
</g>
</g>
<!-- Node19&#45;&gt;Node7 -->
<g id="edge23_Node000019_Node000007" class="edge">
<title>Node19&#45;&gt;Node7</title>
<g id="a_edge23_Node000019_Node000007"><a xlink:title=" ">
<path fill="none" stroke="#63b8ff" d="M1202.58,-118.07C1213.55,-121.66 1225.14,-126.4 1235,-132.5 1254.25,-144.4 1251.32,-157.34 1271,-168.5 1275.8,-171.22 1280.96,-173.58 1286.28,-175.61"/>
<polygon fill="#63b8ff" stroke="#63b8ff" points="1285.36,-179 1295.95,-178.95 1287.64,-172.38 1285.36,-179"/>
</a>
</g>
</g>
<!-- Node20 -->
<g id="Node000020" class="node">
<title>Node20</title>
<g id="a_Node000020"><a xlink:href="../../d8/d7f/classSharedSpiCard_ac6acfca5a23337977d2e4436ab8ab39a.xhtml#ac6acfca5a23337977d2e4436ab8ab39a" target="_top" xlink:title=" ">
<polygon fill="white" stroke="#666666" points="1432,-117 1271,-117 1271,-98 1432,-98 1432,-117"/>
<text text-anchor="middle" x="1351.5" y="-105" font-family="Helvetica,sans-Serif" font-size="10.00">SharedSpiCard::spiDeactivate</text>
</a>
</g>
</g>
<!-- Node19&#45;&gt;Node20 -->
<g id="edge21_Node000019_Node000020" class="edge">
<title>Node19&#45;&gt;Node20</title>
<g id="a_edge21_Node000019_Node000020"><a xlink:title=" ">
<path fill="none" stroke="#63b8ff" d="M1227,-108.16C1237.92,-108.1 1249.43,-108.04 1260.86,-107.98"/>
<polygon fill="#63b8ff" stroke="#63b8ff" points="1260.89,-111.48 1270.87,-107.92 1260.85,-104.48 1260.89,-111.48"/>
</a>
</g>
</g>
<!-- Node22 -->
<g id="Node000022" class="node">
<title>Node22</title>
<g id="a_Node000022"><a xlink:href="../../d8/d7f/classSharedSpiCard_ad06a3278372300987b97876cf598c114.xhtml#ad06a3278372300987b97876cf598c114" target="_top" xlink:title=" ">
<polygon fill="white" stroke="#666666" points="1427,-159 1276,-159 1276,-140 1427,-140 1427,-159"/>
<text text-anchor="middle" x="1351.5" y="-147" font-family="Helvetica,sans-Serif" font-size="10.00">SharedSpiCard::spiUnselect</text>
</a>
</g>
</g>
<!-- Node19&#45;&gt;Node22 -->
<g id="edge24_Node000019_Node000022" class="edge">
<title>Node19&#45;&gt;Node22</title>
<g id="a_edge24_Node000019_Node000022"><a xlink:title=" ">
<path fill="none" stroke="#63b8ff" d="M1206.49,-118.01C1233.49,-123.91 1268.38,-131.54 1297.06,-137.81"/>
<polygon fill="#63b8ff" stroke="#63b8ff" points="1296.41,-141.25 1306.92,-139.97 1297.9,-134.42 1296.41,-141.25"/>
</a>
</g>
</g>
<!-- Node21 -->
<g id="Node000021" class="node">
<title>Node21</title>
<g id="a_Node000021"><a xlink:href="../../d0/d25/classSdSpiArduinoDriver_ae88a255f533e3acb41d1221025a69b55.xhtml#ae88a255f533e3acb41d1221025a69b55" target="_top" xlink:title=" ">
<polygon fill="white" stroke="#666666" points="1579,-122.5 1468,-122.5 1468,-92.5 1579,-92.5 1579,-122.5"/>
<text text-anchor="start" x="1476" y="-110.5" font-family="Helvetica,sans-Serif" font-size="10.00">SdSpiArduinoDriver</text>
<text text-anchor="middle" x="1523.5" y="-99.5" font-family="Helvetica,sans-Serif" font-size="10.00">::deactivate</text>
</a>
</g>
</g>
<!-- Node20&#45;&gt;Node21 -->
<g id="edge22_Node000020_Node000021" class="edge">
<title>Node20&#45;&gt;Node21</title>
<g id="a_edge22_Node000020_Node000021"><a xlink:title=" ">
<path fill="none" stroke="#63b8ff" d="M1432.02,-107.5C1440.63,-107.5 1449.3,-107.5 1457.7,-107.5"/>
<polygon fill="#63b8ff" stroke="#63b8ff" points="1457.78,-111 1467.78,-107.5 1457.78,-104 1457.78,-111"/>
</a>
</g>
</g>
<!-- Node22&#45;&gt;Node13 -->
<g id="edge25_Node000022_Node000013" class="edge">
<title>Node22&#45;&gt;Node13</title>
<g id="a_edge25_Node000022_Node000013"><a xlink:title=" ">
<path fill="none" stroke="#63b8ff" d="M1427.06,-149.94C1445.21,-150.05 1464.01,-150.16 1480.07,-150.25"/>
<polygon fill="#63b8ff" stroke="#63b8ff" points="1480.17,-153.75 1490.19,-150.31 1480.21,-146.75 1480.17,-153.75"/>
</a>
</g>
</g>
<!-- Node23&#45;&gt;Node7 -->
<g id="edge28_Node000023_Node000007" class="edge">
<title>Node23&#45;&gt;Node7</title>
<g id="a_edge28_Node000023_Node000007"><a xlink:title=" ">
<path fill="none" stroke="#63b8ff" d="M1036.83,-243.98C1103.15,-232.25 1215.69,-212.34 1286.41,-199.84"/>
<polygon fill="#63b8ff" stroke="#63b8ff" points="1287.29,-203.23 1296.52,-198.05 1286.07,-196.34 1287.29,-203.23"/>
</a>
</g>
</g>
<!-- Node23&#45;&gt;Node18 -->
<g id="edge27_Node000023_Node000018" class="edge">
<title>Node23&#45;&gt;Node18</title>
<g id="a_edge27_Node000023_Node000018"><a xlink:title=" ">
<path fill="none" stroke="#63b8ff" d="M1029.74,-243.95C1037.67,-241.64 1045.7,-238.84 1053,-235.5 1070.71,-227.39 1071.64,-219.33 1089,-210.5 1098.02,-205.91 1108.08,-201.83 1117.75,-198.37"/>
<polygon fill="#63b8ff" stroke="#63b8ff" points="1118.92,-201.67 1127.24,-195.11 1116.65,-195.05 1118.92,-201.67"/>
</a>
</g>
</g>
<!-- Node23&#45;&gt;Node19 -->
<g id="edge29_Node000023_Node000019" class="edge">
<title>Node23&#45;&gt;Node19</title>
<g id="a_edge29_Node000023_Node000019"><a xlink:title=" ">
<path fill="none" stroke="#63b8ff" d="M1038.59,-243.95C1043.75,-241.69 1048.66,-238.92 1053,-235.5 1079.85,-214.32 1067.35,-193.97 1089,-167.5 1102.94,-150.46 1122.44,-134.84 1137.63,-123.96"/>
<polygon fill="#63b8ff" stroke="#63b8ff" points="1139.8,-126.72 1146,-118.13 1135.8,-120.97 1139.8,-126.72"/>
</a>
</g>
</g>
<!-- Node23&#45;&gt;Node24 -->
<g id="edge30_Node000023_Node000024" class="edge">
<title>Node23&#45;&gt;Node24</title>
<g id="a_edge30_Node000023_Node000024"><a xlink:title=" ">
<path fill="none" stroke="#63b8ff" d="M1005.54,-263.13C1036.84,-276.49 1093.61,-300.73 1129.2,-315.92"/>
<polygon fill="#63b8ff" stroke="#63b8ff" points="1128.07,-319.24 1138.64,-319.95 1130.82,-312.81 1128.07,-319.24"/>
</a>
</g>
</g>
<!-- Node24&#45;&gt;Node5 -->
<g id="edge31_Node000024_Node000005" class="edge">
<title>Node24&#45;&gt;Node5</title>
<g id="a_edge31_Node000024_Node000005"><a xlink:title=" ">
<path fill="none" stroke="#63b8ff" d="M1186.75,-339.13C1219.85,-352.55 1280.02,-376.93 1317.48,-392.12"/>
<polygon fill="#63b8ff" stroke="#63b8ff" points="1316.36,-395.44 1326.95,-395.95 1318.99,-388.95 1316.36,-395.44"/>
</a>
</g>
</g>
<!-- Node25 -->
<g id="Node000025" class="node">
<title>Node25</title>
<g id="a_Node000025"><a xlink:href="../../db/df4/classTimeout_abbabe99f42e52472ddd3a7e9d22dce95.xhtml#abbabe99f42e52472ddd3a7e9d22dce95" target="_top" xlink:title=" ">
<polygon fill="white" stroke="#666666" points="1406,-339 1297,-339 1297,-320 1406,-320 1406,-339"/>
<text text-anchor="middle" x="1351.5" y="-327" font-family="Helvetica,sans-Serif" font-size="10.00">Timeout::timedOut</text>
</a>
</g>
</g>
<!-- Node24&#45;&gt;Node25 -->
<g id="edge32_Node000024_Node000025" class="edge">
<title>Node24&#45;&gt;Node25</title>
<g id="a_edge32_Node000024_Node000025"><a xlink:title=" ">
<path fill="none" stroke="#63b8ff" d="M1235.22,-329.5C1252.23,-329.5 1270.22,-329.5 1286.82,-329.5"/>
<polygon fill="#63b8ff" stroke="#63b8ff" points="1286.95,-333 1296.95,-329.5 1286.95,-326 1286.95,-333"/>
</a>
</g>
</g>
<!-- Node26 -->
<g id="Node000026" class="node">
<title>Node26</title>
<g id="a_Node000026"><a xlink:href="../../db/df4/classTimeout_a9a72ea0591f11452fb15bfaa1ae5108a.xhtml#a9a72ea0591f11452fb15bfaa1ae5108a" target="_top" xlink:title=" ">
<polygon fill="white" stroke="#666666" points="1574.5,-339 1472.5,-339 1472.5,-320 1574.5,-320 1574.5,-339"/>
<text text-anchor="middle" x="1523.5" y="-327" font-family="Helvetica,sans-Serif" font-size="10.00">Timeout::millis16</text>
</a>
</g>
</g>
<!-- Node25&#45;&gt;Node26 -->
<g id="edge33_Node000025_Node000026" class="edge">
<title>Node25&#45;&gt;Node26</title>
<g id="a_edge33_Node000025_Node000026"><a xlink:title=" ">
<path fill="none" stroke="#63b8ff" d="M1406.29,-329.5C1424.02,-329.5 1443.85,-329.5 1462.04,-329.5"/>
<polygon fill="#63b8ff" stroke="#63b8ff" points="1462.24,-333 1472.24,-329.5 1462.24,-326 1462.24,-333"/>
</a>
</g>
</g>
<!-- Node27 -->
<g id="Node000027" class="node">
<title>Node27</title>
<g id="a_Node000027"><a xlink:href="../../d5/df3/wiring_8c_a6ff7f2532a22366f0013bc41397129fd.xhtml#a6ff7f2532a22366f0013bc41397129fd" target="_top" xlink:title=" ">
<polygon fill="white" stroke="#666666" points="1674,-339 1630,-339 1630,-320 1674,-320 1674,-339"/>
<text text-anchor="middle" x="1652" y="-327" font-family="Helvetica,sans-Serif" font-size="10.00">millis</text>
</a>
</g>
</g>
<!-- Node26&#45;&gt;Node27 -->
<g id="edge34_Node000026_Node000027" class="edge">
<title>Node26&#45;&gt;Node27</title>
<g id="a_edge34_Node000026_Node000027"><a xlink:title=" ">
<path fill="none" stroke="#63b8ff" d="M1574.86,-329.5C1589.97,-329.5 1606.11,-329.5 1619.62,-329.5"/>
<polygon fill="#63b8ff" stroke="#63b8ff" points="1619.83,-333 1629.83,-329.5 1619.83,-326 1619.83,-333"/>
</a>
</g>
</g>
<!-- Node29&#45;&gt;Node18 -->
<g id="edge42_Node000029_Node000018" class="edge">
<title>Node29&#45;&gt;Node18</title>
<g id="a_edge42_Node000029_Node000018"><a xlink:title=" ">
<path fill="none" stroke="#63b8ff" d="M1053.09,-170.95C1066.35,-172.74 1080.2,-174.6 1093.37,-176.38"/>
<polygon fill="#63b8ff" stroke="#63b8ff" points="1092.92,-179.85 1103.3,-177.72 1093.86,-172.92 1092.92,-179.85"/>
</a>
</g>
</g>
<!-- Node29&#45;&gt;Node19 -->
<g id="edge43_Node000029_Node000019" class="edge">
<title>Node29&#45;&gt;Node19</title>
<g id="a_edge43_Node000029_Node000019"><a xlink:title=" ">
<path fill="none" stroke="#63b8ff" d="M1015.23,-151.9C1044.34,-143.23 1087.36,-130.43 1119.12,-120.97"/>
<polygon fill="#63b8ff" stroke="#63b8ff" points="1120.42,-124.23 1129.01,-118.03 1118.42,-117.53 1120.42,-124.23"/>
</a>
</g>
</g>
<!-- Node29&#45;&gt;Node24 -->
<g id="edge44_Node000029_Node000024" class="edge">
<title>Node29&#45;&gt;Node24</title>
<g id="a_edge44_Node000029_Node000024"><a xlink:title=" ">
<path fill="none" stroke="#63b8ff" d="M1010.75,-171.04C1024.91,-177.07 1041.51,-186.09 1053,-198.5 1080.32,-228.01 1063.22,-250.64 1089,-281.5 1100.54,-295.31 1117.04,-306.7 1131.33,-314.92"/>
<polygon fill="#63b8ff" stroke="#63b8ff" points="1129.88,-318.11 1140.33,-319.85 1133.25,-311.98 1129.88,-318.11"/>
</a>
</g>
</g>
<!-- Node29&#45;&gt;Node29 -->
<g id="edge45_Node000029_Node000029" class="edge">
<title>Node29&#45;&gt;Node29</title>
<g id="a_edge45_Node000029_Node000029"><a xlink:title=" ">
<path fill="none" stroke="#63b8ff" d="M954.26,-171.08C940.76,-179.73 950.01,-189 982,-189 1003.49,-189 1014.72,-184.82 1015.68,-179.45"/>
<polygon fill="#63b8ff" stroke="#63b8ff" points="1018.39,-177.21 1009.74,-171.08 1012.68,-181.26 1018.39,-177.21"/>
</a>
</g>
</g>
<!-- Node30&#45;&gt;Node31 -->
<g id="edge47_Node000030_Node000031" class="edge">
<title>Node30&#45;&gt;Node31</title>
<g id="a_edge47_Node000030_Node000031"><a xlink:title=" ">
<path fill="none" stroke="#63b8ff" d="M283.16,-58.09C311.82,-64.39 348.89,-72.53 375.99,-78.48"/>
<polygon fill="#63b8ff" stroke="#63b8ff" points="375.34,-81.92 385.85,-80.65 376.84,-75.08 375.34,-81.92"/>
</a>
</g>
</g>
<!-- Node30&#45;&gt;Node32 -->
<g id="edge48_Node000030_Node000032" class="edge">
<title>Node30&#45;&gt;Node32</title>
<g id="a_edge48_Node000030_Node000032"><a xlink:title=" ">
<path fill="none" stroke="#63b8ff" d="M297.59,-48.5C323.35,-48.5 352.89,-48.5 375.57,-48.5"/>
<polygon fill="#63b8ff" stroke="#63b8ff" points="375.79,-52 385.79,-48.5 375.79,-45 375.79,-52"/>
</a>
</g>
</g>
<!-- Node33&#45;&gt;Node3 -->
<g id="edge55_Node000033_Node000003" class="edge">
<title>Node33&#45;&gt;Node3</title>
<g id="a_edge55_Node000033_Node000003"><a xlink:title=" ">
<path fill="none" stroke="#63b8ff" d="M284.05,-134.03C306.57,-138.84 334.08,-144.73 357.86,-149.81"/>
<polygon fill="#63b8ff" stroke="#63b8ff" points="357.29,-153.27 367.8,-151.94 358.75,-146.43 357.29,-153.27"/>
</a>
</g>
</g>
<!-- Node33&#45;&gt;Node31 -->
<g id="edge53_Node000033_Node000031" class="edge">
<title>Node33&#45;&gt;Node31</title>
<g id="a_edge53_Node000033_Node000031"><a xlink:title=" ">
<path fill="none" stroke="#63b8ff" d="M283.16,-114.91C311.82,-108.61 348.89,-100.47 375.99,-94.52"/>
<polygon fill="#63b8ff" stroke="#63b8ff" points="376.84,-97.92 385.85,-92.35 375.34,-91.08 376.84,-97.92"/>
</a>
</g>
</g>
<!-- Node33&#45;&gt;Node32 -->
<g id="edge54_Node000033_Node000032" class="edge">
<title>Node33&#45;&gt;Node32</title>
<g id="a_edge54_Node000033_Node000032"><a xlink:title=" ">
<path fill="none" stroke="#63b8ff" d="M253.76,-114.97C272.59,-102.75 307.09,-81.59 339,-68.5 350.76,-63.68 364.04,-59.66 376.06,-56.52"/>
<polygon fill="#63b8ff" stroke="#63b8ff" points="376.93,-59.91 385.78,-54.09 375.23,-53.12 376.93,-59.91"/>
</a>
</g>
</g>
<!-- Node34 -->
<g id="Node000034" class="node">
<title>Node34</title>
<g id="a_Node000034"><a xlink:href="../../de/d85/FsStructs_8cpp_ab50e5bcb251202b713a8ae38cb498b59.xhtml#ab50e5bcb251202b713a8ae38cb498b59" target="_top" xlink:title=" ">
<polygon fill="white" stroke="#666666" points="453,-134 374,-134 374,-115 453,-115 453,-134"/>
<text text-anchor="middle" x="413.5" y="-122" font-family="Helvetica,sans-Serif" font-size="10.00">lbaToMbrChs</text>
</a>
</g>
</g>
<!-- Node33&#45;&gt;Node34 -->
<g id="edge52_Node000033_Node000034" class="edge">
<title>Node33&#45;&gt;Node34</title>
<g id="a_edge52_Node000033_Node000034"><a xlink:title=" ">
<path fill="none" stroke="#63b8ff" d="M302.94,-124.5C323.03,-124.5 344.92,-124.5 363.82,-124.5"/>
<polygon fill="#63b8ff" stroke="#63b8ff" points="363.97,-128 373.97,-124.5 363.97,-121 363.97,-128"/>
</a>
</g>
</g>
</g>
</svg>
