<?xml version="1.0" encoding="UTF-8" standalone="no"?>
<!DOCTYPE svg PUBLIC "-//W3C//DTD SVG 1.1//EN"
 "http://www.w3.org/Graphics/SVG/1.1/DTD/svg11.dtd">
<!-- Generated by graphviz version 2.43.0 (0)
 -->
<!-- Title: FatFormatter::initFatDir Pages: 1 -->
<svg width="1634pt" height="458pt"
 viewBox="0.00 0.00 1634.00 458.13" xmlns="http://www.w3.org/2000/svg" xmlns:xlink="http://www.w3.org/1999/xlink">
<g id="graph0" class="graph" transform="scale(1 1) rotate(0) translate(4 454.13)">
<title>FatFormatter::initFatDir</title>
<!-- Node1 -->
<g id="Node000001" class="node">
<title>Node1</title>
<g id="a_Node000001"><a xlink:title=" ">
<polygon fill="#999999" stroke="#666666" points="129,-194.22 0,-194.22 0,-175.22 129,-175.22 129,-194.22"/>
<text text-anchor="middle" x="64.5" y="-182.22" font-family="Helvetica,sans-Serif" font-size="10.00">FatFormatter::initFatDir</text>
</a>
</g>
</g>
<!-- Node2 -->
<g id="Node000002" class="node">
<title>Node2</title>
<g id="a_Node000002"><a xlink:href="../../d8/d7f/classSharedSpiCard_adf2ce56ca0a56fe841fbdf75f7f3faee.xhtml#adf2ce56ca0a56fe841fbdf75f7f3faee" target="_top" xlink:title=" ">
<polygon fill="white" stroke="#666666" points="314,-194.22 165,-194.22 165,-175.22 314,-175.22 314,-194.22"/>
<text text-anchor="middle" x="239.5" y="-182.22" font-family="Helvetica,sans-Serif" font-size="10.00">SharedSpiCard::writeSector</text>
</a>
</g>
</g>
<!-- Node1&#45;&gt;Node2 -->
<g id="edge1_Node000001_Node000002" class="edge">
<title>Node1&#45;&gt;Node2</title>
<g id="a_edge1_Node000001_Node000002"><a xlink:title=" ">
<path fill="none" stroke="#63b8ff" d="M129.43,-184.72C137.73,-184.72 146.33,-184.72 154.89,-184.72"/>
<polygon fill="#63b8ff" stroke="#63b8ff" points="154.91,-188.22 164.91,-184.72 154.91,-181.22 154.91,-188.22"/>
</a>
</g>
</g>
<!-- Node3 -->
<g id="Node000003" class="node">
<title>Node3</title>
<g id="a_Node000003"><a xlink:href="../../d8/d7f/classSharedSpiCard_adda33199753fc2aec74fe317cbaabc06.xhtml#adda33199753fc2aec74fe317cbaabc06" target="_top" xlink:title=" ">
<polygon fill="white" stroke="#666666" points="515,-194.22 350,-194.22 350,-175.22 515,-175.22 515,-194.22"/>
<text text-anchor="middle" x="432.5" y="-182.22" font-family="Helvetica,sans-Serif" font-size="10.00">SharedSpiCard::cardCommand</text>
</a>
</g>
</g>
<!-- Node2&#45;&gt;Node3 -->
<g id="edge2_Node000002_Node000003" class="edge">
<title>Node2&#45;&gt;Node3</title>
<g id="a_edge2_Node000002_Node000003"><a xlink:title=" ">
<path fill="none" stroke="#63b8ff" d="M314.07,-184.72C322.46,-184.72 331.08,-184.72 339.66,-184.72"/>
<polygon fill="#63b8ff" stroke="#63b8ff" points="339.7,-188.22 349.7,-184.72 339.7,-181.22 339.7,-188.22"/>
</a>
</g>
</g>
<!-- Node4 -->
<g id="Node000004" class="node">
<title>Node4</title>
<g id="a_Node000004"><a xlink:href="../../d8/d7f/classSharedSpiCard_a08363209d938db87521cca6a84146041.xhtml#a08363209d938db87521cca6a84146041" target="_top" xlink:title=" ">
<polygon fill="white" stroke="#666666" points="1251,-61.22 1104,-61.22 1104,-42.22 1251,-42.22 1251,-61.22"/>
<text text-anchor="middle" x="1177.5" y="-49.22" font-family="Helvetica,sans-Serif" font-size="10.00">SharedSpiCard::spiReceive</text>
</a>
</g>
</g>
<!-- Node2&#45;&gt;Node4 -->
<g id="edge36_Node000002_Node000004" class="edge">
<title>Node2&#45;&gt;Node4</title>
<g id="a_edge36_Node000002_Node000004"><a xlink:title=" ">
<path fill="none" stroke="#63b8ff" d="M244.05,-174.98C254.87,-146.94 290.32,-65.93 350,-32.72 457.06,26.85 502.49,-13.72 625,-13.72 625,-13.72 625,-13.72 809,-13.72 914.52,-13.72 1036.19,-29.41 1109.67,-40.63"/>
<polygon fill="#63b8ff" stroke="#63b8ff" points="1109.3,-44.11 1119.71,-42.18 1110.36,-37.2 1109.3,-44.11"/>
</a>
</g>
</g>
<!-- Node17 -->
<g id="Node000017" class="node">
<title>Node17</title>
<g id="a_Node000017"><a xlink:href="../../d8/d7f/classSharedSpiCard_a747c3f0b962098cf0c097f3c4c2b4fd4.xhtml#a747c3f0b962098cf0c097f3c4c2b4fd4" target="_top" xlink:title=" ">
<polygon fill="white" stroke="#666666" points="1046.5,-345.22 929.5,-345.22 929.5,-326.22 1046.5,-326.22 1046.5,-345.22"/>
<text text-anchor="middle" x="988" y="-333.22" font-family="Helvetica,sans-Serif" font-size="10.00">SharedSpiCard::error</text>
</a>
</g>
</g>
<!-- Node2&#45;&gt;Node17 -->
<g id="edge35_Node000002_Node000017" class="edge">
<title>Node2&#45;&gt;Node17</title>
<g id="a_edge35_Node000002_Node000017"><a xlink:title=" ">
<path fill="none" stroke="#63b8ff" d="M243.01,-194.4C251.67,-225.7 283.52,-324.62 350,-367.72 547.5,-495.77 650.53,-449.31 879,-392.72 911.27,-384.73 944.52,-365.14 965.45,-351.16"/>
<polygon fill="#63b8ff" stroke="#63b8ff" points="967.62,-353.92 973.89,-345.38 963.66,-348.15 967.62,-353.92"/>
</a>
</g>
</g>
<!-- Node18 -->
<g id="Node000018" class="node">
<title>Node18</title>
<g id="a_Node000018"><a xlink:href="../../d8/d7f/classSharedSpiCard_a0f511c39c50055a4fc97e720933aee3a.xhtml#a0f511c39c50055a4fc97e720933aee3a" target="_top" xlink:title=" ">
<polygon fill="white" stroke="#666666" points="1053,-289.22 923,-289.22 923,-270.22 1053,-270.22 1053,-289.22"/>
<text text-anchor="middle" x="988" y="-277.22" font-family="Helvetica,sans-Serif" font-size="10.00">SharedSpiCard::spiStop</text>
</a>
</g>
</g>
<!-- Node2&#45;&gt;Node18 -->
<g id="edge37_Node000002_Node000018" class="edge">
<title>Node2&#45;&gt;Node18</title>
<g id="a_edge37_Node000002_Node000018"><a xlink:title=" ">
<path fill="none" stroke="#63b8ff" d="M263.36,-194.31C314.07,-215.1 440.27,-264.18 551,-285.72 632.34,-301.54 654.18,-295.83 737,-298.72 800.07,-300.92 816.13,-304.21 879,-298.72 896.76,-297.17 915.97,-294.21 933.2,-291.08"/>
<polygon fill="#63b8ff" stroke="#63b8ff" points="933.91,-294.51 943.09,-289.23 932.62,-287.63 933.91,-294.51"/>
</a>
</g>
</g>
<!-- Node23 -->
<g id="Node000023" class="node">
<title>Node23</title>
<g id="a_Node000023"><a xlink:href="../../d8/d7f/classSharedSpiCard_ab3468397bb3b12d29dd2f31e45b3dcaf.xhtml#ab3468397bb3b12d29dd2f31e45b3dcaf" target="_top" xlink:title=" ">
<polygon fill="white" stroke="#666666" points="1061,-136.22 915,-136.22 915,-117.22 1061,-117.22 1061,-136.22"/>
<text text-anchor="middle" x="988" y="-124.22" font-family="Helvetica,sans-Serif" font-size="10.00">SharedSpiCard::waitReady</text>
</a>
</g>
</g>
<!-- Node2&#45;&gt;Node23 -->
<g id="edge39_Node000002_Node000023" class="edge">
<title>Node2&#45;&gt;Node23</title>
<g id="a_edge39_Node000002_Node000023"><a xlink:title=" ">
<path fill="none" stroke="#63b8ff" d="M293.29,-175.22C311.25,-172.21 331.46,-169.06 350,-166.72 521.31,-145.15 564.61,-142.35 737,-132.72 792.85,-129.6 855.8,-128.1 904.56,-127.38"/>
<polygon fill="#63b8ff" stroke="#63b8ff" points="904.8,-130.88 914.75,-127.24 904.7,-123.88 904.8,-130.88"/>
</a>
</g>
</g>
<!-- Node27 -->
<g id="Node000027" class="node">
<title>Node27</title>
<g id="a_Node000027"><a xlink:href="../../d8/d7f/classSharedSpiCard_a7dac2190763d7b4b72163ed7131e8a87.xhtml#a7dac2190763d7b4b72163ed7131e8a87" target="_top" xlink:title=" ">
<polygon fill="white" stroke="#666666" points="490.5,-61.22 374.5,-61.22 374.5,-42.22 490.5,-42.22 490.5,-61.22"/>
<text text-anchor="middle" x="432.5" y="-49.22" font-family="Helvetica,sans-Serif" font-size="10.00">SharedSpiCard::type</text>
</a>
</g>
</g>
<!-- Node2&#45;&gt;Node27 -->
<g id="edge38_Node000002_Node000027" class="edge">
<title>Node2&#45;&gt;Node27</title>
<g id="a_edge38_Node000002_Node000027"><a xlink:title=" ">
<path fill="none" stroke="#63b8ff" d="M247.54,-174.96C263.38,-153.7 304.07,-102.92 350,-75.72 357.65,-71.19 366.22,-67.46 374.85,-64.41"/>
<polygon fill="#63b8ff" stroke="#63b8ff" points="376.15,-67.66 384.58,-61.24 373.99,-61.01 376.15,-67.66"/>
</a>
</g>
</g>
<!-- Node28 -->
<g id="Node000028" class="node">
<title>Node28</title>
<g id="a_Node000028"><a xlink:href="../../d8/d7f/classSharedSpiCard_a5b6d7ad34f56d0d6a6c5059d920499ba.xhtml#a5b6d7ad34f56d0d6a6c5059d920499ba" target="_top" xlink:title=" ">
<polygon fill="white" stroke="#666666" points="879,-365.22 737,-365.22 737,-346.22 879,-346.22 879,-365.22"/>
<text text-anchor="middle" x="808" y="-353.22" font-family="Helvetica,sans-Serif" font-size="10.00">SharedSpiCard::writeData</text>
</a>
</g>
</g>
<!-- Node2&#45;&gt;Node28 -->
<g id="edge40_Node000002_Node000028" class="edge">
<title>Node2&#45;&gt;Node28</title>
<g id="a_edge40_Node000002_Node000028"><a xlink:title=" ">
<path fill="none" stroke="#63b8ff" d="M244.29,-194.59C255.49,-222.22 291.36,-300.33 350,-331.72 480.17,-401.4 662.18,-382.56 752.17,-367"/>
<polygon fill="#63b8ff" stroke="#63b8ff" points="752.92,-370.42 762.15,-365.22 751.69,-363.53 752.92,-370.42"/>
</a>
</g>
</g>
<!-- Node3&#45;&gt;Node4 -->
<g id="edge3_Node000003_Node000004" class="edge">
<title>Node3&#45;&gt;Node4</title>
<g id="a_edge3_Node000003_Node000004"><a xlink:title=" ">
<path fill="none" stroke="#63b8ff" d="M462.69,-175.17C486.31,-167.71 520.53,-157.51 551,-150.72 743.38,-107.84 973.07,-76.46 1093.46,-61.51"/>
<polygon fill="#63b8ff" stroke="#63b8ff" points="1094.21,-64.95 1103.71,-60.25 1093.36,-58 1094.21,-64.95"/>
</a>
</g>
</g>
<!-- Node6 -->
<g id="Node000006" class="node">
<title>Node6</title>
<g id="a_Node000006"><a xlink:href="../../d8/d7f/classSharedSpiCard_ab311b9ad8a250f06afbe091f7abb118b.xhtml#ab311b9ad8a250f06afbe091f7abb118b" target="_top" xlink:title=" ">
<polygon fill="white" stroke="#666666" points="1243.5,-250.22 1111.5,-250.22 1111.5,-231.22 1243.5,-231.22 1243.5,-250.22"/>
<text text-anchor="middle" x="1177.5" y="-238.22" font-family="Helvetica,sans-Serif" font-size="10.00">SharedSpiCard::spiSend</text>
</a>
</g>
</g>
<!-- Node3&#45;&gt;Node6 -->
<g id="edge5_Node000003_Node000006" class="edge">
<title>Node3&#45;&gt;Node6</title>
<g id="a_edge5_Node000003_Node000006"><a xlink:title=" ">
<path fill="none" stroke="#63b8ff" d="M515.14,-190.87C660.23,-201.81 960.89,-224.47 1101.26,-235.05"/>
<polygon fill="#63b8ff" stroke="#63b8ff" points="1101.25,-238.56 1111.49,-235.82 1101.78,-231.58 1101.25,-238.56"/>
</a>
</g>
</g>
<!-- Node8 -->
<g id="Node000008" class="node">
<title>Node8</title>
<g id="a_Node000008"><a xlink:href="../../d8/d7f/classSharedSpiCard_aef2dfa72e8d5643c90720f9f8c6a4254.xhtml#aef2dfa72e8d5643c90720f9f8c6a4254" target="_top" xlink:title=" ">
<polygon fill="white" stroke="#666666" points="1053.5,-175.22 922.5,-175.22 922.5,-156.22 1053.5,-156.22 1053.5,-175.22"/>
<text text-anchor="middle" x="988" y="-163.22" font-family="Helvetica,sans-Serif" font-size="10.00">SharedSpiCard::spiStart</text>
</a>
</g>
</g>
<!-- Node3&#45;&gt;Node8 -->
<g id="edge7_Node000003_Node000008" class="edge">
<title>Node3&#45;&gt;Node8</title>
<g id="a_edge7_Node000003_Node000008"><a xlink:title=" ">
<path fill="none" stroke="#63b8ff" d="M515.17,-181.92C622.27,-178.24 808.66,-171.84 912.22,-168.29"/>
<polygon fill="#63b8ff" stroke="#63b8ff" points="912.41,-171.78 922.29,-167.94 912.17,-164.79 912.41,-171.78"/>
</a>
</g>
</g>
<!-- Node15 -->
<g id="Node000015" class="node">
<title>Node15</title>
<g id="a_Node000015"><a xlink:href="../../d8/d7f/classSharedSpiCard_a2f181b3d6f27413a0f5ee883dfd94d87.xhtml#a2f181b3d6f27413a0f5ee883dfd94d87" target="_top" xlink:title=" ">
<polygon fill="white" stroke="#666666" points="701,-251.22 551,-251.22 551,-232.22 701,-232.22 701,-251.22"/>
<text text-anchor="middle" x="626" y="-239.22" font-family="Helvetica,sans-Serif" font-size="10.00">SharedSpiCard::syncDevice</text>
</a>
</g>
</g>
<!-- Node3&#45;&gt;Node15 -->
<g id="edge15_Node000003_Node000015" class="edge">
<title>Node3&#45;&gt;Node15</title>
<g id="a_edge15_Node000003_Node000015"><a xlink:title=" ">
<path fill="none" stroke="#63b8ff" d="M465.55,-194.26C497.73,-203.84 547.46,-218.64 582.82,-229.17"/>
<polygon fill="#63b8ff" stroke="#63b8ff" points="582.26,-232.65 592.84,-232.15 584.26,-225.94 582.26,-232.65"/>
</a>
</g>
</g>
<!-- Node3&#45;&gt;Node23 -->
<g id="edge34_Node000003_Node000023" class="edge">
<title>Node3&#45;&gt;Node23</title>
<g id="a_edge34_Node000003_Node000023"><a xlink:title=" ">
<path fill="none" stroke="#63b8ff" d="M511.85,-175.19C524.92,-173.65 538.34,-172.11 551,-170.72 674.12,-157.17 816.97,-143.06 904.67,-134.58"/>
<polygon fill="#63b8ff" stroke="#63b8ff" points="905.21,-138.05 914.82,-133.6 904.53,-131.08 905.21,-138.05"/>
</a>
</g>
</g>
<!-- Node5 -->
<g id="Node000005" class="node">
<title>Node5</title>
<g id="a_Node000005"><a xlink:href="../../d0/d25/classSdSpiArduinoDriver_a8d6bc852a52e9d69c4b1e48ee062e8d1.xhtml#a8d6bc852a52e9d69c4b1e48ee062e8d1" target="_top" xlink:title=" ">
<polygon fill="white" stroke="#666666" points="1405,-66.72 1294,-66.72 1294,-36.72 1405,-36.72 1405,-66.72"/>
<text text-anchor="start" x="1302" y="-54.72" font-family="Helvetica,sans-Serif" font-size="10.00">SdSpiArduinoDriver</text>
<text text-anchor="middle" x="1349.5" y="-43.72" font-family="Helvetica,sans-Serif" font-size="10.00">::receive</text>
</a>
</g>
</g>
<!-- Node4&#45;&gt;Node5 -->
<g id="edge4_Node000004_Node000005" class="edge">
<title>Node4&#45;&gt;Node5</title>
<g id="a_edge4_Node000004_Node000005"><a xlink:title=" ">
<path fill="none" stroke="#63b8ff" d="M1251.09,-51.72C1261.96,-51.72 1273.11,-51.72 1283.81,-51.72"/>
<polygon fill="#63b8ff" stroke="#63b8ff" points="1283.9,-55.22 1293.9,-51.72 1283.9,-48.22 1283.9,-55.22"/>
</a>
</g>
</g>
<!-- Node7 -->
<g id="Node000007" class="node">
<title>Node7</title>
<g id="a_Node000007"><a xlink:href="../../d0/d25/classSdSpiArduinoDriver_a3c4842e47f98fe5d3799cd6028778ab5.xhtml#a3c4842e47f98fe5d3799cd6028778ab5" target="_top" xlink:title=" ">
<polygon fill="white" stroke="#666666" points="1405,-266.72 1294,-266.72 1294,-236.72 1405,-236.72 1405,-266.72"/>
<text text-anchor="start" x="1302" y="-254.72" font-family="Helvetica,sans-Serif" font-size="10.00">SdSpiArduinoDriver</text>
<text text-anchor="middle" x="1349.5" y="-243.72" font-family="Helvetica,sans-Serif" font-size="10.00">::send</text>
</a>
</g>
</g>
<!-- Node6&#45;&gt;Node7 -->
<g id="edge6_Node000006_Node000007" class="edge">
<title>Node6&#45;&gt;Node7</title>
<g id="a_edge6_Node000006_Node000007"><a xlink:title=" ">
<path fill="none" stroke="#63b8ff" d="M1243.74,-244.94C1256.82,-245.79 1270.56,-246.68 1283.62,-247.52"/>
<polygon fill="#63b8ff" stroke="#63b8ff" points="1283.72,-251.04 1293.93,-248.19 1284.18,-244.05 1283.72,-251.04"/>
</a>
</g>
</g>
<!-- Node8&#45;&gt;Node6 -->
<g id="edge14_Node000008_Node000006" class="edge">
<title>Node8&#45;&gt;Node6</title>
<g id="a_edge14_Node000008_Node000006"><a xlink:title=" ">
<path fill="none" stroke="#63b8ff" d="M1027.67,-175.32C1038.85,-178.95 1050.78,-183.71 1061,-189.72 1079.71,-200.73 1077.77,-212.65 1097,-222.72 1100.57,-224.59 1104.32,-226.26 1108.18,-227.76"/>
<polygon fill="#63b8ff" stroke="#63b8ff" points="1107.33,-231.17 1117.93,-231.15 1109.63,-224.56 1107.33,-231.17"/>
</a>
</g>
</g>
<!-- Node9 -->
<g id="Node000009" class="node">
<title>Node9</title>
<g id="a_Node000009"><a xlink:href="../../d8/d7f/classSharedSpiCard_a69ee2fe49dfaeea2347d8a265806d2b6.xhtml#a69ee2fe49dfaeea2347d8a265806d2b6" target="_top" xlink:title=" ">
<polygon fill="white" stroke="#666666" points="1252,-175.22 1103,-175.22 1103,-156.22 1252,-156.22 1252,-175.22"/>
<text text-anchor="middle" x="1177.5" y="-163.22" font-family="Helvetica,sans-Serif" font-size="10.00">SharedSpiCard::spiActivate</text>
</a>
</g>
</g>
<!-- Node8&#45;&gt;Node9 -->
<g id="edge8_Node000008_Node000009" class="edge">
<title>Node8&#45;&gt;Node9</title>
<g id="a_edge8_Node000008_Node000009"><a xlink:title=" ">
<path fill="none" stroke="#63b8ff" d="M1053.53,-165.72C1066.19,-165.72 1079.64,-165.72 1092.82,-165.72"/>
<polygon fill="#63b8ff" stroke="#63b8ff" points="1092.84,-169.22 1102.84,-165.72 1092.84,-162.22 1092.84,-169.22"/>
</a>
</g>
</g>
<!-- Node11 -->
<g id="Node000011" class="node">
<title>Node11</title>
<g id="a_Node000011"><a xlink:href="../../d8/d7f/classSharedSpiCard_a8c3088599862ff6e84ae79bfdf32aea8.xhtml#a8c3088599862ff6e84ae79bfdf32aea8" target="_top" xlink:title=" ">
<polygon fill="white" stroke="#666666" points="1246.5,-213.22 1108.5,-213.22 1108.5,-194.22 1246.5,-194.22 1246.5,-213.22"/>
<text text-anchor="middle" x="1177.5" y="-201.22" font-family="Helvetica,sans-Serif" font-size="10.00">SharedSpiCard::spiSelect</text>
</a>
</g>
</g>
<!-- Node8&#45;&gt;Node11 -->
<g id="edge10_Node000008_Node000011" class="edge">
<title>Node8&#45;&gt;Node11</title>
<g id="a_edge10_Node000008_Node000011"><a xlink:title=" ">
<path fill="none" stroke="#63b8ff" d="M1036.31,-175.31C1061.61,-180.44 1092.95,-186.79 1119.57,-192.18"/>
<polygon fill="#63b8ff" stroke="#63b8ff" points="1119.03,-195.64 1129.53,-194.2 1120.42,-188.78 1119.03,-195.64"/>
</a>
</g>
</g>
<!-- Node10 -->
<g id="Node000010" class="node">
<title>Node10</title>
<g id="a_Node000010"><a xlink:href="../../d0/d25/classSdSpiArduinoDriver_abb6b88c5c8b87fc344a69f23f6eab3d9.xhtml#abb6b88c5c8b87fc344a69f23f6eab3d9" target="_top" xlink:title=" ">
<polygon fill="white" stroke="#666666" points="1405,-180.72 1294,-180.72 1294,-150.72 1405,-150.72 1405,-180.72"/>
<text text-anchor="start" x="1302" y="-168.72" font-family="Helvetica,sans-Serif" font-size="10.00">SdSpiArduinoDriver</text>
<text text-anchor="middle" x="1349.5" y="-157.72" font-family="Helvetica,sans-Serif" font-size="10.00">::activate</text>
</a>
</g>
</g>
<!-- Node9&#45;&gt;Node10 -->
<g id="edge9_Node000009_Node000010" class="edge">
<title>Node9&#45;&gt;Node10</title>
<g id="a_edge9_Node000009_Node000010"><a xlink:title=" ">
<path fill="none" stroke="#63b8ff" d="M1252.08,-165.72C1262.57,-165.72 1273.31,-165.72 1283.63,-165.72"/>
<polygon fill="#63b8ff" stroke="#63b8ff" points="1283.78,-169.22 1293.78,-165.72 1283.78,-162.22 1283.78,-169.22"/>
</a>
</g>
</g>
<!-- Node12 -->
<g id="Node000012" class="node">
<title>Node12</title>
<g id="a_Node000012"><a xlink:href="../../d2/df0/SdSpiChipSelect_8cpp_ac469bbe2d31ffde9b00ffc68258d7428.xhtml#ac469bbe2d31ffde9b00ffc68258d7428" target="_top" xlink:title=" ">
<polygon fill="white" stroke="#666666" points="1382.5,-218.22 1316.5,-218.22 1316.5,-199.22 1382.5,-199.22 1382.5,-218.22"/>
<text text-anchor="middle" x="1349.5" y="-206.22" font-family="Helvetica,sans-Serif" font-size="10.00">sdCsWrite</text>
</a>
</g>
</g>
<!-- Node11&#45;&gt;Node12 -->
<g id="edge11_Node000011_Node000012" class="edge">
<title>Node11&#45;&gt;Node12</title>
<g id="a_edge11_Node000011_Node000012"><a xlink:title=" ">
<path fill="none" stroke="#63b8ff" d="M1246.67,-205.73C1266.74,-206.32 1288.12,-206.94 1306.09,-207.47"/>
<polygon fill="#63b8ff" stroke="#63b8ff" points="1306.13,-210.98 1316.23,-207.77 1306.34,-203.98 1306.13,-210.98"/>
</a>
</g>
</g>
<!-- Node13 -->
<g id="Node000013" class="node">
<title>Node13</title>
<g id="a_Node000013"><a xlink:href="../../d5/d45/wiring__digital_8c_a73b9b61feeaf7d790d107f2954a7fd93.xhtml#a73b9b61feeaf7d790d107f2954a7fd93" target="_top" xlink:title=" ">
<polygon fill="white" stroke="#666666" points="1515,-218.22 1441,-218.22 1441,-199.22 1515,-199.22 1515,-218.22"/>
<text text-anchor="middle" x="1478" y="-206.22" font-family="Helvetica,sans-Serif" font-size="10.00">digitalWrite</text>
</a>
</g>
</g>
<!-- Node12&#45;&gt;Node13 -->
<g id="edge12_Node000012_Node000013" class="edge">
<title>Node12&#45;&gt;Node13</title>
<g id="a_edge12_Node000012_Node000013"><a xlink:title=" ">
<path fill="none" stroke="#63b8ff" d="M1382.75,-208.72C1397.28,-208.72 1414.71,-208.72 1430.61,-208.72"/>
<polygon fill="#63b8ff" stroke="#63b8ff" points="1430.79,-212.22 1440.79,-208.72 1430.79,-205.22 1430.79,-212.22"/>
</a>
</g>
</g>
<!-- Node14 -->
<g id="Node000014" class="node">
<title>Node14</title>
<g id="a_Node000014"><a xlink:href="../../d5/d45/wiring__digital_8c_ae3d0bcbe4eb927ca8f5d5c21b7e4f224.xhtml#ae3d0bcbe4eb927ca8f5d5c21b7e4f224" target="_top" xlink:title=" ">
<polygon fill="white" stroke="#666666" points="1626,-218.22 1551,-218.22 1551,-199.22 1626,-199.22 1626,-218.22"/>
<text text-anchor="middle" x="1588.5" y="-206.22" font-family="Helvetica,sans-Serif" font-size="10.00">turnOffPWM</text>
</a>
</g>
</g>
<!-- Node13&#45;&gt;Node14 -->
<g id="edge13_Node000013_Node000014" class="edge">
<title>Node13&#45;&gt;Node14</title>
<g id="a_edge13_Node000013_Node000014"><a xlink:title=" ">
<path fill="none" stroke="#63b8ff" d="M1515.13,-208.72C1523.28,-208.72 1532.05,-208.72 1540.57,-208.72"/>
<polygon fill="#63b8ff" stroke="#63b8ff" points="1540.79,-212.22 1550.79,-208.72 1540.79,-205.22 1540.79,-212.22"/>
</a>
</g>
</g>
<!-- Node16 -->
<g id="Node000016" class="node">
<title>Node16</title>
<g id="a_Node000016"><a xlink:href="../../d8/d7f/classSharedSpiCard_ab33ad2aefbb9cff905cad0879dffc78b.xhtml#ab33ad2aefbb9cff905cad0879dffc78b" target="_top" xlink:title=" ">
<polygon fill="white" stroke="#666666" points="876.5,-289.22 739.5,-289.22 739.5,-270.22 876.5,-270.22 876.5,-289.22"/>
<text text-anchor="middle" x="808" y="-277.22" font-family="Helvetica,sans-Serif" font-size="10.00">SharedSpiCard::readStop</text>
</a>
</g>
</g>
<!-- Node15&#45;&gt;Node16 -->
<g id="edge16_Node000015_Node000016" class="edge">
<title>Node15&#45;&gt;Node16</title>
<g id="a_edge16_Node000015_Node000016"><a xlink:title=" ">
<path fill="none" stroke="#63b8ff" d="M672.42,-251.31C696.6,-256.41 726.53,-262.73 752.01,-268.11"/>
<polygon fill="#63b8ff" stroke="#63b8ff" points="751.4,-271.56 761.91,-270.2 752.84,-264.71 751.4,-271.56"/>
</a>
</g>
</g>
<!-- Node22 -->
<g id="Node000022" class="node">
<title>Node22</title>
<g id="a_Node000022"><a xlink:href="../../d8/d7f/classSharedSpiCard_ae9a34a573077e43e7c6028a16ae77fb3.xhtml#ae9a34a573077e43e7c6028a16ae77fb3" target="_top" xlink:title=" ">
<polygon fill="white" stroke="#666666" points="878,-251.22 738,-251.22 738,-232.22 878,-232.22 878,-251.22"/>
<text text-anchor="middle" x="808" y="-239.22" font-family="Helvetica,sans-Serif" font-size="10.00">SharedSpiCard::writeStop</text>
</a>
</g>
</g>
<!-- Node15&#45;&gt;Node22 -->
<g id="edge25_Node000015_Node000022" class="edge">
<title>Node15&#45;&gt;Node22</title>
<g id="a_edge25_Node000015_Node000022"><a xlink:title=" ">
<path fill="none" stroke="#63b8ff" d="M701.25,-241.72C709.95,-241.72 718.86,-241.72 727.62,-241.72"/>
<polygon fill="#63b8ff" stroke="#63b8ff" points="727.83,-245.22 737.83,-241.72 727.83,-238.22 727.83,-245.22"/>
</a>
</g>
</g>
<!-- Node16&#45;&gt;Node3 -->
<g id="edge17_Node000016_Node000003" class="edge">
<title>Node16&#45;&gt;Node3</title>
<g id="a_edge17_Node000016_Node000003"><a xlink:title=" ">
<path fill="none" stroke="#63b8ff" d="M739.44,-283.7C686.76,-284.69 612.47,-281.37 551,-260.72 512.37,-247.74 473.92,-219.14 452,-200.97"/>
<polygon fill="#63b8ff" stroke="#63b8ff" points="454.07,-198.14 444.18,-194.34 449.54,-203.47 454.07,-198.14"/>
</a>
</g>
</g>
<!-- Node16&#45;&gt;Node17 -->
<g id="edge18_Node000016_Node000017" class="edge">
<title>Node16&#45;&gt;Node17</title>
<g id="a_edge18_Node000016_Node000017"><a xlink:title=" ">
<path fill="none" stroke="#63b8ff" d="M839.6,-289.35C869.33,-298.7 914.62,-312.95 947.15,-323.18"/>
<polygon fill="#63b8ff" stroke="#63b8ff" points="946.21,-326.56 956.8,-326.22 948.31,-319.88 946.21,-326.56"/>
</a>
</g>
</g>
<!-- Node16&#45;&gt;Node18 -->
<g id="edge19_Node000016_Node000018" class="edge">
<title>Node16&#45;&gt;Node18</title>
<g id="a_edge19_Node000016_Node000018"><a xlink:title=" ">
<path fill="none" stroke="#63b8ff" d="M876.55,-279.72C888.26,-279.72 900.5,-279.72 912.39,-279.72"/>
<polygon fill="#63b8ff" stroke="#63b8ff" points="912.73,-283.22 922.73,-279.72 912.73,-276.22 912.73,-283.22"/>
</a>
</g>
</g>
<!-- Node18&#45;&gt;Node6 -->
<g id="edge22_Node000018_Node000006" class="edge">
<title>Node18&#45;&gt;Node6</title>
<g id="a_edge22_Node000018_Node000006"><a xlink:title=" ">
<path fill="none" stroke="#63b8ff" d="M1034.87,-270.18C1060.84,-264.78 1093.52,-257.98 1120.94,-252.28"/>
<polygon fill="#63b8ff" stroke="#63b8ff" points="1121.7,-255.69 1130.78,-250.23 1120.28,-248.84 1121.7,-255.69"/>
</a>
</g>
</g>
<!-- Node19 -->
<g id="Node000019" class="node">
<title>Node19</title>
<g id="a_Node000019"><a xlink:href="../../d8/d7f/classSharedSpiCard_ac6acfca5a23337977d2e4436ab8ab39a.xhtml#ac6acfca5a23337977d2e4436ab8ab39a" target="_top" xlink:title=" ">
<polygon fill="white" stroke="#666666" points="1258,-324.22 1097,-324.22 1097,-305.22 1258,-305.22 1258,-324.22"/>
<text text-anchor="middle" x="1177.5" y="-312.22" font-family="Helvetica,sans-Serif" font-size="10.00">SharedSpiCard::spiDeactivate</text>
</a>
</g>
</g>
<!-- Node18&#45;&gt;Node19 -->
<g id="edge20_Node000018_Node000019" class="edge">
<title>Node18&#45;&gt;Node19</title>
<g id="a_edge20_Node000018_Node000019"><a xlink:title=" ">
<path fill="none" stroke="#63b8ff" d="M1040.24,-289.28C1063.49,-293.62 1091.17,-298.79 1115.49,-303.33"/>
<polygon fill="#63b8ff" stroke="#63b8ff" points="1114.85,-306.77 1125.33,-305.17 1116.14,-299.89 1114.85,-306.77"/>
</a>
</g>
</g>
<!-- Node21 -->
<g id="Node000021" class="node">
<title>Node21</title>
<g id="a_Node000021"><a xlink:href="../../d8/d7f/classSharedSpiCard_ad06a3278372300987b97876cf598c114.xhtml#ad06a3278372300987b97876cf598c114" target="_top" xlink:title=" ">
<polygon fill="white" stroke="#666666" points="1253,-287.22 1102,-287.22 1102,-268.22 1253,-268.22 1253,-287.22"/>
<text text-anchor="middle" x="1177.5" y="-275.22" font-family="Helvetica,sans-Serif" font-size="10.00">SharedSpiCard::spiUnselect</text>
</a>
</g>
</g>
<!-- Node18&#45;&gt;Node21 -->
<g id="edge23_Node000018_Node000021" class="edge">
<title>Node18&#45;&gt;Node21</title>
<g id="a_edge23_Node000018_Node000021"><a xlink:title=" ">
<path fill="none" stroke="#63b8ff" d="M1053,-279.04C1065.39,-278.91 1078.55,-278.77 1091.49,-278.63"/>
<polygon fill="#63b8ff" stroke="#63b8ff" points="1091.84,-282.12 1101.8,-278.52 1091.76,-275.12 1091.84,-282.12"/>
</a>
</g>
</g>
<!-- Node20 -->
<g id="Node000020" class="node">
<title>Node20</title>
<g id="a_Node000020"><a xlink:href="../../d0/d25/classSdSpiArduinoDriver_ae88a255f533e3acb41d1221025a69b55.xhtml#ae88a255f533e3acb41d1221025a69b55" target="_top" xlink:title=" ">
<polygon fill="white" stroke="#666666" points="1405,-329.72 1294,-329.72 1294,-299.72 1405,-299.72 1405,-329.72"/>
<text text-anchor="start" x="1302" y="-317.72" font-family="Helvetica,sans-Serif" font-size="10.00">SdSpiArduinoDriver</text>
<text text-anchor="middle" x="1349.5" y="-306.72" font-family="Helvetica,sans-Serif" font-size="10.00">::deactivate</text>
</a>
</g>
</g>
<!-- Node19&#45;&gt;Node20 -->
<g id="edge21_Node000019_Node000020" class="edge">
<title>Node19&#45;&gt;Node20</title>
<g id="a_edge21_Node000019_Node000020"><a xlink:title=" ">
<path fill="none" stroke="#63b8ff" d="M1258.02,-314.72C1266.63,-314.72 1275.3,-314.72 1283.7,-314.72"/>
<polygon fill="#63b8ff" stroke="#63b8ff" points="1283.78,-318.22 1293.78,-314.72 1283.78,-311.22 1283.78,-318.22"/>
</a>
</g>
</g>
<!-- Node21&#45;&gt;Node12 -->
<g id="edge24_Node000021_Node000012" class="edge">
<title>Node21&#45;&gt;Node12</title>
<g id="a_edge24_Node000021_Node000012"><a xlink:title=" ">
<path fill="none" stroke="#63b8ff" d="M1236.6,-268.18C1244.01,-265.93 1251.33,-263.15 1258,-259.72 1277.04,-249.94 1275.54,-238.56 1294,-227.72 1298.1,-225.31 1302.56,-223.14 1307.1,-221.2"/>
<polygon fill="#63b8ff" stroke="#63b8ff" points="1308.4,-224.45 1316.44,-217.56 1305.85,-217.93 1308.4,-224.45"/>
</a>
</g>
</g>
<!-- Node22&#45;&gt;Node6 -->
<g id="edge27_Node000022_Node000006" class="edge">
<title>Node22&#45;&gt;Node6</title>
<g id="a_edge27_Node000022_Node000006"><a xlink:title=" ">
<path fill="none" stroke="#63b8ff" d="M878.12,-241.53C941.67,-241.36 1035.68,-241.1 1101.14,-240.93"/>
<polygon fill="#63b8ff" stroke="#63b8ff" points="1101.4,-244.42 1111.39,-240.9 1101.38,-237.42 1101.4,-244.42"/>
</a>
</g>
</g>
<!-- Node22&#45;&gt;Node17 -->
<g id="edge26_Node000022_Node000017" class="edge">
<title>Node22&#45;&gt;Node17</title>
<g id="a_edge26_Node000022_Node000017"><a xlink:title=" ">
<path fill="none" stroke="#63b8ff" d="M855.24,-251.22C863.47,-253.94 871.73,-257.38 879,-261.72 898.69,-273.49 896.55,-285.08 915,-298.72 927.06,-307.65 941.59,-315.56 954.43,-321.76"/>
<polygon fill="#63b8ff" stroke="#63b8ff" points="953.3,-325.1 963.84,-326.15 956.26,-318.75 953.3,-325.1"/>
</a>
</g>
</g>
<!-- Node22&#45;&gt;Node18 -->
<g id="edge28_Node000022_Node000018" class="edge">
<title>Node22&#45;&gt;Node18</title>
<g id="a_edge28_Node000022_Node000018"><a xlink:title=" ">
<path fill="none" stroke="#63b8ff" d="M853.92,-251.31C877.83,-256.41 907.42,-262.73 932.62,-268.11"/>
<polygon fill="#63b8ff" stroke="#63b8ff" points="931.9,-271.54 942.41,-270.2 933.36,-264.69 931.9,-271.54"/>
</a>
</g>
</g>
<!-- Node22&#45;&gt;Node23 -->
<g id="edge29_Node000022_Node000023" class="edge">
<title>Node22&#45;&gt;Node23</title>
<g id="a_edge29_Node000022_Node000023"><a xlink:title=" ">
<path fill="none" stroke="#63b8ff" d="M817.04,-232.2C833.49,-213.31 873.02,-170.91 915,-147.72 920.61,-144.62 926.72,-141.94 932.94,-139.63"/>
<polygon fill="#63b8ff" stroke="#63b8ff" points="934.4,-142.83 942.74,-136.29 932.14,-136.2 934.4,-142.83"/>
</a>
</g>
</g>
<!-- Node23&#45;&gt;Node4 -->
<g id="edge30_Node000023_Node000004" class="edge">
<title>Node23&#45;&gt;Node4</title>
<g id="a_edge30_Node000023_Node000004"><a xlink:title=" ">
<path fill="none" stroke="#63b8ff" d="M1013.13,-117.07C1046.18,-103.85 1105.67,-80.05 1143.02,-65.11"/>
<polygon fill="#63b8ff" stroke="#63b8ff" points="1144.48,-68.3 1152.46,-61.33 1141.88,-61.8 1144.48,-68.3"/>
</a>
</g>
</g>
<!-- Node24 -->
<g id="Node000024" class="node">
<title>Node24</title>
<g id="a_Node000024"><a xlink:href="../../db/df4/classTimeout_abbabe99f42e52472ddd3a7e9d22dce95.xhtml#abbabe99f42e52472ddd3a7e9d22dce95" target="_top" xlink:title=" ">
<polygon fill="white" stroke="#666666" points="1232,-134.22 1123,-134.22 1123,-115.22 1232,-115.22 1232,-134.22"/>
<text text-anchor="middle" x="1177.5" y="-122.22" font-family="Helvetica,sans-Serif" font-size="10.00">Timeout::timedOut</text>
</a>
</g>
</g>
<!-- Node23&#45;&gt;Node24 -->
<g id="edge31_Node000023_Node000024" class="edge">
<title>Node23&#45;&gt;Node24</title>
<g id="a_edge31_Node000023_Node000024"><a xlink:title=" ">
<path fill="none" stroke="#63b8ff" d="M1061.22,-125.95C1078.23,-125.77 1096.22,-125.58 1112.82,-125.4"/>
<polygon fill="#63b8ff" stroke="#63b8ff" points="1112.98,-128.9 1122.95,-125.29 1112.91,-121.9 1112.98,-128.9"/>
</a>
</g>
</g>
<!-- Node25 -->
<g id="Node000025" class="node">
<title>Node25</title>
<g id="a_Node000025"><a xlink:href="../../db/df4/classTimeout_a9a72ea0591f11452fb15bfaa1ae5108a.xhtml#a9a72ea0591f11452fb15bfaa1ae5108a" target="_top" xlink:title=" ">
<polygon fill="white" stroke="#666666" points="1400.5,-132.22 1298.5,-132.22 1298.5,-113.22 1400.5,-113.22 1400.5,-132.22"/>
<text text-anchor="middle" x="1349.5" y="-120.22" font-family="Helvetica,sans-Serif" font-size="10.00">Timeout::millis16</text>
</a>
</g>
</g>
<!-- Node24&#45;&gt;Node25 -->
<g id="edge32_Node000024_Node000025" class="edge">
<title>Node24&#45;&gt;Node25</title>
<g id="a_edge32_Node000024_Node000025"><a xlink:title=" ">
<path fill="none" stroke="#63b8ff" d="M1232.29,-124.09C1250.02,-123.88 1269.85,-123.65 1288.04,-123.43"/>
<polygon fill="#63b8ff" stroke="#63b8ff" points="1288.28,-126.93 1298.24,-123.31 1288.2,-119.93 1288.28,-126.93"/>
</a>
</g>
</g>
<!-- Node26 -->
<g id="Node000026" class="node">
<title>Node26</title>
<g id="a_Node000026"><a xlink:href="../../d5/df3/wiring_8c_a6ff7f2532a22366f0013bc41397129fd.xhtml#a6ff7f2532a22366f0013bc41397129fd" target="_top" xlink:title=" ">
<polygon fill="white" stroke="#666666" points="1500,-132.22 1456,-132.22 1456,-113.22 1500,-113.22 1500,-132.22"/>
<text text-anchor="middle" x="1478" y="-120.22" font-family="Helvetica,sans-Serif" font-size="10.00">millis</text>
</a>
</g>
</g>
<!-- Node25&#45;&gt;Node26 -->
<g id="edge33_Node000025_Node000026" class="edge">
<title>Node25&#45;&gt;Node26</title>
<g id="a_edge33_Node000025_Node000026"><a xlink:title=" ">
<path fill="none" stroke="#63b8ff" d="M1400.86,-122.72C1415.97,-122.72 1432.11,-122.72 1445.62,-122.72"/>
<polygon fill="#63b8ff" stroke="#63b8ff" points="1445.83,-126.22 1455.83,-122.72 1445.83,-119.22 1445.83,-126.22"/>
</a>
</g>
</g>
<!-- Node28&#45;&gt;Node17 -->
<g id="edge41_Node000028_Node000017" class="edge">
<title>Node28&#45;&gt;Node17</title>
<g id="a_edge41_Node000028_Node000017"><a xlink:title=" ">
<path fill="none" stroke="#63b8ff" d="M879.09,-347.84C892.22,-346.37 905.92,-344.83 918.99,-343.36"/>
<polygon fill="#63b8ff" stroke="#63b8ff" points="919.76,-346.8 929.3,-342.2 918.97,-339.84 919.76,-346.8"/>
</a>
</g>
</g>
<!-- Node28&#45;&gt;Node18 -->
<g id="edge42_Node000028_Node000018" class="edge">
<title>Node28&#45;&gt;Node18</title>
<g id="a_edge42_Node000028_Node000018"><a xlink:title=" ">
<path fill="none" stroke="#63b8ff" d="M839.27,-346.21C851.7,-342.08 866.16,-336.99 879,-331.72 907.17,-320.16 938.43,-304.82 960.04,-293.8"/>
<polygon fill="#63b8ff" stroke="#63b8ff" points="961.66,-296.91 968.95,-289.22 958.46,-290.68 961.66,-296.91"/>
</a>
</g>
</g>
<!-- Node28&#45;&gt;Node23 -->
<g id="edge43_Node000028_Node000023" class="edge">
<title>Node28&#45;&gt;Node23</title>
<g id="a_edge43_Node000028_Node000023"><a xlink:title=" ">
<path fill="none" stroke="#63b8ff" d="M826.44,-346.09C842.55,-336.28 865.91,-319.56 879,-298.72 915.69,-240.29 867.44,-197.7 915,-147.72 917.29,-145.31 919.84,-143.18 922.57,-141.29"/>
<polygon fill="#63b8ff" stroke="#63b8ff" points="924.32,-144.32 931.24,-136.3 920.83,-138.25 924.32,-144.32"/>
</a>
</g>
</g>
<!-- Node28&#45;&gt;Node28 -->
<g id="edge44_Node000028_Node000028" class="edge">
<title>Node28&#45;&gt;Node28</title>
<g id="a_edge44_Node000028_Node000028"><a xlink:title=" ">
<path fill="none" stroke="#63b8ff" d="M780.26,-365.3C766.76,-373.95 776.01,-383.22 808,-383.22 829.49,-383.22 840.72,-379.04 841.68,-373.67"/>
<polygon fill="#63b8ff" stroke="#63b8ff" points="844.39,-371.43 835.74,-365.3 838.68,-375.48 844.39,-371.43"/>
</a>
</g>
</g>
</g>
</svg>
