<?xml version="1.0" encoding="UTF-8" standalone="no"?>
<!DOCTYPE svg PUBLIC "-//W3C//DTD SVG 1.1//EN"
 "http://www.w3.org/Graphics/SVG/1.1/DTD/svg11.dtd">
<!-- Generated by graphviz version 2.43.0 (0)
 -->
<!-- Title: initBME Pages: 1 -->
<svg width="760pt" height="159pt"
 viewBox="0.00 0.00 760.00 158.95" xmlns="http://www.w3.org/2000/svg" xmlns:xlink="http://www.w3.org/1999/xlink">
<g id="graph0" class="graph" transform="scale(1 1) rotate(0) translate(4 154.95)">
<title>initBME</title>
<!-- Node1 -->
<g id="Node000001" class="node">
<title>Node1</title>
<g id="a_Node000001"><a xlink:title=" ">
<polygon fill="#999999" stroke="#666666" points="54,-74 0,-74 0,-55 54,-55 54,-74"/>
<text text-anchor="middle" x="27" y="-62" font-family="Helvetica,sans-Serif" font-size="10.00">initBME</text>
</a>
</g>
</g>
<!-- Node2 -->
<g id="Node000002" class="node">
<title>Node2</title>
<g id="a_Node000002"><a xlink:href="../../d6/d24/classBME280_aff7bde27ccf8fbba0177b7be4c935220.xhtml#aff7bde27ccf8fbba0177b7be4c935220" target="_top" xlink:title=" ">
<polygon fill="white" stroke="#666666" points="183.5,-93 105.5,-93 105.5,-74 183.5,-74 183.5,-93"/>
<text text-anchor="middle" x="144.5" y="-81" font-family="Helvetica,sans-Serif" font-size="10.00">BME280::init</text>
</a>
</g>
</g>
<!-- Node1&#45;&gt;Node2 -->
<g id="edge1_Node000001_Node000002" class="edge">
<title>Node1&#45;&gt;Node2</title>
<g id="a_edge1_Node000001_Node000002"><a xlink:title=" ">
<path fill="none" stroke="#63b8ff" d="M54.21,-68.81C66.31,-70.8 81.08,-73.23 95.1,-75.54"/>
<polygon fill="#63b8ff" stroke="#63b8ff" points="94.69,-79.02 105.12,-77.19 95.82,-72.11 94.69,-79.02"/>
</a>
</g>
</g>
<!-- Node11 -->
<g id="Node000011" class="node">
<title>Node11</title>
<g id="a_Node000011"><a xlink:href="../../dd/db1/error_8cpp_aa07018cc68b21b664b4ca75a67e679f0.xhtml#aa07018cc68b21b664b4ca75a67e679f0" target="_top" xlink:title=" ">
<polygon fill="white" stroke="#666666" points="199,-56 90,-56 90,-37 199,-37 199,-56"/>
<text text-anchor="middle" x="144.5" y="-44" font-family="Helvetica,sans-Serif" font-size="10.00">switchToErrorMode</text>
</a>
</g>
</g>
<!-- Node1&#45;&gt;Node11 -->
<g id="edge11_Node000001_Node000011" class="edge">
<title>Node1&#45;&gt;Node11</title>
<g id="a_edge11_Node000001_Node000011"><a xlink:title=" ">
<path fill="none" stroke="#63b8ff" d="M54.21,-60.42C61.85,-59.22 70.55,-57.87 79.46,-56.48"/>
<polygon fill="#63b8ff" stroke="#63b8ff" points="80.21,-59.91 89.55,-54.91 79.13,-52.99 80.21,-59.91"/>
</a>
</g>
</g>
<!-- Node3 -->
<g id="Node000003" class="node">
<title>Node3</title>
<g id="a_Node000003"><a xlink:href="../../d6/d24/classBME280_a6846cf01eac22e69dbf6516b1255d332.xhtml#a6846cf01eac22e69dbf6516b1255d332" target="_top" xlink:title=" ">
<polygon fill="white" stroke="#666666" points="577,-131 427,-131 427,-112 577,-112 577,-131"/>
<text text-anchor="middle" x="502" y="-119" font-family="Helvetica,sans-Serif" font-size="10.00">BME280::BME280Read16LE</text>
</a>
</g>
</g>
<!-- Node2&#45;&gt;Node3 -->
<g id="edge2_Node000002_Node000003" class="edge">
<title>Node2&#45;&gt;Node3</title>
<g id="a_edge2_Node000002_Node000003"><a xlink:title=" ">
<path fill="none" stroke="#63b8ff" d="M156.36,-93.19C172.27,-106.68 203.46,-130.45 235,-139.5 310.86,-161.28 403.67,-146.06 457.2,-133.47"/>
<polygon fill="#63b8ff" stroke="#63b8ff" points="458.15,-136.84 467.04,-131.08 456.5,-130.03 458.15,-136.84"/>
</a>
</g>
</g>
<!-- Node5 -->
<g id="Node000005" class="node">
<title>Node5</title>
<g id="a_Node000005"><a xlink:href="../../d6/d24/classBME280_a266f0487e91104454224b14f689b6e55.xhtml#a266f0487e91104454224b14f689b6e55" target="_top" xlink:title=" ">
<polygon fill="white" stroke="#666666" points="379.5,-130 246.5,-130 246.5,-111 379.5,-111 379.5,-130"/>
<text text-anchor="middle" x="313" y="-118" font-family="Helvetica,sans-Serif" font-size="10.00">BME280::BME280Read8</text>
</a>
</g>
</g>
<!-- Node2&#45;&gt;Node5 -->
<g id="edge4_Node000002_Node000005" class="edge">
<title>Node2&#45;&gt;Node5</title>
<g id="a_edge4_Node000002_Node000005"><a xlink:title=" ">
<path fill="none" stroke="#63b8ff" d="M183.7,-91.99C206.06,-96.96 234.63,-103.31 259.13,-108.75"/>
<polygon fill="#63b8ff" stroke="#63b8ff" points="258.47,-112.19 268.99,-110.94 259.99,-105.36 258.47,-112.19"/>
</a>
</g>
</g>
<!-- Node6 -->
<g id="Node000006" class="node">
<title>Node6</title>
<g id="a_Node000006"><a xlink:href="../../d6/d24/classBME280_aad9d880a35154d473937450bc87152b0.xhtml#aad9d880a35154d473937450bc87152b0" target="_top" xlink:title=" ">
<polygon fill="white" stroke="#666666" points="391,-93 235,-93 235,-74 391,-74 391,-93"/>
<text text-anchor="middle" x="313" y="-81" font-family="Helvetica,sans-Serif" font-size="10.00">BME280::BME280ReadS16LE</text>
</a>
</g>
</g>
<!-- Node2&#45;&gt;Node6 -->
<g id="edge5_Node000002_Node000006" class="edge">
<title>Node2&#45;&gt;Node6</title>
<g id="a_edge5_Node000002_Node000006"><a xlink:title=" ">
<path fill="none" stroke="#63b8ff" d="M183.7,-83.5C196.1,-83.5 210.41,-83.5 224.88,-83.5"/>
<polygon fill="#63b8ff" stroke="#63b8ff" points="224.9,-87 234.9,-83.5 224.9,-80 224.9,-87"/>
</a>
</g>
</g>
<!-- Node7 -->
<g id="Node000007" class="node">
<title>Node7</title>
<g id="a_Node000007"><a xlink:href="../../d5/df3/wiring_8c_a6bc5f943544a887f8b23cadfb26a5e30.xhtml#a6bc5f943544a887f8b23cadfb26a5e30" target="_top" xlink:title=" ">
<polygon fill="white" stroke="#666666" points="335,-56 291,-56 291,-37 335,-37 335,-56"/>
<text text-anchor="middle" x="313" y="-44" font-family="Helvetica,sans-Serif" font-size="10.00">delay</text>
</a>
</g>
</g>
<!-- Node2&#45;&gt;Node7 -->
<g id="edge7_Node000002_Node000007" class="edge">
<title>Node2&#45;&gt;Node7</title>
<g id="a_edge7_Node000002_Node000007"><a xlink:title=" ">
<path fill="none" stroke="#63b8ff" d="M183.7,-75.01C213.15,-68.47 253.38,-59.53 280.89,-53.41"/>
<polygon fill="#63b8ff" stroke="#63b8ff" points="281.76,-56.81 290.76,-51.22 280.24,-49.97 281.76,-56.81"/>
</a>
</g>
</g>
<!-- Node10 -->
<g id="Node000010" class="node">
<title>Node10</title>
<g id="a_Node000010"><a xlink:href="../../d6/d24/classBME280_a8d378248d5baa2cd07d9fd4be1386ff9.xhtml#a8d378248d5baa2cd07d9fd4be1386ff9" target="_top" xlink:title=" ">
<polygon fill="white" stroke="#666666" points="377,-19 249,-19 249,0 377,0 377,-19"/>
<text text-anchor="middle" x="313" y="-7" font-family="Helvetica,sans-Serif" font-size="10.00">BME280::writeRegister</text>
</a>
</g>
</g>
<!-- Node2&#45;&gt;Node10 -->
<g id="edge10_Node000002_Node000010" class="edge">
<title>Node2&#45;&gt;Node10</title>
<g id="a_edge10_Node000002_Node000010"><a xlink:title=" ">
<path fill="none" stroke="#63b8ff" d="M181.68,-73.95C187.69,-71.64 193.69,-68.84 199,-65.5 218.42,-53.28 215.09,-39.91 235,-28.5 238.94,-26.24 243.14,-24.25 247.46,-22.5"/>
<polygon fill="#63b8ff" stroke="#63b8ff" points="248.88,-25.71 257.1,-19.02 246.5,-19.12 248.88,-25.71"/>
</a>
</g>
</g>
<!-- Node4 -->
<g id="Node000004" class="node">
<title>Node4</title>
<g id="a_Node000004"><a xlink:href="../../d6/d24/classBME280_aa4fe8af66d6cd1cb5699ee359c71e190.xhtml#aa4fe8af66d6cd1cb5699ee359c71e190" target="_top" xlink:title=" ">
<polygon fill="white" stroke="#666666" points="752,-131 613,-131 613,-112 752,-112 752,-131"/>
<text text-anchor="middle" x="682.5" y="-119" font-family="Helvetica,sans-Serif" font-size="10.00">BME280::BME280Read16</text>
</a>
</g>
</g>
<!-- Node3&#45;&gt;Node4 -->
<g id="edge3_Node000003_Node000004" class="edge">
<title>Node3&#45;&gt;Node4</title>
<g id="a_edge3_Node000003_Node000004"><a xlink:title=" ">
<path fill="none" stroke="#63b8ff" d="M577.15,-121.5C585.53,-121.5 594.08,-121.5 602.52,-121.5"/>
<polygon fill="#63b8ff" stroke="#63b8ff" points="602.73,-125 612.73,-121.5 602.73,-118 602.73,-125"/>
</a>
</g>
</g>
<!-- Node6&#45;&gt;Node3 -->
<g id="edge6_Node000006_Node000003" class="edge">
<title>Node6&#45;&gt;Node3</title>
<g id="a_edge6_Node000006_Node000003"><a xlink:title=" ">
<path fill="none" stroke="#63b8ff" d="M361.19,-93.09C386.42,-98.22 417.67,-104.57 444.23,-109.96"/>
<polygon fill="#63b8ff" stroke="#63b8ff" points="443.65,-113.42 454.15,-111.98 445.05,-106.56 443.65,-113.42"/>
</a>
</g>
</g>
<!-- Node8 -->
<g id="Node000008" class="node">
<title>Node8</title>
<g id="a_Node000008"><a xlink:href="../../d5/df3/wiring_8c_a8b24cbb7c3486e1bfa05c86db83ecb01.xhtml#a8b24cbb7c3486e1bfa05c86db83ecb01" target="_top" xlink:title=" ">
<polygon fill="white" stroke="#666666" points="527,-75 477,-75 477,-56 527,-56 527,-75"/>
<text text-anchor="middle" x="502" y="-63" font-family="Helvetica,sans-Serif" font-size="10.00">micros</text>
</a>
</g>
</g>
<!-- Node7&#45;&gt;Node8 -->
<g id="edge8_Node000007_Node000008" class="edge">
<title>Node7&#45;&gt;Node8</title>
<g id="a_edge8_Node000007_Node000008"><a xlink:title=" ">
<path fill="none" stroke="#63b8ff" d="M335.09,-48.64C367.04,-51.89 428.07,-58.09 466.54,-62"/>
<polygon fill="#63b8ff" stroke="#63b8ff" points="466.45,-65.51 476.75,-63.04 467.15,-58.54 466.45,-65.51"/>
</a>
</g>
</g>
<!-- Node9 -->
<g id="Node000009" class="node">
<title>Node9</title>
<g id="a_Node000009"><a xlink:href="../../de/df0/Arduino_8h_a7cb51f5c2b5cad3766f19eb69c92793b.xhtml#a7cb51f5c2b5cad3766f19eb69c92793b" target="_top" xlink:title=" ">
<polygon fill="white" stroke="#666666" points="522.5,-38 481.5,-38 481.5,-19 522.5,-19 522.5,-38"/>
<text text-anchor="middle" x="502" y="-26" font-family="Helvetica,sans-Serif" font-size="10.00">yield</text>
</a>
</g>
</g>
<!-- Node7&#45;&gt;Node9 -->
<g id="edge9_Node000007_Node000009" class="edge">
<title>Node7&#45;&gt;Node9</title>
<g id="a_edge9_Node000007_Node000009"><a xlink:title=" ">
<path fill="none" stroke="#63b8ff" d="M335.09,-44.47C368.3,-41.27 432.91,-35.05 470.96,-31.39"/>
<polygon fill="#63b8ff" stroke="#63b8ff" points="471.78,-34.83 481.4,-30.39 471.11,-27.86 471.78,-34.83"/>
</a>
</g>
</g>
</g>
</svg>
