<?xml version="1.0" encoding="UTF-8" standalone="no"?>
<!DOCTYPE svg PUBLIC "-//W3C//DTD SVG 1.1//EN"
 "http://www.w3.org/Graphics/SVG/1.1/DTD/svg11.dtd">
<!-- Generated by graphviz version 2.43.0 (0)
 -->
<!-- Title: TinyGPSTime::hour Pages: 1 -->
<svg width="825pt" height="64pt"
 viewBox="0.00 0.00 825.00 64.00" xmlns="http://www.w3.org/2000/svg" xmlns:xlink="http://www.w3.org/1999/xlink">
<g id="graph0" class="graph" transform="scale(1 1) rotate(0) translate(4 60)">
<title>TinyGPSTime::hour</title>
<!-- Node1 -->
<g id="Node000001" class="node">
<title>Node1</title>
<g id="a_Node000001"><a xlink:title=" ">
<polygon fill="#999999" stroke="#666666" points="817,-37 707,-37 707,-18 817,-18 817,-37"/>
<text text-anchor="middle" x="762" y="-25" font-family="Helvetica,sans-Serif" font-size="10.00">TinyGPSTime::hour</text>
</a>
</g>
</g>
<!-- Node2 -->
<g id="Node000002" class="node">
<title>Node2</title>
<g id="a_Node000002"><a xlink:href="../../db/de3/structTinyGPSTime.xhtml#ae0aba0cbd875a3e1fe5d7872171e79fc" target="_top" xlink:title=" ">
<polygon fill="white" stroke="#666666" points="660,-56 554,-56 554,-37 660,-37 660,-56"/>
<text text-anchor="middle" x="607" y="-44" font-family="Helvetica,sans-Serif" font-size="10.00">TinyGPSTime::age</text>
</a>
</g>
</g>
<!-- Node1&#45;&gt;Node2 -->
<g id="edge1_Node000001_Node000002" class="edge">
<title>Node1&#45;&gt;Node2</title>
<g id="a_edge1_Node000001_Node000002"><a xlink:title=" ">
<path fill="none" stroke="#63b8ff" d="M696.55,-35.5C684.41,-37.01 671.85,-38.57 660.15,-40.02"/>
<polygon fill="#63b8ff" stroke="#63b8ff" points="697.13,-38.96 706.63,-34.25 696.27,-32.01 697.13,-38.96"/>
</a>
</g>
</g>
<!-- Node3 -->
<g id="Node000003" class="node">
<title>Node3</title>
<g id="a_Node000003"><a xlink:href="../../db/de3/structTinyGPSTime.xhtml#a07646db66f928524a46b22030f3367c6" target="_top" xlink:title=" ">
<polygon fill="white" stroke="#666666" points="671,-19 543,-19 543,0 671,0 671,-19"/>
<text text-anchor="middle" x="607" y="-7" font-family="Helvetica,sans-Serif" font-size="10.00">TinyGPSTime::setTime</text>
</a>
</g>
</g>
<!-- Node1&#45;&gt;Node3 -->
<g id="edge2_Node000001_Node000003" class="edge">
<title>Node1&#45;&gt;Node3</title>
<g id="a_edge2_Node000001_Node000003"><a xlink:title=" ">
<path fill="none" stroke="#63b8ff" d="M696.49,-19.91C688.08,-18.92 679.47,-17.91 671.08,-16.92"/>
<polygon fill="#63b8ff" stroke="#63b8ff" points="696.29,-23.41 706.63,-21.1 697.1,-16.46 696.29,-23.41"/>
</a>
</g>
</g>
<!-- Node4 -->
<g id="Node000004" class="node">
<title>Node4</title>
<g id="a_Node000004"><a xlink:href="../../d3/d57/classTinyGPSPlus.xhtml#ad03e05d24ecc96c27814eb17adfb38db" target="_top" xlink:title=" ">
<polygon fill="white" stroke="#666666" points="507,-19 332,-19 332,0 507,0 507,-19"/>
<text text-anchor="middle" x="419.5" y="-7" font-family="Helvetica,sans-Serif" font-size="10.00">TinyGPSPlus::endOfTermHandler</text>
</a>
</g>
</g>
<!-- Node3&#45;&gt;Node4 -->
<g id="edge3_Node000003_Node000004" class="edge">
<title>Node3&#45;&gt;Node4</title>
<g id="a_edge3_Node000003_Node000004"><a xlink:title=" ">
<path fill="none" stroke="#63b8ff" d="M532.77,-9.5C524.32,-9.5 515.65,-9.5 507.05,-9.5"/>
<polygon fill="#63b8ff" stroke="#63b8ff" points="532.94,-13 542.94,-9.5 532.94,-6 532.94,-13"/>
</a>
</g>
</g>
<!-- Node5 -->
<g id="Node000005" class="node">
<title>Node5</title>
<g id="a_Node000005"><a xlink:href="../../d3/d57/classTinyGPSPlus.xhtml#ad7b78320b7e4967df17c6a27008a5154" target="_top" xlink:title=" ">
<polygon fill="white" stroke="#666666" points="296,-19 177,-19 177,0 296,0 296,-19"/>
<text text-anchor="middle" x="236.5" y="-7" font-family="Helvetica,sans-Serif" font-size="10.00">TinyGPSPlus::encode</text>
</a>
</g>
</g>
<!-- Node4&#45;&gt;Node5 -->
<g id="edge4_Node000004_Node000005" class="edge">
<title>Node4&#45;&gt;Node5</title>
<g id="a_edge4_Node000004_Node000005"><a xlink:title=" ">
<path fill="none" stroke="#63b8ff" d="M321.7,-9.5C312.95,-9.5 304.29,-9.5 296.03,-9.5"/>
<polygon fill="#63b8ff" stroke="#63b8ff" points="321.98,-13 331.98,-9.5 321.98,-6 321.98,-13"/>
</a>
</g>
</g>
<!-- Node6 -->
<g id="Node000006" class="node">
<title>Node6</title>
<g id="a_Node000006"><a xlink:href="../../d3/d57/classTinyGPSPlus.xhtml#a05c12d268eddf254a9846bc34935a73c" target="_top" xlink:title=" ">
<polygon fill="white" stroke="#666666" points="141,-19 0,-19 0,0 141,0 141,-19"/>
<text text-anchor="middle" x="70.5" y="-7" font-family="Helvetica,sans-Serif" font-size="10.00">TinyGPSPlus::operator&lt;&lt;</text>
</a>
</g>
</g>
<!-- Node5&#45;&gt;Node6 -->
<g id="edge5_Node000005_Node000006" class="edge">
<title>Node5&#45;&gt;Node6</title>
<g id="a_edge5_Node000005_Node000006"><a xlink:title=" ">
<path fill="none" stroke="#63b8ff" d="M166.57,-9.5C158.12,-9.5 149.48,-9.5 141.02,-9.5"/>
<polygon fill="#63b8ff" stroke="#63b8ff" points="166.76,-13 176.76,-9.5 166.76,-6 166.76,-13"/>
</a>
</g>
</g>
</g>
</svg>
