<?xml version="1.0" encoding="UTF-8" standalone="no"?>
<!DOCTYPE svg PUBLIC "-//W3C//DTD SVG 1.1//EN"
 "http://www.w3.org/Graphics/SVG/1.1/DTD/svg11.dtd">
<!-- Generated by graphviz version 2.43.0 (0)
 -->
<!-- Title: SdBase::cardBegin Pages: 1 -->
<svg width="1948pt" height="732pt"
 viewBox="0.00 0.00 1948.00 731.50" xmlns="http://www.w3.org/2000/svg" xmlns:xlink="http://www.w3.org/1999/xlink">
<g id="graph0" class="graph" transform="scale(1 1) rotate(0) translate(4 727.5)">
<title>SdBase::cardBegin</title>
<!-- Node1 -->
<g id="Node000001" class="node">
<title>Node1</title>
<g id="a_Node000001"><a xlink:title=" ">
<polygon fill="#999999" stroke="#666666" points="107,-323 0,-323 0,-304 107,-304 107,-323"/>
<text text-anchor="middle" x="53.5" y="-311" font-family="Helvetica,sans-Serif" font-size="10.00">SdBase::cardBegin</text>
</a>
</g>
</g>
<!-- Node2 -->
<g id="Node000002" class="node">
<title>Node2</title>
<g id="a_Node000002"><a xlink:href="../../d8/d7f/classSharedSpiCard_aff338a5cece6d38c50f9516e6c31c0f6.xhtml#aff338a5cece6d38c50f9516e6c31c0f6" target="_top" xlink:title=" ">
<polygon fill="white" stroke="#666666" points="285,-342 143,-342 143,-323 285,-323 285,-342"/>
<text text-anchor="middle" x="214" y="-330" font-family="Helvetica,sans-Serif" font-size="10.00">SharedSpiCard::errorCode</text>
</a>
</g>
</g>
<!-- Node1&#45;&gt;Node2 -->
<g id="edge1_Node000001_Node000002" class="edge">
<title>Node1&#45;&gt;Node2</title>
<g id="a_edge1_Node000001_Node000002"><a xlink:title=" ">
<path fill="none" stroke="#63b8ff" d="M107.28,-319.83C115.5,-320.81 124.15,-321.85 132.81,-322.89"/>
<polygon fill="#63b8ff" stroke="#63b8ff" points="132.62,-326.39 142.97,-324.1 133.45,-319.44 132.62,-326.39"/>
</a>
</g>
</g>
<!-- Node3 -->
<g id="Node000003" class="node">
<title>Node3</title>
<g id="a_Node000003"><a xlink:href="../../dd/d6a/classSdCardFactory_a220930994a47cf45a8fe1563f0b300c2.xhtml#a220930994a47cf45a8fe1563f0b300c2" target="_top" xlink:title=" ">
<polygon fill="white" stroke="#666666" points="281,-305 147,-305 147,-286 281,-286 281,-305"/>
<text text-anchor="middle" x="214" y="-293" font-family="Helvetica,sans-Serif" font-size="10.00">SdCardFactory::newCard</text>
</a>
</g>
</g>
<!-- Node1&#45;&gt;Node3 -->
<g id="edge2_Node000001_Node000003" class="edge">
<title>Node1&#45;&gt;Node3</title>
<g id="a_edge2_Node000001_Node000003"><a xlink:title=" ">
<path fill="none" stroke="#63b8ff" d="M107.28,-307.51C116.8,-306.42 126.9,-305.28 136.93,-304.14"/>
<polygon fill="#63b8ff" stroke="#63b8ff" points="137.38,-307.61 146.92,-303 136.59,-300.66 137.38,-307.61"/>
</a>
</g>
</g>
<!-- Node4 -->
<g id="Node000004" class="node">
<title>Node4</title>
<g id="a_Node000004"><a xlink:href="../../d8/d7f/classSharedSpiCard_a0255d8d48155bc14798edb8414f04030.xhtml#a0255d8d48155bc14798edb8414f04030" target="_top" xlink:title=" ">
<polygon fill="white" stroke="#666666" points="442,-305 321,-305 321,-286 442,-286 442,-305"/>
<text text-anchor="middle" x="381.5" y="-293" font-family="Helvetica,sans-Serif" font-size="10.00">SharedSpiCard::begin</text>
</a>
</g>
</g>
<!-- Node3&#45;&gt;Node4 -->
<g id="edge3_Node000003_Node000004" class="edge">
<title>Node3&#45;&gt;Node4</title>
<g id="a_edge3_Node000003_Node000004"><a xlink:title=" ">
<path fill="none" stroke="#63b8ff" d="M281.36,-295.5C291.04,-295.5 301.03,-295.5 310.77,-295.5"/>
<polygon fill="#63b8ff" stroke="#63b8ff" points="310.81,-299 320.81,-295.5 310.81,-292 310.81,-299"/>
</a>
</g>
</g>
<!-- Node5 -->
<g id="Node000005" class="node">
<title>Node5</title>
<g id="a_Node000005"><a xlink:href="../../d8/d7f/classSharedSpiCard_a943e9bdc39d4410d443fbdf22fd10f31.xhtml#a943e9bdc39d4410d443fbdf22fd10f31" target="_top" xlink:title=" ">
<polygon fill="white" stroke="#666666" points="621,-476 478,-476 478,-457 621,-457 621,-476"/>
<text text-anchor="middle" x="549.5" y="-464" font-family="Helvetica,sans-Serif" font-size="10.00">SharedSpiCard::cardAcmd</text>
</a>
</g>
</g>
<!-- Node4&#45;&gt;Node5 -->
<g id="edge4_Node000004_Node000005" class="edge">
<title>Node4&#45;&gt;Node5</title>
<g id="a_edge4_Node000004_Node000005"><a xlink:title=" ">
<path fill="none" stroke="#63b8ff" d="M387.19,-305.31C399.22,-329.56 433.35,-393.15 478,-431.5 488.14,-440.21 500.83,-447.38 512.64,-452.91"/>
<polygon fill="#63b8ff" stroke="#63b8ff" points="511.29,-456.14 521.85,-456.99 514.12,-449.74 511.29,-456.14"/>
</a>
</g>
</g>
<!-- Node6 -->
<g id="Node000006" class="node">
<title>Node6</title>
<g id="a_Node000006"><a xlink:href="../../d8/d7f/classSharedSpiCard_adda33199753fc2aec74fe317cbaabc06.xhtml#adda33199753fc2aec74fe317cbaabc06" target="_top" xlink:title=" ">
<polygon fill="white" stroke="#666666" points="822,-500 657,-500 657,-481 822,-481 822,-500"/>
<text text-anchor="middle" x="739.5" y="-488" font-family="Helvetica,sans-Serif" font-size="10.00">SharedSpiCard::cardCommand</text>
</a>
</g>
</g>
<!-- Node4&#45;&gt;Node6 -->
<g id="edge38_Node000004_Node000006" class="edge">
<title>Node4&#45;&gt;Node6</title>
<g id="a_edge38_Node000004_Node000006"><a xlink:title=" ">
<path fill="none" stroke="#63b8ff" d="M390.22,-305.11C405.33,-323.38 440.63,-363.46 478,-387.5 497.79,-400.23 636.58,-452.6 703.1,-477.38"/>
<polygon fill="#63b8ff" stroke="#63b8ff" points="702.16,-480.76 712.75,-480.97 704.6,-474.2 702.16,-480.76"/>
</a>
</g>
</g>
<!-- Node7 -->
<g id="Node000007" class="node">
<title>Node7</title>
<g id="a_Node000007"><a xlink:href="../../d8/d7f/classSharedSpiCard_a08363209d938db87521cca6a84146041.xhtml#a08363209d938db87521cca6a84146041" target="_top" xlink:title=" ">
<polygon fill="white" stroke="#666666" points="1565,-656 1418,-656 1418,-637 1565,-637 1565,-656"/>
<text text-anchor="middle" x="1491.5" y="-644" font-family="Helvetica,sans-Serif" font-size="10.00">SharedSpiCard::spiReceive</text>
</a>
</g>
</g>
<!-- Node4&#45;&gt;Node7 -->
<g id="edge47_Node000004_Node000007" class="edge">
<title>Node4&#45;&gt;Node7</title>
<g id="a_edge47_Node000004_Node000007"><a xlink:title=" ">
<path fill="none" stroke="#63b8ff" d="M382.25,-305.02C381.61,-348.79 384.76,-532.78 478,-632.5 561.75,-722.08 615.86,-723.5 738.5,-723.5 738.5,-723.5 738.5,-723.5 1119.5,-723.5 1244.33,-723.5 1387.94,-681.19 1453.91,-659.3"/>
<polygon fill="#63b8ff" stroke="#63b8ff" points="1455.08,-662.6 1463.44,-656.1 1452.85,-655.96 1455.08,-662.6"/>
</a>
</g>
</g>
<!-- Node11 -->
<g id="Node000011" class="node">
<title>Node11</title>
<g id="a_Node000011"><a xlink:href="../../d8/d7f/classSharedSpiCard_aef2dfa72e8d5643c90720f9f8c6a4254.xhtml#aef2dfa72e8d5643c90720f9f8c6a4254" target="_top" xlink:title=" ">
<polygon fill="white" stroke="#666666" points="998.5,-386 867.5,-386 867.5,-367 998.5,-367 998.5,-386"/>
<text text-anchor="middle" x="933" y="-374" font-family="Helvetica,sans-Serif" font-size="10.00">SharedSpiCard::spiStart</text>
</a>
</g>
</g>
<!-- Node4&#45;&gt;Node11 -->
<g id="edge51_Node000004_Node000011" class="edge">
<title>Node4&#45;&gt;Node11</title>
<g id="a_edge51_Node000004_Node000011"><a xlink:title=" ">
<path fill="none" stroke="#63b8ff" d="M395.6,-305.07C413.29,-317.4 446.26,-338.33 478,-347.5 607.32,-384.85 765.67,-385.33 857.08,-381.47"/>
<polygon fill="#63b8ff" stroke="#63b8ff" points="857.52,-384.95 867.35,-381 857.2,-377.96 857.52,-384.95"/>
</a>
</g>
</g>
<!-- Node14 -->
<g id="Node000014" class="node">
<title>Node14</title>
<g id="a_Node000014"><a xlink:href="../../d8/d7f/classSharedSpiCard_a8c3088599862ff6e84ae79bfdf32aea8.xhtml#a8c3088599862ff6e84ae79bfdf32aea8" target="_top" xlink:title=" ">
<polygon fill="white" stroke="#666666" points="1187.5,-305 1049.5,-305 1049.5,-286 1187.5,-286 1187.5,-305"/>
<text text-anchor="middle" x="1118.5" y="-293" font-family="Helvetica,sans-Serif" font-size="10.00">SharedSpiCard::spiSelect</text>
</a>
</g>
</g>
<!-- Node4&#45;&gt;Node14 -->
<g id="edge48_Node000004_Node000014" class="edge">
<title>Node4&#45;&gt;Node14</title>
<g id="a_edge48_Node000004_Node000014"><a xlink:title=" ">
<path fill="none" stroke="#63b8ff" d="M442.03,-295.5C574.02,-295.5 891.25,-295.5 1039.14,-295.5"/>
<polygon fill="#63b8ff" stroke="#63b8ff" points="1039.49,-299 1049.49,-295.5 1039.49,-292 1039.49,-299"/>
</a>
</g>
</g>
<!-- Node20 -->
<g id="Node000020" class="node">
<title>Node20</title>
<g id="a_Node000020"><a xlink:href="../../d8/d7f/classSharedSpiCard_a747c3f0b962098cf0c097f3c4c2b4fd4.xhtml#a747c3f0b962098cf0c097f3c4c2b4fd4" target="_top" xlink:title=" ">
<polygon fill="white" stroke="#666666" points="1360.5,-618 1243.5,-618 1243.5,-599 1360.5,-599 1360.5,-618"/>
<text text-anchor="middle" x="1302" y="-606" font-family="Helvetica,sans-Serif" font-size="10.00">SharedSpiCard::error</text>
</a>
</g>
</g>
<!-- Node4&#45;&gt;Node20 -->
<g id="edge39_Node000004_Node000020" class="edge">
<title>Node4&#45;&gt;Node20</title>
<g id="a_edge39_Node000004_Node000020"><a xlink:title=" ">
<path fill="none" stroke="#63b8ff" d="M383.31,-305.23C386.97,-343.41 405.11,-484.98 478,-567.5 562.15,-662.76 611.4,-685.5 738.5,-685.5 738.5,-685.5 738.5,-685.5 934,-685.5 1057.28,-685.5 1198.99,-643.37 1264.41,-621.43"/>
<polygon fill="#63b8ff" stroke="#63b8ff" points="1265.9,-624.63 1274.24,-618.1 1263.65,-618 1265.9,-624.63"/>
</a>
</g>
</g>
<!-- Node21 -->
<g id="Node000021" class="node">
<title>Node21</title>
<g id="a_Node000021"><a xlink:href="../../d8/d7f/classSharedSpiCard_a0f511c39c50055a4fc97e720933aee3a.xhtml#a0f511c39c50055a4fc97e720933aee3a" target="_top" xlink:title=" ">
<polygon fill="white" stroke="#666666" points="1367,-581 1237,-581 1237,-562 1367,-562 1367,-581"/>
<text text-anchor="middle" x="1302" y="-569" font-family="Helvetica,sans-Serif" font-size="10.00">SharedSpiCard::spiStop</text>
</a>
</g>
</g>
<!-- Node4&#45;&gt;Node21 -->
<g id="edge52_Node000004_Node000021" class="edge">
<title>Node4&#45;&gt;Node21</title>
<g id="a_edge52_Node000004_Node000021"><a xlink:title=" ">
<path fill="none" stroke="#63b8ff" d="M385.32,-305.29C394.36,-335.33 425.22,-427.71 478,-485.5 569.94,-586.17 602.16,-647.5 738.5,-647.5 738.5,-647.5 738.5,-647.5 934,-647.5 996.29,-647.5 1170.7,-604.99 1254.67,-583.55"/>
<polygon fill="#63b8ff" stroke="#63b8ff" points="1255.63,-586.92 1264.45,-581.05 1253.89,-580.14 1255.63,-586.92"/>
</a>
</g>
</g>
<!-- Node24 -->
<g id="Node000024" class="node">
<title>Node24</title>
<g id="a_Node000024"><a xlink:href="../../d8/d7f/classSharedSpiCard_ad06a3278372300987b97876cf598c114.xhtml#ad06a3278372300987b97876cf598c114" target="_top" xlink:title=" ">
<polygon fill="white" stroke="#666666" points="1567,-343 1416,-343 1416,-324 1567,-324 1567,-343"/>
<text text-anchor="middle" x="1491.5" y="-331" font-family="Helvetica,sans-Serif" font-size="10.00">SharedSpiCard::spiUnselect</text>
</a>
</g>
</g>
<!-- Node4&#45;&gt;Node24 -->
<g id="edge53_Node000004_Node000024" class="edge">
<title>Node4&#45;&gt;Node24</title>
<g id="a_edge53_Node000004_Node000024"><a xlink:title=" ">
<path fill="none" stroke="#63b8ff" d="M437.5,-305.04C507.28,-316.3 631.44,-333.5 738.5,-333.5 738.5,-333.5 738.5,-333.5 1119.5,-333.5 1217.62,-333.5 1330.33,-333.5 1405.53,-333.5"/>
<polygon fill="#63b8ff" stroke="#63b8ff" points="1405.89,-337 1415.89,-333.5 1405.89,-330 1405.89,-337"/>
</a>
</g>
</g>
<!-- Node27 -->
<g id="Node000027" class="node">
<title>Node27</title>
<g id="a_Node000027"><a xlink:href="../../db/df4/classTimeout_abbabe99f42e52472ddd3a7e9d22dce95.xhtml#abbabe99f42e52472ddd3a7e9d22dce95" target="_top" xlink:title=" ">
<polygon fill="white" stroke="#666666" points="1546,-267 1437,-267 1437,-248 1546,-248 1546,-267"/>
<text text-anchor="middle" x="1491.5" y="-255" font-family="Helvetica,sans-Serif" font-size="10.00">Timeout::timedOut</text>
</a>
</g>
</g>
<!-- Node4&#45;&gt;Node27 -->
<g id="edge54_Node000004_Node000027" class="edge">
<title>Node4&#45;&gt;Node27</title>
<g id="a_edge54_Node000004_Node000027"><a xlink:title=" ">
<path fill="none" stroke="#63b8ff" d="M437.5,-285.96C507.28,-274.7 631.44,-257.5 738.5,-257.5 738.5,-257.5 738.5,-257.5 1119.5,-257.5 1227.31,-257.5 1352.74,-257.5 1426.66,-257.5"/>
<polygon fill="#63b8ff" stroke="#63b8ff" points="1426.74,-261 1436.74,-257.5 1426.74,-254 1426.74,-261"/>
</a>
</g>
</g>
<!-- Node30 -->
<g id="Node000030" class="node">
<title>Node30</title>
<g id="a_Node000030"><a xlink:href="../../d8/d7f/classSharedSpiCard_a5e24da5925493acb9a0d56a3a6c6874d.xhtml#a5e24da5925493acb9a0d56a3a6c6874d" target="_top" xlink:title=" ">
<polygon fill="white" stroke="#666666" points="621,-229.5 478,-229.5 478,-199.5 621,-199.5 621,-229.5"/>
<text text-anchor="start" x="486" y="-217.5" font-family="Helvetica,sans-Serif" font-size="10.00">SharedSpiCard::initShared</text>
<text text-anchor="middle" x="549.5" y="-206.5" font-family="Helvetica,sans-Serif" font-size="10.00">SpiCard</text>
</a>
</g>
</g>
<!-- Node4&#45;&gt;Node30 -->
<g id="edge40_Node000004_Node000030" class="edge">
<title>Node4&#45;&gt;Node30</title>
<g id="a_edge40_Node000004_Node000030"><a xlink:title=" ">
<path fill="none" stroke="#63b8ff" d="M398.78,-285.93C417.57,-275.05 449.54,-257.05 478,-243.5 485.14,-240.1 492.79,-236.71 500.32,-233.5"/>
<polygon fill="#63b8ff" stroke="#63b8ff" points="501.88,-236.65 509.75,-229.56 499.17,-230.19 501.88,-236.65"/>
</a>
</g>
</g>
<!-- Node31 -->
<g id="Node000031" class="node">
<title>Node31</title>
<g id="a_Node000031"><a xlink:href="../../d2/df0/SdSpiChipSelect_8cpp_ad4854101780daaa378827ecb62ef86d9.xhtml#ad4854101780daaa378827ecb62ef86d9" target="_top" xlink:title=" ">
<polygon fill="white" stroke="#666666" points="577.5,-181 521.5,-181 521.5,-162 577.5,-162 577.5,-181"/>
<text text-anchor="middle" x="549.5" y="-169" font-family="Helvetica,sans-Serif" font-size="10.00">sdCsInit</text>
</a>
</g>
</g>
<!-- Node4&#45;&gt;Node31 -->
<g id="edge41_Node000004_Node000031" class="edge">
<title>Node4&#45;&gt;Node31</title>
<g id="a_edge41_Node000004_Node000031"><a xlink:title=" ">
<path fill="none" stroke="#63b8ff" d="M388.57,-285.69C402,-264.83 436.35,-215.92 478,-190.5 488.02,-184.38 500.03,-180.2 511.26,-177.36"/>
<polygon fill="#63b8ff" stroke="#63b8ff" points="512.29,-180.72 521.28,-175.11 510.76,-173.89 512.29,-180.72"/>
</a>
</g>
</g>
<!-- Node33 -->
<g id="Node000033" class="node">
<title>Node33</title>
<g id="a_Node000033"><a xlink:href="../../db/df4/classTimeout_ad6be1321fa75e9c633913376dfba3210.xhtml#ad6be1321fa75e9c633913376dfba3210" target="_top" xlink:title=" ">
<polygon fill="white" stroke="#666666" points="972,-165 894,-165 894,-146 972,-146 972,-165"/>
<text text-anchor="middle" x="933" y="-153" font-family="Helvetica,sans-Serif" font-size="10.00">Timeout::set</text>
</a>
</g>
</g>
<!-- Node4&#45;&gt;Node33 -->
<g id="edge43_Node000004_Node000033" class="edge">
<title>Node4&#45;&gt;Node33</title>
<g id="a_edge43_Node000004_Node000033"><a xlink:title=" ">
<path fill="none" stroke="#63b8ff" d="M385.43,-285.85C394.22,-258.86 423.2,-182.69 478,-153.5 547.02,-116.74 781.82,-138.17 883.93,-149.67"/>
<polygon fill="#63b8ff" stroke="#63b8ff" points="883.63,-153.15 893.97,-150.81 884.43,-146.2 883.63,-153.15"/>
</a>
</g>
</g>
<!-- Node34 -->
<g id="Node000034" class="node">
<title>Node34</title>
<g id="a_Node000034"><a xlink:href="../../d8/d7f/classSharedSpiCard_a666540f03e7b0a76c36f4c16770ad356.xhtml#a666540f03e7b0a76c36f4c16770ad356" target="_top" xlink:title=" ">
<polygon fill="white" stroke="#666666" points="617.5,-105 481.5,-105 481.5,-86 617.5,-86 617.5,-105"/>
<text text-anchor="middle" x="549.5" y="-93" font-family="Helvetica,sans-Serif" font-size="10.00">SharedSpiCard::spiBegin</text>
</a>
</g>
</g>
<!-- Node4&#45;&gt;Node34 -->
<g id="edge45_Node000004_Node000034" class="edge">
<title>Node4&#45;&gt;Node34</title>
<g id="a_edge45_Node000004_Node000034"><a xlink:title=" ">
<path fill="none" stroke="#63b8ff" d="M385,-285.9C393.14,-256.54 421.67,-167.03 478,-119.5 482.93,-115.34 488.61,-111.89 494.57,-109.03"/>
<polygon fill="#63b8ff" stroke="#63b8ff" points="496.24,-112.13 504.09,-105.01 493.52,-105.68 496.24,-112.13"/>
</a>
</g>
</g>
<!-- Node36 -->
<g id="Node000036" class="node">
<title>Node36</title>
<g id="a_Node000036"><a xlink:href="../../d8/d7f/classSharedSpiCard_a8a33a90afcd1527ba838a76517f83a0f.xhtml#a8a33a90afcd1527ba838a76517f83a0f" target="_top" xlink:title=" ">
<polygon fill="white" stroke="#666666" points="620,-67.5 479,-67.5 479,-37.5 620,-37.5 620,-67.5"/>
<text text-anchor="start" x="487" y="-55.5" font-family="Helvetica,sans-Serif" font-size="10.00">SharedSpiCard::spiSetSck</text>
<text text-anchor="middle" x="549.5" y="-44.5" font-family="Helvetica,sans-Serif" font-size="10.00">Speed</text>
</a>
</g>
</g>
<!-- Node4&#45;&gt;Node36 -->
<g id="edge49_Node000004_Node000036" class="edge">
<title>Node4&#45;&gt;Node36</title>
<g id="a_edge49_Node000004_Node000036"><a xlink:title=" ">
<path fill="none" stroke="#63b8ff" d="M383.94,-285.57C389.41,-251.37 412.07,-137.17 478,-76.5 479.28,-75.33 480.61,-74.21 482,-73.15"/>
<polygon fill="#63b8ff" stroke="#63b8ff" points="483.96,-76.05 490.41,-67.64 480.13,-70.19 483.96,-76.05"/>
</a>
</g>
</g>
<!-- Node38 -->
<g id="Node000038" class="node">
<title>Node38</title>
<g id="a_Node000038"><a xlink:href="../../d8/d7f/classSharedSpiCard_a7dac2190763d7b4b72163ed7131e8a87.xhtml#a7dac2190763d7b4b72163ed7131e8a87" target="_top" xlink:title=" ">
<polygon fill="white" stroke="#666666" points="607.5,-19 491.5,-19 491.5,0 607.5,0 607.5,-19"/>
<text text-anchor="middle" x="549.5" y="-7" font-family="Helvetica,sans-Serif" font-size="10.00">SharedSpiCard::type</text>
</a>
</g>
</g>
<!-- Node4&#45;&gt;Node38 -->
<g id="edge55_Node000004_Node000038" class="edge">
<title>Node4&#45;&gt;Node38</title>
<g id="a_edge55_Node000004_Node000038"><a xlink:title=" ">
<path fill="none" stroke="#63b8ff" d="M382.9,-285.77C385.02,-247 398.22,-102.12 478,-28.5 479.7,-26.93 481.52,-25.48 483.43,-24.16"/>
<polygon fill="#63b8ff" stroke="#63b8ff" points="485.38,-27.07 492.31,-19.06 481.9,-21 485.38,-27.07"/>
</a>
</g>
</g>
<!-- Node5&#45;&gt;Node6 -->
<g id="edge5_Node000005_Node000006" class="edge">
<title>Node5&#45;&gt;Node6</title>
<g id="a_edge5_Node000005_Node000006"><a xlink:title=" ">
<path fill="none" stroke="#63b8ff" d="M621.04,-475.5C631.73,-476.87 642.85,-478.29 653.8,-479.69"/>
<polygon fill="#63b8ff" stroke="#63b8ff" points="653.43,-483.17 663.79,-480.96 654.32,-476.22 653.43,-483.17"/>
</a>
</g>
</g>
<!-- Node6&#45;&gt;Node7 -->
<g id="edge6_Node000006_Node000007" class="edge">
<title>Node6&#45;&gt;Node7</title>
<g id="a_edge6_Node000006_Node000007"><a xlink:title=" ">
<path fill="none" stroke="#63b8ff" d="M750.13,-500.24C768.95,-518.62 812.77,-558.21 858,-576.5 1043.55,-651.52 1283.22,-655.42 1407.51,-651.29"/>
<polygon fill="#63b8ff" stroke="#63b8ff" points="1407.84,-654.78 1417.71,-650.92 1407.59,-647.78 1407.84,-654.78"/>
</a>
</g>
</g>
<!-- Node9 -->
<g id="Node000009" class="node">
<title>Node9</title>
<g id="a_Node000009"><a xlink:href="../../d8/d7f/classSharedSpiCard_ab311b9ad8a250f06afbe091f7abb118b.xhtml#ab311b9ad8a250f06afbe091f7abb118b" target="_top" xlink:title=" ">
<polygon fill="white" stroke="#666666" points="1557.5,-500 1425.5,-500 1425.5,-481 1557.5,-481 1557.5,-500"/>
<text text-anchor="middle" x="1491.5" y="-488" font-family="Helvetica,sans-Serif" font-size="10.00">SharedSpiCard::spiSend</text>
</a>
</g>
</g>
<!-- Node6&#45;&gt;Node9 -->
<g id="edge8_Node000006_Node000009" class="edge">
<title>Node6&#45;&gt;Node9</title>
<g id="a_edge8_Node000006_Node000009"><a xlink:title=" ">
<path fill="none" stroke="#63b8ff" d="M822.2,-484.84C943.1,-477.36 1176.71,-466.38 1375,-477.5 1388,-478.23 1401.79,-479.42 1415.15,-480.79"/>
<polygon fill="#63b8ff" stroke="#63b8ff" points="1414.93,-484.28 1425.25,-481.86 1415.68,-477.32 1414.93,-484.28"/>
</a>
</g>
</g>
<!-- Node6&#45;&gt;Node11 -->
<g id="edge10_Node000006_Node000011" class="edge">
<title>Node6&#45;&gt;Node11</title>
<g id="a_edge10_Node000006_Node000011"><a xlink:title=" ">
<path fill="none" stroke="#63b8ff" d="M756.5,-480.98C789.94,-461.07 867.44,-414.93 907.32,-391.19"/>
<polygon fill="#63b8ff" stroke="#63b8ff" points="909.11,-394.2 915.91,-386.08 905.53,-388.18 909.11,-394.2"/>
</a>
</g>
</g>
<!-- Node18 -->
<g id="Node000018" class="node">
<title>Node18</title>
<g id="a_Node000018"><a xlink:href="../../d8/d7f/classSharedSpiCard_a2f181b3d6f27413a0f5ee883dfd94d87.xhtml#a2f181b3d6f27413a0f5ee883dfd94d87" target="_top" xlink:title=" ">
<polygon fill="white" stroke="#666666" points="1008,-543 858,-543 858,-524 1008,-524 1008,-543"/>
<text text-anchor="middle" x="933" y="-531" font-family="Helvetica,sans-Serif" font-size="10.00">SharedSpiCard::syncDevice</text>
</a>
</g>
</g>
<!-- Node6&#45;&gt;Node18 -->
<g id="edge18_Node000006_Node000018" class="edge">
<title>Node6&#45;&gt;Node18</title>
<g id="a_edge18_Node000006_Node000018"><a xlink:title=" ">
<path fill="none" stroke="#63b8ff" d="M783,-500.04C811.51,-506.45 849.26,-514.92 879.63,-521.74"/>
<polygon fill="#63b8ff" stroke="#63b8ff" points="879.09,-525.21 889.62,-523.98 880.63,-518.38 879.09,-525.21"/>
</a>
</g>
</g>
<!-- Node26 -->
<g id="Node000026" class="node">
<title>Node26</title>
<g id="a_Node000026"><a xlink:href="../../d8/d7f/classSharedSpiCard_ab3468397bb3b12d29dd2f31e45b3dcaf.xhtml#ab3468397bb3b12d29dd2f31e45b3dcaf" target="_top" xlink:title=" ">
<polygon fill="white" stroke="#666666" points="1375,-505 1229,-505 1229,-486 1375,-486 1375,-505"/>
<text text-anchor="middle" x="1302" y="-493" font-family="Helvetica,sans-Serif" font-size="10.00">SharedSpiCard::waitReady</text>
</a>
</g>
</g>
<!-- Node6&#45;&gt;Node26 -->
<g id="edge37_Node000006_Node000026" class="edge">
<title>Node6&#45;&gt;Node26</title>
<g id="a_edge37_Node000006_Node000026"><a xlink:title=" ">
<path fill="none" stroke="#63b8ff" d="M822,-491.23C928.04,-492.17 1112.28,-493.82 1218.7,-494.77"/>
<polygon fill="#63b8ff" stroke="#63b8ff" points="1218.72,-498.27 1228.75,-494.86 1218.78,-491.27 1218.72,-498.27"/>
</a>
</g>
</g>
<!-- Node8 -->
<g id="Node000008" class="node">
<title>Node8</title>
<g id="a_Node000008"><a xlink:href="../../d0/d25/classSdSpiArduinoDriver_a8d6bc852a52e9d69c4b1e48ee062e8d1.xhtml#a8d6bc852a52e9d69c4b1e48ee062e8d1" target="_top" xlink:title=" ">
<polygon fill="white" stroke="#666666" points="1719,-661.5 1608,-661.5 1608,-631.5 1719,-631.5 1719,-661.5"/>
<text text-anchor="start" x="1616" y="-649.5" font-family="Helvetica,sans-Serif" font-size="10.00">SdSpiArduinoDriver</text>
<text text-anchor="middle" x="1663.5" y="-638.5" font-family="Helvetica,sans-Serif" font-size="10.00">::receive</text>
</a>
</g>
</g>
<!-- Node7&#45;&gt;Node8 -->
<g id="edge7_Node000007_Node000008" class="edge">
<title>Node7&#45;&gt;Node8</title>
<g id="a_edge7_Node000007_Node000008"><a xlink:title=" ">
<path fill="none" stroke="#63b8ff" d="M1565.09,-646.5C1575.96,-646.5 1587.11,-646.5 1597.81,-646.5"/>
<polygon fill="#63b8ff" stroke="#63b8ff" points="1597.9,-650 1607.9,-646.5 1597.9,-643 1597.9,-650"/>
</a>
</g>
</g>
<!-- Node10 -->
<g id="Node000010" class="node">
<title>Node10</title>
<g id="a_Node000010"><a xlink:href="../../d0/d25/classSdSpiArduinoDriver_a3c4842e47f98fe5d3799cd6028778ab5.xhtml#a3c4842e47f98fe5d3799cd6028778ab5" target="_top" xlink:title=" ">
<polygon fill="white" stroke="#666666" points="1719,-505.5 1608,-505.5 1608,-475.5 1719,-475.5 1719,-505.5"/>
<text text-anchor="start" x="1616" y="-493.5" font-family="Helvetica,sans-Serif" font-size="10.00">SdSpiArduinoDriver</text>
<text text-anchor="middle" x="1663.5" y="-482.5" font-family="Helvetica,sans-Serif" font-size="10.00">::send</text>
</a>
</g>
</g>
<!-- Node9&#45;&gt;Node10 -->
<g id="edge9_Node000009_Node000010" class="edge">
<title>Node9&#45;&gt;Node10</title>
<g id="a_edge9_Node000009_Node000010"><a xlink:title=" ">
<path fill="none" stroke="#63b8ff" d="M1557.74,-490.5C1570.82,-490.5 1584.56,-490.5 1597.62,-490.5"/>
<polygon fill="#63b8ff" stroke="#63b8ff" points="1597.93,-494 1607.93,-490.5 1597.93,-487 1597.93,-494"/>
</a>
</g>
</g>
<!-- Node11&#45;&gt;Node9 -->
<g id="edge17_Node000011_Node000009" class="edge">
<title>Node11&#45;&gt;Node9</title>
<g id="a_edge17_Node000011_Node000009"><a xlink:title=" ">
<path fill="none" stroke="#63b8ff" d="M987.38,-386.02C1005.35,-389.14 1025.53,-392.57 1044,-395.5 1190.81,-418.82 1231.55,-404.53 1375,-443.5 1405.53,-451.79 1438.84,-465.93 1461.81,-476.54"/>
<polygon fill="#63b8ff" stroke="#63b8ff" points="1460.44,-479.77 1470.98,-480.84 1463.41,-473.43 1460.44,-479.77"/>
</a>
</g>
</g>
<!-- Node12 -->
<g id="Node000012" class="node">
<title>Node12</title>
<g id="a_Node000012"><a xlink:href="../../d8/d7f/classSharedSpiCard_a69ee2fe49dfaeea2347d8a265806d2b6.xhtml#a69ee2fe49dfaeea2347d8a265806d2b6" target="_top" xlink:title=" ">
<polygon fill="white" stroke="#666666" points="1193,-386 1044,-386 1044,-367 1193,-367 1193,-386"/>
<text text-anchor="middle" x="1118.5" y="-374" font-family="Helvetica,sans-Serif" font-size="10.00">SharedSpiCard::spiActivate</text>
</a>
</g>
</g>
<!-- Node11&#45;&gt;Node12 -->
<g id="edge11_Node000011_Node000012" class="edge">
<title>Node11&#45;&gt;Node12</title>
<g id="a_edge11_Node000011_Node000012"><a xlink:title=" ">
<path fill="none" stroke="#63b8ff" d="M998.7,-376.5C1010.03,-376.5 1021.97,-376.5 1033.73,-376.5"/>
<polygon fill="#63b8ff" stroke="#63b8ff" points="1034,-380 1044,-376.5 1034,-373 1034,-380"/>
</a>
</g>
</g>
<!-- Node11&#45;&gt;Node14 -->
<g id="edge13_Node000011_Node000014" class="edge">
<title>Node11&#45;&gt;Node14</title>
<g id="a_edge13_Node000011_Node000014"><a xlink:title=" ">
<path fill="none" stroke="#63b8ff" d="M955.77,-366.89C988.19,-352.58 1049.31,-325.6 1086.42,-309.22"/>
<polygon fill="#63b8ff" stroke="#63b8ff" points="1088.02,-312.34 1095.76,-305.1 1085.2,-305.93 1088.02,-312.34"/>
</a>
</g>
</g>
<!-- Node13 -->
<g id="Node000013" class="node">
<title>Node13</title>
<g id="a_Node000013"><a xlink:href="../../d0/d25/classSdSpiArduinoDriver_abb6b88c5c8b87fc344a69f23f6eab3d9.xhtml#abb6b88c5c8b87fc344a69f23f6eab3d9" target="_top" xlink:title=" ">
<polygon fill="white" stroke="#666666" points="1357.5,-391.5 1246.5,-391.5 1246.5,-361.5 1357.5,-361.5 1357.5,-391.5"/>
<text text-anchor="start" x="1254.5" y="-379.5" font-family="Helvetica,sans-Serif" font-size="10.00">SdSpiArduinoDriver</text>
<text text-anchor="middle" x="1302" y="-368.5" font-family="Helvetica,sans-Serif" font-size="10.00">::activate</text>
</a>
</g>
</g>
<!-- Node12&#45;&gt;Node13 -->
<g id="edge12_Node000012_Node000013" class="edge">
<title>Node12&#45;&gt;Node13</title>
<g id="a_edge12_Node000012_Node000013"><a xlink:title=" ">
<path fill="none" stroke="#63b8ff" d="M1193.06,-376.5C1207.37,-376.5 1222.28,-376.5 1236.28,-376.5"/>
<polygon fill="#63b8ff" stroke="#63b8ff" points="1236.29,-380 1246.29,-376.5 1236.29,-373 1236.29,-380"/>
</a>
</g>
</g>
<!-- Node15 -->
<g id="Node000015" class="node">
<title>Node15</title>
<g id="a_Node000015"><a xlink:href="../../d2/df0/SdSpiChipSelect_8cpp_ac469bbe2d31ffde9b00ffc68258d7428.xhtml#ac469bbe2d31ffde9b00ffc68258d7428" target="_top" xlink:title=" ">
<polygon fill="white" stroke="#666666" points="1696.5,-324 1630.5,-324 1630.5,-305 1696.5,-305 1696.5,-324"/>
<text text-anchor="middle" x="1663.5" y="-312" font-family="Helvetica,sans-Serif" font-size="10.00">sdCsWrite</text>
</a>
</g>
</g>
<!-- Node14&#45;&gt;Node15 -->
<g id="edge14_Node000014_Node000015" class="edge">
<title>Node14&#45;&gt;Node15</title>
<g id="a_edge14_Node000014_Node000015"><a xlink:title=" ">
<path fill="none" stroke="#63b8ff" d="M1187.72,-297.89C1301.41,-301.87 1526.36,-309.74 1620.02,-313.01"/>
<polygon fill="#63b8ff" stroke="#63b8ff" points="1620.13,-316.52 1630.25,-313.37 1620.38,-309.52 1620.13,-316.52"/>
</a>
</g>
</g>
<!-- Node16 -->
<g id="Node000016" class="node">
<title>Node16</title>
<g id="a_Node000016"><a xlink:href="../../d5/d45/wiring__digital_8c_a73b9b61feeaf7d790d107f2954a7fd93.xhtml#a73b9b61feeaf7d790d107f2954a7fd93" target="_top" xlink:title=" ">
<polygon fill="white" stroke="#666666" points="1829,-324 1755,-324 1755,-305 1829,-305 1829,-324"/>
<text text-anchor="middle" x="1792" y="-312" font-family="Helvetica,sans-Serif" font-size="10.00">digitalWrite</text>
</a>
</g>
</g>
<!-- Node15&#45;&gt;Node16 -->
<g id="edge15_Node000015_Node000016" class="edge">
<title>Node15&#45;&gt;Node16</title>
<g id="a_edge15_Node000015_Node000016"><a xlink:title=" ">
<path fill="none" stroke="#63b8ff" d="M1696.75,-314.5C1711.28,-314.5 1728.71,-314.5 1744.61,-314.5"/>
<polygon fill="#63b8ff" stroke="#63b8ff" points="1744.79,-318 1754.79,-314.5 1744.79,-311 1744.79,-318"/>
</a>
</g>
</g>
<!-- Node17 -->
<g id="Node000017" class="node">
<title>Node17</title>
<g id="a_Node000017"><a xlink:href="../../d5/d45/wiring__digital_8c_ae3d0bcbe4eb927ca8f5d5c21b7e4f224.xhtml#ae3d0bcbe4eb927ca8f5d5c21b7e4f224" target="_top" xlink:title=" ">
<polygon fill="white" stroke="#666666" points="1940,-324 1865,-324 1865,-305 1940,-305 1940,-324"/>
<text text-anchor="middle" x="1902.5" y="-312" font-family="Helvetica,sans-Serif" font-size="10.00">turnOffPWM</text>
</a>
</g>
</g>
<!-- Node16&#45;&gt;Node17 -->
<g id="edge16_Node000016_Node000017" class="edge">
<title>Node16&#45;&gt;Node17</title>
<g id="a_edge16_Node000016_Node000017"><a xlink:title=" ">
<path fill="none" stroke="#63b8ff" d="M1829.13,-314.5C1837.28,-314.5 1846.05,-314.5 1854.57,-314.5"/>
<polygon fill="#63b8ff" stroke="#63b8ff" points="1854.79,-318 1864.79,-314.5 1854.79,-311 1854.79,-318"/>
</a>
</g>
</g>
<!-- Node19 -->
<g id="Node000019" class="node">
<title>Node19</title>
<g id="a_Node000019"><a xlink:href="../../d8/d7f/classSharedSpiCard_ab33ad2aefbb9cff905cad0879dffc78b.xhtml#ab33ad2aefbb9cff905cad0879dffc78b" target="_top" xlink:title=" ">
<polygon fill="white" stroke="#666666" points="1187,-581 1050,-581 1050,-562 1187,-562 1187,-581"/>
<text text-anchor="middle" x="1118.5" y="-569" font-family="Helvetica,sans-Serif" font-size="10.00">SharedSpiCard::readStop</text>
</a>
</g>
</g>
<!-- Node18&#45;&gt;Node19 -->
<g id="edge19_Node000018_Node000019" class="edge">
<title>Node18&#45;&gt;Node19</title>
<g id="a_edge19_Node000018_Node000019"><a xlink:title=" ">
<path fill="none" stroke="#63b8ff" d="M980.3,-543.09C1004.96,-548.19 1035.46,-554.51 1061.44,-559.89"/>
<polygon fill="#63b8ff" stroke="#63b8ff" points="1061.03,-563.38 1071.53,-561.98 1062.45,-556.52 1061.03,-563.38"/>
</a>
</g>
</g>
<!-- Node25 -->
<g id="Node000025" class="node">
<title>Node25</title>
<g id="a_Node000025"><a xlink:href="../../d8/d7f/classSharedSpiCard_ae9a34a573077e43e7c6028a16ae77fb3.xhtml#ae9a34a573077e43e7c6028a16ae77fb3" target="_top" xlink:title=" ">
<polygon fill="white" stroke="#666666" points="1188.5,-543 1048.5,-543 1048.5,-524 1188.5,-524 1188.5,-543"/>
<text text-anchor="middle" x="1118.5" y="-531" font-family="Helvetica,sans-Serif" font-size="10.00">SharedSpiCard::writeStop</text>
</a>
</g>
</g>
<!-- Node18&#45;&gt;Node25 -->
<g id="edge28_Node000018_Node000025" class="edge">
<title>Node18&#45;&gt;Node25</title>
<g id="a_edge28_Node000018_Node000025"><a xlink:title=" ">
<path fill="none" stroke="#63b8ff" d="M1008.11,-533.5C1018,-533.5 1028.18,-533.5 1038.15,-533.5"/>
<polygon fill="#63b8ff" stroke="#63b8ff" points="1038.46,-537 1048.46,-533.5 1038.46,-530 1038.46,-537"/>
</a>
</g>
</g>
<!-- Node19&#45;&gt;Node6 -->
<g id="edge20_Node000019_Node000006" class="edge">
<title>Node19&#45;&gt;Node6</title>
<g id="a_edge20_Node000019_Node000006"><a xlink:title=" ">
<path fill="none" stroke="#63b8ff" d="M1049.78,-574.06C996.63,-574.29 921.29,-570.65 858,-552.5 822.53,-542.33 785.51,-520.66 762.73,-505.84"/>
<polygon fill="#63b8ff" stroke="#63b8ff" points="764.43,-502.76 754.16,-500.15 760.56,-508.59 764.43,-502.76"/>
</a>
</g>
</g>
<!-- Node19&#45;&gt;Node20 -->
<g id="edge21_Node000019_Node000020" class="edge">
<title>Node19&#45;&gt;Node20</title>
<g id="a_edge21_Node000019_Node000020"><a xlink:title=" ">
<path fill="none" stroke="#63b8ff" d="M1166.24,-581.03C1189.97,-585.86 1218.99,-591.78 1244.01,-596.88"/>
<polygon fill="#63b8ff" stroke="#63b8ff" points="1243.6,-600.37 1254.1,-598.94 1245,-593.51 1243.6,-600.37"/>
</a>
</g>
</g>
<!-- Node19&#45;&gt;Node21 -->
<g id="edge22_Node000019_Node000021" class="edge">
<title>Node19&#45;&gt;Node21</title>
<g id="a_edge22_Node000019_Node000021"><a xlink:title=" ">
<path fill="none" stroke="#63b8ff" d="M1187.08,-571.5C1199.97,-571.5 1213.52,-571.5 1226.6,-571.5"/>
<polygon fill="#63b8ff" stroke="#63b8ff" points="1226.97,-575 1236.97,-571.5 1226.97,-568 1226.97,-575"/>
</a>
</g>
</g>
<!-- Node21&#45;&gt;Node9 -->
<g id="edge25_Node000021_Node000009" class="edge">
<title>Node21&#45;&gt;Node9</title>
<g id="a_edge25_Node000021_Node000009"><a xlink:title=" ">
<path fill="none" stroke="#63b8ff" d="M1334.89,-561.91C1347.52,-557.84 1362.08,-552.81 1375,-547.5 1406.26,-534.65 1440.88,-517.1 1463.99,-504.88"/>
<polygon fill="#63b8ff" stroke="#63b8ff" points="1465.66,-507.95 1472.84,-500.16 1462.37,-501.77 1465.66,-507.95"/>
</a>
</g>
</g>
<!-- Node22 -->
<g id="Node000022" class="node">
<title>Node22</title>
<g id="a_Node000022"><a xlink:href="../../d8/d7f/classSharedSpiCard_ac6acfca5a23337977d2e4436ab8ab39a.xhtml#ac6acfca5a23337977d2e4436ab8ab39a" target="_top" xlink:title=" ">
<polygon fill="white" stroke="#666666" points="1572,-581 1411,-581 1411,-562 1572,-562 1572,-581"/>
<text text-anchor="middle" x="1491.5" y="-569" font-family="Helvetica,sans-Serif" font-size="10.00">SharedSpiCard::spiDeactivate</text>
</a>
</g>
</g>
<!-- Node21&#45;&gt;Node22 -->
<g id="edge23_Node000021_Node000022" class="edge">
<title>Node21&#45;&gt;Node22</title>
<g id="a_edge23_Node000021_Node000022"><a xlink:title=" ">
<path fill="none" stroke="#63b8ff" d="M1367,-571.5C1377.92,-571.5 1389.43,-571.5 1400.86,-571.5"/>
<polygon fill="#63b8ff" stroke="#63b8ff" points="1400.87,-575 1410.87,-571.5 1400.87,-568 1400.87,-575"/>
</a>
</g>
</g>
<!-- Node21&#45;&gt;Node24 -->
<g id="edge26_Node000021_Node000024" class="edge">
<title>Node21&#45;&gt;Node24</title>
<g id="a_edge26_Node000021_Node000024"><a xlink:title=" ">
<path fill="none" stroke="#63b8ff" d="M1317.99,-561.84C1333.45,-551.4 1357.69,-533.67 1375,-514.5 1422.75,-461.63 1463.58,-386.81 1481.21,-352.29"/>
<polygon fill="#63b8ff" stroke="#63b8ff" points="1484.36,-353.81 1485.73,-343.3 1478.11,-350.66 1484.36,-353.81"/>
</a>
</g>
</g>
<!-- Node23 -->
<g id="Node000023" class="node">
<title>Node23</title>
<g id="a_Node000023"><a xlink:href="../../d0/d25/classSdSpiArduinoDriver_ae88a255f533e3acb41d1221025a69b55.xhtml#ae88a255f533e3acb41d1221025a69b55" target="_top" xlink:title=" ">
<polygon fill="white" stroke="#666666" points="1719,-586.5 1608,-586.5 1608,-556.5 1719,-556.5 1719,-586.5"/>
<text text-anchor="start" x="1616" y="-574.5" font-family="Helvetica,sans-Serif" font-size="10.00">SdSpiArduinoDriver</text>
<text text-anchor="middle" x="1663.5" y="-563.5" font-family="Helvetica,sans-Serif" font-size="10.00">::deactivate</text>
</a>
</g>
</g>
<!-- Node22&#45;&gt;Node23 -->
<g id="edge24_Node000022_Node000023" class="edge">
<title>Node22&#45;&gt;Node23</title>
<g id="a_edge24_Node000022_Node000023"><a xlink:title=" ">
<path fill="none" stroke="#63b8ff" d="M1572.02,-571.5C1580.63,-571.5 1589.3,-571.5 1597.7,-571.5"/>
<polygon fill="#63b8ff" stroke="#63b8ff" points="1597.78,-575 1607.78,-571.5 1597.78,-568 1597.78,-575"/>
</a>
</g>
</g>
<!-- Node24&#45;&gt;Node15 -->
<g id="edge27_Node000024_Node000015" class="edge">
<title>Node24&#45;&gt;Node15</title>
<g id="a_edge27_Node000024_Node000015"><a xlink:title=" ">
<path fill="none" stroke="#63b8ff" d="M1567.06,-325.17C1585.21,-323.14 1604.01,-321.04 1620.07,-319.24"/>
<polygon fill="#63b8ff" stroke="#63b8ff" points="1620.64,-322.7 1630.19,-318.11 1619.87,-315.74 1620.64,-322.7"/>
</a>
</g>
</g>
<!-- Node25&#45;&gt;Node9 -->
<g id="edge30_Node000025_Node000009" class="edge">
<title>Node25&#45;&gt;Node9</title>
<g id="a_edge30_Node000025_Node000009"><a xlink:title=" ">
<path fill="none" stroke="#63b8ff" d="M1188.62,-530.81C1240.18,-528.21 1312.23,-523.32 1375,-514.5 1396.86,-511.43 1420.79,-506.69 1441.17,-502.23"/>
<polygon fill="#63b8ff" stroke="#63b8ff" points="1442.17,-505.59 1451.17,-500 1440.64,-498.76 1442.17,-505.59"/>
</a>
</g>
</g>
<!-- Node25&#45;&gt;Node20 -->
<g id="edge29_Node000025_Node000020" class="edge">
<title>Node25&#45;&gt;Node20</title>
<g id="a_edge29_Node000025_Node000020"><a xlink:title=" ">
<path fill="none" stroke="#63b8ff" d="M1168.82,-543C1177.21,-545.7 1185.59,-549.14 1193,-553.5 1212.77,-565.15 1209.11,-579.06 1229,-590.5 1232.05,-592.26 1235.27,-593.84 1238.59,-595.27"/>
<polygon fill="#63b8ff" stroke="#63b8ff" points="1237.56,-598.63 1248.15,-598.92 1240.05,-592.08 1237.56,-598.63"/>
</a>
</g>
</g>
<!-- Node25&#45;&gt;Node21 -->
<g id="edge31_Node000025_Node000021" class="edge">
<title>Node25&#45;&gt;Node21</title>
<g id="a_edge31_Node000025_Node000021"><a xlink:title=" ">
<path fill="none" stroke="#63b8ff" d="M1165.3,-543.09C1189.68,-548.19 1219.86,-554.51 1245.56,-559.89"/>
<polygon fill="#63b8ff" stroke="#63b8ff" points="1245.02,-563.36 1255.53,-561.98 1246.46,-556.5 1245.02,-563.36"/>
</a>
</g>
</g>
<!-- Node25&#45;&gt;Node26 -->
<g id="edge32_Node000025_Node000026" class="edge">
<title>Node25&#45;&gt;Node26</title>
<g id="a_edge32_Node000025_Node000026"><a xlink:title=" ">
<path fill="none" stroke="#63b8ff" d="M1165.3,-523.91C1189.68,-518.81 1219.86,-512.49 1245.56,-507.11"/>
<polygon fill="#63b8ff" stroke="#63b8ff" points="1246.46,-510.5 1255.53,-505.02 1245.02,-503.64 1246.46,-510.5"/>
</a>
</g>
</g>
<!-- Node26&#45;&gt;Node7 -->
<g id="edge33_Node000026_Node000007" class="edge">
<title>Node26&#45;&gt;Node7</title>
<g id="a_edge33_Node000026_Node000007"><a xlink:title=" ">
<path fill="none" stroke="#63b8ff" d="M1315.87,-505.11C1330.58,-516.27 1355.18,-535.45 1375,-553.5 1391.96,-568.95 1393.55,-575.61 1411,-590.5 1428.77,-605.66 1450.56,-620.8 1466.83,-631.5"/>
<polygon fill="#63b8ff" stroke="#63b8ff" points="1464.95,-634.45 1475.24,-636.96 1468.76,-628.58 1464.95,-634.45"/>
</a>
</g>
</g>
<!-- Node26&#45;&gt;Node27 -->
<g id="edge34_Node000026_Node000027" class="edge">
<title>Node26&#45;&gt;Node27</title>
<g id="a_edge34_Node000026_Node000027"><a xlink:title=" ">
<path fill="none" stroke="#63b8ff" d="M1311.65,-485.82C1326.13,-469.25 1355.62,-434 1375,-400.5 1395.55,-364.99 1385.51,-347.64 1411,-315.5 1425.24,-297.54 1446.39,-282.48 1463.3,-272.21"/>
<polygon fill="#63b8ff" stroke="#63b8ff" points="1465.32,-275.08 1472.18,-267 1461.78,-269.04 1465.32,-275.08"/>
</a>
</g>
</g>
<!-- Node28 -->
<g id="Node000028" class="node">
<title>Node28</title>
<g id="a_Node000028"><a xlink:href="../../db/df4/classTimeout_a9a72ea0591f11452fb15bfaa1ae5108a.xhtml#a9a72ea0591f11452fb15bfaa1ae5108a" target="_top" xlink:title=" ">
<polygon fill="white" stroke="#666666" points="1714.5,-248 1612.5,-248 1612.5,-229 1714.5,-229 1714.5,-248"/>
<text text-anchor="middle" x="1663.5" y="-236" font-family="Helvetica,sans-Serif" font-size="10.00">Timeout::millis16</text>
</a>
</g>
</g>
<!-- Node27&#45;&gt;Node28 -->
<g id="edge35_Node000027_Node000028" class="edge">
<title>Node27&#45;&gt;Node28</title>
<g id="a_edge35_Node000027_Node000028"><a xlink:title=" ">
<path fill="none" stroke="#63b8ff" d="M1546.29,-251.49C1564.1,-249.5 1584.03,-247.27 1602.29,-245.23"/>
<polygon fill="#63b8ff" stroke="#63b8ff" points="1602.69,-248.71 1612.24,-244.12 1601.91,-241.75 1602.69,-248.71"/>
</a>
</g>
</g>
<!-- Node29 -->
<g id="Node000029" class="node">
<title>Node29</title>
<g id="a_Node000029"><a xlink:href="../../d5/df3/wiring_8c_a6ff7f2532a22366f0013bc41397129fd.xhtml#a6ff7f2532a22366f0013bc41397129fd" target="_top" xlink:title=" ">
<polygon fill="white" stroke="#666666" points="1814,-248 1770,-248 1770,-229 1814,-229 1814,-248"/>
<text text-anchor="middle" x="1792" y="-236" font-family="Helvetica,sans-Serif" font-size="10.00">millis</text>
</a>
</g>
</g>
<!-- Node28&#45;&gt;Node29 -->
<g id="edge36_Node000028_Node000029" class="edge">
<title>Node28&#45;&gt;Node29</title>
<g id="a_edge36_Node000028_Node000029"><a xlink:title=" ">
<path fill="none" stroke="#63b8ff" d="M1714.86,-238.5C1729.97,-238.5 1746.11,-238.5 1759.62,-238.5"/>
<polygon fill="#63b8ff" stroke="#63b8ff" points="1759.83,-242 1769.83,-238.5 1759.83,-235 1759.83,-242"/>
</a>
</g>
</g>
<!-- Node32 -->
<g id="Node000032" class="node">
<title>Node32</title>
<g id="a_Node000032"><a xlink:href="../../d5/d45/wiring__digital_8c_abf453c1659ee9fafa5af689523ac71e7.xhtml#abf453c1659ee9fafa5af689523ac71e7" target="_top" xlink:title=" ">
<polygon fill="white" stroke="#666666" points="769,-181 710,-181 710,-162 769,-162 769,-181"/>
<text text-anchor="middle" x="739.5" y="-169" font-family="Helvetica,sans-Serif" font-size="10.00">pinMode</text>
</a>
</g>
</g>
<!-- Node31&#45;&gt;Node32 -->
<g id="edge42_Node000031_Node000032" class="edge">
<title>Node31&#45;&gt;Node32</title>
<g id="a_edge42_Node000031_Node000032"><a xlink:title=" ">
<path fill="none" stroke="#63b8ff" d="M577.84,-171.5C609.91,-171.5 663.31,-171.5 699.67,-171.5"/>
<polygon fill="#63b8ff" stroke="#63b8ff" points="699.9,-175 709.9,-171.5 699.9,-168 699.9,-175"/>
</a>
</g>
</g>
<!-- Node33&#45;&gt;Node28 -->
<g id="edge44_Node000033_Node000028" class="edge">
<title>Node33&#45;&gt;Node28</title>
<g id="a_edge44_Node000033_Node000028"><a xlink:title=" ">
<path fill="none" stroke="#63b8ff" d="M972.14,-159.85C1091.22,-173.41 1456.78,-215.06 1602.06,-231.61"/>
<polygon fill="#63b8ff" stroke="#63b8ff" points="1601.8,-235.11 1612.13,-232.76 1602.59,-228.15 1601.8,-235.11"/>
</a>
</g>
</g>
<!-- Node35 -->
<g id="Node000035" class="node">
<title>Node35</title>
<g id="a_Node000035"><a xlink:href="../../d0/d25/classSdSpiArduinoDriver_ae837a6d51bfe5518cb4744581824db88.xhtml#ae837a6d51bfe5518cb4744581824db88" target="_top" xlink:title=" ">
<polygon fill="white" stroke="#666666" points="795,-105.5 684,-105.5 684,-75.5 795,-75.5 795,-105.5"/>
<text text-anchor="start" x="692" y="-93.5" font-family="Helvetica,sans-Serif" font-size="10.00">SdSpiArduinoDriver</text>
<text text-anchor="middle" x="739.5" y="-82.5" font-family="Helvetica,sans-Serif" font-size="10.00">::begin</text>
</a>
</g>
</g>
<!-- Node34&#45;&gt;Node35 -->
<g id="edge46_Node000034_Node000035" class="edge">
<title>Node34&#45;&gt;Node35</title>
<g id="a_edge46_Node000034_Node000035"><a xlink:title=" ">
<path fill="none" stroke="#63b8ff" d="M617.58,-93.72C635.82,-93.23 655.54,-92.71 673.66,-92.22"/>
<polygon fill="#63b8ff" stroke="#63b8ff" points="673.92,-95.72 683.83,-91.95 673.74,-88.72 673.92,-95.72"/>
</a>
</g>
</g>
<!-- Node37 -->
<g id="Node000037" class="node">
<title>Node37</title>
<g id="a_Node000037"><a xlink:href="../../d0/d25/classSdSpiArduinoDriver_acf0cc41d2bd80479237aa2799e119973.xhtml#acf0cc41d2bd80479237aa2799e119973" target="_top" xlink:title=" ">
<polygon fill="white" stroke="#666666" points="795,-57.5 684,-57.5 684,-27.5 795,-27.5 795,-57.5"/>
<text text-anchor="start" x="692" y="-45.5" font-family="Helvetica,sans-Serif" font-size="10.00">SdSpiArduinoDriver</text>
<text text-anchor="middle" x="739.5" y="-34.5" font-family="Helvetica,sans-Serif" font-size="10.00">::setSckSpeed</text>
</a>
</g>
</g>
<!-- Node36&#45;&gt;Node37 -->
<g id="edge50_Node000036_Node000037" class="edge">
<title>Node36&#45;&gt;Node37</title>
<g id="a_edge50_Node000036_Node000037"><a xlink:title=" ">
<path fill="none" stroke="#63b8ff" d="M620.24,-48.79C637.8,-47.86 656.57,-46.86 673.86,-45.94"/>
<polygon fill="#63b8ff" stroke="#63b8ff" points="674.05,-49.43 683.85,-45.41 673.68,-42.44 674.05,-49.43"/>
</a>
</g>
</g>
</g>
</svg>
