<?xml version="1.0" encoding="UTF-8" standalone="no"?>
<!DOCTYPE svg PUBLIC "-//W3C//DTD SVG 1.1//EN"
 "http://www.w3.org/Graphics/SVG/1.1/DTD/svg11.dtd">
<!-- Generated by graphviz version 2.43.0 (0)
 -->
<!-- Title: SdBase::errorPrint Pages: 1 -->
<svg width="268pt" height="101pt"
 viewBox="0.00 0.00 268.00 101.00" xmlns="http://www.w3.org/2000/svg" xmlns:xlink="http://www.w3.org/1999/xlink">
<g id="graph0" class="graph" transform="scale(1 1) rotate(0) translate(4 97)">
<title>SdBase::errorPrint</title>
<!-- Node1 -->
<g id="Node000001" class="node">
<title>Node1</title>
<g id="a_Node000001"><a xlink:title=" ">
<polygon fill="#999999" stroke="#666666" points="260,-56 156,-56 156,-37 260,-37 260,-56"/>
<text text-anchor="middle" x="208" y="-44" font-family="Helvetica,sans-Serif" font-size="10.00">SdBase::errorPrint</text>
</a>
</g>
</g>
<!-- Node2 -->
<g id="Node000002" class="node">
<title>Node2</title>
<g id="a_Node000002"><a xlink:href="../../da/d81/classSdBase.xhtml#ab6e769d1fbc906e430bd14d5a60d8e85" target="_top" xlink:title=" ">
<polygon fill="white" stroke="#666666" points="112,-93 8,-93 8,-74 112,-74 112,-93"/>
<text text-anchor="middle" x="60" y="-81" font-family="Helvetica,sans-Serif" font-size="10.00">SdBase::errorPrint</text>
</a>
</g>
</g>
<!-- Node1&#45;&gt;Node2 -->
<g id="edge1_Node000001_Node000002" class="edge">
<title>Node1&#45;&gt;Node2</title>
<g id="a_edge1_Node000001_Node000002"><a xlink:title=" ">
<path fill="none" stroke="#63b8ff" d="M159.67,-58.49C139.93,-63.5 117.32,-69.23 98.72,-73.94"/>
<polygon fill="#63b8ff" stroke="#63b8ff" points="160.57,-61.88 169.4,-56.03 158.85,-55.09 160.57,-61.88"/>
</a>
</g>
</g>
<!-- Node3 -->
<g id="Node000003" class="node">
<title>Node3</title>
<g id="a_Node000003"><a xlink:href="../../da/d81/classSdBase.xhtml#a2a90ca72f6a9368856e3cc685fd5de1b" target="_top" xlink:title=" ">
<polygon fill="white" stroke="#666666" points="112,-56 8,-56 8,-37 112,-37 112,-56"/>
<text text-anchor="middle" x="60" y="-44" font-family="Helvetica,sans-Serif" font-size="10.00">SdBase::errorPrint</text>
</a>
</g>
</g>
<!-- Node1&#45;&gt;Node3 -->
<g id="edge2_Node000001_Node000003" class="edge">
<title>Node1&#45;&gt;Node3</title>
<g id="a_edge2_Node000001_Node000003"><a xlink:title=" ">
<path fill="none" stroke="#63b8ff" d="M145.82,-46.5C134.66,-46.5 123.12,-46.5 112.28,-46.5"/>
<polygon fill="#63b8ff" stroke="#63b8ff" points="145.94,-50 155.94,-46.5 145.94,-43 145.94,-50"/>
</a>
</g>
</g>
<!-- Node4 -->
<g id="Node000004" class="node">
<title>Node4</title>
<g id="a_Node000004"><a xlink:href="../../da/d81/classSdBase.xhtml#ac3c78d4209a497b038a778f5163d615c" target="_top" xlink:title=" ">
<polygon fill="white" stroke="#666666" points="120,-19 0,-19 0,0 120,0 120,-19"/>
<text text-anchor="middle" x="60" y="-7" font-family="Helvetica,sans-Serif" font-size="10.00">SdBase::initErrorPrint</text>
</a>
</g>
</g>
<!-- Node1&#45;&gt;Node4 -->
<g id="edge3_Node000001_Node000004" class="edge">
<title>Node1&#45;&gt;Node4</title>
<g id="a_edge3_Node000001_Node000004"><a xlink:title=" ">
<path fill="none" stroke="#63b8ff" d="M159.67,-34.51C139.93,-29.5 117.32,-23.77 98.72,-19.06"/>
<polygon fill="#63b8ff" stroke="#63b8ff" points="158.85,-37.91 169.4,-36.97 160.57,-31.12 158.85,-37.91"/>
</a>
</g>
</g>
</g>
</svg>
