<?xml version="1.0" encoding="UTF-8" standalone="no"?>
<!DOCTYPE svg PUBLIC "-//W3C//DTD SVG 1.1//EN"
 "http://www.w3.org/Graphics/SVG/1.1/DTD/svg11.dtd">
<!-- Generated by graphviz version 2.43.0 (0)
 -->
<!-- Title: SdBase::begin Pages: 1 -->
<svg width="457pt" height="101pt"
 viewBox="0.00 0.00 457.00 101.00" xmlns="http://www.w3.org/2000/svg" xmlns:xlink="http://www.w3.org/1999/xlink">
<g id="graph0" class="graph" transform="scale(1 1) rotate(0) translate(4 97)">
<title>SdBase::begin</title>
<!-- Node1 -->
<g id="Node000001" class="node">
<title>Node1</title>
<g id="a_Node000001"><a xlink:title=" ">
<polygon fill="#999999" stroke="#666666" points="449,-74 363,-74 363,-55 449,-55 449,-74"/>
<text text-anchor="middle" x="406" y="-62" font-family="Helvetica,sans-Serif" font-size="10.00">SdBase::begin</text>
</a>
</g>
</g>
<!-- Node1&#45;&gt;Node1 -->
<g id="edge2_Node000001_Node000001" class="edge">
<title>Node1&#45;&gt;Node1</title>
<g id="a_edge2_Node000001_Node000001"><a xlink:title=" ">
<path fill="none" stroke="#63b8ff" d="M428.59,-83.55C427.08,-88.38 419.55,-92 406,-92 384.32,-92 378.05,-82.73 387.2,-74.08"/>
<polygon fill="#63b8ff" stroke="#63b8ff" points="431.77,-82.07 424.8,-74.08 425.27,-84.67 431.77,-82.07"/>
</a>
</g>
</g>
<!-- Node2 -->
<g id="Node000002" class="node">
<title>Node2</title>
<g id="a_Node000002"><a xlink:href="../../da/d81/classSdBase.xhtml#ad3757c5f91ff05393708c23cadf65fe2" target="_top" xlink:title=" ">
<polygon fill="white" stroke="#666666" points="327,-93 241,-93 241,-74 327,-74 327,-93"/>
<text text-anchor="middle" x="284" y="-81" font-family="Helvetica,sans-Serif" font-size="10.00">SdBase::begin</text>
</a>
</g>
</g>
<!-- Node1&#45;&gt;Node2 -->
<g id="edge1_Node000001_Node000002" class="edge">
<title>Node1&#45;&gt;Node2</title>
<g id="a_edge1_Node000001_Node000002"><a xlink:title=" ">
<path fill="none" stroke="#63b8ff" d="M352.55,-72.8C344.12,-74.14 335.49,-75.51 327.33,-76.8"/>
<polygon fill="#63b8ff" stroke="#63b8ff" points="353.36,-76.22 362.69,-71.2 352.27,-69.31 353.36,-76.22"/>
</a>
</g>
</g>
<!-- Node3 -->
<g id="Node000003" class="node">
<title>Node3</title>
<g id="a_Node000003"><a xlink:href="../../d0/ded/sd_8cpp.xhtml#a9d3643dd7aeaea6f58648a50f1ad7833" target="_top" xlink:title="Montage de la carte SD.">
<polygon fill="white" stroke="#666666" points="308,-56 260,-56 260,-37 308,-37 308,-56"/>
<text text-anchor="middle" x="284" y="-44" font-family="Helvetica,sans-Serif" font-size="10.00">mount</text>
</a>
</g>
</g>
<!-- Node1&#45;&gt;Node3 -->
<g id="edge3_Node000001_Node000003" class="edge">
<title>Node1&#45;&gt;Node3</title>
<g id="a_edge3_Node000001_Node000003"><a xlink:title=" ">
<path fill="none" stroke="#63b8ff" d="M352.61,-56.64C337.04,-54.31 320.78,-51.87 308.11,-49.97"/>
<polygon fill="#63b8ff" stroke="#63b8ff" points="352.28,-60.13 362.69,-58.15 353.32,-53.21 352.28,-60.13"/>
</a>
</g>
</g>
<!-- Node4 -->
<g id="Node000004" class="node">
<title>Node4</title>
<g id="a_Node000004"><a xlink:href="../../df/d22/configuration_8cpp.xhtml#a9e246d9996b76ad7b81266d6533a930e" target="_top" xlink:title="Quitte le mode de configuration.">
<polygon fill="white" stroke="#666666" points="205,-93 77,-93 77,-74 205,-74 205,-93"/>
<text text-anchor="middle" x="141" y="-81" font-family="Helvetica,sans-Serif" font-size="10.00">quitConfigurationMode</text>
</a>
</g>
</g>
<!-- Node3&#45;&gt;Node4 -->
<g id="edge4_Node000003_Node000004" class="edge">
<title>Node3&#45;&gt;Node4</title>
<g id="a_edge4_Node000003_Node000004"><a xlink:title=" ">
<path fill="none" stroke="#63b8ff" d="M250.04,-55.15C228.53,-60.79 200.44,-68.16 178.3,-73.98"/>
<polygon fill="#63b8ff" stroke="#63b8ff" points="250.93,-58.53 259.72,-52.61 249.16,-51.76 250.93,-58.53"/>
</a>
</g>
</g>
<!-- Node5 -->
<g id="Node000005" class="node">
<title>Node5</title>
<g id="a_Node000005"><a xlink:href="../../d6/d46/maintenance_8cpp.xhtml#ac99882e56a7b3976942cb3ffb6bebe98" target="_top" xlink:title="Quitte le mode maintenance.">
<polygon fill="white" stroke="#666666" points="203.5,-56 78.5,-56 78.5,-37 203.5,-37 203.5,-56"/>
<text text-anchor="middle" x="141" y="-44" font-family="Helvetica,sans-Serif" font-size="10.00">quitMaintenanceMode</text>
</a>
</g>
</g>
<!-- Node3&#45;&gt;Node5 -->
<g id="edge5_Node000003_Node000005" class="edge">
<title>Node3&#45;&gt;Node5</title>
<g id="a_edge5_Node000003_Node000005"><a xlink:title=" ">
<path fill="none" stroke="#63b8ff" d="M249.34,-46.5C235.63,-46.5 219.35,-46.5 203.65,-46.5"/>
<polygon fill="#63b8ff" stroke="#63b8ff" points="249.72,-50 259.72,-46.5 249.72,-43 249.72,-50"/>
</a>
</g>
</g>
<!-- Node6 -->
<g id="Node000006" class="node">
<title>Node6</title>
<g id="a_Node000006"><a xlink:href="../../de/dfb/src_2main_8cpp.xhtml#a4fc01d736fe50cf5b977f755b675f11d" target="_top" xlink:title=" ">
<polygon fill="white" stroke="#666666" points="163,-19 119,-19 119,0 163,0 163,-19"/>
<text text-anchor="middle" x="141" y="-7" font-family="Helvetica,sans-Serif" font-size="10.00">setup</text>
</a>
</g>
</g>
<!-- Node3&#45;&gt;Node6 -->
<g id="edge6_Node000003_Node000006" class="edge">
<title>Node3&#45;&gt;Node6</title>
<g id="a_edge6_Node000003_Node000006"><a xlink:title=" ">
<path fill="none" stroke="#63b8ff" d="M249.97,-37.83C223.1,-30.78 185.99,-21.04 163.01,-15.01"/>
<polygon fill="#63b8ff" stroke="#63b8ff" points="249.16,-41.24 259.72,-40.39 250.93,-34.47 249.16,-41.24"/>
</a>
</g>
</g>
<!-- Node7 -->
<g id="Node000007" class="node">
<title>Node7</title>
<g id="a_Node000007"><a xlink:href="../../d2/d81/libs_2Arduino__AVR_2main_8cpp.xhtml#a840291bc02cba5474a4cb46a9b9566fe" target="_top" xlink:title=" ">
<polygon fill="white" stroke="#666666" points="41,-19 0,-19 0,0 41,0 41,-19"/>
<text text-anchor="middle" x="20.5" y="-7" font-family="Helvetica,sans-Serif" font-size="10.00">main</text>
</a>
</g>
</g>
<!-- Node6&#45;&gt;Node7 -->
<g id="edge7_Node000006_Node000007" class="edge">
<title>Node6&#45;&gt;Node7</title>
<g id="a_edge7_Node000006_Node000007"><a xlink:title=" ">
<path fill="none" stroke="#63b8ff" d="M108.61,-9.5C87.26,-9.5 59.67,-9.5 41.32,-9.5"/>
<polygon fill="#63b8ff" stroke="#63b8ff" points="108.81,-13 118.81,-9.5 108.81,-6 108.81,-13"/>
</a>
</g>
</g>
</g>
</svg>
