<?xml version="1.0" encoding="UTF-8" standalone="no"?>
<!DOCTYPE svg PUBLIC "-//W3C//DTD SVG 1.1//EN"
 "http://www.w3.org/Graphics/SVG/1.1/DTD/svg11.dtd">
<!-- Generated by graphviz version 2.43.0 (0)
 -->
<!-- Title: SdBase::errorPrint Pages: 1 -->
<svg width="584pt" height="64pt"
 viewBox="0.00 0.00 584.00 64.00" xmlns="http://www.w3.org/2000/svg" xmlns:xlink="http://www.w3.org/1999/xlink">
<g id="graph0" class="graph" transform="scale(1 1) rotate(0) translate(4 60)">
<title>SdBase::errorPrint</title>
<!-- Node1 -->
<g id="Node000001" class="node">
<title>Node1</title>
<g id="a_Node000001"><a xlink:title=" ">
<polygon fill="#999999" stroke="#666666" points="104,-37 0,-37 0,-18 104,-18 104,-37"/>
<text text-anchor="middle" x="52" y="-25" font-family="Helvetica,sans-Serif" font-size="10.00">SdBase::errorPrint</text>
</a>
</g>
</g>
<!-- Node2 -->
<g id="Node000002" class="node">
<title>Node2</title>
<g id="a_Node000002"><a xlink:href="../../da/d81/classSdBase_a17b39af0b81b21950572890f975659ed.xhtml#a17b39af0b81b21950572890f975659ed" target="_top" xlink:title=" ">
<polygon fill="white" stroke="#666666" points="244,-37 140,-37 140,-18 244,-18 244,-37"/>
<text text-anchor="middle" x="192" y="-25" font-family="Helvetica,sans-Serif" font-size="10.00">SdBase::errorPrint</text>
</a>
</g>
</g>
<!-- Node1&#45;&gt;Node2 -->
<g id="edge1_Node000001_Node000002" class="edge">
<title>Node1&#45;&gt;Node2</title>
<g id="a_edge1_Node000001_Node000002"><a xlink:title=" ">
<path fill="none" stroke="#63b8ff" d="M104.39,-27.5C112.56,-27.5 121.08,-27.5 129.46,-27.5"/>
<polygon fill="#63b8ff" stroke="#63b8ff" points="129.57,-31 139.57,-27.5 129.57,-24 129.57,-31"/>
</a>
</g>
</g>
<!-- Node3 -->
<g id="Node000003" class="node">
<title>Node3</title>
<g id="a_Node000003"><a xlink:href="../../da/d81/classSdBase_ade05d71dc81d1f40da675f4a89535852.xhtml#ade05d71dc81d1f40da675f4a89535852" target="_top" xlink:title=" ">
<polygon fill="white" stroke="#666666" points="398,-56 280,-56 280,-37 398,-37 398,-56"/>
<text text-anchor="middle" x="339" y="-44" font-family="Helvetica,sans-Serif" font-size="10.00">SdBase::sdErrorCode</text>
</a>
</g>
</g>
<!-- Node2&#45;&gt;Node3 -->
<g id="edge2_Node000002_Node000003" class="edge">
<title>Node2&#45;&gt;Node3</title>
<g id="a_edge2_Node000002_Node000003"><a xlink:title=" ">
<path fill="none" stroke="#63b8ff" d="M244.12,-34.2C252.44,-35.29 261.18,-36.43 269.83,-37.57"/>
<polygon fill="#63b8ff" stroke="#63b8ff" points="269.55,-41.06 279.92,-38.89 270.46,-34.12 269.55,-41.06"/>
</a>
</g>
</g>
<!-- Node5 -->
<g id="Node000005" class="node">
<title>Node5</title>
<g id="a_Node000005"><a xlink:href="../../da/d81/classSdBase_a0d7fd739da00b060ef9ee714d0dbb720.xhtml#a0d7fd739da00b060ef9ee714d0dbb720" target="_top" xlink:title=" ">
<polygon fill="white" stroke="#666666" points="397,-19 281,-19 281,0 397,0 397,-19"/>
<text text-anchor="middle" x="339" y="-7" font-family="Helvetica,sans-Serif" font-size="10.00">SdBase::sdErrorData</text>
</a>
</g>
</g>
<!-- Node2&#45;&gt;Node5 -->
<g id="edge4_Node000002_Node000005" class="edge">
<title>Node2&#45;&gt;Node5</title>
<g id="a_edge4_Node000002_Node000005"><a xlink:title=" ">
<path fill="none" stroke="#63b8ff" d="M244.12,-21.15C252.77,-20.08 261.87,-18.95 270.85,-17.84"/>
<polygon fill="#63b8ff" stroke="#63b8ff" points="271.43,-21.29 280.92,-16.59 270.56,-14.34 271.43,-21.29"/>
</a>
</g>
</g>
<!-- Node4 -->
<g id="Node000004" class="node">
<title>Node4</title>
<g id="a_Node000004"><a xlink:href="../../d8/d7f/classSharedSpiCard_aff338a5cece6d38c50f9516e6c31c0f6.xhtml#aff338a5cece6d38c50f9516e6c31c0f6" target="_top" xlink:title=" ">
<polygon fill="white" stroke="#666666" points="576,-56 434,-56 434,-37 576,-37 576,-56"/>
<text text-anchor="middle" x="505" y="-44" font-family="Helvetica,sans-Serif" font-size="10.00">SharedSpiCard::errorCode</text>
</a>
</g>
</g>
<!-- Node3&#45;&gt;Node4 -->
<g id="edge3_Node000003_Node000004" class="edge">
<title>Node3&#45;&gt;Node4</title>
<g id="a_edge3_Node000003_Node000004"><a xlink:title=" ">
<path fill="none" stroke="#63b8ff" d="M398.28,-46.5C406.55,-46.5 415.18,-46.5 423.78,-46.5"/>
<polygon fill="#63b8ff" stroke="#63b8ff" points="423.83,-50 433.83,-46.5 423.83,-43 423.83,-50"/>
</a>
</g>
</g>
<!-- Node6 -->
<g id="Node000006" class="node">
<title>Node6</title>
<g id="a_Node000006"><a xlink:href="../../d8/d7f/classSharedSpiCard_a3ae2be970123e148f1d35f61ac56984f.xhtml#a3ae2be970123e148f1d35f61ac56984f" target="_top" xlink:title=" ">
<polygon fill="white" stroke="#666666" points="575,-19 435,-19 435,0 575,0 575,-19"/>
<text text-anchor="middle" x="505" y="-7" font-family="Helvetica,sans-Serif" font-size="10.00">SharedSpiCard::errorData</text>
</a>
</g>
</g>
<!-- Node5&#45;&gt;Node6 -->
<g id="edge5_Node000005_Node000006" class="edge">
<title>Node5&#45;&gt;Node6</title>
<g id="a_edge5_Node000005_Node000006"><a xlink:title=" ">
<path fill="none" stroke="#63b8ff" d="M397.36,-9.5C406.25,-9.5 415.56,-9.5 424.82,-9.5"/>
<polygon fill="#63b8ff" stroke="#63b8ff" points="424.83,-13 434.83,-9.5 424.83,-6 424.83,-13"/>
</a>
</g>
</g>
</g>
</svg>
