<?xml version="1.0" encoding="UTF-8" standalone="no"?>
<!DOCTYPE svg PUBLIC "-//W3C//DTD SVG 1.1//EN"
 "http://www.w3.org/Graphics/SVG/1.1/DTD/svg11.dtd">
<!-- Generated by graphviz version 2.43.0 (0)
 -->
<!-- Title: FatPartition::dmpDirSector Pages: 1 -->
<svg width="2007pt" height="502pt"
 viewBox="0.00 0.00 2007.00 501.84" xmlns="http://www.w3.org/2000/svg" xmlns:xlink="http://www.w3.org/1999/xlink">
<g id="graph0" class="graph" transform="scale(1 1) rotate(0) translate(4 497.84)">
<title>FatPartition::dmpDirSector</title>
<!-- Node1 -->
<g id="Node000001" class="node">
<title>Node1</title>
<g id="a_Node000001"><a xlink:title=" ">
<polygon fill="#999999" stroke="#666666" points="144,-153.42 0,-153.42 0,-134.42 144,-134.42 144,-153.42"/>
<text text-anchor="middle" x="72" y="-141.42" font-family="Helvetica,sans-Serif" font-size="10.00">FatPartition::dmpDirSector</text>
</a>
</g>
</g>
<!-- Node2 -->
<g id="Node000002" class="node">
<title>Node2</title>
<g id="a_Node000002"><a xlink:href="../../d8/d15/classFatPartition.xhtml#a49e7a6d196a42700b021959187128c66" target="_top" xlink:title=" ">
<polygon fill="white" stroke="#666666" points="332,-219.42 180,-219.42 180,-200.42 332,-200.42 332,-219.42"/>
<text text-anchor="middle" x="256" y="-207.42" font-family="Helvetica,sans-Serif" font-size="10.00">FatPartition::cacheSafeRead</text>
</a>
</g>
</g>
<!-- Node1&#45;&gt;Node2 -->
<g id="edge1_Node000001_Node000002" class="edge">
<title>Node1&#45;&gt;Node2</title>
<g id="a_edge1_Node000001_Node000002"><a xlink:title=" ">
<path fill="none" stroke="#63b8ff" d="M99.46,-153.51C131.1,-164.98 184.16,-184.23 219.37,-197"/>
<polygon fill="#63b8ff" stroke="#63b8ff" points="218.2,-200.3 228.8,-200.42 220.59,-193.72 218.2,-200.3"/>
</a>
</g>
</g>
<!-- Node33 -->
<g id="Node000033" class="node">
<title>Node33</title>
<g id="a_Node000033"><a xlink:href="../../d4/df1/FatDbg_8cpp.xhtml#a5afaaddc4da2b3b746042bf8c7ba19a4" target="_top" xlink:title=" ">
<polygon fill="white" stroke="#666666" points="290,-135.42 222,-135.42 222,-116.42 290,-116.42 290,-135.42"/>
<text text-anchor="middle" x="256" y="-123.42" font-family="Helvetica,sans-Serif" font-size="10.00">printFatDir</text>
</a>
</g>
</g>
<!-- Node1&#45;&gt;Node33 -->
<g id="edge45_Node000001_Node000033" class="edge">
<title>Node1&#45;&gt;Node33</title>
<g id="a_edge45_Node000001_Node000033"><a xlink:title=" ">
<path fill="none" stroke="#63b8ff" d="M144.15,-136.88C166.9,-134.63 191.39,-132.21 211.56,-130.21"/>
<polygon fill="#63b8ff" stroke="#63b8ff" points="212.07,-133.68 221.67,-129.21 211.38,-126.71 212.07,-133.68"/>
</a>
</g>
</g>
<!-- Node3 -->
<g id="Node000003" class="node">
<title>Node3</title>
<g id="a_Node000003"><a xlink:href="../../dd/db1/classFsCache.xhtml#abdfa349477d43542829c4d58b355efa6" target="_top" xlink:title=" ">
<polygon fill="white" stroke="#666666" points="507,-285.42 368,-285.42 368,-266.42 507,-266.42 507,-285.42"/>
<text text-anchor="middle" x="437.5" y="-273.42" font-family="Helvetica,sans-Serif" font-size="10.00">FsCache::cacheSafeRead</text>
</a>
</g>
</g>
<!-- Node2&#45;&gt;Node3 -->
<g id="edge2_Node000002_Node000003" class="edge">
<title>Node2&#45;&gt;Node3</title>
<g id="a_edge2_Node000002_Node000003"><a xlink:title=" ">
<path fill="none" stroke="#63b8ff" d="M283.1,-219.51C314.16,-230.94 366.18,-250.06 400.92,-262.83"/>
<polygon fill="#63b8ff" stroke="#63b8ff" points="400.07,-266.25 410.66,-266.42 402.48,-259.68 400.07,-266.25"/>
</a>
</g>
</g>
<!-- Node4 -->
<g id="Node000004" class="node">
<title>Node4</title>
<g id="a_Node000004"><a xlink:href="../../dd/db1/classFsCache.xhtml#a9d9880fe717b35c3dd46a2faf5172371" target="_top" xlink:title=" ">
<polygon fill="white" stroke="#666666" points="670,-289.42 562,-289.42 562,-270.42 670,-270.42 670,-289.42"/>
<text text-anchor="middle" x="616" y="-277.42" font-family="Helvetica,sans-Serif" font-size="10.00">FsCache::isCached</text>
</a>
</g>
</g>
<!-- Node3&#45;&gt;Node4 -->
<g id="edge3_Node000003_Node000004" class="edge">
<title>Node3&#45;&gt;Node4</title>
<g id="a_edge3_Node000003_Node000004"><a xlink:title=" ">
<path fill="none" stroke="#63b8ff" d="M507.24,-277.47C521.81,-277.8 537.12,-278.15 551.48,-278.48"/>
<polygon fill="#63b8ff" stroke="#63b8ff" points="551.67,-281.98 561.75,-278.71 551.83,-274.98 551.67,-281.98"/>
</a>
</g>
</g>
<!-- Node5 -->
<g id="Node000005" class="node">
<title>Node5</title>
<g id="a_Node000005"><a xlink:href="../../dd/db1/classFsCache.xhtml#a5b90e145400de8687d9f34536b134130" target="_top" xlink:title=" ">
<polygon fill="white" stroke="#666666" points="854.5,-341.42 760.5,-341.42 760.5,-322.42 854.5,-322.42 854.5,-341.42"/>
<text text-anchor="middle" x="807.5" y="-329.42" font-family="Helvetica,sans-Serif" font-size="10.00">FsCache::sector</text>
</a>
</g>
</g>
<!-- Node3&#45;&gt;Node5 -->
<g id="edge44_Node000003_Node000005" class="edge">
<title>Node3&#45;&gt;Node5</title>
<g id="a_edge44_Node000003_Node000005"><a xlink:title=" ">
<path fill="none" stroke="#63b8ff" d="M478.03,-285.52C497.51,-290.02 521.4,-295.19 543,-298.92 614.07,-311.16 696.66,-320.76 750.17,-326.38"/>
<polygon fill="#63b8ff" stroke="#63b8ff" points="749.83,-329.86 760.14,-327.42 750.55,-322.9 749.83,-329.86"/>
</a>
</g>
</g>
<!-- Node6 -->
<g id="Node000006" class="node">
<title>Node6</title>
<g id="a_Node000006"><a xlink:href="../../d8/d7f/classSharedSpiCard.xhtml#a61d86f4092f8ddbc7339d7cbcf6f70c0" target="_top" xlink:title=" ">
<polygon fill="white" stroke="#666666" points="689,-228.42 543,-228.42 543,-209.42 689,-209.42 689,-228.42"/>
<text text-anchor="middle" x="616" y="-216.42" font-family="Helvetica,sans-Serif" font-size="10.00">SharedSpiCard::readSector</text>
</a>
</g>
</g>
<!-- Node3&#45;&gt;Node6 -->
<g id="edge5_Node000003_Node000006" class="edge">
<title>Node3&#45;&gt;Node6</title>
<g id="a_edge5_Node000003_Node000006"><a xlink:title=" ">
<path fill="none" stroke="#63b8ff" d="M468.04,-266.38C497.57,-256.84 543.14,-242.12 575.71,-231.61"/>
<polygon fill="#63b8ff" stroke="#63b8ff" points="576.92,-234.89 585.36,-228.49 574.77,-228.23 576.92,-234.89"/>
</a>
</g>
</g>
<!-- Node4&#45;&gt;Node5 -->
<g id="edge4_Node000004_Node000005" class="edge">
<title>Node4&#45;&gt;Node5</title>
<g id="a_edge4_Node000004_Node000005"><a xlink:title=" ">
<path fill="none" stroke="#63b8ff" d="M645.22,-289.55C666.9,-296.76 697.65,-306.61 725,-313.92 733.15,-316.09 741.81,-318.21 750.32,-320.19"/>
<polygon fill="#63b8ff" stroke="#63b8ff" points="749.68,-323.63 760.21,-322.43 751.23,-316.8 749.68,-323.63"/>
</a>
</g>
</g>
<!-- Node7 -->
<g id="Node000007" class="node">
<title>Node7</title>
<g id="a_Node000007"><a xlink:href="../../d8/d7f/classSharedSpiCard.xhtml#adda33199753fc2aec74fe317cbaabc06" target="_top" xlink:title=" ">
<polygon fill="white" stroke="#666666" points="890,-304.42 725,-304.42 725,-285.42 890,-285.42 890,-304.42"/>
<text text-anchor="middle" x="807.5" y="-292.42" font-family="Helvetica,sans-Serif" font-size="10.00">SharedSpiCard::cardCommand</text>
</a>
</g>
</g>
<!-- Node6&#45;&gt;Node7 -->
<g id="edge6_Node000006_Node000007" class="edge">
<title>Node6&#45;&gt;Node7</title>
<g id="a_edge6_Node000006_Node000007"><a xlink:title=" ">
<path fill="none" stroke="#63b8ff" d="M641,-228.54C674.46,-241.96 735.27,-266.35 773.13,-281.53"/>
<polygon fill="#63b8ff" stroke="#63b8ff" points="772.11,-284.9 782.69,-285.37 774.72,-278.4 772.11,-284.9"/>
</a>
</g>
</g>
<!-- Node21 -->
<g id="Node000021" class="node">
<title>Node21</title>
<g id="a_Node000021"><a xlink:href="../../d8/d7f/classSharedSpiCard.xhtml#a747c3f0b962098cf0c097f3c4c2b4fd4" target="_top" xlink:title=" ">
<polygon fill="white" stroke="#666666" points="1419.5,-229.42 1302.5,-229.42 1302.5,-210.42 1419.5,-210.42 1419.5,-229.42"/>
<text text-anchor="middle" x="1361" y="-217.42" font-family="Helvetica,sans-Serif" font-size="10.00">SharedSpiCard::error</text>
</a>
</g>
</g>
<!-- Node6&#45;&gt;Node21 -->
<g id="edge39_Node000006_Node000021" class="edge">
<title>Node6&#45;&gt;Node21</title>
<g id="a_edge39_Node000006_Node000021"><a xlink:title=" ">
<path fill="none" stroke="#63b8ff" d="M679.69,-209.4C694.51,-207.54 710.28,-205.87 725,-204.92 958.74,-189.83 1018.34,-188.77 1252,-204.92 1265.09,-205.82 1279.01,-207.34 1292.36,-209.06"/>
<polygon fill="#63b8ff" stroke="#63b8ff" points="1292.04,-212.55 1302.42,-210.42 1292.98,-205.62 1292.04,-212.55"/>
</a>
</g>
</g>
<!-- Node22 -->
<g id="Node000022" class="node">
<title>Node22</title>
<g id="a_Node000022"><a xlink:href="../../d8/d7f/classSharedSpiCard.xhtml#a0f511c39c50055a4fc97e720933aee3a" target="_top" xlink:title=" ">
<polygon fill="white" stroke="#666666" points="1426,-266.42 1296,-266.42 1296,-247.42 1426,-247.42 1426,-266.42"/>
<text text-anchor="middle" x="1361" y="-254.42" font-family="Helvetica,sans-Serif" font-size="10.00">SharedSpiCard::spiStop</text>
</a>
</g>
</g>
<!-- Node6&#45;&gt;Node22 -->
<g id="edge42_Node000006_Node000022" class="edge">
<title>Node6&#45;&gt;Node22</title>
<g id="a_edge42_Node000006_Node000022"><a xlink:title=" ">
<path fill="none" stroke="#63b8ff" d="M689.1,-218.06C807.09,-217.36 1048.66,-218.86 1252,-238.92 1267.98,-240.49 1285.18,-242.99 1301.05,-245.63"/>
<polygon fill="#63b8ff" stroke="#63b8ff" points="1300.81,-249.14 1311.26,-247.37 1301.99,-242.24 1300.81,-249.14"/>
</a>
</g>
</g>
<!-- Node31 -->
<g id="Node000031" class="node">
<title>Node31</title>
<g id="a_Node000031"><a xlink:href="../../d8/d7f/classSharedSpiCard.xhtml#abeae3cdc162f24c2d450abe4e1ed8340" target="_top" xlink:title=" ">
<polygon fill="white" stroke="#666666" points="877,-134.42 738,-134.42 738,-115.42 877,-115.42 877,-134.42"/>
<text text-anchor="middle" x="807.5" y="-122.42" font-family="Helvetica,sans-Serif" font-size="10.00">SharedSpiCard::readData</text>
</a>
</g>
</g>
<!-- Node6&#45;&gt;Node31 -->
<g id="edge40_Node000006_Node000031" class="edge">
<title>Node6&#45;&gt;Node31</title>
<g id="a_edge40_Node000006_Node000031"><a xlink:title=" ">
<path fill="none" stroke="#63b8ff" d="M668.96,-209.35C675.92,-207.09 682.78,-204.32 689,-200.92 708.3,-190.35 707.04,-179.64 725,-166.92 740.38,-156.02 758.97,-146.22 774.51,-138.83"/>
<polygon fill="#63b8ff" stroke="#63b8ff" points="776.14,-141.93 783.74,-134.55 773.19,-135.58 776.14,-141.93"/>
</a>
</g>
</g>
<!-- Node32 -->
<g id="Node000032" class="node">
<title>Node32</title>
<g id="a_Node000032"><a xlink:href="../../d8/d7f/classSharedSpiCard.xhtml#a7dac2190763d7b4b72163ed7131e8a87" target="_top" xlink:title=" ">
<polygon fill="white" stroke="#666666" points="865.5,-97.42 749.5,-97.42 749.5,-78.42 865.5,-78.42 865.5,-97.42"/>
<text text-anchor="middle" x="807.5" y="-85.42" font-family="Helvetica,sans-Serif" font-size="10.00">SharedSpiCard::type</text>
</a>
</g>
</g>
<!-- Node6&#45;&gt;Node32 -->
<g id="edge43_Node000006_Node000032" class="edge">
<title>Node6&#45;&gt;Node32</title>
<g id="a_edge43_Node000006_Node000032"><a xlink:title=" ">
<path fill="none" stroke="#63b8ff" d="M676.05,-209.41C680.74,-207.14 685.15,-204.34 689,-200.92 722.74,-170.91 690.85,-135.45 725,-105.92 729.32,-102.18 734.23,-99.17 739.46,-96.75"/>
<polygon fill="#63b8ff" stroke="#63b8ff" points="741.09,-99.88 749.15,-93 738.56,-93.35 741.09,-99.88"/>
</a>
</g>
</g>
<!-- Node8 -->
<g id="Node000008" class="node">
<title>Node8</title>
<g id="a_Node000008"><a xlink:href="../../d8/d7f/classSharedSpiCard.xhtml#a08363209d938db87521cca6a84146041" target="_top" xlink:title=" ">
<polygon fill="white" stroke="#666666" points="1624,-456.42 1477,-456.42 1477,-437.42 1624,-437.42 1624,-456.42"/>
<text text-anchor="middle" x="1550.5" y="-444.42" font-family="Helvetica,sans-Serif" font-size="10.00">SharedSpiCard::spiReceive</text>
</a>
</g>
</g>
<!-- Node7&#45;&gt;Node8 -->
<g id="edge7_Node000007_Node000008" class="edge">
<title>Node7&#45;&gt;Node8</title>
<g id="a_edge7_Node000007_Node000008"><a xlink:title=" ">
<path fill="none" stroke="#63b8ff" d="M875.28,-304.53C880.61,-307.02 885.61,-310.11 890,-313.92 923.46,-342.98 890.76,-380.04 926,-406.92 1102.46,-541.52 1395.15,-486.51 1505.55,-459"/>
<polygon fill="#63b8ff" stroke="#63b8ff" points="1506.51,-462.37 1515.34,-456.51 1504.79,-455.58 1506.51,-462.37"/>
</a>
</g>
</g>
<!-- Node10 -->
<g id="Node000010" class="node">
<title>Node10</title>
<g id="a_Node000010"><a xlink:href="../../d8/d7f/classSharedSpiCard.xhtml#ab311b9ad8a250f06afbe091f7abb118b" target="_top" xlink:title=" ">
<polygon fill="white" stroke="#666666" points="1616.5,-306.42 1484.5,-306.42 1484.5,-287.42 1616.5,-287.42 1616.5,-306.42"/>
<text text-anchor="middle" x="1550.5" y="-294.42" font-family="Helvetica,sans-Serif" font-size="10.00">SharedSpiCard::spiSend</text>
</a>
</g>
</g>
<!-- Node7&#45;&gt;Node10 -->
<g id="edge9_Node000007_Node000010" class="edge">
<title>Node7&#45;&gt;Node10</title>
<g id="a_edge9_Node000007_Node000010"><a xlink:title=" ">
<path fill="none" stroke="#63b8ff" d="M856.31,-304.43C877.56,-308.2 902.93,-312.06 926,-313.92 1151.06,-332 1208.7,-323.69 1434,-308.92 1446.98,-308.06 1460.76,-306.88 1474.11,-305.58"/>
<polygon fill="#63b8ff" stroke="#63b8ff" points="1474.61,-309.05 1484.22,-304.57 1473.92,-302.09 1474.61,-309.05"/>
</a>
</g>
</g>
<!-- Node12 -->
<g id="Node000012" class="node">
<title>Node12</title>
<g id="a_Node000012"><a xlink:href="../../d8/d7f/classSharedSpiCard.xhtml#aef2dfa72e8d5643c90720f9f8c6a4254" target="_top" xlink:title=" ">
<polygon fill="white" stroke="#666666" points="1426.5,-380.42 1295.5,-380.42 1295.5,-361.42 1426.5,-361.42 1426.5,-380.42"/>
<text text-anchor="middle" x="1361" y="-368.42" font-family="Helvetica,sans-Serif" font-size="10.00">SharedSpiCard::spiStart</text>
</a>
</g>
</g>
<!-- Node7&#45;&gt;Node12 -->
<g id="edge11_Node000007_Node000012" class="edge">
<title>Node7&#45;&gt;Node12</title>
<g id="a_edge11_Node000007_Node000012"><a xlink:title=" ">
<path fill="none" stroke="#63b8ff" d="M866.4,-304.5C874.57,-306.97 882.68,-310.05 890,-313.92 909.2,-324.05 906,-338.49 926,-346.92 1043.86,-396.55 1195.87,-390.99 1285.16,-381.56"/>
<polygon fill="#63b8ff" stroke="#63b8ff" points="1285.64,-385.03 1295.2,-380.45 1284.88,-378.07 1285.64,-385.03"/>
</a>
</g>
</g>
<!-- Node19 -->
<g id="Node000019" class="node">
<title>Node19</title>
<g id="a_Node000019"><a xlink:href="../../d8/d7f/classSharedSpiCard.xhtml#a2f181b3d6f27413a0f5ee883dfd94d87" target="_top" xlink:title=" ">
<polygon fill="white" stroke="#666666" points="1076,-304.42 926,-304.42 926,-285.42 1076,-285.42 1076,-304.42"/>
<text text-anchor="middle" x="1001" y="-292.42" font-family="Helvetica,sans-Serif" font-size="10.00">SharedSpiCard::syncDevice</text>
</a>
</g>
</g>
<!-- Node7&#45;&gt;Node19 -->
<g id="edge19_Node000007_Node000019" class="edge">
<title>Node7&#45;&gt;Node19</title>
<g id="a_edge19_Node000007_Node000019"><a xlink:title=" ">
<path fill="none" stroke="#63b8ff" d="M890.27,-294.92C898.65,-294.92 907.18,-294.92 915.59,-294.92"/>
<polygon fill="#63b8ff" stroke="#63b8ff" points="915.78,-298.42 925.78,-294.92 915.78,-291.42 915.78,-298.42"/>
</a>
</g>
</g>
<!-- Node27 -->
<g id="Node000027" class="node">
<title>Node27</title>
<g id="a_Node000027"><a xlink:href="../../d8/d7f/classSharedSpiCard.xhtml#ab3468397bb3b12d29dd2f31e45b3dcaf" target="_top" xlink:title=" ">
<polygon fill="white" stroke="#666666" points="1434,-418.42 1288,-418.42 1288,-399.42 1434,-399.42 1434,-418.42"/>
<text text-anchor="middle" x="1361" y="-406.42" font-family="Helvetica,sans-Serif" font-size="10.00">SharedSpiCard::waitReady</text>
</a>
</g>
</g>
<!-- Node7&#45;&gt;Node27 -->
<g id="edge38_Node000007_Node000027" class="edge">
<title>Node7&#45;&gt;Node27</title>
<g id="a_edge38_Node000007_Node000027"><a xlink:title=" ">
<path fill="none" stroke="#63b8ff" d="M873.08,-304.53C879.12,-307 884.89,-310.08 890,-313.92 916.1,-333.5 898.61,-360.17 926,-377.92 982.18,-414.31 1168.56,-415.17 1277.95,-412.25"/>
<polygon fill="#63b8ff" stroke="#63b8ff" points="1278.07,-415.75 1287.97,-411.97 1277.87,-408.76 1278.07,-415.75"/>
</a>
</g>
</g>
<!-- Node9 -->
<g id="Node000009" class="node">
<title>Node9</title>
<g id="a_Node000009"><a xlink:href="../../d0/d25/classSdSpiArduinoDriver.xhtml#a8d6bc852a52e9d69c4b1e48ee062e8d1" target="_top" xlink:title=" ">
<polygon fill="white" stroke="#666666" points="1778,-466.92 1667,-466.92 1667,-436.92 1778,-436.92 1778,-466.92"/>
<text text-anchor="start" x="1675" y="-454.92" font-family="Helvetica,sans-Serif" font-size="10.00">SdSpiArduinoDriver</text>
<text text-anchor="middle" x="1722.5" y="-443.92" font-family="Helvetica,sans-Serif" font-size="10.00">::receive</text>
</a>
</g>
</g>
<!-- Node8&#45;&gt;Node9 -->
<g id="edge8_Node000008_Node000009" class="edge">
<title>Node8&#45;&gt;Node9</title>
<g id="a_edge8_Node000008_Node000009"><a xlink:title=" ">
<path fill="none" stroke="#63b8ff" d="M1624.09,-449.05C1634.96,-449.37 1646.11,-449.7 1656.81,-450.01"/>
<polygon fill="#63b8ff" stroke="#63b8ff" points="1656.8,-453.52 1666.9,-450.31 1657.01,-446.52 1656.8,-453.52"/>
</a>
</g>
</g>
<!-- Node11 -->
<g id="Node000011" class="node">
<title>Node11</title>
<g id="a_Node000011"><a xlink:href="../../d0/d25/classSdSpiArduinoDriver.xhtml#a3c4842e47f98fe5d3799cd6028778ab5" target="_top" xlink:title=" ">
<polygon fill="white" stroke="#666666" points="1778,-318.92 1667,-318.92 1667,-288.92 1778,-288.92 1778,-318.92"/>
<text text-anchor="start" x="1675" y="-306.92" font-family="Helvetica,sans-Serif" font-size="10.00">SdSpiArduinoDriver</text>
<text text-anchor="middle" x="1722.5" y="-295.92" font-family="Helvetica,sans-Serif" font-size="10.00">::send</text>
</a>
</g>
</g>
<!-- Node10&#45;&gt;Node11 -->
<g id="edge10_Node000010_Node000011" class="edge">
<title>Node10&#45;&gt;Node11</title>
<g id="a_edge10_Node000010_Node000011"><a xlink:title=" ">
<path fill="none" stroke="#63b8ff" d="M1616.74,-299.6C1629.82,-300.14 1643.56,-300.71 1656.62,-301.25"/>
<polygon fill="#63b8ff" stroke="#63b8ff" points="1656.79,-304.76 1666.93,-301.67 1657.08,-297.76 1656.79,-304.76"/>
</a>
</g>
</g>
<!-- Node12&#45;&gt;Node10 -->
<g id="edge18_Node000012_Node000010" class="edge">
<title>Node12&#45;&gt;Node10</title>
<g id="a_edge18_Node000012_Node000010"><a xlink:title=" ">
<path fill="none" stroke="#63b8ff" d="M1399.81,-361.36C1411.19,-357.68 1423.46,-352.9 1434,-346.92 1452.36,-336.49 1451.2,-325.53 1470,-315.92 1474.62,-313.55 1479.54,-311.48 1484.58,-309.66"/>
<polygon fill="#63b8ff" stroke="#63b8ff" points="1485.97,-312.89 1494.38,-306.46 1483.79,-306.23 1485.97,-312.89"/>
</a>
</g>
</g>
<!-- Node13 -->
<g id="Node000013" class="node">
<title>Node13</title>
<g id="a_Node000013"><a xlink:href="../../d8/d7f/classSharedSpiCard.xhtml#a69ee2fe49dfaeea2347d8a265806d2b6" target="_top" xlink:title=" ">
<polygon fill="white" stroke="#666666" points="1625,-380.42 1476,-380.42 1476,-361.42 1625,-361.42 1625,-380.42"/>
<text text-anchor="middle" x="1550.5" y="-368.42" font-family="Helvetica,sans-Serif" font-size="10.00">SharedSpiCard::spiActivate</text>
</a>
</g>
</g>
<!-- Node12&#45;&gt;Node13 -->
<g id="edge12_Node000012_Node000013" class="edge">
<title>Node12&#45;&gt;Node13</title>
<g id="a_edge12_Node000012_Node000013"><a xlink:title=" ">
<path fill="none" stroke="#63b8ff" d="M1426.53,-370.92C1439.19,-370.92 1452.64,-370.92 1465.82,-370.92"/>
<polygon fill="#63b8ff" stroke="#63b8ff" points="1465.84,-374.42 1475.84,-370.92 1465.84,-367.42 1465.84,-374.42"/>
</a>
</g>
</g>
<!-- Node15 -->
<g id="Node000015" class="node">
<title>Node15</title>
<g id="a_Node000015"><a xlink:href="../../d8/d7f/classSharedSpiCard.xhtml#a8c3088599862ff6e84ae79bfdf32aea8" target="_top" xlink:title=" ">
<polygon fill="white" stroke="#666666" points="1619.5,-343.42 1481.5,-343.42 1481.5,-324.42 1619.5,-324.42 1619.5,-343.42"/>
<text text-anchor="middle" x="1550.5" y="-331.42" font-family="Helvetica,sans-Serif" font-size="10.00">SharedSpiCard::spiSelect</text>
</a>
</g>
</g>
<!-- Node12&#45;&gt;Node15 -->
<g id="edge14_Node000012_Node000015" class="edge">
<title>Node12&#45;&gt;Node15</title>
<g id="a_edge14_Node000012_Node000015"><a xlink:title=" ">
<path fill="none" stroke="#63b8ff" d="M1410.29,-361.39C1434.9,-356.53 1465.04,-350.58 1490.97,-345.47"/>
<polygon fill="#63b8ff" stroke="#63b8ff" points="1491.92,-348.85 1501.05,-343.48 1490.56,-341.98 1491.92,-348.85"/>
</a>
</g>
</g>
<!-- Node14 -->
<g id="Node000014" class="node">
<title>Node14</title>
<g id="a_Node000014"><a xlink:href="../../d0/d25/classSdSpiArduinoDriver.xhtml#abb6b88c5c8b87fc344a69f23f6eab3d9" target="_top" xlink:title=" ">
<polygon fill="white" stroke="#666666" points="1778,-380.92 1667,-380.92 1667,-350.92 1778,-350.92 1778,-380.92"/>
<text text-anchor="start" x="1675" y="-368.92" font-family="Helvetica,sans-Serif" font-size="10.00">SdSpiArduinoDriver</text>
<text text-anchor="middle" x="1722.5" y="-357.92" font-family="Helvetica,sans-Serif" font-size="10.00">::activate</text>
</a>
</g>
</g>
<!-- Node13&#45;&gt;Node14 -->
<g id="edge13_Node000013_Node000014" class="edge">
<title>Node13&#45;&gt;Node14</title>
<g id="a_edge13_Node000013_Node000014"><a xlink:title=" ">
<path fill="none" stroke="#63b8ff" d="M1625.08,-368.75C1635.57,-368.44 1646.31,-368.13 1656.63,-367.82"/>
<polygon fill="#63b8ff" stroke="#63b8ff" points="1656.89,-371.32 1666.78,-367.53 1656.68,-364.32 1656.89,-371.32"/>
</a>
</g>
</g>
<!-- Node16 -->
<g id="Node000016" class="node">
<title>Node16</title>
<g id="a_Node000016"><a xlink:href="../../d2/df0/SdSpiChipSelect_8cpp.xhtml#ac469bbe2d31ffde9b00ffc68258d7428" target="_top" xlink:title=" ">
<polygon fill="white" stroke="#666666" points="1755.5,-270.42 1689.5,-270.42 1689.5,-251.42 1755.5,-251.42 1755.5,-270.42"/>
<text text-anchor="middle" x="1722.5" y="-258.42" font-family="Helvetica,sans-Serif" font-size="10.00">sdCsWrite</text>
</a>
</g>
</g>
<!-- Node15&#45;&gt;Node16 -->
<g id="edge15_Node000015_Node000016" class="edge">
<title>Node15&#45;&gt;Node16</title>
<g id="a_edge15_Node000015_Node000016"><a xlink:title=" ">
<path fill="none" stroke="#63b8ff" d="M1611.05,-324.35C1618,-322.1 1624.8,-319.33 1631,-315.92 1650.81,-304.99 1647.83,-291.94 1667,-279.92 1671.03,-277.39 1675.44,-275.14 1679.96,-273.16"/>
<polygon fill="#63b8ff" stroke="#63b8ff" points="1681.26,-276.41 1689.27,-269.47 1678.68,-269.9 1681.26,-276.41"/>
</a>
</g>
</g>
<!-- Node17 -->
<g id="Node000017" class="node">
<title>Node17</title>
<g id="a_Node000017"><a xlink:href="../../d5/d45/wiring__digital_8c.xhtml#a73b9b61feeaf7d790d107f2954a7fd93" target="_top" xlink:title=" ">
<polygon fill="white" stroke="#666666" points="1888,-270.42 1814,-270.42 1814,-251.42 1888,-251.42 1888,-270.42"/>
<text text-anchor="middle" x="1851" y="-258.42" font-family="Helvetica,sans-Serif" font-size="10.00">digitalWrite</text>
</a>
</g>
</g>
<!-- Node16&#45;&gt;Node17 -->
<g id="edge16_Node000016_Node000017" class="edge">
<title>Node16&#45;&gt;Node17</title>
<g id="a_edge16_Node000016_Node000017"><a xlink:title=" ">
<path fill="none" stroke="#63b8ff" d="M1755.75,-260.92C1770.28,-260.92 1787.71,-260.92 1803.61,-260.92"/>
<polygon fill="#63b8ff" stroke="#63b8ff" points="1803.79,-264.42 1813.79,-260.92 1803.79,-257.42 1803.79,-264.42"/>
</a>
</g>
</g>
<!-- Node18 -->
<g id="Node000018" class="node">
<title>Node18</title>
<g id="a_Node000018"><a xlink:href="../../d5/d45/wiring__digital_8c.xhtml#ae3d0bcbe4eb927ca8f5d5c21b7e4f224" target="_top" xlink:title=" ">
<polygon fill="white" stroke="#666666" points="1999,-270.42 1924,-270.42 1924,-251.42 1999,-251.42 1999,-270.42"/>
<text text-anchor="middle" x="1961.5" y="-258.42" font-family="Helvetica,sans-Serif" font-size="10.00">turnOffPWM</text>
</a>
</g>
</g>
<!-- Node17&#45;&gt;Node18 -->
<g id="edge17_Node000017_Node000018" class="edge">
<title>Node17&#45;&gt;Node18</title>
<g id="a_edge17_Node000017_Node000018"><a xlink:title=" ">
<path fill="none" stroke="#63b8ff" d="M1888.13,-260.92C1896.28,-260.92 1905.05,-260.92 1913.57,-260.92"/>
<polygon fill="#63b8ff" stroke="#63b8ff" points="1913.79,-264.42 1923.79,-260.92 1913.79,-257.42 1913.79,-264.42"/>
</a>
</g>
</g>
<!-- Node20 -->
<g id="Node000020" class="node">
<title>Node20</title>
<g id="a_Node000020"><a xlink:href="../../d8/d7f/classSharedSpiCard.xhtml#ab33ad2aefbb9cff905cad0879dffc78b" target="_top" xlink:title=" ">
<polygon fill="white" stroke="#666666" points="1250.5,-266.42 1113.5,-266.42 1113.5,-247.42 1250.5,-247.42 1250.5,-266.42"/>
<text text-anchor="middle" x="1182" y="-254.42" font-family="Helvetica,sans-Serif" font-size="10.00">SharedSpiCard::readStop</text>
</a>
</g>
</g>
<!-- Node19&#45;&gt;Node20 -->
<g id="edge20_Node000019_Node000020" class="edge">
<title>Node19&#45;&gt;Node20</title>
<g id="a_edge20_Node000019_Node000020"><a xlink:title=" ">
<path fill="none" stroke="#63b8ff" d="M1047.17,-285.33C1071.22,-280.22 1100.97,-273.91 1126.32,-268.52"/>
<polygon fill="#63b8ff" stroke="#63b8ff" points="1127.1,-271.94 1136.16,-266.44 1125.65,-265.09 1127.1,-271.94"/>
</a>
</g>
</g>
<!-- Node26 -->
<g id="Node000026" class="node">
<title>Node26</title>
<g id="a_Node000026"><a xlink:href="../../d8/d7f/classSharedSpiCard.xhtml#ae9a34a573077e43e7c6028a16ae77fb3" target="_top" xlink:title=" ">
<polygon fill="white" stroke="#666666" points="1252,-304.42 1112,-304.42 1112,-285.42 1252,-285.42 1252,-304.42"/>
<text text-anchor="middle" x="1182" y="-292.42" font-family="Helvetica,sans-Serif" font-size="10.00">SharedSpiCard::writeStop</text>
</a>
</g>
</g>
<!-- Node19&#45;&gt;Node26 -->
<g id="edge29_Node000019_Node000026" class="edge">
<title>Node19&#45;&gt;Node26</title>
<g id="a_edge29_Node000019_Node000026"><a xlink:title=" ">
<path fill="none" stroke="#63b8ff" d="M1076.1,-294.92C1084.51,-294.92 1093.11,-294.92 1101.58,-294.92"/>
<polygon fill="#63b8ff" stroke="#63b8ff" points="1101.84,-298.42 1111.84,-294.92 1101.84,-291.42 1101.84,-298.42"/>
</a>
</g>
</g>
<!-- Node20&#45;&gt;Node7 -->
<g id="edge21_Node000020_Node000007" class="edge">
<title>Node20&#45;&gt;Node7</title>
<g id="a_edge21_Node000020_Node000007"><a xlink:title=" ">
<path fill="none" stroke="#63b8ff" d="M1113.49,-260.85C1062.01,-264.18 989.41,-269.58 926,-276.92 909.53,-278.82 891.83,-281.3 875.29,-283.81"/>
<polygon fill="#63b8ff" stroke="#63b8ff" points="874.51,-280.39 865.16,-285.37 875.58,-287.31 874.51,-280.39"/>
</a>
</g>
</g>
<!-- Node20&#45;&gt;Node21 -->
<g id="edge22_Node000020_Node000021" class="edge">
<title>Node20&#45;&gt;Node21</title>
<g id="a_edge22_Node000020_Node000021"><a xlink:title=" ">
<path fill="none" stroke="#63b8ff" d="M1228.58,-247.39C1251.72,-242.55 1280.02,-236.64 1304.42,-231.53"/>
<polygon fill="#63b8ff" stroke="#63b8ff" points="1305.19,-234.95 1314.27,-229.48 1303.76,-228.1 1305.19,-234.95"/>
</a>
</g>
</g>
<!-- Node20&#45;&gt;Node22 -->
<g id="edge23_Node000020_Node000022" class="edge">
<title>Node20&#45;&gt;Node22</title>
<g id="a_edge23_Node000020_Node000022"><a xlink:title=" ">
<path fill="none" stroke="#63b8ff" d="M1250.67,-256.92C1262.15,-256.92 1274.12,-256.92 1285.75,-256.92"/>
<polygon fill="#63b8ff" stroke="#63b8ff" points="1285.86,-260.42 1295.86,-256.92 1285.86,-253.42 1285.86,-260.42"/>
</a>
</g>
</g>
<!-- Node22&#45;&gt;Node10 -->
<g id="edge26_Node000022_Node000010" class="edge">
<title>Node22&#45;&gt;Node10</title>
<g id="a_edge26_Node000022_Node000010"><a xlink:title=" ">
<path fill="none" stroke="#63b8ff" d="M1406.91,-266.5C1433.35,-272.14 1466.98,-279.31 1494.94,-285.28"/>
<polygon fill="#63b8ff" stroke="#63b8ff" points="1494.45,-288.75 1504.96,-287.41 1495.91,-281.9 1494.45,-288.75"/>
</a>
</g>
</g>
<!-- Node23 -->
<g id="Node000023" class="node">
<title>Node23</title>
<g id="a_Node000023"><a xlink:href="../../d8/d7f/classSharedSpiCard.xhtml#ac6acfca5a23337977d2e4436ab8ab39a" target="_top" xlink:title=" ">
<polygon fill="white" stroke="#666666" points="1631,-230.42 1470,-230.42 1470,-211.42 1631,-211.42 1631,-230.42"/>
<text text-anchor="middle" x="1550.5" y="-218.42" font-family="Helvetica,sans-Serif" font-size="10.00">SharedSpiCard::spiDeactivate</text>
</a>
</g>
</g>
<!-- Node22&#45;&gt;Node23 -->
<g id="edge24_Node000022_Node000023" class="edge">
<title>Node22&#45;&gt;Node23</title>
<g id="a_edge24_Node000022_Node000023"><a xlink:title=" ">
<path fill="none" stroke="#63b8ff" d="M1411.75,-247.36C1435.69,-242.77 1464.57,-237.22 1489.69,-232.4"/>
<polygon fill="#63b8ff" stroke="#63b8ff" points="1490.68,-235.77 1499.84,-230.45 1489.36,-228.9 1490.68,-235.77"/>
</a>
</g>
</g>
<!-- Node25 -->
<g id="Node000025" class="node">
<title>Node25</title>
<g id="a_Node000025"><a xlink:href="../../d8/d7f/classSharedSpiCard.xhtml#ad06a3278372300987b97876cf598c114" target="_top" xlink:title=" ">
<polygon fill="white" stroke="#666666" points="1626,-268.42 1475,-268.42 1475,-249.42 1626,-249.42 1626,-268.42"/>
<text text-anchor="middle" x="1550.5" y="-256.42" font-family="Helvetica,sans-Serif" font-size="10.00">SharedSpiCard::spiUnselect</text>
</a>
</g>
</g>
<!-- Node22&#45;&gt;Node25 -->
<g id="edge27_Node000022_Node000025" class="edge">
<title>Node22&#45;&gt;Node25</title>
<g id="a_edge27_Node000022_Node000025"><a xlink:title=" ">
<path fill="none" stroke="#63b8ff" d="M1426,-257.6C1438.39,-257.73 1451.55,-257.87 1464.49,-258.01"/>
<polygon fill="#63b8ff" stroke="#63b8ff" points="1464.76,-261.51 1474.8,-258.12 1464.84,-254.51 1464.76,-261.51"/>
</a>
</g>
</g>
<!-- Node24 -->
<g id="Node000024" class="node">
<title>Node24</title>
<g id="a_Node000024"><a xlink:href="../../d0/d25/classSdSpiArduinoDriver.xhtml#ae88a255f533e3acb41d1221025a69b55" target="_top" xlink:title=" ">
<polygon fill="white" stroke="#666666" points="1778,-232.92 1667,-232.92 1667,-202.92 1778,-202.92 1778,-232.92"/>
<text text-anchor="start" x="1675" y="-220.92" font-family="Helvetica,sans-Serif" font-size="10.00">SdSpiArduinoDriver</text>
<text text-anchor="middle" x="1722.5" y="-209.92" font-family="Helvetica,sans-Serif" font-size="10.00">::deactivate</text>
</a>
</g>
</g>
<!-- Node23&#45;&gt;Node24 -->
<g id="edge25_Node000023_Node000024" class="edge">
<title>Node23&#45;&gt;Node24</title>
<g id="a_edge25_Node000023_Node000024"><a xlink:title=" ">
<path fill="none" stroke="#63b8ff" d="M1631.02,-219.51C1639.63,-219.36 1648.3,-219.21 1656.7,-219.06"/>
<polygon fill="#63b8ff" stroke="#63b8ff" points="1656.84,-222.56 1666.78,-218.88 1656.72,-215.56 1656.84,-222.56"/>
</a>
</g>
</g>
<!-- Node25&#45;&gt;Node16 -->
<g id="edge28_Node000025_Node000016" class="edge">
<title>Node25&#45;&gt;Node16</title>
<g id="a_edge28_Node000025_Node000016"><a xlink:title=" ">
<path fill="none" stroke="#63b8ff" d="M1626.06,-259.79C1644.21,-260.01 1663.01,-260.23 1679.07,-260.42"/>
<polygon fill="#63b8ff" stroke="#63b8ff" points="1679.15,-263.92 1689.19,-260.54 1679.23,-256.92 1679.15,-263.92"/>
</a>
</g>
</g>
<!-- Node26&#45;&gt;Node10 -->
<g id="edge31_Node000026_Node000010" class="edge">
<title>Node26&#45;&gt;Node10</title>
<g id="a_edge31_Node000026_Node000010"><a xlink:title=" ">
<path fill="none" stroke="#63b8ff" d="M1252.37,-295.3C1315.7,-295.64 1409.09,-296.15 1474.22,-296.51"/>
<polygon fill="#63b8ff" stroke="#63b8ff" points="1474.4,-300.01 1484.42,-296.56 1474.44,-293.01 1474.4,-300.01"/>
</a>
</g>
</g>
<!-- Node26&#45;&gt;Node21 -->
<g id="edge30_Node000026_Node000021" class="edge">
<title>Node26&#45;&gt;Node21</title>
<g id="a_edge30_Node000026_Node000021"><a xlink:title=" ">
<path fill="none" stroke="#63b8ff" d="M1230.76,-285.35C1238.14,-282.87 1245.48,-279.77 1252,-275.92 1271.75,-264.24 1268.19,-250.49 1288,-238.92 1291.7,-236.75 1295.66,-234.83 1299.74,-233.12"/>
<polygon fill="#63b8ff" stroke="#63b8ff" points="1301.26,-236.29 1309.41,-229.52 1298.82,-229.73 1301.26,-236.29"/>
</a>
</g>
</g>
<!-- Node26&#45;&gt;Node22 -->
<g id="edge32_Node000026_Node000022" class="edge">
<title>Node26&#45;&gt;Node22</title>
<g id="a_edge32_Node000026_Node000022"><a xlink:title=" ">
<path fill="none" stroke="#63b8ff" d="M1227.66,-285.33C1251.34,-280.25 1280.61,-273.96 1305.6,-268.6"/>
<polygon fill="#63b8ff" stroke="#63b8ff" points="1306.61,-271.96 1315.66,-266.44 1305.14,-265.11 1306.61,-271.96"/>
</a>
</g>
</g>
<!-- Node26&#45;&gt;Node27 -->
<g id="edge33_Node000026_Node000027" class="edge">
<title>Node26&#45;&gt;Node27</title>
<g id="a_edge33_Node000026_Node000027"><a xlink:title=" ">
<path fill="none" stroke="#63b8ff" d="M1190.87,-304.64C1206.99,-323.91 1245.86,-367.07 1288,-389.92 1292.18,-392.18 1296.65,-394.19 1301.24,-395.97"/>
<polygon fill="#63b8ff" stroke="#63b8ff" points="1300.17,-399.3 1310.76,-399.3 1302.48,-392.7 1300.17,-399.3"/>
</a>
</g>
</g>
<!-- Node27&#45;&gt;Node8 -->
<g id="edge34_Node000027_Node000008" class="edge">
<title>Node27&#45;&gt;Node8</title>
<g id="a_edge34_Node000027_Node000008"><a xlink:title=" ">
<path fill="none" stroke="#63b8ff" d="M1409.31,-418.51C1434.61,-423.63 1465.95,-429.98 1492.57,-435.38"/>
<polygon fill="#63b8ff" stroke="#63b8ff" points="1492.03,-438.84 1502.53,-437.4 1493.42,-431.98 1492.03,-438.84"/>
</a>
</g>
</g>
<!-- Node28 -->
<g id="Node000028" class="node">
<title>Node28</title>
<g id="a_Node000028"><a xlink:href="../../db/df4/classTimeout.xhtml#abbabe99f42e52472ddd3a7e9d22dce95" target="_top" xlink:title=" ">
<polygon fill="white" stroke="#666666" points="1605,-418.42 1496,-418.42 1496,-399.42 1605,-399.42 1605,-418.42"/>
<text text-anchor="middle" x="1550.5" y="-406.42" font-family="Helvetica,sans-Serif" font-size="10.00">Timeout::timedOut</text>
</a>
</g>
</g>
<!-- Node27&#45;&gt;Node28 -->
<g id="edge35_Node000027_Node000028" class="edge">
<title>Node27&#45;&gt;Node28</title>
<g id="a_edge35_Node000027_Node000028"><a xlink:title=" ">
<path fill="none" stroke="#63b8ff" d="M1434.22,-408.92C1451.23,-408.92 1469.22,-408.92 1485.82,-408.92"/>
<polygon fill="#63b8ff" stroke="#63b8ff" points="1485.95,-412.42 1495.95,-408.92 1485.95,-405.42 1485.95,-412.42"/>
</a>
</g>
</g>
<!-- Node29 -->
<g id="Node000029" class="node">
<title>Node29</title>
<g id="a_Node000029"><a xlink:href="../../db/df4/classTimeout.xhtml#a9a72ea0591f11452fb15bfaa1ae5108a" target="_top" xlink:title=" ">
<polygon fill="white" stroke="#666666" points="1773.5,-418.42 1671.5,-418.42 1671.5,-399.42 1773.5,-399.42 1773.5,-418.42"/>
<text text-anchor="middle" x="1722.5" y="-406.42" font-family="Helvetica,sans-Serif" font-size="10.00">Timeout::millis16</text>
</a>
</g>
</g>
<!-- Node28&#45;&gt;Node29 -->
<g id="edge36_Node000028_Node000029" class="edge">
<title>Node28&#45;&gt;Node29</title>
<g id="a_edge36_Node000028_Node000029"><a xlink:title=" ">
<path fill="none" stroke="#63b8ff" d="M1605.29,-408.92C1623.02,-408.92 1642.85,-408.92 1661.04,-408.92"/>
<polygon fill="#63b8ff" stroke="#63b8ff" points="1661.24,-412.42 1671.24,-408.92 1661.24,-405.42 1661.24,-412.42"/>
</a>
</g>
</g>
<!-- Node30 -->
<g id="Node000030" class="node">
<title>Node30</title>
<g id="a_Node000030"><a xlink:href="../../d5/df3/wiring_8c.xhtml#a6ff7f2532a22366f0013bc41397129fd" target="_top" xlink:title=" ">
<polygon fill="white" stroke="#666666" points="1873,-418.42 1829,-418.42 1829,-399.42 1873,-399.42 1873,-418.42"/>
<text text-anchor="middle" x="1851" y="-406.42" font-family="Helvetica,sans-Serif" font-size="10.00">millis</text>
</a>
</g>
</g>
<!-- Node29&#45;&gt;Node30 -->
<g id="edge37_Node000029_Node000030" class="edge">
<title>Node29&#45;&gt;Node30</title>
<g id="a_edge37_Node000029_Node000030"><a xlink:title=" ">
<path fill="none" stroke="#63b8ff" d="M1773.86,-408.92C1788.97,-408.92 1805.11,-408.92 1818.62,-408.92"/>
<polygon fill="#63b8ff" stroke="#63b8ff" points="1818.83,-412.42 1828.83,-408.92 1818.83,-405.42 1818.83,-412.42"/>
</a>
</g>
</g>
<!-- Node31&#45;&gt;Node31 -->
<g id="edge41_Node000031_Node000031" class="edge">
<title>Node31&#45;&gt;Node31</title>
<g id="a_edge41_Node000031_Node000031"><a xlink:title=" ">
<path fill="none" stroke="#63b8ff" d="M778.22,-134.5C763.97,-143.15 773.73,-152.42 807.5,-152.42 830.72,-152.42 842.59,-148.04 843.11,-142.49"/>
<polygon fill="#63b8ff" stroke="#63b8ff" points="845.73,-140.17 836.78,-134.5 840.25,-144.51 845.73,-140.17"/>
</a>
</g>
</g>
<!-- Node34 -->
<g id="Node000034" class="node">
<title>Node34</title>
<g id="a_Node000034"><a xlink:href="../../dc/d87/FsStructs_8h.xhtml#a89aef4aa8e8032eab2982d660e7b8a81" target="_top" xlink:title=" ">
<polygon fill="white" stroke="#666666" points="644,-191.42 588,-191.42 588,-172.42 644,-172.42 644,-191.42"/>
<text text-anchor="middle" x="616" y="-179.42" font-family="Helvetica,sans-Serif" font-size="10.00">getLe16</text>
</a>
</g>
</g>
<!-- Node33&#45;&gt;Node34 -->
<g id="edge46_Node000033_Node000034" class="edge">
<title>Node33&#45;&gt;Node34</title>
<g id="a_edge46_Node000033_Node000034"><a xlink:title=" ">
<path fill="none" stroke="#63b8ff" d="M266.62,-135.45C284.64,-152.56 325.52,-187.91 368,-200.92 427.07,-219 445.46,-206.29 507,-200.92 530.69,-198.85 556.97,-194.28 577.68,-190.13"/>
<polygon fill="#63b8ff" stroke="#63b8ff" points="578.56,-193.53 587.65,-188.09 577.15,-186.67 578.56,-193.53"/>
</a>
</g>
</g>
<!-- Node35 -->
<g id="Node000035" class="node">
<title>Node35</title>
<g id="a_Node000035"><a xlink:href="../../dc/d87/FsStructs_8h.xhtml#a07fdcae728ab56cd53f71c6c17b1889c" target="_top" xlink:title=" ">
<polygon fill="white" stroke="#666666" points="465.5,-117.42 409.5,-117.42 409.5,-98.42 465.5,-98.42 465.5,-117.42"/>
<text text-anchor="middle" x="437.5" y="-105.42" font-family="Helvetica,sans-Serif" font-size="10.00">getLe32</text>
</a>
</g>
</g>
<!-- Node33&#45;&gt;Node35 -->
<g id="edge47_Node000033_Node000035" class="edge">
<title>Node33&#45;&gt;Node35</title>
<g id="a_edge47_Node000033_Node000035"><a xlink:title=" ">
<path fill="none" stroke="#63b8ff" d="M290.34,-122.57C321.22,-119.48 367.08,-114.88 399.17,-111.66"/>
<polygon fill="#63b8ff" stroke="#63b8ff" points="399.89,-115.11 409.49,-110.63 399.19,-108.14 399.89,-115.11"/>
</a>
</g>
</g>
<!-- Node36 -->
<g id="Node000036" class="node">
<title>Node36</title>
<g id="a_Node000036"><a xlink:href="../../d4/df1/FatDbg_8cpp.xhtml#a4ad59bb1518c57d77ff6bbdd6ea8643d" target="_top" xlink:title=" ">
<polygon fill="white" stroke="#666666" points="472.5,-191.42 402.5,-191.42 402.5,-172.42 472.5,-172.42 472.5,-191.42"/>
<text text-anchor="middle" x="437.5" y="-179.42" font-family="Helvetica,sans-Serif" font-size="10.00">getLfnChar</text>
</a>
</g>
</g>
<!-- Node33&#45;&gt;Node36 -->
<g id="edge48_Node000033_Node000036" class="edge">
<title>Node33&#45;&gt;Node36</title>
<g id="a_edge48_Node000033_Node000036"><a xlink:title=" ">
<path fill="none" stroke="#63b8ff" d="M283.29,-135.52C305.67,-143.55 338.75,-155.08 368,-163.92 375.87,-166.29 384.29,-168.66 392.45,-170.85"/>
<polygon fill="#63b8ff" stroke="#63b8ff" points="391.65,-174.26 402.22,-173.43 393.44,-167.49 391.65,-174.26"/>
</a>
</g>
</g>
<!-- Node37 -->
<g id="Node000037" class="node">
<title>Node37</title>
<g id="a_Node000037"><a xlink:href="../../dc/d87/FsStructs_8h.xhtml#acb5454c54e7ad17ea6a3c05c8d22b239" target="_top" xlink:title=" ">
<polygon fill="white" stroke="#666666" points="486.5,-80.42 388.5,-80.42 388.5,-61.42 486.5,-61.42 486.5,-80.42"/>
<text text-anchor="middle" x="437.5" y="-68.42" font-family="Helvetica,sans-Serif" font-size="10.00">isFatFileOrSubdir</text>
</a>
</g>
</g>
<!-- Node33&#45;&gt;Node37 -->
<g id="edge50_Node000033_Node000037" class="edge">
<title>Node33&#45;&gt;Node37</title>
<g id="a_edge50_Node000033_Node000037"><a xlink:title=" ">
<path fill="none" stroke="#63b8ff" d="M284.21,-116.3C306.59,-108.52 339.19,-97.49 368,-88.92 374.57,-86.96 381.53,-85 388.4,-83.14"/>
<polygon fill="#63b8ff" stroke="#63b8ff" points="389.58,-86.44 398.33,-80.48 387.77,-79.68 389.58,-86.44"/>
</a>
</g>
</g>
<!-- Node38 -->
<g id="Node000038" class="node">
<title>Node38</title>
<g id="a_Node000038"><a xlink:href="../../dc/d87/FsStructs_8h.xhtml#a1a56b6db9bae9ec25f0a0d433534b67f" target="_top" xlink:title=" ">
<polygon fill="white" stroke="#666666" points="483.5,-43.42 391.5,-43.42 391.5,-24.42 483.5,-24.42 483.5,-43.42"/>
<text text-anchor="middle" x="437.5" y="-31.42" font-family="Helvetica,sans-Serif" font-size="10.00">isFatLongName</text>
</a>
</g>
</g>
<!-- Node33&#45;&gt;Node38 -->
<g id="edge51_Node000033_Node000038" class="edge">
<title>Node33&#45;&gt;Node38</title>
<g id="a_edge51_Node000033_Node000038"><a xlink:title=" ">
<path fill="none" stroke="#63b8ff" d="M268.55,-116.31C287.92,-100.64 328.71,-69.58 368,-51.92 372.39,-49.94 377.05,-48.15 381.78,-46.53"/>
<polygon fill="#63b8ff" stroke="#63b8ff" points="383.06,-49.79 391.54,-43.45 380.95,-43.12 383.06,-49.79"/>
</a>
</g>
</g>
<!-- Node39 -->
<g id="Node000039" class="node">
<title>Node39</title>
<g id="a_Node000039"><a xlink:href="../../d4/df1/FatDbg_8cpp.xhtml#a55d1092a0a775f867ae2addf15861c3a" target="_top" xlink:title=" ">
<polygon fill="white" stroke="#666666" points="645.5,-80.42 586.5,-80.42 586.5,-61.42 645.5,-61.42 645.5,-80.42"/>
<text text-anchor="middle" x="616" y="-68.42" font-family="Helvetica,sans-Serif" font-size="10.00">printHex</text>
</a>
</g>
</g>
<!-- Node33&#45;&gt;Node39 -->
<g id="edge52_Node000033_Node000039" class="edge">
<title>Node33&#45;&gt;Node39</title>
<g id="a_edge52_Node000033_Node000039"><a xlink:title=" ">
<path fill="none" stroke="#63b8ff" d="M262.73,-116.34C277.04,-93.48 316.89,-36.09 368,-14.92 425.08,8.72 446.98,-0.28 507,-14.92 539,-22.72 572.08,-41.79 593.06,-55.51"/>
<polygon fill="#63b8ff" stroke="#63b8ff" points="591.28,-58.53 601.53,-61.2 595.18,-52.72 591.28,-58.53"/>
</a>
</g>
</g>
<!-- Node40 -->
<g id="Node000040" class="node">
<title>Node40</title>
<g id="a_Node000040"><a xlink:href="../../d4/df1/FatDbg_8cpp.xhtml#a9064f68619cf8150e1393b334ca86316" target="_top" xlink:title=" ">
<polygon fill="white" stroke="#666666" points="472.5,-154.42 402.5,-154.42 402.5,-135.42 472.5,-135.42 472.5,-154.42"/>
<text text-anchor="middle" x="437.5" y="-142.42" font-family="Helvetica,sans-Serif" font-size="10.00">printHexLn</text>
</a>
</g>
</g>
<!-- Node33&#45;&gt;Node40 -->
<g id="edge53_Node000033_Node000040" class="edge">
<title>Node33&#45;&gt;Node40</title>
<g id="a_edge53_Node000033_Node000040"><a xlink:title=" ">
<path fill="none" stroke="#63b8ff" d="M290.34,-129.45C319.04,-132.48 360.66,-136.89 392.16,-140.22"/>
<polygon fill="#63b8ff" stroke="#63b8ff" points="392.11,-143.74 402.42,-141.31 392.85,-136.78 392.11,-143.74"/>
</a>
</g>
</g>
<!-- Node36&#45;&gt;Node34 -->
<g id="edge49_Node000036_Node000034" class="edge">
<title>Node36&#45;&gt;Node34</title>
<g id="a_edge49_Node000036_Node000034"><a xlink:title=" ">
<path fill="none" stroke="#63b8ff" d="M472.53,-181.92C502.68,-181.92 546.62,-181.92 577.71,-181.92"/>
<polygon fill="#63b8ff" stroke="#63b8ff" points="577.72,-185.42 587.72,-181.92 577.72,-178.42 577.72,-185.42"/>
</a>
</g>
</g>
<!-- Node40&#45;&gt;Node39 -->
<g id="edge54_Node000040_Node000039" class="edge">
<title>Node40&#45;&gt;Node39</title>
<g id="a_edge54_Node000040_Node000039"><a xlink:title=" ">
<path fill="none" stroke="#63b8ff" d="M472.77,-137.5C483.86,-134.68 496.1,-131.12 507,-126.92 536.7,-115.48 568.86,-98.1 590.29,-85.74"/>
<polygon fill="#63b8ff" stroke="#63b8ff" points="592.19,-88.68 599.06,-80.62 588.66,-82.64 592.19,-88.68"/>
</a>
</g>
</g>
</g>
</svg>
