<?xml version="1.0" encoding="UTF-8" standalone="no"?>
<!DOCTYPE svg PUBLIC "-//W3C//DTD SVG 1.1//EN"
 "http://www.w3.org/Graphics/SVG/1.1/DTD/svg11.dtd">
<!-- Generated by graphviz version 2.43.0 (0)
 -->
<!-- Title: FatPartition::sectorsPerCluster Pages: 1 -->
<!--zoomable 289 -->

<svg id="main" version="1.1" xmlns="http://www.w3.org/2000/svg" xmlns:xlink="http://www.w3.org/1999/xlink" xml:space="preserve" onload="init(evt)">
<style type="text/css"><![CDATA[
.node, .edge {opacity: 0.7;}
.node.selected, .edge.selected {opacity: 1;}
.edge:hover path { stroke: red; }
.edge:hover polygon { stroke: red; fill: red; }
]]></style>

<defs>
  <circle id="rim" cx="0" cy="0" r="7"/>
  <circle id="rim2" cx="0" cy="0" r="3.5"/>
  <g id="zoomPlus">
    <use xlink:href="#rim" fill="#404040"><set attributeName="fill" to="#808080" begin="zoomplus.mouseover" end="zoomplus.mouseout"/></use>
    <path d="M-4,0h8M0,-4v8" fill="none" stroke="white" stroke-width="1.5" pointer-events="none"/>
  </g>
  <g id="zoomMin">
    <use xlink:href="#rim" fill="#404040"><set attributeName="fill" to="#808080" begin="zoomminus.mouseover" end="zoomminus.mouseout"/></use>
    <path d="M-4,0h8" fill="none" stroke="white" stroke-width="1.5" pointer-events="none"/>
  </g>
  <g id="arrowUp" transform="translate(30 24)">
    <use xlink:href="#rim"/>
    <path pointer-events="none" fill="none" stroke="white" stroke-width="1.5" d="M0,-3.0v7 M-2.5,-0.5L0,-3.0L2.5,-0.5"/>
  </g>
  <g id="arrowRight" transform="rotate(90) translate(36 -43)">
    <use xlink:href="#rim"/>
    <path pointer-events="none" fill="none" stroke="white" stroke-width="1.5" d="M0,-3.0v7 M-2.5,-0.5L0,-3.0L2.5,-0.5"/>
  </g>
  <g id="arrowDown" transform="rotate(180) translate(-30 -48)">
    <use xlink:href="#rim"/>
    <path pointer-events="none" fill="none" stroke="white" stroke-width="1.5" d="M0,-3.0v7 M-2.5,-0.5L0,-3.0L2.5,-0.5"/>
  </g>
  <g id="arrowLeft" transform="rotate(270) translate(-36 17)">
    <use xlink:href="#rim"/>
    <path pointer-events="none" fill="none" stroke="white" stroke-width="1.5" d="M0,-3.0v7 M-2.5,-0.5L0,-3.0L2.5,-0.5"/>
  </g>
  <g id="resetDef">
    <use xlink:href="#rim2" fill="#404040"><set attributeName="fill" to="#808080" begin="reset.mouseover" end="reset.mouseout"/></use>
  </g>
</defs>
<script type="application/ecmascript">
var viewWidth = 512;
var viewHeight = 289;
var sectionId = 'dynsection-0';
</script>
<script type="application/ecmascript" xlink:href="../../svg.min.js"/>
<svg id="graph" class="graph">
<g id="viewport">
<title>FatPartition::sectorsPerCluster</title>
<!-- Node1 -->
<g id="Node000001" class="node">
<title>Node1</title>
<g id="a_Node000001"><a xlink:title=" ">
<polygon fill="#999999" stroke="#666666" points="504,-128.5 376,-128.5 376,-98.5 504,-98.5 504,-128.5"/>
<text text-anchor="start" x="384" y="-116.5" font-family="Helvetica,sans-Serif" font-size="10.00">FatPartition::sectorsPer</text>
<text text-anchor="middle" x="440" y="-105.5" font-family="Helvetica,sans-Serif" font-size="10.00">Cluster</text>
</a>
</g>
</g>
<!-- Node2 -->
<g id="Node000002" class="node">
<title>Node2</title>
<g id="a_Node000002"><a xlink:href="../../d3/db4/classFatFile_aa65510f81a364343bb7b21f86b5a35b5.xhtml#aa65510f81a364343bb7b21f86b5a35b5" target="_top" xlink:title=" ">
<polygon fill="white" stroke="#666666" points="328,-234 207,-234 207,-215 328,-215 328,-234"/>
<text text-anchor="middle" x="267.5" y="-222" font-family="Helvetica,sans-Serif" font-size="10.00">FatFile::addDirCluster</text>
</a>
</g>
</g>
<!-- Node1&#45;&gt;Node2 -->
<g id="edge1_Node000001_Node000002" class="edge">
<title>Node1&#45;&gt;Node2</title>
<g id="a_edge1_Node000001_Node000002"><a xlink:title=" ">
<path fill="none" stroke="#63b8ff" d="M412.85,-134.91C393.36,-150.4 365.78,-171.35 340,-187.5 323.42,-197.89 303.59,-207.98 289.02,-214.99"/>
<polygon fill="#63b8ff" stroke="#63b8ff" points="415.06,-137.62 420.67,-128.64 410.68,-132.16 415.06,-137.62"/>
</a>
</g>
</g>
<!-- Node6 -->
<g id="Node000006" class="node">
<title>Node6</title>
<g id="a_Node000006"><a xlink:href="../../d3/db4/classFatFile_a12b3c5a763416ca62c70e3db74033cd0.xhtml#a12b3c5a763416ca62c70e3db74033cd0" target="_top" xlink:title=" ">
<polygon fill="white" stroke="#666666" points="336.5,-179 198.5,-179 198.5,-160 336.5,-160 336.5,-179"/>
<text text-anchor="middle" x="267.5" y="-167" font-family="Helvetica,sans-Serif" font-size="10.00">FatFile::contiguousRange</text>
</a>
</g>
</g>
<!-- Node1&#45;&gt;Node6 -->
<g id="edge5_Node000001_Node000006" class="edge">
<title>Node1&#45;&gt;Node6</title>
<g id="a_edge5_Node000001_Node000006"><a xlink:title=" ">
<path fill="none" stroke="#63b8ff" d="M391.44,-132.35C375.24,-138.49 356.94,-145.1 340,-150.5 329.48,-153.86 317.95,-157.1 307.29,-159.93"/>
<polygon fill="#63b8ff" stroke="#63b8ff" points="393.13,-135.45 401.22,-128.61 390.63,-128.91 393.13,-135.45"/>
</a>
</g>
</g>
<!-- Node8 -->
<g id="Node000008" class="node">
<title>Node8</title>
<g id="a_Node000008"><a xlink:href="../../d3/db4/classFatFile_ae2ed15f05c9ccbce355e7a8d3ce8382d.xhtml#ae2ed15f05c9ccbce355e7a8d3ce8382d" target="_top" xlink:title=" ">
<polygon fill="white" stroke="#666666" points="311,-142 224,-142 224,-123 311,-123 311,-142"/>
<text text-anchor="middle" x="267.5" y="-130" font-family="Helvetica,sans-Serif" font-size="10.00">FatFile::dirSize</text>
</a>
</g>
</g>
<!-- Node1&#45;&gt;Node8 -->
<g id="edge7_Node000001_Node000008" class="edge">
<title>Node1&#45;&gt;Node8</title>
<g id="a_edge7_Node000001_Node000008"><a xlink:title=" ">
<path fill="none" stroke="#63b8ff" d="M365.99,-121.64C347.25,-123.72 327.7,-125.9 311.07,-127.76"/>
<polygon fill="#63b8ff" stroke="#63b8ff" points="366.45,-125.11 376,-120.52 365.67,-118.15 366.45,-125.11"/>
</a>
</g>
</g>
<!-- Node9 -->
<g id="Node000009" class="node">
<title>Node9</title>
<g id="a_Node000009"><a xlink:href="../../d3/db4/classFatFile_aba893af8107a18017482d2311b066187.xhtml#aba893af8107a18017482d2311b066187" target="_top" xlink:title=" ">
<polygon fill="white" stroke="#666666" points="305.5,-105 229.5,-105 229.5,-86 305.5,-86 305.5,-105"/>
<text text-anchor="middle" x="267.5" y="-93" font-family="Helvetica,sans-Serif" font-size="10.00">FatFile::read</text>
</a>
</g>
</g>
<!-- Node1&#45;&gt;Node9 -->
<g id="edge8_Node000001_Node000009" class="edge">
<title>Node1&#45;&gt;Node9</title>
<g id="a_edge8_Node000001_Node000009"><a xlink:title=" ">
<path fill="none" stroke="#63b8ff" d="M365.87,-105.78C345.03,-103.58 323.2,-101.27 305.51,-99.41"/>
<polygon fill="#63b8ff" stroke="#63b8ff" points="365.68,-109.28 376,-106.85 366.42,-102.32 365.68,-109.28"/>
</a>
</g>
</g>
<!-- Node10 -->
<g id="Node000010" class="node">
<title>Node10</title>
<g id="a_Node000010"><a xlink:href="../../d8/d15/classFatPartition_a916ba7d67711bb62daf12ecd47ca4b8e.xhtml#a916ba7d67711bb62daf12ecd47ca4b8e" target="_top" xlink:title=" ">
<polygon fill="white" stroke="#666666" points="340,-67.5 195,-67.5 195,-37.5 340,-37.5 340,-67.5"/>
<text text-anchor="start" x="203" y="-55.5" font-family="Helvetica,sans-Serif" font-size="10.00">FatPartition::volumeSector</text>
<text text-anchor="middle" x="267.5" y="-44.5" font-family="Helvetica,sans-Serif" font-size="10.00">Count</text>
</a>
</g>
</g>
<!-- Node1&#45;&gt;Node10 -->
<g id="edge9_Node000001_Node000010" class="edge">
<title>Node1&#45;&gt;Node10</title>
<g id="a_edge9_Node000001_Node000010"><a xlink:title=" ">
<path fill="none" stroke="#63b8ff" d="M389.98,-94.8C374.07,-88.84 356.33,-82.29 340,-76.5 331.61,-73.52 322.63,-70.44 313.97,-67.51"/>
<polygon fill="#63b8ff" stroke="#63b8ff" points="389.02,-98.18 399.61,-98.43 391.48,-91.63 389.02,-98.18"/>
</a>
</g>
</g>
<!-- Node11 -->
<g id="Node000011" class="node">
<title>Node11</title>
<g id="a_Node000011"><a xlink:href="../../d3/db4/classFatFile_a5d84d871ac904a22aa48308713d14682.xhtml#a5d84d871ac904a22aa48308713d14682" target="_top" xlink:title=" ">
<polygon fill="white" stroke="#666666" points="307,-19 228,-19 228,0 307,0 307,-19"/>
<text text-anchor="middle" x="267.5" y="-7" font-family="Helvetica,sans-Serif" font-size="10.00">FatFile::write</text>
</a>
</g>
</g>
<!-- Node1&#45;&gt;Node11 -->
<g id="edge10_Node000001_Node000011" class="edge">
<title>Node1&#45;&gt;Node11</title>
<g id="a_edge10_Node000001_Node000011"><a xlink:title=" ">
<path fill="none" stroke="#63b8ff" d="M418.36,-90.77C399.68,-71.52 370.48,-44.55 340,-28.5 329.88,-23.17 318.16,-19.26 307.17,-16.41"/>
<polygon fill="#63b8ff" stroke="#63b8ff" points="416.04,-93.41 425.46,-98.25 421.11,-88.59 416.04,-93.41"/>
</a>
</g>
</g>
<!-- Node3 -->
<g id="Node000003" class="node">
<title>Node3</title>
<g id="a_Node000003"><a xlink:href="../../d3/db4/classFatFile_acb4108f33aa7e10fff747b4939787c5a.xhtml#acb4108f33aa7e10fff747b4939787c5a" target="_top" xlink:title=" ">
<polygon fill="white" stroke="#666666" points="121,-281 38,-281 38,-262 121,-262 121,-281"/>
<text text-anchor="middle" x="79.5" y="-269" font-family="Helvetica,sans-Serif" font-size="10.00">FatFile::mkdir</text>
</a>
</g>
</g>
<!-- Node2&#45;&gt;Node3 -->
<g id="edge2_Node000002_Node000003" class="edge">
<title>Node2&#45;&gt;Node3</title>
<g id="a_edge2_Node000002_Node000003"><a xlink:title=" ">
<path fill="none" stroke="#63b8ff" d="M222.43,-236.79C203.02,-242.1 179.92,-248.28 159,-253.5 146.79,-256.55 133.46,-259.67 121.31,-262.45"/>
<polygon fill="#63b8ff" stroke="#63b8ff" points="223.5,-240.13 232.21,-234.11 221.64,-233.38 223.5,-240.13"/>
</a>
</g>
</g>
<!-- Node4 -->
<g id="Node000004" class="node">
<title>Node4</title>
<g id="a_Node000004"><a xlink:href="../../d3/db4/classFatFile_aa729447d16ce34a9a575c27ac58dbb12.xhtml#aa729447d16ce34a9a575c27ac58dbb12" target="_top" xlink:title=" ">
<polygon fill="white" stroke="#666666" points="118.5,-244 40.5,-244 40.5,-225 118.5,-225 118.5,-244"/>
<text text-anchor="middle" x="79.5" y="-232" font-family="Helvetica,sans-Serif" font-size="10.00">FatFile::open</text>
</a>
</g>
</g>
<!-- Node2&#45;&gt;Node4 -->
<g id="edge3_Node000002_Node000004" class="edge">
<title>Node2&#45;&gt;Node4</title>
<g id="a_edge3_Node000002_Node000004"><a xlink:title=" ">
<path fill="none" stroke="#63b8ff" d="M196.89,-228.24C170.42,-229.67 141.24,-231.23 118.72,-232.45"/>
<polygon fill="#63b8ff" stroke="#63b8ff" points="197.08,-231.74 206.88,-227.71 196.71,-224.75 197.08,-231.74"/>
</a>
</g>
</g>
<!-- Node5 -->
<g id="Node000005" class="node">
<title>Node5</title>
<g id="a_Node000005"><a xlink:href="../../d3/db4/classFatFile_aefd095e898758e6008f33cca17e92b72.xhtml#aefd095e898758e6008f33cca17e92b72" target="_top" xlink:title=" ">
<polygon fill="white" stroke="#666666" points="118.5,-207 40.5,-207 40.5,-188 118.5,-188 118.5,-207"/>
<text text-anchor="middle" x="79.5" y="-195" font-family="Helvetica,sans-Serif" font-size="10.00">FatFile::open</text>
</a>
</g>
</g>
<!-- Node2&#45;&gt;Node5 -->
<g id="edge4_Node000002_Node000005" class="edge">
<title>Node2&#45;&gt;Node5</title>
<g id="a_edge4_Node000002_Node000005"><a xlink:title=" ">
<path fill="none" stroke="#63b8ff" d="M196.89,-214.39C170.42,-210.55 141.24,-206.32 118.72,-203.05"/>
<polygon fill="#63b8ff" stroke="#63b8ff" points="196.48,-217.87 206.88,-215.85 197.49,-210.95 196.48,-217.87"/>
</a>
</g>
</g>
<!-- Node7 -->
<g id="Node000007" class="node">
<title>Node7</title>
<g id="a_Node000007"><a xlink:href="../../d0/db5/classFsBaseFile_adff091db3361b34a3f63ffeb495c27c7.xhtml#adff091db3361b34a3f63ffeb495c27c7" target="_top" xlink:title=" ">
<polygon fill="white" stroke="#666666" points="159,-170 0,-170 0,-151 159,-151 159,-170"/>
<text text-anchor="middle" x="79.5" y="-158" font-family="Helvetica,sans-Serif" font-size="10.00">FsBaseFile::contiguousRange</text>
</a>
</g>
</g>
<!-- Node6&#45;&gt;Node7 -->
<g id="edge6_Node000006_Node000007" class="edge">
<title>Node6&#45;&gt;Node7</title>
<g id="a_edge6_Node000006_Node000007"><a xlink:title=" ">
<path fill="none" stroke="#63b8ff" d="M188.01,-165.7C178.44,-165.24 168.66,-164.77 159.08,-164.3"/>
<polygon fill="#63b8ff" stroke="#63b8ff" points="188.14,-169.21 198.3,-166.2 188.48,-162.22 188.14,-169.21"/>
</a>
</g>
</g>
</g>
</svg>

<g id="navigator" transform="translate(0 0)" fill="#404254">
  <rect fill="#f2f5e9" fill-opacity="0.5" stroke="#606060" stroke-width=".5" x="0" y="0" width="60" height="60"/>
  <use id="zoomplus" xlink:href="#zoomPlus" x="17" y="9" onmousedown="handleZoom(evt,'in')"/>
  <use id="zoomminus" xlink:href="#zoomMin" x="42" y="9" onmousedown="handleZoom(evt,'out')"/>
  <use id="reset" xlink:href="#resetDef" x="30" y="36" onmousedown="handleReset()"/>
   <use id="arrowup" xlink:href="#arrowUp" x="0" y="0" onmousedown="handlePan(0,-1)"/>
  <use id="arrowright" xlink:href="#arrowRight" x="0" y="0" onmousedown="handlePan(1,0)"/>
  <use id="arrowdown" xlink:href="#arrowDown" x="0" y="0" onmousedown="handlePan(0,1)"/>
  <use id="arrowleft" xlink:href="#arrowLeft" x="0" y="0" onmousedown="handlePan(-1,0)"/>
</g>
<svg viewBox="0 0 15 15" width="100%" height="30px" preserveAspectRatio="xMaxYMin meet">
 <g id="arrow_out" transform="scale(0.3 0.3)">
  <a xlink:href="classFatPartition_a836546c368e6ffe117e6ab8775d23eba_a836546c368e6ffe117e6ab8775d23eba_icgraph_org.svg" target="_base">
   <rect id="button" ry="5" rx="5" y="6" x="6" height="38" width="38"
        fill="#f2f5e9" fill-opacity="0.5" stroke="#606060" stroke-width="1.0"/>
   <path id="arrow"
     d="M 11.500037,31.436501 C 11.940474,20.09759 22.043105,11.32322 32.158766,21.979434 L 37.068811,17.246167 C 37.068811,17.246167 37.088388,32 37.088388,32 L 22.160133,31.978069 C 22.160133,31.978069 26.997745,27.140456 26.997745,27.140456 C 18.528582,18.264221 13.291696,25.230495 11.500037,31.436501 z"
     style="fill:#404040;"/>
  </a>
 </g>
</svg>

<style type='text/css'>
<![CDATA[
[data-mouse-over-selected='false'] { opacity: 0.7; }
[data-mouse-over-selected='true']  { opacity: 1.0; }
]]>
</style>
<script type="application/ecmascript"><![CDATA[
document.addEventListener('DOMContentLoaded', (event) => {
  highlightEdges();
  highlightAdjacentNodes();
});
]]></script>
</svg>
