<?xml version="1.0" encoding="UTF-8" standalone="no"?>
<!DOCTYPE svg PUBLIC "-//W3C//DTD SVG 1.1//EN"
 "http://www.w3.org/Graphics/SVG/1.1/DTD/svg11.dtd">
<!-- Generated by graphviz version 2.43.0 (0)
 -->
<!-- Title: FatPartition::isBusy Pages: 1 -->
<svg width="1028pt" height="229pt"
 viewBox="0.00 0.00 1028.00 229.00" xmlns="http://www.w3.org/2000/svg" xmlns:xlink="http://www.w3.org/1999/xlink">
<g id="graph0" class="graph" transform="scale(1 1) rotate(0) translate(4 225)">
<title>FatPartition::isBusy</title>
<!-- Node1 -->
<g id="Node000001" class="node">
<title>Node1</title>
<g id="a_Node000001"><a xlink:title=" ">
<polygon fill="#999999" stroke="#666666" points="110,-135.5 0,-135.5 0,-116.5 110,-116.5 110,-135.5"/>
<text text-anchor="middle" x="55" y="-123.5" font-family="Helvetica,sans-Serif" font-size="10.00">FatPartition::isBusy</text>
</a>
</g>
</g>
<!-- Node2 -->
<g id="Node000002" class="node">
<title>Node2</title>
<g id="a_Node000002"><a xlink:href="../../d8/d7f/classSharedSpiCard.xhtml#adffd2b7ebd53250fd96069f9bece875d" target="_top" xlink:title=" ">
<polygon fill="white" stroke="#666666" points="272,-135.5 146,-135.5 146,-116.5 272,-116.5 272,-135.5"/>
<text text-anchor="middle" x="209" y="-123.5" font-family="Helvetica,sans-Serif" font-size="10.00">SharedSpiCard::isBusy</text>
</a>
</g>
</g>
<!-- Node1&#45;&gt;Node2 -->
<g id="edge1_Node000001_Node000002" class="edge">
<title>Node1&#45;&gt;Node2</title>
<g id="a_edge1_Node000001_Node000002"><a xlink:title=" ">
<path fill="none" stroke="#63b8ff" d="M110.02,-126C118.36,-126 127.09,-126 135.75,-126"/>
<polygon fill="#63b8ff" stroke="#63b8ff" points="135.86,-129.5 145.86,-126 135.86,-122.5 135.86,-129.5"/>
</a>
</g>
</g>
<!-- Node3 -->
<g id="Node000003" class="node">
<title>Node3</title>
<g id="a_Node000003"><a xlink:href="../../d8/d7f/classSharedSpiCard.xhtml#a08363209d938db87521cca6a84146041" target="_top" xlink:title=" ">
<polygon fill="white" stroke="#666666" points="455,-193.5 308,-193.5 308,-174.5 455,-174.5 455,-193.5"/>
<text text-anchor="middle" x="381.5" y="-181.5" font-family="Helvetica,sans-Serif" font-size="10.00">SharedSpiCard::spiReceive</text>
</a>
</g>
</g>
<!-- Node2&#45;&gt;Node3 -->
<g id="edge2_Node000002_Node000003" class="edge">
<title>Node2&#45;&gt;Node3</title>
<g id="a_edge2_Node000002_Node000003"><a xlink:title=" ">
<path fill="none" stroke="#63b8ff" d="M238.15,-135.58C266.66,-145.27 310.93,-160.33 342.53,-171.08"/>
<polygon fill="#63b8ff" stroke="#63b8ff" points="341.71,-174.5 352.3,-174.41 343.96,-167.87 341.71,-174.5"/>
</a>
</g>
</g>
<!-- Node5 -->
<g id="Node000005" class="node">
<title>Node5</title>
<g id="a_Node000005"><a xlink:href="../../d8/d7f/classSharedSpiCard.xhtml#aef2dfa72e8d5643c90720f9f8c6a4254" target="_top" xlink:title=" ">
<polygon fill="white" stroke="#666666" points="447,-135.5 316,-135.5 316,-116.5 447,-116.5 447,-135.5"/>
<text text-anchor="middle" x="381.5" y="-123.5" font-family="Helvetica,sans-Serif" font-size="10.00">SharedSpiCard::spiStart</text>
</a>
</g>
</g>
<!-- Node2&#45;&gt;Node5 -->
<g id="edge4_Node000002_Node000005" class="edge">
<title>Node2&#45;&gt;Node5</title>
<g id="a_edge4_Node000002_Node000005"><a xlink:title=" ">
<path fill="none" stroke="#63b8ff" d="M272.04,-126C282.97,-126 294.46,-126 305.7,-126"/>
<polygon fill="#63b8ff" stroke="#63b8ff" points="305.93,-129.5 315.93,-126 305.93,-122.5 305.93,-129.5"/>
</a>
</g>
</g>
<!-- Node14 -->
<g id="Node000014" class="node">
<title>Node14</title>
<g id="a_Node000014"><a xlink:href="../../d8/d7f/classSharedSpiCard.xhtml#a0f511c39c50055a4fc97e720933aee3a" target="_top" xlink:title=" ">
<polygon fill="white" stroke="#666666" points="446.5,-80.5 316.5,-80.5 316.5,-61.5 446.5,-61.5 446.5,-80.5"/>
<text text-anchor="middle" x="381.5" y="-68.5" font-family="Helvetica,sans-Serif" font-size="10.00">SharedSpiCard::spiStop</text>
</a>
</g>
</g>
<!-- Node2&#45;&gt;Node14 -->
<g id="edge13_Node000002_Node000014" class="edge">
<title>Node2&#45;&gt;Node14</title>
<g id="a_edge13_Node000002_Node000014"><a xlink:title=" ">
<path fill="none" stroke="#63b8ff" d="M239.7,-116.42C267.85,-107.34 310.32,-93.64 341.25,-83.66"/>
<polygon fill="#63b8ff" stroke="#63b8ff" points="342.41,-86.96 350.86,-80.56 340.26,-80.3 342.41,-86.96"/>
</a>
</g>
</g>
<!-- Node4 -->
<g id="Node000004" class="node">
<title>Node4</title>
<g id="a_Node000004"><a xlink:href="../../d0/d25/classSdSpiArduinoDriver.xhtml#a8d6bc852a52e9d69c4b1e48ee062e8d1" target="_top" xlink:title=" ">
<polygon fill="white" stroke="#666666" points="627,-221 516,-221 516,-191 627,-191 627,-221"/>
<text text-anchor="start" x="524" y="-209" font-family="Helvetica,sans-Serif" font-size="10.00">SdSpiArduinoDriver</text>
<text text-anchor="middle" x="571.5" y="-198" font-family="Helvetica,sans-Serif" font-size="10.00">::receive</text>
</a>
</g>
</g>
<!-- Node3&#45;&gt;Node4 -->
<g id="edge3_Node000003_Node000004" class="edge">
<title>Node3&#45;&gt;Node4</title>
<g id="a_edge3_Node000003_Node000004"><a xlink:title=" ">
<path fill="none" stroke="#63b8ff" d="M455.19,-192.51C471.87,-194.46 489.5,-196.52 505.82,-198.43"/>
<polygon fill="#63b8ff" stroke="#63b8ff" points="505.46,-201.91 515.8,-199.6 506.27,-194.96 505.46,-201.91"/>
</a>
</g>
</g>
<!-- Node6 -->
<g id="Node000006" class="node">
<title>Node6</title>
<g id="a_Node000006"><a xlink:href="../../d8/d7f/classSharedSpiCard.xhtml#a69ee2fe49dfaeea2347d8a265806d2b6" target="_top" xlink:title=" ">
<polygon fill="white" stroke="#666666" points="646,-172.5 497,-172.5 497,-153.5 646,-153.5 646,-172.5"/>
<text text-anchor="middle" x="571.5" y="-160.5" font-family="Helvetica,sans-Serif" font-size="10.00">SharedSpiCard::spiActivate</text>
</a>
</g>
</g>
<!-- Node5&#45;&gt;Node6 -->
<g id="edge5_Node000005_Node000006" class="edge">
<title>Node5&#45;&gt;Node6</title>
<g id="a_edge5_Node000005_Node000006"><a xlink:title=" ">
<path fill="none" stroke="#63b8ff" d="M430.91,-135.53C455.6,-140.39 485.82,-146.33 511.81,-151.45"/>
<polygon fill="#63b8ff" stroke="#63b8ff" points="511.44,-154.94 521.92,-153.44 512.79,-148.07 511.44,-154.94"/>
</a>
</g>
</g>
<!-- Node8 -->
<g id="Node000008" class="node">
<title>Node8</title>
<g id="a_Node000008"><a xlink:href="../../d8/d7f/classSharedSpiCard.xhtml#a8c3088599862ff6e84ae79bfdf32aea8" target="_top" xlink:title=" ">
<polygon fill="white" stroke="#666666" points="640.5,-135.5 502.5,-135.5 502.5,-116.5 640.5,-116.5 640.5,-135.5"/>
<text text-anchor="middle" x="571.5" y="-123.5" font-family="Helvetica,sans-Serif" font-size="10.00">SharedSpiCard::spiSelect</text>
</a>
</g>
</g>
<!-- Node5&#45;&gt;Node8 -->
<g id="edge7_Node000005_Node000008" class="edge">
<title>Node5&#45;&gt;Node8</title>
<g id="a_edge7_Node000005_Node000008"><a xlink:title=" ">
<path fill="none" stroke="#63b8ff" d="M447.2,-126C461.7,-126 477.23,-126 492.21,-126"/>
<polygon fill="#63b8ff" stroke="#63b8ff" points="492.48,-129.5 502.48,-126 492.48,-122.5 492.48,-129.5"/>
</a>
</g>
</g>
<!-- Node12 -->
<g id="Node000012" class="node">
<title>Node12</title>
<g id="a_Node000012"><a xlink:href="../../d8/d7f/classSharedSpiCard.xhtml#ab311b9ad8a250f06afbe091f7abb118b" target="_top" xlink:title=" ">
<polygon fill="white" stroke="#666666" points="637.5,-98.5 505.5,-98.5 505.5,-79.5 637.5,-79.5 637.5,-98.5"/>
<text text-anchor="middle" x="571.5" y="-86.5" font-family="Helvetica,sans-Serif" font-size="10.00">SharedSpiCard::spiSend</text>
</a>
</g>
</g>
<!-- Node5&#45;&gt;Node12 -->
<g id="edge11_Node000005_Node000012" class="edge">
<title>Node5&#45;&gt;Node12</title>
<g id="a_edge11_Node000005_Node000012"><a xlink:title=" ">
<path fill="none" stroke="#63b8ff" d="M430.91,-116.47C455.6,-111.61 485.82,-105.67 511.81,-100.55"/>
<polygon fill="#63b8ff" stroke="#63b8ff" points="512.79,-103.93 521.92,-98.56 511.44,-97.06 512.79,-103.93"/>
</a>
</g>
</g>
<!-- Node7 -->
<g id="Node000007" class="node">
<title>Node7</title>
<g id="a_Node000007"><a xlink:href="../../d0/d25/classSdSpiArduinoDriver.xhtml#abb6b88c5c8b87fc344a69f23f6eab3d9" target="_top" xlink:title=" ">
<polygon fill="white" stroke="#666666" points="799,-181 688,-181 688,-151 799,-151 799,-181"/>
<text text-anchor="start" x="696" y="-169" font-family="Helvetica,sans-Serif" font-size="10.00">SdSpiArduinoDriver</text>
<text text-anchor="middle" x="743.5" y="-158" font-family="Helvetica,sans-Serif" font-size="10.00">::activate</text>
</a>
</g>
</g>
<!-- Node6&#45;&gt;Node7 -->
<g id="edge6_Node000006_Node000007" class="edge">
<title>Node6&#45;&gt;Node7</title>
<g id="a_edge6_Node000006_Node000007"><a xlink:title=" ">
<path fill="none" stroke="#63b8ff" d="M646.08,-164.3C656.57,-164.48 667.31,-164.67 677.63,-164.86"/>
<polygon fill="#63b8ff" stroke="#63b8ff" points="677.72,-168.36 687.78,-165.03 677.84,-161.36 677.72,-168.36"/>
</a>
</g>
</g>
<!-- Node9 -->
<g id="Node000009" class="node">
<title>Node9</title>
<g id="a_Node000009"><a xlink:href="../../d2/df0/SdSpiChipSelect_8cpp.xhtml#ac469bbe2d31ffde9b00ffc68258d7428" target="_top" xlink:title=" ">
<polygon fill="white" stroke="#666666" points="776.5,-132.5 710.5,-132.5 710.5,-113.5 776.5,-113.5 776.5,-132.5"/>
<text text-anchor="middle" x="743.5" y="-120.5" font-family="Helvetica,sans-Serif" font-size="10.00">sdCsWrite</text>
</a>
</g>
</g>
<!-- Node8&#45;&gt;Node9 -->
<g id="edge8_Node000008_Node000009" class="edge">
<title>Node8&#45;&gt;Node9</title>
<g id="a_edge8_Node000008_Node000009"><a xlink:title=" ">
<path fill="none" stroke="#63b8ff" d="M640.67,-124.8C660.74,-124.44 682.12,-124.07 700.09,-123.75"/>
<polygon fill="#63b8ff" stroke="#63b8ff" points="700.29,-127.25 710.23,-123.57 700.17,-120.25 700.29,-127.25"/>
</a>
</g>
</g>
<!-- Node10 -->
<g id="Node000010" class="node">
<title>Node10</title>
<g id="a_Node000010"><a xlink:href="../../d5/d45/wiring__digital_8c.xhtml#a73b9b61feeaf7d790d107f2954a7fd93" target="_top" xlink:title=" ">
<polygon fill="white" stroke="#666666" points="909,-132.5 835,-132.5 835,-113.5 909,-113.5 909,-132.5"/>
<text text-anchor="middle" x="872" y="-120.5" font-family="Helvetica,sans-Serif" font-size="10.00">digitalWrite</text>
</a>
</g>
</g>
<!-- Node9&#45;&gt;Node10 -->
<g id="edge9_Node000009_Node000010" class="edge">
<title>Node9&#45;&gt;Node10</title>
<g id="a_edge9_Node000009_Node000010"><a xlink:title=" ">
<path fill="none" stroke="#63b8ff" d="M776.75,-123C791.28,-123 808.71,-123 824.61,-123"/>
<polygon fill="#63b8ff" stroke="#63b8ff" points="824.79,-126.5 834.79,-123 824.79,-119.5 824.79,-126.5"/>
</a>
</g>
</g>
<!-- Node11 -->
<g id="Node000011" class="node">
<title>Node11</title>
<g id="a_Node000011"><a xlink:href="../../d5/d45/wiring__digital_8c.xhtml#ae3d0bcbe4eb927ca8f5d5c21b7e4f224" target="_top" xlink:title=" ">
<polygon fill="white" stroke="#666666" points="1020,-132.5 945,-132.5 945,-113.5 1020,-113.5 1020,-132.5"/>
<text text-anchor="middle" x="982.5" y="-120.5" font-family="Helvetica,sans-Serif" font-size="10.00">turnOffPWM</text>
</a>
</g>
</g>
<!-- Node10&#45;&gt;Node11 -->
<g id="edge10_Node000010_Node000011" class="edge">
<title>Node10&#45;&gt;Node11</title>
<g id="a_edge10_Node000010_Node000011"><a xlink:title=" ">
<path fill="none" stroke="#63b8ff" d="M909.13,-123C917.28,-123 926.05,-123 934.57,-123"/>
<polygon fill="#63b8ff" stroke="#63b8ff" points="934.79,-126.5 944.79,-123 934.79,-119.5 934.79,-126.5"/>
</a>
</g>
</g>
<!-- Node13 -->
<g id="Node000013" class="node">
<title>Node13</title>
<g id="a_Node000013"><a xlink:href="../../d0/d25/classSdSpiArduinoDriver.xhtml#a3c4842e47f98fe5d3799cd6028778ab5" target="_top" xlink:title=" ">
<polygon fill="white" stroke="#666666" points="799,-95 688,-95 688,-65 799,-65 799,-95"/>
<text text-anchor="start" x="696" y="-83" font-family="Helvetica,sans-Serif" font-size="10.00">SdSpiArduinoDriver</text>
<text text-anchor="middle" x="743.5" y="-72" font-family="Helvetica,sans-Serif" font-size="10.00">::send</text>
</a>
</g>
</g>
<!-- Node12&#45;&gt;Node13 -->
<g id="edge12_Node000012_Node000013" class="edge">
<title>Node12&#45;&gt;Node13</title>
<g id="a_edge12_Node000012_Node000013"><a xlink:title=" ">
<path fill="none" stroke="#63b8ff" d="M637.74,-85.55C650.82,-84.85 664.56,-84.13 677.62,-83.43"/>
<polygon fill="#63b8ff" stroke="#63b8ff" points="678.13,-86.91 687.93,-82.89 677.76,-79.92 678.13,-86.91"/>
</a>
</g>
</g>
<!-- Node14&#45;&gt;Node12 -->
<g id="edge16_Node000014_Node000012" class="edge">
<title>Node14&#45;&gt;Node12</title>
<g id="a_edge16_Node000014_Node000012"><a xlink:title=" ">
<path fill="none" stroke="#63b8ff" d="M446.67,-77.14C462.21,-78.63 478.95,-80.23 494.95,-81.77"/>
<polygon fill="#63b8ff" stroke="#63b8ff" points="495.05,-85.29 505.34,-82.76 495.72,-78.32 495.05,-85.29"/>
</a>
</g>
</g>
<!-- Node15 -->
<g id="Node000015" class="node">
<title>Node15</title>
<g id="a_Node000015"><a xlink:href="../../d8/d7f/classSharedSpiCard.xhtml#ac6acfca5a23337977d2e4436ab8ab39a" target="_top" xlink:title=" ">
<polygon fill="white" stroke="#666666" points="652,-24.5 491,-24.5 491,-5.5 652,-5.5 652,-24.5"/>
<text text-anchor="middle" x="571.5" y="-12.5" font-family="Helvetica,sans-Serif" font-size="10.00">SharedSpiCard::spiDeactivate</text>
</a>
</g>
</g>
<!-- Node14&#45;&gt;Node15 -->
<g id="edge14_Node000014_Node000015" class="edge">
<title>Node14&#45;&gt;Node15</title>
<g id="a_edge14_Node000014_Node000015"><a xlink:title=" ">
<path fill="none" stroke="#63b8ff" d="M407.23,-61.43C429.06,-53.2 461.84,-41.38 491,-33 498.46,-30.86 506.37,-28.81 514.2,-26.91"/>
<polygon fill="#63b8ff" stroke="#63b8ff" points="515.1,-30.29 524.03,-24.58 513.49,-23.48 515.1,-30.29"/>
</a>
</g>
</g>
<!-- Node17 -->
<g id="Node000017" class="node">
<title>Node17</title>
<g id="a_Node000017"><a xlink:href="../../d8/d7f/classSharedSpiCard.xhtml#ad06a3278372300987b97876cf598c114" target="_top" xlink:title=" ">
<polygon fill="white" stroke="#666666" points="647,-61.5 496,-61.5 496,-42.5 647,-42.5 647,-61.5"/>
<text text-anchor="middle" x="571.5" y="-49.5" font-family="Helvetica,sans-Serif" font-size="10.00">SharedSpiCard::spiUnselect</text>
</a>
</g>
</g>
<!-- Node14&#45;&gt;Node17 -->
<g id="edge17_Node000014_Node000017" class="edge">
<title>Node14&#45;&gt;Node17</title>
<g id="a_edge17_Node000014_Node000017"><a xlink:title=" ">
<path fill="none" stroke="#63b8ff" d="M446.67,-64.51C459.3,-63.24 472.73,-61.88 485.92,-60.55"/>
<polygon fill="#63b8ff" stroke="#63b8ff" points="486.33,-64.02 495.93,-59.54 485.63,-57.06 486.33,-64.02"/>
</a>
</g>
</g>
<!-- Node16 -->
<g id="Node000016" class="node">
<title>Node16</title>
<g id="a_Node000016"><a xlink:href="../../d0/d25/classSdSpiArduinoDriver.xhtml#ae88a255f533e3acb41d1221025a69b55" target="_top" xlink:title=" ">
<polygon fill="white" stroke="#666666" points="799,-30 688,-30 688,0 799,0 799,-30"/>
<text text-anchor="start" x="696" y="-18" font-family="Helvetica,sans-Serif" font-size="10.00">SdSpiArduinoDriver</text>
<text text-anchor="middle" x="743.5" y="-7" font-family="Helvetica,sans-Serif" font-size="10.00">::deactivate</text>
</a>
</g>
</g>
<!-- Node15&#45;&gt;Node16 -->
<g id="edge15_Node000015_Node000016" class="edge">
<title>Node15&#45;&gt;Node16</title>
<g id="a_edge15_Node000015_Node000016"><a xlink:title=" ">
<path fill="none" stroke="#63b8ff" d="M652.02,-15C660.63,-15 669.3,-15 677.7,-15"/>
<polygon fill="#63b8ff" stroke="#63b8ff" points="677.78,-18.5 687.78,-15 677.78,-11.5 677.78,-18.5"/>
</a>
</g>
</g>
<!-- Node17&#45;&gt;Node9 -->
<g id="edge18_Node000017_Node000009" class="edge">
<title>Node17&#45;&gt;Node9</title>
<g id="a_edge18_Node000017_Node000009"><a xlink:title=" ">
<path fill="none" stroke="#63b8ff" d="M628.56,-61.59C636.68,-64.05 644.73,-67.14 652,-71 671.17,-81.18 669.37,-92.86 688,-104 692.09,-106.44 696.53,-108.63 701.06,-110.58"/>
<polygon fill="#63b8ff" stroke="#63b8ff" points="699.81,-113.85 710.4,-114.24 702.36,-107.33 699.81,-113.85"/>
</a>
</g>
</g>
</g>
</svg>
