<?xml version="1.0" encoding="UTF-8" standalone="no"?>
<!DOCTYPE svg PUBLIC "-//W3C//DTD SVG 1.1//EN"
 "http://www.w3.org/Graphics/SVG/1.1/DTD/svg11.dtd">
<!-- Generated by graphviz version 2.43.0 (0)
 -->
<!-- Title: FatPartition::fatPut Pages: 1 -->
<!--zoomable 568 -->

<svg id="main" version="1.1" xmlns="http://www.w3.org/2000/svg" xmlns:xlink="http://www.w3.org/1999/xlink" xml:space="preserve" onload="init(evt)">
<style type="text/css"><![CDATA[
.node, .edge {opacity: 0.7;}
.node.selected, .edge.selected {opacity: 1;}
.edge:hover path { stroke: red; }
.edge:hover polygon { stroke: red; fill: red; }
]]></style>

<defs>
  <circle id="rim" cx="0" cy="0" r="7"/>
  <circle id="rim2" cx="0" cy="0" r="3.5"/>
  <g id="zoomPlus">
    <use xlink:href="#rim" fill="#404040"><set attributeName="fill" to="#808080" begin="zoomplus.mouseover" end="zoomplus.mouseout"/></use>
    <path d="M-4,0h8M0,-4v8" fill="none" stroke="white" stroke-width="1.5" pointer-events="none"/>
  </g>
  <g id="zoomMin">
    <use xlink:href="#rim" fill="#404040"><set attributeName="fill" to="#808080" begin="zoomminus.mouseover" end="zoomminus.mouseout"/></use>
    <path d="M-4,0h8" fill="none" stroke="white" stroke-width="1.5" pointer-events="none"/>
  </g>
  <g id="arrowUp" transform="translate(30 24)">
    <use xlink:href="#rim"/>
    <path pointer-events="none" fill="none" stroke="white" stroke-width="1.5" d="M0,-3.0v7 M-2.5,-0.5L0,-3.0L2.5,-0.5"/>
  </g>
  <g id="arrowRight" transform="rotate(90) translate(36 -43)">
    <use xlink:href="#rim"/>
    <path pointer-events="none" fill="none" stroke="white" stroke-width="1.5" d="M0,-3.0v7 M-2.5,-0.5L0,-3.0L2.5,-0.5"/>
  </g>
  <g id="arrowDown" transform="rotate(180) translate(-30 -48)">
    <use xlink:href="#rim"/>
    <path pointer-events="none" fill="none" stroke="white" stroke-width="1.5" d="M0,-3.0v7 M-2.5,-0.5L0,-3.0L2.5,-0.5"/>
  </g>
  <g id="arrowLeft" transform="rotate(270) translate(-36 17)">
    <use xlink:href="#rim"/>
    <path pointer-events="none" fill="none" stroke="white" stroke-width="1.5" d="M0,-3.0v7 M-2.5,-0.5L0,-3.0L2.5,-0.5"/>
  </g>
  <g id="resetDef">
    <use xlink:href="#rim2" fill="#404040"><set attributeName="fill" to="#808080" begin="reset.mouseover" end="reset.mouseout"/></use>
  </g>
</defs>
<script type="application/ecmascript">
var viewWidth = 2276;
var viewHeight = 568;
var sectionId = 'dynsection-0';
</script>
<script type="application/ecmascript" xlink:href="../../svg.min.js"/>
<svg id="graph" class="graph">
<g id="viewport">
<title>FatPartition::fatPut</title>
<!-- Node1 -->
<g id="Node000001" class="node">
<title>Node1</title>
<g id="a_Node000001"><a xlink:title=" ">
<polygon fill="#999999" stroke="#666666" points="107,-313.5 0,-313.5 0,-294.5 107,-294.5 107,-313.5"/>
<text text-anchor="middle" x="53.5" y="-301.5" font-family="Helvetica,sans-Serif" font-size="10.00">FatPartition::fatPut</text>
</a>
</g>
</g>
<!-- Node2 -->
<g id="Node000002" class="node">
<title>Node2</title>
<g id="a_Node000002"><a xlink:href="../../d8/d15/classFatPartition_a816bbfbb32354da4aad5c9c254a3ef4b.xhtml#a816bbfbb32354da4aad5c9c254a3ef4b" target="_top" xlink:title=" ">
<polygon fill="white" stroke="#666666" points="301,-369.5 143,-369.5 143,-350.5 301,-350.5 301,-369.5"/>
<text text-anchor="middle" x="222" y="-357.5" font-family="Helvetica,sans-Serif" font-size="10.00">FatPartition::fatCachePrepare</text>
</a>
</g>
</g>
<!-- Node1&#45;&gt;Node2 -->
<g id="edge1_Node000001_Node000002" class="edge">
<title>Node1&#45;&gt;Node2</title>
<g id="a_edge1_Node000001_Node000002"><a xlink:title=" ">
<path fill="none" stroke="#63b8ff" d="M74.14,-313.64C91.82,-322.03 118.68,-334.05 143,-342 149.57,-344.15 156.53,-346.14 163.48,-347.96"/>
<polygon fill="#63b8ff" stroke="#63b8ff" points="163.05,-351.46 173.61,-350.49 164.75,-344.67 163.05,-351.46"/>
</a>
</g>
</g>
<!-- Node36 -->
<g id="Node000036" class="node">
<title>Node36</title>
<g id="a_Node000036"><a xlink:href="../../d8/d15/classFatPartition_ad45c276232d7093b82f1075e8c488bac.xhtml#ad45c276232d7093b82f1075e8c488bac" target="_top" xlink:title=" ">
<polygon fill="white" stroke="#666666" points="278.5,-332.5 165.5,-332.5 165.5,-313.5 278.5,-313.5 278.5,-332.5"/>
<text text-anchor="middle" x="222" y="-320.5" font-family="Helvetica,sans-Serif" font-size="10.00">FatPartition::fatType</text>
</a>
</g>
</g>
<!-- Node1&#45;&gt;Node36 -->
<g id="edge57_Node000001_Node000036" class="edge">
<title>Node1&#45;&gt;Node36</title>
<g id="a_edge57_Node000001_Node000036"><a xlink:title=" ">
<path fill="none" stroke="#63b8ff" d="M107.18,-310.01C122.34,-311.74 139.08,-313.65 154.94,-315.46"/>
<polygon fill="#63b8ff" stroke="#63b8ff" points="154.88,-318.98 165.21,-316.63 155.67,-312.02 154.88,-318.98"/>
</a>
</g>
</g>
<!-- Node37 -->
<g id="Node000037" class="node">
<title>Node37</title>
<g id="a_Node000037"><a xlink:href="../../dc/d87/FsStructs_8h_a2a47595a3bb5c1f0f67d4f3dddac0a0e.xhtml#a2a47595a3bb5c1f0f67d4f3dddac0a0e" target="_top" xlink:title=" ">
<polygon fill="white" stroke="#666666" points="249.5,-295.5 194.5,-295.5 194.5,-276.5 249.5,-276.5 249.5,-295.5"/>
<text text-anchor="middle" x="222" y="-283.5" font-family="Helvetica,sans-Serif" font-size="10.00">setLe16</text>
</a>
</g>
</g>
<!-- Node1&#45;&gt;Node37 -->
<g id="edge58_Node000001_Node000037" class="edge">
<title>Node1&#45;&gt;Node37</title>
<g id="a_edge58_Node000001_Node000037"><a xlink:title=" ">
<path fill="none" stroke="#63b8ff" d="M107.18,-298.3C132.18,-295.6 161.46,-292.44 184.06,-289.99"/>
<polygon fill="#63b8ff" stroke="#63b8ff" points="184.68,-293.45 194.25,-288.89 183.93,-286.49 184.68,-293.45"/>
</a>
</g>
</g>
<!-- Node38 -->
<g id="Node000038" class="node">
<title>Node38</title>
<g id="a_Node000038"><a xlink:href="../../dc/d87/FsStructs_8h_a294114e9924b0436c1d110e692bef464.xhtml#a294114e9924b0436c1d110e692bef464" target="_top" xlink:title=" ">
<polygon fill="white" stroke="#666666" points="249.5,-258.5 194.5,-258.5 194.5,-239.5 249.5,-239.5 249.5,-258.5"/>
<text text-anchor="middle" x="222" y="-246.5" font-family="Helvetica,sans-Serif" font-size="10.00">setLe32</text>
</a>
</g>
</g>
<!-- Node1&#45;&gt;Node38 -->
<g id="edge59_Node000001_Node000038" class="edge">
<title>Node1&#45;&gt;Node38</title>
<g id="a_edge59_Node000001_Node000038"><a xlink:title=" ">
<path fill="none" stroke="#63b8ff" d="M75.63,-294.37C93.36,-286.55 119.48,-275.6 143,-268 156.29,-263.7 171.13,-259.86 184.26,-256.77"/>
<polygon fill="#63b8ff" stroke="#63b8ff" points="185.4,-260.1 194.37,-254.46 183.84,-253.28 185.4,-260.1"/>
</a>
</g>
</g>
<!-- Node3 -->
<g id="Node000003" class="node">
<title>Node3</title>
<g id="a_Node000003"><a xlink:href="../../d8/d15/classFatPartition_ae4a3cea22302bfdf2ee6872e528260a9.xhtml#ae4a3cea22302bfdf2ee6872e528260a9" target="_top" xlink:title=" ">
<polygon fill="white" stroke="#666666" points="504,-369.5 337,-369.5 337,-350.5 504,-350.5 504,-369.5"/>
<text text-anchor="middle" x="420.5" y="-357.5" font-family="Helvetica,sans-Serif" font-size="10.00">FatPartition::dataCachePrepare</text>
</a>
</g>
</g>
<!-- Node2&#45;&gt;Node3 -->
<g id="edge2_Node000002_Node000003" class="edge">
<title>Node2&#45;&gt;Node3</title>
<g id="a_edge2_Node000002_Node000003"><a xlink:title=" ">
<path fill="none" stroke="#63b8ff" d="M301.23,-360C309.52,-360 318.01,-360 326.45,-360"/>
<polygon fill="#63b8ff" stroke="#63b8ff" points="326.71,-363.5 336.71,-360 326.71,-356.5 326.71,-363.5"/>
</a>
</g>
</g>
<!-- Node4 -->
<g id="Node000004" class="node">
<title>Node4</title>
<g id="a_Node000004"><a xlink:href="../../dd/db1/classFsCache_a8c11f064a2ce0a380f522392f09d63cb.xhtml#a8c11f064a2ce0a380f522392f09d63cb" target="_top" xlink:title=" ">
<polygon fill="white" stroke="#666666" points="641,-369.5 540,-369.5 540,-350.5 641,-350.5 641,-369.5"/>
<text text-anchor="middle" x="590.5" y="-357.5" font-family="Helvetica,sans-Serif" font-size="10.00">FsCache::prepare</text>
</a>
</g>
</g>
<!-- Node3&#45;&gt;Node4 -->
<g id="edge3_Node000003_Node000004" class="edge">
<title>Node3&#45;&gt;Node4</title>
<g id="a_edge3_Node000003_Node000004"><a xlink:title=" ">
<path fill="none" stroke="#63b8ff" d="M504.02,-360C512.75,-360 521.51,-360 529.9,-360"/>
<polygon fill="#63b8ff" stroke="#63b8ff" points="529.94,-363.5 539.94,-360 529.94,-356.5 529.94,-363.5"/>
</a>
</g>
</g>
<!-- Node5 -->
<g id="Node000005" class="node">
<title>Node5</title>
<g id="a_Node000005"><a xlink:href="../../d8/d7f/classSharedSpiCard_a61d86f4092f8ddbc7339d7cbcf6f70c0.xhtml#a61d86f4092f8ddbc7339d7cbcf6f70c0" target="_top" xlink:title=" ">
<polygon fill="white" stroke="#666666" points="954.5,-446.5 808.5,-446.5 808.5,-427.5 954.5,-427.5 954.5,-446.5"/>
<text text-anchor="middle" x="881.5" y="-434.5" font-family="Helvetica,sans-Serif" font-size="10.00">SharedSpiCard::readSector</text>
</a>
</g>
</g>
<!-- Node4&#45;&gt;Node5 -->
<g id="edge4_Node000004_Node000005" class="edge">
<title>Node4&#45;&gt;Node5</title>
<g id="a_edge4_Node000004_Node000005"><a xlink:title=" ">
<path fill="none" stroke="#63b8ff" d="M627.23,-369.52C679.51,-383.45 776.89,-409.4 834.48,-424.74"/>
<polygon fill="#63b8ff" stroke="#63b8ff" points="833.84,-428.19 844.4,-427.38 835.64,-421.43 833.84,-428.19"/>
</a>
</g>
</g>
<!-- Node32 -->
<g id="Node000032" class="node">
<title>Node32</title>
<g id="a_Node000032"><a xlink:href="../../dd/db1/classFsCache_a5b90e145400de8687d9f34536b134130.xhtml#a5b90e145400de8687d9f34536b134130" target="_top" xlink:title=" ">
<polygon fill="white" stroke="#666666" points="771,-369.5 677,-369.5 677,-350.5 771,-350.5 771,-369.5"/>
<text text-anchor="middle" x="724" y="-357.5" font-family="Helvetica,sans-Serif" font-size="10.00">FsCache::sector</text>
</a>
</g>
</g>
<!-- Node4&#45;&gt;Node32 -->
<g id="edge43_Node000004_Node000032" class="edge">
<title>Node4&#45;&gt;Node32</title>
<g id="a_edge43_Node000004_Node000032"><a xlink:title=" ">
<path fill="none" stroke="#63b8ff" d="M641.21,-360C649.49,-360 658.12,-360 666.55,-360"/>
<polygon fill="#63b8ff" stroke="#63b8ff" points="666.68,-363.5 676.68,-360 666.68,-356.5 666.68,-363.5"/>
</a>
</g>
</g>
<!-- Node33 -->
<g id="Node000033" class="node">
<title>Node33</title>
<g id="a_Node000033"><a xlink:href="../../dd/db1/classFsCache_a5a2c8fb432d7b7590ebb43200ca21893.xhtml#a5a2c8fb432d7b7590ebb43200ca21893" target="_top" xlink:title=" ">
<polygon fill="white" stroke="#666666" points="767,-332.5 681,-332.5 681,-313.5 767,-313.5 767,-332.5"/>
<text text-anchor="middle" x="724" y="-320.5" font-family="Helvetica,sans-Serif" font-size="10.00">FsCache::sync</text>
</a>
</g>
</g>
<!-- Node4&#45;&gt;Node33 -->
<g id="edge44_Node000004_Node000033" class="edge">
<title>Node4&#45;&gt;Node33</title>
<g id="a_edge44_Node000004_Node000033"><a xlink:title=" ">
<path fill="none" stroke="#63b8ff" d="M625.36,-350.47C641.65,-345.89 661.38,-340.34 678.83,-335.43"/>
<polygon fill="#63b8ff" stroke="#63b8ff" points="680.11,-338.7 688.79,-332.62 678.22,-331.96 680.11,-338.7"/>
</a>
</g>
</g>
<!-- Node6 -->
<g id="Node000006" class="node">
<title>Node6</title>
<g id="a_Node000006"><a xlink:href="../../d8/d7f/classSharedSpiCard_adda33199753fc2aec74fe317cbaabc06.xhtml#adda33199753fc2aec74fe317cbaabc06" target="_top" xlink:title=" ">
<polygon fill="white" stroke="#666666" points="1157,-218.5 992,-218.5 992,-199.5 1157,-199.5 1157,-218.5"/>
<text text-anchor="middle" x="1074.5" y="-206.5" font-family="Helvetica,sans-Serif" font-size="10.00">SharedSpiCard::cardCommand</text>
</a>
</g>
</g>
<!-- Node5&#45;&gt;Node6 -->
<g id="edge5_Node000005_Node000006" class="edge">
<title>Node5&#45;&gt;Node6</title>
<g id="a_edge5_Node000005_Node000006"><a xlink:title=" ">
<path fill="none" stroke="#63b8ff" d="M890.46,-427.49C919.65,-392.66 1021.01,-271.66 1058.99,-226.33"/>
<polygon fill="#63b8ff" stroke="#63b8ff" points="1061.76,-228.46 1065.5,-218.55 1056.4,-223.97 1061.76,-228.46"/>
</a>
</g>
</g>
<!-- Node20 -->
<g id="Node000020" class="node">
<title>Node20</title>
<g id="a_Node000020"><a xlink:href="../../d8/d7f/classSharedSpiCard_a747c3f0b962098cf0c097f3c4c2b4fd4.xhtml#a747c3f0b962098cf0c097f3c4c2b4fd4" target="_top" xlink:title=" ">
<polygon fill="white" stroke="#666666" points="1688.5,-350.5 1571.5,-350.5 1571.5,-331.5 1688.5,-331.5 1688.5,-350.5"/>
<text text-anchor="middle" x="1630" y="-338.5" font-family="Helvetica,sans-Serif" font-size="10.00">SharedSpiCard::error</text>
</a>
</g>
</g>
<!-- Node5&#45;&gt;Node20 -->
<g id="edge38_Node000005_Node000020" class="edge">
<title>Node5&#45;&gt;Node20</title>
<g id="a_edge38_Node000005_Node000020"><a xlink:title=" ">
<path fill="none" stroke="#63b8ff" d="M908.48,-446.6C998.56,-478.21 1303.76,-571.45 1521,-470 1570,-447.12 1604.62,-389.85 1620.03,-359.91"/>
<polygon fill="#63b8ff" stroke="#63b8ff" points="1623.36,-361.07 1624.67,-350.56 1617.09,-357.96 1623.36,-361.07"/>
</a>
</g>
</g>
<!-- Node21 -->
<g id="Node000021" class="node">
<title>Node21</title>
<g id="a_Node000021"><a xlink:href="../../d8/d7f/classSharedSpiCard_a0f511c39c50055a4fc97e720933aee3a.xhtml#a0f511c39c50055a4fc97e720933aee3a" target="_top" xlink:title=" ">
<polygon fill="white" stroke="#666666" points="1695,-293.5 1565,-293.5 1565,-274.5 1695,-274.5 1695,-293.5"/>
<text text-anchor="middle" x="1630" y="-281.5" font-family="Helvetica,sans-Serif" font-size="10.00">SharedSpiCard::spiStop</text>
</a>
</g>
</g>
<!-- Node5&#45;&gt;Node21 -->
<g id="edge41_Node000005_Node000021" class="edge">
<title>Node5&#45;&gt;Node21</title>
<g id="a_edge41_Node000005_Node000021"><a xlink:title=" ">
<path fill="none" stroke="#63b8ff" d="M930.15,-446.51C1043.18,-466.32 1332.17,-500.63 1521,-378 1545.5,-362.09 1535.5,-342.78 1557,-323 1568.11,-312.78 1582.4,-304.32 1595.31,-297.93"/>
<polygon fill="#63b8ff" stroke="#63b8ff" points="1596.85,-301.07 1604.41,-293.64 1593.87,-294.74 1596.85,-301.07"/>
</a>
</g>
</g>
<!-- Node30 -->
<g id="Node000030" class="node">
<title>Node30</title>
<g id="a_Node000030"><a xlink:href="../../d8/d7f/classSharedSpiCard_abeae3cdc162f24c2d450abe4e1ed8340.xhtml#abeae3cdc162f24c2d450abe4e1ed8340" target="_top" xlink:title=" ">
<polygon fill="white" stroke="#666666" points="1144,-541.5 1005,-541.5 1005,-522.5 1144,-522.5 1144,-541.5"/>
<text text-anchor="middle" x="1074.5" y="-529.5" font-family="Helvetica,sans-Serif" font-size="10.00">SharedSpiCard::readData</text>
</a>
</g>
</g>
<!-- Node5&#45;&gt;Node30 -->
<g id="edge39_Node000005_Node000030" class="edge">
<title>Node5&#45;&gt;Node30</title>
<g id="a_edge39_Node000005_Node000030"><a xlink:title=" ">
<path fill="none" stroke="#63b8ff" d="M894.62,-446.56C914.12,-461.53 954.12,-490.59 992,-508 1001.65,-512.43 1012.32,-516.27 1022.67,-519.5"/>
<polygon fill="#63b8ff" stroke="#63b8ff" points="1021.87,-522.91 1032.45,-522.41 1023.86,-516.2 1021.87,-522.91"/>
</a>
</g>
</g>
<!-- Node31 -->
<g id="Node000031" class="node">
<title>Node31</title>
<g id="a_Node000031"><a xlink:href="../../d8/d7f/classSharedSpiCard_a7dac2190763d7b4b72163ed7131e8a87.xhtml#a7dac2190763d7b4b72163ed7131e8a87" target="_top" xlink:title=" ">
<polygon fill="white" stroke="#666666" points="1132.5,-427.5 1016.5,-427.5 1016.5,-408.5 1132.5,-408.5 1132.5,-427.5"/>
<text text-anchor="middle" x="1074.5" y="-415.5" font-family="Helvetica,sans-Serif" font-size="10.00">SharedSpiCard::type</text>
</a>
</g>
</g>
<!-- Node5&#45;&gt;Node31 -->
<g id="edge42_Node000005_Node000031" class="edge">
<title>Node5&#45;&gt;Node31</title>
<g id="a_edge42_Node000005_Node000031"><a xlink:title=" ">
<path fill="none" stroke="#63b8ff" d="M954.71,-429.82C971.59,-428.14 989.51,-426.35 1006.17,-424.7"/>
<polygon fill="#63b8ff" stroke="#63b8ff" points="1006.76,-428.16 1016.37,-423.68 1006.07,-421.19 1006.76,-428.16"/>
</a>
</g>
</g>
<!-- Node7 -->
<g id="Node000007" class="node">
<title>Node7</title>
<g id="a_Node000007"><a xlink:href="../../d8/d7f/classSharedSpiCard_a08363209d938db87521cca6a84146041.xhtml#a08363209d938db87521cca6a84146041" target="_top" xlink:title=" ">
<polygon fill="white" stroke="#666666" points="1893,-79.5 1746,-79.5 1746,-60.5 1893,-60.5 1893,-79.5"/>
<text text-anchor="middle" x="1819.5" y="-67.5" font-family="Helvetica,sans-Serif" font-size="10.00">SharedSpiCard::spiReceive</text>
</a>
</g>
</g>
<!-- Node6&#45;&gt;Node7 -->
<g id="edge6_Node000006_Node000007" class="edge">
<title>Node6&#45;&gt;Node7</title>
<g id="a_edge6_Node000006_Node000007"><a xlink:title=" ">
<path fill="none" stroke="#63b8ff" d="M1084.76,-199.34C1103.27,-180.72 1147.07,-140.19 1193,-123 1377.4,-53.97 1613.07,-55.98 1735.8,-63.14"/>
<polygon fill="#63b8ff" stroke="#63b8ff" points="1735.68,-66.64 1745.87,-63.75 1736.11,-59.65 1735.68,-66.64"/>
</a>
</g>
</g>
<!-- Node9 -->
<g id="Node000009" class="node">
<title>Node9</title>
<g id="a_Node000009"><a xlink:href="../../d8/d7f/classSharedSpiCard_ab311b9ad8a250f06afbe091f7abb118b.xhtml#ab311b9ad8a250f06afbe091f7abb118b" target="_top" xlink:title=" ">
<polygon fill="white" stroke="#666666" points="1885.5,-237.5 1753.5,-237.5 1753.5,-218.5 1885.5,-218.5 1885.5,-237.5"/>
<text text-anchor="middle" x="1819.5" y="-225.5" font-family="Helvetica,sans-Serif" font-size="10.00">SharedSpiCard::spiSend</text>
</a>
</g>
</g>
<!-- Node6&#45;&gt;Node9 -->
<g id="edge8_Node000006_Node000009" class="edge">
<title>Node6&#45;&gt;Node9</title>
<g id="a_edge8_Node000006_Node000009"><a xlink:title=" ">
<path fill="none" stroke="#63b8ff" d="M1157.22,-207.76C1246.59,-206.74 1394.02,-206.02 1521,-210 1596.66,-212.37 1682.99,-217.91 1743.1,-222.22"/>
<polygon fill="#63b8ff" stroke="#63b8ff" points="1743.03,-225.73 1753.26,-222.96 1743.54,-218.74 1743.03,-225.73"/>
</a>
</g>
</g>
<!-- Node11 -->
<g id="Node000011" class="node">
<title>Node11</title>
<g id="a_Node000011"><a xlink:href="../../d8/d7f/classSharedSpiCard_aef2dfa72e8d5643c90720f9f8c6a4254.xhtml#aef2dfa72e8d5643c90720f9f8c6a4254" target="_top" xlink:title=" ">
<polygon fill="white" stroke="#666666" points="1695.5,-161.5 1564.5,-161.5 1564.5,-142.5 1695.5,-142.5 1695.5,-161.5"/>
<text text-anchor="middle" x="1630" y="-149.5" font-family="Helvetica,sans-Serif" font-size="10.00">SharedSpiCard::spiStart</text>
</a>
</g>
</g>
<!-- Node6&#45;&gt;Node11 -->
<g id="edge10_Node000006_Node000011" class="edge">
<title>Node6&#45;&gt;Node11</title>
<g id="a_edge10_Node000006_Node000011"><a xlink:title=" ">
<path fill="none" stroke="#63b8ff" d="M1103.13,-199.39C1126.69,-191.64 1161.65,-181.2 1193,-176 1318.53,-155.18 1466.89,-151.34 1554.17,-151.17"/>
<polygon fill="#63b8ff" stroke="#63b8ff" points="1554.25,-154.67 1564.25,-151.17 1554.25,-147.67 1554.25,-154.67"/>
</a>
</g>
</g>
<!-- Node18 -->
<g id="Node000018" class="node">
<title>Node18</title>
<g id="a_Node000018"><a xlink:href="../../d8/d7f/classSharedSpiCard_a2f181b3d6f27413a0f5ee883dfd94d87.xhtml#a2f181b3d6f27413a0f5ee883dfd94d87" target="_top" xlink:title=" ">
<polygon fill="white" stroke="#666666" points="1343,-237.5 1193,-237.5 1193,-218.5 1343,-218.5 1343,-237.5"/>
<text text-anchor="middle" x="1268" y="-225.5" font-family="Helvetica,sans-Serif" font-size="10.00">SharedSpiCard::syncDevice</text>
</a>
</g>
</g>
<!-- Node6&#45;&gt;Node18 -->
<g id="edge18_Node000006_Node000018" class="edge">
<title>Node6&#45;&gt;Node18</title>
<g id="a_edge18_Node000006_Node000018"><a xlink:title=" ">
<path fill="none" stroke="#63b8ff" d="M1157.27,-217.11C1165.65,-217.94 1174.18,-218.79 1182.59,-219.63"/>
<polygon fill="#63b8ff" stroke="#63b8ff" points="1182.48,-223.13 1192.78,-220.64 1183.17,-216.17 1182.48,-223.13"/>
</a>
</g>
</g>
<!-- Node26 -->
<g id="Node000026" class="node">
<title>Node26</title>
<g id="a_Node000026"><a xlink:href="../../d8/d7f/classSharedSpiCard_ab3468397bb3b12d29dd2f31e45b3dcaf.xhtml#ab3468397bb3b12d29dd2f31e45b3dcaf" target="_top" xlink:title=" ">
<polygon fill="white" stroke="#666666" points="1703,-123.5 1557,-123.5 1557,-104.5 1703,-104.5 1703,-123.5"/>
<text text-anchor="middle" x="1630" y="-111.5" font-family="Helvetica,sans-Serif" font-size="10.00">SharedSpiCard::waitReady</text>
</a>
</g>
</g>
<!-- Node6&#45;&gt;Node26 -->
<g id="edge37_Node000006_Node000026" class="edge">
<title>Node6&#45;&gt;Node26</title>
<g id="a_edge37_Node000006_Node000026"><a xlink:title=" ">
<path fill="none" stroke="#63b8ff" d="M1091.57,-199.48C1113.61,-186.93 1154.84,-165.24 1193,-155 1313.2,-122.73 1457.94,-114.97 1546.7,-113.56"/>
<polygon fill="#63b8ff" stroke="#63b8ff" points="1546.76,-117.06 1556.71,-113.43 1546.66,-110.06 1546.76,-117.06"/>
</a>
</g>
</g>
<!-- Node8 -->
<g id="Node000008" class="node">
<title>Node8</title>
<g id="a_Node000008"><a xlink:href="../../d0/d25/classSdSpiArduinoDriver_a8d6bc852a52e9d69c4b1e48ee062e8d1.xhtml#a8d6bc852a52e9d69c4b1e48ee062e8d1" target="_top" xlink:title=" ">
<polygon fill="white" stroke="#666666" points="2047,-83 1936,-83 1936,-53 2047,-53 2047,-83"/>
<text text-anchor="start" x="1944" y="-71" font-family="Helvetica,sans-Serif" font-size="10.00">SdSpiArduinoDriver</text>
<text text-anchor="middle" x="1991.5" y="-60" font-family="Helvetica,sans-Serif" font-size="10.00">::receive</text>
</a>
</g>
</g>
<!-- Node7&#45;&gt;Node8 -->
<g id="edge7_Node000007_Node000008" class="edge">
<title>Node7&#45;&gt;Node8</title>
<g id="a_edge7_Node000007_Node000008"><a xlink:title=" ">
<path fill="none" stroke="#63b8ff" d="M1893.09,-69.15C1903.96,-69.02 1915.11,-68.89 1925.81,-68.76"/>
<polygon fill="#63b8ff" stroke="#63b8ff" points="1925.94,-72.26 1935.9,-68.64 1925.86,-65.26 1925.94,-72.26"/>
</a>
</g>
</g>
<!-- Node10 -->
<g id="Node000010" class="node">
<title>Node10</title>
<g id="a_Node000010"><a xlink:href="../../d0/d25/classSdSpiArduinoDriver_a3c4842e47f98fe5d3799cd6028778ab5.xhtml#a3c4842e47f98fe5d3799cd6028778ab5" target="_top" xlink:title=" ">
<polygon fill="white" stroke="#666666" points="2047,-255 1936,-255 1936,-225 2047,-225 2047,-255"/>
<text text-anchor="start" x="1944" y="-243" font-family="Helvetica,sans-Serif" font-size="10.00">SdSpiArduinoDriver</text>
<text text-anchor="middle" x="1991.5" y="-232" font-family="Helvetica,sans-Serif" font-size="10.00">::send</text>
</a>
</g>
</g>
<!-- Node9&#45;&gt;Node10 -->
<g id="edge9_Node000009_Node000010" class="edge">
<title>Node9&#45;&gt;Node10</title>
<g id="a_edge9_Node000009_Node000010"><a xlink:title=" ">
<path fill="none" stroke="#63b8ff" d="M1885.74,-232.61C1898.82,-233.53 1912.56,-234.5 1925.62,-235.42"/>
<polygon fill="#63b8ff" stroke="#63b8ff" points="1925.71,-238.94 1935.93,-236.15 1926.2,-231.95 1925.71,-238.94"/>
</a>
</g>
</g>
<!-- Node11&#45;&gt;Node9 -->
<g id="edge17_Node000011_Node000009" class="edge">
<title>Node11&#45;&gt;Node9</title>
<g id="a_edge17_Node000011_Node000009"><a xlink:title=" ">
<path fill="none" stroke="#63b8ff" d="M1669.72,-161.51C1680.9,-165.14 1692.82,-169.91 1703,-176 1721.88,-187.3 1719.58,-199.65 1739,-210 1742.48,-211.86 1746.15,-213.52 1749.92,-215.02"/>
<polygon fill="#63b8ff" stroke="#63b8ff" points="1748.87,-218.36 1759.46,-218.39 1751.2,-211.76 1748.87,-218.36"/>
</a>
</g>
</g>
<!-- Node12 -->
<g id="Node000012" class="node">
<title>Node12</title>
<g id="a_Node000012"><a xlink:href="../../d8/d7f/classSharedSpiCard_a69ee2fe49dfaeea2347d8a265806d2b6.xhtml#a69ee2fe49dfaeea2347d8a265806d2b6" target="_top" xlink:title=" ">
<polygon fill="white" stroke="#666666" points="1894,-162.5 1745,-162.5 1745,-143.5 1894,-143.5 1894,-162.5"/>
<text text-anchor="middle" x="1819.5" y="-150.5" font-family="Helvetica,sans-Serif" font-size="10.00">SharedSpiCard::spiActivate</text>
</a>
</g>
</g>
<!-- Node11&#45;&gt;Node12 -->
<g id="edge11_Node000011_Node000012" class="edge">
<title>Node11&#45;&gt;Node12</title>
<g id="a_edge11_Node000011_Node000012"><a xlink:title=" ">
<path fill="none" stroke="#63b8ff" d="M1695.53,-152.34C1708.19,-152.41 1721.64,-152.48 1734.82,-152.55"/>
<polygon fill="#63b8ff" stroke="#63b8ff" points="1734.82,-156.05 1744.84,-152.61 1734.86,-149.05 1734.82,-156.05"/>
</a>
</g>
</g>
<!-- Node14 -->
<g id="Node000014" class="node">
<title>Node14</title>
<g id="a_Node000014"><a xlink:href="../../d8/d7f/classSharedSpiCard_a8c3088599862ff6e84ae79bfdf32aea8.xhtml#a8c3088599862ff6e84ae79bfdf32aea8" target="_top" xlink:title=" ">
<polygon fill="white" stroke="#666666" points="1888.5,-200.5 1750.5,-200.5 1750.5,-181.5 1888.5,-181.5 1888.5,-200.5"/>
<text text-anchor="middle" x="1819.5" y="-188.5" font-family="Helvetica,sans-Serif" font-size="10.00">SharedSpiCard::spiSelect</text>
</a>
</g>
</g>
<!-- Node11&#45;&gt;Node14 -->
<g id="edge13_Node000011_Node000014" class="edge">
<title>Node11&#45;&gt;Node14</title>
<g id="a_edge13_Node000011_Node000014"><a xlink:title=" ">
<path fill="none" stroke="#63b8ff" d="M1676.87,-161.54C1702.84,-166.94 1735.52,-173.74 1762.94,-179.44"/>
<polygon fill="#63b8ff" stroke="#63b8ff" points="1762.28,-182.88 1772.78,-181.49 1763.7,-176.03 1762.28,-182.88"/>
</a>
</g>
</g>
<!-- Node13 -->
<g id="Node000013" class="node">
<title>Node13</title>
<g id="a_Node000013"><a xlink:href="../../d0/d25/classSdSpiArduinoDriver_abb6b88c5c8b87fc344a69f23f6eab3d9.xhtml#abb6b88c5c8b87fc344a69f23f6eab3d9" target="_top" xlink:title=" ">
<polygon fill="white" stroke="#666666" points="2047,-169 1936,-169 1936,-139 2047,-139 2047,-169"/>
<text text-anchor="start" x="1944" y="-157" font-family="Helvetica,sans-Serif" font-size="10.00">SdSpiArduinoDriver</text>
<text text-anchor="middle" x="1991.5" y="-146" font-family="Helvetica,sans-Serif" font-size="10.00">::activate</text>
</a>
</g>
</g>
<!-- Node12&#45;&gt;Node13 -->
<g id="edge12_Node000012_Node000013" class="edge">
<title>Node12&#45;&gt;Node13</title>
<g id="a_edge12_Node000012_Node000013"><a xlink:title=" ">
<path fill="none" stroke="#63b8ff" d="M1894.08,-153.43C1904.57,-153.49 1915.31,-153.56 1925.63,-153.62"/>
<polygon fill="#63b8ff" stroke="#63b8ff" points="1925.76,-157.12 1935.78,-153.68 1925.8,-150.12 1925.76,-157.12"/>
</a>
</g>
</g>
<!-- Node15 -->
<g id="Node000015" class="node">
<title>Node15</title>
<g id="a_Node000015"><a xlink:href="../../d2/df0/SdSpiChipSelect_8cpp_ac469bbe2d31ffde9b00ffc68258d7428.xhtml#ac469bbe2d31ffde9b00ffc68258d7428" target="_top" xlink:title=" ">
<polygon fill="white" stroke="#666666" points="2024.5,-206.5 1958.5,-206.5 1958.5,-187.5 2024.5,-187.5 2024.5,-206.5"/>
<text text-anchor="middle" x="1991.5" y="-194.5" font-family="Helvetica,sans-Serif" font-size="10.00">sdCsWrite</text>
</a>
</g>
</g>
<!-- Node14&#45;&gt;Node15 -->
<g id="edge14_Node000014_Node000015" class="edge">
<title>Node14&#45;&gt;Node15</title>
<g id="a_edge14_Node000014_Node000015"><a xlink:title=" ">
<path fill="none" stroke="#63b8ff" d="M1888.67,-193.41C1908.74,-194.11 1930.12,-194.87 1948.09,-195.5"/>
<polygon fill="#63b8ff" stroke="#63b8ff" points="1948.11,-199.01 1958.23,-195.86 1948.36,-192.01 1948.11,-199.01"/>
</a>
</g>
</g>
<!-- Node16 -->
<g id="Node000016" class="node">
<title>Node16</title>
<g id="a_Node000016"><a xlink:href="../../d5/d45/wiring__digital_8c_a73b9b61feeaf7d790d107f2954a7fd93.xhtml#a73b9b61feeaf7d790d107f2954a7fd93" target="_top" xlink:title=" ">
<polygon fill="white" stroke="#666666" points="2157,-206.5 2083,-206.5 2083,-187.5 2157,-187.5 2157,-206.5"/>
<text text-anchor="middle" x="2120" y="-194.5" font-family="Helvetica,sans-Serif" font-size="10.00">digitalWrite</text>
</a>
</g>
</g>
<!-- Node15&#45;&gt;Node16 -->
<g id="edge15_Node000015_Node000016" class="edge">
<title>Node15&#45;&gt;Node16</title>
<g id="a_edge15_Node000015_Node000016"><a xlink:title=" ">
<path fill="none" stroke="#63b8ff" d="M2024.75,-197C2039.28,-197 2056.71,-197 2072.61,-197"/>
<polygon fill="#63b8ff" stroke="#63b8ff" points="2072.79,-200.5 2082.79,-197 2072.79,-193.5 2072.79,-200.5"/>
</a>
</g>
</g>
<!-- Node17 -->
<g id="Node000017" class="node">
<title>Node17</title>
<g id="a_Node000017"><a xlink:href="../../d5/d45/wiring__digital_8c_ae3d0bcbe4eb927ca8f5d5c21b7e4f224.xhtml#ae3d0bcbe4eb927ca8f5d5c21b7e4f224" target="_top" xlink:title=" ">
<polygon fill="white" stroke="#666666" points="2268,-206.5 2193,-206.5 2193,-187.5 2268,-187.5 2268,-206.5"/>
<text text-anchor="middle" x="2230.5" y="-194.5" font-family="Helvetica,sans-Serif" font-size="10.00">turnOffPWM</text>
</a>
</g>
</g>
<!-- Node16&#45;&gt;Node17 -->
<g id="edge16_Node000016_Node000017" class="edge">
<title>Node16&#45;&gt;Node17</title>
<g id="a_edge16_Node000016_Node000017"><a xlink:title=" ">
<path fill="none" stroke="#63b8ff" d="M2157.13,-197C2165.28,-197 2174.05,-197 2182.57,-197"/>
<polygon fill="#63b8ff" stroke="#63b8ff" points="2182.79,-200.5 2192.79,-197 2182.79,-193.5 2182.79,-200.5"/>
</a>
</g>
</g>
<!-- Node19 -->
<g id="Node000019" class="node">
<title>Node19</title>
<g id="a_Node000019"><a xlink:href="../../d8/d7f/classSharedSpiCard_ab33ad2aefbb9cff905cad0879dffc78b.xhtml#ab33ad2aefbb9cff905cad0879dffc78b" target="_top" xlink:title=" ">
<polygon fill="white" stroke="#666666" points="1518.5,-274.5 1381.5,-274.5 1381.5,-255.5 1518.5,-255.5 1518.5,-274.5"/>
<text text-anchor="middle" x="1450" y="-262.5" font-family="Helvetica,sans-Serif" font-size="10.00">SharedSpiCard::readStop</text>
</a>
</g>
</g>
<!-- Node18&#45;&gt;Node19 -->
<g id="edge19_Node000018_Node000019" class="edge">
<title>Node18&#45;&gt;Node19</title>
<g id="a_edge19_Node000018_Node000019"><a xlink:title=" ">
<path fill="none" stroke="#63b8ff" d="M1315.35,-237.53C1338.88,-242.36 1367.66,-248.28 1392.48,-253.38"/>
<polygon fill="#63b8ff" stroke="#63b8ff" points="1391.99,-256.85 1402.49,-255.44 1393.4,-250 1391.99,-256.85"/>
</a>
</g>
</g>
<!-- Node25 -->
<g id="Node000025" class="node">
<title>Node25</title>
<g id="a_Node000025"><a xlink:href="../../d8/d7f/classSharedSpiCard_ae9a34a573077e43e7c6028a16ae77fb3.xhtml#ae9a34a573077e43e7c6028a16ae77fb3" target="_top" xlink:title=" ">
<polygon fill="white" stroke="#666666" points="1520,-237.5 1380,-237.5 1380,-218.5 1520,-218.5 1520,-237.5"/>
<text text-anchor="middle" x="1450" y="-225.5" font-family="Helvetica,sans-Serif" font-size="10.00">SharedSpiCard::writeStop</text>
</a>
</g>
</g>
<!-- Node18&#45;&gt;Node25 -->
<g id="edge28_Node000018_Node000025" class="edge">
<title>Node18&#45;&gt;Node25</title>
<g id="a_edge28_Node000018_Node000025"><a xlink:title=" ">
<path fill="none" stroke="#63b8ff" d="M1343.25,-228C1351.95,-228 1360.86,-228 1369.62,-228"/>
<polygon fill="#63b8ff" stroke="#63b8ff" points="1369.83,-231.5 1379.83,-228 1369.83,-224.5 1369.83,-231.5"/>
</a>
</g>
</g>
<!-- Node19&#45;&gt;Node6 -->
<g id="edge20_Node000019_Node000006" class="edge">
<title>Node19&#45;&gt;Node6</title>
<g id="a_edge20_Node000019_Node000006"><a xlink:title=" ">
<path fill="none" stroke="#63b8ff" d="M1381.31,-264.7C1329.37,-263.39 1256.09,-259.23 1193,-247 1163.9,-241.36 1131.96,-230.73 1108.74,-222.14"/>
<polygon fill="#63b8ff" stroke="#63b8ff" points="1109.95,-218.86 1099.35,-218.61 1107.48,-225.41 1109.95,-218.86"/>
</a>
</g>
</g>
<!-- Node19&#45;&gt;Node20 -->
<g id="edge21_Node000019_Node000020" class="edge">
<title>Node19&#45;&gt;Node20</title>
<g id="a_edge21_Node000019_Node000020"><a xlink:title=" ">
<path fill="none" stroke="#63b8ff" d="M1473.54,-274.63C1504.84,-287.99 1561.61,-312.23 1597.2,-327.42"/>
<polygon fill="#63b8ff" stroke="#63b8ff" points="1596.07,-330.74 1606.64,-331.45 1598.82,-324.31 1596.07,-330.74"/>
</a>
</g>
</g>
<!-- Node19&#45;&gt;Node21 -->
<g id="edge22_Node000019_Node000021" class="edge">
<title>Node19&#45;&gt;Node21</title>
<g id="a_edge22_Node000019_Node000021"><a xlink:title=" ">
<path fill="none" stroke="#63b8ff" d="M1518.55,-272.21C1530.38,-273.47 1542.75,-274.79 1554.75,-276.07"/>
<polygon fill="#63b8ff" stroke="#63b8ff" points="1554.41,-279.56 1564.73,-277.14 1555.16,-272.6 1554.41,-279.56"/>
</a>
</g>
</g>
<!-- Node21&#45;&gt;Node9 -->
<g id="edge25_Node000021_Node000009" class="edge">
<title>Node21&#45;&gt;Node9</title>
<g id="a_edge25_Node000021_Node000009"><a xlink:title=" ">
<path fill="none" stroke="#63b8ff" d="M1656.53,-274.48C1678.28,-266.56 1710.45,-255.28 1739,-247 1747.52,-244.53 1756.61,-242.13 1765.5,-239.92"/>
<polygon fill="#63b8ff" stroke="#63b8ff" points="1766.51,-243.28 1775.39,-237.51 1764.85,-236.48 1766.51,-243.28"/>
</a>
</g>
</g>
<!-- Node22 -->
<g id="Node000022" class="node">
<title>Node22</title>
<g id="a_Node000022"><a xlink:href="../../d8/d7f/classSharedSpiCard_ac6acfca5a23337977d2e4436ab8ab39a.xhtml#ac6acfca5a23337977d2e4436ab8ab39a" target="_top" xlink:title=" ">
<polygon fill="white" stroke="#666666" points="1900,-311.5 1739,-311.5 1739,-292.5 1900,-292.5 1900,-311.5"/>
<text text-anchor="middle" x="1819.5" y="-299.5" font-family="Helvetica,sans-Serif" font-size="10.00">SharedSpiCard::spiDeactivate</text>
</a>
</g>
</g>
<!-- Node21&#45;&gt;Node22 -->
<g id="edge23_Node000021_Node000022" class="edge">
<title>Node21&#45;&gt;Node22</title>
<g id="a_edge23_Node000021_Node000022"><a xlink:title=" ">
<path fill="none" stroke="#63b8ff" d="M1695,-290.14C1705.92,-291.19 1717.43,-292.3 1728.86,-293.39"/>
<polygon fill="#63b8ff" stroke="#63b8ff" points="1728.58,-296.88 1738.87,-294.36 1729.25,-289.92 1728.58,-296.88"/>
</a>
</g>
</g>
<!-- Node24 -->
<g id="Node000024" class="node">
<title>Node24</title>
<g id="a_Node000024"><a xlink:href="../../d8/d7f/classSharedSpiCard_ad06a3278372300987b97876cf598c114.xhtml#ad06a3278372300987b97876cf598c114" target="_top" xlink:title=" ">
<polygon fill="white" stroke="#666666" points="1895,-274.5 1744,-274.5 1744,-255.5 1895,-255.5 1895,-274.5"/>
<text text-anchor="middle" x="1819.5" y="-262.5" font-family="Helvetica,sans-Serif" font-size="10.00">SharedSpiCard::spiUnselect</text>
</a>
</g>
</g>
<!-- Node21&#45;&gt;Node24 -->
<g id="edge26_Node000021_Node000024" class="edge">
<title>Node21&#45;&gt;Node24</title>
<g id="a_edge26_Node000021_Node000024"><a xlink:title=" ">
<path fill="none" stroke="#63b8ff" d="M1695,-277.51C1707.39,-276.26 1720.55,-274.93 1733.49,-273.61"/>
<polygon fill="#63b8ff" stroke="#63b8ff" points="1734.21,-277.06 1743.8,-272.57 1733.5,-270.1 1734.21,-277.06"/>
</a>
</g>
</g>
<!-- Node23 -->
<g id="Node000023" class="node">
<title>Node23</title>
<g id="a_Node000023"><a xlink:href="../../d0/d25/classSdSpiArduinoDriver_ae88a255f533e3acb41d1221025a69b55.xhtml#ae88a255f533e3acb41d1221025a69b55" target="_top" xlink:title=" ">
<polygon fill="white" stroke="#666666" points="2047,-317 1936,-317 1936,-287 2047,-287 2047,-317"/>
<text text-anchor="start" x="1944" y="-305" font-family="Helvetica,sans-Serif" font-size="10.00">SdSpiArduinoDriver</text>
<text text-anchor="middle" x="1991.5" y="-294" font-family="Helvetica,sans-Serif" font-size="10.00">::deactivate</text>
</a>
</g>
</g>
<!-- Node22&#45;&gt;Node23 -->
<g id="edge24_Node000022_Node000023" class="edge">
<title>Node22&#45;&gt;Node23</title>
<g id="a_edge24_Node000022_Node000023"><a xlink:title=" ">
<path fill="none" stroke="#63b8ff" d="M1900.02,-302C1908.63,-302 1917.3,-302 1925.7,-302"/>
<polygon fill="#63b8ff" stroke="#63b8ff" points="1925.78,-305.5 1935.78,-302 1925.78,-298.5 1925.78,-305.5"/>
</a>
</g>
</g>
<!-- Node24&#45;&gt;Node15 -->
<g id="edge27_Node000024_Node000015" class="edge">
<title>Node24&#45;&gt;Node15</title>
<g id="a_edge27_Node000024_Node000015"><a xlink:title=" ">
<path fill="none" stroke="#63b8ff" d="M1878.13,-255.49C1885.69,-253.23 1893.18,-250.44 1900,-247 1918.86,-237.5 1917.71,-226.55 1936,-216 1940.12,-213.62 1944.59,-211.47 1949.14,-209.55"/>
<polygon fill="#63b8ff" stroke="#63b8ff" points="1950.43,-212.8 1958.49,-205.91 1947.9,-206.27 1950.43,-212.8"/>
</a>
</g>
</g>
<!-- Node25&#45;&gt;Node9 -->
<g id="edge30_Node000025_Node000009" class="edge">
<title>Node25&#45;&gt;Node9</title>
<g id="a_edge30_Node000025_Node000009"><a xlink:title=" ">
<path fill="none" stroke="#63b8ff" d="M1520.12,-228C1583.67,-228 1677.68,-228 1743.14,-228"/>
<polygon fill="#63b8ff" stroke="#63b8ff" points="1743.39,-231.5 1753.39,-228 1743.39,-224.5 1743.39,-231.5"/>
</a>
</g>
</g>
<!-- Node25&#45;&gt;Node20 -->
<g id="edge29_Node000025_Node000020" class="edge">
<title>Node25&#45;&gt;Node20</title>
<g id="a_edge29_Node000025_Node000020"><a xlink:title=" ">
<path fill="none" stroke="#63b8ff" d="M1503.45,-237.59C1509.69,-240.05 1515.72,-243.13 1521,-247 1544.87,-264.49 1535.2,-282.99 1557,-303 1567.79,-312.9 1581.63,-321.01 1594.3,-327.16"/>
<polygon fill="#63b8ff" stroke="#63b8ff" points="1593.13,-330.48 1603.68,-331.47 1596.06,-324.12 1593.13,-330.48"/>
</a>
</g>
</g>
<!-- Node25&#45;&gt;Node21 -->
<g id="edge31_Node000025_Node000021" class="edge">
<title>Node25&#45;&gt;Node21</title>
<g id="a_edge31_Node000025_Node000021"><a xlink:title=" ">
<path fill="none" stroke="#63b8ff" d="M1487.82,-237.51C1498.56,-240.42 1510.29,-243.71 1521,-247 1545.21,-254.42 1572.16,-263.65 1593.08,-271.04"/>
<polygon fill="#63b8ff" stroke="#63b8ff" points="1591.93,-274.35 1602.53,-274.39 1594.27,-267.75 1591.93,-274.35"/>
</a>
</g>
</g>
<!-- Node25&#45;&gt;Node26 -->
<g id="edge32_Node000025_Node000026" class="edge">
<title>Node25&#45;&gt;Node26</title>
<g id="a_edge32_Node000025_Node000026"><a xlink:title=" ">
<path fill="none" stroke="#63b8ff" d="M1459.01,-218.44C1475.42,-199.46 1514.87,-156.92 1557,-134 1561.91,-131.33 1567.22,-128.99 1572.64,-126.94"/>
<polygon fill="#63b8ff" stroke="#63b8ff" points="1574.13,-130.13 1582.46,-123.58 1571.86,-123.51 1574.13,-130.13"/>
</a>
</g>
</g>
<!-- Node26&#45;&gt;Node7 -->
<g id="edge33_Node000026_Node000007" class="edge">
<title>Node26&#45;&gt;Node7</title>
<g id="a_edge33_Node000026_Node000007"><a xlink:title=" ">
<path fill="none" stroke="#63b8ff" d="M1671.68,-104.45C1699.94,-97.82 1737.79,-88.94 1767.98,-81.86"/>
<polygon fill="#63b8ff" stroke="#63b8ff" points="1768.96,-85.22 1777.89,-79.53 1767.36,-78.41 1768.96,-85.22"/>
</a>
</g>
</g>
<!-- Node27 -->
<g id="Node000027" class="node">
<title>Node27</title>
<g id="a_Node000027"><a xlink:href="../../db/df4/classTimeout_abbabe99f42e52472ddd3a7e9d22dce95.xhtml#abbabe99f42e52472ddd3a7e9d22dce95" target="_top" xlink:title=" ">
<polygon fill="white" stroke="#666666" points="1874,-121.5 1765,-121.5 1765,-102.5 1874,-102.5 1874,-121.5"/>
<text text-anchor="middle" x="1819.5" y="-109.5" font-family="Helvetica,sans-Serif" font-size="10.00">Timeout::timedOut</text>
</a>
</g>
</g>
<!-- Node26&#45;&gt;Node27 -->
<g id="edge34_Node000026_Node000027" class="edge">
<title>Node26&#45;&gt;Node27</title>
<g id="a_edge34_Node000026_Node000027"><a xlink:title=" ">
<path fill="none" stroke="#63b8ff" d="M1703.22,-113.23C1720.23,-113.05 1738.22,-112.86 1754.82,-112.68"/>
<polygon fill="#63b8ff" stroke="#63b8ff" points="1754.98,-116.18 1764.95,-112.57 1754.91,-109.18 1754.98,-116.18"/>
</a>
</g>
</g>
<!-- Node28 -->
<g id="Node000028" class="node">
<title>Node28</title>
<g id="a_Node000028"><a xlink:href="../../db/df4/classTimeout_a9a72ea0591f11452fb15bfaa1ae5108a.xhtml#a9a72ea0591f11452fb15bfaa1ae5108a" target="_top" xlink:title=" ">
<polygon fill="white" stroke="#666666" points="2042.5,-120.5 1940.5,-120.5 1940.5,-101.5 2042.5,-101.5 2042.5,-120.5"/>
<text text-anchor="middle" x="1991.5" y="-108.5" font-family="Helvetica,sans-Serif" font-size="10.00">Timeout::millis16</text>
</a>
</g>
</g>
<!-- Node27&#45;&gt;Node28 -->
<g id="edge35_Node000027_Node000028" class="edge">
<title>Node27&#45;&gt;Node28</title>
<g id="a_edge35_Node000027_Node000028"><a xlink:title=" ">
<path fill="none" stroke="#63b8ff" d="M1874.29,-111.68C1892.02,-111.58 1911.85,-111.46 1930.04,-111.36"/>
<polygon fill="#63b8ff" stroke="#63b8ff" points="1930.26,-114.85 1940.24,-111.3 1930.22,-107.85 1930.26,-114.85"/>
</a>
</g>
</g>
<!-- Node29 -->
<g id="Node000029" class="node">
<title>Node29</title>
<g id="a_Node000029"><a xlink:href="../../d5/df3/wiring_8c_a6ff7f2532a22366f0013bc41397129fd.xhtml#a6ff7f2532a22366f0013bc41397129fd" target="_top" xlink:title=" ">
<polygon fill="white" stroke="#666666" points="2142,-120.5 2098,-120.5 2098,-101.5 2142,-101.5 2142,-120.5"/>
<text text-anchor="middle" x="2120" y="-108.5" font-family="Helvetica,sans-Serif" font-size="10.00">millis</text>
</a>
</g>
</g>
<!-- Node28&#45;&gt;Node29 -->
<g id="edge36_Node000028_Node000029" class="edge">
<title>Node28&#45;&gt;Node29</title>
<g id="a_edge36_Node000028_Node000029"><a xlink:title=" ">
<path fill="none" stroke="#63b8ff" d="M2042.86,-111C2057.97,-111 2074.11,-111 2087.62,-111"/>
<polygon fill="#63b8ff" stroke="#63b8ff" points="2087.83,-114.5 2097.83,-111 2087.83,-107.5 2087.83,-114.5"/>
</a>
</g>
</g>
<!-- Node30&#45;&gt;Node30 -->
<g id="edge40_Node000030_Node000030" class="edge">
<title>Node30&#45;&gt;Node30</title>
<g id="a_edge40_Node000030_Node000030"><a xlink:title=" ">
<path fill="none" stroke="#63b8ff" d="M1044.91,-541.58C1030.51,-550.23 1040.38,-559.5 1074.5,-559.5 1097.96,-559.5 1109.95,-555.12 1110.48,-549.57"/>
<polygon fill="#63b8ff" stroke="#63b8ff" points="1113.07,-547.21 1104.09,-541.58 1107.61,-551.58 1113.07,-547.21"/>
</a>
</g>
</g>
<!-- Node34 -->
<g id="Node000034" class="node">
<title>Node34</title>
<g id="a_Node000034"><a xlink:href="../../d8/d7f/classSharedSpiCard_adf2ce56ca0a56fe841fbdf75f7f3faee.xhtml#adf2ce56ca0a56fe841fbdf75f7f3faee" target="_top" xlink:title=" ">
<polygon fill="white" stroke="#666666" points="956,-332.5 807,-332.5 807,-313.5 956,-313.5 956,-332.5"/>
<text text-anchor="middle" x="881.5" y="-320.5" font-family="Helvetica,sans-Serif" font-size="10.00">SharedSpiCard::writeSector</text>
</a>
</g>
</g>
<!-- Node33&#45;&gt;Node34 -->
<g id="edge45_Node000033_Node000034" class="edge">
<title>Node33&#45;&gt;Node34</title>
<g id="a_edge45_Node000033_Node000034"><a xlink:title=" ">
<path fill="none" stroke="#63b8ff" d="M767.08,-323C776.32,-323 786.42,-323 796.66,-323"/>
<polygon fill="#63b8ff" stroke="#63b8ff" points="796.93,-326.5 806.93,-323 796.93,-319.5 796.93,-326.5"/>
</a>
</g>
</g>
<!-- Node34&#45;&gt;Node6 -->
<g id="edge46_Node000034_Node000006" class="edge">
<title>Node34&#45;&gt;Node6</title>
<g id="a_edge46_Node000034_Node000006"><a xlink:title=" ">
<path fill="none" stroke="#63b8ff" d="M898.46,-313.48C931.74,-293.61 1008.78,-247.63 1048.63,-223.84"/>
<polygon fill="#63b8ff" stroke="#63b8ff" points="1050.66,-226.71 1057.46,-218.58 1047.07,-220.7 1050.66,-226.71"/>
</a>
</g>
</g>
<!-- Node34&#45;&gt;Node7 -->
<g id="edge48_Node000034_Node000007" class="edge">
<title>Node34&#45;&gt;Node7</title>
<g id="a_edge48_Node000034_Node000007"><a xlink:title=" ">
<path fill="none" stroke="#63b8ff" d="M885.07,-313.32C894.12,-280.92 927.55,-175.05 992,-116 1089.81,-26.39 1134.35,0 1267,0 1267,0 1267,0 1451,0 1572.39,0 1712.42,-37.31 1779.17,-57.45"/>
<polygon fill="#63b8ff" stroke="#63b8ff" points="1778.27,-60.84 1788.85,-60.41 1780.31,-54.15 1778.27,-60.84"/>
</a>
</g>
</g>
<!-- Node34&#45;&gt;Node20 -->
<g id="edge47_Node000034_Node000020" class="edge">
<title>Node34&#45;&gt;Node20</title>
<g id="a_edge47_Node000034_Node000020"><a xlink:title=" ">
<path fill="none" stroke="#63b8ff" d="M919.11,-332.52C1017.24,-356.67 1294.09,-415.79 1521,-378 1548,-373.5 1577.31,-363.09 1598.57,-354.45"/>
<polygon fill="#63b8ff" stroke="#63b8ff" points="1600.14,-357.59 1608.02,-350.51 1597.45,-351.12 1600.14,-357.59"/>
</a>
</g>
</g>
<!-- Node34&#45;&gt;Node21 -->
<g id="edge49_Node000034_Node000021" class="edge">
<title>Node34&#45;&gt;Node21</title>
<g id="a_edge49_Node000034_Node000021"><a xlink:title=" ">
<path fill="none" stroke="#63b8ff" d="M956.12,-319.15C1098.82,-311.7 1411.57,-295.36 1554.76,-287.88"/>
<polygon fill="#63b8ff" stroke="#63b8ff" points="1554.97,-291.37 1564.77,-287.36 1554.6,-284.38 1554.97,-291.37"/>
</a>
</g>
</g>
<!-- Node34&#45;&gt;Node26 -->
<g id="edge51_Node000034_Node000026" class="edge">
<title>Node34&#45;&gt;Node26</title>
<g id="a_edge51_Node000034_Node000026"><a xlink:title=" ">
<path fill="none" stroke="#63b8ff" d="M887.82,-313.49C901.74,-289.42 941.7,-225.58 992,-191 1167.45,-70.39 1435.98,-86.95 1560.81,-103.09"/>
<polygon fill="#63b8ff" stroke="#63b8ff" points="1560.62,-106.6 1571,-104.45 1561.55,-99.66 1560.62,-106.6"/>
</a>
</g>
</g>
<!-- Node34&#45;&gt;Node31 -->
<g id="edge50_Node000034_Node000031" class="edge">
<title>Node34&#45;&gt;Node31</title>
<g id="a_edge50_Node000034_Node000031"><a xlink:title=" ">
<path fill="none" stroke="#63b8ff" d="M894.62,-332.56C914.12,-347.53 954.12,-376.59 992,-394 1001.65,-398.43 1012.32,-402.27 1022.67,-405.5"/>
<polygon fill="#63b8ff" stroke="#63b8ff" points="1021.87,-408.91 1032.45,-408.41 1023.86,-402.2 1021.87,-408.91"/>
</a>
</g>
</g>
<!-- Node35 -->
<g id="Node000035" class="node">
<title>Node35</title>
<g id="a_Node000035"><a xlink:href="../../d8/d7f/classSharedSpiCard_a5b6d7ad34f56d0d6a6c5059d920499ba.xhtml#a5b6d7ad34f56d0d6a6c5059d920499ba" target="_top" xlink:title=" ">
<polygon fill="white" stroke="#666666" points="1521,-350.5 1379,-350.5 1379,-331.5 1521,-331.5 1521,-350.5"/>
<text text-anchor="middle" x="1450" y="-338.5" font-family="Helvetica,sans-Serif" font-size="10.00">SharedSpiCard::writeData</text>
</a>
</g>
</g>
<!-- Node34&#45;&gt;Node35 -->
<g id="edge52_Node000034_Node000035" class="edge">
<title>Node34&#45;&gt;Node35</title>
<g id="a_edge52_Node000034_Node000035"><a xlink:title=" ">
<path fill="none" stroke="#63b8ff" d="M956.27,-325.34C1062.77,-328.73 1258.83,-334.96 1368.8,-338.45"/>
<polygon fill="#63b8ff" stroke="#63b8ff" points="1368.74,-341.95 1378.85,-338.77 1368.96,-334.96 1368.74,-341.95"/>
</a>
</g>
</g>
<!-- Node35&#45;&gt;Node20 -->
<g id="edge53_Node000035_Node000020" class="edge">
<title>Node35&#45;&gt;Node20</title>
<g id="a_edge53_Node000035_Node000020"><a xlink:title=" ">
<path fill="none" stroke="#63b8ff" d="M1521.09,-341C1534.22,-341 1547.92,-341 1560.99,-341"/>
<polygon fill="#63b8ff" stroke="#63b8ff" points="1561.3,-344.5 1571.3,-341 1561.3,-337.5 1561.3,-344.5"/>
</a>
</g>
</g>
<!-- Node35&#45;&gt;Node21 -->
<g id="edge54_Node000035_Node000021" class="edge">
<title>Node35&#45;&gt;Node21</title>
<g id="a_edge54_Node000035_Node000021"><a xlink:title=" ">
<path fill="none" stroke="#63b8ff" d="M1480.79,-331.46C1510.57,-321.92 1556.53,-307.21 1589.37,-296.69"/>
<polygon fill="#63b8ff" stroke="#63b8ff" points="1590.65,-299.95 1599.11,-293.57 1588.52,-293.29 1590.65,-299.95"/>
</a>
</g>
</g>
<!-- Node35&#45;&gt;Node26 -->
<g id="edge55_Node000035_Node000026" class="edge">
<title>Node35&#45;&gt;Node26</title>
<g id="a_edge55_Node000035_Node000026"><a xlink:title=" ">
<path fill="none" stroke="#63b8ff" d="M1468.43,-331.36C1484.54,-321.55 1507.9,-304.83 1521,-284 1557.5,-225.97 1509.39,-183.33 1557,-134 1558.81,-132.12 1560.79,-130.41 1562.88,-128.86"/>
<polygon fill="#63b8ff" stroke="#63b8ff" points="1564.78,-131.81 1571.51,-123.63 1561.14,-125.83 1564.78,-131.81"/>
</a>
</g>
</g>
<!-- Node35&#45;&gt;Node35 -->
<g id="edge56_Node000035_Node000035" class="edge">
<title>Node35&#45;&gt;Node35</title>
<g id="a_edge56_Node000035_Node000035"><a xlink:title=" ">
<path fill="none" stroke="#63b8ff" d="M1422.26,-350.58C1408.76,-359.23 1418.01,-368.5 1450,-368.5 1471.49,-368.5 1482.72,-364.32 1483.68,-358.95"/>
<polygon fill="#63b8ff" stroke="#63b8ff" points="1486.39,-356.71 1477.74,-350.58 1480.68,-360.76 1486.39,-356.71"/>
</a>
</g>
</g>
</g>
</svg>

<g id="navigator" transform="translate(0 0)" fill="#404254">
  <rect fill="#f2f5e9" fill-opacity="0.5" stroke="#606060" stroke-width=".5" x="0" y="0" width="60" height="60"/>
  <use id="zoomplus" xlink:href="#zoomPlus" x="17" y="9" onmousedown="handleZoom(evt,'in')"/>
  <use id="zoomminus" xlink:href="#zoomMin" x="42" y="9" onmousedown="handleZoom(evt,'out')"/>
  <use id="reset" xlink:href="#resetDef" x="30" y="36" onmousedown="handleReset()"/>
   <use id="arrowup" xlink:href="#arrowUp" x="0" y="0" onmousedown="handlePan(0,-1)"/>
  <use id="arrowright" xlink:href="#arrowRight" x="0" y="0" onmousedown="handlePan(1,0)"/>
  <use id="arrowdown" xlink:href="#arrowDown" x="0" y="0" onmousedown="handlePan(0,1)"/>
  <use id="arrowleft" xlink:href="#arrowLeft" x="0" y="0" onmousedown="handlePan(-1,0)"/>
</g>
<svg viewBox="0 0 15 15" width="100%" height="30px" preserveAspectRatio="xMaxYMin meet">
 <g id="arrow_out" transform="scale(0.3 0.3)">
  <a xlink:href="classFatPartition_a5f9aaea22ba30caad191066604c6fc4b_a5f9aaea22ba30caad191066604c6fc4b_cgraph_org.svg" target="_base">
   <rect id="button" ry="5" rx="5" y="6" x="6" height="38" width="38"
        fill="#f2f5e9" fill-opacity="0.5" stroke="#606060" stroke-width="1.0"/>
   <path id="arrow"
     d="M 11.500037,31.436501 C 11.940474,20.09759 22.043105,11.32322 32.158766,21.979434 L 37.068811,17.246167 C 37.068811,17.246167 37.088388,32 37.088388,32 L 22.160133,31.978069 C 22.160133,31.978069 26.997745,27.140456 26.997745,27.140456 C 18.528582,18.264221 13.291696,25.230495 11.500037,31.436501 z"
     style="fill:#404040;"/>
  </a>
 </g>
</svg>

<style type='text/css'>
<![CDATA[
[data-mouse-over-selected='false'] { opacity: 0.7; }
[data-mouse-over-selected='true']  { opacity: 1.0; }
]]>
</style>
<script type="application/ecmascript"><![CDATA[
document.addEventListener('DOMContentLoaded', (event) => {
  highlightEdges();
  highlightAdjacentNodes();
});
]]></script>
</svg>
