<?xml version="1.0" encoding="UTF-8" standalone="no"?>
<!DOCTYPE svg PUBLIC "-//W3C//DTD SVG 1.1//EN"
 "http://www.w3.org/Graphics/SVG/1.1/DTD/svg11.dtd">
<!-- Generated by graphviz version 2.43.0 (0)
 -->
<!-- Title: FatPartition::dataCachePrepare Pages: 1 -->
<!--zoomable 568 -->

<svg id="main" version="1.1" xmlns="http://www.w3.org/2000/svg" xmlns:xlink="http://www.w3.org/1999/xlink" xml:space="preserve" onload="init(evt)">
<style type="text/css"><![CDATA[
.node, .edge {opacity: 0.7;}
.node.selected, .edge.selected {opacity: 1;}
.edge:hover path { stroke: red; }
.edge:hover polygon { stroke: red; fill: red; }
]]></style>

<defs>
  <circle id="rim" cx="0" cy="0" r="7"/>
  <circle id="rim2" cx="0" cy="0" r="3.5"/>
  <g id="zoomPlus">
    <use xlink:href="#rim" fill="#404040"><set attributeName="fill" to="#808080" begin="zoomplus.mouseover" end="zoomplus.mouseout"/></use>
    <path d="M-4,0h8M0,-4v8" fill="none" stroke="white" stroke-width="1.5" pointer-events="none"/>
  </g>
  <g id="zoomMin">
    <use xlink:href="#rim" fill="#404040"><set attributeName="fill" to="#808080" begin="zoomminus.mouseover" end="zoomminus.mouseout"/></use>
    <path d="M-4,0h8" fill="none" stroke="white" stroke-width="1.5" pointer-events="none"/>
  </g>
  <g id="arrowUp" transform="translate(30 24)">
    <use xlink:href="#rim"/>
    <path pointer-events="none" fill="none" stroke="white" stroke-width="1.5" d="M0,-3.0v7 M-2.5,-0.5L0,-3.0L2.5,-0.5"/>
  </g>
  <g id="arrowRight" transform="rotate(90) translate(36 -43)">
    <use xlink:href="#rim"/>
    <path pointer-events="none" fill="none" stroke="white" stroke-width="1.5" d="M0,-3.0v7 M-2.5,-0.5L0,-3.0L2.5,-0.5"/>
  </g>
  <g id="arrowDown" transform="rotate(180) translate(-30 -48)">
    <use xlink:href="#rim"/>
    <path pointer-events="none" fill="none" stroke="white" stroke-width="1.5" d="M0,-3.0v7 M-2.5,-0.5L0,-3.0L2.5,-0.5"/>
  </g>
  <g id="arrowLeft" transform="rotate(270) translate(-36 17)">
    <use xlink:href="#rim"/>
    <path pointer-events="none" fill="none" stroke="white" stroke-width="1.5" d="M0,-3.0v7 M-2.5,-0.5L0,-3.0L2.5,-0.5"/>
  </g>
  <g id="resetDef">
    <use xlink:href="#rim2" fill="#404040"><set attributeName="fill" to="#808080" begin="reset.mouseover" end="reset.mouseout"/></use>
  </g>
</defs>
<script type="application/ecmascript">
var viewWidth = 1939;
var viewHeight = 568;
var sectionId = 'dynsection-0';
</script>
<script type="application/ecmascript" xlink:href="../../svg.min.js"/>
<svg id="graph" class="graph">
<g id="viewport">
<title>FatPartition::dataCachePrepare</title>
<!-- Node1 -->
<g id="Node000001" class="node">
<title>Node1</title>
<g id="a_Node000001"><a xlink:title=" ">
<polygon fill="#999999" stroke="#666666" points="167,-396.5 0,-396.5 0,-377.5 167,-377.5 167,-396.5"/>
<text text-anchor="middle" x="83.5" y="-384.5" font-family="Helvetica,sans-Serif" font-size="10.00">FatPartition::dataCachePrepare</text>
</a>
</g>
</g>
<!-- Node2 -->
<g id="Node000002" class="node">
<title>Node2</title>
<g id="a_Node000002"><a xlink:href="../../dd/db1/classFsCache_a8c11f064a2ce0a380f522392f09d63cb.xhtml#a8c11f064a2ce0a380f522392f09d63cb" target="_top" xlink:title=" ">
<polygon fill="white" stroke="#666666" points="304,-396.5 203,-396.5 203,-377.5 304,-377.5 304,-396.5"/>
<text text-anchor="middle" x="253.5" y="-384.5" font-family="Helvetica,sans-Serif" font-size="10.00">FsCache::prepare</text>
</a>
</g>
</g>
<!-- Node1&#45;&gt;Node2 -->
<g id="edge1_Node000001_Node000002" class="edge">
<title>Node1&#45;&gt;Node2</title>
<g id="a_edge1_Node000001_Node000002"><a xlink:title=" ">
<path fill="none" stroke="#63b8ff" d="M167.02,-387C175.75,-387 184.51,-387 192.9,-387"/>
<polygon fill="#63b8ff" stroke="#63b8ff" points="192.94,-390.5 202.94,-387 192.94,-383.5 192.94,-390.5"/>
</a>
</g>
</g>
<!-- Node3 -->
<g id="Node000003" class="node">
<title>Node3</title>
<g id="a_Node000003"><a xlink:href="../../d8/d7f/classSharedSpiCard_a61d86f4092f8ddbc7339d7cbcf6f70c0.xhtml#a61d86f4092f8ddbc7339d7cbcf6f70c0" target="_top" xlink:title=" ">
<polygon fill="white" stroke="#666666" points="617.5,-446.5 471.5,-446.5 471.5,-427.5 617.5,-427.5 617.5,-446.5"/>
<text text-anchor="middle" x="544.5" y="-434.5" font-family="Helvetica,sans-Serif" font-size="10.00">SharedSpiCard::readSector</text>
</a>
</g>
</g>
<!-- Node2&#45;&gt;Node3 -->
<g id="edge2_Node000002_Node000003" class="edge">
<title>Node2&#45;&gt;Node3</title>
<g id="a_edge2_Node000002_Node000003"><a xlink:title=" ">
<path fill="none" stroke="#63b8ff" d="M294.83,-396.55C309.06,-399.76 325.2,-403.23 340,-406 380.3,-413.54 425.34,-420.54 462.79,-425.98"/>
<polygon fill="#63b8ff" stroke="#63b8ff" points="462.74,-429.51 473.14,-427.47 463.74,-422.58 462.74,-429.51"/>
</a>
</g>
</g>
<!-- Node30 -->
<g id="Node000030" class="node">
<title>Node30</title>
<g id="a_Node000030"><a xlink:href="../../dd/db1/classFsCache_a5b90e145400de8687d9f34536b134130.xhtml#a5b90e145400de8687d9f34536b134130" target="_top" xlink:title=" ">
<polygon fill="white" stroke="#666666" points="434,-396.5 340,-396.5 340,-377.5 434,-377.5 434,-396.5"/>
<text text-anchor="middle" x="387" y="-384.5" font-family="Helvetica,sans-Serif" font-size="10.00">FsCache::sector</text>
</a>
</g>
</g>
<!-- Node2&#45;&gt;Node30 -->
<g id="edge41_Node000002_Node000030" class="edge">
<title>Node2&#45;&gt;Node30</title>
<g id="a_edge41_Node000002_Node000030"><a xlink:title=" ">
<path fill="none" stroke="#63b8ff" d="M304.21,-387C312.49,-387 321.12,-387 329.55,-387"/>
<polygon fill="#63b8ff" stroke="#63b8ff" points="329.68,-390.5 339.68,-387 329.68,-383.5 329.68,-390.5"/>
</a>
</g>
</g>
<!-- Node31 -->
<g id="Node000031" class="node">
<title>Node31</title>
<g id="a_Node000031"><a xlink:href="../../dd/db1/classFsCache_a5a2c8fb432d7b7590ebb43200ca21893.xhtml#a5a2c8fb432d7b7590ebb43200ca21893" target="_top" xlink:title=" ">
<polygon fill="white" stroke="#666666" points="430,-340.5 344,-340.5 344,-321.5 430,-321.5 430,-340.5"/>
<text text-anchor="middle" x="387" y="-328.5" font-family="Helvetica,sans-Serif" font-size="10.00">FsCache::sync</text>
</a>
</g>
</g>
<!-- Node2&#45;&gt;Node31 -->
<g id="edge42_Node000002_Node000031" class="edge">
<title>Node2&#45;&gt;Node31</title>
<g id="a_edge42_Node000002_Node000031"><a xlink:title=" ">
<path fill="none" stroke="#63b8ff" d="M277.11,-377.37C298.4,-368.3 330.52,-354.63 354.36,-344.48"/>
<polygon fill="#63b8ff" stroke="#63b8ff" points="355.86,-347.64 363.69,-340.5 353.12,-341.2 355.86,-347.64"/>
</a>
</g>
</g>
<!-- Node4 -->
<g id="Node000004" class="node">
<title>Node4</title>
<g id="a_Node000004"><a xlink:href="../../d8/d7f/classSharedSpiCard_adda33199753fc2aec74fe317cbaabc06.xhtml#adda33199753fc2aec74fe317cbaabc06" target="_top" xlink:title=" ">
<polygon fill="white" stroke="#666666" points="820,-218.5 655,-218.5 655,-199.5 820,-199.5 820,-218.5"/>
<text text-anchor="middle" x="737.5" y="-206.5" font-family="Helvetica,sans-Serif" font-size="10.00">SharedSpiCard::cardCommand</text>
</a>
</g>
</g>
<!-- Node3&#45;&gt;Node4 -->
<g id="edge3_Node000003_Node000004" class="edge">
<title>Node3&#45;&gt;Node4</title>
<g id="a_edge3_Node000003_Node000004"><a xlink:title=" ">
<path fill="none" stroke="#63b8ff" d="M553.46,-427.49C582.65,-392.66 684.01,-271.66 721.99,-226.33"/>
<polygon fill="#63b8ff" stroke="#63b8ff" points="724.76,-228.46 728.5,-218.55 719.4,-223.97 724.76,-228.46"/>
</a>
</g>
</g>
<!-- Node18 -->
<g id="Node000018" class="node">
<title>Node18</title>
<g id="a_Node000018"><a xlink:href="../../d8/d7f/classSharedSpiCard_a747c3f0b962098cf0c097f3c4c2b4fd4.xhtml#a747c3f0b962098cf0c097f3c4c2b4fd4" target="_top" xlink:title=" ">
<polygon fill="white" stroke="#666666" points="1351.5,-350.5 1234.5,-350.5 1234.5,-331.5 1351.5,-331.5 1351.5,-350.5"/>
<text text-anchor="middle" x="1293" y="-338.5" font-family="Helvetica,sans-Serif" font-size="10.00">SharedSpiCard::error</text>
</a>
</g>
</g>
<!-- Node3&#45;&gt;Node18 -->
<g id="edge36_Node000003_Node000018" class="edge">
<title>Node3&#45;&gt;Node18</title>
<g id="a_edge36_Node000003_Node000018"><a xlink:title=" ">
<path fill="none" stroke="#63b8ff" d="M571.48,-446.6C661.56,-478.21 966.76,-571.45 1184,-470 1233,-447.12 1267.62,-389.85 1283.03,-359.91"/>
<polygon fill="#63b8ff" stroke="#63b8ff" points="1286.36,-361.07 1287.67,-350.56 1280.09,-357.96 1286.36,-361.07"/>
</a>
</g>
</g>
<!-- Node19 -->
<g id="Node000019" class="node">
<title>Node19</title>
<g id="a_Node000019"><a xlink:href="../../d8/d7f/classSharedSpiCard_a0f511c39c50055a4fc97e720933aee3a.xhtml#a0f511c39c50055a4fc97e720933aee3a" target="_top" xlink:title=" ">
<polygon fill="white" stroke="#666666" points="1358,-293.5 1228,-293.5 1228,-274.5 1358,-274.5 1358,-293.5"/>
<text text-anchor="middle" x="1293" y="-281.5" font-family="Helvetica,sans-Serif" font-size="10.00">SharedSpiCard::spiStop</text>
</a>
</g>
</g>
<!-- Node3&#45;&gt;Node19 -->
<g id="edge39_Node000003_Node000019" class="edge">
<title>Node3&#45;&gt;Node19</title>
<g id="a_edge39_Node000003_Node000019"><a xlink:title=" ">
<path fill="none" stroke="#63b8ff" d="M593.15,-446.51C706.18,-466.32 995.17,-500.63 1184,-378 1208.5,-362.09 1198.5,-342.78 1220,-323 1231.11,-312.78 1245.4,-304.32 1258.31,-297.93"/>
<polygon fill="#63b8ff" stroke="#63b8ff" points="1259.85,-301.07 1267.41,-293.64 1256.87,-294.74 1259.85,-301.07"/>
</a>
</g>
</g>
<!-- Node28 -->
<g id="Node000028" class="node">
<title>Node28</title>
<g id="a_Node000028"><a xlink:href="../../d8/d7f/classSharedSpiCard_abeae3cdc162f24c2d450abe4e1ed8340.xhtml#abeae3cdc162f24c2d450abe4e1ed8340" target="_top" xlink:title=" ">
<polygon fill="white" stroke="#666666" points="807,-541.5 668,-541.5 668,-522.5 807,-522.5 807,-541.5"/>
<text text-anchor="middle" x="737.5" y="-529.5" font-family="Helvetica,sans-Serif" font-size="10.00">SharedSpiCard::readData</text>
</a>
</g>
</g>
<!-- Node3&#45;&gt;Node28 -->
<g id="edge37_Node000003_Node000028" class="edge">
<title>Node3&#45;&gt;Node28</title>
<g id="a_edge37_Node000003_Node000028"><a xlink:title=" ">
<path fill="none" stroke="#63b8ff" d="M557.62,-446.56C577.12,-461.53 617.12,-490.59 655,-508 664.65,-512.43 675.32,-516.27 685.67,-519.5"/>
<polygon fill="#63b8ff" stroke="#63b8ff" points="684.87,-522.91 695.45,-522.41 686.86,-516.2 684.87,-522.91"/>
</a>
</g>
</g>
<!-- Node29 -->
<g id="Node000029" class="node">
<title>Node29</title>
<g id="a_Node000029"><a xlink:href="../../d8/d7f/classSharedSpiCard_a7dac2190763d7b4b72163ed7131e8a87.xhtml#a7dac2190763d7b4b72163ed7131e8a87" target="_top" xlink:title=" ">
<polygon fill="white" stroke="#666666" points="795.5,-427.5 679.5,-427.5 679.5,-408.5 795.5,-408.5 795.5,-427.5"/>
<text text-anchor="middle" x="737.5" y="-415.5" font-family="Helvetica,sans-Serif" font-size="10.00">SharedSpiCard::type</text>
</a>
</g>
</g>
<!-- Node3&#45;&gt;Node29 -->
<g id="edge40_Node000003_Node000029" class="edge">
<title>Node3&#45;&gt;Node29</title>
<g id="a_edge40_Node000003_Node000029"><a xlink:title=" ">
<path fill="none" stroke="#63b8ff" d="M617.71,-429.82C634.59,-428.14 652.51,-426.35 669.17,-424.7"/>
<polygon fill="#63b8ff" stroke="#63b8ff" points="669.76,-428.16 679.37,-423.68 669.07,-421.19 669.76,-428.16"/>
</a>
</g>
</g>
<!-- Node5 -->
<g id="Node000005" class="node">
<title>Node5</title>
<g id="a_Node000005"><a xlink:href="../../d8/d7f/classSharedSpiCard_a08363209d938db87521cca6a84146041.xhtml#a08363209d938db87521cca6a84146041" target="_top" xlink:title=" ">
<polygon fill="white" stroke="#666666" points="1556,-79.5 1409,-79.5 1409,-60.5 1556,-60.5 1556,-79.5"/>
<text text-anchor="middle" x="1482.5" y="-67.5" font-family="Helvetica,sans-Serif" font-size="10.00">SharedSpiCard::spiReceive</text>
</a>
</g>
</g>
<!-- Node4&#45;&gt;Node5 -->
<g id="edge4_Node000004_Node000005" class="edge">
<title>Node4&#45;&gt;Node5</title>
<g id="a_edge4_Node000004_Node000005"><a xlink:title=" ">
<path fill="none" stroke="#63b8ff" d="M747.76,-199.34C766.27,-180.72 810.07,-140.19 856,-123 1040.4,-53.97 1276.07,-55.98 1398.8,-63.14"/>
<polygon fill="#63b8ff" stroke="#63b8ff" points="1398.68,-66.64 1408.87,-63.75 1399.11,-59.65 1398.68,-66.64"/>
</a>
</g>
</g>
<!-- Node7 -->
<g id="Node000007" class="node">
<title>Node7</title>
<g id="a_Node000007"><a xlink:href="../../d8/d7f/classSharedSpiCard_ab311b9ad8a250f06afbe091f7abb118b.xhtml#ab311b9ad8a250f06afbe091f7abb118b" target="_top" xlink:title=" ">
<polygon fill="white" stroke="#666666" points="1548.5,-236.5 1416.5,-236.5 1416.5,-217.5 1548.5,-217.5 1548.5,-236.5"/>
<text text-anchor="middle" x="1482.5" y="-224.5" font-family="Helvetica,sans-Serif" font-size="10.00">SharedSpiCard::spiSend</text>
</a>
</g>
</g>
<!-- Node4&#45;&gt;Node7 -->
<g id="edge6_Node000004_Node000007" class="edge">
<title>Node4&#45;&gt;Node7</title>
<g id="a_edge6_Node000004_Node000007"><a xlink:title=" ">
<path fill="none" stroke="#63b8ff" d="M820.22,-207.84C909.59,-206.89 1057.02,-206.23 1184,-210 1259.65,-212.24 1345.98,-217.47 1406.09,-221.55"/>
<polygon fill="#63b8ff" stroke="#63b8ff" points="1406.04,-225.05 1416.25,-222.24 1406.52,-218.07 1406.04,-225.05"/>
</a>
</g>
</g>
<!-- Node9 -->
<g id="Node000009" class="node">
<title>Node9</title>
<g id="a_Node000009"><a xlink:href="../../d8/d7f/classSharedSpiCard_aef2dfa72e8d5643c90720f9f8c6a4254.xhtml#aef2dfa72e8d5643c90720f9f8c6a4254" target="_top" xlink:title=" ">
<polygon fill="white" stroke="#666666" points="1358.5,-161.5 1227.5,-161.5 1227.5,-142.5 1358.5,-142.5 1358.5,-161.5"/>
<text text-anchor="middle" x="1293" y="-149.5" font-family="Helvetica,sans-Serif" font-size="10.00">SharedSpiCard::spiStart</text>
</a>
</g>
</g>
<!-- Node4&#45;&gt;Node9 -->
<g id="edge8_Node000004_Node000009" class="edge">
<title>Node4&#45;&gt;Node9</title>
<g id="a_edge8_Node000004_Node000009"><a xlink:title=" ">
<path fill="none" stroke="#63b8ff" d="M766.13,-199.39C789.69,-191.64 824.65,-181.2 856,-176 981.53,-155.18 1129.89,-151.34 1217.17,-151.17"/>
<polygon fill="#63b8ff" stroke="#63b8ff" points="1217.25,-154.67 1227.25,-151.17 1217.25,-147.67 1217.25,-154.67"/>
</a>
</g>
</g>
<!-- Node16 -->
<g id="Node000016" class="node">
<title>Node16</title>
<g id="a_Node000016"><a xlink:href="../../d8/d7f/classSharedSpiCard_a2f181b3d6f27413a0f5ee883dfd94d87.xhtml#a2f181b3d6f27413a0f5ee883dfd94d87" target="_top" xlink:title=" ">
<polygon fill="white" stroke="#666666" points="1006,-237.5 856,-237.5 856,-218.5 1006,-218.5 1006,-237.5"/>
<text text-anchor="middle" x="931" y="-225.5" font-family="Helvetica,sans-Serif" font-size="10.00">SharedSpiCard::syncDevice</text>
</a>
</g>
</g>
<!-- Node4&#45;&gt;Node16 -->
<g id="edge16_Node000004_Node000016" class="edge">
<title>Node4&#45;&gt;Node16</title>
<g id="a_edge16_Node000004_Node000016"><a xlink:title=" ">
<path fill="none" stroke="#63b8ff" d="M820.27,-217.11C828.65,-217.94 837.18,-218.79 845.59,-219.63"/>
<polygon fill="#63b8ff" stroke="#63b8ff" points="845.48,-223.13 855.78,-220.64 846.17,-216.17 845.48,-223.13"/>
</a>
</g>
</g>
<!-- Node24 -->
<g id="Node000024" class="node">
<title>Node24</title>
<g id="a_Node000024"><a xlink:href="../../d8/d7f/classSharedSpiCard_ab3468397bb3b12d29dd2f31e45b3dcaf.xhtml#ab3468397bb3b12d29dd2f31e45b3dcaf" target="_top" xlink:title=" ">
<polygon fill="white" stroke="#666666" points="1366,-123.5 1220,-123.5 1220,-104.5 1366,-104.5 1366,-123.5"/>
<text text-anchor="middle" x="1293" y="-111.5" font-family="Helvetica,sans-Serif" font-size="10.00">SharedSpiCard::waitReady</text>
</a>
</g>
</g>
<!-- Node4&#45;&gt;Node24 -->
<g id="edge35_Node000004_Node000024" class="edge">
<title>Node4&#45;&gt;Node24</title>
<g id="a_edge35_Node000004_Node000024"><a xlink:title=" ">
<path fill="none" stroke="#63b8ff" d="M754.57,-199.48C776.61,-186.93 817.84,-165.24 856,-155 976.2,-122.73 1120.94,-114.97 1209.7,-113.56"/>
<polygon fill="#63b8ff" stroke="#63b8ff" points="1209.76,-117.06 1219.71,-113.43 1209.66,-110.06 1209.76,-117.06"/>
</a>
</g>
</g>
<!-- Node6 -->
<g id="Node000006" class="node">
<title>Node6</title>
<g id="a_Node000006"><a xlink:href="../../d0/d25/classSdSpiArduinoDriver_a8d6bc852a52e9d69c4b1e48ee062e8d1.xhtml#a8d6bc852a52e9d69c4b1e48ee062e8d1" target="_top" xlink:title=" ">
<polygon fill="white" stroke="#666666" points="1710,-83 1599,-83 1599,-53 1710,-53 1710,-83"/>
<text text-anchor="start" x="1607" y="-71" font-family="Helvetica,sans-Serif" font-size="10.00">SdSpiArduinoDriver</text>
<text text-anchor="middle" x="1654.5" y="-60" font-family="Helvetica,sans-Serif" font-size="10.00">::receive</text>
</a>
</g>
</g>
<!-- Node5&#45;&gt;Node6 -->
<g id="edge5_Node000005_Node000006" class="edge">
<title>Node5&#45;&gt;Node6</title>
<g id="a_edge5_Node000005_Node000006"><a xlink:title=" ">
<path fill="none" stroke="#63b8ff" d="M1556.09,-69.15C1566.96,-69.02 1578.11,-68.89 1588.81,-68.76"/>
<polygon fill="#63b8ff" stroke="#63b8ff" points="1588.94,-72.26 1598.9,-68.64 1588.86,-65.26 1588.94,-72.26"/>
</a>
</g>
</g>
<!-- Node8 -->
<g id="Node000008" class="node">
<title>Node8</title>
<g id="a_Node000008"><a xlink:href="../../d0/d25/classSdSpiArduinoDriver_a3c4842e47f98fe5d3799cd6028778ab5.xhtml#a3c4842e47f98fe5d3799cd6028778ab5" target="_top" xlink:title=" ">
<polygon fill="white" stroke="#666666" points="1710,-255 1599,-255 1599,-225 1710,-225 1710,-255"/>
<text text-anchor="start" x="1607" y="-243" font-family="Helvetica,sans-Serif" font-size="10.00">SdSpiArduinoDriver</text>
<text text-anchor="middle" x="1654.5" y="-232" font-family="Helvetica,sans-Serif" font-size="10.00">::send</text>
</a>
</g>
</g>
<!-- Node7&#45;&gt;Node8 -->
<g id="edge7_Node000007_Node000008" class="edge">
<title>Node7&#45;&gt;Node8</title>
<g id="a_edge7_Node000007_Node000008"><a xlink:title=" ">
<path fill="none" stroke="#63b8ff" d="M1548.74,-231.99C1561.82,-232.99 1575.56,-234.04 1588.62,-235.04"/>
<polygon fill="#63b8ff" stroke="#63b8ff" points="1588.69,-238.55 1598.93,-235.83 1589.22,-231.57 1588.69,-238.55"/>
</a>
</g>
</g>
<!-- Node9&#45;&gt;Node7 -->
<g id="edge15_Node000009_Node000007" class="edge">
<title>Node9&#45;&gt;Node7</title>
<g id="a_edge15_Node000009_Node000007"><a xlink:title=" ">
<path fill="none" stroke="#63b8ff" d="M1332.67,-161.6C1343.85,-165.23 1355.78,-169.99 1366,-176 1384.71,-187.01 1382.77,-198.93 1402,-209 1405.57,-210.87 1409.32,-212.54 1413.18,-214.04"/>
<polygon fill="#63b8ff" stroke="#63b8ff" points="1412.33,-217.45 1422.93,-217.43 1414.63,-210.84 1412.33,-217.45"/>
</a>
</g>
</g>
<!-- Node10 -->
<g id="Node000010" class="node">
<title>Node10</title>
<g id="a_Node000010"><a xlink:href="../../d8/d7f/classSharedSpiCard_a69ee2fe49dfaeea2347d8a265806d2b6.xhtml#a69ee2fe49dfaeea2347d8a265806d2b6" target="_top" xlink:title=" ">
<polygon fill="white" stroke="#666666" points="1557,-161.5 1408,-161.5 1408,-142.5 1557,-142.5 1557,-161.5"/>
<text text-anchor="middle" x="1482.5" y="-149.5" font-family="Helvetica,sans-Serif" font-size="10.00">SharedSpiCard::spiActivate</text>
</a>
</g>
</g>
<!-- Node9&#45;&gt;Node10 -->
<g id="edge9_Node000009_Node000010" class="edge">
<title>Node9&#45;&gt;Node10</title>
<g id="a_edge9_Node000009_Node000010"><a xlink:title=" ">
<path fill="none" stroke="#63b8ff" d="M1358.53,-152C1371.19,-152 1384.64,-152 1397.82,-152"/>
<polygon fill="#63b8ff" stroke="#63b8ff" points="1397.84,-155.5 1407.84,-152 1397.84,-148.5 1397.84,-155.5"/>
</a>
</g>
</g>
<!-- Node12 -->
<g id="Node000012" class="node">
<title>Node12</title>
<g id="a_Node000012"><a xlink:href="../../d8/d7f/classSharedSpiCard_a8c3088599862ff6e84ae79bfdf32aea8.xhtml#a8c3088599862ff6e84ae79bfdf32aea8" target="_top" xlink:title=" ">
<polygon fill="white" stroke="#666666" points="1551.5,-199.5 1413.5,-199.5 1413.5,-180.5 1551.5,-180.5 1551.5,-199.5"/>
<text text-anchor="middle" x="1482.5" y="-187.5" font-family="Helvetica,sans-Serif" font-size="10.00">SharedSpiCard::spiSelect</text>
</a>
</g>
</g>
<!-- Node9&#45;&gt;Node12 -->
<g id="edge11_Node000009_Node000012" class="edge">
<title>Node9&#45;&gt;Node12</title>
<g id="a_edge11_Node000009_Node000012"><a xlink:title=" ">
<path fill="none" stroke="#63b8ff" d="M1341.31,-161.59C1366.61,-166.72 1397.95,-173.07 1424.57,-178.46"/>
<polygon fill="#63b8ff" stroke="#63b8ff" points="1424.03,-181.92 1434.53,-180.48 1425.42,-175.06 1424.03,-181.92"/>
</a>
</g>
</g>
<!-- Node11 -->
<g id="Node000011" class="node">
<title>Node11</title>
<g id="a_Node000011"><a xlink:href="../../d0/d25/classSdSpiArduinoDriver_abb6b88c5c8b87fc344a69f23f6eab3d9.xhtml#abb6b88c5c8b87fc344a69f23f6eab3d9" target="_top" xlink:title=" ">
<polygon fill="white" stroke="#666666" points="1710,-169 1599,-169 1599,-139 1710,-139 1710,-169"/>
<text text-anchor="start" x="1607" y="-157" font-family="Helvetica,sans-Serif" font-size="10.00">SdSpiArduinoDriver</text>
<text text-anchor="middle" x="1654.5" y="-146" font-family="Helvetica,sans-Serif" font-size="10.00">::activate</text>
</a>
</g>
</g>
<!-- Node10&#45;&gt;Node11 -->
<g id="edge10_Node000010_Node000011" class="edge">
<title>Node10&#45;&gt;Node11</title>
<g id="a_edge10_Node000010_Node000011"><a xlink:title=" ">
<path fill="none" stroke="#63b8ff" d="M1557.08,-152.87C1567.57,-152.99 1578.31,-153.12 1588.63,-153.24"/>
<polygon fill="#63b8ff" stroke="#63b8ff" points="1588.74,-156.74 1598.78,-153.36 1588.82,-149.74 1588.74,-156.74"/>
</a>
</g>
</g>
<!-- Node13 -->
<g id="Node000013" class="node">
<title>Node13</title>
<g id="a_Node000013"><a xlink:href="../../d2/df0/SdSpiChipSelect_8cpp_ac469bbe2d31ffde9b00ffc68258d7428.xhtml#ac469bbe2d31ffde9b00ffc68258d7428" target="_top" xlink:title=" ">
<polygon fill="white" stroke="#666666" points="1687.5,-206.5 1621.5,-206.5 1621.5,-187.5 1687.5,-187.5 1687.5,-206.5"/>
<text text-anchor="middle" x="1654.5" y="-194.5" font-family="Helvetica,sans-Serif" font-size="10.00">sdCsWrite</text>
</a>
</g>
</g>
<!-- Node12&#45;&gt;Node13 -->
<g id="edge12_Node000012_Node000013" class="edge">
<title>Node12&#45;&gt;Node13</title>
<g id="a_edge12_Node000012_Node000013"><a xlink:title=" ">
<path fill="none" stroke="#63b8ff" d="M1551.67,-192.81C1571.74,-193.63 1593.12,-194.51 1611.09,-195.25"/>
<polygon fill="#63b8ff" stroke="#63b8ff" points="1611.1,-198.76 1621.23,-195.67 1611.38,-191.76 1611.1,-198.76"/>
</a>
</g>
</g>
<!-- Node14 -->
<g id="Node000014" class="node">
<title>Node14</title>
<g id="a_Node000014"><a xlink:href="../../d5/d45/wiring__digital_8c_a73b9b61feeaf7d790d107f2954a7fd93.xhtml#a73b9b61feeaf7d790d107f2954a7fd93" target="_top" xlink:title=" ">
<polygon fill="white" stroke="#666666" points="1820,-206.5 1746,-206.5 1746,-187.5 1820,-187.5 1820,-206.5"/>
<text text-anchor="middle" x="1783" y="-194.5" font-family="Helvetica,sans-Serif" font-size="10.00">digitalWrite</text>
</a>
</g>
</g>
<!-- Node13&#45;&gt;Node14 -->
<g id="edge13_Node000013_Node000014" class="edge">
<title>Node13&#45;&gt;Node14</title>
<g id="a_edge13_Node000013_Node000014"><a xlink:title=" ">
<path fill="none" stroke="#63b8ff" d="M1687.75,-197C1702.28,-197 1719.71,-197 1735.61,-197"/>
<polygon fill="#63b8ff" stroke="#63b8ff" points="1735.79,-200.5 1745.79,-197 1735.79,-193.5 1735.79,-200.5"/>
</a>
</g>
</g>
<!-- Node15 -->
<g id="Node000015" class="node">
<title>Node15</title>
<g id="a_Node000015"><a xlink:href="../../d5/d45/wiring__digital_8c_ae3d0bcbe4eb927ca8f5d5c21b7e4f224.xhtml#ae3d0bcbe4eb927ca8f5d5c21b7e4f224" target="_top" xlink:title=" ">
<polygon fill="white" stroke="#666666" points="1931,-206.5 1856,-206.5 1856,-187.5 1931,-187.5 1931,-206.5"/>
<text text-anchor="middle" x="1893.5" y="-194.5" font-family="Helvetica,sans-Serif" font-size="10.00">turnOffPWM</text>
</a>
</g>
</g>
<!-- Node14&#45;&gt;Node15 -->
<g id="edge14_Node000014_Node000015" class="edge">
<title>Node14&#45;&gt;Node15</title>
<g id="a_edge14_Node000014_Node000015"><a xlink:title=" ">
<path fill="none" stroke="#63b8ff" d="M1820.13,-197C1828.28,-197 1837.05,-197 1845.57,-197"/>
<polygon fill="#63b8ff" stroke="#63b8ff" points="1845.79,-200.5 1855.79,-197 1845.79,-193.5 1845.79,-200.5"/>
</a>
</g>
</g>
<!-- Node17 -->
<g id="Node000017" class="node">
<title>Node17</title>
<g id="a_Node000017"><a xlink:href="../../d8/d7f/classSharedSpiCard_ab33ad2aefbb9cff905cad0879dffc78b.xhtml#ab33ad2aefbb9cff905cad0879dffc78b" target="_top" xlink:title=" ">
<polygon fill="white" stroke="#666666" points="1181.5,-274.5 1044.5,-274.5 1044.5,-255.5 1181.5,-255.5 1181.5,-274.5"/>
<text text-anchor="middle" x="1113" y="-262.5" font-family="Helvetica,sans-Serif" font-size="10.00">SharedSpiCard::readStop</text>
</a>
</g>
</g>
<!-- Node16&#45;&gt;Node17 -->
<g id="edge17_Node000016_Node000017" class="edge">
<title>Node16&#45;&gt;Node17</title>
<g id="a_edge17_Node000016_Node000017"><a xlink:title=" ">
<path fill="none" stroke="#63b8ff" d="M978.35,-237.53C1001.88,-242.36 1030.66,-248.28 1055.48,-253.38"/>
<polygon fill="#63b8ff" stroke="#63b8ff" points="1054.99,-256.85 1065.49,-255.44 1056.4,-250 1054.99,-256.85"/>
</a>
</g>
</g>
<!-- Node23 -->
<g id="Node000023" class="node">
<title>Node23</title>
<g id="a_Node000023"><a xlink:href="../../d8/d7f/classSharedSpiCard_ae9a34a573077e43e7c6028a16ae77fb3.xhtml#ae9a34a573077e43e7c6028a16ae77fb3" target="_top" xlink:title=" ">
<polygon fill="white" stroke="#666666" points="1183,-237.5 1043,-237.5 1043,-218.5 1183,-218.5 1183,-237.5"/>
<text text-anchor="middle" x="1113" y="-225.5" font-family="Helvetica,sans-Serif" font-size="10.00">SharedSpiCard::writeStop</text>
</a>
</g>
</g>
<!-- Node16&#45;&gt;Node23 -->
<g id="edge26_Node000016_Node000023" class="edge">
<title>Node16&#45;&gt;Node23</title>
<g id="a_edge26_Node000016_Node000023"><a xlink:title=" ">
<path fill="none" stroke="#63b8ff" d="M1006.25,-228C1014.95,-228 1023.86,-228 1032.62,-228"/>
<polygon fill="#63b8ff" stroke="#63b8ff" points="1032.83,-231.5 1042.83,-228 1032.83,-224.5 1032.83,-231.5"/>
</a>
</g>
</g>
<!-- Node17&#45;&gt;Node4 -->
<g id="edge18_Node000017_Node000004" class="edge">
<title>Node17&#45;&gt;Node4</title>
<g id="a_edge18_Node000017_Node000004"><a xlink:title=" ">
<path fill="none" stroke="#63b8ff" d="M1044.31,-264.7C992.37,-263.39 919.09,-259.23 856,-247 826.9,-241.36 794.96,-230.73 771.74,-222.14"/>
<polygon fill="#63b8ff" stroke="#63b8ff" points="772.95,-218.86 762.35,-218.61 770.48,-225.41 772.95,-218.86"/>
</a>
</g>
</g>
<!-- Node17&#45;&gt;Node18 -->
<g id="edge19_Node000017_Node000018" class="edge">
<title>Node17&#45;&gt;Node18</title>
<g id="a_edge19_Node000017_Node000018"><a xlink:title=" ">
<path fill="none" stroke="#63b8ff" d="M1136.54,-274.63C1167.84,-287.99 1224.61,-312.23 1260.2,-327.42"/>
<polygon fill="#63b8ff" stroke="#63b8ff" points="1259.07,-330.74 1269.64,-331.45 1261.82,-324.31 1259.07,-330.74"/>
</a>
</g>
</g>
<!-- Node17&#45;&gt;Node19 -->
<g id="edge20_Node000017_Node000019" class="edge">
<title>Node17&#45;&gt;Node19</title>
<g id="a_edge20_Node000017_Node000019"><a xlink:title=" ">
<path fill="none" stroke="#63b8ff" d="M1181.55,-272.21C1193.38,-273.47 1205.75,-274.79 1217.75,-276.07"/>
<polygon fill="#63b8ff" stroke="#63b8ff" points="1217.41,-279.56 1227.73,-277.14 1218.16,-272.6 1217.41,-279.56"/>
</a>
</g>
</g>
<!-- Node19&#45;&gt;Node7 -->
<g id="edge23_Node000019_Node000007" class="edge">
<title>Node19&#45;&gt;Node7</title>
<g id="a_edge23_Node000019_Node000007"><a xlink:title=" ">
<path fill="none" stroke="#63b8ff" d="M1319.07,-274.35C1340.81,-266.18 1373.21,-254.48 1402,-246 1410.41,-243.52 1419.38,-241.14 1428.17,-238.94"/>
<polygon fill="#63b8ff" stroke="#63b8ff" points="1429.08,-242.32 1437.96,-236.54 1427.42,-235.52 1429.08,-242.32"/>
</a>
</g>
</g>
<!-- Node20 -->
<g id="Node000020" class="node">
<title>Node20</title>
<g id="a_Node000020"><a xlink:href="../../d8/d7f/classSharedSpiCard_ac6acfca5a23337977d2e4436ab8ab39a.xhtml#ac6acfca5a23337977d2e4436ab8ab39a" target="_top" xlink:title=" ">
<polygon fill="white" stroke="#666666" points="1563,-310.5 1402,-310.5 1402,-291.5 1563,-291.5 1563,-310.5"/>
<text text-anchor="middle" x="1482.5" y="-298.5" font-family="Helvetica,sans-Serif" font-size="10.00">SharedSpiCard::spiDeactivate</text>
</a>
</g>
</g>
<!-- Node19&#45;&gt;Node20 -->
<g id="edge21_Node000019_Node000020" class="edge">
<title>Node19&#45;&gt;Node20</title>
<g id="a_edge21_Node000019_Node000020"><a xlink:title=" ">
<path fill="none" stroke="#63b8ff" d="M1358,-289.8C1368.92,-290.79 1380.43,-291.84 1391.86,-292.87"/>
<polygon fill="#63b8ff" stroke="#63b8ff" points="1391.59,-296.36 1401.87,-293.78 1392.22,-289.39 1391.59,-296.36"/>
</a>
</g>
</g>
<!-- Node22 -->
<g id="Node000022" class="node">
<title>Node22</title>
<g id="a_Node000022"><a xlink:href="../../d8/d7f/classSharedSpiCard_ad06a3278372300987b97876cf598c114.xhtml#ad06a3278372300987b97876cf598c114" target="_top" xlink:title=" ">
<polygon fill="white" stroke="#666666" points="1558,-273.5 1407,-273.5 1407,-254.5 1558,-254.5 1558,-273.5"/>
<text text-anchor="middle" x="1482.5" y="-261.5" font-family="Helvetica,sans-Serif" font-size="10.00">SharedSpiCard::spiUnselect</text>
</a>
</g>
</g>
<!-- Node19&#45;&gt;Node22 -->
<g id="edge24_Node000019_Node000022" class="edge">
<title>Node19&#45;&gt;Node22</title>
<g id="a_edge24_Node000019_Node000022"><a xlink:title=" ">
<path fill="none" stroke="#63b8ff" d="M1358,-277.17C1370.39,-275.85 1383.55,-274.45 1396.49,-273.07"/>
<polygon fill="#63b8ff" stroke="#63b8ff" points="1397.23,-276.51 1406.8,-271.97 1396.49,-269.55 1397.23,-276.51"/>
</a>
</g>
</g>
<!-- Node21 -->
<g id="Node000021" class="node">
<title>Node21</title>
<g id="a_Node000021"><a xlink:href="../../d0/d25/classSdSpiArduinoDriver_ae88a255f533e3acb41d1221025a69b55.xhtml#ae88a255f533e3acb41d1221025a69b55" target="_top" xlink:title=" ">
<polygon fill="white" stroke="#666666" points="1710,-316 1599,-316 1599,-286 1710,-286 1710,-316"/>
<text text-anchor="start" x="1607" y="-304" font-family="Helvetica,sans-Serif" font-size="10.00">SdSpiArduinoDriver</text>
<text text-anchor="middle" x="1654.5" y="-293" font-family="Helvetica,sans-Serif" font-size="10.00">::deactivate</text>
</a>
</g>
</g>
<!-- Node20&#45;&gt;Node21 -->
<g id="edge22_Node000020_Node000021" class="edge">
<title>Node20&#45;&gt;Node21</title>
<g id="a_edge22_Node000020_Node000021"><a xlink:title=" ">
<path fill="none" stroke="#63b8ff" d="M1563.02,-301C1571.63,-301 1580.3,-301 1588.7,-301"/>
<polygon fill="#63b8ff" stroke="#63b8ff" points="1588.78,-304.5 1598.78,-301 1588.78,-297.5 1588.78,-304.5"/>
</a>
</g>
</g>
<!-- Node22&#45;&gt;Node13 -->
<g id="edge25_Node000022_Node000013" class="edge">
<title>Node22&#45;&gt;Node13</title>
<g id="a_edge25_Node000022_Node000013"><a xlink:title=" ">
<path fill="none" stroke="#63b8ff" d="M1541.08,-254.38C1548.65,-252.14 1556.15,-249.38 1563,-246 1581.67,-236.78 1580.88,-226.26 1599,-216 1602.98,-213.75 1607.28,-211.69 1611.65,-209.84"/>
<polygon fill="#63b8ff" stroke="#63b8ff" points="1613.2,-212.99 1621.25,-206.1 1610.66,-206.47 1613.2,-212.99"/>
</a>
</g>
</g>
<!-- Node23&#45;&gt;Node7 -->
<g id="edge28_Node000023_Node000007" class="edge">
<title>Node23&#45;&gt;Node7</title>
<g id="a_edge28_Node000023_Node000007"><a xlink:title=" ">
<path fill="none" stroke="#63b8ff" d="M1183.12,-227.81C1246.67,-227.64 1340.68,-227.38 1406.14,-227.21"/>
<polygon fill="#63b8ff" stroke="#63b8ff" points="1406.4,-230.7 1416.39,-227.18 1406.38,-223.7 1406.4,-230.7"/>
</a>
</g>
</g>
<!-- Node23&#45;&gt;Node18 -->
<g id="edge27_Node000023_Node000018" class="edge">
<title>Node23&#45;&gt;Node18</title>
<g id="a_edge27_Node000023_Node000018"><a xlink:title=" ">
<path fill="none" stroke="#63b8ff" d="M1166.45,-237.59C1172.69,-240.05 1178.72,-243.13 1184,-247 1207.87,-264.49 1198.2,-282.99 1220,-303 1230.79,-312.9 1244.63,-321.01 1257.3,-327.16"/>
<polygon fill="#63b8ff" stroke="#63b8ff" points="1256.13,-330.48 1266.68,-331.47 1259.06,-324.12 1256.13,-330.48"/>
</a>
</g>
</g>
<!-- Node23&#45;&gt;Node19 -->
<g id="edge29_Node000023_Node000019" class="edge">
<title>Node23&#45;&gt;Node19</title>
<g id="a_edge29_Node000023_Node000019"><a xlink:title=" ">
<path fill="none" stroke="#63b8ff" d="M1150.82,-237.51C1161.56,-240.42 1173.29,-243.71 1184,-247 1208.21,-254.42 1235.16,-263.65 1256.08,-271.04"/>
<polygon fill="#63b8ff" stroke="#63b8ff" points="1254.93,-274.35 1265.53,-274.39 1257.27,-267.75 1254.93,-274.35"/>
</a>
</g>
</g>
<!-- Node23&#45;&gt;Node24 -->
<g id="edge30_Node000023_Node000024" class="edge">
<title>Node23&#45;&gt;Node24</title>
<g id="a_edge30_Node000023_Node000024"><a xlink:title=" ">
<path fill="none" stroke="#63b8ff" d="M1122.01,-218.44C1138.42,-199.46 1177.87,-156.92 1220,-134 1224.91,-131.33 1230.22,-128.99 1235.64,-126.94"/>
<polygon fill="#63b8ff" stroke="#63b8ff" points="1237.13,-130.13 1245.46,-123.58 1234.86,-123.51 1237.13,-130.13"/>
</a>
</g>
</g>
<!-- Node24&#45;&gt;Node5 -->
<g id="edge31_Node000024_Node000005" class="edge">
<title>Node24&#45;&gt;Node5</title>
<g id="a_edge31_Node000024_Node000005"><a xlink:title=" ">
<path fill="none" stroke="#63b8ff" d="M1334.68,-104.45C1362.94,-97.82 1400.79,-88.94 1430.98,-81.86"/>
<polygon fill="#63b8ff" stroke="#63b8ff" points="1431.96,-85.22 1440.89,-79.53 1430.36,-78.41 1431.96,-85.22"/>
</a>
</g>
</g>
<!-- Node25 -->
<g id="Node000025" class="node">
<title>Node25</title>
<g id="a_Node000025"><a xlink:href="../../db/df4/classTimeout_abbabe99f42e52472ddd3a7e9d22dce95.xhtml#abbabe99f42e52472ddd3a7e9d22dce95" target="_top" xlink:title=" ">
<polygon fill="white" stroke="#666666" points="1537,-121.5 1428,-121.5 1428,-102.5 1537,-102.5 1537,-121.5"/>
<text text-anchor="middle" x="1482.5" y="-109.5" font-family="Helvetica,sans-Serif" font-size="10.00">Timeout::timedOut</text>
</a>
</g>
</g>
<!-- Node24&#45;&gt;Node25 -->
<g id="edge32_Node000024_Node000025" class="edge">
<title>Node24&#45;&gt;Node25</title>
<g id="a_edge32_Node000024_Node000025"><a xlink:title=" ">
<path fill="none" stroke="#63b8ff" d="M1366.22,-113.23C1383.23,-113.05 1401.22,-112.86 1417.82,-112.68"/>
<polygon fill="#63b8ff" stroke="#63b8ff" points="1417.98,-116.18 1427.95,-112.57 1417.91,-109.18 1417.98,-116.18"/>
</a>
</g>
</g>
<!-- Node26 -->
<g id="Node000026" class="node">
<title>Node26</title>
<g id="a_Node000026"><a xlink:href="../../db/df4/classTimeout_a9a72ea0591f11452fb15bfaa1ae5108a.xhtml#a9a72ea0591f11452fb15bfaa1ae5108a" target="_top" xlink:title=" ">
<polygon fill="white" stroke="#666666" points="1705.5,-120.5 1603.5,-120.5 1603.5,-101.5 1705.5,-101.5 1705.5,-120.5"/>
<text text-anchor="middle" x="1654.5" y="-108.5" font-family="Helvetica,sans-Serif" font-size="10.00">Timeout::millis16</text>
</a>
</g>
</g>
<!-- Node25&#45;&gt;Node26 -->
<g id="edge33_Node000025_Node000026" class="edge">
<title>Node25&#45;&gt;Node26</title>
<g id="a_edge33_Node000025_Node000026"><a xlink:title=" ">
<path fill="none" stroke="#63b8ff" d="M1537.29,-111.68C1555.02,-111.58 1574.85,-111.46 1593.04,-111.36"/>
<polygon fill="#63b8ff" stroke="#63b8ff" points="1593.26,-114.85 1603.24,-111.3 1593.22,-107.85 1593.26,-114.85"/>
</a>
</g>
</g>
<!-- Node27 -->
<g id="Node000027" class="node">
<title>Node27</title>
<g id="a_Node000027"><a xlink:href="../../d5/df3/wiring_8c_a6ff7f2532a22366f0013bc41397129fd.xhtml#a6ff7f2532a22366f0013bc41397129fd" target="_top" xlink:title=" ">
<polygon fill="white" stroke="#666666" points="1805,-120.5 1761,-120.5 1761,-101.5 1805,-101.5 1805,-120.5"/>
<text text-anchor="middle" x="1783" y="-108.5" font-family="Helvetica,sans-Serif" font-size="10.00">millis</text>
</a>
</g>
</g>
<!-- Node26&#45;&gt;Node27 -->
<g id="edge34_Node000026_Node000027" class="edge">
<title>Node26&#45;&gt;Node27</title>
<g id="a_edge34_Node000026_Node000027"><a xlink:title=" ">
<path fill="none" stroke="#63b8ff" d="M1705.86,-111C1720.97,-111 1737.11,-111 1750.62,-111"/>
<polygon fill="#63b8ff" stroke="#63b8ff" points="1750.83,-114.5 1760.83,-111 1750.83,-107.5 1750.83,-114.5"/>
</a>
</g>
</g>
<!-- Node28&#45;&gt;Node28 -->
<g id="edge38_Node000028_Node000028" class="edge">
<title>Node28&#45;&gt;Node28</title>
<g id="a_edge38_Node000028_Node000028"><a xlink:title=" ">
<path fill="none" stroke="#63b8ff" d="M707.91,-541.58C693.51,-550.23 703.38,-559.5 737.5,-559.5 760.96,-559.5 772.95,-555.12 773.48,-549.57"/>
<polygon fill="#63b8ff" stroke="#63b8ff" points="776.07,-547.21 767.09,-541.58 770.61,-551.58 776.07,-547.21"/>
</a>
</g>
</g>
<!-- Node32 -->
<g id="Node000032" class="node">
<title>Node32</title>
<g id="a_Node000032"><a xlink:href="../../d8/d7f/classSharedSpiCard_adf2ce56ca0a56fe841fbdf75f7f3faee.xhtml#adf2ce56ca0a56fe841fbdf75f7f3faee" target="_top" xlink:title=" ">
<polygon fill="white" stroke="#666666" points="619,-318.5 470,-318.5 470,-299.5 619,-299.5 619,-318.5"/>
<text text-anchor="middle" x="544.5" y="-306.5" font-family="Helvetica,sans-Serif" font-size="10.00">SharedSpiCard::writeSector</text>
</a>
</g>
</g>
<!-- Node31&#45;&gt;Node32 -->
<g id="edge43_Node000031_Node000032" class="edge">
<title>Node31&#45;&gt;Node32</title>
<g id="a_edge43_Node000031_Node000032"><a xlink:title=" ">
<path fill="none" stroke="#63b8ff" d="M430.08,-325.05C441.29,-323.46 453.77,-321.69 466.23,-319.93"/>
<polygon fill="#63b8ff" stroke="#63b8ff" points="466.79,-323.39 476.2,-318.52 465.81,-316.46 466.79,-323.39"/>
</a>
</g>
</g>
<!-- Node32&#45;&gt;Node4 -->
<g id="edge44_Node000032_Node000004" class="edge">
<title>Node32&#45;&gt;Node4</title>
<g id="a_edge44_Node000032_Node000004"><a xlink:title=" ">
<path fill="none" stroke="#63b8ff" d="M563.81,-299.41C597.47,-281.79 669.33,-244.17 708.91,-223.44"/>
<polygon fill="#63b8ff" stroke="#63b8ff" points="711.01,-226.3 718.24,-218.56 707.76,-220.1 711.01,-226.3"/>
</a>
</g>
</g>
<!-- Node32&#45;&gt;Node5 -->
<g id="edge46_Node000032_Node000005" class="edge">
<title>Node32&#45;&gt;Node5</title>
<g id="a_edge46_Node000032_Node000005"><a xlink:title=" ">
<path fill="none" stroke="#63b8ff" d="M548.61,-299.29C558.86,-268.66 594.47,-172.97 655,-119 754.4,-30.37 796.83,0 930,0 930,0 930,0 1114,0 1235.39,0 1375.42,-37.31 1442.17,-57.45"/>
<polygon fill="#63b8ff" stroke="#63b8ff" points="1441.27,-60.84 1451.85,-60.41 1443.31,-54.15 1441.27,-60.84"/>
</a>
</g>
</g>
<!-- Node32&#45;&gt;Node18 -->
<g id="edge45_Node000032_Node000018" class="edge">
<title>Node32&#45;&gt;Node18</title>
<g id="a_edge45_Node000032_Node000018"><a xlink:title=" ">
<path fill="none" stroke="#63b8ff" d="M577.23,-318.51C670.67,-345.22 952.76,-416.51 1184,-378 1211,-373.5 1240.31,-363.09 1261.57,-354.45"/>
<polygon fill="#63b8ff" stroke="#63b8ff" points="1263.14,-357.59 1271.02,-350.51 1260.45,-351.12 1263.14,-357.59"/>
</a>
</g>
</g>
<!-- Node32&#45;&gt;Node19 -->
<g id="edge47_Node000032_Node000019" class="edge">
<title>Node32&#45;&gt;Node19</title>
<g id="a_edge47_Node000032_Node000019"><a xlink:title=" ">
<path fill="none" stroke="#63b8ff" d="M619.12,-306.53C761.82,-301.76 1074.57,-291.28 1217.76,-286.49"/>
<polygon fill="#63b8ff" stroke="#63b8ff" points="1217.9,-289.98 1227.77,-286.15 1217.66,-282.99 1217.9,-289.98"/>
</a>
</g>
</g>
<!-- Node32&#45;&gt;Node24 -->
<g id="edge49_Node000032_Node000024" class="edge">
<title>Node32&#45;&gt;Node24</title>
<g id="a_edge49_Node000032_Node000024"><a xlink:title=" ">
<path fill="none" stroke="#63b8ff" d="M551.96,-299.23C567.23,-276.86 607.84,-221.53 655,-191 830.72,-77.25 1091.69,-89.01 1218.08,-103.3"/>
<polygon fill="#63b8ff" stroke="#63b8ff" points="1217.71,-106.78 1228.04,-104.47 1218.52,-99.83 1217.71,-106.78"/>
</a>
</g>
</g>
<!-- Node32&#45;&gt;Node29 -->
<g id="edge48_Node000032_Node000029" class="edge">
<title>Node32&#45;&gt;Node29</title>
<g id="a_edge48_Node000032_Node000029"><a xlink:title=" ">
<path fill="none" stroke="#63b8ff" d="M555.18,-318.6C573.27,-336.05 614.09,-373.05 655,-394 663.86,-398.54 673.72,-402.35 683.42,-405.51"/>
<polygon fill="#63b8ff" stroke="#63b8ff" points="682.46,-408.87 693.04,-408.45 684.5,-402.18 682.46,-408.87"/>
</a>
</g>
</g>
<!-- Node33 -->
<g id="Node000033" class="node">
<title>Node33</title>
<g id="a_Node000033"><a xlink:href="../../d8/d7f/classSharedSpiCard_a5b6d7ad34f56d0d6a6c5059d920499ba.xhtml#a5b6d7ad34f56d0d6a6c5059d920499ba" target="_top" xlink:title=" ">
<polygon fill="white" stroke="#666666" points="1184,-350.5 1042,-350.5 1042,-331.5 1184,-331.5 1184,-350.5"/>
<text text-anchor="middle" x="1113" y="-338.5" font-family="Helvetica,sans-Serif" font-size="10.00">SharedSpiCard::writeData</text>
</a>
</g>
</g>
<!-- Node32&#45;&gt;Node33 -->
<g id="edge50_Node000032_Node000033" class="edge">
<title>Node32&#45;&gt;Node33</title>
<g id="a_edge50_Node000032_Node000033"><a xlink:title=" ">
<path fill="none" stroke="#63b8ff" d="M619.1,-315.37C631.1,-316.32 643.39,-317.23 655,-318 786.99,-326.74 940.61,-333.84 1031.89,-337.74"/>
<polygon fill="#63b8ff" stroke="#63b8ff" points="1031.75,-341.24 1041.89,-338.16 1032.05,-334.24 1031.75,-341.24"/>
</a>
</g>
</g>
<!-- Node33&#45;&gt;Node18 -->
<g id="edge51_Node000033_Node000018" class="edge">
<title>Node33&#45;&gt;Node18</title>
<g id="a_edge51_Node000033_Node000018"><a xlink:title=" ">
<path fill="none" stroke="#63b8ff" d="M1184.09,-341C1197.22,-341 1210.92,-341 1223.99,-341"/>
<polygon fill="#63b8ff" stroke="#63b8ff" points="1224.3,-344.5 1234.3,-341 1224.3,-337.5 1224.3,-344.5"/>
</a>
</g>
</g>
<!-- Node33&#45;&gt;Node19 -->
<g id="edge52_Node000033_Node000019" class="edge">
<title>Node33&#45;&gt;Node19</title>
<g id="a_edge52_Node000033_Node000019"><a xlink:title=" ">
<path fill="none" stroke="#63b8ff" d="M1143.79,-331.46C1173.57,-321.92 1219.53,-307.21 1252.37,-296.69"/>
<polygon fill="#63b8ff" stroke="#63b8ff" points="1253.65,-299.95 1262.11,-293.57 1251.52,-293.29 1253.65,-299.95"/>
</a>
</g>
</g>
<!-- Node33&#45;&gt;Node24 -->
<g id="edge53_Node000033_Node000024" class="edge">
<title>Node33&#45;&gt;Node24</title>
<g id="a_edge53_Node000033_Node000024"><a xlink:title=" ">
<path fill="none" stroke="#63b8ff" d="M1131.43,-331.36C1147.54,-321.55 1170.9,-304.83 1184,-284 1220.5,-225.97 1172.39,-183.33 1220,-134 1221.81,-132.12 1223.79,-130.41 1225.88,-128.86"/>
<polygon fill="#63b8ff" stroke="#63b8ff" points="1227.78,-131.81 1234.51,-123.63 1224.14,-125.83 1227.78,-131.81"/>
</a>
</g>
</g>
<!-- Node33&#45;&gt;Node33 -->
<g id="edge54_Node000033_Node000033" class="edge">
<title>Node33&#45;&gt;Node33</title>
<g id="a_edge54_Node000033_Node000033"><a xlink:title=" ">
<path fill="none" stroke="#63b8ff" d="M1085.26,-350.58C1071.76,-359.23 1081.01,-368.5 1113,-368.5 1134.49,-368.5 1145.72,-364.32 1146.68,-358.95"/>
<polygon fill="#63b8ff" stroke="#63b8ff" points="1149.39,-356.71 1140.74,-350.58 1143.68,-360.76 1149.39,-356.71"/>
</a>
</g>
</g>
</g>
</svg>

<g id="navigator" transform="translate(0 0)" fill="#404254">
  <rect fill="#f2f5e9" fill-opacity="0.5" stroke="#606060" stroke-width=".5" x="0" y="0" width="60" height="60"/>
  <use id="zoomplus" xlink:href="#zoomPlus" x="17" y="9" onmousedown="handleZoom(evt,'in')"/>
  <use id="zoomminus" xlink:href="#zoomMin" x="42" y="9" onmousedown="handleZoom(evt,'out')"/>
  <use id="reset" xlink:href="#resetDef" x="30" y="36" onmousedown="handleReset()"/>
   <use id="arrowup" xlink:href="#arrowUp" x="0" y="0" onmousedown="handlePan(0,-1)"/>
  <use id="arrowright" xlink:href="#arrowRight" x="0" y="0" onmousedown="handlePan(1,0)"/>
  <use id="arrowdown" xlink:href="#arrowDown" x="0" y="0" onmousedown="handlePan(0,1)"/>
  <use id="arrowleft" xlink:href="#arrowLeft" x="0" y="0" onmousedown="handlePan(-1,0)"/>
</g>
<svg viewBox="0 0 15 15" width="100%" height="30px" preserveAspectRatio="xMaxYMin meet">
 <g id="arrow_out" transform="scale(0.3 0.3)">
  <a xlink:href="classFatPartition_ae4a3cea22302bfdf2ee6872e528260a9_ae4a3cea22302bfdf2ee6872e528260a9_cgraph_org.svg" target="_base">
   <rect id="button" ry="5" rx="5" y="6" x="6" height="38" width="38"
        fill="#f2f5e9" fill-opacity="0.5" stroke="#606060" stroke-width="1.0"/>
   <path id="arrow"
     d="M 11.500037,31.436501 C 11.940474,20.09759 22.043105,11.32322 32.158766,21.979434 L 37.068811,17.246167 C 37.068811,17.246167 37.088388,32 37.088388,32 L 22.160133,31.978069 C 22.160133,31.978069 26.997745,27.140456 26.997745,27.140456 C 18.528582,18.264221 13.291696,25.230495 11.500037,31.436501 z"
     style="fill:#404040;"/>
  </a>
 </g>
</svg>

<style type='text/css'>
<![CDATA[
[data-mouse-over-selected='false'] { opacity: 0.7; }
[data-mouse-over-selected='true']  { opacity: 1.0; }
]]>
</style>
<script type="application/ecmascript"><![CDATA[
document.addEventListener('DOMContentLoaded', (event) => {
  highlightEdges();
  highlightAdjacentNodes();
});
]]></script>
</svg>
