<?xml version="1.0" encoding="UTF-8" standalone="no"?>
<!DOCTYPE svg PUBLIC "-//W3C//DTD SVG 1.1//EN"
 "http://www.w3.org/Graphics/SVG/1.1/DTD/svg11.dtd">
<!-- Generated by graphviz version 2.43.0 (0)
 -->
<!-- Title: FatPartition::freeClusterCount Pages: 1 -->
<svg width="2484pt" height="568pt"
 viewBox="0.00 0.00 2484.00 567.50" xmlns="http://www.w3.org/2000/svg" xmlns:xlink="http://www.w3.org/1999/xlink">
<g id="graph0" class="graph" transform="scale(1 1) rotate(0) translate(4 563.5)">
<title>FatPartition::freeClusterCount</title>
<!-- Node1 -->
<g id="Node000001" class="node">
<title>Node1</title>
<g id="a_Node000001"><a xlink:title=" ">
<polygon fill="#999999" stroke="#666666" points="131,-319 0,-319 0,-289 131,-289 131,-319"/>
<text text-anchor="start" x="8" y="-307" font-family="Helvetica,sans-Serif" font-size="10.00">FatPartition::freeCluster</text>
<text text-anchor="middle" x="65.5" y="-296" font-family="Helvetica,sans-Serif" font-size="10.00">Count</text>
</a>
</g>
</g>
<!-- Node2 -->
<g id="Node000002" class="node">
<title>Node2</title>
<g id="a_Node000002"><a xlink:href="../../d8/d15/classFatPartition.xhtml#a816bbfbb32354da4aad5c9c254a3ef4b" target="_top" xlink:title=" ">
<polygon fill="white" stroke="#666666" points="509,-369.5 351,-369.5 351,-350.5 509,-350.5 509,-369.5"/>
<text text-anchor="middle" x="430" y="-357.5" font-family="Helvetica,sans-Serif" font-size="10.00">FatPartition::fatCachePrepare</text>
</a>
</g>
</g>
<!-- Node1&#45;&gt;Node2 -->
<g id="edge1_Node000001_Node000002" class="edge">
<title>Node1&#45;&gt;Node2</title>
<g id="a_edge1_Node000001_Node000002"><a xlink:title=" ">
<path fill="none" stroke="#63b8ff" d="M127.69,-319.03C140.62,-321.91 154.22,-324.74 167,-327 224.56,-337.19 289.77,-345.41 340.74,-351.1"/>
<polygon fill="#63b8ff" stroke="#63b8ff" points="340.41,-354.59 350.74,-352.21 341.18,-347.63 340.41,-354.59"/>
</a>
</g>
</g>
<!-- Node36 -->
<g id="Node000036" class="node">
<title>Node36</title>
<g id="a_Node000036"><a xlink:href="../../d8/d15/classFatPartition.xhtml#a1440b49fb2ddf01cc9635cfe83dcc0c8" target="_top" xlink:title=" ">
<polygon fill="white" stroke="#666666" points="295,-294.5 187,-294.5 187,-275.5 295,-275.5 295,-294.5"/>
<text text-anchor="middle" x="241" y="-282.5" font-family="Helvetica,sans-Serif" font-size="10.00">FatPartition::fatGet</text>
</a>
</g>
</g>
<!-- Node1&#45;&gt;Node36 -->
<g id="edge57_Node000001_Node000036" class="edge">
<title>Node1&#45;&gt;Node36</title>
<g id="a_edge57_Node000001_Node000036"><a xlink:title=" ">
<path fill="none" stroke="#63b8ff" d="M131.1,-296.93C146.06,-295.29 161.95,-293.55 176.84,-291.92"/>
<polygon fill="#63b8ff" stroke="#63b8ff" points="177.4,-295.38 186.96,-290.81 176.64,-288.42 177.4,-295.38"/>
</a>
</g>
</g>
<!-- Node37 -->
<g id="Node000037" class="node">
<title>Node37</title>
<g id="a_Node000037"><a xlink:href="../../d8/d15/classFatPartition.xhtml#ad45c276232d7093b82f1075e8c488bac" target="_top" xlink:title=" ">
<polygon fill="white" stroke="#666666" points="486.5,-332.5 373.5,-332.5 373.5,-313.5 486.5,-313.5 486.5,-332.5"/>
<text text-anchor="middle" x="430" y="-320.5" font-family="Helvetica,sans-Serif" font-size="10.00">FatPartition::fatType</text>
</a>
</g>
</g>
<!-- Node1&#45;&gt;Node37 -->
<g id="edge63_Node000001_Node000037" class="edge">
<title>Node1&#45;&gt;Node37</title>
<g id="a_edge63_Node000001_Node000037"><a xlink:title=" ">
<path fill="none" stroke="#63b8ff" d="M131.31,-307.4C196.74,-310.83 297.29,-316.1 363.11,-319.55"/>
<polygon fill="#63b8ff" stroke="#63b8ff" points="363.19,-323.06 373.36,-320.08 363.56,-316.07 363.19,-323.06"/>
</a>
</g>
</g>
<!-- Node41 -->
<g id="Node000041" class="node">
<title>Node41</title>
<g id="a_Node000041"><a xlink:href="../../d8/d15/classFatPartition.xhtml#a9e7c410debf8b9a231c12ea8abfd1c0c" target="_top" xlink:title=" ">
<polygon fill="white" stroke="#666666" points="315,-257 167,-257 167,-227 315,-227 315,-257"/>
<text text-anchor="start" x="175" y="-245" font-family="Helvetica,sans-Serif" font-size="10.00">FatPartition::setFreeCluster</text>
<text text-anchor="middle" x="241" y="-234" font-family="Helvetica,sans-Serif" font-size="10.00">Count</text>
</a>
</g>
</g>
<!-- Node1&#45;&gt;Node41 -->
<g id="edge64_Node000001_Node000041" class="edge">
<title>Node1&#45;&gt;Node41</title>
<g id="a_edge64_Node000001_Node000041"><a xlink:title=" ">
<path fill="none" stroke="#63b8ff" d="M107.01,-288.85C125.3,-282.07 147.2,-274.03 167,-267 173.05,-264.85 179.39,-262.63 185.7,-260.44"/>
<polygon fill="#63b8ff" stroke="#63b8ff" points="187.24,-263.61 195.55,-257.04 184.95,-257 187.24,-263.61"/>
</a>
</g>
</g>
<!-- Node3 -->
<g id="Node000003" class="node">
<title>Node3</title>
<g id="a_Node000003"><a xlink:href="../../d8/d15/classFatPartition.xhtml#ae4a3cea22302bfdf2ee6872e528260a9" target="_top" xlink:title=" ">
<polygon fill="white" stroke="#666666" points="712,-369.5 545,-369.5 545,-350.5 712,-350.5 712,-369.5"/>
<text text-anchor="middle" x="628.5" y="-357.5" font-family="Helvetica,sans-Serif" font-size="10.00">FatPartition::dataCachePrepare</text>
</a>
</g>
</g>
<!-- Node2&#45;&gt;Node3 -->
<g id="edge2_Node000002_Node000003" class="edge">
<title>Node2&#45;&gt;Node3</title>
<g id="a_edge2_Node000002_Node000003"><a xlink:title=" ">
<path fill="none" stroke="#63b8ff" d="M509.23,-360C517.52,-360 526.01,-360 534.45,-360"/>
<polygon fill="#63b8ff" stroke="#63b8ff" points="534.71,-363.5 544.71,-360 534.71,-356.5 534.71,-363.5"/>
</a>
</g>
</g>
<!-- Node4 -->
<g id="Node000004" class="node">
<title>Node4</title>
<g id="a_Node000004"><a xlink:href="../../dd/db1/classFsCache.xhtml#a8c11f064a2ce0a380f522392f09d63cb" target="_top" xlink:title=" ">
<polygon fill="white" stroke="#666666" points="849,-369.5 748,-369.5 748,-350.5 849,-350.5 849,-369.5"/>
<text text-anchor="middle" x="798.5" y="-357.5" font-family="Helvetica,sans-Serif" font-size="10.00">FsCache::prepare</text>
</a>
</g>
</g>
<!-- Node3&#45;&gt;Node4 -->
<g id="edge3_Node000003_Node000004" class="edge">
<title>Node3&#45;&gt;Node4</title>
<g id="a_edge3_Node000003_Node000004"><a xlink:title=" ">
<path fill="none" stroke="#63b8ff" d="M712.02,-360C720.75,-360 729.51,-360 737.9,-360"/>
<polygon fill="#63b8ff" stroke="#63b8ff" points="737.94,-363.5 747.94,-360 737.94,-356.5 737.94,-363.5"/>
</a>
</g>
</g>
<!-- Node5 -->
<g id="Node000005" class="node">
<title>Node5</title>
<g id="a_Node000005"><a xlink:href="../../d8/d7f/classSharedSpiCard.xhtml#a61d86f4092f8ddbc7339d7cbcf6f70c0" target="_top" xlink:title=" ">
<polygon fill="white" stroke="#666666" points="1162.5,-446.5 1016.5,-446.5 1016.5,-427.5 1162.5,-427.5 1162.5,-446.5"/>
<text text-anchor="middle" x="1089.5" y="-434.5" font-family="Helvetica,sans-Serif" font-size="10.00">SharedSpiCard::readSector</text>
</a>
</g>
</g>
<!-- Node4&#45;&gt;Node5 -->
<g id="edge4_Node000004_Node000005" class="edge">
<title>Node4&#45;&gt;Node5</title>
<g id="a_edge4_Node000004_Node000005"><a xlink:title=" ">
<path fill="none" stroke="#63b8ff" d="M835.23,-369.52C887.51,-383.45 984.89,-409.4 1042.48,-424.74"/>
<polygon fill="#63b8ff" stroke="#63b8ff" points="1041.84,-428.19 1052.4,-427.38 1043.64,-421.43 1041.84,-428.19"/>
</a>
</g>
</g>
<!-- Node32 -->
<g id="Node000032" class="node">
<title>Node32</title>
<g id="a_Node000032"><a xlink:href="../../dd/db1/classFsCache.xhtml#a5b90e145400de8687d9f34536b134130" target="_top" xlink:title=" ">
<polygon fill="white" stroke="#666666" points="979,-369.5 885,-369.5 885,-350.5 979,-350.5 979,-369.5"/>
<text text-anchor="middle" x="932" y="-357.5" font-family="Helvetica,sans-Serif" font-size="10.00">FsCache::sector</text>
</a>
</g>
</g>
<!-- Node4&#45;&gt;Node32 -->
<g id="edge43_Node000004_Node000032" class="edge">
<title>Node4&#45;&gt;Node32</title>
<g id="a_edge43_Node000004_Node000032"><a xlink:title=" ">
<path fill="none" stroke="#63b8ff" d="M849.21,-360C857.49,-360 866.12,-360 874.55,-360"/>
<polygon fill="#63b8ff" stroke="#63b8ff" points="874.68,-363.5 884.68,-360 874.68,-356.5 874.68,-363.5"/>
</a>
</g>
</g>
<!-- Node33 -->
<g id="Node000033" class="node">
<title>Node33</title>
<g id="a_Node000033"><a xlink:href="../../dd/db1/classFsCache.xhtml#a5a2c8fb432d7b7590ebb43200ca21893" target="_top" xlink:title=" ">
<polygon fill="white" stroke="#666666" points="975,-332.5 889,-332.5 889,-313.5 975,-313.5 975,-332.5"/>
<text text-anchor="middle" x="932" y="-320.5" font-family="Helvetica,sans-Serif" font-size="10.00">FsCache::sync</text>
</a>
</g>
</g>
<!-- Node4&#45;&gt;Node33 -->
<g id="edge44_Node000004_Node000033" class="edge">
<title>Node4&#45;&gt;Node33</title>
<g id="a_edge44_Node000004_Node000033"><a xlink:title=" ">
<path fill="none" stroke="#63b8ff" d="M833.36,-350.47C849.65,-345.89 869.38,-340.34 886.83,-335.43"/>
<polygon fill="#63b8ff" stroke="#63b8ff" points="888.11,-338.7 896.79,-332.62 886.22,-331.96 888.11,-338.7"/>
</a>
</g>
</g>
<!-- Node6 -->
<g id="Node000006" class="node">
<title>Node6</title>
<g id="a_Node000006"><a xlink:href="../../d8/d7f/classSharedSpiCard.xhtml#adda33199753fc2aec74fe317cbaabc06" target="_top" xlink:title=" ">
<polygon fill="white" stroke="#666666" points="1365,-218.5 1200,-218.5 1200,-199.5 1365,-199.5 1365,-218.5"/>
<text text-anchor="middle" x="1282.5" y="-206.5" font-family="Helvetica,sans-Serif" font-size="10.00">SharedSpiCard::cardCommand</text>
</a>
</g>
</g>
<!-- Node5&#45;&gt;Node6 -->
<g id="edge5_Node000005_Node000006" class="edge">
<title>Node5&#45;&gt;Node6</title>
<g id="a_edge5_Node000005_Node000006"><a xlink:title=" ">
<path fill="none" stroke="#63b8ff" d="M1098.46,-427.49C1127.65,-392.66 1229.01,-271.66 1266.99,-226.33"/>
<polygon fill="#63b8ff" stroke="#63b8ff" points="1269.76,-228.46 1273.5,-218.55 1264.4,-223.97 1269.76,-228.46"/>
</a>
</g>
</g>
<!-- Node20 -->
<g id="Node000020" class="node">
<title>Node20</title>
<g id="a_Node000020"><a xlink:href="../../d8/d7f/classSharedSpiCard.xhtml#a747c3f0b962098cf0c097f3c4c2b4fd4" target="_top" xlink:title=" ">
<polygon fill="white" stroke="#666666" points="1896.5,-350.5 1779.5,-350.5 1779.5,-331.5 1896.5,-331.5 1896.5,-350.5"/>
<text text-anchor="middle" x="1838" y="-338.5" font-family="Helvetica,sans-Serif" font-size="10.00">SharedSpiCard::error</text>
</a>
</g>
</g>
<!-- Node5&#45;&gt;Node20 -->
<g id="edge38_Node000005_Node000020" class="edge">
<title>Node5&#45;&gt;Node20</title>
<g id="a_edge38_Node000005_Node000020"><a xlink:title=" ">
<path fill="none" stroke="#63b8ff" d="M1116.48,-446.6C1206.56,-478.21 1511.76,-571.45 1729,-470 1778,-447.12 1812.62,-389.85 1828.03,-359.91"/>
<polygon fill="#63b8ff" stroke="#63b8ff" points="1831.36,-361.07 1832.67,-350.56 1825.09,-357.96 1831.36,-361.07"/>
</a>
</g>
</g>
<!-- Node21 -->
<g id="Node000021" class="node">
<title>Node21</title>
<g id="a_Node000021"><a xlink:href="../../d8/d7f/classSharedSpiCard.xhtml#a0f511c39c50055a4fc97e720933aee3a" target="_top" xlink:title=" ">
<polygon fill="white" stroke="#666666" points="1903,-293.5 1773,-293.5 1773,-274.5 1903,-274.5 1903,-293.5"/>
<text text-anchor="middle" x="1838" y="-281.5" font-family="Helvetica,sans-Serif" font-size="10.00">SharedSpiCard::spiStop</text>
</a>
</g>
</g>
<!-- Node5&#45;&gt;Node21 -->
<g id="edge41_Node000005_Node000021" class="edge">
<title>Node5&#45;&gt;Node21</title>
<g id="a_edge41_Node000005_Node000021"><a xlink:title=" ">
<path fill="none" stroke="#63b8ff" d="M1138.15,-446.51C1251.18,-466.32 1540.17,-500.63 1729,-378 1753.5,-362.09 1743.5,-342.78 1765,-323 1776.11,-312.78 1790.4,-304.32 1803.31,-297.93"/>
<polygon fill="#63b8ff" stroke="#63b8ff" points="1804.85,-301.07 1812.41,-293.64 1801.87,-294.74 1804.85,-301.07"/>
</a>
</g>
</g>
<!-- Node30 -->
<g id="Node000030" class="node">
<title>Node30</title>
<g id="a_Node000030"><a xlink:href="../../d8/d7f/classSharedSpiCard.xhtml#abeae3cdc162f24c2d450abe4e1ed8340" target="_top" xlink:title=" ">
<polygon fill="white" stroke="#666666" points="1352,-541.5 1213,-541.5 1213,-522.5 1352,-522.5 1352,-541.5"/>
<text text-anchor="middle" x="1282.5" y="-529.5" font-family="Helvetica,sans-Serif" font-size="10.00">SharedSpiCard::readData</text>
</a>
</g>
</g>
<!-- Node5&#45;&gt;Node30 -->
<g id="edge39_Node000005_Node000030" class="edge">
<title>Node5&#45;&gt;Node30</title>
<g id="a_edge39_Node000005_Node000030"><a xlink:title=" ">
<path fill="none" stroke="#63b8ff" d="M1102.62,-446.56C1122.12,-461.53 1162.12,-490.59 1200,-508 1209.65,-512.43 1220.32,-516.27 1230.67,-519.5"/>
<polygon fill="#63b8ff" stroke="#63b8ff" points="1229.87,-522.91 1240.45,-522.41 1231.86,-516.2 1229.87,-522.91"/>
</a>
</g>
</g>
<!-- Node31 -->
<g id="Node000031" class="node">
<title>Node31</title>
<g id="a_Node000031"><a xlink:href="../../d8/d7f/classSharedSpiCard.xhtml#a7dac2190763d7b4b72163ed7131e8a87" target="_top" xlink:title=" ">
<polygon fill="white" stroke="#666666" points="1340.5,-427.5 1224.5,-427.5 1224.5,-408.5 1340.5,-408.5 1340.5,-427.5"/>
<text text-anchor="middle" x="1282.5" y="-415.5" font-family="Helvetica,sans-Serif" font-size="10.00">SharedSpiCard::type</text>
</a>
</g>
</g>
<!-- Node5&#45;&gt;Node31 -->
<g id="edge42_Node000005_Node000031" class="edge">
<title>Node5&#45;&gt;Node31</title>
<g id="a_edge42_Node000005_Node000031"><a xlink:title=" ">
<path fill="none" stroke="#63b8ff" d="M1162.71,-429.82C1179.59,-428.14 1197.51,-426.35 1214.17,-424.7"/>
<polygon fill="#63b8ff" stroke="#63b8ff" points="1214.76,-428.16 1224.37,-423.68 1214.07,-421.19 1214.76,-428.16"/>
</a>
</g>
</g>
<!-- Node7 -->
<g id="Node000007" class="node">
<title>Node7</title>
<g id="a_Node000007"><a xlink:href="../../d8/d7f/classSharedSpiCard.xhtml#a08363209d938db87521cca6a84146041" target="_top" xlink:title=" ">
<polygon fill="white" stroke="#666666" points="2101,-79.5 1954,-79.5 1954,-60.5 2101,-60.5 2101,-79.5"/>
<text text-anchor="middle" x="2027.5" y="-67.5" font-family="Helvetica,sans-Serif" font-size="10.00">SharedSpiCard::spiReceive</text>
</a>
</g>
</g>
<!-- Node6&#45;&gt;Node7 -->
<g id="edge6_Node000006_Node000007" class="edge">
<title>Node6&#45;&gt;Node7</title>
<g id="a_edge6_Node000006_Node000007"><a xlink:title=" ">
<path fill="none" stroke="#63b8ff" d="M1293.1,-199.29C1311.87,-181 1355.61,-141.78 1401,-125 1585.73,-56.69 1821.26,-57.41 1943.88,-63.74"/>
<polygon fill="#63b8ff" stroke="#63b8ff" points="1943.78,-67.24 1953.95,-64.29 1944.15,-60.25 1943.78,-67.24"/>
</a>
</g>
</g>
<!-- Node9 -->
<g id="Node000009" class="node">
<title>Node9</title>
<g id="a_Node000009"><a xlink:href="../../d8/d7f/classSharedSpiCard.xhtml#ab311b9ad8a250f06afbe091f7abb118b" target="_top" xlink:title=" ">
<polygon fill="white" stroke="#666666" points="2093.5,-237.5 1961.5,-237.5 1961.5,-218.5 2093.5,-218.5 2093.5,-237.5"/>
<text text-anchor="middle" x="2027.5" y="-225.5" font-family="Helvetica,sans-Serif" font-size="10.00">SharedSpiCard::spiSend</text>
</a>
</g>
</g>
<!-- Node6&#45;&gt;Node9 -->
<g id="edge8_Node000006_Node000009" class="edge">
<title>Node6&#45;&gt;Node9</title>
<g id="a_edge8_Node000006_Node000009"><a xlink:title=" ">
<path fill="none" stroke="#63b8ff" d="M1365.23,-207.44C1454.6,-206.1 1602.03,-204.95 1729,-209 1804.67,-211.41 1891.01,-217.27 1951.11,-221.85"/>
<polygon fill="#63b8ff" stroke="#63b8ff" points="1951.03,-225.36 1961.27,-222.63 1951.56,-218.38 1951.03,-225.36"/>
</a>
</g>
</g>
<!-- Node11 -->
<g id="Node000011" class="node">
<title>Node11</title>
<g id="a_Node000011"><a xlink:href="../../d8/d7f/classSharedSpiCard.xhtml#aef2dfa72e8d5643c90720f9f8c6a4254" target="_top" xlink:title=" ">
<polygon fill="white" stroke="#666666" points="1903.5,-161.5 1772.5,-161.5 1772.5,-142.5 1903.5,-142.5 1903.5,-161.5"/>
<text text-anchor="middle" x="1838" y="-149.5" font-family="Helvetica,sans-Serif" font-size="10.00">SharedSpiCard::spiStart</text>
</a>
</g>
</g>
<!-- Node6&#45;&gt;Node11 -->
<g id="edge10_Node000006_Node000011" class="edge">
<title>Node6&#45;&gt;Node11</title>
<g id="a_edge10_Node000006_Node000011"><a xlink:title=" ">
<path fill="none" stroke="#63b8ff" d="M1311.13,-199.39C1334.69,-191.64 1369.65,-181.2 1401,-176 1526.53,-155.18 1674.89,-151.34 1762.17,-151.17"/>
<polygon fill="#63b8ff" stroke="#63b8ff" points="1762.25,-154.67 1772.25,-151.17 1762.25,-147.67 1762.25,-154.67"/>
</a>
</g>
</g>
<!-- Node18 -->
<g id="Node000018" class="node">
<title>Node18</title>
<g id="a_Node000018"><a xlink:href="../../d8/d7f/classSharedSpiCard.xhtml#a2f181b3d6f27413a0f5ee883dfd94d87" target="_top" xlink:title=" ">
<polygon fill="white" stroke="#666666" points="1551,-237.5 1401,-237.5 1401,-218.5 1551,-218.5 1551,-237.5"/>
<text text-anchor="middle" x="1476" y="-225.5" font-family="Helvetica,sans-Serif" font-size="10.00">SharedSpiCard::syncDevice</text>
</a>
</g>
</g>
<!-- Node6&#45;&gt;Node18 -->
<g id="edge18_Node000006_Node000018" class="edge">
<title>Node6&#45;&gt;Node18</title>
<g id="a_edge18_Node000006_Node000018"><a xlink:title=" ">
<path fill="none" stroke="#63b8ff" d="M1365.27,-217.11C1373.65,-217.94 1382.18,-218.79 1390.59,-219.63"/>
<polygon fill="#63b8ff" stroke="#63b8ff" points="1390.48,-223.13 1400.78,-220.64 1391.17,-216.17 1390.48,-223.13"/>
</a>
</g>
</g>
<!-- Node26 -->
<g id="Node000026" class="node">
<title>Node26</title>
<g id="a_Node000026"><a xlink:href="../../d8/d7f/classSharedSpiCard.xhtml#ab3468397bb3b12d29dd2f31e45b3dcaf" target="_top" xlink:title=" ">
<polygon fill="white" stroke="#666666" points="1911,-123.5 1765,-123.5 1765,-104.5 1911,-104.5 1911,-123.5"/>
<text text-anchor="middle" x="1838" y="-111.5" font-family="Helvetica,sans-Serif" font-size="10.00">SharedSpiCard::waitReady</text>
</a>
</g>
</g>
<!-- Node6&#45;&gt;Node26 -->
<g id="edge37_Node000006_Node000026" class="edge">
<title>Node6&#45;&gt;Node26</title>
<g id="a_edge37_Node000006_Node000026"><a xlink:title=" ">
<path fill="none" stroke="#63b8ff" d="M1299.98,-199.46C1322.14,-187.14 1363.15,-166.06 1401,-156 1521.3,-124.01 1666.02,-115.76 1754.74,-113.97"/>
<polygon fill="#63b8ff" stroke="#63b8ff" points="1754.81,-117.47 1764.74,-113.79 1754.68,-110.47 1754.81,-117.47"/>
</a>
</g>
</g>
<!-- Node8 -->
<g id="Node000008" class="node">
<title>Node8</title>
<g id="a_Node000008"><a xlink:href="../../d0/d25/classSdSpiArduinoDriver.xhtml#a8d6bc852a52e9d69c4b1e48ee062e8d1" target="_top" xlink:title=" ">
<polygon fill="white" stroke="#666666" points="2255,-83 2144,-83 2144,-53 2255,-53 2255,-83"/>
<text text-anchor="start" x="2152" y="-71" font-family="Helvetica,sans-Serif" font-size="10.00">SdSpiArduinoDriver</text>
<text text-anchor="middle" x="2199.5" y="-60" font-family="Helvetica,sans-Serif" font-size="10.00">::receive</text>
</a>
</g>
</g>
<!-- Node7&#45;&gt;Node8 -->
<g id="edge7_Node000007_Node000008" class="edge">
<title>Node7&#45;&gt;Node8</title>
<g id="a_edge7_Node000007_Node000008"><a xlink:title=" ">
<path fill="none" stroke="#63b8ff" d="M2101.09,-69.15C2111.96,-69.02 2123.11,-68.89 2133.81,-68.76"/>
<polygon fill="#63b8ff" stroke="#63b8ff" points="2133.94,-72.26 2143.9,-68.64 2133.86,-65.26 2133.94,-72.26"/>
</a>
</g>
</g>
<!-- Node10 -->
<g id="Node000010" class="node">
<title>Node10</title>
<g id="a_Node000010"><a xlink:href="../../d0/d25/classSdSpiArduinoDriver.xhtml#a3c4842e47f98fe5d3799cd6028778ab5" target="_top" xlink:title=" ">
<polygon fill="white" stroke="#666666" points="2255,-255 2144,-255 2144,-225 2255,-225 2255,-255"/>
<text text-anchor="start" x="2152" y="-243" font-family="Helvetica,sans-Serif" font-size="10.00">SdSpiArduinoDriver</text>
<text text-anchor="middle" x="2199.5" y="-232" font-family="Helvetica,sans-Serif" font-size="10.00">::send</text>
</a>
</g>
</g>
<!-- Node9&#45;&gt;Node10 -->
<g id="edge9_Node000009_Node000010" class="edge">
<title>Node9&#45;&gt;Node10</title>
<g id="a_edge9_Node000009_Node000010"><a xlink:title=" ">
<path fill="none" stroke="#63b8ff" d="M2093.74,-232.61C2106.82,-233.53 2120.56,-234.5 2133.62,-235.42"/>
<polygon fill="#63b8ff" stroke="#63b8ff" points="2133.71,-238.94 2143.93,-236.15 2134.2,-231.95 2133.71,-238.94"/>
</a>
</g>
</g>
<!-- Node11&#45;&gt;Node9 -->
<g id="edge17_Node000011_Node000009" class="edge">
<title>Node11&#45;&gt;Node9</title>
<g id="a_edge17_Node000011_Node000009"><a xlink:title=" ">
<path fill="none" stroke="#63b8ff" d="M1877.67,-161.6C1888.85,-165.23 1900.78,-169.99 1911,-176 1929.71,-187.01 1927.83,-198.82 1947,-209 1951.32,-211.29 1955.91,-213.31 1960.63,-215.09"/>
<polygon fill="#63b8ff" stroke="#63b8ff" points="1959.84,-218.52 1970.44,-218.41 1962.09,-211.89 1959.84,-218.52"/>
</a>
</g>
</g>
<!-- Node12 -->
<g id="Node000012" class="node">
<title>Node12</title>
<g id="a_Node000012"><a xlink:href="../../d8/d7f/classSharedSpiCard.xhtml#a69ee2fe49dfaeea2347d8a265806d2b6" target="_top" xlink:title=" ">
<polygon fill="white" stroke="#666666" points="2102,-162.5 1953,-162.5 1953,-143.5 2102,-143.5 2102,-162.5"/>
<text text-anchor="middle" x="2027.5" y="-150.5" font-family="Helvetica,sans-Serif" font-size="10.00">SharedSpiCard::spiActivate</text>
</a>
</g>
</g>
<!-- Node11&#45;&gt;Node12 -->
<g id="edge11_Node000011_Node000012" class="edge">
<title>Node11&#45;&gt;Node12</title>
<g id="a_edge11_Node000011_Node000012"><a xlink:title=" ">
<path fill="none" stroke="#63b8ff" d="M1903.53,-152.34C1916.19,-152.41 1929.64,-152.48 1942.82,-152.55"/>
<polygon fill="#63b8ff" stroke="#63b8ff" points="1942.82,-156.05 1952.84,-152.61 1942.86,-149.05 1942.82,-156.05"/>
</a>
</g>
</g>
<!-- Node14 -->
<g id="Node000014" class="node">
<title>Node14</title>
<g id="a_Node000014"><a xlink:href="../../d8/d7f/classSharedSpiCard.xhtml#a8c3088599862ff6e84ae79bfdf32aea8" target="_top" xlink:title=" ">
<polygon fill="white" stroke="#666666" points="2096.5,-200.5 1958.5,-200.5 1958.5,-181.5 2096.5,-181.5 2096.5,-200.5"/>
<text text-anchor="middle" x="2027.5" y="-188.5" font-family="Helvetica,sans-Serif" font-size="10.00">SharedSpiCard::spiSelect</text>
</a>
</g>
</g>
<!-- Node11&#45;&gt;Node14 -->
<g id="edge13_Node000011_Node000014" class="edge">
<title>Node11&#45;&gt;Node14</title>
<g id="a_edge13_Node000011_Node000014"><a xlink:title=" ">
<path fill="none" stroke="#63b8ff" d="M1884.87,-161.54C1910.84,-166.94 1943.52,-173.74 1970.94,-179.44"/>
<polygon fill="#63b8ff" stroke="#63b8ff" points="1970.28,-182.88 1980.78,-181.49 1971.7,-176.03 1970.28,-182.88"/>
</a>
</g>
</g>
<!-- Node13 -->
<g id="Node000013" class="node">
<title>Node13</title>
<g id="a_Node000013"><a xlink:href="../../d0/d25/classSdSpiArduinoDriver.xhtml#abb6b88c5c8b87fc344a69f23f6eab3d9" target="_top" xlink:title=" ">
<polygon fill="white" stroke="#666666" points="2255,-169 2144,-169 2144,-139 2255,-139 2255,-169"/>
<text text-anchor="start" x="2152" y="-157" font-family="Helvetica,sans-Serif" font-size="10.00">SdSpiArduinoDriver</text>
<text text-anchor="middle" x="2199.5" y="-146" font-family="Helvetica,sans-Serif" font-size="10.00">::activate</text>
</a>
</g>
</g>
<!-- Node12&#45;&gt;Node13 -->
<g id="edge12_Node000012_Node000013" class="edge">
<title>Node12&#45;&gt;Node13</title>
<g id="a_edge12_Node000012_Node000013"><a xlink:title=" ">
<path fill="none" stroke="#63b8ff" d="M2102.08,-153.43C2112.57,-153.49 2123.31,-153.56 2133.63,-153.62"/>
<polygon fill="#63b8ff" stroke="#63b8ff" points="2133.76,-157.12 2143.78,-153.68 2133.8,-150.12 2133.76,-157.12"/>
</a>
</g>
</g>
<!-- Node15 -->
<g id="Node000015" class="node">
<title>Node15</title>
<g id="a_Node000015"><a xlink:href="../../d2/df0/SdSpiChipSelect_8cpp.xhtml#ac469bbe2d31ffde9b00ffc68258d7428" target="_top" xlink:title=" ">
<polygon fill="white" stroke="#666666" points="2232.5,-206.5 2166.5,-206.5 2166.5,-187.5 2232.5,-187.5 2232.5,-206.5"/>
<text text-anchor="middle" x="2199.5" y="-194.5" font-family="Helvetica,sans-Serif" font-size="10.00">sdCsWrite</text>
</a>
</g>
</g>
<!-- Node14&#45;&gt;Node15 -->
<g id="edge14_Node000014_Node000015" class="edge">
<title>Node14&#45;&gt;Node15</title>
<g id="a_edge14_Node000014_Node000015"><a xlink:title=" ">
<path fill="none" stroke="#63b8ff" d="M2096.67,-193.41C2116.74,-194.11 2138.12,-194.87 2156.09,-195.5"/>
<polygon fill="#63b8ff" stroke="#63b8ff" points="2156.11,-199.01 2166.23,-195.86 2156.36,-192.01 2156.11,-199.01"/>
</a>
</g>
</g>
<!-- Node16 -->
<g id="Node000016" class="node">
<title>Node16</title>
<g id="a_Node000016"><a xlink:href="../../d5/d45/wiring__digital_8c.xhtml#a73b9b61feeaf7d790d107f2954a7fd93" target="_top" xlink:title=" ">
<polygon fill="white" stroke="#666666" points="2365,-206.5 2291,-206.5 2291,-187.5 2365,-187.5 2365,-206.5"/>
<text text-anchor="middle" x="2328" y="-194.5" font-family="Helvetica,sans-Serif" font-size="10.00">digitalWrite</text>
</a>
</g>
</g>
<!-- Node15&#45;&gt;Node16 -->
<g id="edge15_Node000015_Node000016" class="edge">
<title>Node15&#45;&gt;Node16</title>
<g id="a_edge15_Node000015_Node000016"><a xlink:title=" ">
<path fill="none" stroke="#63b8ff" d="M2232.75,-197C2247.28,-197 2264.71,-197 2280.61,-197"/>
<polygon fill="#63b8ff" stroke="#63b8ff" points="2280.79,-200.5 2290.79,-197 2280.79,-193.5 2280.79,-200.5"/>
</a>
</g>
</g>
<!-- Node17 -->
<g id="Node000017" class="node">
<title>Node17</title>
<g id="a_Node000017"><a xlink:href="../../d5/d45/wiring__digital_8c.xhtml#ae3d0bcbe4eb927ca8f5d5c21b7e4f224" target="_top" xlink:title=" ">
<polygon fill="white" stroke="#666666" points="2476,-206.5 2401,-206.5 2401,-187.5 2476,-187.5 2476,-206.5"/>
<text text-anchor="middle" x="2438.5" y="-194.5" font-family="Helvetica,sans-Serif" font-size="10.00">turnOffPWM</text>
</a>
</g>
</g>
<!-- Node16&#45;&gt;Node17 -->
<g id="edge16_Node000016_Node000017" class="edge">
<title>Node16&#45;&gt;Node17</title>
<g id="a_edge16_Node000016_Node000017"><a xlink:title=" ">
<path fill="none" stroke="#63b8ff" d="M2365.13,-197C2373.28,-197 2382.05,-197 2390.57,-197"/>
<polygon fill="#63b8ff" stroke="#63b8ff" points="2390.79,-200.5 2400.79,-197 2390.79,-193.5 2390.79,-200.5"/>
</a>
</g>
</g>
<!-- Node19 -->
<g id="Node000019" class="node">
<title>Node19</title>
<g id="a_Node000019"><a xlink:href="../../d8/d7f/classSharedSpiCard.xhtml#ab33ad2aefbb9cff905cad0879dffc78b" target="_top" xlink:title=" ">
<polygon fill="white" stroke="#666666" points="1726.5,-274.5 1589.5,-274.5 1589.5,-255.5 1726.5,-255.5 1726.5,-274.5"/>
<text text-anchor="middle" x="1658" y="-262.5" font-family="Helvetica,sans-Serif" font-size="10.00">SharedSpiCard::readStop</text>
</a>
</g>
</g>
<!-- Node18&#45;&gt;Node19 -->
<g id="edge19_Node000018_Node000019" class="edge">
<title>Node18&#45;&gt;Node19</title>
<g id="a_edge19_Node000018_Node000019"><a xlink:title=" ">
<path fill="none" stroke="#63b8ff" d="M1523.35,-237.53C1546.88,-242.36 1575.66,-248.28 1600.48,-253.38"/>
<polygon fill="#63b8ff" stroke="#63b8ff" points="1599.99,-256.85 1610.49,-255.44 1601.4,-250 1599.99,-256.85"/>
</a>
</g>
</g>
<!-- Node25 -->
<g id="Node000025" class="node">
<title>Node25</title>
<g id="a_Node000025"><a xlink:href="../../d8/d7f/classSharedSpiCard.xhtml#ae9a34a573077e43e7c6028a16ae77fb3" target="_top" xlink:title=" ">
<polygon fill="white" stroke="#666666" points="1728,-237.5 1588,-237.5 1588,-218.5 1728,-218.5 1728,-237.5"/>
<text text-anchor="middle" x="1658" y="-225.5" font-family="Helvetica,sans-Serif" font-size="10.00">SharedSpiCard::writeStop</text>
</a>
</g>
</g>
<!-- Node18&#45;&gt;Node25 -->
<g id="edge28_Node000018_Node000025" class="edge">
<title>Node18&#45;&gt;Node25</title>
<g id="a_edge28_Node000018_Node000025"><a xlink:title=" ">
<path fill="none" stroke="#63b8ff" d="M1551.25,-228C1559.95,-228 1568.86,-228 1577.62,-228"/>
<polygon fill="#63b8ff" stroke="#63b8ff" points="1577.83,-231.5 1587.83,-228 1577.83,-224.5 1577.83,-231.5"/>
</a>
</g>
</g>
<!-- Node19&#45;&gt;Node6 -->
<g id="edge20_Node000019_Node000006" class="edge">
<title>Node19&#45;&gt;Node6</title>
<g id="a_edge20_Node000019_Node000006"><a xlink:title=" ">
<path fill="none" stroke="#63b8ff" d="M1589.34,-264.22C1537.4,-262.61 1464.14,-258.11 1401,-246 1372.46,-240.52 1341.11,-230.44 1317.98,-222.17"/>
<polygon fill="#63b8ff" stroke="#63b8ff" points="1318.88,-218.78 1308.28,-218.65 1316.48,-225.36 1318.88,-218.78"/>
</a>
</g>
</g>
<!-- Node19&#45;&gt;Node20 -->
<g id="edge21_Node000019_Node000020" class="edge">
<title>Node19&#45;&gt;Node20</title>
<g id="a_edge21_Node000019_Node000020"><a xlink:title=" ">
<path fill="none" stroke="#63b8ff" d="M1681.54,-274.63C1712.84,-287.99 1769.61,-312.23 1805.2,-327.42"/>
<polygon fill="#63b8ff" stroke="#63b8ff" points="1804.07,-330.74 1814.64,-331.45 1806.82,-324.31 1804.07,-330.74"/>
</a>
</g>
</g>
<!-- Node19&#45;&gt;Node21 -->
<g id="edge22_Node000019_Node000021" class="edge">
<title>Node19&#45;&gt;Node21</title>
<g id="a_edge22_Node000019_Node000021"><a xlink:title=" ">
<path fill="none" stroke="#63b8ff" d="M1726.55,-272.21C1738.38,-273.47 1750.75,-274.79 1762.75,-276.07"/>
<polygon fill="#63b8ff" stroke="#63b8ff" points="1762.41,-279.56 1772.73,-277.14 1763.16,-272.6 1762.41,-279.56"/>
</a>
</g>
</g>
<!-- Node21&#45;&gt;Node9 -->
<g id="edge25_Node000021_Node000009" class="edge">
<title>Node21&#45;&gt;Node9</title>
<g id="a_edge25_Node000021_Node000009"><a xlink:title=" ">
<path fill="none" stroke="#63b8ff" d="M1863.62,-274.42C1885.34,-266.19 1917.97,-254.36 1947,-246 1954.46,-243.85 1962.37,-241.8 1970.2,-239.9"/>
<polygon fill="#63b8ff" stroke="#63b8ff" points="1971.1,-243.28 1980.03,-237.57 1969.49,-236.47 1971.1,-243.28"/>
</a>
</g>
</g>
<!-- Node22 -->
<g id="Node000022" class="node">
<title>Node22</title>
<g id="a_Node000022"><a xlink:href="../../d8/d7f/classSharedSpiCard.xhtml#ac6acfca5a23337977d2e4436ab8ab39a" target="_top" xlink:title=" ">
<polygon fill="white" stroke="#666666" points="2108,-311.5 1947,-311.5 1947,-292.5 2108,-292.5 2108,-311.5"/>
<text text-anchor="middle" x="2027.5" y="-299.5" font-family="Helvetica,sans-Serif" font-size="10.00">SharedSpiCard::spiDeactivate</text>
</a>
</g>
</g>
<!-- Node21&#45;&gt;Node22 -->
<g id="edge23_Node000021_Node000022" class="edge">
<title>Node21&#45;&gt;Node22</title>
<g id="a_edge23_Node000021_Node000022"><a xlink:title=" ">
<path fill="none" stroke="#63b8ff" d="M1903,-290.14C1913.92,-291.19 1925.43,-292.3 1936.86,-293.39"/>
<polygon fill="#63b8ff" stroke="#63b8ff" points="1936.58,-296.88 1946.87,-294.36 1937.25,-289.92 1936.58,-296.88"/>
</a>
</g>
</g>
<!-- Node24 -->
<g id="Node000024" class="node">
<title>Node24</title>
<g id="a_Node000024"><a xlink:href="../../d8/d7f/classSharedSpiCard.xhtml#ad06a3278372300987b97876cf598c114" target="_top" xlink:title=" ">
<polygon fill="white" stroke="#666666" points="2103,-274.5 1952,-274.5 1952,-255.5 2103,-255.5 2103,-274.5"/>
<text text-anchor="middle" x="2027.5" y="-262.5" font-family="Helvetica,sans-Serif" font-size="10.00">SharedSpiCard::spiUnselect</text>
</a>
</g>
</g>
<!-- Node21&#45;&gt;Node24 -->
<g id="edge26_Node000021_Node000024" class="edge">
<title>Node21&#45;&gt;Node24</title>
<g id="a_edge26_Node000021_Node000024"><a xlink:title=" ">
<path fill="none" stroke="#63b8ff" d="M1903,-277.51C1915.39,-276.26 1928.55,-274.93 1941.49,-273.61"/>
<polygon fill="#63b8ff" stroke="#63b8ff" points="1942.21,-277.06 1951.8,-272.57 1941.5,-270.1 1942.21,-277.06"/>
</a>
</g>
</g>
<!-- Node23 -->
<g id="Node000023" class="node">
<title>Node23</title>
<g id="a_Node000023"><a xlink:href="../../d0/d25/classSdSpiArduinoDriver.xhtml#ae88a255f533e3acb41d1221025a69b55" target="_top" xlink:title=" ">
<polygon fill="white" stroke="#666666" points="2255,-317 2144,-317 2144,-287 2255,-287 2255,-317"/>
<text text-anchor="start" x="2152" y="-305" font-family="Helvetica,sans-Serif" font-size="10.00">SdSpiArduinoDriver</text>
<text text-anchor="middle" x="2199.5" y="-294" font-family="Helvetica,sans-Serif" font-size="10.00">::deactivate</text>
</a>
</g>
</g>
<!-- Node22&#45;&gt;Node23 -->
<g id="edge24_Node000022_Node000023" class="edge">
<title>Node22&#45;&gt;Node23</title>
<g id="a_edge24_Node000022_Node000023"><a xlink:title=" ">
<path fill="none" stroke="#63b8ff" d="M2108.02,-302C2116.63,-302 2125.3,-302 2133.7,-302"/>
<polygon fill="#63b8ff" stroke="#63b8ff" points="2133.78,-305.5 2143.78,-302 2133.78,-298.5 2133.78,-305.5"/>
</a>
</g>
</g>
<!-- Node24&#45;&gt;Node15 -->
<g id="edge27_Node000024_Node000015" class="edge">
<title>Node24&#45;&gt;Node15</title>
<g id="a_edge27_Node000024_Node000015"><a xlink:title=" ">
<path fill="none" stroke="#63b8ff" d="M2083.14,-255.47C2091.7,-252.99 2100.26,-249.88 2108,-246 2126.62,-236.67 2125.88,-226.26 2144,-216 2147.98,-213.75 2152.28,-211.69 2156.65,-209.84"/>
<polygon fill="#63b8ff" stroke="#63b8ff" points="2158.2,-212.99 2166.25,-206.1 2155.66,-206.47 2158.2,-212.99"/>
</a>
</g>
</g>
<!-- Node25&#45;&gt;Node9 -->
<g id="edge30_Node000025_Node000009" class="edge">
<title>Node25&#45;&gt;Node9</title>
<g id="a_edge30_Node000025_Node000009"><a xlink:title=" ">
<path fill="none" stroke="#63b8ff" d="M1728.12,-228C1791.67,-228 1885.68,-228 1951.14,-228"/>
<polygon fill="#63b8ff" stroke="#63b8ff" points="1951.39,-231.5 1961.39,-228 1951.39,-224.5 1951.39,-231.5"/>
</a>
</g>
</g>
<!-- Node25&#45;&gt;Node20 -->
<g id="edge29_Node000025_Node000020" class="edge">
<title>Node25&#45;&gt;Node20</title>
<g id="a_edge29_Node000025_Node000020"><a xlink:title=" ">
<path fill="none" stroke="#63b8ff" d="M1713.61,-237.6C1719.09,-239.84 1724.33,-242.6 1729,-246 1753.22,-263.64 1743.01,-282.65 1765,-303 1775.67,-312.87 1789.37,-320.94 1801.96,-327.06"/>
<polygon fill="#63b8ff" stroke="#63b8ff" points="1800.76,-330.36 1811.3,-331.36 1803.69,-324 1800.76,-330.36"/>
</a>
</g>
</g>
<!-- Node25&#45;&gt;Node21 -->
<g id="edge31_Node000025_Node000021" class="edge">
<title>Node25&#45;&gt;Node21</title>
<g id="a_edge31_Node000025_Node000021"><a xlink:title=" ">
<path fill="none" stroke="#63b8ff" d="M1698.78,-237.59C1708.7,-240.16 1719.28,-243.04 1729,-246 1753.79,-253.53 1781.34,-263.25 1802.41,-270.97"/>
<polygon fill="#63b8ff" stroke="#63b8ff" points="1801.3,-274.29 1811.89,-274.47 1803.72,-267.72 1801.3,-274.29"/>
</a>
</g>
</g>
<!-- Node25&#45;&gt;Node26 -->
<g id="edge32_Node000025_Node000026" class="edge">
<title>Node25&#45;&gt;Node26</title>
<g id="a_edge32_Node000025_Node000026"><a xlink:title=" ">
<path fill="none" stroke="#63b8ff" d="M1666.96,-218.28C1683.28,-199.02 1722.58,-155.86 1765,-133 1769.26,-130.71 1773.81,-128.68 1778.47,-126.88"/>
<polygon fill="#63b8ff" stroke="#63b8ff" points="1779.86,-130.11 1788.16,-123.53 1777.57,-123.49 1779.86,-130.11"/>
</a>
</g>
</g>
<!-- Node26&#45;&gt;Node7 -->
<g id="edge33_Node000026_Node000007" class="edge">
<title>Node26&#45;&gt;Node7</title>
<g id="a_edge33_Node000026_Node000007"><a xlink:title=" ">
<path fill="none" stroke="#63b8ff" d="M1879.68,-104.45C1907.94,-97.82 1945.79,-88.94 1975.98,-81.86"/>
<polygon fill="#63b8ff" stroke="#63b8ff" points="1976.96,-85.22 1985.89,-79.53 1975.36,-78.41 1976.96,-85.22"/>
</a>
</g>
</g>
<!-- Node27 -->
<g id="Node000027" class="node">
<title>Node27</title>
<g id="a_Node000027"><a xlink:href="../../db/df4/classTimeout.xhtml#abbabe99f42e52472ddd3a7e9d22dce95" target="_top" xlink:title=" ">
<polygon fill="white" stroke="#666666" points="2082,-121.5 1973,-121.5 1973,-102.5 2082,-102.5 2082,-121.5"/>
<text text-anchor="middle" x="2027.5" y="-109.5" font-family="Helvetica,sans-Serif" font-size="10.00">Timeout::timedOut</text>
</a>
</g>
</g>
<!-- Node26&#45;&gt;Node27 -->
<g id="edge34_Node000026_Node000027" class="edge">
<title>Node26&#45;&gt;Node27</title>
<g id="a_edge34_Node000026_Node000027"><a xlink:title=" ">
<path fill="none" stroke="#63b8ff" d="M1911.22,-113.23C1928.23,-113.05 1946.22,-112.86 1962.82,-112.68"/>
<polygon fill="#63b8ff" stroke="#63b8ff" points="1962.98,-116.18 1972.95,-112.57 1962.91,-109.18 1962.98,-116.18"/>
</a>
</g>
</g>
<!-- Node28 -->
<g id="Node000028" class="node">
<title>Node28</title>
<g id="a_Node000028"><a xlink:href="../../db/df4/classTimeout.xhtml#a9a72ea0591f11452fb15bfaa1ae5108a" target="_top" xlink:title=" ">
<polygon fill="white" stroke="#666666" points="2250.5,-120.5 2148.5,-120.5 2148.5,-101.5 2250.5,-101.5 2250.5,-120.5"/>
<text text-anchor="middle" x="2199.5" y="-108.5" font-family="Helvetica,sans-Serif" font-size="10.00">Timeout::millis16</text>
</a>
</g>
</g>
<!-- Node27&#45;&gt;Node28 -->
<g id="edge35_Node000027_Node000028" class="edge">
<title>Node27&#45;&gt;Node28</title>
<g id="a_edge35_Node000027_Node000028"><a xlink:title=" ">
<path fill="none" stroke="#63b8ff" d="M2082.29,-111.68C2100.02,-111.58 2119.85,-111.46 2138.04,-111.36"/>
<polygon fill="#63b8ff" stroke="#63b8ff" points="2138.26,-114.85 2148.24,-111.3 2138.22,-107.85 2138.26,-114.85"/>
</a>
</g>
</g>
<!-- Node29 -->
<g id="Node000029" class="node">
<title>Node29</title>
<g id="a_Node000029"><a xlink:href="../../d5/df3/wiring_8c.xhtml#a6ff7f2532a22366f0013bc41397129fd" target="_top" xlink:title=" ">
<polygon fill="white" stroke="#666666" points="2350,-120.5 2306,-120.5 2306,-101.5 2350,-101.5 2350,-120.5"/>
<text text-anchor="middle" x="2328" y="-108.5" font-family="Helvetica,sans-Serif" font-size="10.00">millis</text>
</a>
</g>
</g>
<!-- Node28&#45;&gt;Node29 -->
<g id="edge36_Node000028_Node000029" class="edge">
<title>Node28&#45;&gt;Node29</title>
<g id="a_edge36_Node000028_Node000029"><a xlink:title=" ">
<path fill="none" stroke="#63b8ff" d="M2250.86,-111C2265.97,-111 2282.11,-111 2295.62,-111"/>
<polygon fill="#63b8ff" stroke="#63b8ff" points="2295.83,-114.5 2305.83,-111 2295.83,-107.5 2295.83,-114.5"/>
</a>
</g>
</g>
<!-- Node30&#45;&gt;Node30 -->
<g id="edge40_Node000030_Node000030" class="edge">
<title>Node30&#45;&gt;Node30</title>
<g id="a_edge40_Node000030_Node000030"><a xlink:title=" ">
<path fill="none" stroke="#63b8ff" d="M1252.91,-541.58C1238.51,-550.23 1248.38,-559.5 1282.5,-559.5 1305.96,-559.5 1317.95,-555.12 1318.48,-549.57"/>
<polygon fill="#63b8ff" stroke="#63b8ff" points="1321.07,-547.21 1312.09,-541.58 1315.61,-551.58 1321.07,-547.21"/>
</a>
</g>
</g>
<!-- Node34 -->
<g id="Node000034" class="node">
<title>Node34</title>
<g id="a_Node000034"><a xlink:href="../../d8/d7f/classSharedSpiCard.xhtml#adf2ce56ca0a56fe841fbdf75f7f3faee" target="_top" xlink:title=" ">
<polygon fill="white" stroke="#666666" points="1164,-332.5 1015,-332.5 1015,-313.5 1164,-313.5 1164,-332.5"/>
<text text-anchor="middle" x="1089.5" y="-320.5" font-family="Helvetica,sans-Serif" font-size="10.00">SharedSpiCard::writeSector</text>
</a>
</g>
</g>
<!-- Node33&#45;&gt;Node34 -->
<g id="edge45_Node000033_Node000034" class="edge">
<title>Node33&#45;&gt;Node34</title>
<g id="a_edge45_Node000033_Node000034"><a xlink:title=" ">
<path fill="none" stroke="#63b8ff" d="M975.08,-323C984.32,-323 994.42,-323 1004.66,-323"/>
<polygon fill="#63b8ff" stroke="#63b8ff" points="1004.93,-326.5 1014.93,-323 1004.93,-319.5 1004.93,-326.5"/>
</a>
</g>
</g>
<!-- Node34&#45;&gt;Node6 -->
<g id="edge46_Node000034_Node000006" class="edge">
<title>Node34&#45;&gt;Node6</title>
<g id="a_edge46_Node000034_Node000006"><a xlink:title=" ">
<path fill="none" stroke="#63b8ff" d="M1106.46,-313.48C1139.74,-293.61 1216.78,-247.63 1256.63,-223.84"/>
<polygon fill="#63b8ff" stroke="#63b8ff" points="1258.66,-226.71 1265.46,-218.58 1255.07,-220.7 1258.66,-226.71"/>
</a>
</g>
</g>
<!-- Node34&#45;&gt;Node7 -->
<g id="edge48_Node000034_Node000007" class="edge">
<title>Node34&#45;&gt;Node7</title>
<g id="a_edge48_Node000034_Node000007"><a xlink:title=" ">
<path fill="none" stroke="#63b8ff" d="M1093.09,-313.37C1102.21,-281.15 1135.83,-175.86 1200,-117 1297.89,-27.22 1342.18,0 1475,0 1475,0 1475,0 1659,0 1780.39,0 1920.42,-37.31 1987.17,-57.45"/>
<polygon fill="#63b8ff" stroke="#63b8ff" points="1986.27,-60.84 1996.85,-60.41 1988.31,-54.15 1986.27,-60.84"/>
</a>
</g>
</g>
<!-- Node34&#45;&gt;Node20 -->
<g id="edge47_Node000034_Node000020" class="edge">
<title>Node34&#45;&gt;Node20</title>
<g id="a_edge47_Node000034_Node000020"><a xlink:title=" ">
<path fill="none" stroke="#63b8ff" d="M1127.11,-332.52C1225.24,-356.67 1502.09,-415.79 1729,-378 1756,-373.5 1785.31,-363.09 1806.57,-354.45"/>
<polygon fill="#63b8ff" stroke="#63b8ff" points="1808.14,-357.59 1816.02,-350.51 1805.45,-351.12 1808.14,-357.59"/>
</a>
</g>
</g>
<!-- Node34&#45;&gt;Node21 -->
<g id="edge49_Node000034_Node000021" class="edge">
<title>Node34&#45;&gt;Node21</title>
<g id="a_edge49_Node000034_Node000021"><a xlink:title=" ">
<path fill="none" stroke="#63b8ff" d="M1164.12,-319.15C1306.82,-311.7 1619.57,-295.36 1762.76,-287.88"/>
<polygon fill="#63b8ff" stroke="#63b8ff" points="1762.97,-291.37 1772.77,-287.36 1762.6,-284.38 1762.97,-291.37"/>
</a>
</g>
</g>
<!-- Node34&#45;&gt;Node26 -->
<g id="edge51_Node000034_Node000026" class="edge">
<title>Node34&#45;&gt;Node26</title>
<g id="a_edge51_Node000034_Node000026"><a xlink:title=" ">
<path fill="none" stroke="#63b8ff" d="M1095.77,-313.37C1109.58,-289.03 1149.31,-224.49 1200,-190 1376,-70.27 1644.26,-86.95 1768.92,-103.1"/>
<polygon fill="#63b8ff" stroke="#63b8ff" points="1768.71,-106.6 1779.09,-104.46 1769.64,-99.67 1768.71,-106.6"/>
</a>
</g>
</g>
<!-- Node34&#45;&gt;Node31 -->
<g id="edge50_Node000034_Node000031" class="edge">
<title>Node34&#45;&gt;Node31</title>
<g id="a_edge50_Node000034_Node000031"><a xlink:title=" ">
<path fill="none" stroke="#63b8ff" d="M1102.62,-332.56C1122.12,-347.53 1162.12,-376.59 1200,-394 1209.65,-398.43 1220.32,-402.27 1230.67,-405.5"/>
<polygon fill="#63b8ff" stroke="#63b8ff" points="1229.87,-408.91 1240.45,-408.41 1231.86,-402.2 1229.87,-408.91"/>
</a>
</g>
</g>
<!-- Node35 -->
<g id="Node000035" class="node">
<title>Node35</title>
<g id="a_Node000035"><a xlink:href="../../d8/d7f/classSharedSpiCard.xhtml#a5b6d7ad34f56d0d6a6c5059d920499ba" target="_top" xlink:title=" ">
<polygon fill="white" stroke="#666666" points="1729,-350.5 1587,-350.5 1587,-331.5 1729,-331.5 1729,-350.5"/>
<text text-anchor="middle" x="1658" y="-338.5" font-family="Helvetica,sans-Serif" font-size="10.00">SharedSpiCard::writeData</text>
</a>
</g>
</g>
<!-- Node34&#45;&gt;Node35 -->
<g id="edge52_Node000034_Node000035" class="edge">
<title>Node34&#45;&gt;Node35</title>
<g id="a_edge52_Node000034_Node000035"><a xlink:title=" ">
<path fill="none" stroke="#63b8ff" d="M1164.27,-325.34C1270.77,-328.73 1466.83,-334.96 1576.8,-338.45"/>
<polygon fill="#63b8ff" stroke="#63b8ff" points="1576.74,-341.95 1586.85,-338.77 1576.96,-334.96 1576.74,-341.95"/>
</a>
</g>
</g>
<!-- Node35&#45;&gt;Node20 -->
<g id="edge53_Node000035_Node000020" class="edge">
<title>Node35&#45;&gt;Node20</title>
<g id="a_edge53_Node000035_Node000020"><a xlink:title=" ">
<path fill="none" stroke="#63b8ff" d="M1729.09,-341C1742.22,-341 1755.92,-341 1768.99,-341"/>
<polygon fill="#63b8ff" stroke="#63b8ff" points="1769.3,-344.5 1779.3,-341 1769.3,-337.5 1769.3,-344.5"/>
</a>
</g>
</g>
<!-- Node35&#45;&gt;Node21 -->
<g id="edge54_Node000035_Node000021" class="edge">
<title>Node35&#45;&gt;Node21</title>
<g id="a_edge54_Node000035_Node000021"><a xlink:title=" ">
<path fill="none" stroke="#63b8ff" d="M1688.79,-331.46C1718.57,-321.92 1764.53,-307.21 1797.37,-296.69"/>
<polygon fill="#63b8ff" stroke="#63b8ff" points="1798.65,-299.95 1807.11,-293.57 1796.52,-293.29 1798.65,-299.95"/>
</a>
</g>
</g>
<!-- Node35&#45;&gt;Node26 -->
<g id="edge55_Node000035_Node000026" class="edge">
<title>Node35&#45;&gt;Node26</title>
<g id="a_edge55_Node000035_Node000026"><a xlink:title=" ">
<path fill="none" stroke="#63b8ff" d="M1676.44,-331.37C1692.55,-321.56 1715.91,-304.84 1729,-284 1765.69,-225.57 1716.8,-182.37 1765,-133 1766.27,-131.7 1767.62,-130.48 1769.04,-129.34"/>
<polygon fill="#63b8ff" stroke="#63b8ff" points="1771.3,-132.05 1777.78,-123.67 1767.49,-126.18 1771.3,-132.05"/>
</a>
</g>
</g>
<!-- Node35&#45;&gt;Node35 -->
<g id="edge56_Node000035_Node000035" class="edge">
<title>Node35&#45;&gt;Node35</title>
<g id="a_edge56_Node000035_Node000035"><a xlink:title=" ">
<path fill="none" stroke="#63b8ff" d="M1630.26,-350.58C1616.76,-359.23 1626.01,-368.5 1658,-368.5 1679.49,-368.5 1690.72,-364.32 1691.68,-358.95"/>
<polygon fill="#63b8ff" stroke="#63b8ff" points="1694.39,-356.71 1685.74,-350.58 1688.68,-360.76 1694.39,-356.71"/>
</a>
</g>
</g>
<!-- Node36&#45;&gt;Node2 -->
<g id="edge58_Node000036_Node000002" class="edge">
<title>Node36&#45;&gt;Node2</title>
<g id="a_edge58_Node000036_Node000002"><a xlink:title=" ">
<path fill="none" stroke="#63b8ff" d="M257.3,-294.61C277.88,-307.16 315.95,-329.03 351,-342 356.82,-344.15 362.98,-346.1 369.18,-347.85"/>
<polygon fill="#63b8ff" stroke="#63b8ff" points="368.36,-351.26 378.93,-350.44 370.16,-344.49 368.36,-351.26"/>
</a>
</g>
</g>
<!-- Node36&#45;&gt;Node37 -->
<g id="edge59_Node000036_Node000037" class="edge">
<title>Node36&#45;&gt;Node37</title>
<g id="a_edge59_Node000036_Node000037"><a xlink:title=" ">
<path fill="none" stroke="#63b8ff" d="M289.19,-294.59C314.42,-299.72 345.67,-306.07 372.23,-311.46"/>
<polygon fill="#63b8ff" stroke="#63b8ff" points="371.65,-314.92 382.15,-313.48 373.05,-308.06 371.65,-314.92"/>
</a>
</g>
</g>
<!-- Node38 -->
<g id="Node000038" class="node">
<title>Node38</title>
<g id="a_Node000038"><a xlink:href="../../dc/d87/FsStructs_8h.xhtml#a89aef4aa8e8032eab2982d660e7b8a81" target="_top" xlink:title=" ">
<polygon fill="white" stroke="#666666" points="458,-221.5 402,-221.5 402,-202.5 458,-202.5 458,-221.5"/>
<text text-anchor="middle" x="430" y="-209.5" font-family="Helvetica,sans-Serif" font-size="10.00">getLe16</text>
</a>
</g>
</g>
<!-- Node36&#45;&gt;Node38 -->
<g id="edge60_Node000036_Node000038" class="edge">
<title>Node36&#45;&gt;Node38</title>
<g id="a_edge60_Node000036_Node000038"><a xlink:title=" ">
<path fill="none" stroke="#63b8ff" d="M293.24,-275.38C300.8,-272.92 308.29,-269.84 315,-266 334.64,-254.76 331.21,-240.97 351,-230 363.4,-223.13 378.3,-218.87 391.74,-216.24"/>
<polygon fill="#63b8ff" stroke="#63b8ff" points="392.41,-219.68 401.67,-214.53 391.22,-212.78 392.41,-219.68"/>
</a>
</g>
</g>
<!-- Node39 -->
<g id="Node000039" class="node">
<title>Node39</title>
<g id="a_Node000039"><a xlink:href="../../dc/d87/FsStructs_8h.xhtml#a07fdcae728ab56cd53f71c6c17b1889c" target="_top" xlink:title=" ">
<polygon fill="white" stroke="#666666" points="458,-295.5 402,-295.5 402,-276.5 458,-276.5 458,-295.5"/>
<text text-anchor="middle" x="430" y="-283.5" font-family="Helvetica,sans-Serif" font-size="10.00">getLe32</text>
</a>
</g>
</g>
<!-- Node36&#45;&gt;Node39 -->
<g id="edge61_Node000036_Node000039" class="edge">
<title>Node36&#45;&gt;Node39</title>
<g id="a_edge61_Node000036_Node000039"><a xlink:title=" ">
<path fill="none" stroke="#63b8ff" d="M295.09,-285.28C326.01,-285.45 364.24,-285.65 391.93,-285.8"/>
<polygon fill="#63b8ff" stroke="#63b8ff" points="391.97,-289.3 401.99,-285.86 392.01,-282.3 391.97,-289.3"/>
</a>
</g>
</g>
<!-- Node40 -->
<g id="Node000040" class="node">
<title>Node40</title>
<g id="a_Node000040"><a xlink:href="../../d8/d15/classFatPartition.xhtml#aaa16ebfce14bbbde1bae82061ad66e0e" target="_top" xlink:title=" ">
<polygon fill="white" stroke="#666666" points="483,-258.5 377,-258.5 377,-239.5 483,-239.5 483,-258.5"/>
<text text-anchor="middle" x="430" y="-246.5" font-family="Helvetica,sans-Serif" font-size="10.00">FatPartition::isEOC</text>
</a>
</g>
</g>
<!-- Node36&#45;&gt;Node40 -->
<g id="edge62_Node000036_Node000040" class="edge">
<title>Node36&#45;&gt;Node40</title>
<g id="a_edge62_Node000036_Node000040"><a xlink:title=" ">
<path fill="none" stroke="#63b8ff" d="M291.62,-275.45C315.49,-270.85 344.3,-265.31 369.35,-260.48"/>
<polygon fill="#63b8ff" stroke="#63b8ff" points="370.31,-263.86 379.47,-258.53 368.99,-256.99 370.31,-263.86"/>
</a>
</g>
</g>
</g>
</svg>
