<?xml version="1.0" encoding="UTF-8" standalone="no"?>
<!DOCTYPE svg PUBLIC "-//W3C//DTD SVG 1.1//EN"
 "http://www.w3.org/Graphics/SVG/1.1/DTD/svg11.dtd">
<!-- Generated by graphviz version 2.43.0 (0)
 -->
<!-- Title: ExFatFormatter::writeUpcaseUnicode Pages: 1 -->
<svg width="1879pt" height="476pt"
 viewBox="0.00 0.00 1879.00 475.66" xmlns="http://www.w3.org/2000/svg" xmlns:xlink="http://www.w3.org/1999/xlink">
<g id="graph0" class="graph" transform="scale(1 1) rotate(0) translate(4 471.66)">
<title>ExFatFormatter::writeUpcaseUnicode</title>
<!-- Node1 -->
<g id="Node000001" class="node">
<title>Node1</title>
<g id="a_Node000001"><a xlink:title=" ">
<polygon fill="#999999" stroke="#666666" points="158,-217.72 0,-217.72 0,-187.72 158,-187.72 158,-217.72"/>
<text text-anchor="start" x="8" y="-205.72" font-family="Helvetica,sans-Serif" font-size="10.00">ExFatFormatter::writeUpcase</text>
<text text-anchor="middle" x="79" y="-194.72" font-family="Helvetica,sans-Serif" font-size="10.00">Unicode</text>
</a>
</g>
</g>
<!-- Node2 -->
<g id="Node000002" class="node">
<title>Node2</title>
<g id="a_Node000002"><a xlink:href="../../d9/d4c/classExFatFormatter_a759ad08a74b8256217d2a5cc87b4dd8b.xhtml#a759ad08a74b8256217d2a5cc87b4dd8b" target="_top" xlink:title=" ">
<polygon fill="white" stroke="#666666" points="374,-212.22 194,-212.22 194,-193.22 374,-193.22 374,-212.22"/>
<text text-anchor="middle" x="284" y="-200.22" font-family="Helvetica,sans-Serif" font-size="10.00">ExFatFormatter::writeUpcaseByte</text>
</a>
</g>
</g>
<!-- Node1&#45;&gt;Node2 -->
<g id="edge1_Node000001_Node000002" class="edge">
<title>Node1&#45;&gt;Node2</title>
<g id="a_edge1_Node000001_Node000002"><a xlink:title=" ">
<path fill="none" stroke="#63b8ff" d="M158.19,-202.72C166.54,-202.72 175.11,-202.72 183.67,-202.72"/>
<polygon fill="#63b8ff" stroke="#63b8ff" points="183.68,-206.22 193.68,-202.72 183.68,-199.22 183.68,-206.22"/>
</a>
</g>
</g>
<!-- Node3 -->
<g id="Node000003" class="node">
<title>Node3</title>
<g id="a_Node000003"><a xlink:href="../../dc/d87/FsStructs_8h_a7837ee2f48056071f5919515498d705b.xhtml#a7837ee2f48056071f5919515498d705b" target="_top" xlink:title=" ">
<polygon fill="white" stroke="#666666" points="531.5,-231.22 437.5,-231.22 437.5,-212.22 531.5,-212.22 531.5,-231.22"/>
<text text-anchor="middle" x="484.5" y="-219.22" font-family="Helvetica,sans-Serif" font-size="10.00">exFatChecksum</text>
</a>
</g>
</g>
<!-- Node2&#45;&gt;Node3 -->
<g id="edge2_Node000002_Node000003" class="edge">
<title>Node2&#45;&gt;Node3</title>
<g id="a_edge2_Node000002_Node000003"><a xlink:title=" ">
<path fill="none" stroke="#63b8ff" d="M374.09,-211.25C392.18,-212.98 410.73,-214.76 427.3,-216.34"/>
<polygon fill="#63b8ff" stroke="#63b8ff" points="427.05,-219.83 437.33,-217.3 427.71,-212.86 427.05,-219.83"/>
</a>
</g>
</g>
<!-- Node4 -->
<g id="Node000004" class="node">
<title>Node4</title>
<g id="a_Node000004"><a xlink:href="../../d8/d7f/classSharedSpiCard_adf2ce56ca0a56fe841fbdf75f7f3faee.xhtml#adf2ce56ca0a56fe841fbdf75f7f3faee" target="_top" xlink:title=" ">
<polygon fill="white" stroke="#666666" points="559,-194.22 410,-194.22 410,-175.22 559,-175.22 559,-194.22"/>
<text text-anchor="middle" x="484.5" y="-182.22" font-family="Helvetica,sans-Serif" font-size="10.00">SharedSpiCard::writeSector</text>
</a>
</g>
</g>
<!-- Node2&#45;&gt;Node4 -->
<g id="edge3_Node000002_Node000004" class="edge">
<title>Node2&#45;&gt;Node4</title>
<g id="a_edge3_Node000002_Node000004"><a xlink:title=" ">
<path fill="none" stroke="#63b8ff" d="M374.09,-194.64C382.59,-193.87 391.19,-193.09 399.64,-192.33"/>
<polygon fill="#63b8ff" stroke="#63b8ff" points="400.21,-195.79 409.85,-191.4 399.57,-188.82 400.21,-195.79"/>
</a>
</g>
</g>
<!-- Node5 -->
<g id="Node000005" class="node">
<title>Node5</title>
<g id="a_Node000005"><a xlink:href="../../d8/d7f/classSharedSpiCard_adda33199753fc2aec74fe317cbaabc06.xhtml#adda33199753fc2aec74fe317cbaabc06" target="_top" xlink:title=" ">
<polygon fill="white" stroke="#666666" points="760,-194.22 595,-194.22 595,-175.22 760,-175.22 760,-194.22"/>
<text text-anchor="middle" x="677.5" y="-182.22" font-family="Helvetica,sans-Serif" font-size="10.00">SharedSpiCard::cardCommand</text>
</a>
</g>
</g>
<!-- Node4&#45;&gt;Node5 -->
<g id="edge4_Node000004_Node000005" class="edge">
<title>Node4&#45;&gt;Node5</title>
<g id="a_edge4_Node000004_Node000005"><a xlink:title=" ">
<path fill="none" stroke="#63b8ff" d="M559.07,-184.72C567.46,-184.72 576.08,-184.72 584.66,-184.72"/>
<polygon fill="#63b8ff" stroke="#63b8ff" points="584.7,-188.22 594.7,-184.72 584.7,-181.22 584.7,-188.22"/>
</a>
</g>
</g>
<!-- Node6 -->
<g id="Node000006" class="node">
<title>Node6</title>
<g id="a_Node000006"><a xlink:href="../../d8/d7f/classSharedSpiCard_a08363209d938db87521cca6a84146041.xhtml#a08363209d938db87521cca6a84146041" target="_top" xlink:title=" ">
<polygon fill="white" stroke="#666666" points="1496,-61.22 1349,-61.22 1349,-42.22 1496,-42.22 1496,-61.22"/>
<text text-anchor="middle" x="1422.5" y="-49.22" font-family="Helvetica,sans-Serif" font-size="10.00">SharedSpiCard::spiReceive</text>
</a>
</g>
</g>
<!-- Node4&#45;&gt;Node6 -->
<g id="edge38_Node000004_Node000006" class="edge">
<title>Node4&#45;&gt;Node6</title>
<g id="a_edge38_Node000004_Node000006"><a xlink:title=" ">
<path fill="none" stroke="#63b8ff" d="M489.05,-174.98C499.87,-146.94 535.32,-65.93 595,-32.72 702.06,26.85 747.49,-13.72 870,-13.72 870,-13.72 870,-13.72 1054,-13.72 1159.52,-13.72 1281.19,-29.41 1354.67,-40.63"/>
<polygon fill="#63b8ff" stroke="#63b8ff" points="1354.3,-44.11 1364.71,-42.18 1355.36,-37.2 1354.3,-44.11"/>
</a>
</g>
</g>
<!-- Node19 -->
<g id="Node000019" class="node">
<title>Node19</title>
<g id="a_Node000019"><a xlink:href="../../d8/d7f/classSharedSpiCard_a747c3f0b962098cf0c097f3c4c2b4fd4.xhtml#a747c3f0b962098cf0c097f3c4c2b4fd4" target="_top" xlink:title=" ">
<polygon fill="white" stroke="#666666" points="1291.5,-345.22 1174.5,-345.22 1174.5,-326.22 1291.5,-326.22 1291.5,-345.22"/>
<text text-anchor="middle" x="1233" y="-333.22" font-family="Helvetica,sans-Serif" font-size="10.00">SharedSpiCard::error</text>
</a>
</g>
</g>
<!-- Node4&#45;&gt;Node19 -->
<g id="edge37_Node000004_Node000019" class="edge">
<title>Node4&#45;&gt;Node19</title>
<g id="a_edge37_Node000004_Node000019"><a xlink:title=" ">
<path fill="none" stroke="#63b8ff" d="M546.4,-194.33C551.06,-196.82 555.36,-199.91 559,-203.72 612.92,-260.22 537.15,-323.25 595,-375.72 769.23,-533.77 896.48,-452.48 1124,-392.72 1156.15,-384.28 1189.43,-364.79 1210.4,-350.96"/>
<polygon fill="#63b8ff" stroke="#63b8ff" points="1212.53,-353.75 1218.86,-345.25 1208.61,-347.95 1212.53,-353.75"/>
</a>
</g>
</g>
<!-- Node20 -->
<g id="Node000020" class="node">
<title>Node20</title>
<g id="a_Node000020"><a xlink:href="../../d8/d7f/classSharedSpiCard_a0f511c39c50055a4fc97e720933aee3a.xhtml#a0f511c39c50055a4fc97e720933aee3a" target="_top" xlink:title=" ">
<polygon fill="white" stroke="#666666" points="1298,-289.22 1168,-289.22 1168,-270.22 1298,-270.22 1298,-289.22"/>
<text text-anchor="middle" x="1233" y="-277.22" font-family="Helvetica,sans-Serif" font-size="10.00">SharedSpiCard::spiStop</text>
</a>
</g>
</g>
<!-- Node4&#45;&gt;Node20 -->
<g id="edge39_Node000004_Node000020" class="edge">
<title>Node4&#45;&gt;Node20</title>
<g id="a_edge39_Node000004_Node000020"><a xlink:title=" ">
<path fill="none" stroke="#63b8ff" d="M524.95,-194.3C536.02,-197.15 548.02,-200.41 559,-203.72 665.71,-235.92 686.79,-263.42 796,-285.72 877.19,-302.3 899.18,-295.83 982,-298.72 1045.07,-300.92 1061.13,-304.21 1124,-298.72 1141.76,-297.17 1160.97,-294.21 1178.2,-291.08"/>
<polygon fill="#63b8ff" stroke="#63b8ff" points="1178.91,-294.51 1188.09,-289.23 1177.62,-287.63 1178.91,-294.51"/>
</a>
</g>
</g>
<!-- Node25 -->
<g id="Node000025" class="node">
<title>Node25</title>
<g id="a_Node000025"><a xlink:href="../../d8/d7f/classSharedSpiCard_ab3468397bb3b12d29dd2f31e45b3dcaf.xhtml#ab3468397bb3b12d29dd2f31e45b3dcaf" target="_top" xlink:title=" ">
<polygon fill="white" stroke="#666666" points="1306,-136.22 1160,-136.22 1160,-117.22 1306,-117.22 1306,-136.22"/>
<text text-anchor="middle" x="1233" y="-124.22" font-family="Helvetica,sans-Serif" font-size="10.00">SharedSpiCard::waitReady</text>
</a>
</g>
</g>
<!-- Node4&#45;&gt;Node25 -->
<g id="edge41_Node000004_Node000025" class="edge">
<title>Node4&#45;&gt;Node25</title>
<g id="a_edge41_Node000004_Node000025"><a xlink:title=" ">
<path fill="none" stroke="#63b8ff" d="M538.29,-175.22C556.25,-172.21 576.46,-169.06 595,-166.72 766.31,-145.15 809.61,-142.35 982,-132.72 1037.85,-129.6 1100.8,-128.1 1149.56,-127.38"/>
<polygon fill="#63b8ff" stroke="#63b8ff" points="1149.8,-130.88 1159.75,-127.24 1149.7,-123.88 1149.8,-130.88"/>
</a>
</g>
</g>
<!-- Node29 -->
<g id="Node000029" class="node">
<title>Node29</title>
<g id="a_Node000029"><a xlink:href="../../d8/d7f/classSharedSpiCard_a7dac2190763d7b4b72163ed7131e8a87.xhtml#a7dac2190763d7b4b72163ed7131e8a87" target="_top" xlink:title=" ">
<polygon fill="white" stroke="#666666" points="735.5,-61.22 619.5,-61.22 619.5,-42.22 735.5,-42.22 735.5,-61.22"/>
<text text-anchor="middle" x="677.5" y="-49.22" font-family="Helvetica,sans-Serif" font-size="10.00">SharedSpiCard::type</text>
</a>
</g>
</g>
<!-- Node4&#45;&gt;Node29 -->
<g id="edge40_Node000004_Node000029" class="edge">
<title>Node4&#45;&gt;Node29</title>
<g id="a_edge40_Node000004_Node000029"><a xlink:title=" ">
<path fill="none" stroke="#63b8ff" d="M492.54,-174.96C508.38,-153.7 549.07,-102.92 595,-75.72 602.65,-71.19 611.22,-67.46 619.85,-64.41"/>
<polygon fill="#63b8ff" stroke="#63b8ff" points="621.15,-67.66 629.58,-61.24 618.99,-61.01 621.15,-67.66"/>
</a>
</g>
</g>
<!-- Node30 -->
<g id="Node000030" class="node">
<title>Node30</title>
<g id="a_Node000030"><a xlink:href="../../d8/d7f/classSharedSpiCard_a5b6d7ad34f56d0d6a6c5059d920499ba.xhtml#a5b6d7ad34f56d0d6a6c5059d920499ba" target="_top" xlink:title=" ">
<polygon fill="white" stroke="#666666" points="1124,-365.22 982,-365.22 982,-346.22 1124,-346.22 1124,-365.22"/>
<text text-anchor="middle" x="1053" y="-353.22" font-family="Helvetica,sans-Serif" font-size="10.00">SharedSpiCard::writeData</text>
</a>
</g>
</g>
<!-- Node4&#45;&gt;Node30 -->
<g id="edge42_Node000004_Node000030" class="edge">
<title>Node4&#45;&gt;Node30</title>
<g id="a_edge42_Node000004_Node000030"><a xlink:title=" ">
<path fill="none" stroke="#63b8ff" d="M545.42,-194.24C550.41,-196.73 555.04,-199.85 559,-203.72 601.23,-245.06 548.85,-294.81 595,-331.72 717.51,-429.69 922.87,-390.82 1010.42,-367.91"/>
<polygon fill="#63b8ff" stroke="#63b8ff" points="1011.5,-371.24 1020.26,-365.27 1009.69,-364.48 1011.5,-371.24"/>
</a>
</g>
</g>
<!-- Node5&#45;&gt;Node6 -->
<g id="edge5_Node000005_Node000006" class="edge">
<title>Node5&#45;&gt;Node6</title>
<g id="a_edge5_Node000005_Node000006"><a xlink:title=" ">
<path fill="none" stroke="#63b8ff" d="M707.69,-175.17C731.31,-167.71 765.53,-157.51 796,-150.72 988.38,-107.84 1218.07,-76.46 1338.46,-61.51"/>
<polygon fill="#63b8ff" stroke="#63b8ff" points="1339.21,-64.95 1348.71,-60.25 1338.36,-58 1339.21,-64.95"/>
</a>
</g>
</g>
<!-- Node8 -->
<g id="Node000008" class="node">
<title>Node8</title>
<g id="a_Node000008"><a xlink:href="../../d8/d7f/classSharedSpiCard_ab311b9ad8a250f06afbe091f7abb118b.xhtml#ab311b9ad8a250f06afbe091f7abb118b" target="_top" xlink:title=" ">
<polygon fill="white" stroke="#666666" points="1488.5,-250.22 1356.5,-250.22 1356.5,-231.22 1488.5,-231.22 1488.5,-250.22"/>
<text text-anchor="middle" x="1422.5" y="-238.22" font-family="Helvetica,sans-Serif" font-size="10.00">SharedSpiCard::spiSend</text>
</a>
</g>
</g>
<!-- Node5&#45;&gt;Node8 -->
<g id="edge7_Node000005_Node000008" class="edge">
<title>Node5&#45;&gt;Node8</title>
<g id="a_edge7_Node000005_Node000008"><a xlink:title=" ">
<path fill="none" stroke="#63b8ff" d="M760.14,-190.87C905.23,-201.81 1205.89,-224.47 1346.26,-235.05"/>
<polygon fill="#63b8ff" stroke="#63b8ff" points="1346.25,-238.56 1356.49,-235.82 1346.78,-231.58 1346.25,-238.56"/>
</a>
</g>
</g>
<!-- Node10 -->
<g id="Node000010" class="node">
<title>Node10</title>
<g id="a_Node000010"><a xlink:href="../../d8/d7f/classSharedSpiCard_aef2dfa72e8d5643c90720f9f8c6a4254.xhtml#aef2dfa72e8d5643c90720f9f8c6a4254" target="_top" xlink:title=" ">
<polygon fill="white" stroke="#666666" points="1298.5,-175.22 1167.5,-175.22 1167.5,-156.22 1298.5,-156.22 1298.5,-175.22"/>
<text text-anchor="middle" x="1233" y="-163.22" font-family="Helvetica,sans-Serif" font-size="10.00">SharedSpiCard::spiStart</text>
</a>
</g>
</g>
<!-- Node5&#45;&gt;Node10 -->
<g id="edge9_Node000005_Node000010" class="edge">
<title>Node5&#45;&gt;Node10</title>
<g id="a_edge9_Node000005_Node000010"><a xlink:title=" ">
<path fill="none" stroke="#63b8ff" d="M760.17,-181.92C867.27,-178.24 1053.66,-171.84 1157.22,-168.29"/>
<polygon fill="#63b8ff" stroke="#63b8ff" points="1157.41,-171.78 1167.29,-167.94 1157.17,-164.79 1157.41,-171.78"/>
</a>
</g>
</g>
<!-- Node17 -->
<g id="Node000017" class="node">
<title>Node17</title>
<g id="a_Node000017"><a xlink:href="../../d8/d7f/classSharedSpiCard_a2f181b3d6f27413a0f5ee883dfd94d87.xhtml#a2f181b3d6f27413a0f5ee883dfd94d87" target="_top" xlink:title=" ">
<polygon fill="white" stroke="#666666" points="946,-251.22 796,-251.22 796,-232.22 946,-232.22 946,-251.22"/>
<text text-anchor="middle" x="871" y="-239.22" font-family="Helvetica,sans-Serif" font-size="10.00">SharedSpiCard::syncDevice</text>
</a>
</g>
</g>
<!-- Node5&#45;&gt;Node17 -->
<g id="edge17_Node000005_Node000017" class="edge">
<title>Node5&#45;&gt;Node17</title>
<g id="a_edge17_Node000005_Node000017"><a xlink:title=" ">
<path fill="none" stroke="#63b8ff" d="M710.55,-194.26C742.73,-203.84 792.46,-218.64 827.82,-229.17"/>
<polygon fill="#63b8ff" stroke="#63b8ff" points="827.26,-232.65 837.84,-232.15 829.26,-225.94 827.26,-232.65"/>
</a>
</g>
</g>
<!-- Node5&#45;&gt;Node25 -->
<g id="edge36_Node000005_Node000025" class="edge">
<title>Node5&#45;&gt;Node25</title>
<g id="a_edge36_Node000005_Node000025"><a xlink:title=" ">
<path fill="none" stroke="#63b8ff" d="M756.85,-175.19C769.92,-173.65 783.34,-172.11 796,-170.72 919.12,-157.17 1061.97,-143.06 1149.67,-134.58"/>
<polygon fill="#63b8ff" stroke="#63b8ff" points="1150.21,-138.05 1159.82,-133.6 1149.53,-131.08 1150.21,-138.05"/>
</a>
</g>
</g>
<!-- Node7 -->
<g id="Node000007" class="node">
<title>Node7</title>
<g id="a_Node000007"><a xlink:href="../../d0/d25/classSdSpiArduinoDriver_a8d6bc852a52e9d69c4b1e48ee062e8d1.xhtml#a8d6bc852a52e9d69c4b1e48ee062e8d1" target="_top" xlink:title=" ">
<polygon fill="white" stroke="#666666" points="1650,-66.72 1539,-66.72 1539,-36.72 1650,-36.72 1650,-66.72"/>
<text text-anchor="start" x="1547" y="-54.72" font-family="Helvetica,sans-Serif" font-size="10.00">SdSpiArduinoDriver</text>
<text text-anchor="middle" x="1594.5" y="-43.72" font-family="Helvetica,sans-Serif" font-size="10.00">::receive</text>
</a>
</g>
</g>
<!-- Node6&#45;&gt;Node7 -->
<g id="edge6_Node000006_Node000007" class="edge">
<title>Node6&#45;&gt;Node7</title>
<g id="a_edge6_Node000006_Node000007"><a xlink:title=" ">
<path fill="none" stroke="#63b8ff" d="M1496.09,-51.72C1506.96,-51.72 1518.11,-51.72 1528.81,-51.72"/>
<polygon fill="#63b8ff" stroke="#63b8ff" points="1528.9,-55.22 1538.9,-51.72 1528.9,-48.22 1528.9,-55.22"/>
</a>
</g>
</g>
<!-- Node9 -->
<g id="Node000009" class="node">
<title>Node9</title>
<g id="a_Node000009"><a xlink:href="../../d0/d25/classSdSpiArduinoDriver_a3c4842e47f98fe5d3799cd6028778ab5.xhtml#a3c4842e47f98fe5d3799cd6028778ab5" target="_top" xlink:title=" ">
<polygon fill="white" stroke="#666666" points="1650,-266.72 1539,-266.72 1539,-236.72 1650,-236.72 1650,-266.72"/>
<text text-anchor="start" x="1547" y="-254.72" font-family="Helvetica,sans-Serif" font-size="10.00">SdSpiArduinoDriver</text>
<text text-anchor="middle" x="1594.5" y="-243.72" font-family="Helvetica,sans-Serif" font-size="10.00">::send</text>
</a>
</g>
</g>
<!-- Node8&#45;&gt;Node9 -->
<g id="edge8_Node000008_Node000009" class="edge">
<title>Node8&#45;&gt;Node9</title>
<g id="a_edge8_Node000008_Node000009"><a xlink:title=" ">
<path fill="none" stroke="#63b8ff" d="M1488.74,-244.94C1501.82,-245.79 1515.56,-246.68 1528.62,-247.52"/>
<polygon fill="#63b8ff" stroke="#63b8ff" points="1528.72,-251.04 1538.93,-248.19 1529.18,-244.05 1528.72,-251.04"/>
</a>
</g>
</g>
<!-- Node10&#45;&gt;Node8 -->
<g id="edge16_Node000010_Node000008" class="edge">
<title>Node10&#45;&gt;Node8</title>
<g id="a_edge16_Node000010_Node000008"><a xlink:title=" ">
<path fill="none" stroke="#63b8ff" d="M1272.67,-175.32C1283.85,-178.95 1295.78,-183.71 1306,-189.72 1324.71,-200.73 1322.77,-212.65 1342,-222.72 1345.57,-224.59 1349.32,-226.26 1353.18,-227.76"/>
<polygon fill="#63b8ff" stroke="#63b8ff" points="1352.33,-231.17 1362.93,-231.15 1354.63,-224.56 1352.33,-231.17"/>
</a>
</g>
</g>
<!-- Node11 -->
<g id="Node000011" class="node">
<title>Node11</title>
<g id="a_Node000011"><a xlink:href="../../d8/d7f/classSharedSpiCard_a69ee2fe49dfaeea2347d8a265806d2b6.xhtml#a69ee2fe49dfaeea2347d8a265806d2b6" target="_top" xlink:title=" ">
<polygon fill="white" stroke="#666666" points="1497,-175.22 1348,-175.22 1348,-156.22 1497,-156.22 1497,-175.22"/>
<text text-anchor="middle" x="1422.5" y="-163.22" font-family="Helvetica,sans-Serif" font-size="10.00">SharedSpiCard::spiActivate</text>
</a>
</g>
</g>
<!-- Node10&#45;&gt;Node11 -->
<g id="edge10_Node000010_Node000011" class="edge">
<title>Node10&#45;&gt;Node11</title>
<g id="a_edge10_Node000010_Node000011"><a xlink:title=" ">
<path fill="none" stroke="#63b8ff" d="M1298.53,-165.72C1311.19,-165.72 1324.64,-165.72 1337.82,-165.72"/>
<polygon fill="#63b8ff" stroke="#63b8ff" points="1337.84,-169.22 1347.84,-165.72 1337.84,-162.22 1337.84,-169.22"/>
</a>
</g>
</g>
<!-- Node13 -->
<g id="Node000013" class="node">
<title>Node13</title>
<g id="a_Node000013"><a xlink:href="../../d8/d7f/classSharedSpiCard_a8c3088599862ff6e84ae79bfdf32aea8.xhtml#a8c3088599862ff6e84ae79bfdf32aea8" target="_top" xlink:title=" ">
<polygon fill="white" stroke="#666666" points="1491.5,-213.22 1353.5,-213.22 1353.5,-194.22 1491.5,-194.22 1491.5,-213.22"/>
<text text-anchor="middle" x="1422.5" y="-201.22" font-family="Helvetica,sans-Serif" font-size="10.00">SharedSpiCard::spiSelect</text>
</a>
</g>
</g>
<!-- Node10&#45;&gt;Node13 -->
<g id="edge12_Node000010_Node000013" class="edge">
<title>Node10&#45;&gt;Node13</title>
<g id="a_edge12_Node000010_Node000013"><a xlink:title=" ">
<path fill="none" stroke="#63b8ff" d="M1281.31,-175.31C1306.61,-180.44 1337.95,-186.79 1364.57,-192.18"/>
<polygon fill="#63b8ff" stroke="#63b8ff" points="1364.03,-195.64 1374.53,-194.2 1365.42,-188.78 1364.03,-195.64"/>
</a>
</g>
</g>
<!-- Node12 -->
<g id="Node000012" class="node">
<title>Node12</title>
<g id="a_Node000012"><a xlink:href="../../d0/d25/classSdSpiArduinoDriver_abb6b88c5c8b87fc344a69f23f6eab3d9.xhtml#abb6b88c5c8b87fc344a69f23f6eab3d9" target="_top" xlink:title=" ">
<polygon fill="white" stroke="#666666" points="1650,-180.72 1539,-180.72 1539,-150.72 1650,-150.72 1650,-180.72"/>
<text text-anchor="start" x="1547" y="-168.72" font-family="Helvetica,sans-Serif" font-size="10.00">SdSpiArduinoDriver</text>
<text text-anchor="middle" x="1594.5" y="-157.72" font-family="Helvetica,sans-Serif" font-size="10.00">::activate</text>
</a>
</g>
</g>
<!-- Node11&#45;&gt;Node12 -->
<g id="edge11_Node000011_Node000012" class="edge">
<title>Node11&#45;&gt;Node12</title>
<g id="a_edge11_Node000011_Node000012"><a xlink:title=" ">
<path fill="none" stroke="#63b8ff" d="M1497.08,-165.72C1507.57,-165.72 1518.31,-165.72 1528.63,-165.72"/>
<polygon fill="#63b8ff" stroke="#63b8ff" points="1528.78,-169.22 1538.78,-165.72 1528.78,-162.22 1528.78,-169.22"/>
</a>
</g>
</g>
<!-- Node14 -->
<g id="Node000014" class="node">
<title>Node14</title>
<g id="a_Node000014"><a xlink:href="../../d2/df0/SdSpiChipSelect_8cpp_ac469bbe2d31ffde9b00ffc68258d7428.xhtml#ac469bbe2d31ffde9b00ffc68258d7428" target="_top" xlink:title=" ">
<polygon fill="white" stroke="#666666" points="1627.5,-218.22 1561.5,-218.22 1561.5,-199.22 1627.5,-199.22 1627.5,-218.22"/>
<text text-anchor="middle" x="1594.5" y="-206.22" font-family="Helvetica,sans-Serif" font-size="10.00">sdCsWrite</text>
</a>
</g>
</g>
<!-- Node13&#45;&gt;Node14 -->
<g id="edge13_Node000013_Node000014" class="edge">
<title>Node13&#45;&gt;Node14</title>
<g id="a_edge13_Node000013_Node000014"><a xlink:title=" ">
<path fill="none" stroke="#63b8ff" d="M1491.67,-205.73C1511.74,-206.32 1533.12,-206.94 1551.09,-207.47"/>
<polygon fill="#63b8ff" stroke="#63b8ff" points="1551.13,-210.98 1561.23,-207.77 1551.34,-203.98 1551.13,-210.98"/>
</a>
</g>
</g>
<!-- Node15 -->
<g id="Node000015" class="node">
<title>Node15</title>
<g id="a_Node000015"><a xlink:href="../../d5/d45/wiring__digital_8c_a73b9b61feeaf7d790d107f2954a7fd93.xhtml#a73b9b61feeaf7d790d107f2954a7fd93" target="_top" xlink:title=" ">
<polygon fill="white" stroke="#666666" points="1760,-218.22 1686,-218.22 1686,-199.22 1760,-199.22 1760,-218.22"/>
<text text-anchor="middle" x="1723" y="-206.22" font-family="Helvetica,sans-Serif" font-size="10.00">digitalWrite</text>
</a>
</g>
</g>
<!-- Node14&#45;&gt;Node15 -->
<g id="edge14_Node000014_Node000015" class="edge">
<title>Node14&#45;&gt;Node15</title>
<g id="a_edge14_Node000014_Node000015"><a xlink:title=" ">
<path fill="none" stroke="#63b8ff" d="M1627.75,-208.72C1642.28,-208.72 1659.71,-208.72 1675.61,-208.72"/>
<polygon fill="#63b8ff" stroke="#63b8ff" points="1675.79,-212.22 1685.79,-208.72 1675.79,-205.22 1675.79,-212.22"/>
</a>
</g>
</g>
<!-- Node16 -->
<g id="Node000016" class="node">
<title>Node16</title>
<g id="a_Node000016"><a xlink:href="../../d5/d45/wiring__digital_8c_ae3d0bcbe4eb927ca8f5d5c21b7e4f224.xhtml#ae3d0bcbe4eb927ca8f5d5c21b7e4f224" target="_top" xlink:title=" ">
<polygon fill="white" stroke="#666666" points="1871,-218.22 1796,-218.22 1796,-199.22 1871,-199.22 1871,-218.22"/>
<text text-anchor="middle" x="1833.5" y="-206.22" font-family="Helvetica,sans-Serif" font-size="10.00">turnOffPWM</text>
</a>
</g>
</g>
<!-- Node15&#45;&gt;Node16 -->
<g id="edge15_Node000015_Node000016" class="edge">
<title>Node15&#45;&gt;Node16</title>
<g id="a_edge15_Node000015_Node000016"><a xlink:title=" ">
<path fill="none" stroke="#63b8ff" d="M1760.13,-208.72C1768.28,-208.72 1777.05,-208.72 1785.57,-208.72"/>
<polygon fill="#63b8ff" stroke="#63b8ff" points="1785.79,-212.22 1795.79,-208.72 1785.79,-205.22 1785.79,-212.22"/>
</a>
</g>
</g>
<!-- Node18 -->
<g id="Node000018" class="node">
<title>Node18</title>
<g id="a_Node000018"><a xlink:href="../../d8/d7f/classSharedSpiCard_ab33ad2aefbb9cff905cad0879dffc78b.xhtml#ab33ad2aefbb9cff905cad0879dffc78b" target="_top" xlink:title=" ">
<polygon fill="white" stroke="#666666" points="1121.5,-289.22 984.5,-289.22 984.5,-270.22 1121.5,-270.22 1121.5,-289.22"/>
<text text-anchor="middle" x="1053" y="-277.22" font-family="Helvetica,sans-Serif" font-size="10.00">SharedSpiCard::readStop</text>
</a>
</g>
</g>
<!-- Node17&#45;&gt;Node18 -->
<g id="edge18_Node000017_Node000018" class="edge">
<title>Node17&#45;&gt;Node18</title>
<g id="a_edge18_Node000017_Node000018"><a xlink:title=" ">
<path fill="none" stroke="#63b8ff" d="M917.42,-251.31C941.6,-256.41 971.53,-262.73 997.01,-268.11"/>
<polygon fill="#63b8ff" stroke="#63b8ff" points="996.4,-271.56 1006.91,-270.2 997.84,-264.71 996.4,-271.56"/>
</a>
</g>
</g>
<!-- Node24 -->
<g id="Node000024" class="node">
<title>Node24</title>
<g id="a_Node000024"><a xlink:href="../../d8/d7f/classSharedSpiCard_ae9a34a573077e43e7c6028a16ae77fb3.xhtml#ae9a34a573077e43e7c6028a16ae77fb3" target="_top" xlink:title=" ">
<polygon fill="white" stroke="#666666" points="1123,-251.22 983,-251.22 983,-232.22 1123,-232.22 1123,-251.22"/>
<text text-anchor="middle" x="1053" y="-239.22" font-family="Helvetica,sans-Serif" font-size="10.00">SharedSpiCard::writeStop</text>
</a>
</g>
</g>
<!-- Node17&#45;&gt;Node24 -->
<g id="edge27_Node000017_Node000024" class="edge">
<title>Node17&#45;&gt;Node24</title>
<g id="a_edge27_Node000017_Node000024"><a xlink:title=" ">
<path fill="none" stroke="#63b8ff" d="M946.25,-241.72C954.95,-241.72 963.86,-241.72 972.62,-241.72"/>
<polygon fill="#63b8ff" stroke="#63b8ff" points="972.83,-245.22 982.83,-241.72 972.83,-238.22 972.83,-245.22"/>
</a>
</g>
</g>
<!-- Node18&#45;&gt;Node5 -->
<g id="edge19_Node000018_Node000005" class="edge">
<title>Node18&#45;&gt;Node5</title>
<g id="a_edge19_Node000018_Node000005"><a xlink:title=" ">
<path fill="none" stroke="#63b8ff" d="M984.44,-283.7C931.76,-284.69 857.47,-281.37 796,-260.72 757.37,-247.74 718.92,-219.14 697,-200.97"/>
<polygon fill="#63b8ff" stroke="#63b8ff" points="699.07,-198.14 689.18,-194.34 694.54,-203.47 699.07,-198.14"/>
</a>
</g>
</g>
<!-- Node18&#45;&gt;Node19 -->
<g id="edge20_Node000018_Node000019" class="edge">
<title>Node18&#45;&gt;Node19</title>
<g id="a_edge20_Node000018_Node000019"><a xlink:title=" ">
<path fill="none" stroke="#63b8ff" d="M1084.6,-289.35C1114.33,-298.7 1159.62,-312.95 1192.15,-323.18"/>
<polygon fill="#63b8ff" stroke="#63b8ff" points="1191.21,-326.56 1201.8,-326.22 1193.31,-319.88 1191.21,-326.56"/>
</a>
</g>
</g>
<!-- Node18&#45;&gt;Node20 -->
<g id="edge21_Node000018_Node000020" class="edge">
<title>Node18&#45;&gt;Node20</title>
<g id="a_edge21_Node000018_Node000020"><a xlink:title=" ">
<path fill="none" stroke="#63b8ff" d="M1121.55,-279.72C1133.26,-279.72 1145.5,-279.72 1157.39,-279.72"/>
<polygon fill="#63b8ff" stroke="#63b8ff" points="1157.73,-283.22 1167.73,-279.72 1157.73,-276.22 1157.73,-283.22"/>
</a>
</g>
</g>
<!-- Node20&#45;&gt;Node8 -->
<g id="edge24_Node000020_Node000008" class="edge">
<title>Node20&#45;&gt;Node8</title>
<g id="a_edge24_Node000020_Node000008"><a xlink:title=" ">
<path fill="none" stroke="#63b8ff" d="M1279.87,-270.18C1305.84,-264.78 1338.52,-257.98 1365.94,-252.28"/>
<polygon fill="#63b8ff" stroke="#63b8ff" points="1366.7,-255.69 1375.78,-250.23 1365.28,-248.84 1366.7,-255.69"/>
</a>
</g>
</g>
<!-- Node21 -->
<g id="Node000021" class="node">
<title>Node21</title>
<g id="a_Node000021"><a xlink:href="../../d8/d7f/classSharedSpiCard_ac6acfca5a23337977d2e4436ab8ab39a.xhtml#ac6acfca5a23337977d2e4436ab8ab39a" target="_top" xlink:title=" ">
<polygon fill="white" stroke="#666666" points="1503,-324.22 1342,-324.22 1342,-305.22 1503,-305.22 1503,-324.22"/>
<text text-anchor="middle" x="1422.5" y="-312.22" font-family="Helvetica,sans-Serif" font-size="10.00">SharedSpiCard::spiDeactivate</text>
</a>
</g>
</g>
<!-- Node20&#45;&gt;Node21 -->
<g id="edge22_Node000020_Node000021" class="edge">
<title>Node20&#45;&gt;Node21</title>
<g id="a_edge22_Node000020_Node000021"><a xlink:title=" ">
<path fill="none" stroke="#63b8ff" d="M1285.24,-289.28C1308.49,-293.62 1336.17,-298.79 1360.49,-303.33"/>
<polygon fill="#63b8ff" stroke="#63b8ff" points="1359.85,-306.77 1370.33,-305.17 1361.14,-299.89 1359.85,-306.77"/>
</a>
</g>
</g>
<!-- Node23 -->
<g id="Node000023" class="node">
<title>Node23</title>
<g id="a_Node000023"><a xlink:href="../../d8/d7f/classSharedSpiCard_ad06a3278372300987b97876cf598c114.xhtml#ad06a3278372300987b97876cf598c114" target="_top" xlink:title=" ">
<polygon fill="white" stroke="#666666" points="1498,-287.22 1347,-287.22 1347,-268.22 1498,-268.22 1498,-287.22"/>
<text text-anchor="middle" x="1422.5" y="-275.22" font-family="Helvetica,sans-Serif" font-size="10.00">SharedSpiCard::spiUnselect</text>
</a>
</g>
</g>
<!-- Node20&#45;&gt;Node23 -->
<g id="edge25_Node000020_Node000023" class="edge">
<title>Node20&#45;&gt;Node23</title>
<g id="a_edge25_Node000020_Node000023"><a xlink:title=" ">
<path fill="none" stroke="#63b8ff" d="M1298,-279.04C1310.39,-278.91 1323.55,-278.77 1336.49,-278.63"/>
<polygon fill="#63b8ff" stroke="#63b8ff" points="1336.84,-282.12 1346.8,-278.52 1336.76,-275.12 1336.84,-282.12"/>
</a>
</g>
</g>
<!-- Node22 -->
<g id="Node000022" class="node">
<title>Node22</title>
<g id="a_Node000022"><a xlink:href="../../d0/d25/classSdSpiArduinoDriver_ae88a255f533e3acb41d1221025a69b55.xhtml#ae88a255f533e3acb41d1221025a69b55" target="_top" xlink:title=" ">
<polygon fill="white" stroke="#666666" points="1650,-329.72 1539,-329.72 1539,-299.72 1650,-299.72 1650,-329.72"/>
<text text-anchor="start" x="1547" y="-317.72" font-family="Helvetica,sans-Serif" font-size="10.00">SdSpiArduinoDriver</text>
<text text-anchor="middle" x="1594.5" y="-306.72" font-family="Helvetica,sans-Serif" font-size="10.00">::deactivate</text>
</a>
</g>
</g>
<!-- Node21&#45;&gt;Node22 -->
<g id="edge23_Node000021_Node000022" class="edge">
<title>Node21&#45;&gt;Node22</title>
<g id="a_edge23_Node000021_Node000022"><a xlink:title=" ">
<path fill="none" stroke="#63b8ff" d="M1503.02,-314.72C1511.63,-314.72 1520.3,-314.72 1528.7,-314.72"/>
<polygon fill="#63b8ff" stroke="#63b8ff" points="1528.78,-318.22 1538.78,-314.72 1528.78,-311.22 1528.78,-318.22"/>
</a>
</g>
</g>
<!-- Node23&#45;&gt;Node14 -->
<g id="edge26_Node000023_Node000014" class="edge">
<title>Node23&#45;&gt;Node14</title>
<g id="a_edge26_Node000023_Node000014"><a xlink:title=" ">
<path fill="none" stroke="#63b8ff" d="M1481.6,-268.18C1489.01,-265.93 1496.33,-263.15 1503,-259.72 1522.04,-249.94 1520.54,-238.56 1539,-227.72 1543.1,-225.31 1547.56,-223.14 1552.1,-221.2"/>
<polygon fill="#63b8ff" stroke="#63b8ff" points="1553.4,-224.45 1561.44,-217.56 1550.85,-217.93 1553.4,-224.45"/>
</a>
</g>
</g>
<!-- Node24&#45;&gt;Node8 -->
<g id="edge29_Node000024_Node000008" class="edge">
<title>Node24&#45;&gt;Node8</title>
<g id="a_edge29_Node000024_Node000008"><a xlink:title=" ">
<path fill="none" stroke="#63b8ff" d="M1123.12,-241.53C1186.67,-241.36 1280.68,-241.1 1346.14,-240.93"/>
<polygon fill="#63b8ff" stroke="#63b8ff" points="1346.4,-244.42 1356.39,-240.9 1346.38,-237.42 1346.4,-244.42"/>
</a>
</g>
</g>
<!-- Node24&#45;&gt;Node19 -->
<g id="edge28_Node000024_Node000019" class="edge">
<title>Node24&#45;&gt;Node19</title>
<g id="a_edge28_Node000024_Node000019"><a xlink:title=" ">
<path fill="none" stroke="#63b8ff" d="M1100.24,-251.22C1108.47,-253.94 1116.73,-257.38 1124,-261.72 1143.69,-273.49 1141.55,-285.08 1160,-298.72 1172.06,-307.65 1186.59,-315.56 1199.43,-321.76"/>
<polygon fill="#63b8ff" stroke="#63b8ff" points="1198.3,-325.1 1208.84,-326.15 1201.26,-318.75 1198.3,-325.1"/>
</a>
</g>
</g>
<!-- Node24&#45;&gt;Node20 -->
<g id="edge30_Node000024_Node000020" class="edge">
<title>Node24&#45;&gt;Node20</title>
<g id="a_edge30_Node000024_Node000020"><a xlink:title=" ">
<path fill="none" stroke="#63b8ff" d="M1098.92,-251.31C1122.83,-256.41 1152.42,-262.73 1177.62,-268.11"/>
<polygon fill="#63b8ff" stroke="#63b8ff" points="1176.9,-271.54 1187.41,-270.2 1178.36,-264.69 1176.9,-271.54"/>
</a>
</g>
</g>
<!-- Node24&#45;&gt;Node25 -->
<g id="edge31_Node000024_Node000025" class="edge">
<title>Node24&#45;&gt;Node25</title>
<g id="a_edge31_Node000024_Node000025"><a xlink:title=" ">
<path fill="none" stroke="#63b8ff" d="M1062.04,-232.2C1078.49,-213.31 1118.02,-170.91 1160,-147.72 1165.61,-144.62 1171.72,-141.94 1177.94,-139.63"/>
<polygon fill="#63b8ff" stroke="#63b8ff" points="1179.4,-142.83 1187.74,-136.29 1177.14,-136.2 1179.4,-142.83"/>
</a>
</g>
</g>
<!-- Node25&#45;&gt;Node6 -->
<g id="edge32_Node000025_Node000006" class="edge">
<title>Node25&#45;&gt;Node6</title>
<g id="a_edge32_Node000025_Node000006"><a xlink:title=" ">
<path fill="none" stroke="#63b8ff" d="M1258.13,-117.07C1291.18,-103.85 1350.67,-80.05 1388.02,-65.11"/>
<polygon fill="#63b8ff" stroke="#63b8ff" points="1389.48,-68.3 1397.46,-61.33 1386.88,-61.8 1389.48,-68.3"/>
</a>
</g>
</g>
<!-- Node26 -->
<g id="Node000026" class="node">
<title>Node26</title>
<g id="a_Node000026"><a xlink:href="../../db/df4/classTimeout_abbabe99f42e52472ddd3a7e9d22dce95.xhtml#abbabe99f42e52472ddd3a7e9d22dce95" target="_top" xlink:title=" ">
<polygon fill="white" stroke="#666666" points="1477,-134.22 1368,-134.22 1368,-115.22 1477,-115.22 1477,-134.22"/>
<text text-anchor="middle" x="1422.5" y="-122.22" font-family="Helvetica,sans-Serif" font-size="10.00">Timeout::timedOut</text>
</a>
</g>
</g>
<!-- Node25&#45;&gt;Node26 -->
<g id="edge33_Node000025_Node000026" class="edge">
<title>Node25&#45;&gt;Node26</title>
<g id="a_edge33_Node000025_Node000026"><a xlink:title=" ">
<path fill="none" stroke="#63b8ff" d="M1306.22,-125.95C1323.23,-125.77 1341.22,-125.58 1357.82,-125.4"/>
<polygon fill="#63b8ff" stroke="#63b8ff" points="1357.98,-128.9 1367.95,-125.29 1357.91,-121.9 1357.98,-128.9"/>
</a>
</g>
</g>
<!-- Node27 -->
<g id="Node000027" class="node">
<title>Node27</title>
<g id="a_Node000027"><a xlink:href="../../db/df4/classTimeout_a9a72ea0591f11452fb15bfaa1ae5108a.xhtml#a9a72ea0591f11452fb15bfaa1ae5108a" target="_top" xlink:title=" ">
<polygon fill="white" stroke="#666666" points="1645.5,-132.22 1543.5,-132.22 1543.5,-113.22 1645.5,-113.22 1645.5,-132.22"/>
<text text-anchor="middle" x="1594.5" y="-120.22" font-family="Helvetica,sans-Serif" font-size="10.00">Timeout::millis16</text>
</a>
</g>
</g>
<!-- Node26&#45;&gt;Node27 -->
<g id="edge34_Node000026_Node000027" class="edge">
<title>Node26&#45;&gt;Node27</title>
<g id="a_edge34_Node000026_Node000027"><a xlink:title=" ">
<path fill="none" stroke="#63b8ff" d="M1477.29,-124.09C1495.02,-123.88 1514.85,-123.65 1533.04,-123.43"/>
<polygon fill="#63b8ff" stroke="#63b8ff" points="1533.28,-126.93 1543.24,-123.31 1533.2,-119.93 1533.28,-126.93"/>
</a>
</g>
</g>
<!-- Node28 -->
<g id="Node000028" class="node">
<title>Node28</title>
<g id="a_Node000028"><a xlink:href="../../d5/df3/wiring_8c_a6ff7f2532a22366f0013bc41397129fd.xhtml#a6ff7f2532a22366f0013bc41397129fd" target="_top" xlink:title=" ">
<polygon fill="white" stroke="#666666" points="1745,-132.22 1701,-132.22 1701,-113.22 1745,-113.22 1745,-132.22"/>
<text text-anchor="middle" x="1723" y="-120.22" font-family="Helvetica,sans-Serif" font-size="10.00">millis</text>
</a>
</g>
</g>
<!-- Node27&#45;&gt;Node28 -->
<g id="edge35_Node000027_Node000028" class="edge">
<title>Node27&#45;&gt;Node28</title>
<g id="a_edge35_Node000027_Node000028"><a xlink:title=" ">
<path fill="none" stroke="#63b8ff" d="M1645.86,-122.72C1660.97,-122.72 1677.11,-122.72 1690.62,-122.72"/>
<polygon fill="#63b8ff" stroke="#63b8ff" points="1690.83,-126.22 1700.83,-122.72 1690.83,-119.22 1690.83,-126.22"/>
</a>
</g>
</g>
<!-- Node30&#45;&gt;Node19 -->
<g id="edge43_Node000030_Node000019" class="edge">
<title>Node30&#45;&gt;Node19</title>
<g id="a_edge43_Node000030_Node000019"><a xlink:title=" ">
<path fill="none" stroke="#63b8ff" d="M1124.09,-347.84C1137.22,-346.37 1150.92,-344.83 1163.99,-343.36"/>
<polygon fill="#63b8ff" stroke="#63b8ff" points="1164.76,-346.8 1174.3,-342.2 1163.97,-339.84 1164.76,-346.8"/>
</a>
</g>
</g>
<!-- Node30&#45;&gt;Node20 -->
<g id="edge44_Node000030_Node000020" class="edge">
<title>Node30&#45;&gt;Node20</title>
<g id="a_edge44_Node000030_Node000020"><a xlink:title=" ">
<path fill="none" stroke="#63b8ff" d="M1084.27,-346.21C1096.7,-342.08 1111.16,-336.99 1124,-331.72 1152.17,-320.16 1183.43,-304.82 1205.04,-293.8"/>
<polygon fill="#63b8ff" stroke="#63b8ff" points="1206.66,-296.91 1213.95,-289.22 1203.46,-290.68 1206.66,-296.91"/>
</a>
</g>
</g>
<!-- Node30&#45;&gt;Node25 -->
<g id="edge45_Node000030_Node000025" class="edge">
<title>Node30&#45;&gt;Node25</title>
<g id="a_edge45_Node000030_Node000025"><a xlink:title=" ">
<path fill="none" stroke="#63b8ff" d="M1071.44,-346.09C1087.55,-336.28 1110.91,-319.56 1124,-298.72 1160.69,-240.29 1112.44,-197.7 1160,-147.72 1162.29,-145.31 1164.84,-143.18 1167.57,-141.29"/>
<polygon fill="#63b8ff" stroke="#63b8ff" points="1169.32,-144.32 1176.24,-136.3 1165.83,-138.25 1169.32,-144.32"/>
</a>
</g>
</g>
<!-- Node30&#45;&gt;Node30 -->
<g id="edge46_Node000030_Node000030" class="edge">
<title>Node30&#45;&gt;Node30</title>
<g id="a_edge46_Node000030_Node000030"><a xlink:title=" ">
<path fill="none" stroke="#63b8ff" d="M1025.26,-365.3C1011.76,-373.95 1021.01,-383.22 1053,-383.22 1074.49,-383.22 1085.72,-379.04 1086.68,-373.67"/>
<polygon fill="#63b8ff" stroke="#63b8ff" points="1089.39,-371.43 1080.74,-365.3 1083.68,-375.48 1089.39,-371.43"/>
</a>
</g>
</g>
</g>
</svg>
