<?xml version="1.0" encoding="UTF-8" standalone="no"?>
<!DOCTYPE svg PUBLIC "-//W3C//DTD SVG 1.1//EN"
 "http://www.w3.org/Graphics/SVG/1.1/DTD/svg11.dtd">
<!-- Generated by graphviz version 2.43.0 (0)
 -->
<!-- Title: ExFatFormatter::writeUpcaseUnicode Pages: 1 -->
<svg width="677pt" height="38pt"
 viewBox="0.00 0.00 677.00 38.00" xmlns="http://www.w3.org/2000/svg" xmlns:xlink="http://www.w3.org/1999/xlink">
<g id="graph0" class="graph" transform="scale(1 1) rotate(0) translate(4 34)">
<title>ExFatFormatter::writeUpcaseUnicode</title>
<!-- Node1 -->
<g id="Node000001" class="node">
<title>Node1</title>
<g id="a_Node000001"><a xlink:title=" ">
<polygon fill="#999999" stroke="#666666" points="669,-30 511,-30 511,0 669,0 669,-30"/>
<text text-anchor="start" x="519" y="-18" font-family="Helvetica,sans-Serif" font-size="10.00">ExFatFormatter::writeUpcase</text>
<text text-anchor="middle" x="590" y="-7" font-family="Helvetica,sans-Serif" font-size="10.00">Unicode</text>
</a>
</g>
</g>
<!-- Node2 -->
<g id="Node000002" class="node">
<title>Node2</title>
<g id="a_Node000002"><a xlink:href="../../d9/d4c/classExFatFormatter_a031db750beded781b5e5573558aa3612.xhtml#a031db750beded781b5e5573558aa3612" target="_top" xlink:title=" ">
<polygon fill="white" stroke="#666666" points="475,-24.5 317,-24.5 317,-5.5 475,-5.5 475,-24.5"/>
<text text-anchor="middle" x="396" y="-12.5" font-family="Helvetica,sans-Serif" font-size="10.00">ExFatFormatter::writeUpcase</text>
</a>
</g>
</g>
<!-- Node1&#45;&gt;Node2 -->
<g id="edge1_Node000001_Node000002" class="edge">
<title>Node1&#45;&gt;Node2</title>
<g id="a_edge1_Node000001_Node000002"><a xlink:title=" ">
<path fill="none" stroke="#63b8ff" d="M500.85,-15C492.23,-15 483.53,-15 475.02,-15"/>
<polygon fill="#63b8ff" stroke="#63b8ff" points="500.91,-18.5 510.91,-15 500.91,-11.5 500.91,-18.5"/>
</a>
</g>
</g>
<!-- Node3 -->
<g id="Node000003" class="node">
<title>Node3</title>
<g id="a_Node000003"><a xlink:href="../../d9/d4c/classExFatFormatter_ab68f30b1dfd707592fcc1e0718f26ee2.xhtml#ab68f30b1dfd707592fcc1e0718f26ee2" target="_top" xlink:title=" ">
<polygon fill="white" stroke="#666666" points="281,-24.5 151,-24.5 151,-5.5 281,-5.5 281,-24.5"/>
<text text-anchor="middle" x="216" y="-12.5" font-family="Helvetica,sans-Serif" font-size="10.00">ExFatFormatter::format</text>
</a>
</g>
</g>
<!-- Node2&#45;&gt;Node3 -->
<g id="edge2_Node000002_Node000003" class="edge">
<title>Node2&#45;&gt;Node3</title>
<g id="a_edge2_Node000002_Node000003"><a xlink:title=" ">
<path fill="none" stroke="#63b8ff" d="M306.79,-15C298.14,-15 289.48,-15 281.14,-15"/>
<polygon fill="#63b8ff" stroke="#63b8ff" points="306.93,-18.5 316.93,-15 306.93,-11.5 306.93,-18.5"/>
</a>
</g>
</g>
<!-- Node4 -->
<g id="Node000004" class="node">
<title>Node4</title>
<g id="a_Node000004"><a xlink:href="../../d9/d64/classFsFormatter_aa588b121ce67cce8d741d2a796c269b5.xhtml#aa588b121ce67cce8d741d2a796c269b5" target="_top" xlink:title=" ">
<polygon fill="white" stroke="#666666" points="115,-24.5 0,-24.5 0,-5.5 115,-5.5 115,-24.5"/>
<text text-anchor="middle" x="57.5" y="-12.5" font-family="Helvetica,sans-Serif" font-size="10.00">FsFormatter::format</text>
</a>
</g>
</g>
<!-- Node3&#45;&gt;Node4 -->
<g id="edge3_Node000003_Node000004" class="edge">
<title>Node3&#45;&gt;Node4</title>
<g id="a_edge3_Node000003_Node000004"><a xlink:title=" ">
<path fill="none" stroke="#63b8ff" d="M140.84,-15C132.23,-15 123.56,-15 115.23,-15"/>
<polygon fill="#63b8ff" stroke="#63b8ff" points="140.89,-18.5 150.89,-15 140.89,-11.5 140.89,-18.5"/>
</a>
</g>
</g>
</g>
</svg>
