<?xml version="1.0" encoding="UTF-8" standalone="no"?>
<!DOCTYPE svg PUBLIC "-//W3C//DTD SVG 1.1//EN"
 "http://www.w3.org/Graphics/SVG/1.1/DTD/svg11.dtd">
<!-- Generated by graphviz version 2.43.0 (0)
 -->
<!-- Title: TinyGPS::operator&lt;&lt; Pages: 1 -->
<!--zoomable 214 -->

<svg id="main" version="1.1" xmlns="http://www.w3.org/2000/svg" xmlns:xlink="http://www.w3.org/1999/xlink" xml:space="preserve" onload="init(evt)">
<style type="text/css"><![CDATA[
.node, .edge {opacity: 0.7;}
.node.selected, .edge.selected {opacity: 1;}
.edge:hover path { stroke: red; }
.edge:hover polygon { stroke: red; fill: red; }
]]></style>

<defs>
  <circle id="rim" cx="0" cy="0" r="7"/>
  <circle id="rim2" cx="0" cy="0" r="3.5"/>
  <g id="zoomPlus">
    <use xlink:href="#rim" fill="#404040"><set attributeName="fill" to="#808080" begin="zoomplus.mouseover" end="zoomplus.mouseout"/></use>
    <path d="M-4,0h8M0,-4v8" fill="none" stroke="white" stroke-width="1.5" pointer-events="none"/>
  </g>
  <g id="zoomMin">
    <use xlink:href="#rim" fill="#404040"><set attributeName="fill" to="#808080" begin="zoomminus.mouseover" end="zoomminus.mouseout"/></use>
    <path d="M-4,0h8" fill="none" stroke="white" stroke-width="1.5" pointer-events="none"/>
  </g>
  <g id="arrowUp" transform="translate(30 24)">
    <use xlink:href="#rim"/>
    <path pointer-events="none" fill="none" stroke="white" stroke-width="1.5" d="M0,-3.0v7 M-2.5,-0.5L0,-3.0L2.5,-0.5"/>
  </g>
  <g id="arrowRight" transform="rotate(90) translate(36 -43)">
    <use xlink:href="#rim"/>
    <path pointer-events="none" fill="none" stroke="white" stroke-width="1.5" d="M0,-3.0v7 M-2.5,-0.5L0,-3.0L2.5,-0.5"/>
  </g>
  <g id="arrowDown" transform="rotate(180) translate(-30 -48)">
    <use xlink:href="#rim"/>
    <path pointer-events="none" fill="none" stroke="white" stroke-width="1.5" d="M0,-3.0v7 M-2.5,-0.5L0,-3.0L2.5,-0.5"/>
  </g>
  <g id="arrowLeft" transform="rotate(270) translate(-36 17)">
    <use xlink:href="#rim"/>
    <path pointer-events="none" fill="none" stroke="white" stroke-width="1.5" d="M0,-3.0v7 M-2.5,-0.5L0,-3.0L2.5,-0.5"/>
  </g>
  <g id="resetDef">
    <use xlink:href="#rim2" fill="#404040"><set attributeName="fill" to="#808080" begin="reset.mouseover" end="reset.mouseout"/></use>
  </g>
</defs>
<script type="application/ecmascript">
var viewWidth = 887;
var viewHeight = 214;
var sectionId = 'dynsection-20';
</script>
<script type="application/ecmascript" xlink:href="../../svg.min.js"/>
<svg id="graph" class="graph">
<g id="viewport">
<title>TinyGPS::operator&lt;&lt;</title>
<!-- Node1 -->
<g id="Node000001" class="node">
<title>Node1</title>
<g id="a_Node000001"><a xlink:title=" ">
<polygon fill="#999999" stroke="#666666" points="121,-113 0,-113 0,-94 121,-94 121,-113"/>
<text text-anchor="middle" x="60.5" y="-101" font-family="Helvetica,sans-Serif" font-size="10.00">TinyGPS::operator&lt;&lt;</text>
</a>
</g>
</g>
<!-- Node2 -->
<g id="Node000002" class="node">
<title>Node2</title>
<g id="a_Node000002"><a xlink:href="../../df/d85/classTinyGPS.xhtml#ab6b2697b2968dc6a020404795f1aa169" target="_top" xlink:title=" ">
<polygon fill="white" stroke="#666666" points="255,-113 157,-113 157,-94 255,-94 255,-113"/>
<text text-anchor="middle" x="206" y="-101" font-family="Helvetica,sans-Serif" font-size="10.00">TinyGPS::encode</text>
</a>
</g>
</g>
<!-- Node1&#45;&gt;Node2 -->
<g id="edge1_Node000001_Node000002" class="edge">
<title>Node1&#45;&gt;Node2</title>
<g id="a_edge1_Node000001_Node000002"><a xlink:title=" ">
<path fill="none" stroke="#63b8ff" d="M121.11,-103.5C129.54,-103.5 138.2,-103.5 146.61,-103.5"/>
<polygon fill="#63b8ff" stroke="#63b8ff" points="146.71,-107 156.71,-103.5 146.71,-100 146.71,-107"/>
</a>
</g>
</g>
<!-- Node3 -->
<g id="Node000003" class="node">
<title>Node3</title>
<g id="a_Node000003"><a xlink:href="../../df/d85/classTinyGPS.xhtml#a6dd31df820b7ee0dc216646b522a203e" target="_top" xlink:title=" ">
<polygon fill="white" stroke="#666666" points="428,-113 291,-113 291,-94 428,-94 428,-113"/>
<text text-anchor="middle" x="359.5" y="-101" font-family="Helvetica,sans-Serif" font-size="10.00">TinyGPS::term_complete</text>
</a>
</g>
</g>
<!-- Node2&#45;&gt;Node3 -->
<g id="edge2_Node000002_Node000003" class="edge">
<title>Node2&#45;&gt;Node3</title>
<g id="a_edge2_Node000002_Node000003"><a xlink:title=" ">
<path fill="none" stroke="#63b8ff" d="M255.35,-103.5C263.51,-103.5 272.15,-103.5 280.83,-103.5"/>
<polygon fill="#63b8ff" stroke="#63b8ff" points="281,-107 291,-103.5 281,-100 281,-107"/>
</a>
</g>
</g>
<!-- Node4 -->
<g id="Node000004" class="node">
<title>Node4</title>
<g id="a_Node000004"><a xlink:href="../../df/d85/classTinyGPS.xhtml#a3806ef681f70fbd1417bd3cd9a920756" target="_top" xlink:title=" ">
<polygon fill="white" stroke="#666666" points="586,-206 476,-206 476,-187 586,-187 586,-206"/>
<text text-anchor="middle" x="531" y="-194" font-family="Helvetica,sans-Serif" font-size="10.00">TinyGPS::from_hex</text>
</a>
</g>
</g>
<!-- Node3&#45;&gt;Node4 -->
<g id="edge3_Node000003_Node000004" class="edge">
<title>Node3&#45;&gt;Node4</title>
<g id="a_edge3_Node000003_Node000004"><a xlink:title=" ">
<path fill="none" stroke="#63b8ff" d="M370.85,-113C388.6,-128.82 426.57,-160.58 464,-178.5 468.03,-180.43 472.29,-182.18 476.64,-183.76"/>
<polygon fill="#63b8ff" stroke="#63b8ff" points="475.64,-187.12 486.23,-186.96 477.85,-180.48 475.64,-187.12"/>
</a>
</g>
</g>
<!-- Node5 -->
<g id="Node000005" class="node">
<title>Node5</title>
<g id="a_Node000005"><a xlink:href="../../df/d85/classTinyGPS.xhtml#a9a2d5902444039b4aa0445919dc4199f" target="_top" xlink:title=" ">
<polygon fill="white" stroke="#666666" points="733,-57 634,-57 634,-38 733,-38 733,-57"/>
<text text-anchor="middle" x="683.5" y="-45" font-family="Helvetica,sans-Serif" font-size="10.00">TinyGPS::gpsatol</text>
</a>
</g>
</g>
<!-- Node3&#45;&gt;Node5 -->
<g id="edge4_Node000003_Node000005" class="edge">
<title>Node3&#45;&gt;Node5</title>
<g id="a_edge4_Node000003_Node000005"><a xlink:title=" ">
<path fill="none" stroke="#63b8ff" d="M382.23,-93.88C402.85,-85.2 434.92,-72.85 464,-66.5 517.32,-54.85 579.43,-50.29 623.77,-48.53"/>
<polygon fill="#63b8ff" stroke="#63b8ff" points="623.93,-52.03 633.8,-48.17 623.68,-45.04 623.93,-52.03"/>
</a>
</g>
</g>
<!-- Node7 -->
<g id="Node000007" class="node">
<title>Node7</title>
<g id="a_Node000007"><a xlink:href="../../df/d85/classTinyGPS.xhtml#a4a619074318ccb9e79b3dabbfe5a8ee1" target="_top" xlink:title=" ">
<polygon fill="white" stroke="#666666" points="588,-132 474,-132 474,-113 588,-113 588,-132"/>
<text text-anchor="middle" x="531" y="-120" font-family="Helvetica,sans-Serif" font-size="10.00">TinyGPS::gpsstrcmp</text>
</a>
</g>
</g>
<!-- Node3&#45;&gt;Node7 -->
<g id="edge6_Node000003_Node000007" class="edge">
<title>Node3&#45;&gt;Node7</title>
<g id="a_edge6_Node000003_Node000007"><a xlink:title=" ">
<path fill="none" stroke="#63b8ff" d="M428.47,-111.12C440.15,-112.43 452.27,-113.79 463.91,-115.09"/>
<polygon fill="#63b8ff" stroke="#63b8ff" points="463.65,-118.58 473.98,-116.22 464.43,-111.63 463.65,-118.58"/>
</a>
</g>
</g>
<!-- Node8 -->
<g id="Node000008" class="node">
<title>Node8</title>
<g id="a_Node000008"><a xlink:href="../../d5/df3/wiring_8c.xhtml#a6ff7f2532a22366f0013bc41397129fd" target="_top" xlink:title=" ">
<polygon fill="white" stroke="#666666" points="553,-95 509,-95 509,-76 553,-76 553,-95"/>
<text text-anchor="middle" x="531" y="-83" font-family="Helvetica,sans-Serif" font-size="10.00">millis</text>
</a>
</g>
</g>
<!-- Node3&#45;&gt;Node8 -->
<g id="edge7_Node000003_Node000008" class="edge">
<title>Node3&#45;&gt;Node8</title>
<g id="a_edge7_Node000003_Node000008"><a xlink:title=" ">
<path fill="none" stroke="#63b8ff" d="M428.47,-96.28C452.82,-93.7 479.11,-90.9 498.83,-88.81"/>
<polygon fill="#63b8ff" stroke="#63b8ff" points="499.2,-92.29 508.78,-87.75 498.47,-85.33 499.2,-92.29"/>
</a>
</g>
</g>
<!-- Node9 -->
<g id="Node000009" class="node">
<title>Node9</title>
<g id="a_Node000009"><a xlink:href="../../df/d85/classTinyGPS.xhtml#a165ec3b197ed2d770e88f8a2e33fb144" target="_top" xlink:title=" ">
<polygon fill="white" stroke="#666666" points="598,-169 464,-169 464,-150 598,-150 598,-169"/>
<text text-anchor="middle" x="531" y="-157" font-family="Helvetica,sans-Serif" font-size="10.00">TinyGPS::parse_decimal</text>
</a>
</g>
</g>
<!-- Node3&#45;&gt;Node9 -->
<g id="edge8_Node000003_Node000009" class="edge">
<title>Node3&#45;&gt;Node9</title>
<g id="a_edge8_Node000003_Node000009"><a xlink:title=" ">
<path fill="none" stroke="#63b8ff" d="M384.97,-113.16C405.82,-121.22 436.65,-132.77 464,-141.5 470.09,-143.44 476.53,-145.37 482.92,-147.19"/>
<polygon fill="#63b8ff" stroke="#63b8ff" points="482.26,-150.64 492.83,-149.96 484.15,-143.9 482.26,-150.64"/>
</a>
</g>
</g>
<!-- Node10 -->
<g id="Node000010" class="node">
<title>Node10</title>
<g id="a_Node000010"><a xlink:href="../../df/d85/classTinyGPS.xhtml#aae5bf6bcbb1a45631f49218732858548" target="_top" xlink:title=" ">
<polygon fill="white" stroke="#666666" points="598,-19 464,-19 464,0 598,0 598,-19"/>
<text text-anchor="middle" x="531" y="-7" font-family="Helvetica,sans-Serif" font-size="10.00">TinyGPS::parse_degrees</text>
</a>
</g>
</g>
<!-- Node3&#45;&gt;Node10 -->
<g id="edge11_Node000003_Node000010" class="edge">
<title>Node3&#45;&gt;Node10</title>
<g id="a_edge11_Node000003_Node000010"><a xlink:title=" ">
<path fill="none" stroke="#63b8ff" d="M372.63,-93.83C391.36,-79.25 428.83,-51.44 464,-33.5 471.97,-29.43 480.79,-25.73 489.33,-22.51"/>
<polygon fill="#63b8ff" stroke="#63b8ff" points="490.57,-25.78 498.78,-19.09 488.18,-19.2 490.57,-25.78"/>
</a>
</g>
</g>
<!-- Node6 -->
<g id="Node000006" class="node">
<title>Node6</title>
<g id="a_Node000006"><a xlink:href="../../df/d85/classTinyGPS.xhtml#aa01680d53aeba4018d5f2956634067db" target="_top" xlink:title=" ">
<polygon fill="white" stroke="#666666" points="879,-57 769,-57 769,-38 879,-38 879,-57"/>
<text text-anchor="middle" x="824" y="-45" font-family="Helvetica,sans-Serif" font-size="10.00">TinyGPS::gpsisdigit</text>
</a>
</g>
</g>
<!-- Node5&#45;&gt;Node6 -->
<g id="edge5_Node000005_Node000006" class="edge">
<title>Node5&#45;&gt;Node6</title>
<g id="a_edge5_Node000005_Node000006"><a xlink:title=" ">
<path fill="none" stroke="#63b8ff" d="M733.33,-47.5C741.61,-47.5 750.33,-47.5 758.93,-47.5"/>
<polygon fill="#63b8ff" stroke="#63b8ff" points="758.95,-51 768.95,-47.5 758.95,-44 758.95,-51"/>
</a>
</g>
</g>
<!-- Node9&#45;&gt;Node5 -->
<g id="edge9_Node000009_Node000005" class="edge">
<title>Node9&#45;&gt;Node5</title>
<g id="a_edge9_Node000009_Node000005"><a xlink:title=" ">
<path fill="none" stroke="#63b8ff" d="M579.89,-149.97C586.22,-147.71 592.44,-144.93 598,-141.5 614.72,-131.19 649.38,-89.34 668.71,-65.09"/>
<polygon fill="#63b8ff" stroke="#63b8ff" points="671.61,-67.06 675.07,-57.05 666.12,-62.72 671.61,-67.06"/>
</a>
</g>
</g>
<!-- Node9&#45;&gt;Node6 -->
<g id="edge10_Node000009_Node000006" class="edge">
<title>Node9&#45;&gt;Node6</title>
<g id="a_edge10_Node000009_Node000006"><a xlink:title=" ">
<path fill="none" stroke="#63b8ff" d="M570.3,-149.96C579.44,-147.43 589.13,-144.55 598,-141.5 669.5,-116.93 750.74,-80.89 793.34,-61.35"/>
<polygon fill="#63b8ff" stroke="#63b8ff" points="794.95,-64.46 802.56,-57.09 792.02,-58.1 794.95,-64.46"/>
</a>
</g>
</g>
<!-- Node10&#45;&gt;Node5 -->
<g id="edge12_Node000010_Node000005" class="edge">
<title>Node10&#45;&gt;Node5</title>
<g id="a_edge12_Node000010_Node000005"><a xlink:title=" ">
<path fill="none" stroke="#63b8ff" d="M569.98,-19.09C589.66,-24.06 613.89,-30.18 634.82,-35.46"/>
<polygon fill="#63b8ff" stroke="#63b8ff" points="634.24,-38.93 644.8,-37.98 635.96,-32.14 634.24,-38.93"/>
</a>
</g>
</g>
<!-- Node10&#45;&gt;Node6 -->
<g id="edge13_Node000010_Node000006" class="edge">
<title>Node10&#45;&gt;Node6</title>
<g id="a_edge13_Node000010_Node000006"><a xlink:title=" ">
<path fill="none" stroke="#63b8ff" d="M598.32,-13.86C637.61,-16.92 688.3,-21.69 733,-28.5 745.83,-30.45 759.59,-33.08 772.39,-35.76"/>
<polygon fill="#63b8ff" stroke="#63b8ff" points="771.9,-39.24 782.41,-37.91 773.36,-32.39 771.9,-39.24"/>
</a>
</g>
</g>
</g>
</svg>

<g id="navigator" transform="translate(0 0)" fill="#404254">
  <rect fill="#f2f5e9" fill-opacity="0.5" stroke="#606060" stroke-width=".5" x="0" y="0" width="60" height="60"/>
  <use id="zoomplus" xlink:href="#zoomPlus" x="17" y="9" onmousedown="handleZoom(evt,'in')"/>
  <use id="zoomminus" xlink:href="#zoomMin" x="42" y="9" onmousedown="handleZoom(evt,'out')"/>
  <use id="reset" xlink:href="#resetDef" x="30" y="36" onmousedown="handleReset()"/>
   <use id="arrowup" xlink:href="#arrowUp" x="0" y="0" onmousedown="handlePan(0,-1)"/>
  <use id="arrowright" xlink:href="#arrowRight" x="0" y="0" onmousedown="handlePan(1,0)"/>
  <use id="arrowdown" xlink:href="#arrowDown" x="0" y="0" onmousedown="handlePan(0,1)"/>
  <use id="arrowleft" xlink:href="#arrowLeft" x="0" y="0" onmousedown="handlePan(-1,0)"/>
</g>
<svg viewBox="0 0 15 15" width="100%" height="30px" preserveAspectRatio="xMaxYMin meet">
 <g id="arrow_out" transform="scale(0.3 0.3)">
  <a xlink:href="classTinyGPS_a06aa00ff48e5eb5362962ef513d4ebcd_cgraph_org.svg" target="_base">
   <rect id="button" ry="5" rx="5" y="6" x="6" height="38" width="38"
        fill="#f2f5e9" fill-opacity="0.5" stroke="#606060" stroke-width="1.0"/>
   <path id="arrow"
     d="M 11.500037,31.436501 C 11.940474,20.09759 22.043105,11.32322 32.158766,21.979434 L 37.068811,17.246167 C 37.068811,17.246167 37.088388,32 37.088388,32 L 22.160133,31.978069 C 22.160133,31.978069 26.997745,27.140456 26.997745,27.140456 C 18.528582,18.264221 13.291696,25.230495 11.500037,31.436501 z"
     style="fill:#404040;"/>
  </a>
 </g>
</svg>

<style type='text/css'>
<![CDATA[
[data-mouse-over-selected='false'] { opacity: 0.7; }
[data-mouse-over-selected='true']  { opacity: 1.0; }
]]>
</style>
<script type="application/ecmascript"><![CDATA[
document.addEventListener('DOMContentLoaded', (event) => {
  highlightEdges();
  highlightAdjacentNodes();
});
]]></script>
</svg>
