<?xml version="1.0" encoding="UTF-8" standalone="no"?>
<!DOCTYPE svg PUBLIC "-//W3C//DTD SVG 1.1//EN"
 "http://www.w3.org/Graphics/SVG/1.1/DTD/svg11.dtd">
<!-- Generated by graphviz version 2.43.0 (0)
 -->
<!-- Title: TinyGPS::gpsstrcmp Pages: 1 -->
<svg width="586pt" height="27pt"
 viewBox="0.00 0.00 586.00 27.00" xmlns="http://www.w3.org/2000/svg" xmlns:xlink="http://www.w3.org/1999/xlink">
<g id="graph0" class="graph" transform="scale(1 1) rotate(0) translate(4 23)">
<title>TinyGPS::gpsstrcmp</title>
<!-- Node1 -->
<g id="Node000001" class="node">
<title>Node1</title>
<g id="a_Node000001"><a xlink:title=" ">
<polygon fill="#999999" stroke="#666666" points="578,-19 464,-19 464,0 578,0 578,-19"/>
<text text-anchor="middle" x="521" y="-7" font-family="Helvetica,sans-Serif" font-size="10.00">TinyGPS::gpsstrcmp</text>
</a>
</g>
</g>
<!-- Node2 -->
<g id="Node000002" class="node">
<title>Node2</title>
<g id="a_Node000002"><a xlink:href="../../df/d85/classTinyGPS.xhtml#a6dd31df820b7ee0dc216646b522a203e" target="_top" xlink:title=" ">
<polygon fill="white" stroke="#666666" points="428,-19 291,-19 291,0 428,0 428,-19"/>
<text text-anchor="middle" x="359.5" y="-7" font-family="Helvetica,sans-Serif" font-size="10.00">TinyGPS::term_complete</text>
</a>
</g>
</g>
<!-- Node1&#45;&gt;Node2 -->
<g id="edge1_Node000001_Node000002" class="edge">
<title>Node1&#45;&gt;Node2</title>
<g id="a_edge1_Node000001_Node000002"><a xlink:title=" ">
<path fill="none" stroke="#63b8ff" d="M453.66,-9.5C445.27,-9.5 436.67,-9.5 428.26,-9.5"/>
<polygon fill="#63b8ff" stroke="#63b8ff" points="453.77,-13 463.77,-9.5 453.77,-6 453.77,-13"/>
</a>
</g>
</g>
<!-- Node3 -->
<g id="Node000003" class="node">
<title>Node3</title>
<g id="a_Node000003"><a xlink:href="../../df/d85/classTinyGPS.xhtml#ab6b2697b2968dc6a020404795f1aa169" target="_top" xlink:title=" ">
<polygon fill="white" stroke="#666666" points="255,-19 157,-19 157,0 255,0 255,-19"/>
<text text-anchor="middle" x="206" y="-7" font-family="Helvetica,sans-Serif" font-size="10.00">TinyGPS::encode</text>
</a>
</g>
</g>
<!-- Node2&#45;&gt;Node3 -->
<g id="edge2_Node000002_Node000003" class="edge">
<title>Node2&#45;&gt;Node3</title>
<g id="a_edge2_Node000002_Node000003"><a xlink:title=" ">
<path fill="none" stroke="#63b8ff" d="M280.59,-9.5C271.94,-9.5 263.33,-9.5 255.21,-9.5"/>
<polygon fill="#63b8ff" stroke="#63b8ff" points="280.73,-13 290.73,-9.5 280.73,-6 280.73,-13"/>
</a>
</g>
</g>
<!-- Node4 -->
<g id="Node000004" class="node">
<title>Node4</title>
<g id="a_Node000004"><a xlink:href="../../df/d85/classTinyGPS.xhtml#a06aa00ff48e5eb5362962ef513d4ebcd" target="_top" xlink:title=" ">
<polygon fill="white" stroke="#666666" points="121,-19 0,-19 0,0 121,0 121,-19"/>
<text text-anchor="middle" x="60.5" y="-7" font-family="Helvetica,sans-Serif" font-size="10.00">TinyGPS::operator&lt;&lt;</text>
</a>
</g>
</g>
<!-- Node3&#45;&gt;Node4 -->
<g id="edge3_Node000003_Node000004" class="edge">
<title>Node3&#45;&gt;Node4</title>
<g id="a_edge3_Node000003_Node000004"><a xlink:title=" ">
<path fill="none" stroke="#63b8ff" d="M146.67,-9.5C138.21,-9.5 129.5,-9.5 121.03,-9.5"/>
<polygon fill="#63b8ff" stroke="#63b8ff" points="146.82,-13 156.82,-9.5 146.82,-6 146.82,-13"/>
</a>
</g>
</g>
</g>
</svg>
