<?xml version="1.0" encoding="UTF-8" standalone="no"?>
<!DOCTYPE svg PUBLIC "-//W3C//DTD SVG 1.1//EN"
 "http://www.w3.org/Graphics/SVG/1.1/DTD/svg11.dtd">
<!-- Generated by graphviz version 2.43.0 (0)
 -->
<!-- Title: TinyGPS::f_speed_knots Pages: 1 -->
<svg width="312pt" height="101pt"
 viewBox="0.00 0.00 312.00 101.00" xmlns="http://www.w3.org/2000/svg" xmlns:xlink="http://www.w3.org/1999/xlink">
<g id="graph0" class="graph" transform="scale(1 1) rotate(0) translate(4 97)">
<title>TinyGPS::f_speed_knots</title>
<!-- Node1 -->
<g id="Node000001" class="node">
<title>Node1</title>
<g id="a_Node000001"><a xlink:title=" ">
<polygon fill="#999999" stroke="#666666" points="304,-56 170,-56 170,-37 304,-37 304,-56"/>
<text text-anchor="middle" x="237" y="-44" font-family="Helvetica,sans-Serif" font-size="10.00">TinyGPS::f_speed_knots</text>
</a>
</g>
</g>
<!-- Node2 -->
<g id="Node000002" class="node">
<title>Node2</title>
<g id="a_Node000002"><a xlink:href="../../df/d85/classTinyGPS.xhtml#a9cfc388eba14bd0d833958970b68763c" target="_top" xlink:title=" ">
<polygon fill="white" stroke="#666666" points="134,-93 0,-93 0,-74 134,-74 134,-93"/>
<text text-anchor="middle" x="67" y="-81" font-family="Helvetica,sans-Serif" font-size="10.00">TinyGPS::f_speed_kmph</text>
</a>
</g>
</g>
<!-- Node1&#45;&gt;Node2 -->
<g id="edge1_Node000001_Node000002" class="edge">
<title>Node1&#45;&gt;Node2</title>
<g id="a_edge1_Node000001_Node000002"><a xlink:title=" ">
<path fill="none" stroke="#63b8ff" d="M182.78,-58.22C159.78,-63.29 133.2,-69.14 111.41,-73.94"/>
<polygon fill="#63b8ff" stroke="#63b8ff" points="183.72,-61.6 192.74,-56.03 182.22,-54.76 183.72,-61.6"/>
</a>
</g>
</g>
<!-- Node3 -->
<g id="Node000003" class="node">
<title>Node3</title>
<g id="a_Node000003"><a xlink:href="../../df/d85/classTinyGPS.xhtml#a7c3c51c4df168ef2b1583a86d8deff34" target="_top" xlink:title=" ">
<polygon fill="white" stroke="#666666" points="131,-56 3,-56 3,-37 131,-37 131,-56"/>
<text text-anchor="middle" x="67" y="-44" font-family="Helvetica,sans-Serif" font-size="10.00">TinyGPS::f_speed_mph</text>
</a>
</g>
</g>
<!-- Node1&#45;&gt;Node3 -->
<g id="edge2_Node000001_Node000003" class="edge">
<title>Node1&#45;&gt;Node3</title>
<g id="a_edge2_Node000001_Node000003"><a xlink:title=" ">
<path fill="none" stroke="#63b8ff" d="M159.42,-46.5C149.97,-46.5 140.4,-46.5 131.18,-46.5"/>
<polygon fill="#63b8ff" stroke="#63b8ff" points="159.6,-50 169.6,-46.5 159.6,-43 159.6,-50"/>
</a>
</g>
</g>
<!-- Node4 -->
<g id="Node000004" class="node">
<title>Node4</title>
<g id="a_Node000004"><a xlink:href="../../df/d85/classTinyGPS.xhtml#a50bf6df367912942e294de13170cb1e0" target="_top" xlink:title=" ">
<polygon fill="white" stroke="#666666" points="131,-19 3,-19 3,0 131,0 131,-19"/>
<text text-anchor="middle" x="67" y="-7" font-family="Helvetica,sans-Serif" font-size="10.00">TinyGPS::f_speed_mps</text>
</a>
</g>
</g>
<!-- Node1&#45;&gt;Node4 -->
<g id="edge3_Node000001_Node000004" class="edge">
<title>Node1&#45;&gt;Node4</title>
<g id="a_edge3_Node000001_Node000004"><a xlink:title=" ">
<path fill="none" stroke="#63b8ff" d="M182.78,-34.78C159.78,-29.71 133.2,-23.86 111.41,-19.06"/>
<polygon fill="#63b8ff" stroke="#63b8ff" points="182.22,-38.24 192.74,-36.97 183.72,-31.4 182.22,-38.24"/>
</a>
</g>
</g>
</g>
</svg>
