<?xml version="1.0" encoding="UTF-8" standalone="no"?>
<!DOCTYPE svg PUBLIC "-//W3C//DTD SVG 1.1//EN"
 "http://www.w3.org/Graphics/SVG/1.1/DTD/svg11.dtd">
<!-- Generated by graphviz version 2.43.0 (0)
 -->
<!-- Title: ChainableLED.h Pages: 1 -->
<!--zoomable 522 -->

<svg id="main" version="1.1" xmlns="http://www.w3.org/2000/svg" xmlns:xlink="http://www.w3.org/1999/xlink" xml:space="preserve" onload="init(evt)">
<style type="text/css"><![CDATA[
.node, .edge {opacity: 0.7;}
.node.selected, .edge.selected {opacity: 1;}
.edge:hover path { stroke: red; }
.edge:hover polygon { stroke: red; fill: red; }
]]></style>

<defs>
  <circle id="rim" cx="0" cy="0" r="7"/>
  <circle id="rim2" cx="0" cy="0" r="3.5"/>
  <g id="zoomPlus">
    <use xlink:href="#rim" fill="#404040"><set attributeName="fill" to="#808080" begin="zoomplus.mouseover" end="zoomplus.mouseout"/></use>
    <path d="M-4,0h8M0,-4v8" fill="none" stroke="white" stroke-width="1.5" pointer-events="none"/>
  </g>
  <g id="zoomMin">
    <use xlink:href="#rim" fill="#404040"><set attributeName="fill" to="#808080" begin="zoomminus.mouseover" end="zoomminus.mouseout"/></use>
    <path d="M-4,0h8" fill="none" stroke="white" stroke-width="1.5" pointer-events="none"/>
  </g>
  <g id="arrowUp" transform="translate(30 24)">
    <use xlink:href="#rim"/>
    <path pointer-events="none" fill="none" stroke="white" stroke-width="1.5" d="M0,-3.0v7 M-2.5,-0.5L0,-3.0L2.5,-0.5"/>
  </g>
  <g id="arrowRight" transform="rotate(90) translate(36 -43)">
    <use xlink:href="#rim"/>
    <path pointer-events="none" fill="none" stroke="white" stroke-width="1.5" d="M0,-3.0v7 M-2.5,-0.5L0,-3.0L2.5,-0.5"/>
  </g>
  <g id="arrowDown" transform="rotate(180) translate(-30 -48)">
    <use xlink:href="#rim"/>
    <path pointer-events="none" fill="none" stroke="white" stroke-width="1.5" d="M0,-3.0v7 M-2.5,-0.5L0,-3.0L2.5,-0.5"/>
  </g>
  <g id="arrowLeft" transform="rotate(270) translate(-36 17)">
    <use xlink:href="#rim"/>
    <path pointer-events="none" fill="none" stroke="white" stroke-width="1.5" d="M0,-3.0v7 M-2.5,-0.5L0,-3.0L2.5,-0.5"/>
  </g>
  <g id="resetDef">
    <use xlink:href="#rim2" fill="#404040"><set attributeName="fill" to="#808080" begin="reset.mouseover" end="reset.mouseout"/></use>
  </g>
</defs>
<script type="application/ecmascript">
var viewWidth = 1294;
var viewHeight = 522;
var sectionId = 'dynsection-1';
</script>
<script type="application/ecmascript" xlink:href="../../svg.min.js"/>
<svg id="graph" class="graph">
<g id="viewport">
<title>ChainableLED.h</title>
<!-- Node1 -->
<g id="Node000001" class="node">
<title>Node1</title>
<g id="a_Node000001"><a xlink:title=" ">
<polygon fill="#999999" stroke="#666666" points="671.5,-514 578.5,-514 578.5,-495 671.5,-495 671.5,-514"/>
<text text-anchor="middle" x="625" y="-502" font-family="Helvetica,sans-Serif" font-size="10.00">ChainableLED.h</text>
</a>
</g>
</g>
<!-- Node2 -->
<g id="Node000002" class="node">
<title>Node2</title>
<g id="a_Node000002"><a xlink:href="../../da/dfe/ChainableLED_8cpp.xhtml" target="_top" xlink:title=" ">
<polygon fill="white" stroke="#666666" points="629,-459 525,-459 525,-440 629,-440 629,-459"/>
<text text-anchor="middle" x="577" y="-447" font-family="Helvetica,sans-Serif" font-size="10.00">ChainableLED.cpp</text>
</a>
</g>
</g>
<!-- Node1&#45;&gt;Node2 -->
<g id="edge1_Node000001_Node000002" class="edge">
<title>Node1&#45;&gt;Node2</title>
<g id="a_edge1_Node000001_Node000002"><a xlink:title=" ">
<path fill="none" stroke="#63b8ff" d="M610.27,-487.24C601.86,-477.95 591.65,-466.68 584.78,-459.09"/>
<polygon fill="#63b8ff" stroke="#63b8ff" points="607.77,-489.69 617.07,-494.75 612.96,-484.99 607.77,-489.69"/>
</a>
</g>
</g>
<!-- Node3 -->
<g id="Node000003" class="node">
<title>Node3</title>
<g id="a_Node000003"><a xlink:href="../../d4/d76/led_8hpp.xhtml" target="_top" xlink:title=" ">
<polygon fill="white" stroke="#666666" points="700.5,-459 647.5,-459 647.5,-440 700.5,-440 700.5,-459"/>
<text text-anchor="middle" x="674" y="-447" font-family="Helvetica,sans-Serif" font-size="10.00">led.hpp</text>
</a>
</g>
</g>
<!-- Node1&#45;&gt;Node3 -->
<g id="edge2_Node000001_Node000003" class="edge">
<title>Node1&#45;&gt;Node3</title>
<g id="a_edge2_Node000001_Node000003"><a xlink:title=" ">
<path fill="none" stroke="#63b8ff" d="M640.03,-487.24C648.62,-477.95 659.04,-466.68 666.06,-459.09"/>
<polygon fill="#63b8ff" stroke="#63b8ff" points="637.31,-485.03 633.09,-494.75 642.45,-489.78 637.31,-485.03"/>
</a>
</g>
</g>
<!-- Node4 -->
<g id="Node000004" class="node">
<title>Node4</title>
<g id="a_Node000004"><a xlink:href="../../d9/d99/error_8hpp.xhtml" target="_top" xlink:title=" ">
<polygon fill="white" stroke="#666666" points="325,-404 265,-404 265,-385 325,-385 325,-404"/>
<text text-anchor="middle" x="295" y="-392" font-family="Helvetica,sans-Serif" font-size="10.00">error.hpp</text>
</a>
</g>
</g>
<!-- Node3&#45;&gt;Node4 -->
<g id="edge3_Node000003_Node000004" class="edge">
<title>Node3&#45;&gt;Node4</title>
<g id="a_edge3_Node000003_Node000004"><a xlink:title=" ">
<path fill="none" stroke="#63b8ff" d="M637.13,-440.03C515.92,-418.29 383.87,-404.16 325.45,-398.39"/>
<polygon fill="#63b8ff" stroke="#63b8ff" points="636.86,-443.54 647.33,-441.88 638.11,-436.65 636.86,-443.54"/>
</a>
</g>
</g>
<!-- Node9 -->
<g id="Node000009" class="node">
<title>Node9</title>
<g id="a_Node000009"><a xlink:href="../../d0/d00/main_8hpp.xhtml" target="_top" xlink:title=" ">
<polygon fill="white" stroke="#666666" points="678,-239 616,-239 616,-220 678,-220 678,-239"/>
<text text-anchor="middle" x="647" y="-227" font-family="Helvetica,sans-Serif" font-size="10.00">main.hpp</text>
</a>
</g>
</g>
<!-- Node3&#45;&gt;Node9 -->
<g id="edge62_Node000003_Node000009" class="edge">
<title>Node3&#45;&gt;Node9</title>
<g id="a_edge62_Node000003_Node000009"><a xlink:title=" ">
<path fill="none" stroke="#63b8ff" d="M670.37,-429.95C668.89,-421.98 667.24,-412.55 666,-404 656.9,-341.02 649.94,-264.62 647.74,-239.19"/>
<polygon fill="#63b8ff" stroke="#63b8ff" points="666.98,-430.83 672.29,-440 673.85,-429.52 666.98,-430.83"/>
</a>
</g>
</g>
<!-- Node40 -->
<g id="Node000040" class="node">
<title>Node40</title>
<g id="a_Node000040"><a xlink:href="../../db/d17/led_8cpp.xhtml" target="_top" xlink:title=" ">
<polygon fill="white" stroke="#666666" points="727,-404 675,-404 675,-385 727,-385 727,-404"/>
<text text-anchor="middle" x="701" y="-392" font-family="Helvetica,sans-Serif" font-size="10.00">led.cpp</text>
</a>
</g>
</g>
<!-- Node3&#45;&gt;Node40 -->
<g id="edge61_Node000003_Node000040" class="edge">
<title>Node3&#45;&gt;Node40</title>
<g id="a_edge61_Node000003_Node000040"><a xlink:title=" ">
<path fill="none" stroke="#63b8ff" d="M683.01,-430.82C687.59,-421.82 692.95,-411.29 696.62,-404.09"/>
<polygon fill="#63b8ff" stroke="#63b8ff" points="679.88,-429.25 678.46,-439.75 686.12,-432.43 679.88,-429.25"/>
</a>
</g>
</g>
<!-- Node5 -->
<g id="Node000005" class="node">
<title>Node5</title>
<g id="a_Node000005"><a xlink:href="../../d3/d42/bme_8hpp.xhtml" target="_top" xlink:title=" ">
<polygon fill="white" stroke="#666666" points="273.5,-349 214.5,-349 214.5,-330 273.5,-330 273.5,-349"/>
<text text-anchor="middle" x="244" y="-337" font-family="Helvetica,sans-Serif" font-size="10.00">bme.hpp</text>
</a>
</g>
</g>
<!-- Node4&#45;&gt;Node5 -->
<g id="edge4_Node000004_Node000005" class="edge">
<title>Node4&#45;&gt;Node5</title>
<g id="a_edge4_Node000004_Node000005"><a xlink:title=" ">
<path fill="none" stroke="#63b8ff" d="M279.62,-377.52C270.63,-368.18 259.64,-356.75 252.26,-349.09"/>
<polygon fill="#63b8ff" stroke="#63b8ff" points="277.12,-379.97 286.58,-384.75 282.17,-375.12 277.12,-379.97"/>
</a>
</g>
</g>
<!-- Node16 -->
<g id="Node000016" class="node">
<title>Node16</title>
<g id="a_Node000016"><a xlink:href="../../df/d04/standard_8hpp.xhtml" target="_top" xlink:title=" ">
<polygon fill="white" stroke="#666666" points="1004,-129 924,-129 924,-110 1004,-110 1004,-129"/>
<text text-anchor="middle" x="964" y="-117" font-family="Helvetica,sans-Serif" font-size="10.00">standard.hpp</text>
</a>
</g>
</g>
<!-- Node4&#45;&gt;Node16 -->
<g id="edge60_Node000004_Node000016" class="edge">
<title>Node4&#45;&gt;Node16</title>
<g id="a_edge60_Node000004_Node000016"><a xlink:title=" ">
<path fill="none" stroke="#63b8ff" d="M335.55,-392.58C502.76,-388.24 1130,-366.58 1130,-285.5 1130,-285.5 1130,-285.5 1130,-228.5 1130,-168.68 1053.31,-140.28 1004.18,-128.23"/>
<polygon fill="#63b8ff" stroke="#63b8ff" points="335.12,-389.09 325.21,-392.84 335.3,-396.08 335.12,-389.09"/>
</a>
</g>
</g>
<!-- Node37 -->
<g id="Node000037" class="node">
<title>Node37</title>
<g id="a_Node000037"><a xlink:href="../../dd/db1/error_8cpp.xhtml" target="_top" xlink:title=" ">
<polygon fill="white" stroke="#666666" points="123.5,-349 64.5,-349 64.5,-330 123.5,-330 123.5,-349"/>
<text text-anchor="middle" x="94" y="-337" font-family="Helvetica,sans-Serif" font-size="10.00">error.cpp</text>
</a>
</g>
</g>
<!-- Node4&#45;&gt;Node37 -->
<g id="edge57_Node000004_Node000037" class="edge">
<title>Node4&#45;&gt;Node37</title>
<g id="a_edge57_Node000004_Node000037"><a xlink:title=" ">
<path fill="none" stroke="#63b8ff" d="M255.01,-382.96C216.27,-372.74 158.43,-357.49 123.64,-348.32"/>
<polygon fill="#63b8ff" stroke="#63b8ff" points="254.35,-386.4 264.91,-385.57 256.13,-379.63 254.35,-386.4"/>
</a>
</g>
</g>
<!-- Node38 -->
<g id="Node000038" class="node">
<title>Node38</title>
<g id="a_Node000038"><a xlink:href="../../db/d45/gps_8hpp.xhtml" target="_top" xlink:title=" ">
<polygon fill="white" stroke="#666666" points="196.5,-349 141.5,-349 141.5,-330 196.5,-330 196.5,-349"/>
<text text-anchor="middle" x="169" y="-337" font-family="Helvetica,sans-Serif" font-size="10.00">gps.hpp</text>
</a>
</g>
</g>
<!-- Node4&#45;&gt;Node38 -->
<g id="edge58_Node000004_Node000038" class="edge">
<title>Node4&#45;&gt;Node38</title>
<g id="a_edge58_Node000004_Node000038"><a xlink:title=" ">
<path fill="none" stroke="#63b8ff" d="M265.35,-381.03C242.05,-371.23 210.2,-357.83 189.61,-349.17"/>
<polygon fill="#63b8ff" stroke="#63b8ff" points="264.18,-384.33 274.76,-384.98 266.9,-377.88 264.18,-384.33"/>
</a>
</g>
</g>
<!-- Node6 -->
<g id="Node000006" class="node">
<title>Node6</title>
<g id="a_Node000006"><a xlink:href="../../d4/d82/bme_8cpp.xhtml" target="_top" xlink:title=" ">
<polygon fill="white" stroke="#666666" points="317.5,-294 258.5,-294 258.5,-275 317.5,-275 317.5,-294"/>
<text text-anchor="middle" x="288" y="-282" font-family="Helvetica,sans-Serif" font-size="10.00">bme.cpp</text>
</a>
</g>
</g>
<!-- Node5&#45;&gt;Node6 -->
<g id="edge5_Node000005_Node000006" class="edge">
<title>Node5&#45;&gt;Node6</title>
<g id="a_edge5_Node000005_Node000006"><a xlink:title=" ">
<path fill="none" stroke="#63b8ff" d="M257.73,-321.96C265.4,-312.72 274.63,-301.6 280.87,-294.09"/>
<polygon fill="#63b8ff" stroke="#63b8ff" points="254.96,-319.82 251.27,-329.75 260.35,-324.29 254.96,-319.82"/>
</a>
</g>
</g>
<!-- Node7 -->
<g id="Node000007" class="node">
<title>Node7</title>
<g id="a_Node000007"><a xlink:href="../../de/d1e/humidity_8hpp.xhtml" target="_top" xlink:title=" ">
<polygon fill="white" stroke="#666666" points="240,-294 160,-294 160,-275 240,-275 240,-294"/>
<text text-anchor="middle" x="200" y="-282" font-family="Helvetica,sans-Serif" font-size="10.00">humidity.hpp</text>
</a>
</g>
</g>
<!-- Node5&#45;&gt;Node7 -->
<g id="edge6_Node000005_Node000007" class="edge">
<title>Node5&#45;&gt;Node7</title>
<g id="a_edge6_Node000005_Node000007"><a xlink:title=" ">
<path fill="none" stroke="#63b8ff" d="M230.27,-321.96C222.6,-312.72 213.37,-301.6 207.13,-294.09"/>
<polygon fill="#63b8ff" stroke="#63b8ff" points="227.65,-324.29 236.73,-329.75 233.04,-319.82 227.65,-324.29"/>
</a>
</g>
</g>
<!-- Node33 -->
<g id="Node000033" class="node">
<title>Node33</title>
<g id="a_Node000033"><a xlink:href="../../d5/ddb/pressure_8hpp.xhtml" target="_top" xlink:title=" ">
<polygon fill="white" stroke="#666666" points="80,-184 0,-184 0,-165 80,-165 80,-184"/>
<text text-anchor="middle" x="40" y="-172" font-family="Helvetica,sans-Serif" font-size="10.00">pressure.hpp</text>
</a>
</g>
</g>
<!-- Node5&#45;&gt;Node33 -->
<g id="edge55_Node000005_Node000033" class="edge">
<title>Node5&#45;&gt;Node33</title>
<g id="a_edge55_Node000005_Node000033"><a xlink:title=" ">
<path fill="none" stroke="#63b8ff" d="M205.46,-326.61C185.1,-319.2 160.39,-308.33 141,-294 96.65,-261.23 58.85,-205.44 45.32,-184.13"/>
<polygon fill="#63b8ff" stroke="#63b8ff" points="204.47,-329.97 215.06,-329.97 206.78,-323.37 204.47,-329.97"/>
</a>
</g>
</g>
<!-- Node35 -->
<g id="Node000035" class="node">
<title>Node35</title>
<g id="a_Node000035"><a xlink:href="../../dc/d32/temperature_8hpp.xhtml" target="_top" xlink:title=" ">
<polygon fill="white" stroke="#666666" points="234,-184 136,-184 136,-165 234,-165 234,-184"/>
<text text-anchor="middle" x="185" y="-172" font-family="Helvetica,sans-Serif" font-size="10.00">temperature.hpp</text>
</a>
</g>
</g>
<!-- Node5&#45;&gt;Node35 -->
<g id="edge56_Node000005_Node000035" class="edge">
<title>Node5&#45;&gt;Node35</title>
<g id="a_edge56_Node000005_Node000035"><a xlink:title=" ">
<path fill="none" stroke="#63b8ff" d="M209.32,-326.36C185.8,-317.34 157.79,-304.78 151,-294 145.91,-285.92 138.74,-258.95 152,-220 156.84,-205.8 168.03,-192.38 176.04,-184.06"/>
<polygon fill="#63b8ff" stroke="#63b8ff" points="208.13,-329.65 218.72,-329.87 210.58,-323.09 208.13,-329.65"/>
</a>
</g>
</g>
<!-- Node8 -->
<g id="Node000008" class="node">
<title>Node8</title>
<g id="a_Node000008"><a xlink:href="../../dd/d8e/humidity_8cpp.xhtml" target="_top" xlink:title=" ">
<polygon fill="white" stroke="#666666" points="239.5,-239 160.5,-239 160.5,-220 239.5,-220 239.5,-239"/>
<text text-anchor="middle" x="200" y="-227" font-family="Helvetica,sans-Serif" font-size="10.00">humidity.cpp</text>
</a>
</g>
</g>
<!-- Node7&#45;&gt;Node8 -->
<g id="edge7_Node000007_Node000008" class="edge">
<title>Node7&#45;&gt;Node8</title>
<g id="a_edge7_Node000007_Node000008"><a xlink:title=" ">
<path fill="none" stroke="#63b8ff" d="M200,-264.66C200,-255.93 200,-245.99 200,-239.09"/>
<polygon fill="#63b8ff" stroke="#63b8ff" points="196.5,-264.75 200,-274.75 203.5,-264.75 196.5,-264.75"/>
</a>
</g>
</g>
<!-- Node7&#45;&gt;Node9 -->
<g id="edge8_Node000007_Node000009" class="edge">
<title>Node7&#45;&gt;Node9</title>
<g id="a_edge8_Node000007_Node000009"><a xlink:title=" ">
<path fill="none" stroke="#63b8ff" d="M250.5,-273.67C388.19,-254.6 549.2,-238.82 615.91,-232.95"/>
<polygon fill="#63b8ff" stroke="#63b8ff" points="249.63,-270.26 240.21,-275.11 250.6,-277.19 249.63,-270.26"/>
</a>
</g>
</g>
<!-- Node9&#45;&gt;Node7 -->
<g id="edge30_Node000009_Node000007" class="edge">
<title>Node9&#45;&gt;Node7</title>
<g id="a_edge30_Node000009_Node000007"><a xlink:title=" ">
<path fill="none" stroke="#63b8ff" d="M605.61,-234.9C534.48,-242.06 385.07,-257.23 259,-275 252.98,-275.85 246.58,-276.86 240.25,-277.88"/>
<polygon fill="#63b8ff" stroke="#63b8ff" points="606.33,-238.35 615.93,-233.86 605.63,-231.38 606.33,-238.35"/>
</a>
</g>
</g>
<!-- Node10 -->
<g id="Node000010" class="node">
<title>Node10</title>
<g id="a_Node000010"><a xlink:href="../../db/d0c/acquisition_8hpp.xhtml" target="_top" xlink:title=" ">
<polygon fill="white" stroke="#666666" points="843.5,-184 752.5,-184 752.5,-165 843.5,-165 843.5,-184"/>
<text text-anchor="middle" x="798" y="-172" font-family="Helvetica,sans-Serif" font-size="10.00">acquisition.hpp</text>
</a>
</g>
</g>
<!-- Node9&#45;&gt;Node10 -->
<g id="edge9_Node000009_Node000010" class="edge">
<title>Node9&#45;&gt;Node10</title>
<g id="a_edge9_Node000009_Node000010"><a xlink:title=" ">
<path fill="none" stroke="#63b8ff" d="M681.05,-216.55C709.09,-206.71 748.18,-192.98 773.3,-184.17"/>
<polygon fill="#63b8ff" stroke="#63b8ff" points="679.54,-213.37 671.26,-219.98 681.86,-219.98 679.54,-213.37"/>
</a>
</g>
</g>
<!-- Node12 -->
<g id="Node000012" class="node">
<title>Node12</title>
<g id="a_Node000012"><a xlink:href="../../d8/dc9/maintenance_8hpp.xhtml" target="_top" xlink:title=" ">
<polygon fill="white" stroke="#666666" points="723.5,-74 622.5,-74 622.5,-55 723.5,-55 723.5,-74"/>
<text text-anchor="middle" x="673" y="-62" font-family="Helvetica,sans-Serif" font-size="10.00">maintenance.hpp</text>
</a>
</g>
</g>
<!-- Node9&#45;&gt;Node12 -->
<g id="edge38_Node000009_Node000012" class="edge">
<title>Node9&#45;&gt;Node12</title>
<g id="a_edge38_Node000009_Node000012"><a xlink:title=" ">
<path fill="none" stroke="#63b8ff" d="M658.6,-212.33C665.71,-204.67 673.85,-194.83 678,-184 692.91,-145.12 675.77,-94.24 672.08,-74.18"/>
<polygon fill="#63b8ff" stroke="#63b8ff" points="655.91,-210.09 651.53,-219.73 660.97,-214.93 655.91,-210.09"/>
</a>
</g>
</g>
<!-- Node14 -->
<g id="Node000014" class="node">
<title>Node14</title>
<g id="a_Node000014"><a xlink:href="../../d5/d98/sd_8hpp.xhtml" target="_top" xlink:title=" ">
<polygon fill="white" stroke="#666666" points="905.5,-129 856.5,-129 856.5,-110 905.5,-110 905.5,-129"/>
<text text-anchor="middle" x="881" y="-117" font-family="Helvetica,sans-Serif" font-size="10.00">sd.hpp</text>
</a>
</g>
</g>
<!-- Node9&#45;&gt;Node14 -->
<g id="edge49_Node000009_Node000014" class="edge">
<title>Node9&#45;&gt;Node14</title>
<g id="a_edge49_Node000009_Node000014"><a xlink:title=" ">
<path fill="none" stroke="#63b8ff" d="M688.03,-223.27C738.52,-216.58 820.13,-203.47 844,-184 861.18,-169.99 868.13,-143.31 874.02,-129.42"/>
<polygon fill="#63b8ff" stroke="#63b8ff" points="687.54,-219.81 678.07,-224.57 688.44,-226.75 687.54,-219.81"/>
</a>
</g>
</g>
<!-- Node9&#45;&gt;Node16 -->
<g id="edge51_Node000009_Node000016" class="edge">
<title>Node9&#45;&gt;Node16</title>
<g id="a_edge51_Node000009_Node000016"><a xlink:title=" ">
<path fill="none" stroke="#63b8ff" d="M688.1,-226.14C734.99,-222.21 812.75,-211.77 874,-184 904.27,-170.28 933.31,-142.97 950.39,-129.07"/>
<polygon fill="#63b8ff" stroke="#63b8ff" points="687.71,-222.66 678.01,-226.92 688.25,-229.64 687.71,-222.66"/>
</a>
</g>
</g>
<!-- Node18 -->
<g id="Node000018" class="node">
<title>Node18</title>
<g id="a_Node000018"><a xlink:href="../../de/d53/brightness_8hpp.xhtml" target="_top" xlink:title=" ">
<polygon fill="white" stroke="#666666" points="1063.5,-184 974.5,-184 974.5,-165 1063.5,-165 1063.5,-184"/>
<text text-anchor="middle" x="1019" y="-172" font-family="Helvetica,sans-Serif" font-size="10.00">brightness.hpp</text>
</a>
</g>
</g>
<!-- Node9&#45;&gt;Node18 -->
<g id="edge21_Node000009_Node000018" class="edge">
<title>Node9&#45;&gt;Node18</title>
<g id="a_edge21_Node000009_Node000018"><a xlink:title=" ">
<path fill="none" stroke="#63b8ff" d="M688.4,-221.76C746.97,-213.06 856.95,-197.46 951,-184 958.48,-182.93 966.49,-181.78 974.33,-180.68"/>
<polygon fill="#63b8ff" stroke="#63b8ff" points="687.79,-218.31 678.42,-223.25 688.82,-225.23 687.79,-218.31"/>
</a>
</g>
</g>
<!-- Node20 -->
<g id="Node000020" class="node">
<title>Node20</title>
<g id="a_Node000020"><a xlink:href="../../dc/d0a/configuration_8hpp.xhtml" target="_top" xlink:title=" ">
<polygon fill="white" stroke="#666666" points="353.5,-184 252.5,-184 252.5,-165 353.5,-165 353.5,-184"/>
<text text-anchor="middle" x="303" y="-172" font-family="Helvetica,sans-Serif" font-size="10.00">configuration.hpp</text>
</a>
</g>
</g>
<!-- Node9&#45;&gt;Node20 -->
<g id="edge24_Node000009_Node000020" class="edge">
<title>Node9&#45;&gt;Node20</title>
<g id="a_edge24_Node000009_Node000020"><a xlink:title=" ">
<path fill="none" stroke="#63b8ff" d="M605.84,-222.83C542.54,-213.53 421.77,-194.96 353.36,-184.05"/>
<polygon fill="#63b8ff" stroke="#63b8ff" points="605.46,-226.31 615.86,-224.3 606.47,-219.39 605.46,-226.31"/>
</a>
</g>
</g>
<!-- Node22 -->
<g id="Node000022" class="node">
<title>Node22</title>
<g id="a_Node000022"><a xlink:href="../../d0/d42/economy_8hpp.xhtml" target="_top" xlink:title=" ">
<polygon fill="white" stroke="#666666" points="452.5,-184 371.5,-184 371.5,-165 452.5,-165 452.5,-184"/>
<text text-anchor="middle" x="412" y="-172" font-family="Helvetica,sans-Serif" font-size="10.00">economy.hpp</text>
</a>
</g>
</g>
<!-- Node9&#45;&gt;Node22 -->
<g id="edge27_Node000009_Node000022" class="edge">
<title>Node9&#45;&gt;Node22</title>
<g id="a_edge27_Node000009_Node000022"><a xlink:title=" ">
<path fill="none" stroke="#63b8ff" d="M605.62,-220.31C559.73,-210.46 486.85,-194.03 444.74,-184.04"/>
<polygon fill="#63b8ff" stroke="#63b8ff" points="605.04,-223.76 615.55,-222.42 606.5,-216.91 605.04,-223.76"/>
</a>
</g>
</g>
<!-- Node24 -->
<g id="Node000024" class="node">
<title>Node24</title>
<g id="a_Node000024"><a xlink:href="../../db/d42/interpreter_8hpp.xhtml" target="_top" xlink:title=" ">
<polygon fill="white" stroke="#666666" points="598.5,-184 509.5,-184 509.5,-165 598.5,-165 598.5,-184"/>
<text text-anchor="middle" x="554" y="-172" font-family="Helvetica,sans-Serif" font-size="10.00">interpreter.hpp</text>
</a>
</g>
</g>
<!-- Node9&#45;&gt;Node24 -->
<g id="edge31_Node000009_Node000024" class="edge">
<title>Node9&#45;&gt;Node24</title>
<g id="a_edge31_Node000009_Node000024"><a xlink:title=" ">
<path fill="none" stroke="#63b8ff" d="M623.25,-214.97C606.25,-205.28 583.87,-192.52 569.21,-184.17"/>
<polygon fill="#63b8ff" stroke="#63b8ff" points="621.64,-218.07 632.06,-219.98 625.1,-211.99 621.64,-218.07"/>
</a>
</g>
</g>
<!-- Node26 -->
<g id="Node000026" class="node">
<title>Node26</title>
<g id="a_Node000026"><a xlink:href="../../d1/dc5/serial_8hpp.xhtml" target="_top" xlink:title=" ">
<polygon fill="white" stroke="#666666" points="529.5,-129 464.5,-129 464.5,-110 529.5,-110 529.5,-129"/>
<text text-anchor="middle" x="497" y="-117" font-family="Helvetica,sans-Serif" font-size="10.00">serial.hpp</text>
</a>
</g>
</g>
<!-- Node9&#45;&gt;Node26 -->
<g id="edge50_Node000009_Node000026" class="edge">
<title>Node9&#45;&gt;Node26</title>
<g id="a_edge50_Node000009_Node000026"><a xlink:title=" ">
<path fill="none" stroke="#63b8ff" d="M605.91,-228.02C572.08,-225.22 525.8,-215.37 501,-184 488.53,-168.23 491.77,-142.79 494.68,-129.4"/>
<polygon fill="#63b8ff" stroke="#63b8ff" points="605.77,-231.52 615.97,-228.68 606.23,-224.53 605.77,-231.52"/>
</a>
</g>
</g>
<!-- Node28 -->
<g id="Node000028" class="node">
<title>Node28</title>
<g id="a_Node000028"><a xlink:href="../../de/dfb/src_2main_8cpp.xhtml" target="_top" xlink:title=" ">
<polygon fill="white" stroke="#666666" points="678,-184 616,-184 616,-165 678,-165 678,-184"/>
<text text-anchor="middle" x="647" y="-172" font-family="Helvetica,sans-Serif" font-size="10.00">main.cpp</text>
</a>
</g>
</g>
<!-- Node9&#45;&gt;Node28 -->
<g id="edge37_Node000009_Node000028" class="edge">
<title>Node9&#45;&gt;Node28</title>
<g id="a_edge37_Node000009_Node000028"><a xlink:title=" ">
<path fill="none" stroke="#63b8ff" d="M647,-209.66C647,-200.93 647,-190.99 647,-184.09"/>
<polygon fill="#63b8ff" stroke="#63b8ff" points="643.5,-209.75 647,-219.75 650.5,-209.75 643.5,-209.75"/>
</a>
</g>
</g>
<!-- Node29 -->
<g id="Node000029" class="node">
<title>Node29</title>
<g id="a_Node000029"><a xlink:href="../../d1/dfa/mode_8hpp.xhtml" target="_top" xlink:title=" ">
<polygon fill="white" stroke="#666666" points="1223.5,-184 1158.5,-184 1158.5,-165 1223.5,-165 1223.5,-184"/>
<text text-anchor="middle" x="1191" y="-172" font-family="Helvetica,sans-Serif" font-size="10.00">mode.hpp</text>
</a>
</g>
</g>
<!-- Node9&#45;&gt;Node29 -->
<g id="edge39_Node000009_Node000029" class="edge">
<title>Node9&#45;&gt;Node29</title>
<g id="a_edge39_Node000009_Node000029"><a xlink:title=" ">
<path fill="none" stroke="#63b8ff" d="M688.22,-224.03C767.52,-216.06 946.21,-198.85 1097,-184 1117.22,-182.01 1140.14,-179.71 1158.46,-178.01"/>
<polygon fill="#63b8ff" stroke="#63b8ff" points="687.75,-220.56 678.15,-225.05 688.46,-227.52 687.75,-220.56"/>
</a>
</g>
</g>
<!-- Node9&#45;&gt;Node33 -->
<g id="edge46_Node000009_Node000033" class="edge">
<title>Node9&#45;&gt;Node33</title>
<g id="a_edge46_Node000009_Node000033"><a xlink:title=" ">
<path fill="none" stroke="#63b8ff" d="M605.83,-225.53C516.58,-218.58 299.4,-200.62 118,-184 105.61,-182.86 92.23,-181.58 80.06,-180.37"/>
<polygon fill="#63b8ff" stroke="#63b8ff" points="605.58,-229.02 615.82,-226.3 606.12,-222.04 605.58,-229.02"/>
</a>
</g>
</g>
<!-- Node9&#45;&gt;Node35 -->
<g id="edge52_Node000009_Node000035" class="edge">
<title>Node9&#45;&gt;Node35</title>
<g id="a_edge52_Node000009_Node000035"><a xlink:title=" ">
<path fill="none" stroke="#63b8ff" d="M605.42,-224.88C530.8,-217.77 369.94,-201.17 235,-184 234.69,-183.96 234.38,-183.92 234.07,-183.88"/>
<polygon fill="#63b8ff" stroke="#63b8ff" points="605.51,-228.41 615.79,-225.86 606.16,-221.44 605.51,-228.41"/>
</a>
</g>
</g>
<!-- Node11 -->
<g id="Node000011" class="node">
<title>Node11</title>
<g id="a_Node000011"><a xlink:href="../../d6/d30/acquisition_8cpp.xhtml" target="_top" xlink:title=" ">
<polygon fill="white" stroke="#666666" points="800,-129 710,-129 710,-110 800,-110 800,-129"/>
<text text-anchor="middle" x="755" y="-117" font-family="Helvetica,sans-Serif" font-size="10.00">acquisition.cpp</text>
</a>
</g>
</g>
<!-- Node10&#45;&gt;Node11 -->
<g id="edge10_Node000010_Node000011" class="edge">
<title>Node10&#45;&gt;Node11</title>
<g id="a_edge10_Node000010_Node000011"><a xlink:title=" ">
<path fill="none" stroke="#63b8ff" d="M784.58,-156.96C777.09,-147.72 768.06,-136.6 761.97,-129.09"/>
<polygon fill="#63b8ff" stroke="#63b8ff" points="781.88,-159.19 790.9,-164.75 787.32,-154.78 781.88,-159.19"/>
</a>
</g>
</g>
<!-- Node10&#45;&gt;Node12 -->
<g id="edge11_Node000010_Node000012" class="edge">
<title>Node10&#45;&gt;Node12</title>
<g id="a_edge11_Node000010_Node000012"><a xlink:title=" ">
<path fill="none" stroke="#63b8ff" d="M807.78,-155.46C813.73,-141.77 818.52,-123.14 809,-110 789.61,-83.25 753.66,-72.28 723.59,-67.92"/>
<polygon fill="#63b8ff" stroke="#63b8ff" points="804.47,-154.26 803.22,-164.78 810.76,-157.33 804.47,-154.26"/>
</a>
</g>
</g>
<!-- Node10&#45;&gt;Node14 -->
<g id="edge14_Node000010_Node000014" class="edge">
<title>Node10&#45;&gt;Node14</title>
<g id="a_edge14_Node000010_Node000014"><a xlink:title=" ">
<path fill="none" stroke="#63b8ff" d="M820.04,-159.42C835.11,-149.81 854.59,-137.37 867.42,-129.17"/>
<polygon fill="#63b8ff" stroke="#63b8ff" points="817.88,-156.65 811.34,-164.98 821.65,-162.55 817.88,-156.65"/>
</a>
</g>
</g>
<!-- Node10&#45;&gt;Node16 -->
<g id="edge18_Node000010_Node000016" class="edge">
<title>Node10&#45;&gt;Node16</title>
<g id="a_edge18_Node000010_Node000016"><a xlink:title=" ">
<path fill="none" stroke="#63b8ff" d="M834.25,-161.93C865.25,-152.03 909.17,-138.01 937.12,-129.08"/>
<polygon fill="#63b8ff" stroke="#63b8ff" points="833.13,-158.61 824.67,-164.98 835.26,-165.28 833.13,-158.61"/>
</a>
</g>
</g>
<!-- Node12&#45;&gt;Node9 -->
<g id="edge12_Node000012_Node000009" class="edge">
<title>Node12&#45;&gt;Node9</title>
<g id="a_edge12_Node000012_Node000009"><a xlink:title=" ">
<path fill="none" stroke="#63b8ff" d="M686.17,-83.06C697.56,-106.77 709.04,-149.98 696,-184 690.35,-198.74 677.31,-211.67 665.76,-219.73"/>
<polygon fill="#63b8ff" stroke="#63b8ff" points="689.2,-81.31 681.37,-74.18 683.04,-84.64 689.2,-81.31"/>
</a>
</g>
</g>
<!-- Node13 -->
<g id="Node000013" class="node">
<title>Node13</title>
<g id="a_Node000013"><a xlink:href="../../d6/d46/maintenance_8cpp.xhtml" target="_top" xlink:title=" ">
<polygon fill="white" stroke="#666666" points="723.5,-19 622.5,-19 622.5,0 723.5,0 723.5,-19"/>
<text text-anchor="middle" x="673" y="-7" font-family="Helvetica,sans-Serif" font-size="10.00">maintenance.cpp</text>
</a>
</g>
</g>
<!-- Node12&#45;&gt;Node13 -->
<g id="edge13_Node000012_Node000013" class="edge">
<title>Node12&#45;&gt;Node13</title>
<g id="a_edge13_Node000012_Node000013"><a xlink:title=" ">
<path fill="none" stroke="#63b8ff" d="M673,-44.66C673,-35.93 673,-25.99 673,-19.09"/>
<polygon fill="#63b8ff" stroke="#63b8ff" points="669.5,-44.75 673,-54.75 676.5,-44.75 669.5,-44.75"/>
</a>
</g>
</g>
<!-- Node14&#45;&gt;Node9 -->
<g id="edge15_Node000014_Node000009" class="edge">
<title>Node14&#45;&gt;Node9</title>
<g id="a_edge15_Node000014_Node000009"><a xlink:title=" ">
<path fill="none" stroke="#63b8ff" d="M884.78,-139.68C882.74,-154 875.56,-172.94 862,-184 834.57,-206.37 730.91,-220.35 678.05,-225.84"/>
<polygon fill="#63b8ff" stroke="#63b8ff" points="888.29,-139.59 885.34,-129.42 881.3,-139.21 888.29,-139.59"/>
</a>
</g>
</g>
<!-- Node14&#45;&gt;Node12 -->
<g id="edge16_Node000014_Node000012" class="edge">
<title>Node14&#45;&gt;Node12</title>
<g id="a_edge16_Node000014_Node000012"><a xlink:title=" ">
<path fill="none" stroke="#63b8ff" d="M846.52,-109.71C807.7,-99.82 745.02,-83.85 706.57,-74.05"/>
<polygon fill="#63b8ff" stroke="#63b8ff" points="845.77,-113.13 856.32,-112.21 847.5,-106.35 845.77,-113.13"/>
</a>
</g>
</g>
<!-- Node15 -->
<g id="Node000015" class="node">
<title>Node15</title>
<g id="a_Node000015"><a xlink:href="../../d0/ded/sd_8cpp.xhtml" target="_top" xlink:title=" ">
<polygon fill="white" stroke="#666666" points="905,-74 857,-74 857,-55 905,-55 905,-74"/>
<text text-anchor="middle" x="881" y="-62" font-family="Helvetica,sans-Serif" font-size="10.00">sd.cpp</text>
</a>
</g>
</g>
<!-- Node14&#45;&gt;Node15 -->
<g id="edge17_Node000014_Node000015" class="edge">
<title>Node14&#45;&gt;Node15</title>
<g id="a_edge17_Node000014_Node000015"><a xlink:title=" ">
<path fill="none" stroke="#63b8ff" d="M881,-99.66C881,-90.93 881,-80.99 881,-74.09"/>
<polygon fill="#63b8ff" stroke="#63b8ff" points="877.5,-99.75 881,-109.75 884.5,-99.75 877.5,-99.75"/>
</a>
</g>
</g>
<!-- Node16&#45;&gt;Node9 -->
<g id="edge19_Node000016_Node000009" class="edge">
<title>Node16&#45;&gt;Node9</title>
<g id="a_edge19_Node000016_Node000009"><a xlink:title=" ">
<path fill="none" stroke="#63b8ff" d="M955.03,-136.88C941.75,-151.57 917.3,-172.53 892,-184 820.42,-216.45 726.3,-225.24 678.05,-227.62"/>
<polygon fill="#63b8ff" stroke="#63b8ff" points="957.81,-139.01 961.48,-129.07 952.41,-134.55 957.81,-139.01"/>
</a>
</g>
</g>
<!-- Node17 -->
<g id="Node000017" class="node">
<title>Node17</title>
<g id="a_Node000017"><a xlink:href="../../df/d92/standard_8cpp.xhtml" target="_top" xlink:title=" ">
<polygon fill="white" stroke="#666666" points="1004,-74 924,-74 924,-55 1004,-55 1004,-74"/>
<text text-anchor="middle" x="964" y="-62" font-family="Helvetica,sans-Serif" font-size="10.00">standard.cpp</text>
</a>
</g>
</g>
<!-- Node16&#45;&gt;Node17 -->
<g id="edge20_Node000016_Node000017" class="edge">
<title>Node16&#45;&gt;Node17</title>
<g id="a_edge20_Node000016_Node000017"><a xlink:title=" ">
<path fill="none" stroke="#63b8ff" d="M964,-99.66C964,-90.93 964,-80.99 964,-74.09"/>
<polygon fill="#63b8ff" stroke="#63b8ff" points="960.5,-99.75 964,-109.75 967.5,-99.75 960.5,-99.75"/>
</a>
</g>
</g>
<!-- Node18&#45;&gt;Node9 -->
<g id="edge23_Node000018_Node000009" class="edge">
<title>Node18&#45;&gt;Node9</title>
<g id="a_edge23_Node000018_Node000009"><a xlink:title=" ">
<path fill="none" stroke="#63b8ff" d="M964.13,-184.7C855.18,-200.28 734.5,-217.37 678.38,-224.77"/>
<polygon fill="#63b8ff" stroke="#63b8ff" points="964.89,-188.12 974.3,-183.24 963.9,-181.19 964.89,-188.12"/>
</a>
</g>
</g>
<!-- Node19 -->
<g id="Node000019" class="node">
<title>Node19</title>
<g id="a_Node000019"><a xlink:href="../../d8/d9d/brightness_8cpp.xhtml" target="_top" xlink:title=" ">
<polygon fill="white" stroke="#666666" points="1110,-129 1022,-129 1022,-110 1110,-110 1110,-129"/>
<text text-anchor="middle" x="1066" y="-117" font-family="Helvetica,sans-Serif" font-size="10.00">brightness.cpp</text>
</a>
</g>
</g>
<!-- Node18&#45;&gt;Node19 -->
<g id="edge22_Node000018_Node000019" class="edge">
<title>Node18&#45;&gt;Node19</title>
<g id="a_edge22_Node000018_Node000019"><a xlink:title=" ">
<path fill="none" stroke="#63b8ff" d="M1033.42,-157.24C1041.66,-147.95 1051.65,-136.68 1058.38,-129.09"/>
<polygon fill="#63b8ff" stroke="#63b8ff" points="1030.78,-154.94 1026.76,-164.75 1036.01,-159.59 1030.78,-154.94"/>
</a>
</g>
</g>
<!-- Node20&#45;&gt;Node9 -->
<g id="edge26_Node000020_Node000009" class="edge">
<title>Node20&#45;&gt;Node9</title>
<g id="a_edge26_Node000020_Node000009"><a xlink:title=" ">
<path fill="none" stroke="#63b8ff" d="M363.75,-184.07C437.48,-195.06 558.82,-213.8 615.79,-223.03"/>
<polygon fill="#63b8ff" stroke="#63b8ff" points="364.08,-180.58 353.67,-182.57 363.05,-187.5 364.08,-180.58"/>
</a>
</g>
</g>
<!-- Node21 -->
<g id="Node000021" class="node">
<title>Node21</title>
<g id="a_Node000021"><a xlink:href="../../df/d22/configuration_8cpp.xhtml" target="_top" xlink:title=" ">
<polygon fill="white" stroke="#666666" points="347.5,-129 246.5,-129 246.5,-110 347.5,-110 347.5,-129"/>
<text text-anchor="middle" x="297" y="-117" font-family="Helvetica,sans-Serif" font-size="10.00">configuration.cpp</text>
</a>
</g>
</g>
<!-- Node20&#45;&gt;Node21 -->
<g id="edge25_Node000020_Node000021" class="edge">
<title>Node20&#45;&gt;Node21</title>
<g id="a_edge25_Node000020_Node000021"><a xlink:title=" ">
<path fill="none" stroke="#63b8ff" d="M300.87,-154.66C299.88,-145.93 298.75,-135.99 297.97,-129.09"/>
<polygon fill="#63b8ff" stroke="#63b8ff" points="297.41,-155.21 302.01,-164.75 304.36,-154.42 297.41,-155.21"/>
</a>
</g>
</g>
<!-- Node22&#45;&gt;Node9 -->
<g id="edge29_Node000022_Node000009" class="edge">
<title>Node22&#45;&gt;Node9</title>
<g id="a_edge29_Node000022_Node000009"><a xlink:title=" ">
<path fill="none" stroke="#63b8ff" d="M462.77,-185.72C509.35,-195.81 576.7,-211.03 615.83,-220.33"/>
<polygon fill="#63b8ff" stroke="#63b8ff" points="463.39,-182.27 452.88,-183.59 461.92,-189.12 463.39,-182.27"/>
</a>
</g>
</g>
<!-- Node23 -->
<g id="Node000023" class="node">
<title>Node23</title>
<g id="a_Node000023"><a xlink:href="../../d9/ddd/economy_8cpp.xhtml" target="_top" xlink:title=" ">
<polygon fill="white" stroke="#666666" points="446,-129 366,-129 366,-110 446,-110 446,-129"/>
<text text-anchor="middle" x="406" y="-117" font-family="Helvetica,sans-Serif" font-size="10.00">economy.cpp</text>
</a>
</g>
</g>
<!-- Node22&#45;&gt;Node23 -->
<g id="edge28_Node000022_Node000023" class="edge">
<title>Node22&#45;&gt;Node23</title>
<g id="a_edge28_Node000022_Node000023"><a xlink:title=" ">
<path fill="none" stroke="#63b8ff" d="M409.87,-154.66C408.88,-145.93 407.75,-135.99 406.97,-129.09"/>
<polygon fill="#63b8ff" stroke="#63b8ff" points="406.41,-155.21 411.01,-164.75 413.36,-154.42 406.41,-155.21"/>
</a>
</g>
</g>
<!-- Node25 -->
<g id="Node000025" class="node">
<title>Node25</title>
<g id="a_Node000025"><a xlink:href="../../d2/de2/interpreter_8cpp.xhtml" target="_top" xlink:title=" ">
<polygon fill="white" stroke="#666666" points="636,-129 548,-129 548,-110 636,-110 636,-129"/>
<text text-anchor="middle" x="592" y="-117" font-family="Helvetica,sans-Serif" font-size="10.00">interpreter.cpp</text>
</a>
</g>
</g>
<!-- Node24&#45;&gt;Node25 -->
<g id="edge32_Node000024_Node000025" class="edge">
<title>Node24&#45;&gt;Node25</title>
<g id="a_edge32_Node000024_Node000025"><a xlink:title=" ">
<path fill="none" stroke="#63b8ff" d="M566.27,-156.39C572.81,-147.27 580.57,-136.45 585.84,-129.09"/>
<polygon fill="#63b8ff" stroke="#63b8ff" points="563.26,-154.58 560.27,-164.75 568.95,-158.66 563.26,-154.58"/>
</a>
</g>
</g>
<!-- Node24&#45;&gt;Node26 -->
<g id="edge33_Node000024_Node000026" class="edge">
<title>Node24&#45;&gt;Node26</title>
<g id="a_edge33_Node000024_Node000026"><a xlink:title=" ">
<path fill="none" stroke="#63b8ff" d="M537.38,-158.04C527.27,-148.64 514.72,-136.98 506.32,-129.17"/>
<polygon fill="#63b8ff" stroke="#63b8ff" points="535.14,-160.74 544.84,-164.98 539.9,-155.61 535.14,-160.74"/>
</a>
</g>
</g>
<!-- Node26&#45;&gt;Node4 -->
<g id="edge34_Node000026_Node000004" class="edge">
<title>Node26&#45;&gt;Node4</title>
<g id="a_edge34_Node000026_Node000004"><a xlink:title=" ">
<path fill="none" stroke="#63b8ff" d="M454.34,-128.7C366.65,-138.08 174.03,-112.53 127,-165 121.36,-171.29 121.94,-177.24 127,-184 160.85,-229.28 198.11,-195.38 249,-220 287.19,-238.47 307.48,-237.34 327,-275 346.72,-313.03 315.74,-364.39 301.53,-384.71"/>
<polygon fill="#63b8ff" stroke="#63b8ff" points="455.03,-132.14 464.49,-127.38 454.12,-125.2 455.03,-132.14"/>
</a>
</g>
</g>
<!-- Node26&#45;&gt;Node12 -->
<g id="edge35_Node000026_Node000012" class="edge">
<title>Node26&#45;&gt;Node12</title>
<g id="a_edge35_Node000026_Node000012"><a xlink:title=" ">
<path fill="none" stroke="#63b8ff" d="M535,-107.06C567.9,-97.15 614.74,-83.04 644.5,-74.08"/>
<polygon fill="#63b8ff" stroke="#63b8ff" points="533.84,-103.75 525.28,-109.98 535.86,-110.45 533.84,-103.75"/>
</a>
</g>
</g>
<!-- Node27 -->
<g id="Node000027" class="node">
<title>Node27</title>
<g id="a_Node000027"><a xlink:href="../../de/d25/serial_8cpp.xhtml" target="_top" xlink:title=" ">
<polygon fill="white" stroke="#666666" points="529,-74 465,-74 465,-55 529,-55 529,-74"/>
<text text-anchor="middle" x="497" y="-62" font-family="Helvetica,sans-Serif" font-size="10.00">serial.cpp</text>
</a>
</g>
</g>
<!-- Node26&#45;&gt;Node27 -->
<g id="edge36_Node000026_Node000027" class="edge">
<title>Node26&#45;&gt;Node27</title>
<g id="a_edge36_Node000026_Node000027"><a xlink:title=" ">
<path fill="none" stroke="#63b8ff" d="M497,-99.66C497,-90.93 497,-80.99 497,-74.09"/>
<polygon fill="#63b8ff" stroke="#63b8ff" points="493.5,-99.75 497,-109.75 500.5,-99.75 493.5,-99.75"/>
</a>
</g>
</g>
<!-- Node29&#45;&gt;Node3 -->
<g id="edge43_Node000029_Node000003" class="edge">
<title>Node29&#45;&gt;Node3</title>
<g id="a_edge43_Node000029_Node000003"><a xlink:title=" ">
<path fill="none" stroke="#63b8ff" d="M1187.66,-194.16C1184.11,-215.64 1179,-252 1179,-283.5 1179,-340.5 1179,-340.5 1179,-340.5 1179,-439.23 805.2,-448.02 700.79,-448.55"/>
<polygon fill="#63b8ff" stroke="#63b8ff" points="1191.13,-194.59 1189.38,-184.14 1184.24,-193.4 1191.13,-194.59"/>
</a>
</g>
</g>
<!-- Node29&#45;&gt;Node9 -->
<g id="edge44_Node000029_Node000009" class="edge">
<title>Node29&#45;&gt;Node9</title>
<g id="a_edge44_Node000029_Node000009"><a xlink:title=" ">
<path fill="none" stroke="#63b8ff" d="M1148.33,-180.67C1137.48,-181.78 1125.85,-182.93 1115,-184 950.87,-200.16 753.67,-219.13 678.22,-225.92"/>
<polygon fill="#63b8ff" stroke="#63b8ff" points="1148.85,-184.14 1158.44,-179.63 1148.14,-177.17 1148.85,-184.14"/>
</a>
</g>
</g>
<!-- Node30 -->
<g id="Node000030" class="node">
<title>Node30</title>
<g id="a_Node000030"><a xlink:href="../../df/d0a/buttons_8hpp.xhtml" target="_top" xlink:title=" ">
<polygon fill="white" stroke="#666666" points="1202,-129 1128,-129 1128,-110 1202,-110 1202,-129"/>
<text text-anchor="middle" x="1165" y="-117" font-family="Helvetica,sans-Serif" font-size="10.00">buttons.hpp</text>
</a>
</g>
</g>
<!-- Node29&#45;&gt;Node30 -->
<g id="edge40_Node000029_Node000030" class="edge">
<title>Node29&#45;&gt;Node30</title>
<g id="a_edge40_Node000029_Node000030"><a xlink:title=" ">
<path fill="none" stroke="#63b8ff" d="M1182.18,-155.53C1177.8,-146.6 1172.71,-136.22 1169.21,-129.09"/>
<polygon fill="#63b8ff" stroke="#63b8ff" points="1179.16,-157.31 1186.71,-164.75 1185.44,-154.23 1179.16,-157.31"/>
</a>
</g>
</g>
<!-- Node32 -->
<g id="Node000032" class="node">
<title>Node32</title>
<g id="a_Node000032"><a xlink:href="../../d9/d88/mode_8cpp.xhtml" target="_top" xlink:title=" ">
<polygon fill="white" stroke="#666666" points="1285.5,-129 1220.5,-129 1220.5,-110 1285.5,-110 1285.5,-129"/>
<text text-anchor="middle" x="1253" y="-117" font-family="Helvetica,sans-Serif" font-size="10.00">mode.cpp</text>
</a>
</g>
</g>
<!-- Node29&#45;&gt;Node32 -->
<g id="edge45_Node000029_Node000032" class="edge">
<title>Node29&#45;&gt;Node32</title>
<g id="a_edge45_Node000029_Node000032"><a xlink:title=" ">
<path fill="none" stroke="#63b8ff" d="M1208.75,-158.32C1219.81,-148.87 1233.63,-137.06 1242.86,-129.17"/>
<polygon fill="#63b8ff" stroke="#63b8ff" points="1206.29,-155.83 1200.96,-164.98 1210.84,-161.15 1206.29,-155.83"/>
</a>
</g>
</g>
<!-- Node30&#45;&gt;Node9 -->
<g id="edge42_Node000030_Node000009" class="edge">
<title>Node30&#45;&gt;Node9</title>
<g id="a_edge42_Node000030_Node000009"><a xlink:title=" ">
<path fill="none" stroke="#63b8ff" d="M1148.13,-136.09C1130.73,-151.16 1102.1,-173.24 1073,-184 1000.29,-210.88 763.44,-223.49 678.05,-227.25"/>
<polygon fill="#63b8ff" stroke="#63b8ff" points="1150.57,-138.6 1155.72,-129.34 1145.92,-133.37 1150.57,-138.6"/>
</a>
</g>
</g>
<!-- Node31 -->
<g id="Node000031" class="node">
<title>Node31</title>
<g id="a_Node000031"><a xlink:href="../../d9/d52/buttons_8cpp.xhtml" target="_top" xlink:title=" ">
<polygon fill="white" stroke="#666666" points="1202,-74 1128,-74 1128,-55 1202,-55 1202,-74"/>
<text text-anchor="middle" x="1165" y="-62" font-family="Helvetica,sans-Serif" font-size="10.00">buttons.cpp</text>
</a>
</g>
</g>
<!-- Node30&#45;&gt;Node31 -->
<g id="edge41_Node000030_Node000031" class="edge">
<title>Node30&#45;&gt;Node31</title>
<g id="a_edge41_Node000030_Node000031"><a xlink:title=" ">
<path fill="none" stroke="#63b8ff" d="M1165,-99.66C1165,-90.93 1165,-80.99 1165,-74.09"/>
<polygon fill="#63b8ff" stroke="#63b8ff" points="1161.5,-99.75 1165,-109.75 1168.5,-99.75 1161.5,-99.75"/>
</a>
</g>
</g>
<!-- Node33&#45;&gt;Node9 -->
<g id="edge47_Node000033_Node000009" class="edge">
<title>Node33&#45;&gt;Node9</title>
<g id="a_edge47_Node000033_Node000009"><a xlink:title=" ">
<path fill="none" stroke="#63b8ff" d="M90.31,-179.69C105.13,-181.1 121.27,-182.65 136,-184 318.04,-200.68 536.11,-218.71 615.96,-225.6"/>
<polygon fill="#63b8ff" stroke="#63b8ff" points="90.58,-176.2 80.29,-178.74 89.92,-183.17 90.58,-176.2"/>
</a>
</g>
</g>
<!-- Node34 -->
<g id="Node000034" class="node">
<title>Node34</title>
<g id="a_Node000034"><a xlink:href="../../d8/ddf/pressure_8cpp.xhtml" target="_top" xlink:title=" ">
<polygon fill="white" stroke="#666666" points="79.5,-129 0.5,-129 0.5,-110 79.5,-110 79.5,-129"/>
<text text-anchor="middle" x="40" y="-117" font-family="Helvetica,sans-Serif" font-size="10.00">pressure.cpp</text>
</a>
</g>
</g>
<!-- Node33&#45;&gt;Node34 -->
<g id="edge48_Node000033_Node000034" class="edge">
<title>Node33&#45;&gt;Node34</title>
<g id="a_edge48_Node000033_Node000034"><a xlink:title=" ">
<path fill="none" stroke="#63b8ff" d="M40,-154.66C40,-145.93 40,-135.99 40,-129.09"/>
<polygon fill="#63b8ff" stroke="#63b8ff" points="36.5,-154.75 40,-164.75 43.5,-154.75 36.5,-154.75"/>
</a>
</g>
</g>
<!-- Node35&#45;&gt;Node9 -->
<g id="edge53_Node000035_Node000009" class="edge">
<title>Node35&#45;&gt;Node9</title>
<g id="a_edge53_Node000035_Node000009"><a xlink:title=" ">
<path fill="none" stroke="#63b8ff" d="M244.29,-182.86C247.25,-183.26 250.16,-183.64 253,-184 388.12,-201.19 549.22,-217.82 615.94,-224.91"/>
<polygon fill="#63b8ff" stroke="#63b8ff" points="244.55,-179.36 234.17,-181.48 243.61,-186.3 244.55,-179.36"/>
</a>
</g>
</g>
<!-- Node36 -->
<g id="Node000036" class="node">
<title>Node36</title>
<g id="a_Node000036"><a xlink:href="../../d0/d3d/temperature_8cpp.xhtml" target="_top" xlink:title=" ">
<polygon fill="white" stroke="#666666" points="228,-129 130,-129 130,-110 228,-110 228,-129"/>
<text text-anchor="middle" x="179" y="-117" font-family="Helvetica,sans-Serif" font-size="10.00">temperature.cpp</text>
</a>
</g>
</g>
<!-- Node35&#45;&gt;Node36 -->
<g id="edge54_Node000035_Node000036" class="edge">
<title>Node35&#45;&gt;Node36</title>
<g id="a_edge54_Node000035_Node000036"><a xlink:title=" ">
<path fill="none" stroke="#63b8ff" d="M182.87,-154.66C181.88,-145.93 180.75,-135.99 179.97,-129.09"/>
<polygon fill="#63b8ff" stroke="#63b8ff" points="179.41,-155.21 184.01,-164.75 186.36,-154.42 179.41,-155.21"/>
</a>
</g>
</g>
<!-- Node39 -->
<g id="Node000039" class="node">
<title>Node39</title>
<g id="a_Node000039"><a xlink:href="../../dc/d3d/gps_8cpp.xhtml" target="_top" xlink:title=" ">
<polygon fill="white" stroke="#666666" points="66,-294 12,-294 12,-275 66,-275 66,-294"/>
<text text-anchor="middle" x="39" y="-282" font-family="Helvetica,sans-Serif" font-size="10.00">gps.cpp</text>
</a>
</g>
</g>
<!-- Node38&#45;&gt;Node39 -->
<g id="edge59_Node000038_Node000039" class="edge">
<title>Node38&#45;&gt;Node39</title>
<g id="a_edge59_Node000038_Node000039"><a xlink:title=" ">
<path fill="none" stroke="#63b8ff" d="M138.73,-326.16C114.66,-316.35 81.6,-302.87 60.27,-294.17"/>
<polygon fill="#63b8ff" stroke="#63b8ff" points="137.53,-329.45 148.11,-329.98 140.17,-322.97 137.53,-329.45"/>
</a>
</g>
</g>
</g>
</svg>

<g id="navigator" transform="translate(0 0)" fill="#404254">
  <rect fill="#f2f5e9" fill-opacity="0.5" stroke="#606060" stroke-width=".5" x="0" y="0" width="60" height="60"/>
  <use id="zoomplus" xlink:href="#zoomPlus" x="17" y="9" onmousedown="handleZoom(evt,'in')"/>
  <use id="zoomminus" xlink:href="#zoomMin" x="42" y="9" onmousedown="handleZoom(evt,'out')"/>
  <use id="reset" xlink:href="#resetDef" x="30" y="36" onmousedown="handleReset()"/>
   <use id="arrowup" xlink:href="#arrowUp" x="0" y="0" onmousedown="handlePan(0,-1)"/>
  <use id="arrowright" xlink:href="#arrowRight" x="0" y="0" onmousedown="handlePan(1,0)"/>
  <use id="arrowdown" xlink:href="#arrowDown" x="0" y="0" onmousedown="handlePan(0,1)"/>
  <use id="arrowleft" xlink:href="#arrowLeft" x="0" y="0" onmousedown="handlePan(-1,0)"/>
</g>
<svg viewBox="0 0 15 15" width="100%" height="30px" preserveAspectRatio="xMaxYMin meet">
 <g id="arrow_out" transform="scale(0.3 0.3)">
  <a xlink:href="ChainableLED_8h__dep__incl_org.svg" target="_base">
   <rect id="button" ry="5" rx="5" y="6" x="6" height="38" width="38"
        fill="#f2f5e9" fill-opacity="0.5" stroke="#606060" stroke-width="1.0"/>
   <path id="arrow"
     d="M 11.500037,31.436501 C 11.940474,20.09759 22.043105,11.32322 32.158766,21.979434 L 37.068811,17.246167 C 37.068811,17.246167 37.088388,32 37.088388,32 L 22.160133,31.978069 C 22.160133,31.978069 26.997745,27.140456 26.997745,27.140456 C 18.528582,18.264221 13.291696,25.230495 11.500037,31.436501 z"
     style="fill:#404040;"/>
  </a>
 </g>
</svg>

<style type='text/css'>
<![CDATA[
[data-mouse-over-selected='false'] { opacity: 0.7; }
[data-mouse-over-selected='true']  { opacity: 1.0; }
]]>
</style>
<script type="application/ecmascript"><![CDATA[
document.addEventListener('DOMContentLoaded', (event) => {
  highlightEdges();
  highlightAdjacentNodes();
});
]]></script>
</svg>
