<?xml version="1.0" encoding="UTF-8" standalone="no"?>
<!DOCTYPE svg PUBLIC "-//W3C//DTD SVG 1.1//EN"
 "http://www.w3.org/Graphics/SVG/1.1/DTD/svg11.dtd">
<!-- Generated by graphviz version 2.43.0 (0)
 -->
<!-- Title: Tiny_BME280_Pressure::getEvent Pages: 1 -->
<svg width="692pt" height="83pt"
 viewBox="0.00 0.00 692.00 83.00" xmlns="http://www.w3.org/2000/svg" xmlns:xlink="http://www.w3.org/1999/xlink">
<g id="graph0" class="graph" transform="scale(1 1) rotate(0) translate(4 79)">
<title>Tiny_BME280_Pressure::getEvent</title>
<!-- Node1 -->
<g id="Node000001" class="node">
<title>Node1</title>
<g id="a_Node000001"><a xlink:title="Gets the pressure as a standard sensor event.">
<polygon fill="#999999" stroke="#666666" points="130,-61.5 0,-61.5 0,-31.5 130,-31.5 130,-61.5"/>
<text text-anchor="start" x="8" y="-49.5" font-family="Helvetica,sans-Serif" font-size="10.00">Tiny_BME280_Pressure</text>
<text text-anchor="middle" x="65" y="-38.5" font-family="Helvetica,sans-Serif" font-size="10.00">::getEvent</text>
</a>
</g>
</g>
<!-- Node2 -->
<g id="Node000002" class="node">
<title>Node2</title>
<g id="a_Node000002"><a xlink:href="../../d5/df3/wiring_8c_a6ff7f2532a22366f0013bc41397129fd.xhtml#a6ff7f2532a22366f0013bc41397129fd" target="_top" xlink:title=" ">
<polygon fill="white" stroke="#666666" points="264,-75 220,-75 220,-56 264,-56 264,-75"/>
<text text-anchor="middle" x="242" y="-63" font-family="Helvetica,sans-Serif" font-size="10.00">millis</text>
</a>
</g>
</g>
<!-- Node1&#45;&gt;Node2 -->
<g id="edge1_Node000001_Node000002" class="edge">
<title>Node1&#45;&gt;Node2</title>
<g id="a_edge1_Node000001_Node000002"><a xlink:title=" ">
<path fill="none" stroke="#63b8ff" d="M130.17,-53.47C157.33,-56.42 187.73,-59.72 209.81,-62.11"/>
<polygon fill="#63b8ff" stroke="#63b8ff" points="209.61,-65.61 219.93,-63.21 210.37,-58.65 209.61,-65.61"/>
</a>
</g>
</g>
<!-- Node3 -->
<g id="Node000003" class="node">
<title>Node3</title>
<g id="a_Node000003"><a xlink:href="../../d4/d1b/classTiny__BME280_a6d9bd7e6e3ec84d4dbaaf4fd0292344f.xhtml#a6d9bd7e6e3ec84d4dbaaf4fd0292344f" target="_top" xlink:title="Returns the pressure from the sensor.">
<polygon fill="white" stroke="#666666" points="318,-38 166,-38 166,-19 318,-19 318,-38"/>
<text text-anchor="middle" x="242" y="-26" font-family="Helvetica,sans-Serif" font-size="10.00">Tiny_BME280::readPressure</text>
</a>
</g>
</g>
<!-- Node1&#45;&gt;Node3 -->
<g id="edge2_Node000001_Node000003" class="edge">
<title>Node1&#45;&gt;Node3</title>
<g id="a_edge2_Node000001_Node000003"><a xlink:title=" ">
<path fill="none" stroke="#63b8ff" d="M130.17,-39.9C138.51,-39.04 147.16,-38.15 155.78,-37.27"/>
<polygon fill="#63b8ff" stroke="#63b8ff" points="156.28,-40.73 165.87,-36.23 155.56,-33.77 156.28,-40.73"/>
</a>
</g>
</g>
<!-- Node4 -->
<g id="Node000004" class="node">
<title>Node4</title>
<g id="a_Node000004"><a xlink:href="../../d4/d1b/classTiny__BME280_ab2b70e2d8fb9580e63f5c4288e041a42.xhtml#ab2b70e2d8fb9580e63f5c4288e041a42" target="_top" xlink:title="Reads a 24 bit value over I2C.">
<polygon fill="white" stroke="#666666" points="684,-38 562,-38 562,-19 684,-19 684,-38"/>
<text text-anchor="middle" x="623" y="-26" font-family="Helvetica,sans-Serif" font-size="10.00">Tiny_BME280::read24</text>
</a>
</g>
</g>
<!-- Node3&#45;&gt;Node4 -->
<g id="edge3_Node000003_Node000004" class="edge">
<title>Node3&#45;&gt;Node4</title>
<g id="a_edge3_Node000003_Node000004"><a xlink:title=" ">
<path fill="none" stroke="#63b8ff" d="M318.33,-28.5C386.16,-28.5 485.09,-28.5 551.42,-28.5"/>
<polygon fill="#63b8ff" stroke="#63b8ff" points="551.77,-32 561.77,-28.5 551.77,-25 551.77,-32"/>
</a>
</g>
</g>
<!-- Node5 -->
<g id="Node000005" class="node">
<title>Node5</title>
<g id="a_Node000005"><a xlink:href="../../d4/d1b/classTiny__BME280_a106df67231caaea5cf96824d908efff0.xhtml#a106df67231caaea5cf96824d908efff0" target="_top" xlink:title="Returns the temperature from the sensor.">
<polygon fill="white" stroke="#666666" points="526,-19 354,-19 354,0 526,0 526,-19"/>
<text text-anchor="middle" x="440" y="-7" font-family="Helvetica,sans-Serif" font-size="10.00">Tiny_BME280::readTemperature</text>
</a>
</g>
</g>
<!-- Node3&#45;&gt;Node5 -->
<g id="edge4_Node000003_Node000005" class="edge">
<title>Node3&#45;&gt;Node5</title>
<g id="a_edge4_Node000003_Node000005"><a xlink:title=" ">
<path fill="none" stroke="#63b8ff" d="M318.22,-21.21C326.6,-20.4 335.21,-19.56 343.8,-18.73"/>
<polygon fill="#63b8ff" stroke="#63b8ff" points="344.24,-22.2 353.85,-17.75 343.56,-15.24 344.24,-22.2"/>
</a>
</g>
</g>
<!-- Node5&#45;&gt;Node4 -->
<g id="edge5_Node000005_Node000004" class="edge">
<title>Node5&#45;&gt;Node4</title>
<g id="a_edge5_Node000005_Node000004"><a xlink:title=" ">
<path fill="none" stroke="#63b8ff" d="M526.2,-18.44C534.74,-19.34 543.34,-20.24 551.7,-21.12"/>
<polygon fill="#63b8ff" stroke="#63b8ff" points="551.45,-24.61 561.76,-22.18 552.18,-17.65 551.45,-24.61"/>
</a>
</g>
</g>
</g>
</svg>
