<?xml version="1.0" encoding="UTF-8" standalone="no"?>
<!DOCTYPE svg PUBLIC "-//W3C//DTD SVG 1.1//EN"
 "http://www.w3.org/Graphics/SVG/1.1/DTD/svg11.dtd">
<!-- Generated by graphviz version 2.43.0 (0)
 -->
<!-- Title: FsUtf::cpToMb Pages: 1 -->
<svg width="811pt" height="185pt"
 viewBox="0.00 0.00 811.00 185.00" xmlns="http://www.w3.org/2000/svg" xmlns:xlink="http://www.w3.org/1999/xlink">
<g id="graph0" class="graph" transform="scale(1 1) rotate(0) translate(4 181)">
<title>FsUtf::cpToMb</title>
<!-- Node1 -->
<g id="Node000001" class="node">
<title>Node1</title>
<g id="a_Node000001"><a xlink:title=" ">
<polygon fill="#999999" stroke="#666666" points="803,-121 718,-121 718,-102 803,-102 803,-121"/>
<text text-anchor="middle" x="760.5" y="-109" font-family="Helvetica,sans-Serif" font-size="10.00">FsUtf::cpToMb</text>
</a>
</g>
</g>
<!-- Node2 -->
<g id="Node000002" class="node">
<title>Node2</title>
<g id="a_Node000002"><a xlink:href="../../d6/d7f/classExFatFile.xhtml#ab25875a3e7752f597393825c6dfe0075" target="_top" xlink:title=" ">
<polygon fill="white" stroke="#666666" points="678.5,-177 561.5,-177 561.5,-158 678.5,-158 678.5,-177"/>
<text text-anchor="middle" x="620" y="-165" font-family="Helvetica,sans-Serif" font-size="10.00">ExFatFile::getName8</text>
</a>
</g>
</g>
<!-- Node1&#45;&gt;Node2 -->
<g id="edge1_Node000001_Node000002" class="edge">
<title>Node1&#45;&gt;Node2</title>
<g id="a_edge1_Node000001_Node000002"><a xlink:title=" ">
<path fill="none" stroke="#63b8ff" d="M732.99,-125.88C718.25,-133.53 699.41,-142.72 682,-149.5 674.08,-152.59 665.4,-155.44 657.14,-157.93"/>
<polygon fill="#63b8ff" stroke="#63b8ff" points="734.81,-128.88 742.03,-121.13 731.55,-122.69 734.81,-128.88"/>
</a>
</g>
</g>
<!-- Node5 -->
<g id="Node000005" class="node">
<title>Node5</title>
<g id="a_Node000005"><a xlink:href="../../d3/db4/classFatFile.xhtml#a2369692e7bc19a68ac106fd7499a2910" target="_top" xlink:title=" ">
<polygon fill="white" stroke="#666666" points="672.5,-140 567.5,-140 567.5,-121 672.5,-121 672.5,-140"/>
<text text-anchor="middle" x="620" y="-128" font-family="Helvetica,sans-Serif" font-size="10.00">FatFile::getName8</text>
</a>
</g>
</g>
<!-- Node1&#45;&gt;Node5 -->
<g id="edge4_Node000001_Node000005" class="edge">
<title>Node1&#45;&gt;Node5</title>
<g id="a_edge4_Node000001_Node000005"><a xlink:title=" ">
<path fill="none" stroke="#63b8ff" d="M708,-118.57C696.43,-120.15 684.15,-121.84 672.58,-123.42"/>
<polygon fill="#63b8ff" stroke="#63b8ff" points="708.51,-122.03 717.95,-117.2 707.56,-115.09 708.51,-122.03"/>
</a>
</g>
</g>
<!-- Node7 -->
<g id="Node000007" class="node">
<title>Node7</title>
<g id="a_Node000007"><a xlink:href="../../d6/d7f/classExFatFile.xhtml#a5f46ba9982e0aed9697d8ead1aac3fff" target="_top" xlink:title=" ">
<polygon fill="white" stroke="#666666" points="682,-103 558,-103 558,-84 682,-84 682,-103"/>
<text text-anchor="middle" x="620" y="-91" font-family="Helvetica,sans-Serif" font-size="10.00">ExFatFile::printName8</text>
</a>
</g>
</g>
<!-- Node1&#45;&gt;Node7 -->
<g id="edge7_Node000001_Node000007" class="edge">
<title>Node1&#45;&gt;Node7</title>
<g id="a_edge7_Node000001_Node000007"><a xlink:title=" ">
<path fill="none" stroke="#63b8ff" d="M707.95,-104.8C699.57,-103.71 690.82,-102.57 682.24,-101.46"/>
<polygon fill="#63b8ff" stroke="#63b8ff" points="707.58,-108.28 717.95,-106.1 708.48,-101.34 707.58,-108.28"/>
</a>
</g>
</g>
<!-- Node13 -->
<g id="Node000013" class="node">
<title>Node13</title>
<g id="a_Node000013"><a xlink:href="../../d3/db4/classFatFile.xhtml#a508c86ed62a34a920574dd270dc64322" target="_top" xlink:title=" ">
<polygon fill="white" stroke="#666666" points="676,-66 564,-66 564,-47 676,-47 676,-66"/>
<text text-anchor="middle" x="620" y="-54" font-family="Helvetica,sans-Serif" font-size="10.00">FatFile::printName8</text>
</a>
</g>
</g>
<!-- Node1&#45;&gt;Node13 -->
<g id="edge14_Node000001_Node000013" class="edge">
<title>Node1&#45;&gt;Node13</title>
<g id="a_edge14_Node000001_Node000013"><a xlink:title=" ">
<path fill="none" stroke="#63b8ff" d="M731.69,-97.49C717.1,-90.42 698.8,-81.99 682,-75.5 673.2,-72.1 663.52,-68.87 654.52,-66.06"/>
<polygon fill="#63b8ff" stroke="#63b8ff" points="730.18,-100.64 740.69,-101.91 733.26,-94.36 730.18,-100.64"/>
</a>
</g>
</g>
<!-- Node3 -->
<g id="Node000003" class="node">
<title>Node3</title>
<g id="a_Node000003"><a xlink:href="../../d6/d7f/classExFatFile.xhtml#a21881cab4d01235c97aa591e12485998" target="_top" xlink:title=" ">
<polygon fill="white" stroke="#666666" points="518.5,-177 407.5,-177 407.5,-158 518.5,-158 518.5,-177"/>
<text text-anchor="middle" x="463" y="-165" font-family="Helvetica,sans-Serif" font-size="10.00">ExFatFile::getName</text>
</a>
</g>
</g>
<!-- Node2&#45;&gt;Node3 -->
<g id="edge2_Node000002_Node000003" class="edge">
<title>Node2&#45;&gt;Node3</title>
<g id="a_edge2_Node000002_Node000003"><a xlink:title=" ">
<path fill="none" stroke="#63b8ff" d="M551.02,-167.5C540.2,-167.5 529.14,-167.5 518.68,-167.5"/>
<polygon fill="#63b8ff" stroke="#63b8ff" points="551.28,-171 561.28,-167.5 551.28,-164 551.28,-171"/>
</a>
</g>
</g>
<!-- Node4 -->
<g id="Node000004" class="node">
<title>Node4</title>
<g id="a_Node000004"><a xlink:href="../../d0/db5/classFsBaseFile.xhtml#ad2099dbe6bb8f61e1bf933d8e97b2d86" target="_top" xlink:title=" ">
<polygon fill="white" stroke="#666666" points="368,-177 248,-177 248,-158 368,-158 368,-177"/>
<text text-anchor="middle" x="308" y="-165" font-family="Helvetica,sans-Serif" font-size="10.00">FsBaseFile::getName</text>
</a>
</g>
</g>
<!-- Node3&#45;&gt;Node4 -->
<g id="edge3_Node000003_Node000004" class="edge">
<title>Node3&#45;&gt;Node4</title>
<g id="a_edge3_Node000003_Node000004"><a xlink:title=" ">
<path fill="none" stroke="#63b8ff" d="M396.93,-167.5C387.35,-167.5 377.53,-167.5 368.08,-167.5"/>
<polygon fill="#63b8ff" stroke="#63b8ff" points="397.2,-171 407.2,-167.5 397.2,-164 397.2,-171"/>
</a>
</g>
</g>
<!-- Node6 -->
<g id="Node000006" class="node">
<title>Node6</title>
<g id="a_Node000006"><a xlink:href="../../d3/db4/classFatFile.xhtml#a0313d518970d1438d5cad721720cc109" target="_top" xlink:title=" ">
<polygon fill="white" stroke="#666666" points="512.5,-140 413.5,-140 413.5,-121 512.5,-121 512.5,-140"/>
<text text-anchor="middle" x="463" y="-128" font-family="Helvetica,sans-Serif" font-size="10.00">FatFile::getName</text>
</a>
</g>
</g>
<!-- Node5&#45;&gt;Node6 -->
<g id="edge5_Node000005_Node000006" class="edge">
<title>Node5&#45;&gt;Node6</title>
<g id="a_edge5_Node000005_Node000006"><a xlink:title=" ">
<path fill="none" stroke="#63b8ff" d="M557.24,-130.5C542.37,-130.5 526.68,-130.5 512.5,-130.5"/>
<polygon fill="#63b8ff" stroke="#63b8ff" points="557.39,-134 567.39,-130.5 557.39,-127 557.39,-134"/>
</a>
</g>
</g>
<!-- Node6&#45;&gt;Node4 -->
<g id="edge6_Node000006_Node000004" class="edge">
<title>Node6&#45;&gt;Node4</title>
<g id="a_edge6_Node000006_Node000004"><a xlink:title=" ">
<path fill="none" stroke="#63b8ff" d="M412.69,-142.43C391.93,-147.44 368.11,-153.21 348.53,-157.94"/>
<polygon fill="#63b8ff" stroke="#63b8ff" points="413.7,-145.78 422.6,-140.03 412.06,-138.98 413.7,-145.78"/>
</a>
</g>
</g>
<!-- Node8 -->
<g id="Node000008" class="node">
<title>Node8</title>
<g id="a_Node000008"><a xlink:href="../../d6/d7f/classExFatFile.xhtml#a095c0a865e5e5b6463c3dc0c90680635" target="_top" xlink:title=" ">
<polygon fill="white" stroke="#666666" points="522,-103 404,-103 404,-84 522,-84 522,-103"/>
<text text-anchor="middle" x="463" y="-91" font-family="Helvetica,sans-Serif" font-size="10.00">ExFatFile::printName</text>
</a>
</g>
</g>
<!-- Node7&#45;&gt;Node8 -->
<g id="edge8_Node000007_Node000008" class="edge">
<title>Node7&#45;&gt;Node8</title>
<g id="a_edge8_Node000007_Node000008"><a xlink:title=" ">
<path fill="none" stroke="#63b8ff" d="M547.72,-93.5C539.12,-93.5 530.41,-93.5 522.04,-93.5"/>
<polygon fill="#63b8ff" stroke="#63b8ff" points="547.74,-97 557.74,-93.5 547.74,-90 547.74,-97"/>
</a>
</g>
</g>
<!-- Node9 -->
<g id="Node000009" class="node">
<title>Node9</title>
<g id="a_Node000009"><a xlink:href="../../d6/d7f/classExFatFile.xhtml#aa0e074c891f3db5ea2ebd491667b03a6" target="_top" xlink:title=" ">
<polygon fill="white" stroke="#666666" points="345,-140 271,-140 271,-121 345,-121 345,-140"/>
<text text-anchor="middle" x="308" y="-128" font-family="Helvetica,sans-Serif" font-size="10.00">ExFatFile::ls</text>
</a>
</g>
</g>
<!-- Node8&#45;&gt;Node9 -->
<g id="edge9_Node000008_Node000009" class="edge">
<title>Node8&#45;&gt;Node9</title>
<g id="a_edge9_Node000008_Node000009"><a xlink:title=" ">
<path fill="none" stroke="#63b8ff" d="M412.77,-105.41C390.77,-110.73 365.32,-116.88 345.12,-121.76"/>
<polygon fill="#63b8ff" stroke="#63b8ff" points="413.7,-108.78 422.6,-103.03 412.06,-101.98 413.7,-108.78"/>
</a>
</g>
</g>
<!-- Node11 -->
<g id="Node000011" class="node">
<title>Node11</title>
<g id="a_Node000011"><a xlink:href="../../d6/d7f/classExFatFile.xhtml#a09f8beb55f939874e93c1df6c8a046d4" target="_top" xlink:title=" ">
<polygon fill="white" stroke="#666666" points="202,-103 128,-103 128,-84 202,-84 202,-103"/>
<text text-anchor="middle" x="165" y="-91" font-family="Helvetica,sans-Serif" font-size="10.00">ExFatFile::ls</text>
</a>
</g>
</g>
<!-- Node8&#45;&gt;Node11 -->
<g id="edge13_Node000008_Node000011" class="edge">
<title>Node8&#45;&gt;Node11</title>
<g id="a_edge13_Node000008_Node000011"><a xlink:title=" ">
<path fill="none" stroke="#63b8ff" d="M393.77,-93.5C334.04,-93.5 249.6,-93.5 202.1,-93.5"/>
<polygon fill="#63b8ff" stroke="#63b8ff" points="393.87,-97 403.87,-93.5 393.87,-90 393.87,-97"/>
</a>
</g>
</g>
<!-- Node10 -->
<g id="Node000010" class="node">
<title>Node10</title>
<g id="a_Node000010"><a xlink:href="../../d9/dce/classExFatVolume.xhtml#a2e44d5d26a25d610c4b0d97fa5b1f505" target="_top" xlink:title=" ">
<polygon fill="white" stroke="#666666" points="212,-177 118,-177 118,-158 212,-158 212,-177"/>
<text text-anchor="middle" x="165" y="-165" font-family="Helvetica,sans-Serif" font-size="10.00">ExFatVolume::ls</text>
</a>
</g>
</g>
<!-- Node9&#45;&gt;Node10 -->
<g id="edge10_Node000009_Node000010" class="edge">
<title>Node9&#45;&gt;Node10</title>
<g id="a_edge10_Node000009_Node000010"><a xlink:title=" ">
<path fill="none" stroke="#63b8ff" d="M260.81,-142.62C241.95,-147.57 220.44,-153.22 202.68,-157.88"/>
<polygon fill="#63b8ff" stroke="#63b8ff" points="261.9,-145.95 270.69,-140.03 260.13,-139.18 261.9,-145.95"/>
</a>
</g>
</g>
<!-- Node9&#45;&gt;Node11 -->
<g id="edge11_Node000009_Node000011" class="edge">
<title>Node9&#45;&gt;Node11</title>
<g id="a_edge11_Node000009_Node000011"><a xlink:title=" ">
<path fill="none" stroke="#63b8ff" d="M260.99,-118.43C241.91,-113.42 220.1,-107.7 202.19,-103"/>
<polygon fill="#63b8ff" stroke="#63b8ff" points="260.13,-121.82 270.69,-120.97 261.9,-115.05 260.13,-121.82"/>
</a>
</g>
</g>
<!-- Node12 -->
<g id="Node000012" class="node">
<title>Node12</title>
<g id="a_Node000012"><a xlink:href="../../d9/dce/classExFatVolume.xhtml#abe1e8cad0a5922984b28edfd987bc856" target="_top" xlink:title=" ">
<polygon fill="white" stroke="#666666" points="212,-140 118,-140 118,-121 212,-121 212,-140"/>
<text text-anchor="middle" x="165" y="-128" font-family="Helvetica,sans-Serif" font-size="10.00">ExFatVolume::ls</text>
</a>
</g>
</g>
<!-- Node9&#45;&gt;Node12 -->
<g id="edge12_Node000009_Node000012" class="edge">
<title>Node9&#45;&gt;Node12</title>
<g id="a_edge12_Node000009_Node000012"><a xlink:title=" ">
<path fill="none" stroke="#63b8ff" d="M260.27,-130.5C244.76,-130.5 227.52,-130.5 212.06,-130.5"/>
<polygon fill="#63b8ff" stroke="#63b8ff" points="260.69,-134 270.69,-130.5 260.69,-127 260.69,-134"/>
</a>
</g>
</g>
<!-- Node14 -->
<g id="Node000014" class="node">
<title>Node14</title>
<g id="a_Node000014"><a xlink:href="../../d3/db4/classFatFile.xhtml#afe18a787fb8640e2d2483370c770f82f" target="_top" xlink:title=" ">
<polygon fill="white" stroke="#666666" points="516,-66 410,-66 410,-47 516,-47 516,-66"/>
<text text-anchor="middle" x="463" y="-54" font-family="Helvetica,sans-Serif" font-size="10.00">FatFile::printName</text>
</a>
</g>
</g>
<!-- Node13&#45;&gt;Node14 -->
<g id="edge15_Node000013_Node000014" class="edge">
<title>Node13&#45;&gt;Node14</title>
<g id="a_edge15_Node000013_Node000014"><a xlink:title=" ">
<path fill="none" stroke="#63b8ff" d="M553.91,-56.5C541.28,-56.5 528.2,-56.5 516.05,-56.5"/>
<polygon fill="#63b8ff" stroke="#63b8ff" points="553.92,-60 563.92,-56.5 553.92,-53 553.92,-60"/>
</a>
</g>
</g>
<!-- Node15 -->
<g id="Node000015" class="node">
<title>Node15</title>
<g id="a_Node000015"><a xlink:href="../../d3/db4/classFatFile.xhtml#a60ab9d16bcc778150a364c26de467de1" target="_top" xlink:title=" ">
<polygon fill="white" stroke="#666666" points="339,-46 277,-46 277,-27 339,-27 339,-46"/>
<text text-anchor="middle" x="308" y="-34" font-family="Helvetica,sans-Serif" font-size="10.00">FatFile::ls</text>
</a>
</g>
</g>
<!-- Node14&#45;&gt;Node15 -->
<g id="edge16_Node000014_Node000015" class="edge">
<title>Node14&#45;&gt;Node15</title>
<g id="a_edge16_Node000014_Node000015"><a xlink:title=" ">
<path fill="none" stroke="#63b8ff" d="M399.67,-48.35C378.78,-45.62 356.43,-42.7 339.15,-40.44"/>
<polygon fill="#63b8ff" stroke="#63b8ff" points="399.4,-51.85 409.77,-49.67 400.31,-44.91 399.4,-51.85"/>
</a>
</g>
</g>
<!-- Node15&#45;&gt;Node15 -->
<g id="edge20_Node000015_Node000015" class="edge">
<title>Node15&#45;&gt;Node15</title>
<g id="a_edge20_Node000015_Node000015"><a xlink:title=" ">
<path fill="none" stroke="#63b8ff" d="M334.41,-55.19C332.97,-60.2 324.17,-64 308,-64 282.76,-64 275.47,-54.73 286.11,-46.08"/>
<polygon fill="#63b8ff" stroke="#63b8ff" points="337.47,-53.48 329.89,-46.08 331.2,-56.6 337.47,-53.48"/>
</a>
</g>
</g>
<!-- Node16 -->
<g id="Node000016" class="node">
<title>Node16</title>
<g id="a_Node000016"><a xlink:href="../../d3/dd5/classFatVolume.xhtml#ac5fc83cac7fd3af0b140a7986b9472f8" target="_top" xlink:title=" ">
<polygon fill="white" stroke="#666666" points="206,-56 124,-56 124,-37 206,-37 206,-56"/>
<text text-anchor="middle" x="165" y="-44" font-family="Helvetica,sans-Serif" font-size="10.00">FatVolume::ls</text>
</a>
</g>
</g>
<!-- Node15&#45;&gt;Node16 -->
<g id="edge17_Node000015_Node000016" class="edge">
<title>Node15&#45;&gt;Node16</title>
<g id="a_edge17_Node000015_Node000016"><a xlink:title=" ">
<path fill="none" stroke="#63b8ff" d="M266.62,-39.36C247.63,-40.71 225.06,-42.31 206.1,-43.66"/>
<polygon fill="#63b8ff" stroke="#63b8ff" points="267.02,-42.84 276.75,-38.65 266.53,-35.86 267.02,-42.84"/>
</a>
</g>
</g>
<!-- Node17 -->
<g id="Node000017" class="node">
<title>Node17</title>
<g id="a_Node000017"><a xlink:href="../../d3/dd5/classFatVolume.xhtml#ae40964f357cfff4208812344a0e6f26f" target="_top" xlink:title=" ">
<polygon fill="white" stroke="#666666" points="206,-19 124,-19 124,0 206,0 206,-19"/>
<text text-anchor="middle" x="165" y="-7" font-family="Helvetica,sans-Serif" font-size="10.00">FatVolume::ls</text>
</a>
</g>
</g>
<!-- Node15&#45;&gt;Node17 -->
<g id="edge18_Node000015_Node000017" class="edge">
<title>Node15&#45;&gt;Node17</title>
<g id="a_edge18_Node000015_Node000017"><a xlink:title=" ">
<path fill="none" stroke="#63b8ff" d="M266.88,-28.82C247.84,-25.17 225.14,-20.83 206.1,-17.18"/>
<polygon fill="#63b8ff" stroke="#63b8ff" points="266.27,-32.26 276.75,-30.71 267.59,-25.39 266.27,-32.26"/>
</a>
</g>
</g>
<!-- Node18 -->
<g id="Node000018" class="node">
<title>Node18</title>
<g id="a_Node000018"><a xlink:href="../../d3/dd5/classFatVolume.xhtml#a455ad7b2a5b6b31551dca08087a3c404" target="_top" xlink:title=" ">
<polygon fill="white" stroke="#666666" points="82,-19 0,-19 0,0 82,0 82,-19"/>
<text text-anchor="middle" x="41" y="-7" font-family="Helvetica,sans-Serif" font-size="10.00">FatVolume::ls</text>
</a>
</g>
</g>
<!-- Node17&#45;&gt;Node18 -->
<g id="edge19_Node000017_Node000018" class="edge">
<title>Node17&#45;&gt;Node18</title>
<g id="a_edge19_Node000017_Node000018"><a xlink:title=" ">
<path fill="none" stroke="#63b8ff" d="M113.49,-9.5C103.07,-9.5 92.24,-9.5 82.24,-9.5"/>
<polygon fill="#63b8ff" stroke="#63b8ff" points="113.71,-13 123.71,-9.5 113.71,-6 113.71,-13"/>
</a>
</g>
</g>
</g>
</svg>
