<?xml version="1.0" encoding="UTF-8" standalone="no"?>
<!DOCTYPE svg PUBLIC "-//W3C//DTD SVG 1.1//EN"
 "http://www.w3.org/Graphics/SVG/1.1/DTD/svg11.dtd">
<!-- Generated by graphviz version 2.43.0 (0)
 -->
<!-- Title: /mnt/d/Cours/10. CESI A2/Blocs/01 &#45; Systeme embarque/Livrables/Station_Meteo_Groupe_1 &#45; Copy/libs/SdFat/src/SdCard/SdCard.h Pages: 1 -->
<svg width="727pt" height="511pt"
 viewBox="0.00 0.00 727.42 511.00" xmlns="http://www.w3.org/2000/svg" xmlns:xlink="http://www.w3.org/1999/xlink">
<g id="graph0" class="graph" transform="scale(1 1) rotate(0) translate(4 507)">
<title>/mnt/d/Cours/10. CESI A2/Blocs/01 &#45; Systeme embarque/Livrables/Station_Meteo_Groupe_1 &#45; Copy/libs/SdFat/src/SdCard/SdCard.h</title>
<!-- Node1 -->
<g id="Node000001" class="node">
<title>Node1</title>
<g id="a_Node000001"><a xlink:title="Top level include for SPI and SDIO cards.">
<polygon fill="#999999" stroke="#666666" points="279.5,-503 120.5,-503 120.5,-440 279.5,-440 279.5,-503"/>
<text text-anchor="start" x="128.5" y="-491" font-family="Helvetica,sans-Serif" font-size="10.00">/mnt/d/Cours/10. CESI</text>
<text text-anchor="start" x="128.5" y="-480" font-family="Helvetica,sans-Serif" font-size="10.00"> A2/Blocs/01 &#45; Systeme</text>
<text text-anchor="start" x="128.5" y="-469" font-family="Helvetica,sans-Serif" font-size="10.00"> embarque/Livrables/Station</text>
<text text-anchor="start" x="128.5" y="-458" font-family="Helvetica,sans-Serif" font-size="10.00">_Meteo_Groupe_1 &#45; Copy/libs</text>
<text text-anchor="middle" x="200" y="-447" font-family="Helvetica,sans-Serif" font-size="10.00">/SdFat/src/SdCard/SdCard.h</text>
</a>
</g>
</g>
<!-- Node2 -->
<g id="Node000002" class="node">
<title>Node2</title>
<g id="a_Node000002"><a xlink:href="../../d5/dc1/SdSpiCard_8h.xhtml" target="_top" xlink:title="Classes for SPI access to SD/SDHC cards.">
<polygon fill="white" stroke="#666666" points="296.5,-404 221.5,-404 221.5,-385 296.5,-385 296.5,-404"/>
<text text-anchor="middle" x="259" y="-392" font-family="Helvetica,sans-Serif" font-size="10.00">SdSpiCard.h</text>
</a>
</g>
</g>
<!-- Node1&#45;&gt;Node2 -->
<g id="edge1_Node000001_Node000002" class="edge">
<title>Node1&#45;&gt;Node2</title>
<g id="a_edge1_Node000001_Node000002"><a xlink:title=" ">
<path fill="none" stroke="#63b8ff" d="M224,-439.99C231.49,-430.46 239.48,-420.31 245.93,-412.11"/>
<polygon fill="#63b8ff" stroke="#63b8ff" points="248.8,-414.13 252.23,-404.1 243.3,-409.8 248.8,-414.13"/>
</a>
</g>
</g>
<!-- Node24 -->
<g id="Node000024" class="node">
<title>Node24</title>
<g id="a_Node000024"><a xlink:href="../../d9/d0a/SdioCard_8h.xhtml" target="_top" xlink:title="Classes for SDIO cards.">
<polygon fill="white" stroke="#666666" points="189.5,-404 120.5,-404 120.5,-385 189.5,-385 189.5,-404"/>
<text text-anchor="middle" x="155" y="-392" font-family="Helvetica,sans-Serif" font-size="10.00">SdioCard.h</text>
</a>
</g>
</g>
<!-- Node1&#45;&gt;Node24 -->
<g id="edge32_Node000001_Node000024" class="edge">
<title>Node1&#45;&gt;Node24</title>
<g id="a_edge32_Node000001_Node000024"><a xlink:title=" ">
<path fill="none" stroke="#63b8ff" d="M181.7,-439.99C176.16,-430.77 170.27,-420.96 165.44,-412.9"/>
<polygon fill="#63b8ff" stroke="#63b8ff" points="168.31,-410.88 160.16,-404.1 162.31,-414.48 168.31,-410.88"/>
</a>
</g>
</g>
<!-- Node3 -->
<g id="Node000003" class="node">
<title>Node3</title>
<g id="a_Node000003"><a xlink:title=" ">
<polygon fill="#e0e0e0" stroke="#999999" points="308,-184 252,-184 252,-165 308,-165 308,-184"/>
<text text-anchor="middle" x="280" y="-172" font-family="Helvetica,sans-Serif" font-size="10.00">stddef.h</text>
</a>
</g>
</g>
<!-- Node2&#45;&gt;Node3 -->
<g id="edge2_Node000002_Node000003" class="edge">
<title>Node2&#45;&gt;Node3</title>
<g id="a_edge2_Node000002_Node000003"><a xlink:title=" ">
<path fill="none" stroke="#63b8ff" d="M259.82,-384.95C262.91,-352.95 273.82,-239.68 278.18,-194.4"/>
<polygon fill="#63b8ff" stroke="#63b8ff" points="281.68,-194.51 279.16,-184.22 274.72,-193.84 281.68,-194.51"/>
</a>
</g>
</g>
<!-- Node4 -->
<g id="Node000004" class="node">
<title>Node4</title>
<g id="a_Node000004"><a xlink:href="../../df/d48/SdSpiDriver_8h.xhtml" target="_top" xlink:title="SpiDriver classes.">
<polygon fill="white" stroke="#666666" points="495.5,-349 356.5,-349 356.5,-330 495.5,-330 495.5,-349"/>
<text text-anchor="middle" x="426" y="-337" font-family="Helvetica,sans-Serif" font-size="10.00">../SpiDriver/SdSpiDriver.h</text>
</a>
</g>
</g>
<!-- Node2&#45;&gt;Node4 -->
<g id="edge3_Node000002_Node000004" class="edge">
<title>Node2&#45;&gt;Node4</title>
<g id="a_edge3_Node000002_Node000004"><a xlink:title=" ">
<path fill="none" stroke="#63b8ff" d="M285.83,-384.98C313.87,-376.09 358.05,-362.07 389.3,-352.15"/>
<polygon fill="#63b8ff" stroke="#63b8ff" points="390.49,-355.44 398.96,-349.08 388.37,-348.77 390.49,-355.44"/>
</a>
</g>
</g>
<!-- Node5 -->
<g id="Node000005" class="node">
<title>Node5</title>
<g id="a_Node000005"><a xlink:href="../../d0/d1b/SysCall_8h.xhtml" target="_top" xlink:title="SysCall class.">
<polygon fill="white" stroke="#666666" points="415,-239 299,-239 299,-220 415,-220 415,-239"/>
<text text-anchor="middle" x="357" y="-227" font-family="Helvetica,sans-Serif" font-size="10.00">../common/SysCall.h</text>
</a>
</g>
</g>
<!-- Node2&#45;&gt;Node5 -->
<g id="edge23_Node000002_Node000005" class="edge">
<title>Node2&#45;&gt;Node5</title>
<g id="a_edge23_Node000002_Node000005"><a xlink:title=" ">
<path fill="none" stroke="#63b8ff" d="M264.65,-384.68C270.36,-375.73 279.4,-361.47 287,-349 308.77,-313.3 333.49,-271.03 346.95,-247.86"/>
<polygon fill="#63b8ff" stroke="#63b8ff" points="350,-249.58 351.99,-239.17 343.94,-246.07 350,-249.58"/>
</a>
</g>
</g>
<!-- Node21 -->
<g id="Node000021" class="node">
<title>Node21</title>
<g id="a_Node000021"><a xlink:href="../../d4/da0/SdCardInfo_8h.xhtml" target="_top" xlink:title="Definitions for SD cards.">
<polygon fill="white" stroke="#666666" points="244.5,-294 165.5,-294 165.5,-275 244.5,-275 244.5,-294"/>
<text text-anchor="middle" x="205" y="-282" font-family="Helvetica,sans-Serif" font-size="10.00">SdCardInfo.h</text>
</a>
</g>
</g>
<!-- Node2&#45;&gt;Node21 -->
<g id="edge24_Node000002_Node000021" class="edge">
<title>Node2&#45;&gt;Node21</title>
<g id="a_edge24_Node000002_Node000021"><a xlink:title=" ">
<path fill="none" stroke="#63b8ff" d="M254.58,-384.66C245.72,-366.93 225.61,-326.73 213.91,-303.32"/>
<polygon fill="#63b8ff" stroke="#63b8ff" points="216.93,-301.54 209.33,-294.16 210.67,-304.67 216.93,-301.54"/>
</a>
</g>
</g>
<!-- Node22 -->
<g id="Node000022" class="node">
<title>Node22</title>
<g id="a_Node000022"><a xlink:href="../../dd/d48/SdCardInterface_8h.xhtml" target="_top" xlink:title="Abstract interface for an SD card.">
<polygon fill="white" stroke="#666666" points="207,-349 103,-349 103,-330 207,-330 207,-349"/>
<text text-anchor="middle" x="155" y="-337" font-family="Helvetica,sans-Serif" font-size="10.00">SdCardInterface.h</text>
</a>
</g>
</g>
<!-- Node2&#45;&gt;Node22 -->
<g id="edge27_Node000002_Node000022" class="edge">
<title>Node2&#45;&gt;Node22</title>
<g id="a_edge27_Node000002_Node000022"><a xlink:title=" ">
<path fill="none" stroke="#63b8ff" d="M242.29,-384.98C225.79,-376.57 200.3,-363.59 181.12,-353.81"/>
<polygon fill="#63b8ff" stroke="#63b8ff" points="182.51,-350.59 172.01,-349.17 179.33,-356.83 182.51,-350.59"/>
</a>
</g>
</g>
<!-- Node4&#45;&gt;Node5 -->
<g id="edge4_Node000004_Node000005" class="edge">
<title>Node4&#45;&gt;Node5</title>
<g id="a_edge4_Node000004_Node000005"><a xlink:title=" ">
<path fill="none" stroke="#63b8ff" d="M412.65,-329.81C401.34,-321.79 385.49,-308.9 376,-294 367.31,-280.35 362.43,-262.54 359.8,-249.25"/>
<polygon fill="#63b8ff" stroke="#63b8ff" points="363.24,-248.6 358.09,-239.35 356.34,-249.8 363.24,-248.6"/>
</a>
</g>
</g>
<!-- Node18 -->
<g id="Node000018" class="node">
<title>Node18</title>
<g id="a_Node000018"><a xlink:title=" ">
<polygon fill="#e0e0e0" stroke="#999999" points="563.5,-294 522.5,-294 522.5,-275 563.5,-275 563.5,-294"/>
<text text-anchor="middle" x="543" y="-282" font-family="Helvetica,sans-Serif" font-size="10.00">SPI.h</text>
</a>
</g>
</g>
<!-- Node4&#45;&gt;Node18 -->
<g id="edge20_Node000004_Node000018" class="edge">
<title>Node4&#45;&gt;Node18</title>
<g id="a_edge20_Node000004_Node000018"><a xlink:title=" ">
<path fill="none" stroke="#63b8ff" d="M444.8,-329.98C463.62,-321.46 492.82,-308.23 514.5,-298.41"/>
<polygon fill="#63b8ff" stroke="#63b8ff" points="516.2,-301.48 523.86,-294.17 513.31,-295.11 516.2,-301.48"/>
</a>
</g>
</g>
<!-- Node19 -->
<g id="Node000019" class="node">
<title>Node19</title>
<g id="a_Node000019"><a xlink:href="../../da/de9/SdSpiArduinoDriver_8h.xhtml" target="_top" xlink:title="SpiDriver classes for Arduino compatible systems.">
<polygon fill="white" stroke="#666666" points="504.5,-294 385.5,-294 385.5,-275 504.5,-275 504.5,-294"/>
<text text-anchor="middle" x="445" y="-282" font-family="Helvetica,sans-Serif" font-size="10.00">SdSpiArduinoDriver.h</text>
</a>
</g>
</g>
<!-- Node4&#45;&gt;Node19 -->
<g id="edge21_Node000004_Node000019" class="edge">
<title>Node4&#45;&gt;Node19</title>
<g id="a_edge21_Node000004_Node000019"><a xlink:title=" ">
<path fill="none" stroke="#63b8ff" d="M429.14,-329.75C431.68,-322.65 435.36,-312.4 438.53,-303.56"/>
<polygon fill="#63b8ff" stroke="#63b8ff" points="441.84,-304.68 441.92,-294.09 435.25,-302.32 441.84,-304.68"/>
</a>
</g>
</g>
<!-- Node5&#45;&gt;Node3 -->
<g id="edge5_Node000005_Node000003" class="edge">
<title>Node5&#45;&gt;Node3</title>
<g id="a_edge5_Node000005_Node000003"><a xlink:title=" ">
<path fill="none" stroke="#63b8ff" d="M344.63,-219.98C332.91,-211.92 315.08,-199.65 301.11,-190.03"/>
<polygon fill="#63b8ff" stroke="#63b8ff" points="302.82,-186.96 292.6,-184.17 298.85,-192.72 302.82,-186.96"/>
</a>
</g>
</g>
<!-- Node6 -->
<g id="Node000006" class="node">
<title>Node6</title>
<g id="a_Node000006"><a xlink:title=" ">
<polygon fill="#e0e0e0" stroke="#999999" points="305.5,-129 252.5,-129 252.5,-110 305.5,-110 305.5,-129"/>
<text text-anchor="middle" x="279" y="-117" font-family="Helvetica,sans-Serif" font-size="10.00">stdint.h</text>
</a>
</g>
</g>
<!-- Node5&#45;&gt;Node6 -->
<g id="edge6_Node000005_Node000006" class="edge">
<title>Node5&#45;&gt;Node6</title>
<g id="a_edge6_Node000005_Node000006"><a xlink:title=" ">
<path fill="none" stroke="#63b8ff" d="M351.95,-219.61C344.72,-207.08 330.75,-183.68 317,-165 309.77,-155.18 300.97,-144.79 293.66,-136.52"/>
<polygon fill="#63b8ff" stroke="#63b8ff" points="296.24,-134.16 286.96,-129.06 291.04,-138.84 296.24,-134.16"/>
</a>
</g>
</g>
<!-- Node7 -->
<g id="Node000007" class="node">
<title>Node7</title>
<g id="a_Node000007"><a xlink:href="../../d4/d1f/SdFatConfig_8h.xhtml" target="_top" xlink:title="configuration definitions">
<polygon fill="white" stroke="#666666" points="456,-184 364,-184 364,-165 456,-165 456,-184"/>
<text text-anchor="middle" x="410" y="-172" font-family="Helvetica,sans-Serif" font-size="10.00">../SdFatConfig.h</text>
</a>
</g>
</g>
<!-- Node5&#45;&gt;Node7 -->
<g id="edge7_Node000005_Node000007" class="edge">
<title>Node5&#45;&gt;Node7</title>
<g id="a_edge7_Node000005_Node000007"><a xlink:title=" ">
<path fill="none" stroke="#63b8ff" d="M365.75,-219.75C373.47,-212.03 384.9,-200.6 394.22,-191.28"/>
<polygon fill="#63b8ff" stroke="#63b8ff" points="396.81,-193.64 401.41,-184.09 391.86,-188.69 396.81,-193.64"/>
</a>
</g>
</g>
<!-- Node7&#45;&gt;Node6 -->
<g id="edge8_Node000007_Node000006" class="edge">
<title>Node7&#45;&gt;Node6</title>
<g id="a_edge8_Node000007_Node000006"><a xlink:title=" ">
<path fill="none" stroke="#63b8ff" d="M388.95,-164.98C367.59,-156.34 334.3,-142.87 309.94,-133.02"/>
<polygon fill="#63b8ff" stroke="#63b8ff" points="311.01,-129.68 300.43,-129.17 308.39,-136.17 311.01,-129.68"/>
</a>
</g>
</g>
<!-- Node8 -->
<g id="Node000008" class="node">
<title>Node8</title>
<g id="a_Node000008"><a xlink:href="../../de/df0/Arduino_8h.xhtml" target="_top" xlink:title=" ">
<polygon fill="white" stroke="#666666" points="441.5,-129 378.5,-129 378.5,-110 441.5,-110 441.5,-129"/>
<text text-anchor="middle" x="410" y="-117" font-family="Helvetica,sans-Serif" font-size="10.00">Arduino.h</text>
</a>
</g>
</g>
<!-- Node7&#45;&gt;Node8 -->
<g id="edge9_Node000007_Node000008" class="edge">
<title>Node7&#45;&gt;Node8</title>
<g id="a_edge9_Node000007_Node000008"><a xlink:title=" ">
<path fill="none" stroke="#63b8ff" d="M410,-164.75C410,-157.8 410,-147.85 410,-139.13"/>
<polygon fill="#63b8ff" stroke="#63b8ff" points="413.5,-139.09 410,-129.09 406.5,-139.09 413.5,-139.09"/>
</a>
</g>
</g>
<!-- Node9 -->
<g id="Node000009" class="node">
<title>Node9</title>
<g id="a_Node000009"><a xlink:title=" ">
<polygon fill="#e0e0e0" stroke="#999999" points="126.5,-74 73.5,-74 73.5,-55 126.5,-55 126.5,-74"/>
<text text-anchor="middle" x="100" y="-62" font-family="Helvetica,sans-Serif" font-size="10.00">stdlib.h</text>
</a>
</g>
</g>
<!-- Node8&#45;&gt;Node9 -->
<g id="edge10_Node000008_Node000009" class="edge">
<title>Node8&#45;&gt;Node9</title>
<g id="a_edge10_Node000008_Node000009"><a xlink:title=" ">
<path fill="none" stroke="#63b8ff" d="M378.23,-114.09C328.78,-107.06 230.24,-92.4 136.61,-73.99"/>
<polygon fill="#63b8ff" stroke="#63b8ff" points="137.18,-70.54 126.69,-72.02 135.82,-77.4 137.18,-70.54"/>
</a>
</g>
</g>
<!-- Node10 -->
<g id="Node000010" class="node">
<title>Node10</title>
<g id="a_Node000010"><a xlink:title=" ">
<polygon fill="#e0e0e0" stroke="#999999" points="207,-74 145,-74 145,-55 207,-55 207,-74"/>
<text text-anchor="middle" x="176" y="-62" font-family="Helvetica,sans-Serif" font-size="10.00">stdbool.h</text>
</a>
</g>
</g>
<!-- Node8&#45;&gt;Node10 -->
<g id="edge11_Node000008_Node000010" class="edge">
<title>Node8&#45;&gt;Node10</title>
<g id="a_edge11_Node000008_Node000010"><a xlink:title=" ">
<path fill="none" stroke="#63b8ff" d="M378.44,-111.35C336.69,-101.9 263.02,-85.21 217,-74.79"/>
<polygon fill="#63b8ff" stroke="#63b8ff" points="217.58,-71.33 207.06,-72.53 216.04,-78.16 217.58,-71.33"/>
</a>
</g>
</g>
<!-- Node11 -->
<g id="Node000011" class="node">
<title>Node11</title>
<g id="a_Node000011"><a xlink:title=" ">
<polygon fill="#e0e0e0" stroke="#999999" points="278.5,-74 225.5,-74 225.5,-55 278.5,-55 278.5,-74"/>
<text text-anchor="middle" x="252" y="-62" font-family="Helvetica,sans-Serif" font-size="10.00">string.h</text>
</a>
</g>
</g>
<!-- Node8&#45;&gt;Node11 -->
<g id="edge12_Node000008_Node000011" class="edge">
<title>Node8&#45;&gt;Node11</title>
<g id="a_edge12_Node000008_Node000011"><a xlink:title=" ">
<path fill="none" stroke="#63b8ff" d="M384.61,-109.98C358.2,-101.13 316.65,-87.19 287.11,-77.28"/>
<polygon fill="#63b8ff" stroke="#63b8ff" points="288.18,-73.94 277.58,-74.08 285.95,-80.58 288.18,-73.94"/>
</a>
</g>
</g>
<!-- Node12 -->
<g id="Node000012" class="node">
<title>Node12</title>
<g id="a_Node000012"><a xlink:title=" ">
<polygon fill="#e0e0e0" stroke="#999999" points="347.5,-74 296.5,-74 296.5,-55 347.5,-55 347.5,-74"/>
<text text-anchor="middle" x="322" y="-62" font-family="Helvetica,sans-Serif" font-size="10.00">math.h</text>
</a>
</g>
</g>
<!-- Node8&#45;&gt;Node12 -->
<g id="edge13_Node000008_Node000012" class="edge">
<title>Node8&#45;&gt;Node12</title>
<g id="a_edge13_Node000008_Node000012"><a xlink:title=" ">
<path fill="none" stroke="#63b8ff" d="M395.86,-109.98C382.21,-101.77 361.31,-89.18 345.22,-79.49"/>
<polygon fill="#63b8ff" stroke="#63b8ff" points="346.77,-76.33 336.4,-74.17 343.16,-82.33 346.77,-76.33"/>
</a>
</g>
</g>
<!-- Node13 -->
<g id="Node000013" class="node">
<title>Node13</title>
<g id="a_Node000013"><a xlink:title=" ">
<polygon fill="#e0e0e0" stroke="#999999" points="617.5,-19 522.5,-19 522.5,0 617.5,0 617.5,-19"/>
<text text-anchor="middle" x="570" y="-7" font-family="Helvetica,sans-Serif" font-size="10.00">avr/pgmspace.h</text>
</a>
</g>
</g>
<!-- Node8&#45;&gt;Node13 -->
<g id="edge14_Node000008_Node000013" class="edge">
<title>Node8&#45;&gt;Node13</title>
<g id="a_edge14_Node000008_Node000013"><a xlink:title=" ">
<path fill="none" stroke="#63b8ff" d="M441.53,-118.8C511.7,-118.73 677.28,-114.21 712,-74 740.05,-41.52 678.56,-24.9 627.89,-16.96"/>
<polygon fill="#63b8ff" stroke="#63b8ff" points="628.33,-13.48 617.93,-15.48 627.31,-20.41 628.33,-13.48"/>
</a>
</g>
</g>
<!-- Node14 -->
<g id="Node000014" class="node">
<title>Node14</title>
<g id="a_Node000014"><a xlink:title=" ">
<polygon fill="#e0e0e0" stroke="#999999" points="524.5,-74 471.5,-74 471.5,-55 524.5,-55 524.5,-74"/>
<text text-anchor="middle" x="498" y="-62" font-family="Helvetica,sans-Serif" font-size="10.00">avr/io.h</text>
</a>
</g>
</g>
<!-- Node8&#45;&gt;Node14 -->
<g id="edge15_Node000008_Node000014" class="edge">
<title>Node8&#45;&gt;Node14</title>
<g id="a_edge15_Node000008_Node000014"><a xlink:title=" ">
<path fill="none" stroke="#63b8ff" d="M424.14,-109.98C437.79,-101.77 458.69,-89.18 474.78,-79.49"/>
<polygon fill="#63b8ff" stroke="#63b8ff" points="476.84,-82.33 483.6,-74.17 473.23,-76.33 476.84,-82.33"/>
</a>
</g>
</g>
<!-- Node15 -->
<g id="Node000015" class="node">
<title>Node15</title>
<g id="a_Node000015"><a xlink:title=" ">
<polygon fill="#e0e0e0" stroke="#999999" points="629,-74 543,-74 543,-55 629,-55 629,-74"/>
<text text-anchor="middle" x="586" y="-62" font-family="Helvetica,sans-Serif" font-size="10.00">avr/interrupt.h</text>
</a>
</g>
</g>
<!-- Node8&#45;&gt;Node15 -->
<g id="edge16_Node000008_Node000015" class="edge">
<title>Node8&#45;&gt;Node15</title>
<g id="a_edge16_Node000008_Node000015"><a xlink:title=" ">
<path fill="none" stroke="#63b8ff" d="M438.28,-109.98C467.95,-101.05 514.79,-86.94 547.75,-77.02"/>
<polygon fill="#63b8ff" stroke="#63b8ff" points="548.93,-80.32 557.5,-74.08 546.92,-73.61 548.93,-80.32"/>
</a>
</g>
</g>
<!-- Node16 -->
<g id="Node000016" class="node">
<title>Node16</title>
<g id="a_Node000016"><a xlink:href="../../d8/da4/binary_8h.xhtml" target="_top" xlink:title=" ">
<polygon fill="white" stroke="#666666" points="702.5,-74 647.5,-74 647.5,-55 702.5,-55 702.5,-74"/>
<text text-anchor="middle" x="675" y="-62" font-family="Helvetica,sans-Serif" font-size="10.00">binary.h</text>
</a>
</g>
</g>
<!-- Node8&#45;&gt;Node16 -->
<g id="edge17_Node000008_Node000016" class="edge">
<title>Node8&#45;&gt;Node16</title>
<g id="a_edge17_Node000008_Node000016"><a xlink:title=" ">
<path fill="none" stroke="#63b8ff" d="M441.79,-112.64C484.01,-104.78 561.17,-90.16 636.95,-74.17"/>
<polygon fill="#63b8ff" stroke="#63b8ff" points="638.09,-77.5 647.14,-72 636.63,-70.65 638.09,-77.5"/>
</a>
</g>
</g>
<!-- Node17 -->
<g id="Node000017" class="node">
<title>Node17</title>
<g id="a_Node000017"><a xlink:href="../../d1/dce/pins__arduino_8h.xhtml" target="_top" xlink:title=" ">
<polygon fill="white" stroke="#666666" points="454,-74 366,-74 366,-55 454,-55 454,-74"/>
<text text-anchor="middle" x="410" y="-62" font-family="Helvetica,sans-Serif" font-size="10.00">pins_arduino.h</text>
</a>
</g>
</g>
<!-- Node8&#45;&gt;Node17 -->
<g id="edge18_Node000008_Node000017" class="edge">
<title>Node8&#45;&gt;Node17</title>
<g id="a_edge18_Node000008_Node000017"><a xlink:title=" ">
<path fill="none" stroke="#63b8ff" d="M410,-109.75C410,-102.8 410,-92.85 410,-84.13"/>
<polygon fill="#63b8ff" stroke="#63b8ff" points="413.5,-84.09 410,-74.09 406.5,-84.09 413.5,-84.09"/>
</a>
</g>
</g>
<!-- Node17&#45;&gt;Node13 -->
<g id="edge19_Node000017_Node000013" class="edge">
<title>Node17&#45;&gt;Node13</title>
<g id="a_edge19_Node000017_Node000013"><a xlink:title=" ">
<path fill="none" stroke="#63b8ff" d="M435.71,-54.98C462.45,-46.13 504.53,-32.19 534.45,-22.28"/>
<polygon fill="#63b8ff" stroke="#63b8ff" points="535.7,-25.55 544.09,-19.08 533.5,-18.9 535.7,-25.55"/>
</a>
</g>
</g>
<!-- Node20 -->
<g id="Node000020" class="node">
<title>Node20</title>
<g id="a_Node000020"><a xlink:href="../../db/d6a/SdSpiLibDriver_8h.xhtml" target="_top" xlink:title="Class using only simple SPI library functions.">
<polygon fill="white" stroke="#666666" points="529,-239 433,-239 433,-220 529,-220 529,-239"/>
<text text-anchor="middle" x="481" y="-227" font-family="Helvetica,sans-Serif" font-size="10.00">SdSpiLibDriver.h</text>
</a>
</g>
</g>
<!-- Node19&#45;&gt;Node20 -->
<g id="edge22_Node000019_Node000020" class="edge">
<title>Node19&#45;&gt;Node20</title>
<g id="a_edge22_Node000019_Node000020"><a xlink:title=" ">
<path fill="none" stroke="#63b8ff" d="M450.94,-274.75C455.98,-267.34 463.34,-256.5 469.51,-247.41"/>
<polygon fill="#63b8ff" stroke="#63b8ff" points="472.44,-249.33 475.17,-239.09 466.65,-245.39 472.44,-249.33"/>
</a>
</g>
</g>
<!-- Node21&#45;&gt;Node5 -->
<g id="edge26_Node000021_Node000005" class="edge">
<title>Node21&#45;&gt;Node5</title>
<g id="a_edge26_Node000021_Node000005"><a xlink:title=" ">
<path fill="none" stroke="#63b8ff" d="M229.42,-274.98C254.72,-266.16 294.45,-252.31 322.86,-242.41"/>
<polygon fill="#63b8ff" stroke="#63b8ff" points="324.1,-245.68 332.39,-239.08 321.79,-239.07 324.1,-245.68"/>
</a>
</g>
</g>
<!-- Node21&#45;&gt;Node6 -->
<g id="edge25_Node000021_Node000006" class="edge">
<title>Node21&#45;&gt;Node6</title>
<g id="a_edge25_Node000021_Node000006"><a xlink:title=" ">
<path fill="none" stroke="#63b8ff" d="M206.65,-274.73C210.71,-254.47 222.36,-203.21 243,-165 248.47,-154.88 256.35,-144.81 263.35,-136.82"/>
<polygon fill="#63b8ff" stroke="#63b8ff" points="266.03,-139.07 270.18,-129.32 260.86,-134.35 266.03,-139.07"/>
</a>
</g>
</g>
<!-- Node22&#45;&gt;Node21 -->
<g id="edge31_Node000022_Node000021" class="edge">
<title>Node22&#45;&gt;Node21</title>
<g id="a_edge31_Node000022_Node000021"><a xlink:title=" ">
<path fill="none" stroke="#63b8ff" d="M163.26,-329.75C170.46,-322.11 181.11,-310.82 189.85,-301.56"/>
<polygon fill="#63b8ff" stroke="#63b8ff" points="192.58,-303.76 196.9,-294.09 187.49,-298.96 192.58,-303.76"/>
</a>
</g>
</g>
<!-- Node23 -->
<g id="Node000023" class="node">
<title>Node23</title>
<g id="a_Node000023"><a xlink:href="../../dc/de5/FsBlockDeviceInterface_8h.xhtml" target="_top" xlink:title="FsBlockDeviceInterface include file.">
<polygon fill="white" stroke="#666666" points="196,-239 0,-239 0,-220 196,-220 196,-239"/>
<text text-anchor="middle" x="98" y="-227" font-family="Helvetica,sans-Serif" font-size="10.00">../common/FsBlockDeviceInterface.h</text>
</a>
</g>
</g>
<!-- Node22&#45;&gt;Node23 -->
<g id="edge28_Node000022_Node000023" class="edge">
<title>Node22&#45;&gt;Node23</title>
<g id="a_edge28_Node000022_Node000023"><a xlink:title=" ">
<path fill="none" stroke="#63b8ff" d="M150.34,-329.66C140.94,-311.85 119.57,-271.37 107.24,-248.01"/>
<polygon fill="#63b8ff" stroke="#63b8ff" points="110.33,-246.37 102.57,-239.16 104.14,-249.64 110.33,-246.37"/>
</a>
</g>
</g>
<!-- Node23&#45;&gt;Node3 -->
<g id="edge29_Node000023_Node000003" class="edge">
<title>Node23&#45;&gt;Node3</title>
<g id="a_edge29_Node000023_Node000003"><a xlink:title=" ">
<path fill="none" stroke="#63b8ff" d="M127.24,-219.98C158.43,-210.9 207.94,-196.49 242.09,-186.54"/>
<polygon fill="#63b8ff" stroke="#63b8ff" points="243.11,-189.89 251.73,-183.73 241.15,-183.17 243.11,-189.89"/>
</a>
</g>
</g>
<!-- Node23&#45;&gt;Node6 -->
<g id="edge30_Node000023_Node000006" class="edge">
<title>Node23&#45;&gt;Node6</title>
<g id="a_edge30_Node000023_Node000006"><a xlink:title=" ">
<path fill="none" stroke="#63b8ff" d="M112.51,-219.84C143.83,-201.16 218,-156.9 255.88,-134.3"/>
<polygon fill="#63b8ff" stroke="#63b8ff" points="257.88,-137.18 264.68,-129.05 254.3,-131.17 257.88,-137.18"/>
</a>
</g>
</g>
<!-- Node24&#45;&gt;Node5 -->
<g id="edge33_Node000024_Node000005" class="edge">
<title>Node24&#45;&gt;Node5</title>
<g id="a_edge33_Node000024_Node000005"><a xlink:title=" ">
<path fill="none" stroke="#63b8ff" d="M134.8,-384.91C120.53,-377.64 102.49,-365.71 94,-349 72.01,-305.74 149.06,-278.54 156,-275 197.38,-253.89 248.56,-242.74 288.92,-236.89"/>
<polygon fill="#63b8ff" stroke="#63b8ff" points="289.5,-240.34 298.93,-235.51 288.55,-233.4 289.5,-240.34"/>
</a>
</g>
</g>
<!-- Node24&#45;&gt;Node22 -->
<g id="edge34_Node000024_Node000022" class="edge">
<title>Node24&#45;&gt;Node22</title>
<g id="a_edge34_Node000024_Node000022"><a xlink:title=" ">
<path fill="none" stroke="#63b8ff" d="M155,-384.75C155,-377.8 155,-367.85 155,-359.13"/>
<polygon fill="#63b8ff" stroke="#63b8ff" points="158.5,-359.09 155,-349.09 151.5,-359.09 158.5,-359.09"/>
</a>
</g>
</g>
</g>
</svg>
