<?xml version="1.0" encoding="UTF-8" standalone="no"?>
<!DOCTYPE svg PUBLIC "-//W3C//DTD SVG 1.1//EN"
 "http://www.w3.org/Graphics/SVG/1.1/DTD/svg11.dtd">
<!-- Generated by graphviz version 2.43.0 (0)
 -->
<!-- Title: SdFat.h Pages: 1 -->
<!--zoomable 467 -->

<svg id="main" version="1.1" xmlns="http://www.w3.org/2000/svg" xmlns:xlink="http://www.w3.org/1999/xlink" xml:space="preserve" onload="init(evt)">
<style type="text/css"><![CDATA[
.node, .edge {opacity: 0.7;}
.node.selected, .edge.selected {opacity: 1;}
.edge:hover path { stroke: red; }
.edge:hover polygon { stroke: red; fill: red; }
]]></style>

<defs>
  <circle id="rim" cx="0" cy="0" r="7"/>
  <circle id="rim2" cx="0" cy="0" r="3.5"/>
  <g id="zoomPlus">
    <use xlink:href="#rim" fill="#404040"><set attributeName="fill" to="#808080" begin="zoomplus.mouseover" end="zoomplus.mouseout"/></use>
    <path d="M-4,0h8M0,-4v8" fill="none" stroke="white" stroke-width="1.5" pointer-events="none"/>
  </g>
  <g id="zoomMin">
    <use xlink:href="#rim" fill="#404040"><set attributeName="fill" to="#808080" begin="zoomminus.mouseover" end="zoomminus.mouseout"/></use>
    <path d="M-4,0h8" fill="none" stroke="white" stroke-width="1.5" pointer-events="none"/>
  </g>
  <g id="arrowUp" transform="translate(30 24)">
    <use xlink:href="#rim"/>
    <path pointer-events="none" fill="none" stroke="white" stroke-width="1.5" d="M0,-3.0v7 M-2.5,-0.5L0,-3.0L2.5,-0.5"/>
  </g>
  <g id="arrowRight" transform="rotate(90) translate(36 -43)">
    <use xlink:href="#rim"/>
    <path pointer-events="none" fill="none" stroke="white" stroke-width="1.5" d="M0,-3.0v7 M-2.5,-0.5L0,-3.0L2.5,-0.5"/>
  </g>
  <g id="arrowDown" transform="rotate(180) translate(-30 -48)">
    <use xlink:href="#rim"/>
    <path pointer-events="none" fill="none" stroke="white" stroke-width="1.5" d="M0,-3.0v7 M-2.5,-0.5L0,-3.0L2.5,-0.5"/>
  </g>
  <g id="arrowLeft" transform="rotate(270) translate(-36 17)">
    <use xlink:href="#rim"/>
    <path pointer-events="none" fill="none" stroke="white" stroke-width="1.5" d="M0,-3.0v7 M-2.5,-0.5L0,-3.0L2.5,-0.5"/>
  </g>
  <g id="resetDef">
    <use xlink:href="#rim2" fill="#404040"><set attributeName="fill" to="#808080" begin="reset.mouseover" end="reset.mouseout"/></use>
  </g>
</defs>
<script type="application/ecmascript">
var viewWidth = 1268;
var viewHeight = 467;
var sectionId = 'dynsection-1';
</script>
<script type="application/ecmascript" xlink:href="../../svg.min.js"/>
<svg id="graph" class="graph">
<g id="viewport">
<title>SdFat.h</title>
<!-- Node1 -->
<g id="Node000001" class="node">
<title>Node1</title>
<g id="a_Node000001"><a xlink:title="main SdFs include file.">
<polygon fill="#999999" stroke="#666666" points="908,-459 856,-459 856,-440 908,-440 908,-459"/>
<text text-anchor="middle" x="882" y="-447" font-family="Helvetica,sans-Serif" font-size="10.00">SdFat.h</text>
</a>
</g>
</g>
<!-- Node2 -->
<g id="Node000002" class="node">
<title>Node2</title>
<g id="a_Node000002"><a xlink:href="../../d5/d98/sd_8hpp.xhtml" target="_top" xlink:title=" ">
<polygon fill="white" stroke="#666666" points="906.5,-404 857.5,-404 857.5,-385 906.5,-385 906.5,-404"/>
<text text-anchor="middle" x="882" y="-392" font-family="Helvetica,sans-Serif" font-size="10.00">sd.hpp</text>
</a>
</g>
</g>
<!-- Node1&#45;&gt;Node2 -->
<g id="edge1_Node000001_Node000002" class="edge">
<title>Node1&#45;&gt;Node2</title>
<g id="a_edge1_Node000001_Node000002"><a xlink:title=" ">
<path fill="none" stroke="#63b8ff" d="M882,-429.66C882,-420.93 882,-410.99 882,-404.09"/>
<polygon fill="#63b8ff" stroke="#63b8ff" points="878.5,-429.75 882,-439.75 885.5,-429.75 878.5,-429.75"/>
</a>
</g>
</g>
<!-- Node3 -->
<g id="Node000003" class="node">
<title>Node3</title>
<g id="a_Node000003"><a xlink:href="../../d0/d00/main_8hpp.xhtml" target="_top" xlink:title=" ">
<polygon fill="white" stroke="#666666" points="628,-349 566,-349 566,-330 628,-330 628,-349"/>
<text text-anchor="middle" x="597" y="-337" font-family="Helvetica,sans-Serif" font-size="10.00">main.hpp</text>
</a>
</g>
</g>
<!-- Node2&#45;&gt;Node3 -->
<g id="edge2_Node000002_Node000003" class="edge">
<title>Node2&#45;&gt;Node3</title>
<g id="a_edge2_Node000002_Node000003"><a xlink:title=" ">
<path fill="none" stroke="#63b8ff" d="M847.14,-387.83C790.98,-377.96 681.78,-357.67 628.11,-347.15"/>
<polygon fill="#63b8ff" stroke="#63b8ff" points="846.85,-391.33 857.3,-389.6 848.06,-384.44 846.85,-391.33"/>
</a>
</g>
</g>
<!-- Node6 -->
<g id="Node000006" class="node">
<title>Node6</title>
<g id="a_Node000006"><a xlink:href="../../d8/dc9/maintenance_8hpp.xhtml" target="_top" xlink:title=" ">
<polygon fill="white" stroke="#666666" points="1103.5,-184 1002.5,-184 1002.5,-165 1103.5,-165 1103.5,-184"/>
<text text-anchor="middle" x="1053" y="-172" font-family="Helvetica,sans-Serif" font-size="10.00">maintenance.hpp</text>
</a>
</g>
</g>
<!-- Node2&#45;&gt;Node6 -->
<g id="edge60_Node000002_Node000006" class="edge">
<title>Node2&#45;&gt;Node6</title>
<g id="a_edge60_Node000002_Node000006"><a xlink:title=" ">
<path fill="none" stroke="#63b8ff" d="M916.91,-392.14C995.75,-386.9 1186.11,-361.54 1256,-239 1260.18,-231.66 1261.29,-226.58 1256,-220 1237.23,-196.67 1157.45,-184.88 1103.67,-179.48"/>
<polygon fill="#63b8ff" stroke="#63b8ff" points="916.33,-388.67 906.55,-392.75 916.74,-395.66 916.33,-388.67"/>
</a>
</g>
</g>
<!-- Node39 -->
<g id="Node000039" class="node">
<title>Node39</title>
<g id="a_Node000039"><a xlink:href="../../d0/ded/sd_8cpp.xhtml" target="_top" xlink:title=" ">
<polygon fill="white" stroke="#666666" points="958,-349 910,-349 910,-330 958,-330 958,-349"/>
<text text-anchor="middle" x="934" y="-337" font-family="Helvetica,sans-Serif" font-size="10.00">sd.cpp</text>
</a>
</g>
</g>
<!-- Node2&#45;&gt;Node39 -->
<g id="edge61_Node000002_Node000039" class="edge">
<title>Node2&#45;&gt;Node39</title>
<g id="a_edge61_Node000002_Node000039"><a xlink:title=" ">
<path fill="none" stroke="#63b8ff" d="M897.68,-377.52C906.84,-368.18 918.05,-356.75 925.57,-349.09"/>
<polygon fill="#63b8ff" stroke="#63b8ff" points="895.09,-375.16 890.59,-384.75 900.09,-380.06 895.09,-375.16"/>
</a>
</g>
</g>
<!-- Node3&#45;&gt;Node2 -->
<g id="edge56_Node000003_Node000002" class="edge">
<title>Node3&#45;&gt;Node2</title>
<g id="a_edge56_Node000003_Node000002"><a xlink:title=" ">
<path fill="none" stroke="#63b8ff" d="M637.95,-347.24C698.11,-357.9 808.23,-378.4 857.38,-388.13"/>
<polygon fill="#63b8ff" stroke="#63b8ff" points="638.49,-343.79 628.03,-345.5 637.27,-350.68 638.49,-343.79"/>
</a>
</g>
</g>
<!-- Node4 -->
<g id="Node000004" class="node">
<title>Node4</title>
<g id="a_Node000004"><a xlink:href="../../db/d0c/acquisition_8hpp.xhtml" target="_top" xlink:title=" ">
<polygon fill="white" stroke="#666666" points="1153.5,-294 1062.5,-294 1062.5,-275 1153.5,-275 1153.5,-294"/>
<text text-anchor="middle" x="1108" y="-282" font-family="Helvetica,sans-Serif" font-size="10.00">acquisition.hpp</text>
</a>
</g>
</g>
<!-- Node3&#45;&gt;Node4 -->
<g id="edge3_Node000003_Node000004" class="edge">
<title>Node3&#45;&gt;Node4</title>
<g id="a_edge3_Node000003_Node000004"><a xlink:title=" ">
<path fill="none" stroke="#63b8ff" d="M638.3,-335.01C717.75,-328.18 897.36,-312.09 1048,-294 1052.7,-293.44 1057.6,-292.81 1062.49,-292.15"/>
<polygon fill="#63b8ff" stroke="#63b8ff" points="637.88,-331.54 628.22,-335.88 638.48,-338.51 637.88,-331.54"/>
</a>
</g>
</g>
<!-- Node3&#45;&gt;Node6 -->
<g id="edge44_Node000003_Node000006" class="edge">
<title>Node3&#45;&gt;Node6</title>
<g id="a_edge44_Node000003_Node000006"><a xlink:title=" ">
<path fill="none" stroke="#63b8ff" d="M638.39,-338.64C726.29,-338.06 927.46,-332.31 983,-294 1022.24,-266.94 1037.83,-206.7 1047.11,-184.2"/>
<polygon fill="#63b8ff" stroke="#63b8ff" points="638.24,-335.14 628.25,-338.68 638.27,-342.14 638.24,-335.14"/>
</a>
</g>
</g>
<!-- Node8 -->
<g id="Node000008" class="node">
<title>Node8</title>
<g id="a_Node000008"><a xlink:href="../../df/d04/standard_8hpp.xhtml" target="_top" xlink:title=" ">
<polygon fill="white" stroke="#666666" points="1005,-129 925,-129 925,-110 1005,-110 1005,-129"/>
<text text-anchor="middle" x="965" y="-117" font-family="Helvetica,sans-Serif" font-size="10.00">standard.hpp</text>
</a>
</g>
</g>
<!-- Node3&#45;&gt;Node8 -->
<g id="edge58_Node000003_Node000008" class="edge">
<title>Node3&#45;&gt;Node8</title>
<g id="a_edge58_Node000003_Node000008"><a xlink:title=" ">
<path fill="none" stroke="#63b8ff" d="M638.46,-338.72C693.46,-337.26 792.05,-329.18 868,-294 902.03,-278.24 913.03,-271.35 932,-239 953.45,-202.42 955.99,-149.79 960.53,-129.21"/>
<polygon fill="#63b8ff" stroke="#63b8ff" points="638.31,-335.22 628.38,-338.92 638.45,-342.22 638.31,-335.22"/>
</a>
</g>
</g>
<!-- Node10 -->
<g id="Node000010" class="node">
<title>Node10</title>
<g id="a_Node000010"><a xlink:href="../../de/d53/brightness_8hpp.xhtml" target="_top" xlink:title=" ">
<polygon fill="white" stroke="#666666" points="166.5,-294 77.5,-294 77.5,-275 166.5,-275 166.5,-294"/>
<text text-anchor="middle" x="122" y="-282" font-family="Helvetica,sans-Serif" font-size="10.00">brightness.hpp</text>
</a>
</g>
</g>
<!-- Node3&#45;&gt;Node10 -->
<g id="edge12_Node000003_Node000010" class="edge">
<title>Node3&#45;&gt;Node10</title>
<g id="a_edge12_Node000003_Node000010"><a xlink:title=" ">
<path fill="none" stroke="#63b8ff" d="M555.59,-335.33C478.52,-328.81 308.64,-312.93 166.44,-294.06"/>
<polygon fill="#63b8ff" stroke="#63b8ff" points="555.58,-338.84 565.83,-336.19 556.16,-331.87 555.58,-338.84"/>
</a>
</g>
</g>
<!-- Node12 -->
<g id="Node000012" class="node">
<title>Node12</title>
<g id="a_Node000012"><a xlink:href="../../dc/d0a/configuration_8hpp.xhtml" target="_top" xlink:title=" ">
<polygon fill="white" stroke="#666666" points="285.5,-294 184.5,-294 184.5,-275 285.5,-275 285.5,-294"/>
<text text-anchor="middle" x="235" y="-282" font-family="Helvetica,sans-Serif" font-size="10.00">configuration.hpp</text>
</a>
</g>
</g>
<!-- Node3&#45;&gt;Node12 -->
<g id="edge15_Node000003_Node000012" class="edge">
<title>Node3&#45;&gt;Node12</title>
<g id="a_edge15_Node000003_Node000012"><a xlink:title=" ">
<path fill="none" stroke="#63b8ff" d="M555.55,-333.06C488.72,-323.72 357.71,-304.57 285.53,-293.63"/>
<polygon fill="#63b8ff" stroke="#63b8ff" points="555.32,-336.56 565.7,-334.47 556.28,-329.63 555.32,-336.56"/>
</a>
</g>
</g>
<!-- Node14 -->
<g id="Node000014" class="node">
<title>Node14</title>
<g id="a_Node000014"><a xlink:href="../../d0/d42/economy_8hpp.xhtml" target="_top" xlink:title=" ">
<polygon fill="white" stroke="#666666" points="384.5,-294 303.5,-294 303.5,-275 384.5,-275 384.5,-294"/>
<text text-anchor="middle" x="344" y="-282" font-family="Helvetica,sans-Serif" font-size="10.00">economy.hpp</text>
</a>
</g>
</g>
<!-- Node3&#45;&gt;Node14 -->
<g id="edge18_Node000003_Node000014" class="edge">
<title>Node3&#45;&gt;Node14</title>
<g id="a_edge18_Node000003_Node000014"><a xlink:title=" ">
<path fill="none" stroke="#63b8ff" d="M555.86,-330.91C506.84,-321.14 425.99,-304.22 379.56,-294.02"/>
<polygon fill="#63b8ff" stroke="#63b8ff" points="555.32,-334.37 565.81,-332.88 556.68,-327.5 555.32,-334.37"/>
</a>
</g>
</g>
<!-- Node16 -->
<g id="Node000016" class="node">
<title>Node16</title>
<g id="a_Node000016"><a xlink:href="../../de/d1e/humidity_8hpp.xhtml" target="_top" xlink:title=" ">
<polygon fill="white" stroke="#666666" points="80,-74 0,-74 0,-55 80,-55 80,-74"/>
<text text-anchor="middle" x="40" y="-62" font-family="Helvetica,sans-Serif" font-size="10.00">humidity.hpp</text>
</a>
</g>
</g>
<!-- Node3&#45;&gt;Node16 -->
<g id="edge21_Node000003_Node000016" class="edge">
<title>Node3&#45;&gt;Node16</title>
<g id="a_edge21_Node000003_Node000016"><a xlink:title=" ">
<path fill="none" stroke="#63b8ff" d="M555.7,-337.54C436.54,-334.31 98.83,-322.42 59,-294 33.89,-276.09 31,-261.34 31,-230.5 31,-230.5 31,-230.5 31,-173.5 31,-136.56 31,-92.52 35.1,-74.18"/>
<polygon fill="#63b8ff" stroke="#63b8ff" points="555.79,-341.04 565.88,-337.81 555.98,-334.04 555.79,-341.04"/>
</a>
</g>
</g>
<!-- Node18 -->
<g id="Node000018" class="node">
<title>Node18</title>
<g id="a_Node000018"><a xlink:href="../../db/d42/interpreter_8hpp.xhtml" target="_top" xlink:title=" ">
<polygon fill="white" stroke="#666666" points="604.5,-294 515.5,-294 515.5,-275 604.5,-275 604.5,-294"/>
<text text-anchor="middle" x="560" y="-282" font-family="Helvetica,sans-Serif" font-size="10.00">interpreter.hpp</text>
</a>
</g>
</g>
<!-- Node3&#45;&gt;Node18 -->
<g id="edge24_Node000003_Node000018" class="edge">
<title>Node3&#45;&gt;Node18</title>
<g id="a_edge24_Node000003_Node000018"><a xlink:title=" ">
<path fill="none" stroke="#63b8ff" d="M585.05,-321.39C578.69,-312.27 571.13,-301.45 566,-294.09"/>
<polygon fill="#63b8ff" stroke="#63b8ff" points="582.3,-323.55 590.89,-329.75 588.04,-319.55 582.3,-323.55"/>
</a>
</g>
</g>
<!-- Node20 -->
<g id="Node000020" class="node">
<title>Node20</title>
<g id="a_Node000020"><a xlink:href="../../d1/dc5/serial_8hpp.xhtml" target="_top" xlink:title=" ">
<polygon fill="white" stroke="#666666" points="685.5,-239 620.5,-239 620.5,-220 685.5,-220 685.5,-239"/>
<text text-anchor="middle" x="653" y="-227" font-family="Helvetica,sans-Serif" font-size="10.00">serial.hpp</text>
</a>
</g>
</g>
<!-- Node3&#45;&gt;Node20 -->
<g id="edge57_Node000003_Node000020" class="edge">
<title>Node3&#45;&gt;Node20</title>
<g id="a_edge57_Node000003_Node000020"><a xlink:title=" ">
<path fill="none" stroke="#63b8ff" d="M606.2,-320.76C618.37,-297.28 639.36,-256.81 648.51,-239.16"/>
<polygon fill="#63b8ff" stroke="#63b8ff" points="603.08,-319.17 601.58,-329.66 609.29,-322.4 603.08,-319.17"/>
</a>
</g>
</g>
<!-- Node24 -->
<g id="Node000024" class="node">
<title>Node24</title>
<g id="a_Node000024"><a xlink:href="../../d5/ddb/pressure_8hpp.xhtml" target="_top" xlink:title=" ">
<polygon fill="white" stroke="#666666" points="405,-74 325,-74 325,-55 405,-55 405,-74"/>
<text text-anchor="middle" x="365" y="-62" font-family="Helvetica,sans-Serif" font-size="10.00">pressure.hpp</text>
</a>
</g>
</g>
<!-- Node3&#45;&gt;Node24 -->
<g id="edge55_Node000003_Node000024" class="edge">
<title>Node3&#45;&gt;Node24</title>
<g id="a_edge55_Node000003_Node000024"><a xlink:title=" ">
<path fill="none" stroke="#63b8ff" d="M556.05,-330.12C532.85,-323.29 504.81,-311.81 485,-294 410.81,-227.3 369.15,-107.5 364.29,-74.26"/>
<polygon fill="#63b8ff" stroke="#63b8ff" points="555.41,-333.58 565.98,-332.86 557.27,-326.83 555.41,-333.58"/>
</a>
</g>
</g>
<!-- Node26 -->
<g id="Node000026" class="node">
<title>Node26</title>
<g id="a_Node000026"><a xlink:href="../../dc/d32/temperature_8hpp.xhtml" target="_top" xlink:title=" ">
<polygon fill="white" stroke="#666666" points="599,-74 501,-74 501,-55 599,-55 599,-74"/>
<text text-anchor="middle" x="550" y="-62" font-family="Helvetica,sans-Serif" font-size="10.00">temperature.hpp</text>
</a>
</g>
</g>
<!-- Node3&#45;&gt;Node26 -->
<g id="edge59_Node000003_Node000026" class="edge">
<title>Node3&#45;&gt;Node26</title>
<g id="a_edge59_Node000003_Node000026"><a xlink:title=" ">
<path fill="none" stroke="#63b8ff" d="M556,-331.15C534.68,-324.85 510.66,-313.59 498,-294 450.22,-220.1 515,-106.36 540.84,-74.22"/>
<polygon fill="#63b8ff" stroke="#63b8ff" points="555.31,-334.59 565.88,-333.78 557.11,-327.82 555.31,-334.59"/>
</a>
</g>
</g>
<!-- Node32 -->
<g id="Node000032" class="node">
<title>Node32</title>
<g id="a_Node000032"><a xlink:href="../../de/dfb/src_2main_8cpp.xhtml" target="_top" xlink:title=" ">
<polygon fill="white" stroke="#666666" points="761,-294 699,-294 699,-275 761,-275 761,-294"/>
<text text-anchor="middle" x="730" y="-282" font-family="Helvetica,sans-Serif" font-size="10.00">main.cpp</text>
</a>
</g>
</g>
<!-- Node3&#45;&gt;Node32 -->
<g id="edge43_Node000003_Node000032" class="edge">
<title>Node3&#45;&gt;Node32</title>
<g id="a_edge43_Node000003_Node000032"><a xlink:title=" ">
<path fill="none" stroke="#63b8ff" d="M627.97,-326.16C652.59,-316.35 686.41,-302.87 708.24,-294.17"/>
<polygon fill="#63b8ff" stroke="#63b8ff" points="626.36,-323.03 618.37,-329.98 628.95,-329.53 626.36,-323.03"/>
</a>
</g>
</g>
<!-- Node33 -->
<g id="Node000033" class="node">
<title>Node33</title>
<g id="a_Node000033"><a xlink:href="../../d1/dfa/mode_8hpp.xhtml" target="_top" xlink:title=" ">
<polygon fill="white" stroke="#666666" points="844.5,-294 779.5,-294 779.5,-275 844.5,-275 844.5,-294"/>
<text text-anchor="middle" x="812" y="-282" font-family="Helvetica,sans-Serif" font-size="10.00">mode.hpp</text>
</a>
</g>
</g>
<!-- Node3&#45;&gt;Node33 -->
<g id="edge45_Node000003_Node000033" class="edge">
<title>Node3&#45;&gt;Node33</title>
<g id="a_edge45_Node000003_Node000033"><a xlink:title=" ">
<path fill="none" stroke="#63b8ff" d="M636.36,-327.41C677.44,-316.85 740.9,-301.28 779.33,-292.39"/>
<polygon fill="#63b8ff" stroke="#63b8ff" points="635.23,-324.09 626.43,-329.98 636.99,-330.87 635.23,-324.09"/>
</a>
</g>
</g>
<!-- Node4&#45;&gt;Node2 -->
<g id="edge8_Node000004_Node000002" class="edge">
<title>Node4&#45;&gt;Node2</title>
<g id="a_edge8_Node000004_Node000002"><a xlink:title=" ">
<path fill="none" stroke="#63b8ff" d="M1052.44,-294.45C995,-304.18 912.14,-319.7 901,-330 885.45,-344.37 882.44,-370.89 881.97,-384.67"/>
<polygon fill="#63b8ff" stroke="#63b8ff" points="1053.21,-297.88 1062.49,-292.77 1052.05,-290.97 1053.21,-297.88"/>
</a>
</g>
</g>
<!-- Node5 -->
<g id="Node000005" class="node">
<title>Node5</title>
<g id="a_Node000005"><a xlink:href="../../d6/d30/acquisition_8cpp.xhtml" target="_top" xlink:title=" ">
<polygon fill="white" stroke="#666666" points="1247,-239 1157,-239 1157,-220 1247,-220 1247,-239"/>
<text text-anchor="middle" x="1202" y="-227" font-family="Helvetica,sans-Serif" font-size="10.00">acquisition.cpp</text>
</a>
</g>
</g>
<!-- Node4&#45;&gt;Node5 -->
<g id="edge4_Node000004_Node000005" class="edge">
<title>Node4&#45;&gt;Node5</title>
<g id="a_edge4_Node000004_Node000005"><a xlink:title=" ">
<path fill="none" stroke="#63b8ff" d="M1132,-269.97C1149.19,-260.28 1171.81,-247.52 1186.62,-239.17"/>
<polygon fill="#63b8ff" stroke="#63b8ff" points="1130.09,-267.02 1123.1,-274.98 1133.53,-273.12 1130.09,-267.02"/>
</a>
</g>
</g>
<!-- Node4&#45;&gt;Node6 -->
<g id="edge5_Node000004_Node000006" class="edge">
<title>Node4&#45;&gt;Node6</title>
<g id="a_edge5_Node000004_Node000006"><a xlink:title=" ">
<path fill="none" stroke="#63b8ff" d="M1098.8,-265.44C1086.83,-241.92 1066.36,-201.73 1057.41,-184.16"/>
<polygon fill="#63b8ff" stroke="#63b8ff" points="1095.84,-267.34 1103.5,-274.66 1102.08,-264.16 1095.84,-267.34"/>
</a>
</g>
</g>
<!-- Node4&#45;&gt;Node8 -->
<g id="edge9_Node000004_Node000008" class="edge">
<title>Node4&#45;&gt;Node8</title>
<g id="a_edge9_Node000004_Node000008"><a xlink:title=" ">
<path fill="none" stroke="#63b8ff" d="M1115.13,-265.6C1123.85,-240.47 1134.93,-194.5 1113,-165 1106.18,-155.82 1042.79,-139.13 1001.22,-129"/>
<polygon fill="#63b8ff" stroke="#63b8ff" points="1111.84,-264.4 1111.64,-274.99 1118.4,-266.84 1111.84,-264.4"/>
</a>
</g>
</g>
<!-- Node6&#45;&gt;Node3 -->
<g id="edge6_Node000006_Node000003" class="edge">
<title>Node6&#45;&gt;Node3</title>
<g id="a_edge6_Node000006_Node000003"><a xlink:title=" ">
<path fill="none" stroke="#63b8ff" d="M1055.01,-194.27C1051.56,-221.24 1035.33,-270.32 1001,-294 941.14,-335.29 712.14,-338.75 628.03,-338.69"/>
<polygon fill="#63b8ff" stroke="#63b8ff" points="1058.51,-194.42 1055.73,-184.2 1051.53,-193.93 1058.51,-194.42"/>
</a>
</g>
</g>
<!-- Node7 -->
<g id="Node000007" class="node">
<title>Node7</title>
<g id="a_Node000007"><a xlink:href="../../d6/d46/maintenance_8cpp.xhtml" target="_top" xlink:title=" ">
<polygon fill="white" stroke="#666666" points="1124.5,-129 1023.5,-129 1023.5,-110 1124.5,-110 1124.5,-129"/>
<text text-anchor="middle" x="1074" y="-117" font-family="Helvetica,sans-Serif" font-size="10.00">maintenance.cpp</text>
</a>
</g>
</g>
<!-- Node6&#45;&gt;Node7 -->
<g id="edge7_Node000006_Node000007" class="edge">
<title>Node6&#45;&gt;Node7</title>
<g id="a_edge7_Node000006_Node000007"><a xlink:title=" ">
<path fill="none" stroke="#63b8ff" d="M1060.24,-155.24C1063.75,-146.37 1067.8,-136.14 1070.6,-129.09"/>
<polygon fill="#63b8ff" stroke="#63b8ff" points="1056.9,-154.16 1056.47,-164.75 1063.41,-156.74 1056.9,-154.16"/>
</a>
</g>
</g>
<!-- Node8&#45;&gt;Node3 -->
<g id="edge10_Node000008_Node000003" class="edge">
<title>Node8&#45;&gt;Node3</title>
<g id="a_edge10_Node000008_Node000003"><a xlink:title=" ">
<path fill="none" stroke="#63b8ff" d="M971.04,-139.33C972.94,-163.88 968.52,-207.42 950,-239 931.03,-271.35 920.03,-278.24 886,-294 799.35,-334.13 683.23,-338.99 628.15,-339"/>
<polygon fill="#63b8ff" stroke="#63b8ff" points="974.48,-138.66 969.69,-129.21 967.54,-139.59 974.48,-138.66"/>
</a>
</g>
</g>
<!-- Node9 -->
<g id="Node000009" class="node">
<title>Node9</title>
<g id="a_Node000009"><a xlink:href="../../df/d92/standard_8cpp.xhtml" target="_top" xlink:title=" ">
<polygon fill="white" stroke="#666666" points="1005,-74 925,-74 925,-55 1005,-55 1005,-74"/>
<text text-anchor="middle" x="965" y="-62" font-family="Helvetica,sans-Serif" font-size="10.00">standard.cpp</text>
</a>
</g>
</g>
<!-- Node8&#45;&gt;Node9 -->
<g id="edge11_Node000008_Node000009" class="edge">
<title>Node8&#45;&gt;Node9</title>
<g id="a_edge11_Node000008_Node000009"><a xlink:title=" ">
<path fill="none" stroke="#63b8ff" d="M965,-99.66C965,-90.93 965,-80.99 965,-74.09"/>
<polygon fill="#63b8ff" stroke="#63b8ff" points="961.5,-99.75 965,-109.75 968.5,-99.75 961.5,-99.75"/>
</a>
</g>
</g>
<!-- Node10&#45;&gt;Node3 -->
<g id="edge14_Node000010_Node000003" class="edge">
<title>Node10&#45;&gt;Node3</title>
<g id="a_edge14_Node000010_Node000003"><a xlink:title=" ">
<path fill="none" stroke="#63b8ff" d="M176.84,-293.01C179.27,-293.36 181.66,-293.69 184,-294 326.41,-312.91 496.72,-328.83 565.82,-335.35"/>
<polygon fill="#63b8ff" stroke="#63b8ff" points="177.17,-289.52 166.77,-291.52 176.15,-296.45 177.17,-289.52"/>
</a>
</g>
</g>
<!-- Node11 -->
<g id="Node000011" class="node">
<title>Node11</title>
<g id="a_Node000011"><a xlink:href="../../d8/d9d/brightness_8cpp.xhtml" target="_top" xlink:title=" ">
<polygon fill="white" stroke="#666666" points="166,-239 78,-239 78,-220 166,-220 166,-239"/>
<text text-anchor="middle" x="122" y="-227" font-family="Helvetica,sans-Serif" font-size="10.00">brightness.cpp</text>
</a>
</g>
</g>
<!-- Node10&#45;&gt;Node11 -->
<g id="edge13_Node000010_Node000011" class="edge">
<title>Node10&#45;&gt;Node11</title>
<g id="a_edge13_Node000010_Node000011"><a xlink:title=" ">
<path fill="none" stroke="#63b8ff" d="M122,-264.66C122,-255.93 122,-245.99 122,-239.09"/>
<polygon fill="#63b8ff" stroke="#63b8ff" points="118.5,-264.75 122,-274.75 125.5,-264.75 118.5,-264.75"/>
</a>
</g>
</g>
<!-- Node12&#45;&gt;Node3 -->
<g id="edge17_Node000012_Node000003" class="edge">
<title>Node12&#45;&gt;Node3</title>
<g id="a_edge17_Node000012_Node000003"><a xlink:title=" ">
<path fill="none" stroke="#63b8ff" d="M295.79,-293.66C373.75,-304.71 505.84,-324.09 565.84,-333.32"/>
<polygon fill="#63b8ff" stroke="#63b8ff" points="296.02,-290.16 285.63,-292.23 295.04,-297.09 296.02,-290.16"/>
</a>
</g>
</g>
<!-- Node13 -->
<g id="Node000013" class="node">
<title>Node13</title>
<g id="a_Node000013"><a xlink:href="../../df/d22/configuration_8cpp.xhtml" target="_top" xlink:title=" ">
<polygon fill="white" stroke="#666666" points="285.5,-239 184.5,-239 184.5,-220 285.5,-220 285.5,-239"/>
<text text-anchor="middle" x="235" y="-227" font-family="Helvetica,sans-Serif" font-size="10.00">configuration.cpp</text>
</a>
</g>
</g>
<!-- Node12&#45;&gt;Node13 -->
<g id="edge16_Node000012_Node000013" class="edge">
<title>Node12&#45;&gt;Node13</title>
<g id="a_edge16_Node000012_Node000013"><a xlink:title=" ">
<path fill="none" stroke="#63b8ff" d="M235,-264.66C235,-255.93 235,-245.99 235,-239.09"/>
<polygon fill="#63b8ff" stroke="#63b8ff" points="231.5,-264.75 235,-274.75 238.5,-264.75 231.5,-264.75"/>
</a>
</g>
</g>
<!-- Node14&#45;&gt;Node3 -->
<g id="edge20_Node000014_Node000003" class="edge">
<title>Node14&#45;&gt;Node3</title>
<g id="a_edge20_Node000014_Node000003"><a xlink:title=" ">
<path fill="none" stroke="#63b8ff" d="M394.61,-294.99C445.78,-305.28 523.09,-321.5 565.91,-330.96"/>
<polygon fill="#63b8ff" stroke="#63b8ff" points="395.23,-291.54 384.74,-293.01 393.85,-298.41 395.23,-291.54"/>
</a>
</g>
</g>
<!-- Node15 -->
<g id="Node000015" class="node">
<title>Node15</title>
<g id="a_Node000015"><a xlink:href="../../d9/ddd/economy_8cpp.xhtml" target="_top" xlink:title=" ">
<polygon fill="white" stroke="#666666" points="384,-239 304,-239 304,-220 384,-220 384,-239"/>
<text text-anchor="middle" x="344" y="-227" font-family="Helvetica,sans-Serif" font-size="10.00">economy.cpp</text>
</a>
</g>
</g>
<!-- Node14&#45;&gt;Node15 -->
<g id="edge19_Node000014_Node000015" class="edge">
<title>Node14&#45;&gt;Node15</title>
<g id="a_edge19_Node000014_Node000015"><a xlink:title=" ">
<path fill="none" stroke="#63b8ff" d="M344,-264.66C344,-255.93 344,-245.99 344,-239.09"/>
<polygon fill="#63b8ff" stroke="#63b8ff" points="340.5,-264.75 344,-274.75 347.5,-264.75 340.5,-264.75"/>
</a>
</g>
</g>
<!-- Node16&#45;&gt;Node3 -->
<g id="edge23_Node000016_Node000003" class="edge">
<title>Node16&#45;&gt;Node3</title>
<g id="a_edge23_Node000016_Node000003"><a xlink:title=" ">
<path fill="none" stroke="#63b8ff" d="M46.5,-84.23C49,-105.77 49,-142.19 49,-173.5 49,-230.5 49,-230.5 49,-230.5 49,-261.34 51.89,-276.09 77,-294 117.14,-322.64 459.83,-334.49 565.94,-337.61"/>
<polygon fill="#63b8ff" stroke="#63b8ff" points="49.93,-83.5 44.9,-74.18 43.02,-84.61 49.93,-83.5"/>
</a>
</g>
</g>
<!-- Node17 -->
<g id="Node000017" class="node">
<title>Node17</title>
<g id="a_Node000017"><a xlink:href="../../dd/d8e/humidity_8cpp.xhtml" target="_top" xlink:title=" ">
<polygon fill="white" stroke="#666666" points="79.5,-19 0.5,-19 0.5,0 79.5,0 79.5,-19"/>
<text text-anchor="middle" x="40" y="-7" font-family="Helvetica,sans-Serif" font-size="10.00">humidity.cpp</text>
</a>
</g>
</g>
<!-- Node16&#45;&gt;Node17 -->
<g id="edge22_Node000016_Node000017" class="edge">
<title>Node16&#45;&gt;Node17</title>
<g id="a_edge22_Node000016_Node000017"><a xlink:title=" ">
<path fill="none" stroke="#63b8ff" d="M40,-44.66C40,-35.93 40,-25.99 40,-19.09"/>
<polygon fill="#63b8ff" stroke="#63b8ff" points="36.5,-44.75 40,-54.75 43.5,-44.75 36.5,-44.75"/>
</a>
</g>
</g>
<!-- Node19 -->
<g id="Node000019" class="node">
<title>Node19</title>
<g id="a_Node000019"><a xlink:href="../../d2/de2/interpreter_8cpp.xhtml" target="_top" xlink:title=" ">
<polygon fill="white" stroke="#666666" points="602,-239 514,-239 514,-220 602,-220 602,-239"/>
<text text-anchor="middle" x="558" y="-227" font-family="Helvetica,sans-Serif" font-size="10.00">interpreter.cpp</text>
</a>
</g>
</g>
<!-- Node18&#45;&gt;Node19 -->
<g id="edge25_Node000018_Node000019" class="edge">
<title>Node18&#45;&gt;Node19</title>
<g id="a_edge25_Node000018_Node000019"><a xlink:title=" ">
<path fill="none" stroke="#63b8ff" d="M559.29,-264.66C558.96,-255.93 558.58,-245.99 558.32,-239.09"/>
<polygon fill="#63b8ff" stroke="#63b8ff" points="555.8,-264.89 559.67,-274.75 562.79,-264.62 555.8,-264.89"/>
</a>
</g>
</g>
<!-- Node18&#45;&gt;Node20 -->
<g id="edge26_Node000018_Node000020" class="edge">
<title>Node18&#45;&gt;Node20</title>
<g id="a_edge26_Node000018_Node000020"><a xlink:title=" ">
<path fill="none" stroke="#63b8ff" d="M583.75,-269.97C600.75,-260.28 623.13,-247.52 637.79,-239.17"/>
<polygon fill="#63b8ff" stroke="#63b8ff" points="581.9,-266.99 574.94,-274.98 585.36,-273.07 581.9,-266.99"/>
</a>
</g>
</g>
<!-- Node20&#45;&gt;Node6 -->
<g id="edge41_Node000020_Node000006" class="edge">
<title>Node20&#45;&gt;Node6</title>
<g id="a_edge41_Node000020_Node000006"><a xlink:title=" ">
<path fill="none" stroke="#63b8ff" d="M695.61,-220.02C811.35,-201.4 934.9,-187.59 1002.43,-180.56"/>
<polygon fill="#63b8ff" stroke="#63b8ff" points="694.82,-216.61 685.51,-221.67 695.95,-223.52 694.82,-216.61"/>
</a>
</g>
</g>
<!-- Node21 -->
<g id="Node000021" class="node">
<title>Node21</title>
<g id="a_Node000021"><a xlink:href="../../d9/d99/error_8hpp.xhtml" target="_top" xlink:title=" ">
<polygon fill="white" stroke="#666666" points="698,-184 638,-184 638,-165 698,-165 698,-184"/>
<text text-anchor="middle" x="668" y="-172" font-family="Helvetica,sans-Serif" font-size="10.00">error.hpp</text>
</a>
</g>
</g>
<!-- Node20&#45;&gt;Node21 -->
<g id="edge27_Node000020_Node000021" class="edge">
<title>Node20&#45;&gt;Node21</title>
<g id="a_edge27_Node000020_Node000021"><a xlink:title=" ">
<path fill="none" stroke="#63b8ff" d="M658.25,-209.95C660.74,-201.15 663.6,-191.06 665.57,-184.09"/>
<polygon fill="#63b8ff" stroke="#63b8ff" points="654.83,-209.17 655.48,-219.75 661.57,-211.08 654.83,-209.17"/>
</a>
</g>
</g>
<!-- Node31 -->
<g id="Node000031" class="node">
<title>Node31</title>
<g id="a_Node000031"><a xlink:href="../../de/d25/serial_8cpp.xhtml" target="_top" xlink:title=" ">
<polygon fill="white" stroke="#666666" points="620,-184 556,-184 556,-165 620,-165 620,-184"/>
<text text-anchor="middle" x="588" y="-172" font-family="Helvetica,sans-Serif" font-size="10.00">serial.cpp</text>
</a>
</g>
</g>
<!-- Node20&#45;&gt;Node31 -->
<g id="edge42_Node000020_Node000031" class="edge">
<title>Node20&#45;&gt;Node31</title>
<g id="a_edge42_Node000020_Node000031"><a xlink:title=" ">
<path fill="none" stroke="#63b8ff" d="M634.73,-213.6C623.08,-204.11 608.4,-192.13 598.63,-184.17"/>
<polygon fill="#63b8ff" stroke="#63b8ff" points="632.59,-216.38 642.56,-219.98 637.02,-210.95 632.59,-216.38"/>
</a>
</g>
</g>
<!-- Node21&#45;&gt;Node8 -->
<g id="edge40_Node000021_Node000008" class="edge">
<title>Node21&#45;&gt;Node8</title>
<g id="a_edge40_Node000021_Node000008"><a xlink:title=" ">
<path fill="none" stroke="#63b8ff" d="M708.25,-164.83C790.71,-148.87 875.81,-134.77 924.68,-126.89"/>
<polygon fill="#63b8ff" stroke="#63b8ff" points="707.35,-161.43 698.21,-166.78 708.69,-168.3 707.35,-161.43"/>
</a>
</g>
</g>
<!-- Node22 -->
<g id="Node000022" class="node">
<title>Node22</title>
<g id="a_Node000022"><a xlink:href="../../d3/d42/bme_8hpp.xhtml" target="_top" xlink:title=" ">
<polygon fill="white" stroke="#666666" points="482.5,-129 423.5,-129 423.5,-110 482.5,-110 482.5,-129"/>
<text text-anchor="middle" x="453" y="-117" font-family="Helvetica,sans-Serif" font-size="10.00">bme.hpp</text>
</a>
</g>
</g>
<!-- Node21&#45;&gt;Node22 -->
<g id="edge28_Node000021_Node000022" class="edge">
<title>Node21&#45;&gt;Node22</title>
<g id="a_edge28_Node000021_Node000022"><a xlink:title=" ">
<path fill="none" stroke="#63b8ff" d="M627.71,-163.57C585.48,-153.16 520.16,-137.06 482.5,-127.77"/>
<polygon fill="#63b8ff" stroke="#63b8ff" points="627.1,-167.02 637.65,-166.02 628.78,-160.23 627.1,-167.02"/>
</a>
</g>
</g>
<!-- Node28 -->
<g id="Node000028" class="node">
<title>Node28</title>
<g id="a_Node000028"><a xlink:href="../../dd/db1/error_8cpp.xhtml" target="_top" xlink:title=" ">
<polygon fill="white" stroke="#666666" points="766.5,-129 707.5,-129 707.5,-110 766.5,-110 766.5,-129"/>
<text text-anchor="middle" x="737" y="-117" font-family="Helvetica,sans-Serif" font-size="10.00">error.cpp</text>
</a>
</g>
</g>
<!-- Node21&#45;&gt;Node28 -->
<g id="edge37_Node000021_Node000028" class="edge">
<title>Node21&#45;&gt;Node28</title>
<g id="a_edge37_Node000021_Node000028"><a xlink:title=" ">
<path fill="none" stroke="#63b8ff" d="M687.04,-158.88C699.46,-149.34 715.24,-137.21 725.71,-129.17"/>
<polygon fill="#63b8ff" stroke="#63b8ff" points="684.88,-156.12 679.09,-164.98 689.15,-161.67 684.88,-156.12"/>
</a>
</g>
</g>
<!-- Node29 -->
<g id="Node000029" class="node">
<title>Node29</title>
<g id="a_Node000029"><a xlink:href="../../db/d45/gps_8hpp.xhtml" target="_top" xlink:title=" ">
<polygon fill="white" stroke="#666666" points="689.5,-129 634.5,-129 634.5,-110 689.5,-110 689.5,-129"/>
<text text-anchor="middle" x="662" y="-117" font-family="Helvetica,sans-Serif" font-size="10.00">gps.hpp</text>
</a>
</g>
</g>
<!-- Node21&#45;&gt;Node29 -->
<g id="edge38_Node000021_Node000029" class="edge">
<title>Node21&#45;&gt;Node29</title>
<g id="a_edge38_Node000021_Node000029"><a xlink:title=" ">
<path fill="none" stroke="#63b8ff" d="M665.87,-154.66C664.88,-145.93 663.75,-135.99 662.97,-129.09"/>
<polygon fill="#63b8ff" stroke="#63b8ff" points="662.41,-155.21 667.01,-164.75 669.36,-154.42 662.41,-155.21"/>
</a>
</g>
</g>
<!-- Node22&#45;&gt;Node16 -->
<g id="edge30_Node000022_Node000016" class="edge">
<title>Node22&#45;&gt;Node16</title>
<g id="a_edge30_Node000022_Node000016"><a xlink:title=" ">
<path fill="none" stroke="#63b8ff" d="M413.29,-113.4C334.49,-103.29 159.18,-80.79 80.08,-70.64"/>
<polygon fill="#63b8ff" stroke="#63b8ff" points="412.93,-116.89 423.3,-114.69 413.82,-109.94 412.93,-116.89"/>
</a>
</g>
</g>
<!-- Node23 -->
<g id="Node000023" class="node">
<title>Node23</title>
<g id="a_Node000023"><a xlink:href="../../d4/d82/bme_8cpp.xhtml" target="_top" xlink:title=" ">
<polygon fill="white" stroke="#666666" points="482.5,-74 423.5,-74 423.5,-55 482.5,-55 482.5,-74"/>
<text text-anchor="middle" x="453" y="-62" font-family="Helvetica,sans-Serif" font-size="10.00">bme.cpp</text>
</a>
</g>
</g>
<!-- Node22&#45;&gt;Node23 -->
<g id="edge29_Node000022_Node000023" class="edge">
<title>Node22&#45;&gt;Node23</title>
<g id="a_edge29_Node000022_Node000023"><a xlink:title=" ">
<path fill="none" stroke="#63b8ff" d="M453,-99.66C453,-90.93 453,-80.99 453,-74.09"/>
<polygon fill="#63b8ff" stroke="#63b8ff" points="449.5,-99.75 453,-109.75 456.5,-99.75 449.5,-99.75"/>
</a>
</g>
</g>
<!-- Node22&#45;&gt;Node24 -->
<g id="edge31_Node000022_Node000024" class="edge">
<title>Node22&#45;&gt;Node24</title>
<g id="a_edge31_Node000022_Node000024"><a xlink:title=" ">
<path fill="none" stroke="#63b8ff" d="M430.08,-104.7C414.05,-95.04 393.13,-82.44 379.4,-74.17"/>
<polygon fill="#63b8ff" stroke="#63b8ff" points="428.49,-107.82 438.86,-109.98 432.1,-101.83 428.49,-107.82"/>
</a>
</g>
</g>
<!-- Node22&#45;&gt;Node26 -->
<g id="edge34_Node000022_Node000026" class="edge">
<title>Node22&#45;&gt;Node26</title>
<g id="a_edge34_Node000022_Node000026"><a xlink:title=" ">
<path fill="none" stroke="#63b8ff" d="M477.77,-104.97C495.5,-95.28 518.85,-82.52 534.13,-74.17"/>
<polygon fill="#63b8ff" stroke="#63b8ff" points="475.68,-102.12 468.58,-109.98 479.04,-108.26 475.68,-102.12"/>
</a>
</g>
</g>
<!-- Node24&#45;&gt;Node3 -->
<g id="edge32_Node000024_Node000003" class="edge">
<title>Node24&#45;&gt;Node3</title>
<g id="a_edge32_Node000024_Node000003"><a xlink:title=" ">
<path fill="none" stroke="#63b8ff" d="M375.27,-83.57C393.86,-125.89 434.61,-232.51 503,-294 522.56,-311.58 550.13,-323 570.51,-329.86"/>
<polygon fill="#63b8ff" stroke="#63b8ff" points="378.36,-81.9 371.02,-74.26 371.99,-84.81 378.36,-81.9"/>
</a>
</g>
</g>
<!-- Node25 -->
<g id="Node000025" class="node">
<title>Node25</title>
<g id="a_Node000025"><a xlink:href="../../d8/ddf/pressure_8cpp.xhtml" target="_top" xlink:title=" ">
<polygon fill="white" stroke="#666666" points="404.5,-19 325.5,-19 325.5,0 404.5,0 404.5,-19"/>
<text text-anchor="middle" x="365" y="-7" font-family="Helvetica,sans-Serif" font-size="10.00">pressure.cpp</text>
</a>
</g>
</g>
<!-- Node24&#45;&gt;Node25 -->
<g id="edge33_Node000024_Node000025" class="edge">
<title>Node24&#45;&gt;Node25</title>
<g id="a_edge33_Node000024_Node000025"><a xlink:title=" ">
<path fill="none" stroke="#63b8ff" d="M365,-44.66C365,-35.93 365,-25.99 365,-19.09"/>
<polygon fill="#63b8ff" stroke="#63b8ff" points="361.5,-44.75 365,-54.75 368.5,-44.75 361.5,-44.75"/>
</a>
</g>
</g>
<!-- Node26&#45;&gt;Node3 -->
<g id="edge35_Node000026_Node000003" class="edge">
<title>Node26&#45;&gt;Node3</title>
<g id="a_edge35_Node000026_Node000003"><a xlink:title=" ">
<path fill="none" stroke="#63b8ff" d="M543.31,-83.45C523.34,-124.32 472.05,-226.02 516,-294 527.93,-312.44 549.91,-323.51 568.1,-330"/>
<polygon fill="#63b8ff" stroke="#63b8ff" points="546.56,-84.76 547.72,-74.22 540.25,-81.73 546.56,-84.76"/>
</a>
</g>
</g>
<!-- Node27 -->
<g id="Node000027" class="node">
<title>Node27</title>
<g id="a_Node000027"><a xlink:href="../../d0/d3d/temperature_8cpp.xhtml" target="_top" xlink:title=" ">
<polygon fill="white" stroke="#666666" points="599,-19 501,-19 501,0 599,0 599,-19"/>
<text text-anchor="middle" x="550" y="-7" font-family="Helvetica,sans-Serif" font-size="10.00">temperature.cpp</text>
</a>
</g>
</g>
<!-- Node26&#45;&gt;Node27 -->
<g id="edge36_Node000026_Node000027" class="edge">
<title>Node26&#45;&gt;Node27</title>
<g id="a_edge36_Node000026_Node000027"><a xlink:title=" ">
<path fill="none" stroke="#63b8ff" d="M550,-44.66C550,-35.93 550,-25.99 550,-19.09"/>
<polygon fill="#63b8ff" stroke="#63b8ff" points="546.5,-44.75 550,-54.75 553.5,-44.75 546.5,-44.75"/>
</a>
</g>
</g>
<!-- Node30 -->
<g id="Node000030" class="node">
<title>Node30</title>
<g id="a_Node000030"><a xlink:href="../../dc/d3d/gps_8cpp.xhtml" target="_top" xlink:title=" ">
<polygon fill="white" stroke="#666666" points="689,-74 635,-74 635,-55 689,-55 689,-74"/>
<text text-anchor="middle" x="662" y="-62" font-family="Helvetica,sans-Serif" font-size="10.00">gps.cpp</text>
</a>
</g>
</g>
<!-- Node29&#45;&gt;Node30 -->
<g id="edge39_Node000029_Node000030" class="edge">
<title>Node29&#45;&gt;Node30</title>
<g id="a_edge39_Node000029_Node000030"><a xlink:title=" ">
<path fill="none" stroke="#63b8ff" d="M662,-99.66C662,-90.93 662,-80.99 662,-74.09"/>
<polygon fill="#63b8ff" stroke="#63b8ff" points="658.5,-99.75 662,-109.75 665.5,-99.75 658.5,-99.75"/>
</a>
</g>
</g>
<!-- Node33&#45;&gt;Node3 -->
<g id="edge53_Node000033_Node000003" class="edge">
<title>Node33&#45;&gt;Node3</title>
<g id="a_edge53_Node000033_Node000003"><a xlink:title=" ">
<path fill="none" stroke="#63b8ff" d="M772.73,-296.56C731.22,-307.24 666.76,-323.05 628.44,-331.89"/>
<polygon fill="#63b8ff" stroke="#63b8ff" points="773.7,-299.93 782.51,-294.03 771.95,-293.15 773.7,-299.93"/>
</a>
</g>
</g>
<!-- Node34 -->
<g id="Node000034" class="node">
<title>Node34</title>
<g id="a_Node000034"><a xlink:href="../../df/d0a/buttons_8hpp.xhtml" target="_top" xlink:title=" ">
<polygon fill="white" stroke="#666666" points="932,-239 858,-239 858,-220 932,-220 932,-239"/>
<text text-anchor="middle" x="895" y="-227" font-family="Helvetica,sans-Serif" font-size="10.00">buttons.hpp</text>
</a>
</g>
</g>
<!-- Node33&#45;&gt;Node34 -->
<g id="edge46_Node000033_Node000034" class="edge">
<title>Node33&#45;&gt;Node34</title>
<g id="a_edge46_Node000033_Node000034"><a xlink:title=" ">
<path fill="none" stroke="#63b8ff" d="M834.04,-269.42C849.11,-259.81 868.59,-247.37 881.42,-239.17"/>
<polygon fill="#63b8ff" stroke="#63b8ff" points="831.88,-266.65 825.34,-274.98 835.65,-272.55 831.88,-266.65"/>
</a>
</g>
</g>
<!-- Node36 -->
<g id="Node000036" class="node">
<title>Node36</title>
<g id="a_Node000036"><a xlink:href="../../d4/d76/led_8hpp.xhtml" target="_top" xlink:title=" ">
<polygon fill="white" stroke="#666666" points="756.5,-239 703.5,-239 703.5,-220 756.5,-220 756.5,-239"/>
<text text-anchor="middle" x="730" y="-227" font-family="Helvetica,sans-Serif" font-size="10.00">led.hpp</text>
</a>
</g>
</g>
<!-- Node33&#45;&gt;Node36 -->
<g id="edge49_Node000033_Node000036" class="edge">
<title>Node33&#45;&gt;Node36</title>
<g id="a_edge49_Node000033_Node000036"><a xlink:title=" ">
<path fill="none" stroke="#63b8ff" d="M790.22,-269.42C775.34,-259.81 756.09,-247.37 743.41,-239.17"/>
<polygon fill="#63b8ff" stroke="#63b8ff" points="788.53,-272.5 798.83,-274.98 792.33,-266.62 788.53,-272.5"/>
</a>
</g>
</g>
<!-- Node38 -->
<g id="Node000038" class="node">
<title>Node38</title>
<g id="a_Node000038"><a xlink:href="../../d9/d88/mode_8cpp.xhtml" target="_top" xlink:title=" ">
<polygon fill="white" stroke="#666666" points="839.5,-239 774.5,-239 774.5,-220 839.5,-220 839.5,-239"/>
<text text-anchor="middle" x="807" y="-227" font-family="Helvetica,sans-Serif" font-size="10.00">mode.cpp</text>
</a>
</g>
</g>
<!-- Node33&#45;&gt;Node38 -->
<g id="edge54_Node000033_Node000038" class="edge">
<title>Node33&#45;&gt;Node38</title>
<g id="a_edge54_Node000033_Node000038"><a xlink:title=" ">
<path fill="none" stroke="#63b8ff" d="M810.22,-264.66C809.4,-255.93 808.46,-245.99 807.81,-239.09"/>
<polygon fill="#63b8ff" stroke="#63b8ff" points="806.75,-265.12 811.17,-274.75 813.72,-264.46 806.75,-265.12"/>
</a>
</g>
</g>
<!-- Node34&#45;&gt;Node3 -->
<g id="edge48_Node000034_Node000003" class="edge">
<title>Node34&#45;&gt;Node3</title>
<g id="a_edge48_Node000034_Node000003"><a xlink:title=" ">
<path fill="none" stroke="#63b8ff" d="M888.13,-248.66C881.62,-263.29 870.38,-283.16 854,-294 817.27,-318.3 688,-331.36 628.01,-336.24"/>
<polygon fill="#63b8ff" stroke="#63b8ff" points="891.49,-249.71 892.05,-239.13 885.01,-247.05 891.49,-249.71"/>
</a>
</g>
</g>
<!-- Node35 -->
<g id="Node000035" class="node">
<title>Node35</title>
<g id="a_Node000035"><a xlink:href="../../d9/d52/buttons_8cpp.xhtml" target="_top" xlink:title=" ">
<polygon fill="white" stroke="#666666" points="928,-184 854,-184 854,-165 928,-165 928,-184"/>
<text text-anchor="middle" x="891" y="-172" font-family="Helvetica,sans-Serif" font-size="10.00">buttons.cpp</text>
</a>
</g>
</g>
<!-- Node34&#45;&gt;Node35 -->
<g id="edge47_Node000034_Node000035" class="edge">
<title>Node34&#45;&gt;Node35</title>
<g id="a_edge47_Node000034_Node000035"><a xlink:title=" ">
<path fill="none" stroke="#63b8ff" d="M893.58,-209.66C892.92,-200.93 892.17,-190.99 891.65,-184.09"/>
<polygon fill="#63b8ff" stroke="#63b8ff" points="890.1,-210.04 894.34,-219.75 897.08,-209.51 890.1,-210.04"/>
</a>
</g>
</g>
<!-- Node36&#45;&gt;Node3 -->
<g id="edge52_Node000036_Node000003" class="edge">
<title>Node36&#45;&gt;Node3</title>
<g id="a_edge52_Node000036_Node000003"><a xlink:title=" ">
<path fill="none" stroke="#63b8ff" d="M711.44,-245.57C683.27,-268.45 630.6,-311.22 607.88,-329.66"/>
<polygon fill="#63b8ff" stroke="#63b8ff" points="713.78,-248.18 719.34,-239.16 709.37,-242.75 713.78,-248.18"/>
</a>
</g>
</g>
<!-- Node36&#45;&gt;Node21 -->
<g id="edge50_Node000036_Node000021" class="edge">
<title>Node36&#45;&gt;Node21</title>
<g id="a_edge50_Node000036_Node000021"><a xlink:title=" ">
<path fill="none" stroke="#63b8ff" d="M712.25,-213.32C701.19,-203.87 687.37,-192.06 678.14,-184.17"/>
<polygon fill="#63b8ff" stroke="#63b8ff" points="710.16,-216.15 720.04,-219.98 714.71,-210.83 710.16,-216.15"/>
</a>
</g>
</g>
<!-- Node37 -->
<g id="Node000037" class="node">
<title>Node37</title>
<g id="a_Node000037"><a xlink:href="../../db/d17/led_8cpp.xhtml" target="_top" xlink:title=" ">
<polygon fill="white" stroke="#666666" points="768,-184 716,-184 716,-165 768,-165 768,-184"/>
<text text-anchor="middle" x="742" y="-172" font-family="Helvetica,sans-Serif" font-size="10.00">led.cpp</text>
</a>
</g>
</g>
<!-- Node36&#45;&gt;Node37 -->
<g id="edge51_Node000036_Node000037" class="edge">
<title>Node36&#45;&gt;Node37</title>
<g id="a_edge51_Node000036_Node000037"><a xlink:title=" ">
<path fill="none" stroke="#63b8ff" d="M734.2,-209.95C736.19,-201.15 738.48,-191.06 740.06,-184.09"/>
<polygon fill="#63b8ff" stroke="#63b8ff" points="730.78,-209.22 731.98,-219.75 737.6,-210.77 730.78,-209.22"/>
</a>
</g>
</g>
</g>
</svg>

<g id="navigator" transform="translate(0 0)" fill="#404254">
  <rect fill="#f2f5e9" fill-opacity="0.5" stroke="#606060" stroke-width=".5" x="0" y="0" width="60" height="60"/>
  <use id="zoomplus" xlink:href="#zoomPlus" x="17" y="9" onmousedown="handleZoom(evt,'in')"/>
  <use id="zoomminus" xlink:href="#zoomMin" x="42" y="9" onmousedown="handleZoom(evt,'out')"/>
  <use id="reset" xlink:href="#resetDef" x="30" y="36" onmousedown="handleReset()"/>
   <use id="arrowup" xlink:href="#arrowUp" x="0" y="0" onmousedown="handlePan(0,-1)"/>
  <use id="arrowright" xlink:href="#arrowRight" x="0" y="0" onmousedown="handlePan(1,0)"/>
  <use id="arrowdown" xlink:href="#arrowDown" x="0" y="0" onmousedown="handlePan(0,1)"/>
  <use id="arrowleft" xlink:href="#arrowLeft" x="0" y="0" onmousedown="handlePan(-1,0)"/>
</g>
<svg viewBox="0 0 15 15" width="100%" height="30px" preserveAspectRatio="xMaxYMin meet">
 <g id="arrow_out" transform="scale(0.3 0.3)">
  <a xlink:href="SdFat_8h__dep__incl_org.svg" target="_base">
   <rect id="button" ry="5" rx="5" y="6" x="6" height="38" width="38"
        fill="#f2f5e9" fill-opacity="0.5" stroke="#606060" stroke-width="1.0"/>
   <path id="arrow"
     d="M 11.500037,31.436501 C 11.940474,20.09759 22.043105,11.32322 32.158766,21.979434 L 37.068811,17.246167 C 37.068811,17.246167 37.088388,32 37.088388,32 L 22.160133,31.978069 C 22.160133,31.978069 26.997745,27.140456 26.997745,27.140456 C 18.528582,18.264221 13.291696,25.230495 11.500037,31.436501 z"
     style="fill:#404040;"/>
  </a>
 </g>
</svg>

<style type='text/css'>
<![CDATA[
[data-mouse-over-selected='false'] { opacity: 0.7; }
[data-mouse-over-selected='true']  { opacity: 1.0; }
]]>
</style>
<script type="application/ecmascript"><![CDATA[
document.addEventListener('DOMContentLoaded', (event) => {
  highlightEdges();
  highlightAdjacentNodes();
});
]]></script>
</svg>
