<?xml version="1.0" encoding="UTF-8" standalone="no"?>
<!DOCTYPE svg PUBLIC "-//W3C//DTD SVG 1.1//EN"
 "http://www.w3.org/Graphics/SVG/1.1/DTD/svg11.dtd">
<!-- Generated by graphviz version 2.43.0 (0)
 -->
<!-- Title: DedicatedSpiCard::readSectors Pages: 1 -->
<svg width="1660pt" height="420pt"
 viewBox="0.00 0.00 1660.00 419.50" xmlns="http://www.w3.org/2000/svg" xmlns:xlink="http://www.w3.org/1999/xlink">
<g id="graph0" class="graph" transform="scale(1 1) rotate(0) translate(4 415.5)">
<title>DedicatedSpiCard::readSectors</title>
<!-- Node1 -->
<g id="Node000001" class="node">
<title>Node1</title>
<g id="a_Node000001"><a xlink:title=" ">
<polygon fill="#999999" stroke="#666666" points="167,-76 0,-76 0,-57 167,-57 167,-76"/>
<text text-anchor="middle" x="83.5" y="-64" font-family="Helvetica,sans-Serif" font-size="10.00">DedicatedSpiCard::readSectors</text>
</a>
</g>
</g>
<!-- Node2 -->
<g id="Node000002" class="node">
<title>Node2</title>
<g id="a_Node000002"><a xlink:href="../../d8/d7f/classSharedSpiCard_abeae3cdc162f24c2d450abe4e1ed8340.xhtml#abeae3cdc162f24c2d450abe4e1ed8340" target="_top" xlink:title=" ">
<polygon fill="white" stroke="#666666" points="342,-151 203,-151 203,-132 342,-132 342,-151"/>
<text text-anchor="middle" x="272.5" y="-139" font-family="Helvetica,sans-Serif" font-size="10.00">SharedSpiCard::readData</text>
</a>
</g>
</g>
<!-- Node1&#45;&gt;Node2 -->
<g id="edge1_Node000001_Node000002" class="edge">
<title>Node1&#45;&gt;Node2</title>
<g id="a_edge1_Node000001_Node000002"><a xlink:title=" ">
<path fill="none" stroke="#63b8ff" d="M102.16,-76.02C124.96,-88.03 166.1,-108.78 203,-122.5 209.37,-124.87 216.18,-127.1 222.93,-129.14"/>
<polygon fill="#63b8ff" stroke="#63b8ff" points="222.15,-132.56 232.73,-131.99 224.1,-125.84 222.15,-132.56"/>
</a>
</g>
</g>
<!-- Node3 -->
<g id="Node000003" class="node">
<title>Node3</title>
<g id="a_Node000003"><a xlink:href="../../d8/d7f/classSharedSpiCard_a0b1805d2eb0cd18141e8e180a967b816.xhtml#a0b1805d2eb0cd18141e8e180a967b816" target="_top" xlink:title=" ">
<polygon fill="white" stroke="#666666" points="342,-114 203,-114 203,-95 342,-95 342,-114"/>
<text text-anchor="middle" x="272.5" y="-102" font-family="Helvetica,sans-Serif" font-size="10.00">SharedSpiCard::readStart</text>
</a>
</g>
</g>
<!-- Node1&#45;&gt;Node3 -->
<g id="edge3_Node000001_Node000003" class="edge">
<title>Node1&#45;&gt;Node3</title>
<g id="a_edge3_Node000001_Node000003"><a xlink:title=" ">
<path fill="none" stroke="#63b8ff" d="M131.69,-76.09C156.92,-81.22 188.17,-87.57 214.73,-92.96"/>
<polygon fill="#63b8ff" stroke="#63b8ff" points="214.15,-96.42 224.65,-94.98 215.55,-89.56 214.15,-96.42"/>
</a>
</g>
</g>
<!-- Node17 -->
<g id="Node000017" class="node">
<title>Node17</title>
<g id="a_Node000017"><a xlink:href="../../d8/d7f/classSharedSpiCard_ab33ad2aefbb9cff905cad0879dffc78b.xhtml#ab33ad2aefbb9cff905cad0879dffc78b" target="_top" xlink:title=" ">
<polygon fill="white" stroke="#666666" points="903.5,-209 766.5,-209 766.5,-190 903.5,-190 903.5,-209"/>
<text text-anchor="middle" x="835" y="-197" font-family="Helvetica,sans-Serif" font-size="10.00">SharedSpiCard::readStop</text>
</a>
</g>
</g>
<!-- Node1&#45;&gt;Node17 -->
<g id="edge40_Node000001_Node000017" class="edge">
<title>Node1&#45;&gt;Node17</title>
<g id="a_edge40_Node000001_Node000017"><a xlink:title=" ">
<path fill="none" stroke="#63b8ff" d="M167.16,-72.16C217.68,-75.73 283.6,-80.59 342,-85.5 431.42,-93.02 455.15,-86.24 543,-104.5 639.05,-124.46 747.9,-165.03 801.14,-186.11"/>
<polygon fill="#63b8ff" stroke="#63b8ff" points="800.13,-189.48 810.72,-189.93 802.73,-182.98 800.13,-189.48"/>
</a>
</g>
</g>
<!-- Node29 -->
<g id="Node000029" class="node">
<title>Node29</title>
<g id="a_Node000029"><a xlink:href="../../d8/d7f/classSharedSpiCard_a3f089160d2ea9662c8c1f7a67f700ea1.xhtml#a3f089160d2ea9662c8c1f7a67f700ea1" target="_top" xlink:title=" ">
<polygon fill="white" stroke="#666666" points="338,-19 207,-19 207,0 338,0 338,-19"/>
<text text-anchor="middle" x="272.5" y="-7" font-family="Helvetica,sans-Serif" font-size="10.00">SharedSpiCard::sdState</text>
</a>
</g>
</g>
<!-- Node1&#45;&gt;Node29 -->
<g id="edge41_Node000001_Node000029" class="edge">
<title>Node1&#45;&gt;Node29</title>
<g id="a_edge41_Node000001_Node000029"><a xlink:title=" ">
<path fill="none" stroke="#63b8ff" d="M115.8,-56.96C147.22,-47.38 195.78,-32.58 230.31,-22.05"/>
<polygon fill="#63b8ff" stroke="#63b8ff" points="231.55,-25.34 240.1,-19.07 229.51,-18.64 231.55,-25.34"/>
</a>
</g>
</g>
<!-- Node2&#45;&gt;Node2 -->
<g id="edge2_Node000002_Node000002" class="edge">
<title>Node2&#45;&gt;Node2</title>
<g id="a_edge2_Node000002_Node000002"><a xlink:title=" ">
<path fill="none" stroke="#63b8ff" d="M243.52,-151.08C229.43,-159.73 239.09,-169 272.5,-169 295.47,-169 307.22,-164.62 307.73,-159.07"/>
<polygon fill="#63b8ff" stroke="#63b8ff" points="310.4,-156.8 301.48,-151.08 304.89,-161.11 310.4,-156.8"/>
</a>
</g>
</g>
<!-- Node4 -->
<g id="Node000004" class="node">
<title>Node4</title>
<g id="a_Node000004"><a xlink:href="../../d8/d7f/classSharedSpiCard_adda33199753fc2aec74fe317cbaabc06.xhtml#adda33199753fc2aec74fe317cbaabc06" target="_top" xlink:title=" ">
<polygon fill="white" stroke="#666666" points="543,-285 378,-285 378,-266 543,-266 543,-285"/>
<text text-anchor="middle" x="460.5" y="-273" font-family="Helvetica,sans-Serif" font-size="10.00">SharedSpiCard::cardCommand</text>
</a>
</g>
</g>
<!-- Node3&#45;&gt;Node4 -->
<g id="edge4_Node000003_Node000004" class="edge">
<title>Node3&#45;&gt;Node4</title>
<g id="a_edge4_Node000003_Node000004"><a xlink:title=" ">
<path fill="none" stroke="#63b8ff" d="M326.13,-114.09C331.76,-116.33 337.18,-119.09 342,-122.5 365.25,-138.94 360.99,-152.66 378,-175.5 400.14,-205.23 427.72,-238.31 444.45,-257.99"/>
<polygon fill="#63b8ff" stroke="#63b8ff" points="441.96,-260.46 451.11,-265.79 447.28,-255.91 441.96,-260.46"/>
</a>
</g>
</g>
<!-- Node18 -->
<g id="Node000018" class="node">
<title>Node18</title>
<g id="a_Node000018"><a xlink:href="../../d8/d7f/classSharedSpiCard_a747c3f0b962098cf0c097f3c4c2b4fd4.xhtml#a747c3f0b962098cf0c097f3c4c2b4fd4" target="_top" xlink:title=" ">
<polygon fill="white" stroke="#666666" points="1072.5,-172 955.5,-172 955.5,-153 1072.5,-153 1072.5,-172"/>
<text text-anchor="middle" x="1014" y="-160" font-family="Helvetica,sans-Serif" font-size="10.00">SharedSpiCard::error</text>
</a>
</g>
</g>
<!-- Node3&#45;&gt;Node18 -->
<g id="edge37_Node000003_Node000018" class="edge">
<title>Node3&#45;&gt;Node18</title>
<g id="a_edge37_Node000003_Node000018"><a xlink:title=" ">
<path fill="none" stroke="#63b8ff" d="M342,-95.1C459.25,-81.2 705.08,-61.63 905,-109.5 936.32,-117 969.09,-134.69 990.2,-147.58"/>
<polygon fill="#63b8ff" stroke="#63b8ff" points="988.43,-150.6 998.76,-152.93 992.14,-144.66 988.43,-150.6"/>
</a>
</g>
</g>
<!-- Node19 -->
<g id="Node000019" class="node">
<title>Node19</title>
<g id="a_Node000019"><a xlink:href="../../d8/d7f/classSharedSpiCard_a0f511c39c50055a4fc97e720933aee3a.xhtml#a0f511c39c50055a4fc97e720933aee3a" target="_top" xlink:title=" ">
<polygon fill="white" stroke="#666666" points="1079,-209 949,-209 949,-190 1079,-190 1079,-209"/>
<text text-anchor="middle" x="1014" y="-197" font-family="Helvetica,sans-Serif" font-size="10.00">SharedSpiCard::spiStop</text>
</a>
</g>
</g>
<!-- Node3&#45;&gt;Node19 -->
<g id="edge38_Node000003_Node000019" class="edge">
<title>Node3&#45;&gt;Node19</title>
<g id="a_edge38_Node000003_Node000019"><a xlink:title=" ">
<path fill="none" stroke="#63b8ff" d="M316.01,-114.05C324.72,-116.46 333.75,-119.29 342,-122.5 358.86,-129.06 360.61,-136.5 378,-141.5 603.73,-206.35 671.94,-151.45 905,-180.5 921.35,-182.54 938.99,-185.37 955.17,-188.22"/>
<polygon fill="#63b8ff" stroke="#63b8ff" points="954.58,-191.67 965.04,-190 955.82,-184.78 954.58,-191.67"/>
</a>
</g>
</g>
<!-- Node28 -->
<g id="Node000028" class="node">
<title>Node28</title>
<g id="a_Node000028"><a xlink:href="../../d8/d7f/classSharedSpiCard_a7dac2190763d7b4b72163ed7131e8a87.xhtml#a7dac2190763d7b4b72163ed7131e8a87" target="_top" xlink:title=" ">
<polygon fill="white" stroke="#666666" points="518.5,-133 402.5,-133 402.5,-114 518.5,-114 518.5,-133"/>
<text text-anchor="middle" x="460.5" y="-121" font-family="Helvetica,sans-Serif" font-size="10.00">SharedSpiCard::type</text>
</a>
</g>
</g>
<!-- Node3&#45;&gt;Node28 -->
<g id="edge39_Node000003_Node000028" class="edge">
<title>Node3&#45;&gt;Node28</title>
<g id="a_edge39_Node000003_Node000028"><a xlink:title=" ">
<path fill="none" stroke="#63b8ff" d="M342.23,-111.52C358.6,-113.19 376.05,-114.98 392.34,-116.64"/>
<polygon fill="#63b8ff" stroke="#63b8ff" points="392.02,-120.12 402.32,-117.66 392.73,-113.16 392.02,-120.12"/>
</a>
</g>
</g>
<!-- Node5 -->
<g id="Node000005" class="node">
<title>Node5</title>
<g id="a_Node000005"><a xlink:href="../../d8/d7f/classSharedSpiCard_a08363209d938db87521cca6a84146041.xhtml#a08363209d938db87521cca6a84146041" target="_top" xlink:title=" ">
<polygon fill="white" stroke="#666666" points="1277,-399 1130,-399 1130,-380 1277,-380 1277,-399"/>
<text text-anchor="middle" x="1203.5" y="-387" font-family="Helvetica,sans-Serif" font-size="10.00">SharedSpiCard::spiReceive</text>
</a>
</g>
</g>
<!-- Node4&#45;&gt;Node5 -->
<g id="edge5_Node000004_Node000005" class="edge">
<title>Node4&#45;&gt;Node5</title>
<g id="a_edge5_Node000004_Node000005"><a xlink:title=" ">
<path fill="none" stroke="#63b8ff" d="M476.78,-285.02C498.57,-298.1 540.24,-321.27 579,-332.5 766.68,-386.88 998.21,-393 1119.48,-391.81"/>
<polygon fill="#63b8ff" stroke="#63b8ff" points="1119.84,-395.31 1129.79,-391.69 1119.75,-388.31 1119.84,-395.31"/>
</a>
</g>
</g>
<!-- Node7 -->
<g id="Node000007" class="node">
<title>Node7</title>
<g id="a_Node000007"><a xlink:href="../../d8/d7f/classSharedSpiCard_ab311b9ad8a250f06afbe091f7abb118b.xhtml#ab311b9ad8a250f06afbe091f7abb118b" target="_top" xlink:title=" ">
<polygon fill="white" stroke="#666666" points="1269.5,-247 1137.5,-247 1137.5,-228 1269.5,-228 1269.5,-247"/>
<text text-anchor="middle" x="1203.5" y="-235" font-family="Helvetica,sans-Serif" font-size="10.00">SharedSpiCard::spiSend</text>
</a>
</g>
</g>
<!-- Node4&#45;&gt;Node7 -->
<g id="edge7_Node000004_Node000007" class="edge">
<title>Node4&#45;&gt;Node7</title>
<g id="a_edge7_Node000004_Node000007"><a xlink:title=" ">
<path fill="none" stroke="#63b8ff" d="M543.09,-274.51C662.62,-272.57 892.28,-267.01 1087,-251.5 1100,-250.46 1113.78,-249.06 1127.13,-247.54"/>
<polygon fill="#63b8ff" stroke="#63b8ff" points="1127.71,-251 1137.24,-246.36 1126.9,-244.05 1127.71,-251"/>
</a>
</g>
</g>
<!-- Node9 -->
<g id="Node000009" class="node">
<title>Node9</title>
<g id="a_Node000009"><a xlink:href="../../d8/d7f/classSharedSpiCard_aef2dfa72e8d5643c90720f9f8c6a4254.xhtml#aef2dfa72e8d5643c90720f9f8c6a4254" target="_top" xlink:title=" ">
<polygon fill="white" stroke="#666666" points="1079.5,-323 948.5,-323 948.5,-304 1079.5,-304 1079.5,-323"/>
<text text-anchor="middle" x="1014" y="-311" font-family="Helvetica,sans-Serif" font-size="10.00">SharedSpiCard::spiStart</text>
</a>
</g>
</g>
<!-- Node4&#45;&gt;Node9 -->
<g id="edge9_Node000004_Node000009" class="edge">
<title>Node4&#45;&gt;Node9</title>
<g id="a_edge9_Node000004_Node000009"><a xlink:title=" ">
<path fill="none" stroke="#63b8ff" d="M535.39,-285.03C549.83,-286.69 564.88,-288.27 579,-289.5 704.83,-300.46 851.64,-307.35 938.21,-310.8"/>
<polygon fill="#63b8ff" stroke="#63b8ff" points="938.07,-314.3 948.2,-311.2 938.35,-307.31 938.07,-314.3"/>
</a>
</g>
</g>
<!-- Node16 -->
<g id="Node000016" class="node">
<title>Node16</title>
<g id="a_Node000016"><a xlink:href="../../d8/d7f/classSharedSpiCard_a2f181b3d6f27413a0f5ee883dfd94d87.xhtml#a2f181b3d6f27413a0f5ee883dfd94d87" target="_top" xlink:title=" ">
<polygon fill="white" stroke="#666666" points="729,-247 579,-247 579,-228 729,-228 729,-247"/>
<text text-anchor="middle" x="654" y="-235" font-family="Helvetica,sans-Serif" font-size="10.00">SharedSpiCard::syncDevice</text>
</a>
</g>
</g>
<!-- Node4&#45;&gt;Node16 -->
<g id="edge17_Node000004_Node000016" class="edge">
<title>Node4&#45;&gt;Node16</title>
<g id="a_edge17_Node000004_Node000016"><a xlink:title=" ">
<path fill="none" stroke="#63b8ff" d="M509.82,-265.91C535.66,-260.78 567.67,-254.43 594.86,-249.04"/>
<polygon fill="#63b8ff" stroke="#63b8ff" points="595.9,-252.4 605.02,-247.02 594.53,-245.53 595.9,-252.4"/>
</a>
</g>
</g>
<!-- Node24 -->
<g id="Node000024" class="node">
<title>Node24</title>
<g id="a_Node000024"><a xlink:href="../../d8/d7f/classSharedSpiCard_ab3468397bb3b12d29dd2f31e45b3dcaf.xhtml#ab3468397bb3b12d29dd2f31e45b3dcaf" target="_top" xlink:title=" ">
<polygon fill="white" stroke="#666666" points="1087,-361 941,-361 941,-342 1087,-342 1087,-361"/>
<text text-anchor="middle" x="1014" y="-349" font-family="Helvetica,sans-Serif" font-size="10.00">SharedSpiCard::waitReady</text>
</a>
</g>
</g>
<!-- Node4&#45;&gt;Node24 -->
<g id="edge36_Node000004_Node000024" class="edge">
<title>Node4&#45;&gt;Node24</title>
<g id="a_edge36_Node000004_Node000024"><a xlink:title=" ">
<path fill="none" stroke="#63b8ff" d="M490.14,-285.06C513.73,-292.57 548.18,-302.69 579,-308.5 700.14,-331.33 842.72,-342.51 930.49,-347.63"/>
<polygon fill="#63b8ff" stroke="#63b8ff" points="930.47,-351.13 940.65,-348.21 930.86,-344.15 930.47,-351.13"/>
</a>
</g>
</g>
<!-- Node6 -->
<g id="Node000006" class="node">
<title>Node6</title>
<g id="a_Node000006"><a xlink:href="../../d0/d25/classSdSpiArduinoDriver_a8d6bc852a52e9d69c4b1e48ee062e8d1.xhtml#a8d6bc852a52e9d69c4b1e48ee062e8d1" target="_top" xlink:title=" ">
<polygon fill="white" stroke="#666666" points="1431,-411.5 1320,-411.5 1320,-381.5 1431,-381.5 1431,-411.5"/>
<text text-anchor="start" x="1328" y="-399.5" font-family="Helvetica,sans-Serif" font-size="10.00">SdSpiArduinoDriver</text>
<text text-anchor="middle" x="1375.5" y="-388.5" font-family="Helvetica,sans-Serif" font-size="10.00">::receive</text>
</a>
</g>
</g>
<!-- Node5&#45;&gt;Node6 -->
<g id="edge6_Node000005_Node000006" class="edge">
<title>Node5&#45;&gt;Node6</title>
<g id="a_edge6_Node000005_Node000006"><a xlink:title=" ">
<path fill="none" stroke="#63b8ff" d="M1277.09,-392.49C1287.96,-392.94 1299.11,-393.4 1309.81,-393.84"/>
<polygon fill="#63b8ff" stroke="#63b8ff" points="1309.76,-397.34 1319.9,-394.25 1310.05,-390.34 1309.76,-397.34"/>
</a>
</g>
</g>
<!-- Node8 -->
<g id="Node000008" class="node">
<title>Node8</title>
<g id="a_Node000008"><a xlink:href="../../d0/d25/classSdSpiArduinoDriver_a3c4842e47f98fe5d3799cd6028778ab5.xhtml#a3c4842e47f98fe5d3799cd6028778ab5" target="_top" xlink:title=" ">
<polygon fill="white" stroke="#666666" points="1431,-239.5 1320,-239.5 1320,-209.5 1431,-209.5 1431,-239.5"/>
<text text-anchor="start" x="1328" y="-227.5" font-family="Helvetica,sans-Serif" font-size="10.00">SdSpiArduinoDriver</text>
<text text-anchor="middle" x="1375.5" y="-216.5" font-family="Helvetica,sans-Serif" font-size="10.00">::send</text>
</a>
</g>
</g>
<!-- Node7&#45;&gt;Node8 -->
<g id="edge8_Node000007_Node000008" class="edge">
<title>Node7&#45;&gt;Node8</title>
<g id="a_edge8_Node000007_Node000008"><a xlink:title=" ">
<path fill="none" stroke="#63b8ff" d="M1269.74,-232.51C1282.82,-231.51 1296.56,-230.46 1309.62,-229.46"/>
<polygon fill="#63b8ff" stroke="#63b8ff" points="1310.22,-232.93 1319.93,-228.67 1309.69,-225.95 1310.22,-232.93"/>
</a>
</g>
</g>
<!-- Node9&#45;&gt;Node7 -->
<g id="edge16_Node000009_Node000007" class="edge">
<title>Node9&#45;&gt;Node7</title>
<g id="a_edge16_Node000009_Node000007"><a xlink:title=" ">
<path fill="none" stroke="#63b8ff" d="M1053.67,-303.9C1064.85,-300.27 1076.78,-295.51 1087,-289.5 1105.71,-278.49 1103.83,-266.68 1123,-256.5 1127.32,-254.21 1131.91,-252.19 1136.63,-250.41"/>
<polygon fill="#63b8ff" stroke="#63b8ff" points="1138.09,-253.61 1146.44,-247.09 1135.84,-246.98 1138.09,-253.61"/>
</a>
</g>
</g>
<!-- Node10 -->
<g id="Node000010" class="node">
<title>Node10</title>
<g id="a_Node000010"><a xlink:href="../../d8/d7f/classSharedSpiCard_a69ee2fe49dfaeea2347d8a265806d2b6.xhtml#a69ee2fe49dfaeea2347d8a265806d2b6" target="_top" xlink:title=" ">
<polygon fill="white" stroke="#666666" points="1278,-322 1129,-322 1129,-303 1278,-303 1278,-322"/>
<text text-anchor="middle" x="1203.5" y="-310" font-family="Helvetica,sans-Serif" font-size="10.00">SharedSpiCard::spiActivate</text>
</a>
</g>
</g>
<!-- Node9&#45;&gt;Node10 -->
<g id="edge10_Node000009_Node000010" class="edge">
<title>Node9&#45;&gt;Node10</title>
<g id="a_edge10_Node000009_Node000010"><a xlink:title=" ">
<path fill="none" stroke="#63b8ff" d="M1079.53,-313.16C1092.19,-313.09 1105.64,-313.02 1118.82,-312.95"/>
<polygon fill="#63b8ff" stroke="#63b8ff" points="1118.86,-316.45 1128.84,-312.89 1118.82,-309.45 1118.86,-316.45"/>
</a>
</g>
</g>
<!-- Node12 -->
<g id="Node000012" class="node">
<title>Node12</title>
<g id="a_Node000012"><a xlink:href="../../d8/d7f/classSharedSpiCard_a8c3088599862ff6e84ae79bfdf32aea8.xhtml#a8c3088599862ff6e84ae79bfdf32aea8" target="_top" xlink:title=" ">
<polygon fill="white" stroke="#666666" points="1272.5,-285 1134.5,-285 1134.5,-266 1272.5,-266 1272.5,-285"/>
<text text-anchor="middle" x="1203.5" y="-273" font-family="Helvetica,sans-Serif" font-size="10.00">SharedSpiCard::spiSelect</text>
</a>
</g>
</g>
<!-- Node9&#45;&gt;Node12 -->
<g id="edge12_Node000009_Node000012" class="edge">
<title>Node9&#45;&gt;Node12</title>
<g id="a_edge12_Node000009_Node000012"><a xlink:title=" ">
<path fill="none" stroke="#63b8ff" d="M1062.31,-303.91C1087.61,-298.78 1118.95,-292.43 1145.57,-287.04"/>
<polygon fill="#63b8ff" stroke="#63b8ff" points="1146.42,-290.44 1155.53,-285.02 1145.03,-283.58 1146.42,-290.44"/>
</a>
</g>
</g>
<!-- Node11 -->
<g id="Node000011" class="node">
<title>Node11</title>
<g id="a_Node000011"><a xlink:href="../../d0/d25/classSdSpiArduinoDriver_abb6b88c5c8b87fc344a69f23f6eab3d9.xhtml#abb6b88c5c8b87fc344a69f23f6eab3d9" target="_top" xlink:title=" ">
<polygon fill="white" stroke="#666666" points="1431,-325.5 1320,-325.5 1320,-295.5 1431,-295.5 1431,-325.5"/>
<text text-anchor="start" x="1328" y="-313.5" font-family="Helvetica,sans-Serif" font-size="10.00">SdSpiArduinoDriver</text>
<text text-anchor="middle" x="1375.5" y="-302.5" font-family="Helvetica,sans-Serif" font-size="10.00">::activate</text>
</a>
</g>
</g>
<!-- Node10&#45;&gt;Node11 -->
<g id="edge11_Node000010_Node000011" class="edge">
<title>Node10&#45;&gt;Node11</title>
<g id="a_edge11_Node000010_Node000011"><a xlink:title=" ">
<path fill="none" stroke="#63b8ff" d="M1278.08,-311.63C1288.57,-311.51 1299.31,-311.38 1309.63,-311.26"/>
<polygon fill="#63b8ff" stroke="#63b8ff" points="1309.82,-314.76 1319.78,-311.14 1309.74,-307.76 1309.82,-314.76"/>
</a>
</g>
</g>
<!-- Node13 -->
<g id="Node000013" class="node">
<title>Node13</title>
<g id="a_Node000013"><a xlink:href="../../d2/df0/SdSpiChipSelect_8cpp_ac469bbe2d31ffde9b00ffc68258d7428.xhtml#ac469bbe2d31ffde9b00ffc68258d7428" target="_top" xlink:title=" ">
<polygon fill="white" stroke="#666666" points="1408.5,-277 1342.5,-277 1342.5,-258 1408.5,-258 1408.5,-277"/>
<text text-anchor="middle" x="1375.5" y="-265" font-family="Helvetica,sans-Serif" font-size="10.00">sdCsWrite</text>
</a>
</g>
</g>
<!-- Node12&#45;&gt;Node13 -->
<g id="edge13_Node000012_Node000013" class="edge">
<title>Node12&#45;&gt;Node13</title>
<g id="a_edge13_Node000012_Node000013"><a xlink:title=" ">
<path fill="none" stroke="#63b8ff" d="M1272.67,-272.29C1292.74,-271.35 1314.12,-270.34 1332.09,-269.5"/>
<polygon fill="#63b8ff" stroke="#63b8ff" points="1332.41,-272.98 1342.23,-269.02 1332.08,-265.99 1332.41,-272.98"/>
</a>
</g>
</g>
<!-- Node14 -->
<g id="Node000014" class="node">
<title>Node14</title>
<g id="a_Node000014"><a xlink:href="../../d5/d45/wiring__digital_8c_a73b9b61feeaf7d790d107f2954a7fd93.xhtml#a73b9b61feeaf7d790d107f2954a7fd93" target="_top" xlink:title=" ">
<polygon fill="white" stroke="#666666" points="1541,-277 1467,-277 1467,-258 1541,-258 1541,-277"/>
<text text-anchor="middle" x="1504" y="-265" font-family="Helvetica,sans-Serif" font-size="10.00">digitalWrite</text>
</a>
</g>
</g>
<!-- Node13&#45;&gt;Node14 -->
<g id="edge14_Node000013_Node000014" class="edge">
<title>Node13&#45;&gt;Node14</title>
<g id="a_edge14_Node000013_Node000014"><a xlink:title=" ">
<path fill="none" stroke="#63b8ff" d="M1408.75,-267.5C1423.28,-267.5 1440.71,-267.5 1456.61,-267.5"/>
<polygon fill="#63b8ff" stroke="#63b8ff" points="1456.79,-271 1466.79,-267.5 1456.79,-264 1456.79,-271"/>
</a>
</g>
</g>
<!-- Node15 -->
<g id="Node000015" class="node">
<title>Node15</title>
<g id="a_Node000015"><a xlink:href="../../d5/d45/wiring__digital_8c_ae3d0bcbe4eb927ca8f5d5c21b7e4f224.xhtml#ae3d0bcbe4eb927ca8f5d5c21b7e4f224" target="_top" xlink:title=" ">
<polygon fill="white" stroke="#666666" points="1652,-277 1577,-277 1577,-258 1652,-258 1652,-277"/>
<text text-anchor="middle" x="1614.5" y="-265" font-family="Helvetica,sans-Serif" font-size="10.00">turnOffPWM</text>
</a>
</g>
</g>
<!-- Node14&#45;&gt;Node15 -->
<g id="edge15_Node000014_Node000015" class="edge">
<title>Node14&#45;&gt;Node15</title>
<g id="a_edge15_Node000014_Node000015"><a xlink:title=" ">
<path fill="none" stroke="#63b8ff" d="M1541.13,-267.5C1549.28,-267.5 1558.05,-267.5 1566.57,-267.5"/>
<polygon fill="#63b8ff" stroke="#63b8ff" points="1566.79,-271 1576.79,-267.5 1566.79,-264 1566.79,-271"/>
</a>
</g>
</g>
<!-- Node16&#45;&gt;Node17 -->
<g id="edge18_Node000016_Node000017" class="edge">
<title>Node16&#45;&gt;Node17</title>
<g id="a_edge18_Node000016_Node000017"><a xlink:title=" ">
<path fill="none" stroke="#63b8ff" d="M700.17,-227.91C724.22,-222.81 753.97,-216.49 779.32,-211.11"/>
<polygon fill="#63b8ff" stroke="#63b8ff" points="780.1,-214.52 789.16,-209.02 778.65,-207.67 780.1,-214.52"/>
</a>
</g>
</g>
<!-- Node23 -->
<g id="Node000023" class="node">
<title>Node23</title>
<g id="a_Node000023"><a xlink:href="../../d8/d7f/classSharedSpiCard_ae9a34a573077e43e7c6028a16ae77fb3.xhtml#ae9a34a573077e43e7c6028a16ae77fb3" target="_top" xlink:title=" ">
<polygon fill="white" stroke="#666666" points="905,-247 765,-247 765,-228 905,-228 905,-247"/>
<text text-anchor="middle" x="835" y="-235" font-family="Helvetica,sans-Serif" font-size="10.00">SharedSpiCard::writeStop</text>
</a>
</g>
</g>
<!-- Node16&#45;&gt;Node23 -->
<g id="edge27_Node000016_Node000023" class="edge">
<title>Node16&#45;&gt;Node23</title>
<g id="a_edge27_Node000016_Node000023"><a xlink:title=" ">
<path fill="none" stroke="#63b8ff" d="M729.1,-237.5C737.51,-237.5 746.11,-237.5 754.58,-237.5"/>
<polygon fill="#63b8ff" stroke="#63b8ff" points="754.84,-241 764.84,-237.5 754.84,-234 754.84,-241"/>
</a>
</g>
</g>
<!-- Node17&#45;&gt;Node4 -->
<g id="edge19_Node000017_Node000004" class="edge">
<title>Node17&#45;&gt;Node4</title>
<g id="a_edge19_Node000017_Node000004"><a xlink:title=" ">
<path fill="none" stroke="#63b8ff" d="M766.27,-197.68C714.2,-197.92 640.94,-201.82 579,-218.5 544.56,-227.77 508.07,-247.18 485.06,-260.76"/>
<polygon fill="#63b8ff" stroke="#63b8ff" points="483.12,-257.84 476.36,-266 486.73,-263.84 483.12,-257.84"/>
</a>
</g>
</g>
<!-- Node17&#45;&gt;Node18 -->
<g id="edge20_Node000017_Node000018" class="edge">
<title>Node17&#45;&gt;Node18</title>
<g id="a_edge20_Node000017_Node000018"><a xlink:title=" ">
<path fill="none" stroke="#63b8ff" d="M881.58,-189.97C904.72,-185.14 933.02,-179.22 957.42,-174.12"/>
<polygon fill="#63b8ff" stroke="#63b8ff" points="958.19,-177.53 967.27,-172.06 956.76,-170.68 958.19,-177.53"/>
</a>
</g>
</g>
<!-- Node17&#45;&gt;Node19 -->
<g id="edge21_Node000017_Node000019" class="edge">
<title>Node17&#45;&gt;Node19</title>
<g id="a_edge21_Node000017_Node000019"><a xlink:title=" ">
<path fill="none" stroke="#63b8ff" d="M903.67,-199.5C915.15,-199.5 927.12,-199.5 938.75,-199.5"/>
<polygon fill="#63b8ff" stroke="#63b8ff" points="938.86,-203 948.86,-199.5 938.86,-196 938.86,-203"/>
</a>
</g>
</g>
<!-- Node19&#45;&gt;Node7 -->
<g id="edge24_Node000019_Node000007" class="edge">
<title>Node19&#45;&gt;Node7</title>
<g id="a_edge24_Node000019_Node000007"><a xlink:title=" ">
<path fill="none" stroke="#63b8ff" d="M1062.31,-209.09C1087.61,-214.22 1118.95,-220.57 1145.57,-225.96"/>
<polygon fill="#63b8ff" stroke="#63b8ff" points="1145.03,-229.42 1155.53,-227.98 1146.42,-222.56 1145.03,-229.42"/>
</a>
</g>
</g>
<!-- Node20 -->
<g id="Node000020" class="node">
<title>Node20</title>
<g id="a_Node000020"><a xlink:href="../../d8/d7f/classSharedSpiCard_ac6acfca5a23337977d2e4436ab8ab39a.xhtml#ac6acfca5a23337977d2e4436ab8ab39a" target="_top" xlink:title=" ">
<polygon fill="white" stroke="#666666" points="1284,-173 1123,-173 1123,-154 1284,-154 1284,-173"/>
<text text-anchor="middle" x="1203.5" y="-161" font-family="Helvetica,sans-Serif" font-size="10.00">SharedSpiCard::spiDeactivate</text>
</a>
</g>
</g>
<!-- Node19&#45;&gt;Node20 -->
<g id="edge22_Node000019_Node000020" class="edge">
<title>Node19&#45;&gt;Node20</title>
<g id="a_edge22_Node000019_Node000020"><a xlink:title=" ">
<path fill="none" stroke="#63b8ff" d="M1064.75,-189.95C1088.69,-185.35 1117.57,-179.81 1142.69,-174.98"/>
<polygon fill="#63b8ff" stroke="#63b8ff" points="1143.68,-178.36 1152.84,-173.03 1142.36,-171.48 1143.68,-178.36"/>
</a>
</g>
</g>
<!-- Node22 -->
<g id="Node000022" class="node">
<title>Node22</title>
<g id="a_Node000022"><a xlink:href="../../d8/d7f/classSharedSpiCard_ad06a3278372300987b97876cf598c114.xhtml#ad06a3278372300987b97876cf598c114" target="_top" xlink:title=" ">
<polygon fill="white" stroke="#666666" points="1279,-210 1128,-210 1128,-191 1279,-191 1279,-210"/>
<text text-anchor="middle" x="1203.5" y="-198" font-family="Helvetica,sans-Serif" font-size="10.00">SharedSpiCard::spiUnselect</text>
</a>
</g>
</g>
<!-- Node19&#45;&gt;Node22 -->
<g id="edge25_Node000019_Node000022" class="edge">
<title>Node19&#45;&gt;Node22</title>
<g id="a_edge25_Node000019_Node000022"><a xlink:title=" ">
<path fill="none" stroke="#63b8ff" d="M1079,-199.84C1091.39,-199.91 1104.55,-199.98 1117.49,-200.05"/>
<polygon fill="#63b8ff" stroke="#63b8ff" points="1117.78,-203.55 1127.8,-200.1 1117.82,-196.55 1117.78,-203.55"/>
</a>
</g>
</g>
<!-- Node21 -->
<g id="Node000021" class="node">
<title>Node21</title>
<g id="a_Node000021"><a xlink:href="../../d0/d25/classSdSpiArduinoDriver_ae88a255f533e3acb41d1221025a69b55.xhtml#ae88a255f533e3acb41d1221025a69b55" target="_top" xlink:title=" ">
<polygon fill="white" stroke="#666666" points="1431,-178.5 1320,-178.5 1320,-148.5 1431,-148.5 1431,-178.5"/>
<text text-anchor="start" x="1328" y="-166.5" font-family="Helvetica,sans-Serif" font-size="10.00">SdSpiArduinoDriver</text>
<text text-anchor="middle" x="1375.5" y="-155.5" font-family="Helvetica,sans-Serif" font-size="10.00">::deactivate</text>
</a>
</g>
</g>
<!-- Node20&#45;&gt;Node21 -->
<g id="edge23_Node000020_Node000021" class="edge">
<title>Node20&#45;&gt;Node21</title>
<g id="a_edge23_Node000020_Node000021"><a xlink:title=" ">
<path fill="none" stroke="#63b8ff" d="M1284.02,-163.5C1292.63,-163.5 1301.3,-163.5 1309.7,-163.5"/>
<polygon fill="#63b8ff" stroke="#63b8ff" points="1309.78,-167 1319.78,-163.5 1309.78,-160 1309.78,-167"/>
</a>
</g>
</g>
<!-- Node22&#45;&gt;Node13 -->
<g id="edge26_Node000022_Node000013" class="edge">
<title>Node22&#45;&gt;Node13</title>
<g id="a_edge26_Node000022_Node000013"><a xlink:title=" ">
<path fill="none" stroke="#63b8ff" d="M1262.08,-210.12C1269.65,-212.36 1277.15,-215.12 1284,-218.5 1302.67,-227.72 1301.88,-238.24 1320,-248.5 1323.98,-250.75 1328.28,-252.81 1332.65,-254.66"/>
<polygon fill="#63b8ff" stroke="#63b8ff" points="1331.66,-258.03 1342.25,-258.4 1334.2,-251.51 1331.66,-258.03"/>
</a>
</g>
</g>
<!-- Node23&#45;&gt;Node7 -->
<g id="edge29_Node000023_Node000007" class="edge">
<title>Node23&#45;&gt;Node7</title>
<g id="a_edge29_Node000023_Node000007"><a xlink:title=" ">
<path fill="none" stroke="#63b8ff" d="M905.37,-237.5C968.7,-237.5 1062.09,-237.5 1127.22,-237.5"/>
<polygon fill="#63b8ff" stroke="#63b8ff" points="1127.42,-241 1137.42,-237.5 1127.42,-234 1127.42,-241"/>
</a>
</g>
</g>
<!-- Node23&#45;&gt;Node18 -->
<g id="edge28_Node000023_Node000018" class="edge">
<title>Node23&#45;&gt;Node18</title>
<g id="a_edge28_Node000023_Node000018"><a xlink:title=" ">
<path fill="none" stroke="#63b8ff" d="M881.58,-227.93C889.69,-225.22 897.84,-221.8 905,-217.5 924.67,-205.69 921.11,-191.94 941,-180.5 944.05,-178.74 947.27,-177.16 950.59,-175.73"/>
<polygon fill="#63b8ff" stroke="#63b8ff" points="952.05,-178.92 960.15,-172.08 949.56,-172.37 952.05,-178.92"/>
</a>
</g>
</g>
<!-- Node23&#45;&gt;Node19 -->
<g id="edge30_Node000023_Node000019" class="edge">
<title>Node23&#45;&gt;Node19</title>
<g id="a_edge30_Node000023_Node000019"><a xlink:title=" ">
<path fill="none" stroke="#63b8ff" d="M880.66,-227.91C904.34,-222.83 933.61,-216.54 958.6,-211.18"/>
<polygon fill="#63b8ff" stroke="#63b8ff" points="959.61,-214.54 968.66,-209.02 958.14,-207.7 959.61,-214.54"/>
</a>
</g>
</g>
<!-- Node23&#45;&gt;Node24 -->
<g id="edge31_Node000023_Node000024" class="edge">
<title>Node23&#45;&gt;Node24</title>
<g id="a_edge31_Node000023_Node000024"><a xlink:title=" ">
<path fill="none" stroke="#63b8ff" d="M843.87,-247.22C859.99,-266.49 898.86,-309.66 941,-332.5 945.18,-334.77 949.65,-336.78 954.24,-338.55"/>
<polygon fill="#63b8ff" stroke="#63b8ff" points="953.17,-341.89 963.76,-341.88 955.48,-335.28 953.17,-341.89"/>
</a>
</g>
</g>
<!-- Node24&#45;&gt;Node5 -->
<g id="edge32_Node000024_Node000005" class="edge">
<title>Node24&#45;&gt;Node5</title>
<g id="a_edge32_Node000024_Node000005"><a xlink:title=" ">
<path fill="none" stroke="#63b8ff" d="M1062.31,-361.09C1087.61,-366.22 1118.95,-372.57 1145.57,-377.96"/>
<polygon fill="#63b8ff" stroke="#63b8ff" points="1145.03,-381.42 1155.53,-379.98 1146.42,-374.56 1145.03,-381.42"/>
</a>
</g>
</g>
<!-- Node25 -->
<g id="Node000025" class="node">
<title>Node25</title>
<g id="a_Node000025"><a xlink:href="../../db/df4/classTimeout_abbabe99f42e52472ddd3a7e9d22dce95.xhtml#abbabe99f42e52472ddd3a7e9d22dce95" target="_top" xlink:title=" ">
<polygon fill="white" stroke="#666666" points="1258,-361 1149,-361 1149,-342 1258,-342 1258,-361"/>
<text text-anchor="middle" x="1203.5" y="-349" font-family="Helvetica,sans-Serif" font-size="10.00">Timeout::timedOut</text>
</a>
</g>
</g>
<!-- Node24&#45;&gt;Node25 -->
<g id="edge33_Node000024_Node000025" class="edge">
<title>Node24&#45;&gt;Node25</title>
<g id="a_edge33_Node000024_Node000025"><a xlink:title=" ">
<path fill="none" stroke="#63b8ff" d="M1087.22,-351.5C1104.23,-351.5 1122.22,-351.5 1138.82,-351.5"/>
<polygon fill="#63b8ff" stroke="#63b8ff" points="1138.95,-355 1148.95,-351.5 1138.95,-348 1138.95,-355"/>
</a>
</g>
</g>
<!-- Node26 -->
<g id="Node000026" class="node">
<title>Node26</title>
<g id="a_Node000026"><a xlink:href="../../db/df4/classTimeout_a9a72ea0591f11452fb15bfaa1ae5108a.xhtml#a9a72ea0591f11452fb15bfaa1ae5108a" target="_top" xlink:title=" ">
<polygon fill="white" stroke="#666666" points="1426.5,-363 1324.5,-363 1324.5,-344 1426.5,-344 1426.5,-363"/>
<text text-anchor="middle" x="1375.5" y="-351" font-family="Helvetica,sans-Serif" font-size="10.00">Timeout::millis16</text>
</a>
</g>
</g>
<!-- Node25&#45;&gt;Node26 -->
<g id="edge34_Node000025_Node000026" class="edge">
<title>Node25&#45;&gt;Node26</title>
<g id="a_edge34_Node000025_Node000026"><a xlink:title=" ">
<path fill="none" stroke="#63b8ff" d="M1258.29,-352.13C1276.02,-352.34 1295.85,-352.57 1314.04,-352.79"/>
<polygon fill="#63b8ff" stroke="#63b8ff" points="1314.2,-356.29 1324.24,-352.91 1314.28,-349.29 1314.2,-356.29"/>
</a>
</g>
</g>
<!-- Node27 -->
<g id="Node000027" class="node">
<title>Node27</title>
<g id="a_Node000027"><a xlink:href="../../d5/df3/wiring_8c_a6ff7f2532a22366f0013bc41397129fd.xhtml#a6ff7f2532a22366f0013bc41397129fd" target="_top" xlink:title=" ">
<polygon fill="white" stroke="#666666" points="1526,-363 1482,-363 1482,-344 1526,-344 1526,-363"/>
<text text-anchor="middle" x="1504" y="-351" font-family="Helvetica,sans-Serif" font-size="10.00">millis</text>
</a>
</g>
</g>
<!-- Node26&#45;&gt;Node27 -->
<g id="edge35_Node000026_Node000027" class="edge">
<title>Node26&#45;&gt;Node27</title>
<g id="a_edge35_Node000026_Node000027"><a xlink:title=" ">
<path fill="none" stroke="#63b8ff" d="M1426.86,-353.5C1441.97,-353.5 1458.11,-353.5 1471.62,-353.5"/>
<polygon fill="#63b8ff" stroke="#63b8ff" points="1471.83,-357 1481.83,-353.5 1471.83,-350 1471.83,-357"/>
</a>
</g>
</g>
</g>
</svg>
