<?xml version="1.0" encoding="UTF-8" standalone="no"?>
<!DOCTYPE svg PUBLIC "-//W3C//DTD SVG 1.1//EN"
 "http://www.w3.org/Graphics/SVG/1.1/DTD/svg11.dtd">
<!-- Generated by graphviz version 2.43.0 (0)
 -->
<!-- Title: DedicatedSpiCard::readSector Pages: 1 -->
<svg width="1858pt" height="420pt"
 viewBox="0.00 0.00 1858.00 419.50" xmlns="http://www.w3.org/2000/svg" xmlns:xlink="http://www.w3.org/1999/xlink">
<g id="graph0" class="graph" transform="scale(1 1) rotate(0) translate(4 415.5)">
<title>DedicatedSpiCard::readSector</title>
<!-- Node1 -->
<g id="Node000001" class="node">
<title>Node1</title>
<g id="a_Node000001"><a xlink:title=" ">
<polygon fill="#999999" stroke="#666666" points="162,-76 0,-76 0,-57 162,-57 162,-76"/>
<text text-anchor="middle" x="81" y="-64" font-family="Helvetica,sans-Serif" font-size="10.00">DedicatedSpiCard::readSector</text>
</a>
</g>
</g>
<!-- Node2 -->
<g id="Node000002" class="node">
<title>Node2</title>
<g id="a_Node000002"><a xlink:href="../../d2/dec/classDedicatedSpiCard.xhtml#af3c999bbc696254169f87fde8dc596b9" target="_top" xlink:title=" ">
<polygon fill="white" stroke="#666666" points="365,-76 198,-76 198,-57 365,-57 365,-76"/>
<text text-anchor="middle" x="281.5" y="-64" font-family="Helvetica,sans-Serif" font-size="10.00">DedicatedSpiCard::readSectors</text>
</a>
</g>
</g>
<!-- Node1&#45;&gt;Node2 -->
<g id="edge1_Node000001_Node000002" class="edge">
<title>Node1&#45;&gt;Node2</title>
<g id="a_edge1_Node000001_Node000002"><a xlink:title=" ">
<path fill="none" stroke="#63b8ff" d="M162.17,-66.5C170.5,-66.5 179.03,-66.5 187.49,-66.5"/>
<polygon fill="#63b8ff" stroke="#63b8ff" points="187.77,-70 197.77,-66.5 187.77,-63 187.77,-70"/>
</a>
</g>
</g>
<!-- Node3 -->
<g id="Node000003" class="node">
<title>Node3</title>
<g id="a_Node000003"><a xlink:href="../../d8/d7f/classSharedSpiCard.xhtml#abeae3cdc162f24c2d450abe4e1ed8340" target="_top" xlink:title=" ">
<polygon fill="white" stroke="#666666" points="540,-151 401,-151 401,-132 540,-132 540,-151"/>
<text text-anchor="middle" x="470.5" y="-139" font-family="Helvetica,sans-Serif" font-size="10.00">SharedSpiCard::readData</text>
</a>
</g>
</g>
<!-- Node2&#45;&gt;Node3 -->
<g id="edge2_Node000002_Node000003" class="edge">
<title>Node2&#45;&gt;Node3</title>
<g id="a_edge2_Node000002_Node000003"><a xlink:title=" ">
<path fill="none" stroke="#63b8ff" d="M300.16,-76.02C322.96,-88.03 364.1,-108.78 401,-122.5 407.37,-124.87 414.18,-127.1 420.93,-129.14"/>
<polygon fill="#63b8ff" stroke="#63b8ff" points="420.15,-132.56 430.73,-131.99 422.1,-125.84 420.15,-132.56"/>
</a>
</g>
</g>
<!-- Node4 -->
<g id="Node000004" class="node">
<title>Node4</title>
<g id="a_Node000004"><a xlink:href="../../d8/d7f/classSharedSpiCard.xhtml#a0b1805d2eb0cd18141e8e180a967b816" target="_top" xlink:title=" ">
<polygon fill="white" stroke="#666666" points="540,-114 401,-114 401,-95 540,-95 540,-114"/>
<text text-anchor="middle" x="470.5" y="-102" font-family="Helvetica,sans-Serif" font-size="10.00">SharedSpiCard::readStart</text>
</a>
</g>
</g>
<!-- Node2&#45;&gt;Node4 -->
<g id="edge4_Node000002_Node000004" class="edge">
<title>Node2&#45;&gt;Node4</title>
<g id="a_edge4_Node000002_Node000004"><a xlink:title=" ">
<path fill="none" stroke="#63b8ff" d="M329.69,-76.09C354.92,-81.22 386.17,-87.57 412.73,-92.96"/>
<polygon fill="#63b8ff" stroke="#63b8ff" points="412.15,-96.42 422.65,-94.98 413.55,-89.56 412.15,-96.42"/>
</a>
</g>
</g>
<!-- Node18 -->
<g id="Node000018" class="node">
<title>Node18</title>
<g id="a_Node000018"><a xlink:href="../../d8/d7f/classSharedSpiCard.xhtml#ab33ad2aefbb9cff905cad0879dffc78b" target="_top" xlink:title=" ">
<polygon fill="white" stroke="#666666" points="1101.5,-209 964.5,-209 964.5,-190 1101.5,-190 1101.5,-209"/>
<text text-anchor="middle" x="1033" y="-197" font-family="Helvetica,sans-Serif" font-size="10.00">SharedSpiCard::readStop</text>
</a>
</g>
</g>
<!-- Node2&#45;&gt;Node18 -->
<g id="edge41_Node000002_Node000018" class="edge">
<title>Node2&#45;&gt;Node18</title>
<g id="a_edge41_Node000002_Node000018"><a xlink:title=" ">
<path fill="none" stroke="#63b8ff" d="M365.16,-72.16C415.68,-75.73 481.6,-80.59 540,-85.5 629.42,-93.02 653.15,-86.24 741,-104.5 837.05,-124.46 945.9,-165.03 999.14,-186.11"/>
<polygon fill="#63b8ff" stroke="#63b8ff" points="998.13,-189.48 1008.72,-189.93 1000.73,-182.98 998.13,-189.48"/>
</a>
</g>
</g>
<!-- Node30 -->
<g id="Node000030" class="node">
<title>Node30</title>
<g id="a_Node000030"><a xlink:href="../../d8/d7f/classSharedSpiCard.xhtml#a3f089160d2ea9662c8c1f7a67f700ea1" target="_top" xlink:title=" ">
<polygon fill="white" stroke="#666666" points="536,-19 405,-19 405,0 536,0 536,-19"/>
<text text-anchor="middle" x="470.5" y="-7" font-family="Helvetica,sans-Serif" font-size="10.00">SharedSpiCard::sdState</text>
</a>
</g>
</g>
<!-- Node2&#45;&gt;Node30 -->
<g id="edge42_Node000002_Node000030" class="edge">
<title>Node2&#45;&gt;Node30</title>
<g id="a_edge42_Node000002_Node000030"><a xlink:title=" ">
<path fill="none" stroke="#63b8ff" d="M313.8,-56.96C345.22,-47.38 393.78,-32.58 428.31,-22.05"/>
<polygon fill="#63b8ff" stroke="#63b8ff" points="429.55,-25.34 438.1,-19.07 427.51,-18.64 429.55,-25.34"/>
</a>
</g>
</g>
<!-- Node3&#45;&gt;Node3 -->
<g id="edge3_Node000003_Node000003" class="edge">
<title>Node3&#45;&gt;Node3</title>
<g id="a_edge3_Node000003_Node000003"><a xlink:title=" ">
<path fill="none" stroke="#63b8ff" d="M441.52,-151.08C427.43,-159.73 437.09,-169 470.5,-169 493.47,-169 505.22,-164.62 505.73,-159.07"/>
<polygon fill="#63b8ff" stroke="#63b8ff" points="508.4,-156.8 499.48,-151.08 502.89,-161.11 508.4,-156.8"/>
</a>
</g>
</g>
<!-- Node5 -->
<g id="Node000005" class="node">
<title>Node5</title>
<g id="a_Node000005"><a xlink:href="../../d8/d7f/classSharedSpiCard.xhtml#adda33199753fc2aec74fe317cbaabc06" target="_top" xlink:title=" ">
<polygon fill="white" stroke="#666666" points="741,-285 576,-285 576,-266 741,-266 741,-285"/>
<text text-anchor="middle" x="658.5" y="-273" font-family="Helvetica,sans-Serif" font-size="10.00">SharedSpiCard::cardCommand</text>
</a>
</g>
</g>
<!-- Node4&#45;&gt;Node5 -->
<g id="edge5_Node000004_Node000005" class="edge">
<title>Node4&#45;&gt;Node5</title>
<g id="a_edge5_Node000004_Node000005"><a xlink:title=" ">
<path fill="none" stroke="#63b8ff" d="M524.13,-114.09C529.76,-116.33 535.18,-119.09 540,-122.5 563.25,-138.94 558.99,-152.66 576,-175.5 598.14,-205.23 625.72,-238.31 642.45,-257.99"/>
<polygon fill="#63b8ff" stroke="#63b8ff" points="639.96,-260.46 649.11,-265.79 645.28,-255.91 639.96,-260.46"/>
</a>
</g>
</g>
<!-- Node19 -->
<g id="Node000019" class="node">
<title>Node19</title>
<g id="a_Node000019"><a xlink:href="../../d8/d7f/classSharedSpiCard.xhtml#a747c3f0b962098cf0c097f3c4c2b4fd4" target="_top" xlink:title=" ">
<polygon fill="white" stroke="#666666" points="1270.5,-172 1153.5,-172 1153.5,-153 1270.5,-153 1270.5,-172"/>
<text text-anchor="middle" x="1212" y="-160" font-family="Helvetica,sans-Serif" font-size="10.00">SharedSpiCard::error</text>
</a>
</g>
</g>
<!-- Node4&#45;&gt;Node19 -->
<g id="edge38_Node000004_Node000019" class="edge">
<title>Node4&#45;&gt;Node19</title>
<g id="a_edge38_Node000004_Node000019"><a xlink:title=" ">
<path fill="none" stroke="#63b8ff" d="M540,-95.1C657.25,-81.2 903.08,-61.63 1103,-109.5 1134.32,-117 1167.09,-134.69 1188.2,-147.58"/>
<polygon fill="#63b8ff" stroke="#63b8ff" points="1186.43,-150.6 1196.76,-152.93 1190.14,-144.66 1186.43,-150.6"/>
</a>
</g>
</g>
<!-- Node20 -->
<g id="Node000020" class="node">
<title>Node20</title>
<g id="a_Node000020"><a xlink:href="../../d8/d7f/classSharedSpiCard.xhtml#a0f511c39c50055a4fc97e720933aee3a" target="_top" xlink:title=" ">
<polygon fill="white" stroke="#666666" points="1277,-209 1147,-209 1147,-190 1277,-190 1277,-209"/>
<text text-anchor="middle" x="1212" y="-197" font-family="Helvetica,sans-Serif" font-size="10.00">SharedSpiCard::spiStop</text>
</a>
</g>
</g>
<!-- Node4&#45;&gt;Node20 -->
<g id="edge39_Node000004_Node000020" class="edge">
<title>Node4&#45;&gt;Node20</title>
<g id="a_edge39_Node000004_Node000020"><a xlink:title=" ">
<path fill="none" stroke="#63b8ff" d="M514.01,-114.05C522.72,-116.46 531.75,-119.29 540,-122.5 556.86,-129.06 558.61,-136.5 576,-141.5 801.73,-206.35 869.94,-151.45 1103,-180.5 1119.35,-182.54 1136.99,-185.37 1153.17,-188.22"/>
<polygon fill="#63b8ff" stroke="#63b8ff" points="1152.58,-191.67 1163.04,-190 1153.82,-184.78 1152.58,-191.67"/>
</a>
</g>
</g>
<!-- Node29 -->
<g id="Node000029" class="node">
<title>Node29</title>
<g id="a_Node000029"><a xlink:href="../../d8/d7f/classSharedSpiCard.xhtml#a7dac2190763d7b4b72163ed7131e8a87" target="_top" xlink:title=" ">
<polygon fill="white" stroke="#666666" points="716.5,-133 600.5,-133 600.5,-114 716.5,-114 716.5,-133"/>
<text text-anchor="middle" x="658.5" y="-121" font-family="Helvetica,sans-Serif" font-size="10.00">SharedSpiCard::type</text>
</a>
</g>
</g>
<!-- Node4&#45;&gt;Node29 -->
<g id="edge40_Node000004_Node000029" class="edge">
<title>Node4&#45;&gt;Node29</title>
<g id="a_edge40_Node000004_Node000029"><a xlink:title=" ">
<path fill="none" stroke="#63b8ff" d="M540.23,-111.52C556.6,-113.19 574.05,-114.98 590.34,-116.64"/>
<polygon fill="#63b8ff" stroke="#63b8ff" points="590.02,-120.12 600.32,-117.66 590.73,-113.16 590.02,-120.12"/>
</a>
</g>
</g>
<!-- Node6 -->
<g id="Node000006" class="node">
<title>Node6</title>
<g id="a_Node000006"><a xlink:href="../../d8/d7f/classSharedSpiCard.xhtml#a08363209d938db87521cca6a84146041" target="_top" xlink:title=" ">
<polygon fill="white" stroke="#666666" points="1475,-399 1328,-399 1328,-380 1475,-380 1475,-399"/>
<text text-anchor="middle" x="1401.5" y="-387" font-family="Helvetica,sans-Serif" font-size="10.00">SharedSpiCard::spiReceive</text>
</a>
</g>
</g>
<!-- Node5&#45;&gt;Node6 -->
<g id="edge6_Node000005_Node000006" class="edge">
<title>Node5&#45;&gt;Node6</title>
<g id="a_edge6_Node000005_Node000006"><a xlink:title=" ">
<path fill="none" stroke="#63b8ff" d="M674.78,-285.02C696.57,-298.1 738.24,-321.27 777,-332.5 964.68,-386.88 1196.21,-393 1317.48,-391.81"/>
<polygon fill="#63b8ff" stroke="#63b8ff" points="1317.84,-395.31 1327.79,-391.69 1317.75,-388.31 1317.84,-395.31"/>
</a>
</g>
</g>
<!-- Node8 -->
<g id="Node000008" class="node">
<title>Node8</title>
<g id="a_Node000008"><a xlink:href="../../d8/d7f/classSharedSpiCard.xhtml#ab311b9ad8a250f06afbe091f7abb118b" target="_top" xlink:title=" ">
<polygon fill="white" stroke="#666666" points="1467.5,-247 1335.5,-247 1335.5,-228 1467.5,-228 1467.5,-247"/>
<text text-anchor="middle" x="1401.5" y="-235" font-family="Helvetica,sans-Serif" font-size="10.00">SharedSpiCard::spiSend</text>
</a>
</g>
</g>
<!-- Node5&#45;&gt;Node8 -->
<g id="edge8_Node000005_Node000008" class="edge">
<title>Node5&#45;&gt;Node8</title>
<g id="a_edge8_Node000005_Node000008"><a xlink:title=" ">
<path fill="none" stroke="#63b8ff" d="M741.09,-274.51C860.62,-272.57 1090.28,-267.01 1285,-251.5 1298,-250.46 1311.78,-249.06 1325.13,-247.54"/>
<polygon fill="#63b8ff" stroke="#63b8ff" points="1325.71,-251 1335.24,-246.36 1324.9,-244.05 1325.71,-251"/>
</a>
</g>
</g>
<!-- Node10 -->
<g id="Node000010" class="node">
<title>Node10</title>
<g id="a_Node000010"><a xlink:href="../../d8/d7f/classSharedSpiCard.xhtml#aef2dfa72e8d5643c90720f9f8c6a4254" target="_top" xlink:title=" ">
<polygon fill="white" stroke="#666666" points="1277.5,-323 1146.5,-323 1146.5,-304 1277.5,-304 1277.5,-323"/>
<text text-anchor="middle" x="1212" y="-311" font-family="Helvetica,sans-Serif" font-size="10.00">SharedSpiCard::spiStart</text>
</a>
</g>
</g>
<!-- Node5&#45;&gt;Node10 -->
<g id="edge10_Node000005_Node000010" class="edge">
<title>Node5&#45;&gt;Node10</title>
<g id="a_edge10_Node000005_Node000010"><a xlink:title=" ">
<path fill="none" stroke="#63b8ff" d="M733.39,-285.03C747.83,-286.69 762.88,-288.27 777,-289.5 902.83,-300.46 1049.64,-307.35 1136.21,-310.8"/>
<polygon fill="#63b8ff" stroke="#63b8ff" points="1136.07,-314.3 1146.2,-311.2 1136.35,-307.31 1136.07,-314.3"/>
</a>
</g>
</g>
<!-- Node17 -->
<g id="Node000017" class="node">
<title>Node17</title>
<g id="a_Node000017"><a xlink:href="../../d8/d7f/classSharedSpiCard.xhtml#a2f181b3d6f27413a0f5ee883dfd94d87" target="_top" xlink:title=" ">
<polygon fill="white" stroke="#666666" points="927,-247 777,-247 777,-228 927,-228 927,-247"/>
<text text-anchor="middle" x="852" y="-235" font-family="Helvetica,sans-Serif" font-size="10.00">SharedSpiCard::syncDevice</text>
</a>
</g>
</g>
<!-- Node5&#45;&gt;Node17 -->
<g id="edge18_Node000005_Node000017" class="edge">
<title>Node5&#45;&gt;Node17</title>
<g id="a_edge18_Node000005_Node000017"><a xlink:title=" ">
<path fill="none" stroke="#63b8ff" d="M707.82,-265.91C733.66,-260.78 765.67,-254.43 792.86,-249.04"/>
<polygon fill="#63b8ff" stroke="#63b8ff" points="793.9,-252.4 803.02,-247.02 792.53,-245.53 793.9,-252.4"/>
</a>
</g>
</g>
<!-- Node25 -->
<g id="Node000025" class="node">
<title>Node25</title>
<g id="a_Node000025"><a xlink:href="../../d8/d7f/classSharedSpiCard.xhtml#ab3468397bb3b12d29dd2f31e45b3dcaf" target="_top" xlink:title=" ">
<polygon fill="white" stroke="#666666" points="1285,-361 1139,-361 1139,-342 1285,-342 1285,-361"/>
<text text-anchor="middle" x="1212" y="-349" font-family="Helvetica,sans-Serif" font-size="10.00">SharedSpiCard::waitReady</text>
</a>
</g>
</g>
<!-- Node5&#45;&gt;Node25 -->
<g id="edge37_Node000005_Node000025" class="edge">
<title>Node5&#45;&gt;Node25</title>
<g id="a_edge37_Node000005_Node000025"><a xlink:title=" ">
<path fill="none" stroke="#63b8ff" d="M688.14,-285.06C711.73,-292.57 746.18,-302.69 777,-308.5 898.14,-331.33 1040.72,-342.51 1128.49,-347.63"/>
<polygon fill="#63b8ff" stroke="#63b8ff" points="1128.47,-351.13 1138.65,-348.21 1128.86,-344.15 1128.47,-351.13"/>
</a>
</g>
</g>
<!-- Node7 -->
<g id="Node000007" class="node">
<title>Node7</title>
<g id="a_Node000007"><a xlink:href="../../d0/d25/classSdSpiArduinoDriver.xhtml#a8d6bc852a52e9d69c4b1e48ee062e8d1" target="_top" xlink:title=" ">
<polygon fill="white" stroke="#666666" points="1629,-411.5 1518,-411.5 1518,-381.5 1629,-381.5 1629,-411.5"/>
<text text-anchor="start" x="1526" y="-399.5" font-family="Helvetica,sans-Serif" font-size="10.00">SdSpiArduinoDriver</text>
<text text-anchor="middle" x="1573.5" y="-388.5" font-family="Helvetica,sans-Serif" font-size="10.00">::receive</text>
</a>
</g>
</g>
<!-- Node6&#45;&gt;Node7 -->
<g id="edge7_Node000006_Node000007" class="edge">
<title>Node6&#45;&gt;Node7</title>
<g id="a_edge7_Node000006_Node000007"><a xlink:title=" ">
<path fill="none" stroke="#63b8ff" d="M1475.09,-392.49C1485.96,-392.94 1497.11,-393.4 1507.81,-393.84"/>
<polygon fill="#63b8ff" stroke="#63b8ff" points="1507.76,-397.34 1517.9,-394.25 1508.05,-390.34 1507.76,-397.34"/>
</a>
</g>
</g>
<!-- Node9 -->
<g id="Node000009" class="node">
<title>Node9</title>
<g id="a_Node000009"><a xlink:href="../../d0/d25/classSdSpiArduinoDriver.xhtml#a3c4842e47f98fe5d3799cd6028778ab5" target="_top" xlink:title=" ">
<polygon fill="white" stroke="#666666" points="1629,-239.5 1518,-239.5 1518,-209.5 1629,-209.5 1629,-239.5"/>
<text text-anchor="start" x="1526" y="-227.5" font-family="Helvetica,sans-Serif" font-size="10.00">SdSpiArduinoDriver</text>
<text text-anchor="middle" x="1573.5" y="-216.5" font-family="Helvetica,sans-Serif" font-size="10.00">::send</text>
</a>
</g>
</g>
<!-- Node8&#45;&gt;Node9 -->
<g id="edge9_Node000008_Node000009" class="edge">
<title>Node8&#45;&gt;Node9</title>
<g id="a_edge9_Node000008_Node000009"><a xlink:title=" ">
<path fill="none" stroke="#63b8ff" d="M1467.74,-232.51C1480.82,-231.51 1494.56,-230.46 1507.62,-229.46"/>
<polygon fill="#63b8ff" stroke="#63b8ff" points="1508.22,-232.93 1517.93,-228.67 1507.69,-225.95 1508.22,-232.93"/>
</a>
</g>
</g>
<!-- Node10&#45;&gt;Node8 -->
<g id="edge17_Node000010_Node000008" class="edge">
<title>Node10&#45;&gt;Node8</title>
<g id="a_edge17_Node000010_Node000008"><a xlink:title=" ">
<path fill="none" stroke="#63b8ff" d="M1251.67,-303.9C1262.85,-300.27 1274.78,-295.51 1285,-289.5 1303.71,-278.49 1301.83,-266.68 1321,-256.5 1325.32,-254.21 1329.91,-252.19 1334.63,-250.41"/>
<polygon fill="#63b8ff" stroke="#63b8ff" points="1336.09,-253.61 1344.44,-247.09 1333.84,-246.98 1336.09,-253.61"/>
</a>
</g>
</g>
<!-- Node11 -->
<g id="Node000011" class="node">
<title>Node11</title>
<g id="a_Node000011"><a xlink:href="../../d8/d7f/classSharedSpiCard.xhtml#a69ee2fe49dfaeea2347d8a265806d2b6" target="_top" xlink:title=" ">
<polygon fill="white" stroke="#666666" points="1476,-322 1327,-322 1327,-303 1476,-303 1476,-322"/>
<text text-anchor="middle" x="1401.5" y="-310" font-family="Helvetica,sans-Serif" font-size="10.00">SharedSpiCard::spiActivate</text>
</a>
</g>
</g>
<!-- Node10&#45;&gt;Node11 -->
<g id="edge11_Node000010_Node000011" class="edge">
<title>Node10&#45;&gt;Node11</title>
<g id="a_edge11_Node000010_Node000011"><a xlink:title=" ">
<path fill="none" stroke="#63b8ff" d="M1277.53,-313.16C1290.19,-313.09 1303.64,-313.02 1316.82,-312.95"/>
<polygon fill="#63b8ff" stroke="#63b8ff" points="1316.86,-316.45 1326.84,-312.89 1316.82,-309.45 1316.86,-316.45"/>
</a>
</g>
</g>
<!-- Node13 -->
<g id="Node000013" class="node">
<title>Node13</title>
<g id="a_Node000013"><a xlink:href="../../d8/d7f/classSharedSpiCard.xhtml#a8c3088599862ff6e84ae79bfdf32aea8" target="_top" xlink:title=" ">
<polygon fill="white" stroke="#666666" points="1470.5,-285 1332.5,-285 1332.5,-266 1470.5,-266 1470.5,-285"/>
<text text-anchor="middle" x="1401.5" y="-273" font-family="Helvetica,sans-Serif" font-size="10.00">SharedSpiCard::spiSelect</text>
</a>
</g>
</g>
<!-- Node10&#45;&gt;Node13 -->
<g id="edge13_Node000010_Node000013" class="edge">
<title>Node10&#45;&gt;Node13</title>
<g id="a_edge13_Node000010_Node000013"><a xlink:title=" ">
<path fill="none" stroke="#63b8ff" d="M1260.31,-303.91C1285.61,-298.78 1316.95,-292.43 1343.57,-287.04"/>
<polygon fill="#63b8ff" stroke="#63b8ff" points="1344.42,-290.44 1353.53,-285.02 1343.03,-283.58 1344.42,-290.44"/>
</a>
</g>
</g>
<!-- Node12 -->
<g id="Node000012" class="node">
<title>Node12</title>
<g id="a_Node000012"><a xlink:href="../../d0/d25/classSdSpiArduinoDriver.xhtml#abb6b88c5c8b87fc344a69f23f6eab3d9" target="_top" xlink:title=" ">
<polygon fill="white" stroke="#666666" points="1629,-325.5 1518,-325.5 1518,-295.5 1629,-295.5 1629,-325.5"/>
<text text-anchor="start" x="1526" y="-313.5" font-family="Helvetica,sans-Serif" font-size="10.00">SdSpiArduinoDriver</text>
<text text-anchor="middle" x="1573.5" y="-302.5" font-family="Helvetica,sans-Serif" font-size="10.00">::activate</text>
</a>
</g>
</g>
<!-- Node11&#45;&gt;Node12 -->
<g id="edge12_Node000011_Node000012" class="edge">
<title>Node11&#45;&gt;Node12</title>
<g id="a_edge12_Node000011_Node000012"><a xlink:title=" ">
<path fill="none" stroke="#63b8ff" d="M1476.08,-311.63C1486.57,-311.51 1497.31,-311.38 1507.63,-311.26"/>
<polygon fill="#63b8ff" stroke="#63b8ff" points="1507.82,-314.76 1517.78,-311.14 1507.74,-307.76 1507.82,-314.76"/>
</a>
</g>
</g>
<!-- Node14 -->
<g id="Node000014" class="node">
<title>Node14</title>
<g id="a_Node000014"><a xlink:href="../../d2/df0/SdSpiChipSelect_8cpp.xhtml#ac469bbe2d31ffde9b00ffc68258d7428" target="_top" xlink:title=" ">
<polygon fill="white" stroke="#666666" points="1606.5,-277 1540.5,-277 1540.5,-258 1606.5,-258 1606.5,-277"/>
<text text-anchor="middle" x="1573.5" y="-265" font-family="Helvetica,sans-Serif" font-size="10.00">sdCsWrite</text>
</a>
</g>
</g>
<!-- Node13&#45;&gt;Node14 -->
<g id="edge14_Node000013_Node000014" class="edge">
<title>Node13&#45;&gt;Node14</title>
<g id="a_edge14_Node000013_Node000014"><a xlink:title=" ">
<path fill="none" stroke="#63b8ff" d="M1470.67,-272.29C1490.74,-271.35 1512.12,-270.34 1530.09,-269.5"/>
<polygon fill="#63b8ff" stroke="#63b8ff" points="1530.41,-272.98 1540.23,-269.02 1530.08,-265.99 1530.41,-272.98"/>
</a>
</g>
</g>
<!-- Node15 -->
<g id="Node000015" class="node">
<title>Node15</title>
<g id="a_Node000015"><a xlink:href="../../d5/d45/wiring__digital_8c.xhtml#a73b9b61feeaf7d790d107f2954a7fd93" target="_top" xlink:title=" ">
<polygon fill="white" stroke="#666666" points="1739,-277 1665,-277 1665,-258 1739,-258 1739,-277"/>
<text text-anchor="middle" x="1702" y="-265" font-family="Helvetica,sans-Serif" font-size="10.00">digitalWrite</text>
</a>
</g>
</g>
<!-- Node14&#45;&gt;Node15 -->
<g id="edge15_Node000014_Node000015" class="edge">
<title>Node14&#45;&gt;Node15</title>
<g id="a_edge15_Node000014_Node000015"><a xlink:title=" ">
<path fill="none" stroke="#63b8ff" d="M1606.75,-267.5C1621.28,-267.5 1638.71,-267.5 1654.61,-267.5"/>
<polygon fill="#63b8ff" stroke="#63b8ff" points="1654.79,-271 1664.79,-267.5 1654.79,-264 1654.79,-271"/>
</a>
</g>
</g>
<!-- Node16 -->
<g id="Node000016" class="node">
<title>Node16</title>
<g id="a_Node000016"><a xlink:href="../../d5/d45/wiring__digital_8c.xhtml#ae3d0bcbe4eb927ca8f5d5c21b7e4f224" target="_top" xlink:title=" ">
<polygon fill="white" stroke="#666666" points="1850,-277 1775,-277 1775,-258 1850,-258 1850,-277"/>
<text text-anchor="middle" x="1812.5" y="-265" font-family="Helvetica,sans-Serif" font-size="10.00">turnOffPWM</text>
</a>
</g>
</g>
<!-- Node15&#45;&gt;Node16 -->
<g id="edge16_Node000015_Node000016" class="edge">
<title>Node15&#45;&gt;Node16</title>
<g id="a_edge16_Node000015_Node000016"><a xlink:title=" ">
<path fill="none" stroke="#63b8ff" d="M1739.13,-267.5C1747.28,-267.5 1756.05,-267.5 1764.57,-267.5"/>
<polygon fill="#63b8ff" stroke="#63b8ff" points="1764.79,-271 1774.79,-267.5 1764.79,-264 1764.79,-271"/>
</a>
</g>
</g>
<!-- Node17&#45;&gt;Node18 -->
<g id="edge19_Node000017_Node000018" class="edge">
<title>Node17&#45;&gt;Node18</title>
<g id="a_edge19_Node000017_Node000018"><a xlink:title=" ">
<path fill="none" stroke="#63b8ff" d="M898.17,-227.91C922.22,-222.81 951.97,-216.49 977.32,-211.11"/>
<polygon fill="#63b8ff" stroke="#63b8ff" points="978.1,-214.52 987.16,-209.02 976.65,-207.67 978.1,-214.52"/>
</a>
</g>
</g>
<!-- Node24 -->
<g id="Node000024" class="node">
<title>Node24</title>
<g id="a_Node000024"><a xlink:href="../../d8/d7f/classSharedSpiCard.xhtml#ae9a34a573077e43e7c6028a16ae77fb3" target="_top" xlink:title=" ">
<polygon fill="white" stroke="#666666" points="1103,-247 963,-247 963,-228 1103,-228 1103,-247"/>
<text text-anchor="middle" x="1033" y="-235" font-family="Helvetica,sans-Serif" font-size="10.00">SharedSpiCard::writeStop</text>
</a>
</g>
</g>
<!-- Node17&#45;&gt;Node24 -->
<g id="edge28_Node000017_Node000024" class="edge">
<title>Node17&#45;&gt;Node24</title>
<g id="a_edge28_Node000017_Node000024"><a xlink:title=" ">
<path fill="none" stroke="#63b8ff" d="M927.1,-237.5C935.51,-237.5 944.11,-237.5 952.58,-237.5"/>
<polygon fill="#63b8ff" stroke="#63b8ff" points="952.84,-241 962.84,-237.5 952.84,-234 952.84,-241"/>
</a>
</g>
</g>
<!-- Node18&#45;&gt;Node5 -->
<g id="edge20_Node000018_Node000005" class="edge">
<title>Node18&#45;&gt;Node5</title>
<g id="a_edge20_Node000018_Node000005"><a xlink:title=" ">
<path fill="none" stroke="#63b8ff" d="M964.27,-197.68C912.2,-197.92 838.94,-201.82 777,-218.5 742.56,-227.77 706.07,-247.18 683.06,-260.76"/>
<polygon fill="#63b8ff" stroke="#63b8ff" points="681.12,-257.84 674.36,-266 684.73,-263.84 681.12,-257.84"/>
</a>
</g>
</g>
<!-- Node18&#45;&gt;Node19 -->
<g id="edge21_Node000018_Node000019" class="edge">
<title>Node18&#45;&gt;Node19</title>
<g id="a_edge21_Node000018_Node000019"><a xlink:title=" ">
<path fill="none" stroke="#63b8ff" d="M1079.58,-189.97C1102.72,-185.14 1131.02,-179.22 1155.42,-174.12"/>
<polygon fill="#63b8ff" stroke="#63b8ff" points="1156.19,-177.53 1165.27,-172.06 1154.76,-170.68 1156.19,-177.53"/>
</a>
</g>
</g>
<!-- Node18&#45;&gt;Node20 -->
<g id="edge22_Node000018_Node000020" class="edge">
<title>Node18&#45;&gt;Node20</title>
<g id="a_edge22_Node000018_Node000020"><a xlink:title=" ">
<path fill="none" stroke="#63b8ff" d="M1101.67,-199.5C1113.15,-199.5 1125.12,-199.5 1136.75,-199.5"/>
<polygon fill="#63b8ff" stroke="#63b8ff" points="1136.86,-203 1146.86,-199.5 1136.86,-196 1136.86,-203"/>
</a>
</g>
</g>
<!-- Node20&#45;&gt;Node8 -->
<g id="edge25_Node000020_Node000008" class="edge">
<title>Node20&#45;&gt;Node8</title>
<g id="a_edge25_Node000020_Node000008"><a xlink:title=" ">
<path fill="none" stroke="#63b8ff" d="M1260.31,-209.09C1285.61,-214.22 1316.95,-220.57 1343.57,-225.96"/>
<polygon fill="#63b8ff" stroke="#63b8ff" points="1343.03,-229.42 1353.53,-227.98 1344.42,-222.56 1343.03,-229.42"/>
</a>
</g>
</g>
<!-- Node21 -->
<g id="Node000021" class="node">
<title>Node21</title>
<g id="a_Node000021"><a xlink:href="../../d8/d7f/classSharedSpiCard.xhtml#ac6acfca5a23337977d2e4436ab8ab39a" target="_top" xlink:title=" ">
<polygon fill="white" stroke="#666666" points="1482,-173 1321,-173 1321,-154 1482,-154 1482,-173"/>
<text text-anchor="middle" x="1401.5" y="-161" font-family="Helvetica,sans-Serif" font-size="10.00">SharedSpiCard::spiDeactivate</text>
</a>
</g>
</g>
<!-- Node20&#45;&gt;Node21 -->
<g id="edge23_Node000020_Node000021" class="edge">
<title>Node20&#45;&gt;Node21</title>
<g id="a_edge23_Node000020_Node000021"><a xlink:title=" ">
<path fill="none" stroke="#63b8ff" d="M1262.75,-189.95C1286.69,-185.35 1315.57,-179.81 1340.69,-174.98"/>
<polygon fill="#63b8ff" stroke="#63b8ff" points="1341.68,-178.36 1350.84,-173.03 1340.36,-171.48 1341.68,-178.36"/>
</a>
</g>
</g>
<!-- Node23 -->
<g id="Node000023" class="node">
<title>Node23</title>
<g id="a_Node000023"><a xlink:href="../../d8/d7f/classSharedSpiCard.xhtml#ad06a3278372300987b97876cf598c114" target="_top" xlink:title=" ">
<polygon fill="white" stroke="#666666" points="1477,-210 1326,-210 1326,-191 1477,-191 1477,-210"/>
<text text-anchor="middle" x="1401.5" y="-198" font-family="Helvetica,sans-Serif" font-size="10.00">SharedSpiCard::spiUnselect</text>
</a>
</g>
</g>
<!-- Node20&#45;&gt;Node23 -->
<g id="edge26_Node000020_Node000023" class="edge">
<title>Node20&#45;&gt;Node23</title>
<g id="a_edge26_Node000020_Node000023"><a xlink:title=" ">
<path fill="none" stroke="#63b8ff" d="M1277,-199.84C1289.39,-199.91 1302.55,-199.98 1315.49,-200.05"/>
<polygon fill="#63b8ff" stroke="#63b8ff" points="1315.78,-203.55 1325.8,-200.1 1315.82,-196.55 1315.78,-203.55"/>
</a>
</g>
</g>
<!-- Node22 -->
<g id="Node000022" class="node">
<title>Node22</title>
<g id="a_Node000022"><a xlink:href="../../d0/d25/classSdSpiArduinoDriver.xhtml#ae88a255f533e3acb41d1221025a69b55" target="_top" xlink:title=" ">
<polygon fill="white" stroke="#666666" points="1629,-178.5 1518,-178.5 1518,-148.5 1629,-148.5 1629,-178.5"/>
<text text-anchor="start" x="1526" y="-166.5" font-family="Helvetica,sans-Serif" font-size="10.00">SdSpiArduinoDriver</text>
<text text-anchor="middle" x="1573.5" y="-155.5" font-family="Helvetica,sans-Serif" font-size="10.00">::deactivate</text>
</a>
</g>
</g>
<!-- Node21&#45;&gt;Node22 -->
<g id="edge24_Node000021_Node000022" class="edge">
<title>Node21&#45;&gt;Node22</title>
<g id="a_edge24_Node000021_Node000022"><a xlink:title=" ">
<path fill="none" stroke="#63b8ff" d="M1482.02,-163.5C1490.63,-163.5 1499.3,-163.5 1507.7,-163.5"/>
<polygon fill="#63b8ff" stroke="#63b8ff" points="1507.78,-167 1517.78,-163.5 1507.78,-160 1507.78,-167"/>
</a>
</g>
</g>
<!-- Node23&#45;&gt;Node14 -->
<g id="edge27_Node000023_Node000014" class="edge">
<title>Node23&#45;&gt;Node14</title>
<g id="a_edge27_Node000023_Node000014"><a xlink:title=" ">
<path fill="none" stroke="#63b8ff" d="M1460.08,-210.12C1467.65,-212.36 1475.15,-215.12 1482,-218.5 1500.67,-227.72 1499.88,-238.24 1518,-248.5 1521.98,-250.75 1526.28,-252.81 1530.65,-254.66"/>
<polygon fill="#63b8ff" stroke="#63b8ff" points="1529.66,-258.03 1540.25,-258.4 1532.2,-251.51 1529.66,-258.03"/>
</a>
</g>
</g>
<!-- Node24&#45;&gt;Node8 -->
<g id="edge30_Node000024_Node000008" class="edge">
<title>Node24&#45;&gt;Node8</title>
<g id="a_edge30_Node000024_Node000008"><a xlink:title=" ">
<path fill="none" stroke="#63b8ff" d="M1103.37,-237.5C1166.7,-237.5 1260.09,-237.5 1325.22,-237.5"/>
<polygon fill="#63b8ff" stroke="#63b8ff" points="1325.42,-241 1335.42,-237.5 1325.42,-234 1325.42,-241"/>
</a>
</g>
</g>
<!-- Node24&#45;&gt;Node19 -->
<g id="edge29_Node000024_Node000019" class="edge">
<title>Node24&#45;&gt;Node19</title>
<g id="a_edge29_Node000024_Node000019"><a xlink:title=" ">
<path fill="none" stroke="#63b8ff" d="M1079.58,-227.93C1087.69,-225.22 1095.84,-221.8 1103,-217.5 1122.67,-205.69 1119.11,-191.94 1139,-180.5 1142.05,-178.74 1145.27,-177.16 1148.59,-175.73"/>
<polygon fill="#63b8ff" stroke="#63b8ff" points="1150.05,-178.92 1158.15,-172.08 1147.56,-172.37 1150.05,-178.92"/>
</a>
</g>
</g>
<!-- Node24&#45;&gt;Node20 -->
<g id="edge31_Node000024_Node000020" class="edge">
<title>Node24&#45;&gt;Node20</title>
<g id="a_edge31_Node000024_Node000020"><a xlink:title=" ">
<path fill="none" stroke="#63b8ff" d="M1078.66,-227.91C1102.34,-222.83 1131.61,-216.54 1156.6,-211.18"/>
<polygon fill="#63b8ff" stroke="#63b8ff" points="1157.61,-214.54 1166.66,-209.02 1156.14,-207.7 1157.61,-214.54"/>
</a>
</g>
</g>
<!-- Node24&#45;&gt;Node25 -->
<g id="edge32_Node000024_Node000025" class="edge">
<title>Node24&#45;&gt;Node25</title>
<g id="a_edge32_Node000024_Node000025"><a xlink:title=" ">
<path fill="none" stroke="#63b8ff" d="M1041.87,-247.22C1057.99,-266.49 1096.86,-309.66 1139,-332.5 1143.18,-334.77 1147.65,-336.78 1152.24,-338.55"/>
<polygon fill="#63b8ff" stroke="#63b8ff" points="1151.17,-341.89 1161.76,-341.88 1153.48,-335.28 1151.17,-341.89"/>
</a>
</g>
</g>
<!-- Node25&#45;&gt;Node6 -->
<g id="edge33_Node000025_Node000006" class="edge">
<title>Node25&#45;&gt;Node6</title>
<g id="a_edge33_Node000025_Node000006"><a xlink:title=" ">
<path fill="none" stroke="#63b8ff" d="M1260.31,-361.09C1285.61,-366.22 1316.95,-372.57 1343.57,-377.96"/>
<polygon fill="#63b8ff" stroke="#63b8ff" points="1343.03,-381.42 1353.53,-379.98 1344.42,-374.56 1343.03,-381.42"/>
</a>
</g>
</g>
<!-- Node26 -->
<g id="Node000026" class="node">
<title>Node26</title>
<g id="a_Node000026"><a xlink:href="../../db/df4/classTimeout.xhtml#abbabe99f42e52472ddd3a7e9d22dce95" target="_top" xlink:title=" ">
<polygon fill="white" stroke="#666666" points="1456,-361 1347,-361 1347,-342 1456,-342 1456,-361"/>
<text text-anchor="middle" x="1401.5" y="-349" font-family="Helvetica,sans-Serif" font-size="10.00">Timeout::timedOut</text>
</a>
</g>
</g>
<!-- Node25&#45;&gt;Node26 -->
<g id="edge34_Node000025_Node000026" class="edge">
<title>Node25&#45;&gt;Node26</title>
<g id="a_edge34_Node000025_Node000026"><a xlink:title=" ">
<path fill="none" stroke="#63b8ff" d="M1285.22,-351.5C1302.23,-351.5 1320.22,-351.5 1336.82,-351.5"/>
<polygon fill="#63b8ff" stroke="#63b8ff" points="1336.95,-355 1346.95,-351.5 1336.95,-348 1336.95,-355"/>
</a>
</g>
</g>
<!-- Node27 -->
<g id="Node000027" class="node">
<title>Node27</title>
<g id="a_Node000027"><a xlink:href="../../db/df4/classTimeout.xhtml#a9a72ea0591f11452fb15bfaa1ae5108a" target="_top" xlink:title=" ">
<polygon fill="white" stroke="#666666" points="1624.5,-363 1522.5,-363 1522.5,-344 1624.5,-344 1624.5,-363"/>
<text text-anchor="middle" x="1573.5" y="-351" font-family="Helvetica,sans-Serif" font-size="10.00">Timeout::millis16</text>
</a>
</g>
</g>
<!-- Node26&#45;&gt;Node27 -->
<g id="edge35_Node000026_Node000027" class="edge">
<title>Node26&#45;&gt;Node27</title>
<g id="a_edge35_Node000026_Node000027"><a xlink:title=" ">
<path fill="none" stroke="#63b8ff" d="M1456.29,-352.13C1474.02,-352.34 1493.85,-352.57 1512.04,-352.79"/>
<polygon fill="#63b8ff" stroke="#63b8ff" points="1512.2,-356.29 1522.24,-352.91 1512.28,-349.29 1512.2,-356.29"/>
</a>
</g>
</g>
<!-- Node28 -->
<g id="Node000028" class="node">
<title>Node28</title>
<g id="a_Node000028"><a xlink:href="../../d5/df3/wiring_8c.xhtml#a6ff7f2532a22366f0013bc41397129fd" target="_top" xlink:title=" ">
<polygon fill="white" stroke="#666666" points="1724,-363 1680,-363 1680,-344 1724,-344 1724,-363"/>
<text text-anchor="middle" x="1702" y="-351" font-family="Helvetica,sans-Serif" font-size="10.00">millis</text>
</a>
</g>
</g>
<!-- Node27&#45;&gt;Node28 -->
<g id="edge36_Node000027_Node000028" class="edge">
<title>Node27&#45;&gt;Node28</title>
<g id="a_edge36_Node000027_Node000028"><a xlink:title=" ">
<path fill="none" stroke="#63b8ff" d="M1624.86,-353.5C1639.97,-353.5 1656.11,-353.5 1669.62,-353.5"/>
<polygon fill="#63b8ff" stroke="#63b8ff" points="1669.83,-357 1679.83,-353.5 1669.83,-350 1669.83,-357"/>
</a>
</g>
</g>
</g>
</svg>
