<?xml version="1.0" encoding="UTF-8" standalone="no"?>
<!DOCTYPE svg PUBLIC "-//W3C//DTD SVG 1.1//EN"
 "http://www.w3.org/Graphics/SVG/1.1/DTD/svg11.dtd">
<!-- Generated by graphviz version 2.43.0 (0)
 -->
<!-- Title: sdCsInit Pages: 1 -->
<!--zoomable 137 -->

<svg id="main" version="1.1" xmlns="http://www.w3.org/2000/svg" xmlns:xlink="http://www.w3.org/1999/xlink" xml:space="preserve" onload="init(evt)">
<style type="text/css"><![CDATA[
.node, .edge {opacity: 0.7;}
.node.selected, .edge.selected {opacity: 1;}
.edge:hover path { stroke: red; }
.edge:hover polygon { stroke: red; fill: red; }
]]></style>

<defs>
  <circle id="rim" cx="0" cy="0" r="7"/>
  <circle id="rim2" cx="0" cy="0" r="3.5"/>
  <g id="zoomPlus">
    <use xlink:href="#rim" fill="#404040"><set attributeName="fill" to="#808080" begin="zoomplus.mouseover" end="zoomplus.mouseout"/></use>
    <path d="M-4,0h8M0,-4v8" fill="none" stroke="white" stroke-width="1.5" pointer-events="none"/>
  </g>
  <g id="zoomMin">
    <use xlink:href="#rim" fill="#404040"><set attributeName="fill" to="#808080" begin="zoomminus.mouseover" end="zoomminus.mouseout"/></use>
    <path d="M-4,0h8" fill="none" stroke="white" stroke-width="1.5" pointer-events="none"/>
  </g>
  <g id="arrowUp" transform="translate(30 24)">
    <use xlink:href="#rim"/>
    <path pointer-events="none" fill="none" stroke="white" stroke-width="1.5" d="M0,-3.0v7 M-2.5,-0.5L0,-3.0L2.5,-0.5"/>
  </g>
  <g id="arrowRight" transform="rotate(90) translate(36 -43)">
    <use xlink:href="#rim"/>
    <path pointer-events="none" fill="none" stroke="white" stroke-width="1.5" d="M0,-3.0v7 M-2.5,-0.5L0,-3.0L2.5,-0.5"/>
  </g>
  <g id="arrowDown" transform="rotate(180) translate(-30 -48)">
    <use xlink:href="#rim"/>
    <path pointer-events="none" fill="none" stroke="white" stroke-width="1.5" d="M0,-3.0v7 M-2.5,-0.5L0,-3.0L2.5,-0.5"/>
  </g>
  <g id="arrowLeft" transform="rotate(270) translate(-36 17)">
    <use xlink:href="#rim"/>
    <path pointer-events="none" fill="none" stroke="white" stroke-width="1.5" d="M0,-3.0v7 M-2.5,-0.5L0,-3.0L2.5,-0.5"/>
  </g>
  <g id="resetDef">
    <use xlink:href="#rim2" fill="#404040"><set attributeName="fill" to="#808080" begin="reset.mouseover" end="reset.mouseout"/></use>
  </g>
</defs>
<script type="application/ecmascript">
var viewWidth = 659;
var viewHeight = 137;
var sectionId = 'dynsection-1';
</script>
<script type="application/ecmascript" xlink:href="../../svg.min.js"/>
<svg id="graph" class="graph">
<g id="viewport">
<title>sdCsInit</title>
<!-- Node1 -->
<g id="Node000001" class="node">
<title>Node1</title>
<g id="a_Node000001"><a xlink:title=" ">
<polygon fill="#999999" stroke="#666666" points="651,-92 595,-92 595,-73 651,-73 651,-92"/>
<text text-anchor="middle" x="623" y="-80" font-family="Helvetica,sans-Serif" font-size="10.00">sdCsInit</text>
</a>
</g>
</g>
<!-- Node2 -->
<g id="Node000002" class="node">
<title>Node2</title>
<g id="a_Node000002"><a xlink:href="../../d8/d7f/classSharedSpiCard_a0255d8d48155bc14798edb8414f04030.xhtml#a0255d8d48155bc14798edb8414f04030" target="_top" xlink:title=" ">
<polygon fill="white" stroke="#666666" points="559,-92 438,-92 438,-73 559,-73 559,-92"/>
<text text-anchor="middle" x="498.5" y="-80" font-family="Helvetica,sans-Serif" font-size="10.00">SharedSpiCard::begin</text>
</a>
</g>
</g>
<!-- Node1&#45;&gt;Node2 -->
<g id="edge1_Node000001_Node000002" class="edge">
<title>Node1&#45;&gt;Node2</title>
<g id="a_edge1_Node000001_Node000002"><a xlink:title=" ">
<path fill="none" stroke="#63b8ff" d="M584.65,-82.5C576.6,-82.5 567.88,-82.5 559.21,-82.5"/>
<polygon fill="#63b8ff" stroke="#63b8ff" points="584.81,-86 594.81,-82.5 584.81,-79 584.81,-86"/>
</a>
</g>
</g>
<!-- Node3 -->
<g id="Node000003" class="node">
<title>Node3</title>
<g id="a_Node000003"><a xlink:href="../../d2/dec/classDedicatedSpiCard_ae1bee40ca479033a13453a49bfc7ee97.xhtml#ae1bee40ca479033a13453a49bfc7ee97" target="_top" xlink:title=" ">
<polygon fill="white" stroke="#666666" points="402,-129 265,-129 265,-110 402,-110 402,-129"/>
<text text-anchor="middle" x="333.5" y="-117" font-family="Helvetica,sans-Serif" font-size="10.00">DedicatedSpiCard::begin</text>
</a>
</g>
</g>
<!-- Node2&#45;&gt;Node3 -->
<g id="edge2_Node000002_Node000003" class="edge">
<title>Node2&#45;&gt;Node3</title>
<g id="a_edge2_Node000002_Node000003"><a xlink:title=" ">
<path fill="none" stroke="#63b8ff" d="M445.57,-94.29C423.31,-99.34 397.66,-105.16 376.62,-109.94"/>
<polygon fill="#63b8ff" stroke="#63b8ff" points="446.55,-97.66 455.52,-92.03 445,-90.83 446.55,-97.66"/>
</a>
</g>
</g>
<!-- Node4 -->
<g id="Node000004" class="node">
<title>Node4</title>
<g id="a_Node000004"><a xlink:href="../../dd/d6a/classSdCardFactory_ae8d857a9e9fa47115f3bc6e26b9ec95e.xhtml#ae8d857a9e9fa47115f3bc6e26b9ec95e" target="_top" xlink:title=" ">
<polygon fill="white" stroke="#666666" points="400.5,-92 266.5,-92 266.5,-73 400.5,-73 400.5,-92"/>
<text text-anchor="middle" x="333.5" y="-80" font-family="Helvetica,sans-Serif" font-size="10.00">SdCardFactory::newCard</text>
</a>
</g>
</g>
<!-- Node2&#45;&gt;Node4 -->
<g id="edge3_Node000002_Node000004" class="edge">
<title>Node2&#45;&gt;Node4</title>
<g id="a_edge3_Node000002_Node000004"><a xlink:title=" ">
<path fill="none" stroke="#63b8ff" d="M427.69,-82.5C418.7,-82.5 409.51,-82.5 400.59,-82.5"/>
<polygon fill="#63b8ff" stroke="#63b8ff" points="427.73,-86 437.73,-82.5 427.73,-79 427.73,-86"/>
</a>
</g>
</g>
<!-- Node5 -->
<g id="Node000005" class="node">
<title>Node5</title>
<g id="a_Node000005"><a xlink:href="../../dd/d6a/classSdCardFactory_a220930994a47cf45a8fe1563f0b300c2.xhtml#a220930994a47cf45a8fe1563f0b300c2" target="_top" xlink:title=" ">
<polygon fill="white" stroke="#666666" points="400.5,-55 266.5,-55 266.5,-36 400.5,-36 400.5,-55"/>
<text text-anchor="middle" x="333.5" y="-43" font-family="Helvetica,sans-Serif" font-size="10.00">SdCardFactory::newCard</text>
</a>
</g>
</g>
<!-- Node2&#45;&gt;Node5 -->
<g id="edge4_Node000002_Node000005" class="edge">
<title>Node2&#45;&gt;Node5</title>
<g id="a_edge4_Node000002_Node000005"><a xlink:title=" ">
<path fill="none" stroke="#63b8ff" d="M445.57,-70.71C423.31,-65.66 397.66,-59.84 376.62,-55.06"/>
<polygon fill="#63b8ff" stroke="#63b8ff" points="445,-74.17 455.52,-72.97 446.55,-67.34 445,-74.17"/>
</a>
</g>
</g>
<!-- Node6 -->
<g id="Node000006" class="node">
<title>Node6</title>
<g id="a_Node000006"><a xlink:href="../../da/d81/classSdBase_ac6ece0ac775ff721b5186124992eb238.xhtml#ac6ece0ac775ff721b5186124992eb238" target="_top" xlink:title=" ">
<polygon fill="white" stroke="#666666" points="229,-74 122,-74 122,-55 229,-55 229,-74"/>
<text text-anchor="middle" x="175.5" y="-62" font-family="Helvetica,sans-Serif" font-size="10.00">SdBase::cardBegin</text>
</a>
</g>
</g>
<!-- Node5&#45;&gt;Node6 -->
<g id="edge5_Node000005_Node000006" class="edge">
<title>Node5&#45;&gt;Node6</title>
<g id="a_edge5_Node000005_Node000006"><a xlink:title=" ">
<path fill="none" stroke="#63b8ff" d="M256.35,-54.77C247.11,-55.9 237.84,-57.03 229.05,-58.1"/>
<polygon fill="#63b8ff" stroke="#63b8ff" points="256.84,-58.24 266.34,-53.56 255.99,-51.29 256.84,-58.24"/>
</a>
</g>
</g>
<!-- Node7 -->
<g id="Node000007" class="node">
<title>Node7</title>
<g id="a_Node000007"><a xlink:href="../../da/d81/classSdBase_a8806939dc34639ffca5f9663b8ec33ac.xhtml#a8806939dc34639ffca5f9663b8ec33ac" target="_top" xlink:title=" ">
<polygon fill="white" stroke="#666666" points="229,-37 122,-37 122,-18 229,-18 229,-37"/>
<text text-anchor="middle" x="175.5" y="-25" font-family="Helvetica,sans-Serif" font-size="10.00">SdBase::cardBegin</text>
</a>
</g>
</g>
<!-- Node5&#45;&gt;Node7 -->
<g id="edge6_Node000005_Node000007" class="edge">
<title>Node5&#45;&gt;Node7</title>
<g id="a_edge6_Node000005_Node000007"><a xlink:title=" ">
<path fill="none" stroke="#63b8ff" d="M256.35,-36.71C247.11,-35.65 237.84,-34.58 229.05,-33.56"/>
<polygon fill="#63b8ff" stroke="#63b8ff" points="256.01,-40.2 266.34,-37.87 256.81,-33.24 256.01,-40.2"/>
</a>
</g>
</g>
<!-- Node8 -->
<g id="Node000008" class="node">
<title>Node8</title>
<g id="a_Node000008"><a xlink:href="../../da/d81/classSdBase_a5ef2328333c99cdb53fa0faee0786216.xhtml#a5ef2328333c99cdb53fa0faee0786216" target="_top" xlink:title=" ">
<polygon fill="white" stroke="#666666" points="86,-56 0,-56 0,-37 86,-37 86,-56"/>
<text text-anchor="middle" x="43" y="-44" font-family="Helvetica,sans-Serif" font-size="10.00">SdBase::begin</text>
</a>
</g>
</g>
<!-- Node7&#45;&gt;Node8 -->
<g id="edge7_Node000007_Node000008" class="edge">
<title>Node7&#45;&gt;Node8</title>
<g id="a_edge7_Node000007_Node000008"><a xlink:title=" ">
<path fill="none" stroke="#63b8ff" d="M111.67,-36.65C102.99,-37.91 94.25,-39.18 86.07,-40.37"/>
<polygon fill="#63b8ff" stroke="#63b8ff" points="112.41,-40.08 121.8,-35.17 111.4,-33.15 112.41,-40.08"/>
</a>
</g>
</g>
<!-- Node9 -->
<g id="Node000009" class="node">
<title>Node9</title>
<g id="a_Node000009"><a xlink:href="../../da/d81/classSdBase_a41f0388ad2dad15a65e95cbbd93eb181.xhtml#a41f0388ad2dad15a65e95cbbd93eb181" target="_top" xlink:title=" ">
<polygon fill="white" stroke="#666666" points="86,-19 0,-19 0,0 86,0 86,-19"/>
<text text-anchor="middle" x="43" y="-7" font-family="Helvetica,sans-Serif" font-size="10.00">SdBase::begin</text>
</a>
</g>
</g>
<!-- Node7&#45;&gt;Node9 -->
<g id="edge8_Node000007_Node000009" class="edge">
<title>Node7&#45;&gt;Node9</title>
<g id="a_edge8_Node000007_Node000009"><a xlink:title=" ">
<path fill="none" stroke="#63b8ff" d="M111.67,-18.83C102.99,-17.64 94.25,-16.43 86.07,-15.3"/>
<polygon fill="#63b8ff" stroke="#63b8ff" points="111.41,-22.33 121.8,-20.23 112.37,-15.4 111.41,-22.33"/>
</a>
</g>
</g>
</g>
</svg>

<g id="navigator" transform="translate(0 0)" fill="#404254">
  <rect fill="#f2f5e9" fill-opacity="0.5" stroke="#606060" stroke-width=".5" x="0" y="0" width="60" height="60"/>
  <use id="zoomplus" xlink:href="#zoomPlus" x="17" y="9" onmousedown="handleZoom(evt,'in')"/>
  <use id="zoomminus" xlink:href="#zoomMin" x="42" y="9" onmousedown="handleZoom(evt,'out')"/>
  <use id="reset" xlink:href="#resetDef" x="30" y="36" onmousedown="handleReset()"/>
   <use id="arrowup" xlink:href="#arrowUp" x="0" y="0" onmousedown="handlePan(0,-1)"/>
  <use id="arrowright" xlink:href="#arrowRight" x="0" y="0" onmousedown="handlePan(1,0)"/>
  <use id="arrowdown" xlink:href="#arrowDown" x="0" y="0" onmousedown="handlePan(0,1)"/>
  <use id="arrowleft" xlink:href="#arrowLeft" x="0" y="0" onmousedown="handlePan(-1,0)"/>
</g>
<svg viewBox="0 0 15 15" width="100%" height="30px" preserveAspectRatio="xMaxYMin meet">
 <g id="arrow_out" transform="scale(0.3 0.3)">
  <a xlink:href="SdSpiChipSelect_8cpp_ad4854101780daaa378827ecb62ef86d9_ad4854101780daaa378827ecb62ef86d9_icgraph_org.svg" target="_base">
   <rect id="button" ry="5" rx="5" y="6" x="6" height="38" width="38"
        fill="#f2f5e9" fill-opacity="0.5" stroke="#606060" stroke-width="1.0"/>
   <path id="arrow"
     d="M 11.500037,31.436501 C 11.940474,20.09759 22.043105,11.32322 32.158766,21.979434 L 37.068811,17.246167 C 37.068811,17.246167 37.088388,32 37.088388,32 L 22.160133,31.978069 C 22.160133,31.978069 26.997745,27.140456 26.997745,27.140456 C 18.528582,18.264221 13.291696,25.230495 11.500037,31.436501 z"
     style="fill:#404040;"/>
  </a>
 </g>
</svg>

<style type='text/css'>
<![CDATA[
[data-mouse-over-selected='false'] { opacity: 0.7; }
[data-mouse-over-selected='true']  { opacity: 1.0; }
]]>
</style>
<script type="application/ecmascript"><![CDATA[
document.addEventListener('DOMContentLoaded', (event) => {
  highlightEdges();
  highlightAdjacentNodes();
});
]]></script>
</svg>
