<?xml version="1.0" encoding="UTF-8" standalone="no"?>
<!DOCTYPE svg PUBLIC "-//W3C//DTD SVG 1.1//EN"
 "http://www.w3.org/Graphics/SVG/1.1/DTD/svg11.dtd">
<!-- Generated by graphviz version 2.43.0 (0)
 -->
<!-- Title: /mnt/d/Cours/10. CESI A2/Blocs/01 &#45; Systeme embarque/Livrables/Station_Meteo_Groupe_1 &#45; Copy/libs/SdFat/src/SdCard/SdSpiCard.h Pages: 1 -->
<svg width="789pt" height="456pt"
 viewBox="0.00 0.00 788.50 456.00" xmlns="http://www.w3.org/2000/svg" xmlns:xlink="http://www.w3.org/1999/xlink">
<g id="graph0" class="graph" transform="scale(1 1) rotate(0) translate(4 452)">
<title>/mnt/d/Cours/10. CESI A2/Blocs/01 &#45; Systeme embarque/Livrables/Station_Meteo_Groupe_1 &#45; Copy/libs/SdFat/src/SdCard/SdSpiCard.h</title>
<!-- Node1 -->
<g id="Node000001" class="node">
<title>Node1</title>
<g id="a_Node000001"><a xlink:title="Classes for SPI access to SD/SDHC cards.">
<polygon fill="#999999" stroke="#666666" points="373,-448 211,-448 211,-385 373,-385 373,-448"/>
<text text-anchor="start" x="219" y="-436" font-family="Helvetica,sans-Serif" font-size="10.00">/mnt/d/Cours/10. CESI</text>
<text text-anchor="start" x="219" y="-425" font-family="Helvetica,sans-Serif" font-size="10.00"> A2/Blocs/01 &#45; Systeme</text>
<text text-anchor="start" x="219" y="-414" font-family="Helvetica,sans-Serif" font-size="10.00"> embarque/Livrables/Station</text>
<text text-anchor="start" x="219" y="-403" font-family="Helvetica,sans-Serif" font-size="10.00">_Meteo_Groupe_1 &#45; Copy/libs</text>
<text text-anchor="middle" x="292" y="-392" font-family="Helvetica,sans-Serif" font-size="10.00">/SdFat/src/SdCard/SdSpiCard.h</text>
</a>
</g>
</g>
<!-- Node2 -->
<g id="Node000002" class="node">
<title>Node2</title>
<g id="a_Node000002"><a xlink:title=" ">
<polygon fill="#e0e0e0" stroke="#999999" points="252,-184 196,-184 196,-165 252,-165 252,-184"/>
<text text-anchor="middle" x="224" y="-172" font-family="Helvetica,sans-Serif" font-size="10.00">stddef.h</text>
</a>
</g>
</g>
<!-- Node1&#45;&gt;Node2 -->
<g id="edge1_Node000001_Node000002" class="edge">
<title>Node1&#45;&gt;Node2</title>
<g id="a_edge1_Node000001_Node000002"><a xlink:title=" ">
<path fill="none" stroke="#63b8ff" d="M277.33,-384.7C266.38,-360.53 251.83,-325.77 243,-294 233.41,-259.5 228.13,-217.91 225.7,-194.3"/>
<polygon fill="#63b8ff" stroke="#63b8ff" points="229.18,-193.88 224.73,-184.27 222.21,-194.56 229.18,-193.88"/>
</a>
</g>
</g>
<!-- Node3 -->
<g id="Node000003" class="node">
<title>Node3</title>
<g id="a_Node000003"><a xlink:href="../../df/d48/SdSpiDriver_8h.xhtml" target="_top" xlink:title="SpiDriver classes.">
<polygon fill="white" stroke="#666666" points="521.5,-349 382.5,-349 382.5,-330 521.5,-330 521.5,-349"/>
<text text-anchor="middle" x="452" y="-337" font-family="Helvetica,sans-Serif" font-size="10.00">../SpiDriver/SdSpiDriver.h</text>
</a>
</g>
</g>
<!-- Node1&#45;&gt;Node3 -->
<g id="edge2_Node000001_Node000003" class="edge">
<title>Node1&#45;&gt;Node3</title>
<g id="a_edge2_Node000001_Node000003"><a xlink:title=" ">
<path fill="none" stroke="#63b8ff" d="M357.08,-384.99C380.55,-373.99 405.79,-362.16 424.34,-353.47"/>
<polygon fill="#63b8ff" stroke="#63b8ff" points="426.08,-356.52 433.65,-349.1 423.11,-350.18 426.08,-356.52"/>
</a>
</g>
</g>
<!-- Node4 -->
<g id="Node000004" class="node">
<title>Node4</title>
<g id="a_Node000004"><a xlink:href="../../d0/d1b/SysCall_8h.xhtml" target="_top" xlink:title="SysCall class.">
<polygon fill="white" stroke="#666666" points="550,-239 434,-239 434,-220 550,-220 550,-239"/>
<text text-anchor="middle" x="492" y="-227" font-family="Helvetica,sans-Serif" font-size="10.00">../common/SysCall.h</text>
</a>
</g>
</g>
<!-- Node1&#45;&gt;Node4 -->
<g id="edge22_Node000001_Node000004" class="edge">
<title>Node1&#45;&gt;Node4</title>
<g id="a_edge22_Node000001_Node000004"><a xlink:title=" ">
<path fill="none" stroke="#63b8ff" d="M373.18,-411.18C424.14,-404.44 488.09,-388.08 531,-349 556.28,-325.98 567.37,-305.54 552,-275 545.31,-261.71 532.56,-251.39 520.53,-244.05"/>
<polygon fill="#63b8ff" stroke="#63b8ff" points="522.01,-240.87 511.58,-239.02 518.58,-246.97 522.01,-240.87"/>
</a>
</g>
</g>
<!-- Node20 -->
<g id="Node000020" class="node">
<title>Node20</title>
<g id="a_Node000020"><a xlink:href="../../d4/da0/SdCardInfo_8h.xhtml" target="_top" xlink:title="Definitions for SD cards.">
<polygon fill="white" stroke="#666666" points="331.5,-294 252.5,-294 252.5,-275 331.5,-275 331.5,-294"/>
<text text-anchor="middle" x="292" y="-282" font-family="Helvetica,sans-Serif" font-size="10.00">SdCardInfo.h</text>
</a>
</g>
</g>
<!-- Node1&#45;&gt;Node20 -->
<g id="edge23_Node000001_Node000020" class="edge">
<title>Node1&#45;&gt;Node20</title>
<g id="a_edge23_Node000001_Node000020"><a xlink:title=" ">
<path fill="none" stroke="#63b8ff" d="M292,-384.69C292,-359.73 292,-325.37 292,-304.33"/>
<polygon fill="#63b8ff" stroke="#63b8ff" points="295.5,-304.16 292,-294.16 288.5,-304.16 295.5,-304.16"/>
</a>
</g>
</g>
<!-- Node21 -->
<g id="Node000021" class="node">
<title>Node21</title>
<g id="a_Node000021"><a xlink:href="../../dd/d48/SdCardInterface_8h.xhtml" target="_top" xlink:title="Abstract interface for an SD card.">
<polygon fill="white" stroke="#666666" points="196,-349 92,-349 92,-330 196,-330 196,-349"/>
<text text-anchor="middle" x="144" y="-337" font-family="Helvetica,sans-Serif" font-size="10.00">SdCardInterface.h</text>
</a>
</g>
</g>
<!-- Node1&#45;&gt;Node21 -->
<g id="edge26_Node000001_Node000021" class="edge">
<title>Node1&#45;&gt;Node21</title>
<g id="a_edge26_Node000001_Node000021"><a xlink:title=" ">
<path fill="none" stroke="#63b8ff" d="M231.8,-384.99C210.4,-374.15 187.39,-362.49 170.3,-353.83"/>
<polygon fill="#63b8ff" stroke="#63b8ff" points="171.48,-350.5 160.98,-349.1 168.32,-356.75 171.48,-350.5"/>
</a>
</g>
</g>
<!-- Node3&#45;&gt;Node4 -->
<g id="edge3_Node000003_Node000004" class="edge">
<title>Node3&#45;&gt;Node4</title>
<g id="a_edge3_Node000003_Node000004"><a xlink:title=" ">
<path fill="none" stroke="#63b8ff" d="M486.22,-329.93C504.71,-323.37 525.96,-312.24 537,-294 547.55,-276.58 530.07,-257.66 513.92,-245.04"/>
<polygon fill="#63b8ff" stroke="#63b8ff" points="515.89,-242.15 505.75,-239.06 511.75,-247.79 515.89,-242.15"/>
</a>
</g>
</g>
<!-- Node17 -->
<g id="Node000017" class="node">
<title>Node17</title>
<g id="a_Node000017"><a xlink:title=" ">
<polygon fill="#e0e0e0" stroke="#999999" points="527.5,-294 486.5,-294 486.5,-275 527.5,-275 527.5,-294"/>
<text text-anchor="middle" x="507" y="-282" font-family="Helvetica,sans-Serif" font-size="10.00">SPI.h</text>
</a>
</g>
</g>
<!-- Node3&#45;&gt;Node17 -->
<g id="edge19_Node000003_Node000017" class="edge">
<title>Node3&#45;&gt;Node17</title>
<g id="a_edge19_Node000003_Node000017"><a xlink:title=" ">
<path fill="none" stroke="#63b8ff" d="M461.08,-329.75C469.09,-322.03 480.96,-310.6 490.62,-301.28"/>
<polygon fill="#63b8ff" stroke="#63b8ff" points="493.31,-303.55 498.09,-294.09 488.46,-298.51 493.31,-303.55"/>
</a>
</g>
</g>
<!-- Node18 -->
<g id="Node000018" class="node">
<title>Node18</title>
<g id="a_Node000018"><a xlink:href="../../da/de9/SdSpiArduinoDriver_8h.xhtml" target="_top" xlink:title="SpiDriver classes for Arduino compatible systems.">
<polygon fill="white" stroke="#666666" points="468.5,-294 349.5,-294 349.5,-275 468.5,-275 468.5,-294"/>
<text text-anchor="middle" x="409" y="-282" font-family="Helvetica,sans-Serif" font-size="10.00">SdSpiArduinoDriver.h</text>
</a>
</g>
</g>
<!-- Node3&#45;&gt;Node18 -->
<g id="edge20_Node000003_Node000018" class="edge">
<title>Node3&#45;&gt;Node18</title>
<g id="a_edge20_Node000003_Node000018"><a xlink:title=" ">
<path fill="none" stroke="#63b8ff" d="M444.9,-329.75C438.83,-322.26 429.91,-311.28 422.49,-302.13"/>
<polygon fill="#63b8ff" stroke="#63b8ff" points="424.99,-299.65 415.97,-294.09 419.55,-304.06 424.99,-299.65"/>
</a>
</g>
</g>
<!-- Node4&#45;&gt;Node2 -->
<g id="edge4_Node000004_Node000002" class="edge">
<title>Node4&#45;&gt;Node2</title>
<g id="a_edge4_Node000004_Node000002"><a xlink:title=" ">
<path fill="none" stroke="#63b8ff" d="M448.94,-219.98C397.28,-209.77 311.47,-192.8 262.11,-183.04"/>
<polygon fill="#63b8ff" stroke="#63b8ff" points="262.64,-179.57 252.15,-181.07 261.29,-186.44 262.64,-179.57"/>
</a>
</g>
</g>
<!-- Node5 -->
<g id="Node000005" class="node">
<title>Node5</title>
<g id="a_Node000005"><a xlink:title=" ">
<polygon fill="#e0e0e0" stroke="#999999" points="359.5,-129 306.5,-129 306.5,-110 359.5,-110 359.5,-129"/>
<text text-anchor="middle" x="333" y="-117" font-family="Helvetica,sans-Serif" font-size="10.00">stdint.h</text>
</a>
</g>
</g>
<!-- Node4&#45;&gt;Node5 -->
<g id="edge5_Node000004_Node000005" class="edge">
<title>Node4&#45;&gt;Node5</title>
<g id="a_edge5_Node000004_Node000005"><a xlink:title=" ">
<path fill="none" stroke="#63b8ff" d="M466.44,-219.95C445.8,-212.35 416.57,-199.98 394,-184 375.19,-170.69 357.39,-151.04 345.92,-137.13"/>
<polygon fill="#63b8ff" stroke="#63b8ff" points="348.64,-134.93 339.65,-129.32 343.18,-139.31 348.64,-134.93"/>
</a>
</g>
</g>
<!-- Node6 -->
<g id="Node000006" class="node">
<title>Node6</title>
<g id="a_Node000006"><a xlink:href="../../d4/d1f/SdFatConfig_8h.xhtml" target="_top" xlink:title="configuration definitions">
<polygon fill="white" stroke="#666666" points="495,-184 403,-184 403,-165 495,-165 495,-184"/>
<text text-anchor="middle" x="449" y="-172" font-family="Helvetica,sans-Serif" font-size="10.00">../SdFatConfig.h</text>
</a>
</g>
</g>
<!-- Node4&#45;&gt;Node6 -->
<g id="edge6_Node000004_Node000006" class="edge">
<title>Node4&#45;&gt;Node6</title>
<g id="a_edge6_Node000004_Node000006"><a xlink:title=" ">
<path fill="none" stroke="#63b8ff" d="M484.9,-219.75C478.83,-212.26 469.91,-201.28 462.49,-192.13"/>
<polygon fill="#63b8ff" stroke="#63b8ff" points="464.99,-189.65 455.97,-184.09 459.55,-194.06 464.99,-189.65"/>
</a>
</g>
</g>
<!-- Node6&#45;&gt;Node5 -->
<g id="edge7_Node000006_Node000005" class="edge">
<title>Node6&#45;&gt;Node5</title>
<g id="a_edge7_Node000006_Node000005"><a xlink:title=" ">
<path fill="none" stroke="#63b8ff" d="M430.36,-164.98C411.7,-156.46 382.75,-143.23 361.26,-133.41"/>
<polygon fill="#63b8ff" stroke="#63b8ff" points="362.53,-130.14 351.98,-129.17 359.62,-136.51 362.53,-130.14"/>
</a>
</g>
</g>
<!-- Node7 -->
<g id="Node000007" class="node">
<title>Node7</title>
<g id="a_Node000007"><a xlink:href="../../de/df0/Arduino_8h.xhtml" target="_top" xlink:title=" ">
<polygon fill="white" stroke="#666666" points="480.5,-129 417.5,-129 417.5,-110 480.5,-110 480.5,-129"/>
<text text-anchor="middle" x="449" y="-117" font-family="Helvetica,sans-Serif" font-size="10.00">Arduino.h</text>
</a>
</g>
</g>
<!-- Node6&#45;&gt;Node7 -->
<g id="edge8_Node000006_Node000007" class="edge">
<title>Node6&#45;&gt;Node7</title>
<g id="a_edge8_Node000006_Node000007"><a xlink:title=" ">
<path fill="none" stroke="#63b8ff" d="M449,-164.75C449,-157.8 449,-147.85 449,-139.13"/>
<polygon fill="#63b8ff" stroke="#63b8ff" points="452.5,-139.09 449,-129.09 445.5,-139.09 452.5,-139.09"/>
</a>
</g>
</g>
<!-- Node8 -->
<g id="Node000008" class="node">
<title>Node8</title>
<g id="a_Node000008"><a xlink:title=" ">
<polygon fill="#e0e0e0" stroke="#999999" points="165.5,-74 112.5,-74 112.5,-55 165.5,-55 165.5,-74"/>
<text text-anchor="middle" x="139" y="-62" font-family="Helvetica,sans-Serif" font-size="10.00">stdlib.h</text>
</a>
</g>
</g>
<!-- Node7&#45;&gt;Node8 -->
<g id="edge9_Node000007_Node000008" class="edge">
<title>Node7&#45;&gt;Node8</title>
<g id="a_edge9_Node000007_Node000008"><a xlink:title=" ">
<path fill="none" stroke="#63b8ff" d="M417.23,-114.09C367.78,-107.06 269.24,-92.4 175.61,-73.99"/>
<polygon fill="#63b8ff" stroke="#63b8ff" points="176.18,-70.54 165.69,-72.02 174.82,-77.4 176.18,-70.54"/>
</a>
</g>
</g>
<!-- Node9 -->
<g id="Node000009" class="node">
<title>Node9</title>
<g id="a_Node000009"><a xlink:title=" ">
<polygon fill="#e0e0e0" stroke="#999999" points="246,-74 184,-74 184,-55 246,-55 246,-74"/>
<text text-anchor="middle" x="215" y="-62" font-family="Helvetica,sans-Serif" font-size="10.00">stdbool.h</text>
</a>
</g>
</g>
<!-- Node7&#45;&gt;Node9 -->
<g id="edge10_Node000007_Node000009" class="edge">
<title>Node7&#45;&gt;Node9</title>
<g id="a_edge10_Node000007_Node000009"><a xlink:title=" ">
<path fill="none" stroke="#63b8ff" d="M417.44,-111.35C375.69,-101.9 302.02,-85.21 256,-74.79"/>
<polygon fill="#63b8ff" stroke="#63b8ff" points="256.58,-71.33 246.06,-72.53 255.04,-78.16 256.58,-71.33"/>
</a>
</g>
</g>
<!-- Node10 -->
<g id="Node000010" class="node">
<title>Node10</title>
<g id="a_Node000010"><a xlink:title=" ">
<polygon fill="#e0e0e0" stroke="#999999" points="317.5,-74 264.5,-74 264.5,-55 317.5,-55 317.5,-74"/>
<text text-anchor="middle" x="291" y="-62" font-family="Helvetica,sans-Serif" font-size="10.00">string.h</text>
</a>
</g>
</g>
<!-- Node7&#45;&gt;Node10 -->
<g id="edge11_Node000007_Node000010" class="edge">
<title>Node7&#45;&gt;Node10</title>
<g id="a_edge11_Node000007_Node000010"><a xlink:title=" ">
<path fill="none" stroke="#63b8ff" d="M423.61,-109.98C397.2,-101.13 355.65,-87.19 326.11,-77.28"/>
<polygon fill="#63b8ff" stroke="#63b8ff" points="327.18,-73.94 316.58,-74.08 324.95,-80.58 327.18,-73.94"/>
</a>
</g>
</g>
<!-- Node11 -->
<g id="Node000011" class="node">
<title>Node11</title>
<g id="a_Node000011"><a xlink:title=" ">
<polygon fill="#e0e0e0" stroke="#999999" points="386.5,-74 335.5,-74 335.5,-55 386.5,-55 386.5,-74"/>
<text text-anchor="middle" x="361" y="-62" font-family="Helvetica,sans-Serif" font-size="10.00">math.h</text>
</a>
</g>
</g>
<!-- Node7&#45;&gt;Node11 -->
<g id="edge12_Node000007_Node000011" class="edge">
<title>Node7&#45;&gt;Node11</title>
<g id="a_edge12_Node000007_Node000011"><a xlink:title=" ">
<path fill="none" stroke="#63b8ff" d="M434.86,-109.98C421.21,-101.77 400.31,-89.18 384.22,-79.49"/>
<polygon fill="#63b8ff" stroke="#63b8ff" points="385.77,-76.33 375.4,-74.17 382.16,-82.33 385.77,-76.33"/>
</a>
</g>
</g>
<!-- Node12 -->
<g id="Node000012" class="node">
<title>Node12</title>
<g id="a_Node000012"><a xlink:title=" ">
<polygon fill="#e0e0e0" stroke="#999999" points="532.5,-19 437.5,-19 437.5,0 532.5,0 532.5,-19"/>
<text text-anchor="middle" x="485" y="-7" font-family="Helvetica,sans-Serif" font-size="10.00">avr/pgmspace.h</text>
</a>
</g>
</g>
<!-- Node7&#45;&gt;Node12 -->
<g id="edge13_Node000007_Node000012" class="edge">
<title>Node7&#45;&gt;Node12</title>
<g id="a_edge13_Node000007_Node000012"><a xlink:title=" ">
<path fill="none" stroke="#63b8ff" d="M465.58,-109.87C478.17,-102.3 494.54,-90.01 502,-74 508.92,-59.16 502.74,-41.02 495.98,-27.93"/>
<polygon fill="#63b8ff" stroke="#63b8ff" points="498.9,-25.99 490.9,-19.04 492.83,-29.46 498.9,-25.99"/>
</a>
</g>
</g>
<!-- Node13 -->
<g id="Node000013" class="node">
<title>Node13</title>
<g id="a_Node000013"><a xlink:title=" ">
<polygon fill="#e0e0e0" stroke="#999999" points="602.5,-74 549.5,-74 549.5,-55 602.5,-55 602.5,-74"/>
<text text-anchor="middle" x="576" y="-62" font-family="Helvetica,sans-Serif" font-size="10.00">avr/io.h</text>
</a>
</g>
</g>
<!-- Node7&#45;&gt;Node13 -->
<g id="edge14_Node000007_Node000013" class="edge">
<title>Node7&#45;&gt;Node13</title>
<g id="a_edge14_Node000007_Node000013"><a xlink:title=" ">
<path fill="none" stroke="#63b8ff" d="M469.4,-109.98C490.02,-101.38 522.11,-87.99 545.69,-78.15"/>
<polygon fill="#63b8ff" stroke="#63b8ff" points="547.34,-81.25 555.22,-74.17 544.65,-74.79 547.34,-81.25"/>
</a>
</g>
</g>
<!-- Node14 -->
<g id="Node000014" class="node">
<title>Node14</title>
<g id="a_Node000014"><a xlink:title=" ">
<polygon fill="#e0e0e0" stroke="#999999" points="707,-74 621,-74 621,-55 707,-55 707,-74"/>
<text text-anchor="middle" x="664" y="-62" font-family="Helvetica,sans-Serif" font-size="10.00">avr/interrupt.h</text>
</a>
</g>
</g>
<!-- Node7&#45;&gt;Node14 -->
<g id="edge15_Node000007_Node000014" class="edge">
<title>Node7&#45;&gt;Node14</title>
<g id="a_edge15_Node000007_Node000014"><a xlink:title=" ">
<path fill="none" stroke="#63b8ff" d="M480.72,-110.68C517.41,-101.64 578.06,-86.68 619.47,-76.48"/>
<polygon fill="#63b8ff" stroke="#63b8ff" points="620.42,-79.85 629.29,-74.06 618.75,-73.05 620.42,-79.85"/>
</a>
</g>
</g>
<!-- Node15 -->
<g id="Node000015" class="node">
<title>Node15</title>
<g id="a_Node000015"><a xlink:href="../../d8/da4/binary_8h.xhtml" target="_top" xlink:title=" ">
<polygon fill="white" stroke="#666666" points="780.5,-74 725.5,-74 725.5,-55 780.5,-55 780.5,-74"/>
<text text-anchor="middle" x="753" y="-62" font-family="Helvetica,sans-Serif" font-size="10.00">binary.h</text>
</a>
</g>
</g>
<!-- Node7&#45;&gt;Node15 -->
<g id="edge16_Node000007_Node000015" class="edge">
<title>Node7&#45;&gt;Node15</title>
<g id="a_edge16_Node000007_Node000015"><a xlink:title=" ">
<path fill="none" stroke="#63b8ff" d="M480.76,-113.84C529.14,-106.61 624.4,-91.84 715.25,-74.04"/>
<polygon fill="#63b8ff" stroke="#63b8ff" points="716.03,-77.46 725.16,-72.09 714.67,-70.59 716.03,-77.46"/>
</a>
</g>
</g>
<!-- Node16 -->
<g id="Node000016" class="node">
<title>Node16</title>
<g id="a_Node000016"><a xlink:href="../../d1/dce/pins__arduino_8h.xhtml" target="_top" xlink:title=" ">
<polygon fill="white" stroke="#666666" points="493,-74 405,-74 405,-55 493,-55 493,-74"/>
<text text-anchor="middle" x="449" y="-62" font-family="Helvetica,sans-Serif" font-size="10.00">pins_arduino.h</text>
</a>
</g>
</g>
<!-- Node7&#45;&gt;Node16 -->
<g id="edge17_Node000007_Node000016" class="edge">
<title>Node7&#45;&gt;Node16</title>
<g id="a_edge17_Node000007_Node000016"><a xlink:title=" ">
<path fill="none" stroke="#63b8ff" d="M449,-109.75C449,-102.8 449,-92.85 449,-84.13"/>
<polygon fill="#63b8ff" stroke="#63b8ff" points="452.5,-84.09 449,-74.09 445.5,-84.09 452.5,-84.09"/>
</a>
</g>
</g>
<!-- Node16&#45;&gt;Node12 -->
<g id="edge18_Node000016_Node000012" class="edge">
<title>Node16&#45;&gt;Node12</title>
<g id="a_edge18_Node000016_Node000012"><a xlink:title=" ">
<path fill="none" stroke="#63b8ff" d="M454.94,-54.75C459.98,-47.34 467.34,-36.5 473.51,-27.41"/>
<polygon fill="#63b8ff" stroke="#63b8ff" points="476.44,-29.33 479.17,-19.09 470.65,-25.39 476.44,-29.33"/>
</a>
</g>
</g>
<!-- Node19 -->
<g id="Node000019" class="node">
<title>Node19</title>
<g id="a_Node000019"><a xlink:href="../../db/d6a/SdSpiLibDriver_8h.xhtml" target="_top" xlink:title="Class using only simple SPI library functions.">
<polygon fill="white" stroke="#666666" points="416,-239 320,-239 320,-220 416,-220 416,-239"/>
<text text-anchor="middle" x="368" y="-227" font-family="Helvetica,sans-Serif" font-size="10.00">SdSpiLibDriver.h</text>
</a>
</g>
</g>
<!-- Node18&#45;&gt;Node19 -->
<g id="edge21_Node000018_Node000019" class="edge">
<title>Node18&#45;&gt;Node19</title>
<g id="a_edge21_Node000018_Node000019"><a xlink:title=" ">
<path fill="none" stroke="#63b8ff" d="M402.23,-274.75C396.44,-267.26 387.94,-256.28 380.86,-247.13"/>
<polygon fill="#63b8ff" stroke="#63b8ff" points="383.53,-244.86 374.64,-239.09 377.99,-249.14 383.53,-244.86"/>
</a>
</g>
</g>
<!-- Node20&#45;&gt;Node4 -->
<g id="edge25_Node000020_Node000004" class="edge">
<title>Node20&#45;&gt;Node4</title>
<g id="a_edge25_Node000020_Node000004"><a xlink:title=" ">
<path fill="none" stroke="#63b8ff" d="M324.13,-274.98C358.15,-265.97 412,-251.7 449.5,-241.76"/>
<polygon fill="#63b8ff" stroke="#63b8ff" points="450.84,-245.03 459.61,-239.08 449.05,-238.26 450.84,-245.03"/>
</a>
</g>
</g>
<!-- Node20&#45;&gt;Node5 -->
<g id="edge24_Node000020_Node000005" class="edge">
<title>Node20&#45;&gt;Node5</title>
<g id="a_edge24_Node000020_Node000005"><a xlink:title=" ">
<path fill="none" stroke="#63b8ff" d="M294.2,-274.74C300.63,-249.2 319.43,-174.43 328.29,-139.23"/>
<polygon fill="#63b8ff" stroke="#63b8ff" points="331.74,-139.86 330.78,-129.31 324.95,-138.15 331.74,-139.86"/>
</a>
</g>
</g>
<!-- Node21&#45;&gt;Node20 -->
<g id="edge30_Node000021_Node000020" class="edge">
<title>Node21&#45;&gt;Node20</title>
<g id="a_edge30_Node000021_Node000020"><a xlink:title=" ">
<path fill="none" stroke="#63b8ff" d="M167.78,-329.98C192.23,-321.23 230.53,-307.51 258.15,-297.62"/>
<polygon fill="#63b8ff" stroke="#63b8ff" points="259.55,-300.84 267.79,-294.17 257.19,-294.25 259.55,-300.84"/>
</a>
</g>
</g>
<!-- Node22 -->
<g id="Node000022" class="node">
<title>Node22</title>
<g id="a_Node000022"><a xlink:href="../../dc/de5/FsBlockDeviceInterface_8h.xhtml" target="_top" xlink:title="FsBlockDeviceInterface include file.">
<polygon fill="white" stroke="#666666" points="196,-239 0,-239 0,-220 196,-220 196,-239"/>
<text text-anchor="middle" x="98" y="-227" font-family="Helvetica,sans-Serif" font-size="10.00">../common/FsBlockDeviceInterface.h</text>
</a>
</g>
</g>
<!-- Node21&#45;&gt;Node22 -->
<g id="edge27_Node000021_Node000022" class="edge">
<title>Node21&#45;&gt;Node22</title>
<g id="a_edge27_Node000021_Node000022"><a xlink:title=" ">
<path fill="none" stroke="#63b8ff" d="M140.24,-329.66C132.72,-312.01 115.71,-272.09 105.72,-248.64"/>
<polygon fill="#63b8ff" stroke="#63b8ff" points="108.83,-246.99 101.69,-239.16 102.39,-249.73 108.83,-246.99"/>
</a>
</g>
</g>
<!-- Node22&#45;&gt;Node2 -->
<g id="edge28_Node000022_Node000002" class="edge">
<title>Node22&#45;&gt;Node2</title>
<g id="a_edge28_Node000022_Node000002"><a xlink:title=" ">
<path fill="none" stroke="#63b8ff" d="M118.24,-219.98C138.7,-211.38 170.53,-197.99 193.93,-188.15"/>
<polygon fill="#63b8ff" stroke="#63b8ff" points="195.53,-191.27 203.39,-184.17 192.81,-184.82 195.53,-191.27"/>
</a>
</g>
</g>
<!-- Node22&#45;&gt;Node5 -->
<g id="edge29_Node000022_Node000005" class="edge">
<title>Node22&#45;&gt;Node5</title>
<g id="a_edge29_Node000022_Node000005"><a xlink:title=" ">
<path fill="none" stroke="#63b8ff" d="M107.73,-219.92C123.4,-206.49 155.67,-180.44 187,-165 222.4,-147.56 266.03,-135.35 296.33,-128.19"/>
<polygon fill="#63b8ff" stroke="#63b8ff" points="297.49,-131.51 306.45,-125.86 295.93,-124.69 297.49,-131.51"/>
</a>
</g>
</g>
</g>
</svg>
