<?xml version="1.0" encoding="UTF-8" standalone="no"?>
<!DOCTYPE svg PUBLIC "-//W3C//DTD SVG 1.1//EN"
 "http://www.w3.org/Graphics/SVG/1.1/DTD/svg11.dtd">
<!-- Generated by graphviz version 2.43.0 (0)
 -->
<!-- Title: cpplint._ShouldPrintError Pages: 1 -->
<svg width="321pt" height="76pt"
 viewBox="0.00 0.00 321.00 75.50" xmlns="http://www.w3.org/2000/svg" xmlns:xlink="http://www.w3.org/1999/xlink">
<g id="graph0" class="graph" transform="scale(1 1) rotate(0) translate(4 71.5)">
<title>cpplint._ShouldPrintError</title>
<!-- Node1 -->
<g id="Node000001" class="node">
<title>Node1</title>
<g id="a_Node000001"><a xlink:title=" ">
<polygon fill="#999999" stroke="#666666" points="137,-45.5 0,-45.5 0,-26.5 137,-26.5 137,-45.5"/>
<text text-anchor="middle" x="68.5" y="-33.5" font-family="Helvetica,sans-Serif" font-size="10.00">cpplint._ShouldPrintError</text>
</a>
</g>
</g>
<!-- Node2 -->
<g id="Node000002" class="node">
<title>Node2</title>
<g id="a_Node000002"><a xlink:href="../../d3/d23/namespacecpplint_a579a2c20128b210a3a717c560c5757a7.xhtml#a579a2c20128b210a3a717c560c5757a7" target="_top" xlink:title=" ">
<polygon fill="white" stroke="#666666" points="287,-67.5 199,-67.5 199,-48.5 287,-48.5 287,-67.5"/>
<text text-anchor="middle" x="243" y="-55.5" font-family="Helvetica,sans-Serif" font-size="10.00">cpplint._Filters</text>
</a>
</g>
</g>
<!-- Node1&#45;&gt;Node2 -->
<g id="edge1_Node000001_Node000002" class="edge">
<title>Node1&#45;&gt;Node2</title>
<g id="a_edge1_Node000001_Node000002"><a xlink:title=" ">
<path fill="none" stroke="#63b8ff" d="M137.18,-44.63C154.22,-46.8 172.26,-49.11 188.5,-51.18"/>
<polygon fill="#63b8ff" stroke="#63b8ff" points="188.51,-54.71 198.87,-52.5 189.39,-47.76 188.51,-54.71"/>
</a>
</g>
</g>
<!-- Node3 -->
<g id="Node000003" class="node">
<title>Node3</title>
<g id="a_Node000003"><a xlink:href="../../d3/d23/namespacecpplint_a236008b9c766ce526ac9dfafeef0a246.xhtml#a236008b9c766ce526ac9dfafeef0a246" target="_top" xlink:title=" ">
<polygon fill="white" stroke="#666666" points="313,-30 173,-30 173,0 313,0 313,-30"/>
<text text-anchor="start" x="181" y="-18" font-family="Helvetica,sans-Serif" font-size="10.00">cpplint.IsErrorSuppressed</text>
<text text-anchor="middle" x="243" y="-7" font-family="Helvetica,sans-Serif" font-size="10.00">ByNolint</text>
</a>
</g>
</g>
<!-- Node1&#45;&gt;Node3 -->
<g id="edge2_Node000001_Node000003" class="edge">
<title>Node1&#45;&gt;Node3</title>
<g id="a_edge2_Node000001_Node000003"><a xlink:title=" ">
<path fill="none" stroke="#63b8ff" d="M137.18,-27.76C145.59,-26.74 154.25,-25.68 162.82,-24.64"/>
<polygon fill="#63b8ff" stroke="#63b8ff" points="163.31,-28.11 172.81,-23.42 162.46,-21.16 163.31,-28.11"/>
</a>
</g>
</g>
</g>
</svg>
