<?xml version="1.0" encoding="UTF-8" standalone="no"?>
<!DOCTYPE svg PUBLIC "-//W3C//DTD SVG 1.1//EN"
 "http://www.w3.org/Graphics/SVG/1.1/DTD/svg11.dtd">
<!-- Generated by graphviz version 2.43.0 (0)
 -->
<!-- Title: cpplint.CheckForNonConstReference Pages: 1 -->
<!--zoomable 353 -->

<svg id="main" version="1.1" xmlns="http://www.w3.org/2000/svg" xmlns:xlink="http://www.w3.org/1999/xlink" xml:space="preserve" onload="init(evt)">
<style type="text/css"><![CDATA[
.node, .edge {opacity: 0.7;}
.node.selected, .edge.selected {opacity: 1;}
.edge:hover path { stroke: red; }
.edge:hover polygon { stroke: red; fill: red; }
]]></style>

<defs>
  <circle id="rim" cx="0" cy="0" r="7"/>
  <circle id="rim2" cx="0" cy="0" r="3.5"/>
  <g id="zoomPlus">
    <use xlink:href="#rim" fill="#404040"><set attributeName="fill" to="#808080" begin="zoomplus.mouseover" end="zoomplus.mouseout"/></use>
    <path d="M-4,0h8M0,-4v8" fill="none" stroke="white" stroke-width="1.5" pointer-events="none"/>
  </g>
  <g id="zoomMin">
    <use xlink:href="#rim" fill="#404040"><set attributeName="fill" to="#808080" begin="zoomminus.mouseover" end="zoomminus.mouseout"/></use>
    <path d="M-4,0h8" fill="none" stroke="white" stroke-width="1.5" pointer-events="none"/>
  </g>
  <g id="arrowUp" transform="translate(30 24)">
    <use xlink:href="#rim"/>
    <path pointer-events="none" fill="none" stroke="white" stroke-width="1.5" d="M0,-3.0v7 M-2.5,-0.5L0,-3.0L2.5,-0.5"/>
  </g>
  <g id="arrowRight" transform="rotate(90) translate(36 -43)">
    <use xlink:href="#rim"/>
    <path pointer-events="none" fill="none" stroke="white" stroke-width="1.5" d="M0,-3.0v7 M-2.5,-0.5L0,-3.0L2.5,-0.5"/>
  </g>
  <g id="arrowDown" transform="rotate(180) translate(-30 -48)">
    <use xlink:href="#rim"/>
    <path pointer-events="none" fill="none" stroke="white" stroke-width="1.5" d="M0,-3.0v7 M-2.5,-0.5L0,-3.0L2.5,-0.5"/>
  </g>
  <g id="arrowLeft" transform="rotate(270) translate(-36 17)">
    <use xlink:href="#rim"/>
    <path pointer-events="none" fill="none" stroke="white" stroke-width="1.5" d="M0,-3.0v7 M-2.5,-0.5L0,-3.0L2.5,-0.5"/>
  </g>
  <g id="resetDef">
    <use xlink:href="#rim2" fill="#404040"><set attributeName="fill" to="#808080" begin="reset.mouseover" end="reset.mouseout"/></use>
  </g>
</defs>
<script type="application/ecmascript">
var viewWidth = 872;
var viewHeight = 353;
var sectionId = 'dynsection-51';
</script>
<script type="application/ecmascript" xlink:href="../../svg.min.js"/>
<svg id="graph" class="graph">
<g id="viewport">
<title>cpplint.CheckForNonConstReference</title>
<!-- Node1 -->
<g id="Node000001" class="node">
<title>Node1</title>
<g id="a_Node000001"><a xlink:title=" ">
<polygon fill="#999999" stroke="#666666" points="145,-206.82 0,-206.82 0,-176.82 145,-176.82 145,-206.82"/>
<text text-anchor="start" x="8" y="-194.82" font-family="Helvetica,sans-Serif" font-size="10.00">cpplint.CheckForNonConst</text>
<text text-anchor="middle" x="72.5" y="-183.82" font-family="Helvetica,sans-Serif" font-size="10.00">Reference</text>
</a>
</g>
</g>
<!-- Node2 -->
<g id="Node000002" class="node">
<title>Node2</title>
<g id="a_Node000002"><a xlink:href="../../d3/d23/namespacecpplint.xhtml#aaa385f3280ce7c3f7bf64b52918028ca" target="_top" xlink:title=" ">
<polygon fill="white" stroke="#666666" points="337.5,-115.32 197.5,-115.32 197.5,-96.32 337.5,-96.32 337.5,-115.32"/>
<text text-anchor="middle" x="267.5" y="-103.32" font-family="Helvetica,sans-Serif" font-size="10.00">cpplint.IsDerivedFunction</text>
</a>
</g>
</g>
<!-- Node1&#45;&gt;Node2 -->
<g id="edge1_Node000001_Node000002" class="edge">
<title>Node1&#45;&gt;Node2</title>
<g id="a_edge1_Node000001_Node000002"><a xlink:title=" ">
<path fill="none" stroke="#63b8ff" d="M100.88,-176.6C122.34,-164.98 153.13,-148.95 181,-136.82 195.94,-130.32 212.73,-124.02 227.45,-118.82"/>
<polygon fill="#63b8ff" stroke="#63b8ff" points="228.96,-122 237.26,-115.41 226.66,-115.39 228.96,-122"/>
</a>
</g>
</g>
<!-- Node5 -->
<g id="Node000005" class="node">
<title>Node5</title>
<g id="a_Node000005"><a xlink:href="../../d3/d23/namespacecpplint.xhtml#a515e256f8ccda50d15b9b7401f5264f7" target="_top" xlink:title=" ">
<polygon fill="white" stroke="#666666" points="864,-239.32 778,-239.32 778,-220.32 864,-220.32 864,-239.32"/>
<text text-anchor="middle" x="821" y="-227.32" font-family="Helvetica,sans-Serif" font-size="10.00">cpplint.Search</text>
</a>
</g>
</g>
<!-- Node1&#45;&gt;Node5 -->
<g id="edge19_Node000001_Node000005" class="edge">
<title>Node1&#45;&gt;Node5</title>
<g id="a_edge19_Node000001_Node000005"><a xlink:title=" ">
<path fill="none" stroke="#63b8ff" d="M84.3,-206.93C101.65,-229.81 138.19,-272.4 181,-289.82 412.13,-383.84 503.77,-342.04 742,-267.82 760.4,-262.08 779.9,-252.59 794.8,-244.52"/>
<polygon fill="#63b8ff" stroke="#63b8ff" points="796.82,-247.4 803.86,-239.48 793.42,-241.28 796.82,-247.4"/>
</a>
</g>
</g>
<!-- Node6 -->
<g id="Node000006" class="node">
<title>Node6</title>
<g id="a_Node000006"><a xlink:href="../../d3/d23/namespacecpplint.xhtml#aa0db7290fc6bd23f44b6602a6ae22738" target="_top" xlink:title=" ">
<polygon fill="white" stroke="#666666" points="706,-179.32 623,-179.32 623,-160.32 706,-160.32 706,-179.32"/>
<text text-anchor="middle" x="664.5" y="-167.32" font-family="Helvetica,sans-Serif" font-size="10.00">cpplint.Match</text>
</a>
</g>
</g>
<!-- Node1&#45;&gt;Node6 -->
<g id="edge13_Node000001_Node000006" class="edge">
<title>Node1&#45;&gt;Node6</title>
<g id="a_edge13_Node000001_Node000006"><a xlink:title=" ">
<path fill="none" stroke="#63b8ff" d="M145.26,-189.14C266.22,-184.63 507.78,-175.63 612.8,-171.71"/>
<polygon fill="#63b8ff" stroke="#63b8ff" points="612.96,-175.21 622.82,-171.34 612.7,-168.21 612.96,-175.21"/>
</a>
</g>
</g>
<!-- Node7 -->
<g id="Node000007" class="node">
<title>Node7</title>
<g id="a_Node000007"><a xlink:href="../../d3/d23/namespacecpplint.xhtml#a5e7367ed60644c827b59d023706c4b8a" target="_top" xlink:title=" ">
<polygon fill="white" stroke="#666666" points="532.5,-239.32 408.5,-239.32 408.5,-220.32 532.5,-220.32 532.5,-239.32"/>
<text text-anchor="middle" x="470.5" y="-227.32" font-family="Helvetica,sans-Serif" font-size="10.00">cpplint.IsInitializerList</text>
</a>
</g>
</g>
<!-- Node1&#45;&gt;Node7 -->
<g id="edge8_Node000001_Node000007" class="edge">
<title>Node1&#45;&gt;Node7</title>
<g id="a_edge8_Node000001_Node000007"><a xlink:title=" ">
<path fill="none" stroke="#63b8ff" d="M145.15,-201.62C157.11,-203.12 169.4,-204.58 181,-205.82 254.9,-213.7 339.69,-220.48 398.12,-224.81"/>
<polygon fill="#63b8ff" stroke="#63b8ff" points="398.13,-228.32 408.36,-225.56 398.64,-221.34 398.13,-228.32"/>
</a>
</g>
</g>
<!-- Node8 -->
<g id="Node000008" class="node">
<title>Node8</title>
<g id="a_Node000008"><a xlink:href="../../d3/d23/namespacecpplint.xhtml#a55f142e3a1b61d2c3b39895bd48c5d94" target="_top" xlink:title=" ">
<polygon fill="white" stroke="#666666" points="543.5,-163.82 397.5,-163.82 397.5,-133.82 543.5,-133.82 543.5,-163.82"/>
<text text-anchor="start" x="405.5" y="-151.82" font-family="Helvetica,sans-Serif" font-size="10.00">cpplint.IsOutOfLineMethod</text>
<text text-anchor="middle" x="470.5" y="-140.82" font-family="Helvetica,sans-Serif" font-size="10.00">Definition</text>
</a>
</g>
</g>
<!-- Node1&#45;&gt;Node8 -->
<g id="edge11_Node000001_Node000008" class="edge">
<title>Node1&#45;&gt;Node8</title>
<g id="a_edge11_Node000001_Node000008"><a xlink:title=" ">
<path fill="none" stroke="#63b8ff" d="M145.17,-182.19C157.13,-180.67 169.41,-179.16 181,-177.82 250.47,-169.81 329.49,-161.95 387.24,-156.44"/>
<polygon fill="#63b8ff" stroke="#63b8ff" points="387.79,-159.9 397.41,-155.47 387.12,-152.94 387.79,-159.9"/>
</a>
</g>
</g>
<!-- Node9 -->
<g id="Node000009" class="node">
<title>Node9</title>
<g id="a_Node000009"><a xlink:href="../../d3/d23/namespacecpplint.xhtml#a4524ac0ff2e171cef865a36f535495ed" target="_top" xlink:title=" ">
<polygon fill="white" stroke="#666666" points="319.5,-78.32 215.5,-78.32 215.5,-59.32 319.5,-59.32 319.5,-78.32"/>
<text text-anchor="middle" x="267.5" y="-66.32" font-family="Helvetica,sans-Serif" font-size="10.00">cpplint.ReplaceAll</text>
</a>
</g>
</g>
<!-- Node1&#45;&gt;Node9 -->
<g id="edge14_Node000001_Node000009" class="edge">
<title>Node1&#45;&gt;Node9</title>
<g id="a_edge14_Node000001_Node000009"><a xlink:title=" ">
<path fill="none" stroke="#63b8ff" d="M84.47,-176.56C102.05,-153.3 138.89,-109.31 181,-86.82 188.5,-82.81 196.82,-79.7 205.23,-77.28"/>
<polygon fill="#63b8ff" stroke="#63b8ff" points="206.3,-80.62 215.11,-74.74 204.56,-73.84 206.3,-80.62"/>
</a>
</g>
</g>
<!-- Node10 -->
<g id="Node000010" class="node">
<title>Node10</title>
<g id="a_Node000010"><a xlink:href="../../d3/d23/namespacecpplint.xhtml#a6334cf8e2b362b9cc6f28fb84a3cef48" target="_top" xlink:title=" ">
<polygon fill="white" stroke="#666666" points="354,-280.32 181,-280.32 181,-261.32 354,-261.32 354,-280.32"/>
<text text-anchor="middle" x="267.5" y="-268.32" font-family="Helvetica,sans-Serif" font-size="10.00">cpplint.ReverseCloseExpression</text>
</a>
</g>
</g>
<!-- Node1&#45;&gt;Node10 -->
<g id="edge15_Node000001_Node000010" class="edge">
<title>Node1&#45;&gt;Node10</title>
<g id="a_edge15_Node000001_Node000010"><a xlink:title=" ">
<path fill="none" stroke="#63b8ff" d="M101.74,-206.87C123.13,-217.93 153.45,-232.87 181,-243.82 194.39,-249.14 209.27,-254.14 222.81,-258.36"/>
<polygon fill="#63b8ff" stroke="#63b8ff" points="221.81,-261.71 232.4,-261.28 223.86,-255.02 221.81,-261.71"/>
</a>
</g>
</g>
<!-- Node3 -->
<g id="Node000003" class="node">
<title>Node3</title>
<g id="a_Node000003"><a xlink:href="../../d3/d23/namespacecpplint.xhtml#a1b6021bb43f15b2ba6d35664a529b9b2" target="_top" xlink:title=" ">
<polygon fill="white" stroke="#666666" points="537,-77.32 404,-77.32 404,-58.32 537,-58.32 537,-77.32"/>
<text text-anchor="middle" x="470.5" y="-65.32" font-family="Helvetica,sans-Serif" font-size="10.00">cpplint.CloseExpression</text>
</a>
</g>
</g>
<!-- Node2&#45;&gt;Node3 -->
<g id="edge2_Node000002_Node000003" class="edge">
<title>Node2&#45;&gt;Node3</title>
<g id="a_edge2_Node000002_Node000003"><a xlink:title=" ">
<path fill="none" stroke="#63b8ff" d="M318.96,-96.28C346.32,-91.11 380.32,-84.68 409.08,-79.24"/>
<polygon fill="#63b8ff" stroke="#63b8ff" points="409.84,-82.66 419.02,-77.36 408.54,-75.78 409.84,-82.66"/>
</a>
</g>
</g>
<!-- Node2&#45;&gt;Node5 -->
<g id="edge7_Node000002_Node000005" class="edge">
<title>Node2&#45;&gt;Node5</title>
<g id="a_edge7_Node000002_Node000005"><a xlink:title=" ">
<path fill="none" stroke="#63b8ff" d="M331.74,-96.28C339.51,-93.82 347.12,-90.72 354,-86.82 374.24,-75.35 368.63,-58.01 390,-48.82 533.86,13.06 613.32,24.43 742,-64.82 791.81,-99.36 810.73,-174.41 817.12,-210.15"/>
<polygon fill="#63b8ff" stroke="#63b8ff" points="813.7,-210.96 818.77,-220.26 820.61,-209.83 813.7,-210.96"/>
</a>
</g>
</g>
<!-- Node2&#45;&gt;Node6 -->
<g id="edge6_Node000002_Node000006" class="edge">
<title>Node2&#45;&gt;Node6</title>
<g id="a_edge6_Node000002_Node000006"><a xlink:title=" ">
<path fill="none" stroke="#63b8ff" d="M337.58,-104.48C395.32,-104.78 479.46,-108.53 551,-124.82 581.02,-131.65 613.48,-145.38 635.78,-155.88"/>
<polygon fill="#63b8ff" stroke="#63b8ff" points="634.45,-159.12 644.97,-160.3 637.48,-152.82 634.45,-159.12"/>
</a>
</g>
</g>
<!-- Node4 -->
<g id="Node000004" class="node">
<title>Node4</title>
<g id="a_Node000004"><a xlink:href="../../d3/d23/namespacecpplint.xhtml#a9cc0677c6efe4f143ce3705136daf4be" target="_top" xlink:title=" ">
<polygon fill="white" stroke="#666666" points="742,-103.82 587,-103.82 587,-73.82 742,-73.82 742,-103.82"/>
<text text-anchor="start" x="595" y="-91.82" font-family="Helvetica,sans-Serif" font-size="10.00">cpplint.FindEndOfExpression</text>
<text text-anchor="middle" x="664.5" y="-80.82" font-family="Helvetica,sans-Serif" font-size="10.00">InLine</text>
</a>
</g>
</g>
<!-- Node3&#45;&gt;Node4 -->
<g id="edge3_Node000003_Node000004" class="edge">
<title>Node3&#45;&gt;Node4</title>
<g id="a_edge3_Node000003_Node000004"><a xlink:title=" ">
<path fill="none" stroke="#63b8ff" d="M537.04,-74.99C549.76,-76.38 563.29,-77.86 576.57,-79.31"/>
<polygon fill="#63b8ff" stroke="#63b8ff" points="576.35,-82.81 586.67,-80.42 577.11,-75.85 576.35,-82.81"/>
</a>
</g>
</g>
<!-- Node3&#45;&gt;Node6 -->
<g id="edge5_Node000003_Node000006" class="edge">
<title>Node3&#45;&gt;Node6</title>
<g id="a_edge5_Node000003_Node000006"><a xlink:title=" ">
<path fill="none" stroke="#63b8ff" d="M512.05,-77.41C524.83,-81.13 538.8,-85.93 551,-91.82 569.73,-100.86 615.45,-134.01 642.49,-154.07"/>
<polygon fill="#63b8ff" stroke="#63b8ff" points="640.44,-156.91 650.55,-160.07 644.62,-151.29 640.44,-156.91"/>
</a>
</g>
</g>
<!-- Node4&#45;&gt;Node5 -->
<g id="edge4_Node000004_Node000005" class="edge">
<title>Node4&#45;&gt;Node5</title>
<g id="a_edge4_Node000004_Node000005"><a xlink:title=" ">
<path fill="none" stroke="#63b8ff" d="M685.49,-104.04C701.23,-116.25 723.51,-134.05 742,-150.82 764.37,-171.1 788.58,-196.15 803.99,-212.53"/>
<polygon fill="#63b8ff" stroke="#63b8ff" points="801.81,-215.32 811.2,-220.24 806.92,-210.54 801.81,-215.32"/>
</a>
</g>
</g>
<!-- Node7&#45;&gt;Node5 -->
<g id="edge10_Node000007_Node000005" class="edge">
<title>Node7&#45;&gt;Node5</title>
<g id="a_edge10_Node000007_Node000005"><a xlink:title=" ">
<path fill="none" stroke="#63b8ff" d="M532.6,-229.82C599.27,-229.82 704.85,-229.82 767.79,-229.82"/>
<polygon fill="#63b8ff" stroke="#63b8ff" points="767.89,-233.32 777.89,-229.82 767.89,-226.32 767.89,-233.32"/>
</a>
</g>
</g>
<!-- Node7&#45;&gt;Node6 -->
<g id="edge9_Node000007_Node000006" class="edge">
<title>Node7&#45;&gt;Node6</title>
<g id="a_edge9_Node000007_Node000006"><a xlink:title=" ">
<path fill="none" stroke="#63b8ff" d="M503.64,-220.25C518.13,-215.9 535.44,-210.66 551,-205.82 575.34,-198.25 602.57,-189.54 624.14,-182.59"/>
<polygon fill="#63b8ff" stroke="#63b8ff" points="625.49,-185.83 633.93,-179.43 623.34,-179.17 625.49,-185.83"/>
</a>
</g>
</g>
<!-- Node8&#45;&gt;Node6 -->
<g id="edge12_Node000008_Node000006" class="edge">
<title>Node8&#45;&gt;Node6</title>
<g id="a_edge12_Node000008_Node000006"><a xlink:title=" ">
<path fill="none" stroke="#63b8ff" d="M543.54,-156.7C566.58,-159.22 591.6,-161.95 612.79,-164.27"/>
<polygon fill="#63b8ff" stroke="#63b8ff" points="612.54,-167.77 622.86,-165.37 613.3,-160.81 612.54,-167.77"/>
</a>
</g>
</g>
<!-- Node11 -->
<g id="Node000011" class="node">
<title>Node11</title>
<g id="a_Node000011"><a xlink:href="../../d3/d23/namespacecpplint.xhtml#a3688a48ada153189003ae1638fba6f59" target="_top" xlink:title=" ">
<polygon fill="white" stroke="#666666" points="551,-287.82 390,-287.82 390,-257.82 551,-257.82 551,-287.82"/>
<text text-anchor="start" x="398" y="-275.82" font-family="Helvetica,sans-Serif" font-size="10.00">cpplint.FindStartOfExpression</text>
<text text-anchor="middle" x="470.5" y="-264.82" font-family="Helvetica,sans-Serif" font-size="10.00">InLine</text>
</a>
</g>
</g>
<!-- Node10&#45;&gt;Node11 -->
<g id="edge16_Node000010_Node000011" class="edge">
<title>Node10&#45;&gt;Node11</title>
<g id="a_edge16_Node000010_Node000011"><a xlink:title=" ">
<path fill="none" stroke="#63b8ff" d="M354.03,-271.67C362.47,-271.75 371.04,-271.84 379.52,-271.92"/>
<polygon fill="#63b8ff" stroke="#63b8ff" points="379.75,-275.43 389.79,-272.03 379.82,-268.43 379.75,-275.43"/>
</a>
</g>
</g>
<!-- Node11&#45;&gt;Node5 -->
<g id="edge18_Node000011_Node000005" class="edge">
<title>Node11&#45;&gt;Node5</title>
<g id="a_edge18_Node000011_Node000005"><a xlink:title=" ">
<path fill="none" stroke="#63b8ff" d="M551.28,-265.76C605.25,-260.62 678.06,-252.97 742,-243.82 750.42,-242.61 759.32,-241.17 767.98,-239.68"/>
<polygon fill="#63b8ff" stroke="#63b8ff" points="768.75,-243.1 777.99,-237.92 767.53,-236.21 768.75,-243.1"/>
</a>
</g>
</g>
<!-- Node11&#45;&gt;Node6 -->
<g id="edge17_Node000011_Node000006" class="edge">
<title>Node11&#45;&gt;Node6</title>
<g id="a_edge17_Node000011_Node000006"><a xlink:title=" ">
<path fill="none" stroke="#63b8ff" d="M527.08,-257.71C535.26,-254.81 543.46,-251.51 551,-247.82 586.08,-230.64 622.49,-203.37 644.06,-186.04"/>
<polygon fill="#63b8ff" stroke="#63b8ff" points="646.54,-188.53 652.09,-179.5 642.12,-183.11 646.54,-188.53"/>
</a>
</g>
</g>
</g>
</svg>

<g id="navigator" transform="translate(0 0)" fill="#404254">
  <rect fill="#f2f5e9" fill-opacity="0.5" stroke="#606060" stroke-width=".5" x="0" y="0" width="60" height="60"/>
  <use id="zoomplus" xlink:href="#zoomPlus" x="17" y="9" onmousedown="handleZoom(evt,'in')"/>
  <use id="zoomminus" xlink:href="#zoomMin" x="42" y="9" onmousedown="handleZoom(evt,'out')"/>
  <use id="reset" xlink:href="#resetDef" x="30" y="36" onmousedown="handleReset()"/>
   <use id="arrowup" xlink:href="#arrowUp" x="0" y="0" onmousedown="handlePan(0,-1)"/>
  <use id="arrowright" xlink:href="#arrowRight" x="0" y="0" onmousedown="handlePan(1,0)"/>
  <use id="arrowdown" xlink:href="#arrowDown" x="0" y="0" onmousedown="handlePan(0,1)"/>
  <use id="arrowleft" xlink:href="#arrowLeft" x="0" y="0" onmousedown="handlePan(-1,0)"/>
</g>
<svg viewBox="0 0 15 15" width="100%" height="30px" preserveAspectRatio="xMaxYMin meet">
 <g id="arrow_out" transform="scale(0.3 0.3)">
  <a xlink:href="namespacecpplint_a35d793d3e6da45146d45569fc82e0350_cgraph_org.svg" target="_base">
   <rect id="button" ry="5" rx="5" y="6" x="6" height="38" width="38"
        fill="#f2f5e9" fill-opacity="0.5" stroke="#606060" stroke-width="1.0"/>
   <path id="arrow"
     d="M 11.500037,31.436501 C 11.940474,20.09759 22.043105,11.32322 32.158766,21.979434 L 37.068811,17.246167 C 37.068811,17.246167 37.088388,32 37.088388,32 L 22.160133,31.978069 C 22.160133,31.978069 26.997745,27.140456 26.997745,27.140456 C 18.528582,18.264221 13.291696,25.230495 11.500037,31.436501 z"
     style="fill:#404040;"/>
  </a>
 </g>
</svg>

<style type='text/css'>
<![CDATA[
[data-mouse-over-selected='false'] { opacity: 0.7; }
[data-mouse-over-selected='true']  { opacity: 1.0; }
]]>
</style>
<script type="application/ecmascript"><![CDATA[
document.addEventListener('DOMContentLoaded', (event) => {
  highlightEdges();
  highlightAdjacentNodes();
});
]]></script>
</svg>
