<?xml version="1.0" encoding="UTF-8" standalone="no"?>
<!DOCTYPE svg PUBLIC "-//W3C//DTD SVG 1.1//EN"
 "http://www.w3.org/Graphics/SVG/1.1/DTD/svg11.dtd">
<!-- Generated by graphviz version 2.43.0 (0)
 -->
<!-- Title: cpplint.CleanseComments Pages: 1 -->
<svg width="1115pt" height="76pt"
 viewBox="0.00 0.00 1115.00 75.50" xmlns="http://www.w3.org/2000/svg" xmlns:xlink="http://www.w3.org/1999/xlink">
<g id="graph0" class="graph" transform="scale(1 1) rotate(0) translate(4 71.5)">
<title>cpplint.CleanseComments</title>
<!-- Node1 -->
<g id="Node000001" class="node">
<title>Node1</title>
<g id="a_Node000001"><a xlink:title=" ">
<polygon fill="#999999" stroke="#666666" points="1107,-44.5 962,-44.5 962,-25.5 1107,-25.5 1107,-44.5"/>
<text text-anchor="middle" x="1034.5" y="-32.5" font-family="Helvetica,sans-Serif" font-size="10.00">cpplint.CleanseComments</text>
</a>
</g>
</g>
<!-- Node2 -->
<g id="Node000002" class="node">
<title>Node2</title>
<g id="a_Node000002"><a xlink:href="../../d3/d23/namespacecpplint.xhtml#a32b74d81109669b99567cd6444d8f1d4" target="_top" xlink:title=" ">
<polygon fill="white" stroke="#666666" points="926,-63.5 760,-63.5 760,-44.5 926,-44.5 926,-63.5"/>
<text text-anchor="middle" x="843" y="-51.5" font-family="Helvetica,sans-Serif" font-size="10.00">cpplint.CheckEmptyBlockBody</text>
</a>
</g>
</g>
<!-- Node1&#45;&gt;Node2 -->
<g id="edge1_Node000001_Node000002" class="edge">
<title>Node1&#45;&gt;Node2</title>
<g id="a_edge1_Node000001_Node000002"><a xlink:title=" ">
<path fill="none" stroke="#63b8ff" d="M951.66,-43.21C943.23,-44.05 934.67,-44.91 926.23,-45.76"/>
<polygon fill="#63b8ff" stroke="#63b8ff" points="952.26,-46.66 961.86,-42.18 951.56,-39.7 952.26,-46.66"/>
</a>
</g>
</g>
<!-- Node8 -->
<g id="Node000008" class="node">
<title>Node8</title>
<g id="a_Node000008"><a xlink:href="../../d3/d23/namespacecpplint.xhtml#a11bfdc00ed9bd66b16c882b930a6762b" target="_top" xlink:title=" ">
<polygon fill="white" stroke="#666666" points="917.5,-26.5 768.5,-26.5 768.5,-7.5 917.5,-7.5 917.5,-26.5"/>
<text text-anchor="middle" x="843" y="-14.5" font-family="Helvetica,sans-Serif" font-size="10.00">cpplint.UpdateIncludeState</text>
</a>
</g>
</g>
<!-- Node1&#45;&gt;Node8 -->
<g id="edge8_Node000001_Node000008" class="edge">
<title>Node1&#45;&gt;Node8</title>
<g id="a_edge8_Node000001_Node000008"><a xlink:title=" ">
<path fill="none" stroke="#63b8ff" d="M951.58,-27.22C940.29,-26.15 928.76,-25.05 917.63,-23.99"/>
<polygon fill="#63b8ff" stroke="#63b8ff" points="951.57,-30.73 961.86,-28.19 952.23,-23.76 951.57,-30.73"/>
</a>
</g>
</g>
<!-- Node3 -->
<g id="Node000003" class="node">
<title>Node3</title>
<g id="a_Node000003"><a xlink:href="../../d3/d23/namespacecpplint.xhtml#a2ce48db291ac037321d21b3ba3f70066" target="_top" xlink:title=" ">
<polygon fill="white" stroke="#666666" points="724,-65.5 617,-65.5 617,-46.5 724,-46.5 724,-65.5"/>
<text text-anchor="middle" x="670.5" y="-53.5" font-family="Helvetica,sans-Serif" font-size="10.00">cpplint.CheckStyle</text>
</a>
</g>
</g>
<!-- Node2&#45;&gt;Node3 -->
<g id="edge2_Node000002_Node000003" class="edge">
<title>Node2&#45;&gt;Node3</title>
<g id="a_edge2_Node000002_Node000003"><a xlink:title=" ">
<path fill="none" stroke="#63b8ff" d="M749.55,-55.08C740.88,-55.19 732.31,-55.29 724.2,-55.38"/>
<polygon fill="#63b8ff" stroke="#63b8ff" points="749.79,-58.58 759.75,-54.96 749.71,-51.58 749.79,-58.58"/>
</a>
</g>
</g>
<!-- Node4 -->
<g id="Node000004" class="node">
<title>Node4</title>
<g id="a_Node000004"><a xlink:href="../../d3/d23/namespacecpplint.xhtml#a60ab7d00cbd976925382b70bbf1fb2cf" target="_top" xlink:title=" ">
<polygon fill="white" stroke="#666666" points="557,-67.5 447,-67.5 447,-48.5 557,-48.5 557,-67.5"/>
<text text-anchor="middle" x="502" y="-55.5" font-family="Helvetica,sans-Serif" font-size="10.00">cpplint.ProcessLine</text>
</a>
</g>
</g>
<!-- Node3&#45;&gt;Node4 -->
<g id="edge3_Node000003_Node000004" class="edge">
<title>Node3&#45;&gt;Node4</title>
<g id="a_edge3_Node000003_Node000004"><a xlink:title=" ">
<path fill="none" stroke="#63b8ff" d="M606.8,-56.75C590.43,-56.95 572.93,-57.16 557.06,-57.35"/>
<polygon fill="#63b8ff" stroke="#63b8ff" points="606.86,-60.25 616.82,-56.63 606.78,-53.25 606.86,-60.25"/>
</a>
</g>
</g>
<!-- Node5 -->
<g id="Node000005" class="node">
<title>Node5</title>
<g id="a_Node000005"><a xlink:href="../../d3/d23/namespacecpplint.xhtml#af49dbbca393312acfa3a46984665eaff" target="_top" xlink:title=" ">
<polygon fill="white" stroke="#666666" points="387,-45.5 256,-45.5 256,-26.5 387,-26.5 387,-45.5"/>
<text text-anchor="middle" x="321.5" y="-33.5" font-family="Helvetica,sans-Serif" font-size="10.00">cpplint.ProcessFileData</text>
</a>
</g>
</g>
<!-- Node4&#45;&gt;Node5 -->
<g id="edge4_Node000004_Node000005" class="edge">
<title>Node4&#45;&gt;Node5</title>
<g id="a_edge4_Node000004_Node000005"><a xlink:title=" ">
<path fill="none" stroke="#63b8ff" d="M437.02,-50.12C420.78,-48.11 403.32,-45.96 387.05,-43.96"/>
<polygon fill="#63b8ff" stroke="#63b8ff" points="436.61,-53.59 446.96,-51.34 437.46,-46.64 436.61,-53.59"/>
</a>
</g>
</g>
<!-- Node6 -->
<g id="Node000006" class="node">
<title>Node6</title>
<g id="a_Node000006"><a xlink:href="../../d3/d23/namespacecpplint.xhtml#acecb7a35ccd8dc94f7759b8740496f5f" target="_top" xlink:title=" ">
<polygon fill="white" stroke="#666666" points="220,-45.5 113,-45.5 113,-26.5 220,-26.5 220,-45.5"/>
<text text-anchor="middle" x="166.5" y="-33.5" font-family="Helvetica,sans-Serif" font-size="10.00">cpplint.ProcessFile</text>
</a>
</g>
</g>
<!-- Node5&#45;&gt;Node6 -->
<g id="edge5_Node000005_Node000006" class="edge">
<title>Node5&#45;&gt;Node6</title>
<g id="a_edge5_Node000005_Node000006"><a xlink:title=" ">
<path fill="none" stroke="#63b8ff" d="M245.38,-36C236.95,-36 228.51,-36 220.45,-36"/>
<polygon fill="#63b8ff" stroke="#63b8ff" points="245.61,-39.5 255.61,-36 245.61,-32.5 245.61,-39.5"/>
</a>
</g>
</g>
<!-- Node7 -->
<g id="Node000007" class="node">
<title>Node7</title>
<g id="a_Node000007"><a xlink:href="../../d3/d23/namespacecpplint.xhtml#acf4a1286bb0905ffa465d24881a5d2e7" target="_top" xlink:title=" ">
<polygon fill="white" stroke="#666666" points="77,-45.5 0,-45.5 0,-26.5 77,-26.5 77,-45.5"/>
<text text-anchor="middle" x="38.5" y="-33.5" font-family="Helvetica,sans-Serif" font-size="10.00">cpplint.main</text>
</a>
</g>
</g>
<!-- Node6&#45;&gt;Node7 -->
<g id="edge6_Node000006_Node000007" class="edge">
<title>Node6&#45;&gt;Node7</title>
<g id="a_edge6_Node000006_Node000007"><a xlink:title=" ">
<path fill="none" stroke="#63b8ff" d="M102.59,-36C93.85,-36 85.12,-36 77.05,-36"/>
<polygon fill="#63b8ff" stroke="#63b8ff" points="102.79,-39.5 112.79,-36 102.79,-32.5 102.79,-39.5"/>
</a>
</g>
</g>
<!-- Node7&#45;&gt;Node7 -->
<g id="edge7_Node000007_Node000007" class="edge">
<title>Node7&#45;&gt;Node7</title>
<g id="a_edge7_Node000007_Node000007"><a xlink:title=" ">
<path fill="none" stroke="#63b8ff" d="M62.2,-55.05C60.62,-59.88 52.72,-63.5 38.5,-63.5 15.75,-63.5 9.17,-54.23 18.77,-45.58"/>
<polygon fill="#63b8ff" stroke="#63b8ff" points="65.33,-53.45 58.23,-45.58 58.87,-56.16 65.33,-53.45"/>
</a>
</g>
</g>
<!-- Node9 -->
<g id="Node000009" class="node">
<title>Node9</title>
<g id="a_Node000009"><a xlink:href="../../d3/d23/namespacecpplint.xhtml#a49b0c080fd4dcf8d6bcbf23ae65ff919" target="_top" xlink:title=" ">
<polygon fill="white" stroke="#666666" points="581,-30 423,-30 423,0 581,0 581,-30"/>
<text text-anchor="start" x="431" y="-18" font-family="Helvetica,sans-Serif" font-size="10.00">cpplint.CheckForIncludeWhat</text>
<text text-anchor="middle" x="502" y="-7" font-family="Helvetica,sans-Serif" font-size="10.00">YouUse</text>
</a>
</g>
</g>
<!-- Node8&#45;&gt;Node9 -->
<g id="edge9_Node000008_Node000009" class="edge">
<title>Node8&#45;&gt;Node9</title>
<g id="a_edge9_Node000008_Node000009"><a xlink:title=" ">
<path fill="none" stroke="#63b8ff" d="M758.18,-16.51C704.05,-16.19 634.1,-15.77 581.13,-15.46"/>
<polygon fill="#63b8ff" stroke="#63b8ff" points="758.42,-20.01 768.44,-16.57 758.46,-13.01 758.42,-20.01"/>
</a>
</g>
</g>
<!-- Node9&#45;&gt;Node5 -->
<g id="edge10_Node000009_Node000005" class="edge">
<title>Node9&#45;&gt;Node5</title>
<g id="a_edge10_Node000009_Node000005"><a xlink:title=" ">
<path fill="none" stroke="#63b8ff" d="M412.79,-25.38C404.1,-26.4 395.39,-27.42 387.01,-28.41"/>
<polygon fill="#63b8ff" stroke="#63b8ff" points="413.44,-28.82 422.97,-24.18 412.63,-21.87 413.44,-28.82"/>
</a>
</g>
</g>
</g>
</svg>
