<?xml version="1.0" encoding="UTF-8" standalone="no"?>
<!DOCTYPE svg PUBLIC "-//W3C//DTD SVG 1.1//EN"
 "http://www.w3.org/Graphics/SVG/1.1/DTD/svg11.dtd">
<!-- Generated by graphviz version 2.43.0 (0)
 -->
<!-- Title: cpplint.CloseExpression Pages: 1 -->
<!--zoomable 379 -->

<svg id="main" version="1.1" xmlns="http://www.w3.org/2000/svg" xmlns:xlink="http://www.w3.org/1999/xlink" xml:space="preserve" onload="init(evt)">
<style type="text/css"><![CDATA[
.node, .edge {opacity: 0.7;}
.node.selected, .edge.selected {opacity: 1;}
.edge:hover path { stroke: red; }
.edge:hover polygon { stroke: red; fill: red; }
]]></style>

<defs>
  <circle id="rim" cx="0" cy="0" r="7"/>
  <circle id="rim2" cx="0" cy="0" r="3.5"/>
  <g id="zoomPlus">
    <use xlink:href="#rim" fill="#404040"><set attributeName="fill" to="#808080" begin="zoomplus.mouseover" end="zoomplus.mouseout"/></use>
    <path d="M-4,0h8M0,-4v8" fill="none" stroke="white" stroke-width="1.5" pointer-events="none"/>
  </g>
  <g id="zoomMin">
    <use xlink:href="#rim" fill="#404040"><set attributeName="fill" to="#808080" begin="zoomminus.mouseover" end="zoomminus.mouseout"/></use>
    <path d="M-4,0h8" fill="none" stroke="white" stroke-width="1.5" pointer-events="none"/>
  </g>
  <g id="arrowUp" transform="translate(30 24)">
    <use xlink:href="#rim"/>
    <path pointer-events="none" fill="none" stroke="white" stroke-width="1.5" d="M0,-3.0v7 M-2.5,-0.5L0,-3.0L2.5,-0.5"/>
  </g>
  <g id="arrowRight" transform="rotate(90) translate(36 -43)">
    <use xlink:href="#rim"/>
    <path pointer-events="none" fill="none" stroke="white" stroke-width="1.5" d="M0,-3.0v7 M-2.5,-0.5L0,-3.0L2.5,-0.5"/>
  </g>
  <g id="arrowDown" transform="rotate(180) translate(-30 -48)">
    <use xlink:href="#rim"/>
    <path pointer-events="none" fill="none" stroke="white" stroke-width="1.5" d="M0,-3.0v7 M-2.5,-0.5L0,-3.0L2.5,-0.5"/>
  </g>
  <g id="arrowLeft" transform="rotate(270) translate(-36 17)">
    <use xlink:href="#rim"/>
    <path pointer-events="none" fill="none" stroke="white" stroke-width="1.5" d="M0,-3.0v7 M-2.5,-0.5L0,-3.0L2.5,-0.5"/>
  </g>
  <g id="resetDef">
    <use xlink:href="#rim2" fill="#404040"><set attributeName="fill" to="#808080" begin="reset.mouseover" end="reset.mouseout"/></use>
  </g>
</defs>
<script type="application/ecmascript">
var viewWidth = 1122;
var viewHeight = 379;
var sectionId = 'dynsection-95';
</script>
<script type="application/ecmascript" xlink:href="../../svg.min.js"/>
<svg id="graph" class="graph">
<g id="viewport">
<title>cpplint.CloseExpression</title>
<!-- Node1 -->
<g id="Node000001" class="node">
<title>Node1</title>
<g id="a_Node000001"><a xlink:title=" ">
<polygon fill="#999999" stroke="#666666" points="1114,-203.5 981,-203.5 981,-184.5 1114,-184.5 1114,-203.5"/>
<text text-anchor="middle" x="1047.5" y="-191.5" font-family="Helvetica,sans-Serif" font-size="10.00">cpplint.CloseExpression</text>
</a>
</g>
</g>
<!-- Node2 -->
<g id="Node000002" class="node">
<title>Node2</title>
<g id="a_Node000002"><a xlink:href="../../d3/d23/namespacecpplint.xhtml#aafc4fb5ea490272ca6a006b9e9a1b21f" target="_top" xlink:title=" ">
<polygon fill="white" stroke="#666666" points="916.5,-370.5 800.5,-370.5 800.5,-351.5 916.5,-351.5 916.5,-370.5"/>
<text text-anchor="middle" x="858.5" y="-358.5" font-family="Helvetica,sans-Serif" font-size="10.00">cpplint.CheckBraces</text>
</a>
</g>
</g>
<!-- Node1&#45;&gt;Node2 -->
<g id="edge1_Node000001_Node000002" class="edge">
<title>Node1&#45;&gt;Node2</title>
<g id="a_edge1_Node000001_Node000002"><a xlink:title=" ">
<path fill="none" stroke="#63b8ff" d="M1039.12,-213.14C1025.64,-245.4 993.83,-310.29 945,-343 936.56,-348.66 926.68,-352.58 916.69,-355.3"/>
<polygon fill="#63b8ff" stroke="#63b8ff" points="1042.5,-214.13 1042.99,-203.54 1036,-211.51 1042.5,-214.13"/>
</a>
</g>
</g>
<!-- Node8 -->
<g id="Node000008" class="node">
<title>Node8</title>
<g id="a_Node000008"><a xlink:href="../../d3/d23/namespacecpplint.xhtml#a07255613814f8e6a67d706c97d579d12" target="_top" xlink:title=" ">
<polygon fill="white" stroke="#666666" points="935.5,-333.5 781.5,-333.5 781.5,-314.5 935.5,-314.5 935.5,-333.5"/>
<text text-anchor="middle" x="858.5" y="-321.5" font-family="Helvetica,sans-Serif" font-size="10.00">cpplint.CheckBracesSpacing</text>
</a>
</g>
</g>
<!-- Node1&#45;&gt;Node8 -->
<g id="edge8_Node000001_Node000008" class="edge">
<title>Node1&#45;&gt;Node8</title>
<g id="a_edge8_Node000001_Node000008"><a xlink:title=" ">
<path fill="none" stroke="#63b8ff" d="M1035.32,-212.28C1018.84,-237.57 985.56,-282.72 945,-306 939.08,-309.4 932.6,-312.16 925.94,-314.4"/>
<polygon fill="#63b8ff" stroke="#63b8ff" points="1038.39,-213.97 1040.79,-203.65 1032.48,-210.22 1038.39,-213.97"/>
</a>
</g>
</g>
<!-- Node9 -->
<g id="Node000009" class="node">
<title>Node9</title>
<g id="a_Node000009"><a xlink:href="../../d3/d23/namespacecpplint.xhtml#a4623b4bbd2b8b5e9bd9fb344899dac98" target="_top" xlink:title=" ">
<polygon fill="white" stroke="#666666" points="913.5,-148.5 803.5,-148.5 803.5,-129.5 913.5,-129.5 913.5,-148.5"/>
<text text-anchor="middle" x="858.5" y="-136.5" font-family="Helvetica,sans-Serif" font-size="10.00">cpplint.CheckCasts</text>
</a>
</g>
</g>
<!-- Node1&#45;&gt;Node9 -->
<g id="edge10_Node000001_Node000009" class="edge">
<title>Node1&#45;&gt;Node9</title>
<g id="a_edge10_Node000001_Node000009"><a xlink:title=" ">
<path fill="none" stroke="#63b8ff" d="M1013.6,-180.66C993.92,-173.02 968.29,-163.66 945,-157 934.06,-153.87 922.19,-151.03 910.88,-148.58"/>
<polygon fill="#63b8ff" stroke="#63b8ff" points="1012.44,-183.96 1023.02,-184.36 1015,-177.45 1012.44,-183.96"/>
</a>
</g>
</g>
<!-- Node11 -->
<g id="Node000011" class="node">
<title>Node11</title>
<g id="a_Node000011"><a xlink:href="../../d3/d23/namespacecpplint.xhtml#adab121e085a61cd10a0d7697d0ccba48" target="_top" xlink:title=" ">
<polygon fill="white" stroke="#666666" points="915,-296.5 802,-296.5 802,-277.5 915,-277.5 915,-296.5"/>
<text text-anchor="middle" x="858.5" y="-284.5" font-family="Helvetica,sans-Serif" font-size="10.00">cpplint.CheckCheck</text>
</a>
</g>
</g>
<!-- Node1&#45;&gt;Node11 -->
<g id="edge13_Node000001_Node000011" class="edge">
<title>Node1&#45;&gt;Node11</title>
<g id="a_edge13_Node000001_Node000011"><a xlink:title=" ">
<path fill="none" stroke="#63b8ff" d="M1028.91,-210.75C1009.78,-228 977.56,-254.38 945,-269 935.73,-273.16 925.45,-276.38 915.33,-278.86"/>
<polygon fill="#63b8ff" stroke="#63b8ff" points="1031.52,-213.1 1036.5,-203.75 1026.77,-207.95 1031.52,-213.1"/>
</a>
</g>
</g>
<!-- Node12 -->
<g id="Node000012" class="node">
<title>Node12</title>
<g id="a_Node000012"><a xlink:href="../../d3/d23/namespacecpplint.xhtml#a32b74d81109669b99567cd6444d8f1d4" target="_top" xlink:title=" ">
<polygon fill="white" stroke="#666666" points="941.5,-259.5 775.5,-259.5 775.5,-240.5 941.5,-240.5 941.5,-259.5"/>
<text text-anchor="middle" x="858.5" y="-247.5" font-family="Helvetica,sans-Serif" font-size="10.00">cpplint.CheckEmptyBlockBody</text>
</a>
</g>
</g>
<!-- Node1&#45;&gt;Node12 -->
<g id="edge15_Node000001_Node000012" class="edge">
<title>Node1&#45;&gt;Node12</title>
<g id="a_edge15_Node000001_Node000012"><a xlink:title=" ">
<path fill="none" stroke="#63b8ff" d="M1014.41,-207.43C994.65,-215.35 968.65,-225.13 945,-232 934.08,-235.18 922.21,-238.04 910.9,-240.49"/>
<polygon fill="#63b8ff" stroke="#63b8ff" points="1015.9,-210.6 1023.85,-203.6 1013.27,-204.12 1015.9,-210.6"/>
</a>
</g>
</g>
<!-- Node13 -->
<g id="Node000013" class="node">
<title>Node13</title>
<g id="a_Node000013"><a xlink:href="../../d3/d23/namespacecpplint.xhtml#afb7a98d5e074f7cd9d9c590a2ae9dc80" target="_top" xlink:title=" ">
<polygon fill="white" stroke="#666666" points="940.5,-222.5 776.5,-222.5 776.5,-203.5 940.5,-203.5 940.5,-222.5"/>
<text text-anchor="middle" x="858.5" y="-210.5" font-family="Helvetica,sans-Serif" font-size="10.00">cpplint.CheckOperatorSpacing</text>
</a>
</g>
</g>
<!-- Node1&#45;&gt;Node13 -->
<g id="edge17_Node000001_Node000013" class="edge">
<title>Node1&#45;&gt;Node13</title>
<g id="a_edge17_Node000001_Node000013"><a xlink:title=" ">
<path fill="none" stroke="#63b8ff" d="M970.69,-201.7C960.83,-202.7 950.71,-203.73 940.77,-204.74"/>
<polygon fill="#63b8ff" stroke="#63b8ff" points="971.24,-205.16 980.83,-200.67 970.53,-198.2 971.24,-205.16"/>
</a>
</g>
</g>
<!-- Node14 -->
<g id="Node000014" class="node">
<title>Node14</title>
<g id="a_Node000014"><a xlink:href="../../d3/d23/namespacecpplint.xhtml#a4ed66a67812b6822f2d63dfa8b8ae2fa" target="_top" xlink:title=" ">
<polygon fill="white" stroke="#666666" points="736,-110.5 569,-110.5 569,-91.5 736,-91.5 736,-110.5"/>
<text text-anchor="middle" x="652.5" y="-98.5" font-family="Helvetica,sans-Serif" font-size="10.00">cpplint.CheckRedundantVirtual</text>
</a>
</g>
</g>
<!-- Node1&#45;&gt;Node14 -->
<g id="edge19_Node000001_Node000014" class="edge">
<title>Node1&#45;&gt;Node14</title>
<g id="a_edge19_Node000001_Node000014"><a xlink:title=" ">
<path fill="none" stroke="#63b8ff" d="M1029.84,-177.12C1011.07,-159.33 978.76,-132.23 945,-120 877.65,-95.6 795.88,-92.34 736.1,-94.32"/>
<polygon fill="#63b8ff" stroke="#63b8ff" points="1027.64,-179.86 1037.25,-184.33 1032.52,-174.85 1027.64,-179.86"/>
</a>
</g>
</g>
<!-- Node15 -->
<g id="Node000015" class="node">
<title>Node15</title>
<g id="a_Node000015"><a xlink:href="../../d3/d23/namespacecpplint.xhtml#a2b9c6e28290cdb4f61d1752214e47588" target="_top" xlink:title=" ">
<polygon fill="white" stroke="#666666" points="943,-185.5 774,-185.5 774,-166.5 943,-166.5 943,-185.5"/>
<text text-anchor="middle" x="858.5" y="-173.5" font-family="Helvetica,sans-Serif" font-size="10.00">cpplint.CheckTrailingSemicolon</text>
</a>
</g>
</g>
<!-- Node1&#45;&gt;Node15 -->
<g id="edge21_Node000001_Node000015" class="edge">
<title>Node1&#45;&gt;Node15</title>
<g id="a_edge21_Node000001_Node000015"><a xlink:title=" ">
<path fill="none" stroke="#63b8ff" d="M970.68,-186.7C961.59,-185.83 952.26,-184.93 943.06,-184.04"/>
<polygon fill="#63b8ff" stroke="#63b8ff" points="970.54,-190.2 980.83,-187.68 971.22,-183.24 970.54,-190.2"/>
</a>
</g>
</g>
<!-- Node16 -->
<g id="Node000016" class="node">
<title>Node16</title>
<g id="a_Node000016"><a xlink:href="../../d8/dad/classcpplint_1_1NestingState.xhtml#a3a0d3776009d9f4542e23319bd1e92a9" target="_top" xlink:title=" ">
<polygon fill="white" stroke="#666666" points="945,-73 772,-73 772,-43 945,-43 945,-73"/>
<text text-anchor="start" x="780" y="-61" font-family="Helvetica,sans-Serif" font-size="10.00">cpplint.NestingState.InTemplate</text>
<text text-anchor="middle" x="858.5" y="-50" font-family="Helvetica,sans-Serif" font-size="10.00">ArgumentList</text>
</a>
</g>
</g>
<!-- Node1&#45;&gt;Node16 -->
<g id="edge23_Node000001_Node000016" class="edge">
<title>Node1&#45;&gt;Node16</title>
<g id="a_edge23_Node000001_Node000016"><a xlink:title=" ">
<path fill="none" stroke="#63b8ff" d="M1033.72,-175.82C1016.23,-152.19 982.7,-111.13 945,-87 936.42,-81.51 926.68,-76.93 916.93,-73.17"/>
<polygon fill="#63b8ff" stroke="#63b8ff" points="1031.11,-178.17 1039.81,-184.22 1036.78,-174.07 1031.11,-178.17"/>
</a>
</g>
</g>
<!-- Node18 -->
<g id="Node000018" class="node">
<title>Node18</title>
<g id="a_Node000018"><a xlink:href="../../d3/d23/namespacecpplint.xhtml#aaa385f3280ce7c3f7bf64b52918028ca" target="_top" xlink:title=" ">
<polygon fill="white" stroke="#666666" points="928.5,-24.5 788.5,-24.5 788.5,-5.5 928.5,-5.5 928.5,-24.5"/>
<text text-anchor="middle" x="858.5" y="-12.5" font-family="Helvetica,sans-Serif" font-size="10.00">cpplint.IsDerivedFunction</text>
</a>
</g>
</g>
<!-- Node1&#45;&gt;Node18 -->
<g id="edge25_Node000001_Node000018" class="edge">
<title>Node1&#45;&gt;Node18</title>
<g id="a_edge25_Node000001_Node000018"><a xlink:title=" ">
<path fill="none" stroke="#63b8ff" d="M1039.84,-174.47C1027.12,-140.27 996.02,-69.82 945,-34 939.52,-30.16 933.4,-27.07 927.02,-24.6"/>
<polygon fill="#63b8ff" stroke="#63b8ff" points="1036.66,-175.97 1043.32,-184.2 1043.25,-173.61 1036.66,-175.97"/>
</a>
</g>
</g>
<!-- Node3 -->
<g id="Node000003" class="node">
<title>Node3</title>
<g id="a_Node000003"><a xlink:href="../../d3/d23/namespacecpplint.xhtml#a2ce48db291ac037321d21b3ba3f70066" target="_top" xlink:title=" ">
<polygon fill="white" stroke="#666666" points="706,-259.5 599,-259.5 599,-240.5 706,-240.5 706,-259.5"/>
<text text-anchor="middle" x="652.5" y="-247.5" font-family="Helvetica,sans-Serif" font-size="10.00">cpplint.CheckStyle</text>
</a>
</g>
</g>
<!-- Node2&#45;&gt;Node3 -->
<g id="edge2_Node000002_Node000003" class="edge">
<title>Node2&#45;&gt;Node3</title>
<g id="a_edge2_Node000002_Node000003"><a xlink:title=" ">
<path fill="none" stroke="#63b8ff" d="M790.25,-349.94C783.95,-347.99 777.77,-345.69 772,-343 725.78,-321.44 681.22,-278.77 662.61,-259.65"/>
<polygon fill="#63b8ff" stroke="#63b8ff" points="789.63,-353.4 800.21,-352.74 791.53,-346.66 789.63,-353.4"/>
</a>
</g>
</g>
<!-- Node4 -->
<g id="Node000004" class="node">
<title>Node4</title>
<g id="a_Node000004"><a xlink:href="../../d3/d23/namespacecpplint.xhtml#a60ab7d00cbd976925382b70bbf1fb2cf" target="_top" xlink:title=" ">
<polygon fill="white" stroke="#666666" points="533,-129.5 423,-129.5 423,-110.5 533,-110.5 533,-129.5"/>
<text text-anchor="middle" x="478" y="-117.5" font-family="Helvetica,sans-Serif" font-size="10.00">cpplint.ProcessLine</text>
</a>
</g>
</g>
<!-- Node3&#45;&gt;Node4 -->
<g id="edge3_Node000003_Node000004" class="edge">
<title>Node3&#45;&gt;Node4</title>
<g id="a_edge3_Node000003_Node000004"><a xlink:title=" ">
<path fill="none" stroke="#63b8ff" d="M630.45,-234.13C594.21,-206.83 521.13,-151.75 491.7,-129.57"/>
<polygon fill="#63b8ff" stroke="#63b8ff" points="628.72,-237.22 638.82,-240.44 632.94,-231.63 628.72,-237.22"/>
</a>
</g>
</g>
<!-- Node5 -->
<g id="Node000005" class="node">
<title>Node5</title>
<g id="a_Node000005"><a xlink:href="../../d3/d23/namespacecpplint.xhtml#af49dbbca393312acfa3a46984665eaff" target="_top" xlink:title=" ">
<polygon fill="white" stroke="#666666" points="387,-129.5 256,-129.5 256,-110.5 387,-110.5 387,-129.5"/>
<text text-anchor="middle" x="321.5" y="-117.5" font-family="Helvetica,sans-Serif" font-size="10.00">cpplint.ProcessFileData</text>
</a>
</g>
</g>
<!-- Node4&#45;&gt;Node5 -->
<g id="edge4_Node000004_Node000005" class="edge">
<title>Node4&#45;&gt;Node5</title>
<g id="a_edge4_Node000004_Node000005"><a xlink:title=" ">
<path fill="none" stroke="#63b8ff" d="M412.76,-120C404.29,-120 395.6,-120 387.12,-120"/>
<polygon fill="#63b8ff" stroke="#63b8ff" points="412.96,-123.5 422.96,-120 412.96,-116.5 412.96,-123.5"/>
</a>
</g>
</g>
<!-- Node6 -->
<g id="Node000006" class="node">
<title>Node6</title>
<g id="a_Node000006"><a xlink:href="../../d3/d23/namespacecpplint.xhtml#acecb7a35ccd8dc94f7759b8740496f5f" target="_top" xlink:title=" ">
<polygon fill="white" stroke="#666666" points="220,-129.5 113,-129.5 113,-110.5 220,-110.5 220,-129.5"/>
<text text-anchor="middle" x="166.5" y="-117.5" font-family="Helvetica,sans-Serif" font-size="10.00">cpplint.ProcessFile</text>
</a>
</g>
</g>
<!-- Node5&#45;&gt;Node6 -->
<g id="edge5_Node000005_Node000006" class="edge">
<title>Node5&#45;&gt;Node6</title>
<g id="a_edge5_Node000005_Node000006"><a xlink:title=" ">
<path fill="none" stroke="#63b8ff" d="M245.38,-120C236.95,-120 228.51,-120 220.45,-120"/>
<polygon fill="#63b8ff" stroke="#63b8ff" points="245.61,-123.5 255.61,-120 245.61,-116.5 245.61,-123.5"/>
</a>
</g>
</g>
<!-- Node7 -->
<g id="Node000007" class="node">
<title>Node7</title>
<g id="a_Node000007"><a xlink:href="../../d3/d23/namespacecpplint.xhtml#acf4a1286bb0905ffa465d24881a5d2e7" target="_top" xlink:title=" ">
<polygon fill="white" stroke="#666666" points="77,-129.5 0,-129.5 0,-110.5 77,-110.5 77,-129.5"/>
<text text-anchor="middle" x="38.5" y="-117.5" font-family="Helvetica,sans-Serif" font-size="10.00">cpplint.main</text>
</a>
</g>
</g>
<!-- Node6&#45;&gt;Node7 -->
<g id="edge6_Node000006_Node000007" class="edge">
<title>Node6&#45;&gt;Node7</title>
<g id="a_edge6_Node000006_Node000007"><a xlink:title=" ">
<path fill="none" stroke="#63b8ff" d="M102.59,-120C93.85,-120 85.12,-120 77.05,-120"/>
<polygon fill="#63b8ff" stroke="#63b8ff" points="102.79,-123.5 112.79,-120 102.79,-116.5 102.79,-123.5"/>
</a>
</g>
</g>
<!-- Node7&#45;&gt;Node7 -->
<g id="edge7_Node000007_Node000007" class="edge">
<title>Node7&#45;&gt;Node7</title>
<g id="a_edge7_Node000007_Node000007"><a xlink:title=" ">
<path fill="none" stroke="#63b8ff" d="M62.2,-139.05C60.62,-143.88 52.72,-147.5 38.5,-147.5 15.75,-147.5 9.17,-138.23 18.77,-129.58"/>
<polygon fill="#63b8ff" stroke="#63b8ff" points="65.33,-137.45 58.23,-129.58 58.87,-140.16 65.33,-137.45"/>
</a>
</g>
</g>
<!-- Node8&#45;&gt;Node3 -->
<g id="edge9_Node000008_Node000003" class="edge">
<title>Node8&#45;&gt;Node3</title>
<g id="a_edge9_Node000008_Node000003"><a xlink:title=" ">
<path fill="none" stroke="#63b8ff" d="M792.98,-312.11C785.84,-310.3 778.72,-308.26 772,-306 734.47,-293.38 693.22,-272.04 670.63,-259.67"/>
<polygon fill="#63b8ff" stroke="#63b8ff" points="792.17,-315.52 802.71,-314.46 793.81,-308.71 792.17,-315.52"/>
</a>
</g>
</g>
<!-- Node10 -->
<g id="Node000010" class="node">
<title>Node10</title>
<g id="a_Node000010"><a xlink:href="../../d3/d23/namespacecpplint.xhtml#aeb451d66a076ed2f6bdd4fa4e5189fc5" target="_top" xlink:title=" ">
<polygon fill="white" stroke="#666666" points="717.5,-148.5 587.5,-148.5 587.5,-129.5 717.5,-129.5 717.5,-148.5"/>
<text text-anchor="middle" x="652.5" y="-136.5" font-family="Helvetica,sans-Serif" font-size="10.00">cpplint.CheckLanguage</text>
</a>
</g>
</g>
<!-- Node9&#45;&gt;Node10 -->
<g id="edge11_Node000009_Node000010" class="edge">
<title>Node9&#45;&gt;Node10</title>
<g id="a_edge11_Node000009_Node000010"><a xlink:title=" ">
<path fill="none" stroke="#63b8ff" d="M793.26,-139C769.16,-139 741.78,-139 717.68,-139"/>
<polygon fill="#63b8ff" stroke="#63b8ff" points="793.37,-142.5 803.37,-139 793.37,-135.5 793.37,-142.5"/>
</a>
</g>
</g>
<!-- Node10&#45;&gt;Node4 -->
<g id="edge12_Node000010_Node000004" class="edge">
<title>Node10&#45;&gt;Node4</title>
<g id="a_edge12_Node000010_Node000004"><a xlink:title=" ">
<path fill="none" stroke="#63b8ff" d="M577.13,-130.81C562.34,-129.18 547.07,-127.5 533.11,-125.96"/>
<polygon fill="#63b8ff" stroke="#63b8ff" points="576.94,-134.31 587.27,-131.93 577.71,-127.35 576.94,-134.31"/>
</a>
</g>
</g>
<!-- Node11&#45;&gt;Node3 -->
<g id="edge14_Node000011_Node000003" class="edge">
<title>Node11&#45;&gt;Node3</title>
<g id="a_edge14_Node000011_Node000003"><a xlink:title=" ">
<path fill="none" stroke="#63b8ff" d="M794.75,-275.62C766.39,-270.48 733.26,-264.47 706.21,-259.56"/>
<polygon fill="#63b8ff" stroke="#63b8ff" points="794.5,-279.13 804.96,-277.47 795.75,-272.24 794.5,-279.13"/>
</a>
</g>
</g>
<!-- Node12&#45;&gt;Node3 -->
<g id="edge16_Node000012_Node000003" class="edge">
<title>Node12&#45;&gt;Node3</title>
<g id="a_edge16_Node000012_Node000003"><a xlink:title=" ">
<path fill="none" stroke="#63b8ff" d="M765.2,-250C744.95,-250 724.19,-250 706.14,-250"/>
<polygon fill="#63b8ff" stroke="#63b8ff" points="765.41,-253.5 775.41,-250 765.41,-246.5 765.41,-253.5"/>
</a>
</g>
</g>
<!-- Node13&#45;&gt;Node3 -->
<g id="edge18_Node000013_Node000003" class="edge">
<title>Node13&#45;&gt;Node3</title>
<g id="a_edge18_Node000013_Node000003"><a xlink:title=" ">
<path fill="none" stroke="#63b8ff" d="M794.75,-224.38C766.39,-229.52 733.26,-235.53 706.21,-240.44"/>
<polygon fill="#63b8ff" stroke="#63b8ff" points="795.75,-227.76 804.96,-222.53 794.5,-220.87 795.75,-227.76"/>
</a>
</g>
</g>
<!-- Node14&#45;&gt;Node4 -->
<g id="edge20_Node000014_Node000004" class="edge">
<title>Node14&#45;&gt;Node4</title>
<g id="a_edge20_Node000014_Node000004"><a xlink:title=" ">
<path fill="none" stroke="#63b8ff" d="M558.57,-111.24C549.89,-112.19 541.29,-113.14 533.15,-114.04"/>
<polygon fill="#63b8ff" stroke="#63b8ff" points="559.23,-114.68 568.79,-110.11 558.46,-107.73 559.23,-114.68"/>
</a>
</g>
</g>
<!-- Node15&#45;&gt;Node3 -->
<g id="edge22_Node000015_Node000003" class="edge">
<title>Node15&#45;&gt;Node3</title>
<g id="a_edge22_Node000015_Node000003"><a xlink:title=" ">
<path fill="none" stroke="#63b8ff" d="M796.02,-187.98C787.87,-190.06 779.68,-192.4 772,-195 734.84,-207.59 693.79,-228.28 671.07,-240.37"/>
<polygon fill="#63b8ff" stroke="#63b8ff" points="797.02,-191.34 805.91,-185.58 795.37,-184.54 797.02,-191.34"/>
</a>
</g>
</g>
<!-- Node17 -->
<g id="Node000017" class="node">
<title>Node17</title>
<g id="a_Node000017"><a xlink:href="../../d8/dad/classcpplint_1_1NestingState.xhtml#a2f1325b07d3915849320dd6ad2309359" target="_top" xlink:title=" ">
<polygon fill="white" stroke="#666666" points="729.5,-67.5 575.5,-67.5 575.5,-48.5 729.5,-48.5 729.5,-67.5"/>
<text text-anchor="middle" x="652.5" y="-55.5" font-family="Helvetica,sans-Serif" font-size="10.00">cpplint.NestingState.Update</text>
</a>
</g>
</g>
<!-- Node16&#45;&gt;Node17 -->
<g id="edge24_Node000016_Node000017" class="edge">
<title>Node16&#45;&gt;Node17</title>
<g id="a_edge24_Node000016_Node000017"><a xlink:title=" ">
<path fill="none" stroke="#63b8ff" d="M761.59,-58C750.83,-58 739.97,-58 729.5,-58"/>
<polygon fill="#63b8ff" stroke="#63b8ff" points="761.87,-61.5 771.87,-58 761.87,-54.5 761.87,-61.5"/>
</a>
</g>
</g>
<!-- Node19 -->
<g id="Node000019" class="node">
<title>Node19</title>
<g id="a_Node000019"><a xlink:href="../../d3/d23/namespacecpplint.xhtml#a35d793d3e6da45146d45569fc82e0350" target="_top" xlink:title=" ">
<polygon fill="white" stroke="#666666" points="725,-30 580,-30 580,0 725,0 725,-30"/>
<text text-anchor="start" x="588" y="-18" font-family="Helvetica,sans-Serif" font-size="10.00">cpplint.CheckForNonConst</text>
<text text-anchor="middle" x="652.5" y="-7" font-family="Helvetica,sans-Serif" font-size="10.00">Reference</text>
</a>
</g>
</g>
<!-- Node18&#45;&gt;Node19 -->
<g id="edge26_Node000018_Node000019" class="edge">
<title>Node18&#45;&gt;Node19</title>
<g id="a_edge26_Node000018_Node000019"><a xlink:title=" ">
<path fill="none" stroke="#63b8ff" d="M778.28,-15C760.82,-15 742.42,-15 725.28,-15"/>
<polygon fill="#63b8ff" stroke="#63b8ff" points="778.43,-18.5 788.43,-15 778.43,-11.5 778.43,-18.5"/>
</a>
</g>
</g>
<!-- Node19&#45;&gt;Node4 -->
<g id="edge27_Node000019_Node000004" class="edge">
<title>Node19&#45;&gt;Node4</title>
<g id="a_edge27_Node000019_Node000004"><a xlink:title=" ">
<path fill="none" stroke="#63b8ff" d="M579.15,-33.93C575.66,-35.5 572.25,-37.19 569,-39 534.1,-58.43 501.43,-93.64 486.9,-110.5"/>
<polygon fill="#63b8ff" stroke="#63b8ff" points="580.66,-37.1 588.57,-30.05 577.99,-30.63 580.66,-37.1"/>
</a>
</g>
</g>
</g>
</svg>

<g id="navigator" transform="translate(0 0)" fill="#404254">
  <rect fill="#f2f5e9" fill-opacity="0.5" stroke="#606060" stroke-width=".5" x="0" y="0" width="60" height="60"/>
  <use id="zoomplus" xlink:href="#zoomPlus" x="17" y="9" onmousedown="handleZoom(evt,'in')"/>
  <use id="zoomminus" xlink:href="#zoomMin" x="42" y="9" onmousedown="handleZoom(evt,'out')"/>
  <use id="reset" xlink:href="#resetDef" x="30" y="36" onmousedown="handleReset()"/>
   <use id="arrowup" xlink:href="#arrowUp" x="0" y="0" onmousedown="handlePan(0,-1)"/>
  <use id="arrowright" xlink:href="#arrowRight" x="0" y="0" onmousedown="handlePan(1,0)"/>
  <use id="arrowdown" xlink:href="#arrowDown" x="0" y="0" onmousedown="handlePan(0,1)"/>
  <use id="arrowleft" xlink:href="#arrowLeft" x="0" y="0" onmousedown="handlePan(-1,0)"/>
</g>
<svg viewBox="0 0 15 15" width="100%" height="30px" preserveAspectRatio="xMaxYMin meet">
 <g id="arrow_out" transform="scale(0.3 0.3)">
  <a xlink:href="namespacecpplint_a1b6021bb43f15b2ba6d35664a529b9b2_icgraph_org.svg" target="_base">
   <rect id="button" ry="5" rx="5" y="6" x="6" height="38" width="38"
        fill="#f2f5e9" fill-opacity="0.5" stroke="#606060" stroke-width="1.0"/>
   <path id="arrow"
     d="M 11.500037,31.436501 C 11.940474,20.09759 22.043105,11.32322 32.158766,21.979434 L 37.068811,17.246167 C 37.068811,17.246167 37.088388,32 37.088388,32 L 22.160133,31.978069 C 22.160133,31.978069 26.997745,27.140456 26.997745,27.140456 C 18.528582,18.264221 13.291696,25.230495 11.500037,31.436501 z"
     style="fill:#404040;"/>
  </a>
 </g>
</svg>

<style type='text/css'>
<![CDATA[
[data-mouse-over-selected='false'] { opacity: 0.7; }
[data-mouse-over-selected='true']  { opacity: 1.0; }
]]>
</style>
<script type="application/ecmascript"><![CDATA[
document.addEventListener('DOMContentLoaded', (event) => {
  highlightEdges();
  highlightAdjacentNodes();
});
]]></script>
</svg>
