<?xml version="1.0" encoding="UTF-8" standalone="no"?>
<!DOCTYPE svg PUBLIC "-//W3C//DTD SVG 1.1//EN"
 "http://www.w3.org/Graphics/SVG/1.1/DTD/svg11.dtd">
<!-- Generated by graphviz version 2.43.0 (0)
 -->
<!-- Title: cpplint.CheckEmptyBlockBody Pages: 1 -->
<svg width="886pt" height="45pt"
 viewBox="0.00 0.00 886.00 45.00" xmlns="http://www.w3.org/2000/svg" xmlns:xlink="http://www.w3.org/1999/xlink">
<g id="graph0" class="graph" transform="scale(1 1) rotate(0) translate(4 41)">
<title>cpplint.CheckEmptyBlockBody</title>
<!-- Node1 -->
<g id="Node000001" class="node">
<title>Node1</title>
<g id="a_Node000001"><a xlink:title=" ">
<polygon fill="#999999" stroke="#666666" points="878,-19 712,-19 712,0 878,0 878,-19"/>
<text text-anchor="middle" x="795" y="-7" font-family="Helvetica,sans-Serif" font-size="10.00">cpplint.CheckEmptyBlockBody</text>
</a>
</g>
</g>
<!-- Node2 -->
<g id="Node000002" class="node">
<title>Node2</title>
<g id="a_Node000002"><a xlink:href="../../d3/d23/namespacecpplint_a2ce48db291ac037321d21b3ba3f70066.xhtml#a2ce48db291ac037321d21b3ba3f70066" target="_top" xlink:title=" ">
<polygon fill="white" stroke="#666666" points="676,-19 569,-19 569,0 676,0 676,-19"/>
<text text-anchor="middle" x="622.5" y="-7" font-family="Helvetica,sans-Serif" font-size="10.00">cpplint.CheckStyle</text>
</a>
</g>
</g>
<!-- Node1&#45;&gt;Node2 -->
<g id="edge1_Node000001_Node000002" class="edge">
<title>Node1&#45;&gt;Node2</title>
<g id="a_edge1_Node000001_Node000002"><a xlink:title=" ">
<path fill="none" stroke="#63b8ff" d="M701.55,-9.5C692.88,-9.5 684.31,-9.5 676.2,-9.5"/>
<polygon fill="#63b8ff" stroke="#63b8ff" points="701.75,-13 711.75,-9.5 701.75,-6 701.75,-13"/>
</a>
</g>
</g>
<!-- Node3 -->
<g id="Node000003" class="node">
<title>Node3</title>
<g id="a_Node000003"><a xlink:href="../../d3/d23/namespacecpplint_a60ab7d00cbd976925382b70bbf1fb2cf.xhtml#a60ab7d00cbd976925382b70bbf1fb2cf" target="_top" xlink:title=" ">
<polygon fill="white" stroke="#666666" points="533,-19 423,-19 423,0 533,0 533,-19"/>
<text text-anchor="middle" x="478" y="-7" font-family="Helvetica,sans-Serif" font-size="10.00">cpplint.ProcessLine</text>
</a>
</g>
</g>
<!-- Node2&#45;&gt;Node3 -->
<g id="edge2_Node000002_Node000003" class="edge">
<title>Node2&#45;&gt;Node3</title>
<g id="a_edge2_Node000002_Node000003"><a xlink:title=" ">
<path fill="none" stroke="#63b8ff" d="M558.66,-9.5C550.22,-9.5 541.62,-9.5 533.35,-9.5"/>
<polygon fill="#63b8ff" stroke="#63b8ff" points="558.84,-13 568.84,-9.5 558.84,-6 558.84,-13"/>
</a>
</g>
</g>
<!-- Node4 -->
<g id="Node000004" class="node">
<title>Node4</title>
<g id="a_Node000004"><a xlink:href="../../d3/d23/namespacecpplint_af49dbbca393312acfa3a46984665eaff.xhtml#af49dbbca393312acfa3a46984665eaff" target="_top" xlink:title=" ">
<polygon fill="white" stroke="#666666" points="387,-19 256,-19 256,0 387,0 387,-19"/>
<text text-anchor="middle" x="321.5" y="-7" font-family="Helvetica,sans-Serif" font-size="10.00">cpplint.ProcessFileData</text>
</a>
</g>
</g>
<!-- Node3&#45;&gt;Node4 -->
<g id="edge3_Node000003_Node000004" class="edge">
<title>Node3&#45;&gt;Node4</title>
<g id="a_edge3_Node000003_Node000004"><a xlink:title=" ">
<path fill="none" stroke="#63b8ff" d="M412.76,-9.5C404.29,-9.5 395.6,-9.5 387.12,-9.5"/>
<polygon fill="#63b8ff" stroke="#63b8ff" points="412.96,-13 422.96,-9.5 412.96,-6 412.96,-13"/>
</a>
</g>
</g>
<!-- Node5 -->
<g id="Node000005" class="node">
<title>Node5</title>
<g id="a_Node000005"><a xlink:href="../../d3/d23/namespacecpplint_acecb7a35ccd8dc94f7759b8740496f5f.xhtml#acecb7a35ccd8dc94f7759b8740496f5f" target="_top" xlink:title=" ">
<polygon fill="white" stroke="#666666" points="220,-19 113,-19 113,0 220,0 220,-19"/>
<text text-anchor="middle" x="166.5" y="-7" font-family="Helvetica,sans-Serif" font-size="10.00">cpplint.ProcessFile</text>
</a>
</g>
</g>
<!-- Node4&#45;&gt;Node5 -->
<g id="edge4_Node000004_Node000005" class="edge">
<title>Node4&#45;&gt;Node5</title>
<g id="a_edge4_Node000004_Node000005"><a xlink:title=" ">
<path fill="none" stroke="#63b8ff" d="M245.38,-9.5C236.95,-9.5 228.51,-9.5 220.45,-9.5"/>
<polygon fill="#63b8ff" stroke="#63b8ff" points="245.61,-13 255.61,-9.5 245.61,-6 245.61,-13"/>
</a>
</g>
</g>
<!-- Node6 -->
<g id="Node000006" class="node">
<title>Node6</title>
<g id="a_Node000006"><a xlink:href="../../d3/d23/namespacecpplint_acf4a1286bb0905ffa465d24881a5d2e7.xhtml#acf4a1286bb0905ffa465d24881a5d2e7" target="_top" xlink:title=" ">
<polygon fill="white" stroke="#666666" points="77,-19 0,-19 0,0 77,0 77,-19"/>
<text text-anchor="middle" x="38.5" y="-7" font-family="Helvetica,sans-Serif" font-size="10.00">cpplint.main</text>
</a>
</g>
</g>
<!-- Node5&#45;&gt;Node6 -->
<g id="edge5_Node000005_Node000006" class="edge">
<title>Node5&#45;&gt;Node6</title>
<g id="a_edge5_Node000005_Node000006"><a xlink:title=" ">
<path fill="none" stroke="#63b8ff" d="M102.59,-9.5C93.85,-9.5 85.12,-9.5 77.05,-9.5"/>
<polygon fill="#63b8ff" stroke="#63b8ff" points="102.79,-13 112.79,-9.5 102.79,-6 102.79,-13"/>
</a>
</g>
</g>
<!-- Node6&#45;&gt;Node6 -->
<g id="edge6_Node000006_Node000006" class="edge">
<title>Node6&#45;&gt;Node6</title>
<g id="a_edge6_Node000006_Node000006"><a xlink:title=" ">
<path fill="none" stroke="#63b8ff" d="M62.2,-28.55C60.62,-33.38 52.72,-37 38.5,-37 15.75,-37 9.17,-27.73 18.77,-19.08"/>
<polygon fill="#63b8ff" stroke="#63b8ff" points="65.33,-26.95 58.23,-19.08 58.87,-29.66 65.33,-26.95"/>
</a>
</g>
</g>
</g>
</svg>
