<?xml version="1.0" encoding="UTF-8" standalone="no"?>
<!DOCTYPE svg PUBLIC "-//W3C//DTD SVG 1.1//EN"
 "http://www.w3.org/Graphics/SVG/1.1/DTD/svg11.dtd">
<!-- Generated by graphviz version 2.43.0 (0)
 -->
<!-- Title: cpplint.CheckCasts Pages: 1 -->
<!--zoomable 192 -->

<svg id="main" version="1.1" xmlns="http://www.w3.org/2000/svg" xmlns:xlink="http://www.w3.org/1999/xlink" xml:space="preserve" onload="init(evt)">
<style type="text/css"><![CDATA[
.node, .edge {opacity: 0.7;}
.node.selected, .edge.selected {opacity: 1;}
.edge:hover path { stroke: red; }
.edge:hover polygon { stroke: red; fill: red; }
]]></style>

<defs>
  <circle id="rim" cx="0" cy="0" r="7"/>
  <circle id="rim2" cx="0" cy="0" r="3.5"/>
  <g id="zoomPlus">
    <use xlink:href="#rim" fill="#404040"><set attributeName="fill" to="#808080" begin="zoomplus.mouseover" end="zoomplus.mouseout"/></use>
    <path d="M-4,0h8M0,-4v8" fill="none" stroke="white" stroke-width="1.5" pointer-events="none"/>
  </g>
  <g id="zoomMin">
    <use xlink:href="#rim" fill="#404040"><set attributeName="fill" to="#808080" begin="zoomminus.mouseover" end="zoomminus.mouseout"/></use>
    <path d="M-4,0h8" fill="none" stroke="white" stroke-width="1.5" pointer-events="none"/>
  </g>
  <g id="arrowUp" transform="translate(30 24)">
    <use xlink:href="#rim"/>
    <path pointer-events="none" fill="none" stroke="white" stroke-width="1.5" d="M0,-3.0v7 M-2.5,-0.5L0,-3.0L2.5,-0.5"/>
  </g>
  <g id="arrowRight" transform="rotate(90) translate(36 -43)">
    <use xlink:href="#rim"/>
    <path pointer-events="none" fill="none" stroke="white" stroke-width="1.5" d="M0,-3.0v7 M-2.5,-0.5L0,-3.0L2.5,-0.5"/>
  </g>
  <g id="arrowDown" transform="rotate(180) translate(-30 -48)">
    <use xlink:href="#rim"/>
    <path pointer-events="none" fill="none" stroke="white" stroke-width="1.5" d="M0,-3.0v7 M-2.5,-0.5L0,-3.0L2.5,-0.5"/>
  </g>
  <g id="arrowLeft" transform="rotate(270) translate(-36 17)">
    <use xlink:href="#rim"/>
    <path pointer-events="none" fill="none" stroke="white" stroke-width="1.5" d="M0,-3.0v7 M-2.5,-0.5L0,-3.0L2.5,-0.5"/>
  </g>
  <g id="resetDef">
    <use xlink:href="#rim2" fill="#404040"><set attributeName="fill" to="#808080" begin="reset.mouseover" end="reset.mouseout"/></use>
  </g>
</defs>
<script type="application/ecmascript">
var viewWidth = 631;
var viewHeight = 192;
var sectionId = 'dynsection-27';
</script>
<script type="application/ecmascript" xlink:href="../../svg.min.js"/>
<svg id="graph" class="graph">
<g id="viewport">
<title>cpplint.CheckCasts</title>
<!-- Node1 -->
<g id="Node000001" class="node">
<title>Node1</title>
<g id="a_Node000001"><a xlink:title=" ">
<polygon fill="#999999" stroke="#666666" points="110,-94 0,-94 0,-75 110,-75 110,-94"/>
<text text-anchor="middle" x="55" y="-82" font-family="Helvetica,sans-Serif" font-size="10.00">cpplint.CheckCasts</text>
</a>
</g>
</g>
<!-- Node2 -->
<g id="Node000002" class="node">
<title>Node2</title>
<g id="a_Node000002"><a xlink:href="../../d3/d23/namespacecpplint.xhtml#a151aed5e7a392c99ead7f0ab4f9004b3" target="_top" xlink:title=" ">
<polygon fill="white" stroke="#666666" points="296,-19 160,-19 160,0 296,0 296,-19"/>
<text text-anchor="middle" x="228" y="-7" font-family="Helvetica,sans-Serif" font-size="10.00">cpplint.CheckCStyleCast</text>
</a>
</g>
</g>
<!-- Node1&#45;&gt;Node2 -->
<g id="edge1_Node000001_Node000002" class="edge">
<title>Node1&#45;&gt;Node2</title>
<g id="a_edge1_Node000001_Node000002"><a xlink:title=" ">
<path fill="none" stroke="#63b8ff" d="M68.06,-74.92C84.66,-62.21 115.91,-39.92 146,-27.5 151.08,-25.4 156.44,-23.53 161.89,-21.87"/>
<polygon fill="#63b8ff" stroke="#63b8ff" points="163.07,-25.17 171.74,-19.08 161.17,-18.43 163.07,-25.17"/>
</a>
</g>
</g>
<!-- Node3 -->
<g id="Node000003" class="node">
<title>Node3</title>
<g id="a_Node000003"><a xlink:href="../../d3/d23/namespacecpplint.xhtml#aa0db7290fc6bd23f44b6602a6ae22738" target="_top" xlink:title=" ">
<polygon fill="white" stroke="#666666" points="465,-92 382,-92 382,-73 465,-73 465,-92"/>
<text text-anchor="middle" x="423.5" y="-80" font-family="Helvetica,sans-Serif" font-size="10.00">cpplint.Match</text>
</a>
</g>
</g>
<!-- Node1&#45;&gt;Node3 -->
<g id="edge11_Node000001_Node000003" class="edge">
<title>Node1&#45;&gt;Node3</title>
<g id="a_edge11_Node000001_Node000003"><a xlink:title=" ">
<path fill="none" stroke="#63b8ff" d="M110.08,-84.2C180.53,-83.82 302.82,-83.15 371.65,-82.78"/>
<polygon fill="#63b8ff" stroke="#63b8ff" points="371.83,-86.28 381.81,-82.72 371.79,-79.28 371.83,-86.28"/>
</a>
</g>
</g>
<!-- Node4 -->
<g id="Node000004" class="node">
<title>Node4</title>
<g id="a_Node000004"><a xlink:href="../../d3/d23/namespacecpplint.xhtml#a515e256f8ccda50d15b9b7401f5264f7" target="_top" xlink:title=" ">
<polygon fill="white" stroke="#666666" points="623,-94 537,-94 537,-75 623,-75 623,-94"/>
<text text-anchor="middle" x="580" y="-82" font-family="Helvetica,sans-Serif" font-size="10.00">cpplint.Search</text>
</a>
</g>
</g>
<!-- Node1&#45;&gt;Node4 -->
<g id="edge12_Node000001_Node000004" class="edge">
<title>Node1&#45;&gt;Node4</title>
<g id="a_edge12_Node000001_Node000004"><a xlink:title=" ">
<path fill="none" stroke="#63b8ff" d="M66.95,-94.19C82.99,-107.7 114.39,-131.64 146,-141.5 296.66,-188.48 352.61,-203.23 501,-149.5 526.97,-140.1 550.37,-117.85 564.62,-102.01"/>
<polygon fill="#63b8ff" stroke="#63b8ff" points="567.3,-104.26 571.2,-94.41 562.01,-99.68 567.3,-104.26"/>
</a>
</g>
</g>
<!-- Node5 -->
<g id="Node000005" class="node">
<title>Node5</title>
<g id="a_Node000005"><a xlink:href="../../d3/d23/namespacecpplint.xhtml#a1b6021bb43f15b2ba6d35664a529b9b2" target="_top" xlink:title=" ">
<polygon fill="white" stroke="#666666" points="294.5,-132 161.5,-132 161.5,-113 294.5,-113 294.5,-132"/>
<text text-anchor="middle" x="228" y="-120" font-family="Helvetica,sans-Serif" font-size="10.00">cpplint.CloseExpression</text>
</a>
</g>
</g>
<!-- Node1&#45;&gt;Node5 -->
<g id="edge4_Node000001_Node000005" class="edge">
<title>Node1&#45;&gt;Node5</title>
<g id="a_edge4_Node000001_Node000005"><a xlink:title=" ">
<path fill="none" stroke="#63b8ff" d="M99.15,-94.09C121.92,-99.15 150.05,-105.4 174.12,-110.75"/>
<polygon fill="#63b8ff" stroke="#63b8ff" points="173.64,-114.23 184.16,-112.98 175.16,-107.39 173.64,-114.23"/>
</a>
</g>
</g>
<!-- Node7 -->
<g id="Node000007" class="node">
<title>Node7</title>
<g id="a_Node000007"><a xlink:href="../../d3/d23/namespacecpplint.xhtml#a161575a5016a22e21e335465a0129000" target="_top" xlink:title=" ">
<polygon fill="white" stroke="#666666" points="310,-56 146,-56 146,-37 310,-37 310,-56"/>
<text text-anchor="middle" x="228" y="-44" font-family="Helvetica,sans-Serif" font-size="10.00">cpplint.ExpectingFunctionArgs</text>
</a>
</g>
</g>
<!-- Node1&#45;&gt;Node7 -->
<g id="edge8_Node000001_Node000007" class="edge">
<title>Node1&#45;&gt;Node7</title>
<g id="a_edge8_Node000001_Node000007"><a xlink:title=" ">
<path fill="none" stroke="#63b8ff" d="M99.15,-74.91C121.92,-69.85 150.05,-63.6 174.12,-58.25"/>
<polygon fill="#63b8ff" stroke="#63b8ff" points="175.16,-61.61 184.16,-56.02 173.64,-54.77 175.16,-61.61"/>
</a>
</g>
</g>
<!-- Node2&#45;&gt;Node3 -->
<g id="edge2_Node000002_Node000003" class="edge">
<title>Node2&#45;&gt;Node3</title>
<g id="a_edge2_Node000002_Node000003"><a xlink:title=" ">
<path fill="none" stroke="#63b8ff" d="M280.5,-19.03C290.41,-21.39 300.62,-24.22 310,-27.5 341.06,-38.37 374.72,-55.62 397.05,-67.9"/>
<polygon fill="#63b8ff" stroke="#63b8ff" points="395.45,-71.01 405.89,-72.82 398.86,-64.9 395.45,-71.01"/>
</a>
</g>
</g>
<!-- Node2&#45;&gt;Node4 -->
<g id="edge3_Node000002_Node000004" class="edge">
<title>Node2&#45;&gt;Node4</title>
<g id="a_edge3_Node000002_Node000004"><a xlink:title=" ">
<path fill="none" stroke="#63b8ff" d="M296.27,-12.2C352.14,-15.91 433.15,-24.69 501,-45.5 519.88,-51.29 539.77,-61.3 554.74,-69.73"/>
<polygon fill="#63b8ff" stroke="#63b8ff" points="553.4,-73 563.8,-74.99 556.9,-66.95 553.4,-73"/>
</a>
</g>
</g>
<!-- Node5&#45;&gt;Node3 -->
<g id="edge7_Node000005_Node000003" class="edge">
<title>Node5&#45;&gt;Node3</title>
<g id="a_edge7_Node000005_Node000003"><a xlink:title=" ">
<path fill="none" stroke="#63b8ff" d="M275.35,-112.92C304.48,-106.9 342.07,-99.13 371.96,-92.95"/>
<polygon fill="#63b8ff" stroke="#63b8ff" points="372.7,-96.37 381.78,-90.92 371.28,-89.51 372.7,-96.37"/>
</a>
</g>
</g>
<!-- Node6 -->
<g id="Node000006" class="node">
<title>Node6</title>
<g id="a_Node000006"><a xlink:href="../../d3/d23/namespacecpplint.xhtml#a9cc0677c6efe4f143ce3705136daf4be" target="_top" xlink:title=" ">
<polygon fill="white" stroke="#666666" points="501,-140.5 346,-140.5 346,-110.5 501,-110.5 501,-140.5"/>
<text text-anchor="start" x="354" y="-128.5" font-family="Helvetica,sans-Serif" font-size="10.00">cpplint.FindEndOfExpression</text>
<text text-anchor="middle" x="423.5" y="-117.5" font-family="Helvetica,sans-Serif" font-size="10.00">InLine</text>
</a>
</g>
</g>
<!-- Node5&#45;&gt;Node6 -->
<g id="edge5_Node000005_Node000006" class="edge">
<title>Node5&#45;&gt;Node6</title>
<g id="a_edge5_Node000005_Node000006"><a xlink:title=" ">
<path fill="none" stroke="#63b8ff" d="M294.51,-123.52C307.74,-123.72 321.85,-123.94 335.69,-124.15"/>
<polygon fill="#63b8ff" stroke="#63b8ff" points="335.64,-127.65 345.69,-124.31 335.75,-120.65 335.64,-127.65"/>
</a>
</g>
</g>
<!-- Node6&#45;&gt;Node4 -->
<g id="edge6_Node000006_Node000004" class="edge">
<title>Node6&#45;&gt;Node4</title>
<g id="a_edge6_Node000006_Node000004"><a xlink:title=" ">
<path fill="none" stroke="#63b8ff" d="M481.15,-110.47C498.27,-105.92 516.84,-101 533.16,-96.66"/>
<polygon fill="#63b8ff" stroke="#63b8ff" points="534.23,-100 543,-94.05 532.43,-93.24 534.23,-100"/>
</a>
</g>
</g>
<!-- Node7&#45;&gt;Node3 -->
<g id="edge9_Node000007_Node000003" class="edge">
<title>Node7&#45;&gt;Node3</title>
<g id="a_edge9_Node000007_Node000003"><a xlink:title=" ">
<path fill="none" stroke="#63b8ff" d="M280.09,-56.01C308.41,-61.27 343.51,-67.8 371.77,-73.06"/>
<polygon fill="#63b8ff" stroke="#63b8ff" points="371.38,-76.55 381.85,-74.94 372.66,-69.67 371.38,-76.55"/>
</a>
</g>
</g>
<!-- Node7&#45;&gt;Node4 -->
<g id="edge10_Node000007_Node000004" class="edge">
<title>Node7&#45;&gt;Node4</title>
<g id="a_edge10_Node000007_Node000004"><a xlink:title=" ">
<path fill="none" stroke="#63b8ff" d="M310.07,-47.95C364.38,-49.88 437.33,-54.32 501,-64.5 512.96,-66.41 525.75,-69.32 537.45,-72.33"/>
<polygon fill="#63b8ff" stroke="#63b8ff" points="536.84,-75.79 547.4,-74.98 538.64,-69.02 536.84,-75.79"/>
</a>
</g>
</g>
</g>
</svg>

<g id="navigator" transform="translate(0 0)" fill="#404254">
  <rect fill="#f2f5e9" fill-opacity="0.5" stroke="#606060" stroke-width=".5" x="0" y="0" width="60" height="60"/>
  <use id="zoomplus" xlink:href="#zoomPlus" x="17" y="9" onmousedown="handleZoom(evt,'in')"/>
  <use id="zoomminus" xlink:href="#zoomMin" x="42" y="9" onmousedown="handleZoom(evt,'out')"/>
  <use id="reset" xlink:href="#resetDef" x="30" y="36" onmousedown="handleReset()"/>
   <use id="arrowup" xlink:href="#arrowUp" x="0" y="0" onmousedown="handlePan(0,-1)"/>
  <use id="arrowright" xlink:href="#arrowRight" x="0" y="0" onmousedown="handlePan(1,0)"/>
  <use id="arrowdown" xlink:href="#arrowDown" x="0" y="0" onmousedown="handlePan(0,1)"/>
  <use id="arrowleft" xlink:href="#arrowLeft" x="0" y="0" onmousedown="handlePan(-1,0)"/>
</g>
<svg viewBox="0 0 15 15" width="100%" height="30px" preserveAspectRatio="xMaxYMin meet">
 <g id="arrow_out" transform="scale(0.3 0.3)">
  <a xlink:href="namespacecpplint_a4623b4bbd2b8b5e9bd9fb344899dac98_cgraph_org.svg" target="_base">
   <rect id="button" ry="5" rx="5" y="6" x="6" height="38" width="38"
        fill="#f2f5e9" fill-opacity="0.5" stroke="#606060" stroke-width="1.0"/>
   <path id="arrow"
     d="M 11.500037,31.436501 C 11.940474,20.09759 22.043105,11.32322 32.158766,21.979434 L 37.068811,17.246167 C 37.068811,17.246167 37.088388,32 37.088388,32 L 22.160133,31.978069 C 22.160133,31.978069 26.997745,27.140456 26.997745,27.140456 C 18.528582,18.264221 13.291696,25.230495 11.500037,31.436501 z"
     style="fill:#404040;"/>
  </a>
 </g>
</svg>

<style type='text/css'>
<![CDATA[
[data-mouse-over-selected='false'] { opacity: 0.7; }
[data-mouse-over-selected='true']  { opacity: 1.0; }
]]>
</style>
<script type="application/ecmascript"><![CDATA[
document.addEventListener('DOMContentLoaded', (event) => {
  highlightEdges();
  highlightAdjacentNodes();
});
]]></script>
</svg>
