<?xml version="1.0" encoding="UTF-8" standalone="no"?>
<!DOCTYPE svg PUBLIC "-//W3C//DTD SVG 1.1//EN"
 "http://www.w3.org/Graphics/SVG/1.1/DTD/svg11.dtd">
<!-- Generated by graphviz version 2.43.0 (0)
 -->
<!-- Title: cpplint.IsDecltype Pages: 1 -->
<svg width="640pt" height="73pt"
 viewBox="0.00 0.00 640.00 72.50" xmlns="http://www.w3.org/2000/svg" xmlns:xlink="http://www.w3.org/1999/xlink">
<g id="graph0" class="graph" transform="scale(1 1) rotate(0) translate(4 68.5)">
<title>cpplint.IsDecltype</title>
<!-- Node1 -->
<g id="Node000001" class="node">
<title>Node1</title>
<g id="a_Node000001"><a xlink:title=" ">
<polygon fill="#999999" stroke="#666666" points="104,-35 0,-35 0,-16 104,-16 104,-35"/>
<text text-anchor="middle" x="52" y="-23" font-family="Helvetica,sans-Serif" font-size="10.00">cpplint.IsDecltype</text>
</a>
</g>
</g>
<!-- Node2 -->
<g id="Node000002" class="node">
<title>Node2</title>
<g id="a_Node000002"><a xlink:href="../../d3/d23/namespacecpplint.xhtml#a6334cf8e2b362b9cc6f28fb84a3cef48" target="_top" xlink:title=" ">
<polygon fill="white" stroke="#666666" points="313,-56 140,-56 140,-37 313,-37 313,-56"/>
<text text-anchor="middle" x="226.5" y="-44" font-family="Helvetica,sans-Serif" font-size="10.00">cpplint.ReverseCloseExpression</text>
</a>
</g>
</g>
<!-- Node1&#45;&gt;Node2 -->
<g id="edge1_Node000001_Node000002" class="edge">
<title>Node1&#45;&gt;Node2</title>
<g id="a_edge1_Node000001_Node000002"><a xlink:title=" ">
<path fill="none" stroke="#63b8ff" d="M104.29,-31.74C114.74,-33.02 126.01,-34.39 137.32,-35.77"/>
<polygon fill="#63b8ff" stroke="#63b8ff" points="136.9,-39.24 147.25,-36.97 137.75,-32.29 136.9,-39.24"/>
</a>
</g>
</g>
<!-- Node5 -->
<g id="Node000005" class="node">
<title>Node5</title>
<g id="a_Node000005"><a xlink:href="../../d3/d23/namespacecpplint.xhtml#a515e256f8ccda50d15b9b7401f5264f7" target="_top" xlink:title=" ">
<polygon fill="white" stroke="#666666" points="632,-19 546,-19 546,0 632,0 632,-19"/>
<text text-anchor="middle" x="589" y="-7" font-family="Helvetica,sans-Serif" font-size="10.00">cpplint.Search</text>
</a>
</g>
</g>
<!-- Node1&#45;&gt;Node5 -->
<g id="edge5_Node000001_Node000005" class="edge">
<title>Node1&#45;&gt;Node5</title>
<g id="a_edge5_Node000001_Node000005"><a xlink:title=" ">
<path fill="none" stroke="#63b8ff" d="M104.3,-23.97C206.2,-20.92 433.11,-14.13 535.77,-11.06"/>
<polygon fill="#63b8ff" stroke="#63b8ff" points="536.01,-14.56 545.9,-10.76 535.8,-7.56 536.01,-14.56"/>
</a>
</g>
</g>
<!-- Node3 -->
<g id="Node000003" class="node">
<title>Node3</title>
<g id="a_Node000003"><a xlink:href="../../d3/d23/namespacecpplint.xhtml#a3688a48ada153189003ae1638fba6f59" target="_top" xlink:title=" ">
<polygon fill="white" stroke="#666666" points="510,-64.5 349,-64.5 349,-34.5 510,-34.5 510,-64.5"/>
<text text-anchor="start" x="357" y="-52.5" font-family="Helvetica,sans-Serif" font-size="10.00">cpplint.FindStartOfExpression</text>
<text text-anchor="middle" x="429.5" y="-41.5" font-family="Helvetica,sans-Serif" font-size="10.00">InLine</text>
</a>
</g>
</g>
<!-- Node2&#45;&gt;Node3 -->
<g id="edge2_Node000002_Node000003" class="edge">
<title>Node2&#45;&gt;Node3</title>
<g id="a_edge2_Node000002_Node000003"><a xlink:title=" ">
<path fill="none" stroke="#63b8ff" d="M313.03,-47.78C321.47,-47.9 330.04,-48.03 338.52,-48.16"/>
<polygon fill="#63b8ff" stroke="#63b8ff" points="338.74,-51.66 348.79,-48.31 338.84,-44.66 338.74,-51.66"/>
</a>
</g>
</g>
<!-- Node4 -->
<g id="Node000004" class="node">
<title>Node4</title>
<g id="a_Node000004"><a xlink:href="../../d3/d23/namespacecpplint.xhtml#aa0db7290fc6bd23f44b6602a6ae22738" target="_top" xlink:title=" ">
<polygon fill="white" stroke="#666666" points="630.5,-59 547.5,-59 547.5,-40 630.5,-40 630.5,-59"/>
<text text-anchor="middle" x="589" y="-47" font-family="Helvetica,sans-Serif" font-size="10.00">cpplint.Match</text>
</a>
</g>
</g>
<!-- Node3&#45;&gt;Node4 -->
<g id="edge3_Node000003_Node000004" class="edge">
<title>Node3&#45;&gt;Node4</title>
<g id="a_edge3_Node000003_Node000004"><a xlink:title=" ">
<path fill="none" stroke="#63b8ff" d="M510.17,-49.5C519.29,-49.5 528.38,-49.5 536.97,-49.5"/>
<polygon fill="#63b8ff" stroke="#63b8ff" points="537.17,-53 547.17,-49.5 537.17,-46 537.17,-53"/>
</a>
</g>
</g>
<!-- Node3&#45;&gt;Node5 -->
<g id="edge4_Node000003_Node000005" class="edge">
<title>Node3&#45;&gt;Node5</title>
<g id="a_edge4_Node000003_Node000005"><a xlink:title=" ">
<path fill="none" stroke="#63b8ff" d="M489.6,-34.49C506.51,-30.2 524.72,-25.57 540.82,-21.48"/>
<polygon fill="#63b8ff" stroke="#63b8ff" points="541.71,-24.87 550.54,-19.01 539.98,-18.08 541.71,-24.87"/>
</a>
</g>
</g>
</g>
</svg>
