<?xml version="1.0" encoding="UTF-8" standalone="no"?>
<!DOCTYPE svg PUBLIC "-//W3C//DTD SVG 1.1//EN"
 "http://www.w3.org/Graphics/SVG/1.1/DTD/svg11.dtd">
<!-- Generated by graphviz version 2.43.0 (0)
 -->
<!-- Title: cpplint.CheckForIncludeWhatYouUse Pages: 1 -->
<svg width="676pt" height="76pt"
 viewBox="0.00 0.00 676.00 75.50" xmlns="http://www.w3.org/2000/svg" xmlns:xlink="http://www.w3.org/1999/xlink">
<g id="graph0" class="graph" transform="scale(1 1) rotate(0) translate(4 71.5)">
<title>cpplint.CheckForIncludeWhatYouUse</title>
<!-- Node1 -->
<g id="Node000001" class="node">
<title>Node1</title>
<g id="a_Node000001"><a xlink:title=" ">
<polygon fill="#999999" stroke="#666666" points="158,-45.5 0,-45.5 0,-15.5 158,-15.5 158,-45.5"/>
<text text-anchor="start" x="8" y="-33.5" font-family="Helvetica,sans-Serif" font-size="10.00">cpplint.CheckForIncludeWhat</text>
<text text-anchor="middle" x="79" y="-22.5" font-family="Helvetica,sans-Serif" font-size="10.00">YouUse</text>
</a>
</g>
</g>
<!-- Node2 -->
<g id="Node000002" class="node">
<title>Node2</title>
<g id="a_Node000002"><a xlink:href="../../d3/d23/namespacecpplint_abc0b6c4f2dcd4338c7801f54da4ce480.xhtml#abc0b6c4f2dcd4338c7801f54da4ce480" target="_top" xlink:title=" ">
<polygon fill="white" stroke="#666666" points="342,-67.5 195,-67.5 195,-37.5 342,-37.5 342,-67.5"/>
<text text-anchor="start" x="203" y="-55.5" font-family="Helvetica,sans-Serif" font-size="10.00">cpplint.FilesBelongToSame</text>
<text text-anchor="middle" x="268.5" y="-44.5" font-family="Helvetica,sans-Serif" font-size="10.00">Module</text>
</a>
</g>
</g>
<!-- Node1&#45;&gt;Node2 -->
<g id="edge1_Node000001_Node000002" class="edge">
<title>Node1&#45;&gt;Node2</title>
<g id="a_edge1_Node000001_Node000002"><a xlink:title=" ">
<path fill="none" stroke="#63b8ff" d="M158.16,-39.67C166.99,-40.71 176.02,-41.77 184.91,-42.81"/>
<polygon fill="#63b8ff" stroke="#63b8ff" points="184.53,-46.29 194.87,-43.98 185.34,-39.34 184.53,-46.29"/>
</a>
</g>
</g>
<!-- Node4 -->
<g id="Node000004" class="node">
<title>Node4</title>
<g id="a_Node000004"><a xlink:href="../../d3/d23/namespacecpplint_a11bfdc00ed9bd66b16c882b930a6762b.xhtml#a11bfdc00ed9bd66b16c882b930a6762b" target="_top" xlink:title=" ">
<polygon fill="white" stroke="#666666" points="343,-19 194,-19 194,0 343,0 343,-19"/>
<text text-anchor="middle" x="268.5" y="-7" font-family="Helvetica,sans-Serif" font-size="10.00">cpplint.UpdateIncludeState</text>
</a>
</g>
</g>
<!-- Node1&#45;&gt;Node4 -->
<g id="edge3_Node000001_Node000004" class="edge">
<title>Node1&#45;&gt;Node4</title>
<g id="a_edge3_Node000001_Node000004"><a xlink:title=" ">
<path fill="none" stroke="#63b8ff" d="M158.16,-21.75C166.68,-20.79 175.38,-19.82 183.96,-18.86"/>
<polygon fill="#63b8ff" stroke="#63b8ff" points="184.42,-22.33 193.97,-17.74 183.64,-15.37 184.42,-22.33"/>
</a>
</g>
</g>
<!-- Node3 -->
<g id="Node000003" class="node">
<title>Node3</title>
<g id="a_Node000003"><a xlink:href="../../d3/d23/namespacecpplint_a515e256f8ccda50d15b9b7401f5264f7.xhtml#a515e256f8ccda50d15b9b7401f5264f7" target="_top" xlink:title=" ">
<polygon fill="white" stroke="#666666" points="494.5,-62 408.5,-62 408.5,-43 494.5,-43 494.5,-62"/>
<text text-anchor="middle" x="451.5" y="-50" font-family="Helvetica,sans-Serif" font-size="10.00">cpplint.Search</text>
</a>
</g>
</g>
<!-- Node2&#45;&gt;Node3 -->
<g id="edge2_Node000002_Node000003" class="edge">
<title>Node2&#45;&gt;Node3</title>
<g id="a_edge2_Node000002_Node000003"><a xlink:title=" ">
<path fill="none" stroke="#63b8ff" d="M342.08,-52.5C360.9,-52.5 380.81,-52.5 398.35,-52.5"/>
<polygon fill="#63b8ff" stroke="#63b8ff" points="398.39,-56 408.39,-52.5 398.39,-49 398.39,-56"/>
</a>
</g>
</g>
<!-- Node5 -->
<g id="Node000005" class="node">
<title>Node5</title>
<g id="a_Node000005"><a xlink:href="../../d3/d23/namespacecpplint_ae9566310f2866027f14cc468ad85635a.xhtml#ae9566310f2866027f14cc468ad85635a" target="_top" xlink:title=" ">
<polygon fill="white" stroke="#666666" points="524,-19 379,-19 379,0 524,0 524,-19"/>
<text text-anchor="middle" x="451.5" y="-7" font-family="Helvetica,sans-Serif" font-size="10.00">cpplint.CleanseComments</text>
</a>
</g>
</g>
<!-- Node4&#45;&gt;Node5 -->
<g id="edge4_Node000004_Node000005" class="edge">
<title>Node4&#45;&gt;Node5</title>
<g id="a_edge4_Node000004_Node000005"><a xlink:title=" ">
<path fill="none" stroke="#63b8ff" d="M343.12,-9.5C351.63,-9.5 360.35,-9.5 368.96,-9.5"/>
<polygon fill="#63b8ff" stroke="#63b8ff" points="369,-13 379,-9.5 369,-6 369,-13"/>
</a>
</g>
</g>
<!-- Node6 -->
<g id="Node000006" class="node">
<title>Node6</title>
<g id="a_Node000006"><a xlink:href="../../d3/d23/namespacecpplint_af27826b49df1e5e9c87705ff0c469082.xhtml#af27826b49df1e5e9c87705ff0c469082" target="_top" xlink:title=" ">
<polygon fill="white" stroke="#666666" points="668,-19 560,-19 560,0 668,0 668,-19"/>
<text text-anchor="middle" x="614" y="-7" font-family="Helvetica,sans-Serif" font-size="10.00">cpplint.IsCppString</text>
</a>
</g>
</g>
<!-- Node5&#45;&gt;Node6 -->
<g id="edge5_Node000005_Node000006" class="edge">
<title>Node5&#45;&gt;Node6</title>
<g id="a_edge5_Node000005_Node000006"><a xlink:title=" ">
<path fill="none" stroke="#63b8ff" d="M524.3,-9.5C532.63,-9.5 541.09,-9.5 549.3,-9.5"/>
<polygon fill="#63b8ff" stroke="#63b8ff" points="549.55,-13 559.55,-9.5 549.55,-6 549.55,-13"/>
</a>
</g>
</g>
</g>
</svg>
