<?xml version="1.0" encoding="UTF-8" standalone="no"?>
<!DOCTYPE svg PUBLIC "-//W3C//DTD SVG 1.1//EN"
 "http://www.w3.org/Graphics/SVG/1.1/DTD/svg11.dtd">
<!-- Generated by graphviz version 2.43.0 (0)
 -->
<!-- Title: cpplint.CheckForHeaderGuard Pages: 1 -->
<svg width="558pt" height="120pt"
 viewBox="0.00 0.00 558.00 120.00" xmlns="http://www.w3.org/2000/svg" xmlns:xlink="http://www.w3.org/1999/xlink">
<g id="graph0" class="graph" transform="scale(1 1) rotate(0) translate(4 116)">
<title>cpplint.CheckForHeaderGuard</title>
<!-- Node1 -->
<g id="Node000001" class="node">
<title>Node1</title>
<g id="a_Node000001"><a xlink:title=" ">
<polygon fill="#999999" stroke="#666666" points="162,-56 0,-56 0,-37 162,-37 162,-56"/>
<text text-anchor="middle" x="81" y="-44" font-family="Helvetica,sans-Serif" font-size="10.00">cpplint.CheckForHeaderGuard</text>
</a>
</g>
</g>
<!-- Node2 -->
<g id="Node000002" class="node">
<title>Node2</title>
<g id="a_Node000002"><a xlink:href="../../d3/d23/namespacecpplint_aceb05c1fabdb84a964be5853de8727c8.xhtml#aceb05c1fabdb84a964be5853de8727c8" target="_top" xlink:title=" ">
<polygon fill="white" stroke="#666666" points="391,-112 198,-112 198,-93 391,-93 391,-112"/>
<text text-anchor="middle" x="294.5" y="-100" font-family="Helvetica,sans-Serif" font-size="10.00">cpplint.GetHeaderGuardCPPVariable</text>
</a>
</g>
</g>
<!-- Node1&#45;&gt;Node2 -->
<g id="edge1_Node000001_Node000002" class="edge">
<title>Node1&#45;&gt;Node2</title>
<g id="a_edge1_Node000001_Node000002"><a xlink:title=" ">
<path fill="none" stroke="#63b8ff" d="M107.97,-56.09C131.3,-64.44 166.6,-76.43 198,-84.5 207.16,-86.85 216.88,-89.04 226.48,-91.02"/>
<polygon fill="#63b8ff" stroke="#63b8ff" points="225.93,-94.47 236.42,-93 227.3,-87.61 225.93,-94.47"/>
</a>
</g>
</g>
<!-- Node4 -->
<g id="Node000004" class="node">
<title>Node4</title>
<g id="a_Node000004"><a xlink:href="../../d3/d23/namespacecpplint_aa0db7290fc6bd23f44b6602a6ae22738.xhtml#aa0db7290fc6bd23f44b6602a6ae22738" target="_top" xlink:title=" ">
<polygon fill="white" stroke="#666666" points="336,-75 253,-75 253,-56 336,-56 336,-75"/>
<text text-anchor="middle" x="294.5" y="-63" font-family="Helvetica,sans-Serif" font-size="10.00">cpplint.Match</text>
</a>
</g>
</g>
<!-- Node1&#45;&gt;Node4 -->
<g id="edge3_Node000001_Node000004" class="edge">
<title>Node1&#45;&gt;Node4</title>
<g id="a_edge3_Node000001_Node000004"><a xlink:title=" ">
<path fill="none" stroke="#63b8ff" d="M162.26,-53.71C189.36,-56.14 218.83,-58.79 242.97,-60.96"/>
<polygon fill="#63b8ff" stroke="#63b8ff" points="242.69,-64.45 252.96,-61.86 243.31,-57.48 242.69,-64.45"/>
</a>
</g>
</g>
<!-- Node5 -->
<g id="Node000005" class="node">
<title>Node5</title>
<g id="a_Node000005"><a xlink:href="../../d3/d23/namespacecpplint_a22a0d25680a41ec23d754425a73e47c5.xhtml#a22a0d25680a41ec23d754425a73e47c5" target="_top" xlink:title=" ">
<polygon fill="white" stroke="#666666" points="381,-38 208,-38 208,-19 381,-19 381,-38"/>
<text text-anchor="middle" x="294.5" y="-26" font-family="Helvetica,sans-Serif" font-size="10.00">cpplint.ParseNolintSuppressions</text>
</a>
</g>
</g>
<!-- Node1&#45;&gt;Node5 -->
<g id="edge4_Node000001_Node000005" class="edge">
<title>Node1&#45;&gt;Node5</title>
<g id="a_edge4_Node000001_Node000005"><a xlink:title=" ">
<path fill="none" stroke="#63b8ff" d="M162.26,-39.67C173.74,-38.69 185.64,-37.68 197.39,-36.68"/>
<polygon fill="#63b8ff" stroke="#63b8ff" points="197.99,-40.14 207.65,-35.81 197.39,-33.17 197.99,-40.14"/>
</a>
</g>
</g>
<!-- Node6 -->
<g id="Node000006" class="node">
<title>Node6</title>
<g id="a_Node000006"><a xlink:href="../../d3/d23/namespacecpplint_a515e256f8ccda50d15b9b7401f5264f7.xhtml#a515e256f8ccda50d15b9b7401f5264f7" target="_top" xlink:title=" ">
<polygon fill="white" stroke="#666666" points="531.5,-19 445.5,-19 445.5,0 531.5,0 531.5,-19"/>
<text text-anchor="middle" x="488.5" y="-7" font-family="Helvetica,sans-Serif" font-size="10.00">cpplint.Search</text>
</a>
</g>
</g>
<!-- Node1&#45;&gt;Node6 -->
<g id="edge6_Node000001_Node000006" class="edge">
<title>Node1&#45;&gt;Node6</title>
<g id="a_edge6_Node000001_Node000006"><a xlink:title=" ">
<path fill="none" stroke="#63b8ff" d="M104.6,-36.99C127.62,-27.85 164.58,-14.7 198,-9.5 280.22,3.3 377.18,-0.46 435.42,-4.71"/>
<polygon fill="#63b8ff" stroke="#63b8ff" points="435.24,-8.21 445.48,-5.48 435.78,-1.23 435.24,-8.21"/>
</a>
</g>
</g>
<!-- Node3 -->
<g id="Node000003" class="node">
<title>Node3</title>
<g id="a_Node000003"><a xlink:href="../../d3/d23/namespacecpplint_a7ad752dd62ed4ccfed7d956cf1b18f7e.xhtml#a7ad752dd62ed4ccfed7d956cf1b18f7e" target="_top" xlink:title=" ">
<polygon fill="white" stroke="#666666" points="550,-112 427,-112 427,-93 550,-93 550,-112"/>
<text text-anchor="middle" x="488.5" y="-100" font-family="Helvetica,sans-Serif" font-size="10.00">cpplint.PathSplitToList</text>
</a>
</g>
</g>
<!-- Node2&#45;&gt;Node3 -->
<g id="edge2_Node000002_Node000003" class="edge">
<title>Node2&#45;&gt;Node3</title>
<g id="a_edge2_Node000002_Node000003"><a xlink:title=" ">
<path fill="none" stroke="#63b8ff" d="M391.22,-102.5C399.83,-102.5 408.45,-102.5 416.79,-102.5"/>
<polygon fill="#63b8ff" stroke="#63b8ff" points="416.82,-106 426.82,-102.5 416.82,-99 416.82,-106"/>
</a>
</g>
</g>
<!-- Node5&#45;&gt;Node6 -->
<g id="edge5_Node000005_Node000006" class="edge">
<title>Node5&#45;&gt;Node6</title>
<g id="a_edge5_Node000005_Node000006"><a xlink:title=" ">
<path fill="none" stroke="#63b8ff" d="M381.11,-20.03C399.58,-18.2 418.57,-16.32 435.29,-14.67"/>
<polygon fill="#63b8ff" stroke="#63b8ff" points="435.79,-18.13 445.39,-13.67 435.1,-11.17 435.79,-18.13"/>
</a>
</g>
</g>
</g>
</svg>
