<?xml version="1.0" encoding="UTF-8" standalone="no"?>
<!DOCTYPE svg PUBLIC "-//W3C//DTD SVG 1.1//EN"
 "http://www.w3.org/Graphics/SVG/1.1/DTD/svg11.dtd">
<!-- Generated by graphviz version 2.43.0 (0)
 -->
<!-- Title: cpplint.ReplaceAll Pages: 1 -->
<svg width="1057pt" height="76pt"
 viewBox="0.00 0.00 1057.00 75.50" xmlns="http://www.w3.org/2000/svg" xmlns:xlink="http://www.w3.org/1999/xlink">
<g id="graph0" class="graph" transform="scale(1 1) rotate(0) translate(4 71.5)">
<title>cpplint.ReplaceAll</title>
<!-- Node1 -->
<g id="Node000001" class="node">
<title>Node1</title>
<g id="a_Node000001"><a xlink:title=" ">
<polygon fill="#999999" stroke="#666666" points="1049,-45.5 945,-45.5 945,-26.5 1049,-26.5 1049,-45.5"/>
<text text-anchor="middle" x="997" y="-33.5" font-family="Helvetica,sans-Serif" font-size="10.00">cpplint.ReplaceAll</text>
</a>
</g>
</g>
<!-- Node2 -->
<g id="Node000002" class="node">
<title>Node2</title>
<g id="a_Node000002"><a xlink:href="../../d3/d23/namespacecpplint.xhtml#ad57c3efecef205ae9ff72ffce99bae18" target="_top" xlink:title=" ">
<polygon fill="white" stroke="#666666" points="909,-65.5 750,-65.5 750,-46.5 909,-46.5 909,-65.5"/>
<text text-anchor="middle" x="829.5" y="-53.5" font-family="Helvetica,sans-Serif" font-size="10.00">cpplint.CheckCommaSpacing</text>
</a>
</g>
</g>
<!-- Node1&#45;&gt;Node2 -->
<g id="edge1_Node000001_Node000002" class="edge">
<title>Node1&#45;&gt;Node2</title>
<g id="a_edge1_Node000001_Node000002"><a xlink:title=" ">
<path fill="none" stroke="#63b8ff" d="M934.9,-43.38C926.47,-44.4 917.72,-45.46 909.03,-46.51"/>
<polygon fill="#63b8ff" stroke="#63b8ff" points="935.49,-46.84 944.99,-42.16 934.65,-39.89 935.49,-46.84"/>
</a>
</g>
</g>
<!-- Node8 -->
<g id="Node000008" class="node">
<title>Node8</title>
<g id="a_Node000008"><a xlink:href="../../d3/d23/namespacecpplint.xhtml#a35d793d3e6da45146d45569fc82e0350" target="_top" xlink:title=" ">
<polygon fill="white" stroke="#666666" points="714,-30 569,-30 569,0 714,0 714,-30"/>
<text text-anchor="start" x="577" y="-18" font-family="Helvetica,sans-Serif" font-size="10.00">cpplint.CheckForNonConst</text>
<text text-anchor="middle" x="641.5" y="-7" font-family="Helvetica,sans-Serif" font-size="10.00">Reference</text>
</a>
</g>
</g>
<!-- Node1&#45;&gt;Node8 -->
<g id="edge8_Node000001_Node000008" class="edge">
<title>Node1&#45;&gt;Node8</title>
<g id="a_edge8_Node000001_Node000008"><a xlink:title=" ">
<path fill="none" stroke="#63b8ff" d="M934.66,-32.36C873.24,-28.71 778.79,-23.1 714.01,-19.25"/>
<polygon fill="#63b8ff" stroke="#63b8ff" points="934.79,-35.87 944.98,-32.97 935.2,-28.88 934.79,-35.87"/>
</a>
</g>
</g>
<!-- Node3 -->
<g id="Node000003" class="node">
<title>Node3</title>
<g id="a_Node000003"><a xlink:href="../../d3/d23/namespacecpplint.xhtml#a2ce48db291ac037321d21b3ba3f70066" target="_top" xlink:title=" ">
<polygon fill="white" stroke="#666666" points="695,-67.5 588,-67.5 588,-48.5 695,-48.5 695,-67.5"/>
<text text-anchor="middle" x="641.5" y="-55.5" font-family="Helvetica,sans-Serif" font-size="10.00">cpplint.CheckStyle</text>
</a>
</g>
</g>
<!-- Node2&#45;&gt;Node3 -->
<g id="edge2_Node000002_Node000003" class="edge">
<title>Node2&#45;&gt;Node3</title>
<g id="a_edge2_Node000002_Node000003"><a xlink:title=" ">
<path fill="none" stroke="#63b8ff" d="M739.45,-56.96C724.32,-57.12 709.05,-57.28 695.24,-57.43"/>
<polygon fill="#63b8ff" stroke="#63b8ff" points="739.93,-60.45 749.89,-56.85 739.85,-53.45 739.93,-60.45"/>
</a>
</g>
</g>
<!-- Node4 -->
<g id="Node000004" class="node">
<title>Node4</title>
<g id="a_Node000004"><a xlink:href="../../d3/d23/namespacecpplint.xhtml#a60ab7d00cbd976925382b70bbf1fb2cf" target="_top" xlink:title=" ">
<polygon fill="white" stroke="#666666" points="533,-45.5 423,-45.5 423,-26.5 533,-26.5 533,-45.5"/>
<text text-anchor="middle" x="478" y="-33.5" font-family="Helvetica,sans-Serif" font-size="10.00">cpplint.ProcessLine</text>
</a>
</g>
</g>
<!-- Node3&#45;&gt;Node4 -->
<g id="edge3_Node000003_Node000004" class="edge">
<title>Node3&#45;&gt;Node4</title>
<g id="a_edge3_Node000003_Node000004"><a xlink:title=" ">
<path fill="none" stroke="#63b8ff" d="M577.6,-49.43C562.91,-47.43 547.38,-45.32 533.11,-43.37"/>
<polygon fill="#63b8ff" stroke="#63b8ff" points="577.24,-52.91 587.62,-50.8 578.18,-45.98 577.24,-52.91"/>
</a>
</g>
</g>
<!-- Node5 -->
<g id="Node000005" class="node">
<title>Node5</title>
<g id="a_Node000005"><a xlink:href="../../d3/d23/namespacecpplint.xhtml#af49dbbca393312acfa3a46984665eaff" target="_top" xlink:title=" ">
<polygon fill="white" stroke="#666666" points="387,-45.5 256,-45.5 256,-26.5 387,-26.5 387,-45.5"/>
<text text-anchor="middle" x="321.5" y="-33.5" font-family="Helvetica,sans-Serif" font-size="10.00">cpplint.ProcessFileData</text>
</a>
</g>
</g>
<!-- Node4&#45;&gt;Node5 -->
<g id="edge4_Node000004_Node000005" class="edge">
<title>Node4&#45;&gt;Node5</title>
<g id="a_edge4_Node000004_Node000005"><a xlink:title=" ">
<path fill="none" stroke="#63b8ff" d="M412.76,-36C404.29,-36 395.6,-36 387.12,-36"/>
<polygon fill="#63b8ff" stroke="#63b8ff" points="412.96,-39.5 422.96,-36 412.96,-32.5 412.96,-39.5"/>
</a>
</g>
</g>
<!-- Node6 -->
<g id="Node000006" class="node">
<title>Node6</title>
<g id="a_Node000006"><a xlink:href="../../d3/d23/namespacecpplint.xhtml#acecb7a35ccd8dc94f7759b8740496f5f" target="_top" xlink:title=" ">
<polygon fill="white" stroke="#666666" points="220,-45.5 113,-45.5 113,-26.5 220,-26.5 220,-45.5"/>
<text text-anchor="middle" x="166.5" y="-33.5" font-family="Helvetica,sans-Serif" font-size="10.00">cpplint.ProcessFile</text>
</a>
</g>
</g>
<!-- Node5&#45;&gt;Node6 -->
<g id="edge5_Node000005_Node000006" class="edge">
<title>Node5&#45;&gt;Node6</title>
<g id="a_edge5_Node000005_Node000006"><a xlink:title=" ">
<path fill="none" stroke="#63b8ff" d="M245.38,-36C236.95,-36 228.51,-36 220.45,-36"/>
<polygon fill="#63b8ff" stroke="#63b8ff" points="245.61,-39.5 255.61,-36 245.61,-32.5 245.61,-39.5"/>
</a>
</g>
</g>
<!-- Node7 -->
<g id="Node000007" class="node">
<title>Node7</title>
<g id="a_Node000007"><a xlink:href="../../d3/d23/namespacecpplint.xhtml#acf4a1286bb0905ffa465d24881a5d2e7" target="_top" xlink:title=" ">
<polygon fill="white" stroke="#666666" points="77,-45.5 0,-45.5 0,-26.5 77,-26.5 77,-45.5"/>
<text text-anchor="middle" x="38.5" y="-33.5" font-family="Helvetica,sans-Serif" font-size="10.00">cpplint.main</text>
</a>
</g>
</g>
<!-- Node6&#45;&gt;Node7 -->
<g id="edge6_Node000006_Node000007" class="edge">
<title>Node6&#45;&gt;Node7</title>
<g id="a_edge6_Node000006_Node000007"><a xlink:title=" ">
<path fill="none" stroke="#63b8ff" d="M102.59,-36C93.85,-36 85.12,-36 77.05,-36"/>
<polygon fill="#63b8ff" stroke="#63b8ff" points="102.79,-39.5 112.79,-36 102.79,-32.5 102.79,-39.5"/>
</a>
</g>
</g>
<!-- Node7&#45;&gt;Node7 -->
<g id="edge7_Node000007_Node000007" class="edge">
<title>Node7&#45;&gt;Node7</title>
<g id="a_edge7_Node000007_Node000007"><a xlink:title=" ">
<path fill="none" stroke="#63b8ff" d="M62.2,-55.05C60.62,-59.88 52.72,-63.5 38.5,-63.5 15.75,-63.5 9.17,-54.23 18.77,-45.58"/>
<polygon fill="#63b8ff" stroke="#63b8ff" points="65.33,-53.45 58.23,-45.58 58.87,-56.16 65.33,-53.45"/>
</a>
</g>
</g>
<!-- Node8&#45;&gt;Node4 -->
<g id="edge9_Node000008_Node000004" class="edge">
<title>Node8&#45;&gt;Node4</title>
<g id="a_edge9_Node000008_Node000004"><a xlink:title=" ">
<path fill="none" stroke="#63b8ff" d="M558.59,-25.65C549.95,-26.77 541.32,-27.9 533.11,-28.96"/>
<polygon fill="#63b8ff" stroke="#63b8ff" points="559.26,-29.09 568.72,-24.33 558.36,-22.15 559.26,-29.09"/>
</a>
</g>
</g>
</g>
</svg>
