<?xml version="1.0" encoding="UTF-8" standalone="no"?>
<!DOCTYPE svg PUBLIC "-//W3C//DTD SVG 1.1//EN"
 "http://www.w3.org/Graphics/SVG/1.1/DTD/svg11.dtd">
<!-- Generated by graphviz version 2.43.0 (0)
 -->
<!-- Title: cpplint.FindNextMultiLineCommentStart Pages: 1 -->
<svg width="799pt" height="51pt"
 viewBox="0.00 0.00 799.00 50.50" xmlns="http://www.w3.org/2000/svg" xmlns:xlink="http://www.w3.org/1999/xlink">
<g id="graph0" class="graph" transform="scale(1 1) rotate(0) translate(4 46.5)">
<title>cpplint.FindNextMultiLineCommentStart</title>
<!-- Node1 -->
<g id="Node000001" class="node">
<title>Node1</title>
<g id="a_Node000001"><a xlink:title=" ">
<polygon fill="#999999" stroke="#666666" points="791,-30 650,-30 650,0 791,0 791,-30"/>
<text text-anchor="start" x="658" y="-18" font-family="Helvetica,sans-Serif" font-size="10.00">cpplint.FindNextMultiLine</text>
<text text-anchor="middle" x="720.5" y="-7" font-family="Helvetica,sans-Serif" font-size="10.00">CommentStart</text>
</a>
</g>
</g>
<!-- Node2 -->
<g id="Node000002" class="node">
<title>Node2</title>
<g id="a_Node000002"><a xlink:href="../../d3/d23/namespacecpplint_acca753613a04062aff9acefc4ce2c78b.xhtml#acca753613a04062aff9acefc4ce2c78b" target="_top" xlink:title=" ">
<polygon fill="white" stroke="#666666" points="614,-24.5 423,-24.5 423,-5.5 614,-5.5 614,-24.5"/>
<text text-anchor="middle" x="518.5" y="-12.5" font-family="Helvetica,sans-Serif" font-size="10.00">cpplint.RemoveMultiLineComments</text>
</a>
</g>
</g>
<!-- Node1&#45;&gt;Node2 -->
<g id="edge1_Node000001_Node000002" class="edge">
<title>Node1&#45;&gt;Node2</title>
<g id="a_edge1_Node000001_Node000002"><a xlink:title=" ">
<path fill="none" stroke="#63b8ff" d="M639.73,-15C631.35,-15 622.78,-15 614.25,-15"/>
<polygon fill="#63b8ff" stroke="#63b8ff" points="639.83,-18.5 649.83,-15 639.83,-11.5 639.83,-18.5"/>
</a>
</g>
</g>
<!-- Node3 -->
<g id="Node000003" class="node">
<title>Node3</title>
<g id="a_Node000003"><a xlink:href="../../d3/d23/namespacecpplint_af49dbbca393312acfa3a46984665eaff.xhtml#af49dbbca393312acfa3a46984665eaff" target="_top" xlink:title=" ">
<polygon fill="white" stroke="#666666" points="387,-24.5 256,-24.5 256,-5.5 387,-5.5 387,-24.5"/>
<text text-anchor="middle" x="321.5" y="-12.5" font-family="Helvetica,sans-Serif" font-size="10.00">cpplint.ProcessFileData</text>
</a>
</g>
</g>
<!-- Node2&#45;&gt;Node3 -->
<g id="edge2_Node000002_Node000003" class="edge">
<title>Node2&#45;&gt;Node3</title>
<g id="a_edge2_Node000002_Node000003"><a xlink:title=" ">
<path fill="none" stroke="#63b8ff" d="M412.62,-15C403.93,-15 395.3,-15 387.04,-15"/>
<polygon fill="#63b8ff" stroke="#63b8ff" points="412.86,-18.5 422.86,-15 412.86,-11.5 412.86,-18.5"/>
</a>
</g>
</g>
<!-- Node4 -->
<g id="Node000004" class="node">
<title>Node4</title>
<g id="a_Node000004"><a xlink:href="../../d3/d23/namespacecpplint_acecb7a35ccd8dc94f7759b8740496f5f.xhtml#acecb7a35ccd8dc94f7759b8740496f5f" target="_top" xlink:title=" ">
<polygon fill="white" stroke="#666666" points="220,-24.5 113,-24.5 113,-5.5 220,-5.5 220,-24.5"/>
<text text-anchor="middle" x="166.5" y="-12.5" font-family="Helvetica,sans-Serif" font-size="10.00">cpplint.ProcessFile</text>
</a>
</g>
</g>
<!-- Node3&#45;&gt;Node4 -->
<g id="edge3_Node000003_Node000004" class="edge">
<title>Node3&#45;&gt;Node4</title>
<g id="a_edge3_Node000003_Node000004"><a xlink:title=" ">
<path fill="none" stroke="#63b8ff" d="M245.38,-15C236.95,-15 228.51,-15 220.45,-15"/>
<polygon fill="#63b8ff" stroke="#63b8ff" points="245.61,-18.5 255.61,-15 245.61,-11.5 245.61,-18.5"/>
</a>
</g>
</g>
<!-- Node5 -->
<g id="Node000005" class="node">
<title>Node5</title>
<g id="a_Node000005"><a xlink:href="../../d3/d23/namespacecpplint_acf4a1286bb0905ffa465d24881a5d2e7.xhtml#acf4a1286bb0905ffa465d24881a5d2e7" target="_top" xlink:title=" ">
<polygon fill="white" stroke="#666666" points="77,-24.5 0,-24.5 0,-5.5 77,-5.5 77,-24.5"/>
<text text-anchor="middle" x="38.5" y="-12.5" font-family="Helvetica,sans-Serif" font-size="10.00">cpplint.main</text>
</a>
</g>
</g>
<!-- Node4&#45;&gt;Node5 -->
<g id="edge4_Node000004_Node000005" class="edge">
<title>Node4&#45;&gt;Node5</title>
<g id="a_edge4_Node000004_Node000005"><a xlink:title=" ">
<path fill="none" stroke="#63b8ff" d="M102.59,-15C93.85,-15 85.12,-15 77.05,-15"/>
<polygon fill="#63b8ff" stroke="#63b8ff" points="102.79,-18.5 112.79,-15 102.79,-11.5 102.79,-18.5"/>
</a>
</g>
</g>
<!-- Node5&#45;&gt;Node5 -->
<g id="edge5_Node000005_Node000005" class="edge">
<title>Node5&#45;&gt;Node5</title>
<g id="a_edge5_Node000005_Node000005"><a xlink:title=" ">
<path fill="none" stroke="#63b8ff" d="M62.2,-34.05C60.62,-38.88 52.72,-42.5 38.5,-42.5 15.75,-42.5 9.17,-33.23 18.77,-24.58"/>
<polygon fill="#63b8ff" stroke="#63b8ff" points="65.33,-32.45 58.23,-24.58 58.87,-35.16 65.33,-32.45"/>
</a>
</g>
</g>
</g>
</svg>
