<?xml version="1.0" encoding="UTF-8" standalone="no"?>
<!DOCTYPE svg PUBLIC "-//W3C//DTD SVG 1.1//EN"
 "http://www.w3.org/Graphics/SVG/1.1/DTD/svg11.dtd">
<!-- Generated by graphviz version 2.43.0 (0)
 -->
<!-- Title: cpplint.CheckBraces Pages: 1 -->
<svg width="652pt" height="222pt"
 viewBox="0.00 0.00 652.00 221.50" xmlns="http://www.w3.org/2000/svg" xmlns:xlink="http://www.w3.org/1999/xlink">
<g id="graph0" class="graph" transform="scale(1 1) rotate(0) translate(4 217.5)">
<title>cpplint.CheckBraces</title>
<!-- Node1 -->
<g id="Node000001" class="node">
<title>Node1</title>
<g id="a_Node000001"><a xlink:title=" ">
<polygon fill="#999999" stroke="#666666" points="116,-113 0,-113 0,-94 116,-94 116,-113"/>
<text text-anchor="middle" x="58" y="-101" font-family="Helvetica,sans-Serif" font-size="10.00">cpplint.CheckBraces</text>
</a>
</g>
</g>
<!-- Node2 -->
<g id="Node000002" class="node">
<title>Node2</title>
<g id="a_Node000002"><a xlink:href="../../d3/d23/namespacecpplint.xhtml#a1b6021bb43f15b2ba6d35664a529b9b2" target="_top" xlink:title=" ">
<polygon fill="white" stroke="#666666" points="308,-208 175,-208 175,-189 308,-189 308,-208"/>
<text text-anchor="middle" x="241.5" y="-196" font-family="Helvetica,sans-Serif" font-size="10.00">cpplint.CloseExpression</text>
</a>
</g>
</g>
<!-- Node1&#45;&gt;Node2 -->
<g id="edge1_Node000001_Node000002" class="edge">
<title>Node1&#45;&gt;Node2</title>
<g id="a_edge1_Node000001_Node000002"><a xlink:title=" ">
<path fill="none" stroke="#63b8ff" d="M68.72,-113.02C84.74,-128.2 118.3,-157.87 152,-174.5 161.41,-179.14 171.85,-182.99 182.15,-186.14"/>
<polygon fill="#63b8ff" stroke="#63b8ff" points="181.38,-189.56 191.95,-188.95 183.3,-182.83 181.38,-189.56"/>
</a>
</g>
</g>
<!-- Node4 -->
<g id="Node000004" class="node">
<title>Node4</title>
<g id="a_Node000004"><a xlink:href="../../d3/d23/namespacecpplint.xhtml#a515e256f8ccda50d15b9b7401f5264f7" target="_top" xlink:title=" ">
<polygon fill="white" stroke="#666666" points="644,-151 558,-151 558,-132 644,-132 644,-151"/>
<text text-anchor="middle" x="601" y="-139" font-family="Helvetica,sans-Serif" font-size="10.00">cpplint.Search</text>
</a>
</g>
</g>
<!-- Node1&#45;&gt;Node4 -->
<g id="edge11_Node000001_Node000004" class="edge">
<title>Node1&#45;&gt;Node4</title>
<g id="a_edge11_Node000001_Node000004"><a xlink:title=" ">
<path fill="none" stroke="#63b8ff" d="M116.13,-101.51C171.22,-100.11 256.93,-99.29 331,-104.5 406.76,-109.83 493.71,-123.1 547.76,-132.21"/>
<polygon fill="#63b8ff" stroke="#63b8ff" points="547.34,-135.69 557.78,-133.92 548.51,-128.79 547.34,-135.69"/>
</a>
</g>
</g>
<!-- Node5 -->
<g id="Node000005" class="node">
<title>Node5</title>
<g id="a_Node000005"><a xlink:href="../../d3/d23/namespacecpplint.xhtml#aa0db7290fc6bd23f44b6602a6ae22738" target="_top" xlink:title=" ">
<polygon fill="white" stroke="#666666" points="486,-165 403,-165 403,-146 486,-146 486,-165"/>
<text text-anchor="middle" x="444.5" y="-153" font-family="Helvetica,sans-Serif" font-size="10.00">cpplint.Match</text>
</a>
</g>
</g>
<!-- Node1&#45;&gt;Node5 -->
<g id="edge10_Node000001_Node000005" class="edge">
<title>Node1&#45;&gt;Node5</title>
<g id="a_edge10_Node000001_Node000005"><a xlink:title=" ">
<path fill="none" stroke="#63b8ff" d="M77.28,-113.15C95.61,-122.3 124.92,-135.5 152,-141.5 234.83,-159.84 334.02,-160.18 392.73,-158.22"/>
<polygon fill="#63b8ff" stroke="#63b8ff" points="392.99,-161.71 402.85,-157.84 392.73,-154.72 392.99,-161.71"/>
</a>
</g>
</g>
<!-- Node6 -->
<g id="Node000006" class="node">
<title>Node6</title>
<g id="a_Node000006"><a xlink:href="../../d3/d23/namespacecpplint.xhtml#a24004af01f4dd0d09c9e84971359ef4f" target="_top" xlink:title=" ">
<polygon fill="white" stroke="#666666" points="305,-132 178,-132 178,-113 305,-113 305,-132"/>
<text text-anchor="middle" x="241.5" y="-120" font-family="Helvetica,sans-Serif" font-size="10.00">cpplint.GetIndentLevel</text>
</a>
</g>
</g>
<!-- Node1&#45;&gt;Node6 -->
<g id="edge5_Node000001_Node000006" class="edge">
<title>Node1&#45;&gt;Node6</title>
<g id="a_edge5_Node000001_Node000006"><a xlink:title=" ">
<path fill="none" stroke="#63b8ff" d="M116.43,-109.51C132.6,-111.2 150.4,-113.07 167.36,-114.84"/>
<polygon fill="#63b8ff" stroke="#63b8ff" points="167.47,-118.37 177.78,-115.93 168.2,-111.41 167.47,-118.37"/>
</a>
</g>
</g>
<!-- Node7 -->
<g id="Node000007" class="node">
<title>Node7</title>
<g id="a_Node000007"><a xlink:href="../../d3/d23/namespacecpplint.xhtml#a2638d6acb36ef7e352842dfa0bcc2a17" target="_top" xlink:title=" ">
<polygon fill="white" stroke="#666666" points="301,-56 182,-56 182,-37 301,-37 301,-56"/>
<text text-anchor="middle" x="241.5" y="-44" font-family="Helvetica,sans-Serif" font-size="10.00">cpplint.GetLineWidth</text>
</a>
</g>
</g>
<!-- Node1&#45;&gt;Node7 -->
<g id="edge7_Node000001_Node000007" class="edge">
<title>Node1&#45;&gt;Node7</title>
<g id="a_edge7_Node000001_Node000007"><a xlink:title=" ">
<path fill="none" stroke="#63b8ff" d="M84.48,-93.87C103.07,-86.98 128.94,-77.71 152,-70.5 165.2,-66.38 179.63,-62.29 192.94,-58.68"/>
<polygon fill="#63b8ff" stroke="#63b8ff" points="194.1,-62 202.85,-56.03 192.29,-55.23 194.1,-62"/>
</a>
</g>
</g>
<!-- Node8 -->
<g id="Node000008" class="node">
<title>Node8</title>
<g id="a_Node000008"><a xlink:href="../../d3/d23/namespacecpplint.xhtml#a42b46bcf4926559c5b946a0bccef5bf3" target="_top" xlink:title=" ">
<polygon fill="white" stroke="#666666" points="331,-19 152,-19 152,0 331,0 331,-19"/>
<text text-anchor="middle" x="241.5" y="-7" font-family="Helvetica,sans-Serif" font-size="10.00">cpplint.GetPreviousNonBlankLine</text>
</a>
</g>
</g>
<!-- Node1&#45;&gt;Node8 -->
<g id="edge8_Node000001_Node000008" class="edge">
<title>Node1&#45;&gt;Node8</title>
<g id="a_edge8_Node000001_Node000008"><a xlink:title=" ">
<path fill="none" stroke="#63b8ff" d="M67.7,-93.82C83.03,-77.41 116.58,-44.3 152,-27.5 156.29,-25.47 160.8,-23.66 165.43,-22.06"/>
<polygon fill="#63b8ff" stroke="#63b8ff" points="166.54,-25.38 175.04,-19.05 164.45,-18.7 166.54,-25.38"/>
</a>
</g>
</g>
<!-- Node3 -->
<g id="Node000003" class="node">
<title>Node3</title>
<g id="a_Node000003"><a xlink:href="../../d3/d23/namespacecpplint.xhtml#a9cc0677c6efe4f143ce3705136daf4be" target="_top" xlink:title=" ">
<polygon fill="white" stroke="#666666" points="522,-213.5 367,-213.5 367,-183.5 522,-183.5 522,-213.5"/>
<text text-anchor="start" x="375" y="-201.5" font-family="Helvetica,sans-Serif" font-size="10.00">cpplint.FindEndOfExpression</text>
<text text-anchor="middle" x="444.5" y="-190.5" font-family="Helvetica,sans-Serif" font-size="10.00">InLine</text>
</a>
</g>
</g>
<!-- Node2&#45;&gt;Node3 -->
<g id="edge2_Node000002_Node000003" class="edge">
<title>Node2&#45;&gt;Node3</title>
<g id="a_edge2_Node000002_Node000003"><a xlink:title=" ">
<path fill="none" stroke="#63b8ff" d="M308.04,-198.5C323.6,-198.5 340.43,-198.5 356.77,-198.5"/>
<polygon fill="#63b8ff" stroke="#63b8ff" points="356.87,-202 366.87,-198.5 356.87,-195 356.87,-202"/>
</a>
</g>
</g>
<!-- Node2&#45;&gt;Node5 -->
<g id="edge4_Node000002_Node000005" class="edge">
<title>Node2&#45;&gt;Node5</title>
<g id="a_edge4_Node000002_Node000005"><a xlink:title=" ">
<path fill="none" stroke="#63b8ff" d="M287.11,-188.96C318.45,-182.25 360.42,-173.27 392.99,-166.31"/>
<polygon fill="#63b8ff" stroke="#63b8ff" points="393.73,-169.73 402.78,-164.21 392.26,-162.88 393.73,-169.73"/>
</a>
</g>
</g>
<!-- Node3&#45;&gt;Node4 -->
<g id="edge3_Node000003_Node000004" class="edge">
<title>Node3&#45;&gt;Node4</title>
<g id="a_edge3_Node000003_Node000004"><a xlink:title=" ">
<path fill="none" stroke="#63b8ff" d="M495.94,-183.43C504.68,-180.61 513.64,-177.57 522,-174.5 537.92,-168.65 555.34,-161.37 569.66,-155.14"/>
<polygon fill="#63b8ff" stroke="#63b8ff" points="571.29,-158.25 579.03,-151.02 568.47,-151.84 571.29,-158.25"/>
</a>
</g>
</g>
<!-- Node6&#45;&gt;Node5 -->
<g id="edge6_Node000006_Node000005" class="edge">
<title>Node6&#45;&gt;Node5</title>
<g id="a_edge6_Node000006_Node000005"><a xlink:title=" ">
<path fill="none" stroke="#63b8ff" d="M300.37,-132C329.6,-136.8 364.74,-142.57 392.88,-147.19"/>
<polygon fill="#63b8ff" stroke="#63b8ff" points="392.48,-150.67 402.91,-148.84 393.61,-143.76 392.48,-150.67"/>
</a>
</g>
</g>
<!-- Node9 -->
<g id="Node000009" class="node">
<title>Node9</title>
<g id="a_Node000009"><a xlink:href="../../d3/d23/namespacecpplint.xhtml#a98bd45db7f6376b48ba397d1b06df2e7" target="_top" xlink:title=" ">
<polygon fill="white" stroke="#666666" points="499,-19 390,-19 390,0 499,0 499,-19"/>
<text text-anchor="middle" x="444.5" y="-7" font-family="Helvetica,sans-Serif" font-size="10.00">cpplint.IsBlankLine</text>
</a>
</g>
</g>
<!-- Node8&#45;&gt;Node9 -->
<g id="edge9_Node000008_Node000009" class="edge">
<title>Node8&#45;&gt;Node9</title>
<g id="a_edge9_Node000008_Node000009"><a xlink:title=" ">
<path fill="none" stroke="#63b8ff" d="M331.25,-9.5C347.48,-9.5 364.13,-9.5 379.47,-9.5"/>
<polygon fill="#63b8ff" stroke="#63b8ff" points="379.86,-13 389.86,-9.5 379.86,-6 379.86,-13"/>
</a>
</g>
</g>
</g>
</svg>
