<?xml version="1.0" encoding="UTF-8" standalone="no"?>
<!DOCTYPE svg PUBLIC "-//W3C//DTD SVG 1.1//EN"
 "http://www.w3.org/Graphics/SVG/1.1/DTD/svg11.dtd">
<!-- Generated by graphviz version 2.43.0 (0)
 -->
<!-- Title: cpplint.CheckCheck Pages: 1 -->
<svg width="603pt" height="130pt"
 viewBox="0.00 0.00 603.00 129.50" xmlns="http://www.w3.org/2000/svg" xmlns:xlink="http://www.w3.org/1999/xlink">
<g id="graph0" class="graph" transform="scale(1 1) rotate(0) translate(4 125.5)">
<title>cpplint.CheckCheck</title>
<!-- Node1 -->
<g id="Node000001" class="node">
<title>Node1</title>
<g id="a_Node000001"><a xlink:title=" ">
<polygon fill="#999999" stroke="#666666" points="113,-76 0,-76 0,-57 113,-57 113,-76"/>
<text text-anchor="middle" x="56.5" y="-64" font-family="Helvetica,sans-Serif" font-size="10.00">cpplint.CheckCheck</text>
</a>
</g>
</g>
<!-- Node2 -->
<g id="Node000002" class="node">
<title>Node2</title>
<g id="a_Node000002"><a xlink:href="../../d3/d23/namespacecpplint_a1b6021bb43f15b2ba6d35664a529b9b2.xhtml#a1b6021bb43f15b2ba6d35664a529b9b2" target="_top" xlink:title=" ">
<polygon fill="white" stroke="#666666" points="282,-95 149,-95 149,-76 282,-76 282,-95"/>
<text text-anchor="middle" x="215.5" y="-83" font-family="Helvetica,sans-Serif" font-size="10.00">cpplint.CloseExpression</text>
</a>
</g>
</g>
<!-- Node1&#45;&gt;Node2 -->
<g id="edge1_Node000001_Node000002" class="edge">
<title>Node1&#45;&gt;Node2</title>
<g id="a_edge1_Node000001_Node000002"><a xlink:title=" ">
<path fill="none" stroke="#63b8ff" d="M113.29,-73.25C121.59,-74.26 130.26,-75.31 138.88,-76.35"/>
<polygon fill="#63b8ff" stroke="#63b8ff" points="138.61,-79.84 148.96,-77.57 139.45,-72.89 138.61,-79.84"/>
</a>
</g>
</g>
<!-- Node3 -->
<g id="Node000003" class="node">
<title>Node3</title>
<g id="a_Node000003"><a xlink:href="../../d3/d23/namespacecpplint_a9cc0677c6efe4f143ce3705136daf4be.xhtml#a9cc0677c6efe4f143ce3705136daf4be" target="_top" xlink:title=" ">
<polygon fill="white" stroke="#666666" points="473,-121.5 318,-121.5 318,-91.5 473,-91.5 473,-121.5"/>
<text text-anchor="start" x="326" y="-109.5" font-family="Helvetica,sans-Serif" font-size="10.00">cpplint.FindEndOfExpression</text>
<text text-anchor="middle" x="395.5" y="-98.5" font-family="Helvetica,sans-Serif" font-size="10.00">InLine</text>
</a>
</g>
</g>
<!-- Node1&#45;&gt;Node3 -->
<g id="edge7_Node000001_Node000003" class="edge">
<title>Node1&#45;&gt;Node3</title>
<g id="a_edge7_Node000001_Node000003"><a xlink:title=" ">
<path fill="none" stroke="#63b8ff" d="M74.74,-76.03C92.67,-85.37 121.86,-98.97 149,-104.5 200.95,-115.08 260.36,-115.85 307.73,-113.85"/>
<polygon fill="#63b8ff" stroke="#63b8ff" points="308.13,-117.33 317.96,-113.36 307.8,-110.34 308.13,-117.33"/>
</a>
</g>
</g>
<!-- Node5 -->
<g id="Node000005" class="node">
<title>Node5</title>
<g id="a_Node000005"><a xlink:href="../../d3/d23/namespacecpplint_aa0db7290fc6bd23f44b6602a6ae22738.xhtml#aa0db7290fc6bd23f44b6602a6ae22738" target="_top" xlink:title=" ">
<polygon fill="white" stroke="#666666" points="437,-57 354,-57 354,-38 437,-38 437,-57"/>
<text text-anchor="middle" x="395.5" y="-45" font-family="Helvetica,sans-Serif" font-size="10.00">cpplint.Match</text>
</a>
</g>
</g>
<!-- Node1&#45;&gt;Node5 -->
<g id="edge8_Node000001_Node000005" class="edge">
<title>Node1&#45;&gt;Node5</title>
<g id="a_edge8_Node000001_Node000005"><a xlink:title=" ">
<path fill="none" stroke="#63b8ff" d="M113.15,-63.36C177.12,-59.76 281.26,-53.88 343.3,-50.39"/>
<polygon fill="#63b8ff" stroke="#63b8ff" points="343.84,-53.86 353.63,-49.8 343.45,-46.87 343.84,-53.86"/>
</a>
</g>
</g>
<!-- Node6 -->
<g id="Node000006" class="node">
<title>Node6</title>
<g id="a_Node000006"><a xlink:href="../../d3/d23/namespacecpplint_ab120ac0a419e4317d0b5458079946d00.xhtml#ab120ac0a419e4317d0b5458079946d00" target="_top" xlink:title=" ">
<polygon fill="white" stroke="#666666" points="282,-19 149,-19 149,0 282,0 282,-19"/>
<text text-anchor="middle" x="215.5" y="-7" font-family="Helvetica,sans-Serif" font-size="10.00">cpplint.FindCheckMacro</text>
</a>
</g>
</g>
<!-- Node1&#45;&gt;Node6 -->
<g id="edge5_Node000001_Node000006" class="edge">
<title>Node1&#45;&gt;Node6</title>
<g id="a_edge5_Node000001_Node000006"><a xlink:title=" ">
<path fill="none" stroke="#63b8ff" d="M83.78,-56.96C109.7,-47.55 149.53,-33.09 178.42,-22.6"/>
<polygon fill="#63b8ff" stroke="#63b8ff" points="179.93,-25.77 188.14,-19.07 177.54,-19.19 179.93,-25.77"/>
</a>
</g>
</g>
<!-- Node2&#45;&gt;Node3 -->
<g id="edge2_Node000002_Node000003" class="edge">
<title>Node2&#45;&gt;Node3</title>
<g id="a_edge2_Node000002_Node000003"><a xlink:title=" ">
<path fill="none" stroke="#63b8ff" d="M282.02,-93.23C290.43,-94.22 299.14,-95.25 307.82,-96.27"/>
<polygon fill="#63b8ff" stroke="#63b8ff" points="307.63,-99.78 317.97,-97.47 308.45,-92.82 307.63,-99.78"/>
</a>
</g>
</g>
<!-- Node2&#45;&gt;Node5 -->
<g id="edge4_Node000002_Node000005" class="edge">
<title>Node2&#45;&gt;Node5</title>
<g id="a_edge4_Node000002_Node000005"><a xlink:title=" ">
<path fill="none" stroke="#63b8ff" d="M261.42,-75.91C286.51,-70.55 317.86,-63.86 343.83,-58.32"/>
<polygon fill="#63b8ff" stroke="#63b8ff" points="344.81,-61.69 353.86,-56.18 343.35,-54.84 344.81,-61.69"/>
</a>
</g>
</g>
<!-- Node4 -->
<g id="Node000004" class="node">
<title>Node4</title>
<g id="a_Node000004"><a xlink:href="../../d3/d23/namespacecpplint_a515e256f8ccda50d15b9b7401f5264f7.xhtml#a515e256f8ccda50d15b9b7401f5264f7" target="_top" xlink:title=" ">
<polygon fill="white" stroke="#666666" points="595,-116 509,-116 509,-97 595,-97 595,-116"/>
<text text-anchor="middle" x="552" y="-104" font-family="Helvetica,sans-Serif" font-size="10.00">cpplint.Search</text>
</a>
</g>
</g>
<!-- Node3&#45;&gt;Node4 -->
<g id="edge3_Node000003_Node000004" class="edge">
<title>Node3&#45;&gt;Node4</title>
<g id="a_edge3_Node000003_Node000004"><a xlink:title=" ">
<path fill="none" stroke="#63b8ff" d="M473.3,-106.5C481.92,-106.5 490.56,-106.5 498.77,-106.5"/>
<polygon fill="#63b8ff" stroke="#63b8ff" points="498.91,-110 508.91,-106.5 498.91,-103 498.91,-110"/>
</a>
</g>
</g>
<!-- Node6&#45;&gt;Node5 -->
<g id="edge6_Node000006_Node000005" class="edge">
<title>Node6&#45;&gt;Node5</title>
<g id="a_edge6_Node000006_Node000005"><a xlink:title=" ">
<path fill="none" stroke="#63b8ff" d="M261.42,-19.09C286.51,-24.45 317.86,-31.14 343.83,-36.68"/>
<polygon fill="#63b8ff" stroke="#63b8ff" points="343.35,-40.16 353.86,-38.82 344.81,-33.31 343.35,-40.16"/>
</a>
</g>
</g>
</g>
</svg>
