<?xml version="1.0" encoding="UTF-8" standalone="no"?>
<!DOCTYPE svg PUBLIC "-//W3C//DTD SVG 1.1//EN"
 "http://www.w3.org/Graphics/SVG/1.1/DTD/svg11.dtd">
<!-- Generated by graphviz version 2.43.0 (0)
 -->
<!-- Title: cpplint.CheckBracesSpacing Pages: 1 -->
<svg width="644pt" height="133pt"
 viewBox="0.00 0.00 644.00 132.91" xmlns="http://www.w3.org/2000/svg" xmlns:xlink="http://www.w3.org/1999/xlink">
<g id="graph0" class="graph" transform="scale(1 1) rotate(0) translate(4 128.91)">
<title>cpplint.CheckBracesSpacing</title>
<!-- Node1 -->
<g id="Node000001" class="node">
<title>Node1</title>
<g id="a_Node000001"><a xlink:title=" ">
<polygon fill="#999999" stroke="#666666" points="154,-57.41 0,-57.41 0,-38.41 154,-38.41 154,-57.41"/>
<text text-anchor="middle" x="77" y="-45.41" font-family="Helvetica,sans-Serif" font-size="10.00">cpplint.CheckBracesSpacing</text>
</a>
</g>
</g>
<!-- Node2 -->
<g id="Node000002" class="node">
<title>Node2</title>
<g id="a_Node000002"><a xlink:href="../../d3/d23/namespacecpplint_ad6a8485e6da7c69c68d0bee460aa76e1.xhtml#ad6a8485e6da7c69c68d0bee460aa76e1" target="_top" xlink:title=" ">
<polygon fill="white" stroke="#666666" points="301,-38.41 212,-38.41 212,-19.41 301,-19.41 301,-38.41"/>
<text text-anchor="middle" x="256.5" y="-26.41" font-family="Helvetica,sans-Serif" font-size="10.00">cpplint._IsType</text>
</a>
</g>
</g>
<!-- Node1&#45;&gt;Node2 -->
<g id="edge1_Node000001_Node000002" class="edge">
<title>Node1&#45;&gt;Node2</title>
<g id="a_edge1_Node000001_Node000002"><a xlink:title=" ">
<path fill="none" stroke="#63b8ff" d="M154.05,-39.77C170.1,-38.05 186.72,-36.27 201.75,-34.66"/>
<polygon fill="#63b8ff" stroke="#63b8ff" points="202.3,-38.12 211.87,-33.58 201.56,-31.16 202.3,-38.12"/>
</a>
</g>
</g>
<!-- Node3 -->
<g id="Node000003" class="node">
<title>Node3</title>
<g id="a_Node000003"><a xlink:href="../../d3/d23/namespacecpplint_aa0db7290fc6bd23f44b6602a6ae22738.xhtml#aa0db7290fc6bd23f44b6602a6ae22738" target="_top" xlink:title=" ">
<polygon fill="white" stroke="#666666" points="478,-76.41 395,-76.41 395,-57.41 478,-57.41 478,-76.41"/>
<text text-anchor="middle" x="436.5" y="-64.41" font-family="Helvetica,sans-Serif" font-size="10.00">cpplint.Match</text>
</a>
</g>
</g>
<!-- Node1&#45;&gt;Node3 -->
<g id="edge8_Node000001_Node000003" class="edge">
<title>Node1&#45;&gt;Node3</title>
<g id="a_edge8_Node000001_Node000003"><a xlink:title=" ">
<path fill="none" stroke="#63b8ff" d="M154.25,-51.96C223.85,-55.66 324.75,-61.02 384.88,-64.22"/>
<polygon fill="#63b8ff" stroke="#63b8ff" points="384.72,-67.71 394.89,-64.75 385.09,-60.72 384.72,-67.71"/>
</a>
</g>
</g>
<!-- Node4 -->
<g id="Node000004" class="node">
<title>Node4</title>
<g id="a_Node000004"><a xlink:href="../../d3/d23/namespacecpplint_a515e256f8ccda50d15b9b7401f5264f7.xhtml#a515e256f8ccda50d15b9b7401f5264f7" target="_top" xlink:title=" ">
<polygon fill="white" stroke="#666666" points="636,-38.41 550,-38.41 550,-19.41 636,-19.41 636,-38.41"/>
<text text-anchor="middle" x="593" y="-26.41" font-family="Helvetica,sans-Serif" font-size="10.00">cpplint.Search</text>
</a>
</g>
</g>
<!-- Node1&#45;&gt;Node4 -->
<g id="edge9_Node000001_Node000004" class="edge">
<title>Node1&#45;&gt;Node4</title>
<g id="a_edge9_Node000001_Node000004"><a xlink:title=" ">
<path fill="none" stroke="#63b8ff" d="M99.35,-38.31C121.49,-28.93 157.38,-15.29 190,-9.91 314.36,10.62 463.08,-7.22 540.07,-19.54"/>
<polygon fill="#63b8ff" stroke="#63b8ff" points="539.56,-23.01 550,-21.17 540.69,-16.1 539.56,-23.01"/>
</a>
</g>
</g>
<!-- Node5 -->
<g id="Node000005" class="node">
<title>Node5</title>
<g id="a_Node000005"><a xlink:href="../../d3/d23/namespacecpplint_a1b6021bb43f15b2ba6d35664a529b9b2.xhtml#a1b6021bb43f15b2ba6d35664a529b9b2" target="_top" xlink:title=" ">
<polygon fill="white" stroke="#666666" points="323,-114.41 190,-114.41 190,-95.41 323,-95.41 323,-114.41"/>
<text text-anchor="middle" x="256.5" y="-102.41" font-family="Helvetica,sans-Serif" font-size="10.00">cpplint.CloseExpression</text>
</a>
</g>
</g>
<!-- Node1&#45;&gt;Node5 -->
<g id="edge4_Node000001_Node000005" class="edge">
<title>Node1&#45;&gt;Node5</title>
<g id="a_edge4_Node000001_Node000005"><a xlink:title=" ">
<path fill="none" stroke="#63b8ff" d="M107.71,-57.45C137.4,-66.98 183.23,-81.7 215.98,-92.22"/>
<polygon fill="#63b8ff" stroke="#63b8ff" points="215.1,-95.61 225.69,-95.33 217.24,-88.94 215.1,-95.61"/>
</a>
</g>
</g>
<!-- Node2&#45;&gt;Node3 -->
<g id="edge2_Node000002_Node000003" class="edge">
<title>Node2&#45;&gt;Node3</title>
<g id="a_edge2_Node000002_Node000003"><a xlink:title=" ">
<path fill="none" stroke="#63b8ff" d="M301.04,-38.2C326.42,-43.62 358.52,-50.47 385,-56.13"/>
<polygon fill="#63b8ff" stroke="#63b8ff" points="384.34,-59.56 394.85,-58.23 385.8,-52.72 384.34,-59.56"/>
</a>
</g>
</g>
<!-- Node2&#45;&gt;Node4 -->
<g id="edge3_Node000002_Node000004" class="edge">
<title>Node2&#45;&gt;Node4</title>
<g id="a_edge3_Node000002_Node000004"><a xlink:title=" ">
<path fill="none" stroke="#63b8ff" d="M301.23,-28.91C362.59,-28.91 474.05,-28.91 539.71,-28.91"/>
<polygon fill="#63b8ff" stroke="#63b8ff" points="539.84,-32.41 549.84,-28.91 539.84,-25.41 539.84,-32.41"/>
</a>
</g>
</g>
<!-- Node5&#45;&gt;Node3 -->
<g id="edge7_Node000005_Node000003" class="edge">
<title>Node5&#45;&gt;Node3</title>
<g id="a_edge7_Node000005_Node000003"><a xlink:title=" ">
<path fill="none" stroke="#63b8ff" d="M302.42,-95.32C327.51,-89.96 358.86,-83.27 384.83,-77.72"/>
<polygon fill="#63b8ff" stroke="#63b8ff" points="385.81,-81.09 394.86,-75.58 384.35,-74.25 385.81,-81.09"/>
</a>
</g>
</g>
<!-- Node6 -->
<g id="Node000006" class="node">
<title>Node6</title>
<g id="a_Node000006"><a xlink:href="../../d3/d23/namespacecpplint_a9cc0677c6efe4f143ce3705136daf4be.xhtml#a9cc0677c6efe4f143ce3705136daf4be" target="_top" xlink:title=" ">
<polygon fill="white" stroke="#666666" points="514,-124.91 359,-124.91 359,-94.91 514,-94.91 514,-124.91"/>
<text text-anchor="start" x="367" y="-112.91" font-family="Helvetica,sans-Serif" font-size="10.00">cpplint.FindEndOfExpression</text>
<text text-anchor="middle" x="436.5" y="-101.91" font-family="Helvetica,sans-Serif" font-size="10.00">InLine</text>
</a>
</g>
</g>
<!-- Node5&#45;&gt;Node6 -->
<g id="edge5_Node000005_Node000006" class="edge">
<title>Node5&#45;&gt;Node6</title>
<g id="a_edge5_Node000005_Node000006"><a xlink:title=" ">
<path fill="none" stroke="#63b8ff" d="M323.02,-106.75C331.43,-106.98 340.14,-107.23 348.82,-107.47"/>
<polygon fill="#63b8ff" stroke="#63b8ff" points="348.88,-110.97 358.97,-107.76 349.07,-103.98 348.88,-110.97"/>
</a>
</g>
</g>
<!-- Node6&#45;&gt;Node4 -->
<g id="edge6_Node000006_Node000004" class="edge">
<title>Node6&#45;&gt;Node4</title>
<g id="a_edge6_Node000006_Node000004"><a xlink:title=" ">
<path fill="none" stroke="#63b8ff" d="M490.62,-94.9C498.62,-91.97 506.65,-88.63 514,-84.91 535.63,-73.94 557.86,-57.36 573.03,-45.08"/>
<polygon fill="#63b8ff" stroke="#63b8ff" points="575.6,-47.49 581.08,-38.42 571.14,-42.1 575.6,-47.49"/>
</a>
</g>
</g>
</g>
</svg>
