<?xml version="1.0" encoding="UTF-8" standalone="no"?>
<!DOCTYPE svg PUBLIC "-//W3C//DTD SVG 1.1//EN"
 "http://www.w3.org/Graphics/SVG/1.1/DTD/svg11.dtd">
<!-- Generated by graphviz version 2.43.0 (0)
 -->
<!-- Title: cpplint.IsBlockInNameSpace Pages: 1 -->
<svg width="1132pt" height="51pt"
 viewBox="0.00 0.00 1132.00 50.50" xmlns="http://www.w3.org/2000/svg" xmlns:xlink="http://www.w3.org/1999/xlink">
<g id="graph0" class="graph" transform="scale(1 1) rotate(0) translate(4 46.5)">
<title>cpplint.IsBlockInNameSpace</title>
<!-- Node1 -->
<g id="Node000001" class="node">
<title>Node1</title>
<g id="a_Node000001"><a xlink:title=" ">
<polygon fill="#999999" stroke="#666666" points="1124,-24.5 969,-24.5 969,-5.5 1124,-5.5 1124,-24.5"/>
<text text-anchor="middle" x="1046.5" y="-12.5" font-family="Helvetica,sans-Serif" font-size="10.00">cpplint.IsBlockInNameSpace</text>
</a>
</g>
</g>
<!-- Node2 -->
<g id="Node000002" class="node">
<title>Node2</title>
<g id="a_Node000002"><a xlink:href="../../d3/d23/namespacecpplint_a9325611c171591900d6eeeff1daf1cb6.xhtml#a9325611c171591900d6eeeff1daf1cb6" target="_top" xlink:title=" ">
<polygon fill="white" stroke="#666666" points="933,-30 760,-30 760,0 933,0 933,-30"/>
<text text-anchor="start" x="768" y="-18" font-family="Helvetica,sans-Serif" font-size="10.00">cpplint.ShouldCheckNamespace</text>
<text text-anchor="middle" x="846.5" y="-7" font-family="Helvetica,sans-Serif" font-size="10.00">Indentation</text>
</a>
</g>
</g>
<!-- Node1&#45;&gt;Node2 -->
<g id="edge1_Node000001_Node000002" class="edge">
<title>Node1&#45;&gt;Node2</title>
<g id="a_edge1_Node000001_Node000002"><a xlink:title=" ">
<path fill="none" stroke="#63b8ff" d="M958.94,-15C950.35,-15 941.64,-15 933.06,-15"/>
<polygon fill="#63b8ff" stroke="#63b8ff" points="958.95,-18.5 968.95,-15 958.95,-11.5 958.95,-18.5"/>
</a>
</g>
</g>
<!-- Node3 -->
<g id="Node000003" class="node">
<title>Node3</title>
<g id="a_Node000003"><a xlink:href="../../d3/d23/namespacecpplint_aa6e33062b311eb8df8b394968bb8e057.xhtml#aa6e33062b311eb8df8b394968bb8e057" target="_top" xlink:title=" ">
<polygon fill="white" stroke="#666666" points="724,-30 569,-30 569,0 724,0 724,-30"/>
<text text-anchor="start" x="577" y="-18" font-family="Helvetica,sans-Serif" font-size="10.00">cpplint.CheckForNamespace</text>
<text text-anchor="middle" x="646.5" y="-7" font-family="Helvetica,sans-Serif" font-size="10.00">Indentation</text>
</a>
</g>
</g>
<!-- Node2&#45;&gt;Node3 -->
<g id="edge2_Node000002_Node000003" class="edge">
<title>Node2&#45;&gt;Node3</title>
<g id="a_edge2_Node000002_Node000003"><a xlink:title=" ">
<path fill="none" stroke="#63b8ff" d="M749.8,-15C741.24,-15 732.66,-15 724.29,-15"/>
<polygon fill="#63b8ff" stroke="#63b8ff" points="749.81,-18.5 759.81,-15 749.81,-11.5 749.81,-18.5"/>
</a>
</g>
</g>
<!-- Node4 -->
<g id="Node000004" class="node">
<title>Node4</title>
<g id="a_Node000004"><a xlink:href="../../d3/d23/namespacecpplint_a60ab7d00cbd976925382b70bbf1fb2cf.xhtml#a60ab7d00cbd976925382b70bbf1fb2cf" target="_top" xlink:title=" ">
<polygon fill="white" stroke="#666666" points="533,-24.5 423,-24.5 423,-5.5 533,-5.5 533,-24.5"/>
<text text-anchor="middle" x="478" y="-12.5" font-family="Helvetica,sans-Serif" font-size="10.00">cpplint.ProcessLine</text>
</a>
</g>
</g>
<!-- Node3&#45;&gt;Node4 -->
<g id="edge3_Node000003_Node000004" class="edge">
<title>Node3&#45;&gt;Node4</title>
<g id="a_edge3_Node000003_Node000004"><a xlink:title=" ">
<path fill="none" stroke="#63b8ff" d="M558.5,-15C549.91,-15 541.38,-15 533.26,-15"/>
<polygon fill="#63b8ff" stroke="#63b8ff" points="558.59,-18.5 568.59,-15 558.59,-11.5 558.59,-18.5"/>
</a>
</g>
</g>
<!-- Node5 -->
<g id="Node000005" class="node">
<title>Node5</title>
<g id="a_Node000005"><a xlink:href="../../d3/d23/namespacecpplint_af49dbbca393312acfa3a46984665eaff.xhtml#af49dbbca393312acfa3a46984665eaff" target="_top" xlink:title=" ">
<polygon fill="white" stroke="#666666" points="387,-24.5 256,-24.5 256,-5.5 387,-5.5 387,-24.5"/>
<text text-anchor="middle" x="321.5" y="-12.5" font-family="Helvetica,sans-Serif" font-size="10.00">cpplint.ProcessFileData</text>
</a>
</g>
</g>
<!-- Node4&#45;&gt;Node5 -->
<g id="edge4_Node000004_Node000005" class="edge">
<title>Node4&#45;&gt;Node5</title>
<g id="a_edge4_Node000004_Node000005"><a xlink:title=" ">
<path fill="none" stroke="#63b8ff" d="M412.76,-15C404.29,-15 395.6,-15 387.12,-15"/>
<polygon fill="#63b8ff" stroke="#63b8ff" points="412.96,-18.5 422.96,-15 412.96,-11.5 412.96,-18.5"/>
</a>
</g>
</g>
<!-- Node6 -->
<g id="Node000006" class="node">
<title>Node6</title>
<g id="a_Node000006"><a xlink:href="../../d3/d23/namespacecpplint_acecb7a35ccd8dc94f7759b8740496f5f.xhtml#acecb7a35ccd8dc94f7759b8740496f5f" target="_top" xlink:title=" ">
<polygon fill="white" stroke="#666666" points="220,-24.5 113,-24.5 113,-5.5 220,-5.5 220,-24.5"/>
<text text-anchor="middle" x="166.5" y="-12.5" font-family="Helvetica,sans-Serif" font-size="10.00">cpplint.ProcessFile</text>
</a>
</g>
</g>
<!-- Node5&#45;&gt;Node6 -->
<g id="edge5_Node000005_Node000006" class="edge">
<title>Node5&#45;&gt;Node6</title>
<g id="a_edge5_Node000005_Node000006"><a xlink:title=" ">
<path fill="none" stroke="#63b8ff" d="M245.38,-15C236.95,-15 228.51,-15 220.45,-15"/>
<polygon fill="#63b8ff" stroke="#63b8ff" points="245.61,-18.5 255.61,-15 245.61,-11.5 245.61,-18.5"/>
</a>
</g>
</g>
<!-- Node7 -->
<g id="Node000007" class="node">
<title>Node7</title>
<g id="a_Node000007"><a xlink:href="../../d3/d23/namespacecpplint_acf4a1286bb0905ffa465d24881a5d2e7.xhtml#acf4a1286bb0905ffa465d24881a5d2e7" target="_top" xlink:title=" ">
<polygon fill="white" stroke="#666666" points="77,-24.5 0,-24.5 0,-5.5 77,-5.5 77,-24.5"/>
<text text-anchor="middle" x="38.5" y="-12.5" font-family="Helvetica,sans-Serif" font-size="10.00">cpplint.main</text>
</a>
</g>
</g>
<!-- Node6&#45;&gt;Node7 -->
<g id="edge6_Node000006_Node000007" class="edge">
<title>Node6&#45;&gt;Node7</title>
<g id="a_edge6_Node000006_Node000007"><a xlink:title=" ">
<path fill="none" stroke="#63b8ff" d="M102.59,-15C93.85,-15 85.12,-15 77.05,-15"/>
<polygon fill="#63b8ff" stroke="#63b8ff" points="102.79,-18.5 112.79,-15 102.79,-11.5 102.79,-18.5"/>
</a>
</g>
</g>
<!-- Node7&#45;&gt;Node7 -->
<g id="edge7_Node000007_Node000007" class="edge">
<title>Node7&#45;&gt;Node7</title>
<g id="a_edge7_Node000007_Node000007"><a xlink:title=" ">
<path fill="none" stroke="#63b8ff" d="M62.2,-34.05C60.62,-38.88 52.72,-42.5 38.5,-42.5 15.75,-42.5 9.17,-33.23 18.77,-24.58"/>
<polygon fill="#63b8ff" stroke="#63b8ff" points="65.33,-32.45 58.23,-24.58 58.87,-35.16 65.33,-32.45"/>
</a>
</g>
</g>
</g>
</svg>
