<?xml version="1.0" encoding="UTF-8" standalone="no"?>
<!DOCTYPE svg PUBLIC "-//W3C//DTD SVG 1.1//EN"
 "http://www.w3.org/Graphics/SVG/1.1/DTD/svg11.dtd">
<!-- Generated by graphviz version 2.43.0 (0)
 -->
<!-- Title: PrintBasic::printDouble Pages: 1 -->
<svg width="398pt" height="46pt"
 viewBox="0.00 0.00 398.00 46.00" xmlns="http://www.w3.org/2000/svg" xmlns:xlink="http://www.w3.org/1999/xlink">
<g id="graph0" class="graph" transform="scale(1 1) rotate(0) translate(4 42)">
<title>PrintBasic::printDouble</title>
<!-- Node1 -->
<g id="Node000001" class="node">
<title>Node1</title>
<g id="a_Node000001"><a xlink:title=" ">
<polygon fill="#999999" stroke="#666666" points="128,-19 0,-19 0,0 128,0 128,-19"/>
<text text-anchor="middle" x="64" y="-7" font-family="Helvetica,sans-Serif" font-size="10.00">PrintBasic::printDouble</text>
</a>
</g>
</g>
<!-- Node2 -->
<g id="Node000002" class="node">
<title>Node2</title>
<g id="a_Node000002"><a xlink:href="../../d9/dd9/classPrintBasic_a65247e790e6f8e209eb68a797bf96add.xhtml#a65247e790e6f8e209eb68a797bf96add" target="_top" xlink:title=" ">
<polygon fill="white" stroke="#666666" points="258,-38 164,-38 164,-19 258,-19 258,-38"/>
<text text-anchor="middle" x="211" y="-26" font-family="Helvetica,sans-Serif" font-size="10.00">PrintBasic::print</text>
</a>
</g>
</g>
<!-- Node1&#45;&gt;Node2 -->
<g id="edge1_Node000001_Node000002" class="edge">
<title>Node1&#45;&gt;Node2</title>
<g id="a_edge1_Node000001_Node000002"><a xlink:title=" ">
<path fill="none" stroke="#63b8ff" d="M128.18,-17.78C136.64,-18.89 145.28,-20.02 153.61,-21.11"/>
<polygon fill="#63b8ff" stroke="#63b8ff" points="153.23,-24.59 163.6,-22.42 154.14,-17.65 153.23,-24.59"/>
</a>
</g>
</g>
<!-- Node3 -->
<g id="Node000003" class="node">
<title>Node3</title>
<g id="a_Node000003"><a xlink:href="../../d9/dd9/classPrintBasic_afdd5b2ee779058e5b7741c6e46f63f06.xhtml#afdd5b2ee779058e5b7741c6e46f63f06" target="_top" xlink:title=" ">
<polygon fill="white" stroke="#666666" points="390,-19 294,-19 294,0 390,0 390,-19"/>
<text text-anchor="middle" x="342" y="-7" font-family="Helvetica,sans-Serif" font-size="10.00">PrintBasic::write</text>
</a>
</g>
</g>
<!-- Node1&#45;&gt;Node3 -->
<g id="edge4_Node000001_Node000003" class="edge">
<title>Node1&#45;&gt;Node3</title>
<g id="a_edge4_Node000001_Node000003"><a xlink:title=" ">
<path fill="none" stroke="#63b8ff" d="M128.32,-9.5C175.12,-9.5 238.33,-9.5 283.65,-9.5"/>
<polygon fill="#63b8ff" stroke="#63b8ff" points="283.9,-13 293.9,-9.5 283.9,-6 283.9,-13"/>
</a>
</g>
</g>
<!-- Node2&#45;&gt;Node3 -->
<g id="edge2_Node000002_Node000003" class="edge">
<title>Node2&#45;&gt;Node3</title>
<g id="a_edge2_Node000002_Node000003"><a xlink:title=" ">
<path fill="none" stroke="#63b8ff" d="M258.21,-21.69C266.52,-20.47 275.28,-19.18 283.86,-17.92"/>
<polygon fill="#63b8ff" stroke="#63b8ff" points="284.43,-21.37 293.81,-16.45 283.41,-14.44 284.43,-21.37"/>
</a>
</g>
</g>
<!-- Node3&#45;&gt;Node3 -->
<g id="edge3_Node000003_Node000003" class="edge">
<title>Node3&#45;&gt;Node3</title>
<g id="a_edge3_Node000003_Node000003"><a xlink:title=" ">
<path fill="none" stroke="#63b8ff" d="M321.96,-19.08C312.22,-27.73 318.89,-37 342,-37 356.8,-37 364.86,-33.2 366.18,-28.19"/>
<polygon fill="#63b8ff" stroke="#63b8ff" points="369.36,-26.73 362.04,-19.08 362.99,-29.63 369.36,-26.73"/>
</a>
</g>
</g>
</g>
</svg>
