<?xml version="1.0" encoding="UTF-8" standalone="no"?>
<!DOCTYPE svg PUBLIC "-//W3C//DTD SVG 1.1//EN"
 "http://www.w3.org/Graphics/SVG/1.1/DTD/svg11.dtd">
<!-- Generated by graphviz version 2.43.0 (0)
 -->
<!-- Title: Graphe hiérarchique des classes Pages: 1 -->
<svg width="367pt" height="27pt"
 viewBox="0.00 0.00 367.00 27.00" xmlns="http://www.w3.org/2000/svg" xmlns:xlink="http://www.w3.org/1999/xlink">
<g id="graph0" class="graph" transform="scale(1 1) rotate(0) translate(4 23)">
<title>Graphe hiérarchique des classes</title>
<!-- Node0 -->
<g id="Node000000" class="node">
<title>Node0</title>
<g id="a_Node000000"><a xlink:href="d8/d44/classFsBlockDeviceInterface.xhtml" target="_top" xlink:title="FsBlockDeviceInterface class.">
<polygon fill="white" stroke="#666666" points="132,-19 0,-19 0,0 132,0 132,-19"/>
<text text-anchor="middle" x="66" y="-7" font-family="Helvetica,sans-Serif" font-size="10.00">FsBlockDeviceInterface</text>
</a>
</g>
</g>
<!-- Node1 -->
<g id="Node000001" class="node">
<title>Node1</title>
<g id="a_Node000001"><a xlink:href="d9/d18/classSdCardInterface.xhtml" target="_top" xlink:title="Abstract interface for an SD card.">
<polygon fill="white" stroke="#666666" points="263,-19 168,-19 168,0 263,0 263,-19"/>
<text text-anchor="middle" x="215.5" y="-7" font-family="Helvetica,sans-Serif" font-size="10.00">SdCardInterface</text>
</a>
</g>
</g>
<!-- Node0&#45;&gt;Node1 -->
<g id="edge46_Node000000_Node000001" class="edge">
<title>Node0&#45;&gt;Node1</title>
<g id="a_edge46_Node000000_Node000001"><a xlink:title=" ">
<path fill="none" stroke="#63b8ff" d="M142.33,-9.5C151.03,-9.5 159.71,-9.5 167.87,-9.5"/>
<polygon fill="#63b8ff" stroke="#63b8ff" points="142.13,-6 132.13,-9.5 142.12,-13 142.13,-6"/>
</a>
</g>
</g>
<!-- Node2 -->
<g id="Node000002" class="node">
<title>Node2</title>
<g id="a_Node000002"><a xlink:href="dc/d09/classSdioCard.xhtml" target="_top" xlink:title="Raw SDIO access to SD and SDHC flash memory cards.">
<polygon fill="white" stroke="#666666" points="359,-19 299,-19 299,0 359,0 359,-19"/>
<text text-anchor="middle" x="329" y="-7" font-family="Helvetica,sans-Serif" font-size="10.00">SdioCard</text>
</a>
</g>
</g>
<!-- Node1&#45;&gt;Node2 -->
<g id="edge47_Node000001_Node000002" class="edge">
<title>Node1&#45;&gt;Node2</title>
<g id="a_edge47_Node000001_Node000002"><a xlink:title=" ">
<path fill="none" stroke="#63b8ff" d="M273.4,-9.5C282.16,-9.5 290.89,-9.5 298.72,-9.5"/>
<polygon fill="#63b8ff" stroke="#63b8ff" points="273.14,-6 263.14,-9.5 273.14,-13 273.14,-6"/>
</a>
</g>
</g>
</g>
</svg>
