<?xml version="1.0" encoding="UTF-8" standalone="no"?>
<!DOCTYPE svg PUBLIC "-//W3C//DTD SVG 1.1//EN"
 "http://www.w3.org/Graphics/SVG/1.1/DTD/svg11.dtd">
<!-- Generated by graphviz version 2.43.0 (0)
 -->
<!-- Title: ExFatFile::getError Pages: 1 -->
<svg width="393pt" height="102pt"
 viewBox="0.00 0.00 393.00 102.00" xmlns="http://www.w3.org/2000/svg" xmlns:xlink="http://www.w3.org/1999/xlink">

<svg id="main" version="1.1" xmlns="http://www.w3.org/2000/svg" xmlns:xlink="http://www.w3.org/1999/xlink" xml:space="preserve" onload="init(evt)">
<style type="text/css"><![CDATA[
.node, .edge {opacity: 0.7;}
.node.selected, .edge.selected {opacity: 1;}
.edge:hover path { stroke: red; }
.edge:hover polygon { stroke: red; fill: red; }
]]></style>
<script type="application/ecmascript" xlink:href="../../svg.min.js"/>
<svg id="graph" class="graph">
<g id="graph0" class="graph" transform="scale(1 1) rotate(0) translate(4 98)">
<title>ExFatFile::getError</title>
<!-- Node1 -->
<g id="Node000001" class="node">
<title>Node1</title>
<g id="a_Node000001"><a xlink:title=" ">
<polygon fill="#999999" stroke="#666666" points="385,-57 280,-57 280,-38 385,-38 385,-57"/>
<text text-anchor="middle" x="332.5" y="-45" font-family="Helvetica,sans-Serif" font-size="10.00">ExFatFile::getError</text>
</a>
</g>
</g>
<!-- Node2 -->
<g id="Node000002" class="node">
<title>Node2</title>
<g id="a_Node000002"><a xlink:href="../../d0/db5/classFsBaseFile_a6abf35bd3dbdffb5db8b00bca7315e77.xhtml#a6abf35bd3dbdffb5db8b00bca7315e77" target="_top" xlink:title=" ">
<polygon fill="white" stroke="#666666" points="244,-94 130,-94 130,-75 244,-75 244,-94"/>
<text text-anchor="middle" x="187" y="-82" font-family="Helvetica,sans-Serif" font-size="10.00">FsBaseFile::getError</text>
</a>
</g>
</g>
<!-- Node1&#45;&gt;Node2 -->
<g id="edge1_Node000001_Node000002" class="edge">
<title>Node1&#45;&gt;Node2</title>
<g id="a_edge1_Node000001_Node000002"><a xlink:title=" ">
<path fill="none" stroke="#63b8ff" d="M284.76,-59.55C265.5,-64.52 243.48,-70.19 225.33,-74.88"/>
<polygon fill="#63b8ff" stroke="#63b8ff" points="285.74,-62.91 294.55,-57.03 283.99,-56.14 285.74,-62.91"/>
</a>
</g>
</g>
<!-- Node3 -->
<g id="Node000003" class="node">
<title>Node3</title>
<g id="a_Node000003"><a xlink:href="../../d6/d7f/classExFatFile_aa0e074c891f3db5ea2ebd491667b03a6.xhtml#aa0e074c891f3db5ea2ebd491667b03a6" target="_top" xlink:title=" ">
<polygon fill="white" stroke="#666666" points="224,-57 150,-57 150,-38 224,-38 224,-57"/>
<text text-anchor="middle" x="187" y="-45" font-family="Helvetica,sans-Serif" font-size="10.00">ExFatFile::ls</text>
</a>
</g>
</g>
<!-- Node1&#45;&gt;Node3 -->
<g id="edge2_Node000001_Node000003" class="edge">
<title>Node1&#45;&gt;Node3</title>
<g id="a_edge2_Node000001_Node000003"><a xlink:title=" ">
<path fill="none" stroke="#63b8ff" d="M269.59,-47.5C254.02,-47.5 237.82,-47.5 224,-47.5"/>
<polygon fill="#63b8ff" stroke="#63b8ff" points="269.69,-51 279.69,-47.5 269.69,-44 269.69,-51"/>
</a>
</g>
</g>
<!-- Node5 -->
<g id="Node000005" class="node">
<title>Node5</title>
<g id="a_Node000005"><a xlink:href="../../d6/d7f/classExFatFile_a09f8beb55f939874e93c1df6c8a046d4.xhtml#a09f8beb55f939874e93c1df6c8a046d4" target="_top" xlink:title=" ">
<polygon fill="white" stroke="#666666" points="84,-19 10,-19 10,0 84,0 84,-19"/>
<text text-anchor="middle" x="47" y="-7" font-family="Helvetica,sans-Serif" font-size="10.00">ExFatFile::ls</text>
</a>
</g>
</g>
<!-- Node1&#45;&gt;Node5 -->
<g id="edge6_Node000001_Node000005" class="edge">
<title>Node1&#45;&gt;Node5</title>
<g id="a_edge6_Node000001_Node000005"><a xlink:title=" ">
<path fill="none" stroke="#63b8ff" d="M281.93,-35.68C269.59,-33.03 256.36,-30.43 244,-28.5 188.61,-19.83 123.75,-14.47 84.28,-11.74"/>
<polygon fill="#63b8ff" stroke="#63b8ff" points="281.53,-39.17 292.05,-37.9 283.03,-32.34 281.53,-39.17"/>
</a>
</g>
</g>
<!-- Node4 -->
<g id="Node000004" class="node">
<title>Node4</title>
<g id="a_Node000004"><a xlink:href="../../d9/dce/classExFatVolume_a2e44d5d26a25d610c4b0d97fa5b1f505.xhtml#a2e44d5d26a25d610c4b0d97fa5b1f505" target="_top" xlink:title=" ">
<polygon fill="white" stroke="#666666" points="94,-93 0,-93 0,-74 94,-74 94,-93"/>
<text text-anchor="middle" x="47" y="-81" font-family="Helvetica,sans-Serif" font-size="10.00">ExFatVolume::ls</text>
</a>
</g>
</g>
<!-- Node3&#45;&gt;Node4 -->
<g id="edge3_Node000003_Node000004" class="edge">
<title>Node3&#45;&gt;Node4</title>
<g id="a_edge3_Node000003_Node000004"><a xlink:title=" ">
<path fill="none" stroke="#63b8ff" d="M139.99,-59.5C121.93,-64.21 101.51,-69.54 84.49,-73.98"/>
<polygon fill="#63b8ff" stroke="#63b8ff" points="140.95,-62.87 149.74,-56.96 139.18,-56.1 140.95,-62.87"/>
</a>
</g>
</g>
<!-- Node3&#45;&gt;Node5 -->
<g id="edge4_Node000003_Node000005" class="edge">
<title>Node3&#45;&gt;Node5</title>
<g id="a_edge4_Node000003_Node000005"><a xlink:title=" ">
<path fill="none" stroke="#63b8ff" d="M141.53,-35.25C122.51,-30.02 100.62,-23.99 82.81,-19.09"/>
<polygon fill="#63b8ff" stroke="#63b8ff" points="140.61,-38.63 151.18,-37.91 142.46,-31.88 140.61,-38.63"/>
</a>
</g>
</g>
<!-- Node6 -->
<g id="Node000006" class="node">
<title>Node6</title>
<g id="a_Node000006"><a xlink:href="../../d9/dce/classExFatVolume_abe1e8cad0a5922984b28edfd987bc856.xhtml#abe1e8cad0a5922984b28edfd987bc856" target="_top" xlink:title=" ">
<polygon fill="white" stroke="#666666" points="94,-56 0,-56 0,-37 94,-37 94,-56"/>
<text text-anchor="middle" x="47" y="-44" font-family="Helvetica,sans-Serif" font-size="10.00">ExFatVolume::ls</text>
</a>
</g>
</g>
<!-- Node3&#45;&gt;Node6 -->
<g id="edge5_Node000003_Node000006" class="edge">
<title>Node3&#45;&gt;Node6</title>
<g id="a_edge5_Node000003_Node000006"><a xlink:title=" ">
<path fill="none" stroke="#63b8ff" d="M139.42,-47.16C124.83,-47.06 108.73,-46.94 94.16,-46.83"/>
<polygon fill="#63b8ff" stroke="#63b8ff" points="139.72,-50.66 149.74,-47.24 139.77,-43.66 139.72,-50.66"/>
</a>
</g>
</g>
</g>
</svg>
</svg>

<style type='text/css'>
<![CDATA[
[data-mouse-over-selected='false'] { opacity: 0.7; }
[data-mouse-over-selected='true']  { opacity: 1.0; }
]]>
</style>
<script type="application/ecmascript"><![CDATA[
document.addEventListener('DOMContentLoaded', (event) => {
  highlightEdges();
  highlightAdjacentNodes();
});
]]></script>
</svg>
