<?xml version="1.0" encoding="UTF-8" standalone="no"?>
<!DOCTYPE svg PUBLIC "-//W3C//DTD SVG 1.1//EN"
 "http://www.w3.org/Graphics/SVG/1.1/DTD/svg11.dtd">
<!-- Generated by graphviz version 2.43.0 (0)
 -->
<!-- Title: ExFatFile::printField Pages: 1 -->
<svg width="353pt" height="82pt"
 viewBox="0.00 0.00 353.00 82.00" xmlns="http://www.w3.org/2000/svg" xmlns:xlink="http://www.w3.org/1999/xlink">
<g id="graph0" class="graph" transform="scale(1 1) rotate(0) translate(4 78)">
<title>ExFatFile::printField</title>
<!-- Node1 -->
<g id="Node000001" class="node">
<title>Node1</title>
<g id="a_Node000001"><a xlink:title=" ">
<polygon fill="#999999" stroke="#666666" points="112,-46 0,-46 0,-27 112,-27 112,-46"/>
<text text-anchor="middle" x="56" y="-34" font-family="Helvetica,sans-Serif" font-size="10.00">ExFatFile::printField</text>
</a>
</g>
</g>
<!-- Node2 -->
<g id="Node000002" class="node">
<title>Node2</title>
<g id="a_Node000002"><a xlink:href="../../d4/d7f/FmtNumber_8cpp.xhtml#aa406e3ddeb7cfe6c5bc9c681f1f68b02" target="_top" xlink:title=" ">
<polygon fill="white" stroke="#666666" points="227.5,-74 159.5,-74 159.5,-55 227.5,-55 227.5,-74"/>
<text text-anchor="middle" x="193.5" y="-62" font-family="Helvetica,sans-Serif" font-size="10.00">fmtDouble</text>
</a>
</g>
</g>
<!-- Node1&#45;&gt;Node2 -->
<g id="edge1_Node000001_Node000002" class="edge">
<title>Node1&#45;&gt;Node2</title>
<g id="a_edge1_Node000001_Node000002"><a xlink:title=" ">
<path fill="none" stroke="#63b8ff" d="M103.25,-46.06C118.2,-49.15 134.71,-52.56 149.42,-55.6"/>
<polygon fill="#63b8ff" stroke="#63b8ff" points="148.78,-59.04 159.28,-57.63 150.19,-52.18 148.78,-59.04"/>
</a>
</g>
</g>
<!-- Node4 -->
<g id="Node000004" class="node">
<title>Node4</title>
<g id="a_Node000004"><a xlink:href="../../d6/d7f/classExFatFile.xhtml#a6fb2905a5e363554a5118b5d1322cd87" target="_top" xlink:title=" ">
<polygon fill="white" stroke="#666666" points="239,-19 148,-19 148,0 239,0 239,-19"/>
<text text-anchor="middle" x="193.5" y="-7" font-family="Helvetica,sans-Serif" font-size="10.00">ExFatFile::write</text>
</a>
</g>
</g>
<!-- Node1&#45;&gt;Node4 -->
<g id="edge3_Node000001_Node000004" class="edge">
<title>Node1&#45;&gt;Node4</title>
<g id="a_edge3_Node000001_Node000004"><a xlink:title=" ">
<path fill="none" stroke="#63b8ff" d="M104.77,-26.98C115.51,-24.84 126.97,-22.56 137.96,-20.37"/>
<polygon fill="#63b8ff" stroke="#63b8ff" points="138.76,-23.78 147.88,-18.39 137.39,-16.91 138.76,-23.78"/>
</a>
</g>
</g>
<!-- Node3 -->
<g id="Node000003" class="node">
<title>Node3</title>
<g id="a_Node000003"><a xlink:href="../../d4/d7f/FmtNumber_8cpp.xhtml#af68574870cae526800333ab6a615f955" target="_top" xlink:title=" ">
<polygon fill="white" stroke="#666666" points="345,-74 275,-74 275,-55 345,-55 345,-74"/>
<text text-anchor="middle" x="310" y="-62" font-family="Helvetica,sans-Serif" font-size="10.00">fmtBase10</text>
</a>
</g>
</g>
<!-- Node2&#45;&gt;Node3 -->
<g id="edge2_Node000002_Node000003" class="edge">
<title>Node2&#45;&gt;Node3</title>
<g id="a_edge2_Node000002_Node000003"><a xlink:title=" ">
<path fill="none" stroke="#63b8ff" d="M227.62,-64.5C239.18,-64.5 252.34,-64.5 264.66,-64.5"/>
<polygon fill="#63b8ff" stroke="#63b8ff" points="264.76,-68 274.76,-64.5 264.76,-61 264.76,-68"/>
</a>
</g>
</g>
<!-- Node4&#45;&gt;Node4 -->
<g id="edge4_Node000004_Node000004" class="edge">
<title>Node4&#45;&gt;Node4</title>
<g id="a_edge4_Node000004_Node000004"><a xlink:title=" ">
<path fill="none" stroke="#63b8ff" d="M175.62,-19.08C166.92,-27.73 172.88,-37 193.5,-37 206.39,-37 213.55,-33.38 214.98,-28.55"/>
<polygon fill="#63b8ff" stroke="#63b8ff" points="218.2,-27.19 211.38,-19.08 211.66,-29.67 218.2,-27.19"/>
</a>
</g>
</g>
</g>
</svg>
