<?xml version="1.0" encoding="UTF-8" standalone="no"?>
<!DOCTYPE svg PUBLIC "-//W3C//DTD SVG 1.1//EN"
 "http://www.w3.org/Graphics/SVG/1.1/DTD/svg11.dtd">
<!-- Generated by graphviz version 2.43.0 (0)
 -->
<!-- Title: ExFatFile::isBusy Pages: 1 -->
<!--zoomable 229 -->

<svg id="main" version="1.1" xmlns="http://www.w3.org/2000/svg" xmlns:xlink="http://www.w3.org/1999/xlink" xml:space="preserve" onload="init(evt)">
<style type="text/css"><![CDATA[
.node, .edge {opacity: 0.7;}
.node.selected, .edge.selected {opacity: 1;}
.edge:hover path { stroke: red; }
.edge:hover polygon { stroke: red; fill: red; }
]]></style>

<defs>
  <circle id="rim" cx="0" cy="0" r="7"/>
  <circle id="rim2" cx="0" cy="0" r="3.5"/>
  <g id="zoomPlus">
    <use xlink:href="#rim" fill="#404040"><set attributeName="fill" to="#808080" begin="zoomplus.mouseover" end="zoomplus.mouseout"/></use>
    <path d="M-4,0h8M0,-4v8" fill="none" stroke="white" stroke-width="1.5" pointer-events="none"/>
  </g>
  <g id="zoomMin">
    <use xlink:href="#rim" fill="#404040"><set attributeName="fill" to="#808080" begin="zoomminus.mouseover" end="zoomminus.mouseout"/></use>
    <path d="M-4,0h8" fill="none" stroke="white" stroke-width="1.5" pointer-events="none"/>
  </g>
  <g id="arrowUp" transform="translate(30 24)">
    <use xlink:href="#rim"/>
    <path pointer-events="none" fill="none" stroke="white" stroke-width="1.5" d="M0,-3.0v7 M-2.5,-0.5L0,-3.0L2.5,-0.5"/>
  </g>
  <g id="arrowRight" transform="rotate(90) translate(36 -43)">
    <use xlink:href="#rim"/>
    <path pointer-events="none" fill="none" stroke="white" stroke-width="1.5" d="M0,-3.0v7 M-2.5,-0.5L0,-3.0L2.5,-0.5"/>
  </g>
  <g id="arrowDown" transform="rotate(180) translate(-30 -48)">
    <use xlink:href="#rim"/>
    <path pointer-events="none" fill="none" stroke="white" stroke-width="1.5" d="M0,-3.0v7 M-2.5,-0.5L0,-3.0L2.5,-0.5"/>
  </g>
  <g id="arrowLeft" transform="rotate(270) translate(-36 17)">
    <use xlink:href="#rim"/>
    <path pointer-events="none" fill="none" stroke="white" stroke-width="1.5" d="M0,-3.0v7 M-2.5,-0.5L0,-3.0L2.5,-0.5"/>
  </g>
  <g id="resetDef">
    <use xlink:href="#rim2" fill="#404040"><set attributeName="fill" to="#808080" begin="reset.mouseover" end="reset.mouseout"/></use>
  </g>
</defs>
<script type="application/ecmascript">
var viewWidth = 1174;
var viewHeight = 229;
var sectionId = 'dynsection-0';
</script>
<script type="application/ecmascript" xlink:href="../../svg.min.js"/>
<svg id="graph" class="graph">
<g id="viewport">
<title>ExFatFile::isBusy</title>
<!-- Node1 -->
<g id="Node000001" class="node">
<title>Node1</title>
<g id="a_Node000001"><a xlink:title=" ">
<polygon fill="#999999" stroke="#666666" points="98,-135.5 0,-135.5 0,-116.5 98,-116.5 98,-135.5"/>
<text text-anchor="middle" x="49" y="-123.5" font-family="Helvetica,sans-Serif" font-size="10.00">ExFatFile::isBusy</text>
</a>
</g>
</g>
<!-- Node2 -->
<g id="Node000002" class="node">
<title>Node2</title>
<g id="a_Node000002"><a xlink:href="../../d0/d63/classExFatPartition_ae942fe7241550873b932757452fbbdae.xhtml#ae942fe7241550873b932757452fbbdae" target="_top" xlink:title=" ">
<polygon fill="white" stroke="#666666" points="256,-135.5 134,-135.5 134,-116.5 256,-116.5 256,-135.5"/>
<text text-anchor="middle" x="195" y="-123.5" font-family="Helvetica,sans-Serif" font-size="10.00">ExFatPartition::isBusy</text>
</a>
</g>
</g>
<!-- Node1&#45;&gt;Node2 -->
<g id="edge1_Node000001_Node000002" class="edge">
<title>Node1&#45;&gt;Node2</title>
<g id="a_edge1_Node000001_Node000002"><a xlink:title=" ">
<path fill="none" stroke="#63b8ff" d="M98.35,-126C106.51,-126 115.13,-126 123.72,-126"/>
<polygon fill="#63b8ff" stroke="#63b8ff" points="123.75,-129.5 133.75,-126 123.75,-122.5 123.75,-129.5"/>
</a>
</g>
</g>
<!-- Node3 -->
<g id="Node000003" class="node">
<title>Node3</title>
<g id="a_Node000003"><a xlink:href="../../d8/d7f/classSharedSpiCard_adffd2b7ebd53250fd96069f9bece875d.xhtml#adffd2b7ebd53250fd96069f9bece875d" target="_top" xlink:title=" ">
<polygon fill="white" stroke="#666666" points="418,-135.5 292,-135.5 292,-116.5 418,-116.5 418,-135.5"/>
<text text-anchor="middle" x="355" y="-123.5" font-family="Helvetica,sans-Serif" font-size="10.00">SharedSpiCard::isBusy</text>
</a>
</g>
</g>
<!-- Node2&#45;&gt;Node3 -->
<g id="edge2_Node000002_Node000003" class="edge">
<title>Node2&#45;&gt;Node3</title>
<g id="a_edge2_Node000002_Node000003"><a xlink:title=" ">
<path fill="none" stroke="#63b8ff" d="M256.18,-126C264.58,-126 273.28,-126 281.87,-126"/>
<polygon fill="#63b8ff" stroke="#63b8ff" points="281.89,-129.5 291.89,-126 281.89,-122.5 281.89,-129.5"/>
</a>
</g>
</g>
<!-- Node4 -->
<g id="Node000004" class="node">
<title>Node4</title>
<g id="a_Node000004"><a xlink:href="../../d8/d7f/classSharedSpiCard_a08363209d938db87521cca6a84146041.xhtml#a08363209d938db87521cca6a84146041" target="_top" xlink:title=" ">
<polygon fill="white" stroke="#666666" points="601,-193.5 454,-193.5 454,-174.5 601,-174.5 601,-193.5"/>
<text text-anchor="middle" x="527.5" y="-181.5" font-family="Helvetica,sans-Serif" font-size="10.00">SharedSpiCard::spiReceive</text>
</a>
</g>
</g>
<!-- Node3&#45;&gt;Node4 -->
<g id="edge3_Node000003_Node000004" class="edge">
<title>Node3&#45;&gt;Node4</title>
<g id="a_edge3_Node000003_Node000004"><a xlink:title=" ">
<path fill="none" stroke="#63b8ff" d="M384.15,-135.58C412.66,-145.27 456.93,-160.33 488.53,-171.08"/>
<polygon fill="#63b8ff" stroke="#63b8ff" points="487.71,-174.5 498.3,-174.41 489.96,-167.87 487.71,-174.5"/>
</a>
</g>
</g>
<!-- Node6 -->
<g id="Node000006" class="node">
<title>Node6</title>
<g id="a_Node000006"><a xlink:href="../../d8/d7f/classSharedSpiCard_aef2dfa72e8d5643c90720f9f8c6a4254.xhtml#aef2dfa72e8d5643c90720f9f8c6a4254" target="_top" xlink:title=" ">
<polygon fill="white" stroke="#666666" points="593,-135.5 462,-135.5 462,-116.5 593,-116.5 593,-135.5"/>
<text text-anchor="middle" x="527.5" y="-123.5" font-family="Helvetica,sans-Serif" font-size="10.00">SharedSpiCard::spiStart</text>
</a>
</g>
</g>
<!-- Node3&#45;&gt;Node6 -->
<g id="edge5_Node000003_Node000006" class="edge">
<title>Node3&#45;&gt;Node6</title>
<g id="a_edge5_Node000003_Node000006"><a xlink:title=" ">
<path fill="none" stroke="#63b8ff" d="M418.04,-126C428.97,-126 440.46,-126 451.7,-126"/>
<polygon fill="#63b8ff" stroke="#63b8ff" points="451.93,-129.5 461.93,-126 451.93,-122.5 451.93,-129.5"/>
</a>
</g>
</g>
<!-- Node15 -->
<g id="Node000015" class="node">
<title>Node15</title>
<g id="a_Node000015"><a xlink:href="../../d8/d7f/classSharedSpiCard_a0f511c39c50055a4fc97e720933aee3a.xhtml#a0f511c39c50055a4fc97e720933aee3a" target="_top" xlink:title=" ">
<polygon fill="white" stroke="#666666" points="592.5,-80.5 462.5,-80.5 462.5,-61.5 592.5,-61.5 592.5,-80.5"/>
<text text-anchor="middle" x="527.5" y="-68.5" font-family="Helvetica,sans-Serif" font-size="10.00">SharedSpiCard::spiStop</text>
</a>
</g>
</g>
<!-- Node3&#45;&gt;Node15 -->
<g id="edge14_Node000003_Node000015" class="edge">
<title>Node3&#45;&gt;Node15</title>
<g id="a_edge14_Node000003_Node000015"><a xlink:title=" ">
<path fill="none" stroke="#63b8ff" d="M385.7,-116.42C413.85,-107.34 456.32,-93.64 487.25,-83.66"/>
<polygon fill="#63b8ff" stroke="#63b8ff" points="488.41,-86.96 496.86,-80.56 486.26,-80.3 488.41,-86.96"/>
</a>
</g>
</g>
<!-- Node5 -->
<g id="Node000005" class="node">
<title>Node5</title>
<g id="a_Node000005"><a xlink:href="../../d0/d25/classSdSpiArduinoDriver_a8d6bc852a52e9d69c4b1e48ee062e8d1.xhtml#a8d6bc852a52e9d69c4b1e48ee062e8d1" target="_top" xlink:title=" ">
<polygon fill="white" stroke="#666666" points="773,-221 662,-221 662,-191 773,-191 773,-221"/>
<text text-anchor="start" x="670" y="-209" font-family="Helvetica,sans-Serif" font-size="10.00">SdSpiArduinoDriver</text>
<text text-anchor="middle" x="717.5" y="-198" font-family="Helvetica,sans-Serif" font-size="10.00">::receive</text>
</a>
</g>
</g>
<!-- Node4&#45;&gt;Node5 -->
<g id="edge4_Node000004_Node000005" class="edge">
<title>Node4&#45;&gt;Node5</title>
<g id="a_edge4_Node000004_Node000005"><a xlink:title=" ">
<path fill="none" stroke="#63b8ff" d="M601.19,-192.51C617.87,-194.46 635.5,-196.52 651.82,-198.43"/>
<polygon fill="#63b8ff" stroke="#63b8ff" points="651.46,-201.91 661.8,-199.6 652.27,-194.96 651.46,-201.91"/>
</a>
</g>
</g>
<!-- Node7 -->
<g id="Node000007" class="node">
<title>Node7</title>
<g id="a_Node000007"><a xlink:href="../../d8/d7f/classSharedSpiCard_a69ee2fe49dfaeea2347d8a265806d2b6.xhtml#a69ee2fe49dfaeea2347d8a265806d2b6" target="_top" xlink:title=" ">
<polygon fill="white" stroke="#666666" points="792,-172.5 643,-172.5 643,-153.5 792,-153.5 792,-172.5"/>
<text text-anchor="middle" x="717.5" y="-160.5" font-family="Helvetica,sans-Serif" font-size="10.00">SharedSpiCard::spiActivate</text>
</a>
</g>
</g>
<!-- Node6&#45;&gt;Node7 -->
<g id="edge6_Node000006_Node000007" class="edge">
<title>Node6&#45;&gt;Node7</title>
<g id="a_edge6_Node000006_Node000007"><a xlink:title=" ">
<path fill="none" stroke="#63b8ff" d="M576.91,-135.53C601.6,-140.39 631.82,-146.33 657.81,-151.45"/>
<polygon fill="#63b8ff" stroke="#63b8ff" points="657.44,-154.94 667.92,-153.44 658.79,-148.07 657.44,-154.94"/>
</a>
</g>
</g>
<!-- Node9 -->
<g id="Node000009" class="node">
<title>Node9</title>
<g id="a_Node000009"><a xlink:href="../../d8/d7f/classSharedSpiCard_a8c3088599862ff6e84ae79bfdf32aea8.xhtml#a8c3088599862ff6e84ae79bfdf32aea8" target="_top" xlink:title=" ">
<polygon fill="white" stroke="#666666" points="786.5,-135.5 648.5,-135.5 648.5,-116.5 786.5,-116.5 786.5,-135.5"/>
<text text-anchor="middle" x="717.5" y="-123.5" font-family="Helvetica,sans-Serif" font-size="10.00">SharedSpiCard::spiSelect</text>
</a>
</g>
</g>
<!-- Node6&#45;&gt;Node9 -->
<g id="edge8_Node000006_Node000009" class="edge">
<title>Node6&#45;&gt;Node9</title>
<g id="a_edge8_Node000006_Node000009"><a xlink:title=" ">
<path fill="none" stroke="#63b8ff" d="M593.2,-126C607.7,-126 623.23,-126 638.21,-126"/>
<polygon fill="#63b8ff" stroke="#63b8ff" points="638.48,-129.5 648.48,-126 638.48,-122.5 638.48,-129.5"/>
</a>
</g>
</g>
<!-- Node13 -->
<g id="Node000013" class="node">
<title>Node13</title>
<g id="a_Node000013"><a xlink:href="../../d8/d7f/classSharedSpiCard_ab311b9ad8a250f06afbe091f7abb118b.xhtml#ab311b9ad8a250f06afbe091f7abb118b" target="_top" xlink:title=" ">
<polygon fill="white" stroke="#666666" points="783.5,-98.5 651.5,-98.5 651.5,-79.5 783.5,-79.5 783.5,-98.5"/>
<text text-anchor="middle" x="717.5" y="-86.5" font-family="Helvetica,sans-Serif" font-size="10.00">SharedSpiCard::spiSend</text>
</a>
</g>
</g>
<!-- Node6&#45;&gt;Node13 -->
<g id="edge12_Node000006_Node000013" class="edge">
<title>Node6&#45;&gt;Node13</title>
<g id="a_edge12_Node000006_Node000013"><a xlink:title=" ">
<path fill="none" stroke="#63b8ff" d="M576.91,-116.47C601.6,-111.61 631.82,-105.67 657.81,-100.55"/>
<polygon fill="#63b8ff" stroke="#63b8ff" points="658.79,-103.93 667.92,-98.56 657.44,-97.06 658.79,-103.93"/>
</a>
</g>
</g>
<!-- Node8 -->
<g id="Node000008" class="node">
<title>Node8</title>
<g id="a_Node000008"><a xlink:href="../../d0/d25/classSdSpiArduinoDriver_abb6b88c5c8b87fc344a69f23f6eab3d9.xhtml#abb6b88c5c8b87fc344a69f23f6eab3d9" target="_top" xlink:title=" ">
<polygon fill="white" stroke="#666666" points="945,-181 834,-181 834,-151 945,-151 945,-181"/>
<text text-anchor="start" x="842" y="-169" font-family="Helvetica,sans-Serif" font-size="10.00">SdSpiArduinoDriver</text>
<text text-anchor="middle" x="889.5" y="-158" font-family="Helvetica,sans-Serif" font-size="10.00">::activate</text>
</a>
</g>
</g>
<!-- Node7&#45;&gt;Node8 -->
<g id="edge7_Node000007_Node000008" class="edge">
<title>Node7&#45;&gt;Node8</title>
<g id="a_edge7_Node000007_Node000008"><a xlink:title=" ">
<path fill="none" stroke="#63b8ff" d="M792.08,-164.3C802.57,-164.48 813.31,-164.67 823.63,-164.86"/>
<polygon fill="#63b8ff" stroke="#63b8ff" points="823.72,-168.36 833.78,-165.03 823.84,-161.36 823.72,-168.36"/>
</a>
</g>
</g>
<!-- Node10 -->
<g id="Node000010" class="node">
<title>Node10</title>
<g id="a_Node000010"><a xlink:href="../../d2/df0/SdSpiChipSelect_8cpp_ac469bbe2d31ffde9b00ffc68258d7428.xhtml#ac469bbe2d31ffde9b00ffc68258d7428" target="_top" xlink:title=" ">
<polygon fill="white" stroke="#666666" points="922.5,-132.5 856.5,-132.5 856.5,-113.5 922.5,-113.5 922.5,-132.5"/>
<text text-anchor="middle" x="889.5" y="-120.5" font-family="Helvetica,sans-Serif" font-size="10.00">sdCsWrite</text>
</a>
</g>
</g>
<!-- Node9&#45;&gt;Node10 -->
<g id="edge9_Node000009_Node000010" class="edge">
<title>Node9&#45;&gt;Node10</title>
<g id="a_edge9_Node000009_Node000010"><a xlink:title=" ">
<path fill="none" stroke="#63b8ff" d="M786.67,-124.8C806.74,-124.44 828.12,-124.07 846.09,-123.75"/>
<polygon fill="#63b8ff" stroke="#63b8ff" points="846.29,-127.25 856.23,-123.57 846.17,-120.25 846.29,-127.25"/>
</a>
</g>
</g>
<!-- Node11 -->
<g id="Node000011" class="node">
<title>Node11</title>
<g id="a_Node000011"><a xlink:href="../../d5/d45/wiring__digital_8c_a73b9b61feeaf7d790d107f2954a7fd93.xhtml#a73b9b61feeaf7d790d107f2954a7fd93" target="_top" xlink:title=" ">
<polygon fill="white" stroke="#666666" points="1055,-132.5 981,-132.5 981,-113.5 1055,-113.5 1055,-132.5"/>
<text text-anchor="middle" x="1018" y="-120.5" font-family="Helvetica,sans-Serif" font-size="10.00">digitalWrite</text>
</a>
</g>
</g>
<!-- Node10&#45;&gt;Node11 -->
<g id="edge10_Node000010_Node000011" class="edge">
<title>Node10&#45;&gt;Node11</title>
<g id="a_edge10_Node000010_Node000011"><a xlink:title=" ">
<path fill="none" stroke="#63b8ff" d="M922.75,-123C937.28,-123 954.71,-123 970.61,-123"/>
<polygon fill="#63b8ff" stroke="#63b8ff" points="970.79,-126.5 980.79,-123 970.79,-119.5 970.79,-126.5"/>
</a>
</g>
</g>
<!-- Node12 -->
<g id="Node000012" class="node">
<title>Node12</title>
<g id="a_Node000012"><a xlink:href="../../d5/d45/wiring__digital_8c_ae3d0bcbe4eb927ca8f5d5c21b7e4f224.xhtml#ae3d0bcbe4eb927ca8f5d5c21b7e4f224" target="_top" xlink:title=" ">
<polygon fill="white" stroke="#666666" points="1166,-132.5 1091,-132.5 1091,-113.5 1166,-113.5 1166,-132.5"/>
<text text-anchor="middle" x="1128.5" y="-120.5" font-family="Helvetica,sans-Serif" font-size="10.00">turnOffPWM</text>
</a>
</g>
</g>
<!-- Node11&#45;&gt;Node12 -->
<g id="edge11_Node000011_Node000012" class="edge">
<title>Node11&#45;&gt;Node12</title>
<g id="a_edge11_Node000011_Node000012"><a xlink:title=" ">
<path fill="none" stroke="#63b8ff" d="M1055.13,-123C1063.28,-123 1072.05,-123 1080.57,-123"/>
<polygon fill="#63b8ff" stroke="#63b8ff" points="1080.79,-126.5 1090.79,-123 1080.79,-119.5 1080.79,-126.5"/>
</a>
</g>
</g>
<!-- Node14 -->
<g id="Node000014" class="node">
<title>Node14</title>
<g id="a_Node000014"><a xlink:href="../../d0/d25/classSdSpiArduinoDriver_a3c4842e47f98fe5d3799cd6028778ab5.xhtml#a3c4842e47f98fe5d3799cd6028778ab5" target="_top" xlink:title=" ">
<polygon fill="white" stroke="#666666" points="945,-95 834,-95 834,-65 945,-65 945,-95"/>
<text text-anchor="start" x="842" y="-83" font-family="Helvetica,sans-Serif" font-size="10.00">SdSpiArduinoDriver</text>
<text text-anchor="middle" x="889.5" y="-72" font-family="Helvetica,sans-Serif" font-size="10.00">::send</text>
</a>
</g>
</g>
<!-- Node13&#45;&gt;Node14 -->
<g id="edge13_Node000013_Node000014" class="edge">
<title>Node13&#45;&gt;Node14</title>
<g id="a_edge13_Node000013_Node000014"><a xlink:title=" ">
<path fill="none" stroke="#63b8ff" d="M783.74,-85.55C796.82,-84.85 810.56,-84.13 823.62,-83.43"/>
<polygon fill="#63b8ff" stroke="#63b8ff" points="824.13,-86.91 833.93,-82.89 823.76,-79.92 824.13,-86.91"/>
</a>
</g>
</g>
<!-- Node15&#45;&gt;Node13 -->
<g id="edge17_Node000015_Node000013" class="edge">
<title>Node15&#45;&gt;Node13</title>
<g id="a_edge17_Node000015_Node000013"><a xlink:title=" ">
<path fill="none" stroke="#63b8ff" d="M592.67,-77.14C608.21,-78.63 624.95,-80.23 640.95,-81.77"/>
<polygon fill="#63b8ff" stroke="#63b8ff" points="641.05,-85.29 651.34,-82.76 641.72,-78.32 641.05,-85.29"/>
</a>
</g>
</g>
<!-- Node16 -->
<g id="Node000016" class="node">
<title>Node16</title>
<g id="a_Node000016"><a xlink:href="../../d8/d7f/classSharedSpiCard_ac6acfca5a23337977d2e4436ab8ab39a.xhtml#ac6acfca5a23337977d2e4436ab8ab39a" target="_top" xlink:title=" ">
<polygon fill="white" stroke="#666666" points="798,-24.5 637,-24.5 637,-5.5 798,-5.5 798,-24.5"/>
<text text-anchor="middle" x="717.5" y="-12.5" font-family="Helvetica,sans-Serif" font-size="10.00">SharedSpiCard::spiDeactivate</text>
</a>
</g>
</g>
<!-- Node15&#45;&gt;Node16 -->
<g id="edge15_Node000015_Node000016" class="edge">
<title>Node15&#45;&gt;Node16</title>
<g id="a_edge15_Node000015_Node000016"><a xlink:title=" ">
<path fill="none" stroke="#63b8ff" d="M553.23,-61.43C575.06,-53.2 607.84,-41.38 637,-33 644.46,-30.86 652.37,-28.81 660.2,-26.91"/>
<polygon fill="#63b8ff" stroke="#63b8ff" points="661.1,-30.29 670.03,-24.58 659.49,-23.48 661.1,-30.29"/>
</a>
</g>
</g>
<!-- Node18 -->
<g id="Node000018" class="node">
<title>Node18</title>
<g id="a_Node000018"><a xlink:href="../../d8/d7f/classSharedSpiCard_ad06a3278372300987b97876cf598c114.xhtml#ad06a3278372300987b97876cf598c114" target="_top" xlink:title=" ">
<polygon fill="white" stroke="#666666" points="793,-61.5 642,-61.5 642,-42.5 793,-42.5 793,-61.5"/>
<text text-anchor="middle" x="717.5" y="-49.5" font-family="Helvetica,sans-Serif" font-size="10.00">SharedSpiCard::spiUnselect</text>
</a>
</g>
</g>
<!-- Node15&#45;&gt;Node18 -->
<g id="edge18_Node000015_Node000018" class="edge">
<title>Node15&#45;&gt;Node18</title>
<g id="a_edge18_Node000015_Node000018"><a xlink:title=" ">
<path fill="none" stroke="#63b8ff" d="M592.67,-64.51C605.3,-63.24 618.73,-61.88 631.92,-60.55"/>
<polygon fill="#63b8ff" stroke="#63b8ff" points="632.33,-64.02 641.93,-59.54 631.63,-57.06 632.33,-64.02"/>
</a>
</g>
</g>
<!-- Node17 -->
<g id="Node000017" class="node">
<title>Node17</title>
<g id="a_Node000017"><a xlink:href="../../d0/d25/classSdSpiArduinoDriver_ae88a255f533e3acb41d1221025a69b55.xhtml#ae88a255f533e3acb41d1221025a69b55" target="_top" xlink:title=" ">
<polygon fill="white" stroke="#666666" points="945,-30 834,-30 834,0 945,0 945,-30"/>
<text text-anchor="start" x="842" y="-18" font-family="Helvetica,sans-Serif" font-size="10.00">SdSpiArduinoDriver</text>
<text text-anchor="middle" x="889.5" y="-7" font-family="Helvetica,sans-Serif" font-size="10.00">::deactivate</text>
</a>
</g>
</g>
<!-- Node16&#45;&gt;Node17 -->
<g id="edge16_Node000016_Node000017" class="edge">
<title>Node16&#45;&gt;Node17</title>
<g id="a_edge16_Node000016_Node000017"><a xlink:title=" ">
<path fill="none" stroke="#63b8ff" d="M798.02,-15C806.63,-15 815.3,-15 823.7,-15"/>
<polygon fill="#63b8ff" stroke="#63b8ff" points="823.78,-18.5 833.78,-15 823.78,-11.5 823.78,-18.5"/>
</a>
</g>
</g>
<!-- Node18&#45;&gt;Node10 -->
<g id="edge19_Node000018_Node000010" class="edge">
<title>Node18&#45;&gt;Node10</title>
<g id="a_edge19_Node000018_Node000010"><a xlink:title=" ">
<path fill="none" stroke="#63b8ff" d="M774.56,-61.59C782.68,-64.05 790.73,-67.14 798,-71 817.17,-81.18 815.37,-92.86 834,-104 838.09,-106.44 842.53,-108.63 847.06,-110.58"/>
<polygon fill="#63b8ff" stroke="#63b8ff" points="845.81,-113.85 856.4,-114.24 848.36,-107.33 845.81,-113.85"/>
</a>
</g>
</g>
</g>
</svg>

<g id="navigator" transform="translate(0 0)" fill="#404254">
  <rect fill="#f2f5e9" fill-opacity="0.5" stroke="#606060" stroke-width=".5" x="0" y="0" width="60" height="60"/>
  <use id="zoomplus" xlink:href="#zoomPlus" x="17" y="9" onmousedown="handleZoom(evt,'in')"/>
  <use id="zoomminus" xlink:href="#zoomMin" x="42" y="9" onmousedown="handleZoom(evt,'out')"/>
  <use id="reset" xlink:href="#resetDef" x="30" y="36" onmousedown="handleReset()"/>
   <use id="arrowup" xlink:href="#arrowUp" x="0" y="0" onmousedown="handlePan(0,-1)"/>
  <use id="arrowright" xlink:href="#arrowRight" x="0" y="0" onmousedown="handlePan(1,0)"/>
  <use id="arrowdown" xlink:href="#arrowDown" x="0" y="0" onmousedown="handlePan(0,1)"/>
  <use id="arrowleft" xlink:href="#arrowLeft" x="0" y="0" onmousedown="handlePan(-1,0)"/>
</g>
<svg viewBox="0 0 15 15" width="100%" height="30px" preserveAspectRatio="xMaxYMin meet">
 <g id="arrow_out" transform="scale(0.3 0.3)">
  <a xlink:href="classExFatFile_a0c5ea621d75dc1a3d32296b5dee1e295_a0c5ea621d75dc1a3d32296b5dee1e295_cgraph_org.svg" target="_base">
   <rect id="button" ry="5" rx="5" y="6" x="6" height="38" width="38"
        fill="#f2f5e9" fill-opacity="0.5" stroke="#606060" stroke-width="1.0"/>
   <path id="arrow"
     d="M 11.500037,31.436501 C 11.940474,20.09759 22.043105,11.32322 32.158766,21.979434 L 37.068811,17.246167 C 37.068811,17.246167 37.088388,32 37.088388,32 L 22.160133,31.978069 C 22.160133,31.978069 26.997745,27.140456 26.997745,27.140456 C 18.528582,18.264221 13.291696,25.230495 11.500037,31.436501 z"
     style="fill:#404040;"/>
  </a>
 </g>
</svg>

<style type='text/css'>
<![CDATA[
[data-mouse-over-selected='false'] { opacity: 0.7; }
[data-mouse-over-selected='true']  { opacity: 1.0; }
]]>
</style>
<script type="application/ecmascript"><![CDATA[
document.addEventListener('DOMContentLoaded', (event) => {
  highlightEdges();
  highlightAdjacentNodes();
});
]]></script>
</svg>
