<?xml version="1.0" encoding="UTF-8" standalone="no"?>
<!DOCTYPE svg PUBLIC "-//W3C//DTD SVG 1.1//EN"
 "http://www.w3.org/Graphics/SVG/1.1/DTD/svg11.dtd">
<!-- Generated by graphviz version 2.43.0 (0)
 -->
<!-- Title: ExFatFile::dirIndex Pages: 1 -->
<svg width="265pt" height="64pt"
 viewBox="0.00 0.00 265.00 64.00" xmlns="http://www.w3.org/2000/svg" xmlns:xlink="http://www.w3.org/1999/xlink">
<g id="graph0" class="graph" transform="scale(1 1) rotate(0) translate(4 60)">
<title>ExFatFile::dirIndex</title>
<!-- Node1 -->
<g id="Node000001" class="node">
<title>Node1</title>
<g id="a_Node000001"><a xlink:title=" ">
<polygon fill="#999999" stroke="#666666" points="257,-37 151,-37 151,-18 257,-18 257,-37"/>
<text text-anchor="middle" x="204" y="-25" font-family="Helvetica,sans-Serif" font-size="10.00">ExFatFile::dirIndex</text>
</a>
</g>
</g>
<!-- Node2 -->
<g id="Node000002" class="node">
<title>Node2</title>
<g id="a_Node000002"><a xlink:href="../../d0/db5/classFsBaseFile.xhtml#a41626a85a4665db2400ee6e251c66afd" target="_top" xlink:title=" ">
<polygon fill="white" stroke="#666666" points="115,-56 0,-56 0,-37 115,-37 115,-56"/>
<text text-anchor="middle" x="57.5" y="-44" font-family="Helvetica,sans-Serif" font-size="10.00">FsBaseFile::dirIndex</text>
</a>
</g>
</g>
<!-- Node1&#45;&gt;Node2 -->
<g id="edge1_Node000001_Node000002" class="edge">
<title>Node1&#45;&gt;Node2</title>
<g id="a_edge1_Node000001_Node000002"><a xlink:title=" ">
<path fill="none" stroke="#63b8ff" d="M140.72,-35.69C132.34,-36.79 123.77,-37.92 115.48,-39.01"/>
<polygon fill="#63b8ff" stroke="#63b8ff" points="141.37,-39.13 150.83,-34.36 140.46,-32.19 141.37,-39.13"/>
</a>
</g>
</g>
<!-- Node3 -->
<g id="Node000003" class="node">
<title>Node3</title>
<g id="a_Node000003"><a xlink:href="../../d6/d7f/classExFatFile.xhtml#ac8d298034dbed4358bf29a862d1913e7" target="_top" xlink:title=" ">
<polygon fill="white" stroke="#666666" points="102.5,-19 12.5,-19 12.5,0 102.5,0 102.5,-19"/>
<text text-anchor="middle" x="57.5" y="-7" font-family="Helvetica,sans-Serif" font-size="10.00">ExFatFile::open</text>
</a>
</g>
</g>
<!-- Node1&#45;&gt;Node3 -->
<g id="edge2_Node000001_Node000003" class="edge">
<title>Node1&#45;&gt;Node3</title>
<g id="a_edge2_Node000001_Node000003"><a xlink:title=" ">
<path fill="none" stroke="#63b8ff" d="M140.76,-19.75C128.04,-18.16 114.9,-16.53 102.96,-15.04"/>
<polygon fill="#63b8ff" stroke="#63b8ff" points="140.48,-23.24 150.83,-21 141.34,-16.29 140.48,-23.24"/>
</a>
</g>
</g>
</g>
</svg>
