<?xml version="1.0" encoding="UTF-8" standalone="no"?>
<!DOCTYPE svg PUBLIC "-//W3C//DTD SVG 1.1//EN"
 "http://www.w3.org/Graphics/SVG/1.1/DTD/svg11.dtd">
<!-- Generated by graphviz version 2.43.0 (0)
 -->
<!-- Title: ExFatFile::volume Pages: 1 -->
<!--zoomable 993 -->

<svg id="main" version="1.1" xmlns="http://www.w3.org/2000/svg" xmlns:xlink="http://www.w3.org/1999/xlink" xml:space="preserve" onload="init(evt)">
<style type="text/css"><![CDATA[
.node, .edge {opacity: 0.7;}
.node.selected, .edge.selected {opacity: 1;}
.edge:hover path { stroke: red; }
.edge:hover polygon { stroke: red; fill: red; }
]]></style>

<defs>
  <circle id="rim" cx="0" cy="0" r="7"/>
  <circle id="rim2" cx="0" cy="0" r="3.5"/>
  <g id="zoomPlus">
    <use xlink:href="#rim" fill="#404040"><set attributeName="fill" to="#808080" begin="zoomplus.mouseover" end="zoomplus.mouseout"/></use>
    <path d="M-4,0h8M0,-4v8" fill="none" stroke="white" stroke-width="1.5" pointer-events="none"/>
  </g>
  <g id="zoomMin">
    <use xlink:href="#rim" fill="#404040"><set attributeName="fill" to="#808080" begin="zoomminus.mouseover" end="zoomminus.mouseout"/></use>
    <path d="M-4,0h8" fill="none" stroke="white" stroke-width="1.5" pointer-events="none"/>
  </g>
  <g id="arrowUp" transform="translate(30 24)">
    <use xlink:href="#rim"/>
    <path pointer-events="none" fill="none" stroke="white" stroke-width="1.5" d="M0,-3.0v7 M-2.5,-0.5L0,-3.0L2.5,-0.5"/>
  </g>
  <g id="arrowRight" transform="rotate(90) translate(36 -43)">
    <use xlink:href="#rim"/>
    <path pointer-events="none" fill="none" stroke="white" stroke-width="1.5" d="M0,-3.0v7 M-2.5,-0.5L0,-3.0L2.5,-0.5"/>
  </g>
  <g id="arrowDown" transform="rotate(180) translate(-30 -48)">
    <use xlink:href="#rim"/>
    <path pointer-events="none" fill="none" stroke="white" stroke-width="1.5" d="M0,-3.0v7 M-2.5,-0.5L0,-3.0L2.5,-0.5"/>
  </g>
  <g id="arrowLeft" transform="rotate(270) translate(-36 17)">
    <use xlink:href="#rim"/>
    <path pointer-events="none" fill="none" stroke="white" stroke-width="1.5" d="M0,-3.0v7 M-2.5,-0.5L0,-3.0L2.5,-0.5"/>
  </g>
  <g id="resetDef">
    <use xlink:href="#rim2" fill="#404040"><set attributeName="fill" to="#808080" begin="reset.mouseover" end="reset.mouseout"/></use>
  </g>
</defs>
<script type="application/ecmascript">
var viewWidth = 878;
var viewHeight = 993;
var sectionId = 'dynsection-139';
</script>
<script type="application/ecmascript" xlink:href="../../svg.min.js"/>
<svg id="graph" class="graph">
<g id="viewport">
<title>ExFatFile::volume</title>
<!-- Node1 -->
<g id="Node000001" class="node">
<title>Node1</title>
<g id="a_Node000001"><a xlink:title=" ">
<polygon fill="#999999" stroke="#666666" points="870,-854 767,-854 767,-835 870,-835 870,-854"/>
<text text-anchor="middle" x="818.5" y="-842" font-family="Helvetica,sans-Serif" font-size="10.00">ExFatFile::volume</text>
</a>
</g>
</g>
<!-- Node2 -->
<g id="Node000002" class="node">
<title>Node2</title>
<g id="a_Node000002"><a xlink:href="../../d6/d7f/classExFatFile.xhtml#a531de6eac70b708a3fefd96e25506016" target="_top" xlink:title=" ">
<polygon fill="white" stroke="#666666" points="731,-854 606,-854 606,-835 731,-835 731,-854"/>
<text text-anchor="middle" x="668.5" y="-842" font-family="Helvetica,sans-Serif" font-size="10.00">ExFatFile::openPrivate</text>
</a>
</g>
</g>
<!-- Node1&#45;&gt;Node2 -->
<g id="edge1_Node000001_Node000002" class="edge">
<title>Node1&#45;&gt;Node2</title>
<g id="a_edge1_Node000001_Node000002"><a xlink:title=" ">
<path fill="none" stroke="#63b8ff" d="M756.78,-844.5C748.29,-844.5 739.56,-844.5 731.05,-844.5"/>
<polygon fill="#63b8ff" stroke="#63b8ff" points="756.98,-848 766.98,-844.5 756.98,-841 756.98,-848"/>
</a>
</g>
</g>
<!-- Node3 -->
<g id="Node000003" class="node">
<title>Node3</title>
<g id="a_Node000003"><a xlink:href="../../d6/d7f/classExFatFile.xhtml#ad9ca8c5ba1de8965e65b9f25f31baeff" target="_top" xlink:title=" ">
<polygon fill="white" stroke="#666666" points="561,-948 466,-948 466,-929 561,-929 561,-948"/>
<text text-anchor="middle" x="513.5" y="-936" font-family="Helvetica,sans-Serif" font-size="10.00">ExFatFile::mkdir</text>
</a>
</g>
</g>
<!-- Node2&#45;&gt;Node3 -->
<g id="edge2_Node000002_Node000003" class="edge">
<title>Node2&#45;&gt;Node3</title>
<g id="a_edge2_Node000002_Node000003"><a xlink:title=" ">
<path fill="none" stroke="#63b8ff" d="M643.31,-859.36C611.57,-878.86 556.77,-912.53 530.05,-928.94"/>
<polygon fill="#63b8ff" stroke="#63b8ff" points="645.3,-862.25 651.99,-854.03 641.63,-856.28 645.3,-862.25"/>
</a>
</g>
</g>
<!-- Node7 -->
<g id="Node000007" class="node">
<title>Node7</title>
<g id="a_Node000007"><a xlink:href="../../d6/d7f/classExFatFile.xhtml#aa6b349f3c48566b9a43cdbcd5912a1ec" target="_top" xlink:title=" ">
<polygon fill="white" stroke="#666666" points="561,-873 466,-873 466,-854 561,-854 561,-873"/>
<text text-anchor="middle" x="513.5" y="-861" font-family="Helvetica,sans-Serif" font-size="10.00">ExFatFile::mkdir</text>
</a>
</g>
</g>
<!-- Node2&#45;&gt;Node7 -->
<g id="edge7_Node000002_Node000007" class="edge">
<title>Node2&#45;&gt;Node7</title>
<g id="a_edge7_Node000002_Node000007"><a xlink:title=" ">
<path fill="none" stroke="#63b8ff" d="M595.59,-853.43C583.99,-854.87 572.26,-856.33 561.46,-857.67"/>
<polygon fill="#63b8ff" stroke="#63b8ff" points="596.22,-856.88 605.71,-852.17 595.35,-849.93 596.22,-856.88"/>
</a>
</g>
</g>
<!-- Node8 -->
<g id="Node000008" class="node">
<title>Node8</title>
<g id="a_Node000008"><a xlink:href="../../d6/d7f/classExFatFile.xhtml#a5b115247c8e1a8cd643412f4d548e673" target="_top" xlink:title=" ">
<polygon fill="white" stroke="#666666" points="558.5,-389 468.5,-389 468.5,-370 558.5,-370 558.5,-389"/>
<text text-anchor="middle" x="513.5" y="-377" font-family="Helvetica,sans-Serif" font-size="10.00">ExFatFile::open</text>
</a>
</g>
</g>
<!-- Node2&#45;&gt;Node8 -->
<g id="edge8_Node000002_Node000008" class="edge">
<title>Node2&#45;&gt;Node8</title>
<g id="a_edge8_Node000002_Node000008"><a xlink:title=" ">
<path fill="none" stroke="#63b8ff" d="M661.11,-825.08C634.97,-745.63 536.65,-446.81 517.68,-389.16"/>
<polygon fill="#63b8ff" stroke="#63b8ff" points="657.85,-826.38 664.3,-834.79 664.5,-824.19 657.85,-826.38"/>
</a>
</g>
</g>
<!-- Node39 -->
<g id="Node000039" class="node">
<title>Node39</title>
<g id="a_Node000039"><a xlink:href="../../d6/d7f/classExFatFile.xhtml#a3ea80d4e3dd4340c2d282097ad12c249" target="_top" xlink:title=" ">
<polygon fill="white" stroke="#666666" points="570,-836 457,-836 457,-817 570,-817 570,-836"/>
<text text-anchor="middle" x="513.5" y="-824" font-family="Helvetica,sans-Serif" font-size="10.00">ExFatFile::openNext</text>
</a>
</g>
</g>
<!-- Node2&#45;&gt;Node39 -->
<g id="edge39_Node000002_Node000039" class="edge">
<title>Node2&#45;&gt;Node39</title>
<g id="a_edge39_Node000002_Node000039"><a xlink:title=" ">
<path fill="none" stroke="#63b8ff" d="M595.68,-836.05C587.09,-835.04 578.42,-834.02 570.1,-833.04"/>
<polygon fill="#63b8ff" stroke="#63b8ff" points="595.37,-839.54 605.71,-837.23 596.19,-832.59 595.37,-839.54"/>
</a>
</g>
</g>
<!-- Node3&#45;&gt;Node3 -->
<g id="edge5_Node000003_Node000003" class="edge">
<title>Node3&#45;&gt;Node3</title>
<g id="a_edge5_Node000003_Node000003"><a xlink:title=" ">
<path fill="none" stroke="#63b8ff" d="M542.25,-956.82C541.04,-962.01 531.46,-966 513.5,-966 486.13,-966 478.22,-956.73 489.76,-948.08"/>
<polygon fill="#63b8ff" stroke="#63b8ff" points="545.25,-955.02 537.24,-948.08 539.17,-958.5 545.25,-955.02"/>
</a>
</g>
</g>
<!-- Node4 -->
<g id="Node000004" class="node">
<title>Node4</title>
<g id="a_Node000004"><a xlink:href="../../d9/dce/classExFatVolume.xhtml#abb00cfff7943fe637a99b292798865e0" target="_top" xlink:title=" ">
<polygon fill="white" stroke="#666666" points="415,-948 301,-948 301,-929 415,-929 415,-948"/>
<text text-anchor="middle" x="358" y="-936" font-family="Helvetica,sans-Serif" font-size="10.00">ExFatVolume::mkdir</text>
</a>
</g>
</g>
<!-- Node3&#45;&gt;Node4 -->
<g id="edge3_Node000003_Node000004" class="edge">
<title>Node3&#45;&gt;Node4</title>
<g id="a_edge3_Node000003_Node000004"><a xlink:title=" ">
<path fill="none" stroke="#63b8ff" d="M455.27,-938.5C442.12,-938.5 428.15,-938.5 415.05,-938.5"/>
<polygon fill="#63b8ff" stroke="#63b8ff" points="455.61,-942 465.61,-938.5 455.61,-935 455.61,-942"/>
</a>
</g>
</g>
<!-- Node6 -->
<g id="Node000006" class="node">
<title>Node6</title>
<g id="a_Node000006"><a xlink:href="../../d0/db5/classFsBaseFile.xhtml#a8b7aa7f2c63882e483336dfe12ef6800" target="_top" xlink:title=" ">
<polygon fill="white" stroke="#666666" points="410,-985 306,-985 306,-966 410,-966 410,-985"/>
<text text-anchor="middle" x="358" y="-973" font-family="Helvetica,sans-Serif" font-size="10.00">FsBaseFile::mkdir</text>
</a>
</g>
</g>
<!-- Node3&#45;&gt;Node6 -->
<g id="edge6_Node000003_Node000006" class="edge">
<title>Node3&#45;&gt;Node6</title>
<g id="a_edge6_Node000003_Node000006"><a xlink:title=" ">
<path fill="none" stroke="#63b8ff" d="M463.03,-950.43C442.2,-955.44 418.3,-961.21 398.66,-965.94"/>
<polygon fill="#63b8ff" stroke="#63b8ff" points="464.07,-953.77 472.97,-948.03 462.43,-946.97 464.07,-953.77"/>
</a>
</g>
</g>
<!-- Node5 -->
<g id="Node000005" class="node">
<title>Node5</title>
<g id="a_Node000005"><a xlink:href="../../d9/dce/classExFatVolume.xhtml#a0f4cf7e2853225380574724314327597" target="_top" xlink:title=" ">
<polygon fill="white" stroke="#666666" points="252,-948 138,-948 138,-929 252,-929 252,-948"/>
<text text-anchor="middle" x="195" y="-936" font-family="Helvetica,sans-Serif" font-size="10.00">ExFatVolume::mkdir</text>
</a>
</g>
</g>
<!-- Node4&#45;&gt;Node5 -->
<g id="edge4_Node000004_Node000005" class="edge">
<title>Node4&#45;&gt;Node5</title>
<g id="a_edge4_Node000004_Node000005"><a xlink:title=" ">
<path fill="none" stroke="#63b8ff" d="M290.55,-938.5C277.74,-938.5 264.44,-938.5 252.01,-938.5"/>
<polygon fill="#63b8ff" stroke="#63b8ff" points="290.69,-942 300.69,-938.5 290.69,-935 290.69,-942"/>
</a>
</g>
</g>
<!-- Node9 -->
<g id="Node000009" class="node">
<title>Node9</title>
<g id="a_Node000009"><a xlink:href="../../d9/dce/classExFatVolume.xhtml#a4b089dc93a25d9d87d8dc3fc42a139d5" target="_top" xlink:title=" ">
<polygon fill="white" stroke="#666666" points="414,-500 302,-500 302,-481 414,-481 414,-500"/>
<text text-anchor="middle" x="358" y="-488" font-family="Helvetica,sans-Serif" font-size="10.00">ExFatVolume::attrib</text>
</a>
</g>
</g>
<!-- Node8&#45;&gt;Node9 -->
<g id="edge9_Node000008_Node000009" class="edge">
<title>Node8&#45;&gt;Node9</title>
<g id="a_edge9_Node000008_Node000009"><a xlink:title=" ">
<path fill="none" stroke="#63b8ff" d="M499.58,-397.35C483.48,-418.33 454.02,-452.8 421,-472.5 415.32,-475.89 408.97,-478.67 402.55,-480.95"/>
<polygon fill="#63b8ff" stroke="#63b8ff" points="502.45,-399.36 505.64,-389.26 496.84,-395.17 502.45,-399.36"/>
</a>
</g>
</g>
<!-- Node12 -->
<g id="Node000012" class="node">
<title>Node12</title>
<g id="a_Node000012"><a xlink:href="../../d9/dce/classExFatVolume.xhtml#ae79fbebf59d900b845ade864d9d3c4dd" target="_top" xlink:title=" ">
<polygon fill="white" stroke="#666666" points="414,-611 302,-611 302,-592 414,-592 414,-611"/>
<text text-anchor="middle" x="358" y="-599" font-family="Helvetica,sans-Serif" font-size="10.00">ExFatVolume::attrib</text>
</a>
</g>
</g>
<!-- Node8&#45;&gt;Node12 -->
<g id="edge12_Node000008_Node000012" class="edge">
<title>Node8&#45;&gt;Node12</title>
<g id="a_edge12_Node000008_Node000012"><a xlink:title=" ">
<path fill="none" stroke="#63b8ff" d="M509.3,-399.31C501.67,-440.02 478.56,-533.44 421,-583.5 417.11,-586.88 412.62,-589.63 407.86,-591.87"/>
<polygon fill="#63b8ff" stroke="#63b8ff" points="512.77,-399.76 511.06,-389.31 505.88,-398.55 512.77,-399.76"/>
</a>
</g>
</g>
<!-- Node13 -->
<g id="Node000013" class="node">
<title>Node13</title>
<g id="a_Node000013"><a xlink:href="../../d9/dce/classExFatVolume.xhtml#a0f9c04da8382686190df76ff957e9a19" target="_top" xlink:title=" ">
<polygon fill="white" stroke="#666666" points="413,-574 303,-574 303,-555 413,-555 413,-574"/>
<text text-anchor="middle" x="358" y="-562" font-family="Helvetica,sans-Serif" font-size="10.00">ExFatVolume::chdir</text>
</a>
</g>
</g>
<!-- Node8&#45;&gt;Node13 -->
<g id="edge13_Node000008_Node000013" class="edge">
<title>Node8&#45;&gt;Node13</title>
<g id="a_edge13_Node000008_Node000013"><a xlink:title=" ">
<path fill="none" stroke="#63b8ff" d="M507.23,-399.02C496.78,-433.94 470.1,-507.11 421,-546.5 416.72,-549.94 411.8,-552.72 406.65,-554.97"/>
<polygon fill="#63b8ff" stroke="#63b8ff" points="510.67,-399.7 510.06,-389.12 503.94,-397.77 510.67,-399.7"/>
</a>
</g>
</g>
<!-- Node14 -->
<g id="Node000014" class="node">
<title>Node14</title>
<g id="a_Node000014"><a xlink:href="../../d6/d7f/classExFatFile.xhtml#ab1be7938b64f74a51581f4839fefed4b" target="_top" xlink:title=" ">
<polygon fill="white" stroke="#666666" points="413,-537 303,-537 303,-518 413,-518 413,-537"/>
<text text-anchor="middle" x="358" y="-525" font-family="Helvetica,sans-Serif" font-size="10.00">ExFatFile::ExFatFile</text>
</a>
</g>
</g>
<!-- Node8&#45;&gt;Node14 -->
<g id="edge14_Node000008_Node000014" class="edge">
<title>Node8&#45;&gt;Node14</title>
<g id="a_edge14_Node000008_Node000014"><a xlink:title=" ">
<path fill="none" stroke="#63b8ff" d="M504.36,-398.22C491.07,-426.58 462.01,-480.22 421,-509.5 416.26,-512.89 410.88,-515.64 405.33,-517.88"/>
<polygon fill="#63b8ff" stroke="#63b8ff" points="507.59,-399.56 508.54,-389.01 501.22,-396.67 507.59,-399.56"/>
</a>
</g>
</g>
<!-- Node15 -->
<g id="Node000015" class="node">
<title>Node15</title>
<g id="a_Node000015"><a xlink:href="../../d6/d7f/classExFatFile.xhtml#a32df2d7ac56a76a647cedf4192ac9abe" target="_top" xlink:title=" ">
<polygon fill="white" stroke="#666666" points="405.5,-426 310.5,-426 310.5,-407 405.5,-407 405.5,-426"/>
<text text-anchor="middle" x="358" y="-414" font-family="Helvetica,sans-Serif" font-size="10.00">ExFatFile::exists</text>
</a>
</g>
</g>
<!-- Node8&#45;&gt;Node15 -->
<g id="edge15_Node000008_Node000015" class="edge">
<title>Node8&#45;&gt;Node15</title>
<g id="a_edge15_Node000008_Node000015"><a xlink:title=" ">
<path fill="none" stroke="#63b8ff" d="M463.03,-391.43C442.2,-396.44 418.3,-402.21 398.66,-406.94"/>
<polygon fill="#63b8ff" stroke="#63b8ff" points="464.07,-394.77 472.97,-389.03 462.43,-387.97 464.07,-394.77"/>
</a>
</g>
</g>
<!-- Node17 -->
<g id="Node000017" class="node">
<title>Node17</title>
<g id="a_Node000017"><a xlink:href="../../d9/dce/classExFatVolume.xhtml#a5e2e029b02d3c98bc0b8fcbdab566af6" target="_top" xlink:title=" ">
<polygon fill="white" stroke="#666666" points="415.5,-463 300.5,-463 300.5,-444 415.5,-444 415.5,-463"/>
<text text-anchor="middle" x="358" y="-451" font-family="Helvetica,sans-Serif" font-size="10.00">ExFatVolume::exists</text>
</a>
</g>
</g>
<!-- Node8&#45;&gt;Node17 -->
<g id="edge17_Node000008_Node000017" class="edge">
<title>Node8&#45;&gt;Node17</title>
<g id="a_edge17_Node000008_Node000017"><a xlink:title=" ">
<path fill="none" stroke="#63b8ff" d="M490.91,-395C472.92,-407.35 446.24,-424.35 421,-435.5 413.72,-438.71 405.71,-441.53 397.93,-443.92"/>
<polygon fill="#63b8ff" stroke="#63b8ff" points="493.28,-397.62 499.47,-389.03 489.27,-391.88 493.28,-397.62"/>
</a>
</g>
</g>
<!-- Node18 -->
<g id="Node000018" class="node">
<title>Node18</title>
<g id="a_Node000018"><a xlink:href="../../d9/dce/classExFatVolume.xhtml#a2e44d5d26a25d610c4b0d97fa5b1f505" target="_top" xlink:title=" ">
<polygon fill="white" stroke="#666666" points="242,-705 148,-705 148,-686 242,-686 242,-705"/>
<text text-anchor="middle" x="195" y="-693" font-family="Helvetica,sans-Serif" font-size="10.00">ExFatVolume::ls</text>
</a>
</g>
</g>
<!-- Node8&#45;&gt;Node18 -->
<g id="edge18_Node000008_Node000018" class="edge">
<title>Node8&#45;&gt;Node18</title>
<g id="a_edge18_Node000008_Node000018"><a xlink:title=" ">
<path fill="none" stroke="#63b8ff" d="M510.72,-399.59C505.58,-445.5 486.56,-558.93 421,-620.5 378.27,-660.63 350.56,-640.81 295,-659.5 269.69,-668.01 241.05,-678.52 221.11,-685.99"/>
<polygon fill="#63b8ff" stroke="#63b8ff" points="514.22,-399.74 511.75,-389.44 507.26,-399.03 514.22,-399.74"/>
</a>
</g>
</g>
<!-- Node19 -->
<g id="Node000019" class="node">
<title>Node19</title>
<g id="a_Node000019"><a xlink:href="../../d6/d7f/classExFatFile.xhtml#aaf738b1f00b8ae1664020f238c1a9a48" target="_top" xlink:title=" ">
<polygon fill="white" stroke="#666666" points="403,-204 313,-204 313,-185 403,-185 403,-204"/>
<text text-anchor="middle" x="358" y="-192" font-family="Helvetica,sans-Serif" font-size="10.00">ExFatFile::open</text>
</a>
</g>
</g>
<!-- Node8&#45;&gt;Node19 -->
<g id="edge19_Node000008_Node000019" class="edge">
<title>Node8&#45;&gt;Node19</title>
<g id="a_edge19_Node000008_Node000019"><a xlink:title=" ">
<path fill="none" stroke="#63b8ff" d="M507.23,-359.98C496.78,-325.06 470.1,-251.89 421,-212.5 415.75,-208.29 409.56,-205.07 403.15,-202.6"/>
<polygon fill="#63b8ff" stroke="#63b8ff" points="503.94,-361.23 510.06,-369.88 510.67,-359.3 503.94,-361.23"/>
</a>
</g>
</g>
<!-- Node20 -->
<g id="Node000020" class="node">
<title>Node20</title>
<g id="a_Node000020"><a xlink:href="../../d9/dce/classExFatVolume.xhtml#ae5d8f37ac6505471ef78fb4db518fb8b" target="_top" xlink:title=" ">
<polygon fill="white" stroke="#666666" points="413,-167 303,-167 303,-148 413,-148 413,-167"/>
<text text-anchor="middle" x="358" y="-155" font-family="Helvetica,sans-Serif" font-size="10.00">ExFatVolume::open</text>
</a>
</g>
</g>
<!-- Node8&#45;&gt;Node20 -->
<g id="edge20_Node000008_Node000020" class="edge">
<title>Node8&#45;&gt;Node20</title>
<g id="a_edge20_Node000008_Node000020"><a xlink:title=" ">
<path fill="none" stroke="#63b8ff" d="M509.3,-359.69C501.67,-318.98 478.56,-225.56 421,-175.5 417.11,-172.12 412.62,-169.37 407.86,-167.13"/>
<polygon fill="#63b8ff" stroke="#63b8ff" points="505.88,-360.45 511.06,-369.69 512.77,-359.24 505.88,-360.45"/>
</a>
</g>
</g>
<!-- Node22 -->
<g id="Node000022" class="node">
<title>Node22</title>
<g id="a_Node000022"><a xlink:href="../../d6/d7f/classExFatFile.xhtml#aaa69f5263c70b1945fbbb672cfdf5d15" target="_top" xlink:title=" ">
<polygon fill="white" stroke="#666666" points="403,-130 313,-130 313,-111 403,-111 403,-130"/>
<text text-anchor="middle" x="358" y="-118" font-family="Helvetica,sans-Serif" font-size="10.00">ExFatFile::open</text>
</a>
</g>
</g>
<!-- Node8&#45;&gt;Node22 -->
<g id="edge22_Node000008_Node000022" class="edge">
<title>Node8&#45;&gt;Node22</title>
<g id="a_edge22_Node000008_Node000022"><a xlink:title=" ">
<path fill="none" stroke="#63b8ff" d="M510.8,-359.33C505.81,-313.25 487.1,-199.49 421,-138.5 415.89,-133.79 409.62,-130.3 403.05,-127.72"/>
<polygon fill="#63b8ff" stroke="#63b8ff" points="507.34,-359.91 511.79,-369.52 514.3,-359.23 507.34,-359.91"/>
</a>
</g>
</g>
<!-- Node23 -->
<g id="Node000023" class="node">
<title>Node23</title>
<g id="a_Node000023"><a xlink:href="../../d0/db5/classFsBaseFile.xhtml#aa767859d4a4b4716ebbc4ea42a6d74df" target="_top" xlink:title=" ">
<polygon fill="white" stroke="#666666" points="407.5,-93 308.5,-93 308.5,-74 407.5,-74 407.5,-93"/>
<text text-anchor="middle" x="358" y="-81" font-family="Helvetica,sans-Serif" font-size="10.00">FsBaseFile::open</text>
</a>
</g>
</g>
<!-- Node8&#45;&gt;Node23 -->
<g id="edge23_Node000008_Node000023" class="edge">
<title>Node8&#45;&gt;Node23</title>
<g id="a_edge23_Node000008_Node000023"><a xlink:title=" ">
<path fill="none" stroke="#63b8ff" d="M511.99,-359.77C509.6,-309.24 496.13,-174.01 421,-101.5 417.13,-97.76 412.53,-94.8 407.61,-92.44"/>
<polygon fill="#63b8ff" stroke="#63b8ff" points="508.5,-360.11 512.37,-369.97 515.5,-359.85 508.5,-360.11"/>
</a>
</g>
</g>
<!-- Node28 -->
<g id="Node000028" class="node">
<title>Node28</title>
<g id="a_Node000028"><a xlink:href="../../d0/db5/classFsBaseFile.xhtml#a4743d118f085f6a13692d12bdd3c4556" target="_top" xlink:title=" ">
<polygon fill="white" stroke="#666666" points="407.5,-56 308.5,-56 308.5,-37 407.5,-37 407.5,-56"/>
<text text-anchor="middle" x="358" y="-44" font-family="Helvetica,sans-Serif" font-size="10.00">FsBaseFile::open</text>
</a>
</g>
</g>
<!-- Node8&#45;&gt;Node28 -->
<g id="edge28_Node000008_Node000028" class="edge">
<title>Node8&#45;&gt;Node28</title>
<g id="a_edge28_Node000008_Node000028"><a xlink:title=" ">
<path fill="none" stroke="#63b8ff" d="M512.89,-359.79C512.87,-304.84 505.03,-148.52 421,-64.5 417.2,-60.7 412.64,-57.69 407.74,-55.31"/>
<polygon fill="#63b8ff" stroke="#63b8ff" points="509.39,-359.88 512.8,-369.91 516.39,-359.94 509.39,-359.88"/>
</a>
</g>
</g>
<!-- Node29 -->
<g id="Node000029" class="node">
<title>Node29</title>
<g id="a_Node000029"><a xlink:href="../../d0/db5/classFsBaseFile.xhtml#a0186e56b21fd584b02db4b763df05f64" target="_top" xlink:title=" ">
<polygon fill="white" stroke="#666666" points="407.5,-19 308.5,-19 308.5,0 407.5,0 407.5,-19"/>
<text text-anchor="middle" x="358" y="-7" font-family="Helvetica,sans-Serif" font-size="10.00">FsBaseFile::open</text>
</a>
</g>
</g>
<!-- Node8&#45;&gt;Node29 -->
<g id="edge29_Node000008_Node000029" class="edge">
<title>Node8&#45;&gt;Node29</title>
<g id="a_edge29_Node000008_Node000029"><a xlink:title=" ">
<path fill="none" stroke="#63b8ff" d="M509.98,-359.99C501,-293.38 468.54,-76.4 421,-27.5 417.17,-23.56 412.54,-20.47 407.55,-18.05"/>
<polygon fill="#63b8ff" stroke="#63b8ff" points="506.52,-360.52 511.3,-369.98 513.46,-359.6 506.52,-360.52"/>
</a>
</g>
</g>
<!-- Node30 -->
<g id="Node000030" class="node">
<title>Node30</title>
<g id="a_Node000030"><a xlink:href="../../d6/d7f/classExFatFile.xhtml#a69c6f8e9a10bcfb83e378ef73f556ab7" target="_top" xlink:title=" ">
<polygon fill="white" stroke="#666666" points="403,-724 313,-724 313,-705 403,-705 403,-724"/>
<text text-anchor="middle" x="358" y="-712" font-family="Helvetica,sans-Serif" font-size="10.00">ExFatFile::open</text>
</a>
</g>
</g>
<!-- Node8&#45;&gt;Node30 -->
<g id="edge30_Node000008_Node000030" class="edge">
<title>Node8&#45;&gt;Node30</title>
<g id="a_edge30_Node000008_Node000030"><a xlink:title=" ">
<path fill="none" stroke="#63b8ff" d="M512.93,-399.34C513.02,-454.62 505.45,-611.92 421,-696.5 416.01,-701.5 409.72,-705.12 403.08,-707.75"/>
<polygon fill="#63b8ff" stroke="#63b8ff" points="516.43,-399.11 512.82,-389.15 509.43,-399.19 516.43,-399.11"/>
</a>
</g>
</g>
<!-- Node31 -->
<g id="Node000031" class="node">
<title>Node31</title>
<g id="a_Node000031"><a xlink:href="../../d6/d7f/classExFatFile.xhtml#a145a2fa9269876bae17a44569b4625fb" target="_top" xlink:title=" ">
<polygon fill="white" stroke="#666666" points="410,-687 306,-687 306,-668 410,-668 410,-687"/>
<text text-anchor="middle" x="358" y="-675" font-family="Helvetica,sans-Serif" font-size="10.00">ExFatFile::remove</text>
</a>
</g>
</g>
<!-- Node8&#45;&gt;Node31 -->
<g id="edge31_Node000008_Node000031" class="edge">
<title>Node8&#45;&gt;Node31</title>
<g id="a_edge31_Node000008_Node000031"><a xlink:title=" ">
<path fill="none" stroke="#63b8ff" d="M511.48,-399.25C507.88,-448.71 491.82,-579.27 421,-653.5 415.02,-659.76 407.23,-664.42 399.19,-667.87"/>
<polygon fill="#63b8ff" stroke="#63b8ff" points="514.97,-399.43 512.11,-389.23 507.99,-398.99 514.97,-399.43"/>
</a>
</g>
</g>
<!-- Node32 -->
<g id="Node000032" class="node">
<title>Node32</title>
<g id="a_Node000032"><a xlink:href="../../d9/dce/classExFatVolume.xhtml#ac4d15484d30dd40ecdb4d331d29534d9" target="_top" xlink:title=" ">
<polygon fill="white" stroke="#666666" points="419.5,-389 296.5,-389 296.5,-370 419.5,-370 419.5,-389"/>
<text text-anchor="middle" x="358" y="-377" font-family="Helvetica,sans-Serif" font-size="10.00">ExFatVolume::remove</text>
</a>
</g>
</g>
<!-- Node8&#45;&gt;Node32 -->
<g id="edge32_Node000008_Node000032" class="edge">
<title>Node8&#45;&gt;Node32</title>
<g id="a_edge32_Node000008_Node000032"><a xlink:title=" ">
<path fill="none" stroke="#63b8ff" d="M457.9,-379.5C445.48,-379.5 432.22,-379.5 419.57,-379.5"/>
<polygon fill="#63b8ff" stroke="#63b8ff" points="458.1,-383 468.1,-379.5 458.1,-376 458.1,-383"/>
</a>
</g>
</g>
<!-- Node33 -->
<g id="Node000033" class="node">
<title>Node33</title>
<g id="a_Node000033"><a xlink:href="../../d9/dce/classExFatVolume.xhtml#a6a31fd969e29608509e75adbf46fcd5d" target="_top" xlink:title=" ">
<polygon fill="white" stroke="#666666" points="419.5,-352 296.5,-352 296.5,-333 419.5,-333 419.5,-352"/>
<text text-anchor="middle" x="358" y="-340" font-family="Helvetica,sans-Serif" font-size="10.00">ExFatVolume::rename</text>
</a>
</g>
</g>
<!-- Node8&#45;&gt;Node33 -->
<g id="edge33_Node000008_Node000033" class="edge">
<title>Node8&#45;&gt;Node33</title>
<g id="a_edge33_Node000008_Node000033"><a xlink:title=" ">
<path fill="none" stroke="#63b8ff" d="M463.03,-367.57C442.2,-362.56 418.3,-356.79 398.66,-352.06"/>
<polygon fill="#63b8ff" stroke="#63b8ff" points="462.43,-371.03 472.97,-369.97 464.07,-364.23 462.43,-371.03"/>
</a>
</g>
</g>
<!-- Node35 -->
<g id="Node000035" class="node">
<title>Node35</title>
<g id="a_Node000035"><a xlink:href="../../d6/d7f/classExFatFile.xhtml#a707e3a4139319fb5d4e31d591b3c5b77" target="_top" xlink:title=" ">
<polygon fill="white" stroke="#666666" points="410,-315 306,-315 306,-296 410,-296 410,-315"/>
<text text-anchor="middle" x="358" y="-303" font-family="Helvetica,sans-Serif" font-size="10.00">ExFatFile::rename</text>
</a>
</g>
</g>
<!-- Node8&#45;&gt;Node35 -->
<g id="edge35_Node000008_Node000035" class="edge">
<title>Node8&#45;&gt;Node35</title>
<g id="a_edge35_Node000008_Node000035"><a xlink:title=" ">
<path fill="none" stroke="#63b8ff" d="M490.2,-363.98C472.17,-351.96 445.8,-335.55 421,-324.5 412.98,-320.93 404.09,-317.76 395.61,-315.1"/>
<polygon fill="#63b8ff" stroke="#63b8ff" points="488.57,-367.1 498.82,-369.81 492.5,-361.31 488.57,-367.1"/>
</a>
</g>
</g>
<!-- Node36 -->
<g id="Node000036" class="node">
<title>Node36</title>
<g id="a_Node000036"><a xlink:href="../../d9/dce/classExFatVolume.xhtml#afaa44ad57398f8c293b9a35aa150ce75" target="_top" xlink:title=" ">
<polygon fill="white" stroke="#666666" points="414,-278 302,-278 302,-259 414,-259 414,-278"/>
<text text-anchor="middle" x="358" y="-266" font-family="Helvetica,sans-Serif" font-size="10.00">ExFatVolume::rmdir</text>
</a>
</g>
</g>
<!-- Node8&#45;&gt;Node36 -->
<g id="edge36_Node000008_Node000036" class="edge">
<title>Node8&#45;&gt;Node36</title>
<g id="a_edge36_Node000008_Node000036"><a xlink:title=" ">
<path fill="none" stroke="#63b8ff" d="M499.49,-361.93C483.29,-341.26 453.74,-307.25 421,-287.5 414.64,-283.66 407.43,-280.54 400.25,-278.02"/>
<polygon fill="#63b8ff" stroke="#63b8ff" points="496.73,-364.08 505.58,-369.9 502.29,-359.83 496.73,-364.08"/>
</a>
</g>
</g>
<!-- Node37 -->
<g id="Node000037" class="node">
<title>Node37</title>
<g id="a_Node000037"><a xlink:href="../../d9/dce/classExFatVolume.xhtml#a1af3c481f14ff2d390aabe6226658b01" target="_top" xlink:title=" ">
<polygon fill="white" stroke="#666666" points="421,-241 295,-241 295,-222 421,-222 421,-241"/>
<text text-anchor="middle" x="358" y="-229" font-family="Helvetica,sans-Serif" font-size="10.00">ExFatVolume::truncate</text>
</a>
</g>
</g>
<!-- Node8&#45;&gt;Node37 -->
<g id="edge37_Node000008_Node000037" class="edge">
<title>Node8&#45;&gt;Node37</title>
<g id="a_edge37_Node000008_Node000037"><a xlink:title=" ">
<path fill="none" stroke="#63b8ff" d="M504.36,-360.78C491.07,-332.42 462.01,-278.78 421,-249.5 416.26,-246.11 410.88,-243.36 405.33,-241.12"/>
<polygon fill="#63b8ff" stroke="#63b8ff" points="501.22,-362.33 508.54,-369.99 507.59,-359.44 501.22,-362.33"/>
</a>
</g>
</g>
<!-- Node10 -->
<g id="Node000010" class="node">
<title>Node10</title>
<g id="a_Node000010"><a xlink:href="../../d4/d27/classFsVolume.xhtml#a10bf5efca24ce1412e03b3e15837b2fd" target="_top" xlink:title=" ">
<polygon fill="white" stroke="#666666" points="243.5,-482 146.5,-482 146.5,-463 243.5,-463 243.5,-482"/>
<text text-anchor="middle" x="195" y="-470" font-family="Helvetica,sans-Serif" font-size="10.00">FsVolume::attrib</text>
</a>
</g>
</g>
<!-- Node9&#45;&gt;Node10 -->
<g id="edge10_Node000009_Node000010" class="edge">
<title>Node9&#45;&gt;Node10</title>
<g id="a_edge10_Node000009_Node000010"><a xlink:title=" ">
<path fill="none" stroke="#63b8ff" d="M291.27,-483.15C275.35,-481.37 258.63,-479.5 243.72,-477.84"/>
<polygon fill="#63b8ff" stroke="#63b8ff" points="291.27,-486.67 301.59,-484.31 292.04,-479.72 291.27,-486.67"/>
</a>
</g>
</g>
<!-- Node11 -->
<g id="Node000011" class="node">
<title>Node11</title>
<g id="a_Node000011"><a xlink:href="../../d4/d27/classFsVolume.xhtml#a76ac996fb61db9665fb5d5b4916ca16f" target="_top" xlink:title=" ">
<polygon fill="white" stroke="#666666" points="243.5,-519 146.5,-519 146.5,-500 243.5,-500 243.5,-519"/>
<text text-anchor="middle" x="195" y="-507" font-family="Helvetica,sans-Serif" font-size="10.00">FsVolume::attrib</text>
</a>
</g>
</g>
<!-- Node9&#45;&gt;Node11 -->
<g id="edge11_Node000009_Node000011" class="edge">
<title>Node9&#45;&gt;Node11</title>
<g id="a_edge11_Node000009_Node000011"><a xlink:title=" ">
<path fill="none" stroke="#63b8ff" d="M291.27,-498.26C275.35,-500.14 258.63,-502.11 243.72,-503.87"/>
<polygon fill="#63b8ff" stroke="#63b8ff" points="292.07,-501.69 301.59,-497.04 291.25,-494.73 292.07,-501.69"/>
</a>
</g>
</g>
<!-- Node16 -->
<g id="Node000016" class="node">
<title>Node16</title>
<g id="a_Node000016"><a xlink:href="../../d0/db5/classFsBaseFile.xhtml#a76aea9766ffeae5454381a0704e62505" target="_top" xlink:title=" ">
<polygon fill="white" stroke="#666666" points="247,-426 143,-426 143,-407 247,-407 247,-426"/>
<text text-anchor="middle" x="195" y="-414" font-family="Helvetica,sans-Serif" font-size="10.00">FsBaseFile::exists</text>
</a>
</g>
</g>
<!-- Node15&#45;&gt;Node16 -->
<g id="edge16_Node000015_Node000016" class="edge">
<title>Node15&#45;&gt;Node16</title>
<g id="a_edge16_Node000015_Node000016"><a xlink:title=" ">
<path fill="none" stroke="#63b8ff" d="M299.97,-416.5C282.79,-416.5 264.04,-416.5 247.26,-416.5"/>
<polygon fill="#63b8ff" stroke="#63b8ff" points="300.43,-420 310.43,-416.5 300.43,-413 300.43,-420"/>
</a>
</g>
</g>
<!-- Node21 -->
<g id="Node000021" class="node">
<title>Node21</title>
<g id="a_Node000021"><a xlink:href="../../d9/dce/classExFatVolume.xhtml#a29b670f7086e74ad5c50ecdad2e72d5b" target="_top" xlink:title=" ">
<polygon fill="white" stroke="#666666" points="250,-167 140,-167 140,-148 250,-148 250,-167"/>
<text text-anchor="middle" x="195" y="-155" font-family="Helvetica,sans-Serif" font-size="10.00">ExFatVolume::open</text>
</a>
</g>
</g>
<!-- Node20&#45;&gt;Node21 -->
<g id="edge21_Node000020_Node000021" class="edge">
<title>Node20&#45;&gt;Node21</title>
<g id="a_edge21_Node000020_Node000021"><a xlink:title=" ">
<path fill="none" stroke="#63b8ff" d="M292.81,-157.5C278.69,-157.5 263.87,-157.5 250.19,-157.5"/>
<polygon fill="#63b8ff" stroke="#63b8ff" points="292.94,-161 302.94,-157.5 292.94,-154 292.94,-161"/>
</a>
</g>
</g>
<!-- Node24 -->
<g id="Node000024" class="node">
<title>Node24</title>
<g id="a_Node000024"><a xlink:href="../../d0/db5/classFsBaseFile.xhtml#a6034c6dfce320e2869901890398831b4" target="_top" xlink:title=" ">
<polygon fill="white" stroke="#666666" points="259,-130 131,-130 131,-111 259,-111 259,-130"/>
<text text-anchor="middle" x="195" y="-118" font-family="Helvetica,sans-Serif" font-size="10.00">FsBaseFile::FsBaseFile</text>
</a>
</g>
</g>
<!-- Node23&#45;&gt;Node24 -->
<g id="edge24_Node000023_Node000024" class="edge">
<title>Node23&#45;&gt;Node24</title>
<g id="a_edge24_Node000023_Node000024"><a xlink:title=" ">
<path fill="none" stroke="#63b8ff" d="M305.7,-95.29C283.73,-100.34 258.39,-106.16 237.6,-110.94"/>
<polygon fill="#63b8ff" stroke="#63b8ff" points="306.58,-98.68 315.54,-93.03 305.01,-91.86 306.58,-98.68"/>
</a>
</g>
</g>
<!-- Node25 -->
<g id="Node000025" class="node">
<title>Node25</title>
<g id="a_Node000025"><a xlink:href="../../d4/d27/classFsVolume.xhtml#ab429316ed9e57a52ecfb938aca7dff6c" target="_top" xlink:title=" ">
<polygon fill="white" stroke="#666666" points="234.5,-93 155.5,-93 155.5,-74 234.5,-74 234.5,-93"/>
<text text-anchor="middle" x="195" y="-81" font-family="Helvetica,sans-Serif" font-size="10.00">FsVolume::ls</text>
</a>
</g>
</g>
<!-- Node23&#45;&gt;Node25 -->
<g id="edge25_Node000023_Node000025" class="edge">
<title>Node23&#45;&gt;Node25</title>
<g id="a_edge25_Node000023_Node000025"><a xlink:title=" ">
<path fill="none" stroke="#63b8ff" d="M298.07,-83.5C276.92,-83.5 253.61,-83.5 234.62,-83.5"/>
<polygon fill="#63b8ff" stroke="#63b8ff" points="298.26,-87 308.26,-83.5 298.26,-80 298.26,-87"/>
</a>
</g>
</g>
<!-- Node26 -->
<g id="Node000026" class="node">
<title>Node26</title>
<g id="a_Node000026"><a xlink:href="../../d4/d27/classFsVolume.xhtml#a6d51ed047796f7d382384c60c7bfac75" target="_top" xlink:title=" ">
<polygon fill="white" stroke="#666666" points="242.5,-56 147.5,-56 147.5,-37 242.5,-37 242.5,-56"/>
<text text-anchor="middle" x="195" y="-44" font-family="Helvetica,sans-Serif" font-size="10.00">FsVolume::open</text>
</a>
</g>
</g>
<!-- Node23&#45;&gt;Node26 -->
<g id="edge26_Node000023_Node000026" class="edge">
<title>Node23&#45;&gt;Node26</title>
<g id="a_edge26_Node000023_Node000026"><a xlink:title=" ">
<path fill="none" stroke="#63b8ff" d="M305.7,-71.71C283.73,-66.66 258.39,-60.84 237.6,-56.06"/>
<polygon fill="#63b8ff" stroke="#63b8ff" points="305.01,-75.14 315.54,-73.97 306.58,-68.32 305.01,-75.14"/>
</a>
</g>
</g>
<!-- Node27 -->
<g id="Node000027" class="node">
<title>Node27</title>
<g id="a_Node000027"><a xlink:href="../../d4/d27/classFsVolume.xhtml#ad41f53fd35fa60aa8972ac2036dae4de" target="_top" xlink:title=" ">
<polygon fill="white" stroke="#666666" points="95,-56 0,-56 0,-37 95,-37 95,-56"/>
<text text-anchor="middle" x="47.5" y="-44" font-family="Helvetica,sans-Serif" font-size="10.00">FsVolume::open</text>
</a>
</g>
</g>
<!-- Node26&#45;&gt;Node27 -->
<g id="edge27_Node000026_Node000027" class="edge">
<title>Node26&#45;&gt;Node27</title>
<g id="a_edge27_Node000026_Node000027"><a xlink:title=" ">
<path fill="none" stroke="#63b8ff" d="M136.82,-46.5C123.04,-46.5 108.48,-46.5 95.25,-46.5"/>
<polygon fill="#63b8ff" stroke="#63b8ff" points="137.16,-50 147.16,-46.5 137.16,-43 137.16,-50"/>
</a>
</g>
</g>
<!-- Node34 -->
<g id="Node000034" class="node">
<title>Node34</title>
<g id="a_Node000034"><a xlink:href="../../d9/dce/classExFatVolume.xhtml#a1396c06f6c5e138889125d2f62cdbdcb" target="_top" xlink:title=" ">
<polygon fill="white" stroke="#666666" points="256.5,-352 133.5,-352 133.5,-333 256.5,-333 256.5,-352"/>
<text text-anchor="middle" x="195" y="-340" font-family="Helvetica,sans-Serif" font-size="10.00">ExFatVolume::rename</text>
</a>
</g>
</g>
<!-- Node33&#45;&gt;Node34 -->
<g id="edge34_Node000033_Node000034" class="edge">
<title>Node33&#45;&gt;Node34</title>
<g id="a_edge34_Node000033_Node000034"><a xlink:title=" ">
<path fill="none" stroke="#63b8ff" d="M286.03,-342.5C276.24,-342.5 266.26,-342.5 256.69,-342.5"/>
<polygon fill="#63b8ff" stroke="#63b8ff" points="286.13,-346 296.13,-342.5 286.13,-339 286.13,-346"/>
</a>
</g>
</g>
<!-- Node38 -->
<g id="Node000038" class="node">
<title>Node38</title>
<g id="a_Node000038"><a xlink:href="../../d9/dce/classExFatVolume.xhtml#ae6d409b7f24593dca7aae70513e18b70" target="_top" xlink:title=" ">
<polygon fill="white" stroke="#666666" points="258,-241 132,-241 132,-222 258,-222 258,-241"/>
<text text-anchor="middle" x="195" y="-229" font-family="Helvetica,sans-Serif" font-size="10.00">ExFatVolume::truncate</text>
</a>
</g>
</g>
<!-- Node37&#45;&gt;Node38 -->
<g id="edge38_Node000037_Node000038" class="edge">
<title>Node37&#45;&gt;Node38</title>
<g id="a_edge38_Node000037_Node000038"><a xlink:title=" ">
<path fill="none" stroke="#63b8ff" d="M284.49,-231.5C275.67,-231.5 266.73,-231.5 258.08,-231.5"/>
<polygon fill="#63b8ff" stroke="#63b8ff" points="284.75,-235 294.75,-231.5 284.75,-228 284.75,-235"/>
</a>
</g>
</g>
<!-- Node40 -->
<g id="Node000040" class="node">
<title>Node40</title>
<g id="a_Node000040"><a xlink:href="../../d6/d7f/classExFatFile.xhtml#aa0e074c891f3db5ea2ebd491667b03a6" target="_top" xlink:title=" ">
<polygon fill="white" stroke="#666666" points="395,-798 321,-798 321,-779 395,-779 395,-798"/>
<text text-anchor="middle" x="358" y="-786" font-family="Helvetica,sans-Serif" font-size="10.00">ExFatFile::ls</text>
</a>
</g>
</g>
<!-- Node39&#45;&gt;Node40 -->
<g id="edge40_Node000039_Node000040" class="edge">
<title>Node39&#45;&gt;Node40</title>
<g id="a_edge40_Node000039_Node000040"><a xlink:title=" ">
<path fill="none" stroke="#63b8ff" d="M463.82,-814.45C441.53,-808.93 415.59,-802.51 395.09,-797.43"/>
<polygon fill="#63b8ff" stroke="#63b8ff" points="463.22,-817.91 473.77,-816.91 464.9,-811.11 463.22,-817.91"/>
</a>
</g>
</g>
<!-- Node41 -->
<g id="Node000041" class="node">
<title>Node41</title>
<g id="a_Node000041"><a xlink:href="../../d6/d7f/classExFatFile.xhtml#a09f8beb55f939874e93c1df6c8a046d4" target="_top" xlink:title=" ">
<polygon fill="white" stroke="#666666" points="232,-836 158,-836 158,-817 232,-817 232,-836"/>
<text text-anchor="middle" x="195" y="-824" font-family="Helvetica,sans-Serif" font-size="10.00">ExFatFile::ls</text>
</a>
</g>
</g>
<!-- Node39&#45;&gt;Node41 -->
<g id="edge44_Node000039_Node000041" class="edge">
<title>Node39&#45;&gt;Node41</title>
<g id="a_edge44_Node000039_Node000041"><a xlink:title=" ">
<path fill="none" stroke="#63b8ff" d="M446.48,-826.5C381.35,-826.5 284.2,-826.5 232.1,-826.5"/>
<polygon fill="#63b8ff" stroke="#63b8ff" points="446.64,-830 456.64,-826.5 446.64,-823 446.64,-830"/>
</a>
</g>
</g>
<!-- Node43 -->
<g id="Node000043" class="node">
<title>Node43</title>
<g id="a_Node000043"><a xlink:href="../../d6/d7f/classExFatFile.xhtml#ac8d298034dbed4358bf29a862d1913e7" target="_top" xlink:title=" ">
<polygon fill="white" stroke="#666666" points="403,-761 313,-761 313,-742 403,-742 403,-761"/>
<text text-anchor="middle" x="358" y="-749" font-family="Helvetica,sans-Serif" font-size="10.00">ExFatFile::open</text>
</a>
</g>
</g>
<!-- Node39&#45;&gt;Node43 -->
<g id="edge45_Node000039_Node000043" class="edge">
<title>Node39&#45;&gt;Node43</title>
<g id="a_edge45_Node000039_Node000043"><a xlink:title=" ">
<path fill="none" stroke="#63b8ff" d="M490.56,-810.88C472.54,-798.61 446.02,-781.77 421,-770.5 412.99,-766.89 404.11,-763.72 395.63,-761.05"/>
<polygon fill="#63b8ff" stroke="#63b8ff" points="488.93,-814.02 499.15,-816.83 492.92,-808.26 488.93,-814.02"/>
</a>
</g>
</g>
<!-- Node44 -->
<g id="Node000044" class="node">
<title>Node44</title>
<g id="a_Node000044"><a xlink:href="../../d0/db5/classFsBaseFile.xhtml#acb9b1075f4db76fa7e0521c9aff9c3df" target="_top" xlink:title=" ">
<polygon fill="white" stroke="#666666" points="419,-911 297,-911 297,-892 419,-892 419,-911"/>
<text text-anchor="middle" x="358" y="-899" font-family="Helvetica,sans-Serif" font-size="10.00">FsBaseFile::openNext</text>
</a>
</g>
</g>
<!-- Node39&#45;&gt;Node44 -->
<g id="edge46_Node000039_Node000044" class="edge">
<title>Node39&#45;&gt;Node44</title>
<g id="a_edge46_Node000039_Node000044"><a xlink:title=" ">
<path fill="none" stroke="#63b8ff" d="M467,-840C463.52,-841.65 460.14,-843.48 457,-845.5 437.43,-858.08 440.86,-871.39 421,-883.5 415.45,-886.88 409.23,-889.66 402.93,-891.93"/>
<polygon fill="#63b8ff" stroke="#63b8ff" points="468.54,-843.15 476.39,-836.02 465.81,-836.7 468.54,-843.15"/>
</a>
</g>
</g>
<!-- Node46 -->
<g id="Node000046" class="node">
<title>Node46</title>
<g id="a_Node000046"><a xlink:href="../../da/d2e/classExFile.xhtml#ac33383190264a3b74434877f0ff7e6d6" target="_top" xlink:title=" ">
<polygon fill="white" stroke="#666666" points="416,-874 300,-874 300,-855 416,-855 416,-874"/>
<text text-anchor="middle" x="358" y="-862" font-family="Helvetica,sans-Serif" font-size="10.00">ExFile::openNextFile</text>
</a>
</g>
</g>
<!-- Node39&#45;&gt;Node46 -->
<g id="edge48_Node000039_Node000046" class="edge">
<title>Node39&#45;&gt;Node46</title>
<g id="a_edge48_Node000039_Node000046"><a xlink:title=" ">
<path fill="none" stroke="#63b8ff" d="M463.86,-838.54C442.42,-843.85 417.58,-850 397.46,-854.98"/>
<polygon fill="#63b8ff" stroke="#63b8ff" points="464.9,-841.89 473.77,-836.09 463.22,-835.09 464.9,-841.89"/>
</a>
</g>
</g>
<!-- Node40&#45;&gt;Node18 -->
<g id="edge41_Node000040_Node000018" class="edge">
<title>Node40&#45;&gt;Node18</title>
<g id="a_edge41_Node000040_Node000018"><a xlink:title=" ">
<path fill="none" stroke="#63b8ff" d="M310.9,-777.18C305.42,-775.23 300.01,-773.02 295,-770.5 259.16,-752.5 223.14,-721.06 206.12,-705.22"/>
<polygon fill="#63b8ff" stroke="#63b8ff" points="310.15,-780.61 320.74,-780.38 312.32,-773.96 310.15,-780.61"/>
</a>
</g>
</g>
<!-- Node40&#45;&gt;Node41 -->
<g id="edge42_Node000040_Node000041" class="edge">
<title>Node40&#45;&gt;Node41</title>
<g id="a_edge42_Node000040_Node000041"><a xlink:title=" ">
<path fill="none" stroke="#63b8ff" d="M310.86,-799.39C285.81,-805.3 255.29,-812.51 232.01,-818"/>
<polygon fill="#63b8ff" stroke="#63b8ff" points="311.94,-802.73 320.87,-797.03 310.33,-795.92 311.94,-802.73"/>
</a>
</g>
</g>
<!-- Node42 -->
<g id="Node000042" class="node">
<title>Node42</title>
<g id="a_Node000042"><a xlink:href="../../d9/dce/classExFatVolume.xhtml#abe1e8cad0a5922984b28edfd987bc856" target="_top" xlink:title=" ">
<polygon fill="white" stroke="#666666" points="242,-798 148,-798 148,-779 242,-779 242,-798"/>
<text text-anchor="middle" x="195" y="-786" font-family="Helvetica,sans-Serif" font-size="10.00">ExFatVolume::ls</text>
</a>
</g>
</g>
<!-- Node40&#45;&gt;Node42 -->
<g id="edge43_Node000040_Node000042" class="edge">
<title>Node40&#45;&gt;Node42</title>
<g id="a_edge43_Node000040_Node000042"><a xlink:title=" ">
<path fill="none" stroke="#63b8ff" d="M310.66,-788.5C289.14,-788.5 263.62,-788.5 242.12,-788.5"/>
<polygon fill="#63b8ff" stroke="#63b8ff" points="310.87,-792 320.87,-788.5 310.87,-785 310.87,-792"/>
</a>
</g>
</g>
<!-- Node45 -->
<g id="Node000045" class="node">
<title>Node45</title>
<g id="a_Node000045"><a xlink:href="../../d5/d4f/classFsFile.xhtml#ab2f85961e3831d0d654da862becb7433" target="_top" xlink:title=" ">
<polygon fill="white" stroke="#666666" points="253,-911 137,-911 137,-892 253,-892 253,-911"/>
<text text-anchor="middle" x="195" y="-899" font-family="Helvetica,sans-Serif" font-size="10.00">FsFile::openNextFile</text>
</a>
</g>
</g>
<!-- Node44&#45;&gt;Node45 -->
<g id="edge47_Node000044_Node000045" class="edge">
<title>Node44&#45;&gt;Node45</title>
<g id="a_edge47_Node000044_Node000045"><a xlink:title=" ">
<path fill="none" stroke="#63b8ff" d="M286.43,-901.5C275.26,-901.5 263.83,-901.5 253.02,-901.5"/>
<polygon fill="#63b8ff" stroke="#63b8ff" points="286.59,-905 296.59,-901.5 286.59,-898 286.59,-905"/>
</a>
</g>
</g>
</g>
</svg>

<g id="navigator" transform="translate(0 0)" fill="#404254">
  <rect fill="#f2f5e9" fill-opacity="0.5" stroke="#606060" stroke-width=".5" x="0" y="0" width="60" height="60"/>
  <use id="zoomplus" xlink:href="#zoomPlus" x="17" y="9" onmousedown="handleZoom(evt,'in')"/>
  <use id="zoomminus" xlink:href="#zoomMin" x="42" y="9" onmousedown="handleZoom(evt,'out')"/>
  <use id="reset" xlink:href="#resetDef" x="30" y="36" onmousedown="handleReset()"/>
   <use id="arrowup" xlink:href="#arrowUp" x="0" y="0" onmousedown="handlePan(0,-1)"/>
  <use id="arrowright" xlink:href="#arrowRight" x="0" y="0" onmousedown="handlePan(1,0)"/>
  <use id="arrowdown" xlink:href="#arrowDown" x="0" y="0" onmousedown="handlePan(0,1)"/>
  <use id="arrowleft" xlink:href="#arrowLeft" x="0" y="0" onmousedown="handlePan(-1,0)"/>
</g>
<svg viewBox="0 0 15 15" width="100%" height="30px" preserveAspectRatio="xMaxYMin meet">
 <g id="arrow_out" transform="scale(0.3 0.3)">
  <a xlink:href="classExFatFile_aea83233eb36c4346f224e6065d7d65dd_icgraph_org.svg" target="_base">
   <rect id="button" ry="5" rx="5" y="6" x="6" height="38" width="38"
        fill="#f2f5e9" fill-opacity="0.5" stroke="#606060" stroke-width="1.0"/>
   <path id="arrow"
     d="M 11.500037,31.436501 C 11.940474,20.09759 22.043105,11.32322 32.158766,21.979434 L 37.068811,17.246167 C 37.068811,17.246167 37.088388,32 37.088388,32 L 22.160133,31.978069 C 22.160133,31.978069 26.997745,27.140456 26.997745,27.140456 C 18.528582,18.264221 13.291696,25.230495 11.500037,31.436501 z"
     style="fill:#404040;"/>
  </a>
 </g>
</svg>

<style type='text/css'>
<![CDATA[
[data-mouse-over-selected='false'] { opacity: 0.7; }
[data-mouse-over-selected='true']  { opacity: 1.0; }
]]>
</style>
<script type="application/ecmascript"><![CDATA[
document.addEventListener('DOMContentLoaded', (event) => {
  highlightEdges();
  highlightAdjacentNodes();
});
]]></script>
</svg>
