<?xml version="1.0" encoding="UTF-8" standalone="no"?>
<!DOCTYPE svg PUBLIC "-//W3C//DTD SVG 1.1//EN"
 "http://www.w3.org/Graphics/SVG/1.1/DTD/svg11.dtd">
<!-- Generated by graphviz version 2.43.0 (0)
 -->
<!-- Title: ExFatFile::remove Pages: 1 -->
<svg width="419pt" height="193pt"
 viewBox="0.00 0.00 419.00 193.00" xmlns="http://www.w3.org/2000/svg" xmlns:xlink="http://www.w3.org/1999/xlink">

<svg id="main" version="1.1" xmlns="http://www.w3.org/2000/svg" xmlns:xlink="http://www.w3.org/1999/xlink" xml:space="preserve" onload="init(evt)">
<style type="text/css"><![CDATA[
.node, .edge {opacity: 0.7;}
.node.selected, .edge.selected {opacity: 1;}
.edge:hover path { stroke: red; }
.edge:hover polygon { stroke: red; fill: red; }
]]></style>
<script type="application/ecmascript" xlink:href="../../svg.min.js"/>
<svg id="graph" class="graph">
<g id="graph0" class="graph" transform="scale(1 1) rotate(0) translate(4 189)">
<title>ExFatFile::remove</title>
<!-- Node1 -->
<g id="Node000001" class="node">
<title>Node1</title>
<g id="a_Node000001"><a xlink:title=" ">
<polygon fill="#999999" stroke="#666666" points="411,-111 307,-111 307,-92 411,-92 411,-111"/>
<text text-anchor="middle" x="359" y="-99" font-family="Helvetica,sans-Serif" font-size="10.00">ExFatFile::remove</text>
</a>
</g>
</g>
<!-- Node2 -->
<g id="Node000002" class="node">
<title>Node2</title>
<g id="a_Node000002"><a xlink:href="../../d0/db5/classFsBaseFile.xhtml#a8d21f9df86e846e34c3bb11cf7db21bc" target="_top" xlink:title=" ">
<polygon fill="white" stroke="#666666" points="266,-185 153,-185 153,-166 266,-166 266,-185"/>
<text text-anchor="middle" x="209.5" y="-173" font-family="Helvetica,sans-Serif" font-size="10.00">FsBaseFile::remove</text>
</a>
</g>
</g>
<!-- Node1&#45;&gt;Node2 -->
<g id="edge1_Node000001_Node000002" class="edge">
<title>Node1&#45;&gt;Node2</title>
<g id="a_edge1_Node000001_Node000002"><a xlink:title=" ">
<path fill="none" stroke="#63b8ff" d="M337.57,-117.02C320.52,-129.38 295.19,-146.39 271,-157.5 263.93,-160.75 256.13,-163.58 248.54,-165.97"/>
<polygon fill="#63b8ff" stroke="#63b8ff" points="339.71,-119.79 345.68,-111.04 335.56,-114.16 339.71,-119.79"/>
</a>
</g>
</g>
<!-- Node3 -->
<g id="Node000003" class="node">
<title>Node3</title>
<g id="a_Node000003"><a xlink:href="../../d6/d7f/classExFatFile.xhtml#a145a2fa9269876bae17a44569b4625fb" target="_top" xlink:title=" ">
<polygon fill="white" stroke="#666666" points="261.5,-148 157.5,-148 157.5,-129 261.5,-129 261.5,-148"/>
<text text-anchor="middle" x="209.5" y="-136" font-family="Helvetica,sans-Serif" font-size="10.00">ExFatFile::remove</text>
</a>
</g>
</g>
<!-- Node1&#45;&gt;Node3 -->
<g id="edge2_Node000001_Node000003" class="edge">
<title>Node1&#45;&gt;Node3</title>
<g id="a_edge2_Node000001_Node000003"><a xlink:title=" ">
<path fill="none" stroke="#63b8ff" d="M310.19,-113.49C290.24,-118.5 267.4,-124.23 248.61,-128.94"/>
<polygon fill="#63b8ff" stroke="#63b8ff" points="311.17,-116.86 320.02,-111.03 309.46,-110.07 311.17,-116.86"/>
</a>
</g>
</g>
<!-- Node4 -->
<g id="Node000004" class="node">
<title>Node4</title>
<g id="a_Node000004"><a xlink:href="../../d9/dce/classExFatVolume.xhtml#ac4d15484d30dd40ecdb4d331d29534d9" target="_top" xlink:title=" ">
<polygon fill="white" stroke="#666666" points="271,-111 148,-111 148,-92 271,-92 271,-111"/>
<text text-anchor="middle" x="209.5" y="-99" font-family="Helvetica,sans-Serif" font-size="10.00">ExFatVolume::remove</text>
</a>
</g>
</g>
<!-- Node1&#45;&gt;Node4 -->
<g id="edge3_Node000001_Node000004" class="edge">
<title>Node1&#45;&gt;Node4</title>
<g id="a_edge3_Node000001_Node000004"><a xlink:title=" ">
<path fill="none" stroke="#63b8ff" d="M296.7,-101.5C288.28,-101.5 279.63,-101.5 271.22,-101.5"/>
<polygon fill="#63b8ff" stroke="#63b8ff" points="296.83,-105 306.83,-101.5 296.83,-98 296.83,-105"/>
</a>
</g>
</g>
<!-- Node5 -->
<g id="Node000005" class="node">
<title>Node5</title>
<g id="a_Node000005"><a xlink:href="../../d6/d7f/classExFatFile.xhtml#a707e3a4139319fb5d4e31d591b3c5b77" target="_top" xlink:title=" ">
<polygon fill="white" stroke="#666666" points="261.5,-74 157.5,-74 157.5,-55 261.5,-55 261.5,-74"/>
<text text-anchor="middle" x="209.5" y="-62" font-family="Helvetica,sans-Serif" font-size="10.00">ExFatFile::rename</text>
</a>
</g>
</g>
<!-- Node1&#45;&gt;Node5 -->
<g id="edge4_Node000001_Node000005" class="edge">
<title>Node1&#45;&gt;Node5</title>
<g id="a_edge4_Node000001_Node000005"><a xlink:title=" ">
<path fill="none" stroke="#63b8ff" d="M310.19,-89.51C290.24,-84.5 267.4,-78.77 248.61,-74.06"/>
<polygon fill="#63b8ff" stroke="#63b8ff" points="309.46,-92.93 320.02,-91.97 311.17,-86.14 309.46,-92.93"/>
</a>
</g>
</g>
<!-- Node6 -->
<g id="Node000006" class="node">
<title>Node6</title>
<g id="a_Node000006"><a xlink:href="../../d6/d7f/classExFatFile.xhtml#a0165e0fde12a53e419bd92cd37f9cfed" target="_top" xlink:title=" ">
<polygon fill="white" stroke="#666666" points="255.5,-37 163.5,-37 163.5,-18 255.5,-18 255.5,-37"/>
<text text-anchor="middle" x="209.5" y="-25" font-family="Helvetica,sans-Serif" font-size="10.00">ExFatFile::rmdir</text>
</a>
</g>
</g>
<!-- Node1&#45;&gt;Node6 -->
<g id="edge5_Node000001_Node000006" class="edge">
<title>Node1&#45;&gt;Node6</title>
<g id="a_edge5_Node000001_Node000006"><a xlink:title=" ">
<path fill="none" stroke="#63b8ff" d="M336.89,-85.96C319.8,-73.92 294.75,-57.51 271,-46.5 263.21,-42.89 254.55,-39.71 246.27,-37.05"/>
<polygon fill="#63b8ff" stroke="#63b8ff" points="334.88,-88.82 345.05,-91.8 338.96,-83.13 334.88,-88.82"/>
</a>
</g>
</g>
<!-- Node7 -->
<g id="Node000007" class="node">
<title>Node7</title>
<g id="a_Node000007"><a xlink:href="../../d0/db5/classFsBaseFile.xhtml#ac47870fd89b0849cda33f2780918a286" target="_top" xlink:title=" ">
<polygon fill="white" stroke="#666666" points="106.5,-56 5.5,-56 5.5,-37 106.5,-37 106.5,-56"/>
<text text-anchor="middle" x="56" y="-44" font-family="Helvetica,sans-Serif" font-size="10.00">FsBaseFile::rmdir</text>
</a>
</g>
</g>
<!-- Node6&#45;&gt;Node7 -->
<g id="edge6_Node000006_Node000007" class="edge">
<title>Node6&#45;&gt;Node7</title>
<g id="a_edge6_Node000006_Node000007"><a xlink:title=" ">
<path fill="none" stroke="#63b8ff" d="M153.14,-34.44C137.92,-36.35 121.51,-38.41 106.64,-40.27"/>
<polygon fill="#63b8ff" stroke="#63b8ff" points="153.97,-37.87 163.46,-33.15 153.1,-30.92 153.97,-37.87"/>
</a>
</g>
</g>
<!-- Node8 -->
<g id="Node000008" class="node">
<title>Node8</title>
<g id="a_Node000008"><a xlink:href="../../d9/dce/classExFatVolume.xhtml#afaa44ad57398f8c293b9a35aa150ce75" target="_top" xlink:title=" ">
<polygon fill="white" stroke="#666666" points="112,-19 0,-19 0,0 112,0 112,-19"/>
<text text-anchor="middle" x="56" y="-7" font-family="Helvetica,sans-Serif" font-size="10.00">ExFatVolume::rmdir</text>
</a>
</g>
</g>
<!-- Node6&#45;&gt;Node8 -->
<g id="edge7_Node000006_Node000008" class="edge">
<title>Node6&#45;&gt;Node8</title>
<g id="a_edge7_Node000006_Node000008"><a xlink:title=" ">
<path fill="none" stroke="#63b8ff" d="M153.38,-20.95C139.92,-19.35 125.51,-17.64 112.06,-16.04"/>
<polygon fill="#63b8ff" stroke="#63b8ff" points="153.11,-24.44 163.46,-22.15 153.94,-17.49 153.11,-24.44"/>
</a>
</g>
</g>
</g>
</svg>
</svg>

<style type='text/css'>
<![CDATA[
[data-mouse-over-selected='false'] { opacity: 0.7; }
[data-mouse-over-selected='true']  { opacity: 1.0; }
]]>
</style>
<script type="application/ecmascript"><![CDATA[
document.addEventListener('DOMContentLoaded', (event) => {
  highlightEdges();
  highlightAdjacentNodes();
});
]]></script>
</svg>
