<?xml version="1.0" encoding="UTF-8" standalone="no"?>
<!DOCTYPE svg PUBLIC "-//W3C//DTD SVG 1.1//EN"
 "http://www.w3.org/Graphics/SVG/1.1/DTD/svg11.dtd">
<!-- Generated by graphviz version 2.43.0 (0)
 -->
<!-- Title: ExFatFile::close Pages: 1 -->
<svg width="582pt" height="1100pt"
 viewBox="0.00 0.00 582.00 1100.00" xmlns="http://www.w3.org/2000/svg" xmlns:xlink="http://www.w3.org/1999/xlink">
<g id="graph0" class="graph" transform="scale(1 1) rotate(0) translate(4 1096)">
<title>ExFatFile::close</title>
<!-- Node1 -->
<g id="Node000001" class="node">
<title>Node1</title>
<g id="a_Node000001"><a xlink:title=" ">
<polygon fill="#999999" stroke="#666666" points="574,-796 482,-796 482,-777 574,-777 574,-796"/>
<text text-anchor="middle" x="528" y="-784" font-family="Helvetica,sans-Serif" font-size="10.00">ExFatFile::close</text>
</a>
</g>
</g>
<!-- Node2 -->
<g id="Node000002" class="node">
<title>Node2</title>
<g id="a_Node000002"><a xlink:href="../../d9/dce/classExFatVolume_abdc1addfc9474bf42cab31bcb49b4b65.xhtml#abdc1addfc9474bf42cab31bcb49b4b65" target="_top" xlink:title=" ">
<polygon fill="white" stroke="#666666" points="446,-1013 336,-1013 336,-994 446,-994 446,-1013"/>
<text text-anchor="middle" x="391" y="-1001" font-family="Helvetica,sans-Serif" font-size="10.00">ExFatVolume::chdir</text>
</a>
</g>
</g>
<!-- Node1&#45;&gt;Node2 -->
<g id="edge1_Node000001_Node000002" class="edge">
<title>Node1&#45;&gt;Node2</title>
<g id="a_edge1_Node000001_Node000002"><a xlink:title=" ">
<path fill="none" stroke="#63b8ff" d="M515.72,-804.64C488.38,-848.58 419.31,-959.6 398.21,-993.51"/>
<polygon fill="#63b8ff" stroke="#63b8ff" points="518.71,-806.44 521.03,-796.1 512.77,-802.75 518.71,-806.44"/>
</a>
</g>
</g>
<!-- Node5 -->
<g id="Node000005" class="node">
<title>Node5</title>
<g id="a_Node000005"><a xlink:href="../../d0/db5/classFsBaseFile_aa669c695a839e68e417fb15eebe3de13.xhtml#aa669c695a839e68e417fb15eebe3de13" target="_top" xlink:title=" ">
<polygon fill="white" stroke="#666666" points="441.5,-898 340.5,-898 340.5,-879 441.5,-879 441.5,-898"/>
<text text-anchor="middle" x="391" y="-886" font-family="Helvetica,sans-Serif" font-size="10.00">FsBaseFile::close</text>
</a>
</g>
</g>
<!-- Node1&#45;&gt;Node5 -->
<g id="edge4_Node000001_Node000005" class="edge">
<title>Node1&#45;&gt;Node5</title>
<g id="a_edge4_Node000001_Node000005"><a xlink:title=" ">
<path fill="none" stroke="#63b8ff" d="M510.94,-803.56C495.33,-819.53 470.47,-843.42 446,-860.5 435.87,-867.57 423.72,-874.03 413.51,-878.95"/>
<polygon fill="#63b8ff" stroke="#63b8ff" points="513.79,-805.64 518.2,-796.01 508.75,-800.79 513.79,-805.64"/>
</a>
</g>
</g>
<!-- Node21 -->
<g id="Node000021" class="node">
<title>Node21</title>
<g id="a_Node000021"><a xlink:href="../../d6/d7f/classExFatFile_aa0e074c891f3db5ea2ebd491667b03a6.xhtml#aa0e074c891f3db5ea2ebd491667b03a6" target="_top" xlink:title=" ">
<polygon fill="white" stroke="#666666" points="428,-758 354,-758 354,-739 428,-739 428,-758"/>
<text text-anchor="middle" x="391" y="-746" font-family="Helvetica,sans-Serif" font-size="10.00">ExFatFile::ls</text>
</a>
</g>
</g>
<!-- Node1&#45;&gt;Node21 -->
<g id="edge19_Node000001_Node000021" class="edge">
<title>Node1&#45;&gt;Node21</title>
<g id="a_edge19_Node000001_Node000021"><a xlink:title=" ">
<path fill="none" stroke="#63b8ff" d="M483.24,-774.18C464.69,-768.96 443.4,-762.97 426.06,-758.09"/>
<polygon fill="#63b8ff" stroke="#63b8ff" points="482.36,-777.57 492.93,-776.91 484.26,-770.83 482.36,-777.57"/>
</a>
</g>
</g>
<!-- Node23 -->
<g id="Node000023" class="node">
<title>Node23</title>
<g id="a_Node000023"><a xlink:href="../../d6/d7f/classExFatFile_a09f8beb55f939874e93c1df6c8a046d4.xhtml#a09f8beb55f939874e93c1df6c8a046d4" target="_top" xlink:title=" ">
<polygon fill="white" stroke="#666666" points="269,-796 195,-796 195,-777 269,-777 269,-796"/>
<text text-anchor="middle" x="232" y="-784" font-family="Helvetica,sans-Serif" font-size="10.00">ExFatFile::ls</text>
</a>
</g>
</g>
<!-- Node1&#45;&gt;Node23 -->
<g id="edge23_Node000001_Node000023" class="edge">
<title>Node1&#45;&gt;Node23</title>
<g id="a_edge23_Node000001_Node000023"><a xlink:title=" ">
<path fill="none" stroke="#63b8ff" d="M471.38,-786.5C411.99,-786.5 319.63,-786.5 269.07,-786.5"/>
<polygon fill="#63b8ff" stroke="#63b8ff" points="471.71,-790 481.71,-786.5 471.71,-783 471.71,-790"/>
</a>
</g>
</g>
<!-- Node25 -->
<g id="Node000025" class="node">
<title>Node25</title>
<g id="a_Node000025"><a xlink:href="../../d6/d7f/classExFatFile_ad9ca8c5ba1de8965e65b9f25f31baeff.xhtml#ad9ca8c5ba1de8965e65b9f25f31baeff" target="_top" xlink:title=" ">
<polygon fill="white" stroke="#666666" points="438.5,-834 343.5,-834 343.5,-815 438.5,-815 438.5,-834"/>
<text text-anchor="middle" x="391" y="-822" font-family="Helvetica,sans-Serif" font-size="10.00">ExFatFile::mkdir</text>
</a>
</g>
</g>
<!-- Node1&#45;&gt;Node25 -->
<g id="edge24_Node000001_Node000025" class="edge">
<title>Node1&#45;&gt;Node25</title>
<g id="a_edge24_Node000001_Node000025"><a xlink:title=" ">
<path fill="none" stroke="#63b8ff" d="M483.24,-798.82C464.69,-804.04 443.4,-810.03 426.06,-814.91"/>
<polygon fill="#63b8ff" stroke="#63b8ff" points="484.26,-802.17 492.93,-796.09 482.36,-795.43 484.26,-802.17"/>
</a>
</g>
</g>
<!-- Node28 -->
<g id="Node000028" class="node">
<title>Node28</title>
<g id="a_Node000028"><a xlink:href="../../d6/d7f/classExFatFile_a5b115247c8e1a8cd643412f4d548e673.xhtml#a5b115247c8e1a8cd643412f4d548e673" target="_top" xlink:title=" ">
<polygon fill="white" stroke="#666666" points="436,-408 346,-408 346,-389 436,-389 436,-408"/>
<text text-anchor="middle" x="391" y="-396" font-family="Helvetica,sans-Serif" font-size="10.00">ExFatFile::open</text>
</a>
</g>
</g>
<!-- Node1&#45;&gt;Node28 -->
<g id="edge29_Node000001_Node000028" class="edge">
<title>Node1&#45;&gt;Node28</title>
<g id="a_edge29_Node000001_Node000028"><a xlink:title=" ">
<path fill="none" stroke="#63b8ff" d="M520.28,-767.19C495.97,-697.31 413.04,-458.98 395.34,-408.1"/>
<polygon fill="#63b8ff" stroke="#63b8ff" points="517.07,-768.61 523.66,-776.91 523.68,-766.31 517.07,-768.61"/>
</a>
</g>
</g>
<!-- Node51 -->
<g id="Node000051" class="node">
<title>Node51</title>
<g id="a_Node000051"><a xlink:href="../../d6/d7f/classExFatFile_ac8d298034dbed4358bf29a862d1913e7.xhtml#ac8d298034dbed4358bf29a862d1913e7" target="_top" xlink:title=" ">
<polygon fill="white" stroke="#666666" points="436,-371 346,-371 346,-352 436,-352 436,-371"/>
<text text-anchor="middle" x="391" y="-359" font-family="Helvetica,sans-Serif" font-size="10.00">ExFatFile::open</text>
</a>
</g>
</g>
<!-- Node1&#45;&gt;Node51 -->
<g id="edge56_Node000001_Node000051" class="edge">
<title>Node1&#45;&gt;Node51</title>
<g id="a_edge56_Node000001_Node000051"><a xlink:title=" ">
<path fill="none" stroke="#63b8ff" d="M525.63,-766.48C520.22,-692.87 498.02,-438.48 446,-379.5 442.99,-376.09 439.32,-373.33 435.33,-371.08"/>
<polygon fill="#63b8ff" stroke="#63b8ff" points="522.16,-766.95 526.36,-776.68 529.14,-766.46 522.16,-766.95"/>
</a>
</g>
</g>
<!-- Node3 -->
<g id="Node000003" class="node">
<title>Node3</title>
<g id="a_Node000003"><a xlink:href="../../d9/dce/classExFatVolume_a95b0bb19acf96c5a3cc8ea7aea1b1ff8.xhtml#a95b0bb19acf96c5a3cc8ea7aea1b1ff8" target="_top" xlink:title=" ">
<polygon fill="white" stroke="#666666" points="288.5,-1092 175.5,-1092 175.5,-1073 288.5,-1073 288.5,-1092"/>
<text text-anchor="middle" x="232" y="-1080" font-family="Helvetica,sans-Serif" font-size="10.00">ExFatVolume::begin</text>
</a>
</g>
</g>
<!-- Node2&#45;&gt;Node3 -->
<g id="edge2_Node000002_Node000003" class="edge">
<title>Node2&#45;&gt;Node3</title>
<g id="a_edge2_Node000002_Node000003"><a xlink:title=" ">
<path fill="none" stroke="#63b8ff" d="M370.28,-1019.73C352.78,-1033.4 326.02,-1052.6 300,-1064.5 292.77,-1067.81 284.82,-1070.61 276.99,-1072.94"/>
<polygon fill="#63b8ff" stroke="#63b8ff" points="372.9,-1022.12 378.54,-1013.15 368.53,-1016.64 372.9,-1022.12"/>
</a>
</g>
</g>
<!-- Node4 -->
<g id="Node000004" class="node">
<title>Node4</title>
<g id="a_Node000004"><a xlink:href="../../d4/d27/classFsVolume_a5acb97d16ad71be085886d4d5af2e909.xhtml#a5acb97d16ad71be085886d4d5af2e909" target="_top" xlink:title=" ">
<polygon fill="white" stroke="#666666" points="113,-1092 15,-1092 15,-1073 113,-1073 113,-1092"/>
<text text-anchor="middle" x="64" y="-1080" font-family="Helvetica,sans-Serif" font-size="10.00">FsVolume::begin</text>
</a>
</g>
</g>
<!-- Node3&#45;&gt;Node4 -->
<g id="edge3_Node000003_Node000004" class="edge">
<title>Node3&#45;&gt;Node4</title>
<g id="a_edge3_Node000003_Node000004"><a xlink:title=" ">
<path fill="none" stroke="#63b8ff" d="M165.17,-1082.5C147.78,-1082.5 129.35,-1082.5 113.09,-1082.5"/>
<polygon fill="#63b8ff" stroke="#63b8ff" points="165.26,-1086 175.26,-1082.5 165.26,-1079 165.26,-1086"/>
</a>
</g>
</g>
<!-- Node6 -->
<g id="Node000006" class="node">
<title>Node6</title>
<g id="a_Node000006"><a xlink:href="../../d0/db5/classFsBaseFile_a8b7aa7f2c63882e483336dfe12ef6800.xhtml#a8b7aa7f2c63882e483336dfe12ef6800" target="_top" xlink:title=" ">
<polygon fill="white" stroke="#666666" points="284,-870 180,-870 180,-851 284,-851 284,-870"/>
<text text-anchor="middle" x="232" y="-858" font-family="Helvetica,sans-Serif" font-size="10.00">FsBaseFile::mkdir</text>
</a>
</g>
</g>
<!-- Node5&#45;&gt;Node6 -->
<g id="edge5_Node000005_Node000006" class="edge">
<title>Node5&#45;&gt;Node6</title>
<g id="a_edge5_Node000005_Node000006"><a xlink:title=" ">
<path fill="none" stroke="#63b8ff" d="M330.05,-877.81C314.95,-875.12 298.88,-872.25 284.24,-869.64"/>
<polygon fill="#63b8ff" stroke="#63b8ff" points="329.87,-881.33 340.32,-879.64 331.09,-874.44 329.87,-881.33"/>
</a>
</g>
</g>
<!-- Node7 -->
<g id="Node000007" class="node">
<title>Node7</title>
<g id="a_Node000007"><a xlink:href="../../d0/db5/classFsBaseFile_aa767859d4a4b4716ebbc4ea42a6d74df.xhtml#aa767859d4a4b4716ebbc4ea42a6d74df" target="_top" xlink:title=" ">
<polygon fill="white" stroke="#666666" points="281.5,-648 182.5,-648 182.5,-629 281.5,-629 281.5,-648"/>
<text text-anchor="middle" x="232" y="-636" font-family="Helvetica,sans-Serif" font-size="10.00">FsBaseFile::open</text>
</a>
</g>
</g>
<!-- Node5&#45;&gt;Node7 -->
<g id="edge6_Node000005_Node000007" class="edge">
<title>Node5&#45;&gt;Node7</title>
<g id="a_edge6_Node000005_Node000007"><a xlink:title=" ">
<path fill="none" stroke="#63b8ff" d="M351.33,-874.15C345.46,-870.49 340.03,-865.99 336,-860.5 281.49,-786.3 362.18,-724.4 300,-656.5 295.04,-651.08 288.64,-647.22 281.76,-644.49"/>
<polygon fill="#63b8ff" stroke="#63b8ff" points="349.66,-877.23 360.12,-878.93 353.01,-871.08 349.66,-877.23"/>
</a>
</g>
</g>
<!-- Node12 -->
<g id="Node000012" class="node">
<title>Node12</title>
<g id="a_Node000012"><a xlink:href="../../d0/db5/classFsBaseFile_a4743d118f085f6a13692d12bdd3c4556.xhtml#a4743d118f085f6a13692d12bdd3c4556" target="_top" xlink:title=" ">
<polygon fill="white" stroke="#666666" points="281.5,-685 182.5,-685 182.5,-666 281.5,-666 281.5,-685"/>
<text text-anchor="middle" x="232" y="-673" font-family="Helvetica,sans-Serif" font-size="10.00">FsBaseFile::open</text>
</a>
</g>
</g>
<!-- Node5&#45;&gt;Node12 -->
<g id="edge10_Node000005_Node000012" class="edge">
<title>Node5&#45;&gt;Node12</title>
<g id="a_edge10_Node000005_Node000012"><a xlink:title=" ">
<path fill="none" stroke="#63b8ff" d="M351.68,-874.14C345.73,-870.47 340.18,-865.97 336,-860.5 289.91,-800.17 352.33,-748.52 300,-693.5 294.94,-688.18 288.48,-684.37 281.59,-681.65"/>
<polygon fill="#63b8ff" stroke="#63b8ff" points="350.12,-877.27 360.58,-878.93 353.44,-871.11 350.12,-877.27"/>
</a>
</g>
</g>
<!-- Node13 -->
<g id="Node000013" class="node">
<title>Node13</title>
<g id="a_Node000013"><a xlink:href="../../d0/db5/classFsBaseFile_a0186e56b21fd584b02db4b763df05f64.xhtml#a0186e56b21fd584b02db4b763df05f64" target="_top" xlink:title=" ">
<polygon fill="white" stroke="#666666" points="281.5,-722 182.5,-722 182.5,-703 281.5,-703 281.5,-722"/>
<text text-anchor="middle" x="232" y="-710" font-family="Helvetica,sans-Serif" font-size="10.00">FsBaseFile::open</text>
</a>
</g>
</g>
<!-- Node5&#45;&gt;Node13 -->
<g id="edge11_Node000005_Node000013" class="edge">
<title>Node5&#45;&gt;Node13</title>
<g id="a_edge11_Node000005_Node000013"><a xlink:title=" ">
<path fill="none" stroke="#63b8ff" d="M352.31,-874.16C346.19,-870.47 340.42,-865.96 336,-860.5 298.24,-813.93 342.56,-772.73 300,-730.5 294.87,-725.41 288.46,-721.72 281.66,-719.05"/>
<polygon fill="#63b8ff" stroke="#63b8ff" points="350.94,-877.39 361.41,-878.99 354.22,-871.21 350.94,-877.39"/>
</a>
</g>
</g>
<!-- Node14 -->
<g id="Node000014" class="node">
<title>Node14</title>
<g id="a_Node000014"><a xlink:href="../../d0/db5/classFsBaseFile_acdb7fd29ecf8db85d790e6b4acf24c9d.xhtml#acdb7fd29ecf8db85d790e6b4acf24c9d" target="_top" xlink:title=" ">
<polygon fill="white" stroke="#666666" points="292,-1055 172,-1055 172,-1036 292,-1036 292,-1055"/>
<text text-anchor="middle" x="232" y="-1043" font-family="Helvetica,sans-Serif" font-size="10.00">FsBaseFile::openCwd</text>
</a>
</g>
</g>
<!-- Node5&#45;&gt;Node14 -->
<g id="edge12_Node000005_Node000014" class="edge">
<title>Node5&#45;&gt;Node14</title>
<g id="a_edge12_Node000005_Node000014"><a xlink:title=" ">
<path fill="none" stroke="#63b8ff" d="M380.1,-906.99C361.7,-940.7 322.12,-1010.22 300,-1026.5 294.74,-1030.37 288.72,-1033.45 282.49,-1035.91"/>
<polygon fill="#63b8ff" stroke="#63b8ff" points="383.21,-908.6 384.89,-898.13 377.05,-905.26 383.21,-908.6"/>
</a>
</g>
</g>
<!-- Node16 -->
<g id="Node000016" class="node">
<title>Node16</title>
<g id="a_Node000016"><a xlink:href="../../d0/db5/classFsBaseFile_acb9b1075f4db76fa7e0521c9aff9c3df.xhtml#acb9b1075f4db76fa7e0521c9aff9c3df" target="_top" xlink:title=" ">
<polygon fill="white" stroke="#666666" points="293,-1018 171,-1018 171,-999 293,-999 293,-1018"/>
<text text-anchor="middle" x="232" y="-1006" font-family="Helvetica,sans-Serif" font-size="10.00">FsBaseFile::openNext</text>
</a>
</g>
</g>
<!-- Node5&#45;&gt;Node16 -->
<g id="edge14_Node000005_Node000016" class="edge">
<title>Node5&#45;&gt;Node16</title>
<g id="a_edge14_Node000005_Node000016"><a xlink:title=" ">
<path fill="none" stroke="#63b8ff" d="M378.65,-906.61C363.48,-929.32 334.46,-967.91 300,-989.5 293.85,-993.35 286.91,-996.44 279.87,-998.91"/>
<polygon fill="#63b8ff" stroke="#63b8ff" points="381.59,-908.5 384.11,-898.21 375.73,-904.68 381.59,-908.5"/>
</a>
</g>
</g>
<!-- Node18 -->
<g id="Node000018" class="node">
<title>Node18</title>
<g id="a_Node000018"><a xlink:href="../../d0/db5/classFsBaseFile_a0b4574665073272dd811224df9f0e23c.xhtml#a0b4574665073272dd811224df9f0e23c" target="_top" xlink:title=" ">
<polygon fill="white" stroke="#666666" points="293,-981 171,-981 171,-962 293,-962 293,-981"/>
<text text-anchor="middle" x="232" y="-969" font-family="Helvetica,sans-Serif" font-size="10.00">FsBaseFile::openRoot</text>
</a>
</g>
</g>
<!-- Node5&#45;&gt;Node18 -->
<g id="edge16_Node000005_Node000018" class="edge">
<title>Node5&#45;&gt;Node18</title>
<g id="a_edge16_Node000005_Node000018"><a xlink:title=" ">
<path fill="none" stroke="#63b8ff" d="M371.43,-904.61C354.03,-918.98 326.74,-939.67 300,-952.5 292.15,-956.26 283.42,-959.41 274.92,-962"/>
<polygon fill="#63b8ff" stroke="#63b8ff" points="373.74,-907.24 379.14,-898.13 369.24,-901.89 373.74,-907.24"/>
</a>
</g>
</g>
<!-- Node19 -->
<g id="Node000019" class="node">
<title>Node19</title>
<g id="a_Node000019"><a xlink:href="../../d0/db5/classFsBaseFile_ae4f6d168072bb4f2a61976f621659d20.xhtml#ae4f6d168072bb4f2a61976f621659d20" target="_top" xlink:title=" ">
<polygon fill="white" stroke="#666666" points="294.5,-944 169.5,-944 169.5,-925 294.5,-925 294.5,-944"/>
<text text-anchor="middle" x="232" y="-932" font-family="Helvetica,sans-Serif" font-size="10.00">FsBaseFile::operator=</text>
</a>
</g>
</g>
<!-- Node5&#45;&gt;Node19 -->
<g id="edge17_Node000005_Node000019" class="edge">
<title>Node5&#45;&gt;Node19</title>
<g id="a_edge17_Node000005_Node000019"><a xlink:title=" ">
<path fill="none" stroke="#63b8ff" d="M348.69,-901.04C333.41,-905.64 315.93,-910.85 300,-915.5 289.32,-918.62 277.67,-921.95 267.11,-924.93"/>
<polygon fill="#63b8ff" stroke="#63b8ff" points="349.82,-904.35 358.38,-898.11 347.79,-897.65 349.82,-904.35"/>
</a>
</g>
</g>
<!-- Node20 -->
<g id="Node000020" class="node">
<title>Node20</title>
<g id="a_Node000020"><a xlink:href="../../d0/db5/classFsBaseFile_ab148c0eb86197666a251a2f0a15f2a02.xhtml#ab148c0eb86197666a251a2f0a15f2a02" target="_top" xlink:title=" ">
<polygon fill="white" stroke="#666666" points="300,-907 164,-907 164,-888 300,-888 300,-907"/>
<text text-anchor="middle" x="232" y="-895" font-family="Helvetica,sans-Serif" font-size="10.00">FsBaseFile::~FsBaseFile</text>
</a>
</g>
</g>
<!-- Node5&#45;&gt;Node20 -->
<g id="edge18_Node000005_Node000020" class="edge">
<title>Node5&#45;&gt;Node20</title>
<g id="a_edge18_Node000005_Node000020"><a xlink:title=" ">
<path fill="none" stroke="#63b8ff" d="M330.25,-891.93C320.41,-892.49 310.16,-893.08 300.15,-893.65"/>
<polygon fill="#63b8ff" stroke="#63b8ff" points="330.54,-895.41 340.32,-891.35 330.14,-888.43 330.54,-895.41"/>
</a>
</g>
</g>
<!-- Node8 -->
<g id="Node000008" class="node">
<title>Node8</title>
<g id="a_Node000008"><a xlink:href="../../d0/db5/classFsBaseFile_a6034c6dfce320e2869901890398831b4.xhtml#a6034c6dfce320e2869901890398831b4" target="_top" xlink:title=" ">
<polygon fill="white" stroke="#666666" points="128,-685 0,-685 0,-666 128,-666 128,-685"/>
<text text-anchor="middle" x="64" y="-673" font-family="Helvetica,sans-Serif" font-size="10.00">FsBaseFile::FsBaseFile</text>
</a>
</g>
</g>
<!-- Node7&#45;&gt;Node8 -->
<g id="edge7_Node000007_Node000008" class="edge">
<title>Node7&#45;&gt;Node8</title>
<g id="a_edge7_Node000007_Node000008"><a xlink:title=" ">
<path fill="none" stroke="#63b8ff" d="M178.42,-650.22C155.69,-655.29 129.42,-661.14 107.89,-665.94"/>
<polygon fill="#63b8ff" stroke="#63b8ff" points="179.25,-653.62 188.25,-648.03 177.73,-646.79 179.25,-653.62"/>
</a>
</g>
</g>
<!-- Node9 -->
<g id="Node000009" class="node">
<title>Node9</title>
<g id="a_Node000009"><a xlink:href="../../d4/d27/classFsVolume_ab429316ed9e57a52ecfb938aca7dff6c.xhtml#ab429316ed9e57a52ecfb938aca7dff6c" target="_top" xlink:title=" ">
<polygon fill="white" stroke="#666666" points="103.5,-648 24.5,-648 24.5,-629 103.5,-629 103.5,-648"/>
<text text-anchor="middle" x="64" y="-636" font-family="Helvetica,sans-Serif" font-size="10.00">FsVolume::ls</text>
</a>
</g>
</g>
<!-- Node7&#45;&gt;Node9 -->
<g id="edge8_Node000007_Node000009" class="edge">
<title>Node7&#45;&gt;Node9</title>
<g id="a_edge8_Node000007_Node000009"><a xlink:title=" ">
<path fill="none" stroke="#63b8ff" d="M171.87,-638.5C149.16,-638.5 123.85,-638.5 103.57,-638.5"/>
<polygon fill="#63b8ff" stroke="#63b8ff" points="172.09,-642 182.09,-638.5 172.09,-635 172.09,-642"/>
</a>
</g>
</g>
<!-- Node10 -->
<g id="Node000010" class="node">
<title>Node10</title>
<g id="a_Node000010"><a xlink:href="../../d4/d27/classFsVolume_a6d51ed047796f7d382384c60c7bfac75.xhtml#a6d51ed047796f7d382384c60c7bfac75" target="_top" xlink:title=" ">
<polygon fill="#fff0f0" stroke="red" points="111.5,-611 16.5,-611 16.5,-592 111.5,-592 111.5,-611"/>
<text text-anchor="middle" x="64" y="-599" font-family="Helvetica,sans-Serif" font-size="10.00">FsVolume::open</text>
</a>
</g>
</g>
<!-- Node7&#45;&gt;Node10 -->
<g id="edge9_Node000007_Node000010" class="edge">
<title>Node7&#45;&gt;Node10</title>
<g id="a_edge9_Node000007_Node000010"><a xlink:title=" ">
<path fill="none" stroke="#63b8ff" d="M178.42,-626.78C155.69,-621.71 129.42,-615.86 107.89,-611.06"/>
<polygon fill="#63b8ff" stroke="#63b8ff" points="177.73,-630.21 188.25,-628.97 179.25,-623.38 177.73,-630.21"/>
</a>
</g>
</g>
<!-- Node15 -->
<g id="Node000015" class="node">
<title>Node15</title>
<g id="a_Node000015"><a xlink:href="../../d0/db5/classFsBaseFile_a59568fad94a70ea88e167ac8fb4bd43c.xhtml#a59568fad94a70ea88e167ac8fb4bd43c" target="_top" xlink:title=" ">
<polygon fill="white" stroke="#666666" points="113.5,-1055 14.5,-1055 14.5,-1036 113.5,-1036 113.5,-1055"/>
<text text-anchor="middle" x="64" y="-1043" font-family="Helvetica,sans-Serif" font-size="10.00">FsBaseFile::open</text>
</a>
</g>
</g>
<!-- Node14&#45;&gt;Node15 -->
<g id="edge13_Node000014_Node000015" class="edge">
<title>Node14&#45;&gt;Node15</title>
<g id="a_edge13_Node000014_Node000015"><a xlink:title=" ">
<path fill="none" stroke="#63b8ff" d="M161.16,-1045.5C145.18,-1045.5 128.54,-1045.5 113.67,-1045.5"/>
<polygon fill="#63b8ff" stroke="#63b8ff" points="161.54,-1049 171.54,-1045.5 161.54,-1042 161.54,-1049"/>
</a>
</g>
</g>
<!-- Node17 -->
<g id="Node000017" class="node">
<title>Node17</title>
<g id="a_Node000017"><a xlink:href="../../d5/d4f/classFsFile_ab2f85961e3831d0d654da862becb7433.xhtml#ab2f85961e3831d0d654da862becb7433" target="_top" xlink:title=" ">
<polygon fill="white" stroke="#666666" points="122,-1018 6,-1018 6,-999 122,-999 122,-1018"/>
<text text-anchor="middle" x="64" y="-1006" font-family="Helvetica,sans-Serif" font-size="10.00">FsFile::openNextFile</text>
</a>
</g>
</g>
<!-- Node16&#45;&gt;Node17 -->
<g id="edge15_Node000016_Node000017" class="edge">
<title>Node16&#45;&gt;Node17</title>
<g id="a_edge15_Node000016_Node000017"><a xlink:title=" ">
<path fill="none" stroke="#63b8ff" d="M160.43,-1008.5C147.62,-1008.5 134.4,-1008.5 122.04,-1008.5"/>
<polygon fill="#63b8ff" stroke="#63b8ff" points="160.6,-1012 170.6,-1008.5 160.6,-1005 160.6,-1012"/>
</a>
</g>
</g>
<!-- Node22 -->
<g id="Node000022" class="node">
<title>Node22</title>
<g id="a_Node000022"><a xlink:href="../../d9/dce/classExFatVolume_a2e44d5d26a25d610c4b0d97fa5b1f505.xhtml#a2e44d5d26a25d610c4b0d97fa5b1f505" target="_top" xlink:title=" ">
<polygon fill="white" stroke="#666666" points="279,-611 185,-611 185,-592 279,-592 279,-611"/>
<text text-anchor="middle" x="232" y="-599" font-family="Helvetica,sans-Serif" font-size="10.00">ExFatVolume::ls</text>
</a>
</g>
</g>
<!-- Node21&#45;&gt;Node22 -->
<g id="edge20_Node000021_Node000022" class="edge">
<title>Node21&#45;&gt;Node22</title>
<g id="a_edge20_Node000021_Node000022"><a xlink:title=" ">
<path fill="none" stroke="#63b8ff" d="M381.92,-729.41C368.91,-701.03 340.61,-648.01 300,-619.5 293.79,-615.14 286.58,-611.84 279.23,-609.33"/>
<polygon fill="#63b8ff" stroke="#63b8ff" points="378.76,-730.93 386.01,-738.66 385.16,-728.1 378.76,-730.93"/>
</a>
</g>
</g>
<!-- Node21&#45;&gt;Node23 -->
<g id="edge21_Node000021_Node000023" class="edge">
<title>Node21&#45;&gt;Node23</title>
<g id="a_edge21_Node000021_Node000023"><a xlink:title=" ">
<path fill="none" stroke="#63b8ff" d="M344.08,-759.62C320.19,-765.4 291.4,-772.36 269.12,-777.76"/>
<polygon fill="#63b8ff" stroke="#63b8ff" points="345.09,-762.97 353.98,-757.22 343.44,-756.17 345.09,-762.97"/>
</a>
</g>
</g>
<!-- Node24 -->
<g id="Node000024" class="node">
<title>Node24</title>
<g id="a_Node000024"><a xlink:href="../../d9/dce/classExFatVolume_abe1e8cad0a5922984b28edfd987bc856.xhtml#abe1e8cad0a5922984b28edfd987bc856" target="_top" xlink:title=" ">
<polygon fill="white" stroke="#666666" points="279,-759 185,-759 185,-740 279,-740 279,-759"/>
<text text-anchor="middle" x="232" y="-747" font-family="Helvetica,sans-Serif" font-size="10.00">ExFatVolume::ls</text>
</a>
</g>
</g>
<!-- Node21&#45;&gt;Node24 -->
<g id="edge22_Node000021_Node000024" class="edge">
<title>Node21&#45;&gt;Node24</title>
<g id="a_edge22_Node000021_Node000024"><a xlink:title=" ">
<path fill="none" stroke="#63b8ff" d="M343.71,-748.79C323.4,-748.92 299.61,-749.08 279.29,-749.21"/>
<polygon fill="#63b8ff" stroke="#63b8ff" points="344,-752.29 353.98,-748.73 343.96,-745.29 344,-752.29"/>
</a>
</g>
</g>
<!-- Node25&#45;&gt;Node6 -->
<g id="edge28_Node000025_Node000006" class="edge">
<title>Node25&#45;&gt;Node6</title>
<g id="a_edge28_Node000025_Node000006"><a xlink:title=" ">
<path fill="none" stroke="#63b8ff" d="M338.43,-836.32C317.72,-841.07 294.17,-846.47 274.58,-850.97"/>
<polygon fill="#63b8ff" stroke="#63b8ff" points="339.37,-839.7 348.34,-834.05 337.81,-832.88 339.37,-839.7"/>
</a>
</g>
</g>
<!-- Node25&#45;&gt;Node25 -->
<g id="edge27_Node000025_Node000025" class="edge">
<title>Node25&#45;&gt;Node25</title>
<g id="a_edge27_Node000025_Node000025"><a xlink:title=" ">
<path fill="none" stroke="#63b8ff" d="M416.3,-843.19C414.92,-848.2 406.49,-852 391,-852 366.83,-852 359.84,-842.73 370.04,-834.08"/>
<polygon fill="#63b8ff" stroke="#63b8ff" points="419.42,-841.61 411.96,-834.08 413.1,-844.62 419.42,-841.61"/>
</a>
</g>
</g>
<!-- Node26 -->
<g id="Node000026" class="node">
<title>Node26</title>
<g id="a_Node000026"><a xlink:href="../../d9/dce/classExFatVolume_abb00cfff7943fe637a99b292798865e0.xhtml#abb00cfff7943fe637a99b292798865e0" target="_top" xlink:title=" ">
<polygon fill="white" stroke="#666666" points="289,-833 175,-833 175,-814 289,-814 289,-833"/>
<text text-anchor="middle" x="232" y="-821" font-family="Helvetica,sans-Serif" font-size="10.00">ExFatVolume::mkdir</text>
</a>
</g>
</g>
<!-- Node25&#45;&gt;Node26 -->
<g id="edge25_Node000025_Node000026" class="edge">
<title>Node25&#45;&gt;Node26</title>
<g id="a_edge25_Node000025_Node000026"><a xlink:title=" ">
<path fill="none" stroke="#63b8ff" d="M333.12,-824.14C318.82,-824.05 303.48,-823.95 289.21,-823.86"/>
<polygon fill="#63b8ff" stroke="#63b8ff" points="333.3,-827.64 343.32,-824.2 333.34,-820.64 333.3,-827.64"/>
</a>
</g>
</g>
<!-- Node27 -->
<g id="Node000027" class="node">
<title>Node27</title>
<g id="a_Node000027"><a xlink:href="../../d9/dce/classExFatVolume_a0f4cf7e2853225380574724314327597.xhtml#a0f4cf7e2853225380574724314327597" target="_top" xlink:title=" ">
<polygon fill="white" stroke="#666666" points="121,-833 7,-833 7,-814 121,-814 121,-833"/>
<text text-anchor="middle" x="64" y="-821" font-family="Helvetica,sans-Serif" font-size="10.00">ExFatVolume::mkdir</text>
</a>
</g>
</g>
<!-- Node26&#45;&gt;Node27 -->
<g id="edge26_Node000026_Node000027" class="edge">
<title>Node26&#45;&gt;Node27</title>
<g id="a_edge26_Node000026_Node000027"><a xlink:title=" ">
<path fill="none" stroke="#63b8ff" d="M164.49,-823.5C150.12,-823.5 135.07,-823.5 121.14,-823.5"/>
<polygon fill="#63b8ff" stroke="#63b8ff" points="164.8,-827 174.8,-823.5 164.8,-820 164.8,-827"/>
</a>
</g>
</g>
<!-- Node28&#45;&gt;Node7 -->
<g id="edge44_Node000028_Node000007" class="edge">
<title>Node28&#45;&gt;Node7</title>
<g id="a_edge44_Node000028_Node000007"><a xlink:title=" ">
<path fill="none" stroke="#63b8ff" d="M387.75,-418.18C381.78,-461.26 361.48,-564.46 300,-619.5 294.69,-624.26 288.26,-627.83 281.52,-630.52"/>
<polygon fill="#63b8ff" stroke="#63b8ff" points="391.24,-418.51 389.03,-408.15 384.3,-417.63 391.24,-418.51"/>
</a>
</g>
</g>
<!-- Node28&#45;&gt;Node12 -->
<g id="edge45_Node000028_Node000012" class="edge">
<title>Node28&#45;&gt;Node12</title>
<g id="a_edge45_Node000028_Node000012"><a xlink:title=" ">
<path fill="none" stroke="#63b8ff" d="M389.07,-418.13C385.71,-466.1 370.32,-590.24 300,-656.5 294.81,-661.39 288.45,-665.04 281.74,-667.75"/>
<polygon fill="#63b8ff" stroke="#63b8ff" points="392.56,-418.32 389.67,-408.12 385.58,-417.9 392.56,-418.32"/>
</a>
</g>
</g>
<!-- Node28&#45;&gt;Node13 -->
<g id="edge46_Node000028_Node000013" class="edge">
<title>Node28&#45;&gt;Node13</title>
<g id="a_edge46_Node000028_Node000013"><a xlink:title=" ">
<path fill="none" stroke="#63b8ff" d="M390.07,-418.37C389.13,-471.12 379.09,-615.96 300,-693.5 294.82,-698.58 288.39,-702.32 281.57,-705.07"/>
<polygon fill="#63b8ff" stroke="#63b8ff" points="393.57,-418.08 390.15,-408.05 386.57,-418.02 393.57,-418.08"/>
</a>
</g>
</g>
<!-- Node28&#45;&gt;Node22 -->
<g id="edge39_Node000028_Node000022" class="edge">
<title>Node28&#45;&gt;Node22</title>
<g id="a_edge39_Node000028_Node000022"><a xlink:title=" ">
<path fill="none" stroke="#63b8ff" d="M385.9,-418.43C377.08,-456.23 352.67,-538.48 300,-582.5 293.97,-587.54 286.68,-591.24 279.16,-593.97"/>
<polygon fill="#63b8ff" stroke="#63b8ff" points="389.42,-418.74 388.15,-408.22 382.58,-417.23 389.42,-418.74"/>
</a>
</g>
</g>
<!-- Node29 -->
<g id="Node000029" class="node">
<title>Node29</title>
<g id="a_Node000029"><a xlink:href="../../d9/dce/classExFatVolume_a4b089dc93a25d9d87d8dc3fc42a139d5.xhtml#a4b089dc93a25d9d87d8dc3fc42a139d5" target="_top" xlink:title=" ">
<polygon fill="white" stroke="#666666" points="288,-204 176,-204 176,-185 288,-185 288,-204"/>
<text text-anchor="middle" x="232" y="-192" font-family="Helvetica,sans-Serif" font-size="10.00">ExFatVolume::attrib</text>
</a>
</g>
</g>
<!-- Node28&#45;&gt;Node29 -->
<g id="edge30_Node000028_Node000029" class="edge">
<title>Node28&#45;&gt;Node29</title>
<g id="a_edge30_Node000028_Node000029"><a xlink:title=" ">
<path fill="none" stroke="#63b8ff" d="M339.8,-383.22C338.45,-382.07 337.17,-380.83 336,-379.5 285.8,-322.54 352.33,-267.52 300,-212.5 296.6,-208.92 292.57,-206.03 288.19,-203.69"/>
<polygon fill="#63b8ff" stroke="#63b8ff" points="338.03,-386.25 348.29,-388.92 341.94,-380.44 338.03,-386.25"/>
</a>
</g>
</g>
<!-- Node32 -->
<g id="Node000032" class="node">
<title>Node32</title>
<g id="a_Node000032"><a xlink:href="../../d9/dce/classExFatVolume_ae79fbebf59d900b845ade864d9d3c4dd.xhtml#ae79fbebf59d900b845ade864d9d3c4dd" target="_top" xlink:title=" ">
<polygon fill="white" stroke="#666666" points="288,-167 176,-167 176,-148 288,-148 288,-167"/>
<text text-anchor="middle" x="232" y="-155" font-family="Helvetica,sans-Serif" font-size="10.00">ExFatVolume::attrib</text>
</a>
</g>
</g>
<!-- Node28&#45;&gt;Node32 -->
<g id="edge33_Node000028_Node000032" class="edge">
<title>Node28&#45;&gt;Node32</title>
<g id="a_edge33_Node000028_Node000032"><a xlink:title=" ">
<path fill="none" stroke="#63b8ff" d="M339.31,-382.9C338.13,-381.84 337.02,-380.71 336,-379.5 276.44,-309.3 362.18,-243.4 300,-175.5 296.58,-171.77 292.48,-168.78 288.02,-166.38"/>
<polygon fill="#63b8ff" stroke="#63b8ff" points="337.68,-386.03 347.88,-388.9 341.69,-380.3 337.68,-386.03"/>
</a>
</g>
</g>
<!-- Node33 -->
<g id="Node000033" class="node">
<title>Node33</title>
<g id="a_Node000033"><a xlink:href="../../d9/dce/classExFatVolume_a0f9c04da8382686190df76ff957e9a19.xhtml#a0f9c04da8382686190df76ff957e9a19" target="_top" xlink:title=" ">
<polygon fill="white" stroke="#666666" points="287,-130 177,-130 177,-111 287,-111 287,-130"/>
<text text-anchor="middle" x="232" y="-118" font-family="Helvetica,sans-Serif" font-size="10.00">ExFatVolume::chdir</text>
</a>
</g>
</g>
<!-- Node28&#45;&gt;Node33 -->
<g id="edge34_Node000028_Node000033" class="edge">
<title>Node28&#45;&gt;Node33</title>
<g id="a_edge34_Node000028_Node000033"><a xlink:title=" ">
<path fill="none" stroke="#63b8ff" d="M339.26,-382.93C338.1,-381.86 337.01,-380.72 336,-379.5 267.03,-296 372.09,-219.32 300,-138.5 296.39,-134.46 291.98,-131.28 287.16,-128.78"/>
<polygon fill="#63b8ff" stroke="#63b8ff" points="337.6,-386.05 347.79,-388.98 341.65,-380.34 337.6,-386.05"/>
</a>
</g>
</g>
<!-- Node34 -->
<g id="Node000034" class="node">
<title>Node34</title>
<g id="a_Node000034"><a xlink:href="../../d6/d7f/classExFatFile_ab1be7938b64f74a51581f4839fefed4b.xhtml#ab1be7938b64f74a51581f4839fefed4b" target="_top" xlink:title=" ">
<polygon fill="white" stroke="#666666" points="287,-93 177,-93 177,-74 287,-74 287,-93"/>
<text text-anchor="middle" x="232" y="-81" font-family="Helvetica,sans-Serif" font-size="10.00">ExFatFile::ExFatFile</text>
</a>
</g>
</g>
<!-- Node28&#45;&gt;Node34 -->
<g id="edge35_Node000028_Node000034" class="edge">
<title>Node28&#45;&gt;Node34</title>
<g id="a_edge35_Node000028_Node000034"><a xlink:title=" ">
<path fill="none" stroke="#63b8ff" d="M339.16,-382.9C338.04,-381.84 336.98,-380.71 336,-379.5 257.6,-282.67 382.02,-195.28 300,-101.5 296.43,-97.42 292.05,-94.22 287.25,-91.71"/>
<polygon fill="#63b8ff" stroke="#63b8ff" points="337.3,-385.87 347.45,-388.89 341.4,-380.19 337.3,-385.87"/>
</a>
</g>
</g>
<!-- Node35 -->
<g id="Node000035" class="node">
<title>Node35</title>
<g id="a_Node000035"><a xlink:href="../../d6/d7f/classExFatFile_a32df2d7ac56a76a647cedf4192ac9abe.xhtml#a32df2d7ac56a76a647cedf4192ac9abe" target="_top" xlink:title=" ">
<polygon fill="white" stroke="#666666" points="279.5,-56 184.5,-56 184.5,-37 279.5,-37 279.5,-56"/>
<text text-anchor="middle" x="232" y="-44" font-family="Helvetica,sans-Serif" font-size="10.00">ExFatFile::exists</text>
</a>
</g>
</g>
<!-- Node28&#45;&gt;Node35 -->
<g id="edge36_Node000028_Node000035" class="edge">
<title>Node28&#45;&gt;Node35</title>
<g id="a_edge36_Node000028_Node000035"><a xlink:title=" ">
<path fill="none" stroke="#63b8ff" d="M339.14,-382.92C338.02,-381.85 336.97,-380.71 336,-379.5 248.15,-269.33 391.96,-171.26 300,-64.5 294.65,-58.29 287.42,-54.12 279.68,-51.32"/>
<polygon fill="#63b8ff" stroke="#63b8ff" points="337.25,-385.87 347.39,-388.94 341.38,-380.22 337.25,-385.87"/>
</a>
</g>
</g>
<!-- Node37 -->
<g id="Node000037" class="node">
<title>Node37</title>
<g id="a_Node000037"><a xlink:href="../../d9/dce/classExFatVolume_a5e2e029b02d3c98bc0b8fcbdab566af6.xhtml#a5e2e029b02d3c98bc0b8fcbdab566af6" target="_top" xlink:title=" ">
<polygon fill="white" stroke="#666666" points="289.5,-19 174.5,-19 174.5,0 289.5,0 289.5,-19"/>
<text text-anchor="middle" x="232" y="-7" font-family="Helvetica,sans-Serif" font-size="10.00">ExFatVolume::exists</text>
</a>
</g>
</g>
<!-- Node28&#45;&gt;Node37 -->
<g id="edge38_Node000028_Node000037" class="edge">
<title>Node28&#45;&gt;Node37</title>
<g id="a_edge38_Node000028_Node000037"><a xlink:title=" ">
<path fill="none" stroke="#63b8ff" d="M339.12,-382.93C338.01,-381.86 336.96,-380.72 336,-379.5 238.69,-255.96 401.93,-147.26 300,-27.5 297.03,-24.01 293.47,-21.17 289.56,-18.85"/>
<polygon fill="#63b8ff" stroke="#63b8ff" points="337.22,-385.87 347.35,-388.97 341.36,-380.23 337.22,-385.87"/>
</a>
</g>
</g>
<!-- Node38 -->
<g id="Node000038" class="node">
<title>Node38</title>
<g id="a_Node000038"><a xlink:href="../../d6/d7f/classExFatFile_aaf738b1f00b8ae1664020f238c1a9a48.xhtml#aaf738b1f00b8ae1664020f238c1a9a48" target="_top" xlink:title=" ">
<polygon fill="white" stroke="#666666" points="277,-574 187,-574 187,-555 277,-555 277,-574"/>
<text text-anchor="middle" x="232" y="-562" font-family="Helvetica,sans-Serif" font-size="10.00">ExFatFile::open</text>
</a>
</g>
</g>
<!-- Node28&#45;&gt;Node38 -->
<g id="edge40_Node000028_Node000038" class="edge">
<title>Node28&#45;&gt;Node38</title>
<g id="a_edge40_Node000028_Node000038"><a xlink:title=" ">
<path fill="none" stroke="#63b8ff" d="M383.45,-417.89C371.78,-449.46 344.36,-511.85 300,-545.5 293.26,-550.61 285.19,-554.35 277.03,-557.08"/>
<polygon fill="#63b8ff" stroke="#63b8ff" points="386.88,-418.69 386.92,-408.1 380.28,-416.35 386.88,-418.69"/>
</a>
</g>
</g>
<!-- Node39 -->
<g id="Node000039" class="node">
<title>Node39</title>
<g id="a_Node000039"><a xlink:href="../../d9/dce/classExFatVolume_ae5d8f37ac6505471ef78fb4db518fb8b.xhtml#ae5d8f37ac6505471ef78fb4db518fb8b" target="_top" xlink:title=" ">
<polygon fill="white" stroke="#666666" points="287,-537 177,-537 177,-518 287,-518 287,-537"/>
<text text-anchor="middle" x="232" y="-525" font-family="Helvetica,sans-Serif" font-size="10.00">ExFatVolume::open</text>
</a>
</g>
</g>
<!-- Node28&#45;&gt;Node39 -->
<g id="edge41_Node000028_Node000039" class="edge">
<title>Node28&#45;&gt;Node39</title>
<g id="a_edge41_Node000028_Node000039"><a xlink:title=" ">
<path fill="none" stroke="#63b8ff" d="M379.9,-416.8C365.42,-441.34 336.43,-484.6 300,-508.5 294.14,-512.35 287.49,-515.43 280.72,-517.89"/>
<polygon fill="#63b8ff" stroke="#63b8ff" points="382.95,-418.52 384.89,-408.1 376.88,-415.04 382.95,-418.52"/>
</a>
</g>
</g>
<!-- Node41 -->
<g id="Node000041" class="node">
<title>Node41</title>
<g id="a_Node000041"><a xlink:href="../../d6/d7f/classExFatFile_aaa69f5263c70b1945fbbb672cfdf5d15.xhtml#aaa69f5263c70b1945fbbb672cfdf5d15" target="_top" xlink:title=" ">
<polygon fill="white" stroke="#666666" points="277,-500 187,-500 187,-481 277,-481 277,-500"/>
<text text-anchor="middle" x="232" y="-488" font-family="Helvetica,sans-Serif" font-size="10.00">ExFatFile::open</text>
</a>
</g>
</g>
<!-- Node28&#45;&gt;Node41 -->
<g id="edge43_Node000028_Node000041" class="edge">
<title>Node28&#45;&gt;Node41</title>
<g id="a_edge43_Node000028_Node000041"><a xlink:title=" ">
<path fill="none" stroke="#63b8ff" d="M373.53,-415.39C356.53,-431.91 328.54,-456.68 300,-471.5 292.7,-475.29 284.56,-478.41 276.52,-480.94"/>
<polygon fill="#63b8ff" stroke="#63b8ff" points="376.31,-417.55 380.94,-408.02 371.38,-412.59 376.31,-417.55"/>
</a>
</g>
</g>
<!-- Node42 -->
<g id="Node000042" class="node">
<title>Node42</title>
<g id="a_Node000042"><a xlink:href="../../d6/d7f/classExFatFile_a69c6f8e9a10bcfb83e378ef73f556ab7.xhtml#a69c6f8e9a10bcfb83e378ef73f556ab7" target="_top" xlink:title=" ">
<polygon fill="white" stroke="#666666" points="277,-463 187,-463 187,-444 277,-444 277,-463"/>
<text text-anchor="middle" x="232" y="-451" font-family="Helvetica,sans-Serif" font-size="10.00">ExFatFile::open</text>
</a>
</g>
</g>
<!-- Node28&#45;&gt;Node42 -->
<g id="edge47_Node000028_Node000042" class="edge">
<title>Node28&#45;&gt;Node42</title>
<g id="a_edge47_Node000028_Node000042"><a xlink:title=" ">
<path fill="none" stroke="#63b8ff" d="M358.53,-412.02C341.39,-419.15 319.71,-427.78 300,-434.5 290.16,-437.85 279.37,-441.1 269.38,-443.93"/>
<polygon fill="#63b8ff" stroke="#63b8ff" points="360.18,-415.12 368.05,-408.03 357.47,-408.67 360.18,-415.12"/>
</a>
</g>
</g>
<!-- Node43 -->
<g id="Node000043" class="node">
<title>Node43</title>
<g id="a_Node000043"><a xlink:href="../../d6/d7f/classExFatFile_a145a2fa9269876bae17a44569b4625fb.xhtml#a145a2fa9269876bae17a44569b4625fb" target="_top" xlink:title=" ">
<polygon fill="white" stroke="#666666" points="284,-426 180,-426 180,-407 284,-407 284,-426"/>
<text text-anchor="middle" x="232" y="-414" font-family="Helvetica,sans-Serif" font-size="10.00">ExFatFile::remove</text>
</a>
</g>
</g>
<!-- Node28&#45;&gt;Node43 -->
<g id="edge48_Node000028_Node000043" class="edge">
<title>Node28&#45;&gt;Node43</title>
<g id="a_edge48_Node000028_Node000043"><a xlink:title=" ">
<path fill="none" stroke="#63b8ff" d="M335.66,-404.73C318.91,-406.65 300.54,-408.76 284.02,-410.65"/>
<polygon fill="#63b8ff" stroke="#63b8ff" points="336.31,-408.18 345.85,-403.56 335.52,-401.22 336.31,-408.18"/>
</a>
</g>
</g>
<!-- Node44 -->
<g id="Node000044" class="node">
<title>Node44</title>
<g id="a_Node000044"><a xlink:href="../../d9/dce/classExFatVolume_ac4d15484d30dd40ecdb4d331d29534d9.xhtml#ac4d15484d30dd40ecdb4d331d29534d9" target="_top" xlink:title=" ">
<polygon fill="white" stroke="#666666" points="293.5,-389 170.5,-389 170.5,-370 293.5,-370 293.5,-389"/>
<text text-anchor="middle" x="232" y="-377" font-family="Helvetica,sans-Serif" font-size="10.00">ExFatVolume::remove</text>
</a>
</g>
</g>
<!-- Node28&#45;&gt;Node44 -->
<g id="edge49_Node000028_Node000044" class="edge">
<title>Node28&#45;&gt;Node44</title>
<g id="a_edge49_Node000028_Node000044"><a xlink:title=" ">
<path fill="none" stroke="#63b8ff" d="M335.68,-391.93C322.08,-390.28 307.4,-388.5 293.51,-386.82"/>
<polygon fill="#63b8ff" stroke="#63b8ff" points="335.5,-395.43 345.85,-393.16 336.34,-388.48 335.5,-395.43"/>
</a>
</g>
</g>
<!-- Node45 -->
<g id="Node000045" class="node">
<title>Node45</title>
<g id="a_Node000045"><a xlink:href="../../d9/dce/classExFatVolume_a6a31fd969e29608509e75adbf46fcd5d.xhtml#a6a31fd969e29608509e75adbf46fcd5d" target="_top" xlink:title=" ">
<polygon fill="white" stroke="#666666" points="293.5,-352 170.5,-352 170.5,-333 293.5,-333 293.5,-352"/>
<text text-anchor="middle" x="232" y="-340" font-family="Helvetica,sans-Serif" font-size="10.00">ExFatVolume::rename</text>
</a>
</g>
</g>
<!-- Node28&#45;&gt;Node45 -->
<g id="edge50_Node000028_Node000045" class="edge">
<title>Node28&#45;&gt;Node45</title>
<g id="a_edge50_Node000028_Node000045"><a xlink:title=" ">
<path fill="none" stroke="#63b8ff" d="M350.74,-385.45C345.74,-383.57 340.72,-381.56 336,-379.5 319.42,-372.26 316.84,-367.11 300,-360.5 291.82,-357.29 282.85,-354.44 274.22,-352.02"/>
<polygon fill="#63b8ff" stroke="#63b8ff" points="349.67,-388.79 360.27,-388.92 352.07,-382.21 349.67,-388.79"/>
</a>
</g>
</g>
<!-- Node47 -->
<g id="Node000047" class="node">
<title>Node47</title>
<g id="a_Node000047"><a xlink:href="../../d6/d7f/classExFatFile_a707e3a4139319fb5d4e31d591b3c5b77.xhtml#a707e3a4139319fb5d4e31d591b3c5b77" target="_top" xlink:title=" ">
<polygon fill="white" stroke="#666666" points="284,-315 180,-315 180,-296 284,-296 284,-315"/>
<text text-anchor="middle" x="232" y="-303" font-family="Helvetica,sans-Serif" font-size="10.00">ExFatFile::rename</text>
</a>
</g>
</g>
<!-- Node28&#45;&gt;Node47 -->
<g id="edge52_Node000028_Node000047" class="edge">
<title>Node28&#45;&gt;Node47</title>
<g id="a_edge52_Node000028_Node000047"><a xlink:title=" ">
<path fill="none" stroke="#63b8ff" d="M343.27,-384.4C340.71,-382.92 338.27,-381.29 336,-379.5 312.79,-361.15 323.89,-340.95 300,-323.5 295.23,-320.02 289.84,-317.21 284.23,-314.95"/>
<polygon fill="#63b8ff" stroke="#63b8ff" points="341.78,-387.57 352.3,-388.89 344.9,-381.3 341.78,-387.57"/>
</a>
</g>
</g>
<!-- Node48 -->
<g id="Node000048" class="node">
<title>Node48</title>
<g id="a_Node000048"><a xlink:href="../../d9/dce/classExFatVolume_afaa44ad57398f8c293b9a35aa150ce75.xhtml#afaa44ad57398f8c293b9a35aa150ce75" target="_top" xlink:title=" ">
<polygon fill="white" stroke="#666666" points="288,-278 176,-278 176,-259 288,-259 288,-278"/>
<text text-anchor="middle" x="232" y="-266" font-family="Helvetica,sans-Serif" font-size="10.00">ExFatVolume::rmdir</text>
</a>
</g>
</g>
<!-- Node28&#45;&gt;Node48 -->
<g id="edge53_Node000028_Node000048" class="edge">
<title>Node28&#45;&gt;Node48</title>
<g id="a_edge53_Node000028_Node000048"><a xlink:title=" ">
<path fill="none" stroke="#63b8ff" d="M341.25,-383.84C339.38,-382.52 337.62,-381.07 336,-379.5 304.18,-348.65 332.97,-316.12 300,-286.5 296.24,-283.12 291.91,-280.36 287.29,-278.12"/>
<polygon fill="#63b8ff" stroke="#63b8ff" points="339.54,-386.9 349.94,-388.92 343.07,-380.86 339.54,-386.9"/>
</a>
</g>
</g>
<!-- Node49 -->
<g id="Node000049" class="node">
<title>Node49</title>
<g id="a_Node000049"><a xlink:href="../../d9/dce/classExFatVolume_a1af3c481f14ff2d390aabe6226658b01.xhtml#a1af3c481f14ff2d390aabe6226658b01" target="_top" xlink:title=" ">
<polygon fill="white" stroke="#666666" points="295,-241 169,-241 169,-222 295,-222 295,-241"/>
<text text-anchor="middle" x="232" y="-229" font-family="Helvetica,sans-Serif" font-size="10.00">ExFatVolume::truncate</text>
</a>
</g>
</g>
<!-- Node28&#45;&gt;Node49 -->
<g id="edge54_Node000028_Node000049" class="edge">
<title>Node28&#45;&gt;Node49</title>
<g id="a_edge54_Node000028_Node000049"><a xlink:title=" ">
<path fill="none" stroke="#63b8ff" d="M339.98,-383.2C338.57,-382.05 337.24,-380.82 336,-379.5 295.08,-335.69 342.56,-291.73 300,-249.5 296.58,-246.11 292.59,-243.33 288.3,-241.07"/>
<polygon fill="#63b8ff" stroke="#63b8ff" points="338.47,-386.39 348.77,-388.87 342.26,-380.51 338.47,-386.39"/>
</a>
</g>
</g>
<!-- Node30 -->
<g id="Node000030" class="node">
<title>Node30</title>
<g id="a_Node000030"><a xlink:href="../../d4/d27/classFsVolume_a10bf5efca24ce1412e03b3e15837b2fd.xhtml#a10bf5efca24ce1412e03b3e15837b2fd" target="_top" xlink:title=" ">
<polygon fill="white" stroke="#666666" points="112.5,-167 15.5,-167 15.5,-148 112.5,-148 112.5,-167"/>
<text text-anchor="middle" x="64" y="-155" font-family="Helvetica,sans-Serif" font-size="10.00">FsVolume::attrib</text>
</a>
</g>
</g>
<!-- Node29&#45;&gt;Node30 -->
<g id="edge31_Node000029_Node000030" class="edge">
<title>Node29&#45;&gt;Node30</title>
<g id="a_edge31_Node000029_Node000030"><a xlink:title=" ">
<path fill="none" stroke="#63b8ff" d="M178.42,-182.78C155.69,-177.71 129.42,-171.86 107.89,-167.06"/>
<polygon fill="#63b8ff" stroke="#63b8ff" points="177.73,-186.21 188.25,-184.97 179.25,-179.38 177.73,-186.21"/>
</a>
</g>
</g>
<!-- Node31 -->
<g id="Node000031" class="node">
<title>Node31</title>
<g id="a_Node000031"><a xlink:href="../../d4/d27/classFsVolume_a76ac996fb61db9665fb5d5b4916ca16f.xhtml#a76ac996fb61db9665fb5d5b4916ca16f" target="_top" xlink:title=" ">
<polygon fill="white" stroke="#666666" points="112.5,-204 15.5,-204 15.5,-185 112.5,-185 112.5,-204"/>
<text text-anchor="middle" x="64" y="-192" font-family="Helvetica,sans-Serif" font-size="10.00">FsVolume::attrib</text>
</a>
</g>
</g>
<!-- Node29&#45;&gt;Node31 -->
<g id="edge32_Node000029_Node000031" class="edge">
<title>Node29&#45;&gt;Node31</title>
<g id="a_edge32_Node000029_Node000031"><a xlink:title=" ">
<path fill="none" stroke="#63b8ff" d="M165.47,-194.5C147.8,-194.5 129.02,-194.5 112.53,-194.5"/>
<polygon fill="#63b8ff" stroke="#63b8ff" points="165.72,-198 175.72,-194.5 165.72,-191 165.72,-198"/>
</a>
</g>
</g>
<!-- Node36 -->
<g id="Node000036" class="node">
<title>Node36</title>
<g id="a_Node000036"><a xlink:href="../../d0/db5/classFsBaseFile_a76aea9766ffeae5454381a0704e62505.xhtml#a76aea9766ffeae5454381a0704e62505" target="_top" xlink:title=" ">
<polygon fill="white" stroke="#666666" points="116,-56 12,-56 12,-37 116,-37 116,-56"/>
<text text-anchor="middle" x="64" y="-44" font-family="Helvetica,sans-Serif" font-size="10.00">FsBaseFile::exists</text>
</a>
</g>
</g>
<!-- Node35&#45;&gt;Node36 -->
<g id="edge37_Node000035_Node000036" class="edge">
<title>Node35&#45;&gt;Node36</title>
<g id="a_edge37_Node000035_Node000036"><a xlink:title=" ">
<path fill="none" stroke="#63b8ff" d="M174.12,-46.5C155.36,-46.5 134.6,-46.5 116.28,-46.5"/>
<polygon fill="#63b8ff" stroke="#63b8ff" points="174.32,-50 184.32,-46.5 174.32,-43 174.32,-50"/>
</a>
</g>
</g>
<!-- Node40 -->
<g id="Node000040" class="node">
<title>Node40</title>
<g id="a_Node000040"><a xlink:href="../../d9/dce/classExFatVolume_a29b670f7086e74ad5c50ecdad2e72d5b.xhtml#a29b670f7086e74ad5c50ecdad2e72d5b" target="_top" xlink:title=" ">
<polygon fill="white" stroke="#666666" points="119,-537 9,-537 9,-518 119,-518 119,-537"/>
<text text-anchor="middle" x="64" y="-525" font-family="Helvetica,sans-Serif" font-size="10.00">ExFatVolume::open</text>
</a>
</g>
</g>
<!-- Node39&#45;&gt;Node40 -->
<g id="edge42_Node000039_Node000040" class="edge">
<title>Node39&#45;&gt;Node40</title>
<g id="a_edge42_Node000039_Node000040"><a xlink:title=" ">
<path fill="none" stroke="#63b8ff" d="M166.52,-527.5C150.88,-527.5 134.31,-527.5 119.19,-527.5"/>
<polygon fill="#63b8ff" stroke="#63b8ff" points="166.65,-531 176.65,-527.5 166.65,-524 166.65,-531"/>
</a>
</g>
</g>
<!-- Node46 -->
<g id="Node000046" class="node">
<title>Node46</title>
<g id="a_Node000046"><a xlink:href="../../d9/dce/classExFatVolume_a1396c06f6c5e138889125d2f62cdbdcb.xhtml#a1396c06f6c5e138889125d2f62cdbdcb" target="_top" xlink:title=" ">
<polygon fill="white" stroke="#666666" points="125.5,-352 2.5,-352 2.5,-333 125.5,-333 125.5,-352"/>
<text text-anchor="middle" x="64" y="-340" font-family="Helvetica,sans-Serif" font-size="10.00">ExFatVolume::rename</text>
</a>
</g>
</g>
<!-- Node45&#45;&gt;Node46 -->
<g id="edge51_Node000045_Node000046" class="edge">
<title>Node45&#45;&gt;Node46</title>
<g id="a_edge51_Node000045_Node000046"><a xlink:title=" ">
<path fill="none" stroke="#63b8ff" d="M160.13,-342.5C148.63,-342.5 136.81,-342.5 125.58,-342.5"/>
<polygon fill="#63b8ff" stroke="#63b8ff" points="160.13,-346 170.13,-342.5 160.13,-339 160.13,-346"/>
</a>
</g>
</g>
<!-- Node50 -->
<g id="Node000050" class="node">
<title>Node50</title>
<g id="a_Node000050"><a xlink:href="../../d9/dce/classExFatVolume_ae6d409b7f24593dca7aae70513e18b70.xhtml#ae6d409b7f24593dca7aae70513e18b70" target="_top" xlink:title=" ">
<polygon fill="white" stroke="#666666" points="127,-241 1,-241 1,-222 127,-222 127,-241"/>
<text text-anchor="middle" x="64" y="-229" font-family="Helvetica,sans-Serif" font-size="10.00">ExFatVolume::truncate</text>
</a>
</g>
</g>
<!-- Node49&#45;&gt;Node50 -->
<g id="edge55_Node000049_Node000050" class="edge">
<title>Node49&#45;&gt;Node50</title>
<g id="a_edge55_Node000049_Node000050"><a xlink:title=" ">
<path fill="none" stroke="#63b8ff" d="M158.71,-231.5C148.17,-231.5 137.39,-231.5 127.08,-231.5"/>
<polygon fill="#63b8ff" stroke="#63b8ff" points="158.72,-235 168.72,-231.5 158.72,-228 158.72,-235"/>
</a>
</g>
</g>
</g>
</svg>
