<?xml version="1.0" encoding="UTF-8" standalone="no"?>
<!DOCTYPE svg PUBLIC "-//W3C//DTD SVG 1.1//EN"
 "http://www.w3.org/Graphics/SVG/1.1/DTD/svg11.dtd">
<!-- Generated by graphviz version 2.43.0 (0)
 -->
<!-- Title: ExFatFile::getCreateDateTime Pages: 1 -->
<svg width="2284pt" height="568pt"
 viewBox="0.00 0.00 2284.00 567.50" xmlns="http://www.w3.org/2000/svg" xmlns:xlink="http://www.w3.org/1999/xlink">
<g id="graph0" class="graph" transform="scale(1 1) rotate(0) translate(4 563.5)">
<title>ExFatFile::getCreateDateTime</title>
<!-- Node1 -->
<g id="Node000001" class="node">
<title>Node1</title>
<g id="a_Node000001"><a xlink:title=" ">
<polygon fill="#999999" stroke="#666666" points="162,-401.5 0,-401.5 0,-382.5 162,-382.5 162,-401.5"/>
<text text-anchor="middle" x="81" y="-389.5" font-family="Helvetica,sans-Serif" font-size="10.00">ExFatFile::getCreateDateTime</text>
</a>
</g>
</g>
<!-- Node2 -->
<g id="Node000002" class="node">
<title>Node2</title>
<g id="a_Node000002"><a xlink:href="../../d0/d63/classExFatPartition.xhtml#a854529565ac49818bce4c3b2ceefedee" target="_top" xlink:title=" ">
<polygon fill="white" stroke="#666666" points="330,-420.5 198,-420.5 198,-401.5 330,-401.5 330,-420.5"/>
<text text-anchor="middle" x="264" y="-408.5" font-family="Helvetica,sans-Serif" font-size="10.00">ExFatPartition::dirCache</text>
</a>
</g>
</g>
<!-- Node1&#45;&gt;Node2 -->
<g id="edge1_Node000001_Node000002" class="edge">
<title>Node1&#45;&gt;Node2</title>
<g id="a_edge1_Node000001_Node000002"><a xlink:title=" ">
<path fill="none" stroke="#63b8ff" d="M162.18,-400.42C170.65,-401.31 179.24,-402.21 187.66,-403.09"/>
<polygon fill="#63b8ff" stroke="#63b8ff" points="187.5,-406.59 197.81,-404.16 188.23,-399.63 187.5,-406.59"/>
</a>
</g>
</g>
<!-- Node37 -->
<g id="Node000037" class="node">
<title>Node37</title>
<g id="a_Node000037"><a xlink:href="../../dc/d87/FsStructs_8h.xhtml#a89aef4aa8e8032eab2982d660e7b8a81" target="_top" xlink:title=" ">
<polygon fill="white" stroke="#666666" points="292,-383.5 236,-383.5 236,-364.5 292,-364.5 292,-383.5"/>
<text text-anchor="middle" x="264" y="-371.5" font-family="Helvetica,sans-Serif" font-size="10.00">getLe16</text>
</a>
</g>
</g>
<!-- Node1&#45;&gt;Node37 -->
<g id="edge58_Node000001_Node000037" class="edge">
<title>Node1&#45;&gt;Node37</title>
<g id="a_edge58_Node000001_Node000037"><a xlink:title=" ">
<path fill="none" stroke="#63b8ff" d="M162.18,-384.03C184.42,-381.82 207.49,-379.52 225.95,-377.68"/>
<polygon fill="#63b8ff" stroke="#63b8ff" points="226.36,-381.16 235.97,-376.69 225.67,-374.2 226.36,-381.16"/>
</a>
</g>
</g>
<!-- Node3 -->
<g id="Node000003" class="node">
<title>Node3</title>
<g id="a_Node000003"><a xlink:href="../../d0/d63/classExFatPartition.xhtml#a80c3935eee856eaa3938e80a32139722" target="_top" xlink:title=" ">
<polygon fill="white" stroke="#666666" points="512,-450 366,-450 366,-420 512,-420 512,-450"/>
<text text-anchor="start" x="374" y="-438" font-family="Helvetica,sans-Serif" font-size="10.00">ExFatPartition::clusterStart</text>
<text text-anchor="middle" x="439" y="-427" font-family="Helvetica,sans-Serif" font-size="10.00">Sector</text>
</a>
</g>
</g>
<!-- Node2&#45;&gt;Node3 -->
<g id="edge2_Node000002_Node000003" class="edge">
<title>Node2&#45;&gt;Node3</title>
<g id="a_edge2_Node000002_Node000003"><a xlink:title=" ">
<path fill="none" stroke="#63b8ff" d="M330.4,-420.07C338.73,-421.23 347.32,-422.42 355.87,-423.61"/>
<polygon fill="#63b8ff" stroke="#63b8ff" points="355.46,-427.08 365.85,-424.99 356.42,-420.15 355.46,-427.08"/>
</a>
</g>
</g>
<!-- Node4 -->
<g id="Node000004" class="node">
<title>Node4</title>
<g id="a_Node000004"><a xlink:href="../../d0/d63/classExFatPartition.xhtml#a236e1ae2dfd3e7acc8dfa0cbf4658453" target="_top" xlink:title=" ">
<polygon fill="white" stroke="#666666" points="509.5,-402 368.5,-402 368.5,-372 509.5,-372 509.5,-402"/>
<text text-anchor="start" x="376.5" y="-390" font-family="Helvetica,sans-Serif" font-size="10.00">ExFatPartition::dataCache</text>
<text text-anchor="middle" x="439" y="-379" font-family="Helvetica,sans-Serif" font-size="10.00">Prepare</text>
</a>
</g>
</g>
<!-- Node2&#45;&gt;Node4 -->
<g id="edge3_Node000002_Node000004" class="edge">
<title>Node2&#45;&gt;Node4</title>
<g id="a_edge3_Node000002_Node000004"><a xlink:title=" ">
<path fill="none" stroke="#63b8ff" d="M330.4,-401.93C339.54,-400.66 349.01,-399.35 358.37,-398.05"/>
<polygon fill="#63b8ff" stroke="#63b8ff" points="359.04,-401.49 368.46,-396.65 358.08,-394.55 359.04,-401.49"/>
</a>
</g>
</g>
<!-- Node5 -->
<g id="Node000005" class="node">
<title>Node5</title>
<g id="a_Node000005"><a xlink:href="../../dd/db1/classFsCache.xhtml#a8c11f064a2ce0a380f522392f09d63cb" target="_top" xlink:title=" ">
<polygon fill="white" stroke="#666666" points="649,-396.5 548,-396.5 548,-377.5 649,-377.5 649,-396.5"/>
<text text-anchor="middle" x="598.5" y="-384.5" font-family="Helvetica,sans-Serif" font-size="10.00">FsCache::prepare</text>
</a>
</g>
</g>
<!-- Node4&#45;&gt;Node5 -->
<g id="edge4_Node000004_Node000005" class="edge">
<title>Node4&#45;&gt;Node5</title>
<g id="a_edge4_Node000004_Node000005"><a xlink:title=" ">
<path fill="none" stroke="#63b8ff" d="M509.54,-387C518.88,-387 528.4,-387 537.55,-387"/>
<polygon fill="#63b8ff" stroke="#63b8ff" points="537.71,-390.5 547.71,-387 537.71,-383.5 537.71,-390.5"/>
</a>
</g>
</g>
<!-- Node6 -->
<g id="Node000006" class="node">
<title>Node6</title>
<g id="a_Node000006"><a xlink:href="../../d8/d7f/classSharedSpiCard.xhtml#a61d86f4092f8ddbc7339d7cbcf6f70c0" target="_top" xlink:title=" ">
<polygon fill="white" stroke="#666666" points="962.5,-446.5 816.5,-446.5 816.5,-427.5 962.5,-427.5 962.5,-446.5"/>
<text text-anchor="middle" x="889.5" y="-434.5" font-family="Helvetica,sans-Serif" font-size="10.00">SharedSpiCard::readSector</text>
</a>
</g>
</g>
<!-- Node5&#45;&gt;Node6 -->
<g id="edge5_Node000005_Node000006" class="edge">
<title>Node5&#45;&gt;Node6</title>
<g id="a_edge5_Node000005_Node000006"><a xlink:title=" ">
<path fill="none" stroke="#63b8ff" d="M639.83,-396.55C654.06,-399.76 670.2,-403.23 685,-406 725.3,-413.54 770.34,-420.54 807.79,-425.98"/>
<polygon fill="#63b8ff" stroke="#63b8ff" points="807.74,-429.51 818.14,-427.47 808.74,-422.58 807.74,-429.51"/>
</a>
</g>
</g>
<!-- Node33 -->
<g id="Node000033" class="node">
<title>Node33</title>
<g id="a_Node000033"><a xlink:href="../../dd/db1/classFsCache.xhtml#a5b90e145400de8687d9f34536b134130" target="_top" xlink:title=" ">
<polygon fill="white" stroke="#666666" points="779,-396.5 685,-396.5 685,-377.5 779,-377.5 779,-396.5"/>
<text text-anchor="middle" x="732" y="-384.5" font-family="Helvetica,sans-Serif" font-size="10.00">FsCache::sector</text>
</a>
</g>
</g>
<!-- Node5&#45;&gt;Node33 -->
<g id="edge44_Node000005_Node000033" class="edge">
<title>Node5&#45;&gt;Node33</title>
<g id="a_edge44_Node000005_Node000033"><a xlink:title=" ">
<path fill="none" stroke="#63b8ff" d="M649.21,-387C657.49,-387 666.12,-387 674.55,-387"/>
<polygon fill="#63b8ff" stroke="#63b8ff" points="674.68,-390.5 684.68,-387 674.68,-383.5 674.68,-390.5"/>
</a>
</g>
</g>
<!-- Node34 -->
<g id="Node000034" class="node">
<title>Node34</title>
<g id="a_Node000034"><a xlink:href="../../dd/db1/classFsCache.xhtml#a5a2c8fb432d7b7590ebb43200ca21893" target="_top" xlink:title=" ">
<polygon fill="white" stroke="#666666" points="775,-340.5 689,-340.5 689,-321.5 775,-321.5 775,-340.5"/>
<text text-anchor="middle" x="732" y="-328.5" font-family="Helvetica,sans-Serif" font-size="10.00">FsCache::sync</text>
</a>
</g>
</g>
<!-- Node5&#45;&gt;Node34 -->
<g id="edge45_Node000005_Node000034" class="edge">
<title>Node5&#45;&gt;Node34</title>
<g id="a_edge45_Node000005_Node000034"><a xlink:title=" ">
<path fill="none" stroke="#63b8ff" d="M622.11,-377.37C643.4,-368.3 675.52,-354.63 699.36,-344.48"/>
<polygon fill="#63b8ff" stroke="#63b8ff" points="700.86,-347.64 708.69,-340.5 698.12,-341.2 700.86,-347.64"/>
</a>
</g>
</g>
<!-- Node7 -->
<g id="Node000007" class="node">
<title>Node7</title>
<g id="a_Node000007"><a xlink:href="../../d8/d7f/classSharedSpiCard.xhtml#adda33199753fc2aec74fe317cbaabc06" target="_top" xlink:title=" ">
<polygon fill="white" stroke="#666666" points="1165,-218.5 1000,-218.5 1000,-199.5 1165,-199.5 1165,-218.5"/>
<text text-anchor="middle" x="1082.5" y="-206.5" font-family="Helvetica,sans-Serif" font-size="10.00">SharedSpiCard::cardCommand</text>
</a>
</g>
</g>
<!-- Node6&#45;&gt;Node7 -->
<g id="edge6_Node000006_Node000007" class="edge">
<title>Node6&#45;&gt;Node7</title>
<g id="a_edge6_Node000006_Node000007"><a xlink:title=" ">
<path fill="none" stroke="#63b8ff" d="M898.46,-427.49C927.65,-392.66 1029.01,-271.66 1066.99,-226.33"/>
<polygon fill="#63b8ff" stroke="#63b8ff" points="1069.76,-228.46 1073.5,-218.55 1064.4,-223.97 1069.76,-228.46"/>
</a>
</g>
</g>
<!-- Node21 -->
<g id="Node000021" class="node">
<title>Node21</title>
<g id="a_Node000021"><a xlink:href="../../d8/d7f/classSharedSpiCard.xhtml#a747c3f0b962098cf0c097f3c4c2b4fd4" target="_top" xlink:title=" ">
<polygon fill="white" stroke="#666666" points="1696.5,-350.5 1579.5,-350.5 1579.5,-331.5 1696.5,-331.5 1696.5,-350.5"/>
<text text-anchor="middle" x="1638" y="-338.5" font-family="Helvetica,sans-Serif" font-size="10.00">SharedSpiCard::error</text>
</a>
</g>
</g>
<!-- Node6&#45;&gt;Node21 -->
<g id="edge39_Node000006_Node000021" class="edge">
<title>Node6&#45;&gt;Node21</title>
<g id="a_edge39_Node000006_Node000021"><a xlink:title=" ">
<path fill="none" stroke="#63b8ff" d="M916.48,-446.6C1006.56,-478.21 1311.76,-571.45 1529,-470 1578,-447.12 1612.62,-389.85 1628.03,-359.91"/>
<polygon fill="#63b8ff" stroke="#63b8ff" points="1631.36,-361.07 1632.67,-350.56 1625.09,-357.96 1631.36,-361.07"/>
</a>
</g>
</g>
<!-- Node22 -->
<g id="Node000022" class="node">
<title>Node22</title>
<g id="a_Node000022"><a xlink:href="../../d8/d7f/classSharedSpiCard.xhtml#a0f511c39c50055a4fc97e720933aee3a" target="_top" xlink:title=" ">
<polygon fill="white" stroke="#666666" points="1703,-293.5 1573,-293.5 1573,-274.5 1703,-274.5 1703,-293.5"/>
<text text-anchor="middle" x="1638" y="-281.5" font-family="Helvetica,sans-Serif" font-size="10.00">SharedSpiCard::spiStop</text>
</a>
</g>
</g>
<!-- Node6&#45;&gt;Node22 -->
<g id="edge42_Node000006_Node000022" class="edge">
<title>Node6&#45;&gt;Node22</title>
<g id="a_edge42_Node000006_Node000022"><a xlink:title=" ">
<path fill="none" stroke="#63b8ff" d="M938.15,-446.51C1051.18,-466.32 1340.17,-500.63 1529,-378 1553.5,-362.09 1543.5,-342.78 1565,-323 1576.11,-312.78 1590.4,-304.32 1603.31,-297.93"/>
<polygon fill="#63b8ff" stroke="#63b8ff" points="1604.85,-301.07 1612.41,-293.64 1601.87,-294.74 1604.85,-301.07"/>
</a>
</g>
</g>
<!-- Node31 -->
<g id="Node000031" class="node">
<title>Node31</title>
<g id="a_Node000031"><a xlink:href="../../d8/d7f/classSharedSpiCard.xhtml#abeae3cdc162f24c2d450abe4e1ed8340" target="_top" xlink:title=" ">
<polygon fill="white" stroke="#666666" points="1152,-541.5 1013,-541.5 1013,-522.5 1152,-522.5 1152,-541.5"/>
<text text-anchor="middle" x="1082.5" y="-529.5" font-family="Helvetica,sans-Serif" font-size="10.00">SharedSpiCard::readData</text>
</a>
</g>
</g>
<!-- Node6&#45;&gt;Node31 -->
<g id="edge40_Node000006_Node000031" class="edge">
<title>Node6&#45;&gt;Node31</title>
<g id="a_edge40_Node000006_Node000031"><a xlink:title=" ">
<path fill="none" stroke="#63b8ff" d="M902.62,-446.56C922.12,-461.53 962.12,-490.59 1000,-508 1009.65,-512.43 1020.32,-516.27 1030.67,-519.5"/>
<polygon fill="#63b8ff" stroke="#63b8ff" points="1029.87,-522.91 1040.45,-522.41 1031.86,-516.2 1029.87,-522.91"/>
</a>
</g>
</g>
<!-- Node32 -->
<g id="Node000032" class="node">
<title>Node32</title>
<g id="a_Node000032"><a xlink:href="../../d8/d7f/classSharedSpiCard.xhtml#a7dac2190763d7b4b72163ed7131e8a87" target="_top" xlink:title=" ">
<polygon fill="white" stroke="#666666" points="1140.5,-427.5 1024.5,-427.5 1024.5,-408.5 1140.5,-408.5 1140.5,-427.5"/>
<text text-anchor="middle" x="1082.5" y="-415.5" font-family="Helvetica,sans-Serif" font-size="10.00">SharedSpiCard::type</text>
</a>
</g>
</g>
<!-- Node6&#45;&gt;Node32 -->
<g id="edge43_Node000006_Node000032" class="edge">
<title>Node6&#45;&gt;Node32</title>
<g id="a_edge43_Node000006_Node000032"><a xlink:title=" ">
<path fill="none" stroke="#63b8ff" d="M962.71,-429.82C979.59,-428.14 997.51,-426.35 1014.17,-424.7"/>
<polygon fill="#63b8ff" stroke="#63b8ff" points="1014.76,-428.16 1024.37,-423.68 1014.07,-421.19 1014.76,-428.16"/>
</a>
</g>
</g>
<!-- Node8 -->
<g id="Node000008" class="node">
<title>Node8</title>
<g id="a_Node000008"><a xlink:href="../../d8/d7f/classSharedSpiCard.xhtml#a08363209d938db87521cca6a84146041" target="_top" xlink:title=" ">
<polygon fill="white" stroke="#666666" points="1901,-79.5 1754,-79.5 1754,-60.5 1901,-60.5 1901,-79.5"/>
<text text-anchor="middle" x="1827.5" y="-67.5" font-family="Helvetica,sans-Serif" font-size="10.00">SharedSpiCard::spiReceive</text>
</a>
</g>
</g>
<!-- Node7&#45;&gt;Node8 -->
<g id="edge7_Node000007_Node000008" class="edge">
<title>Node7&#45;&gt;Node8</title>
<g id="a_edge7_Node000007_Node000008"><a xlink:title=" ">
<path fill="none" stroke="#63b8ff" d="M1092.76,-199.34C1111.27,-180.72 1155.07,-140.19 1201,-123 1385.4,-53.97 1621.07,-55.98 1743.8,-63.14"/>
<polygon fill="#63b8ff" stroke="#63b8ff" points="1743.68,-66.64 1753.87,-63.75 1744.11,-59.65 1743.68,-66.64"/>
</a>
</g>
</g>
<!-- Node10 -->
<g id="Node000010" class="node">
<title>Node10</title>
<g id="a_Node000010"><a xlink:href="../../d8/d7f/classSharedSpiCard.xhtml#ab311b9ad8a250f06afbe091f7abb118b" target="_top" xlink:title=" ">
<polygon fill="white" stroke="#666666" points="1893.5,-236.5 1761.5,-236.5 1761.5,-217.5 1893.5,-217.5 1893.5,-236.5"/>
<text text-anchor="middle" x="1827.5" y="-224.5" font-family="Helvetica,sans-Serif" font-size="10.00">SharedSpiCard::spiSend</text>
</a>
</g>
</g>
<!-- Node7&#45;&gt;Node10 -->
<g id="edge9_Node000007_Node000010" class="edge">
<title>Node7&#45;&gt;Node10</title>
<g id="a_edge9_Node000007_Node000010"><a xlink:title=" ">
<path fill="none" stroke="#63b8ff" d="M1165.22,-207.84C1254.59,-206.89 1402.02,-206.23 1529,-210 1604.65,-212.24 1690.98,-217.47 1751.09,-221.55"/>
<polygon fill="#63b8ff" stroke="#63b8ff" points="1751.04,-225.05 1761.25,-222.24 1751.52,-218.07 1751.04,-225.05"/>
</a>
</g>
</g>
<!-- Node12 -->
<g id="Node000012" class="node">
<title>Node12</title>
<g id="a_Node000012"><a xlink:href="../../d8/d7f/classSharedSpiCard.xhtml#aef2dfa72e8d5643c90720f9f8c6a4254" target="_top" xlink:title=" ">
<polygon fill="white" stroke="#666666" points="1703.5,-161.5 1572.5,-161.5 1572.5,-142.5 1703.5,-142.5 1703.5,-161.5"/>
<text text-anchor="middle" x="1638" y="-149.5" font-family="Helvetica,sans-Serif" font-size="10.00">SharedSpiCard::spiStart</text>
</a>
</g>
</g>
<!-- Node7&#45;&gt;Node12 -->
<g id="edge11_Node000007_Node000012" class="edge">
<title>Node7&#45;&gt;Node12</title>
<g id="a_edge11_Node000007_Node000012"><a xlink:title=" ">
<path fill="none" stroke="#63b8ff" d="M1111.13,-199.39C1134.69,-191.64 1169.65,-181.2 1201,-176 1326.53,-155.18 1474.89,-151.34 1562.17,-151.17"/>
<polygon fill="#63b8ff" stroke="#63b8ff" points="1562.25,-154.67 1572.25,-151.17 1562.25,-147.67 1562.25,-154.67"/>
</a>
</g>
</g>
<!-- Node19 -->
<g id="Node000019" class="node">
<title>Node19</title>
<g id="a_Node000019"><a xlink:href="../../d8/d7f/classSharedSpiCard.xhtml#a2f181b3d6f27413a0f5ee883dfd94d87" target="_top" xlink:title=" ">
<polygon fill="white" stroke="#666666" points="1351,-237.5 1201,-237.5 1201,-218.5 1351,-218.5 1351,-237.5"/>
<text text-anchor="middle" x="1276" y="-225.5" font-family="Helvetica,sans-Serif" font-size="10.00">SharedSpiCard::syncDevice</text>
</a>
</g>
</g>
<!-- Node7&#45;&gt;Node19 -->
<g id="edge19_Node000007_Node000019" class="edge">
<title>Node7&#45;&gt;Node19</title>
<g id="a_edge19_Node000007_Node000019"><a xlink:title=" ">
<path fill="none" stroke="#63b8ff" d="M1165.27,-217.11C1173.65,-217.94 1182.18,-218.79 1190.59,-219.63"/>
<polygon fill="#63b8ff" stroke="#63b8ff" points="1190.48,-223.13 1200.78,-220.64 1191.17,-216.17 1190.48,-223.13"/>
</a>
</g>
</g>
<!-- Node27 -->
<g id="Node000027" class="node">
<title>Node27</title>
<g id="a_Node000027"><a xlink:href="../../d8/d7f/classSharedSpiCard.xhtml#ab3468397bb3b12d29dd2f31e45b3dcaf" target="_top" xlink:title=" ">
<polygon fill="white" stroke="#666666" points="1711,-123.5 1565,-123.5 1565,-104.5 1711,-104.5 1711,-123.5"/>
<text text-anchor="middle" x="1638" y="-111.5" font-family="Helvetica,sans-Serif" font-size="10.00">SharedSpiCard::waitReady</text>
</a>
</g>
</g>
<!-- Node7&#45;&gt;Node27 -->
<g id="edge38_Node000007_Node000027" class="edge">
<title>Node7&#45;&gt;Node27</title>
<g id="a_edge38_Node000007_Node000027"><a xlink:title=" ">
<path fill="none" stroke="#63b8ff" d="M1099.57,-199.48C1121.61,-186.93 1162.84,-165.24 1201,-155 1321.2,-122.73 1465.94,-114.97 1554.7,-113.56"/>
<polygon fill="#63b8ff" stroke="#63b8ff" points="1554.76,-117.06 1564.71,-113.43 1554.66,-110.06 1554.76,-117.06"/>
</a>
</g>
</g>
<!-- Node9 -->
<g id="Node000009" class="node">
<title>Node9</title>
<g id="a_Node000009"><a xlink:href="../../d0/d25/classSdSpiArduinoDriver.xhtml#a8d6bc852a52e9d69c4b1e48ee062e8d1" target="_top" xlink:title=" ">
<polygon fill="white" stroke="#666666" points="2055,-83 1944,-83 1944,-53 2055,-53 2055,-83"/>
<text text-anchor="start" x="1952" y="-71" font-family="Helvetica,sans-Serif" font-size="10.00">SdSpiArduinoDriver</text>
<text text-anchor="middle" x="1999.5" y="-60" font-family="Helvetica,sans-Serif" font-size="10.00">::receive</text>
</a>
</g>
</g>
<!-- Node8&#45;&gt;Node9 -->
<g id="edge8_Node000008_Node000009" class="edge">
<title>Node8&#45;&gt;Node9</title>
<g id="a_edge8_Node000008_Node000009"><a xlink:title=" ">
<path fill="none" stroke="#63b8ff" d="M1901.09,-69.15C1911.96,-69.02 1923.11,-68.89 1933.81,-68.76"/>
<polygon fill="#63b8ff" stroke="#63b8ff" points="1933.94,-72.26 1943.9,-68.64 1933.86,-65.26 1933.94,-72.26"/>
</a>
</g>
</g>
<!-- Node11 -->
<g id="Node000011" class="node">
<title>Node11</title>
<g id="a_Node000011"><a xlink:href="../../d0/d25/classSdSpiArduinoDriver.xhtml#a3c4842e47f98fe5d3799cd6028778ab5" target="_top" xlink:title=" ">
<polygon fill="white" stroke="#666666" points="2055,-255 1944,-255 1944,-225 2055,-225 2055,-255"/>
<text text-anchor="start" x="1952" y="-243" font-family="Helvetica,sans-Serif" font-size="10.00">SdSpiArduinoDriver</text>
<text text-anchor="middle" x="1999.5" y="-232" font-family="Helvetica,sans-Serif" font-size="10.00">::send</text>
</a>
</g>
</g>
<!-- Node10&#45;&gt;Node11 -->
<g id="edge10_Node000010_Node000011" class="edge">
<title>Node10&#45;&gt;Node11</title>
<g id="a_edge10_Node000010_Node000011"><a xlink:title=" ">
<path fill="none" stroke="#63b8ff" d="M1893.74,-231.99C1906.82,-232.99 1920.56,-234.04 1933.62,-235.04"/>
<polygon fill="#63b8ff" stroke="#63b8ff" points="1933.69,-238.55 1943.93,-235.83 1934.22,-231.57 1933.69,-238.55"/>
</a>
</g>
</g>
<!-- Node12&#45;&gt;Node10 -->
<g id="edge18_Node000012_Node000010" class="edge">
<title>Node12&#45;&gt;Node10</title>
<g id="a_edge18_Node000012_Node000010"><a xlink:title=" ">
<path fill="none" stroke="#63b8ff" d="M1677.67,-161.6C1688.85,-165.23 1700.78,-169.99 1711,-176 1729.71,-187.01 1727.77,-198.93 1747,-209 1750.57,-210.87 1754.32,-212.54 1758.18,-214.04"/>
<polygon fill="#63b8ff" stroke="#63b8ff" points="1757.33,-217.45 1767.93,-217.43 1759.63,-210.84 1757.33,-217.45"/>
</a>
</g>
</g>
<!-- Node13 -->
<g id="Node000013" class="node">
<title>Node13</title>
<g id="a_Node000013"><a xlink:href="../../d8/d7f/classSharedSpiCard.xhtml#a69ee2fe49dfaeea2347d8a265806d2b6" target="_top" xlink:title=" ">
<polygon fill="white" stroke="#666666" points="1902,-161.5 1753,-161.5 1753,-142.5 1902,-142.5 1902,-161.5"/>
<text text-anchor="middle" x="1827.5" y="-149.5" font-family="Helvetica,sans-Serif" font-size="10.00">SharedSpiCard::spiActivate</text>
</a>
</g>
</g>
<!-- Node12&#45;&gt;Node13 -->
<g id="edge12_Node000012_Node000013" class="edge">
<title>Node12&#45;&gt;Node13</title>
<g id="a_edge12_Node000012_Node000013"><a xlink:title=" ">
<path fill="none" stroke="#63b8ff" d="M1703.53,-152C1716.19,-152 1729.64,-152 1742.82,-152"/>
<polygon fill="#63b8ff" stroke="#63b8ff" points="1742.84,-155.5 1752.84,-152 1742.84,-148.5 1742.84,-155.5"/>
</a>
</g>
</g>
<!-- Node15 -->
<g id="Node000015" class="node">
<title>Node15</title>
<g id="a_Node000015"><a xlink:href="../../d8/d7f/classSharedSpiCard.xhtml#a8c3088599862ff6e84ae79bfdf32aea8" target="_top" xlink:title=" ">
<polygon fill="white" stroke="#666666" points="1896.5,-199.5 1758.5,-199.5 1758.5,-180.5 1896.5,-180.5 1896.5,-199.5"/>
<text text-anchor="middle" x="1827.5" y="-187.5" font-family="Helvetica,sans-Serif" font-size="10.00">SharedSpiCard::spiSelect</text>
</a>
</g>
</g>
<!-- Node12&#45;&gt;Node15 -->
<g id="edge14_Node000012_Node000015" class="edge">
<title>Node12&#45;&gt;Node15</title>
<g id="a_edge14_Node000012_Node000015"><a xlink:title=" ">
<path fill="none" stroke="#63b8ff" d="M1686.31,-161.59C1711.61,-166.72 1742.95,-173.07 1769.57,-178.46"/>
<polygon fill="#63b8ff" stroke="#63b8ff" points="1769.03,-181.92 1779.53,-180.48 1770.42,-175.06 1769.03,-181.92"/>
</a>
</g>
</g>
<!-- Node14 -->
<g id="Node000014" class="node">
<title>Node14</title>
<g id="a_Node000014"><a xlink:href="../../d0/d25/classSdSpiArduinoDriver.xhtml#abb6b88c5c8b87fc344a69f23f6eab3d9" target="_top" xlink:title=" ">
<polygon fill="white" stroke="#666666" points="2055,-169 1944,-169 1944,-139 2055,-139 2055,-169"/>
<text text-anchor="start" x="1952" y="-157" font-family="Helvetica,sans-Serif" font-size="10.00">SdSpiArduinoDriver</text>
<text text-anchor="middle" x="1999.5" y="-146" font-family="Helvetica,sans-Serif" font-size="10.00">::activate</text>
</a>
</g>
</g>
<!-- Node13&#45;&gt;Node14 -->
<g id="edge13_Node000013_Node000014" class="edge">
<title>Node13&#45;&gt;Node14</title>
<g id="a_edge13_Node000013_Node000014"><a xlink:title=" ">
<path fill="none" stroke="#63b8ff" d="M1902.08,-152.87C1912.57,-152.99 1923.31,-153.12 1933.63,-153.24"/>
<polygon fill="#63b8ff" stroke="#63b8ff" points="1933.74,-156.74 1943.78,-153.36 1933.82,-149.74 1933.74,-156.74"/>
</a>
</g>
</g>
<!-- Node16 -->
<g id="Node000016" class="node">
<title>Node16</title>
<g id="a_Node000016"><a xlink:href="../../d2/df0/SdSpiChipSelect_8cpp.xhtml#ac469bbe2d31ffde9b00ffc68258d7428" target="_top" xlink:title=" ">
<polygon fill="white" stroke="#666666" points="2032.5,-206.5 1966.5,-206.5 1966.5,-187.5 2032.5,-187.5 2032.5,-206.5"/>
<text text-anchor="middle" x="1999.5" y="-194.5" font-family="Helvetica,sans-Serif" font-size="10.00">sdCsWrite</text>
</a>
</g>
</g>
<!-- Node15&#45;&gt;Node16 -->
<g id="edge15_Node000015_Node000016" class="edge">
<title>Node15&#45;&gt;Node16</title>
<g id="a_edge15_Node000015_Node000016"><a xlink:title=" ">
<path fill="none" stroke="#63b8ff" d="M1896.67,-192.81C1916.74,-193.63 1938.12,-194.51 1956.09,-195.25"/>
<polygon fill="#63b8ff" stroke="#63b8ff" points="1956.1,-198.76 1966.23,-195.67 1956.38,-191.76 1956.1,-198.76"/>
</a>
</g>
</g>
<!-- Node17 -->
<g id="Node000017" class="node">
<title>Node17</title>
<g id="a_Node000017"><a xlink:href="../../d5/d45/wiring__digital_8c.xhtml#a73b9b61feeaf7d790d107f2954a7fd93" target="_top" xlink:title=" ">
<polygon fill="white" stroke="#666666" points="2165,-206.5 2091,-206.5 2091,-187.5 2165,-187.5 2165,-206.5"/>
<text text-anchor="middle" x="2128" y="-194.5" font-family="Helvetica,sans-Serif" font-size="10.00">digitalWrite</text>
</a>
</g>
</g>
<!-- Node16&#45;&gt;Node17 -->
<g id="edge16_Node000016_Node000017" class="edge">
<title>Node16&#45;&gt;Node17</title>
<g id="a_edge16_Node000016_Node000017"><a xlink:title=" ">
<path fill="none" stroke="#63b8ff" d="M2032.75,-197C2047.28,-197 2064.71,-197 2080.61,-197"/>
<polygon fill="#63b8ff" stroke="#63b8ff" points="2080.79,-200.5 2090.79,-197 2080.79,-193.5 2080.79,-200.5"/>
</a>
</g>
</g>
<!-- Node18 -->
<g id="Node000018" class="node">
<title>Node18</title>
<g id="a_Node000018"><a xlink:href="../../d5/d45/wiring__digital_8c.xhtml#ae3d0bcbe4eb927ca8f5d5c21b7e4f224" target="_top" xlink:title=" ">
<polygon fill="white" stroke="#666666" points="2276,-206.5 2201,-206.5 2201,-187.5 2276,-187.5 2276,-206.5"/>
<text text-anchor="middle" x="2238.5" y="-194.5" font-family="Helvetica,sans-Serif" font-size="10.00">turnOffPWM</text>
</a>
</g>
</g>
<!-- Node17&#45;&gt;Node18 -->
<g id="edge17_Node000017_Node000018" class="edge">
<title>Node17&#45;&gt;Node18</title>
<g id="a_edge17_Node000017_Node000018"><a xlink:title=" ">
<path fill="none" stroke="#63b8ff" d="M2165.13,-197C2173.28,-197 2182.05,-197 2190.57,-197"/>
<polygon fill="#63b8ff" stroke="#63b8ff" points="2190.79,-200.5 2200.79,-197 2190.79,-193.5 2190.79,-200.5"/>
</a>
</g>
</g>
<!-- Node20 -->
<g id="Node000020" class="node">
<title>Node20</title>
<g id="a_Node000020"><a xlink:href="../../d8/d7f/classSharedSpiCard.xhtml#ab33ad2aefbb9cff905cad0879dffc78b" target="_top" xlink:title=" ">
<polygon fill="white" stroke="#666666" points="1526.5,-274.5 1389.5,-274.5 1389.5,-255.5 1526.5,-255.5 1526.5,-274.5"/>
<text text-anchor="middle" x="1458" y="-262.5" font-family="Helvetica,sans-Serif" font-size="10.00">SharedSpiCard::readStop</text>
</a>
</g>
</g>
<!-- Node19&#45;&gt;Node20 -->
<g id="edge20_Node000019_Node000020" class="edge">
<title>Node19&#45;&gt;Node20</title>
<g id="a_edge20_Node000019_Node000020"><a xlink:title=" ">
<path fill="none" stroke="#63b8ff" d="M1323.35,-237.53C1346.88,-242.36 1375.66,-248.28 1400.48,-253.38"/>
<polygon fill="#63b8ff" stroke="#63b8ff" points="1399.99,-256.85 1410.49,-255.44 1401.4,-250 1399.99,-256.85"/>
</a>
</g>
</g>
<!-- Node26 -->
<g id="Node000026" class="node">
<title>Node26</title>
<g id="a_Node000026"><a xlink:href="../../d8/d7f/classSharedSpiCard.xhtml#ae9a34a573077e43e7c6028a16ae77fb3" target="_top" xlink:title=" ">
<polygon fill="white" stroke="#666666" points="1528,-237.5 1388,-237.5 1388,-218.5 1528,-218.5 1528,-237.5"/>
<text text-anchor="middle" x="1458" y="-225.5" font-family="Helvetica,sans-Serif" font-size="10.00">SharedSpiCard::writeStop</text>
</a>
</g>
</g>
<!-- Node19&#45;&gt;Node26 -->
<g id="edge29_Node000019_Node000026" class="edge">
<title>Node19&#45;&gt;Node26</title>
<g id="a_edge29_Node000019_Node000026"><a xlink:title=" ">
<path fill="none" stroke="#63b8ff" d="M1351.25,-228C1359.95,-228 1368.86,-228 1377.62,-228"/>
<polygon fill="#63b8ff" stroke="#63b8ff" points="1377.83,-231.5 1387.83,-228 1377.83,-224.5 1377.83,-231.5"/>
</a>
</g>
</g>
<!-- Node20&#45;&gt;Node7 -->
<g id="edge21_Node000020_Node000007" class="edge">
<title>Node20&#45;&gt;Node7</title>
<g id="a_edge21_Node000020_Node000007"><a xlink:title=" ">
<path fill="none" stroke="#63b8ff" d="M1389.31,-264.7C1337.37,-263.39 1264.09,-259.23 1201,-247 1171.9,-241.36 1139.96,-230.73 1116.74,-222.14"/>
<polygon fill="#63b8ff" stroke="#63b8ff" points="1117.95,-218.86 1107.35,-218.61 1115.48,-225.41 1117.95,-218.86"/>
</a>
</g>
</g>
<!-- Node20&#45;&gt;Node21 -->
<g id="edge22_Node000020_Node000021" class="edge">
<title>Node20&#45;&gt;Node21</title>
<g id="a_edge22_Node000020_Node000021"><a xlink:title=" ">
<path fill="none" stroke="#63b8ff" d="M1481.54,-274.63C1512.84,-287.99 1569.61,-312.23 1605.2,-327.42"/>
<polygon fill="#63b8ff" stroke="#63b8ff" points="1604.07,-330.74 1614.64,-331.45 1606.82,-324.31 1604.07,-330.74"/>
</a>
</g>
</g>
<!-- Node20&#45;&gt;Node22 -->
<g id="edge23_Node000020_Node000022" class="edge">
<title>Node20&#45;&gt;Node22</title>
<g id="a_edge23_Node000020_Node000022"><a xlink:title=" ">
<path fill="none" stroke="#63b8ff" d="M1526.55,-272.21C1538.38,-273.47 1550.75,-274.79 1562.75,-276.07"/>
<polygon fill="#63b8ff" stroke="#63b8ff" points="1562.41,-279.56 1572.73,-277.14 1563.16,-272.6 1562.41,-279.56"/>
</a>
</g>
</g>
<!-- Node22&#45;&gt;Node10 -->
<g id="edge26_Node000022_Node000010" class="edge">
<title>Node22&#45;&gt;Node10</title>
<g id="a_edge26_Node000022_Node000010"><a xlink:title=" ">
<path fill="none" stroke="#63b8ff" d="M1664.07,-274.35C1685.81,-266.18 1718.21,-254.48 1747,-246 1755.41,-243.52 1764.38,-241.14 1773.17,-238.94"/>
<polygon fill="#63b8ff" stroke="#63b8ff" points="1774.08,-242.32 1782.96,-236.54 1772.42,-235.52 1774.08,-242.32"/>
</a>
</g>
</g>
<!-- Node23 -->
<g id="Node000023" class="node">
<title>Node23</title>
<g id="a_Node000023"><a xlink:href="../../d8/d7f/classSharedSpiCard.xhtml#ac6acfca5a23337977d2e4436ab8ab39a" target="_top" xlink:title=" ">
<polygon fill="white" stroke="#666666" points="1908,-310.5 1747,-310.5 1747,-291.5 1908,-291.5 1908,-310.5"/>
<text text-anchor="middle" x="1827.5" y="-298.5" font-family="Helvetica,sans-Serif" font-size="10.00">SharedSpiCard::spiDeactivate</text>
</a>
</g>
</g>
<!-- Node22&#45;&gt;Node23 -->
<g id="edge24_Node000022_Node000023" class="edge">
<title>Node22&#45;&gt;Node23</title>
<g id="a_edge24_Node000022_Node000023"><a xlink:title=" ">
<path fill="none" stroke="#63b8ff" d="M1703,-289.8C1713.92,-290.79 1725.43,-291.84 1736.86,-292.87"/>
<polygon fill="#63b8ff" stroke="#63b8ff" points="1736.59,-296.36 1746.87,-293.78 1737.22,-289.39 1736.59,-296.36"/>
</a>
</g>
</g>
<!-- Node25 -->
<g id="Node000025" class="node">
<title>Node25</title>
<g id="a_Node000025"><a xlink:href="../../d8/d7f/classSharedSpiCard.xhtml#ad06a3278372300987b97876cf598c114" target="_top" xlink:title=" ">
<polygon fill="white" stroke="#666666" points="1903,-273.5 1752,-273.5 1752,-254.5 1903,-254.5 1903,-273.5"/>
<text text-anchor="middle" x="1827.5" y="-261.5" font-family="Helvetica,sans-Serif" font-size="10.00">SharedSpiCard::spiUnselect</text>
</a>
</g>
</g>
<!-- Node22&#45;&gt;Node25 -->
<g id="edge27_Node000022_Node000025" class="edge">
<title>Node22&#45;&gt;Node25</title>
<g id="a_edge27_Node000022_Node000025"><a xlink:title=" ">
<path fill="none" stroke="#63b8ff" d="M1703,-277.17C1715.39,-275.85 1728.55,-274.45 1741.49,-273.07"/>
<polygon fill="#63b8ff" stroke="#63b8ff" points="1742.23,-276.51 1751.8,-271.97 1741.49,-269.55 1742.23,-276.51"/>
</a>
</g>
</g>
<!-- Node24 -->
<g id="Node000024" class="node">
<title>Node24</title>
<g id="a_Node000024"><a xlink:href="../../d0/d25/classSdSpiArduinoDriver.xhtml#ae88a255f533e3acb41d1221025a69b55" target="_top" xlink:title=" ">
<polygon fill="white" stroke="#666666" points="2055,-316 1944,-316 1944,-286 2055,-286 2055,-316"/>
<text text-anchor="start" x="1952" y="-304" font-family="Helvetica,sans-Serif" font-size="10.00">SdSpiArduinoDriver</text>
<text text-anchor="middle" x="1999.5" y="-293" font-family="Helvetica,sans-Serif" font-size="10.00">::deactivate</text>
</a>
</g>
</g>
<!-- Node23&#45;&gt;Node24 -->
<g id="edge25_Node000023_Node000024" class="edge">
<title>Node23&#45;&gt;Node24</title>
<g id="a_edge25_Node000023_Node000024"><a xlink:title=" ">
<path fill="none" stroke="#63b8ff" d="M1908.02,-301C1916.63,-301 1925.3,-301 1933.7,-301"/>
<polygon fill="#63b8ff" stroke="#63b8ff" points="1933.78,-304.5 1943.78,-301 1933.78,-297.5 1933.78,-304.5"/>
</a>
</g>
</g>
<!-- Node25&#45;&gt;Node16 -->
<g id="edge28_Node000025_Node000016" class="edge">
<title>Node25&#45;&gt;Node16</title>
<g id="a_edge28_Node000025_Node000016"><a xlink:title=" ">
<path fill="none" stroke="#63b8ff" d="M1886.08,-254.38C1893.65,-252.14 1901.15,-249.38 1908,-246 1926.67,-236.78 1925.88,-226.26 1944,-216 1947.98,-213.75 1952.28,-211.69 1956.65,-209.84"/>
<polygon fill="#63b8ff" stroke="#63b8ff" points="1958.2,-212.99 1966.25,-206.1 1955.66,-206.47 1958.2,-212.99"/>
</a>
</g>
</g>
<!-- Node26&#45;&gt;Node10 -->
<g id="edge31_Node000026_Node000010" class="edge">
<title>Node26&#45;&gt;Node10</title>
<g id="a_edge31_Node000026_Node000010"><a xlink:title=" ">
<path fill="none" stroke="#63b8ff" d="M1528.12,-227.81C1591.67,-227.64 1685.68,-227.38 1751.14,-227.21"/>
<polygon fill="#63b8ff" stroke="#63b8ff" points="1751.4,-230.7 1761.39,-227.18 1751.38,-223.7 1751.4,-230.7"/>
</a>
</g>
</g>
<!-- Node26&#45;&gt;Node21 -->
<g id="edge30_Node000026_Node000021" class="edge">
<title>Node26&#45;&gt;Node21</title>
<g id="a_edge30_Node000026_Node000021"><a xlink:title=" ">
<path fill="none" stroke="#63b8ff" d="M1511.45,-237.59C1517.69,-240.05 1523.72,-243.13 1529,-247 1552.87,-264.49 1543.2,-282.99 1565,-303 1575.79,-312.9 1589.63,-321.01 1602.3,-327.16"/>
<polygon fill="#63b8ff" stroke="#63b8ff" points="1601.13,-330.48 1611.68,-331.47 1604.06,-324.12 1601.13,-330.48"/>
</a>
</g>
</g>
<!-- Node26&#45;&gt;Node22 -->
<g id="edge32_Node000026_Node000022" class="edge">
<title>Node26&#45;&gt;Node22</title>
<g id="a_edge32_Node000026_Node000022"><a xlink:title=" ">
<path fill="none" stroke="#63b8ff" d="M1495.82,-237.51C1506.56,-240.42 1518.29,-243.71 1529,-247 1553.21,-254.42 1580.16,-263.65 1601.08,-271.04"/>
<polygon fill="#63b8ff" stroke="#63b8ff" points="1599.93,-274.35 1610.53,-274.39 1602.27,-267.75 1599.93,-274.35"/>
</a>
</g>
</g>
<!-- Node26&#45;&gt;Node27 -->
<g id="edge33_Node000026_Node000027" class="edge">
<title>Node26&#45;&gt;Node27</title>
<g id="a_edge33_Node000026_Node000027"><a xlink:title=" ">
<path fill="none" stroke="#63b8ff" d="M1467.01,-218.44C1483.42,-199.46 1522.87,-156.92 1565,-134 1569.91,-131.33 1575.22,-128.99 1580.64,-126.94"/>
<polygon fill="#63b8ff" stroke="#63b8ff" points="1582.13,-130.13 1590.46,-123.58 1579.86,-123.51 1582.13,-130.13"/>
</a>
</g>
</g>
<!-- Node27&#45;&gt;Node8 -->
<g id="edge34_Node000027_Node000008" class="edge">
<title>Node27&#45;&gt;Node8</title>
<g id="a_edge34_Node000027_Node000008"><a xlink:title=" ">
<path fill="none" stroke="#63b8ff" d="M1679.68,-104.45C1707.94,-97.82 1745.79,-88.94 1775.98,-81.86"/>
<polygon fill="#63b8ff" stroke="#63b8ff" points="1776.96,-85.22 1785.89,-79.53 1775.36,-78.41 1776.96,-85.22"/>
</a>
</g>
</g>
<!-- Node28 -->
<g id="Node000028" class="node">
<title>Node28</title>
<g id="a_Node000028"><a xlink:href="../../db/df4/classTimeout.xhtml#abbabe99f42e52472ddd3a7e9d22dce95" target="_top" xlink:title=" ">
<polygon fill="white" stroke="#666666" points="1882,-121.5 1773,-121.5 1773,-102.5 1882,-102.5 1882,-121.5"/>
<text text-anchor="middle" x="1827.5" y="-109.5" font-family="Helvetica,sans-Serif" font-size="10.00">Timeout::timedOut</text>
</a>
</g>
</g>
<!-- Node27&#45;&gt;Node28 -->
<g id="edge35_Node000027_Node000028" class="edge">
<title>Node27&#45;&gt;Node28</title>
<g id="a_edge35_Node000027_Node000028"><a xlink:title=" ">
<path fill="none" stroke="#63b8ff" d="M1711.22,-113.23C1728.23,-113.05 1746.22,-112.86 1762.82,-112.68"/>
<polygon fill="#63b8ff" stroke="#63b8ff" points="1762.98,-116.18 1772.95,-112.57 1762.91,-109.18 1762.98,-116.18"/>
</a>
</g>
</g>
<!-- Node29 -->
<g id="Node000029" class="node">
<title>Node29</title>
<g id="a_Node000029"><a xlink:href="../../db/df4/classTimeout.xhtml#a9a72ea0591f11452fb15bfaa1ae5108a" target="_top" xlink:title=" ">
<polygon fill="white" stroke="#666666" points="2050.5,-120.5 1948.5,-120.5 1948.5,-101.5 2050.5,-101.5 2050.5,-120.5"/>
<text text-anchor="middle" x="1999.5" y="-108.5" font-family="Helvetica,sans-Serif" font-size="10.00">Timeout::millis16</text>
</a>
</g>
</g>
<!-- Node28&#45;&gt;Node29 -->
<g id="edge36_Node000028_Node000029" class="edge">
<title>Node28&#45;&gt;Node29</title>
<g id="a_edge36_Node000028_Node000029"><a xlink:title=" ">
<path fill="none" stroke="#63b8ff" d="M1882.29,-111.68C1900.02,-111.58 1919.85,-111.46 1938.04,-111.36"/>
<polygon fill="#63b8ff" stroke="#63b8ff" points="1938.26,-114.85 1948.24,-111.3 1938.22,-107.85 1938.26,-114.85"/>
</a>
</g>
</g>
<!-- Node30 -->
<g id="Node000030" class="node">
<title>Node30</title>
<g id="a_Node000030"><a xlink:href="../../d5/df3/wiring_8c.xhtml#a6ff7f2532a22366f0013bc41397129fd" target="_top" xlink:title=" ">
<polygon fill="white" stroke="#666666" points="2150,-120.5 2106,-120.5 2106,-101.5 2150,-101.5 2150,-120.5"/>
<text text-anchor="middle" x="2128" y="-108.5" font-family="Helvetica,sans-Serif" font-size="10.00">millis</text>
</a>
</g>
</g>
<!-- Node29&#45;&gt;Node30 -->
<g id="edge37_Node000029_Node000030" class="edge">
<title>Node29&#45;&gt;Node30</title>
<g id="a_edge37_Node000029_Node000030"><a xlink:title=" ">
<path fill="none" stroke="#63b8ff" d="M2050.86,-111C2065.97,-111 2082.11,-111 2095.62,-111"/>
<polygon fill="#63b8ff" stroke="#63b8ff" points="2095.83,-114.5 2105.83,-111 2095.83,-107.5 2095.83,-114.5"/>
</a>
</g>
</g>
<!-- Node31&#45;&gt;Node31 -->
<g id="edge41_Node000031_Node000031" class="edge">
<title>Node31&#45;&gt;Node31</title>
<g id="a_edge41_Node000031_Node000031"><a xlink:title=" ">
<path fill="none" stroke="#63b8ff" d="M1052.91,-541.58C1038.51,-550.23 1048.38,-559.5 1082.5,-559.5 1105.96,-559.5 1117.95,-555.12 1118.48,-549.57"/>
<polygon fill="#63b8ff" stroke="#63b8ff" points="1121.07,-547.21 1112.09,-541.58 1115.61,-551.58 1121.07,-547.21"/>
</a>
</g>
</g>
<!-- Node35 -->
<g id="Node000035" class="node">
<title>Node35</title>
<g id="a_Node000035"><a xlink:href="../../d8/d7f/classSharedSpiCard.xhtml#adf2ce56ca0a56fe841fbdf75f7f3faee" target="_top" xlink:title=" ">
<polygon fill="white" stroke="#666666" points="964,-318.5 815,-318.5 815,-299.5 964,-299.5 964,-318.5"/>
<text text-anchor="middle" x="889.5" y="-306.5" font-family="Helvetica,sans-Serif" font-size="10.00">SharedSpiCard::writeSector</text>
</a>
</g>
</g>
<!-- Node34&#45;&gt;Node35 -->
<g id="edge46_Node000034_Node000035" class="edge">
<title>Node34&#45;&gt;Node35</title>
<g id="a_edge46_Node000034_Node000035"><a xlink:title=" ">
<path fill="none" stroke="#63b8ff" d="M775.08,-325.05C786.29,-323.46 798.77,-321.69 811.23,-319.93"/>
<polygon fill="#63b8ff" stroke="#63b8ff" points="811.79,-323.39 821.2,-318.52 810.81,-316.46 811.79,-323.39"/>
</a>
</g>
</g>
<!-- Node35&#45;&gt;Node7 -->
<g id="edge47_Node000035_Node000007" class="edge">
<title>Node35&#45;&gt;Node7</title>
<g id="a_edge47_Node000035_Node000007"><a xlink:title=" ">
<path fill="none" stroke="#63b8ff" d="M908.81,-299.41C942.47,-281.79 1014.33,-244.17 1053.91,-223.44"/>
<polygon fill="#63b8ff" stroke="#63b8ff" points="1056.01,-226.3 1063.24,-218.56 1052.76,-220.1 1056.01,-226.3"/>
</a>
</g>
</g>
<!-- Node35&#45;&gt;Node8 -->
<g id="edge49_Node000035_Node000008" class="edge">
<title>Node35&#45;&gt;Node8</title>
<g id="a_edge49_Node000035_Node000008"><a xlink:title=" ">
<path fill="none" stroke="#63b8ff" d="M893.61,-299.29C903.86,-268.66 939.47,-172.97 1000,-119 1099.4,-30.37 1141.83,0 1275,0 1275,0 1275,0 1459,0 1580.39,0 1720.42,-37.31 1787.17,-57.45"/>
<polygon fill="#63b8ff" stroke="#63b8ff" points="1786.27,-60.84 1796.85,-60.41 1788.31,-54.15 1786.27,-60.84"/>
</a>
</g>
</g>
<!-- Node35&#45;&gt;Node21 -->
<g id="edge48_Node000035_Node000021" class="edge">
<title>Node35&#45;&gt;Node21</title>
<g id="a_edge48_Node000035_Node000021"><a xlink:title=" ">
<path fill="none" stroke="#63b8ff" d="M922.23,-318.51C1015.67,-345.22 1297.76,-416.51 1529,-378 1556,-373.5 1585.31,-363.09 1606.57,-354.45"/>
<polygon fill="#63b8ff" stroke="#63b8ff" points="1608.14,-357.59 1616.02,-350.51 1605.45,-351.12 1608.14,-357.59"/>
</a>
</g>
</g>
<!-- Node35&#45;&gt;Node22 -->
<g id="edge50_Node000035_Node000022" class="edge">
<title>Node35&#45;&gt;Node22</title>
<g id="a_edge50_Node000035_Node000022"><a xlink:title=" ">
<path fill="none" stroke="#63b8ff" d="M964.12,-306.53C1106.82,-301.76 1419.57,-291.28 1562.76,-286.49"/>
<polygon fill="#63b8ff" stroke="#63b8ff" points="1562.9,-289.98 1572.77,-286.15 1562.66,-282.99 1562.9,-289.98"/>
</a>
</g>
</g>
<!-- Node35&#45;&gt;Node27 -->
<g id="edge52_Node000035_Node000027" class="edge">
<title>Node35&#45;&gt;Node27</title>
<g id="a_edge52_Node000035_Node000027"><a xlink:title=" ">
<path fill="none" stroke="#63b8ff" d="M896.96,-299.23C912.23,-276.86 952.84,-221.53 1000,-191 1175.72,-77.25 1436.69,-89.01 1563.08,-103.3"/>
<polygon fill="#63b8ff" stroke="#63b8ff" points="1562.71,-106.78 1573.04,-104.47 1563.52,-99.83 1562.71,-106.78"/>
</a>
</g>
</g>
<!-- Node35&#45;&gt;Node32 -->
<g id="edge51_Node000035_Node000032" class="edge">
<title>Node35&#45;&gt;Node32</title>
<g id="a_edge51_Node000035_Node000032"><a xlink:title=" ">
<path fill="none" stroke="#63b8ff" d="M900.18,-318.6C918.27,-336.05 959.09,-373.05 1000,-394 1008.86,-398.54 1018.72,-402.35 1028.42,-405.51"/>
<polygon fill="#63b8ff" stroke="#63b8ff" points="1027.46,-408.87 1038.04,-408.45 1029.5,-402.18 1027.46,-408.87"/>
</a>
</g>
</g>
<!-- Node36 -->
<g id="Node000036" class="node">
<title>Node36</title>
<g id="a_Node000036"><a xlink:href="../../d8/d7f/classSharedSpiCard.xhtml#a5b6d7ad34f56d0d6a6c5059d920499ba" target="_top" xlink:title=" ">
<polygon fill="white" stroke="#666666" points="1529,-350.5 1387,-350.5 1387,-331.5 1529,-331.5 1529,-350.5"/>
<text text-anchor="middle" x="1458" y="-338.5" font-family="Helvetica,sans-Serif" font-size="10.00">SharedSpiCard::writeData</text>
</a>
</g>
</g>
<!-- Node35&#45;&gt;Node36 -->
<g id="edge53_Node000035_Node000036" class="edge">
<title>Node35&#45;&gt;Node36</title>
<g id="a_edge53_Node000035_Node000036"><a xlink:title=" ">
<path fill="none" stroke="#63b8ff" d="M964.1,-315.37C976.1,-316.32 988.39,-317.23 1000,-318 1131.99,-326.74 1285.61,-333.84 1376.89,-337.74"/>
<polygon fill="#63b8ff" stroke="#63b8ff" points="1376.75,-341.24 1386.89,-338.16 1377.05,-334.24 1376.75,-341.24"/>
</a>
</g>
</g>
<!-- Node36&#45;&gt;Node21 -->
<g id="edge54_Node000036_Node000021" class="edge">
<title>Node36&#45;&gt;Node21</title>
<g id="a_edge54_Node000036_Node000021"><a xlink:title=" ">
<path fill="none" stroke="#63b8ff" d="M1529.09,-341C1542.22,-341 1555.92,-341 1568.99,-341"/>
<polygon fill="#63b8ff" stroke="#63b8ff" points="1569.3,-344.5 1579.3,-341 1569.3,-337.5 1569.3,-344.5"/>
</a>
</g>
</g>
<!-- Node36&#45;&gt;Node22 -->
<g id="edge55_Node000036_Node000022" class="edge">
<title>Node36&#45;&gt;Node22</title>
<g id="a_edge55_Node000036_Node000022"><a xlink:title=" ">
<path fill="none" stroke="#63b8ff" d="M1488.79,-331.46C1518.57,-321.92 1564.53,-307.21 1597.37,-296.69"/>
<polygon fill="#63b8ff" stroke="#63b8ff" points="1598.65,-299.95 1607.11,-293.57 1596.52,-293.29 1598.65,-299.95"/>
</a>
</g>
</g>
<!-- Node36&#45;&gt;Node27 -->
<g id="edge56_Node000036_Node000027" class="edge">
<title>Node36&#45;&gt;Node27</title>
<g id="a_edge56_Node000036_Node000027"><a xlink:title=" ">
<path fill="none" stroke="#63b8ff" d="M1476.43,-331.36C1492.54,-321.55 1515.9,-304.83 1529,-284 1565.5,-225.97 1517.39,-183.33 1565,-134 1566.81,-132.12 1568.79,-130.41 1570.88,-128.86"/>
<polygon fill="#63b8ff" stroke="#63b8ff" points="1572.78,-131.81 1579.51,-123.63 1569.14,-125.83 1572.78,-131.81"/>
</a>
</g>
</g>
<!-- Node36&#45;&gt;Node36 -->
<g id="edge57_Node000036_Node000036" class="edge">
<title>Node36&#45;&gt;Node36</title>
<g id="a_edge57_Node000036_Node000036"><a xlink:title=" ">
<path fill="none" stroke="#63b8ff" d="M1430.26,-350.58C1416.76,-359.23 1426.01,-368.5 1458,-368.5 1479.49,-368.5 1490.72,-364.32 1491.68,-358.95"/>
<polygon fill="#63b8ff" stroke="#63b8ff" points="1494.39,-356.71 1485.74,-350.58 1488.68,-360.76 1494.39,-356.71"/>
</a>
</g>
</g>
</g>
</svg>
