<?xml version="1.0" encoding="UTF-8" standalone="no"?>
<!DOCTYPE svg PUBLIC "-//W3C//DTD SVG 1.1//EN"
 "http://www.w3.org/Graphics/SVG/1.1/DTD/svg11.dtd">
<!-- Generated by graphviz version 2.43.0 (0)
 -->
<!-- Title: ExFatFile::getAccessDateTime Pages: 1 -->
<!--zoomable 568 -->

<svg id="main" version="1.1" xmlns="http://www.w3.org/2000/svg" xmlns:xlink="http://www.w3.org/1999/xlink" xml:space="preserve" onload="init(evt)">
<style type="text/css"><![CDATA[
.node, .edge {opacity: 0.7;}
.node.selected, .edge.selected {opacity: 1;}
.edge:hover path { stroke: red; }
.edge:hover polygon { stroke: red; fill: red; }
]]></style>

<defs>
  <circle id="rim" cx="0" cy="0" r="7"/>
  <circle id="rim2" cx="0" cy="0" r="3.5"/>
  <g id="zoomPlus">
    <use xlink:href="#rim" fill="#404040"><set attributeName="fill" to="#808080" begin="zoomplus.mouseover" end="zoomplus.mouseout"/></use>
    <path d="M-4,0h8M0,-4v8" fill="none" stroke="white" stroke-width="1.5" pointer-events="none"/>
  </g>
  <g id="zoomMin">
    <use xlink:href="#rim" fill="#404040"><set attributeName="fill" to="#808080" begin="zoomminus.mouseover" end="zoomminus.mouseout"/></use>
    <path d="M-4,0h8" fill="none" stroke="white" stroke-width="1.5" pointer-events="none"/>
  </g>
  <g id="arrowUp" transform="translate(30 24)">
    <use xlink:href="#rim"/>
    <path pointer-events="none" fill="none" stroke="white" stroke-width="1.5" d="M0,-3.0v7 M-2.5,-0.5L0,-3.0L2.5,-0.5"/>
  </g>
  <g id="arrowRight" transform="rotate(90) translate(36 -43)">
    <use xlink:href="#rim"/>
    <path pointer-events="none" fill="none" stroke="white" stroke-width="1.5" d="M0,-3.0v7 M-2.5,-0.5L0,-3.0L2.5,-0.5"/>
  </g>
  <g id="arrowDown" transform="rotate(180) translate(-30 -48)">
    <use xlink:href="#rim"/>
    <path pointer-events="none" fill="none" stroke="white" stroke-width="1.5" d="M0,-3.0v7 M-2.5,-0.5L0,-3.0L2.5,-0.5"/>
  </g>
  <g id="arrowLeft" transform="rotate(270) translate(-36 17)">
    <use xlink:href="#rim"/>
    <path pointer-events="none" fill="none" stroke="white" stroke-width="1.5" d="M0,-3.0v7 M-2.5,-0.5L0,-3.0L2.5,-0.5"/>
  </g>
  <g id="resetDef">
    <use xlink:href="#rim2" fill="#404040"><set attributeName="fill" to="#808080" begin="reset.mouseover" end="reset.mouseout"/></use>
  </g>
</defs>
<script type="application/ecmascript">
var viewWidth = 2286;
var viewHeight = 568;
var sectionId = 'dynsection-37';
</script>
<script type="application/ecmascript" xlink:href="../../svg.min.js"/>
<svg id="graph" class="graph">
<g id="viewport">
<title>ExFatFile::getAccessDateTime</title>
<!-- Node1 -->
<g id="Node000001" class="node">
<title>Node1</title>
<g id="a_Node000001"><a xlink:title=" ">
<polygon fill="#999999" stroke="#666666" points="164,-401.5 0,-401.5 0,-382.5 164,-382.5 164,-401.5"/>
<text text-anchor="middle" x="82" y="-389.5" font-family="Helvetica,sans-Serif" font-size="10.00">ExFatFile::getAccessDateTime</text>
</a>
</g>
</g>
<!-- Node2 -->
<g id="Node000002" class="node">
<title>Node2</title>
<g id="a_Node000002"><a xlink:href="../../d0/d63/classExFatPartition.xhtml#a854529565ac49818bce4c3b2ceefedee" target="_top" xlink:title=" ">
<polygon fill="white" stroke="#666666" points="332,-420.5 200,-420.5 200,-401.5 332,-401.5 332,-420.5"/>
<text text-anchor="middle" x="266" y="-408.5" font-family="Helvetica,sans-Serif" font-size="10.00">ExFatPartition::dirCache</text>
</a>
</g>
</g>
<!-- Node1&#45;&gt;Node2 -->
<g id="edge1_Node000001_Node000002" class="edge">
<title>Node1&#45;&gt;Node2</title>
<g id="a_edge1_Node000001_Node000002"><a xlink:title=" ">
<path fill="none" stroke="#63b8ff" d="M164.15,-400.47C172.64,-401.36 181.25,-402.26 189.67,-403.14"/>
<polygon fill="#63b8ff" stroke="#63b8ff" points="189.53,-406.64 199.83,-404.2 190.25,-399.68 189.53,-406.64"/>
</a>
</g>
</g>
<!-- Node37 -->
<g id="Node000037" class="node">
<title>Node37</title>
<g id="a_Node000037"><a xlink:href="../../dc/d87/FsStructs_8h.xhtml#a89aef4aa8e8032eab2982d660e7b8a81" target="_top" xlink:title=" ">
<polygon fill="white" stroke="#666666" points="294,-383.5 238,-383.5 238,-364.5 294,-364.5 294,-383.5"/>
<text text-anchor="middle" x="266" y="-371.5" font-family="Helvetica,sans-Serif" font-size="10.00">getLe16</text>
</a>
</g>
</g>
<!-- Node1&#45;&gt;Node37 -->
<g id="edge58_Node000001_Node000037" class="edge">
<title>Node1&#45;&gt;Node37</title>
<g id="a_edge58_Node000001_Node000037"><a xlink:title=" ">
<path fill="none" stroke="#63b8ff" d="M164.15,-383.97C186.44,-381.77 209.53,-379.49 227.98,-377.66"/>
<polygon fill="#63b8ff" stroke="#63b8ff" points="228.39,-381.14 238,-376.67 227.7,-374.17 228.39,-381.14"/>
</a>
</g>
</g>
<!-- Node3 -->
<g id="Node000003" class="node">
<title>Node3</title>
<g id="a_Node000003"><a xlink:href="../../d0/d63/classExFatPartition.xhtml#a80c3935eee856eaa3938e80a32139722" target="_top" xlink:title=" ">
<polygon fill="white" stroke="#666666" points="514,-450 368,-450 368,-420 514,-420 514,-450"/>
<text text-anchor="start" x="376" y="-438" font-family="Helvetica,sans-Serif" font-size="10.00">ExFatPartition::clusterStart</text>
<text text-anchor="middle" x="441" y="-427" font-family="Helvetica,sans-Serif" font-size="10.00">Sector</text>
</a>
</g>
</g>
<!-- Node2&#45;&gt;Node3 -->
<g id="edge2_Node000002_Node000003" class="edge">
<title>Node2&#45;&gt;Node3</title>
<g id="a_edge2_Node000002_Node000003"><a xlink:title=" ">
<path fill="none" stroke="#63b8ff" d="M332.4,-420.07C340.73,-421.23 349.32,-422.42 357.87,-423.61"/>
<polygon fill="#63b8ff" stroke="#63b8ff" points="357.46,-427.08 367.85,-424.99 358.42,-420.15 357.46,-427.08"/>
</a>
</g>
</g>
<!-- Node4 -->
<g id="Node000004" class="node">
<title>Node4</title>
<g id="a_Node000004"><a xlink:href="../../d0/d63/classExFatPartition.xhtml#a236e1ae2dfd3e7acc8dfa0cbf4658453" target="_top" xlink:title=" ">
<polygon fill="white" stroke="#666666" points="511.5,-402 370.5,-402 370.5,-372 511.5,-372 511.5,-402"/>
<text text-anchor="start" x="378.5" y="-390" font-family="Helvetica,sans-Serif" font-size="10.00">ExFatPartition::dataCache</text>
<text text-anchor="middle" x="441" y="-379" font-family="Helvetica,sans-Serif" font-size="10.00">Prepare</text>
</a>
</g>
</g>
<!-- Node2&#45;&gt;Node4 -->
<g id="edge3_Node000002_Node000004" class="edge">
<title>Node2&#45;&gt;Node4</title>
<g id="a_edge3_Node000002_Node000004"><a xlink:title=" ">
<path fill="none" stroke="#63b8ff" d="M332.4,-401.93C341.54,-400.66 351.01,-399.35 360.37,-398.05"/>
<polygon fill="#63b8ff" stroke="#63b8ff" points="361.04,-401.49 370.46,-396.65 360.08,-394.55 361.04,-401.49"/>
</a>
</g>
</g>
<!-- Node5 -->
<g id="Node000005" class="node">
<title>Node5</title>
<g id="a_Node000005"><a xlink:href="../../dd/db1/classFsCache.xhtml#a8c11f064a2ce0a380f522392f09d63cb" target="_top" xlink:title=" ">
<polygon fill="white" stroke="#666666" points="651,-396.5 550,-396.5 550,-377.5 651,-377.5 651,-396.5"/>
<text text-anchor="middle" x="600.5" y="-384.5" font-family="Helvetica,sans-Serif" font-size="10.00">FsCache::prepare</text>
</a>
</g>
</g>
<!-- Node4&#45;&gt;Node5 -->
<g id="edge4_Node000004_Node000005" class="edge">
<title>Node4&#45;&gt;Node5</title>
<g id="a_edge4_Node000004_Node000005"><a xlink:title=" ">
<path fill="none" stroke="#63b8ff" d="M511.54,-387C520.88,-387 530.4,-387 539.55,-387"/>
<polygon fill="#63b8ff" stroke="#63b8ff" points="539.71,-390.5 549.71,-387 539.71,-383.5 539.71,-390.5"/>
</a>
</g>
</g>
<!-- Node6 -->
<g id="Node000006" class="node">
<title>Node6</title>
<g id="a_Node000006"><a xlink:href="../../d8/d7f/classSharedSpiCard.xhtml#a61d86f4092f8ddbc7339d7cbcf6f70c0" target="_top" xlink:title=" ">
<polygon fill="white" stroke="#666666" points="964.5,-446.5 818.5,-446.5 818.5,-427.5 964.5,-427.5 964.5,-446.5"/>
<text text-anchor="middle" x="891.5" y="-434.5" font-family="Helvetica,sans-Serif" font-size="10.00">SharedSpiCard::readSector</text>
</a>
</g>
</g>
<!-- Node5&#45;&gt;Node6 -->
<g id="edge5_Node000005_Node000006" class="edge">
<title>Node5&#45;&gt;Node6</title>
<g id="a_edge5_Node000005_Node000006"><a xlink:title=" ">
<path fill="none" stroke="#63b8ff" d="M641.83,-396.55C656.06,-399.76 672.2,-403.23 687,-406 727.3,-413.54 772.34,-420.54 809.79,-425.98"/>
<polygon fill="#63b8ff" stroke="#63b8ff" points="809.74,-429.51 820.14,-427.47 810.74,-422.58 809.74,-429.51"/>
</a>
</g>
</g>
<!-- Node33 -->
<g id="Node000033" class="node">
<title>Node33</title>
<g id="a_Node000033"><a xlink:href="../../dd/db1/classFsCache.xhtml#a5b90e145400de8687d9f34536b134130" target="_top" xlink:title=" ">
<polygon fill="white" stroke="#666666" points="781,-396.5 687,-396.5 687,-377.5 781,-377.5 781,-396.5"/>
<text text-anchor="middle" x="734" y="-384.5" font-family="Helvetica,sans-Serif" font-size="10.00">FsCache::sector</text>
</a>
</g>
</g>
<!-- Node5&#45;&gt;Node33 -->
<g id="edge44_Node000005_Node000033" class="edge">
<title>Node5&#45;&gt;Node33</title>
<g id="a_edge44_Node000005_Node000033"><a xlink:title=" ">
<path fill="none" stroke="#63b8ff" d="M651.21,-387C659.49,-387 668.12,-387 676.55,-387"/>
<polygon fill="#63b8ff" stroke="#63b8ff" points="676.68,-390.5 686.68,-387 676.68,-383.5 676.68,-390.5"/>
</a>
</g>
</g>
<!-- Node34 -->
<g id="Node000034" class="node">
<title>Node34</title>
<g id="a_Node000034"><a xlink:href="../../dd/db1/classFsCache.xhtml#a5a2c8fb432d7b7590ebb43200ca21893" target="_top" xlink:title=" ">
<polygon fill="white" stroke="#666666" points="777,-340.5 691,-340.5 691,-321.5 777,-321.5 777,-340.5"/>
<text text-anchor="middle" x="734" y="-328.5" font-family="Helvetica,sans-Serif" font-size="10.00">FsCache::sync</text>
</a>
</g>
</g>
<!-- Node5&#45;&gt;Node34 -->
<g id="edge45_Node000005_Node000034" class="edge">
<title>Node5&#45;&gt;Node34</title>
<g id="a_edge45_Node000005_Node000034"><a xlink:title=" ">
<path fill="none" stroke="#63b8ff" d="M624.11,-377.37C645.4,-368.3 677.52,-354.63 701.36,-344.48"/>
<polygon fill="#63b8ff" stroke="#63b8ff" points="702.86,-347.64 710.69,-340.5 700.12,-341.2 702.86,-347.64"/>
</a>
</g>
</g>
<!-- Node7 -->
<g id="Node000007" class="node">
<title>Node7</title>
<g id="a_Node000007"><a xlink:href="../../d8/d7f/classSharedSpiCard.xhtml#adda33199753fc2aec74fe317cbaabc06" target="_top" xlink:title=" ">
<polygon fill="white" stroke="#666666" points="1167,-218.5 1002,-218.5 1002,-199.5 1167,-199.5 1167,-218.5"/>
<text text-anchor="middle" x="1084.5" y="-206.5" font-family="Helvetica,sans-Serif" font-size="10.00">SharedSpiCard::cardCommand</text>
</a>
</g>
</g>
<!-- Node6&#45;&gt;Node7 -->
<g id="edge6_Node000006_Node000007" class="edge">
<title>Node6&#45;&gt;Node7</title>
<g id="a_edge6_Node000006_Node000007"><a xlink:title=" ">
<path fill="none" stroke="#63b8ff" d="M900.46,-427.49C929.65,-392.66 1031.01,-271.66 1068.99,-226.33"/>
<polygon fill="#63b8ff" stroke="#63b8ff" points="1071.76,-228.46 1075.5,-218.55 1066.4,-223.97 1071.76,-228.46"/>
</a>
</g>
</g>
<!-- Node21 -->
<g id="Node000021" class="node">
<title>Node21</title>
<g id="a_Node000021"><a xlink:href="../../d8/d7f/classSharedSpiCard.xhtml#a747c3f0b962098cf0c097f3c4c2b4fd4" target="_top" xlink:title=" ">
<polygon fill="white" stroke="#666666" points="1698.5,-350.5 1581.5,-350.5 1581.5,-331.5 1698.5,-331.5 1698.5,-350.5"/>
<text text-anchor="middle" x="1640" y="-338.5" font-family="Helvetica,sans-Serif" font-size="10.00">SharedSpiCard::error</text>
</a>
</g>
</g>
<!-- Node6&#45;&gt;Node21 -->
<g id="edge39_Node000006_Node000021" class="edge">
<title>Node6&#45;&gt;Node21</title>
<g id="a_edge39_Node000006_Node000021"><a xlink:title=" ">
<path fill="none" stroke="#63b8ff" d="M918.48,-446.6C1008.56,-478.21 1313.76,-571.45 1531,-470 1580,-447.12 1614.62,-389.85 1630.03,-359.91"/>
<polygon fill="#63b8ff" stroke="#63b8ff" points="1633.36,-361.07 1634.67,-350.56 1627.09,-357.96 1633.36,-361.07"/>
</a>
</g>
</g>
<!-- Node22 -->
<g id="Node000022" class="node">
<title>Node22</title>
<g id="a_Node000022"><a xlink:href="../../d8/d7f/classSharedSpiCard.xhtml#a0f511c39c50055a4fc97e720933aee3a" target="_top" xlink:title=" ">
<polygon fill="white" stroke="#666666" points="1705,-293.5 1575,-293.5 1575,-274.5 1705,-274.5 1705,-293.5"/>
<text text-anchor="middle" x="1640" y="-281.5" font-family="Helvetica,sans-Serif" font-size="10.00">SharedSpiCard::spiStop</text>
</a>
</g>
</g>
<!-- Node6&#45;&gt;Node22 -->
<g id="edge42_Node000006_Node000022" class="edge">
<title>Node6&#45;&gt;Node22</title>
<g id="a_edge42_Node000006_Node000022"><a xlink:title=" ">
<path fill="none" stroke="#63b8ff" d="M940.15,-446.51C1053.18,-466.32 1342.17,-500.63 1531,-378 1555.5,-362.09 1545.5,-342.78 1567,-323 1578.11,-312.78 1592.4,-304.32 1605.31,-297.93"/>
<polygon fill="#63b8ff" stroke="#63b8ff" points="1606.85,-301.07 1614.41,-293.64 1603.87,-294.74 1606.85,-301.07"/>
</a>
</g>
</g>
<!-- Node31 -->
<g id="Node000031" class="node">
<title>Node31</title>
<g id="a_Node000031"><a xlink:href="../../d8/d7f/classSharedSpiCard.xhtml#abeae3cdc162f24c2d450abe4e1ed8340" target="_top" xlink:title=" ">
<polygon fill="white" stroke="#666666" points="1154,-541.5 1015,-541.5 1015,-522.5 1154,-522.5 1154,-541.5"/>
<text text-anchor="middle" x="1084.5" y="-529.5" font-family="Helvetica,sans-Serif" font-size="10.00">SharedSpiCard::readData</text>
</a>
</g>
</g>
<!-- Node6&#45;&gt;Node31 -->
<g id="edge40_Node000006_Node000031" class="edge">
<title>Node6&#45;&gt;Node31</title>
<g id="a_edge40_Node000006_Node000031"><a xlink:title=" ">
<path fill="none" stroke="#63b8ff" d="M904.62,-446.56C924.12,-461.53 964.12,-490.59 1002,-508 1011.65,-512.43 1022.32,-516.27 1032.67,-519.5"/>
<polygon fill="#63b8ff" stroke="#63b8ff" points="1031.87,-522.91 1042.45,-522.41 1033.86,-516.2 1031.87,-522.91"/>
</a>
</g>
</g>
<!-- Node32 -->
<g id="Node000032" class="node">
<title>Node32</title>
<g id="a_Node000032"><a xlink:href="../../d8/d7f/classSharedSpiCard.xhtml#a7dac2190763d7b4b72163ed7131e8a87" target="_top" xlink:title=" ">
<polygon fill="white" stroke="#666666" points="1142.5,-427.5 1026.5,-427.5 1026.5,-408.5 1142.5,-408.5 1142.5,-427.5"/>
<text text-anchor="middle" x="1084.5" y="-415.5" font-family="Helvetica,sans-Serif" font-size="10.00">SharedSpiCard::type</text>
</a>
</g>
</g>
<!-- Node6&#45;&gt;Node32 -->
<g id="edge43_Node000006_Node000032" class="edge">
<title>Node6&#45;&gt;Node32</title>
<g id="a_edge43_Node000006_Node000032"><a xlink:title=" ">
<path fill="none" stroke="#63b8ff" d="M964.71,-429.82C981.59,-428.14 999.51,-426.35 1016.17,-424.7"/>
<polygon fill="#63b8ff" stroke="#63b8ff" points="1016.76,-428.16 1026.37,-423.68 1016.07,-421.19 1016.76,-428.16"/>
</a>
</g>
</g>
<!-- Node8 -->
<g id="Node000008" class="node">
<title>Node8</title>
<g id="a_Node000008"><a xlink:href="../../d8/d7f/classSharedSpiCard.xhtml#a08363209d938db87521cca6a84146041" target="_top" xlink:title=" ">
<polygon fill="white" stroke="#666666" points="1903,-79.5 1756,-79.5 1756,-60.5 1903,-60.5 1903,-79.5"/>
<text text-anchor="middle" x="1829.5" y="-67.5" font-family="Helvetica,sans-Serif" font-size="10.00">SharedSpiCard::spiReceive</text>
</a>
</g>
</g>
<!-- Node7&#45;&gt;Node8 -->
<g id="edge7_Node000007_Node000008" class="edge">
<title>Node7&#45;&gt;Node8</title>
<g id="a_edge7_Node000007_Node000008"><a xlink:title=" ">
<path fill="none" stroke="#63b8ff" d="M1094.76,-199.34C1113.27,-180.72 1157.07,-140.19 1203,-123 1387.4,-53.97 1623.07,-55.98 1745.8,-63.14"/>
<polygon fill="#63b8ff" stroke="#63b8ff" points="1745.68,-66.64 1755.87,-63.75 1746.11,-59.65 1745.68,-66.64"/>
</a>
</g>
</g>
<!-- Node10 -->
<g id="Node000010" class="node">
<title>Node10</title>
<g id="a_Node000010"><a xlink:href="../../d8/d7f/classSharedSpiCard.xhtml#ab311b9ad8a250f06afbe091f7abb118b" target="_top" xlink:title=" ">
<polygon fill="white" stroke="#666666" points="1895.5,-236.5 1763.5,-236.5 1763.5,-217.5 1895.5,-217.5 1895.5,-236.5"/>
<text text-anchor="middle" x="1829.5" y="-224.5" font-family="Helvetica,sans-Serif" font-size="10.00">SharedSpiCard::spiSend</text>
</a>
</g>
</g>
<!-- Node7&#45;&gt;Node10 -->
<g id="edge9_Node000007_Node000010" class="edge">
<title>Node7&#45;&gt;Node10</title>
<g id="a_edge9_Node000007_Node000010"><a xlink:title=" ">
<path fill="none" stroke="#63b8ff" d="M1167.22,-207.84C1256.59,-206.89 1404.02,-206.23 1531,-210 1606.65,-212.24 1692.98,-217.47 1753.09,-221.55"/>
<polygon fill="#63b8ff" stroke="#63b8ff" points="1753.04,-225.05 1763.25,-222.24 1753.52,-218.07 1753.04,-225.05"/>
</a>
</g>
</g>
<!-- Node12 -->
<g id="Node000012" class="node">
<title>Node12</title>
<g id="a_Node000012"><a xlink:href="../../d8/d7f/classSharedSpiCard.xhtml#aef2dfa72e8d5643c90720f9f8c6a4254" target="_top" xlink:title=" ">
<polygon fill="white" stroke="#666666" points="1705.5,-161.5 1574.5,-161.5 1574.5,-142.5 1705.5,-142.5 1705.5,-161.5"/>
<text text-anchor="middle" x="1640" y="-149.5" font-family="Helvetica,sans-Serif" font-size="10.00">SharedSpiCard::spiStart</text>
</a>
</g>
</g>
<!-- Node7&#45;&gt;Node12 -->
<g id="edge11_Node000007_Node000012" class="edge">
<title>Node7&#45;&gt;Node12</title>
<g id="a_edge11_Node000007_Node000012"><a xlink:title=" ">
<path fill="none" stroke="#63b8ff" d="M1113.13,-199.39C1136.69,-191.64 1171.65,-181.2 1203,-176 1328.53,-155.18 1476.89,-151.34 1564.17,-151.17"/>
<polygon fill="#63b8ff" stroke="#63b8ff" points="1564.25,-154.67 1574.25,-151.17 1564.25,-147.67 1564.25,-154.67"/>
</a>
</g>
</g>
<!-- Node19 -->
<g id="Node000019" class="node">
<title>Node19</title>
<g id="a_Node000019"><a xlink:href="../../d8/d7f/classSharedSpiCard.xhtml#a2f181b3d6f27413a0f5ee883dfd94d87" target="_top" xlink:title=" ">
<polygon fill="white" stroke="#666666" points="1353,-237.5 1203,-237.5 1203,-218.5 1353,-218.5 1353,-237.5"/>
<text text-anchor="middle" x="1278" y="-225.5" font-family="Helvetica,sans-Serif" font-size="10.00">SharedSpiCard::syncDevice</text>
</a>
</g>
</g>
<!-- Node7&#45;&gt;Node19 -->
<g id="edge19_Node000007_Node000019" class="edge">
<title>Node7&#45;&gt;Node19</title>
<g id="a_edge19_Node000007_Node000019"><a xlink:title=" ">
<path fill="none" stroke="#63b8ff" d="M1167.27,-217.11C1175.65,-217.94 1184.18,-218.79 1192.59,-219.63"/>
<polygon fill="#63b8ff" stroke="#63b8ff" points="1192.48,-223.13 1202.78,-220.64 1193.17,-216.17 1192.48,-223.13"/>
</a>
</g>
</g>
<!-- Node27 -->
<g id="Node000027" class="node">
<title>Node27</title>
<g id="a_Node000027"><a xlink:href="../../d8/d7f/classSharedSpiCard.xhtml#ab3468397bb3b12d29dd2f31e45b3dcaf" target="_top" xlink:title=" ">
<polygon fill="white" stroke="#666666" points="1713,-123.5 1567,-123.5 1567,-104.5 1713,-104.5 1713,-123.5"/>
<text text-anchor="middle" x="1640" y="-111.5" font-family="Helvetica,sans-Serif" font-size="10.00">SharedSpiCard::waitReady</text>
</a>
</g>
</g>
<!-- Node7&#45;&gt;Node27 -->
<g id="edge38_Node000007_Node000027" class="edge">
<title>Node7&#45;&gt;Node27</title>
<g id="a_edge38_Node000007_Node000027"><a xlink:title=" ">
<path fill="none" stroke="#63b8ff" d="M1101.57,-199.48C1123.61,-186.93 1164.84,-165.24 1203,-155 1323.2,-122.73 1467.94,-114.97 1556.7,-113.56"/>
<polygon fill="#63b8ff" stroke="#63b8ff" points="1556.76,-117.06 1566.71,-113.43 1556.66,-110.06 1556.76,-117.06"/>
</a>
</g>
</g>
<!-- Node9 -->
<g id="Node000009" class="node">
<title>Node9</title>
<g id="a_Node000009"><a xlink:href="../../d0/d25/classSdSpiArduinoDriver.xhtml#a8d6bc852a52e9d69c4b1e48ee062e8d1" target="_top" xlink:title=" ">
<polygon fill="white" stroke="#666666" points="2057,-83 1946,-83 1946,-53 2057,-53 2057,-83"/>
<text text-anchor="start" x="1954" y="-71" font-family="Helvetica,sans-Serif" font-size="10.00">SdSpiArduinoDriver</text>
<text text-anchor="middle" x="2001.5" y="-60" font-family="Helvetica,sans-Serif" font-size="10.00">::receive</text>
</a>
</g>
</g>
<!-- Node8&#45;&gt;Node9 -->
<g id="edge8_Node000008_Node000009" class="edge">
<title>Node8&#45;&gt;Node9</title>
<g id="a_edge8_Node000008_Node000009"><a xlink:title=" ">
<path fill="none" stroke="#63b8ff" d="M1903.09,-69.15C1913.96,-69.02 1925.11,-68.89 1935.81,-68.76"/>
<polygon fill="#63b8ff" stroke="#63b8ff" points="1935.94,-72.26 1945.9,-68.64 1935.86,-65.26 1935.94,-72.26"/>
</a>
</g>
</g>
<!-- Node11 -->
<g id="Node000011" class="node">
<title>Node11</title>
<g id="a_Node000011"><a xlink:href="../../d0/d25/classSdSpiArduinoDriver.xhtml#a3c4842e47f98fe5d3799cd6028778ab5" target="_top" xlink:title=" ">
<polygon fill="white" stroke="#666666" points="2057,-255 1946,-255 1946,-225 2057,-225 2057,-255"/>
<text text-anchor="start" x="1954" y="-243" font-family="Helvetica,sans-Serif" font-size="10.00">SdSpiArduinoDriver</text>
<text text-anchor="middle" x="2001.5" y="-232" font-family="Helvetica,sans-Serif" font-size="10.00">::send</text>
</a>
</g>
</g>
<!-- Node10&#45;&gt;Node11 -->
<g id="edge10_Node000010_Node000011" class="edge">
<title>Node10&#45;&gt;Node11</title>
<g id="a_edge10_Node000010_Node000011"><a xlink:title=" ">
<path fill="none" stroke="#63b8ff" d="M1895.74,-231.99C1908.82,-232.99 1922.56,-234.04 1935.62,-235.04"/>
<polygon fill="#63b8ff" stroke="#63b8ff" points="1935.69,-238.55 1945.93,-235.83 1936.22,-231.57 1935.69,-238.55"/>
</a>
</g>
</g>
<!-- Node12&#45;&gt;Node10 -->
<g id="edge18_Node000012_Node000010" class="edge">
<title>Node12&#45;&gt;Node10</title>
<g id="a_edge18_Node000012_Node000010"><a xlink:title=" ">
<path fill="none" stroke="#63b8ff" d="M1679.67,-161.6C1690.85,-165.23 1702.78,-169.99 1713,-176 1731.71,-187.01 1729.77,-198.93 1749,-209 1752.57,-210.87 1756.32,-212.54 1760.18,-214.04"/>
<polygon fill="#63b8ff" stroke="#63b8ff" points="1759.33,-217.45 1769.93,-217.43 1761.63,-210.84 1759.33,-217.45"/>
</a>
</g>
</g>
<!-- Node13 -->
<g id="Node000013" class="node">
<title>Node13</title>
<g id="a_Node000013"><a xlink:href="../../d8/d7f/classSharedSpiCard.xhtml#a69ee2fe49dfaeea2347d8a265806d2b6" target="_top" xlink:title=" ">
<polygon fill="white" stroke="#666666" points="1904,-161.5 1755,-161.5 1755,-142.5 1904,-142.5 1904,-161.5"/>
<text text-anchor="middle" x="1829.5" y="-149.5" font-family="Helvetica,sans-Serif" font-size="10.00">SharedSpiCard::spiActivate</text>
</a>
</g>
</g>
<!-- Node12&#45;&gt;Node13 -->
<g id="edge12_Node000012_Node000013" class="edge">
<title>Node12&#45;&gt;Node13</title>
<g id="a_edge12_Node000012_Node000013"><a xlink:title=" ">
<path fill="none" stroke="#63b8ff" d="M1705.53,-152C1718.19,-152 1731.64,-152 1744.82,-152"/>
<polygon fill="#63b8ff" stroke="#63b8ff" points="1744.84,-155.5 1754.84,-152 1744.84,-148.5 1744.84,-155.5"/>
</a>
</g>
</g>
<!-- Node15 -->
<g id="Node000015" class="node">
<title>Node15</title>
<g id="a_Node000015"><a xlink:href="../../d8/d7f/classSharedSpiCard.xhtml#a8c3088599862ff6e84ae79bfdf32aea8" target="_top" xlink:title=" ">
<polygon fill="white" stroke="#666666" points="1898.5,-199.5 1760.5,-199.5 1760.5,-180.5 1898.5,-180.5 1898.5,-199.5"/>
<text text-anchor="middle" x="1829.5" y="-187.5" font-family="Helvetica,sans-Serif" font-size="10.00">SharedSpiCard::spiSelect</text>
</a>
</g>
</g>
<!-- Node12&#45;&gt;Node15 -->
<g id="edge14_Node000012_Node000015" class="edge">
<title>Node12&#45;&gt;Node15</title>
<g id="a_edge14_Node000012_Node000015"><a xlink:title=" ">
<path fill="none" stroke="#63b8ff" d="M1688.31,-161.59C1713.61,-166.72 1744.95,-173.07 1771.57,-178.46"/>
<polygon fill="#63b8ff" stroke="#63b8ff" points="1771.03,-181.92 1781.53,-180.48 1772.42,-175.06 1771.03,-181.92"/>
</a>
</g>
</g>
<!-- Node14 -->
<g id="Node000014" class="node">
<title>Node14</title>
<g id="a_Node000014"><a xlink:href="../../d0/d25/classSdSpiArduinoDriver.xhtml#abb6b88c5c8b87fc344a69f23f6eab3d9" target="_top" xlink:title=" ">
<polygon fill="white" stroke="#666666" points="2057,-169 1946,-169 1946,-139 2057,-139 2057,-169"/>
<text text-anchor="start" x="1954" y="-157" font-family="Helvetica,sans-Serif" font-size="10.00">SdSpiArduinoDriver</text>
<text text-anchor="middle" x="2001.5" y="-146" font-family="Helvetica,sans-Serif" font-size="10.00">::activate</text>
</a>
</g>
</g>
<!-- Node13&#45;&gt;Node14 -->
<g id="edge13_Node000013_Node000014" class="edge">
<title>Node13&#45;&gt;Node14</title>
<g id="a_edge13_Node000013_Node000014"><a xlink:title=" ">
<path fill="none" stroke="#63b8ff" d="M1904.08,-152.87C1914.57,-152.99 1925.31,-153.12 1935.63,-153.24"/>
<polygon fill="#63b8ff" stroke="#63b8ff" points="1935.74,-156.74 1945.78,-153.36 1935.82,-149.74 1935.74,-156.74"/>
</a>
</g>
</g>
<!-- Node16 -->
<g id="Node000016" class="node">
<title>Node16</title>
<g id="a_Node000016"><a xlink:href="../../d2/df0/SdSpiChipSelect_8cpp.xhtml#ac469bbe2d31ffde9b00ffc68258d7428" target="_top" xlink:title=" ">
<polygon fill="white" stroke="#666666" points="2034.5,-206.5 1968.5,-206.5 1968.5,-187.5 2034.5,-187.5 2034.5,-206.5"/>
<text text-anchor="middle" x="2001.5" y="-194.5" font-family="Helvetica,sans-Serif" font-size="10.00">sdCsWrite</text>
</a>
</g>
</g>
<!-- Node15&#45;&gt;Node16 -->
<g id="edge15_Node000015_Node000016" class="edge">
<title>Node15&#45;&gt;Node16</title>
<g id="a_edge15_Node000015_Node000016"><a xlink:title=" ">
<path fill="none" stroke="#63b8ff" d="M1898.67,-192.81C1918.74,-193.63 1940.12,-194.51 1958.09,-195.25"/>
<polygon fill="#63b8ff" stroke="#63b8ff" points="1958.1,-198.76 1968.23,-195.67 1958.38,-191.76 1958.1,-198.76"/>
</a>
</g>
</g>
<!-- Node17 -->
<g id="Node000017" class="node">
<title>Node17</title>
<g id="a_Node000017"><a xlink:href="../../d5/d45/wiring__digital_8c.xhtml#a73b9b61feeaf7d790d107f2954a7fd93" target="_top" xlink:title=" ">
<polygon fill="white" stroke="#666666" points="2167,-206.5 2093,-206.5 2093,-187.5 2167,-187.5 2167,-206.5"/>
<text text-anchor="middle" x="2130" y="-194.5" font-family="Helvetica,sans-Serif" font-size="10.00">digitalWrite</text>
</a>
</g>
</g>
<!-- Node16&#45;&gt;Node17 -->
<g id="edge16_Node000016_Node000017" class="edge">
<title>Node16&#45;&gt;Node17</title>
<g id="a_edge16_Node000016_Node000017"><a xlink:title=" ">
<path fill="none" stroke="#63b8ff" d="M2034.75,-197C2049.28,-197 2066.71,-197 2082.61,-197"/>
<polygon fill="#63b8ff" stroke="#63b8ff" points="2082.79,-200.5 2092.79,-197 2082.79,-193.5 2082.79,-200.5"/>
</a>
</g>
</g>
<!-- Node18 -->
<g id="Node000018" class="node">
<title>Node18</title>
<g id="a_Node000018"><a xlink:href="../../d5/d45/wiring__digital_8c.xhtml#ae3d0bcbe4eb927ca8f5d5c21b7e4f224" target="_top" xlink:title=" ">
<polygon fill="white" stroke="#666666" points="2278,-206.5 2203,-206.5 2203,-187.5 2278,-187.5 2278,-206.5"/>
<text text-anchor="middle" x="2240.5" y="-194.5" font-family="Helvetica,sans-Serif" font-size="10.00">turnOffPWM</text>
</a>
</g>
</g>
<!-- Node17&#45;&gt;Node18 -->
<g id="edge17_Node000017_Node000018" class="edge">
<title>Node17&#45;&gt;Node18</title>
<g id="a_edge17_Node000017_Node000018"><a xlink:title=" ">
<path fill="none" stroke="#63b8ff" d="M2167.13,-197C2175.28,-197 2184.05,-197 2192.57,-197"/>
<polygon fill="#63b8ff" stroke="#63b8ff" points="2192.79,-200.5 2202.79,-197 2192.79,-193.5 2192.79,-200.5"/>
</a>
</g>
</g>
<!-- Node20 -->
<g id="Node000020" class="node">
<title>Node20</title>
<g id="a_Node000020"><a xlink:href="../../d8/d7f/classSharedSpiCard.xhtml#ab33ad2aefbb9cff905cad0879dffc78b" target="_top" xlink:title=" ">
<polygon fill="white" stroke="#666666" points="1528.5,-274.5 1391.5,-274.5 1391.5,-255.5 1528.5,-255.5 1528.5,-274.5"/>
<text text-anchor="middle" x="1460" y="-262.5" font-family="Helvetica,sans-Serif" font-size="10.00">SharedSpiCard::readStop</text>
</a>
</g>
</g>
<!-- Node19&#45;&gt;Node20 -->
<g id="edge20_Node000019_Node000020" class="edge">
<title>Node19&#45;&gt;Node20</title>
<g id="a_edge20_Node000019_Node000020"><a xlink:title=" ">
<path fill="none" stroke="#63b8ff" d="M1325.35,-237.53C1348.88,-242.36 1377.66,-248.28 1402.48,-253.38"/>
<polygon fill="#63b8ff" stroke="#63b8ff" points="1401.99,-256.85 1412.49,-255.44 1403.4,-250 1401.99,-256.85"/>
</a>
</g>
</g>
<!-- Node26 -->
<g id="Node000026" class="node">
<title>Node26</title>
<g id="a_Node000026"><a xlink:href="../../d8/d7f/classSharedSpiCard.xhtml#ae9a34a573077e43e7c6028a16ae77fb3" target="_top" xlink:title=" ">
<polygon fill="white" stroke="#666666" points="1530,-237.5 1390,-237.5 1390,-218.5 1530,-218.5 1530,-237.5"/>
<text text-anchor="middle" x="1460" y="-225.5" font-family="Helvetica,sans-Serif" font-size="10.00">SharedSpiCard::writeStop</text>
</a>
</g>
</g>
<!-- Node19&#45;&gt;Node26 -->
<g id="edge29_Node000019_Node000026" class="edge">
<title>Node19&#45;&gt;Node26</title>
<g id="a_edge29_Node000019_Node000026"><a xlink:title=" ">
<path fill="none" stroke="#63b8ff" d="M1353.25,-228C1361.95,-228 1370.86,-228 1379.62,-228"/>
<polygon fill="#63b8ff" stroke="#63b8ff" points="1379.83,-231.5 1389.83,-228 1379.83,-224.5 1379.83,-231.5"/>
</a>
</g>
</g>
<!-- Node20&#45;&gt;Node7 -->
<g id="edge21_Node000020_Node000007" class="edge">
<title>Node20&#45;&gt;Node7</title>
<g id="a_edge21_Node000020_Node000007"><a xlink:title=" ">
<path fill="none" stroke="#63b8ff" d="M1391.31,-264.7C1339.37,-263.39 1266.09,-259.23 1203,-247 1173.9,-241.36 1141.96,-230.73 1118.74,-222.14"/>
<polygon fill="#63b8ff" stroke="#63b8ff" points="1119.95,-218.86 1109.35,-218.61 1117.48,-225.41 1119.95,-218.86"/>
</a>
</g>
</g>
<!-- Node20&#45;&gt;Node21 -->
<g id="edge22_Node000020_Node000021" class="edge">
<title>Node20&#45;&gt;Node21</title>
<g id="a_edge22_Node000020_Node000021"><a xlink:title=" ">
<path fill="none" stroke="#63b8ff" d="M1483.54,-274.63C1514.84,-287.99 1571.61,-312.23 1607.2,-327.42"/>
<polygon fill="#63b8ff" stroke="#63b8ff" points="1606.07,-330.74 1616.64,-331.45 1608.82,-324.31 1606.07,-330.74"/>
</a>
</g>
</g>
<!-- Node20&#45;&gt;Node22 -->
<g id="edge23_Node000020_Node000022" class="edge">
<title>Node20&#45;&gt;Node22</title>
<g id="a_edge23_Node000020_Node000022"><a xlink:title=" ">
<path fill="none" stroke="#63b8ff" d="M1528.55,-272.21C1540.38,-273.47 1552.75,-274.79 1564.75,-276.07"/>
<polygon fill="#63b8ff" stroke="#63b8ff" points="1564.41,-279.56 1574.73,-277.14 1565.16,-272.6 1564.41,-279.56"/>
</a>
</g>
</g>
<!-- Node22&#45;&gt;Node10 -->
<g id="edge26_Node000022_Node000010" class="edge">
<title>Node22&#45;&gt;Node10</title>
<g id="a_edge26_Node000022_Node000010"><a xlink:title=" ">
<path fill="none" stroke="#63b8ff" d="M1666.07,-274.35C1687.81,-266.18 1720.21,-254.48 1749,-246 1757.41,-243.52 1766.38,-241.14 1775.17,-238.94"/>
<polygon fill="#63b8ff" stroke="#63b8ff" points="1776.08,-242.32 1784.96,-236.54 1774.42,-235.52 1776.08,-242.32"/>
</a>
</g>
</g>
<!-- Node23 -->
<g id="Node000023" class="node">
<title>Node23</title>
<g id="a_Node000023"><a xlink:href="../../d8/d7f/classSharedSpiCard.xhtml#ac6acfca5a23337977d2e4436ab8ab39a" target="_top" xlink:title=" ">
<polygon fill="white" stroke="#666666" points="1910,-310.5 1749,-310.5 1749,-291.5 1910,-291.5 1910,-310.5"/>
<text text-anchor="middle" x="1829.5" y="-298.5" font-family="Helvetica,sans-Serif" font-size="10.00">SharedSpiCard::spiDeactivate</text>
</a>
</g>
</g>
<!-- Node22&#45;&gt;Node23 -->
<g id="edge24_Node000022_Node000023" class="edge">
<title>Node22&#45;&gt;Node23</title>
<g id="a_edge24_Node000022_Node000023"><a xlink:title=" ">
<path fill="none" stroke="#63b8ff" d="M1705,-289.8C1715.92,-290.79 1727.43,-291.84 1738.86,-292.87"/>
<polygon fill="#63b8ff" stroke="#63b8ff" points="1738.59,-296.36 1748.87,-293.78 1739.22,-289.39 1738.59,-296.36"/>
</a>
</g>
</g>
<!-- Node25 -->
<g id="Node000025" class="node">
<title>Node25</title>
<g id="a_Node000025"><a xlink:href="../../d8/d7f/classSharedSpiCard.xhtml#ad06a3278372300987b97876cf598c114" target="_top" xlink:title=" ">
<polygon fill="white" stroke="#666666" points="1905,-273.5 1754,-273.5 1754,-254.5 1905,-254.5 1905,-273.5"/>
<text text-anchor="middle" x="1829.5" y="-261.5" font-family="Helvetica,sans-Serif" font-size="10.00">SharedSpiCard::spiUnselect</text>
</a>
</g>
</g>
<!-- Node22&#45;&gt;Node25 -->
<g id="edge27_Node000022_Node000025" class="edge">
<title>Node22&#45;&gt;Node25</title>
<g id="a_edge27_Node000022_Node000025"><a xlink:title=" ">
<path fill="none" stroke="#63b8ff" d="M1705,-277.17C1717.39,-275.85 1730.55,-274.45 1743.49,-273.07"/>
<polygon fill="#63b8ff" stroke="#63b8ff" points="1744.23,-276.51 1753.8,-271.97 1743.49,-269.55 1744.23,-276.51"/>
</a>
</g>
</g>
<!-- Node24 -->
<g id="Node000024" class="node">
<title>Node24</title>
<g id="a_Node000024"><a xlink:href="../../d0/d25/classSdSpiArduinoDriver.xhtml#ae88a255f533e3acb41d1221025a69b55" target="_top" xlink:title=" ">
<polygon fill="white" stroke="#666666" points="2057,-316 1946,-316 1946,-286 2057,-286 2057,-316"/>
<text text-anchor="start" x="1954" y="-304" font-family="Helvetica,sans-Serif" font-size="10.00">SdSpiArduinoDriver</text>
<text text-anchor="middle" x="2001.5" y="-293" font-family="Helvetica,sans-Serif" font-size="10.00">::deactivate</text>
</a>
</g>
</g>
<!-- Node23&#45;&gt;Node24 -->
<g id="edge25_Node000023_Node000024" class="edge">
<title>Node23&#45;&gt;Node24</title>
<g id="a_edge25_Node000023_Node000024"><a xlink:title=" ">
<path fill="none" stroke="#63b8ff" d="M1910.02,-301C1918.63,-301 1927.3,-301 1935.7,-301"/>
<polygon fill="#63b8ff" stroke="#63b8ff" points="1935.78,-304.5 1945.78,-301 1935.78,-297.5 1935.78,-304.5"/>
</a>
</g>
</g>
<!-- Node25&#45;&gt;Node16 -->
<g id="edge28_Node000025_Node000016" class="edge">
<title>Node25&#45;&gt;Node16</title>
<g id="a_edge28_Node000025_Node000016"><a xlink:title=" ">
<path fill="none" stroke="#63b8ff" d="M1888.08,-254.38C1895.65,-252.14 1903.15,-249.38 1910,-246 1928.67,-236.78 1927.88,-226.26 1946,-216 1949.98,-213.75 1954.28,-211.69 1958.65,-209.84"/>
<polygon fill="#63b8ff" stroke="#63b8ff" points="1960.2,-212.99 1968.25,-206.1 1957.66,-206.47 1960.2,-212.99"/>
</a>
</g>
</g>
<!-- Node26&#45;&gt;Node10 -->
<g id="edge31_Node000026_Node000010" class="edge">
<title>Node26&#45;&gt;Node10</title>
<g id="a_edge31_Node000026_Node000010"><a xlink:title=" ">
<path fill="none" stroke="#63b8ff" d="M1530.12,-227.81C1593.67,-227.64 1687.68,-227.38 1753.14,-227.21"/>
<polygon fill="#63b8ff" stroke="#63b8ff" points="1753.4,-230.7 1763.39,-227.18 1753.38,-223.7 1753.4,-230.7"/>
</a>
</g>
</g>
<!-- Node26&#45;&gt;Node21 -->
<g id="edge30_Node000026_Node000021" class="edge">
<title>Node26&#45;&gt;Node21</title>
<g id="a_edge30_Node000026_Node000021"><a xlink:title=" ">
<path fill="none" stroke="#63b8ff" d="M1513.45,-237.59C1519.69,-240.05 1525.72,-243.13 1531,-247 1554.87,-264.49 1545.2,-282.99 1567,-303 1577.79,-312.9 1591.63,-321.01 1604.3,-327.16"/>
<polygon fill="#63b8ff" stroke="#63b8ff" points="1603.13,-330.48 1613.68,-331.47 1606.06,-324.12 1603.13,-330.48"/>
</a>
</g>
</g>
<!-- Node26&#45;&gt;Node22 -->
<g id="edge32_Node000026_Node000022" class="edge">
<title>Node26&#45;&gt;Node22</title>
<g id="a_edge32_Node000026_Node000022"><a xlink:title=" ">
<path fill="none" stroke="#63b8ff" d="M1497.82,-237.51C1508.56,-240.42 1520.29,-243.71 1531,-247 1555.21,-254.42 1582.16,-263.65 1603.08,-271.04"/>
<polygon fill="#63b8ff" stroke="#63b8ff" points="1601.93,-274.35 1612.53,-274.39 1604.27,-267.75 1601.93,-274.35"/>
</a>
</g>
</g>
<!-- Node26&#45;&gt;Node27 -->
<g id="edge33_Node000026_Node000027" class="edge">
<title>Node26&#45;&gt;Node27</title>
<g id="a_edge33_Node000026_Node000027"><a xlink:title=" ">
<path fill="none" stroke="#63b8ff" d="M1469.01,-218.44C1485.42,-199.46 1524.87,-156.92 1567,-134 1571.91,-131.33 1577.22,-128.99 1582.64,-126.94"/>
<polygon fill="#63b8ff" stroke="#63b8ff" points="1584.13,-130.13 1592.46,-123.58 1581.86,-123.51 1584.13,-130.13"/>
</a>
</g>
</g>
<!-- Node27&#45;&gt;Node8 -->
<g id="edge34_Node000027_Node000008" class="edge">
<title>Node27&#45;&gt;Node8</title>
<g id="a_edge34_Node000027_Node000008"><a xlink:title=" ">
<path fill="none" stroke="#63b8ff" d="M1681.68,-104.45C1709.94,-97.82 1747.79,-88.94 1777.98,-81.86"/>
<polygon fill="#63b8ff" stroke="#63b8ff" points="1778.96,-85.22 1787.89,-79.53 1777.36,-78.41 1778.96,-85.22"/>
</a>
</g>
</g>
<!-- Node28 -->
<g id="Node000028" class="node">
<title>Node28</title>
<g id="a_Node000028"><a xlink:href="../../db/df4/classTimeout.xhtml#abbabe99f42e52472ddd3a7e9d22dce95" target="_top" xlink:title=" ">
<polygon fill="white" stroke="#666666" points="1884,-121.5 1775,-121.5 1775,-102.5 1884,-102.5 1884,-121.5"/>
<text text-anchor="middle" x="1829.5" y="-109.5" font-family="Helvetica,sans-Serif" font-size="10.00">Timeout::timedOut</text>
</a>
</g>
</g>
<!-- Node27&#45;&gt;Node28 -->
<g id="edge35_Node000027_Node000028" class="edge">
<title>Node27&#45;&gt;Node28</title>
<g id="a_edge35_Node000027_Node000028"><a xlink:title=" ">
<path fill="none" stroke="#63b8ff" d="M1713.22,-113.23C1730.23,-113.05 1748.22,-112.86 1764.82,-112.68"/>
<polygon fill="#63b8ff" stroke="#63b8ff" points="1764.98,-116.18 1774.95,-112.57 1764.91,-109.18 1764.98,-116.18"/>
</a>
</g>
</g>
<!-- Node29 -->
<g id="Node000029" class="node">
<title>Node29</title>
<g id="a_Node000029"><a xlink:href="../../db/df4/classTimeout.xhtml#a9a72ea0591f11452fb15bfaa1ae5108a" target="_top" xlink:title=" ">
<polygon fill="white" stroke="#666666" points="2052.5,-120.5 1950.5,-120.5 1950.5,-101.5 2052.5,-101.5 2052.5,-120.5"/>
<text text-anchor="middle" x="2001.5" y="-108.5" font-family="Helvetica,sans-Serif" font-size="10.00">Timeout::millis16</text>
</a>
</g>
</g>
<!-- Node28&#45;&gt;Node29 -->
<g id="edge36_Node000028_Node000029" class="edge">
<title>Node28&#45;&gt;Node29</title>
<g id="a_edge36_Node000028_Node000029"><a xlink:title=" ">
<path fill="none" stroke="#63b8ff" d="M1884.29,-111.68C1902.02,-111.58 1921.85,-111.46 1940.04,-111.36"/>
<polygon fill="#63b8ff" stroke="#63b8ff" points="1940.26,-114.85 1950.24,-111.3 1940.22,-107.85 1940.26,-114.85"/>
</a>
</g>
</g>
<!-- Node30 -->
<g id="Node000030" class="node">
<title>Node30</title>
<g id="a_Node000030"><a xlink:href="../../d5/df3/wiring_8c.xhtml#a6ff7f2532a22366f0013bc41397129fd" target="_top" xlink:title=" ">
<polygon fill="white" stroke="#666666" points="2152,-120.5 2108,-120.5 2108,-101.5 2152,-101.5 2152,-120.5"/>
<text text-anchor="middle" x="2130" y="-108.5" font-family="Helvetica,sans-Serif" font-size="10.00">millis</text>
</a>
</g>
</g>
<!-- Node29&#45;&gt;Node30 -->
<g id="edge37_Node000029_Node000030" class="edge">
<title>Node29&#45;&gt;Node30</title>
<g id="a_edge37_Node000029_Node000030"><a xlink:title=" ">
<path fill="none" stroke="#63b8ff" d="M2052.86,-111C2067.97,-111 2084.11,-111 2097.62,-111"/>
<polygon fill="#63b8ff" stroke="#63b8ff" points="2097.83,-114.5 2107.83,-111 2097.83,-107.5 2097.83,-114.5"/>
</a>
</g>
</g>
<!-- Node31&#45;&gt;Node31 -->
<g id="edge41_Node000031_Node000031" class="edge">
<title>Node31&#45;&gt;Node31</title>
<g id="a_edge41_Node000031_Node000031"><a xlink:title=" ">
<path fill="none" stroke="#63b8ff" d="M1054.91,-541.58C1040.51,-550.23 1050.38,-559.5 1084.5,-559.5 1107.96,-559.5 1119.95,-555.12 1120.48,-549.57"/>
<polygon fill="#63b8ff" stroke="#63b8ff" points="1123.07,-547.21 1114.09,-541.58 1117.61,-551.58 1123.07,-547.21"/>
</a>
</g>
</g>
<!-- Node35 -->
<g id="Node000035" class="node">
<title>Node35</title>
<g id="a_Node000035"><a xlink:href="../../d8/d7f/classSharedSpiCard.xhtml#adf2ce56ca0a56fe841fbdf75f7f3faee" target="_top" xlink:title=" ">
<polygon fill="white" stroke="#666666" points="966,-318.5 817,-318.5 817,-299.5 966,-299.5 966,-318.5"/>
<text text-anchor="middle" x="891.5" y="-306.5" font-family="Helvetica,sans-Serif" font-size="10.00">SharedSpiCard::writeSector</text>
</a>
</g>
</g>
<!-- Node34&#45;&gt;Node35 -->
<g id="edge46_Node000034_Node000035" class="edge">
<title>Node34&#45;&gt;Node35</title>
<g id="a_edge46_Node000034_Node000035"><a xlink:title=" ">
<path fill="none" stroke="#63b8ff" d="M777.08,-325.05C788.29,-323.46 800.77,-321.69 813.23,-319.93"/>
<polygon fill="#63b8ff" stroke="#63b8ff" points="813.79,-323.39 823.2,-318.52 812.81,-316.46 813.79,-323.39"/>
</a>
</g>
</g>
<!-- Node35&#45;&gt;Node7 -->
<g id="edge47_Node000035_Node000007" class="edge">
<title>Node35&#45;&gt;Node7</title>
<g id="a_edge47_Node000035_Node000007"><a xlink:title=" ">
<path fill="none" stroke="#63b8ff" d="M910.81,-299.41C944.47,-281.79 1016.33,-244.17 1055.91,-223.44"/>
<polygon fill="#63b8ff" stroke="#63b8ff" points="1058.01,-226.3 1065.24,-218.56 1054.76,-220.1 1058.01,-226.3"/>
</a>
</g>
</g>
<!-- Node35&#45;&gt;Node8 -->
<g id="edge49_Node000035_Node000008" class="edge">
<title>Node35&#45;&gt;Node8</title>
<g id="a_edge49_Node000035_Node000008"><a xlink:title=" ">
<path fill="none" stroke="#63b8ff" d="M895.61,-299.29C905.86,-268.66 941.47,-172.97 1002,-119 1101.4,-30.37 1143.83,0 1277,0 1277,0 1277,0 1461,0 1582.39,0 1722.42,-37.31 1789.17,-57.45"/>
<polygon fill="#63b8ff" stroke="#63b8ff" points="1788.27,-60.84 1798.85,-60.41 1790.31,-54.15 1788.27,-60.84"/>
</a>
</g>
</g>
<!-- Node35&#45;&gt;Node21 -->
<g id="edge48_Node000035_Node000021" class="edge">
<title>Node35&#45;&gt;Node21</title>
<g id="a_edge48_Node000035_Node000021"><a xlink:title=" ">
<path fill="none" stroke="#63b8ff" d="M924.23,-318.51C1017.67,-345.22 1299.76,-416.51 1531,-378 1558,-373.5 1587.31,-363.09 1608.57,-354.45"/>
<polygon fill="#63b8ff" stroke="#63b8ff" points="1610.14,-357.59 1618.02,-350.51 1607.45,-351.12 1610.14,-357.59"/>
</a>
</g>
</g>
<!-- Node35&#45;&gt;Node22 -->
<g id="edge50_Node000035_Node000022" class="edge">
<title>Node35&#45;&gt;Node22</title>
<g id="a_edge50_Node000035_Node000022"><a xlink:title=" ">
<path fill="none" stroke="#63b8ff" d="M966.12,-306.53C1108.82,-301.76 1421.57,-291.28 1564.76,-286.49"/>
<polygon fill="#63b8ff" stroke="#63b8ff" points="1564.9,-289.98 1574.77,-286.15 1564.66,-282.99 1564.9,-289.98"/>
</a>
</g>
</g>
<!-- Node35&#45;&gt;Node27 -->
<g id="edge52_Node000035_Node000027" class="edge">
<title>Node35&#45;&gt;Node27</title>
<g id="a_edge52_Node000035_Node000027"><a xlink:title=" ">
<path fill="none" stroke="#63b8ff" d="M898.96,-299.23C914.23,-276.86 954.84,-221.53 1002,-191 1177.72,-77.25 1438.69,-89.01 1565.08,-103.3"/>
<polygon fill="#63b8ff" stroke="#63b8ff" points="1564.71,-106.78 1575.04,-104.47 1565.52,-99.83 1564.71,-106.78"/>
</a>
</g>
</g>
<!-- Node35&#45;&gt;Node32 -->
<g id="edge51_Node000035_Node000032" class="edge">
<title>Node35&#45;&gt;Node32</title>
<g id="a_edge51_Node000035_Node000032"><a xlink:title=" ">
<path fill="none" stroke="#63b8ff" d="M902.18,-318.6C920.27,-336.05 961.09,-373.05 1002,-394 1010.86,-398.54 1020.72,-402.35 1030.42,-405.51"/>
<polygon fill="#63b8ff" stroke="#63b8ff" points="1029.46,-408.87 1040.04,-408.45 1031.5,-402.18 1029.46,-408.87"/>
</a>
</g>
</g>
<!-- Node36 -->
<g id="Node000036" class="node">
<title>Node36</title>
<g id="a_Node000036"><a xlink:href="../../d8/d7f/classSharedSpiCard.xhtml#a5b6d7ad34f56d0d6a6c5059d920499ba" target="_top" xlink:title=" ">
<polygon fill="white" stroke="#666666" points="1531,-350.5 1389,-350.5 1389,-331.5 1531,-331.5 1531,-350.5"/>
<text text-anchor="middle" x="1460" y="-338.5" font-family="Helvetica,sans-Serif" font-size="10.00">SharedSpiCard::writeData</text>
</a>
</g>
</g>
<!-- Node35&#45;&gt;Node36 -->
<g id="edge53_Node000035_Node000036" class="edge">
<title>Node35&#45;&gt;Node36</title>
<g id="a_edge53_Node000035_Node000036"><a xlink:title=" ">
<path fill="none" stroke="#63b8ff" d="M966.1,-315.37C978.1,-316.32 990.39,-317.23 1002,-318 1133.99,-326.74 1287.61,-333.84 1378.89,-337.74"/>
<polygon fill="#63b8ff" stroke="#63b8ff" points="1378.75,-341.24 1388.89,-338.16 1379.05,-334.24 1378.75,-341.24"/>
</a>
</g>
</g>
<!-- Node36&#45;&gt;Node21 -->
<g id="edge54_Node000036_Node000021" class="edge">
<title>Node36&#45;&gt;Node21</title>
<g id="a_edge54_Node000036_Node000021"><a xlink:title=" ">
<path fill="none" stroke="#63b8ff" d="M1531.09,-341C1544.22,-341 1557.92,-341 1570.99,-341"/>
<polygon fill="#63b8ff" stroke="#63b8ff" points="1571.3,-344.5 1581.3,-341 1571.3,-337.5 1571.3,-344.5"/>
</a>
</g>
</g>
<!-- Node36&#45;&gt;Node22 -->
<g id="edge55_Node000036_Node000022" class="edge">
<title>Node36&#45;&gt;Node22</title>
<g id="a_edge55_Node000036_Node000022"><a xlink:title=" ">
<path fill="none" stroke="#63b8ff" d="M1490.79,-331.46C1520.57,-321.92 1566.53,-307.21 1599.37,-296.69"/>
<polygon fill="#63b8ff" stroke="#63b8ff" points="1600.65,-299.95 1609.11,-293.57 1598.52,-293.29 1600.65,-299.95"/>
</a>
</g>
</g>
<!-- Node36&#45;&gt;Node27 -->
<g id="edge56_Node000036_Node000027" class="edge">
<title>Node36&#45;&gt;Node27</title>
<g id="a_edge56_Node000036_Node000027"><a xlink:title=" ">
<path fill="none" stroke="#63b8ff" d="M1478.43,-331.36C1494.54,-321.55 1517.9,-304.83 1531,-284 1567.5,-225.97 1519.39,-183.33 1567,-134 1568.81,-132.12 1570.79,-130.41 1572.88,-128.86"/>
<polygon fill="#63b8ff" stroke="#63b8ff" points="1574.78,-131.81 1581.51,-123.63 1571.14,-125.83 1574.78,-131.81"/>
</a>
</g>
</g>
<!-- Node36&#45;&gt;Node36 -->
<g id="edge57_Node000036_Node000036" class="edge">
<title>Node36&#45;&gt;Node36</title>
<g id="a_edge57_Node000036_Node000036"><a xlink:title=" ">
<path fill="none" stroke="#63b8ff" d="M1432.26,-350.58C1418.76,-359.23 1428.01,-368.5 1460,-368.5 1481.49,-368.5 1492.72,-364.32 1493.68,-358.95"/>
<polygon fill="#63b8ff" stroke="#63b8ff" points="1496.39,-356.71 1487.74,-350.58 1490.68,-360.76 1496.39,-356.71"/>
</a>
</g>
</g>
</g>
</svg>

<g id="navigator" transform="translate(0 0)" fill="#404254">
  <rect fill="#f2f5e9" fill-opacity="0.5" stroke="#606060" stroke-width=".5" x="0" y="0" width="60" height="60"/>
  <use id="zoomplus" xlink:href="#zoomPlus" x="17" y="9" onmousedown="handleZoom(evt,'in')"/>
  <use id="zoomminus" xlink:href="#zoomMin" x="42" y="9" onmousedown="handleZoom(evt,'out')"/>
  <use id="reset" xlink:href="#resetDef" x="30" y="36" onmousedown="handleReset()"/>
   <use id="arrowup" xlink:href="#arrowUp" x="0" y="0" onmousedown="handlePan(0,-1)"/>
  <use id="arrowright" xlink:href="#arrowRight" x="0" y="0" onmousedown="handlePan(1,0)"/>
  <use id="arrowdown" xlink:href="#arrowDown" x="0" y="0" onmousedown="handlePan(0,1)"/>
  <use id="arrowleft" xlink:href="#arrowLeft" x="0" y="0" onmousedown="handlePan(-1,0)"/>
</g>
<svg viewBox="0 0 15 15" width="100%" height="30px" preserveAspectRatio="xMaxYMin meet">
 <g id="arrow_out" transform="scale(0.3 0.3)">
  <a xlink:href="classExFatFile_a0d935161fde4a3f8d2fcd13140073adc_cgraph_org.svg" target="_base">
   <rect id="button" ry="5" rx="5" y="6" x="6" height="38" width="38"
        fill="#f2f5e9" fill-opacity="0.5" stroke="#606060" stroke-width="1.0"/>
   <path id="arrow"
     d="M 11.500037,31.436501 C 11.940474,20.09759 22.043105,11.32322 32.158766,21.979434 L 37.068811,17.246167 C 37.068811,17.246167 37.088388,32 37.088388,32 L 22.160133,31.978069 C 22.160133,31.978069 26.997745,27.140456 26.997745,27.140456 C 18.528582,18.264221 13.291696,25.230495 11.500037,31.436501 z"
     style="fill:#404040;"/>
  </a>
 </g>
</svg>

<style type='text/css'>
<![CDATA[
[data-mouse-over-selected='false'] { opacity: 0.7; }
[data-mouse-over-selected='true']  { opacity: 1.0; }
]]>
</style>
<script type="application/ecmascript"><![CDATA[
document.addEventListener('DOMContentLoaded', (event) => {
  highlightEdges();
  highlightAdjacentNodes();
});
]]></script>
</svg>
