<?xml version="1.0" encoding="UTF-8" standalone="no"?>
<!DOCTYPE svg PUBLIC "-//W3C//DTD SVG 1.1//EN"
 "http://www.w3.org/Graphics/SVG/1.1/DTD/svg11.dtd">
<!-- Generated by graphviz version 2.43.0 (0)
 -->
<!-- Title: ExFatFile::isWritable Pages: 1 -->
<svg width="921pt" height="1053pt"
 viewBox="0.00 0.00 921.00 1053.27" xmlns="http://www.w3.org/2000/svg" xmlns:xlink="http://www.w3.org/1999/xlink">
<g id="graph0" class="graph" transform="scale(1 1) rotate(0) translate(4 1049.27)">
<title>ExFatFile::isWritable</title>
<!-- Node1 -->
<g id="Node000001" class="node">
<title>Node1</title>
<g id="a_Node000001"><a xlink:title=" ">
<polygon fill="#999999" stroke="#666666" points="913,-283.27 797,-283.27 797,-264.27 913,-264.27 913,-283.27"/>
<text text-anchor="middle" x="855" y="-271.27" font-family="Helvetica,sans-Serif" font-size="10.00">ExFatFile::isWritable</text>
</a>
</g>
</g>
<!-- Node2 -->
<g id="Node000002" class="node">
<title>Node2</title>
<g id="a_Node000002"><a xlink:href="../../d6/d7f/classExFatFile.xhtml#a909a753332686e78682e5d8b9d939557" target="_top" xlink:title=" ">
<polygon fill="white" stroke="#666666" points="744.5,-396.27 652.5,-396.27 652.5,-377.27 744.5,-377.27 744.5,-396.27"/>
<text text-anchor="middle" x="698.5" y="-384.27" font-family="Helvetica,sans-Serif" font-size="10.00">ExFatFile::attrib</text>
</a>
</g>
</g>
<!-- Node1&#45;&gt;Node2 -->
<g id="edge1_Node000001_Node000002" class="edge">
<title>Node1&#45;&gt;Node2</title>
<g id="a_edge1_Node000001_Node000002"><a xlink:title=" ">
<path fill="none" stroke="#63b8ff" d="M841.14,-291.66C824.84,-313.05 794.77,-348.51 761,-368.77 755.37,-372.14 749.07,-374.92 742.71,-377.19"/>
<polygon fill="#63b8ff" stroke="#63b8ff" points="844.09,-293.55 847.25,-283.43 838.47,-289.37 844.09,-293.55"/>
</a>
</g>
</g>
<!-- Node3 -->
<g id="Node000003" class="node">
<title>Node3</title>
<g id="a_Node000003"><a xlink:href="../../d0/db5/classFsBaseFile.xhtml#a6ec32bbc53ec3a36bc706a510a224b26" target="_top" xlink:title=" ">
<polygon fill="white" stroke="#666666" points="761,-359.27 636,-359.27 636,-340.27 761,-340.27 761,-359.27"/>
<text text-anchor="middle" x="698.5" y="-347.27" font-family="Helvetica,sans-Serif" font-size="10.00">FsBaseFile::isWritable</text>
</a>
</g>
</g>
<!-- Node1&#45;&gt;Node3 -->
<g id="edge2_Node000001_Node000003" class="edge">
<title>Node1&#45;&gt;Node3</title>
<g id="a_edge2_Node000001_Node000003"><a xlink:title=" ">
<path fill="none" stroke="#63b8ff" d="M829.9,-288.45C811.4,-299.43 785.04,-314.42 761,-325.77 749.91,-331 737.35,-336.05 726.48,-340.16"/>
<polygon fill="#63b8ff" stroke="#63b8ff" points="831.77,-291.41 838.55,-283.27 828.17,-285.41 831.77,-291.41"/>
</a>
</g>
</g>
<!-- Node4 -->
<g id="Node000004" class="node">
<title>Node4</title>
<g id="a_Node000004"><a xlink:href="../../d6/d7f/classExFatFile.xhtml#a531de6eac70b708a3fefd96e25506016" target="_top" xlink:title=" ">
<polygon fill="white" stroke="#666666" points="600,-264.27 475,-264.27 475,-245.27 600,-245.27 600,-264.27"/>
<text text-anchor="middle" x="537.5" y="-252.27" font-family="Helvetica,sans-Serif" font-size="10.00">ExFatFile::openPrivate</text>
</a>
</g>
</g>
<!-- Node1&#45;&gt;Node4 -->
<g id="edge3_Node000001_Node000004" class="edge">
<title>Node1&#45;&gt;Node4</title>
<g id="a_edge3_Node000001_Node000004"><a xlink:title=" ">
<path fill="none" stroke="#63b8ff" d="M786.81,-269.72C731.51,-266.39 653.76,-261.71 600.06,-258.47"/>
<polygon fill="#63b8ff" stroke="#63b8ff" points="786.67,-273.22 796.87,-270.33 787.09,-266.23 786.67,-273.22"/>
</a>
</g>
</g>
<!-- Node49 -->
<g id="Node000049" class="node">
<title>Node49</title>
<g id="a_Node000049"><a xlink:href="../../d6/d7f/classExFatFile.xhtml#a35a5093014e80965e49c84b61780556f" target="_top" xlink:title=" ">
<polygon fill="white" stroke="#666666" points="759.5,-208.27 637.5,-208.27 637.5,-189.27 759.5,-189.27 759.5,-208.27"/>
<text text-anchor="middle" x="698.5" y="-196.27" font-family="Helvetica,sans-Serif" font-size="10.00">ExFatFile::preAllocate</text>
</a>
</g>
</g>
<!-- Node1&#45;&gt;Node49 -->
<g id="edge46_Node000001_Node000049" class="edge">
<title>Node1&#45;&gt;Node49</title>
<g id="a_edge46_Node000001_Node000049"><a xlink:title=" ">
<path fill="none" stroke="#63b8ff" d="M832.56,-258.35C814.26,-245.76 786.89,-228.24 761,-216.77 753.78,-213.57 745.83,-210.76 738.12,-208.37"/>
<polygon fill="#63b8ff" stroke="#63b8ff" points="830.56,-261.22 840.76,-264.08 834.57,-255.48 830.56,-261.22"/>
</a>
</g>
</g>
<!-- Node50 -->
<g id="Node000050" class="node">
<title>Node50</title>
<g id="a_Node000050"><a xlink:href="../../d6/d7f/classExFatFile.xhtml#a8e88c8e79551a72cc98310038514c47a" target="_top" xlink:title=" ">
<polygon fill="white" stroke="#666666" points="434.5,-952.27 330.5,-952.27 330.5,-933.27 434.5,-933.27 434.5,-952.27"/>
<text text-anchor="middle" x="382.5" y="-940.27" font-family="Helvetica,sans-Serif" font-size="10.00">ExFatFile::remove</text>
</a>
</g>
</g>
<!-- Node1&#45;&gt;Node50 -->
<g id="edge47_Node000001_Node000050" class="edge">
<title>Node1&#45;&gt;Node50</title>
<g id="a_edge47_Node000001_Node000050"><a xlink:title=" ">
<path fill="none" stroke="#63b8ff" d="M786.84,-276.32C739.57,-281.45 677.58,-295.34 636,-331.77 434.85,-508 390.69,-869.58 384.38,-933.13"/>
<polygon fill="#63b8ff" stroke="#63b8ff" points="787.38,-279.78 796.99,-275.33 786.7,-272.82 787.38,-279.78"/>
</a>
</g>
</g>
<!-- Node54 -->
<g id="Node000054" class="node">
<title>Node54</title>
<g id="a_Node000054"><a xlink:href="../../d6/d7f/classExFatFile.xhtml#aca37955d3c7cce40f7f9e1ea078e5636" target="_top" xlink:title=" ">
<polygon fill="white" stroke="#666666" points="752,-245.27 645,-245.27 645,-226.27 752,-226.27 752,-245.27"/>
<text text-anchor="middle" x="698.5" y="-233.27" font-family="Helvetica,sans-Serif" font-size="10.00">ExFatFile::truncate</text>
</a>
</g>
</g>
<!-- Node1&#45;&gt;Node54 -->
<g id="edge55_Node000001_Node000054" class="edge">
<title>Node1&#45;&gt;Node54</title>
<g id="a_edge55_Node000001_Node000054"><a xlink:title=" ">
<path fill="none" stroke="#63b8ff" d="M805.05,-261.73C783.46,-256.42 758.46,-250.27 738.21,-245.29"/>
<polygon fill="#63b8ff" stroke="#63b8ff" points="804.47,-265.19 815.01,-264.18 806.14,-258.39 804.47,-265.19"/>
</a>
</g>
</g>
<!-- Node55 -->
<g id="Node000055" class="node">
<title>Node55</title>
<g id="a_Node000055"><a xlink:href="../../d6/d7f/classExFatFile.xhtml#abc1423c7b550614d1067e7173f8b46a8" target="_top" xlink:title=" ">
<polygon fill="white" stroke="#666666" points="744,-171.27 653,-171.27 653,-152.27 744,-152.27 744,-171.27"/>
<text text-anchor="middle" x="698.5" y="-159.27" font-family="Helvetica,sans-Serif" font-size="10.00">ExFatFile::write</text>
</a>
</g>
</g>
<!-- Node1&#45;&gt;Node55 -->
<g id="edge58_Node000001_Node000055" class="edge">
<title>Node1&#45;&gt;Node55</title>
<g id="a_edge58_Node000001_Node000055"><a xlink:title=" ">
<path fill="none" stroke="#63b8ff" d="M841.09,-256.07C824.75,-234.91 794.64,-199.83 761,-179.77 755.36,-176.41 749.06,-173.64 742.69,-171.37"/>
<polygon fill="#63b8ff" stroke="#63b8ff" points="838.41,-258.33 847.22,-264.21 844,-254.11 838.41,-258.33"/>
</a>
</g>
</g>
<!-- Node5 -->
<g id="Node000005" class="node">
<title>Node5</title>
<g id="a_Node000005"><a xlink:href="../../d6/d7f/classExFatFile.xhtml#ad9ca8c5ba1de8965e65b9f25f31baeff" target="_top" xlink:title=" ">
<polygon fill="white" stroke="#666666" points="430,-283.27 335,-283.27 335,-264.27 430,-264.27 430,-283.27"/>
<text text-anchor="middle" x="382.5" y="-271.27" font-family="Helvetica,sans-Serif" font-size="10.00">ExFatFile::mkdir</text>
</a>
</g>
</g>
<!-- Node4&#45;&gt;Node5 -->
<g id="edge4_Node000004_Node000005" class="edge">
<title>Node4&#45;&gt;Node5</title>
<g id="a_edge4_Node000004_Node000005"><a xlink:title=" ">
<path fill="none" stroke="#63b8ff" d="M464.59,-263.7C452.99,-265.14 441.26,-266.59 430.46,-267.94"/>
<polygon fill="#63b8ff" stroke="#63b8ff" points="465.22,-267.15 474.71,-262.44 464.35,-260.2 465.22,-267.15"/>
</a>
</g>
</g>
<!-- Node9 -->
<g id="Node000009" class="node">
<title>Node9</title>
<g id="a_Node000009"><a xlink:href="../../d6/d7f/classExFatFile.xhtml#aa6b349f3c48566b9a43cdbcd5912a1ec" target="_top" xlink:title=" ">
<polygon fill="white" stroke="#666666" points="430,-246.27 335,-246.27 335,-227.27 430,-227.27 430,-246.27"/>
<text text-anchor="middle" x="382.5" y="-234.27" font-family="Helvetica,sans-Serif" font-size="10.00">ExFatFile::mkdir</text>
</a>
</g>
</g>
<!-- Node4&#45;&gt;Node9 -->
<g id="edge9_Node000004_Node000009" class="edge">
<title>Node4&#45;&gt;Node9</title>
<g id="a_edge9_Node000004_Node000009"><a xlink:title=" ">
<path fill="none" stroke="#63b8ff" d="M464.59,-246.31C452.99,-244.94 441.26,-243.56 430.46,-242.29"/>
<polygon fill="#63b8ff" stroke="#63b8ff" points="464.37,-249.81 474.71,-247.5 465.19,-242.85 464.37,-249.81"/>
</a>
</g>
</g>
<!-- Node10 -->
<g id="Node000010" class="node">
<title>Node10</title>
<g id="a_Node000010"><a xlink:href="../../d6/d7f/classExFatFile.xhtml#a5b115247c8e1a8cd643412f4d548e673" target="_top" xlink:title=" ">
<polygon fill="white" stroke="#666666" points="427.5,-599.27 337.5,-599.27 337.5,-580.27 427.5,-580.27 427.5,-599.27"/>
<text text-anchor="middle" x="382.5" y="-587.27" font-family="Helvetica,sans-Serif" font-size="10.00">ExFatFile::open</text>
</a>
</g>
</g>
<!-- Node4&#45;&gt;Node10 -->
<g id="edge10_Node000004_Node000010" class="edge">
<title>Node4&#45;&gt;Node10</title>
<g id="a_edge10_Node000004_Node000010"><a xlink:title=" ">
<path fill="none" stroke="#63b8ff" d="M507.47,-269.55C495.94,-276.7 483.44,-286.24 475,-297.77 405.63,-392.49 387.84,-541.28 384.27,-580.2"/>
<polygon fill="#63b8ff" stroke="#63b8ff" points="509.53,-272.4 516.41,-264.35 506.01,-266.35 509.53,-272.4"/>
</a>
</g>
</g>
<!-- Node41 -->
<g id="Node000041" class="node">
<title>Node41</title>
<g id="a_Node000041"><a xlink:href="../../d6/d7f/classExFatFile.xhtml#a3ea80d4e3dd4340c2d282097ad12c249" target="_top" xlink:title=" ">
<polygon fill="white" stroke="#666666" points="439,-98.27 326,-98.27 326,-79.27 439,-79.27 439,-98.27"/>
<text text-anchor="middle" x="382.5" y="-86.27" font-family="Helvetica,sans-Serif" font-size="10.00">ExFatFile::openNext</text>
</a>
</g>
</g>
<!-- Node4&#45;&gt;Node41 -->
<g id="edge38_Node000004_Node000041" class="edge">
<title>Node4&#45;&gt;Node41</title>
<g id="a_edge38_Node000004_Node000041"><a xlink:title=" ">
<path fill="none" stroke="#63b8ff" d="M520.47,-237.38C488.42,-202.6 417.33,-125.48 392.37,-98.39"/>
<polygon fill="#63b8ff" stroke="#63b8ff" points="518.04,-239.9 527.39,-244.88 523.18,-235.16 518.04,-239.9"/>
</a>
</g>
</g>
<!-- Node5&#45;&gt;Node5 -->
<g id="edge7_Node000005_Node000005" class="edge">
<title>Node5&#45;&gt;Node5</title>
<g id="a_edge7_Node000005_Node000005"><a xlink:title=" ">
<path fill="none" stroke="#63b8ff" d="M411.25,-292.09C410.04,-297.28 400.46,-301.27 382.5,-301.27 355.13,-301.27 347.22,-292 358.76,-283.35"/>
<polygon fill="#63b8ff" stroke="#63b8ff" points="414.25,-290.28 406.24,-283.35 408.17,-293.77 414.25,-290.28"/>
</a>
</g>
</g>
<!-- Node6 -->
<g id="Node000006" class="node">
<title>Node6</title>
<g id="a_Node000006"><a xlink:href="../../d9/dce/classExFatVolume.xhtml#abb00cfff7943fe637a99b292798865e0" target="_top" xlink:title=" ">
<polygon fill="white" stroke="#666666" points="284,-264.27 170,-264.27 170,-245.27 284,-245.27 284,-264.27"/>
<text text-anchor="middle" x="227" y="-252.27" font-family="Helvetica,sans-Serif" font-size="10.00">ExFatVolume::mkdir</text>
</a>
</g>
</g>
<!-- Node5&#45;&gt;Node6 -->
<g id="edge5_Node000005_Node000006" class="edge">
<title>Node5&#45;&gt;Node6</title>
<g id="a_edge5_Node000005_Node000006"><a xlink:title=" ">
<path fill="none" stroke="#63b8ff" d="M324.66,-266.73C311.4,-265.09 297.28,-263.34 284.05,-261.71"/>
<polygon fill="#63b8ff" stroke="#63b8ff" points="324.26,-270.21 334.61,-267.96 325.12,-263.26 324.26,-270.21"/>
</a>
</g>
</g>
<!-- Node8 -->
<g id="Node000008" class="node">
<title>Node8</title>
<g id="a_Node000008"><a xlink:href="../../d0/db5/classFsBaseFile.xhtml#a8b7aa7f2c63882e483336dfe12ef6800" target="_top" xlink:title=" ">
<polygon fill="white" stroke="#666666" points="279,-190.27 175,-190.27 175,-171.27 279,-171.27 279,-190.27"/>
<text text-anchor="middle" x="227" y="-178.27" font-family="Helvetica,sans-Serif" font-size="10.00">FsBaseFile::mkdir</text>
</a>
</g>
</g>
<!-- Node5&#45;&gt;Node8 -->
<g id="edge8_Node000005_Node000008" class="edge">
<title>Node5&#45;&gt;Node8</title>
<g id="a_edge8_Node000005_Node000008"><a xlink:title=" ">
<path fill="none" stroke="#63b8ff" d="M331.66,-259.63C329.69,-258.44 327.79,-257.16 326,-255.77 302.34,-237.38 313.94,-216.78 290,-198.77 285.43,-195.33 280.22,-192.55 274.81,-190.3"/>
<polygon fill="#63b8ff" stroke="#63b8ff" points="330.22,-262.82 340.72,-264.22 333.39,-256.58 330.22,-262.82"/>
</a>
</g>
</g>
<!-- Node7 -->
<g id="Node000007" class="node">
<title>Node7</title>
<g id="a_Node000007"><a xlink:href="../../d9/dce/classExFatVolume.xhtml#a0f4cf7e2853225380574724314327597" target="_top" xlink:title=" ">
<polygon fill="white" stroke="#666666" points="121,-282.27 7,-282.27 7,-263.27 121,-263.27 121,-282.27"/>
<text text-anchor="middle" x="64" y="-270.27" font-family="Helvetica,sans-Serif" font-size="10.00">ExFatVolume::mkdir</text>
</a>
</g>
</g>
<!-- Node6&#45;&gt;Node7 -->
<g id="edge6_Node000006_Node000007" class="edge">
<title>Node6&#45;&gt;Node7</title>
<g id="a_edge6_Node000006_Node000007"><a xlink:title=" ">
<path fill="none" stroke="#63b8ff" d="M159.55,-262.2C146.74,-263.63 133.44,-265.12 121.01,-266.51"/>
<polygon fill="#63b8ff" stroke="#63b8ff" points="160.14,-265.65 169.69,-261.06 159.36,-258.7 160.14,-265.65"/>
</a>
</g>
</g>
<!-- Node11 -->
<g id="Node000011" class="node">
<title>Node11</title>
<g id="a_Node000011"><a xlink:href="../../d9/dce/classExFatVolume.xhtml#a4b089dc93a25d9d87d8dc3fc42a139d5" target="_top" xlink:title=" ">
<polygon fill="white" stroke="#666666" points="283,-488.27 171,-488.27 171,-469.27 283,-469.27 283,-488.27"/>
<text text-anchor="middle" x="227" y="-476.27" font-family="Helvetica,sans-Serif" font-size="10.00">ExFatVolume::attrib</text>
</a>
</g>
</g>
<!-- Node10&#45;&gt;Node11 -->
<g id="edge11_Node000010_Node000011" class="edge">
<title>Node10&#45;&gt;Node11</title>
<g id="a_edge11_Node000010_Node000011"><a xlink:title=" ">
<path fill="none" stroke="#63b8ff" d="M368.49,-572.2C352.29,-551.53 322.74,-517.52 290,-497.77 283.64,-493.93 276.43,-490.81 269.25,-488.29"/>
<polygon fill="#63b8ff" stroke="#63b8ff" points="365.73,-574.35 374.58,-580.16 371.29,-570.1 365.73,-574.35"/>
</a>
</g>
</g>
<!-- Node14 -->
<g id="Node000014" class="node">
<title>Node14</title>
<g id="a_Node000014"><a xlink:href="../../d9/dce/classExFatVolume.xhtml#ae79fbebf59d900b845ade864d9d3c4dd" target="_top" xlink:title=" ">
<polygon fill="white" stroke="#666666" points="283,-414.27 171,-414.27 171,-395.27 283,-395.27 283,-414.27"/>
<text text-anchor="middle" x="227" y="-402.27" font-family="Helvetica,sans-Serif" font-size="10.00">ExFatVolume::attrib</text>
</a>
</g>
</g>
<!-- Node10&#45;&gt;Node14 -->
<g id="edge14_Node000010_Node000014" class="edge">
<title>Node10&#45;&gt;Node14</title>
<g id="a_edge14_Node000010_Node000014"><a xlink:title=" ">
<path fill="none" stroke="#63b8ff" d="M376.13,-570.43C365.54,-535.83 338.63,-463.27 290,-423.77 285.19,-419.86 279.59,-416.76 273.76,-414.29"/>
<polygon fill="#63b8ff" stroke="#63b8ff" points="372.84,-571.63 379.01,-580.24 379.55,-569.66 372.84,-571.63"/>
</a>
</g>
</g>
<!-- Node15 -->
<g id="Node000015" class="node">
<title>Node15</title>
<g id="a_Node000015"><a xlink:href="../../d9/dce/classExFatVolume.xhtml#a0f9c04da8382686190df76ff957e9a19" target="_top" xlink:title=" ">
<polygon fill="white" stroke="#666666" points="282,-377.27 172,-377.27 172,-358.27 282,-358.27 282,-377.27"/>
<text text-anchor="middle" x="227" y="-365.27" font-family="Helvetica,sans-Serif" font-size="10.00">ExFatVolume::chdir</text>
</a>
</g>
</g>
<!-- Node10&#45;&gt;Node15 -->
<g id="edge15_Node000010_Node000015" class="edge">
<title>Node10&#45;&gt;Node15</title>
<g id="a_edge15_Node000010_Node000015"><a xlink:title=" ">
<path fill="none" stroke="#63b8ff" d="M378.21,-570.12C370.41,-529.74 347,-437 290,-386.77 285.61,-382.9 280.44,-379.81 275,-377.36"/>
<polygon fill="#63b8ff" stroke="#63b8ff" points="374.78,-570.83 380.01,-580.04 381.67,-569.58 374.78,-570.83"/>
</a>
</g>
</g>
<!-- Node16 -->
<g id="Node000016" class="node">
<title>Node16</title>
<g id="a_Node000016"><a xlink:href="../../d6/d7f/classExFatFile.xhtml#ab1be7938b64f74a51581f4839fefed4b" target="_top" xlink:title=" ">
<polygon fill="white" stroke="#666666" points="282,-340.27 172,-340.27 172,-321.27 282,-321.27 282,-340.27"/>
<text text-anchor="middle" x="227" y="-328.27" font-family="Helvetica,sans-Serif" font-size="10.00">ExFatFile::ExFatFile</text>
</a>
</g>
</g>
<!-- Node10&#45;&gt;Node16 -->
<g id="edge16_Node000010_Node000016" class="edge">
<title>Node10&#45;&gt;Node16</title>
<g id="a_edge16_Node000010_Node000016"><a xlink:title=" ">
<path fill="none" stroke="#63b8ff" d="M379.71,-569.75C374.53,-523.99 355.45,-410.98 290,-349.77 285.89,-345.92 281.02,-342.85 275.84,-340.41"/>
<polygon fill="#63b8ff" stroke="#63b8ff" points="376.24,-570.27 380.74,-579.86 383.21,-569.56 376.24,-570.27"/>
</a>
</g>
</g>
<!-- Node17 -->
<g id="Node000017" class="node">
<title>Node17</title>
<g id="a_Node000017"><a xlink:href="../../d6/d7f/classExFatFile.xhtml#a32df2d7ac56a76a647cedf4192ac9abe" target="_top" xlink:title=" ">
<polygon fill="white" stroke="#666666" points="274.5,-451.27 179.5,-451.27 179.5,-432.27 274.5,-432.27 274.5,-451.27"/>
<text text-anchor="middle" x="227" y="-439.27" font-family="Helvetica,sans-Serif" font-size="10.00">ExFatFile::exists</text>
</a>
</g>
</g>
<!-- Node10&#45;&gt;Node17 -->
<g id="edge17_Node000010_Node000017" class="edge">
<title>Node10&#45;&gt;Node17</title>
<g id="a_edge17_Node000010_Node000017"><a xlink:title=" ">
<path fill="none" stroke="#63b8ff" d="M373.07,-570.85C359.57,-542.7 330.44,-489.98 290,-460.77 284.62,-456.88 278.42,-453.77 272.07,-451.29"/>
<polygon fill="#63b8ff" stroke="#63b8ff" points="369.94,-572.43 377.33,-580.02 376.29,-569.48 369.94,-572.43"/>
</a>
</g>
</g>
<!-- Node19 -->
<g id="Node000019" class="node">
<title>Node19</title>
<g id="a_Node000019"><a xlink:href="../../d9/dce/classExFatVolume.xhtml#a5e2e029b02d3c98bc0b8fcbdab566af6" target="_top" xlink:title=" ">
<polygon fill="white" stroke="#666666" points="284.5,-860.27 169.5,-860.27 169.5,-841.27 284.5,-841.27 284.5,-860.27"/>
<text text-anchor="middle" x="227" y="-848.27" font-family="Helvetica,sans-Serif" font-size="10.00">ExFatVolume::exists</text>
</a>
</g>
</g>
<!-- Node10&#45;&gt;Node19 -->
<g id="edge19_Node000010_Node000019" class="edge">
<title>Node10&#45;&gt;Node19</title>
<g id="a_edge19_Node000010_Node000019"><a xlink:title=" ">
<path fill="none" stroke="#63b8ff" d="M379.28,-609.51C373.24,-654.22 352.52,-764.2 290,-826.77 283.72,-833.05 275.61,-837.73 267.33,-841.2"/>
<polygon fill="#63b8ff" stroke="#63b8ff" points="382.78,-609.74 380.54,-599.39 375.83,-608.88 382.78,-609.74"/>
</a>
</g>
</g>
<!-- Node20 -->
<g id="Node000020" class="node">
<title>Node20</title>
<g id="a_Node000020"><a xlink:href="../../d9/dce/classExFatVolume.xhtml#a2e44d5d26a25d610c4b0d97fa5b1f505" target="_top" xlink:title=" ">
<polygon fill="white" stroke="#666666" points="111,-245.27 17,-245.27 17,-226.27 111,-226.27 111,-245.27"/>
<text text-anchor="middle" x="64" y="-233.27" font-family="Helvetica,sans-Serif" font-size="10.00">ExFatVolume::ls</text>
</a>
</g>
</g>
<!-- Node10&#45;&gt;Node20 -->
<g id="edge20_Node000010_Node000020" class="edge">
<title>Node10&#45;&gt;Node20</title>
<g id="a_edge20_Node000010_Node000020"><a xlink:title=" ">
<path fill="none" stroke="#63b8ff" d="M380.88,-569.85C378.2,-519.41 364.11,-385.5 290,-312.77 248.16,-271.71 218.15,-296.21 164,-273.77 147.29,-266.84 144.74,-261.63 128,-254.77 119.44,-251.26 109.99,-248.06 101.07,-245.34"/>
<polygon fill="#63b8ff" stroke="#63b8ff" points="377.39,-570.21 381.32,-580.05 384.38,-569.9 377.39,-570.21"/>
</a>
</g>
</g>
<!-- Node21 -->
<g id="Node000021" class="node">
<title>Node21</title>
<g id="a_Node000021"><a xlink:href="../../d6/d7f/classExFatFile.xhtml#aaf738b1f00b8ae1664020f238c1a9a48" target="_top" xlink:title=" ">
<polygon fill="white" stroke="#666666" points="272,-599.27 182,-599.27 182,-580.27 272,-580.27 272,-599.27"/>
<text text-anchor="middle" x="227" y="-587.27" font-family="Helvetica,sans-Serif" font-size="10.00">ExFatFile::open</text>
</a>
</g>
</g>
<!-- Node10&#45;&gt;Node21 -->
<g id="edge21_Node000010_Node000021" class="edge">
<title>Node10&#45;&gt;Node21</title>
<g id="a_edge21_Node000010_Node000021"><a xlink:title=" ">
<path fill="none" stroke="#63b8ff" d="M327.02,-589.77C308.99,-589.77 289.17,-589.77 272.03,-589.77"/>
<polygon fill="#63b8ff" stroke="#63b8ff" points="327.1,-593.27 337.1,-589.77 327.1,-586.27 327.1,-593.27"/>
</a>
</g>
</g>
<!-- Node22 -->
<g id="Node000022" class="node">
<title>Node22</title>
<g id="a_Node000022"><a xlink:href="../../d9/dce/classExFatVolume.xhtml#ae5d8f37ac6505471ef78fb4db518fb8b" target="_top" xlink:title=" ">
<polygon fill="white" stroke="#666666" points="282,-747.27 172,-747.27 172,-728.27 282,-728.27 282,-747.27"/>
<text text-anchor="middle" x="227" y="-735.27" font-family="Helvetica,sans-Serif" font-size="10.00">ExFatVolume::open</text>
</a>
</g>
</g>
<!-- Node10&#45;&gt;Node22 -->
<g id="edge22_Node000010_Node000022" class="edge">
<title>Node10&#45;&gt;Node22</title>
<g id="a_edge22_Node000010_Node000022"><a xlink:title=" ">
<path fill="none" stroke="#63b8ff" d="M373.36,-608.49C360.07,-636.85 331.01,-690.49 290,-719.77 285.26,-723.15 279.88,-725.91 274.33,-728.15"/>
<polygon fill="#63b8ff" stroke="#63b8ff" points="376.59,-609.83 377.54,-599.28 370.22,-606.94 376.59,-609.83"/>
</a>
</g>
</g>
<!-- Node24 -->
<g id="Node000024" class="node">
<title>Node24</title>
<g id="a_Node000024"><a xlink:href="../../d6/d7f/classExFatFile.xhtml#aaa69f5263c70b1945fbbb672cfdf5d15" target="_top" xlink:title=" ">
<polygon fill="white" stroke="#666666" points="272,-525.27 182,-525.27 182,-506.27 272,-506.27 272,-525.27"/>
<text text-anchor="middle" x="227" y="-513.27" font-family="Helvetica,sans-Serif" font-size="10.00">ExFatFile::open</text>
</a>
</g>
</g>
<!-- Node10&#45;&gt;Node24 -->
<g id="edge24_Node000010_Node000024" class="edge">
<title>Node10&#45;&gt;Node24</title>
<g id="a_edge24_Node000010_Node000024"><a xlink:title=" ">
<path fill="none" stroke="#63b8ff" d="M359.2,-574.25C341.17,-562.23 314.8,-545.82 290,-534.77 281.98,-531.19 273.09,-528.03 264.61,-525.37"/>
<polygon fill="#63b8ff" stroke="#63b8ff" points="357.57,-577.37 367.82,-580.08 361.5,-571.58 357.57,-577.37"/>
</a>
</g>
</g>
<!-- Node25 -->
<g id="Node000025" class="node">
<title>Node25</title>
<g id="a_Node000025"><a xlink:href="../../d0/db5/classFsBaseFile.xhtml#aa767859d4a4b4716ebbc4ea42a6d74df" target="_top" xlink:title=" ">
<polygon fill="#fff0f0" stroke="red" points="276.5,-562.27 177.5,-562.27 177.5,-543.27 276.5,-543.27 276.5,-562.27"/>
<text text-anchor="middle" x="227" y="-550.27" font-family="Helvetica,sans-Serif" font-size="10.00">FsBaseFile::open</text>
</a>
</g>
</g>
<!-- Node10&#45;&gt;Node25 -->
<g id="edge25_Node000010_Node000025" class="edge">
<title>Node10&#45;&gt;Node25</title>
<g id="a_edge25_Node000010_Node000025"><a xlink:title=" ">
<path fill="none" stroke="#63b8ff" d="M332.03,-577.84C311.2,-572.82 287.3,-567.06 267.66,-562.33"/>
<polygon fill="#63b8ff" stroke="#63b8ff" points="331.43,-581.3 341.97,-580.24 333.07,-574.49 331.43,-581.3"/>
</a>
</g>
</g>
<!-- Node30 -->
<g id="Node000030" class="node">
<title>Node30</title>
<g id="a_Node000030"><a xlink:href="../../d0/db5/classFsBaseFile.xhtml#a4743d118f085f6a13692d12bdd3c4556" target="_top" xlink:title=" ">
<polygon fill="white" stroke="#666666" points="276.5,-784.27 177.5,-784.27 177.5,-765.27 276.5,-765.27 276.5,-784.27"/>
<text text-anchor="middle" x="227" y="-772.27" font-family="Helvetica,sans-Serif" font-size="10.00">FsBaseFile::open</text>
</a>
</g>
</g>
<!-- Node10&#45;&gt;Node30 -->
<g id="edge28_Node000010_Node000030" class="edge">
<title>Node10&#45;&gt;Node30</title>
<g id="a_edge28_Node000010_Node000030"><a xlink:title=" ">
<path fill="none" stroke="#63b8ff" d="M376.23,-609.29C365.78,-644.21 339.1,-717.38 290,-756.77 285.72,-760.2 280.8,-762.98 275.65,-765.23"/>
<polygon fill="#63b8ff" stroke="#63b8ff" points="379.67,-609.96 379.06,-599.39 372.94,-608.04 379.67,-609.96"/>
</a>
</g>
</g>
<!-- Node31 -->
<g id="Node000031" class="node">
<title>Node31</title>
<g id="a_Node000031"><a xlink:href="../../d0/db5/classFsBaseFile.xhtml#a0186e56b21fd584b02db4b763df05f64" target="_top" xlink:title=" ">
<polygon fill="white" stroke="#666666" points="276.5,-710.27 177.5,-710.27 177.5,-691.27 276.5,-691.27 276.5,-710.27"/>
<text text-anchor="middle" x="227" y="-698.27" font-family="Helvetica,sans-Serif" font-size="10.00">FsBaseFile::open</text>
</a>
</g>
</g>
<!-- Node10&#45;&gt;Node31 -->
<g id="edge29_Node000010_Node000031" class="edge">
<title>Node10&#45;&gt;Node31</title>
<g id="a_edge29_Node000010_Node000031"><a xlink:title=" ">
<path fill="none" stroke="#63b8ff" d="M368.58,-607.61C352.48,-628.6 323.02,-663.06 290,-682.77 284.32,-686.16 277.97,-688.94 271.55,-691.22"/>
<polygon fill="#63b8ff" stroke="#63b8ff" points="371.45,-609.63 374.64,-599.53 365.84,-605.43 371.45,-609.63"/>
</a>
</g>
</g>
<!-- Node32 -->
<g id="Node000032" class="node">
<title>Node32</title>
<g id="a_Node000032"><a xlink:href="../../d6/d7f/classExFatFile.xhtml#a69c6f8e9a10bcfb83e378ef73f556ab7" target="_top" xlink:title=" ">
<polygon fill="white" stroke="#666666" points="272,-673.27 182,-673.27 182,-654.27 272,-654.27 272,-673.27"/>
<text text-anchor="middle" x="227" y="-661.27" font-family="Helvetica,sans-Serif" font-size="10.00">ExFatFile::open</text>
</a>
</g>
</g>
<!-- Node10&#45;&gt;Node32 -->
<g id="edge30_Node000010_Node000032" class="edge">
<title>Node10&#45;&gt;Node32</title>
<g id="a_edge30_Node000010_Node000032"><a xlink:title=" ">
<path fill="none" stroke="#63b8ff" d="M359.91,-605.27C341.92,-617.62 315.24,-634.62 290,-645.77 282.72,-648.98 274.71,-651.8 266.93,-654.19"/>
<polygon fill="#63b8ff" stroke="#63b8ff" points="362.28,-607.89 368.47,-599.29 358.27,-602.15 362.28,-607.89"/>
</a>
</g>
</g>
<!-- Node33 -->
<g id="Node000033" class="node">
<title>Node33</title>
<g id="a_Node000033"><a xlink:href="../../d6/d7f/classExFatFile.xhtml#a145a2fa9269876bae17a44569b4625fb" target="_top" xlink:title=" ">
<polygon fill="white" stroke="#666666" points="279,-897.27 175,-897.27 175,-878.27 279,-878.27 279,-897.27"/>
<text text-anchor="middle" x="227" y="-885.27" font-family="Helvetica,sans-Serif" font-size="10.00">ExFatFile::remove</text>
</a>
</g>
</g>
<!-- Node10&#45;&gt;Node33 -->
<g id="edge31_Node000010_Node000033" class="edge">
<title>Node10&#45;&gt;Node33</title>
<g id="a_edge31_Node000010_Node000033"><a xlink:title=" ">
<path fill="none" stroke="#63b8ff" d="M381.04,-609.63C378.76,-660.52 365.54,-796.7 290,-869.77 286.46,-873.2 282.3,-875.98 277.84,-878.23"/>
<polygon fill="#63b8ff" stroke="#63b8ff" points="384.55,-609.48 381.4,-599.36 377.55,-609.23 384.55,-609.48"/>
</a>
</g>
</g>
<!-- Node34 -->
<g id="Node000034" class="node">
<title>Node34</title>
<g id="a_Node000034"><a xlink:href="../../d9/dce/classExFatVolume.xhtml#ac4d15484d30dd40ecdb4d331d29534d9" target="_top" xlink:title=" ">
<polygon fill="white" stroke="#666666" points="288.5,-934.27 165.5,-934.27 165.5,-915.27 288.5,-915.27 288.5,-934.27"/>
<text text-anchor="middle" x="227" y="-922.27" font-family="Helvetica,sans-Serif" font-size="10.00">ExFatVolume::remove</text>
</a>
</g>
</g>
<!-- Node10&#45;&gt;Node34 -->
<g id="edge32_Node000010_Node000034" class="edge">
<title>Node10&#45;&gt;Node34</title>
<g id="a_edge32_Node000010_Node000034"><a xlink:title=" ">
<path fill="none" stroke="#63b8ff" d="M381.93,-609.6C382.02,-664.89 374.45,-822.19 290,-906.77 286.59,-910.18 282.58,-912.95 278.27,-915.2"/>
<polygon fill="#63b8ff" stroke="#63b8ff" points="385.43,-609.38 381.82,-599.42 378.43,-609.45 385.43,-609.38"/>
</a>
</g>
</g>
<!-- Node35 -->
<g id="Node000035" class="node">
<title>Node35</title>
<g id="a_Node000035"><a xlink:href="../../d9/dce/classExFatVolume.xhtml#a6a31fd969e29608509e75adbf46fcd5d" target="_top" xlink:title=" ">
<polygon fill="#fff0f0" stroke="red" points="288.5,-636.27 165.5,-636.27 165.5,-617.27 288.5,-617.27 288.5,-636.27"/>
<text text-anchor="middle" x="227" y="-624.27" font-family="Helvetica,sans-Serif" font-size="10.00">ExFatVolume::rename</text>
</a>
</g>
</g>
<!-- Node10&#45;&gt;Node35 -->
<g id="edge33_Node000010_Node000035" class="edge">
<title>Node10&#45;&gt;Node35</title>
<g id="a_edge33_Node000010_Node000035"><a xlink:title=" ">
<path fill="none" stroke="#63b8ff" d="M332.03,-601.69C311.2,-606.71 287.3,-612.47 267.66,-617.21"/>
<polygon fill="#63b8ff" stroke="#63b8ff" points="333.07,-605.04 341.97,-599.3 331.43,-598.24 333.07,-605.04"/>
</a>
</g>
</g>
<!-- Node37 -->
<g id="Node000037" class="node">
<title>Node37</title>
<g id="a_Node000037"><a xlink:href="../../d6/d7f/classExFatFile.xhtml#a707e3a4139319fb5d4e31d591b3c5b77" target="_top" xlink:title=" ">
<polygon fill="white" stroke="#666666" points="279,-971.27 175,-971.27 175,-952.27 279,-952.27 279,-971.27"/>
<text text-anchor="middle" x="227" y="-959.27" font-family="Helvetica,sans-Serif" font-size="10.00">ExFatFile::rename</text>
</a>
</g>
</g>
<!-- Node10&#45;&gt;Node37 -->
<g id="edge34_Node000010_Node000037" class="edge">
<title>Node10&#45;&gt;Node37</title>
<g id="a_edge34_Node000010_Node000037"><a xlink:title=" ">
<path fill="none" stroke="#63b8ff" d="M378.99,-609.39C370.06,-676.37 337.75,-894.58 290,-943.77 286.72,-947.15 282.85,-949.9 278.67,-952.14"/>
<polygon fill="#63b8ff" stroke="#63b8ff" points="382.48,-609.71 380.31,-599.34 375.54,-608.8 382.48,-609.71"/>
</a>
</g>
</g>
<!-- Node38 -->
<g id="Node000038" class="node">
<title>Node38</title>
<g id="a_Node000038"><a xlink:href="../../d9/dce/classExFatVolume.xhtml#afaa44ad57398f8c293b9a35aa150ce75" target="_top" xlink:title=" ">
<polygon fill="white" stroke="#666666" points="120,-896.27 8,-896.27 8,-877.27 120,-877.27 120,-896.27"/>
<text text-anchor="middle" x="64" y="-884.27" font-family="Helvetica,sans-Serif" font-size="10.00">ExFatVolume::rmdir</text>
</a>
</g>
</g>
<!-- Node10&#45;&gt;Node38 -->
<g id="edge35_Node000010_Node000038" class="edge">
<title>Node10&#45;&gt;Node38</title>
<g id="a_edge35_Node000010_Node000038"><a xlink:title=" ">
<path fill="none" stroke="#63b8ff" d="M378.23,-609.5C370.46,-650.05 347.11,-743.2 290,-793.77 246.11,-832.63 218,-809.95 164,-832.77 133.16,-845.8 99.35,-865.51 80.3,-877.17"/>
<polygon fill="#63b8ff" stroke="#63b8ff" points="381.69,-609.99 380.02,-599.53 374.8,-608.75 381.69,-609.99"/>
</a>
</g>
</g>
<!-- Node39 -->
<g id="Node000039" class="node">
<title>Node39</title>
<g id="a_Node000039"><a xlink:href="../../d9/dce/classExFatVolume.xhtml#a1af3c481f14ff2d390aabe6226658b01" target="_top" xlink:title=" ">
<polygon fill="white" stroke="#666666" points="290,-227.27 164,-227.27 164,-208.27 290,-208.27 290,-227.27"/>
<text text-anchor="middle" x="227" y="-215.27" font-family="Helvetica,sans-Serif" font-size="10.00">ExFatVolume::truncate</text>
</a>
</g>
</g>
<!-- Node10&#45;&gt;Node39 -->
<g id="edge36_Node000010_Node000039" class="edge">
<title>Node10&#45;&gt;Node39</title>
<g id="a_edge36_Node000010_Node000039"><a xlink:title=" ">
<path fill="none" stroke="#63b8ff" d="M377.6,-570.24C363.36,-499.81 313.84,-261.68 290,-236.77 286.26,-232.86 281.75,-229.76 276.88,-227.28"/>
<polygon fill="#63b8ff" stroke="#63b8ff" points="374.17,-570.93 379.57,-580.05 381.03,-569.55 374.17,-570.93"/>
</a>
</g>
</g>
<!-- Node12 -->
<g id="Node000012" class="node">
<title>Node12</title>
<g id="a_Node000012"><a xlink:href="../../d4/d27/classFsVolume.xhtml#a10bf5efca24ce1412e03b3e15837b2fd" target="_top" xlink:title=" ">
<polygon fill="white" stroke="#666666" points="112.5,-488.27 15.5,-488.27 15.5,-469.27 112.5,-469.27 112.5,-488.27"/>
<text text-anchor="middle" x="64" y="-476.27" font-family="Helvetica,sans-Serif" font-size="10.00">FsVolume::attrib</text>
</a>
</g>
</g>
<!-- Node11&#45;&gt;Node12 -->
<g id="edge12_Node000011_Node000012" class="edge">
<title>Node11&#45;&gt;Node12</title>
<g id="a_edge12_Node000011_Node000012"><a xlink:title=" ">
<path fill="none" stroke="#63b8ff" d="M160.27,-478.77C144.35,-478.77 127.63,-478.77 112.72,-478.77"/>
<polygon fill="#63b8ff" stroke="#63b8ff" points="160.59,-482.27 170.59,-478.77 160.59,-475.27 160.59,-482.27"/>
</a>
</g>
</g>
<!-- Node13 -->
<g id="Node000013" class="node">
<title>Node13</title>
<g id="a_Node000013"><a xlink:href="../../d4/d27/classFsVolume.xhtml#a76ac996fb61db9665fb5d5b4916ca16f" target="_top" xlink:title=" ">
<polygon fill="white" stroke="#666666" points="112.5,-525.27 15.5,-525.27 15.5,-506.27 112.5,-506.27 112.5,-525.27"/>
<text text-anchor="middle" x="64" y="-513.27" font-family="Helvetica,sans-Serif" font-size="10.00">FsVolume::attrib</text>
</a>
</g>
</g>
<!-- Node11&#45;&gt;Node13 -->
<g id="edge13_Node000011_Node000013" class="edge">
<title>Node11&#45;&gt;Node13</title>
<g id="a_edge13_Node000011_Node000013"><a xlink:title=" ">
<path fill="none" stroke="#63b8ff" d="M174.7,-490.56C152.73,-495.61 127.39,-501.43 106.6,-506.21"/>
<polygon fill="#63b8ff" stroke="#63b8ff" points="175.58,-493.95 184.54,-488.3 174.01,-487.12 175.58,-493.95"/>
</a>
</g>
</g>
<!-- Node18 -->
<g id="Node000018" class="node">
<title>Node18</title>
<g id="a_Node000018"><a xlink:href="../../d0/db5/classFsBaseFile.xhtml#a76aea9766ffeae5454381a0704e62505" target="_top" xlink:title=" ">
<polygon fill="white" stroke="#666666" points="116,-451.27 12,-451.27 12,-432.27 116,-432.27 116,-451.27"/>
<text text-anchor="middle" x="64" y="-439.27" font-family="Helvetica,sans-Serif" font-size="10.00">FsBaseFile::exists</text>
</a>
</g>
</g>
<!-- Node17&#45;&gt;Node18 -->
<g id="edge18_Node000017_Node000018" class="edge">
<title>Node17&#45;&gt;Node18</title>
<g id="a_edge18_Node000017_Node000018"><a xlink:title=" ">
<path fill="none" stroke="#63b8ff" d="M168.97,-441.77C151.79,-441.77 133.04,-441.77 116.26,-441.77"/>
<polygon fill="#63b8ff" stroke="#63b8ff" points="169.43,-445.27 179.43,-441.77 169.43,-438.27 169.43,-445.27"/>
</a>
</g>
</g>
<!-- Node23 -->
<g id="Node000023" class="node">
<title>Node23</title>
<g id="a_Node000023"><a xlink:href="../../d9/dce/classExFatVolume.xhtml#a29b670f7086e74ad5c50ecdad2e72d5b" target="_top" xlink:title=" ">
<polygon fill="white" stroke="#666666" points="119,-747.27 9,-747.27 9,-728.27 119,-728.27 119,-747.27"/>
<text text-anchor="middle" x="64" y="-735.27" font-family="Helvetica,sans-Serif" font-size="10.00">ExFatVolume::open</text>
</a>
</g>
</g>
<!-- Node22&#45;&gt;Node23 -->
<g id="edge23_Node000022_Node000023" class="edge">
<title>Node22&#45;&gt;Node23</title>
<g id="a_edge23_Node000022_Node000023"><a xlink:title=" ">
<path fill="none" stroke="#63b8ff" d="M161.81,-737.77C147.69,-737.77 132.87,-737.77 119.19,-737.77"/>
<polygon fill="#63b8ff" stroke="#63b8ff" points="161.94,-741.27 171.94,-737.77 161.94,-734.27 161.94,-741.27"/>
</a>
</g>
</g>
<!-- Node26 -->
<g id="Node000026" class="node">
<title>Node26</title>
<g id="a_Node000026"><a xlink:href="../../d0/db5/classFsBaseFile.xhtml#a6034c6dfce320e2869901890398831b4" target="_top" xlink:title=" ">
<polygon fill="white" stroke="#666666" points="128,-599.27 0,-599.27 0,-580.27 128,-580.27 128,-599.27"/>
<text text-anchor="middle" x="64" y="-587.27" font-family="Helvetica,sans-Serif" font-size="10.00">FsBaseFile::FsBaseFile</text>
</a>
</g>
</g>
<!-- Node25&#45;&gt;Node26 -->
<g id="edge26_Node000025_Node000026" class="edge">
<title>Node25&#45;&gt;Node26</title>
<g id="a_edge26_Node000025_Node000026"><a xlink:title=" ">
<path fill="none" stroke="#63b8ff" d="M174.7,-564.56C152.73,-569.61 127.39,-575.43 106.6,-580.21"/>
<polygon fill="#63b8ff" stroke="#63b8ff" points="175.58,-567.95 184.54,-562.3 174.01,-561.12 175.58,-567.95"/>
</a>
</g>
</g>
<!-- Node27 -->
<g id="Node000027" class="node">
<title>Node27</title>
<g id="a_Node000027"><a xlink:href="../../d4/d27/classFsVolume.xhtml#ab429316ed9e57a52ecfb938aca7dff6c" target="_top" xlink:title=" ">
<polygon fill="white" stroke="#666666" points="103.5,-562.27 24.5,-562.27 24.5,-543.27 103.5,-543.27 103.5,-562.27"/>
<text text-anchor="middle" x="64" y="-550.27" font-family="Helvetica,sans-Serif" font-size="10.00">FsVolume::ls</text>
</a>
</g>
</g>
<!-- Node25&#45;&gt;Node27 -->
<g id="edge27_Node000025_Node000027" class="edge">
<title>Node25&#45;&gt;Node27</title>
<g id="a_edge27_Node000025_Node000027"><a xlink:title=" ">
<path fill="none" stroke="#63b8ff" d="M167.07,-552.77C145.92,-552.77 122.61,-552.77 103.62,-552.77"/>
<polygon fill="#63b8ff" stroke="#63b8ff" points="167.26,-556.27 177.26,-552.77 167.26,-549.27 167.26,-556.27"/>
</a>
</g>
</g>
<!-- Node40 -->
<g id="Node000040" class="node">
<title>Node40</title>
<g id="a_Node000040"><a xlink:href="../../d9/dce/classExFatVolume.xhtml#ae6d409b7f24593dca7aae70513e18b70" target="_top" xlink:title=" ">
<polygon fill="white" stroke="#666666" points="127,-208.27 1,-208.27 1,-189.27 127,-189.27 127,-208.27"/>
<text text-anchor="middle" x="64" y="-196.27" font-family="Helvetica,sans-Serif" font-size="10.00">ExFatVolume::truncate</text>
</a>
</g>
</g>
<!-- Node39&#45;&gt;Node40 -->
<g id="edge37_Node000039_Node000040" class="edge">
<title>Node39&#45;&gt;Node40</title>
<g id="a_edge37_Node000039_Node000040"><a xlink:title=" ">
<path fill="none" stroke="#63b8ff" d="M153.78,-209.24C144.87,-208.19 135.82,-207.13 127.08,-206.09"/>
<polygon fill="#63b8ff" stroke="#63b8ff" points="153.41,-212.73 163.75,-210.42 154.23,-205.77 153.41,-212.73"/>
</a>
</g>
</g>
<!-- Node42 -->
<g id="Node000042" class="node">
<title>Node42</title>
<g id="a_Node000042"><a xlink:href="../../d6/d7f/classExFatFile.xhtml#aa0e074c891f3db5ea2ebd491667b03a6" target="_top" xlink:title=" ">
<polygon fill="#fff0f0" stroke="red" points="264,-153.27 190,-153.27 190,-134.27 264,-134.27 264,-153.27"/>
<text text-anchor="middle" x="227" y="-141.27" font-family="Helvetica,sans-Serif" font-size="10.00">ExFatFile::ls</text>
</a>
</g>
</g>
<!-- Node41&#45;&gt;Node42 -->
<g id="edge39_Node000041_Node000042" class="edge">
<title>Node41&#45;&gt;Node42</title>
<g id="a_edge39_Node000041_Node000042"><a xlink:title=" ">
<path fill="none" stroke="#63b8ff" d="M349.07,-102.23C331.68,-109.28 309.8,-117.85 290,-124.77 280.65,-128.03 270.4,-131.3 260.97,-134.18"/>
<polygon fill="#63b8ff" stroke="#63b8ff" points="350.81,-105.31 358.75,-98.29 348.16,-98.82 350.81,-105.31"/>
</a>
</g>
</g>
<!-- Node43 -->
<g id="Node000043" class="node">
<title>Node43</title>
<g id="a_Node000043"><a xlink:href="../../d6/d7f/classExFatFile.xhtml#a09f8beb55f939874e93c1df6c8a046d4" target="_top" xlink:title=" ">
<polygon fill="white" stroke="#666666" points="101,-97.27 27,-97.27 27,-78.27 101,-78.27 101,-97.27"/>
<text text-anchor="middle" x="64" y="-85.27" font-family="Helvetica,sans-Serif" font-size="10.00">ExFatFile::ls</text>
</a>
</g>
</g>
<!-- Node41&#45;&gt;Node43 -->
<g id="edge42_Node000041_Node000043" class="edge">
<title>Node41&#45;&gt;Node43</title>
<g id="a_edge42_Node000041_Node000043"><a xlink:title=" ">
<path fill="none" stroke="#63b8ff" d="M367.06,-71.32C350.62,-52.96 321.87,-25.16 290,-13.77 237.27,5.08 217.14,3.9 164,-13.77 125.31,-26.63 89.52,-61.16 73.63,-78.11"/>
<polygon fill="#63b8ff" stroke="#63b8ff" points="364.52,-73.74 373.72,-79 369.81,-69.15 364.52,-73.74"/>
</a>
</g>
</g>
<!-- Node45 -->
<g id="Node000045" class="node">
<title>Node45</title>
<g id="a_Node000045"><a xlink:href="../../d6/d7f/classExFatFile.xhtml#ac8d298034dbed4358bf29a862d1913e7" target="_top" xlink:title=" ">
<polygon fill="white" stroke="#666666" points="272,-116.27 182,-116.27 182,-97.27 272,-97.27 272,-116.27"/>
<text text-anchor="middle" x="227" y="-104.27" font-family="Helvetica,sans-Serif" font-size="10.00">ExFatFile::open</text>
</a>
</g>
</g>
<!-- Node41&#45;&gt;Node45 -->
<g id="edge43_Node000041_Node000045" class="edge">
<title>Node41&#45;&gt;Node45</title>
<g id="a_edge43_Node000041_Node000045"><a xlink:title=" ">
<path fill="none" stroke="#63b8ff" d="M315.57,-96.5C300.86,-98.22 285.6,-100.01 272.02,-101.61"/>
<polygon fill="#63b8ff" stroke="#63b8ff" points="316.12,-99.96 325.65,-95.32 315.31,-93.01 316.12,-99.96"/>
</a>
</g>
</g>
<!-- Node46 -->
<g id="Node000046" class="node">
<title>Node46</title>
<g id="a_Node000046"><a xlink:href="../../d0/db5/classFsBaseFile.xhtml#acb9b1075f4db76fa7e0521c9aff9c3df" target="_top" xlink:title=" ">
<polygon fill="#fff0f0" stroke="red" points="288,-79.27 166,-79.27 166,-60.27 288,-60.27 288,-79.27"/>
<text text-anchor="middle" x="227" y="-67.27" font-family="Helvetica,sans-Serif" font-size="10.00">FsBaseFile::openNext</text>
</a>
</g>
</g>
<!-- Node41&#45;&gt;Node46 -->
<g id="edge44_Node000041_Node000046" class="edge">
<title>Node41&#45;&gt;Node46</title>
<g id="a_edge44_Node000041_Node000046"><a xlink:title=" ">
<path fill="none" stroke="#63b8ff" d="M315.52,-80.6C306.45,-79.48 297.17,-78.33 288.21,-77.22"/>
<polygon fill="#63b8ff" stroke="#63b8ff" points="315.29,-84.1 325.65,-81.85 316.15,-77.15 315.29,-84.1"/>
</a>
</g>
</g>
<!-- Node48 -->
<g id="Node000048" class="node">
<title>Node48</title>
<g id="a_Node000048"><a xlink:href="../../da/d2e/classExFile.xhtml#ac33383190264a3b74434877f0ff7e6d6" target="_top" xlink:title=" ">
<polygon fill="white" stroke="#666666" points="285,-42.27 169,-42.27 169,-23.27 285,-23.27 285,-42.27"/>
<text text-anchor="middle" x="227" y="-30.27" font-family="Helvetica,sans-Serif" font-size="10.00">ExFile::openNextFile</text>
</a>
</g>
</g>
<!-- Node41&#45;&gt;Node48 -->
<g id="edge45_Node000041_Node000048" class="edge">
<title>Node41&#45;&gt;Node48</title>
<g id="a_edge45_Node000041_Node000048"><a xlink:title=" ">
<path fill="none" stroke="#63b8ff" d="M351.08,-75.14C333.43,-67.48 310.67,-58.04 290,-50.77 281.44,-47.76 272.08,-44.85 263.3,-42.28"/>
<polygon fill="#63b8ff" stroke="#63b8ff" points="349.75,-78.38 360.31,-79.18 352.56,-71.96 349.75,-78.38"/>
</a>
</g>
</g>
<!-- Node42&#45;&gt;Node20 -->
<g id="edge40_Node000042_Node000020" class="edge">
<title>Node42&#45;&gt;Node20</title>
<g id="a_edge40_Node000042_Node000020"><a xlink:title=" ">
<path fill="none" stroke="#63b8ff" d="M180.14,-153C174.4,-155.31 168.85,-158.18 164,-161.77 140.51,-179.14 151.4,-199.27 128,-216.77 122.79,-220.67 116.77,-223.77 110.57,-226.24"/>
<polygon fill="#63b8ff" stroke="#63b8ff" points="181.58,-156.21 189.9,-149.64 179.3,-149.59 181.58,-156.21"/>
</a>
</g>
</g>
<!-- Node42&#45;&gt;Node43 -->
<g id="edge41_Node000042_Node000043" class="edge">
<title>Node42&#45;&gt;Node43</title>
<g id="a_edge41_Node000042_Node000043"><a xlink:title=" ">
<path fill="none" stroke="#63b8ff" d="M183.8,-131.21C177.15,-129.12 170.37,-126.93 164,-124.77 138.29,-116.03 109.22,-105.03 89.26,-97.3"/>
<polygon fill="#63b8ff" stroke="#63b8ff" points="182.79,-134.56 193.38,-134.17 184.86,-127.87 182.79,-134.56"/>
</a>
</g>
</g>
<!-- Node50&#45;&gt;Node33 -->
<g id="edge49_Node000050_Node000033" class="edge">
<title>Node50&#45;&gt;Node33</title>
<g id="a_edge49_Node000050_Node000033"><a xlink:title=" ">
<path fill="none" stroke="#63b8ff" d="M349.07,-929.3C331.68,-922.26 309.8,-913.69 290,-906.77 280.65,-903.5 270.4,-900.23 260.97,-897.35"/>
<polygon fill="#63b8ff" stroke="#63b8ff" points="348.16,-932.71 358.75,-933.25 350.81,-926.23 348.16,-932.71"/>
</a>
</g>
</g>
<!-- Node50&#45;&gt;Node34 -->
<g id="edge50_Node000050_Node000034" class="edge">
<title>Node50&#45;&gt;Node34</title>
<g id="a_edge50_Node000050_Node000034"><a xlink:title=" ">
<path fill="none" stroke="#63b8ff" d="M320.19,-935.58C309.83,-934.36 299.08,-933.1 288.74,-931.89"/>
<polygon fill="#63b8ff" stroke="#63b8ff" points="320.05,-939.09 330.39,-936.77 320.86,-932.13 320.05,-939.09"/>
</a>
</g>
</g>
<!-- Node50&#45;&gt;Node37 -->
<g id="edge51_Node000050_Node000037" class="edge">
<title>Node50&#45;&gt;Node37</title>
<g id="a_edge51_Node000050_Node000037"><a xlink:title=" ">
<path fill="none" stroke="#63b8ff" d="M320.15,-950.36C306.56,-952.04 292.29,-953.81 279.15,-955.44"/>
<polygon fill="#63b8ff" stroke="#63b8ff" points="320.89,-953.8 330.39,-949.09 320.03,-946.85 320.89,-953.8"/>
</a>
</g>
</g>
<!-- Node51 -->
<g id="Node000051" class="node">
<title>Node51</title>
<g id="a_Node000051"><a xlink:href="../../d0/db5/classFsBaseFile.xhtml#a8d21f9df86e846e34c3bb11cf7db21bc" target="_top" xlink:title=" ">
<polygon fill="white" stroke="#666666" points="283.5,-1045.27 170.5,-1045.27 170.5,-1026.27 283.5,-1026.27 283.5,-1045.27"/>
<text text-anchor="middle" x="227" y="-1033.27" font-family="Helvetica,sans-Serif" font-size="10.00">FsBaseFile::remove</text>
</a>
</g>
</g>
<!-- Node50&#45;&gt;Node51 -->
<g id="edge48_Node000050_Node000051" class="edge">
<title>Node50&#45;&gt;Node51</title>
<g id="a_edge48_Node000050_Node000051"><a xlink:title=" ">
<path fill="none" stroke="#63b8ff" d="M365.04,-959.82C347.8,-976.76 319.21,-1002.39 290,-1017.77 283.65,-1021.11 276.6,-1023.9 269.6,-1026.22"/>
<polygon fill="#63b8ff" stroke="#63b8ff" points="367.97,-961.83 372.55,-952.28 363.01,-956.89 367.97,-961.83"/>
</a>
</g>
</g>
<!-- Node52 -->
<g id="Node000052" class="node">
<title>Node52</title>
<g id="a_Node000052"><a xlink:href="../../d6/d7f/classExFatFile.xhtml#a0165e0fde12a53e419bd92cd37f9cfed" target="_top" xlink:title=" ">
<polygon fill="white" stroke="#666666" points="273,-1008.27 181,-1008.27 181,-989.27 273,-989.27 273,-1008.27"/>
<text text-anchor="middle" x="227" y="-996.27" font-family="Helvetica,sans-Serif" font-size="10.00">ExFatFile::rmdir</text>
</a>
</g>
</g>
<!-- Node50&#45;&gt;Node52 -->
<g id="edge52_Node000050_Node000052" class="edge">
<title>Node50&#45;&gt;Node52</title>
<g id="a_edge52_Node000050_Node000052"><a xlink:title=" ">
<path fill="none" stroke="#63b8ff" d="M351.08,-956.4C333.43,-964.05 310.67,-973.5 290,-980.77 281.44,-983.78 272.08,-986.69 263.3,-989.25"/>
<polygon fill="#63b8ff" stroke="#63b8ff" points="352.56,-959.57 360.31,-952.35 349.75,-953.16 352.56,-959.57"/>
</a>
</g>
</g>
<!-- Node52&#45;&gt;Node38 -->
<g id="edge54_Node000052_Node000038" class="edge">
<title>Node52&#45;&gt;Node38</title>
<g id="a_edge54_Node000052_Node000038"><a xlink:title=" ">
<path fill="none" stroke="#63b8ff" d="M173.47,-985.49C170.19,-984.07 167.01,-982.49 164,-980.77 123.92,-957.76 87.46,-915.26 72.36,-896.32"/>
<polygon fill="#63b8ff" stroke="#63b8ff" points="172.29,-988.79 182.88,-989.16 174.83,-982.27 172.29,-988.79"/>
</a>
</g>
</g>
<!-- Node53 -->
<g id="Node000053" class="node">
<title>Node53</title>
<g id="a_Node000053"><a xlink:href="../../d0/db5/classFsBaseFile.xhtml#ac47870fd89b0849cda33f2780918a286" target="_top" xlink:title=" ">
<polygon fill="white" stroke="#666666" points="114.5,-1008.27 13.5,-1008.27 13.5,-989.27 114.5,-989.27 114.5,-1008.27"/>
<text text-anchor="middle" x="64" y="-996.27" font-family="Helvetica,sans-Serif" font-size="10.00">FsBaseFile::rmdir</text>
</a>
</g>
</g>
<!-- Node52&#45;&gt;Node53 -->
<g id="edge53_Node000052_Node000053" class="edge">
<title>Node52&#45;&gt;Node53</title>
<g id="a_edge53_Node000052_Node000053"><a xlink:title=" ">
<path fill="none" stroke="#63b8ff" d="M170.58,-998.77C152.45,-998.77 132.42,-998.77 114.73,-998.77"/>
<polygon fill="#63b8ff" stroke="#63b8ff" points="170.72,-1002.27 180.72,-998.77 170.72,-995.27 170.72,-1002.27"/>
</a>
</g>
</g>
<!-- Node54&#45;&gt;Node4 -->
<g id="edge56_Node000054_Node000004" class="edge">
<title>Node54&#45;&gt;Node4</title>
<g id="a_edge56_Node000054_Node000004"><a xlink:title=" ">
<path fill="none" stroke="#63b8ff" d="M635.04,-243.23C623.54,-244.61 611.53,-246.04 600.05,-247.41"/>
<polygon fill="#63b8ff" stroke="#63b8ff" points="635.48,-246.7 645,-242.04 634.65,-239.75 635.48,-246.7"/>
</a>
</g>
</g>
<!-- Node54&#45;&gt;Node39 -->
<g id="edge57_Node000054_Node000039" class="edge">
<title>Node54&#45;&gt;Node39</title>
<g id="a_edge57_Node000054_Node000039"><a xlink:title=" ">
<path fill="none" stroke="#63b8ff" d="M634.45,-230.15C582.15,-225.78 505.81,-220.09 439,-217.77 389.03,-216.03 332.36,-216.15 290.34,-216.63"/>
<polygon fill="#63b8ff" stroke="#63b8ff" points="634.32,-233.65 644.58,-231 634.91,-226.67 634.32,-233.65"/>
</a>
</g>
</g>
</g>
</svg>
