<?xml version="1.0" encoding="UTF-8" standalone="no"?>
<!DOCTYPE svg PUBLIC "-//W3C//DTD SVG 1.1//EN"
 "http://www.w3.org/Graphics/SVG/1.1/DTD/svg11.dtd">
<!-- Generated by graphviz version 2.43.0 (0)
 -->
<!-- Title: ExFatFile::cmpName Pages: 1 -->
<svg width="573pt" height="193pt"
 viewBox="0.00 0.00 573.00 192.78" xmlns="http://www.w3.org/2000/svg" xmlns:xlink="http://www.w3.org/1999/xlink">
<g id="graph0" class="graph" transform="scale(1 1) rotate(0) translate(4 188.78)">
<title>ExFatFile::cmpName</title>
<!-- Node1 -->
<g id="Node000001" class="node">
<title>Node1</title>
<g id="a_Node000001"><a xlink:title=" ">
<polygon fill="#999999" stroke="#666666" points="116,-111 0,-111 0,-92 116,-92 116,-111"/>
<text text-anchor="middle" x="58" y="-99" font-family="Helvetica,sans-Serif" font-size="10.00">ExFatFile::cmpName</text>
</a>
</g>
</g>
<!-- Node2 -->
<g id="Node000002" class="node">
<title>Node2</title>
<g id="a_Node000002"><a xlink:href="../../d7/dc0/classFsName.xhtml#a01cb0315615451977881ba3511dbcae6" target="_top" xlink:title=" ">
<polygon fill="white" stroke="#666666" points="370,-167 279,-167 279,-148 370,-148 370,-167"/>
<text text-anchor="middle" x="324.5" y="-155" font-family="Helvetica,sans-Serif" font-size="10.00">FsName::atEnd</text>
</a>
</g>
</g>
<!-- Node1&#45;&gt;Node2 -->
<g id="edge1_Node000001_Node000002" class="edge">
<title>Node1&#45;&gt;Node2</title>
<g id="a_edge1_Node000001_Node000002"><a xlink:title=" ">
<path fill="none" stroke="#63b8ff" d="M66.95,-111.27C81.61,-128.42 114.84,-163.38 152,-176.5 197.25,-192.47 253.02,-181.02 288.43,-170.2"/>
<polygon fill="#63b8ff" stroke="#63b8ff" points="289.83,-173.43 298.29,-167.05 287.7,-166.76 289.83,-173.43"/>
</a>
</g>
</g>
<!-- Node3 -->
<g id="Node000003" class="node">
<title>Node3</title>
<g id="a_Node000003"><a xlink:href="../../d7/dc0/classFsName.xhtml#a7c414c913fbdc66f6e669231849ce5cb" target="_top" xlink:title=" ">
<polygon fill="white" stroke="#666666" points="243,-167 152,-167 152,-148 243,-148 243,-167"/>
<text text-anchor="middle" x="197.5" y="-155" font-family="Helvetica,sans-Serif" font-size="10.00">FsName::get16</text>
</a>
</g>
</g>
<!-- Node1&#45;&gt;Node3 -->
<g id="edge2_Node000001_Node000003" class="edge">
<title>Node1&#45;&gt;Node3</title>
<g id="a_edge2_Node000001_Node000003"><a xlink:title=" ">
<path fill="none" stroke="#63b8ff" d="M82.3,-111.05C101.11,-118.75 128.25,-129.84 152,-139.5 155.72,-141.01 159.61,-142.59 163.48,-144.16"/>
<polygon fill="#63b8ff" stroke="#63b8ff" points="162.35,-147.48 172.94,-147.99 164.98,-140.99 162.35,-147.48"/>
</a>
</g>
</g>
<!-- Node4 -->
<g id="Node000004" class="node">
<title>Node4</title>
<g id="a_Node000004"><a xlink:href="../../d7/dc0/classFsName.xhtml#a52ccb710e9a8f5af1b61b299b67bad0a" target="_top" xlink:title=" ">
<polygon fill="white" stroke="#666666" points="242.5,-130 152.5,-130 152.5,-111 242.5,-111 242.5,-130"/>
<text text-anchor="middle" x="197.5" y="-118" font-family="Helvetica,sans-Serif" font-size="10.00">FsName::getch</text>
</a>
</g>
</g>
<!-- Node1&#45;&gt;Node4 -->
<g id="edge4_Node000001_Node000004" class="edge">
<title>Node1&#45;&gt;Node4</title>
<g id="a_edge4_Node000001_Node000004"><a xlink:title=" ">
<path fill="none" stroke="#63b8ff" d="M116.12,-109.39C124.82,-110.59 133.77,-111.83 142.4,-113.02"/>
<polygon fill="#63b8ff" stroke="#63b8ff" points="141.96,-116.5 152.35,-114.4 142.92,-109.56 141.96,-116.5"/>
</a>
</g>
</g>
<!-- Node5 -->
<g id="Node000005" class="node">
<title>Node5</title>
<g id="a_Node000005"><a xlink:href="../../dc/d87/FsStructs_8h.xhtml#a89aef4aa8e8032eab2982d660e7b8a81" target="_top" xlink:title=" ">
<polygon fill="white" stroke="#666666" points="225.5,-93 169.5,-93 169.5,-74 225.5,-74 225.5,-93"/>
<text text-anchor="middle" x="197.5" y="-81" font-family="Helvetica,sans-Serif" font-size="10.00">getLe16</text>
</a>
</g>
</g>
<!-- Node1&#45;&gt;Node5 -->
<g id="edge6_Node000001_Node000005" class="edge">
<title>Node1&#45;&gt;Node5</title>
<g id="a_edge6_Node000001_Node000005"><a xlink:title=" ">
<path fill="none" stroke="#63b8ff" d="M116.12,-94.02C130.67,-92.12 145.94,-90.12 159.22,-88.38"/>
<polygon fill="#63b8ff" stroke="#63b8ff" points="159.93,-91.82 169.39,-87.05 159.02,-84.88 159.93,-91.82"/>
</a>
</g>
</g>
<!-- Node6 -->
<g id="Node000006" class="node">
<title>Node6</title>
<g id="a_Node000006"><a xlink:href="../../de/d22/upcase_8cpp.xhtml#a21b6d308ac42097fe276a6cb2f392818" target="_top" xlink:title=" ">
<polygon fill="white" stroke="#666666" points="228.5,-56 166.5,-56 166.5,-37 228.5,-37 228.5,-56"/>
<text text-anchor="middle" x="197.5" y="-44" font-family="Helvetica,sans-Serif" font-size="10.00">toUpcase</text>
</a>
</g>
</g>
<!-- Node1&#45;&gt;Node6 -->
<g id="edge7_Node000001_Node000006" class="edge">
<title>Node1&#45;&gt;Node6</title>
<g id="a_edge7_Node000001_Node000006"><a xlink:title=" ">
<path fill="none" stroke="#63b8ff" d="M82.95,-91.92C105.09,-83.06 138.22,-69.81 162.99,-59.91"/>
<polygon fill="#63b8ff" stroke="#63b8ff" points="164.38,-63.12 172.36,-56.16 161.78,-56.62 164.38,-63.12"/>
</a>
</g>
</g>
<!-- Node11 -->
<g id="Node000011" class="node">
<title>Node11</title>
<g id="a_Node000011"><a xlink:href="../../d7/d23/ExFatName_8cpp.xhtml#adcee0d90a56333557fa3bbb169cfdde8" target="_top" xlink:title=" ">
<polygon fill="white" stroke="#666666" points="225.5,-19 169.5,-19 169.5,0 225.5,0 225.5,-19"/>
<text text-anchor="middle" x="197.5" y="-7" font-family="Helvetica,sans-Serif" font-size="10.00">toUpper</text>
</a>
</g>
</g>
<!-- Node1&#45;&gt;Node11 -->
<g id="edge13_Node000001_Node000011" class="edge">
<title>Node1&#45;&gt;Node11</title>
<g id="a_edge13_Node000001_Node000011"><a xlink:title=" ">
<path fill="none" stroke="#63b8ff" d="M69.15,-91.77C85.51,-76.49 119.21,-46.64 152,-27.5 154.5,-26.04 157.13,-24.65 159.83,-23.33"/>
<polygon fill="#63b8ff" stroke="#63b8ff" points="161.41,-26.46 169.08,-19.14 158.53,-20.08 161.41,-26.46"/>
</a>
</g>
</g>
<!-- Node3&#45;&gt;Node2 -->
<g id="edge3_Node000003_Node000002" class="edge">
<title>Node3&#45;&gt;Node2</title>
<g id="a_edge3_Node000003_Node000002"><a xlink:title=" ">
<path fill="none" stroke="#63b8ff" d="M243.27,-157.5C251.44,-157.5 260.05,-157.5 268.47,-157.5"/>
<polygon fill="#63b8ff" stroke="#63b8ff" points="268.62,-161 278.62,-157.5 268.62,-154 268.62,-161"/>
</a>
</g>
</g>
<!-- Node4&#45;&gt;Node2 -->
<g id="edge5_Node000004_Node000002" class="edge">
<title>Node4&#45;&gt;Node2</title>
<g id="a_edge5_Node000004_Node000002"><a xlink:title=" ">
<path fill="none" stroke="#63b8ff" d="M230.69,-130.03C246.03,-134.57 264.57,-140.06 281.04,-144.93"/>
<polygon fill="#63b8ff" stroke="#63b8ff" points="280.4,-148.39 290.98,-147.88 282.39,-141.68 280.4,-148.39"/>
</a>
</g>
</g>
<!-- Node7 -->
<g id="Node000007" class="node">
<title>Node7</title>
<g id="a_Node000007"><a xlink:href="../../de/d22/upcase_8cpp.xhtml#ad530d8c884214dce68a3e55efae606fd" target="_top" xlink:title=" ">
<polygon fill="white" stroke="#666666" points="364,-56 285,-56 285,-37 364,-37 364,-56"/>
<text text-anchor="middle" x="324.5" y="-44" font-family="Helvetica,sans-Serif" font-size="10.00">searchPair16</text>
</a>
</g>
</g>
<!-- Node6&#45;&gt;Node7 -->
<g id="edge8_Node000006_Node000007" class="edge">
<title>Node6&#45;&gt;Node7</title>
<g id="a_edge8_Node000006_Node000007"><a xlink:title=" ">
<path fill="none" stroke="#63b8ff" d="M228.76,-46.5C242.63,-46.5 259.41,-46.5 274.98,-46.5"/>
<polygon fill="#63b8ff" stroke="#63b8ff" points="274.99,-50 284.99,-46.5 274.99,-43 274.99,-50"/>
</a>
</g>
</g>
<!-- Node8 -->
<g id="Node000008" class="node">
<title>Node8</title>
<g id="a_Node000008"><a xlink:href="../../df/dd5/ios_8h.xhtml#a86053192dca0759aeb201ff65725c7f0" target="_top" xlink:title=" ">
<polygon fill="white" stroke="#666666" points="441.5,-75 409.5,-75 409.5,-56 441.5,-56 441.5,-75"/>
<text text-anchor="middle" x="425.5" y="-63" font-family="Helvetica,sans-Serif" font-size="10.00">left</text>
</a>
</g>
</g>
<!-- Node7&#45;&gt;Node8 -->
<g id="edge9_Node000007_Node000008" class="edge">
<title>Node7&#45;&gt;Node8</title>
<g id="a_edge9_Node000007_Node000008"><a xlink:title=" ">
<path fill="none" stroke="#63b8ff" d="M364.06,-53.9C375.95,-56.18 388.73,-58.63 399.46,-60.69"/>
<polygon fill="#63b8ff" stroke="#63b8ff" points="398.91,-64.15 409.39,-62.6 400.23,-57.28 398.91,-64.15"/>
</a>
</g>
</g>
<!-- Node10 -->
<g id="Node000010" class="node">
<title>Node10</title>
<g id="a_Node000010"><a xlink:href="../../df/dd5/ios_8h.xhtml#a5c2656b1fa09ef8554f2bdc336b93e4b" target="_top" xlink:title=" ">
<polygon fill="white" stroke="#666666" points="445,-38 406,-38 406,-19 445,-19 445,-38"/>
<text text-anchor="middle" x="425.5" y="-26" font-family="Helvetica,sans-Serif" font-size="10.00">right</text>
</a>
</g>
</g>
<!-- Node7&#45;&gt;Node10 -->
<g id="edge11_Node000007_Node000010" class="edge">
<title>Node7&#45;&gt;Node10</title>
<g id="a_edge11_Node000007_Node000010"><a xlink:title=" ">
<path fill="none" stroke="#63b8ff" d="M364.06,-39.49C374.59,-37.58 385.81,-35.54 395.69,-33.74"/>
<polygon fill="#63b8ff" stroke="#63b8ff" points="396.57,-37.14 405.78,-31.9 395.32,-30.25 396.57,-37.14"/>
</a>
</g>
</g>
<!-- Node9 -->
<g id="Node000009" class="node">
<title>Node9</title>
<g id="a_Node000009"><a xlink:href="../../d4/dc1/classios__base.xhtml#ab5db835cb45bba7684ebf72d9a3cccb4" target="_top" xlink:title=" ">
<polygon fill="white" stroke="#666666" points="565,-56 481,-56 481,-37 565,-37 565,-56"/>
<text text-anchor="middle" x="523" y="-44" font-family="Helvetica,sans-Serif" font-size="10.00">ios_base::setf</text>
</a>
</g>
</g>
<!-- Node8&#45;&gt;Node9 -->
<g id="edge10_Node000008_Node000009" class="edge">
<title>Node8&#45;&gt;Node9</title>
<g id="a_edge10_Node000008_Node000009"><a xlink:title=" ">
<path fill="none" stroke="#63b8ff" d="M441.84,-62.45C449.83,-60.86 460.12,-58.81 470.64,-56.72"/>
<polygon fill="#63b8ff" stroke="#63b8ff" points="471.6,-60.1 480.73,-54.71 470.24,-53.23 471.6,-60.1"/>
</a>
</g>
</g>
<!-- Node10&#45;&gt;Node9 -->
<g id="edge12_Node000010_Node000009" class="edge">
<title>Node10&#45;&gt;Node9</title>
<g id="a_edge12_Node000010_Node000009"><a xlink:title=" ">
<path fill="none" stroke="#63b8ff" d="M445.37,-32.06C452.79,-33.46 461.71,-35.14 470.8,-36.85"/>
<polygon fill="#63b8ff" stroke="#63b8ff" points="470.18,-40.29 480.66,-38.71 471.48,-33.42 470.18,-40.29"/>
</a>
</g>
</g>
</g>
</svg>
