<?xml version="1.0" encoding="UTF-8" standalone="no"?>
<!DOCTYPE svg PUBLIC "-//W3C//DTD SVG 1.1//EN"
 "http://www.w3.org/Graphics/SVG/1.1/DTD/svg11.dtd">
<!-- Generated by graphviz version 2.43.0 (0)
 -->
<!-- Title: istream Pages: 1 -->
<svg width="446pt" height="1694pt"
 viewBox="0.00 0.00 446.00 1694.00" xmlns="http://www.w3.org/2000/svg" xmlns:xlink="http://www.w3.org/1999/xlink">
<g id="graph0" class="graph" transform="scale(1 1) rotate(0) translate(4 1690)">
<title>istream</title>
<!-- Node1 -->
<g id="Node000001" class="node">
<title>Node1</title>
<g id="a_Node000001"><a xlink:title="Input Stream.">
<polygon fill="#999999" stroke="transparent" points="323.5,-855 160.5,-855 160.5,-397 323.5,-397 323.5,-855"/>
<text text-anchor="start" x="223.5" y="-843" font-family="Helvetica,sans-Serif" font-size="10.00">istream</text>
<text text-anchor="start" x="167.5" y="-828" font-family="Helvetica,sans-Serif" font-size="10.00">&#45;</text>
<text text-anchor="start" x="178" y="-828" font-family="Helvetica,sans-Serif" font-size="10.00">size_t m_gcount</text>
<text text-anchor="start" x="165" y="-813" font-family="Helvetica,sans-Serif" font-size="10.00">+</text>
<text text-anchor="start" x="178" y="-813" font-family="Helvetica,sans-Serif" font-size="10.00">istream()=default</text>
<text text-anchor="start" x="165" y="-798" font-family="Helvetica,sans-Serif" font-size="10.00">+</text>
<text text-anchor="start" x="178" y="-798" font-family="Helvetica,sans-Serif" font-size="10.00">istream &amp; operator&gt;</text>
<text text-anchor="start" x="178" y="-787" font-family="Helvetica,sans-Serif" font-size="10.00">&gt;(istream &amp;(*pf)(istream</text>
<text text-anchor="start" x="178" y="-776" font-family="Helvetica,sans-Serif" font-size="10.00"> &amp;str))</text>
<text text-anchor="start" x="165" y="-761" font-family="Helvetica,sans-Serif" font-size="10.00">+</text>
<text text-anchor="start" x="178" y="-761" font-family="Helvetica,sans-Serif" font-size="10.00">istream &amp; operator&gt;</text>
<text text-anchor="start" x="178" y="-750" font-family="Helvetica,sans-Serif" font-size="10.00">&gt;(ios_base &amp;(*pf)(ios</text>
<text text-anchor="start" x="178" y="-739" font-family="Helvetica,sans-Serif" font-size="10.00">_base &amp;str))</text>
<text text-anchor="start" x="165" y="-724" font-family="Helvetica,sans-Serif" font-size="10.00">+</text>
<text text-anchor="start" x="178" y="-724" font-family="Helvetica,sans-Serif" font-size="10.00">istream &amp; operator&gt;</text>
<text text-anchor="start" x="178" y="-713" font-family="Helvetica,sans-Serif" font-size="10.00">&gt;(ios &amp;(*pf)(ios &amp;str))</text>
<text text-anchor="start" x="165" y="-698" font-family="Helvetica,sans-Serif" font-size="10.00">+</text>
<text text-anchor="start" x="178" y="-698" font-family="Helvetica,sans-Serif" font-size="10.00">istream &amp; operator&gt;</text>
<text text-anchor="start" x="178" y="-687" font-family="Helvetica,sans-Serif" font-size="10.00">&gt;(char *str)</text>
<text text-anchor="start" x="165" y="-672" font-family="Helvetica,sans-Serif" font-size="10.00">+</text>
<text text-anchor="start" x="178" y="-672" font-family="Helvetica,sans-Serif" font-size="10.00">istream &amp; operator&gt;</text>
<text text-anchor="start" x="178" y="-661" font-family="Helvetica,sans-Serif" font-size="10.00">&gt;(char &amp;ch)</text>
<text text-anchor="start" x="165" y="-646" font-family="Helvetica,sans-Serif" font-size="10.00">+</text>
<text text-anchor="start" x="178" y="-646" font-family="Helvetica,sans-Serif" font-size="10.00">istream &amp; operator&gt;</text>
<text text-anchor="start" x="178" y="-635" font-family="Helvetica,sans-Serif" font-size="10.00">&gt;(signed char *str)</text>
<text text-anchor="start" x="165" y="-620" font-family="Helvetica,sans-Serif" font-size="10.00">+</text>
<text text-anchor="start" x="178" y="-620" font-family="Helvetica,sans-Serif" font-size="10.00">istream &amp; operator&gt;</text>
<text text-anchor="start" x="178" y="-609" font-family="Helvetica,sans-Serif" font-size="10.00">&gt;(signed char &amp;ch)</text>
<text text-anchor="start" x="165" y="-594" font-family="Helvetica,sans-Serif" font-size="10.00">+</text>
<text text-anchor="start" x="178" y="-594" font-family="Helvetica,sans-Serif" font-size="10.00">istream &amp; operator&gt;</text>
<text text-anchor="start" x="178" y="-583" font-family="Helvetica,sans-Serif" font-size="10.00">&gt;(unsigned char *str)</text>
<text text-anchor="start" x="165" y="-568" font-family="Helvetica,sans-Serif" font-size="10.00">+</text>
<text text-anchor="start" x="178" y="-568" font-family="Helvetica,sans-Serif" font-size="10.00">istream &amp; operator&gt;</text>
<text text-anchor="start" x="178" y="-557" font-family="Helvetica,sans-Serif" font-size="10.00">&gt;(unsigned char &amp;ch)</text>
<text text-anchor="start" x="178" y="-542" font-family="Helvetica,sans-Serif" font-size="10.00">et 21 de plus...</text>
<text text-anchor="start" x="167.5" y="-527" font-family="Helvetica,sans-Serif" font-size="10.00">&#45;</text>
<text text-anchor="start" x="178" y="-527" font-family="Helvetica,sans-Serif" font-size="10.00">void getBool(bool *b)</text>
<text text-anchor="start" x="167.5" y="-512" font-family="Helvetica,sans-Serif" font-size="10.00">&#45;</text>
<text text-anchor="start" x="178" y="-512" font-family="Helvetica,sans-Serif" font-size="10.00">void getChar(char *ch)</text>
<text text-anchor="start" x="167.5" y="-497" font-family="Helvetica,sans-Serif" font-size="10.00">&#45;</text>
<text text-anchor="start" x="178" y="-497" font-family="Helvetica,sans-Serif" font-size="10.00">bool getDouble(double</text>
<text text-anchor="start" x="178" y="-486" font-family="Helvetica,sans-Serif" font-size="10.00"> *value)</text>
<text text-anchor="start" x="167.5" y="-471" font-family="Helvetica,sans-Serif" font-size="10.00">&#45;</text>
<text text-anchor="start" x="178" y="-471" font-family="Helvetica,sans-Serif" font-size="10.00">void getNumber(T *value)</text>
<text text-anchor="start" x="167.5" y="-456" font-family="Helvetica,sans-Serif" font-size="10.00">&#45;</text>
<text text-anchor="start" x="178" y="-456" font-family="Helvetica,sans-Serif" font-size="10.00">bool getNumber(uint32</text>
<text text-anchor="start" x="178" y="-445" font-family="Helvetica,sans-Serif" font-size="10.00">_t posMax, uint32_t negMax,</text>
<text text-anchor="start" x="178" y="-434" font-family="Helvetica,sans-Serif" font-size="10.00"> uint32_t *num)</text>
<text text-anchor="start" x="167.5" y="-419" font-family="Helvetica,sans-Serif" font-size="10.00">&#45;</text>
<text text-anchor="start" x="178" y="-419" font-family="Helvetica,sans-Serif" font-size="10.00">void getStr(char *str)</text>
<text text-anchor="start" x="167.5" y="-404" font-family="Helvetica,sans-Serif" font-size="10.00">&#45;</text>
<text text-anchor="start" x="178" y="-404" font-family="Helvetica,sans-Serif" font-size="10.00">int16_t readSkip()</text>
<polygon fill="#666666" stroke="#666666" points="161,-838 161,-838 324,-838 324,-838 161,-838"/>
<polygon fill="#666666" stroke="#666666" points="161,-823 161,-823 176,-823 176,-823 161,-823"/>
<polygon fill="#666666" stroke="#666666" points="176,-823 176,-823 324,-823 324,-823 176,-823"/>
<polygon fill="none" stroke="#666666" points="160.5,-397 160.5,-855 323.5,-855 323.5,-397 160.5,-397"/>
</a>
</g>
</g>
<!-- Node4 -->
<g id="Node000004" class="node">
<title>Node4</title>
<g id="a_Node000004"><a xlink:href="../../d0/d91/classibufstream.xhtml" target="_top" xlink:title="parse a char string">
<polygon fill="white" stroke="transparent" points="143.5,-353.5 14.5,-353.5 14.5,-222.5 143.5,-222.5 143.5,-353.5"/>
<text text-anchor="start" x="52.5" y="-341" font-family="Helvetica,sans-Serif" font-size="10.00">ibufstream</text>
<text text-anchor="start" x="21.5" y="-326" font-family="Helvetica,sans-Serif" font-size="10.00">&#45;</text>
<text text-anchor="start" x="32" y="-326" font-family="Helvetica,sans-Serif" font-size="10.00">const char * m_buf</text>
<text text-anchor="start" x="21.5" y="-311" font-family="Helvetica,sans-Serif" font-size="10.00">&#45;</text>
<text text-anchor="start" x="32" y="-311" font-family="Helvetica,sans-Serif" font-size="10.00">size_t m_len</text>
<text text-anchor="start" x="21.5" y="-296" font-family="Helvetica,sans-Serif" font-size="10.00">&#45;</text>
<text text-anchor="start" x="32" y="-296" font-family="Helvetica,sans-Serif" font-size="10.00">size_t m_pos</text>
<text text-anchor="start" x="19" y="-281" font-family="Helvetica,sans-Serif" font-size="10.00">+</text>
<text text-anchor="start" x="32" y="-281" font-family="Helvetica,sans-Serif" font-size="10.00">ibufstream()</text>
<text text-anchor="start" x="19" y="-266" font-family="Helvetica,sans-Serif" font-size="10.00">+</text>
<text text-anchor="start" x="32" y="-266" font-family="Helvetica,sans-Serif" font-size="10.00">ibufstream(const char</text>
<text text-anchor="start" x="32" y="-255" font-family="Helvetica,sans-Serif" font-size="10.00"> *str)</text>
<text text-anchor="start" x="19" y="-240" font-family="Helvetica,sans-Serif" font-size="10.00">+</text>
<text text-anchor="start" x="32" y="-240" font-family="Helvetica,sans-Serif" font-size="10.00">void init(const char</text>
<text text-anchor="start" x="32" y="-229" font-family="Helvetica,sans-Serif" font-size="10.00"> *str)</text>
<polygon fill="#666666" stroke="#666666" points="15,-336 15,-336 144,-336 144,-336 15,-336"/>
<polygon fill="#666666" stroke="#666666" points="15,-291 15,-291 30,-291 30,-291 15,-291"/>
<polygon fill="#666666" stroke="#666666" points="30,-291 30,-291 144,-291 144,-291 30,-291"/>
<polygon fill="none" stroke="#666666" points="14.5,-222.5 14.5,-353.5 143.5,-353.5 143.5,-222.5 14.5,-222.5"/>
</a>
</g>
</g>
<!-- Node1&#45;&gt;Node4 -->
<g id="edge3_Node000001_Node000004" class="edge">
<title>Node1&#45;&gt;Node4</title>
<g id="a_edge3_Node000001_Node000004"><a xlink:title=" ">
<path fill="none" stroke="#63b8ff" d="M155.88,-447.49C139.57,-413.86 123.51,-380.75 110.32,-353.56"/>
<polygon fill="none" stroke="#63b8ff" points="152.75,-449.04 160.26,-456.51 159.05,-445.98 152.75,-449.04"/>
</a>
</g>
</g>
<!-- Node6 -->
<g id="Node000006" class="node">
<title>Node6</title>
<g id="a_Node000006"><a xlink:href="../../d0/d68/classifstream.xhtml" target="_top" xlink:title="file input stream.">
<polygon fill="white" stroke="transparent" points="322.5,-361 161.5,-361 161.5,-215 322.5,-215 322.5,-361"/>
<text text-anchor="start" x="221.5" y="-349" font-family="Helvetica,sans-Serif" font-size="10.00">ifstream</text>
<text text-anchor="start" x="240.5" y="-334" font-family="Helvetica,sans-Serif" font-size="10.00"> </text>
<text text-anchor="start" x="166" y="-319" font-family="Helvetica,sans-Serif" font-size="10.00">+</text>
<text text-anchor="start" x="179" y="-319" font-family="Helvetica,sans-Serif" font-size="10.00">ifstream()</text>
<text text-anchor="start" x="166" y="-304" font-family="Helvetica,sans-Serif" font-size="10.00">+</text>
<text text-anchor="start" x="179" y="-304" font-family="Helvetica,sans-Serif" font-size="10.00">ifstream(const char</text>
<text text-anchor="start" x="179" y="-293" font-family="Helvetica,sans-Serif" font-size="10.00"> *path, openmode mode=in)</text>
<text text-anchor="start" x="166" y="-278" font-family="Helvetica,sans-Serif" font-size="10.00">+</text>
<text text-anchor="start" x="179" y="-278" font-family="Helvetica,sans-Serif" font-size="10.00">void close()</text>
<text text-anchor="start" x="166" y="-263" font-family="Helvetica,sans-Serif" font-size="10.00">+</text>
<text text-anchor="start" x="179" y="-263" font-family="Helvetica,sans-Serif" font-size="10.00">bool is_open()</text>
<text text-anchor="start" x="166" y="-248" font-family="Helvetica,sans-Serif" font-size="10.00">+</text>
<text text-anchor="start" x="179" y="-248" font-family="Helvetica,sans-Serif" font-size="10.00">void open(const char</text>
<text text-anchor="start" x="179" y="-237" font-family="Helvetica,sans-Serif" font-size="10.00"> *path, openmode mode=in)</text>
<text text-anchor="start" x="166" y="-222" font-family="Helvetica,sans-Serif" font-size="10.00">+</text>
<text text-anchor="start" x="179" y="-222" font-family="Helvetica,sans-Serif" font-size="10.00">int peek()</text>
<polygon fill="#666666" stroke="#666666" points="162,-344 162,-344 323,-344 323,-344 162,-344"/>
<polygon fill="#666666" stroke="#666666" points="162,-329 162,-329 323,-329 323,-329 162,-329"/>
<polygon fill="none" stroke="#666666" points="161.5,-215 161.5,-361 322.5,-361 322.5,-215 161.5,-215"/>
</a>
</g>
</g>
<!-- Node1&#45;&gt;Node6 -->
<g id="edge5_Node000001_Node000006" class="edge">
<title>Node1&#45;&gt;Node6</title>
<g id="a_edge5_Node000001_Node000006"><a xlink:title=" ">
<path fill="none" stroke="#63b8ff" d="M242,-386.58C242,-377.74 242,-369.21 242,-361.13"/>
<polygon fill="none" stroke="#63b8ff" points="238.5,-386.7 242,-396.7 245.5,-386.7 238.5,-386.7"/>
</a>
</g>
</g>
<!-- Node7 -->
<g id="Node000007" class="node">
<title>Node7</title>
<g id="a_Node000007"><a xlink:href="../../d1/d31/classiostream.xhtml" target="_top" xlink:title="Input/Output stream.">
<polygon fill="white" stroke="transparent" points="395,-312.5 341,-312.5 341,-263.5 395,-263.5 395,-312.5"/>
<text text-anchor="start" x="346" y="-300" font-family="Helvetica,sans-Serif" font-size="10.00">iostream</text>
<text text-anchor="start" x="366" y="-285" font-family="Helvetica,sans-Serif" font-size="10.00"> </text>
<text text-anchor="start" x="366" y="-270" font-family="Helvetica,sans-Serif" font-size="10.00"> </text>
<polygon fill="#666666" stroke="#666666" points="341,-295 341,-295 395,-295 395,-295 341,-295"/>
<polygon fill="#666666" stroke="#666666" points="341,-280 341,-280 395,-280 395,-280 341,-280"/>
<polygon fill="none" stroke="#666666" points="341,-263.5 341,-312.5 395,-312.5 395,-263.5 341,-263.5"/>
</a>
</g>
</g>
<!-- Node1&#45;&gt;Node7 -->
<g id="edge6_Node000001_Node000007" class="edge">
<title>Node1&#45;&gt;Node7</title>
<g id="a_edge6_Node000001_Node000007"><a xlink:title=" ">
<path fill="none" stroke="#63b8ff" d="M327.25,-397.66C340.15,-363.26 351.63,-332.67 359.08,-312.78"/>
<polygon fill="none" stroke="#63b8ff" points="323.81,-396.87 323.58,-407.46 330.37,-399.33 323.81,-396.87"/>
</a>
</g>
</g>
<!-- Node2 -->
<g id="Node000002" class="node">
<title>Node2</title>
<g id="a_Node000002"><a xlink:href="../../df/d02/classios.xhtml" target="_top" xlink:title="Error and state information for all streams.">
<polygon fill="white" stroke="transparent" points="307,-1123 177,-1123 177,-891 307,-891 307,-1123"/>
<text text-anchor="start" x="234.5" y="-1111" font-family="Helvetica,sans-Serif" font-size="10.00">ios</text>
<text text-anchor="start" x="183.5" y="-1096" font-family="Helvetica,sans-Serif" font-size="10.00">&#45;</text>
<text text-anchor="start" x="194" y="-1096" font-family="Helvetica,sans-Serif" font-size="10.00">iostate m_iostate</text>
<text text-anchor="start" x="181" y="-1081" font-family="Helvetica,sans-Serif" font-size="10.00">+</text>
<text text-anchor="start" x="194" y="-1081" font-family="Helvetica,sans-Serif" font-size="10.00">ios()</text>
<text text-anchor="start" x="181" y="-1066" font-family="Helvetica,sans-Serif" font-size="10.00">+</text>
<text text-anchor="start" x="194" y="-1066" font-family="Helvetica,sans-Serif" font-size="10.00">operator const void</text>
<text text-anchor="start" x="194" y="-1055" font-family="Helvetica,sans-Serif" font-size="10.00"> *() const</text>
<text text-anchor="start" x="181" y="-1040" font-family="Helvetica,sans-Serif" font-size="10.00">+</text>
<text text-anchor="start" x="194" y="-1040" font-family="Helvetica,sans-Serif" font-size="10.00">bool operator!() const</text>
<text text-anchor="start" x="181" y="-1025" font-family="Helvetica,sans-Serif" font-size="10.00">+</text>
<text text-anchor="start" x="194" y="-1025" font-family="Helvetica,sans-Serif" font-size="10.00">operator bool() const</text>
<text text-anchor="start" x="181" y="-1010" font-family="Helvetica,sans-Serif" font-size="10.00">+</text>
<text text-anchor="start" x="194" y="-1010" font-family="Helvetica,sans-Serif" font-size="10.00">iostate rdstate() const</text>
<text text-anchor="start" x="181" y="-995" font-family="Helvetica,sans-Serif" font-size="10.00">+</text>
<text text-anchor="start" x="194" y="-995" font-family="Helvetica,sans-Serif" font-size="10.00">bool good() const</text>
<text text-anchor="start" x="181" y="-980" font-family="Helvetica,sans-Serif" font-size="10.00">+</text>
<text text-anchor="start" x="194" y="-980" font-family="Helvetica,sans-Serif" font-size="10.00">bool eof() const</text>
<text text-anchor="start" x="181" y="-965" font-family="Helvetica,sans-Serif" font-size="10.00">+</text>
<text text-anchor="start" x="194" y="-965" font-family="Helvetica,sans-Serif" font-size="10.00">bool fail() const</text>
<text text-anchor="start" x="181" y="-950" font-family="Helvetica,sans-Serif" font-size="10.00">+</text>
<text text-anchor="start" x="194" y="-950" font-family="Helvetica,sans-Serif" font-size="10.00">bool bad() const</text>
<text text-anchor="start" x="181" y="-935" font-family="Helvetica,sans-Serif" font-size="10.00">+</text>
<text text-anchor="start" x="194" y="-935" font-family="Helvetica,sans-Serif" font-size="10.00">void clear(iostate</text>
<text text-anchor="start" x="194" y="-924" font-family="Helvetica,sans-Serif" font-size="10.00"> state=goodbit)</text>
<text text-anchor="start" x="181" y="-909" font-family="Helvetica,sans-Serif" font-size="10.00">+</text>
<text text-anchor="start" x="194" y="-909" font-family="Helvetica,sans-Serif" font-size="10.00">void setstate(iostate</text>
<text text-anchor="start" x="194" y="-898" font-family="Helvetica,sans-Serif" font-size="10.00"> state)</text>
<polygon fill="#666666" stroke="#666666" points="177,-1106 177,-1106 307,-1106 307,-1106 177,-1106"/>
<polygon fill="#666666" stroke="#666666" points="177,-1091 177,-1091 192,-1091 192,-1091 177,-1091"/>
<polygon fill="#666666" stroke="#666666" points="192,-1091 192,-1091 307,-1091 307,-1091 192,-1091"/>
<polygon fill="none" stroke="#666666" points="177,-891 177,-1123 307,-1123 307,-891 177,-891"/>
</a>
</g>
</g>
<!-- Node2&#45;&gt;Node1 -->
<g id="edge1_Node000001_Node000002" class="edge">
<title>Node2&#45;&gt;Node1</title>
<g id="a_edge1_Node000001_Node000002"><a xlink:title=" ">
<path fill="none" stroke="#63b8ff" d="M242,-880.63C242,-872.26 242,-863.7 242,-855.02"/>
<polygon fill="none" stroke="#63b8ff" points="238.5,-880.74 242,-890.74 245.5,-880.74 238.5,-880.74"/>
</a>
</g>
</g>
<!-- Node3 -->
<g id="Node000003" class="node">
<title>Node3</title>
<g id="a_Node000003"><a xlink:href="../../d4/dc1/classios__base.xhtml" target="_top" xlink:title="Base class for all streams.">
<polygon fill="white" stroke="transparent" points="320.5,-1686 163.5,-1686 163.5,-1159 320.5,-1159 320.5,-1686"/>
<text text-anchor="start" x="221" y="-1673.5" font-family="Helvetica,sans-Serif" font-size="10.00">ios_base</text>
<text text-anchor="start" x="168" y="-1658.5" font-family="Helvetica,sans-Serif" font-size="10.00">+</text>
<text text-anchor="start" x="181" y="-1658.5" font-family="Helvetica,sans-Serif" font-size="10.00">static const iostate</text>
<text text-anchor="start" x="181" y="-1647.5" font-family="Helvetica,sans-Serif" font-size="10.00"> goodbit</text>
<text text-anchor="start" x="168" y="-1632.5" font-family="Helvetica,sans-Serif" font-size="10.00">+</text>
<text text-anchor="start" x="181" y="-1632.5" font-family="Helvetica,sans-Serif" font-size="10.00">static const iostate</text>
<text text-anchor="start" x="181" y="-1621.5" font-family="Helvetica,sans-Serif" font-size="10.00"> badbit</text>
<text text-anchor="start" x="168" y="-1606.5" font-family="Helvetica,sans-Serif" font-size="10.00">+</text>
<text text-anchor="start" x="181" y="-1606.5" font-family="Helvetica,sans-Serif" font-size="10.00">static const iostate</text>
<text text-anchor="start" x="181" y="-1595.5" font-family="Helvetica,sans-Serif" font-size="10.00"> eofbit</text>
<text text-anchor="start" x="168" y="-1580.5" font-family="Helvetica,sans-Serif" font-size="10.00">+</text>
<text text-anchor="start" x="181" y="-1580.5" font-family="Helvetica,sans-Serif" font-size="10.00">static const iostate</text>
<text text-anchor="start" x="181" y="-1569.5" font-family="Helvetica,sans-Serif" font-size="10.00"> failbit</text>
<text text-anchor="start" x="168" y="-1554.5" font-family="Helvetica,sans-Serif" font-size="10.00">+</text>
<text text-anchor="start" x="181" y="-1554.5" font-family="Helvetica,sans-Serif" font-size="10.00">static const fmtflags left</text>
<text text-anchor="start" x="168" y="-1539.5" font-family="Helvetica,sans-Serif" font-size="10.00">+</text>
<text text-anchor="start" x="181" y="-1539.5" font-family="Helvetica,sans-Serif" font-size="10.00">static const fmtflags</text>
<text text-anchor="start" x="181" y="-1528.5" font-family="Helvetica,sans-Serif" font-size="10.00"> right</text>
<text text-anchor="start" x="168" y="-1513.5" font-family="Helvetica,sans-Serif" font-size="10.00">+</text>
<text text-anchor="start" x="181" y="-1513.5" font-family="Helvetica,sans-Serif" font-size="10.00">static const fmtflags</text>
<text text-anchor="start" x="181" y="-1502.5" font-family="Helvetica,sans-Serif" font-size="10.00"> internal</text>
<text text-anchor="start" x="168" y="-1487.5" font-family="Helvetica,sans-Serif" font-size="10.00">+</text>
<text text-anchor="start" x="181" y="-1487.5" font-family="Helvetica,sans-Serif" font-size="10.00">static const fmtflags dec</text>
<text text-anchor="start" x="168" y="-1472.5" font-family="Helvetica,sans-Serif" font-size="10.00">+</text>
<text text-anchor="start" x="181" y="-1472.5" font-family="Helvetica,sans-Serif" font-size="10.00">static const fmtflags hex</text>
<text text-anchor="start" x="168" y="-1457.5" font-family="Helvetica,sans-Serif" font-size="10.00">+</text>
<text text-anchor="start" x="181" y="-1457.5" font-family="Helvetica,sans-Serif" font-size="10.00">static const fmtflags oct</text>
<text text-anchor="start" x="181" y="-1442.5" font-family="Helvetica,sans-Serif" font-size="10.00">et 14 de plus...</text>
<text text-anchor="start" x="170.5" y="-1427.5" font-family="Helvetica,sans-Serif" font-size="10.00">&#45;</text>
<text text-anchor="start" x="181" y="-1427.5" font-family="Helvetica,sans-Serif" font-size="10.00">char m_fill</text>
<text text-anchor="start" x="170.5" y="-1412.5" font-family="Helvetica,sans-Serif" font-size="10.00">&#45;</text>
<text text-anchor="start" x="181" y="-1412.5" font-family="Helvetica,sans-Serif" font-size="10.00">fmtflags m_fmtflags</text>
<text text-anchor="start" x="170.5" y="-1397.5" font-family="Helvetica,sans-Serif" font-size="10.00">&#45;</text>
<text text-anchor="start" x="181" y="-1397.5" font-family="Helvetica,sans-Serif" font-size="10.00">unsigned char m_precision</text>
<text text-anchor="start" x="170.5" y="-1382.5" font-family="Helvetica,sans-Serif" font-size="10.00">&#45;</text>
<text text-anchor="start" x="181" y="-1382.5" font-family="Helvetica,sans-Serif" font-size="10.00">unsigned int m_width</text>
<text text-anchor="start" x="168" y="-1367.5" font-family="Helvetica,sans-Serif" font-size="10.00">+</text>
<text text-anchor="start" x="181" y="-1367.5" font-family="Helvetica,sans-Serif" font-size="10.00">ios_base()</text>
<text text-anchor="start" x="168" y="-1352.5" font-family="Helvetica,sans-Serif" font-size="10.00">+</text>
<text text-anchor="start" x="181" y="-1352.5" font-family="Helvetica,sans-Serif" font-size="10.00">char fill()</text>
<text text-anchor="start" x="168" y="-1337.5" font-family="Helvetica,sans-Serif" font-size="10.00">+</text>
<text text-anchor="start" x="181" y="-1337.5" font-family="Helvetica,sans-Serif" font-size="10.00">char fill(char c)</text>
<text text-anchor="start" x="168" y="-1322.5" font-family="Helvetica,sans-Serif" font-size="10.00">+</text>
<text text-anchor="start" x="181" y="-1322.5" font-family="Helvetica,sans-Serif" font-size="10.00">fmtflags flags() const</text>
<text text-anchor="start" x="168" y="-1307.5" font-family="Helvetica,sans-Serif" font-size="10.00">+</text>
<text text-anchor="start" x="181" y="-1307.5" font-family="Helvetica,sans-Serif" font-size="10.00">fmtflags flags(fmtflags fl)</text>
<text text-anchor="start" x="168" y="-1292.5" font-family="Helvetica,sans-Serif" font-size="10.00">+</text>
<text text-anchor="start" x="181" y="-1292.5" font-family="Helvetica,sans-Serif" font-size="10.00">int precision() const</text>
<text text-anchor="start" x="168" y="-1277.5" font-family="Helvetica,sans-Serif" font-size="10.00">+</text>
<text text-anchor="start" x="181" y="-1277.5" font-family="Helvetica,sans-Serif" font-size="10.00">int precision(unsigned</text>
<text text-anchor="start" x="181" y="-1266.5" font-family="Helvetica,sans-Serif" font-size="10.00"> int n)</text>
<text text-anchor="start" x="168" y="-1251.5" font-family="Helvetica,sans-Serif" font-size="10.00">+</text>
<text text-anchor="start" x="181" y="-1251.5" font-family="Helvetica,sans-Serif" font-size="10.00">fmtflags setf(fmtflags fl)</text>
<text text-anchor="start" x="168" y="-1236.5" font-family="Helvetica,sans-Serif" font-size="10.00">+</text>
<text text-anchor="start" x="181" y="-1236.5" font-family="Helvetica,sans-Serif" font-size="10.00">fmtflags setf(fmtflags</text>
<text text-anchor="start" x="181" y="-1225.5" font-family="Helvetica,sans-Serif" font-size="10.00"> fl, fmtflags mask)</text>
<text text-anchor="start" x="168" y="-1210.5" font-family="Helvetica,sans-Serif" font-size="10.00">+</text>
<text text-anchor="start" x="181" y="-1210.5" font-family="Helvetica,sans-Serif" font-size="10.00">void unsetf(fmtflags fl)</text>
<text text-anchor="start" x="168" y="-1195.5" font-family="Helvetica,sans-Serif" font-size="10.00">+</text>
<text text-anchor="start" x="181" y="-1195.5" font-family="Helvetica,sans-Serif" font-size="10.00">unsigned width()</text>
<text text-anchor="start" x="168" y="-1180.5" font-family="Helvetica,sans-Serif" font-size="10.00">+</text>
<text text-anchor="start" x="181" y="-1180.5" font-family="Helvetica,sans-Serif" font-size="10.00">unsigned width(unsigned n)</text>
<text text-anchor="start" x="168" y="-1165.5" font-family="Helvetica,sans-Serif" font-size="10.00">#</text>
<text text-anchor="start" x="181" y="-1165.5" font-family="Helvetica,sans-Serif" font-size="10.00">uint8_t flagsToBase()</text>
<polygon fill="#666666" stroke="#666666" points="164,-1668.5 164,-1668.5 321,-1668.5 321,-1668.5 164,-1668.5"/>
<polygon fill="#666666" stroke="#666666" points="164,-1377.5 164,-1377.5 179,-1377.5 179,-1377.5 164,-1377.5"/>
<polygon fill="#666666" stroke="#666666" points="179,-1377.5 179,-1377.5 321,-1377.5 321,-1377.5 179,-1377.5"/>
<polygon fill="none" stroke="#666666" points="163.5,-1159 163.5,-1686 320.5,-1686 320.5,-1159 163.5,-1159"/>
</a>
</g>
</g>
<!-- Node3&#45;&gt;Node2 -->
<g id="edge2_Node000002_Node000003" class="edge">
<title>Node3&#45;&gt;Node2</title>
<g id="a_edge2_Node000002_Node000003"><a xlink:title=" ">
<path fill="none" stroke="#63b8ff" d="M242,-1148.59C242,-1139.99 242,-1131.57 242,-1123.39"/>
<polygon fill="none" stroke="#63b8ff" points="238.5,-1148.75 242,-1158.75 245.5,-1148.75 238.5,-1148.75"/>
</a>
</g>
</g>
<!-- Node5 -->
<g id="Node000005" class="node">
<title>Node5</title>
<g id="a_Node000005"><a xlink:href="../../d9/d5a/classArduinoInStream.xhtml" target="_top" xlink:title="Input stream for Arduino Stream objects.">
<polygon fill="white" stroke="transparent" points="158,-168 0,-168 0,-11 158,-11 158,-168"/>
<text text-anchor="start" x="38" y="-155.5" font-family="Helvetica,sans-Serif" font-size="10.00">ArduinoInStream</text>
<text text-anchor="start" x="6.5" y="-140.5" font-family="Helvetica,sans-Serif" font-size="10.00">&#45;</text>
<text text-anchor="start" x="17" y="-140.5" font-family="Helvetica,sans-Serif" font-size="10.00">char * m_line</text>
<text text-anchor="start" x="6.5" y="-125.5" font-family="Helvetica,sans-Serif" font-size="10.00">&#45;</text>
<text text-anchor="start" x="17" y="-125.5" font-family="Helvetica,sans-Serif" font-size="10.00">size_t m_size</text>
<text text-anchor="start" x="6.5" y="-110.5" font-family="Helvetica,sans-Serif" font-size="10.00">&#45;</text>
<text text-anchor="start" x="17" y="-110.5" font-family="Helvetica,sans-Serif" font-size="10.00">Stream * m_hw</text>
<text text-anchor="start" x="4" y="-95.5" font-family="Helvetica,sans-Serif" font-size="10.00">+</text>
<text text-anchor="start" x="17" y="-95.5" font-family="Helvetica,sans-Serif" font-size="10.00">ArduinoInStream(Stream</text>
<text text-anchor="start" x="17" y="-84.5" font-family="Helvetica,sans-Serif" font-size="10.00"> &amp;hws, char *buf, size</text>
<text text-anchor="start" x="17" y="-73.5" font-family="Helvetica,sans-Serif" font-size="10.00">_t size)</text>
<text text-anchor="start" x="4" y="-58.5" font-family="Helvetica,sans-Serif" font-size="10.00">+</text>
<text text-anchor="start" x="17" y="-58.5" font-family="Helvetica,sans-Serif" font-size="10.00">void readline()</text>
<text text-anchor="start" x="4" y="-43.5" font-family="Helvetica,sans-Serif" font-size="10.00">#</text>
<text text-anchor="start" x="17" y="-43.5" font-family="Helvetica,sans-Serif" font-size="10.00">bool seekoff(off_type</text>
<text text-anchor="start" x="17" y="-32.5" font-family="Helvetica,sans-Serif" font-size="10.00"> off, seekdir way)</text>
<text text-anchor="start" x="4" y="-17.5" font-family="Helvetica,sans-Serif" font-size="10.00">#</text>
<text text-anchor="start" x="17" y="-17.5" font-family="Helvetica,sans-Serif" font-size="10.00">bool seekpos(pos_type pos)</text>
<polygon fill="#666666" stroke="#666666" points="0,-150.5 0,-150.5 158,-150.5 158,-150.5 0,-150.5"/>
<polygon fill="#666666" stroke="#666666" points="0,-105.5 0,-105.5 15,-105.5 15,-105.5 0,-105.5"/>
<polygon fill="#666666" stroke="#666666" points="15,-105.5 15,-105.5 158,-105.5 158,-105.5 15,-105.5"/>
<polygon fill="none" stroke="#666666" points="0,-11 0,-168 158,-168 158,-11 0,-11"/>
</a>
</g>
</g>
<!-- Node4&#45;&gt;Node5 -->
<g id="edge4_Node000004_Node000005" class="edge">
<title>Node4&#45;&gt;Node5</title>
<g id="a_edge4_Node000004_Node000005"><a xlink:title=" ">
<path fill="none" stroke="#63b8ff" d="M79,-212.06C79,-197.69 79,-182.61 79,-168.15"/>
<polygon fill="none" stroke="#63b8ff" points="75.5,-212.39 79,-222.39 82.5,-212.39 75.5,-212.39"/>
</a>
</g>
</g>
<!-- Node8 -->
<g id="Node000008" class="node">
<title>Node8</title>
<g id="a_Node000008"><a xlink:href="../../d7/df9/classfstream.xhtml" target="_top" xlink:title="file input/output stream.">
<polygon fill="white" stroke="transparent" points="438,-179 298,-179 298,0 438,0 438,-179"/>
<text text-anchor="start" x="348.5" y="-166.5" font-family="Helvetica,sans-Serif" font-size="10.00">fstream</text>
<text text-anchor="start" x="366" y="-151.5" font-family="Helvetica,sans-Serif" font-size="10.00"> </text>
<text text-anchor="start" x="302" y="-136.5" font-family="Helvetica,sans-Serif" font-size="10.00">+</text>
<text text-anchor="start" x="315" y="-136.5" font-family="Helvetica,sans-Serif" font-size="10.00">fstream()</text>
<text text-anchor="start" x="302" y="-121.5" font-family="Helvetica,sans-Serif" font-size="10.00">+</text>
<text text-anchor="start" x="315" y="-121.5" font-family="Helvetica,sans-Serif" font-size="10.00">fstream(const char</text>
<text text-anchor="start" x="315" y="-110.5" font-family="Helvetica,sans-Serif" font-size="10.00"> *path, openmode mode</text>
<text text-anchor="start" x="315" y="-99.5" font-family="Helvetica,sans-Serif" font-size="10.00">=in|out)</text>
<text text-anchor="start" x="302" y="-84.5" font-family="Helvetica,sans-Serif" font-size="10.00">+</text>
<text text-anchor="start" x="315" y="-84.5" font-family="Helvetica,sans-Serif" font-size="10.00">void clear(iostate</text>
<text text-anchor="start" x="315" y="-73.5" font-family="Helvetica,sans-Serif" font-size="10.00"> state=goodbit)</text>
<text text-anchor="start" x="302" y="-58.5" font-family="Helvetica,sans-Serif" font-size="10.00">+</text>
<text text-anchor="start" x="315" y="-58.5" font-family="Helvetica,sans-Serif" font-size="10.00">void close()</text>
<text text-anchor="start" x="302" y="-43.5" font-family="Helvetica,sans-Serif" font-size="10.00">+</text>
<text text-anchor="start" x="315" y="-43.5" font-family="Helvetica,sans-Serif" font-size="10.00">void open(const char</text>
<text text-anchor="start" x="315" y="-32.5" font-family="Helvetica,sans-Serif" font-size="10.00"> *path, openmode mode</text>
<text text-anchor="start" x="315" y="-21.5" font-family="Helvetica,sans-Serif" font-size="10.00">=in|out)</text>
<text text-anchor="start" x="302" y="-6.5" font-family="Helvetica,sans-Serif" font-size="10.00">+</text>
<text text-anchor="start" x="315" y="-6.5" font-family="Helvetica,sans-Serif" font-size="10.00">bool is_open()</text>
<polygon fill="#666666" stroke="#666666" points="298,-161.5 298,-161.5 438,-161.5 438,-161.5 298,-161.5"/>
<polygon fill="#666666" stroke="#666666" points="298,-146.5 298,-146.5 438,-146.5 438,-146.5 298,-146.5"/>
<polygon fill="none" stroke="#666666" points="298,0 298,-179 438,-179 438,0 298,0"/>
</a>
</g>
</g>
<!-- Node7&#45;&gt;Node8 -->
<g id="edge7_Node000007_Node000008" class="edge">
<title>Node7&#45;&gt;Node8</title>
<g id="a_edge7_Node000007_Node000008"><a xlink:title=" ">
<path fill="none" stroke="#63b8ff" d="M368,-253.24C368,-232.77 368,-205.61 368,-179.36"/>
<polygon fill="none" stroke="#63b8ff" points="364.5,-253.3 368,-263.3 371.5,-253.3 364.5,-253.3"/>
</a>
</g>
</g>
</g>
</svg>
