<?xml version="1.0" encoding="UTF-8" standalone="no"?>
<!DOCTYPE svg PUBLIC "-//W3C//DTD SVG 1.1//EN"
 "http://www.w3.org/Graphics/SVG/1.1/DTD/svg11.dtd">
<!-- Generated by graphviz version 2.43.0 (0)
 -->
<!-- Title: /mnt/d/Cours/10. CESI A2/Blocs/01 &#45; Systeme embarque/Livrables/Station_Meteo_Groupe_1 &#45; Copy/libs/SdFat/src/FatLib/FatFormatter.cpp Pages: 1 -->
<svg width="1367pt" height="896pt"
 viewBox="0.00 0.00 1367.00 896.00" xmlns="http://www.w3.org/2000/svg" xmlns:xlink="http://www.w3.org/1999/xlink">
<g id="graph0" class="graph" transform="scale(1 1) rotate(0) translate(4 892)">
<title>/mnt/d/Cours/10. CESI A2/Blocs/01 &#45; Systeme embarque/Livrables/Station_Meteo_Groupe_1 &#45; Copy/libs/SdFat/src/FatLib/FatFormatter.cpp</title>
<!-- Node1 -->
<g id="Node000001" class="node">
<title>Node1</title>
<g id="a_Node000001"><a xlink:title=" ">
<polygon fill="#999999" stroke="#666666" points="356.5,-888 177.5,-888 177.5,-825 356.5,-825 356.5,-888"/>
<text text-anchor="start" x="185.5" y="-876" font-family="Helvetica,sans-Serif" font-size="10.00">/mnt/d/Cours/10. CESI</text>
<text text-anchor="start" x="185.5" y="-865" font-family="Helvetica,sans-Serif" font-size="10.00"> A2/Blocs/01 &#45; Systeme</text>
<text text-anchor="start" x="185.5" y="-854" font-family="Helvetica,sans-Serif" font-size="10.00"> embarque/Livrables/Station</text>
<text text-anchor="start" x="185.5" y="-843" font-family="Helvetica,sans-Serif" font-size="10.00">_Meteo_Groupe_1 &#45; Copy/libs</text>
<text text-anchor="middle" x="267" y="-832" font-family="Helvetica,sans-Serif" font-size="10.00">/SdFat/src/FatLib/FatFormatter.cpp</text>
</a>
</g>
</g>
<!-- Node2 -->
<g id="Node000002" class="node">
<title>Node2</title>
<g id="a_Node000002"><a xlink:href="../../d0/d14/FatLib_8h.xhtml" target="_top" xlink:title=" ">
<polygon fill="white" stroke="#666666" points="294,-789 240,-789 240,-770 294,-770 294,-789"/>
<text text-anchor="middle" x="267" y="-777" font-family="Helvetica,sans-Serif" font-size="10.00">FatLib.h</text>
</a>
</g>
</g>
<!-- Node1&#45;&gt;Node2 -->
<g id="edge1_Node000001_Node000002" class="edge">
<title>Node1&#45;&gt;Node2</title>
<g id="a_edge1_Node000001_Node000002"><a xlink:title=" ">
<path fill="none" stroke="#63b8ff" d="M267,-824.99C267,-816.28 267,-807.03 267,-799.24"/>
<polygon fill="#63b8ff" stroke="#63b8ff" points="270.5,-799.1 267,-789.1 263.5,-799.1 270.5,-799.1"/>
</a>
</g>
</g>
<!-- Node3 -->
<g id="Node000003" class="node">
<title>Node3</title>
<g id="a_Node000003"><a xlink:href="../../db/dd5/FatFormatter_8h.xhtml" target="_top" xlink:title=" ">
<polygon fill="white" stroke="#666666" points="467.5,-569 380.5,-569 380.5,-550 467.5,-550 467.5,-569"/>
<text text-anchor="middle" x="424" y="-557" font-family="Helvetica,sans-Serif" font-size="10.00">FatFormatter.h</text>
</a>
</g>
</g>
<!-- Node2&#45;&gt;Node3 -->
<g id="edge2_Node000002_Node000003" class="edge">
<title>Node2&#45;&gt;Node3</title>
<g id="a_edge2_Node000002_Node000003"><a xlink:title=" ">
<path fill="none" stroke="#63b8ff" d="M273.15,-769.95C296.55,-737.47 380.22,-621.29 411.81,-577.43"/>
<polygon fill="#63b8ff" stroke="#63b8ff" points="414.71,-579.38 417.72,-569.22 409.03,-575.29 414.71,-579.38"/>
</a>
</g>
</g>
<!-- Node29 -->
<g id="Node000029" class="node">
<title>Node29</title>
<g id="a_Node000029"><a xlink:href="../../d2/d66/FatVolume_8h.xhtml" target="_top" xlink:title="FatVolume class.">
<polygon fill="white" stroke="#666666" points="579.5,-734 502.5,-734 502.5,-715 579.5,-715 579.5,-734"/>
<text text-anchor="middle" x="541" y="-722" font-family="Helvetica,sans-Serif" font-size="10.00">FatVolume.h</text>
</a>
</g>
</g>
<!-- Node2&#45;&gt;Node29 -->
<g id="edge40_Node000002_Node000029" class="edge">
<title>Node2&#45;&gt;Node29</title>
<g id="a_edge40_Node000002_Node000029"><a xlink:title=" ">
<path fill="none" stroke="#63b8ff" d="M294.27,-773.22C340.5,-764.28 434.82,-746.04 492.52,-734.88"/>
<polygon fill="#63b8ff" stroke="#63b8ff" points="493.34,-738.28 502.5,-732.95 492.01,-731.41 493.34,-738.28"/>
</a>
</g>
</g>
<!-- Node4 -->
<g id="Node000004" class="node">
<title>Node4</title>
<g id="a_Node000004"><a xlink:href="../../d8/d4c/FsBlockDevice_8h.xhtml" target="_top" xlink:title=" ">
<polygon fill="white" stroke="#666666" points="745,-514 593,-514 593,-495 745,-495 745,-514"/>
<text text-anchor="middle" x="669" y="-502" font-family="Helvetica,sans-Serif" font-size="10.00">../common/FsBlockDevice.h</text>
</a>
</g>
</g>
<!-- Node3&#45;&gt;Node4 -->
<g id="edge3_Node000003_Node000004" class="edge">
<title>Node3&#45;&gt;Node4</title>
<g id="a_edge3_Node000003_Node000004"><a xlink:title=" ">
<path fill="none" stroke="#63b8ff" d="M463.36,-549.98C505.74,-540.82 573.26,-526.21 619.28,-516.26"/>
<polygon fill="#63b8ff" stroke="#63b8ff" points="620.29,-519.62 629.33,-514.08 618.81,-512.78 620.29,-519.62"/>
</a>
</g>
</g>
<!-- Node9 -->
<g id="Node000009" class="node">
<title>Node9</title>
<g id="a_Node000009"><a xlink:href="../../d0/d1b/SysCall_8h.xhtml" target="_top" xlink:title="SysCall class.">
<polygon fill="white" stroke="#666666" points="929,-239 813,-239 813,-220 929,-220 929,-239"/>
<text text-anchor="middle" x="871" y="-227" font-family="Helvetica,sans-Serif" font-size="10.00">../common/SysCall.h</text>
</a>
</g>
</g>
<!-- Node3&#45;&gt;Node9 -->
<g id="edge39_Node000003_Node000009" class="edge">
<title>Node3&#45;&gt;Node9</title>
<g id="a_edge39_Node000003_Node000009"><a xlink:title=" ">
<path fill="none" stroke="#63b8ff" d="M424,-549.82C424,-531.48 424,-487.44 424,-450.5 424,-450.5 424,-450.5 424,-338.5 424,-309.04 420.31,-293.78 443,-275 503.06,-225.29 714.46,-247.17 792,-239 795.47,-238.63 799.02,-238.26 802.6,-237.88"/>
<polygon fill="#63b8ff" stroke="#63b8ff" points="803.19,-241.34 812.76,-236.8 802.45,-234.38 803.19,-241.34"/>
</a>
</g>
</g>
<!-- Node5 -->
<g id="Node000005" class="node">
<title>Node5</title>
<g id="a_Node000005"><a xlink:href="../../d5/d77/SdCard_8h.xhtml" target="_top" xlink:title="Top level include for SPI and SDIO cards.">
<polygon fill="white" stroke="#666666" points="716,-459 618,-459 618,-440 716,-440 716,-459"/>
<text text-anchor="middle" x="667" y="-447" font-family="Helvetica,sans-Serif" font-size="10.00">SdCard/SdCard.h</text>
</a>
</g>
</g>
<!-- Node4&#45;&gt;Node5 -->
<g id="edge4_Node000004_Node000005" class="edge">
<title>Node4&#45;&gt;Node5</title>
<g id="a_edge4_Node000004_Node000005"><a xlink:title=" ">
<path fill="none" stroke="#63b8ff" d="M668.67,-494.75C668.41,-487.8 668.03,-477.85 667.7,-469.13"/>
<polygon fill="#63b8ff" stroke="#63b8ff" points="671.2,-468.95 667.32,-459.09 664.2,-469.21 671.2,-468.95"/>
</a>
</g>
</g>
<!-- Node6 -->
<g id="Node000006" class="node">
<title>Node6</title>
<g id="a_Node000006"><a xlink:href="../../d5/dc1/SdSpiCard_8h.xhtml" target="_top" xlink:title="Classes for SPI access to SD/SDHC cards.">
<polygon fill="white" stroke="#666666" points="610.5,-404 535.5,-404 535.5,-385 610.5,-385 610.5,-404"/>
<text text-anchor="middle" x="573" y="-392" font-family="Helvetica,sans-Serif" font-size="10.00">SdSpiCard.h</text>
</a>
</g>
</g>
<!-- Node5&#45;&gt;Node6 -->
<g id="edge5_Node000005_Node000006" class="edge">
<title>Node5&#45;&gt;Node6</title>
<g id="a_edge5_Node000005_Node000006"><a xlink:title=" ">
<path fill="none" stroke="#63b8ff" d="M651.9,-439.98C637.18,-431.69 614.58,-418.94 597.33,-409.22"/>
<polygon fill="#63b8ff" stroke="#63b8ff" points="598.81,-406.03 588.38,-404.17 595.37,-412.13 598.81,-406.03"/>
</a>
</g>
</g>
<!-- Node28 -->
<g id="Node000028" class="node">
<title>Node28</title>
<g id="a_Node000028"><a xlink:href="../../d9/d0a/SdioCard_8h.xhtml" target="_top" xlink:title="Classes for SDIO cards.">
<polygon fill="white" stroke="#666666" points="701.5,-404 632.5,-404 632.5,-385 701.5,-385 701.5,-404"/>
<text text-anchor="middle" x="667" y="-392" font-family="Helvetica,sans-Serif" font-size="10.00">SdioCard.h</text>
</a>
</g>
</g>
<!-- Node5&#45;&gt;Node28 -->
<g id="edge36_Node000005_Node000028" class="edge">
<title>Node5&#45;&gt;Node28</title>
<g id="a_edge36_Node000005_Node000028"><a xlink:title=" ">
<path fill="none" stroke="#63b8ff" d="M667,-439.75C667,-432.8 667,-422.85 667,-414.13"/>
<polygon fill="#63b8ff" stroke="#63b8ff" points="670.5,-414.09 667,-404.09 663.5,-414.09 670.5,-414.09"/>
</a>
</g>
</g>
<!-- Node7 -->
<g id="Node000007" class="node">
<title>Node7</title>
<g id="a_Node000007"><a xlink:title=" ">
<polygon fill="#e0e0e0" stroke="#999999" points="376,-184 320,-184 320,-165 376,-165 376,-184"/>
<text text-anchor="middle" x="348" y="-172" font-family="Helvetica,sans-Serif" font-size="10.00">stddef.h</text>
</a>
</g>
</g>
<!-- Node6&#45;&gt;Node7 -->
<g id="edge6_Node000006_Node000007" class="edge">
<title>Node6&#45;&gt;Node7</title>
<g id="a_edge6_Node000006_Node000007"><a xlink:title=" ">
<path fill="none" stroke="#63b8ff" d="M556.41,-384.99C540.92,-376.71 517.49,-363.32 499,-349 437.79,-301.6 382.69,-226.49 359.55,-192.83"/>
<polygon fill="#63b8ff" stroke="#63b8ff" points="362.17,-190.45 353.66,-184.13 356.37,-194.37 362.17,-190.45"/>
</a>
</g>
</g>
<!-- Node8 -->
<g id="Node000008" class="node">
<title>Node8</title>
<g id="a_Node000008"><a xlink:href="../../df/d48/SdSpiDriver_8h.xhtml" target="_top" xlink:title="SpiDriver classes.">
<polygon fill="white" stroke="#666666" points="793.5,-349 654.5,-349 654.5,-330 793.5,-330 793.5,-349"/>
<text text-anchor="middle" x="724" y="-337" font-family="Helvetica,sans-Serif" font-size="10.00">../SpiDriver/SdSpiDriver.h</text>
</a>
</g>
</g>
<!-- Node6&#45;&gt;Node8 -->
<g id="edge7_Node000006_Node000008" class="edge">
<title>Node6&#45;&gt;Node8</title>
<g id="a_edge7_Node000006_Node000008"><a xlink:title=" ">
<path fill="none" stroke="#63b8ff" d="M597.26,-384.98C622.32,-376.19 661.63,-362.39 689.83,-352.49"/>
<polygon fill="#63b8ff" stroke="#63b8ff" points="691.02,-355.78 699.3,-349.17 688.7,-349.18 691.02,-355.78"/>
</a>
</g>
</g>
<!-- Node6&#45;&gt;Node9 -->
<g id="edge27_Node000006_Node000009" class="edge">
<title>Node6&#45;&gt;Node9</title>
<g id="a_edge27_Node000006_Node000009"><a xlink:title=" ">
<path fill="none" stroke="#63b8ff" d="M610.66,-387.06C673.87,-376.12 795.19,-354.58 803,-349 837.79,-324.14 857.3,-275.54 865.8,-248.96"/>
<polygon fill="#63b8ff" stroke="#63b8ff" points="869.25,-249.63 868.78,-239.04 862.55,-247.61 869.25,-249.63"/>
</a>
</g>
</g>
<!-- Node25 -->
<g id="Node000025" class="node">
<title>Node25</title>
<g id="a_Node000025"><a xlink:href="../../d4/da0/SdCardInfo_8h.xhtml" target="_top" xlink:title="Definitions for SD cards.">
<polygon fill="white" stroke="#666666" points="531.5,-294 452.5,-294 452.5,-275 531.5,-275 531.5,-294"/>
<text text-anchor="middle" x="492" y="-282" font-family="Helvetica,sans-Serif" font-size="10.00">SdCardInfo.h</text>
</a>
</g>
</g>
<!-- Node6&#45;&gt;Node25 -->
<g id="edge28_Node000006_Node000025" class="edge">
<title>Node6&#45;&gt;Node25</title>
<g id="a_edge28_Node000006_Node000025"><a xlink:title=" ">
<path fill="none" stroke="#63b8ff" d="M555.91,-384.99C542.19,-377.34 523.39,-364.86 512,-349 502.41,-335.65 497.31,-317.54 494.66,-304.08"/>
<polygon fill="#63b8ff" stroke="#63b8ff" points="498.09,-303.35 492.97,-294.07 491.18,-304.51 498.09,-303.35"/>
</a>
</g>
</g>
<!-- Node26 -->
<g id="Node000026" class="node">
<title>Node26</title>
<g id="a_Node000026"><a xlink:href="../../dd/d48/SdCardInterface_8h.xhtml" target="_top" xlink:title="Abstract interface for an SD card.">
<polygon fill="white" stroke="#666666" points="625,-349 521,-349 521,-330 625,-330 625,-349"/>
<text text-anchor="middle" x="573" y="-337" font-family="Helvetica,sans-Serif" font-size="10.00">SdCardInterface.h</text>
</a>
</g>
</g>
<!-- Node6&#45;&gt;Node26 -->
<g id="edge31_Node000006_Node000026" class="edge">
<title>Node6&#45;&gt;Node26</title>
<g id="a_edge31_Node000006_Node000026"><a xlink:title=" ">
<path fill="none" stroke="#63b8ff" d="M573,-384.75C573,-377.8 573,-367.85 573,-359.13"/>
<polygon fill="#63b8ff" stroke="#63b8ff" points="576.5,-359.09 573,-349.09 569.5,-359.09 576.5,-359.09"/>
</a>
</g>
</g>
<!-- Node8&#45;&gt;Node9 -->
<g id="edge8_Node000008_Node000009" class="edge">
<title>Node8&#45;&gt;Node9</title>
<g id="a_edge8_Node000008_Node000009"><a xlink:title=" ">
<path fill="none" stroke="#63b8ff" d="M735.78,-329.84C760.83,-311.44 819.64,-268.23 850.8,-245.34"/>
<polygon fill="#63b8ff" stroke="#63b8ff" points="853.18,-247.94 859.16,-239.2 849.03,-242.3 853.18,-247.94"/>
</a>
</g>
</g>
<!-- Node22 -->
<g id="Node000022" class="node">
<title>Node22</title>
<g id="a_Node000022"><a xlink:title=" ">
<polygon fill="#e0e0e0" stroke="#999999" points="766.5,-294 725.5,-294 725.5,-275 766.5,-275 766.5,-294"/>
<text text-anchor="middle" x="746" y="-282" font-family="Helvetica,sans-Serif" font-size="10.00">SPI.h</text>
</a>
</g>
</g>
<!-- Node8&#45;&gt;Node22 -->
<g id="edge24_Node000008_Node000022" class="edge">
<title>Node8&#45;&gt;Node22</title>
<g id="a_edge24_Node000008_Node000022"><a xlink:title=" ">
<path fill="none" stroke="#63b8ff" d="M727.63,-329.75C730.58,-322.65 734.83,-312.4 738.51,-303.56"/>
<polygon fill="#63b8ff" stroke="#63b8ff" points="741.83,-304.67 742.43,-294.09 735.37,-301.98 741.83,-304.67"/>
</a>
</g>
</g>
<!-- Node23 -->
<g id="Node000023" class="node">
<title>Node23</title>
<g id="a_Node000023"><a xlink:href="../../da/de9/SdSpiArduinoDriver_8h.xhtml" target="_top" xlink:title="SpiDriver classes for Arduino compatible systems.">
<polygon fill="white" stroke="#666666" points="707.5,-294 588.5,-294 588.5,-275 707.5,-275 707.5,-294"/>
<text text-anchor="middle" x="648" y="-282" font-family="Helvetica,sans-Serif" font-size="10.00">SdSpiArduinoDriver.h</text>
</a>
</g>
</g>
<!-- Node8&#45;&gt;Node23 -->
<g id="edge25_Node000008_Node000023" class="edge">
<title>Node8&#45;&gt;Node23</title>
<g id="a_edge25_Node000008_Node000023"><a xlink:title=" ">
<path fill="none" stroke="#63b8ff" d="M711.79,-329.98C700.22,-321.92 682.62,-309.65 668.84,-300.03"/>
<polygon fill="#63b8ff" stroke="#63b8ff" points="670.64,-297.02 660.43,-294.17 666.63,-302.76 670.64,-297.02"/>
</a>
</g>
</g>
<!-- Node9&#45;&gt;Node7 -->
<g id="edge9_Node000009_Node000007" class="edge">
<title>Node9&#45;&gt;Node7</title>
<g id="a_edge9_Node000009_Node000007"><a xlink:title=" ">
<path fill="none" stroke="#63b8ff" d="M812.76,-222.19C805.77,-221.44 798.72,-220.7 792,-220 641.87,-204.4 463.08,-186.77 386.21,-179.24"/>
<polygon fill="#63b8ff" stroke="#63b8ff" points="386.35,-175.73 376.06,-178.24 385.67,-182.7 386.35,-175.73"/>
</a>
</g>
</g>
<!-- Node10 -->
<g id="Node000010" class="node">
<title>Node10</title>
<g id="a_Node000010"><a xlink:title=" ">
<polygon fill="#e0e0e0" stroke="#999999" points="691.5,-129 638.5,-129 638.5,-110 691.5,-110 691.5,-129"/>
<text text-anchor="middle" x="665" y="-117" font-family="Helvetica,sans-Serif" font-size="10.00">stdint.h</text>
</a>
</g>
</g>
<!-- Node9&#45;&gt;Node10 -->
<g id="edge10_Node000009_Node000010" class="edge">
<title>Node9&#45;&gt;Node10</title>
<g id="a_edge10_Node000009_Node000010"><a xlink:title=" ">
<path fill="none" stroke="#63b8ff" d="M812.62,-221.06C764.91,-213.84 702.44,-201.41 684,-184 671.85,-172.53 667.37,-153.64 665.77,-139.45"/>
<polygon fill="#63b8ff" stroke="#63b8ff" points="669.25,-139 665.01,-129.29 662.27,-139.53 669.25,-139"/>
</a>
</g>
</g>
<!-- Node11 -->
<g id="Node000011" class="node">
<title>Node11</title>
<g id="a_Node000011"><a xlink:href="../../d4/d1f/SdFatConfig_8h.xhtml" target="_top" xlink:title="configuration definitions">
<polygon fill="white" stroke="#666666" points="917,-184 825,-184 825,-165 917,-165 917,-184"/>
<text text-anchor="middle" x="871" y="-172" font-family="Helvetica,sans-Serif" font-size="10.00">../SdFatConfig.h</text>
</a>
</g>
</g>
<!-- Node9&#45;&gt;Node11 -->
<g id="edge11_Node000009_Node000011" class="edge">
<title>Node9&#45;&gt;Node11</title>
<g id="a_edge11_Node000009_Node000011"><a xlink:title=" ">
<path fill="none" stroke="#63b8ff" d="M871,-219.75C871,-212.8 871,-202.85 871,-194.13"/>
<polygon fill="#63b8ff" stroke="#63b8ff" points="874.5,-194.09 871,-184.09 867.5,-194.09 874.5,-194.09"/>
</a>
</g>
</g>
<!-- Node11&#45;&gt;Node10 -->
<g id="edge12_Node000011_Node000010" class="edge">
<title>Node11&#45;&gt;Node10</title>
<g id="a_edge12_Node000011_Node000010"><a xlink:title=" ">
<path fill="none" stroke="#63b8ff" d="M837.9,-164.98C800.63,-155.4 740.24,-139.86 701.59,-129.91"/>
<polygon fill="#63b8ff" stroke="#63b8ff" points="702.34,-126.49 691.78,-127.39 700.59,-133.27 702.34,-126.49"/>
</a>
</g>
</g>
<!-- Node12 -->
<g id="Node000012" class="node">
<title>Node12</title>
<g id="a_Node000012"><a xlink:href="../../de/df0/Arduino_8h.xhtml" target="_top" xlink:title=" ">
<polygon fill="white" stroke="#666666" points="902.5,-129 839.5,-129 839.5,-110 902.5,-110 902.5,-129"/>
<text text-anchor="middle" x="871" y="-117" font-family="Helvetica,sans-Serif" font-size="10.00">Arduino.h</text>
</a>
</g>
</g>
<!-- Node11&#45;&gt;Node12 -->
<g id="edge13_Node000011_Node000012" class="edge">
<title>Node11&#45;&gt;Node12</title>
<g id="a_edge13_Node000011_Node000012"><a xlink:title=" ">
<path fill="none" stroke="#63b8ff" d="M871,-164.75C871,-157.8 871,-147.85 871,-139.13"/>
<polygon fill="#63b8ff" stroke="#63b8ff" points="874.5,-139.09 871,-129.09 867.5,-139.09 874.5,-139.09"/>
</a>
</g>
</g>
<!-- Node13 -->
<g id="Node000013" class="node">
<title>Node13</title>
<g id="a_Node000013"><a xlink:title=" ">
<polygon fill="#e0e0e0" stroke="#999999" points="985.5,-74 932.5,-74 932.5,-55 985.5,-55 985.5,-74"/>
<text text-anchor="middle" x="959" y="-62" font-family="Helvetica,sans-Serif" font-size="10.00">stdlib.h</text>
</a>
</g>
</g>
<!-- Node12&#45;&gt;Node13 -->
<g id="edge14_Node000012_Node000013" class="edge">
<title>Node12&#45;&gt;Node13</title>
<g id="a_edge14_Node000012_Node000013"><a xlink:title=" ">
<path fill="none" stroke="#63b8ff" d="M885.14,-109.98C898.79,-101.77 919.69,-89.18 935.78,-79.49"/>
<polygon fill="#63b8ff" stroke="#63b8ff" points="937.84,-82.33 944.6,-74.17 934.23,-76.33 937.84,-82.33"/>
</a>
</g>
</g>
<!-- Node14 -->
<g id="Node000014" class="node">
<title>Node14</title>
<g id="a_Node000014"><a xlink:title=" ">
<polygon fill="#e0e0e0" stroke="#999999" points="1066,-74 1004,-74 1004,-55 1066,-55 1066,-74"/>
<text text-anchor="middle" x="1035" y="-62" font-family="Helvetica,sans-Serif" font-size="10.00">stdbool.h</text>
</a>
</g>
</g>
<!-- Node12&#45;&gt;Node14 -->
<g id="edge15_Node000012_Node000014" class="edge">
<title>Node12&#45;&gt;Node14</title>
<g id="a_edge15_Node000012_Node000014"><a xlink:title=" ">
<path fill="none" stroke="#63b8ff" d="M897.35,-109.98C924.76,-101.13 967.89,-87.19 998.56,-77.28"/>
<polygon fill="#63b8ff" stroke="#63b8ff" points="1000,-80.49 1008.44,-74.08 997.85,-73.83 1000,-80.49"/>
</a>
</g>
</g>
<!-- Node15 -->
<g id="Node000015" class="node">
<title>Node15</title>
<g id="a_Node000015"><a xlink:title=" ">
<polygon fill="#e0e0e0" stroke="#999999" points="1280.5,-74 1227.5,-74 1227.5,-55 1280.5,-55 1280.5,-74"/>
<text text-anchor="middle" x="1254" y="-62" font-family="Helvetica,sans-Serif" font-size="10.00">string.h</text>
</a>
</g>
</g>
<!-- Node12&#45;&gt;Node15 -->
<g id="edge16_Node000012_Node000015" class="edge">
<title>Node12&#45;&gt;Node15</title>
<g id="a_edge16_Node000012_Node000015"><a xlink:title=" ">
<path fill="none" stroke="#63b8ff" d="M902.67,-114.12C973.05,-104.38 1142.14,-80.98 1217.12,-70.6"/>
<polygon fill="#63b8ff" stroke="#63b8ff" points="1218.05,-74.01 1227.48,-69.17 1217.09,-67.07 1218.05,-74.01"/>
</a>
</g>
</g>
<!-- Node16 -->
<g id="Node000016" class="node">
<title>Node16</title>
<g id="a_Node000016"><a xlink:title=" ">
<polygon fill="#e0e0e0" stroke="#999999" points="336.5,-74 285.5,-74 285.5,-55 336.5,-55 336.5,-74"/>
<text text-anchor="middle" x="311" y="-62" font-family="Helvetica,sans-Serif" font-size="10.00">math.h</text>
</a>
</g>
</g>
<!-- Node12&#45;&gt;Node16 -->
<g id="edge17_Node000012_Node000016" class="edge">
<title>Node12&#45;&gt;Node16</title>
<g id="a_edge17_Node000012_Node000016"><a xlink:title=" ">
<path fill="none" stroke="#63b8ff" d="M839.29,-115.5C742.19,-106.31 449.36,-78.6 346.89,-68.9"/>
<polygon fill="#63b8ff" stroke="#63b8ff" points="347.02,-65.39 336.74,-67.94 346.36,-72.36 347.02,-65.39"/>
</a>
</g>
</g>
<!-- Node17 -->
<g id="Node000017" class="node">
<title>Node17</title>
<g id="a_Node000017"><a xlink:title=" ">
<polygon fill="#e0e0e0" stroke="#999999" points="1029.5,-19 934.5,-19 934.5,0 1029.5,0 1029.5,-19"/>
<text text-anchor="middle" x="982" y="-7" font-family="Helvetica,sans-Serif" font-size="10.00">avr/pgmspace.h</text>
</a>
</g>
</g>
<!-- Node12&#45;&gt;Node17 -->
<g id="edge18_Node000012_Node000017" class="edge">
<title>Node12&#45;&gt;Node17</title>
<g id="a_edge18_Node000012_Node000017"><a xlink:title=" ">
<path fill="none" stroke="#63b8ff" d="M902.84,-116.3C954.69,-111.97 1053.74,-100.4 1075,-74 1093.5,-51.02 1057.89,-33.07 1025.52,-22.2"/>
<polygon fill="#63b8ff" stroke="#63b8ff" points="1026.23,-18.76 1015.64,-19.06 1024.11,-25.43 1026.23,-18.76"/>
</a>
</g>
</g>
<!-- Node18 -->
<g id="Node000018" class="node">
<title>Node18</title>
<g id="a_Node000018"><a xlink:title=" ">
<polygon fill="#e0e0e0" stroke="#999999" points="630.5,-74 577.5,-74 577.5,-55 630.5,-55 630.5,-74"/>
<text text-anchor="middle" x="604" y="-62" font-family="Helvetica,sans-Serif" font-size="10.00">avr/io.h</text>
</a>
</g>
</g>
<!-- Node12&#45;&gt;Node18 -->
<g id="edge19_Node000012_Node000018" class="edge">
<title>Node12&#45;&gt;Node18</title>
<g id="a_edge19_Node000012_Node000018"><a xlink:title=" ">
<path fill="none" stroke="#63b8ff" d="M839.15,-112.8C796.36,-105.04 717.68,-90.45 640.59,-74.05"/>
<polygon fill="#63b8ff" stroke="#63b8ff" points="641.22,-70.61 630.71,-71.94 639.75,-77.45 641.22,-70.61"/>
</a>
</g>
</g>
<!-- Node19 -->
<g id="Node000019" class="node">
<title>Node19</title>
<g id="a_Node000019"><a xlink:title=" ">
<polygon fill="#e0e0e0" stroke="#999999" points="735,-74 649,-74 649,-55 735,-55 735,-74"/>
<text text-anchor="middle" x="692" y="-62" font-family="Helvetica,sans-Serif" font-size="10.00">avr/interrupt.h</text>
</a>
</g>
</g>
<!-- Node12&#45;&gt;Node19 -->
<g id="edge20_Node000012_Node000019" class="edge">
<title>Node12&#45;&gt;Node19</title>
<g id="a_edge20_Node000012_Node000019"><a xlink:title=" ">
<path fill="none" stroke="#63b8ff" d="M842.24,-109.98C812.06,-101.05 764.43,-86.94 730.9,-77.02"/>
<polygon fill="#63b8ff" stroke="#63b8ff" points="731.57,-73.57 720.98,-74.08 729.58,-80.28 731.57,-73.57"/>
</a>
</g>
</g>
<!-- Node20 -->
<g id="Node000020" class="node">
<title>Node20</title>
<g id="a_Node000020"><a xlink:href="../../d8/da4/binary_8h.xhtml" target="_top" xlink:title=" ">
<polygon fill="white" stroke="#666666" points="808.5,-74 753.5,-74 753.5,-55 808.5,-55 808.5,-74"/>
<text text-anchor="middle" x="781" y="-62" font-family="Helvetica,sans-Serif" font-size="10.00">binary.h</text>
</a>
</g>
</g>
<!-- Node12&#45;&gt;Node20 -->
<g id="edge21_Node000012_Node000020" class="edge">
<title>Node12&#45;&gt;Node20</title>
<g id="a_edge21_Node000012_Node000020"><a xlink:title=" ">
<path fill="none" stroke="#63b8ff" d="M856.54,-109.98C842.58,-101.77 821.21,-89.18 804.75,-79.49"/>
<polygon fill="#63b8ff" stroke="#63b8ff" points="806.12,-76.23 795.72,-74.17 802.56,-82.26 806.12,-76.23"/>
</a>
</g>
</g>
<!-- Node21 -->
<g id="Node000021" class="node">
<title>Node21</title>
<g id="a_Node000021"><a xlink:href="../../d1/dce/pins__arduino_8h.xhtml" target="_top" xlink:title=" ">
<polygon fill="white" stroke="#666666" points="915,-74 827,-74 827,-55 915,-55 915,-74"/>
<text text-anchor="middle" x="871" y="-62" font-family="Helvetica,sans-Serif" font-size="10.00">pins_arduino.h</text>
</a>
</g>
</g>
<!-- Node12&#45;&gt;Node21 -->
<g id="edge22_Node000012_Node000021" class="edge">
<title>Node12&#45;&gt;Node21</title>
<g id="a_edge22_Node000012_Node000021"><a xlink:title=" ">
<path fill="none" stroke="#63b8ff" d="M871,-109.75C871,-102.8 871,-92.85 871,-84.13"/>
<polygon fill="#63b8ff" stroke="#63b8ff" points="874.5,-84.09 871,-74.09 867.5,-84.09 874.5,-84.09"/>
</a>
</g>
</g>
<!-- Node21&#45;&gt;Node17 -->
<g id="edge23_Node000021_Node000017" class="edge">
<title>Node21&#45;&gt;Node17</title>
<g id="a_edge23_Node000021_Node000017"><a xlink:title=" ">
<path fill="none" stroke="#63b8ff" d="M888.83,-54.98C906.61,-46.5 934.15,-33.35 954.68,-23.54"/>
<polygon fill="#63b8ff" stroke="#63b8ff" points="956.33,-26.64 963.84,-19.17 953.31,-20.32 956.33,-26.64"/>
</a>
</g>
</g>
<!-- Node24 -->
<g id="Node000024" class="node">
<title>Node24</title>
<g id="a_Node000024"><a xlink:href="../../db/d6a/SdSpiLibDriver_8h.xhtml" target="_top" xlink:title="Class using only simple SPI library functions.">
<polygon fill="white" stroke="#666666" points="783,-239 687,-239 687,-220 783,-220 783,-239"/>
<text text-anchor="middle" x="735" y="-227" font-family="Helvetica,sans-Serif" font-size="10.00">SdSpiLibDriver.h</text>
</a>
</g>
</g>
<!-- Node23&#45;&gt;Node24 -->
<g id="edge26_Node000023_Node000024" class="edge">
<title>Node23&#45;&gt;Node24</title>
<g id="a_edge26_Node000023_Node000024"><a xlink:title=" ">
<path fill="none" stroke="#63b8ff" d="M661.98,-274.98C675.47,-266.77 696.13,-254.18 712.04,-244.49"/>
<polygon fill="#63b8ff" stroke="#63b8ff" points="714.05,-247.36 720.77,-239.17 710.41,-241.38 714.05,-247.36"/>
</a>
</g>
</g>
<!-- Node25&#45;&gt;Node9 -->
<g id="edge30_Node000025_Node000009" class="edge">
<title>Node25&#45;&gt;Node9</title>
<g id="a_edge30_Node000025_Node000009"><a xlink:title=" ">
<path fill="none" stroke="#63b8ff" d="M531.84,-277.93C596.14,-268.94 723.55,-251.12 802.59,-240.07"/>
<polygon fill="#63b8ff" stroke="#63b8ff" points="803.51,-243.47 812.93,-238.62 802.54,-236.54 803.51,-243.47"/>
</a>
</g>
</g>
<!-- Node25&#45;&gt;Node10 -->
<g id="edge29_Node000025_Node000010" class="edge">
<title>Node25&#45;&gt;Node10</title>
<g id="a_edge29_Node000025_Node000010"><a xlink:title=" ">
<path fill="none" stroke="#63b8ff" d="M483.04,-274.91C471.05,-262.33 452.56,-238.43 464,-220 499.97,-162.06 580.81,-136.83 628.28,-126.67"/>
<polygon fill="#63b8ff" stroke="#63b8ff" points="629.05,-130.08 638.16,-124.67 627.67,-123.22 629.05,-130.08"/>
</a>
</g>
</g>
<!-- Node26&#45;&gt;Node25 -->
<g id="edge35_Node000026_Node000025" class="edge">
<title>Node26&#45;&gt;Node25</title>
<g id="a_edge35_Node000026_Node000025"><a xlink:title=" ">
<path fill="none" stroke="#63b8ff" d="M559.99,-329.98C547.54,-321.84 528.54,-309.41 513.79,-299.76"/>
<polygon fill="#63b8ff" stroke="#63b8ff" points="515.54,-296.72 505.25,-294.17 511.7,-302.57 515.54,-296.72"/>
</a>
</g>
</g>
<!-- Node27 -->
<g id="Node000027" class="node">
<title>Node27</title>
<g id="a_Node000027"><a xlink:href="../../dc/de5/FsBlockDeviceInterface_8h.xhtml" target="_top" xlink:title="FsBlockDeviceInterface include file.">
<polygon fill="white" stroke="#666666" points="669,-239 473,-239 473,-220 669,-220 669,-239"/>
<text text-anchor="middle" x="571" y="-227" font-family="Helvetica,sans-Serif" font-size="10.00">../common/FsBlockDeviceInterface.h</text>
</a>
</g>
</g>
<!-- Node26&#45;&gt;Node27 -->
<g id="edge32_Node000026_Node000027" class="edge">
<title>Node26&#45;&gt;Node27</title>
<g id="a_edge32_Node000026_Node000027"><a xlink:title=" ">
<path fill="none" stroke="#63b8ff" d="M572.84,-329.66C572.51,-312.17 571.78,-272.8 571.35,-249.27"/>
<polygon fill="#63b8ff" stroke="#63b8ff" points="574.84,-249.09 571.16,-239.16 567.85,-249.22 574.84,-249.09"/>
</a>
</g>
</g>
<!-- Node27&#45;&gt;Node7 -->
<g id="edge33_Node000027_Node000007" class="edge">
<title>Node27&#45;&gt;Node7</title>
<g id="a_edge33_Node000027_Node000007"><a xlink:title=" ">
<path fill="none" stroke="#63b8ff" d="M535.17,-219.98C494.34,-210.28 427.87,-194.48 386.11,-184.56"/>
<polygon fill="#63b8ff" stroke="#63b8ff" points="386.85,-181.14 376.31,-182.23 385.23,-187.95 386.85,-181.14"/>
</a>
</g>
</g>
<!-- Node27&#45;&gt;Node10 -->
<g id="edge34_Node000027_Node000010" class="edge">
<title>Node27&#45;&gt;Node10</title>
<g id="a_edge34_Node000027_Node000010"><a xlink:title=" ">
<path fill="none" stroke="#63b8ff" d="M578.69,-219.66C594.47,-201.54 630.7,-159.91 650.84,-136.77"/>
<polygon fill="#63b8ff" stroke="#63b8ff" points="653.54,-139 657.46,-129.16 648.26,-134.4 653.54,-139"/>
</a>
</g>
</g>
<!-- Node28&#45;&gt;Node9 -->
<g id="edge37_Node000028_Node000009" class="edge">
<title>Node28&#45;&gt;Node9</title>
<g id="a_edge37_Node000028_Node000009"><a xlink:title=" ">
<path fill="none" stroke="#63b8ff" d="M701.82,-389.33C748.34,-383.04 827.23,-369.63 847,-349 872.94,-321.94 874.37,-274.97 872.86,-249.04"/>
<polygon fill="#63b8ff" stroke="#63b8ff" points="876.35,-248.73 872.07,-239.04 869.37,-249.28 876.35,-248.73"/>
</a>
</g>
</g>
<!-- Node28&#45;&gt;Node26 -->
<g id="edge38_Node000028_Node000026" class="edge">
<title>Node28&#45;&gt;Node26</title>
<g id="a_edge38_Node000028_Node000026"><a xlink:title=" ">
<path fill="none" stroke="#63b8ff" d="M651.9,-384.98C637.18,-376.69 614.58,-363.94 597.33,-354.22"/>
<polygon fill="#63b8ff" stroke="#63b8ff" points="598.81,-351.03 588.38,-349.17 595.37,-357.13 598.81,-351.03"/>
</a>
</g>
</g>
<!-- Node30 -->
<g id="Node000030" class="node">
<title>Node30</title>
<g id="a_Node000030"><a xlink:href="../../de/dba/FatFile_8h.xhtml" target="_top" xlink:title="FatFile class.">
<polygon fill="white" stroke="#666666" points="873.5,-679 816.5,-679 816.5,-660 873.5,-660 873.5,-679"/>
<text text-anchor="middle" x="845" y="-667" font-family="Helvetica,sans-Serif" font-size="10.00">FatFile.h</text>
</a>
</g>
</g>
<!-- Node29&#45;&gt;Node30 -->
<g id="edge41_Node000029_Node000030" class="edge">
<title>Node29&#45;&gt;Node30</title>
<g id="a_edge41_Node000029_Node000030"><a xlink:title=" ">
<path fill="none" stroke="#63b8ff" d="M579.5,-716.79C637.83,-706.62 747.97,-687.42 806.37,-677.23"/>
<polygon fill="#63b8ff" stroke="#63b8ff" points="807.06,-680.67 816.31,-675.5 805.86,-673.77 807.06,-680.67"/>
</a>
</g>
</g>
<!-- Node30&#45;&gt;Node7 -->
<g id="edge43_Node000030_Node000007" class="edge">
<title>Node30&#45;&gt;Node7</title>
<g id="a_edge43_Node000030_Node000007"><a xlink:title=" ">
<path fill="none" stroke="#63b8ff" d="M816.19,-666.17C700,-656.37 272,-616.49 272,-560.5 272,-560.5 272,-560.5 272,-338.5 272,-280.18 312.46,-220.19 334.34,-192.01"/>
<polygon fill="#63b8ff" stroke="#63b8ff" points="337.21,-194.02 340.71,-184.03 331.74,-189.66 337.21,-194.02"/>
</a>
</g>
</g>
<!-- Node30&#45;&gt;Node15 -->
<g id="edge44_Node000030_Node000015" class="edge">
<title>Node30&#45;&gt;Node15</title>
<g id="a_edge44_Node000030_Node000015"><a xlink:title=" ">
<path fill="none" stroke="#63b8ff" d="M873.74,-668.64C981.98,-668.42 1359,-660.46 1359,-560.5 1359,-560.5 1359,-560.5 1359,-173.5 1359,-129.18 1312.99,-96.21 1281.88,-78.99"/>
<polygon fill="#63b8ff" stroke="#63b8ff" points="1283.25,-75.75 1272.77,-74.15 1279.96,-81.93 1283.25,-75.75"/>
</a>
</g>
</g>
<!-- Node31 -->
<g id="Node000031" class="node">
<title>Node31</title>
<g id="a_Node000031"><a xlink:title=" ">
<polygon fill="#e0e0e0" stroke="#999999" points="722.5,-624 669.5,-624 669.5,-605 722.5,-605 722.5,-624"/>
<text text-anchor="middle" x="696" y="-612" font-family="Helvetica,sans-Serif" font-size="10.00">limits.h</text>
</a>
</g>
</g>
<!-- Node30&#45;&gt;Node31 -->
<g id="edge42_Node000030_Node000031" class="edge">
<title>Node30&#45;&gt;Node31</title>
<g id="a_edge42_Node000030_Node000031"><a xlink:title=" ">
<path fill="none" stroke="#63b8ff" d="M821.06,-659.98C796.44,-651.23 757.88,-637.51 730.08,-627.62"/>
<polygon fill="#63b8ff" stroke="#63b8ff" points="730.97,-624.22 720.38,-624.17 728.62,-630.82 730.97,-624.22"/>
</a>
</g>
</g>
<!-- Node32 -->
<g id="Node000032" class="node">
<title>Node32</title>
<g id="a_Node000032"><a xlink:href="../../d3/d4d/FmtNumber_8h.xhtml" target="_top" xlink:title=" ">
<polygon fill="white" stroke="#666666" points="138,-239 0,-239 0,-220 138,-220 138,-239"/>
<text text-anchor="middle" x="69" y="-227" font-family="Helvetica,sans-Serif" font-size="10.00">../common/FmtNumber.h</text>
</a>
</g>
</g>
<!-- Node30&#45;&gt;Node32 -->
<g id="edge45_Node000030_Node000032" class="edge">
<title>Node30&#45;&gt;Node32</title>
<g id="a_edge45_Node000030_Node000032"><a xlink:title=" ">
<path fill="none" stroke="#63b8ff" d="M816.43,-667.82C713.91,-665.13 365.03,-653.95 258,-624 197.99,-607.21 133,-622.81 133,-560.5 133,-560.5 133,-560.5 133,-338.5 133,-301.53 104.9,-266.14 85.94,-246.46"/>
<polygon fill="#63b8ff" stroke="#63b8ff" points="88.27,-243.84 78.72,-239.26 83.33,-248.8 88.27,-243.84"/>
</a>
</g>
</g>
<!-- Node33 -->
<g id="Node000033" class="node">
<title>Node33</title>
<g id="a_Node000033"><a xlink:href="../../d9/d33/FsApiConstants_8h.xhtml" target="_top" xlink:title=" ">
<polygon fill="white" stroke="#666666" points="1093,-514 937,-514 937,-495 1093,-495 1093,-514"/>
<text text-anchor="middle" x="1015" y="-502" font-family="Helvetica,sans-Serif" font-size="10.00">../common/FsApiConstants.h</text>
</a>
</g>
</g>
<!-- Node30&#45;&gt;Node33 -->
<g id="edge49_Node000030_Node000033" class="edge">
<title>Node30&#45;&gt;Node33</title>
<g id="a_edge49_Node000030_Node000033"><a xlink:title=" ">
<path fill="none" stroke="#63b8ff" d="M864.63,-659.97C881.27,-652.14 905.22,-639.43 923,-624 958.26,-593.41 989.24,-547.58 1004.65,-522.83"/>
<polygon fill="#63b8ff" stroke="#63b8ff" points="1007.71,-524.54 1009.94,-514.18 1001.74,-520.89 1007.71,-524.54"/>
</a>
</g>
</g>
<!-- Node34 -->
<g id="Node000034" class="node">
<title>Node34</title>
<g id="a_Node000034"><a xlink:href="../../d9/d5f/FsDateTime_8h.xhtml" target="_top" xlink:title=" ">
<polygon fill="white" stroke="#666666" points="1191,-294 1051,-294 1051,-275 1191,-275 1191,-294"/>
<text text-anchor="middle" x="1121" y="-282" font-family="Helvetica,sans-Serif" font-size="10.00">../common/FsDateTime.h</text>
</a>
</g>
</g>
<!-- Node30&#45;&gt;Node34 -->
<g id="edge51_Node000030_Node000034" class="edge">
<title>Node30&#45;&gt;Node34</title>
<g id="a_edge51_Node000030_Node000034"><a xlink:title=" ">
<path fill="none" stroke="#63b8ff" d="M873.76,-663.58C944.45,-650.68 1121,-613.18 1121,-560.5 1121,-560.5 1121,-560.5 1121,-393.5 1121,-362.19 1121,-325.77 1121,-304.23"/>
<polygon fill="#63b8ff" stroke="#63b8ff" points="1124.5,-304.18 1121,-294.18 1117.5,-304.18 1124.5,-304.18"/>
</a>
</g>
</g>
<!-- Node36 -->
<g id="Node000036" class="node">
<title>Node36</title>
<g id="a_Node000036"><a xlink:href="../../de/d72/FsName_8h.xhtml" target="_top" xlink:title="FsName class.">
<polygon fill="white" stroke="#666666" points="1330.5,-294 1209.5,-294 1209.5,-275 1330.5,-275 1330.5,-294"/>
<text text-anchor="middle" x="1270" y="-282" font-family="Helvetica,sans-Serif" font-size="10.00">../common/FsName.h</text>
</a>
</g>
</g>
<!-- Node30&#45;&gt;Node36 -->
<g id="edge56_Node000030_Node000036" class="edge">
<title>Node30&#45;&gt;Node36</title>
<g id="a_edge56_Node000030_Node000036"><a xlink:title=" ">
<path fill="none" stroke="#63b8ff" d="M873.73,-666.34C960.66,-659.01 1215,-631.52 1215,-560.5 1215,-560.5 1215,-560.5 1215,-393.5 1215,-357.94 1238.97,-322.27 1255.26,-302.12"/>
<polygon fill="#63b8ff" stroke="#63b8ff" points="1258.12,-304.16 1261.88,-294.25 1252.77,-299.65 1258.12,-304.16"/>
</a>
</g>
</g>
<!-- Node37 -->
<g id="Node000037" class="node">
<title>Node37</title>
<g id="a_Node000037"><a xlink:href="../../d9/d8c/FatPartition_8h.xhtml" target="_top" xlink:title="FatPartition class.">
<polygon fill="white" stroke="#666666" points="821,-624 741,-624 741,-605 821,-605 821,-624"/>
<text text-anchor="middle" x="781" y="-612" font-family="Helvetica,sans-Serif" font-size="10.00">FatPartition.h</text>
</a>
</g>
</g>
<!-- Node30&#45;&gt;Node37 -->
<g id="edge59_Node000030_Node000037" class="edge">
<title>Node30&#45;&gt;Node37</title>
<g id="a_edge59_Node000030_Node000037"><a xlink:title=" ">
<path fill="none" stroke="#63b8ff" d="M834.72,-659.98C825.16,-652.07 810.72,-640.11 799.22,-630.58"/>
<polygon fill="#63b8ff" stroke="#63b8ff" points="801.4,-627.85 791.47,-624.17 796.94,-633.24 801.4,-627.85"/>
</a>
</g>
</g>
<!-- Node40 -->
<g id="Node000040" class="node">
<title>Node40</title>
<g id="a_Node000040"><a xlink:href="../../d8/db8/ArduinoFiles_8h.xhtml" target="_top" xlink:title=" ">
<polygon fill="white" stroke="#666666" points="1039,-459 899,-459 899,-440 1039,-440 1039,-459"/>
<text text-anchor="middle" x="969" y="-447" font-family="Helvetica,sans-Serif" font-size="10.00">../common/ArduinoFiles.h</text>
</a>
</g>
</g>
<!-- Node30&#45;&gt;Node40 -->
<g id="edge69_Node000030_Node000040" class="edge">
<title>Node30&#45;&gt;Node40</title>
<g id="a_edge69_Node000030_Node000040"><a xlink:title=" ">
<path fill="none" stroke="#63b8ff" d="M848.13,-659.71C857.72,-633.37 888.49,-553.33 928,-495 934.98,-484.69 944.28,-474.39 952.26,-466.3"/>
<polygon fill="#63b8ff" stroke="#63b8ff" points="954.99,-468.53 959.67,-459.03 950.08,-463.54 954.99,-468.53"/>
</a>
</g>
</g>
<!-- Node32&#45;&gt;Node7 -->
<g id="edge47_Node000032_Node000007" class="edge">
<title>Node32&#45;&gt;Node7</title>
<g id="a_edge47_Node000032_Node000007"><a xlink:title=" ">
<path fill="none" stroke="#63b8ff" d="M113.83,-219.98C168.16,-209.66 258.76,-192.45 309.88,-182.74"/>
<polygon fill="#63b8ff" stroke="#63b8ff" points="310.68,-186.15 319.86,-180.85 309.38,-179.27 310.68,-186.15"/>
</a>
</g>
</g>
<!-- Node32&#45;&gt;Node10 -->
<g id="edge48_Node000032_Node000010" class="edge">
<title>Node32&#45;&gt;Node10</title>
<g id="a_edge48_Node000032_Node000010"><a xlink:title=" ">
<path fill="none" stroke="#63b8ff" d="M91.46,-219.92C128.5,-206.13 204.98,-179.14 272,-165 401.09,-137.76 557.78,-126.34 627.93,-122.34"/>
<polygon fill="#63b8ff" stroke="#63b8ff" points="628.24,-125.83 638.03,-121.78 627.86,-118.84 628.24,-125.83"/>
</a>
</g>
</g>
<!-- Node32&#45;&gt;Node16 -->
<g id="edge46_Node000032_Node000016" class="edge">
<title>Node32&#45;&gt;Node16</title>
<g id="a_edge46_Node000032_Node000016"><a xlink:title=" ">
<path fill="none" stroke="#63b8ff" d="M81.67,-219.97C120.87,-193.57 240.45,-113.02 289.58,-79.93"/>
<polygon fill="#63b8ff" stroke="#63b8ff" points="291.82,-82.64 298.16,-74.15 287.91,-76.83 291.82,-82.64"/>
</a>
</g>
</g>
<!-- Node33&#45;&gt;Node9 -->
<g id="edge50_Node000033_Node000009" class="edge">
<title>Node33&#45;&gt;Node9</title>
<g id="a_edge50_Node000033_Node000009"><a xlink:title=" ">
<path fill="none" stroke="#63b8ff" d="M1024.02,-494.96C1032.07,-486.66 1043.29,-473.25 1048,-459 1050.65,-450.98 1049.66,-448.28 1048,-440 1032.36,-362.07 1035.35,-331.06 979,-275 963.19,-259.27 941.02,-248.84 920.88,-242.06"/>
<polygon fill="#63b8ff" stroke="#63b8ff" points="921.79,-238.68 911.2,-239.02 919.69,-245.36 921.79,-238.68"/>
</a>
</g>
</g>
<!-- Node34&#45;&gt;Node9 -->
<g id="edge55_Node000034_Node000009" class="edge">
<title>Node34&#45;&gt;Node9</title>
<g id="a_edge55_Node000034_Node000009"><a xlink:title=" ">
<path fill="none" stroke="#63b8ff" d="M1080.83,-274.98C1037.5,-265.8 968.41,-251.15 921.44,-241.19"/>
<polygon fill="#63b8ff" stroke="#63b8ff" points="921.99,-237.73 911.48,-239.08 920.54,-244.58 921.99,-237.73"/>
</a>
</g>
</g>
<!-- Node34&#45;&gt;Node10 -->
<g id="edge52_Node000034_Node000010" class="edge">
<title>Node34&#45;&gt;Node10</title>
<g id="a_edge52_Node000034_Node000010"><a xlink:title=" ">
<path fill="none" stroke="#63b8ff" d="M1110.34,-274.97C1082.13,-252.89 1002.45,-193.55 926,-165 849.46,-136.41 753.38,-126.07 701.79,-122.42"/>
<polygon fill="#63b8ff" stroke="#63b8ff" points="701.99,-118.92 691.78,-121.75 701.53,-125.91 701.99,-118.92"/>
</a>
</g>
</g>
<!-- Node35 -->
<g id="Node000035" class="node">
<title>Node35</title>
<g id="a_Node000035"><a xlink:href="../../dd/ded/CompileDateTime_8h.xhtml" target="_top" xlink:title=" ">
<polygon fill="white" stroke="#666666" points="807,-184 693,-184 693,-165 807,-165 807,-184"/>
<text text-anchor="middle" x="750" y="-172" font-family="Helvetica,sans-Serif" font-size="10.00">CompileDateTime.h</text>
</a>
</g>
</g>
<!-- Node34&#45;&gt;Node35 -->
<g id="edge53_Node000034_Node000035" class="edge">
<title>Node34&#45;&gt;Node35</title>
<g id="a_edge53_Node000034_Node000035"><a xlink:title=" ">
<path fill="none" stroke="#63b8ff" d="M1098.7,-274.94C1064.47,-261.98 996.77,-237.1 938,-220 892.18,-206.66 839.22,-194.41 801.21,-186.15"/>
<polygon fill="#63b8ff" stroke="#63b8ff" points="801.9,-182.72 791.39,-184.03 800.43,-189.56 801.9,-182.72"/>
</a>
</g>
</g>
<!-- Node35&#45;&gt;Node10 -->
<g id="edge54_Node000035_Node000010" class="edge">
<title>Node35&#45;&gt;Node10</title>
<g id="a_edge54_Node000035_Node000010"><a xlink:title=" ">
<path fill="none" stroke="#63b8ff" d="M736.34,-164.98C723.16,-156.77 702.97,-144.18 687.43,-134.49"/>
<polygon fill="#63b8ff" stroke="#63b8ff" points="689.24,-131.49 678.91,-129.17 685.54,-137.43 689.24,-131.49"/>
</a>
</g>
</g>
<!-- Node36&#45;&gt;Node9 -->
<g id="edge58_Node000036_Node000009" class="edge">
<title>Node36&#45;&gt;Node9</title>
<g id="a_edge58_Node000036_Node000009"><a xlink:title=" ">
<path fill="none" stroke="#63b8ff" d="M1209.4,-275.45C1136.69,-265.79 1015.11,-249.64 939.19,-239.56"/>
<polygon fill="#63b8ff" stroke="#63b8ff" points="939.62,-236.08 929.24,-238.24 938.7,-243.02 939.62,-236.08"/>
</a>
</g>
</g>
<!-- Node36&#45;&gt;Node10 -->
<g id="edge57_Node000036_Node000010" class="edge">
<title>Node36&#45;&gt;Node10</title>
<g id="a_edge57_Node000036_Node000010"><a xlink:title=" ">
<path fill="none" stroke="#63b8ff" d="M1251.59,-274.85C1204.3,-252.97 1074.22,-195.07 960,-165 868.95,-141.03 758.46,-128.66 702.05,-123.51"/>
<polygon fill="#63b8ff" stroke="#63b8ff" points="702.1,-120 691.83,-122.6 701.48,-126.97 702.1,-120"/>
</a>
</g>
</g>
<!-- Node37&#45;&gt;Node4 -->
<g id="edge61_Node000037_Node000004" class="edge">
<title>Node37&#45;&gt;Node4</title>
<g id="a_edge61_Node000037_Node000004"><a xlink:title=" ">
<path fill="none" stroke="#63b8ff" d="M763.16,-604.87C748.08,-596.98 726.51,-584.24 711,-569 697.19,-555.44 685.43,-536.61 677.9,-522.98"/>
<polygon fill="#63b8ff" stroke="#63b8ff" points="680.98,-521.31 673.2,-514.12 674.8,-524.6 680.98,-521.31"/>
</a>
</g>
</g>
<!-- Node37&#45;&gt;Node7 -->
<g id="edge60_Node000037_Node000007" class="edge">
<title>Node37&#45;&gt;Node7</title>
<g id="a_edge60_Node000037_Node000007"><a xlink:title=" ">
<path fill="none" stroke="#63b8ff" d="M740.93,-606.31C737.91,-605.84 734.91,-605.4 732,-605 652.12,-594.1 434.62,-618.52 371,-569 347.31,-550.56 348,-535.52 348,-505.5 348,-505.5 348,-505.5 348,-283.5 348,-252.19 348,-215.77 348,-194.23"/>
<polygon fill="#63b8ff" stroke="#63b8ff" points="351.5,-194.18 348,-184.18 344.5,-194.18 351.5,-194.18"/>
</a>
</g>
</g>
<!-- Node37&#45;&gt;Node9 -->
<g id="edge68_Node000037_Node000009" class="edge">
<title>Node37&#45;&gt;Node9</title>
<g id="a_edge68_Node000037_Node000009"><a xlink:title=" ">
<path fill="none" stroke="#63b8ff" d="M803.51,-604.99C819.32,-597.82 839.62,-585.99 851,-569 885.56,-517.44 894.53,-355.83 900,-294 900.74,-285.59 902.4,-283.09 900,-275 897.02,-264.98 891,-255.11 885.21,-247.22"/>
<polygon fill="#63b8ff" stroke="#63b8ff" points="887.87,-244.95 878.94,-239.25 882.37,-249.28 887.87,-244.95"/>
</a>
</g>
</g>
<!-- Node38 -->
<g id="Node000038" class="node">
<title>Node38</title>
<g id="a_Node000038"><a xlink:href="../../d2/df7/FsCache_8h.xhtml" target="_top" xlink:title="Common cache code for exFAT and FAT.">
<polygon fill="white" stroke="#666666" points="842,-569 720,-569 720,-550 842,-550 842,-569"/>
<text text-anchor="middle" x="781" y="-557" font-family="Helvetica,sans-Serif" font-size="10.00">../common/FsCache.h</text>
</a>
</g>
</g>
<!-- Node37&#45;&gt;Node38 -->
<g id="edge62_Node000037_Node000038" class="edge">
<title>Node37&#45;&gt;Node38</title>
<g id="a_edge62_Node000037_Node000038"><a xlink:title=" ">
<path fill="none" stroke="#63b8ff" d="M781,-604.75C781,-597.8 781,-587.85 781,-579.13"/>
<polygon fill="#63b8ff" stroke="#63b8ff" points="784.5,-579.09 781,-569.09 777.5,-579.09 784.5,-579.09"/>
</a>
</g>
</g>
<!-- Node39 -->
<g id="Node000039" class="node">
<title>Node39</title>
<g id="a_Node000039"><a xlink:href="../../dc/d87/FsStructs_8h.xhtml" target="_top" xlink:title=" ">
<polygon fill="white" stroke="#666666" points="281.5,-239 156.5,-239 156.5,-220 281.5,-220 281.5,-239"/>
<text text-anchor="middle" x="219" y="-227" font-family="Helvetica,sans-Serif" font-size="10.00">../common/FsStructs.h</text>
</a>
</g>
</g>
<!-- Node37&#45;&gt;Node39 -->
<g id="edge65_Node000037_Node000039" class="edge">
<title>Node37&#45;&gt;Node39</title>
<g id="a_edge65_Node000037_Node000039"><a xlink:title=" ">
<path fill="none" stroke="#63b8ff" d="M740.93,-606.27C737.91,-605.81 734.91,-605.38 732,-605 643.96,-593.4 404.71,-622.73 334,-569 309.98,-550.75 310,-535.67 310,-505.5 310,-505.5 310,-505.5 310,-338.5 310,-296.65 269.54,-262.59 242.58,-244.54"/>
<polygon fill="#63b8ff" stroke="#63b8ff" points="244.33,-241.51 234.03,-239.04 240.55,-247.4 244.33,-241.51"/>
</a>
</g>
</g>
<!-- Node38&#45;&gt;Node4 -->
<g id="edge63_Node000038_Node000004" class="edge">
<title>Node38&#45;&gt;Node4</title>
<g id="a_edge63_Node000038_Node000004"><a xlink:title=" ">
<path fill="none" stroke="#63b8ff" d="M763.01,-549.98C745.07,-541.5 717.28,-528.35 696.57,-518.54"/>
<polygon fill="#63b8ff" stroke="#63b8ff" points="697.86,-515.28 687.32,-514.17 694.86,-521.61 697.86,-515.28"/>
</a>
</g>
</g>
<!-- Node38&#45;&gt;Node9 -->
<g id="edge64_Node000038_Node000009" class="edge">
<title>Node38&#45;&gt;Node9</title>
<g id="a_edge64_Node000038_Node000009"><a xlink:title=" ">
<path fill="none" stroke="#63b8ff" d="M786.08,-549.77C804.57,-517.34 868.17,-400.22 886,-294 888.61,-278.46 883.96,-261.07 879.16,-248.42"/>
<polygon fill="#63b8ff" stroke="#63b8ff" points="882.34,-246.94 875.26,-239.05 875.88,-249.63 882.34,-246.94"/>
</a>
</g>
</g>
<!-- Node39&#45;&gt;Node7 -->
<g id="edge66_Node000039_Node000007" class="edge">
<title>Node39&#45;&gt;Node7</title>
<g id="a_edge66_Node000039_Node000007"><a xlink:title=" ">
<path fill="none" stroke="#63b8ff" d="M239.73,-219.98C260.76,-211.34 293.55,-197.87 317.54,-188.02"/>
<polygon fill="#63b8ff" stroke="#63b8ff" points="318.98,-191.21 326.9,-184.17 316.32,-184.73 318.98,-191.21"/>
</a>
</g>
</g>
<!-- Node39&#45;&gt;Node10 -->
<g id="edge67_Node000039_Node000010" class="edge">
<title>Node39&#45;&gt;Node10</title>
<g id="a_edge67_Node000039_Node000010"><a xlink:title=" ">
<path fill="none" stroke="#63b8ff" d="M228.31,-219.74C243.99,-205.56 277.27,-177.87 311,-165 368.41,-143.09 549.49,-128.41 628.04,-122.92"/>
<polygon fill="#63b8ff" stroke="#63b8ff" points="628.68,-126.38 638.42,-122.2 628.2,-119.4 628.68,-126.38"/>
</a>
</g>
</g>
<!-- Node40&#45;&gt;Node9 -->
<g id="edge70_Node000040_Node000009" class="edge">
<title>Node40&#45;&gt;Node9</title>
<g id="a_edge70_Node000040_Node000009"><a xlink:title=" ">
<path fill="none" stroke="#63b8ff" d="M971.47,-439.63C978.51,-412.38 995.97,-328.51 961,-275 950.96,-259.63 933.94,-249.38 917.39,-242.63"/>
<polygon fill="#63b8ff" stroke="#63b8ff" points="918.35,-239.25 907.76,-239.05 915.91,-245.81 918.35,-239.25"/>
</a>
</g>
</g>
</g>
</svg>
