<?xml version="1.0" encoding="UTF-8" standalone="no"?>
<!DOCTYPE svg PUBLIC "-//W3C//DTD SVG 1.1//EN"
 "http://www.w3.org/Graphics/SVG/1.1/DTD/svg11.dtd">
<!-- Generated by graphviz version 2.43.0 (0)
 -->
<!-- Title: cpplint.NestingState.Update Pages: 1 -->
<svg width="874pt" height="178pt"
 viewBox="0.00 0.00 874.00 178.00" xmlns="http://www.w3.org/2000/svg" xmlns:xlink="http://www.w3.org/1999/xlink">
<g id="graph0" class="graph" transform="scale(1 1) rotate(0) translate(4 174)">
<title>cpplint.NestingState.Update</title>
<!-- Node1 -->
<g id="Node000001" class="node">
<title>Node1</title>
<g id="a_Node000001"><a xlink:title=" ">
<polygon fill="#999999" stroke="#666666" points="154,-66.5 0,-66.5 0,-47.5 154,-47.5 154,-66.5"/>
<text text-anchor="middle" x="77" y="-54.5" font-family="Helvetica,sans-Serif" font-size="10.00">cpplint.NestingState.Update</text>
</a>
</g>
</g>
<!-- Node2 -->
<g id="Node000002" class="node">
<title>Node2</title>
<g id="a_Node000002"><a xlink:href="../../d8/dad/classcpplint_1_1NestingState_a3a0d3776009d9f4542e23319bd1e92a9.xhtml#a3a0d3776009d9f4542e23319bd1e92a9" target="_top" xlink:title=" ">
<polygon fill="white" stroke="#666666" points="363,-137 190,-137 190,-107 363,-107 363,-137"/>
<text text-anchor="start" x="198" y="-125" font-family="Helvetica,sans-Serif" font-size="10.00">cpplint.NestingState.InTemplate</text>
<text text-anchor="middle" x="276.5" y="-114" font-family="Helvetica,sans-Serif" font-size="10.00">ArgumentList</text>
</a>
</g>
</g>
<!-- Node1&#45;&gt;Node2 -->
<g id="edge1_Node000001_Node000002" class="edge">
<title>Node1&#45;&gt;Node2</title>
<g id="a_edge1_Node000001_Node000002"><a xlink:title=" ">
<path fill="none" stroke="#63b8ff" d="M107.14,-66.59C136.79,-76.35 183.47,-91.71 220.16,-103.79"/>
<polygon fill="#63b8ff" stroke="#63b8ff" points="219.15,-107.14 229.74,-106.94 221.34,-100.49 219.15,-107.14"/>
</a>
</g>
</g>
<!-- Node6 -->
<g id="Node000006" class="node">
<title>Node6</title>
<g id="a_Node000006"><a xlink:href="../../d3/d23/namespacecpplint_aa0db7290fc6bd23f44b6602a6ae22738.xhtml#aa0db7290fc6bd23f44b6602a6ae22738" target="_top" xlink:title=" ">
<polygon fill="white" stroke="#666666" points="708,-105.5 625,-105.5 625,-86.5 708,-86.5 708,-105.5"/>
<text text-anchor="middle" x="666.5" y="-93.5" font-family="Helvetica,sans-Serif" font-size="10.00">cpplint.Match</text>
</a>
</g>
</g>
<!-- Node1&#45;&gt;Node6 -->
<g id="edge7_Node000001_Node000006" class="edge">
<title>Node1&#45;&gt;Node6</title>
<g id="a_edge7_Node000001_Node000006"><a xlink:title=" ">
<path fill="none" stroke="#63b8ff" d="M154.2,-62.06C275.92,-70.14 511.01,-85.74 614.49,-92.61"/>
<polygon fill="#63b8ff" stroke="#63b8ff" points="614.47,-96.12 624.68,-93.29 614.93,-89.14 614.47,-96.12"/>
</a>
</g>
</g>
<!-- Node7 -->
<g id="Node000007" class="node">
<title>Node7</title>
<g id="a_Node000007"><a xlink:href="../../d8/dad/classcpplint_1_1NestingState_aba98d984db5687df0825d005a78e6be9.xhtml#aba98d984db5687df0825d005a78e6be9" target="_top" xlink:title=" ">
<polygon fill="white" stroke="#666666" points="348,-51 205,-51 205,-21 348,-21 348,-51"/>
<text text-anchor="start" x="213" y="-39" font-family="Helvetica,sans-Serif" font-size="10.00">cpplint.NestingState.Seen</text>
<text text-anchor="middle" x="276.5" y="-28" font-family="Helvetica,sans-Serif" font-size="10.00">OpenBrace</text>
</a>
</g>
</g>
<!-- Node1&#45;&gt;Node7 -->
<g id="edge8_Node000001_Node000007" class="edge">
<title>Node1&#45;&gt;Node7</title>
<g id="a_edge8_Node000001_Node000007"><a xlink:title=" ">
<path fill="none" stroke="#63b8ff" d="M154.08,-48.91C167.41,-47.49 181.33,-46.01 194.79,-44.58"/>
<polygon fill="#63b8ff" stroke="#63b8ff" points="195.39,-48.04 204.97,-43.5 194.65,-41.08 195.39,-48.04"/>
</a>
</g>
</g>
<!-- Node8 -->
<g id="Node000008" class="node">
<title>Node8</title>
<g id="a_Node000008"><a xlink:href="../../d8/dad/classcpplint_1_1NestingState_aaab05dd32b05c5683b5baff25cfe3c45.xhtml#aaab05dd32b05c5683b5baff25cfe3c45" target="_top" xlink:title=" ">
<polygon fill="white" stroke="#666666" points="553,-30 399,-30 399,0 553,0 553,-30"/>
<text text-anchor="start" x="407" y="-18" font-family="Helvetica,sans-Serif" font-size="10.00">cpplint.NestingState.Update</text>
<text text-anchor="middle" x="476" y="-7" font-family="Helvetica,sans-Serif" font-size="10.00">Preprocessor</text>
</a>
</g>
</g>
<!-- Node1&#45;&gt;Node8 -->
<g id="edge9_Node000001_Node000008" class="edge">
<title>Node1&#45;&gt;Node8</title>
<g id="a_edge9_Node000001_Node000008"><a xlink:title=" ">
<path fill="none" stroke="#63b8ff" d="M95.59,-47.47C117.11,-36.39 155.02,-18.76 190,-12 255.88,0.74 331.94,-0.86 388.9,-5.18"/>
<polygon fill="#63b8ff" stroke="#63b8ff" points="388.7,-8.68 398.95,-5.99 389.26,-1.7 388.7,-8.68"/>
</a>
</g>
</g>
<!-- Node3 -->
<g id="Node000003" class="node">
<title>Node3</title>
<g id="a_Node000003"><a xlink:href="../../d3/d23/namespacecpplint_a1b6021bb43f15b2ba6d35664a529b9b2.xhtml#a1b6021bb43f15b2ba6d35664a529b9b2" target="_top" xlink:title=" ">
<polygon fill="white" stroke="#666666" points="542.5,-164.5 409.5,-164.5 409.5,-145.5 542.5,-145.5 542.5,-164.5"/>
<text text-anchor="middle" x="476" y="-152.5" font-family="Helvetica,sans-Serif" font-size="10.00">cpplint.CloseExpression</text>
</a>
</g>
</g>
<!-- Node2&#45;&gt;Node3 -->
<g id="edge2_Node000002_Node000003" class="edge">
<title>Node2&#45;&gt;Node3</title>
<g id="a_edge2_Node000002_Node000003"><a xlink:title=" ">
<path fill="none" stroke="#63b8ff" d="M363.26,-136.33C378.18,-138.82 393.49,-141.38 407.81,-143.77"/>
<polygon fill="#63b8ff" stroke="#63b8ff" points="407.61,-147.29 418.05,-145.48 408.76,-140.38 407.61,-147.29"/>
</a>
</g>
</g>
<!-- Node2&#45;&gt;Node6 -->
<g id="edge6_Node000002_Node000006" class="edge">
<title>Node2&#45;&gt;Node6</title>
<g id="a_edge6_Node000002_Node000006"><a xlink:title=" ">
<path fill="none" stroke="#63b8ff" d="M363.13,-116.26C440.18,-111.1 550.82,-103.68 614.71,-99.4"/>
<polygon fill="#63b8ff" stroke="#63b8ff" points="615.18,-102.88 624.93,-98.72 614.72,-95.9 615.18,-102.88"/>
</a>
</g>
</g>
<!-- Node4 -->
<g id="Node000004" class="node">
<title>Node4</title>
<g id="a_Node000004"><a xlink:href="../../d3/d23/namespacecpplint_a9cc0677c6efe4f143ce3705136daf4be.xhtml#a9cc0677c6efe4f143ce3705136daf4be" target="_top" xlink:title=" ">
<polygon fill="white" stroke="#666666" points="744,-170 589,-170 589,-140 744,-140 744,-170"/>
<text text-anchor="start" x="597" y="-158" font-family="Helvetica,sans-Serif" font-size="10.00">cpplint.FindEndOfExpression</text>
<text text-anchor="middle" x="666.5" y="-147" font-family="Helvetica,sans-Serif" font-size="10.00">InLine</text>
</a>
</g>
</g>
<!-- Node3&#45;&gt;Node4 -->
<g id="edge3_Node000003_Node000004" class="edge">
<title>Node3&#45;&gt;Node4</title>
<g id="a_edge3_Node000003_Node000004"><a xlink:title=" ">
<path fill="none" stroke="#63b8ff" d="M542.66,-155C554.28,-155 566.55,-155 578.64,-155"/>
<polygon fill="#63b8ff" stroke="#63b8ff" points="578.75,-158.5 588.75,-155 578.75,-151.5 578.75,-158.5"/>
</a>
</g>
</g>
<!-- Node3&#45;&gt;Node6 -->
<g id="edge5_Node000003_Node000006" class="edge">
<title>Node3&#45;&gt;Node6</title>
<g id="a_edge5_Node000003_Node000006"><a xlink:title=" ">
<path fill="none" stroke="#63b8ff" d="M507.71,-145.39C539.7,-135.37 589.99,-119.63 625.18,-108.62"/>
<polygon fill="#63b8ff" stroke="#63b8ff" points="626.62,-111.84 635.12,-105.51 624.53,-105.16 626.62,-111.84"/>
</a>
</g>
</g>
<!-- Node5 -->
<g id="Node000005" class="node">
<title>Node5</title>
<g id="a_Node000005"><a xlink:href="../../d3/d23/namespacecpplint_a515e256f8ccda50d15b9b7401f5264f7.xhtml#a515e256f8ccda50d15b9b7401f5264f7" target="_top" xlink:title=" ">
<polygon fill="white" stroke="#666666" points="866,-164.5 780,-164.5 780,-145.5 866,-145.5 866,-164.5"/>
<text text-anchor="middle" x="823" y="-152.5" font-family="Helvetica,sans-Serif" font-size="10.00">cpplint.Search</text>
</a>
</g>
</g>
<!-- Node4&#45;&gt;Node5 -->
<g id="edge4_Node000004_Node000005" class="edge">
<title>Node4&#45;&gt;Node5</title>
<g id="a_edge4_Node000004_Node000005"><a xlink:title=" ">
<path fill="none" stroke="#63b8ff" d="M744.3,-155C752.92,-155 761.56,-155 769.77,-155"/>
<polygon fill="#63b8ff" stroke="#63b8ff" points="769.91,-158.5 779.91,-155 769.91,-151.5 769.91,-158.5"/>
</a>
</g>
</g>
<!-- Node8&#45;&gt;Node6 -->
<g id="edge10_Node000008_Node000006" class="edge">
<title>Node8&#45;&gt;Node6</title>
<g id="a_edge10_Node000008_Node000006"><a xlink:title=" ">
<path fill="none" stroke="#63b8ff" d="M512.01,-30.05C547,-45.08 600.29,-67.98 633.98,-82.46"/>
<polygon fill="#63b8ff" stroke="#63b8ff" points="632.78,-85.75 643.35,-86.48 635.55,-79.32 632.78,-85.75"/>
</a>
</g>
</g>
</g>
</svg>
