<?xml version="1.0" encoding="UTF-8" standalone="no"?>
<!DOCTYPE svg PUBLIC "-//W3C//DTD SVG 1.1//EN"
 "http://www.w3.org/Graphics/SVG/1.1/DTD/svg11.dtd">
<!-- Generated by graphviz version 2.43.0 (0)
 -->
<!-- Title: ChainableLED::setColorRGB Pages: 1 -->
<svg width="904pt" height="65pt"
 viewBox="0.00 0.00 904.00 65.00" xmlns="http://www.w3.org/2000/svg" xmlns:xlink="http://www.w3.org/1999/xlink">
<g id="graph0" class="graph" transform="scale(1 1) rotate(0) translate(4 61)">
<title>ChainableLED::setColorRGB</title>
<!-- Node1 -->
<g id="Node000001" class="node">
<title>Node1</title>
<g id="a_Node000001"><a xlink:title=" ">
<polygon fill="#999999" stroke="#666666" points="152,-38 0,-38 0,-19 152,-19 152,-38"/>
<text text-anchor="middle" x="76" y="-26" font-family="Helvetica,sans-Serif" font-size="10.00">ChainableLED::setColorRGB</text>
</a>
</g>
</g>
<!-- Node2 -->
<g id="Node000002" class="node">
<title>Node2</title>
<g id="a_Node000002"><a xlink:href="../../d5/dc9/classChainableLED_af9dddebec83065625cbd6f8f05b992e7.xhtml#af9dddebec83065625cbd6f8f05b992e7" target="_top" xlink:title=" ">
<polygon fill="white" stroke="#666666" points="499,-38 363,-38 363,-19 499,-19 499,-38"/>
<text text-anchor="middle" x="431" y="-26" font-family="Helvetica,sans-Serif" font-size="10.00">ChainableLED::sendByte</text>
</a>
</g>
</g>
<!-- Node1&#45;&gt;Node2 -->
<g id="edge1_Node000001_Node000002" class="edge">
<title>Node1&#45;&gt;Node2</title>
<g id="a_edge1_Node000001_Node000002"><a xlink:title=" ">
<path fill="none" stroke="#63b8ff" d="M152.29,-28.5C211.34,-28.5 293.22,-28.5 352.77,-28.5"/>
<polygon fill="#63b8ff" stroke="#63b8ff" points="352.87,-32 362.87,-28.5 352.87,-25 352.87,-32"/>
</a>
</g>
</g>
<!-- Node7 -->
<g id="Node000007" class="node">
<title>Node7</title>
<g id="a_Node000007"><a xlink:href="../../d5/dc9/classChainableLED_a7c5c2661fc02dee9f174485a2fadeb7a.xhtml#a7c5c2661fc02dee9f174485a2fadeb7a" target="_top" xlink:title=" ">
<polygon fill="white" stroke="#666666" points="327,-19 188,-19 188,0 327,0 327,-19"/>
<text text-anchor="middle" x="257.5" y="-7" font-family="Helvetica,sans-Serif" font-size="10.00">ChainableLED::sendColor</text>
</a>
</g>
</g>
<!-- Node1&#45;&gt;Node7 -->
<g id="edge7_Node000001_Node000007" class="edge">
<title>Node1&#45;&gt;Node7</title>
<g id="a_edge7_Node000001_Node000007"><a xlink:title=" ">
<path fill="none" stroke="#63b8ff" d="M152.08,-20.55C160.48,-19.66 169.06,-18.76 177.51,-17.86"/>
<polygon fill="#63b8ff" stroke="#63b8ff" points="178.15,-21.31 187.73,-16.78 177.42,-14.35 178.15,-21.31"/>
</a>
</g>
</g>
<!-- Node3 -->
<g id="Node000003" class="node">
<title>Node3</title>
<g id="a_Node000003"><a xlink:href="../../d5/dc9/classChainableLED_af384841b6f083865c7fce288b039d275.xhtml#af384841b6f083865c7fce288b039d275" target="_top" xlink:title=" ">
<polygon fill="white" stroke="#666666" points="639,-57 535,-57 535,-38 639,-38 639,-57"/>
<text text-anchor="middle" x="587" y="-45" font-family="Helvetica,sans-Serif" font-size="10.00">ChainableLED::clk</text>
</a>
</g>
</g>
<!-- Node2&#45;&gt;Node3 -->
<g id="edge2_Node000002_Node000003" class="edge">
<title>Node2&#45;&gt;Node3</title>
<g id="a_edge2_Node000002_Node000003"><a xlink:title=" ">
<path fill="none" stroke="#63b8ff" d="M499.1,-36.78C507.63,-37.83 516.32,-38.9 524.75,-39.94"/>
<polygon fill="#63b8ff" stroke="#63b8ff" points="524.52,-43.44 534.87,-41.19 525.38,-36.49 524.52,-43.44"/>
</a>
</g>
</g>
<!-- Node5 -->
<g id="Node000005" class="node">
<title>Node5</title>
<g id="a_Node000005"><a xlink:href="../../d5/d45/wiring__digital_8c_a73b9b61feeaf7d790d107f2954a7fd93.xhtml#a73b9b61feeaf7d790d107f2954a7fd93" target="_top" xlink:title=" ">
<polygon fill="white" stroke="#666666" points="767,-20 693,-20 693,-1 767,-1 767,-20"/>
<text text-anchor="middle" x="730" y="-8" font-family="Helvetica,sans-Serif" font-size="10.00">digitalWrite</text>
</a>
</g>
</g>
<!-- Node2&#45;&gt;Node5 -->
<g id="edge6_Node000002_Node000005" class="edge">
<title>Node2&#45;&gt;Node5</title>
<g id="a_edge6_Node000002_Node000005"><a xlink:title=" ">
<path fill="none" stroke="#63b8ff" d="M499.02,-24.44C555.09,-21.04 633.59,-16.28 682.85,-13.3"/>
<polygon fill="#63b8ff" stroke="#63b8ff" points="683.12,-16.79 692.89,-12.69 682.7,-9.8 683.12,-16.79"/>
</a>
</g>
</g>
<!-- Node4 -->
<g id="Node000004" class="node">
<title>Node4</title>
<g id="a_Node000004"><a xlink:href="../../d5/df3/wiring_8c_a62e0a53bc261f9de8700cc5a92307e85.xhtml#a62e0a53bc261f9de8700cc5a92307e85" target="_top" xlink:title=" ">
<polygon fill="white" stroke="#666666" points="785,-57 675,-57 675,-38 785,-38 785,-57"/>
<text text-anchor="middle" x="730" y="-45" font-family="Helvetica,sans-Serif" font-size="10.00">delayMicroseconds</text>
</a>
</g>
</g>
<!-- Node3&#45;&gt;Node4 -->
<g id="edge3_Node000003_Node000004" class="edge">
<title>Node3&#45;&gt;Node4</title>
<g id="a_edge3_Node000003_Node000004"><a xlink:title=" ">
<path fill="none" stroke="#63b8ff" d="M639.3,-47.5C647.48,-47.5 656.02,-47.5 664.45,-47.5"/>
<polygon fill="#63b8ff" stroke="#63b8ff" points="664.65,-51 674.65,-47.5 664.65,-44 664.65,-51"/>
</a>
</g>
</g>
<!-- Node3&#45;&gt;Node5 -->
<g id="edge4_Node000003_Node000005" class="edge">
<title>Node3&#45;&gt;Node5</title>
<g id="a_edge4_Node000003_Node000005"><a xlink:title=" ">
<path fill="none" stroke="#63b8ff" d="M624.31,-37.97C642.24,-33.27 664.06,-27.54 683.13,-22.54"/>
<polygon fill="#63b8ff" stroke="#63b8ff" points="684.03,-25.92 692.81,-20 682.25,-19.15 684.03,-25.92"/>
</a>
</g>
</g>
<!-- Node6 -->
<g id="Node000006" class="node">
<title>Node6</title>
<g id="a_Node000006"><a xlink:href="../../d5/d45/wiring__digital_8c_ae3d0bcbe4eb927ca8f5d5c21b7e4f224.xhtml#ae3d0bcbe4eb927ca8f5d5c21b7e4f224" target="_top" xlink:title=" ">
<polygon fill="white" stroke="#666666" points="896,-20 821,-20 821,-1 896,-1 896,-20"/>
<text text-anchor="middle" x="858.5" y="-8" font-family="Helvetica,sans-Serif" font-size="10.00">turnOffPWM</text>
</a>
</g>
</g>
<!-- Node5&#45;&gt;Node6 -->
<g id="edge5_Node000005_Node000006" class="edge">
<title>Node5&#45;&gt;Node6</title>
<g id="a_edge5_Node000005_Node000006"><a xlink:title=" ">
<path fill="none" stroke="#63b8ff" d="M767.25,-10.5C780.76,-10.5 796.3,-10.5 810.63,-10.5"/>
<polygon fill="#63b8ff" stroke="#63b8ff" points="810.81,-14 820.81,-10.5 810.81,-7 810.81,-14"/>
</a>
</g>
</g>
<!-- Node7&#45;&gt;Node2 -->
<g id="edge8_Node000007_Node000002" class="edge">
<title>Node7&#45;&gt;Node2</title>
<g id="a_edge8_Node000007_Node000002"><a xlink:title=" ">
<path fill="none" stroke="#63b8ff" d="M327.27,-17.12C335.71,-18.05 344.37,-19.01 352.93,-19.96"/>
<polygon fill="#63b8ff" stroke="#63b8ff" points="352.57,-23.44 362.89,-21.07 353.34,-16.49 352.57,-23.44"/>
</a>
</g>
</g>
</g>
</svg>
