<?xml version="1.0" encoding="UTF-8" standalone="no"?>
<!DOCTYPE svg PUBLIC "-//W3C//DTD SVG 1.1//EN"
 "http://www.w3.org/Graphics/SVG/1.1/DTD/svg11.dtd">
<!-- Generated by graphviz version 2.43.0 (0)
 -->
<!-- Title: ChainableLED::setColorHSL Pages: 1 -->
<svg width="1089pt" height="83pt"
 viewBox="0.00 0.00 1089.00 83.00" xmlns="http://www.w3.org/2000/svg" xmlns:xlink="http://www.w3.org/1999/xlink">
<g id="graph0" class="graph" transform="scale(1 1) rotate(0) translate(4 79)">
<title>ChainableLED::setColorHSL</title>
<!-- Node1 -->
<g id="Node000001" class="node">
<title>Node1</title>
<g id="a_Node000001"><a xlink:title=" ">
<polygon fill="#999999" stroke="#666666" points="149,-56 0,-56 0,-37 149,-37 149,-56"/>
<text text-anchor="middle" x="74.5" y="-44" font-family="Helvetica,sans-Serif" font-size="10.00">ChainableLED::setColorHSL</text>
</a>
</g>
</g>
<!-- Node2 -->
<g id="Node000002" class="node">
<title>Node2</title>
<g id="a_Node000002"><a xlink:href="../../da/dfe/ChainableLED_8cpp_af369a113a2fa54f4ff955ee15a0258cb.xhtml#af369a113a2fa54f4ff955ee15a0258cb" target="_top" xlink:title=" ">
<polygon fill="white" stroke="#666666" points="289,-75 233,-75 233,-56 289,-56 289,-75"/>
<text text-anchor="middle" x="261" y="-63" font-family="Helvetica,sans-Serif" font-size="10.00">hue2rgb</text>
</a>
</g>
</g>
<!-- Node1&#45;&gt;Node2 -->
<g id="edge1_Node000001_Node000002" class="edge">
<title>Node1&#45;&gt;Node2</title>
<g id="a_edge1_Node000001_Node000002"><a xlink:title=" ">
<path fill="none" stroke="#63b8ff" d="M149.21,-54.09C174.46,-56.69 201.63,-59.49 222.75,-61.66"/>
<polygon fill="#63b8ff" stroke="#63b8ff" points="222.59,-65.17 232.9,-62.71 223.31,-58.2 222.59,-65.17"/>
</a>
</g>
</g>
<!-- Node3 -->
<g id="Node000003" class="node">
<title>Node3</title>
<g id="a_Node000003"><a xlink:href="../../d5/dc9/classChainableLED_a2b8a41a192a231e77cad268bdbaebd34.xhtml#a2b8a41a192a231e77cad268bdbaebd34" target="_top" xlink:title=" ">
<polygon fill="white" stroke="#666666" points="337,-38 185,-38 185,-19 337,-19 337,-38"/>
<text text-anchor="middle" x="261" y="-26" font-family="Helvetica,sans-Serif" font-size="10.00">ChainableLED::setColorRGB</text>
</a>
</g>
</g>
<!-- Node1&#45;&gt;Node3 -->
<g id="edge2_Node000001_Node000003" class="edge">
<title>Node1&#45;&gt;Node3</title>
<g id="a_edge2_Node000001_Node000003"><a xlink:title=" ">
<path fill="none" stroke="#63b8ff" d="M149.21,-39.31C157.66,-38.48 166.31,-37.64 174.89,-36.8"/>
<polygon fill="#63b8ff" stroke="#63b8ff" points="175.28,-40.28 184.89,-35.83 174.6,-33.31 175.28,-40.28"/>
</a>
</g>
</g>
<!-- Node4 -->
<g id="Node000004" class="node">
<title>Node4</title>
<g id="a_Node000004"><a xlink:href="../../d5/dc9/classChainableLED_af9dddebec83065625cbd6f8f05b992e7.xhtml#af9dddebec83065625cbd6f8f05b992e7" target="_top" xlink:title=" ">
<polygon fill="white" stroke="#666666" points="684,-38 548,-38 548,-19 684,-19 684,-38"/>
<text text-anchor="middle" x="616" y="-26" font-family="Helvetica,sans-Serif" font-size="10.00">ChainableLED::sendByte</text>
</a>
</g>
</g>
<!-- Node3&#45;&gt;Node4 -->
<g id="edge3_Node000003_Node000004" class="edge">
<title>Node3&#45;&gt;Node4</title>
<g id="a_edge3_Node000003_Node000004"><a xlink:title=" ">
<path fill="none" stroke="#63b8ff" d="M337.29,-28.5C396.34,-28.5 478.22,-28.5 537.77,-28.5"/>
<polygon fill="#63b8ff" stroke="#63b8ff" points="537.87,-32 547.87,-28.5 537.87,-25 537.87,-32"/>
</a>
</g>
</g>
<!-- Node9 -->
<g id="Node000009" class="node">
<title>Node9</title>
<g id="a_Node000009"><a xlink:href="../../d5/dc9/classChainableLED_a7c5c2661fc02dee9f174485a2fadeb7a.xhtml#a7c5c2661fc02dee9f174485a2fadeb7a" target="_top" xlink:title=" ">
<polygon fill="white" stroke="#666666" points="512,-19 373,-19 373,0 512,0 512,-19"/>
<text text-anchor="middle" x="442.5" y="-7" font-family="Helvetica,sans-Serif" font-size="10.00">ChainableLED::sendColor</text>
</a>
</g>
</g>
<!-- Node3&#45;&gt;Node9 -->
<g id="edge9_Node000003_Node000009" class="edge">
<title>Node3&#45;&gt;Node9</title>
<g id="a_edge9_Node000003_Node000009"><a xlink:title=" ">
<path fill="none" stroke="#63b8ff" d="M337.08,-20.55C345.48,-19.66 354.06,-18.76 362.51,-17.86"/>
<polygon fill="#63b8ff" stroke="#63b8ff" points="363.15,-21.31 372.73,-16.78 362.42,-14.35 363.15,-21.31"/>
</a>
</g>
</g>
<!-- Node5 -->
<g id="Node000005" class="node">
<title>Node5</title>
<g id="a_Node000005"><a xlink:href="../../d5/dc9/classChainableLED_af384841b6f083865c7fce288b039d275.xhtml#af384841b6f083865c7fce288b039d275" target="_top" xlink:title=" ">
<polygon fill="white" stroke="#666666" points="824,-57 720,-57 720,-38 824,-38 824,-57"/>
<text text-anchor="middle" x="772" y="-45" font-family="Helvetica,sans-Serif" font-size="10.00">ChainableLED::clk</text>
</a>
</g>
</g>
<!-- Node4&#45;&gt;Node5 -->
<g id="edge4_Node000004_Node000005" class="edge">
<title>Node4&#45;&gt;Node5</title>
<g id="a_edge4_Node000004_Node000005"><a xlink:title=" ">
<path fill="none" stroke="#63b8ff" d="M684.1,-36.78C692.63,-37.83 701.32,-38.9 709.75,-39.94"/>
<polygon fill="#63b8ff" stroke="#63b8ff" points="709.52,-43.44 719.87,-41.19 710.38,-36.49 709.52,-43.44"/>
</a>
</g>
</g>
<!-- Node7 -->
<g id="Node000007" class="node">
<title>Node7</title>
<g id="a_Node000007"><a xlink:href="../../d5/d45/wiring__digital_8c_a73b9b61feeaf7d790d107f2954a7fd93.xhtml#a73b9b61feeaf7d790d107f2954a7fd93" target="_top" xlink:title=" ">
<polygon fill="white" stroke="#666666" points="952,-20 878,-20 878,-1 952,-1 952,-20"/>
<text text-anchor="middle" x="915" y="-8" font-family="Helvetica,sans-Serif" font-size="10.00">digitalWrite</text>
</a>
</g>
</g>
<!-- Node4&#45;&gt;Node7 -->
<g id="edge8_Node000004_Node000007" class="edge">
<title>Node4&#45;&gt;Node7</title>
<g id="a_edge8_Node000004_Node000007"><a xlink:title=" ">
<path fill="none" stroke="#63b8ff" d="M684.02,-24.44C740.09,-21.04 818.59,-16.28 867.85,-13.3"/>
<polygon fill="#63b8ff" stroke="#63b8ff" points="868.12,-16.79 877.89,-12.69 867.7,-9.8 868.12,-16.79"/>
</a>
</g>
</g>
<!-- Node6 -->
<g id="Node000006" class="node">
<title>Node6</title>
<g id="a_Node000006"><a xlink:href="../../d5/df3/wiring_8c_a62e0a53bc261f9de8700cc5a92307e85.xhtml#a62e0a53bc261f9de8700cc5a92307e85" target="_top" xlink:title=" ">
<polygon fill="white" stroke="#666666" points="970,-57 860,-57 860,-38 970,-38 970,-57"/>
<text text-anchor="middle" x="915" y="-45" font-family="Helvetica,sans-Serif" font-size="10.00">delayMicroseconds</text>
</a>
</g>
</g>
<!-- Node5&#45;&gt;Node6 -->
<g id="edge5_Node000005_Node000006" class="edge">
<title>Node5&#45;&gt;Node6</title>
<g id="a_edge5_Node000005_Node000006"><a xlink:title=" ">
<path fill="none" stroke="#63b8ff" d="M824.3,-47.5C832.48,-47.5 841.02,-47.5 849.45,-47.5"/>
<polygon fill="#63b8ff" stroke="#63b8ff" points="849.65,-51 859.65,-47.5 849.65,-44 849.65,-51"/>
</a>
</g>
</g>
<!-- Node5&#45;&gt;Node7 -->
<g id="edge6_Node000005_Node000007" class="edge">
<title>Node5&#45;&gt;Node7</title>
<g id="a_edge6_Node000005_Node000007"><a xlink:title=" ">
<path fill="none" stroke="#63b8ff" d="M809.31,-37.97C827.24,-33.27 849.06,-27.54 868.13,-22.54"/>
<polygon fill="#63b8ff" stroke="#63b8ff" points="869.03,-25.92 877.81,-20 867.25,-19.15 869.03,-25.92"/>
</a>
</g>
</g>
<!-- Node8 -->
<g id="Node000008" class="node">
<title>Node8</title>
<g id="a_Node000008"><a xlink:href="../../d5/d45/wiring__digital_8c_ae3d0bcbe4eb927ca8f5d5c21b7e4f224.xhtml#ae3d0bcbe4eb927ca8f5d5c21b7e4f224" target="_top" xlink:title=" ">
<polygon fill="white" stroke="#666666" points="1081,-20 1006,-20 1006,-1 1081,-1 1081,-20"/>
<text text-anchor="middle" x="1043.5" y="-8" font-family="Helvetica,sans-Serif" font-size="10.00">turnOffPWM</text>
</a>
</g>
</g>
<!-- Node7&#45;&gt;Node8 -->
<g id="edge7_Node000007_Node000008" class="edge">
<title>Node7&#45;&gt;Node8</title>
<g id="a_edge7_Node000007_Node000008"><a xlink:title=" ">
<path fill="none" stroke="#63b8ff" d="M952.25,-10.5C965.76,-10.5 981.3,-10.5 995.63,-10.5"/>
<polygon fill="#63b8ff" stroke="#63b8ff" points="995.81,-14 1005.81,-10.5 995.81,-7 995.81,-14"/>
</a>
</g>
</g>
<!-- Node9&#45;&gt;Node4 -->
<g id="edge10_Node000009_Node000004" class="edge">
<title>Node9&#45;&gt;Node4</title>
<g id="a_edge10_Node000009_Node000004"><a xlink:title=" ">
<path fill="none" stroke="#63b8ff" d="M512.27,-17.12C520.71,-18.05 529.37,-19.01 537.93,-19.96"/>
<polygon fill="#63b8ff" stroke="#63b8ff" points="537.57,-23.44 547.89,-21.07 538.34,-16.49 537.57,-23.44"/>
</a>
</g>
</g>
</g>
</svg>
