<?xml version="1.0" encoding="UTF-8" standalone="no"?>
<!DOCTYPE svg PUBLIC "-//W3C//DTD SVG 1.1//EN"
 "http://www.w3.org/Graphics/SVG/1.1/DTD/svg11.dtd">
<!-- Generated by graphviz version 2.43.0 (0)
 -->
<!-- Title: toUpcase Pages: 1 -->
<!--zoomable 993 -->

<svg id="main" version="1.1" xmlns="http://www.w3.org/2000/svg" xmlns:xlink="http://www.w3.org/1999/xlink" xml:space="preserve" onload="init(evt)">
<style type="text/css"><![CDATA[
.node, .edge {opacity: 0.7;}
.node.selected, .edge.selected {opacity: 1;}
.edge:hover path { stroke: red; }
.edge:hover polygon { stroke: red; fill: red; }
]]></style>

<defs>
  <circle id="rim" cx="0" cy="0" r="7"/>
  <circle id="rim2" cx="0" cy="0" r="3.5"/>
  <g id="zoomPlus">
    <use xlink:href="#rim" fill="#404040"><set attributeName="fill" to="#808080" begin="zoomplus.mouseover" end="zoomplus.mouseout"/></use>
    <path d="M-4,0h8M0,-4v8" fill="none" stroke="white" stroke-width="1.5" pointer-events="none"/>
  </g>
  <g id="zoomMin">
    <use xlink:href="#rim" fill="#404040"><set attributeName="fill" to="#808080" begin="zoomminus.mouseover" end="zoomminus.mouseout"/></use>
    <path d="M-4,0h8" fill="none" stroke="white" stroke-width="1.5" pointer-events="none"/>
  </g>
  <g id="arrowUp" transform="translate(30 24)">
    <use xlink:href="#rim"/>
    <path pointer-events="none" fill="none" stroke="white" stroke-width="1.5" d="M0,-3.0v7 M-2.5,-0.5L0,-3.0L2.5,-0.5"/>
  </g>
  <g id="arrowRight" transform="rotate(90) translate(36 -43)">
    <use xlink:href="#rim"/>
    <path pointer-events="none" fill="none" stroke="white" stroke-width="1.5" d="M0,-3.0v7 M-2.5,-0.5L0,-3.0L2.5,-0.5"/>
  </g>
  <g id="arrowDown" transform="rotate(180) translate(-30 -48)">
    <use xlink:href="#rim"/>
    <path pointer-events="none" fill="none" stroke="white" stroke-width="1.5" d="M0,-3.0v7 M-2.5,-0.5L0,-3.0L2.5,-0.5"/>
  </g>
  <g id="arrowLeft" transform="rotate(270) translate(-36 17)">
    <use xlink:href="#rim"/>
    <path pointer-events="none" fill="none" stroke="white" stroke-width="1.5" d="M0,-3.0v7 M-2.5,-0.5L0,-3.0L2.5,-0.5"/>
  </g>
  <g id="resetDef">
    <use xlink:href="#rim2" fill="#404040"><set attributeName="fill" to="#808080" begin="reset.mouseover" end="reset.mouseout"/></use>
  </g>
</defs>
<script type="application/ecmascript">
var viewWidth = 907;
var viewHeight = 993;
var sectionId = 'dynsection-4';
</script>
<script type="application/ecmascript" xlink:href="../../svg.min.js"/>
<svg id="graph" class="graph">
<g id="viewport">
<title>toUpcase</title>
<!-- Node1 -->
<g id="Node000001" class="node">
<title>Node1</title>
<g id="a_Node000001"><a xlink:title=" ">
<polygon fill="#999999" stroke="#666666" points="899,-194 837,-194 837,-175 899,-175 899,-194"/>
<text text-anchor="middle" x="868" y="-182" font-family="Helvetica,sans-Serif" font-size="10.00">toUpcase</text>
</a>
</g>
</g>
<!-- Node2 -->
<g id="Node000002" class="node">
<title>Node2</title>
<g id="a_Node000002"><a xlink:href="../../d0/d63/classExFatPartition.xhtml#aa7342dc9ed751744d123b6e536e0ddfc" target="_top" xlink:title=" ">
<polygon fill="white" stroke="#666666" points="799,-287 645,-287 645,-268 799,-268 799,-287"/>
<text text-anchor="middle" x="722" y="-275" font-family="Helvetica,sans-Serif" font-size="10.00">ExFatPartition::checkUpcase</text>
</a>
</g>
</g>
<!-- Node1&#45;&gt;Node2 -->
<g id="edge1_Node000001_Node000002" class="edge">
<title>Node1&#45;&gt;Node2</title>
<g id="a_edge1_Node000001_Node000002"><a xlink:title=" ">
<path fill="none" stroke="#63b8ff" d="M855.87,-202.68C844.31,-219.98 824.63,-245.4 801,-259.5 795.27,-262.92 788.95,-265.69 782.46,-267.93"/>
<polygon fill="#63b8ff" stroke="#63b8ff" points="858.97,-204.33 861.43,-194.03 853.08,-200.55 858.97,-204.33"/>
</a>
</g>
</g>
<!-- Node3 -->
<g id="Node000003" class="node">
<title>Node3</title>
<g id="a_Node000003"><a xlink:href="../../d6/d7f/classExFatFile.xhtml#a54fa75eed5679805815d20b1a604ef29" target="_top" xlink:title=" ">
<polygon fill="white" stroke="#666666" points="780,-250 664,-250 664,-231 780,-231 780,-250"/>
<text text-anchor="middle" x="722" y="-238" font-family="Helvetica,sans-Serif" font-size="10.00">ExFatFile::cmpName</text>
</a>
</g>
</g>
<!-- Node1&#45;&gt;Node3 -->
<g id="edge2_Node000001_Node000003" class="edge">
<title>Node1&#45;&gt;Node3</title>
<g id="a_edge2_Node000001_Node000003"><a xlink:title=" ">
<path fill="none" stroke="#63b8ff" d="M844.48,-199.7C832.1,-207.47 816.2,-216.52 801,-222.5 792.59,-225.81 783.43,-228.59 774.43,-230.91"/>
<polygon fill="#63b8ff" stroke="#63b8ff" points="846.69,-202.44 853.19,-194.08 842.89,-196.55 846.69,-202.44"/>
</a>
</g>
</g>
<!-- Node49 -->
<g id="Node000049" class="node">
<title>Node49</title>
<g id="a_Node000049"><a xlink:href="../../d3/db4/classFatFile.xhtml#a5c22f576875289e31a7befcbd101d9f2" target="_top" xlink:title=" ">
<polygon fill="white" stroke="#666666" points="774,-213 670,-213 670,-194 774,-194 774,-213"/>
<text text-anchor="middle" x="722" y="-201" font-family="Helvetica,sans-Serif" font-size="10.00">FatFile::cmpName</text>
</a>
</g>
</g>
<!-- Node1&#45;&gt;Node49 -->
<g id="edge45_Node000001_Node000049" class="edge">
<title>Node1&#45;&gt;Node49</title>
<g id="a_edge45_Node000001_Node000049"><a xlink:title=" ">
<path fill="none" stroke="#63b8ff" d="M826.55,-189.84C810.28,-191.98 791.33,-194.48 774.13,-196.75"/>
<polygon fill="#63b8ff" stroke="#63b8ff" points="827.36,-193.26 836.81,-188.48 826.44,-186.32 827.36,-193.26"/>
</a>
</g>
</g>
<!-- Node51 -->
<g id="Node000051" class="node">
<title>Node51</title>
<g id="a_Node000051"><a xlink:href="../../d7/d23/ExFatName_8cpp.xhtml#a14686c893024f45b0fddeca22a05c5d1" target="_top" xlink:title=" ">
<polygon fill="white" stroke="#666666" points="756,-176 688,-176 688,-157 756,-157 756,-176"/>
<text text-anchor="middle" x="722" y="-164" font-family="Helvetica,sans-Serif" font-size="10.00">exFatHash</text>
</a>
</g>
</g>
<!-- Node1&#45;&gt;Node51 -->
<g id="edge47_Node000001_Node000051" class="edge">
<title>Node1&#45;&gt;Node51</title>
<g id="a_edge47_Node000001_Node000051"><a xlink:title=" ">
<path fill="none" stroke="#63b8ff" d="M826.67,-179.46C804.43,-176.68 777.15,-173.27 756.16,-170.65"/>
<polygon fill="#63b8ff" stroke="#63b8ff" points="826.46,-182.96 836.81,-180.73 827.32,-176.01 826.46,-182.96"/>
</a>
</g>
</g>
<!-- Node52 -->
<g id="Node000052" class="node">
<title>Node52</title>
<g id="a_Node000052"><a xlink:href="../../d2/d2b/ExFatDbg_8cpp.xhtml#aa418b27debe31a2fa47430e56bb64001" target="_top" xlink:title=" ">
<polygon fill="white" stroke="#666666" points="749,-139 695,-139 695,-120 749,-120 749,-139"/>
<text text-anchor="middle" x="722" y="-127" font-family="Helvetica,sans-Serif" font-size="10.00">hashDir</text>
</a>
</g>
</g>
<!-- Node1&#45;&gt;Node52 -->
<g id="edge48_Node000001_Node000052" class="edge">
<title>Node1&#45;&gt;Node52</title>
<g id="a_edge48_Node000001_Node000052"><a xlink:title=" ">
<path fill="none" stroke="#63b8ff" d="M843.38,-169.66C831.11,-162.46 815.65,-154.17 801,-148.5 784.23,-142.01 764.56,-137.24 749.16,-134.1"/>
<polygon fill="#63b8ff" stroke="#63b8ff" points="841.7,-172.73 852.08,-174.89 845.31,-166.74 841.7,-172.73"/>
</a>
</g>
</g>
<!-- Node54 -->
<g id="Node000054" class="node">
<title>Node54</title>
<g id="a_Node000054"><a xlink:href="../../d9/d4c/classExFatFormatter.xhtml#a031db750beded781b5e5573558aa3612" target="_top" xlink:title=" ">
<polygon fill="white" stroke="#666666" points="801,-102 643,-102 643,-83 801,-83 801,-102"/>
<text text-anchor="middle" x="722" y="-90" font-family="Helvetica,sans-Serif" font-size="10.00">ExFatFormatter::writeUpcase</text>
</a>
</g>
</g>
<!-- Node1&#45;&gt;Node54 -->
<g id="edge50_Node000001_Node000054" class="edge">
<title>Node1&#45;&gt;Node54</title>
<g id="a_edge50_Node000001_Node000054"><a xlink:title=" ">
<path fill="none" stroke="#63b8ff" d="M855.63,-166.29C844,-149.23 824.37,-124.34 801,-110.5 795.26,-107.1 788.93,-104.34 782.43,-102.11"/>
<polygon fill="#63b8ff" stroke="#63b8ff" points="852.83,-168.4 861.24,-174.85 858.68,-164.56 852.83,-168.4"/>
</a>
</g>
</g>
<!-- Node4 -->
<g id="Node000004" class="node">
<title>Node4</title>
<g id="a_Node000004"><a xlink:href="../../d6/d7f/classExFatFile.xhtml#a531de6eac70b708a3fefd96e25506016" target="_top" xlink:title=" ">
<polygon fill="white" stroke="#666666" points="604.5,-250 479.5,-250 479.5,-231 604.5,-231 604.5,-250"/>
<text text-anchor="middle" x="542" y="-238" font-family="Helvetica,sans-Serif" font-size="10.00">ExFatFile::openPrivate</text>
</a>
</g>
</g>
<!-- Node3&#45;&gt;Node4 -->
<g id="edge3_Node000003_Node000004" class="edge">
<title>Node3&#45;&gt;Node4</title>
<g id="a_edge3_Node000003_Node000004"><a xlink:title=" ">
<path fill="none" stroke="#63b8ff" d="M653.38,-240.5C637.42,-240.5 620.49,-240.5 604.8,-240.5"/>
<polygon fill="#63b8ff" stroke="#63b8ff" points="653.7,-244 663.7,-240.5 653.7,-237 653.7,-244"/>
</a>
</g>
</g>
<!-- Node5 -->
<g id="Node000005" class="node">
<title>Node5</title>
<g id="a_Node000005"><a xlink:href="../../d6/d7f/classExFatFile.xhtml#ad9ca8c5ba1de8965e65b9f25f31baeff" target="_top" xlink:title=" ">
<polygon fill="white" stroke="#666666" points="431,-213 336,-213 336,-194 431,-194 431,-213"/>
<text text-anchor="middle" x="383.5" y="-201" font-family="Helvetica,sans-Serif" font-size="10.00">ExFatFile::mkdir</text>
</a>
</g>
</g>
<!-- Node4&#45;&gt;Node5 -->
<g id="edge4_Node000004_Node000005" class="edge">
<title>Node4&#45;&gt;Node5</title>
<g id="a_edge4_Node000004_Node000005"><a xlink:title=" ">
<path fill="none" stroke="#63b8ff" d="M490.85,-228.64C469.55,-223.61 445.05,-217.82 424.94,-213.06"/>
<polygon fill="#63b8ff" stroke="#63b8ff" points="490.16,-232.08 500.7,-230.97 491.77,-225.26 490.16,-232.08"/>
</a>
</g>
</g>
<!-- Node9 -->
<g id="Node000009" class="node">
<title>Node9</title>
<g id="a_Node000009"><a xlink:href="../../d6/d7f/classExFatFile.xhtml#aa6b349f3c48566b9a43cdbcd5912a1ec" target="_top" xlink:title=" ">
<polygon fill="white" stroke="#666666" points="431,-176 336,-176 336,-157 431,-157 431,-176"/>
<text text-anchor="middle" x="383.5" y="-164" font-family="Helvetica,sans-Serif" font-size="10.00">ExFatFile::mkdir</text>
</a>
</g>
</g>
<!-- Node4&#45;&gt;Node9 -->
<g id="edge9_Node000004_Node000009" class="edge">
<title>Node4&#45;&gt;Node9</title>
<g id="a_edge9_Node000004_Node000009"><a xlink:title=" ">
<path fill="none" stroke="#63b8ff" d="M486.36,-227.31C483.11,-225.86 479.97,-224.26 477,-222.5 457.28,-210.77 460.42,-197.72 441,-185.5 434.96,-181.7 428.07,-178.56 421.23,-176.01"/>
<polygon fill="#63b8ff" stroke="#63b8ff" points="485.11,-230.58 495.69,-231 487.68,-224.07 485.11,-230.58"/>
</a>
</g>
</g>
<!-- Node10 -->
<g id="Node000010" class="node">
<title>Node10</title>
<g id="a_Node000010"><a xlink:href="../../d6/d7f/classExFatFile.xhtml#a5b115247c8e1a8cd643412f4d548e673" target="_top" xlink:title=" ">
<polygon fill="white" stroke="#666666" points="428.5,-426 338.5,-426 338.5,-407 428.5,-407 428.5,-426"/>
<text text-anchor="middle" x="383.5" y="-414" font-family="Helvetica,sans-Serif" font-size="10.00">ExFatFile::open</text>
</a>
</g>
</g>
<!-- Node4&#45;&gt;Node10 -->
<g id="edge10_Node000004_Node000010" class="edge">
<title>Node4&#45;&gt;Node10</title>
<g id="a_edge10_Node000004_Node000010"><a xlink:title=" ">
<path fill="none" stroke="#63b8ff" d="M525.39,-258.05C492.87,-294.62 418.79,-377.94 393.3,-406.6"/>
<polygon fill="#63b8ff" stroke="#63b8ff" points="528.33,-260.01 532.36,-250.21 523.1,-255.36 528.33,-260.01"/>
</a>
</g>
</g>
<!-- Node41 -->
<g id="Node000041" class="node">
<title>Node41</title>
<g id="a_Node000041"><a xlink:href="../../d6/d7f/classExFatFile.xhtml#a3ea80d4e3dd4340c2d282097ad12c249" target="_top" xlink:title=" ">
<polygon fill="white" stroke="#666666" points="440,-890 327,-890 327,-871 440,-871 440,-890"/>
<text text-anchor="middle" x="383.5" y="-878" font-family="Helvetica,sans-Serif" font-size="10.00">ExFatFile::openNext</text>
</a>
</g>
</g>
<!-- Node4&#45;&gt;Node41 -->
<g id="edge37_Node000004_Node000041" class="edge">
<title>Node4&#45;&gt;Node41</title>
<g id="a_edge37_Node000004_Node000041"><a xlink:title=" ">
<path fill="none" stroke="#63b8ff" d="M536.27,-259.83C512.25,-358.06 404.18,-800.04 386.85,-870.9"/>
<polygon fill="#63b8ff" stroke="#63b8ff" points="539.69,-260.59 538.67,-250.04 532.89,-258.93 539.69,-260.59"/>
</a>
</g>
</g>
<!-- Node5&#45;&gt;Node5 -->
<g id="edge7_Node000005_Node000005" class="edge">
<title>Node5&#45;&gt;Node5</title>
<g id="a_edge7_Node000005_Node000005"><a xlink:title=" ">
<path fill="none" stroke="#63b8ff" d="M412.62,-221.82C411.4,-227.01 401.7,-231 383.5,-231 355.77,-231 347.76,-221.73 359.46,-213.08"/>
<polygon fill="#63b8ff" stroke="#63b8ff" points="415.59,-219.97 407.54,-213.08 409.54,-223.49 415.59,-219.97"/>
</a>
</g>
</g>
<!-- Node6 -->
<g id="Node000006" class="node">
<title>Node6</title>
<g id="a_Node000006"><a xlink:href="../../d9/dce/classExFatVolume.xhtml#abb00cfff7943fe637a99b292798865e0" target="_top" xlink:title=" ">
<polygon fill="white" stroke="#666666" points="284,-56 170,-56 170,-37 284,-37 284,-56"/>
<text text-anchor="middle" x="227" y="-44" font-family="Helvetica,sans-Serif" font-size="10.00">ExFatVolume::mkdir</text>
</a>
</g>
</g>
<!-- Node5&#45;&gt;Node6 -->
<g id="edge5_Node000005_Node000006" class="edge">
<title>Node5&#45;&gt;Node6</title>
<g id="a_edge5_Node000005_Node000006"><a xlink:title=" ">
<path fill="none" stroke="#63b8ff" d="M328.94,-188.2C327.92,-187.35 326.93,-186.45 326,-185.5 286.71,-145.45 329.81,-104.04 290,-64.5 286.58,-61.1 282.56,-58.34 278.24,-56.09"/>
<polygon fill="#63b8ff" stroke="#63b8ff" points="327.24,-191.27 337.51,-193.86 331.09,-185.43 327.24,-191.27"/>
</a>
</g>
</g>
<!-- Node8 -->
<g id="Node000008" class="node">
<title>Node8</title>
<g id="a_Node000008"><a xlink:href="../../d0/db5/classFsBaseFile.xhtml#a8b7aa7f2c63882e483336dfe12ef6800" target="_top" xlink:title=" ">
<polygon fill="white" stroke="#666666" points="279,-19 175,-19 175,0 279,0 279,-19"/>
<text text-anchor="middle" x="227" y="-7" font-family="Helvetica,sans-Serif" font-size="10.00">FsBaseFile::mkdir</text>
</a>
</g>
</g>
<!-- Node5&#45;&gt;Node8 -->
<g id="edge8_Node000005_Node000008" class="edge">
<title>Node5&#45;&gt;Node8</title>
<g id="a_edge8_Node000005_Node000008"><a xlink:title=" ">
<path fill="none" stroke="#63b8ff" d="M328.79,-188.23C327.81,-187.37 326.88,-186.46 326,-185.5 277.27,-132.47 339.42,-79.9 290,-27.5 286.77,-24.08 282.93,-21.29 278.77,-19.03"/>
<polygon fill="#63b8ff" stroke="#63b8ff" points="326.8,-191.11 337.01,-193.92 330.79,-185.35 326.8,-191.11"/>
</a>
</g>
</g>
<!-- Node7 -->
<g id="Node000007" class="node">
<title>Node7</title>
<g id="a_Node000007"><a xlink:href="../../d9/dce/classExFatVolume.xhtml#a0f4cf7e2853225380574724314327597" target="_top" xlink:title=" ">
<polygon fill="white" stroke="#666666" points="121,-56 7,-56 7,-37 121,-37 121,-56"/>
<text text-anchor="middle" x="64" y="-44" font-family="Helvetica,sans-Serif" font-size="10.00">ExFatVolume::mkdir</text>
</a>
</g>
</g>
<!-- Node6&#45;&gt;Node7 -->
<g id="edge6_Node000006_Node000007" class="edge">
<title>Node6&#45;&gt;Node7</title>
<g id="a_edge6_Node000006_Node000007"><a xlink:title=" ">
<path fill="none" stroke="#63b8ff" d="M159.55,-46.5C146.74,-46.5 133.44,-46.5 121.01,-46.5"/>
<polygon fill="#63b8ff" stroke="#63b8ff" points="159.69,-50 169.69,-46.5 159.69,-43 159.69,-50"/>
</a>
</g>
</g>
<!-- Node11 -->
<g id="Node000011" class="node">
<title>Node11</title>
<g id="a_Node000011"><a xlink:href="../../d9/dce/classExFatVolume.xhtml#a4b089dc93a25d9d87d8dc3fc42a139d5" target="_top" xlink:title=" ">
<polygon fill="white" stroke="#666666" points="283,-463 171,-463 171,-444 283,-444 283,-463"/>
<text text-anchor="middle" x="227" y="-451" font-family="Helvetica,sans-Serif" font-size="10.00">ExFatVolume::attrib</text>
</a>
</g>
</g>
<!-- Node10&#45;&gt;Node11 -->
<g id="edge11_Node000010_Node000011" class="edge">
<title>Node10&#45;&gt;Node11</title>
<g id="a_edge11_Node000010_Node000011"><a xlink:title=" ">
<path fill="none" stroke="#63b8ff" d="M332.7,-428.43C311.75,-433.44 287.69,-439.21 267.92,-443.94"/>
<polygon fill="#63b8ff" stroke="#63b8ff" points="333.8,-431.76 342.71,-426.03 332.17,-424.95 333.8,-431.76"/>
</a>
</g>
</g>
<!-- Node14 -->
<g id="Node000014" class="node">
<title>Node14</title>
<g id="a_Node000014"><a xlink:href="../../d9/dce/classExFatVolume.xhtml#ae79fbebf59d900b845ade864d9d3c4dd" target="_top" xlink:title=" ">
<polygon fill="white" stroke="#666666" points="283,-426 171,-426 171,-407 283,-407 283,-426"/>
<text text-anchor="middle" x="227" y="-414" font-family="Helvetica,sans-Serif" font-size="10.00">ExFatVolume::attrib</text>
</a>
</g>
</g>
<!-- Node10&#45;&gt;Node14 -->
<g id="edge14_Node000010_Node000014" class="edge">
<title>Node10&#45;&gt;Node14</title>
<g id="a_edge14_Node000010_Node000014"><a xlink:title=" ">
<path fill="none" stroke="#63b8ff" d="M327.87,-416.5C313.31,-416.5 297.58,-416.5 283.01,-416.5"/>
<polygon fill="#63b8ff" stroke="#63b8ff" points="328.23,-420 338.23,-416.5 328.23,-413 328.23,-420"/>
</a>
</g>
</g>
<!-- Node15 -->
<g id="Node000015" class="node">
<title>Node15</title>
<g id="a_Node000015"><a xlink:href="../../d9/dce/classExFatVolume.xhtml#a0f9c04da8382686190df76ff957e9a19" target="_top" xlink:title=" ">
<polygon fill="white" stroke="#666666" points="282,-389 172,-389 172,-370 282,-370 282,-389"/>
<text text-anchor="middle" x="227" y="-377" font-family="Helvetica,sans-Serif" font-size="10.00">ExFatVolume::chdir</text>
</a>
</g>
</g>
<!-- Node10&#45;&gt;Node15 -->
<g id="edge15_Node000010_Node000015" class="edge">
<title>Node10&#45;&gt;Node15</title>
<g id="a_edge15_Node000010_Node000015"><a xlink:title=" ">
<path fill="none" stroke="#63b8ff" d="M332.7,-404.57C311.75,-399.56 287.69,-393.79 267.92,-389.06"/>
<polygon fill="#63b8ff" stroke="#63b8ff" points="332.17,-408.05 342.71,-406.97 333.8,-401.24 332.17,-408.05"/>
</a>
</g>
</g>
<!-- Node16 -->
<g id="Node000016" class="node">
<title>Node16</title>
<g id="a_Node000016"><a xlink:href="../../d6/d7f/classExFatFile.xhtml#ab1be7938b64f74a51581f4839fefed4b" target="_top" xlink:title=" ">
<polygon fill="white" stroke="#666666" points="282,-352 172,-352 172,-333 282,-333 282,-352"/>
<text text-anchor="middle" x="227" y="-340" font-family="Helvetica,sans-Serif" font-size="10.00">ExFatFile::ExFatFile</text>
</a>
</g>
</g>
<!-- Node10&#45;&gt;Node16 -->
<g id="edge16_Node000010_Node000016" class="edge">
<title>Node10&#45;&gt;Node16</title>
<g id="a_edge16_Node000010_Node000016"><a xlink:title=" ">
<path fill="none" stroke="#63b8ff" d="M359.93,-401C341.69,-388.99 315.02,-372.58 290,-361.5 281.87,-357.9 272.85,-354.71 264.27,-352.02"/>
<polygon fill="#63b8ff" stroke="#63b8ff" points="358.39,-404.18 368.65,-406.82 362.28,-398.36 358.39,-404.18"/>
</a>
</g>
</g>
<!-- Node17 -->
<g id="Node000017" class="node">
<title>Node17</title>
<g id="a_Node000017"><a xlink:href="../../d6/d7f/classExFatFile.xhtml#a32df2d7ac56a76a647cedf4192ac9abe" target="_top" xlink:title=" ">
<polygon fill="white" stroke="#666666" points="274.5,-315 179.5,-315 179.5,-296 274.5,-296 274.5,-315"/>
<text text-anchor="middle" x="227" y="-303" font-family="Helvetica,sans-Serif" font-size="10.00">ExFatFile::exists</text>
</a>
</g>
</g>
<!-- Node10&#45;&gt;Node17 -->
<g id="edge17_Node000010_Node000017" class="edge">
<title>Node10&#45;&gt;Node17</title>
<g id="a_edge17_Node000010_Node000017"><a xlink:title=" ">
<path fill="none" stroke="#63b8ff" d="M369.31,-398.94C352.89,-378.27 322.98,-344.27 290,-324.5 283.63,-320.68 276.42,-317.57 269.23,-315.05"/>
<polygon fill="#63b8ff" stroke="#63b8ff" points="366.59,-401.15 375.48,-406.9 372.12,-396.85 366.59,-401.15"/>
</a>
</g>
</g>
<!-- Node19 -->
<g id="Node000019" class="node">
<title>Node19</title>
<g id="a_Node000019"><a xlink:href="../../d9/dce/classExFatVolume.xhtml#a5e2e029b02d3c98bc0b8fcbdab566af6" target="_top" xlink:title=" ">
<polygon fill="white" stroke="#666666" points="284.5,-278 169.5,-278 169.5,-259 284.5,-259 284.5,-278"/>
<text text-anchor="middle" x="227" y="-266" font-family="Helvetica,sans-Serif" font-size="10.00">ExFatVolume::exists</text>
</a>
</g>
</g>
<!-- Node10&#45;&gt;Node19 -->
<g id="edge19_Node000010_Node000019" class="edge">
<title>Node10&#45;&gt;Node19</title>
<g id="a_edge19_Node000010_Node000019"><a xlink:title=" ">
<path fill="none" stroke="#63b8ff" d="M373.92,-397.59C360.2,-369.44 330.66,-316.72 290,-287.5 284.61,-283.62 278.4,-280.53 272.06,-278.05"/>
<polygon fill="#63b8ff" stroke="#63b8ff" points="370.82,-399.21 378.25,-406.76 377.15,-396.22 370.82,-399.21"/>
</a>
</g>
</g>
<!-- Node20 -->
<g id="Node000020" class="node">
<title>Node20</title>
<g id="a_Node000020"><a xlink:href="../../d9/dce/classExFatVolume.xhtml#a2e44d5d26a25d610c4b0d97fa5b1f505" target="_top" xlink:title=" ">
<polygon fill="white" stroke="#666666" points="111,-816 17,-816 17,-797 111,-797 111,-816"/>
<text text-anchor="middle" x="64" y="-804" font-family="Helvetica,sans-Serif" font-size="10.00">ExFatVolume::ls</text>
</a>
</g>
</g>
<!-- Node10&#45;&gt;Node20 -->
<g id="edge20_Node000010_Node000020" class="edge">
<title>Node10&#45;&gt;Node20</title>
<g id="a_edge20_Node000010_Node000020"><a xlink:title=" ">
<path fill="none" stroke="#63b8ff" d="M382.74,-436.14C382.33,-490.9 373.48,-646.8 290,-731.5 248.85,-773.25 219.56,-751.81 164,-770.5 138.69,-779.01 110.05,-789.52 90.11,-796.99"/>
<polygon fill="#63b8ff" stroke="#63b8ff" points="386.24,-436.05 382.73,-426.05 379.24,-436.06 386.24,-436.05"/>
</a>
</g>
</g>
<!-- Node21 -->
<g id="Node000021" class="node">
<title>Node21</title>
<g id="a_Node000021"><a xlink:href="../../d6/d7f/classExFatFile.xhtml#aaf738b1f00b8ae1664020f238c1a9a48" target="_top" xlink:title=" ">
<polygon fill="white" stroke="#666666" points="272,-204 182,-204 182,-185 272,-185 272,-204"/>
<text text-anchor="middle" x="227" y="-192" font-family="Helvetica,sans-Serif" font-size="10.00">ExFatFile::open</text>
</a>
</g>
</g>
<!-- Node10&#45;&gt;Node21 -->
<g id="edge21_Node000010_Node000021" class="edge">
<title>Node10&#45;&gt;Node21</title>
<g id="a_edge21_Node000010_Node000021"><a xlink:title=" ">
<path fill="none" stroke="#63b8ff" d="M379.1,-396.85C371.09,-356.46 347.21,-263.7 290,-213.5 284.84,-208.97 278.62,-205.52 272.13,-202.89"/>
<polygon fill="#63b8ff" stroke="#63b8ff" points="375.68,-397.59 380.96,-406.77 382.56,-396.3 375.68,-397.59"/>
</a>
</g>
</g>
<!-- Node22 -->
<g id="Node000022" class="node">
<title>Node22</title>
<g id="a_Node000022"><a xlink:href="../../d9/dce/classExFatVolume.xhtml#ae5d8f37ac6505471ef78fb4db518fb8b" target="_top" xlink:title=" ">
<polygon fill="white" stroke="#666666" points="282,-241 172,-241 172,-222 282,-222 282,-241"/>
<text text-anchor="middle" x="227" y="-229" font-family="Helvetica,sans-Serif" font-size="10.00">ExFatVolume::open</text>
</a>
</g>
</g>
<!-- Node10&#45;&gt;Node22 -->
<g id="edge22_Node000010_Node000022" class="edge">
<title>Node10&#45;&gt;Node22</title>
<g id="a_edge22_Node000010_Node000022"><a xlink:title=" ">
<path fill="none" stroke="#63b8ff" d="M377.01,-397.16C366.2,-362.56 338.85,-289.99 290,-250.5 285.18,-246.61 279.58,-243.51 273.74,-241.05"/>
<polygon fill="#63b8ff" stroke="#63b8ff" points="373.73,-398.4 379.95,-406.97 380.43,-396.39 373.73,-398.4"/>
</a>
</g>
</g>
<!-- Node24 -->
<g id="Node000024" class="node">
<title>Node24</title>
<g id="a_Node000024"><a xlink:href="../../d6/d7f/classExFatFile.xhtml#aaa69f5263c70b1945fbbb672cfdf5d15" target="_top" xlink:title=" ">
<polygon fill="white" stroke="#666666" points="272,-130 182,-130 182,-111 272,-111 272,-130"/>
<text text-anchor="middle" x="227" y="-118" font-family="Helvetica,sans-Serif" font-size="10.00">ExFatFile::open</text>
</a>
</g>
</g>
<!-- Node10&#45;&gt;Node24 -->
<g id="edge24_Node000010_Node000024" class="edge">
<title>Node10&#45;&gt;Node24</title>
<g id="a_edge24_Node000010_Node000024"><a xlink:title=" ">
<path fill="none" stroke="#63b8ff" d="M376.28,-397.09C356.31,-334.87 294.86,-144.24 290,-139.5 285,-134.63 278.79,-131 272.24,-128.3"/>
<polygon fill="#63b8ff" stroke="#63b8ff" points="373.02,-398.38 379.41,-406.83 379.69,-396.24 373.02,-398.38"/>
</a>
</g>
</g>
<!-- Node25 -->
<g id="Node000025" class="node">
<title>Node25</title>
<g id="a_Node000025"><a xlink:href="../../d0/db5/classFsBaseFile.xhtml#aa767859d4a4b4716ebbc4ea42a6d74df" target="_top" xlink:title=" ">
<polygon fill="#fff0f0" stroke="red" points="276.5,-167 177.5,-167 177.5,-148 276.5,-148 276.5,-167"/>
<text text-anchor="middle" x="227" y="-155" font-family="Helvetica,sans-Serif" font-size="10.00">FsBaseFile::open</text>
</a>
</g>
</g>
<!-- Node10&#45;&gt;Node25 -->
<g id="edge25_Node000010_Node000025" class="edge">
<title>Node10&#45;&gt;Node25</title>
<g id="a_edge25_Node000010_Node000025"><a xlink:title=" ">
<path fill="none" stroke="#63b8ff" d="M376.16,-397.25C358.19,-343.11 307.12,-192.45 290,-176.5 285.8,-172.59 280.81,-169.48 275.52,-167.01"/>
<polygon fill="#63b8ff" stroke="#63b8ff" points="372.92,-398.59 379.38,-406.99 379.57,-396.39 372.92,-398.59"/>
</a>
</g>
</g>
<!-- Node30 -->
<g id="Node000030" class="node">
<title>Node30</title>
<g id="a_Node000030"><a xlink:href="../../d0/db5/classFsBaseFile.xhtml#a4743d118f085f6a13692d12bdd3c4556" target="_top" xlink:title=" ">
<polygon fill="white" stroke="#666666" points="276.5,-93 177.5,-93 177.5,-74 276.5,-74 276.5,-93"/>
<text text-anchor="middle" x="227" y="-81" font-family="Helvetica,sans-Serif" font-size="10.00">FsBaseFile::open</text>
</a>
</g>
</g>
<!-- Node10&#45;&gt;Node30 -->
<g id="edge28_Node000010_Node000030" class="edge">
<title>Node10&#45;&gt;Node30</title>
<g id="a_edge28_Node000010_Node000030"><a xlink:title=" ">
<path fill="none" stroke="#63b8ff" d="M375.86,-397.07C364.9,-364.75 342.61,-297.82 326,-240.5 308.24,-179.21 334.46,-147.28 290,-101.5 286.17,-97.56 281.54,-94.47 276.55,-92.05"/>
<polygon fill="#63b8ff" stroke="#63b8ff" points="372.58,-398.3 379.11,-406.64 379.21,-396.04 372.58,-398.3"/>
</a>
</g>
</g>
<!-- Node31 -->
<g id="Node000031" class="node">
<title>Node31</title>
<g id="a_Node000031"><a xlink:href="../../d0/db5/classFsBaseFile.xhtml#a0186e56b21fd584b02db4b763df05f64" target="_top" xlink:title=" ">
<polygon fill="white" stroke="#666666" points="276.5,-798 177.5,-798 177.5,-779 276.5,-779 276.5,-798"/>
<text text-anchor="middle" x="227" y="-786" font-family="Helvetica,sans-Serif" font-size="10.00">FsBaseFile::open</text>
</a>
</g>
</g>
<!-- Node10&#45;&gt;Node31 -->
<g id="edge29_Node000010_Node000031" class="edge">
<title>Node10&#45;&gt;Node31</title>
<g id="a_edge29_Node000010_Node000031"><a xlink:title=" ">
<path fill="none" stroke="#63b8ff" d="M383.1,-436.31C383.76,-494.42 377.8,-666.51 290,-764.5 284.38,-770.78 276.92,-775.42 269.13,-778.86"/>
<polygon fill="#63b8ff" stroke="#63b8ff" points="386.59,-436.19 382.9,-426.26 379.6,-436.33 386.59,-436.19"/>
</a>
</g>
</g>
<!-- Node32 -->
<g id="Node000032" class="node">
<title>Node32</title>
<g id="a_Node000032"><a xlink:href="../../d6/d7f/classExFatFile.xhtml#a69c6f8e9a10bcfb83e378ef73f556ab7" target="_top" xlink:title=" ">
<polygon fill="white" stroke="#666666" points="272,-722 182,-722 182,-703 272,-703 272,-722"/>
<text text-anchor="middle" x="227" y="-710" font-family="Helvetica,sans-Serif" font-size="10.00">ExFatFile::open</text>
</a>
</g>
</g>
<!-- Node10&#45;&gt;Node32 -->
<g id="edge30_Node000010_Node000032" class="edge">
<title>Node10&#45;&gt;Node32</title>
<g id="a_edge30_Node000010_Node000032"><a xlink:title=" ">
<path fill="none" stroke="#63b8ff" d="M381.92,-436.23C379.32,-486.78 365.33,-622.03 290,-694.5 284.99,-699.32 278.77,-702.86 272.22,-705.46"/>
<polygon fill="#63b8ff" stroke="#63b8ff" points="385.42,-436.17 382.34,-426.03 378.43,-435.88 385.42,-436.17"/>
</a>
</g>
</g>
<!-- Node33 -->
<g id="Node000033" class="node">
<title>Node33</title>
<g id="a_Node000033"><a xlink:href="../../d6/d7f/classExFatFile.xhtml#a145a2fa9269876bae17a44569b4625fb" target="_top" xlink:title=" ">
<polygon fill="white" stroke="#666666" points="279,-685 175,-685 175,-666 279,-666 279,-685"/>
<text text-anchor="middle" x="227" y="-673" font-family="Helvetica,sans-Serif" font-size="10.00">ExFatFile::remove</text>
</a>
</g>
</g>
<!-- Node10&#45;&gt;Node33 -->
<g id="edge31_Node000010_Node000033" class="edge">
<title>Node10&#45;&gt;Node33</title>
<g id="a_edge31_Node000010_Node000033"><a xlink:title=" ">
<path fill="none" stroke="#63b8ff" d="M380.71,-436.67C375.51,-482.77 356.3,-596.54 290,-657.5 286.29,-660.91 281.96,-663.68 277.36,-665.93"/>
<polygon fill="#63b8ff" stroke="#63b8ff" points="384.21,-436.79 381.74,-426.48 377.25,-436.08 384.21,-436.79"/>
</a>
</g>
</g>
<!-- Node34 -->
<g id="Node000034" class="node">
<title>Node34</title>
<g id="a_Node000034"><a xlink:href="../../d9/dce/classExFatVolume.xhtml#ac4d15484d30dd40ecdb4d331d29534d9" target="_top" xlink:title=" ">
<polygon fill="white" stroke="#666666" points="288.5,-648 165.5,-648 165.5,-629 288.5,-629 288.5,-648"/>
<text text-anchor="middle" x="227" y="-636" font-family="Helvetica,sans-Serif" font-size="10.00">ExFatVolume::remove</text>
</a>
</g>
</g>
<!-- Node10&#45;&gt;Node34 -->
<g id="edge32_Node000010_Node000034" class="edge">
<title>Node10&#45;&gt;Node34</title>
<g id="a_edge32_Node000010_Node000034"><a xlink:title=" ">
<path fill="none" stroke="#63b8ff" d="M379.2,-436.32C371.35,-477.03 347.77,-570.46 290,-620.5 286.02,-623.95 281.41,-626.74 276.54,-628.99"/>
<polygon fill="#63b8ff" stroke="#63b8ff" points="382.67,-436.77 381.01,-426.31 375.78,-435.53 382.67,-436.77"/>
</a>
</g>
</g>
<!-- Node35 -->
<g id="Node000035" class="node">
<title>Node35</title>
<g id="a_Node000035"><a xlink:href="../../d9/dce/classExFatVolume.xhtml#a6a31fd969e29608509e75adbf46fcd5d" target="_top" xlink:title=" ">
<polygon fill="#fff0f0" stroke="red" points="288.5,-611 165.5,-611 165.5,-592 288.5,-592 288.5,-611"/>
<text text-anchor="middle" x="227" y="-599" font-family="Helvetica,sans-Serif" font-size="10.00">ExFatVolume::rename</text>
</a>
</g>
</g>
<!-- Node10&#45;&gt;Node35 -->
<g id="edge33_Node000010_Node000035" class="edge">
<title>Node10&#45;&gt;Node35</title>
<g id="a_edge33_Node000010_Node000035"><a xlink:title=" ">
<path fill="none" stroke="#63b8ff" d="M377.1,-436.02C366.44,-470.95 339.31,-544.13 290,-583.5 285.71,-586.93 280.79,-589.7 275.64,-591.95"/>
<polygon fill="#63b8ff" stroke="#63b8ff" points="380.55,-436.7 380,-426.12 373.83,-434.74 380.55,-436.7"/>
</a>
</g>
</g>
<!-- Node37 -->
<g id="Node000037" class="node">
<title>Node37</title>
<g id="a_Node000037"><a xlink:href="../../d6/d7f/classExFatFile.xhtml#a707e3a4139319fb5d4e31d591b3c5b77" target="_top" xlink:title=" ">
<polygon fill="white" stroke="#666666" points="279,-574 175,-574 175,-555 279,-555 279,-574"/>
<text text-anchor="middle" x="227" y="-562" font-family="Helvetica,sans-Serif" font-size="10.00">ExFatFile::rename</text>
</a>
</g>
</g>
<!-- Node10&#45;&gt;Node37 -->
<g id="edge34_Node000010_Node000037" class="edge">
<title>Node10&#45;&gt;Node37</title>
<g id="a_edge34_Node000010_Node000037"><a xlink:title=" ">
<path fill="none" stroke="#63b8ff" d="M374.21,-435.22C360.7,-463.58 331.24,-517.22 290,-546.5 285.16,-549.94 279.66,-552.73 273.99,-554.98"/>
<polygon fill="#63b8ff" stroke="#63b8ff" points="377.45,-436.55 378.46,-426.01 371.1,-433.62 377.45,-436.55"/>
</a>
</g>
</g>
<!-- Node38 -->
<g id="Node000038" class="node">
<title>Node38</title>
<g id="a_Node000038"><a xlink:href="../../d9/dce/classExFatVolume.xhtml#afaa44ad57398f8c293b9a35aa150ce75" target="_top" xlink:title=" ">
<polygon fill="white" stroke="#666666" points="283,-537 171,-537 171,-518 283,-518 283,-537"/>
<text text-anchor="middle" x="227" y="-525" font-family="Helvetica,sans-Serif" font-size="10.00">ExFatVolume::rmdir</text>
</a>
</g>
</g>
<!-- Node10&#45;&gt;Node38 -->
<g id="edge35_Node000010_Node000038" class="edge">
<title>Node10&#45;&gt;Node38</title>
<g id="a_edge35_Node000010_Node000038"><a xlink:title=" ">
<path fill="none" stroke="#63b8ff" d="M369.4,-434.34C353.07,-455.32 323.25,-489.78 290,-509.5 284.31,-512.87 277.95,-515.65 271.53,-517.92"/>
<polygon fill="#63b8ff" stroke="#63b8ff" points="372.28,-436.34 375.54,-426.26 366.7,-432.1 372.28,-436.34"/>
</a>
</g>
</g>
<!-- Node39 -->
<g id="Node000039" class="node">
<title>Node39</title>
<g id="a_Node000039"><a xlink:href="../../d9/dce/classExFatVolume.xhtml#a1af3c481f14ff2d390aabe6226658b01" target="_top" xlink:title=" ">
<polygon fill="#fff0f0" stroke="red" points="290,-500 164,-500 164,-481 290,-481 290,-500"/>
<text text-anchor="middle" x="227" y="-488" font-family="Helvetica,sans-Serif" font-size="10.00">ExFatVolume::truncate</text>
</a>
</g>
</g>
<!-- Node10&#45;&gt;Node39 -->
<g id="edge36_Node000010_Node000039" class="edge">
<title>Node10&#45;&gt;Node39</title>
<g id="a_edge36_Node000010_Node000039"><a xlink:title=" ">
<path fill="none" stroke="#63b8ff" d="M360.65,-431.99C342.45,-444.32 315.47,-461.32 290,-472.5 282.61,-475.74 274.47,-478.58 266.59,-481"/>
<polygon fill="#63b8ff" stroke="#63b8ff" points="363.07,-434.57 369.32,-426.02 359.09,-428.81 363.07,-434.57"/>
</a>
</g>
</g>
<!-- Node12 -->
<g id="Node000012" class="node">
<title>Node12</title>
<g id="a_Node000012"><a xlink:href="../../d4/d27/classFsVolume.xhtml#a10bf5efca24ce1412e03b3e15837b2fd" target="_top" xlink:title=" ">
<polygon fill="white" stroke="#666666" points="112.5,-481 15.5,-481 15.5,-462 112.5,-462 112.5,-481"/>
<text text-anchor="middle" x="64" y="-469" font-family="Helvetica,sans-Serif" font-size="10.00">FsVolume::attrib</text>
</a>
</g>
</g>
<!-- Node11&#45;&gt;Node12 -->
<g id="edge12_Node000011_Node000012" class="edge">
<title>Node11&#45;&gt;Node12</title>
<g id="a_edge12_Node000011_Node000012"><a xlink:title=" ">
<path fill="none" stroke="#63b8ff" d="M160.27,-460.85C144.35,-462.63 127.63,-464.5 112.72,-466.16"/>
<polygon fill="#63b8ff" stroke="#63b8ff" points="161.04,-464.28 170.59,-459.69 160.27,-457.33 161.04,-464.28"/>
</a>
</g>
</g>
<!-- Node13 -->
<g id="Node000013" class="node">
<title>Node13</title>
<g id="a_Node000013"><a xlink:href="../../d4/d27/classFsVolume.xhtml#a76ac996fb61db9665fb5d5b4916ca16f" target="_top" xlink:title=" ">
<polygon fill="white" stroke="#666666" points="112.5,-444 15.5,-444 15.5,-425 112.5,-425 112.5,-444"/>
<text text-anchor="middle" x="64" y="-432" font-family="Helvetica,sans-Serif" font-size="10.00">FsVolume::attrib</text>
</a>
</g>
</g>
<!-- Node11&#45;&gt;Node13 -->
<g id="edge13_Node000011_Node000013" class="edge">
<title>Node11&#45;&gt;Node13</title>
<g id="a_edge13_Node000011_Node000013"><a xlink:title=" ">
<path fill="none" stroke="#63b8ff" d="M160.27,-445.74C144.35,-443.86 127.63,-441.89 112.72,-440.13"/>
<polygon fill="#63b8ff" stroke="#63b8ff" points="160.25,-449.27 170.59,-446.96 161.07,-442.31 160.25,-449.27"/>
</a>
</g>
</g>
<!-- Node18 -->
<g id="Node000018" class="node">
<title>Node18</title>
<g id="a_Node000018"><a xlink:href="../../d0/db5/classFsBaseFile.xhtml#a76aea9766ffeae5454381a0704e62505" target="_top" xlink:title=" ">
<polygon fill="white" stroke="#666666" points="116,-315 12,-315 12,-296 116,-296 116,-315"/>
<text text-anchor="middle" x="64" y="-303" font-family="Helvetica,sans-Serif" font-size="10.00">FsBaseFile::exists</text>
</a>
</g>
</g>
<!-- Node17&#45;&gt;Node18 -->
<g id="edge18_Node000017_Node000018" class="edge">
<title>Node17&#45;&gt;Node18</title>
<g id="a_edge18_Node000017_Node000018"><a xlink:title=" ">
<path fill="none" stroke="#63b8ff" d="M168.97,-305.5C151.79,-305.5 133.04,-305.5 116.26,-305.5"/>
<polygon fill="#63b8ff" stroke="#63b8ff" points="169.43,-309 179.43,-305.5 169.43,-302 169.43,-309"/>
</a>
</g>
</g>
<!-- Node23 -->
<g id="Node000023" class="node">
<title>Node23</title>
<g id="a_Node000023"><a xlink:href="../../d9/dce/classExFatVolume.xhtml#a29b670f7086e74ad5c50ecdad2e72d5b" target="_top" xlink:title=" ">
<polygon fill="white" stroke="#666666" points="119,-241 9,-241 9,-222 119,-222 119,-241"/>
<text text-anchor="middle" x="64" y="-229" font-family="Helvetica,sans-Serif" font-size="10.00">ExFatVolume::open</text>
</a>
</g>
</g>
<!-- Node22&#45;&gt;Node23 -->
<g id="edge23_Node000022_Node000023" class="edge">
<title>Node22&#45;&gt;Node23</title>
<g id="a_edge23_Node000022_Node000023"><a xlink:title=" ">
<path fill="none" stroke="#63b8ff" d="M161.81,-231.5C147.69,-231.5 132.87,-231.5 119.19,-231.5"/>
<polygon fill="#63b8ff" stroke="#63b8ff" points="161.94,-235 171.94,-231.5 161.94,-228 161.94,-235"/>
</a>
</g>
</g>
<!-- Node26 -->
<g id="Node000026" class="node">
<title>Node26</title>
<g id="a_Node000026"><a xlink:href="../../d0/db5/classFsBaseFile.xhtml#a6034c6dfce320e2869901890398831b4" target="_top" xlink:title=" ">
<polygon fill="white" stroke="#666666" points="128,-185 0,-185 0,-166 128,-166 128,-185"/>
<text text-anchor="middle" x="64" y="-173" font-family="Helvetica,sans-Serif" font-size="10.00">FsBaseFile::FsBaseFile</text>
</a>
</g>
</g>
<!-- Node25&#45;&gt;Node26 -->
<g id="edge26_Node000025_Node000026" class="edge">
<title>Node25&#45;&gt;Node26</title>
<g id="a_edge26_Node000025_Node000026"><a xlink:title=" ">
<path fill="none" stroke="#63b8ff" d="M167.26,-164.07C154.54,-165.49 141.04,-167 128.17,-168.44"/>
<polygon fill="#63b8ff" stroke="#63b8ff" points="167.71,-167.54 177.26,-162.95 166.93,-160.58 167.71,-167.54"/>
</a>
</g>
</g>
<!-- Node27 -->
<g id="Node000027" class="node">
<title>Node27</title>
<g id="a_Node000027"><a xlink:href="../../d4/d27/classFsVolume.xhtml#ab429316ed9e57a52ecfb938aca7dff6c" target="_top" xlink:title=" ">
<polygon fill="white" stroke="#666666" points="103.5,-148 24.5,-148 24.5,-129 103.5,-129 103.5,-148"/>
<text text-anchor="middle" x="64" y="-136" font-family="Helvetica,sans-Serif" font-size="10.00">FsVolume::ls</text>
</a>
</g>
</g>
<!-- Node25&#45;&gt;Node27 -->
<g id="edge27_Node000025_Node000027" class="edge">
<title>Node25&#45;&gt;Node27</title>
<g id="a_edge27_Node000025_Node000027"><a xlink:title=" ">
<path fill="none" stroke="#63b8ff" d="M167.07,-150.55C145.92,-148.05 122.61,-145.3 103.62,-143.06"/>
<polygon fill="#63b8ff" stroke="#63b8ff" points="166.92,-154.05 177.26,-151.75 167.74,-147.1 166.92,-154.05"/>
</a>
</g>
</g>
<!-- Node42 -->
<g id="Node000042" class="node">
<title>Node42</title>
<g id="a_Node000042"><a xlink:href="../../d6/d7f/classExFatFile.xhtml#aa0e074c891f3db5ea2ebd491667b03a6" target="_top" xlink:title=" ">
<polygon fill="#fff0f0" stroke="red" points="264,-909 190,-909 190,-890 264,-890 264,-909"/>
<text text-anchor="middle" x="227" y="-897" font-family="Helvetica,sans-Serif" font-size="10.00">ExFatFile::ls</text>
</a>
</g>
</g>
<!-- Node41&#45;&gt;Node42 -->
<g id="edge38_Node000041_Node000042" class="edge">
<title>Node41&#45;&gt;Node42</title>
<g id="a_edge38_Node000041_Node000042"><a xlink:title=" ">
<path fill="none" stroke="#63b8ff" d="M316.36,-888.63C298.55,-890.82 279.94,-893.11 264.42,-895.02"/>
<polygon fill="#63b8ff" stroke="#63b8ff" points="317.22,-892.05 326.72,-887.36 316.37,-885.11 317.22,-892.05"/>
</a>
</g>
</g>
<!-- Node43 -->
<g id="Node000043" class="node">
<title>Node43</title>
<g id="a_Node000043"><a xlink:href="../../d6/d7f/classExFatFile.xhtml#a09f8beb55f939874e93c1df6c8a046d4" target="_top" xlink:title=" ">
<polygon fill="white" stroke="#666666" points="101,-928 27,-928 27,-909 101,-909 101,-928"/>
<text text-anchor="middle" x="64" y="-916" font-family="Helvetica,sans-Serif" font-size="10.00">ExFatFile::ls</text>
</a>
</g>
</g>
<!-- Node41&#45;&gt;Node43 -->
<g id="edge41_Node000041_Node000043" class="edge">
<title>Node41&#45;&gt;Node43</title>
<g id="a_edge41_Node000041_Node000043"><a xlink:title=" ">
<path fill="none" stroke="#63b8ff" d="M355.79,-894.74C337.77,-903.51 313.14,-913.93 290,-918.5 224.47,-931.44 146.09,-927.09 101.27,-922.78"/>
<polygon fill="#63b8ff" stroke="#63b8ff" points="357.7,-897.69 365.07,-890.08 354.56,-891.44 357.7,-897.69"/>
</a>
</g>
</g>
<!-- Node45 -->
<g id="Node000045" class="node">
<title>Node45</title>
<g id="a_Node000045"><a xlink:href="../../d6/d7f/classExFatFile.xhtml#ac8d298034dbed4358bf29a862d1913e7" target="_top" xlink:title=" ">
<polygon fill="white" stroke="#666666" points="272,-872 182,-872 182,-853 272,-853 272,-872"/>
<text text-anchor="middle" x="227" y="-860" font-family="Helvetica,sans-Serif" font-size="10.00">ExFatFile::open</text>
</a>
</g>
</g>
<!-- Node41&#45;&gt;Node45 -->
<g id="edge42_Node000041_Node000045" class="edge">
<title>Node41&#45;&gt;Node45</title>
<g id="a_edge42_Node000041_Node000045"><a xlink:title=" ">
<path fill="none" stroke="#63b8ff" d="M316.46,-872.81C301.46,-871.06 285.89,-869.24 272.07,-867.63"/>
<polygon fill="#63b8ff" stroke="#63b8ff" points="316.38,-876.32 326.72,-874 317.19,-869.37 316.38,-876.32"/>
</a>
</g>
</g>
<!-- Node46 -->
<g id="Node000046" class="node">
<title>Node46</title>
<g id="a_Node000046"><a xlink:href="../../d0/db5/classFsBaseFile.xhtml#acb9b1075f4db76fa7e0521c9aff9c3df" target="_top" xlink:title=" ">
<polygon fill="#fff0f0" stroke="red" points="288,-835 166,-835 166,-816 288,-816 288,-835"/>
<text text-anchor="middle" x="227" y="-823" font-family="Helvetica,sans-Serif" font-size="10.00">FsBaseFile::openNext</text>
</a>
</g>
</g>
<!-- Node41&#45;&gt;Node46 -->
<g id="edge43_Node000041_Node000046" class="edge">
<title>Node41&#45;&gt;Node46</title>
<g id="a_edge43_Node000041_Node000046"><a xlink:title=" ">
<path fill="none" stroke="#63b8ff" d="M350.2,-867.25C332.53,-860.18 310.19,-851.51 290,-844.5 280.53,-841.21 270.16,-837.91 260.65,-835.01"/>
<polygon fill="#63b8ff" stroke="#63b8ff" points="348.9,-870.51 359.49,-871 351.52,-864.01 348.9,-870.51"/>
</a>
</g>
</g>
<!-- Node48 -->
<g id="Node000048" class="node">
<title>Node48</title>
<g id="a_Node000048"><a xlink:href="../../da/d2e/classExFile.xhtml#ac33383190264a3b74434877f0ff7e6d6" target="_top" xlink:title=" ">
<polygon fill="white" stroke="#666666" points="285,-985 169,-985 169,-966 285,-966 285,-985"/>
<text text-anchor="middle" x="227" y="-973" font-family="Helvetica,sans-Serif" font-size="10.00">ExFile::openNextFile</text>
</a>
</g>
</g>
<!-- Node41&#45;&gt;Node48 -->
<g id="edge44_Node000041_Node000048" class="edge">
<title>Node41&#45;&gt;Node48</title>
<g id="a_edge44_Node000041_Node000048"><a xlink:title=" ">
<path fill="none" stroke="#63b8ff" d="M364.22,-897.08C346.32,-912.67 317.75,-935.9 290,-951.5 279.94,-957.15 268.28,-962.05 257.8,-965.92"/>
<polygon fill="#63b8ff" stroke="#63b8ff" points="366.94,-899.35 372.1,-890.1 362.3,-894.11 366.94,-899.35"/>
</a>
</g>
</g>
<!-- Node42&#45;&gt;Node20 -->
<g id="edge39_Node000042_Node000020" class="edge">
<title>Node42&#45;&gt;Node20</title>
<g id="a_edge39_Node000042_Node000020"><a xlink:title=" ">
<path fill="none" stroke="#63b8ff" d="M179.9,-888.18C174.42,-886.23 169.01,-884.02 164,-881.5 128.16,-863.5 92.14,-832.06 75.12,-816.22"/>
<polygon fill="#63b8ff" stroke="#63b8ff" points="179.15,-891.61 189.74,-891.38 181.32,-884.96 179.15,-891.61"/>
</a>
</g>
</g>
<!-- Node42&#45;&gt;Node43 -->
<g id="edge40_Node000042_Node000043" class="edge">
<title>Node42&#45;&gt;Node43</title>
<g id="a_edge40_Node000042_Node000043"><a xlink:title=" ">
<path fill="none" stroke="#63b8ff" d="M179.86,-904.95C154.81,-907.9 124.29,-911.5 101.01,-914.25"/>
<polygon fill="#63b8ff" stroke="#63b8ff" points="180.35,-908.41 189.87,-903.76 179.53,-901.46 180.35,-908.41"/>
</a>
</g>
</g>
<!-- Node50 -->
<g id="Node000050" class="node">
<title>Node50</title>
<g id="a_Node000050"><a xlink:href="../../d3/db4/classFatFile.xhtml#aa729447d16ce34a9a575c27ac58dbb12" target="_top" xlink:title=" ">
<polygon fill="white" stroke="#666666" points="581,-213 503,-213 503,-194 581,-194 581,-213"/>
<text text-anchor="middle" x="542" y="-201" font-family="Helvetica,sans-Serif" font-size="10.00">FatFile::open</text>
</a>
</g>
</g>
<!-- Node49&#45;&gt;Node50 -->
<g id="edge46_Node000049_Node000050" class="edge">
<title>Node49&#45;&gt;Node50</title>
<g id="a_edge46_Node000049_Node000050"><a xlink:title=" ">
<path fill="none" stroke="#63b8ff" d="M659.83,-203.5C633.76,-203.5 604.16,-203.5 581.28,-203.5"/>
<polygon fill="#63b8ff" stroke="#63b8ff" points="659.99,-207 669.99,-203.5 659.99,-200 659.99,-207"/>
</a>
</g>
</g>
<!-- Node53 -->
<g id="Node000053" class="node">
<title>Node53</title>
<g id="a_Node000053"><a xlink:href="../../d0/d63/classExFatPartition.xhtml#ac37fa630d5288803f46d3bb9ed3690b5" target="_top" xlink:title=" ">
<polygon fill="white" stroke="#666666" points="605,-139 479,-139 479,-120 605,-120 605,-139"/>
<text text-anchor="middle" x="542" y="-127" font-family="Helvetica,sans-Serif" font-size="10.00">ExFatPartition::printDir</text>
</a>
</g>
</g>
<!-- Node52&#45;&gt;Node53 -->
<g id="edge49_Node000052_Node000053" class="edge">
<title>Node52&#45;&gt;Node53</title>
<g id="a_edge49_Node000052_Node000053"><a xlink:title=" ">
<path fill="none" stroke="#63b8ff" d="M684.47,-129.5C661.65,-129.5 631.67,-129.5 605.18,-129.5"/>
<polygon fill="#63b8ff" stroke="#63b8ff" points="684.74,-133 694.74,-129.5 684.74,-126 684.74,-133"/>
</a>
</g>
</g>
<!-- Node55 -->
<g id="Node000055" class="node">
<title>Node55</title>
<g id="a_Node000055"><a xlink:href="../../d9/d4c/classExFatFormatter.xhtml#ab68f30b1dfd707592fcc1e0718f26ee2" target="_top" xlink:title=" ">
<polygon fill="white" stroke="#666666" points="607,-102 477,-102 477,-83 607,-83 607,-102"/>
<text text-anchor="middle" x="542" y="-90" font-family="Helvetica,sans-Serif" font-size="10.00">ExFatFormatter::format</text>
</a>
</g>
</g>
<!-- Node54&#45;&gt;Node55 -->
<g id="edge51_Node000054_Node000055" class="edge">
<title>Node54&#45;&gt;Node55</title>
<g id="a_edge51_Node000054_Node000055"><a xlink:title=" ">
<path fill="none" stroke="#63b8ff" d="M632.79,-92.5C624.14,-92.5 615.48,-92.5 607.14,-92.5"/>
<polygon fill="#63b8ff" stroke="#63b8ff" points="632.93,-96 642.93,-92.5 632.93,-89 632.93,-96"/>
</a>
</g>
</g>
<!-- Node56 -->
<g id="Node000056" class="node">
<title>Node56</title>
<g id="a_Node000056"><a xlink:href="../../d9/d64/classFsFormatter.xhtml#aa588b121ce67cce8d741d2a796c269b5" target="_top" xlink:title=" ">
<polygon fill="white" stroke="#666666" points="441,-102 326,-102 326,-83 441,-83 441,-102"/>
<text text-anchor="middle" x="383.5" y="-90" font-family="Helvetica,sans-Serif" font-size="10.00">FsFormatter::format</text>
</a>
</g>
</g>
<!-- Node55&#45;&gt;Node56 -->
<g id="edge52_Node000055_Node000056" class="edge">
<title>Node55&#45;&gt;Node56</title>
<g id="a_edge52_Node000055_Node000056"><a xlink:title=" ">
<path fill="none" stroke="#63b8ff" d="M466.84,-92.5C458.23,-92.5 449.56,-92.5 441.23,-92.5"/>
<polygon fill="#63b8ff" stroke="#63b8ff" points="466.89,-96 476.89,-92.5 466.89,-89 466.89,-96"/>
</a>
</g>
</g>
</g>
</svg>

<g id="navigator" transform="translate(0 0)" fill="#404254">
  <rect fill="#f2f5e9" fill-opacity="0.5" stroke="#606060" stroke-width=".5" x="0" y="0" width="60" height="60"/>
  <use id="zoomplus" xlink:href="#zoomPlus" x="17" y="9" onmousedown="handleZoom(evt,'in')"/>
  <use id="zoomminus" xlink:href="#zoomMin" x="42" y="9" onmousedown="handleZoom(evt,'out')"/>
  <use id="reset" xlink:href="#resetDef" x="30" y="36" onmousedown="handleReset()"/>
   <use id="arrowup" xlink:href="#arrowUp" x="0" y="0" onmousedown="handlePan(0,-1)"/>
  <use id="arrowright" xlink:href="#arrowRight" x="0" y="0" onmousedown="handlePan(1,0)"/>
  <use id="arrowdown" xlink:href="#arrowDown" x="0" y="0" onmousedown="handlePan(0,1)"/>
  <use id="arrowleft" xlink:href="#arrowLeft" x="0" y="0" onmousedown="handlePan(-1,0)"/>
</g>
<svg viewBox="0 0 15 15" width="100%" height="30px" preserveAspectRatio="xMaxYMin meet">
 <g id="arrow_out" transform="scale(0.3 0.3)">
  <a xlink:href="upcase_8cpp_a21b6d308ac42097fe276a6cb2f392818_icgraph_org.svg" target="_base">
   <rect id="button" ry="5" rx="5" y="6" x="6" height="38" width="38"
        fill="#f2f5e9" fill-opacity="0.5" stroke="#606060" stroke-width="1.0"/>
   <path id="arrow"
     d="M 11.500037,31.436501 C 11.940474,20.09759 22.043105,11.32322 32.158766,21.979434 L 37.068811,17.246167 C 37.068811,17.246167 37.088388,32 37.088388,32 L 22.160133,31.978069 C 22.160133,31.978069 26.997745,27.140456 26.997745,27.140456 C 18.528582,18.264221 13.291696,25.230495 11.500037,31.436501 z"
     style="fill:#404040;"/>
  </a>
 </g>
</svg>

<style type='text/css'>
<![CDATA[
[data-mouse-over-selected='false'] { opacity: 0.7; }
[data-mouse-over-selected='true']  { opacity: 1.0; }
]]>
</style>
<script type="application/ecmascript"><![CDATA[
document.addEventListener('DOMContentLoaded', (event) => {
  highlightEdges();
  highlightAdjacentNodes();
});
]]></script>
</svg>
