<?xml version="1.0" encoding="UTF-8" standalone="no"?>
<!DOCTYPE svg PUBLIC "-//W3C//DTD SVG 1.1//EN"
 "http://www.w3.org/Graphics/SVG/1.1/DTD/svg11.dtd">
<!-- Generated by graphviz version 2.43.0 (0)
 -->
<!-- Title: sensor.hpp Pages: 1 -->
<!--zoomable 412 -->

<svg id="main" version="1.1" xmlns="http://www.w3.org/2000/svg" xmlns:xlink="http://www.w3.org/1999/xlink" xml:space="preserve" onload="init(evt)">
<style type="text/css"><![CDATA[
.node, .edge {opacity: 0.7;}
.node.selected, .edge.selected {opacity: 1;}
.edge:hover path { stroke: red; }
.edge:hover polygon { stroke: red; fill: red; }
]]></style>

<defs>
  <circle id="rim" cx="0" cy="0" r="7"/>
  <circle id="rim2" cx="0" cy="0" r="3.5"/>
  <g id="zoomPlus">
    <use xlink:href="#rim" fill="#404040"><set attributeName="fill" to="#808080" begin="zoomplus.mouseover" end="zoomplus.mouseout"/></use>
    <path d="M-4,0h8M0,-4v8" fill="none" stroke="white" stroke-width="1.5" pointer-events="none"/>
  </g>
  <g id="zoomMin">
    <use xlink:href="#rim" fill="#404040"><set attributeName="fill" to="#808080" begin="zoomminus.mouseover" end="zoomminus.mouseout"/></use>
    <path d="M-4,0h8" fill="none" stroke="white" stroke-width="1.5" pointer-events="none"/>
  </g>
  <g id="arrowUp" transform="translate(30 24)">
    <use xlink:href="#rim"/>
    <path pointer-events="none" fill="none" stroke="white" stroke-width="1.5" d="M0,-3.0v7 M-2.5,-0.5L0,-3.0L2.5,-0.5"/>
  </g>
  <g id="arrowRight" transform="rotate(90) translate(36 -43)">
    <use xlink:href="#rim"/>
    <path pointer-events="none" fill="none" stroke="white" stroke-width="1.5" d="M0,-3.0v7 M-2.5,-0.5L0,-3.0L2.5,-0.5"/>
  </g>
  <g id="arrowDown" transform="rotate(180) translate(-30 -48)">
    <use xlink:href="#rim"/>
    <path pointer-events="none" fill="none" stroke="white" stroke-width="1.5" d="M0,-3.0v7 M-2.5,-0.5L0,-3.0L2.5,-0.5"/>
  </g>
  <g id="arrowLeft" transform="rotate(270) translate(-36 17)">
    <use xlink:href="#rim"/>
    <path pointer-events="none" fill="none" stroke="white" stroke-width="1.5" d="M0,-3.0v7 M-2.5,-0.5L0,-3.0L2.5,-0.5"/>
  </g>
  <g id="resetDef">
    <use xlink:href="#rim2" fill="#404040"><set attributeName="fill" to="#808080" begin="reset.mouseover" end="reset.mouseout"/></use>
  </g>
</defs>
<script type="application/ecmascript">
var viewWidth = 1366;
var viewHeight = 412;
var sectionId = 'dynsection-1';
</script>
<script type="application/ecmascript" xlink:href="../../svg.min.js"/>
<svg id="graph" class="graph">
<g id="viewport">
<title>sensor.hpp</title>
<!-- Node1 -->
<g id="Node000001" class="node">
<title>Node1</title>
<g id="a_Node000001"><a xlink:title=" ">
<polygon fill="#999999" stroke="#666666" points="1296.5,-404 1227.5,-404 1227.5,-385 1296.5,-385 1296.5,-404"/>
<text text-anchor="middle" x="1262" y="-392" font-family="Helvetica,sans-Serif" font-size="10.00">sensor.hpp</text>
</a>
</g>
</g>
<!-- Node2 -->
<g id="Node000002" class="node">
<title>Node2</title>
<g id="a_Node000002"><a xlink:href="../../d0/d00/main_8hpp.xhtml" target="_top" xlink:title=" ">
<polygon fill="white" stroke="#666666" points="678,-349 616,-349 616,-330 678,-330 678,-349"/>
<text text-anchor="middle" x="647" y="-337" font-family="Helvetica,sans-Serif" font-size="10.00">main.hpp</text>
</a>
</g>
</g>
<!-- Node1&#45;&gt;Node2 -->
<g id="edge1_Node000001_Node000002" class="edge">
<title>Node1&#45;&gt;Node2</title>
<g id="a_edge1_Node000001_Node000002"><a xlink:title=" ">
<path fill="none" stroke="#63b8ff" d="M1216.99,-389.62C1098.32,-379.39 779.13,-351.89 678.11,-343.18"/>
<polygon fill="#63b8ff" stroke="#63b8ff" points="1216.91,-393.13 1227.17,-390.5 1217.51,-386.15 1216.91,-393.13"/>
</a>
</g>
</g>
<!-- Node7 -->
<g id="Node000007" class="node">
<title>Node7</title>
<g id="a_Node000007"><a xlink:href="../../d5/d98/sd_8hpp.xhtml" target="_top" xlink:title=" ">
<polygon fill="white" stroke="#666666" points="1294.5,-239 1245.5,-239 1245.5,-220 1294.5,-220 1294.5,-239"/>
<text text-anchor="middle" x="1270" y="-227" font-family="Helvetica,sans-Serif" font-size="10.00">sd.hpp</text>
</a>
</g>
</g>
<!-- Node1&#45;&gt;Node7 -->
<g id="edge62_Node000001_Node000007" class="edge">
<title>Node1&#45;&gt;Node7</title>
<g id="a_edge62_Node000001_Node000007"><a xlink:title=" ">
<path fill="none" stroke="#63b8ff" d="M1262.94,-374.37C1264.67,-339.03 1268.32,-264.79 1269.57,-239.31"/>
<polygon fill="#63b8ff" stroke="#63b8ff" points="1259.42,-374.58 1262.43,-384.74 1266.42,-374.92 1259.42,-374.58"/>
</a>
</g>
</g>
<!-- Node40 -->
<g id="Node000040" class="node">
<title>Node40</title>
<g id="a_Node000040"><a xlink:href="../../da/dfa/sensor_8cpp.xhtml" target="_top" xlink:title=" ">
<polygon fill="white" stroke="#666666" points="1358,-349 1290,-349 1290,-330 1358,-330 1358,-349"/>
<text text-anchor="middle" x="1324" y="-337" font-family="Helvetica,sans-Serif" font-size="10.00">sensor.cpp</text>
</a>
</g>
</g>
<!-- Node1&#45;&gt;Node40 -->
<g id="edge63_Node000001_Node000040" class="edge">
<title>Node1&#45;&gt;Node40</title>
<g id="a_edge63_Node000001_Node000040"><a xlink:title=" ">
<path fill="none" stroke="#63b8ff" d="M1279.75,-378.32C1290.81,-368.87 1304.63,-357.06 1313.86,-349.17"/>
<polygon fill="#63b8ff" stroke="#63b8ff" points="1277.29,-375.83 1271.96,-384.98 1281.84,-381.15 1277.29,-375.83"/>
</a>
</g>
</g>
<!-- Node3 -->
<g id="Node000003" class="node">
<title>Node3</title>
<g id="a_Node000003"><a xlink:href="../../db/d0c/acquisition_8hpp.xhtml" target="_top" xlink:title=" ">
<polygon fill="white" stroke="#666666" points="1154.5,-294 1063.5,-294 1063.5,-275 1154.5,-275 1154.5,-294"/>
<text text-anchor="middle" x="1109" y="-282" font-family="Helvetica,sans-Serif" font-size="10.00">acquisition.hpp</text>
</a>
</g>
</g>
<!-- Node2&#45;&gt;Node3 -->
<g id="edge2_Node000002_Node000003" class="edge">
<title>Node2&#45;&gt;Node3</title>
<g id="a_edge2_Node000002_Node000003"><a xlink:title=" ">
<path fill="none" stroke="#63b8ff" d="M688.25,-334.26C760.84,-326.72 916.14,-310.25 1047,-294 1052.28,-293.34 1057.82,-292.63 1063.31,-291.9"/>
<polygon fill="#63b8ff" stroke="#63b8ff" points="687.74,-330.8 678.15,-335.31 688.46,-337.76 687.74,-330.8"/>
</a>
</g>
</g>
<!-- Node5 -->
<g id="Node000005" class="node">
<title>Node5</title>
<g id="a_Node000005"><a xlink:href="../../d8/dc9/maintenance_8hpp.xhtml" target="_top" xlink:title=" ">
<polygon fill="white" stroke="#666666" points="1093.5,-184 992.5,-184 992.5,-165 1093.5,-165 1093.5,-184"/>
<text text-anchor="middle" x="1043" y="-172" font-family="Helvetica,sans-Serif" font-size="10.00">maintenance.hpp</text>
</a>
</g>
</g>
<!-- Node2&#45;&gt;Node5 -->
<g id="edge46_Node000002_Node000005" class="edge">
<title>Node2&#45;&gt;Node5</title>
<g id="a_edge46_Node000002_Node000005"><a xlink:title=" ">
<path fill="none" stroke="#63b8ff" d="M688.2,-338.02C767.27,-336.28 935.99,-328.47 982,-294 1019.04,-266.25 1030.14,-206.43 1037.75,-184.12"/>
<polygon fill="#63b8ff" stroke="#63b8ff" points="688.04,-334.52 678.11,-338.22 688.17,-341.52 688.04,-334.52"/>
</a>
</g>
</g>
<!-- Node2&#45;&gt;Node7 -->
<g id="edge58_Node000002_Node000007" class="edge">
<title>Node2&#45;&gt;Node7</title>
<g id="a_edge58_Node000002_Node000007"><a xlink:title=" ">
<path fill="none" stroke="#63b8ff" d="M688.56,-337.19C793.81,-333.64 1067.99,-322.14 1155,-294 1193.17,-281.66 1232.14,-253.46 1253.88,-239.16"/>
<polygon fill="#63b8ff" stroke="#63b8ff" points="688.21,-333.7 678.33,-337.53 688.44,-340.69 688.21,-333.7"/>
</a>
</g>
</g>
<!-- Node9 -->
<g id="Node000009" class="node">
<title>Node9</title>
<g id="a_Node000009"><a xlink:href="../../df/d04/standard_8hpp.xhtml" target="_top" xlink:title=" ">
<polygon fill="white" stroke="#666666" points="995,-129 915,-129 915,-110 995,-110 995,-129"/>
<text text-anchor="middle" x="955" y="-117" font-family="Helvetica,sans-Serif" font-size="10.00">standard.hpp</text>
</a>
</g>
</g>
<!-- Node2&#45;&gt;Node9 -->
<g id="edge60_Node000002_Node000009" class="edge">
<title>Node2&#45;&gt;Node9</title>
<g id="a_edge60_Node000002_Node000009"><a xlink:title=" ">
<path fill="none" stroke="#63b8ff" d="M688.44,-335.01C750.44,-329.45 863.22,-316.8 897,-294 953.04,-256.18 949.4,-158.66 952.3,-129.11"/>
<polygon fill="#63b8ff" stroke="#63b8ff" points="687.87,-331.55 678.21,-335.91 688.48,-338.52 687.87,-331.55"/>
</a>
</g>
</g>
<!-- Node11 -->
<g id="Node000011" class="node">
<title>Node11</title>
<g id="a_Node000011"><a xlink:href="../../de/d53/brightness_8hpp.xhtml" target="_top" xlink:title=" ">
<polygon fill="white" stroke="#666666" points="227.5,-294 138.5,-294 138.5,-275 227.5,-275 227.5,-294"/>
<text text-anchor="middle" x="183" y="-282" font-family="Helvetica,sans-Serif" font-size="10.00">brightness.hpp</text>
</a>
</g>
</g>
<!-- Node2&#45;&gt;Node11 -->
<g id="edge14_Node000002_Node000011" class="edge">
<title>Node2&#45;&gt;Node11</title>
<g id="a_edge14_Node000002_Node000011"><a xlink:title=" ">
<path fill="none" stroke="#63b8ff" d="M605.71,-335.21C530.17,-328.56 365.43,-312.57 227.42,-294.06"/>
<polygon fill="#63b8ff" stroke="#63b8ff" points="605.49,-338.7 615.76,-336.08 606.1,-331.73 605.49,-338.7"/>
</a>
</g>
</g>
<!-- Node13 -->
<g id="Node000013" class="node">
<title>Node13</title>
<g id="a_Node000013"><a xlink:href="../../dc/d0a/configuration_8hpp.xhtml" target="_top" xlink:title=" ">
<polygon fill="white" stroke="#666666" points="346.5,-294 245.5,-294 245.5,-275 346.5,-275 346.5,-294"/>
<text text-anchor="middle" x="296" y="-282" font-family="Helvetica,sans-Serif" font-size="10.00">configuration.hpp</text>
</a>
</g>
</g>
<!-- Node2&#45;&gt;Node13 -->
<g id="edge17_Node000002_Node000013" class="edge">
<title>Node2&#45;&gt;Node13</title>
<g id="a_edge17_Node000002_Node000013"><a xlink:title=" ">
<path fill="none" stroke="#63b8ff" d="M605.72,-332.92C541.15,-323.62 416.73,-304.87 346.78,-293.94"/>
<polygon fill="#63b8ff" stroke="#63b8ff" points="605.53,-336.43 615.92,-334.39 606.52,-329.5 605.53,-336.43"/>
</a>
</g>
</g>
<!-- Node15 -->
<g id="Node000015" class="node">
<title>Node15</title>
<g id="a_Node000015"><a xlink:href="../../d0/d42/economy_8hpp.xhtml" target="_top" xlink:title=" ">
<polygon fill="white" stroke="#666666" points="445.5,-294 364.5,-294 364.5,-275 445.5,-275 445.5,-294"/>
<text text-anchor="middle" x="405" y="-282" font-family="Helvetica,sans-Serif" font-size="10.00">economy.hpp</text>
</a>
</g>
</g>
<!-- Node2&#45;&gt;Node15 -->
<g id="edge20_Node000002_Node000015" class="edge">
<title>Node2&#45;&gt;Node15</title>
<g id="a_edge20_Node000002_Node000015"><a xlink:title=" ">
<path fill="none" stroke="#63b8ff" d="M605.86,-330.58C558.73,-320.77 482.62,-304.11 438.79,-294.02"/>
<polygon fill="#63b8ff" stroke="#63b8ff" points="605.24,-334.03 615.74,-332.63 606.66,-327.17 605.24,-334.03"/>
</a>
</g>
</g>
<!-- Node17 -->
<g id="Node000017" class="node">
<title>Node17</title>
<g id="a_Node000017"><a xlink:href="../../de/d1e/humidity_8hpp.xhtml" target="_top" xlink:title=" ">
<polygon fill="white" stroke="#666666" points="80,-74 0,-74 0,-55 80,-55 80,-74"/>
<text text-anchor="middle" x="40" y="-62" font-family="Helvetica,sans-Serif" font-size="10.00">humidity.hpp</text>
</a>
</g>
</g>
<!-- Node2&#45;&gt;Node17 -->
<g id="edge23_Node000002_Node000017" class="edge">
<title>Node2&#45;&gt;Node17</title>
<g id="a_edge23_Node000002_Node000017"><a xlink:title=" ">
<path fill="none" stroke="#63b8ff" d="M605.37,-338.73C492.74,-338.88 185.2,-335.54 95,-294 58.61,-277.24 31,-270.57 31,-230.5 31,-230.5 31,-230.5 31,-173.5 31,-136.56 31,-92.52 35.1,-74.18"/>
<polygon fill="#63b8ff" stroke="#63b8ff" points="605.66,-342.23 615.65,-338.71 605.64,-335.23 605.66,-342.23"/>
</a>
</g>
</g>
<!-- Node19 -->
<g id="Node000019" class="node">
<title>Node19</title>
<g id="a_Node000019"><a xlink:href="../../db/d42/interpreter_8hpp.xhtml" target="_top" xlink:title=" ">
<polygon fill="white" stroke="#666666" points="618.5,-294 529.5,-294 529.5,-275 618.5,-275 618.5,-294"/>
<text text-anchor="middle" x="574" y="-282" font-family="Helvetica,sans-Serif" font-size="10.00">interpreter.hpp</text>
</a>
</g>
</g>
<!-- Node2&#45;&gt;Node19 -->
<g id="edge26_Node000002_Node000019" class="edge">
<title>Node2&#45;&gt;Node19</title>
<g id="a_edge26_Node000002_Node000019"><a xlink:title=" ">
<path fill="none" stroke="#63b8ff" d="M626.86,-323.88C613.72,-314.34 597.02,-302.21 585.94,-294.17"/>
<polygon fill="#63b8ff" stroke="#63b8ff" points="625.12,-326.94 635.27,-329.98 629.24,-321.28 625.12,-326.94"/>
</a>
</g>
</g>
<!-- Node21 -->
<g id="Node000021" class="node">
<title>Node21</title>
<g id="a_Node000021"><a xlink:href="../../d1/dc5/serial_8hpp.xhtml" target="_top" xlink:title=" ">
<polygon fill="white" stroke="#666666" points="684.5,-239 619.5,-239 619.5,-220 684.5,-220 684.5,-239"/>
<text text-anchor="middle" x="652" y="-227" font-family="Helvetica,sans-Serif" font-size="10.00">serial.hpp</text>
</a>
</g>
</g>
<!-- Node2&#45;&gt;Node21 -->
<g id="edge59_Node000002_Node000021" class="edge">
<title>Node2&#45;&gt;Node21</title>
<g id="a_edge59_Node000002_Node000021"><a xlink:title=" ">
<path fill="none" stroke="#63b8ff" d="M647.88,-319.48C648.97,-295.84 650.8,-256.5 651.6,-239.16"/>
<polygon fill="#63b8ff" stroke="#63b8ff" points="644.38,-319.51 647.41,-329.66 651.37,-319.83 644.38,-319.51"/>
</a>
</g>
</g>
<!-- Node25 -->
<g id="Node000025" class="node">
<title>Node25</title>
<g id="a_Node000025"><a xlink:href="../../d5/ddb/pressure_8hpp.xhtml" target="_top" xlink:title=" ">
<polygon fill="white" stroke="#666666" points="178,-74 98,-74 98,-55 178,-55 178,-74"/>
<text text-anchor="middle" x="138" y="-62" font-family="Helvetica,sans-Serif" font-size="10.00">pressure.hpp</text>
</a>
</g>
</g>
<!-- Node2&#45;&gt;Node25 -->
<g id="edge57_Node000002_Node000025" class="edge">
<title>Node2&#45;&gt;Node25</title>
<g id="a_edge57_Node000002_Node000025"><a xlink:title=" ">
<path fill="none" stroke="#63b8ff" d="M605.75,-337.35C488.47,-333.63 159.76,-320.54 120,-294 93.55,-276.34 87,-262.31 87,-230.5 87,-230.5 87,-230.5 87,-173.5 87,-134.07 111.62,-91.71 127.2,-74.02"/>
<polygon fill="#63b8ff" stroke="#63b8ff" points="605.68,-340.85 615.78,-337.67 605.89,-333.86 605.68,-340.85"/>
</a>
</g>
</g>
<!-- Node27 -->
<g id="Node000027" class="node">
<title>Node27</title>
<g id="a_Node000027"><a xlink:href="../../dc/d32/temperature_8hpp.xhtml" target="_top" xlink:title=" ">
<polygon fill="white" stroke="#666666" points="525,-74 427,-74 427,-55 525,-55 525,-74"/>
<text text-anchor="middle" x="476" y="-62" font-family="Helvetica,sans-Serif" font-size="10.00">temperature.hpp</text>
</a>
</g>
</g>
<!-- Node2&#45;&gt;Node27 -->
<g id="edge61_Node000002_Node000027" class="edge">
<title>Node2&#45;&gt;Node27</title>
<g id="a_edge61_Node000002_Node000027"><a xlink:title=" ">
<path fill="none" stroke="#63b8ff" d="M605.73,-334.9C575.61,-330.16 536.23,-319.21 512,-294 450.64,-230.16 461.33,-108.32 471.34,-74.44"/>
<polygon fill="#63b8ff" stroke="#63b8ff" points="605.57,-338.42 615.96,-336.34 606.54,-331.48 605.57,-338.42"/>
</a>
</g>
</g>
<!-- Node33 -->
<g id="Node000033" class="node">
<title>Node33</title>
<g id="a_Node000033"><a xlink:href="../../de/dfb/src_2main_8cpp.xhtml" target="_top" xlink:title=" ">
<polygon fill="white" stroke="#666666" points="897,-294 835,-294 835,-275 897,-275 897,-294"/>
<text text-anchor="middle" x="866" y="-282" font-family="Helvetica,sans-Serif" font-size="10.00">main.cpp</text>
</a>
</g>
</g>
<!-- Node2&#45;&gt;Node33 -->
<g id="edge45_Node000002_Node000033" class="edge">
<title>Node2&#45;&gt;Node33</title>
<g id="a_edge45_Node000002_Node000033"><a xlink:title=" ">
<path fill="none" stroke="#63b8ff" d="M688.14,-328.54C730.68,-318.25 796.17,-302.4 834.68,-293.08"/>
<polygon fill="#63b8ff" stroke="#63b8ff" points="687.27,-325.15 678.38,-330.91 688.92,-331.96 687.27,-325.15"/>
</a>
</g>
</g>
<!-- Node34 -->
<g id="Node000034" class="node">
<title>Node34</title>
<g id="a_Node000034"><a xlink:href="../../d1/dfa/mode_8hpp.xhtml" target="_top" xlink:title=" ">
<polygon fill="white" stroke="#666666" points="778.5,-294 713.5,-294 713.5,-275 778.5,-275 778.5,-294"/>
<text text-anchor="middle" x="746" y="-282" font-family="Helvetica,sans-Serif" font-size="10.00">mode.hpp</text>
</a>
</g>
</g>
<!-- Node2&#45;&gt;Node34 -->
<g id="edge47_Node000002_Node000034" class="edge">
<title>Node2&#45;&gt;Node34</title>
<g id="a_edge47_Node000002_Node000034"><a xlink:title=" ">
<path fill="none" stroke="#63b8ff" d="M666.78,-324.7C683.59,-315.04 707.41,-302.44 724.66,-294.17"/>
<polygon fill="#63b8ff" stroke="#63b8ff" points="664.63,-321.9 657.79,-329.98 668.18,-327.93 664.63,-321.9"/>
</a>
</g>
</g>
<!-- Node4 -->
<g id="Node000004" class="node">
<title>Node4</title>
<g id="a_Node000004"><a xlink:href="../../d6/d30/acquisition_8cpp.xhtml" target="_top" xlink:title=" ">
<polygon fill="white" stroke="#666666" points="1227,-239 1137,-239 1137,-220 1227,-220 1227,-239"/>
<text text-anchor="middle" x="1182" y="-227" font-family="Helvetica,sans-Serif" font-size="10.00">acquisition.cpp</text>
</a>
</g>
</g>
<!-- Node3&#45;&gt;Node4 -->
<g id="edge3_Node000003_Node000004" class="edge">
<title>Node3&#45;&gt;Node4</title>
<g id="a_edge3_Node000003_Node000004"><a xlink:title=" ">
<path fill="none" stroke="#63b8ff" d="M1129.14,-268.88C1142.28,-259.34 1158.98,-247.21 1170.06,-239.17"/>
<polygon fill="#63b8ff" stroke="#63b8ff" points="1126.76,-266.28 1120.73,-274.98 1130.88,-271.94 1126.76,-266.28"/>
</a>
</g>
</g>
<!-- Node3&#45;&gt;Node5 -->
<g id="edge4_Node000003_Node000005" class="edge">
<title>Node3&#45;&gt;Node5</title>
<g id="a_edge4_Node000003_Node000005"><a xlink:title=" ">
<path fill="none" stroke="#63b8ff" d="M1098.35,-266.07C1084.03,-242.64 1059.13,-201.89 1048.29,-184.16"/>
<polygon fill="#63b8ff" stroke="#63b8ff" points="1095.4,-267.95 1103.6,-274.66 1101.37,-264.3 1095.4,-267.95"/>
</a>
</g>
</g>
<!-- Node3&#45;&gt;Node7 -->
<g id="edge7_Node000003_Node000007" class="edge">
<title>Node3&#45;&gt;Node7</title>
<g id="a_edge7_Node000003_Node000007"><a xlink:title=" ">
<path fill="none" stroke="#63b8ff" d="M1144.7,-271.75C1175.23,-261.7 1218.39,-247.49 1245.25,-238.65"/>
<polygon fill="#63b8ff" stroke="#63b8ff" points="1143.27,-268.53 1134.87,-274.98 1145.46,-275.18 1143.27,-268.53"/>
</a>
</g>
</g>
<!-- Node3&#45;&gt;Node9 -->
<g id="edge11_Node000003_Node000009" class="edge">
<title>Node3&#45;&gt;Node9</title>
<g id="a_edge11_Node000003_Node000009"><a xlink:title=" ">
<path fill="none" stroke="#63b8ff" d="M1114,-265.11C1119.7,-239.72 1125.58,-193.81 1103,-165 1089.64,-147.95 1034.23,-134.7 995.15,-127.24"/>
<polygon fill="#63b8ff" stroke="#63b8ff" points="1110.57,-264.36 1111.57,-274.91 1117.37,-266.05 1110.57,-264.36"/>
</a>
</g>
</g>
<!-- Node5&#45;&gt;Node2 -->
<g id="edge5_Node000005_Node000002" class="edge">
<title>Node5&#45;&gt;Node2</title>
<g id="a_edge5_Node000005_Node000002"><a xlink:title=" ">
<path fill="none" stroke="#63b8ff" d="M1046.39,-194.47C1044.85,-221.32 1032.27,-269.83 1000,-294 950,-331.46 755.05,-337.43 678.19,-338.35"/>
<polygon fill="#63b8ff" stroke="#63b8ff" points="1049.89,-194.12 1046.37,-184.12 1042.89,-194.12 1049.89,-194.12"/>
</a>
</g>
</g>
<!-- Node6 -->
<g id="Node000006" class="node">
<title>Node6</title>
<g id="a_Node000006"><a xlink:href="../../d6/d46/maintenance_8cpp.xhtml" target="_top" xlink:title=" ">
<polygon fill="white" stroke="#666666" points="1114.5,-129 1013.5,-129 1013.5,-110 1114.5,-110 1114.5,-129"/>
<text text-anchor="middle" x="1064" y="-117" font-family="Helvetica,sans-Serif" font-size="10.00">maintenance.cpp</text>
</a>
</g>
</g>
<!-- Node5&#45;&gt;Node6 -->
<g id="edge6_Node000005_Node000006" class="edge">
<title>Node5&#45;&gt;Node6</title>
<g id="a_edge6_Node000005_Node000006"><a xlink:title=" ">
<path fill="none" stroke="#63b8ff" d="M1050.24,-155.24C1053.75,-146.37 1057.8,-136.14 1060.6,-129.09"/>
<polygon fill="#63b8ff" stroke="#63b8ff" points="1046.9,-154.16 1046.47,-164.75 1053.41,-156.74 1046.9,-154.16"/>
</a>
</g>
</g>
<!-- Node7&#45;&gt;Node2 -->
<g id="edge8_Node000007_Node000002" class="edge">
<title>Node7&#45;&gt;Node2</title>
<g id="a_edge8_Node000007_Node000002"><a xlink:title=" ">
<path fill="none" stroke="#63b8ff" d="M1256.99,-246.18C1238.83,-261.32 1205.63,-283.45 1173,-294 1080.53,-323.91 776.72,-335.01 678.08,-337.76"/>
<polygon fill="#63b8ff" stroke="#63b8ff" points="1259.47,-248.65 1264.62,-239.39 1254.82,-243.42 1259.47,-248.65"/>
</a>
</g>
</g>
<!-- Node7&#45;&gt;Node5 -->
<g id="edge9_Node000007_Node000005" class="edge">
<title>Node7&#45;&gt;Node5</title>
<g id="a_edge9_Node000007_Node000005"><a xlink:title=" ">
<path fill="none" stroke="#63b8ff" d="M1235.52,-219.92C1175.84,-205.62 1118.05,-192.42 1081.13,-184.08"/>
<polygon fill="#63b8ff" stroke="#63b8ff" points="1234.96,-223.39 1245.5,-222.32 1236.59,-216.58 1234.96,-223.39"/>
</a>
</g>
</g>
<!-- Node8 -->
<g id="Node000008" class="node">
<title>Node8</title>
<g id="a_Node000008"><a xlink:href="../../d0/ded/sd_8cpp.xhtml" target="_top" xlink:title=" ">
<polygon fill="white" stroke="#666666" points="1294,-184 1246,-184 1246,-165 1294,-165 1294,-184"/>
<text text-anchor="middle" x="1270" y="-172" font-family="Helvetica,sans-Serif" font-size="10.00">sd.cpp</text>
</a>
</g>
</g>
<!-- Node7&#45;&gt;Node8 -->
<g id="edge10_Node000007_Node000008" class="edge">
<title>Node7&#45;&gt;Node8</title>
<g id="a_edge10_Node000007_Node000008"><a xlink:title=" ">
<path fill="none" stroke="#63b8ff" d="M1270,-209.66C1270,-200.93 1270,-190.99 1270,-184.09"/>
<polygon fill="#63b8ff" stroke="#63b8ff" points="1266.5,-209.75 1270,-219.75 1273.5,-209.75 1266.5,-209.75"/>
</a>
</g>
</g>
<!-- Node9&#45;&gt;Node2 -->
<g id="edge12_Node000009_Node000002" class="edge">
<title>Node9&#45;&gt;Node2</title>
<g id="a_edge12_Node000009_Node000002"><a xlink:title=" ">
<path fill="none" stroke="#63b8ff" d="M961.55,-139.11C967.56,-176.42 965.79,-259.73 915,-294 877.18,-319.52 740.37,-332.33 678.04,-336.71"/>
<polygon fill="#63b8ff" stroke="#63b8ff" points="964.94,-138.2 959.48,-129.11 958.08,-139.62 964.94,-138.2"/>
</a>
</g>
</g>
<!-- Node10 -->
<g id="Node000010" class="node">
<title>Node10</title>
<g id="a_Node000010"><a xlink:href="../../df/d92/standard_8cpp.xhtml" target="_top" xlink:title=" ">
<polygon fill="white" stroke="#666666" points="995,-74 915,-74 915,-55 995,-55 995,-74"/>
<text text-anchor="middle" x="955" y="-62" font-family="Helvetica,sans-Serif" font-size="10.00">standard.cpp</text>
</a>
</g>
</g>
<!-- Node9&#45;&gt;Node10 -->
<g id="edge13_Node000009_Node000010" class="edge">
<title>Node9&#45;&gt;Node10</title>
<g id="a_edge13_Node000009_Node000010"><a xlink:title=" ">
<path fill="none" stroke="#63b8ff" d="M955,-99.66C955,-90.93 955,-80.99 955,-74.09"/>
<polygon fill="#63b8ff" stroke="#63b8ff" points="951.5,-99.75 955,-109.75 958.5,-99.75 951.5,-99.75"/>
</a>
</g>
</g>
<!-- Node11&#45;&gt;Node2 -->
<g id="edge16_Node000011_Node000002" class="edge">
<title>Node11&#45;&gt;Node2</title>
<g id="a_edge16_Node000011_Node000002"><a xlink:title=" ">
<path fill="none" stroke="#63b8ff" d="M237.84,-293C240.27,-293.35 242.66,-293.69 245,-294 383.18,-312.55 548.3,-328.57 615.98,-335.22"/>
<polygon fill="#63b8ff" stroke="#63b8ff" points="238.17,-289.51 227.77,-291.51 237.15,-296.44 238.17,-289.51"/>
</a>
</g>
</g>
<!-- Node12 -->
<g id="Node000012" class="node">
<title>Node12</title>
<g id="a_Node000012"><a xlink:href="../../d8/d9d/brightness_8cpp.xhtml" target="_top" xlink:title=" ">
<polygon fill="white" stroke="#666666" points="221,-239 133,-239 133,-220 221,-220 221,-239"/>
<text text-anchor="middle" x="177" y="-227" font-family="Helvetica,sans-Serif" font-size="10.00">brightness.cpp</text>
</a>
</g>
</g>
<!-- Node11&#45;&gt;Node12 -->
<g id="edge15_Node000011_Node000012" class="edge">
<title>Node11&#45;&gt;Node12</title>
<g id="a_edge15_Node000011_Node000012"><a xlink:title=" ">
<path fill="none" stroke="#63b8ff" d="M180.87,-264.66C179.88,-255.93 178.75,-245.99 177.97,-239.09"/>
<polygon fill="#63b8ff" stroke="#63b8ff" points="177.41,-265.21 182.01,-274.75 184.36,-264.42 177.41,-265.21"/>
</a>
</g>
</g>
<!-- Node13&#45;&gt;Node2 -->
<g id="edge19_Node000013_Node000002" class="edge">
<title>Node13&#45;&gt;Node2</title>
<g id="a_edge19_Node000013_Node000002"><a xlink:title=" ">
<path fill="none" stroke="#63b8ff" d="M357.03,-293.95C432.53,-304.98 557.99,-323.96 616,-333.18"/>
<polygon fill="#63b8ff" stroke="#63b8ff" points="357.12,-290.42 346.72,-292.44 356.11,-297.35 357.12,-290.42"/>
</a>
</g>
</g>
<!-- Node14 -->
<g id="Node000014" class="node">
<title>Node14</title>
<g id="a_Node000014"><a xlink:href="../../df/d22/configuration_8cpp.xhtml" target="_top" xlink:title=" ">
<polygon fill="white" stroke="#666666" points="340.5,-239 239.5,-239 239.5,-220 340.5,-220 340.5,-239"/>
<text text-anchor="middle" x="290" y="-227" font-family="Helvetica,sans-Serif" font-size="10.00">configuration.cpp</text>
</a>
</g>
</g>
<!-- Node13&#45;&gt;Node14 -->
<g id="edge18_Node000013_Node000014" class="edge">
<title>Node13&#45;&gt;Node14</title>
<g id="a_edge18_Node000013_Node000014"><a xlink:title=" ">
<path fill="none" stroke="#63b8ff" d="M293.87,-264.66C292.88,-255.93 291.75,-245.99 290.97,-239.09"/>
<polygon fill="#63b8ff" stroke="#63b8ff" points="290.41,-265.21 295.01,-274.75 297.36,-264.42 290.41,-265.21"/>
</a>
</g>
</g>
<!-- Node15&#45;&gt;Node2 -->
<g id="edge22_Node000015_Node000002" class="edge">
<title>Node15&#45;&gt;Node2</title>
<g id="a_edge22_Node000015_Node000002"><a xlink:title=" ">
<path fill="none" stroke="#63b8ff" d="M455.59,-295.4C503.93,-305.56 575.12,-321.18 615.75,-330.57"/>
<polygon fill="#63b8ff" stroke="#63b8ff" points="456.15,-291.94 445.64,-293.32 454.71,-298.79 456.15,-291.94"/>
</a>
</g>
</g>
<!-- Node16 -->
<g id="Node000016" class="node">
<title>Node16</title>
<g id="a_Node000016"><a xlink:href="../../d9/ddd/economy_8cpp.xhtml" target="_top" xlink:title=" ">
<polygon fill="white" stroke="#666666" points="439,-239 359,-239 359,-220 439,-220 439,-239"/>
<text text-anchor="middle" x="399" y="-227" font-family="Helvetica,sans-Serif" font-size="10.00">economy.cpp</text>
</a>
</g>
</g>
<!-- Node15&#45;&gt;Node16 -->
<g id="edge21_Node000015_Node000016" class="edge">
<title>Node15&#45;&gt;Node16</title>
<g id="a_edge21_Node000015_Node000016"><a xlink:title=" ">
<path fill="none" stroke="#63b8ff" d="M402.87,-264.66C401.88,-255.93 400.75,-245.99 399.97,-239.09"/>
<polygon fill="#63b8ff" stroke="#63b8ff" points="399.41,-265.21 404.01,-274.75 406.36,-264.42 399.41,-265.21"/>
</a>
</g>
</g>
<!-- Node17&#45;&gt;Node2 -->
<g id="edge25_Node000017_Node000002" class="edge">
<title>Node17&#45;&gt;Node2</title>
<g id="a_edge25_Node000017_Node000002"><a xlink:title=" ">
<path fill="none" stroke="#63b8ff" d="M46.5,-84.23C49,-105.77 49,-142.19 49,-173.5 49,-230.5 49,-230.5 49,-230.5 49,-270.57 76.61,-277.24 113,-294 203.96,-335.89 515.95,-338.93 616,-338.73"/>
<polygon fill="#63b8ff" stroke="#63b8ff" points="49.93,-83.5 44.9,-74.18 43.02,-84.61 49.93,-83.5"/>
</a>
</g>
</g>
<!-- Node18 -->
<g id="Node000018" class="node">
<title>Node18</title>
<g id="a_Node000018"><a xlink:href="../../dd/d8e/humidity_8cpp.xhtml" target="_top" xlink:title=" ">
<polygon fill="white" stroke="#666666" points="79.5,-19 0.5,-19 0.5,0 79.5,0 79.5,-19"/>
<text text-anchor="middle" x="40" y="-7" font-family="Helvetica,sans-Serif" font-size="10.00">humidity.cpp</text>
</a>
</g>
</g>
<!-- Node17&#45;&gt;Node18 -->
<g id="edge24_Node000017_Node000018" class="edge">
<title>Node17&#45;&gt;Node18</title>
<g id="a_edge24_Node000017_Node000018"><a xlink:title=" ">
<path fill="none" stroke="#63b8ff" d="M40,-44.66C40,-35.93 40,-25.99 40,-19.09"/>
<polygon fill="#63b8ff" stroke="#63b8ff" points="36.5,-44.75 40,-54.75 43.5,-44.75 36.5,-44.75"/>
</a>
</g>
</g>
<!-- Node20 -->
<g id="Node000020" class="node">
<title>Node20</title>
<g id="a_Node000020"><a xlink:href="../../d2/de2/interpreter_8cpp.xhtml" target="_top" xlink:title=" ">
<polygon fill="white" stroke="#666666" points="601,-239 513,-239 513,-220 601,-220 601,-239"/>
<text text-anchor="middle" x="557" y="-227" font-family="Helvetica,sans-Serif" font-size="10.00">interpreter.cpp</text>
</a>
</g>
</g>
<!-- Node19&#45;&gt;Node20 -->
<g id="edge27_Node000019_Node000020" class="edge">
<title>Node19&#45;&gt;Node20</title>
<g id="a_edge27_Node000019_Node000020"><a xlink:title=" ">
<path fill="none" stroke="#63b8ff" d="M568.05,-264.95C565.23,-256.15 561.99,-246.06 559.75,-239.09"/>
<polygon fill="#63b8ff" stroke="#63b8ff" points="564.81,-266.29 571.19,-274.75 571.47,-264.16 564.81,-266.29"/>
</a>
</g>
</g>
<!-- Node19&#45;&gt;Node21 -->
<g id="edge28_Node000019_Node000021" class="edge">
<title>Node19&#45;&gt;Node21</title>
<g id="a_edge28_Node000019_Node000021"><a xlink:title=" ">
<path fill="none" stroke="#63b8ff" d="M595.12,-269.15C609.21,-259.57 627.29,-247.29 639.24,-239.17"/>
<polygon fill="#63b8ff" stroke="#63b8ff" points="592.84,-266.47 586.53,-274.98 596.77,-272.26 592.84,-266.47"/>
</a>
</g>
</g>
<!-- Node21&#45;&gt;Node5 -->
<g id="edge43_Node000021_Node000005" class="edge">
<title>Node21&#45;&gt;Node5</title>
<g id="a_edge43_Node000021_Node000005"><a xlink:title=" ">
<path fill="none" stroke="#63b8ff" d="M694.66,-220.01C806.87,-201.76 926.18,-187.95 992.26,-180.8"/>
<polygon fill="#63b8ff" stroke="#63b8ff" points="693.82,-216.6 684.52,-221.68 694.95,-223.51 693.82,-216.6"/>
</a>
</g>
</g>
<!-- Node22 -->
<g id="Node000022" class="node">
<title>Node22</title>
<g id="a_Node000022"><a xlink:href="../../d9/d99/error_8hpp.xhtml" target="_top" xlink:title=" ">
<polygon fill="white" stroke="#666666" points="727,-184 667,-184 667,-165 727,-165 727,-184"/>
<text text-anchor="middle" x="697" y="-172" font-family="Helvetica,sans-Serif" font-size="10.00">error.hpp</text>
</a>
</g>
</g>
<!-- Node21&#45;&gt;Node22 -->
<g id="edge29_Node000021_Node000022" class="edge">
<title>Node21&#45;&gt;Node22</title>
<g id="a_edge29_Node000021_Node000022"><a xlink:title=" ">
<path fill="none" stroke="#63b8ff" d="M666.05,-211.96C673.89,-202.72 683.33,-191.6 689.71,-184.09"/>
<polygon fill="#63b8ff" stroke="#63b8ff" points="663.24,-209.86 659.43,-219.75 668.57,-214.39 663.24,-209.86"/>
</a>
</g>
</g>
<!-- Node32 -->
<g id="Node000032" class="node">
<title>Node32</title>
<g id="a_Node000032"><a xlink:href="../../de/d25/serial_8cpp.xhtml" target="_top" xlink:title=" ">
<polygon fill="white" stroke="#666666" points="649,-184 585,-184 585,-165 649,-165 649,-184"/>
<text text-anchor="middle" x="617" y="-172" font-family="Helvetica,sans-Serif" font-size="10.00">serial.cpp</text>
</a>
</g>
</g>
<!-- Node21&#45;&gt;Node32 -->
<g id="edge44_Node000021_Node000032" class="edge">
<title>Node21&#45;&gt;Node32</title>
<g id="a_edge44_Node000021_Node000032"><a xlink:title=" ">
<path fill="none" stroke="#63b8ff" d="M640.7,-211.39C634.68,-202.27 627.53,-191.45 622.67,-184.09"/>
<polygon fill="#63b8ff" stroke="#63b8ff" points="637.79,-213.33 646.22,-219.75 643.63,-209.47 637.79,-213.33"/>
</a>
</g>
</g>
<!-- Node22&#45;&gt;Node9 -->
<g id="edge42_Node000022_Node000009" class="edge">
<title>Node22&#45;&gt;Node9</title>
<g id="a_edge42_Node000022_Node000009"><a xlink:title=" ">
<path fill="none" stroke="#63b8ff" d="M737.22,-164.77C804.99,-150.54 872.69,-136.9 914.6,-128.53"/>
<polygon fill="#63b8ff" stroke="#63b8ff" points="736.29,-161.38 727.22,-166.87 737.73,-168.23 736.29,-161.38"/>
</a>
</g>
</g>
<!-- Node23 -->
<g id="Node000023" class="node">
<title>Node23</title>
<g id="a_Node000023"><a xlink:href="../../d3/d42/bme_8hpp.xhtml" target="_top" xlink:title=" ">
<polygon fill="white" stroke="#666666" points="332.5,-129 273.5,-129 273.5,-110 332.5,-110 332.5,-129"/>
<text text-anchor="middle" x="303" y="-117" font-family="Helvetica,sans-Serif" font-size="10.00">bme.hpp</text>
</a>
</g>
</g>
<!-- Node22&#45;&gt;Node23 -->
<g id="edge30_Node000022_Node000023" class="edge">
<title>Node22&#45;&gt;Node23</title>
<g id="a_edge30_Node000022_Node000023"><a xlink:title=" ">
<path fill="none" stroke="#63b8ff" d="M656.6,-164.9C530.45,-143.65 392.05,-129.12 332.59,-123.3"/>
<polygon fill="#63b8ff" stroke="#63b8ff" points="656.37,-168.41 666.82,-166.64 657.55,-161.51 656.37,-168.41"/>
</a>
</g>
</g>
<!-- Node29 -->
<g id="Node000029" class="node">
<title>Node29</title>
<g id="a_Node000029"><a xlink:href="../../dd/db1/error_8cpp.xhtml" target="_top" xlink:title=" ">
<polygon fill="white" stroke="#666666" points="764.5,-129 705.5,-129 705.5,-110 764.5,-110 764.5,-129"/>
<text text-anchor="middle" x="735" y="-117" font-family="Helvetica,sans-Serif" font-size="10.00">error.cpp</text>
</a>
</g>
</g>
<!-- Node22&#45;&gt;Node29 -->
<g id="edge39_Node000022_Node000029" class="edge">
<title>Node22&#45;&gt;Node29</title>
<g id="a_edge39_Node000022_Node000029"><a xlink:title=" ">
<path fill="none" stroke="#63b8ff" d="M709.27,-156.39C715.81,-147.27 723.57,-136.45 728.84,-129.09"/>
<polygon fill="#63b8ff" stroke="#63b8ff" points="706.26,-154.58 703.27,-164.75 711.95,-158.66 706.26,-154.58"/>
</a>
</g>
</g>
<!-- Node30 -->
<g id="Node000030" class="node">
<title>Node30</title>
<g id="a_Node000030"><a xlink:href="../../db/d45/gps_8hpp.xhtml" target="_top" xlink:title=" ">
<polygon fill="white" stroke="#666666" points="687.5,-129 632.5,-129 632.5,-110 687.5,-110 687.5,-129"/>
<text text-anchor="middle" x="660" y="-117" font-family="Helvetica,sans-Serif" font-size="10.00">gps.hpp</text>
</a>
</g>
</g>
<!-- Node22&#45;&gt;Node30 -->
<g id="edge40_Node000022_Node000030" class="edge">
<title>Node22&#45;&gt;Node30</title>
<g id="a_edge40_Node000022_Node000030"><a xlink:title=" ">
<path fill="none" stroke="#63b8ff" d="M685.05,-156.39C678.69,-147.27 671.13,-136.45 666,-129.09"/>
<polygon fill="#63b8ff" stroke="#63b8ff" points="682.3,-158.55 690.89,-164.75 688.04,-154.55 682.3,-158.55"/>
</a>
</g>
</g>
<!-- Node23&#45;&gt;Node17 -->
<g id="edge32_Node000023_Node000017" class="edge">
<title>Node23&#45;&gt;Node17</title>
<g id="a_edge32_Node000023_Node000017"><a xlink:title=" ">
<path fill="none" stroke="#63b8ff" d="M263.35,-110.51C213.94,-100.55 129.96,-83.63 80.27,-73.61"/>
<polygon fill="#63b8ff" stroke="#63b8ff" points="262.85,-113.98 273.34,-112.52 264.23,-107.12 262.85,-113.98"/>
</a>
</g>
</g>
<!-- Node24 -->
<g id="Node000024" class="node">
<title>Node24</title>
<g id="a_Node000024"><a xlink:href="../../d4/d82/bme_8cpp.xhtml" target="_top" xlink:title=" ">
<polygon fill="white" stroke="#666666" points="332.5,-74 273.5,-74 273.5,-55 332.5,-55 332.5,-74"/>
<text text-anchor="middle" x="303" y="-62" font-family="Helvetica,sans-Serif" font-size="10.00">bme.cpp</text>
</a>
</g>
</g>
<!-- Node23&#45;&gt;Node24 -->
<g id="edge31_Node000023_Node000024" class="edge">
<title>Node23&#45;&gt;Node24</title>
<g id="a_edge31_Node000023_Node000024"><a xlink:title=" ">
<path fill="none" stroke="#63b8ff" d="M303,-99.66C303,-90.93 303,-80.99 303,-74.09"/>
<polygon fill="#63b8ff" stroke="#63b8ff" points="299.5,-99.75 303,-109.75 306.5,-99.75 299.5,-99.75"/>
</a>
</g>
</g>
<!-- Node23&#45;&gt;Node25 -->
<g id="edge33_Node000023_Node000025" class="edge">
<title>Node23&#45;&gt;Node25</title>
<g id="a_edge33_Node000023_Node000025"><a xlink:title=" ">
<path fill="none" stroke="#63b8ff" d="M266.57,-106.8C235.78,-96.91 192.38,-82.97 164.72,-74.08"/>
<polygon fill="#63b8ff" stroke="#63b8ff" points="265.9,-110.26 276.49,-109.98 268.04,-103.59 265.9,-110.26"/>
</a>
</g>
</g>
<!-- Node23&#45;&gt;Node27 -->
<g id="edge36_Node000023_Node000027" class="edge">
<title>Node23&#45;&gt;Node27</title>
<g id="a_edge36_Node000023_Node000027"><a xlink:title=" ">
<path fill="none" stroke="#63b8ff" d="M340.77,-106.93C373.09,-97.03 418.86,-83.01 447.99,-74.08"/>
<polygon fill="#63b8ff" stroke="#63b8ff" points="339.33,-103.71 330.8,-109.98 341.38,-110.4 339.33,-103.71"/>
</a>
</g>
</g>
<!-- Node25&#45;&gt;Node2 -->
<g id="edge34_Node000025_Node000002" class="edge">
<title>Node25&#45;&gt;Node2</title>
<g id="a_edge34_Node000025_Node000002"><a xlink:title=" ">
<path fill="none" stroke="#63b8ff" d="M132.92,-83.15C123.02,-103.89 105,-139.77 105,-173.5 105,-230.5 105,-230.5 105,-230.5 105,-262.31 111.55,-276.34 138,-294 178.02,-320.72 510.81,-333.8 615.64,-337.43"/>
<polygon fill="#63b8ff" stroke="#63b8ff" points="136.12,-84.57 137.12,-74.02 129.76,-81.64 136.12,-84.57"/>
</a>
</g>
</g>
<!-- Node26 -->
<g id="Node000026" class="node">
<title>Node26</title>
<g id="a_Node000026"><a xlink:href="../../d8/ddf/pressure_8cpp.xhtml" target="_top" xlink:title=" ">
<polygon fill="white" stroke="#666666" points="177.5,-19 98.5,-19 98.5,0 177.5,0 177.5,-19"/>
<text text-anchor="middle" x="138" y="-7" font-family="Helvetica,sans-Serif" font-size="10.00">pressure.cpp</text>
</a>
</g>
</g>
<!-- Node25&#45;&gt;Node26 -->
<g id="edge35_Node000025_Node000026" class="edge">
<title>Node25&#45;&gt;Node26</title>
<g id="a_edge35_Node000025_Node000026"><a xlink:title=" ">
<path fill="none" stroke="#63b8ff" d="M138,-44.66C138,-35.93 138,-25.99 138,-19.09"/>
<polygon fill="#63b8ff" stroke="#63b8ff" points="134.5,-44.75 138,-54.75 141.5,-44.75 134.5,-44.75"/>
</a>
</g>
</g>
<!-- Node27&#45;&gt;Node2 -->
<g id="edge37_Node000027_Node000002" class="edge">
<title>Node27&#45;&gt;Node2</title>
<g id="a_edge37_Node000027_Node000002"><a xlink:title=" ">
<path fill="none" stroke="#63b8ff" d="M478.18,-84.47C478.06,-127.92 473.68,-235.39 530,-294 552.99,-317.92 589.61,-329 615.89,-334.12"/>
<polygon fill="#63b8ff" stroke="#63b8ff" points="481.68,-84.4 478.07,-74.44 474.68,-84.48 481.68,-84.4"/>
</a>
</g>
</g>
<!-- Node28 -->
<g id="Node000028" class="node">
<title>Node28</title>
<g id="a_Node000028"><a xlink:href="../../d0/d3d/temperature_8cpp.xhtml" target="_top" xlink:title=" ">
<polygon fill="white" stroke="#666666" points="525,-19 427,-19 427,0 525,0 525,-19"/>
<text text-anchor="middle" x="476" y="-7" font-family="Helvetica,sans-Serif" font-size="10.00">temperature.cpp</text>
</a>
</g>
</g>
<!-- Node27&#45;&gt;Node28 -->
<g id="edge38_Node000027_Node000028" class="edge">
<title>Node27&#45;&gt;Node28</title>
<g id="a_edge38_Node000027_Node000028"><a xlink:title=" ">
<path fill="none" stroke="#63b8ff" d="M476,-44.66C476,-35.93 476,-25.99 476,-19.09"/>
<polygon fill="#63b8ff" stroke="#63b8ff" points="472.5,-44.75 476,-54.75 479.5,-44.75 472.5,-44.75"/>
</a>
</g>
</g>
<!-- Node31 -->
<g id="Node000031" class="node">
<title>Node31</title>
<g id="a_Node000031"><a xlink:href="../../dc/d3d/gps_8cpp.xhtml" target="_top" xlink:title=" ">
<polygon fill="white" stroke="#666666" points="687,-74 633,-74 633,-55 687,-55 687,-74"/>
<text text-anchor="middle" x="660" y="-62" font-family="Helvetica,sans-Serif" font-size="10.00">gps.cpp</text>
</a>
</g>
</g>
<!-- Node30&#45;&gt;Node31 -->
<g id="edge41_Node000030_Node000031" class="edge">
<title>Node30&#45;&gt;Node31</title>
<g id="a_edge41_Node000030_Node000031"><a xlink:title=" ">
<path fill="none" stroke="#63b8ff" d="M660,-99.66C660,-90.93 660,-80.99 660,-74.09"/>
<polygon fill="#63b8ff" stroke="#63b8ff" points="656.5,-99.75 660,-109.75 663.5,-99.75 656.5,-99.75"/>
</a>
</g>
</g>
<!-- Node34&#45;&gt;Node2 -->
<g id="edge55_Node000034_Node000002" class="edge">
<title>Node34&#45;&gt;Node2</title>
<g id="a_edge55_Node000034_Node000002"><a xlink:title=" ">
<path fill="none" stroke="#63b8ff" d="M725.91,-299.49C709.01,-309.18 685.19,-321.77 668.02,-329.98"/>
<polygon fill="#63b8ff" stroke="#63b8ff" points="728.1,-302.25 734.95,-294.17 724.56,-296.22 728.1,-302.25"/>
</a>
</g>
</g>
<!-- Node35 -->
<g id="Node000035" class="node">
<title>Node35</title>
<g id="a_Node000035"><a xlink:href="../../df/d0a/buttons_8hpp.xhtml" target="_top" xlink:title=" ">
<polygon fill="white" stroke="#666666" points="931,-239 857,-239 857,-220 931,-220 931,-239"/>
<text text-anchor="middle" x="894" y="-227" font-family="Helvetica,sans-Serif" font-size="10.00">buttons.hpp</text>
</a>
</g>
</g>
<!-- Node34&#45;&gt;Node35 -->
<g id="edge48_Node000034_Node000035" class="edge">
<title>Node34&#45;&gt;Node35</title>
<g id="a_edge48_Node000034_Node000035"><a xlink:title=" ">
<path fill="none" stroke="#63b8ff" d="M779.37,-271.55C806.85,-261.71 845.17,-247.98 869.79,-239.17"/>
<polygon fill="#63b8ff" stroke="#63b8ff" points="778.01,-268.32 769.78,-274.98 780.37,-274.91 778.01,-268.32"/>
</a>
</g>
</g>
<!-- Node37 -->
<g id="Node000037" class="node">
<title>Node37</title>
<g id="a_Node000037"><a xlink:href="../../d4/d76/led_8hpp.xhtml" target="_top" xlink:title=" ">
<polygon fill="white" stroke="#666666" points="755.5,-239 702.5,-239 702.5,-220 755.5,-220 755.5,-239"/>
<text text-anchor="middle" x="729" y="-227" font-family="Helvetica,sans-Serif" font-size="10.00">led.hpp</text>
</a>
</g>
</g>
<!-- Node34&#45;&gt;Node37 -->
<g id="edge51_Node000034_Node000037" class="edge">
<title>Node34&#45;&gt;Node37</title>
<g id="a_edge51_Node000034_Node000037"><a xlink:title=" ">
<path fill="none" stroke="#63b8ff" d="M740.05,-264.95C737.23,-256.15 733.99,-246.06 731.75,-239.09"/>
<polygon fill="#63b8ff" stroke="#63b8ff" points="736.81,-266.29 743.19,-274.75 743.47,-264.16 736.81,-266.29"/>
</a>
</g>
</g>
<!-- Node39 -->
<g id="Node000039" class="node">
<title>Node39</title>
<g id="a_Node000039"><a xlink:href="../../d9/d88/mode_8cpp.xhtml" target="_top" xlink:title=" ">
<polygon fill="white" stroke="#666666" points="838.5,-239 773.5,-239 773.5,-220 838.5,-220 838.5,-239"/>
<text text-anchor="middle" x="806" y="-227" font-family="Helvetica,sans-Serif" font-size="10.00">mode.cpp</text>
</a>
</g>
</g>
<!-- Node34&#45;&gt;Node39 -->
<g id="edge56_Node000034_Node000039" class="edge">
<title>Node34&#45;&gt;Node39</title>
<g id="a_edge56_Node000034_Node000039"><a xlink:title=" ">
<path fill="none" stroke="#63b8ff" d="M763.18,-268.32C773.88,-258.87 787.26,-247.06 796.18,-239.17"/>
<polygon fill="#63b8ff" stroke="#63b8ff" points="760.82,-265.74 755.64,-274.98 765.45,-270.99 760.82,-265.74"/>
</a>
</g>
</g>
<!-- Node35&#45;&gt;Node2 -->
<g id="edge50_Node000035_Node000002" class="edge">
<title>Node35&#45;&gt;Node2</title>
<g id="a_edge50_Node000035_Node000002"><a xlink:title=" ">
<path fill="none" stroke="#63b8ff" d="M873.44,-244.81C852.64,-258.79 819.19,-279.97 788,-294 751.48,-310.43 707.11,-323.36 678.02,-330.95"/>
<polygon fill="#63b8ff" stroke="#63b8ff" points="875.5,-247.64 881.79,-239.12 871.56,-241.85 875.5,-247.64"/>
</a>
</g>
</g>
<!-- Node36 -->
<g id="Node000036" class="node">
<title>Node36</title>
<g id="a_Node000036"><a xlink:href="../../d9/d52/buttons_8cpp.xhtml" target="_top" xlink:title=" ">
<polygon fill="white" stroke="#666666" points="918,-184 844,-184 844,-165 918,-165 918,-184"/>
<text text-anchor="middle" x="881" y="-172" font-family="Helvetica,sans-Serif" font-size="10.00">buttons.cpp</text>
</a>
</g>
</g>
<!-- Node35&#45;&gt;Node36 -->
<g id="edge49_Node000035_Node000036" class="edge">
<title>Node35&#45;&gt;Node36</title>
<g id="a_edge49_Node000035_Node000036"><a xlink:title=" ">
<path fill="none" stroke="#63b8ff" d="M889.45,-209.95C887.29,-201.15 884.82,-191.06 883.11,-184.09"/>
<polygon fill="#63b8ff" stroke="#63b8ff" points="886.07,-210.87 891.85,-219.75 892.87,-209.2 886.07,-210.87"/>
</a>
</g>
</g>
<!-- Node37&#45;&gt;Node2 -->
<g id="edge54_Node000037_Node000002" class="edge">
<title>Node37&#45;&gt;Node2</title>
<g id="a_edge54_Node000037_Node000002"><a xlink:title=" ">
<path fill="none" stroke="#63b8ff" d="M716.18,-247.38C698.52,-270.64 667.35,-311.69 653.71,-329.66"/>
<polygon fill="#63b8ff" stroke="#63b8ff" points="719.17,-249.24 722.43,-239.16 713.59,-245.01 719.17,-249.24"/>
</a>
</g>
</g>
<!-- Node37&#45;&gt;Node22 -->
<g id="edge52_Node000037_Node000022" class="edge">
<title>Node37&#45;&gt;Node22</title>
<g id="a_edge52_Node000037_Node000022"><a xlink:title=" ">
<path fill="none" stroke="#63b8ff" d="M718.5,-211.1C713.03,-202.04 706.58,-191.37 702.19,-184.09"/>
<polygon fill="#63b8ff" stroke="#63b8ff" points="715.55,-213 723.72,-219.75 721.54,-209.38 715.55,-213"/>
</a>
</g>
</g>
<!-- Node38 -->
<g id="Node000038" class="node">
<title>Node38</title>
<g id="a_Node000038"><a xlink:href="../../db/d17/led_8cpp.xhtml" target="_top" xlink:title=" ">
<polygon fill="white" stroke="#666666" points="797,-184 745,-184 745,-165 797,-165 797,-184"/>
<text text-anchor="middle" x="771" y="-172" font-family="Helvetica,sans-Serif" font-size="10.00">led.cpp</text>
</a>
</g>
</g>
<!-- Node37&#45;&gt;Node38 -->
<g id="edge53_Node000037_Node000038" class="edge">
<title>Node37&#45;&gt;Node38</title>
<g id="a_edge53_Node000037_Node000038"><a xlink:title=" ">
<path fill="none" stroke="#63b8ff" d="M742.33,-211.67C749.61,-202.5 758.3,-191.52 764.19,-184.09"/>
<polygon fill="#63b8ff" stroke="#63b8ff" points="739.4,-209.74 735.94,-219.75 744.89,-214.08 739.4,-209.74"/>
</a>
</g>
</g>
</g>
</svg>

<g id="navigator" transform="translate(0 0)" fill="#404254">
  <rect fill="#f2f5e9" fill-opacity="0.5" stroke="#606060" stroke-width=".5" x="0" y="0" width="60" height="60"/>
  <use id="zoomplus" xlink:href="#zoomPlus" x="17" y="9" onmousedown="handleZoom(evt,'in')"/>
  <use id="zoomminus" xlink:href="#zoomMin" x="42" y="9" onmousedown="handleZoom(evt,'out')"/>
  <use id="reset" xlink:href="#resetDef" x="30" y="36" onmousedown="handleReset()"/>
   <use id="arrowup" xlink:href="#arrowUp" x="0" y="0" onmousedown="handlePan(0,-1)"/>
  <use id="arrowright" xlink:href="#arrowRight" x="0" y="0" onmousedown="handlePan(1,0)"/>
  <use id="arrowdown" xlink:href="#arrowDown" x="0" y="0" onmousedown="handlePan(0,1)"/>
  <use id="arrowleft" xlink:href="#arrowLeft" x="0" y="0" onmousedown="handlePan(-1,0)"/>
</g>
<svg viewBox="0 0 15 15" width="100%" height="30px" preserveAspectRatio="xMaxYMin meet">
 <g id="arrow_out" transform="scale(0.3 0.3)">
  <a xlink:href="sensor_8hpp__dep__incl_org.svg" target="_base">
   <rect id="button" ry="5" rx="5" y="6" x="6" height="38" width="38"
        fill="#f2f5e9" fill-opacity="0.5" stroke="#606060" stroke-width="1.0"/>
   <path id="arrow"
     d="M 11.500037,31.436501 C 11.940474,20.09759 22.043105,11.32322 32.158766,21.979434 L 37.068811,17.246167 C 37.068811,17.246167 37.088388,32 37.088388,32 L 22.160133,31.978069 C 22.160133,31.978069 26.997745,27.140456 26.997745,27.140456 C 18.528582,18.264221 13.291696,25.230495 11.500037,31.436501 z"
     style="fill:#404040;"/>
  </a>
 </g>
</svg>

<style type='text/css'>
<![CDATA[
[data-mouse-over-selected='false'] { opacity: 0.7; }
[data-mouse-over-selected='true']  { opacity: 1.0; }
]]>
</style>
<script type="application/ecmascript"><![CDATA[
document.addEventListener('DOMContentLoaded', (event) => {
  highlightEdges();
  highlightAdjacentNodes();
});
]]></script>
</svg>
