<?xml version="1.0" encoding="UTF-8" standalone="no"?>
<!DOCTYPE svg PUBLIC "-//W3C//DTD SVG 1.1//EN"
 "http://www.w3.org/Graphics/SVG/1.1/DTD/svg11.dtd">
<!-- Generated by graphviz version 2.43.0 (0)
 -->
<!-- Title: TinyGPSPlus::encode Pages: 1 -->
<!--zoomable 434 -->

<svg id="main" version="1.1" xmlns="http://www.w3.org/2000/svg" xmlns:xlink="http://www.w3.org/1999/xlink" xml:space="preserve" onload="init(evt)">
<style type="text/css"><![CDATA[
.node, .edge {opacity: 0.7;}
.node.selected, .edge.selected {opacity: 1;}
.edge:hover path { stroke: red; }
.edge:hover polygon { stroke: red; fill: red; }
]]></style>

<defs>
  <circle id="rim" cx="0" cy="0" r="7"/>
  <circle id="rim2" cx="0" cy="0" r="3.5"/>
  <g id="zoomPlus">
    <use xlink:href="#rim" fill="#404040"><set attributeName="fill" to="#808080" begin="zoomplus.mouseover" end="zoomplus.mouseout"/></use>
    <path d="M-4,0h8M0,-4v8" fill="none" stroke="white" stroke-width="1.5" pointer-events="none"/>
  </g>
  <g id="zoomMin">
    <use xlink:href="#rim" fill="#404040"><set attributeName="fill" to="#808080" begin="zoomminus.mouseover" end="zoomminus.mouseout"/></use>
    <path d="M-4,0h8" fill="none" stroke="white" stroke-width="1.5" pointer-events="none"/>
  </g>
  <g id="arrowUp" transform="translate(30 24)">
    <use xlink:href="#rim"/>
    <path pointer-events="none" fill="none" stroke="white" stroke-width="1.5" d="M0,-3.0v7 M-2.5,-0.5L0,-3.0L2.5,-0.5"/>
  </g>
  <g id="arrowRight" transform="rotate(90) translate(36 -43)">
    <use xlink:href="#rim"/>
    <path pointer-events="none" fill="none" stroke="white" stroke-width="1.5" d="M0,-3.0v7 M-2.5,-0.5L0,-3.0L2.5,-0.5"/>
  </g>
  <g id="arrowDown" transform="rotate(180) translate(-30 -48)">
    <use xlink:href="#rim"/>
    <path pointer-events="none" fill="none" stroke="white" stroke-width="1.5" d="M0,-3.0v7 M-2.5,-0.5L0,-3.0L2.5,-0.5"/>
  </g>
  <g id="arrowLeft" transform="rotate(270) translate(-36 17)">
    <use xlink:href="#rim"/>
    <path pointer-events="none" fill="none" stroke="white" stroke-width="1.5" d="M0,-3.0v7 M-2.5,-0.5L0,-3.0L2.5,-0.5"/>
  </g>
  <g id="resetDef">
    <use xlink:href="#rim2" fill="#404040"><set attributeName="fill" to="#808080" begin="reset.mouseover" end="reset.mouseout"/></use>
  </g>
</defs>
<script type="application/ecmascript">
var viewWidth = 728;
var viewHeight = 434;
var sectionId = 'dynsection-1';
</script>
<script type="application/ecmascript" xlink:href="../../svg.min.js"/>
<svg id="graph" class="graph">
<g id="viewport">
<title>TinyGPSPlus::encode</title>
<!-- Node1 -->
<g id="Node000001" class="node">
<title>Node1</title>
<g id="a_Node000001"><a xlink:title=" ">
<polygon fill="#999999" stroke="#666666" points="119,-222 0,-222 0,-203 119,-203 119,-222"/>
<text text-anchor="middle" x="59.5" y="-210" font-family="Helvetica,sans-Serif" font-size="10.00">TinyGPSPlus::encode</text>
</a>
</g>
</g>
<!-- Node2 -->
<g id="Node000002" class="node">
<title>Node2</title>
<g id="a_Node000002"><a xlink:href="../../d3/d57/classTinyGPSPlus.xhtml#ad03e05d24ecc96c27814eb17adfb38db" target="_top" xlink:title=" ">
<polygon fill="white" stroke="#666666" points="330,-222 155,-222 155,-203 330,-203 330,-222"/>
<text text-anchor="middle" x="242.5" y="-210" font-family="Helvetica,sans-Serif" font-size="10.00">TinyGPSPlus::endOfTermHandler</text>
</a>
</g>
</g>
<!-- Node1&#45;&gt;Node2 -->
<g id="edge1_Node000001_Node000002" class="edge">
<title>Node1&#45;&gt;Node2</title>
<g id="a_edge1_Node000001_Node000002"><a xlink:title=" ">
<path fill="none" stroke="#63b8ff" d="M119.27,-212.5C127.43,-212.5 135.98,-212.5 144.62,-212.5"/>
<polygon fill="#63b8ff" stroke="#63b8ff" points="144.77,-216 154.77,-212.5 144.77,-209 144.77,-216"/>
</a>
</g>
</g>
<!-- Node3 -->
<g id="Node000003" class="node">
<title>Node3</title>
<g id="a_Node000003"><a xlink:href="../../da/ddc/structTinyGPSLocation.xhtml#aa642f1dcad561199ec404129abbebbba" target="_top" xlink:title=" ">
<polygon fill="white" stroke="#666666" points="520.5,-352 378.5,-352 378.5,-333 520.5,-333 520.5,-352"/>
<text text-anchor="middle" x="449.5" y="-340" font-family="Helvetica,sans-Serif" font-size="10.00">TinyGPSLocation::commit</text>
</a>
</g>
</g>
<!-- Node2&#45;&gt;Node3 -->
<g id="edge2_Node000002_Node000003" class="edge">
<title>Node2&#45;&gt;Node3</title>
<g id="a_edge2_Node000002_Node000003"><a xlink:title=" ">
<path fill="none" stroke="#63b8ff" d="M250.91,-222.1C268.38,-244.01 314.56,-297.87 366,-324.5 369.73,-326.43 373.67,-328.16 377.71,-329.7"/>
<polygon fill="#63b8ff" stroke="#63b8ff" points="376.7,-333.05 387.29,-332.97 378.96,-326.43 376.7,-333.05"/>
</a>
</g>
</g>
<!-- Node5 -->
<g id="Node000005" class="node">
<title>Node5</title>
<g id="a_Node000005"><a xlink:href="../../d1/d67/structTinyGPSDate.xhtml#af5b0da173842da219e7c90d16e54c3e2" target="_top" xlink:title=" ">
<polygon fill="white" stroke="#666666" points="511.5,-315 387.5,-315 387.5,-296 511.5,-296 511.5,-315"/>
<text text-anchor="middle" x="449.5" y="-303" font-family="Helvetica,sans-Serif" font-size="10.00">TinyGPSDate::commit</text>
</a>
</g>
</g>
<!-- Node2&#45;&gt;Node5 -->
<g id="edge4_Node000002_Node000005" class="edge">
<title>Node2&#45;&gt;Node5</title>
<g id="a_edge4_Node000002_Node000005"><a xlink:title=" ">
<path fill="none" stroke="#63b8ff" d="M255.97,-222.12C277.31,-238.11 322.73,-270.11 366,-287.5 371.4,-289.67 377.12,-291.6 382.91,-293.31"/>
<polygon fill="#63b8ff" stroke="#63b8ff" points="382.13,-296.73 392.7,-295.99 383.98,-289.98 382.13,-296.73"/>
</a>
</g>
</g>
<!-- Node6 -->
<g id="Node000006" class="node">
<title>Node6</title>
<g id="a_Node000006"><a xlink:href="../../db/de3/structTinyGPSTime.xhtml#a7d281752a3ce8360f02a782b938fee22" target="_top" xlink:title=" ">
<polygon fill="white" stroke="#666666" points="512,-278 387,-278 387,-259 512,-259 512,-278"/>
<text text-anchor="middle" x="449.5" y="-266" font-family="Helvetica,sans-Serif" font-size="10.00">TinyGPSTime::commit</text>
</a>
</g>
</g>
<!-- Node2&#45;&gt;Node6 -->
<g id="edge6_Node000002_Node000006" class="edge">
<title>Node2&#45;&gt;Node6</title>
<g id="a_edge6_Node000002_Node000006"><a xlink:title=" ">
<path fill="none" stroke="#63b8ff" d="M272.01,-222.11C296.71,-230.25 333.49,-241.93 366,-250.5 374.15,-252.65 382.8,-254.74 391.32,-256.69"/>
<polygon fill="#63b8ff" stroke="#63b8ff" points="390.69,-260.14 401.21,-258.91 392.22,-253.31 390.69,-260.14"/>
</a>
</g>
</g>
<!-- Node7 -->
<g id="Node000007" class="node">
<title>Node7</title>
<g id="a_Node000007"><a xlink:href="../../d4/df7/structTinyGPSDecimal.xhtml#a37516916786d5c66990d5a1797cc8f86" target="_top" xlink:title=" ">
<polygon fill="white" stroke="#666666" points="520,-426 379,-426 379,-407 520,-407 520,-426"/>
<text text-anchor="middle" x="449.5" y="-414" font-family="Helvetica,sans-Serif" font-size="10.00">TinyGPSDecimal::commit</text>
</a>
</g>
</g>
<!-- Node2&#45;&gt;Node7 -->
<g id="edge8_Node000002_Node000007" class="edge">
<title>Node2&#45;&gt;Node7</title>
<g id="a_edge8_Node000002_Node000007"><a xlink:title=" ">
<path fill="none" stroke="#63b8ff" d="M246.8,-222.1C258.01,-253.16 297.78,-351.67 366,-398.5 368.25,-400.04 370.6,-401.45 373.03,-402.75"/>
<polygon fill="#63b8ff" stroke="#63b8ff" points="371.61,-405.94 382.16,-406.94 374.53,-399.58 371.61,-405.94"/>
</a>
</g>
</g>
<!-- Node8 -->
<g id="Node000008" class="node">
<title>Node8</title>
<g id="a_Node000008"><a xlink:href="../../d4/d0e/structTinyGPSInteger.xhtml#a0b6f3cda527454e0fb0e59d9c75693ab" target="_top" xlink:title=" ">
<polygon fill="white" stroke="#666666" points="517,-389 382,-389 382,-370 517,-370 517,-389"/>
<text text-anchor="middle" x="449.5" y="-377" font-family="Helvetica,sans-Serif" font-size="10.00">TinyGPSInteger::commit</text>
</a>
</g>
</g>
<!-- Node2&#45;&gt;Node8 -->
<g id="edge10_Node000002_Node000008" class="edge">
<title>Node2&#45;&gt;Node8</title>
<g id="a_edge10_Node000002_Node000008"><a xlink:title=" ">
<path fill="none" stroke="#63b8ff" d="M248.33,-222.03C262.43,-248.78 306.29,-324.99 366,-361.5 368.81,-363.22 371.77,-364.78 374.82,-366.19"/>
<polygon fill="#63b8ff" stroke="#63b8ff" points="373.64,-369.48 384.22,-369.99 376.26,-362.99 373.64,-369.48"/>
</a>
</g>
</g>
<!-- Node9 -->
<g id="Node000009" class="node">
<title>Node9</title>
<g id="a_Node000009"><a xlink:href="../../d3/d57/classTinyGPSPlus.xhtml#a9f8acf18530c3b4fd2d6b2f9947e315c" target="_top" xlink:title=" ">
<polygon fill="white" stroke="#666666" points="512.5,-241 386.5,-241 386.5,-222 512.5,-222 512.5,-241"/>
<text text-anchor="middle" x="449.5" y="-229" font-family="Helvetica,sans-Serif" font-size="10.00">TinyGPSPlus::fromHex</text>
</a>
</g>
</g>
<!-- Node2&#45;&gt;Node9 -->
<g id="edge12_Node000002_Node000009" class="edge">
<title>Node2&#45;&gt;Node9</title>
<g id="a_edge12_Node000002_Node000009"><a xlink:title=" ">
<path fill="none" stroke="#63b8ff" d="M330.14,-220.53C345.5,-221.95 361.35,-223.42 376.26,-224.8"/>
<polygon fill="#63b8ff" stroke="#63b8ff" points="376.13,-228.31 386.41,-225.75 376.78,-221.34 376.13,-228.31"/>
</a>
</g>
</g>
<!-- Node10 -->
<g id="Node000010" class="node">
<title>Node10</title>
<g id="a_Node000010"><a xlink:href="../../d4/df7/structTinyGPSDecimal.xhtml#a804fc590e73489e2f14b0daf7c8112b8" target="_top" xlink:title=" ">
<polygon fill="white" stroke="#666666" points="509,-204 390,-204 390,-185 509,-185 509,-204"/>
<text text-anchor="middle" x="449.5" y="-192" font-family="Helvetica,sans-Serif" font-size="10.00">TinyGPSDecimal::set</text>
</a>
</g>
</g>
<!-- Node2&#45;&gt;Node10 -->
<g id="edge13_Node000002_Node000010" class="edge">
<title>Node2&#45;&gt;Node10</title>
<g id="a_edge13_Node000002_Node000010"><a xlink:title=" ">
<path fill="none" stroke="#63b8ff" d="M330.14,-204.89C346.64,-203.44 363.69,-201.95 379.54,-200.55"/>
<polygon fill="#63b8ff" stroke="#63b8ff" points="380.11,-204.02 389.77,-199.66 379.5,-197.05 380.11,-204.02"/>
</a>
</g>
</g>
<!-- Node12 -->
<g id="Node000012" class="node">
<title>Node12</title>
<g id="a_Node000012"><a xlink:href="../../d4/d0e/structTinyGPSInteger.xhtml#aa02f807a5831c726e6eea6892257e35c" target="_top" xlink:title=" ">
<polygon fill="white" stroke="#666666" points="506,-167 393,-167 393,-148 506,-148 506,-167"/>
<text text-anchor="middle" x="449.5" y="-155" font-family="Helvetica,sans-Serif" font-size="10.00">TinyGPSInteger::set</text>
</a>
</g>
</g>
<!-- Node2&#45;&gt;Node12 -->
<g id="edge15_Node000002_Node000012" class="edge">
<title>Node2&#45;&gt;Node12</title>
<g id="a_edge15_Node000002_Node000012"><a xlink:title=" ">
<path fill="none" stroke="#63b8ff" d="M274.07,-202.97C298.77,-195.4 334.48,-184.75 366,-176.5 375.29,-174.07 385.2,-171.64 394.83,-169.37"/>
<polygon fill="#63b8ff" stroke="#63b8ff" points="395.76,-172.75 404.71,-167.08 394.18,-165.93 395.76,-172.75"/>
</a>
</g>
</g>
<!-- Node13 -->
<g id="Node000013" class="node">
<title>Node13</title>
<g id="a_Node000013"><a xlink:href="../../d1/d67/structTinyGPSDate.xhtml#a2ff2893de6b59fd4dcf828c6296e2e2e" target="_top" xlink:title=" ">
<polygon fill="white" stroke="#666666" points="512,-130 387,-130 387,-111 512,-111 512,-130"/>
<text text-anchor="middle" x="449.5" y="-118" font-family="Helvetica,sans-Serif" font-size="10.00">TinyGPSDate::setDate</text>
</a>
</g>
</g>
<!-- Node2&#45;&gt;Node13 -->
<g id="edge16_Node000002_Node000013" class="edge">
<title>Node2&#45;&gt;Node13</title>
<g id="a_edge16_Node000002_Node000013"><a xlink:title=" ">
<path fill="none" stroke="#63b8ff" d="M256.38,-202.96C277.96,-187.42 323.27,-156.66 366,-139.5 372.32,-136.96 379.06,-134.72 385.86,-132.75"/>
<polygon fill="#63b8ff" stroke="#63b8ff" points="387.08,-136.04 395.81,-130.05 385.25,-129.29 387.08,-136.04"/>
</a>
</g>
</g>
<!-- Node14 -->
<g id="Node000014" class="node">
<title>Node14</title>
<g id="a_Node000014"><a xlink:href="../../da/ddc/structTinyGPSLocation.xhtml#abacba4b118a3351fed607874c85b747c" target="_top" xlink:title=" ">
<polygon fill="white" stroke="#666666" points="529,-56 370,-56 370,-37 529,-37 529,-56"/>
<text text-anchor="middle" x="449.5" y="-44" font-family="Helvetica,sans-Serif" font-size="10.00">TinyGPSLocation::setLatitude</text>
</a>
</g>
</g>
<!-- Node2&#45;&gt;Node14 -->
<g id="edge17_Node000002_Node000014" class="edge">
<title>Node2&#45;&gt;Node14</title>
<g id="a_edge17_Node000002_Node000014"><a xlink:title=" ">
<path fill="none" stroke="#63b8ff" d="M248.6,-202.75C263.06,-176.11 307.14,-101.69 366,-65.5 369.42,-63.4 373.06,-61.52 376.82,-59.86"/>
<polygon fill="#63b8ff" stroke="#63b8ff" points="378.33,-63.03 386.37,-56.13 375.79,-56.5 378.33,-63.03"/>
</a>
</g>
</g>
<!-- Node16 -->
<g id="Node000016" class="node">
<title>Node16</title>
<g id="a_Node000016"><a xlink:href="../../da/ddc/structTinyGPSLocation.xhtml#ac55555d5765570efadfe1846d60b32e1" target="_top" xlink:title=" ">
<polygon fill="white" stroke="#666666" points="533,-19 366,-19 366,0 533,0 533,-19"/>
<text text-anchor="middle" x="449.5" y="-7" font-family="Helvetica,sans-Serif" font-size="10.00">TinyGPSLocation::setLongitude</text>
</a>
</g>
</g>
<!-- Node2&#45;&gt;Node16 -->
<g id="edge19_Node000002_Node000016" class="edge">
<title>Node2&#45;&gt;Node16</title>
<g id="a_edge19_Node000002_Node000016"><a xlink:title=" ">
<path fill="none" stroke="#63b8ff" d="M247.02,-202.6C258.61,-171.49 298.76,-74.98 366,-28.5 368.87,-26.52 371.91,-24.74 375.08,-23.14"/>
<polygon fill="#63b8ff" stroke="#63b8ff" points="376.51,-26.34 384.26,-19.12 373.7,-19.93 376.51,-26.34"/>
</a>
</g>
</g>
<!-- Node17 -->
<g id="Node000017" class="node">
<title>Node17</title>
<g id="a_Node000017"><a xlink:href="../../db/de3/structTinyGPSTime.xhtml#a07646db66f928524a46b22030f3367c6" target="_top" xlink:title=" ">
<polygon fill="white" stroke="#666666" points="513.5,-93 385.5,-93 385.5,-74 513.5,-74 513.5,-93"/>
<text text-anchor="middle" x="449.5" y="-81" font-family="Helvetica,sans-Serif" font-size="10.00">TinyGPSTime::setTime</text>
</a>
</g>
</g>
<!-- Node2&#45;&gt;Node17 -->
<g id="edge21_Node000002_Node000017" class="edge">
<title>Node2&#45;&gt;Node17</title>
<g id="a_edge21_Node000002_Node000017"><a xlink:title=" ">
<path fill="none" stroke="#63b8ff" d="M251.24,-202.79C269.04,-181.17 315.27,-128.85 366,-102.5 370.53,-100.15 375.35,-98.08 380.3,-96.27"/>
<polygon fill="#63b8ff" stroke="#63b8ff" points="381.53,-99.55 389.93,-93.09 379.33,-92.9 381.53,-99.55"/>
</a>
</g>
</g>
<!-- Node4 -->
<g id="Node000004" class="node">
<title>Node4</title>
<g id="a_Node000004"><a xlink:href="../../d5/df3/wiring_8c.xhtml#a6ff7f2532a22366f0013bc41397129fd" target="_top" xlink:title=" ">
<polygon fill="white" stroke="#666666" points="666.5,-352 622.5,-352 622.5,-333 666.5,-333 666.5,-352"/>
<text text-anchor="middle" x="644.5" y="-340" font-family="Helvetica,sans-Serif" font-size="10.00">millis</text>
</a>
</g>
</g>
<!-- Node3&#45;&gt;Node4 -->
<g id="edge3_Node000003_Node000004" class="edge">
<title>Node3&#45;&gt;Node4</title>
<g id="a_edge3_Node000003_Node000004"><a xlink:title=" ">
<path fill="none" stroke="#63b8ff" d="M520.72,-342.5C552.08,-342.5 587.45,-342.5 612.14,-342.5"/>
<polygon fill="#63b8ff" stroke="#63b8ff" points="612.35,-346 622.35,-342.5 612.35,-339 612.35,-346"/>
</a>
</g>
</g>
<!-- Node5&#45;&gt;Node4 -->
<g id="edge5_Node000005_Node000004" class="edge">
<title>Node5&#45;&gt;Node4</title>
<g id="a_edge5_Node000005_Node000004"><a xlink:title=" ">
<path fill="none" stroke="#63b8ff" d="M500.2,-315.03C535.57,-321.81 582,-330.71 612.29,-336.52"/>
<polygon fill="#63b8ff" stroke="#63b8ff" points="611.8,-339.99 622.28,-338.43 613.12,-333.11 611.8,-339.99"/>
</a>
</g>
</g>
<!-- Node6&#45;&gt;Node4 -->
<g id="edge7_Node000006_Node000004" class="edge">
<title>Node6&#45;&gt;Node4</title>
<g id="a_edge7_Node000006_Node000004"><a xlink:title=" ">
<path fill="none" stroke="#63b8ff" d="M500.78,-278.09C511.55,-280.7 522.76,-283.83 533,-287.5 563.4,-298.39 596.3,-315.52 618.22,-327.77"/>
<polygon fill="#63b8ff" stroke="#63b8ff" points="616.76,-330.96 627.19,-332.85 620.22,-324.87 616.76,-330.96"/>
</a>
</g>
</g>
<!-- Node7&#45;&gt;Node4 -->
<g id="edge9_Node000007_Node000004" class="edge">
<title>Node7&#45;&gt;Node4</title>
<g id="a_edge9_Node000007_Node000004"><a xlink:title=" ">
<path fill="none" stroke="#63b8ff" d="M503.87,-406.94C513.69,-404.6 523.75,-401.79 533,-398.5 563.71,-387.57 596.79,-369.95 618.67,-357.4"/>
<polygon fill="#63b8ff" stroke="#63b8ff" points="620.72,-360.25 627.6,-352.19 617.2,-354.2 620.72,-360.25"/>
</a>
</g>
</g>
<!-- Node8&#45;&gt;Node4 -->
<g id="edge11_Node000008_Node000004" class="edge">
<title>Node8&#45;&gt;Node4</title>
<g id="a_edge11_Node000008_Node000004"><a xlink:title=" ">
<path fill="none" stroke="#63b8ff" d="M500.2,-369.97C535.57,-363.19 582,-354.29 612.29,-348.48"/>
<polygon fill="#63b8ff" stroke="#63b8ff" points="613.12,-351.89 622.28,-346.57 611.8,-345.01 613.12,-351.89"/>
</a>
</g>
</g>
<!-- Node11 -->
<g id="Node000011" class="node">
<title>Node11</title>
<g id="a_Node000011"><a xlink:href="../../d3/d57/classTinyGPSPlus.xhtml#a06d9bf0c1f0d0963511dc05e2f121121" target="_top" xlink:title=" ">
<polygon fill="white" stroke="#666666" points="720,-167 569,-167 569,-148 720,-148 720,-167"/>
<text text-anchor="middle" x="644.5" y="-155" font-family="Helvetica,sans-Serif" font-size="10.00">TinyGPSPlus::parseDecimal</text>
</a>
</g>
</g>
<!-- Node10&#45;&gt;Node11 -->
<g id="edge14_Node000010_Node000011" class="edge">
<title>Node10&#45;&gt;Node11</title>
<g id="a_edge14_Node000010_Node000011"><a xlink:title=" ">
<path fill="none" stroke="#63b8ff" d="M500.2,-184.97C525.65,-180.09 556.84,-174.11 583.61,-168.98"/>
<polygon fill="#63b8ff" stroke="#63b8ff" points="584.47,-172.38 593.63,-167.06 583.15,-165.51 584.47,-172.38"/>
</a>
</g>
</g>
<!-- Node15 -->
<g id="Node000015" class="node">
<title>Node15</title>
<g id="a_Node000015"><a xlink:href="../../d3/d57/classTinyGPSPlus.xhtml#a00627eaffc625bf366e4c984014fbf29" target="_top" xlink:title=" ">
<polygon fill="white" stroke="#666666" points="720,-38 569,-38 569,-19 720,-19 720,-38"/>
<text text-anchor="middle" x="644.5" y="-26" font-family="Helvetica,sans-Serif" font-size="10.00">TinyGPSPlus::parseDegrees</text>
</a>
</g>
</g>
<!-- Node14&#45;&gt;Node15 -->
<g id="edge18_Node000014_Node000015" class="edge">
<title>Node14&#45;&gt;Node15</title>
<g id="a_edge18_Node000014_Node000015"><a xlink:title=" ">
<path fill="none" stroke="#63b8ff" d="M529,-39.18C538.76,-38.27 548.77,-37.33 558.62,-36.42"/>
<polygon fill="#63b8ff" stroke="#63b8ff" points="559.18,-39.88 568.81,-35.47 558.53,-32.91 559.18,-39.88"/>
</a>
</g>
</g>
<!-- Node16&#45;&gt;Node15 -->
<g id="edge20_Node000016_Node000015" class="edge">
<title>Node16&#45;&gt;Node15</title>
<g id="a_edge20_Node000016_Node000015"><a xlink:title=" ">
<path fill="none" stroke="#63b8ff" d="M533.19,-17.64C541.72,-18.48 550.4,-19.33 558.95,-20.18"/>
<polygon fill="#63b8ff" stroke="#63b8ff" points="558.61,-23.66 568.91,-21.16 559.3,-16.69 558.61,-23.66"/>
</a>
</g>
</g>
<!-- Node17&#45;&gt;Node11 -->
<g id="edge23_Node000017_Node000011" class="edge">
<title>Node17&#45;&gt;Node11</title>
<g id="a_edge23_Node000017_Node000011"><a xlink:title=" ">
<path fill="none" stroke="#63b8ff" d="M500.78,-93.09C511.55,-95.7 522.76,-98.83 533,-102.5 563.4,-113.39 596.3,-130.52 618.22,-142.77"/>
<polygon fill="#63b8ff" stroke="#63b8ff" points="616.76,-145.96 627.19,-147.85 620.22,-139.87 616.76,-145.96"/>
</a>
</g>
</g>
<!-- Node18 -->
<g id="Node000018" class="node">
<title>Node18</title>
<g id="a_Node000018"><a xlink:href="../../db/de3/structTinyGPSTime.xhtml#a37fdb629b6ed0e31134214c7d07df2b1" target="_top" xlink:title=" ">
<polygon fill="white" stroke="#666666" points="699.5,-93 589.5,-93 589.5,-74 699.5,-74 699.5,-93"/>
<text text-anchor="middle" x="644.5" y="-81" font-family="Helvetica,sans-Serif" font-size="10.00">TinyGPSTime::hour</text>
</a>
</g>
</g>
<!-- Node17&#45;&gt;Node18 -->
<g id="edge22_Node000017_Node000018" class="edge">
<title>Node17&#45;&gt;Node18</title>
<g id="a_edge22_Node000017_Node000018"><a xlink:title=" ">
<path fill="none" stroke="#63b8ff" d="M513.7,-83.5C534.67,-83.5 558.04,-83.5 579.1,-83.5"/>
<polygon fill="#63b8ff" stroke="#63b8ff" points="579.23,-87 589.23,-83.5 579.23,-80 579.23,-87"/>
</a>
</g>
</g>
</g>
</svg>

<g id="navigator" transform="translate(0 0)" fill="#404254">
  <rect fill="#f2f5e9" fill-opacity="0.5" stroke="#606060" stroke-width=".5" x="0" y="0" width="60" height="60"/>
  <use id="zoomplus" xlink:href="#zoomPlus" x="17" y="9" onmousedown="handleZoom(evt,'in')"/>
  <use id="zoomminus" xlink:href="#zoomMin" x="42" y="9" onmousedown="handleZoom(evt,'out')"/>
  <use id="reset" xlink:href="#resetDef" x="30" y="36" onmousedown="handleReset()"/>
   <use id="arrowup" xlink:href="#arrowUp" x="0" y="0" onmousedown="handlePan(0,-1)"/>
  <use id="arrowright" xlink:href="#arrowRight" x="0" y="0" onmousedown="handlePan(1,0)"/>
  <use id="arrowdown" xlink:href="#arrowDown" x="0" y="0" onmousedown="handlePan(0,1)"/>
  <use id="arrowleft" xlink:href="#arrowLeft" x="0" y="0" onmousedown="handlePan(-1,0)"/>
</g>
<svg viewBox="0 0 15 15" width="100%" height="30px" preserveAspectRatio="xMaxYMin meet">
 <g id="arrow_out" transform="scale(0.3 0.3)">
  <a xlink:href="classTinyGPSPlus_ad7b78320b7e4967df17c6a27008a5154_cgraph_org.svg" target="_base">
   <rect id="button" ry="5" rx="5" y="6" x="6" height="38" width="38"
        fill="#f2f5e9" fill-opacity="0.5" stroke="#606060" stroke-width="1.0"/>
   <path id="arrow"
     d="M 11.500037,31.436501 C 11.940474,20.09759 22.043105,11.32322 32.158766,21.979434 L 37.068811,17.246167 C 37.068811,17.246167 37.088388,32 37.088388,32 L 22.160133,31.978069 C 22.160133,31.978069 26.997745,27.140456 26.997745,27.140456 C 18.528582,18.264221 13.291696,25.230495 11.500037,31.436501 z"
     style="fill:#404040;"/>
  </a>
 </g>
</svg>

<style type='text/css'>
<![CDATA[
[data-mouse-over-selected='false'] { opacity: 0.7; }
[data-mouse-over-selected='true']  { opacity: 1.0; }
]]>
</style>
<script type="application/ecmascript"><![CDATA[
document.addEventListener('DOMContentLoaded', (event) => {
  highlightEdges();
  highlightAdjacentNodes();
});
]]></script>
</svg>
