<?xml version="1.0" encoding="UTF-8" standalone="no"?>
<!DOCTYPE svg PUBLIC "-//W3C//DTD SVG 1.1//EN"
 "http://www.w3.org/Graphics/SVG/1.1/DTD/svg11.dtd">
<!-- Generated by graphviz version 2.43.0 (0)
 -->
<!-- Title: switchLEDToOrange Pages: 1 -->
<svg width="1053pt" height="65pt"
 viewBox="0.00 0.00 1053.00 65.00" xmlns="http://www.w3.org/2000/svg" xmlns:xlink="http://www.w3.org/1999/xlink">
<g id="graph0" class="graph" transform="scale(1 1) rotate(0) translate(4 61)">
<title>switchLEDToOrange</title>
<!-- Node1 -->
<g id="Node000001" class="node">
<title>Node1</title>
<g id="a_Node000001"><a xlink:title=" ">
<polygon fill="#999999" stroke="#666666" points="113,-38 0,-38 0,-19 113,-19 113,-38"/>
<text text-anchor="middle" x="56.5" y="-26" font-family="Helvetica,sans-Serif" font-size="10.00">switchLEDToOrange</text>
</a>
</g>
</g>
<!-- Node2 -->
<g id="Node000002" class="node">
<title>Node2</title>
<g id="a_Node000002"><a xlink:href="../../d5/dc9/classChainableLED_a2b8a41a192a231e77cad268bdbaebd34.xhtml#a2b8a41a192a231e77cad268bdbaebd34" target="_top" xlink:title=" ">
<polygon fill="white" stroke="#666666" points="301,-38 149,-38 149,-19 301,-19 301,-38"/>
<text text-anchor="middle" x="225" y="-26" font-family="Helvetica,sans-Serif" font-size="10.00">ChainableLED::setColorRGB</text>
</a>
</g>
</g>
<!-- Node1&#45;&gt;Node2 -->
<g id="edge1_Node000001_Node000002" class="edge">
<title>Node1&#45;&gt;Node2</title>
<g id="a_edge1_Node000001_Node000002"><a xlink:title=" ">
<path fill="none" stroke="#63b8ff" d="M113.41,-28.5C121.55,-28.5 130.09,-28.5 138.67,-28.5"/>
<polygon fill="#63b8ff" stroke="#63b8ff" points="138.72,-32 148.72,-28.5 138.72,-25 138.72,-32"/>
</a>
</g>
</g>
<!-- Node3 -->
<g id="Node000003" class="node">
<title>Node3</title>
<g id="a_Node000003"><a xlink:href="../../d5/dc9/classChainableLED_af9dddebec83065625cbd6f8f05b992e7.xhtml#af9dddebec83065625cbd6f8f05b992e7" target="_top" xlink:title=" ">
<polygon fill="white" stroke="#666666" points="648,-38 512,-38 512,-19 648,-19 648,-38"/>
<text text-anchor="middle" x="580" y="-26" font-family="Helvetica,sans-Serif" font-size="10.00">ChainableLED::sendByte</text>
</a>
</g>
</g>
<!-- Node2&#45;&gt;Node3 -->
<g id="edge2_Node000002_Node000003" class="edge">
<title>Node2&#45;&gt;Node3</title>
<g id="a_edge2_Node000002_Node000003"><a xlink:title=" ">
<path fill="none" stroke="#63b8ff" d="M301.29,-28.5C360.34,-28.5 442.22,-28.5 501.77,-28.5"/>
<polygon fill="#63b8ff" stroke="#63b8ff" points="501.87,-32 511.87,-28.5 501.87,-25 501.87,-32"/>
</a>
</g>
</g>
<!-- Node8 -->
<g id="Node000008" class="node">
<title>Node8</title>
<g id="a_Node000008"><a xlink:href="../../d5/dc9/classChainableLED_a7c5c2661fc02dee9f174485a2fadeb7a.xhtml#a7c5c2661fc02dee9f174485a2fadeb7a" target="_top" xlink:title=" ">
<polygon fill="white" stroke="#666666" points="476,-19 337,-19 337,0 476,0 476,-19"/>
<text text-anchor="middle" x="406.5" y="-7" font-family="Helvetica,sans-Serif" font-size="10.00">ChainableLED::sendColor</text>
</a>
</g>
</g>
<!-- Node2&#45;&gt;Node8 -->
<g id="edge8_Node000002_Node000008" class="edge">
<title>Node2&#45;&gt;Node8</title>
<g id="a_edge8_Node000002_Node000008"><a xlink:title=" ">
<path fill="none" stroke="#63b8ff" d="M301.08,-20.55C309.48,-19.66 318.06,-18.76 326.51,-17.86"/>
<polygon fill="#63b8ff" stroke="#63b8ff" points="327.15,-21.31 336.73,-16.78 326.42,-14.35 327.15,-21.31"/>
</a>
</g>
</g>
<!-- Node4 -->
<g id="Node000004" class="node">
<title>Node4</title>
<g id="a_Node000004"><a xlink:href="../../d5/dc9/classChainableLED_af384841b6f083865c7fce288b039d275.xhtml#af384841b6f083865c7fce288b039d275" target="_top" xlink:title=" ">
<polygon fill="white" stroke="#666666" points="788,-57 684,-57 684,-38 788,-38 788,-57"/>
<text text-anchor="middle" x="736" y="-45" font-family="Helvetica,sans-Serif" font-size="10.00">ChainableLED::clk</text>
</a>
</g>
</g>
<!-- Node3&#45;&gt;Node4 -->
<g id="edge3_Node000003_Node000004" class="edge">
<title>Node3&#45;&gt;Node4</title>
<g id="a_edge3_Node000003_Node000004"><a xlink:title=" ">
<path fill="none" stroke="#63b8ff" d="M648.1,-36.78C656.63,-37.83 665.32,-38.9 673.75,-39.94"/>
<polygon fill="#63b8ff" stroke="#63b8ff" points="673.52,-43.44 683.87,-41.19 674.38,-36.49 673.52,-43.44"/>
</a>
</g>
</g>
<!-- Node6 -->
<g id="Node000006" class="node">
<title>Node6</title>
<g id="a_Node000006"><a xlink:href="../../d5/d45/wiring__digital_8c_a73b9b61feeaf7d790d107f2954a7fd93.xhtml#a73b9b61feeaf7d790d107f2954a7fd93" target="_top" xlink:title=" ">
<polygon fill="white" stroke="#666666" points="916,-20 842,-20 842,-1 916,-1 916,-20"/>
<text text-anchor="middle" x="879" y="-8" font-family="Helvetica,sans-Serif" font-size="10.00">digitalWrite</text>
</a>
</g>
</g>
<!-- Node3&#45;&gt;Node6 -->
<g id="edge7_Node000003_Node000006" class="edge">
<title>Node3&#45;&gt;Node6</title>
<g id="a_edge7_Node000003_Node000006"><a xlink:title=" ">
<path fill="none" stroke="#63b8ff" d="M648.02,-24.44C704.09,-21.04 782.59,-16.28 831.85,-13.3"/>
<polygon fill="#63b8ff" stroke="#63b8ff" points="832.12,-16.79 841.89,-12.69 831.7,-9.8 832.12,-16.79"/>
</a>
</g>
</g>
<!-- Node5 -->
<g id="Node000005" class="node">
<title>Node5</title>
<g id="a_Node000005"><a xlink:href="../../d5/df3/wiring_8c_a62e0a53bc261f9de8700cc5a92307e85.xhtml#a62e0a53bc261f9de8700cc5a92307e85" target="_top" xlink:title=" ">
<polygon fill="white" stroke="#666666" points="934,-57 824,-57 824,-38 934,-38 934,-57"/>
<text text-anchor="middle" x="879" y="-45" font-family="Helvetica,sans-Serif" font-size="10.00">delayMicroseconds</text>
</a>
</g>
</g>
<!-- Node4&#45;&gt;Node5 -->
<g id="edge4_Node000004_Node000005" class="edge">
<title>Node4&#45;&gt;Node5</title>
<g id="a_edge4_Node000004_Node000005"><a xlink:title=" ">
<path fill="none" stroke="#63b8ff" d="M788.3,-47.5C796.48,-47.5 805.02,-47.5 813.45,-47.5"/>
<polygon fill="#63b8ff" stroke="#63b8ff" points="813.65,-51 823.65,-47.5 813.65,-44 813.65,-51"/>
</a>
</g>
</g>
<!-- Node4&#45;&gt;Node6 -->
<g id="edge5_Node000004_Node000006" class="edge">
<title>Node4&#45;&gt;Node6</title>
<g id="a_edge5_Node000004_Node000006"><a xlink:title=" ">
<path fill="none" stroke="#63b8ff" d="M773.31,-37.97C791.24,-33.27 813.06,-27.54 832.13,-22.54"/>
<polygon fill="#63b8ff" stroke="#63b8ff" points="833.03,-25.92 841.81,-20 831.25,-19.15 833.03,-25.92"/>
</a>
</g>
</g>
<!-- Node7 -->
<g id="Node000007" class="node">
<title>Node7</title>
<g id="a_Node000007"><a xlink:href="../../d5/d45/wiring__digital_8c_ae3d0bcbe4eb927ca8f5d5c21b7e4f224.xhtml#ae3d0bcbe4eb927ca8f5d5c21b7e4f224" target="_top" xlink:title=" ">
<polygon fill="white" stroke="#666666" points="1045,-20 970,-20 970,-1 1045,-1 1045,-20"/>
<text text-anchor="middle" x="1007.5" y="-8" font-family="Helvetica,sans-Serif" font-size="10.00">turnOffPWM</text>
</a>
</g>
</g>
<!-- Node6&#45;&gt;Node7 -->
<g id="edge6_Node000006_Node000007" class="edge">
<title>Node6&#45;&gt;Node7</title>
<g id="a_edge6_Node000006_Node000007"><a xlink:title=" ">
<path fill="none" stroke="#63b8ff" d="M916.25,-10.5C929.76,-10.5 945.3,-10.5 959.63,-10.5"/>
<polygon fill="#63b8ff" stroke="#63b8ff" points="959.81,-14 969.81,-10.5 959.81,-7 959.81,-14"/>
</a>
</g>
</g>
<!-- Node8&#45;&gt;Node3 -->
<g id="edge9_Node000008_Node000003" class="edge">
<title>Node8&#45;&gt;Node3</title>
<g id="a_edge9_Node000008_Node000003"><a xlink:title=" ">
<path fill="none" stroke="#63b8ff" d="M476.27,-17.12C484.71,-18.05 493.37,-19.01 501.93,-19.96"/>
<polygon fill="#63b8ff" stroke="#63b8ff" points="501.57,-23.44 511.89,-21.07 502.34,-16.49 501.57,-23.44"/>
</a>
</g>
</g>
</g>
</svg>
