<?xml version="1.0" encoding="UTF-8" standalone="no"?>
<!DOCTYPE svg PUBLIC "-//W3C//DTD SVG 1.1//EN"
 "http://www.w3.org/Graphics/SVG/1.1/DTD/svg11.dtd">
<!-- Generated by graphviz version 2.43.0 (0)
 -->
<!-- Title: switchLEDToRed Pages: 1 -->
<svg width="1036pt" height="65pt"
 viewBox="0.00 0.00 1036.00 65.00" xmlns="http://www.w3.org/2000/svg" xmlns:xlink="http://www.w3.org/1999/xlink">
<g id="graph0" class="graph" transform="scale(1 1) rotate(0) translate(4 61)">
<title>switchLEDToRed</title>
<!-- Node1 -->
<g id="Node000001" class="node">
<title>Node1</title>
<g id="a_Node000001"><a xlink:title="Allume la LED en rouge.">
<polygon fill="#999999" stroke="#666666" points="96,-38 0,-38 0,-19 96,-19 96,-38"/>
<text text-anchor="middle" x="48" y="-26" font-family="Helvetica,sans-Serif" font-size="10.00">switchLEDToRed</text>
</a>
</g>
</g>
<!-- Node2 -->
<g id="Node000002" class="node">
<title>Node2</title>
<g id="a_Node000002"><a xlink:href="../../d5/dc9/classChainableLED.xhtml#a2b8a41a192a231e77cad268bdbaebd34" target="_top" xlink:title=" ">
<polygon fill="white" stroke="#666666" points="284,-38 132,-38 132,-19 284,-19 284,-38"/>
<text text-anchor="middle" x="208" y="-26" font-family="Helvetica,sans-Serif" font-size="10.00">ChainableLED::setColorRGB</text>
</a>
</g>
</g>
<!-- Node1&#45;&gt;Node2 -->
<g id="edge1_Node000001_Node000002" class="edge">
<title>Node1&#45;&gt;Node2</title>
<g id="a_edge1_Node000001_Node000002"><a xlink:title=" ">
<path fill="none" stroke="#63b8ff" d="M96.41,-28.5C104.44,-28.5 113,-28.5 121.66,-28.5"/>
<polygon fill="#63b8ff" stroke="#63b8ff" points="121.85,-32 131.85,-28.5 121.85,-25 121.85,-32"/>
</a>
</g>
</g>
<!-- Node3 -->
<g id="Node000003" class="node">
<title>Node3</title>
<g id="a_Node000003"><a xlink:href="../../d5/dc9/classChainableLED.xhtml#af9dddebec83065625cbd6f8f05b992e7" target="_top" xlink:title=" ">
<polygon fill="white" stroke="#666666" points="631,-38 495,-38 495,-19 631,-19 631,-38"/>
<text text-anchor="middle" x="563" y="-26" font-family="Helvetica,sans-Serif" font-size="10.00">ChainableLED::sendByte</text>
</a>
</g>
</g>
<!-- Node2&#45;&gt;Node3 -->
<g id="edge2_Node000002_Node000003" class="edge">
<title>Node2&#45;&gt;Node3</title>
<g id="a_edge2_Node000002_Node000003"><a xlink:title=" ">
<path fill="none" stroke="#63b8ff" d="M284.29,-28.5C343.34,-28.5 425.22,-28.5 484.77,-28.5"/>
<polygon fill="#63b8ff" stroke="#63b8ff" points="484.87,-32 494.87,-28.5 484.87,-25 484.87,-32"/>
</a>
</g>
</g>
<!-- Node8 -->
<g id="Node000008" class="node">
<title>Node8</title>
<g id="a_Node000008"><a xlink:href="../../d5/dc9/classChainableLED.xhtml#a7c5c2661fc02dee9f174485a2fadeb7a" target="_top" xlink:title=" ">
<polygon fill="white" stroke="#666666" points="459,-19 320,-19 320,0 459,0 459,-19"/>
<text text-anchor="middle" x="389.5" y="-7" font-family="Helvetica,sans-Serif" font-size="10.00">ChainableLED::sendColor</text>
</a>
</g>
</g>
<!-- Node2&#45;&gt;Node8 -->
<g id="edge8_Node000002_Node000008" class="edge">
<title>Node2&#45;&gt;Node8</title>
<g id="a_edge8_Node000002_Node000008"><a xlink:title=" ">
<path fill="none" stroke="#63b8ff" d="M284.08,-20.55C292.48,-19.66 301.06,-18.76 309.51,-17.86"/>
<polygon fill="#63b8ff" stroke="#63b8ff" points="310.15,-21.31 319.73,-16.78 309.42,-14.35 310.15,-21.31"/>
</a>
</g>
</g>
<!-- Node4 -->
<g id="Node000004" class="node">
<title>Node4</title>
<g id="a_Node000004"><a xlink:href="../../d5/dc9/classChainableLED.xhtml#af384841b6f083865c7fce288b039d275" target="_top" xlink:title=" ">
<polygon fill="white" stroke="#666666" points="771,-57 667,-57 667,-38 771,-38 771,-57"/>
<text text-anchor="middle" x="719" y="-45" font-family="Helvetica,sans-Serif" font-size="10.00">ChainableLED::clk</text>
</a>
</g>
</g>
<!-- Node3&#45;&gt;Node4 -->
<g id="edge3_Node000003_Node000004" class="edge">
<title>Node3&#45;&gt;Node4</title>
<g id="a_edge3_Node000003_Node000004"><a xlink:title=" ">
<path fill="none" stroke="#63b8ff" d="M631.1,-36.78C639.63,-37.83 648.32,-38.9 656.75,-39.94"/>
<polygon fill="#63b8ff" stroke="#63b8ff" points="656.52,-43.44 666.87,-41.19 657.38,-36.49 656.52,-43.44"/>
</a>
</g>
</g>
<!-- Node6 -->
<g id="Node000006" class="node">
<title>Node6</title>
<g id="a_Node000006"><a xlink:href="../../d5/d45/wiring__digital_8c.xhtml#a73b9b61feeaf7d790d107f2954a7fd93" target="_top" xlink:title=" ">
<polygon fill="white" stroke="#666666" points="899,-20 825,-20 825,-1 899,-1 899,-20"/>
<text text-anchor="middle" x="862" y="-8" font-family="Helvetica,sans-Serif" font-size="10.00">digitalWrite</text>
</a>
</g>
</g>
<!-- Node3&#45;&gt;Node6 -->
<g id="edge7_Node000003_Node000006" class="edge">
<title>Node3&#45;&gt;Node6</title>
<g id="a_edge7_Node000003_Node000006"><a xlink:title=" ">
<path fill="none" stroke="#63b8ff" d="M631.02,-24.44C687.09,-21.04 765.59,-16.28 814.85,-13.3"/>
<polygon fill="#63b8ff" stroke="#63b8ff" points="815.12,-16.79 824.89,-12.69 814.7,-9.8 815.12,-16.79"/>
</a>
</g>
</g>
<!-- Node5 -->
<g id="Node000005" class="node">
<title>Node5</title>
<g id="a_Node000005"><a xlink:href="../../d5/df3/wiring_8c.xhtml#a62e0a53bc261f9de8700cc5a92307e85" target="_top" xlink:title=" ">
<polygon fill="white" stroke="#666666" points="917,-57 807,-57 807,-38 917,-38 917,-57"/>
<text text-anchor="middle" x="862" y="-45" font-family="Helvetica,sans-Serif" font-size="10.00">delayMicroseconds</text>
</a>
</g>
</g>
<!-- Node4&#45;&gt;Node5 -->
<g id="edge4_Node000004_Node000005" class="edge">
<title>Node4&#45;&gt;Node5</title>
<g id="a_edge4_Node000004_Node000005"><a xlink:title=" ">
<path fill="none" stroke="#63b8ff" d="M771.3,-47.5C779.48,-47.5 788.02,-47.5 796.45,-47.5"/>
<polygon fill="#63b8ff" stroke="#63b8ff" points="796.65,-51 806.65,-47.5 796.65,-44 796.65,-51"/>
</a>
</g>
</g>
<!-- Node4&#45;&gt;Node6 -->
<g id="edge5_Node000004_Node000006" class="edge">
<title>Node4&#45;&gt;Node6</title>
<g id="a_edge5_Node000004_Node000006"><a xlink:title=" ">
<path fill="none" stroke="#63b8ff" d="M756.31,-37.97C774.24,-33.27 796.06,-27.54 815.13,-22.54"/>
<polygon fill="#63b8ff" stroke="#63b8ff" points="816.03,-25.92 824.81,-20 814.25,-19.15 816.03,-25.92"/>
</a>
</g>
</g>
<!-- Node7 -->
<g id="Node000007" class="node">
<title>Node7</title>
<g id="a_Node000007"><a xlink:href="../../d5/d45/wiring__digital_8c.xhtml#ae3d0bcbe4eb927ca8f5d5c21b7e4f224" target="_top" xlink:title=" ">
<polygon fill="white" stroke="#666666" points="1028,-20 953,-20 953,-1 1028,-1 1028,-20"/>
<text text-anchor="middle" x="990.5" y="-8" font-family="Helvetica,sans-Serif" font-size="10.00">turnOffPWM</text>
</a>
</g>
</g>
<!-- Node6&#45;&gt;Node7 -->
<g id="edge6_Node000006_Node000007" class="edge">
<title>Node6&#45;&gt;Node7</title>
<g id="a_edge6_Node000006_Node000007"><a xlink:title=" ">
<path fill="none" stroke="#63b8ff" d="M899.25,-10.5C912.76,-10.5 928.3,-10.5 942.63,-10.5"/>
<polygon fill="#63b8ff" stroke="#63b8ff" points="942.81,-14 952.81,-10.5 942.81,-7 942.81,-14"/>
</a>
</g>
</g>
<!-- Node8&#45;&gt;Node3 -->
<g id="edge9_Node000008_Node000003" class="edge">
<title>Node8&#45;&gt;Node3</title>
<g id="a_edge9_Node000008_Node000003"><a xlink:title=" ">
<path fill="none" stroke="#63b8ff" d="M459.27,-17.12C467.71,-18.05 476.37,-19.01 484.93,-19.96"/>
<polygon fill="#63b8ff" stroke="#63b8ff" points="484.57,-23.44 494.89,-21.07 485.34,-16.49 484.57,-23.44"/>
</a>
</g>
</g>
</g>
</svg>
