<?xml version="1.0" encoding="UTF-8" standalone="no"?>
<!DOCTYPE svg PUBLIC "-//W3C//DTD SVG 1.1//EN"
 "http://www.w3.org/Graphics/SVG/1.1/DTD/svg11.dtd">
<!-- Generated by graphviz version 2.43.0 (0)
 -->
<!-- Title: initLEDTimer Pages: 1 -->
<!--zoomable 363 -->

<svg id="main" version="1.1" xmlns="http://www.w3.org/2000/svg" xmlns:xlink="http://www.w3.org/1999/xlink" xml:space="preserve" onload="init(evt)">
<style type="text/css"><![CDATA[
.node, .edge {opacity: 0.7;}
.node.selected, .edge.selected {opacity: 1;}
.edge:hover path { stroke: red; }
.edge:hover polygon { stroke: red; fill: red; }
]]></style>

<defs>
  <circle id="rim" cx="0" cy="0" r="7"/>
  <circle id="rim2" cx="0" cy="0" r="3.5"/>
  <g id="zoomPlus">
    <use xlink:href="#rim" fill="#404040"><set attributeName="fill" to="#808080" begin="zoomplus.mouseover" end="zoomplus.mouseout"/></use>
    <path d="M-4,0h8M0,-4v8" fill="none" stroke="white" stroke-width="1.5" pointer-events="none"/>
  </g>
  <g id="zoomMin">
    <use xlink:href="#rim" fill="#404040"><set attributeName="fill" to="#808080" begin="zoomminus.mouseover" end="zoomminus.mouseout"/></use>
    <path d="M-4,0h8" fill="none" stroke="white" stroke-width="1.5" pointer-events="none"/>
  </g>
  <g id="arrowUp" transform="translate(30 24)">
    <use xlink:href="#rim"/>
    <path pointer-events="none" fill="none" stroke="white" stroke-width="1.5" d="M0,-3.0v7 M-2.5,-0.5L0,-3.0L2.5,-0.5"/>
  </g>
  <g id="arrowRight" transform="rotate(90) translate(36 -43)">
    <use xlink:href="#rim"/>
    <path pointer-events="none" fill="none" stroke="white" stroke-width="1.5" d="M0,-3.0v7 M-2.5,-0.5L0,-3.0L2.5,-0.5"/>
  </g>
  <g id="arrowDown" transform="rotate(180) translate(-30 -48)">
    <use xlink:href="#rim"/>
    <path pointer-events="none" fill="none" stroke="white" stroke-width="1.5" d="M0,-3.0v7 M-2.5,-0.5L0,-3.0L2.5,-0.5"/>
  </g>
  <g id="arrowLeft" transform="rotate(270) translate(-36 17)">
    <use xlink:href="#rim"/>
    <path pointer-events="none" fill="none" stroke="white" stroke-width="1.5" d="M0,-3.0v7 M-2.5,-0.5L0,-3.0L2.5,-0.5"/>
  </g>
  <g id="resetDef">
    <use xlink:href="#rim2" fill="#404040"><set attributeName="fill" to="#808080" begin="reset.mouseover" end="reset.mouseout"/></use>
  </g>
</defs>
<script type="application/ecmascript">
var viewWidth = 1186;
var viewHeight = 363;
var sectionId = 'dynsection-7';
</script>
<script type="application/ecmascript" xlink:href="../../svg.min.js"/>
<svg id="graph" class="graph">
<g id="viewport">
<title>initLEDTimer</title>
<!-- Node1 -->
<g id="Node000001" class="node">
<title>Node1</title>
<g id="a_Node000001"><a xlink:title="Fait clignoter la LED en alternant entre deux couleurs avec une fréquence de 1 secondes pendant durat...">
<polygon fill="#999999" stroke="#666666" points="1178,-92.87 1098,-92.87 1098,-73.87 1178,-73.87 1178,-92.87"/>
<text text-anchor="middle" x="1138" y="-80.87" font-family="Helvetica,sans-Serif" font-size="10.00">initLEDTimer</text>
</a>
</g>
</g>
<!-- Node2 -->
<g id="Node000002" class="node">
<title>Node2</title>
<g id="a_Node000002"><a xlink:href="../../d6/d30/acquisition_8cpp.xhtml#aa378a3751950c161e743d0fcac2044f2" target="_top" xlink:title="Fonction d&#39;acquisition des données.">
<polygon fill="white" stroke="#666666" points="599,-54.87 529,-54.87 529,-35.87 599,-35.87 599,-54.87"/>
<text text-anchor="middle" x="564" y="-42.87" font-family="Helvetica,sans-Serif" font-size="10.00">acquisition</text>
</a>
</g>
</g>
<!-- Node1&#45;&gt;Node2 -->
<g id="edge1_Node000001_Node000002" class="edge">
<title>Node1&#45;&gt;Node2</title>
<g id="a_edge1_Node000001_Node000002"><a xlink:title=" ">
<path fill="none" stroke="#63b8ff" d="M1120.62,-66.18C1106.54,-52.73 1084.92,-35.06 1062,-27.37 896.05,28.35 681.22,-15.48 599.02,-36.12"/>
<polygon fill="#63b8ff" stroke="#63b8ff" points="1118.43,-68.94 1127.99,-73.5 1123.36,-63.97 1118.43,-68.94"/>
</a>
</g>
</g>
<!-- Node8 -->
<g id="Node000008" class="node">
<title>Node8</title>
<g id="a_Node000008"><a xlink:href="../../db/d17/led_8cpp.xhtml#a7ba25f44529972e627561bcf6efc192f" target="_top" xlink:title="La LED passe successivement du rouge au vert. La LED reste rouge pendant 1 seconde puis passe au vert...">
<polygon fill="white" stroke="#666666" points="1062,-166.87 931,-166.87 931,-147.87 1062,-147.87 1062,-166.87"/>
<text text-anchor="middle" x="996.5" y="-154.87" font-family="Helvetica,sans-Serif" font-size="10.00">switchLEDToRed2Green</text>
</a>
</g>
</g>
<!-- Node1&#45;&gt;Node8 -->
<g id="edge9_Node000001_Node000008" class="edge">
<title>Node1&#45;&gt;Node8</title>
<g id="a_edge9_Node000001_Node000008"><a xlink:title=" ">
<path fill="none" stroke="#63b8ff" d="M1118.99,-99.84C1104.53,-112.28 1083.21,-128.94 1062,-139.37 1055.22,-142.7 1047.72,-145.5 1040.31,-147.82"/>
<polygon fill="#63b8ff" stroke="#63b8ff" points="1121.47,-102.32 1126.66,-93.08 1116.84,-97.07 1121.47,-102.32"/>
</a>
</g>
</g>
<!-- Node25 -->
<g id="Node000025" class="node">
<title>Node25</title>
<g id="a_Node000025"><a xlink:href="../../db/d17/led_8cpp.xhtml#aa04c4b7972bc68200e4d2da56b097115" target="_top" xlink:title="La LED passe successivement du rouge au bleu avec une fréquence de 1 seconde.">
<polygon fill="white" stroke="#666666" points="1055.5,-129.87 937.5,-129.87 937.5,-110.87 1055.5,-110.87 1055.5,-129.87"/>
<text text-anchor="middle" x="996.5" y="-117.87" font-family="Helvetica,sans-Serif" font-size="10.00">switchLEDToRedBlue</text>
</a>
</g>
</g>
<!-- Node1&#45;&gt;Node25 -->
<g id="edge36_Node000001_Node000025" class="edge">
<title>Node1&#45;&gt;Node25</title>
<g id="a_edge36_Node000001_Node000025"><a xlink:title=" ">
<path fill="none" stroke="#63b8ff" d="M1091.3,-95.49C1072.64,-100.44 1051.36,-106.08 1033.79,-110.74"/>
<polygon fill="#63b8ff" stroke="#63b8ff" points="1092.31,-98.84 1101.08,-92.89 1090.51,-92.08 1092.31,-98.84"/>
</a>
</g>
</g>
<!-- Node26 -->
<g id="Node000026" class="node">
<title>Node26</title>
<g id="a_Node000026"><a xlink:href="../../db/d17/led_8cpp.xhtml#a59bf7437503d490ee53223c3bd20aa0c" target="_top" xlink:title="La LED passe successivement du rouge au vert avec une fréquence de 1 seconde.">
<polygon fill="white" stroke="#666666" points="1059,-92.87 934,-92.87 934,-73.87 1059,-73.87 1059,-92.87"/>
<text text-anchor="middle" x="996.5" y="-80.87" font-family="Helvetica,sans-Serif" font-size="10.00">switchLEDToRedGreen</text>
</a>
</g>
</g>
<!-- Node1&#45;&gt;Node26 -->
<g id="edge38_Node000001_Node000026" class="edge">
<title>Node1&#45;&gt;Node26</title>
<g id="a_edge38_Node000001_Node000026"><a xlink:title=" ">
<path fill="none" stroke="#63b8ff" d="M1087.62,-83.37C1078.4,-83.37 1068.66,-83.37 1059.13,-83.37"/>
<polygon fill="#63b8ff" stroke="#63b8ff" points="1087.77,-86.87 1097.77,-83.37 1087.77,-79.87 1087.77,-86.87"/>
</a>
</g>
</g>
<!-- Node27 -->
<g id="Node000027" class="node">
<title>Node27</title>
<g id="a_Node000027"><a xlink:href="../../db/d17/led_8cpp.xhtml#a91398c440a9f9f48d59e14eb727e61ae" target="_top" xlink:title="La LED passe successivement du rouge au jaune avec une fréquence de 1 seconde.">
<polygon fill="white" stroke="#666666" points="1060,-55.87 933,-55.87 933,-36.87 1060,-36.87 1060,-55.87"/>
<text text-anchor="middle" x="996.5" y="-43.87" font-family="Helvetica,sans-Serif" font-size="10.00">switchLEDToRedYellow</text>
</a>
</g>
</g>
<!-- Node1&#45;&gt;Node27 -->
<g id="edge40_Node000001_Node000027" class="edge">
<title>Node1&#45;&gt;Node27</title>
<g id="a_edge40_Node000001_Node000027"><a xlink:title=" ">
<path fill="none" stroke="#63b8ff" d="M1091.3,-71.25C1072.64,-66.3 1051.36,-60.65 1033.79,-55.99"/>
<polygon fill="#63b8ff" stroke="#63b8ff" points="1090.51,-74.66 1101.08,-73.84 1092.31,-67.89 1090.51,-74.66"/>
</a>
</g>
</g>
<!-- Node3 -->
<g id="Node000003" class="node">
<title>Node3</title>
<g id="a_Node000003"><a xlink:href="../../d9/ddd/economy_8cpp.xhtml#a35740c7a73b48d918cb4e6d891d46bed" target="_top" xlink:title="Exécute une étape de la boucle principale du mode économique.">
<polygon fill="white" stroke="#666666" points="455,-93.87 329,-93.87 329,-74.87 455,-74.87 455,-93.87"/>
<text text-anchor="middle" x="392" y="-81.87" font-family="Helvetica,sans-Serif" font-size="10.00">runEconomyModeStep</text>
</a>
</g>
</g>
<!-- Node2&#45;&gt;Node3 -->
<g id="edge2_Node000002_Node000003" class="edge">
<title>Node2&#45;&gt;Node3</title>
<g id="a_edge2_Node000002_Node000003"><a xlink:title=" ">
<path fill="none" stroke="#63b8ff" d="M518.63,-55.54C492.65,-61.51 460.04,-68.99 434.56,-74.83"/>
<polygon fill="#63b8ff" stroke="#63b8ff" points="519.63,-58.91 528.6,-53.26 518.07,-52.08 519.63,-58.91"/>
</a>
</g>
</g>
<!-- Node6 -->
<g id="Node000006" class="node">
<title>Node6</title>
<g id="a_Node000006"><a xlink:href="../../d6/d46/maintenance_8cpp.xhtml#ae80c7faecffa585182b14e2ee396009e" target="_top" xlink:title="Exécute une étape de la boucle principale du mode maintenance.">
<polygon fill="white" stroke="#666666" points="464,-19.87 320,-19.87 320,-0.87 464,-0.87 464,-19.87"/>
<text text-anchor="middle" x="392" y="-7.87" font-family="Helvetica,sans-Serif" font-size="10.00">runMaintenanceModeStep</text>
</a>
</g>
</g>
<!-- Node2&#45;&gt;Node6 -->
<g id="edge5_Node000002_Node000006" class="edge">
<title>Node2&#45;&gt;Node6</title>
<g id="a_edge5_Node000002_Node000006"><a xlink:title=" ">
<path fill="none" stroke="#63b8ff" d="M518.53,-36.21C494.15,-31.19 463.94,-24.97 439.27,-19.89"/>
<polygon fill="#63b8ff" stroke="#63b8ff" points="518.1,-39.69 528.6,-38.28 519.51,-32.84 518.1,-39.69"/>
</a>
</g>
</g>
<!-- Node7 -->
<g id="Node000007" class="node">
<title>Node7</title>
<g id="a_Node000007"><a xlink:href="../../df/d92/standard_8cpp.xhtml#ad0b3e86793f7441084351fc2de4d4c45" target="_top" xlink:title="Exécute une étape de la boucle principale du mode standard.">
<polygon fill="white" stroke="#666666" points="454.5,-56.87 329.5,-56.87 329.5,-37.87 454.5,-37.87 454.5,-56.87"/>
<text text-anchor="middle" x="392" y="-44.87" font-family="Helvetica,sans-Serif" font-size="10.00">runStandardModeStep</text>
</a>
</g>
</g>
<!-- Node2&#45;&gt;Node7 -->
<g id="edge7_Node000002_Node000007" class="edge">
<title>Node2&#45;&gt;Node7</title>
<g id="a_edge7_Node000002_Node000007"><a xlink:title=" ">
<path fill="none" stroke="#63b8ff" d="M518.46,-45.89C498.92,-46.12 475.67,-46.39 454.52,-46.64"/>
<polygon fill="#63b8ff" stroke="#63b8ff" points="518.64,-49.39 528.6,-45.77 518.56,-42.39 518.64,-49.39"/>
</a>
</g>
</g>
<!-- Node4 -->
<g id="Node000004" class="node">
<title>Node4</title>
<g id="a_Node000004"><a xlink:href="../../de/dfb/src_2main_8cpp.xhtml#afe461d27b9c48d5921c00d521181f12f" target="_top" xlink:title=" ">
<polygon fill="white" stroke="#666666" points="239.5,-56.87 201.5,-56.87 201.5,-37.87 239.5,-37.87 239.5,-56.87"/>
<text text-anchor="middle" x="220.5" y="-44.87" font-family="Helvetica,sans-Serif" font-size="10.00">loop</text>
</a>
</g>
</g>
<!-- Node3&#45;&gt;Node4 -->
<g id="edge3_Node000003_Node000004" class="edge">
<title>Node3&#45;&gt;Node4</title>
<g id="a_edge3_Node000003_Node000004"><a xlink:title=" ">
<path fill="none" stroke="#63b8ff" d="M337.23,-72.63C303.77,-65.32 262.83,-56.39 239.7,-51.34"/>
<polygon fill="#63b8ff" stroke="#63b8ff" points="336.83,-76.12 347.35,-74.84 338.33,-69.29 336.83,-76.12"/>
</a>
</g>
</g>
<!-- Node5 -->
<g id="Node000005" class="node">
<title>Node5</title>
<g id="a_Node000005"><a xlink:href="../../d2/d81/libs_2Arduino__AVR_2main_8cpp.xhtml#a840291bc02cba5474a4cb46a9b9566fe" target="_top" xlink:title=" ">
<polygon fill="white" stroke="#666666" points="41,-111.87 0,-111.87 0,-92.87 41,-92.87 41,-111.87"/>
<text text-anchor="middle" x="20.5" y="-99.87" font-family="Helvetica,sans-Serif" font-size="10.00">main</text>
</a>
</g>
</g>
<!-- Node4&#45;&gt;Node5 -->
<g id="edge4_Node000004_Node000005" class="edge">
<title>Node4&#45;&gt;Node5</title>
<g id="a_edge4_Node000004_Node000005"><a xlink:title=" ">
<path fill="none" stroke="#63b8ff" d="M191.42,-55.17C150.76,-66.46 76.51,-87.08 41.19,-96.9"/>
<polygon fill="#63b8ff" stroke="#63b8ff" points="192.53,-58.49 201.23,-52.44 190.66,-51.75 192.53,-58.49"/>
</a>
</g>
</g>
<!-- Node6&#45;&gt;Node4 -->
<g id="edge6_Node000006_Node000004" class="edge">
<title>Node6&#45;&gt;Node4</title>
<g id="a_edge6_Node000006_Node000004"><a xlink:title=" ">
<path fill="none" stroke="#63b8ff" d="M337.23,-22.1C303.77,-29.41 262.83,-38.34 239.7,-43.39"/>
<polygon fill="#63b8ff" stroke="#63b8ff" points="338.33,-25.45 347.35,-19.89 336.83,-18.61 338.33,-25.45"/>
</a>
</g>
</g>
<!-- Node7&#45;&gt;Node4 -->
<g id="edge8_Node000007_Node000004" class="edge">
<title>Node7&#45;&gt;Node4</title>
<g id="a_edge8_Node000007_Node000004"><a xlink:title=" ">
<path fill="none" stroke="#63b8ff" d="M319.13,-47.37C289.99,-47.37 258.77,-47.37 239.69,-47.37"/>
<polygon fill="#63b8ff" stroke="#63b8ff" points="319.33,-50.87 329.33,-47.37 319.33,-43.87 319.33,-50.87"/>
</a>
</g>
</g>
<!-- Node9 -->
<g id="Node000009" class="node">
<title>Node9</title>
<g id="a_Node000009"><a xlink:href="../../dd/db1/error_8cpp.xhtml#aa07018cc68b21b664b4ca75a67e679f0" target="_top" xlink:title=" ">
<polygon fill="white" stroke="#666666" points="895,-129.87 786,-129.87 786,-110.87 895,-110.87 895,-129.87"/>
<text text-anchor="middle" x="840.5" y="-117.87" font-family="Helvetica,sans-Serif" font-size="10.00">switchToErrorMode</text>
</a>
</g>
</g>
<!-- Node8&#45;&gt;Node9 -->
<g id="edge10_Node000008_Node000009" class="edge">
<title>Node8&#45;&gt;Node9</title>
<g id="a_edge10_Node000008_Node000009"><a xlink:title=" ">
<path fill="none" stroke="#63b8ff" d="M945.87,-145.44C924.97,-140.42 900.99,-134.66 881.29,-129.93"/>
<polygon fill="#63b8ff" stroke="#63b8ff" points="945.3,-148.9 955.84,-147.84 946.94,-142.1 945.3,-148.9"/>
</a>
</g>
</g>
<!-- Node9&#45;&gt;Node2 -->
<g id="edge11_Node000009_Node000002" class="edge">
<title>Node9&#45;&gt;Node2</title>
<g id="a_edge11_Node000009_Node000002"><a xlink:title=" ">
<path fill="none" stroke="#63b8ff" d="M794.69,-108.12C740.04,-93.19 648.85,-68.27 599.4,-54.77"/>
<polygon fill="#63b8ff" stroke="#63b8ff" points="793.89,-111.53 804.46,-110.79 795.73,-104.78 793.89,-111.53"/>
</a>
</g>
</g>
<!-- Node10 -->
<g id="Node000010" class="node">
<title>Node10</title>
<g id="a_Node000010"><a xlink:href="../../d4/d82/bme_8cpp.xhtml#a60b50a3dd4d18262c0376da53233f071" target="_top" xlink:title="Initialise le capteur BME280.">
<polygon fill="white" stroke="#666666" points="419,-149.87 365,-149.87 365,-130.87 419,-130.87 419,-149.87"/>
<text text-anchor="middle" x="392" y="-137.87" font-family="Helvetica,sans-Serif" font-size="10.00">initBME</text>
</a>
</g>
</g>
<!-- Node9&#45;&gt;Node10 -->
<g id="edge12_Node000009_Node000010" class="edge">
<title>Node9&#45;&gt;Node10</title>
<g id="a_edge12_Node000009_Node000010"><a xlink:title=" ">
<path fill="none" stroke="#63b8ff" d="M775.4,-123.24C675.71,-127.7 487.82,-136.12 419.06,-139.2"/>
<polygon fill="#63b8ff" stroke="#63b8ff" points="775.81,-126.72 785.64,-122.78 775.5,-119.73 775.81,-126.72"/>
</a>
</g>
</g>
<!-- Node15 -->
<g id="Node000015" class="node">
<title>Node15</title>
<g id="a_Node000015"><a xlink:href="../../d0/ded/sd_8cpp.xhtml#a9d3643dd7aeaea6f58648a50f1ad7833" target="_top" xlink:title="Montage de la carte SD.">
<polygon fill="white" stroke="#666666" points="731,-224.87 683,-224.87 683,-205.87 731,-205.87 731,-224.87"/>
<text text-anchor="middle" x="707" y="-212.87" font-family="Helvetica,sans-Serif" font-size="10.00">mount</text>
</a>
</g>
</g>
<!-- Node9&#45;&gt;Node15 -->
<g id="edge20_Node000009_Node000015" class="edge">
<title>Node9&#45;&gt;Node15</title>
<g id="a_edge20_Node000009_Node000015"><a xlink:title=" ">
<path fill="none" stroke="#63b8ff" d="M817.73,-136.09C790.29,-155.92 743.98,-189.37 721.31,-205.75"/>
<polygon fill="#63b8ff" stroke="#63b8ff" points="819.87,-138.87 825.92,-130.17 815.77,-133.19 819.87,-138.87"/>
</a>
</g>
</g>
<!-- Node18 -->
<g id="Node000018" class="node">
<title>Node18</title>
<g id="a_Node000018"><a xlink:href="../../dc/d3d/gps_8cpp.xhtml#a05a3d705d8063851304bb49200834d1b" target="_top" xlink:title="Lit les données GPS.">
<polygon fill="white" stroke="#666666" points="736,-53.87 678,-53.87 678,-34.87 736,-34.87 736,-53.87"/>
<text text-anchor="middle" x="707" y="-41.87" font-family="Helvetica,sans-Serif" font-size="10.00">readGPS</text>
</a>
</g>
</g>
<!-- Node9&#45;&gt;Node18 -->
<g id="edge24_Node000009_Node000018" class="edge">
<title>Node9&#45;&gt;Node18</title>
<g id="a_edge24_Node000009_Node000018"><a xlink:title=" ">
<path fill="none" stroke="#63b8ff" d="M814.32,-105.67C796.4,-95.23 771.75,-80.9 750,-68.37 741.7,-63.59 732.47,-58.3 724.77,-53.91"/>
<polygon fill="#63b8ff" stroke="#63b8ff" points="812.62,-108.73 823.02,-110.75 816.15,-102.69 812.62,-108.73"/>
</a>
</g>
</g>
<!-- Node19 -->
<g id="Node000019" class="node">
<title>Node19</title>
<g id="a_Node000019"><a xlink:href="../../d0/ded/sd_8cpp.xhtml#a5b86241374c9a379af845d4adaa170b5" target="_top" xlink:title="Sauvegarde des données sur la carte SD.">
<polygon fill="white" stroke="#666666" points="595.5,-93.87 532.5,-93.87 532.5,-74.87 595.5,-74.87 595.5,-93.87"/>
<text text-anchor="middle" x="564" y="-81.87" font-family="Helvetica,sans-Serif" font-size="10.00">saveData</text>
</a>
</g>
</g>
<!-- Node9&#45;&gt;Node19 -->
<g id="edge26_Node000009_Node000019" class="edge">
<title>Node9&#45;&gt;Node19</title>
<g id="a_edge26_Node000009_Node000019"><a xlink:title=" ">
<path fill="none" stroke="#63b8ff" d="M775.66,-111.99C719.19,-104.59 639.21,-94.1 595.85,-88.41"/>
<polygon fill="#63b8ff" stroke="#63b8ff" points="775.55,-115.51 785.92,-113.34 776.46,-108.57 775.55,-115.51"/>
</a>
</g>
</g>
<!-- Node20 -->
<g id="Node000020" class="node">
<title>Node20</title>
<g id="a_Node000020"><a xlink:href="../../d9/d88/mode_8cpp.xhtml#a5117cd9a1dd27db325ab6540d8d2c983" target="_top" xlink:title="Change le mode actuel.">
<polygon fill="white" stroke="#666666" points="750,-317.87 664,-317.87 664,-298.87 750,-298.87 750,-317.87"/>
<text text-anchor="middle" x="707" y="-305.87" font-family="Helvetica,sans-Serif" font-size="10.00">switchToMode</text>
</a>
</g>
</g>
<!-- Node9&#45;&gt;Node20 -->
<g id="edge29_Node000009_Node000020" class="edge">
<title>Node9&#45;&gt;Node20</title>
<g id="a_edge29_Node000009_Node000020"><a xlink:title=" ">
<path fill="none" stroke="#63b8ff" d="M827,-138.24C799.77,-177.16 735.88,-268.51 714.85,-298.58"/>
<polygon fill="#63b8ff" stroke="#63b8ff" points="829.93,-140.15 832.8,-129.95 824.2,-136.14 829.93,-140.15"/>
</a>
</g>
</g>
<!-- Node11 -->
<g id="Node000011" class="node">
<title>Node11</title>
<g id="a_Node000011"><a xlink:href="../../dd/d8e/humidity_8cpp.xhtml#a8813b724c24b006d720ff4e9be164093" target="_top" xlink:title="Initialise le capteur d&#39;humidité.">
<polygon fill="white" stroke="#666666" points="275.5,-167.87 165.5,-167.87 165.5,-148.87 275.5,-148.87 275.5,-167.87"/>
<text text-anchor="middle" x="220.5" y="-155.87" font-family="Helvetica,sans-Serif" font-size="10.00">initHumiditySensor</text>
</a>
</g>
</g>
<!-- Node10&#45;&gt;Node11 -->
<g id="edge13_Node000010_Node000011" class="edge">
<title>Node10&#45;&gt;Node11</title>
<g id="a_edge13_Node000010_Node000011"><a xlink:title=" ">
<path fill="none" stroke="#63b8ff" d="M354.86,-144.2C331.84,-146.65 301.58,-149.86 275.71,-152.61"/>
<polygon fill="#63b8ff" stroke="#63b8ff" points="355.31,-147.68 364.89,-143.14 354.57,-140.71 355.31,-147.68"/>
</a>
</g>
</g>
<!-- Node13 -->
<g id="Node000013" class="node">
<title>Node13</title>
<g id="a_Node000013"><a xlink:href="../../d8/ddf/pressure_8cpp.xhtml#afeb7254ac3d1603fe28432de687313fb" target="_top" xlink:title="Initialise le capteur de pression.">
<polygon fill="white" stroke="#666666" points="274,-130.87 167,-130.87 167,-111.87 274,-111.87 274,-130.87"/>
<text text-anchor="middle" x="220.5" y="-118.87" font-family="Helvetica,sans-Serif" font-size="10.00">initPressureSensor</text>
</a>
</g>
</g>
<!-- Node10&#45;&gt;Node13 -->
<g id="edge16_Node000010_Node000013" class="edge">
<title>Node10&#45;&gt;Node13</title>
<g id="a_edge16_Node000010_Node000013"><a xlink:title=" ">
<path fill="none" stroke="#63b8ff" d="M354.69,-136.3C331.28,-133.67 300.43,-130.21 274.31,-127.29"/>
<polygon fill="#63b8ff" stroke="#63b8ff" points="354.56,-139.8 364.89,-137.44 355.34,-132.85 354.56,-139.8"/>
</a>
</g>
</g>
<!-- Node14 -->
<g id="Node000014" class="node">
<title>Node14</title>
<g id="a_Node000014"><a xlink:href="../../d0/d3d/temperature_8cpp.xhtml#ac69c9a2d697216ab21dcab3087b54729" target="_top" xlink:title="Initialise le capteur de température.">
<polygon fill="white" stroke="#666666" points="284,-93.87 157,-93.87 157,-74.87 284,-74.87 284,-93.87"/>
<text text-anchor="middle" x="220.5" y="-81.87" font-family="Helvetica,sans-Serif" font-size="10.00">initTemperatureSensor</text>
</a>
</g>
</g>
<!-- Node10&#45;&gt;Node14 -->
<g id="edge18_Node000010_Node000014" class="edge">
<title>Node10&#45;&gt;Node14</title>
<g id="a_edge18_Node000010_Node000014"><a xlink:title=" ">
<path fill="none" stroke="#63b8ff" d="M355.05,-127.56C334.34,-120.27 307.78,-111.09 284,-103.37 274.18,-100.18 263.45,-96.86 253.69,-93.9"/>
<polygon fill="#63b8ff" stroke="#63b8ff" points="354.12,-130.94 364.71,-130.96 356.44,-124.34 354.12,-130.94"/>
</a>
</g>
</g>
<!-- Node12 -->
<g id="Node000012" class="node">
<title>Node12</title>
<g id="a_Node000012"><a xlink:href="../../de/dfb/src_2main_8cpp.xhtml#a4fc01d736fe50cf5b977f755b675f11d" target="_top" xlink:title=" ">
<polygon fill="white" stroke="#666666" points="121,-148.87 77,-148.87 77,-129.87 121,-129.87 121,-148.87"/>
<text text-anchor="middle" x="99" y="-136.87" font-family="Helvetica,sans-Serif" font-size="10.00">setup</text>
</a>
</g>
</g>
<!-- Node11&#45;&gt;Node12 -->
<g id="edge14_Node000011_Node000012" class="edge">
<title>Node11&#45;&gt;Node12</title>
<g id="a_edge14_Node000011_Node000012"><a xlink:title=" ">
<path fill="none" stroke="#63b8ff" d="M155.39,-148.17C142.99,-146.2 130.85,-144.27 121.11,-142.72"/>
<polygon fill="#63b8ff" stroke="#63b8ff" points="154.92,-151.64 165.34,-149.76 156.02,-144.73 154.92,-151.64"/>
</a>
</g>
</g>
<!-- Node12&#45;&gt;Node5 -->
<g id="edge15_Node000012_Node000005" class="edge">
<title>Node12&#45;&gt;Node5</title>
<g id="a_edge15_Node000012_Node000005"><a xlink:title=" ">
<path fill="none" stroke="#63b8ff" d="M69.28,-125.47C59.89,-120.94 49.69,-116 41.13,-111.86"/>
<polygon fill="#63b8ff" stroke="#63b8ff" points="67.77,-128.63 78.3,-129.84 70.82,-122.33 67.77,-128.63"/>
</a>
</g>
</g>
<!-- Node13&#45;&gt;Node12 -->
<g id="edge17_Node000013_Node000012" class="edge">
<title>Node13&#45;&gt;Node12</title>
<g id="a_edge17_Node000013_Node000012"><a xlink:title=" ">
<path fill="none" stroke="#63b8ff" d="M156.48,-130.86C143.69,-132.78 131.1,-134.68 121.07,-136.19"/>
<polygon fill="#63b8ff" stroke="#63b8ff" points="157.37,-134.26 166.74,-129.31 156.33,-127.34 157.37,-134.26"/>
</a>
</g>
</g>
<!-- Node14&#45;&gt;Node12 -->
<g id="edge19_Node000014_Node000012" class="edge">
<title>Node14&#45;&gt;Node12</title>
<g id="a_edge19_Node000014_Node000012"><a xlink:title=" ">
<path fill="none" stroke="#63b8ff" d="M172.61,-97.11C167.27,-99.01 161.96,-101.09 157,-103.37 141.04,-110.67 124.21,-121.78 113.01,-129.72"/>
<polygon fill="#63b8ff" stroke="#63b8ff" points="173.83,-100.4 182.21,-93.91 171.61,-93.75 173.83,-100.4"/>
</a>
</g>
</g>
<!-- Node15&#45;&gt;Node12 -->
<g id="edge23_Node000015_Node000012" class="edge">
<title>Node15&#45;&gt;Node12</title>
<g id="a_edge23_Node000015_Node000012"><a xlink:title=" ">
<path fill="none" stroke="#63b8ff" d="M672.48,-215.29C568.59,-214.69 253.18,-210.16 157,-177.37 139.21,-171.3 121.67,-158.25 110.84,-149.14"/>
<polygon fill="#63b8ff" stroke="#63b8ff" points="672.68,-218.79 682.7,-215.34 672.71,-211.79 672.68,-218.79"/>
</a>
</g>
</g>
<!-- Node16 -->
<g id="Node000016" class="node">
<title>Node16</title>
<g id="a_Node000016"><a xlink:href="../../df/d22/configuration_8cpp.xhtml#a9e246d9996b76ad7b81266d6533a930e" target="_top" xlink:title="Quitte le mode de configuration.">
<polygon fill="white" stroke="#666666" points="628,-280.87 500,-280.87 500,-261.87 628,-261.87 628,-280.87"/>
<text text-anchor="middle" x="564" y="-268.87" font-family="Helvetica,sans-Serif" font-size="10.00">quitConfigurationMode</text>
</a>
</g>
</g>
<!-- Node15&#45;&gt;Node16 -->
<g id="edge21_Node000015_Node000016" class="edge">
<title>Node15&#45;&gt;Node16</title>
<g id="a_edge21_Node000015_Node000016"><a xlink:title=" ">
<path fill="none" stroke="#63b8ff" d="M679.62,-229.65C664.75,-237.34 645.65,-246.6 628,-253.37 619.93,-256.46 611.09,-259.3 602.67,-261.77"/>
<polygon fill="#63b8ff" stroke="#63b8ff" points="681.51,-232.61 688.73,-224.87 678.25,-226.42 681.51,-232.61"/>
</a>
</g>
</g>
<!-- Node17 -->
<g id="Node000017" class="node">
<title>Node17</title>
<g id="a_Node000017"><a xlink:href="../../d6/d46/maintenance_8cpp.xhtml#ac99882e56a7b3976942cb3ffb6bebe98" target="_top" xlink:title="Quitte le mode maintenance.">
<polygon fill="white" stroke="#666666" points="626.5,-243.87 501.5,-243.87 501.5,-224.87 626.5,-224.87 626.5,-243.87"/>
<text text-anchor="middle" x="564" y="-231.87" font-family="Helvetica,sans-Serif" font-size="10.00">quitMaintenanceMode</text>
</a>
</g>
</g>
<!-- Node15&#45;&gt;Node17 -->
<g id="edge22_Node000015_Node000017" class="edge">
<title>Node15&#45;&gt;Node17</title>
<g id="a_edge22_Node000015_Node000017"><a xlink:title=" ">
<path fill="none" stroke="#63b8ff" d="M672.75,-219.85C658.96,-221.71 642.5,-223.92 626.65,-226.06"/>
<polygon fill="#63b8ff" stroke="#63b8ff" points="673.27,-223.31 682.72,-218.5 672.34,-216.37 673.27,-223.31"/>
</a>
</g>
</g>
<!-- Node18&#45;&gt;Node2 -->
<g id="edge25_Node000018_Node000002" class="edge">
<title>Node18&#45;&gt;Node2</title>
<g id="a_edge25_Node000018_Node000002"><a xlink:title=" ">
<path fill="none" stroke="#63b8ff" d="M667.74,-44.64C646.32,-44.79 619.83,-44.98 599.12,-45.12"/>
<polygon fill="#63b8ff" stroke="#63b8ff" points="667.83,-48.14 677.81,-44.57 667.78,-41.14 667.83,-48.14"/>
</a>
</g>
</g>
<!-- Node19&#45;&gt;Node3 -->
<g id="edge27_Node000019_Node000003" class="edge">
<title>Node19&#45;&gt;Node3</title>
<g id="a_edge27_Node000019_Node000003"><a xlink:title=" ">
<path fill="none" stroke="#63b8ff" d="M522.18,-84.37C502.14,-84.37 477.57,-84.37 455.25,-84.37"/>
<polygon fill="#63b8ff" stroke="#63b8ff" points="522.21,-87.87 532.21,-84.37 522.21,-80.87 522.21,-87.87"/>
</a>
</g>
</g>
<!-- Node19&#45;&gt;Node7 -->
<g id="edge28_Node000019_Node000007" class="edge">
<title>Node19&#45;&gt;Node7</title>
<g id="a_edge28_Node000019_Node000007"><a xlink:title=" ">
<path fill="none" stroke="#63b8ff" d="M522.36,-75.52C496.52,-69.9 463.07,-62.62 436.67,-56.87"/>
<polygon fill="#63b8ff" stroke="#63b8ff" points="521.7,-78.96 532.21,-77.67 523.19,-72.12 521.7,-78.96"/>
</a>
</g>
</g>
<!-- Node21 -->
<g id="Node000021" class="node">
<title>Node21</title>
<g id="a_Node000021"><a xlink:href="../../d9/d88/mode_8cpp.xhtml#aebf1ca4bb83f667202b4a32cc7d3e2a9" target="_top" xlink:title="Réalise le changement de mode lorsqu&#39;on appuie sur le bouton vert pendant BUTTON_DELAY.">
<polygon fill="white" stroke="#666666" points="621.5,-317.87 506.5,-317.87 506.5,-298.87 621.5,-298.87 621.5,-317.87"/>
<text text-anchor="middle" x="564" y="-305.87" font-family="Helvetica,sans-Serif" font-size="10.00">greenButtonPressed</text>
</a>
</g>
</g>
<!-- Node20&#45;&gt;Node21 -->
<g id="edge30_Node000020_Node000021" class="edge">
<title>Node20&#45;&gt;Node21</title>
<g id="a_edge30_Node000020_Node000021"><a xlink:title=" ">
<path fill="none" stroke="#63b8ff" d="M653.52,-308.37C643.12,-308.37 632.16,-308.37 621.62,-308.37"/>
<polygon fill="#63b8ff" stroke="#63b8ff" points="653.7,-311.87 663.7,-308.37 653.7,-304.87 653.7,-311.87"/>
</a>
</g>
</g>
<!-- Node24 -->
<g id="Node000024" class="node">
<title>Node24</title>
<g id="a_Node000024"><a xlink:href="../../d9/d88/mode_8cpp.xhtml#abfb388c3517fd2ecbd1a89e7e15e43fd" target="_top" xlink:title="Réalise le changement de mode lorsqu&#39;on appuie sur le bouton rouge pendant BUTTON_DELAY.">
<polygon fill="white" stroke="#666666" points="615.5,-354.87 512.5,-354.87 512.5,-335.87 615.5,-335.87 615.5,-354.87"/>
<text text-anchor="middle" x="564" y="-342.87" font-family="Helvetica,sans-Serif" font-size="10.00">redButtonPressed</text>
</a>
</g>
</g>
<!-- Node20&#45;&gt;Node24 -->
<g id="edge34_Node000020_Node000024" class="edge">
<title>Node20&#45;&gt;Node24</title>
<g id="a_edge34_Node000020_Node000024"><a xlink:title=" ">
<path fill="none" stroke="#63b8ff" d="M659.81,-320.49C640.95,-325.44 619.44,-331.08 601.68,-335.74"/>
<polygon fill="#63b8ff" stroke="#63b8ff" points="660.9,-323.82 669.69,-317.89 659.13,-317.05 660.9,-323.82"/>
</a>
</g>
</g>
<!-- Node22 -->
<g id="Node000022" class="node">
<title>Node22</title>
<g id="a_Node000022"><a xlink:href="../../d9/d52/buttons_8cpp.xhtml#a54d82e2e60914d150743dcfe6ddbbece" target="_top" xlink:title="Fonction appelée lors de l&#39;appui sur le bouton vert ou rouge.">
<polygon fill="white" stroke="#666666" points="435,-317.87 349,-317.87 349,-298.87 435,-298.87 435,-317.87"/>
<text text-anchor="middle" x="392" y="-305.87" font-family="Helvetica,sans-Serif" font-size="10.00">buttonPressed</text>
</a>
</g>
</g>
<!-- Node21&#45;&gt;Node22 -->
<g id="edge31_Node000021_Node000022" class="edge">
<title>Node21&#45;&gt;Node22</title>
<g id="a_edge31_Node000021_Node000022"><a xlink:title=" ">
<path fill="none" stroke="#63b8ff" d="M496.12,-308.37C475.56,-308.37 453.52,-308.37 435.11,-308.37"/>
<polygon fill="#63b8ff" stroke="#63b8ff" points="496.39,-311.87 506.39,-308.37 496.39,-304.87 496.39,-311.87"/>
</a>
</g>
</g>
<!-- Node23 -->
<g id="Node000023" class="node">
<title>Node23</title>
<g id="a_Node000023"><a xlink:href="../../d9/d52/buttons_8cpp.xhtml#a82677b3df6b653b673a4b1735af9d45d" target="_top" xlink:title="Initialise les interruptions sur les boutons.">
<polygon fill="white" stroke="#666666" points="276.5,-280.87 164.5,-280.87 164.5,-261.87 276.5,-261.87 276.5,-280.87"/>
<text text-anchor="middle" x="220.5" y="-268.87" font-family="Helvetica,sans-Serif" font-size="10.00">initButtonsInterrupt</text>
</a>
</g>
</g>
<!-- Node22&#45;&gt;Node23 -->
<g id="edge32_Node000022_Node000023" class="edge">
<title>Node22&#45;&gt;Node23</title>
<g id="a_edge32_Node000022_Node000023"><a xlink:title=" ">
<path fill="none" stroke="#63b8ff" d="M338.81,-296.97C315.18,-291.81 287.56,-285.79 265.06,-280.88"/>
<polygon fill="#63b8ff" stroke="#63b8ff" points="338.15,-300.41 348.67,-299.12 339.64,-293.57 338.15,-300.41"/>
</a>
</g>
</g>
<!-- Node23&#45;&gt;Node12 -->
<g id="edge33_Node000023_Node000012" class="edge">
<title>Node23&#45;&gt;Node12</title>
<g id="a_edge33_Node000023_Node000012"><a xlink:title=" ">
<path fill="none" stroke="#63b8ff" d="M201.27,-254.68C188.49,-242.72 171.21,-226.02 157,-210.37 138.09,-189.53 117.92,-163.34 107.38,-149.32"/>
<polygon fill="#63b8ff" stroke="#63b8ff" points="199.23,-257.57 208.94,-261.8 203.99,-252.43 199.23,-257.57"/>
</a>
</g>
</g>
<!-- Node24&#45;&gt;Node22 -->
<g id="edge35_Node000024_Node000022" class="edge">
<title>Node24&#45;&gt;Node22</title>
<g id="a_edge35_Node000024_Node000022"><a xlink:title=" ">
<path fill="none" stroke="#63b8ff" d="M509.23,-333.66C485.31,-328.46 457.55,-322.42 435.16,-317.54"/>
<polygon fill="#63b8ff" stroke="#63b8ff" points="508.71,-337.13 519.22,-335.84 510.19,-330.29 508.71,-337.13"/>
</a>
</g>
</g>
<!-- Node25&#45;&gt;Node9 -->
<g id="edge37_Node000025_Node000009" class="edge">
<title>Node25&#45;&gt;Node9</title>
<g id="a_edge37_Node000025_Node000009"><a xlink:title=" ">
<path fill="none" stroke="#63b8ff" d="M927.13,-120.37C916.44,-120.37 905.53,-120.37 895.24,-120.37"/>
<polygon fill="#63b8ff" stroke="#63b8ff" points="927.28,-123.87 937.28,-120.37 927.28,-116.87 927.28,-123.87"/>
</a>
</g>
</g>
<!-- Node26&#45;&gt;Node9 -->
<g id="edge39_Node000026_Node000009" class="edge">
<title>Node26&#45;&gt;Node9</title>
<g id="a_edge39_Node000026_Node000009"><a xlink:title=" ">
<path fill="none" stroke="#63b8ff" d="M945.87,-95.29C924.97,-100.31 900.99,-106.07 881.29,-110.81"/>
<polygon fill="#63b8ff" stroke="#63b8ff" points="946.94,-98.63 955.84,-92.89 945.3,-91.83 946.94,-98.63"/>
</a>
</g>
</g>
<!-- Node27&#45;&gt;Node9 -->
<g id="edge41_Node000027_Node000009" class="edge">
<title>Node27&#45;&gt;Node9</title>
<g id="a_edge41_Node000027_Node000009"><a xlink:title=" ">
<path fill="none" stroke="#63b8ff" d="M947.13,-59.09C941.61,-60.98 936.13,-63.08 931,-65.37 902.17,-78.2 871.44,-98.8 854.53,-110.82"/>
<polygon fill="#63b8ff" stroke="#63b8ff" points="948.6,-62.29 957.04,-55.88 946.45,-55.63 948.6,-62.29"/>
</a>
</g>
</g>
</g>
</svg>

<g id="navigator" transform="translate(0 0)" fill="#404254">
  <rect fill="#f2f5e9" fill-opacity="0.5" stroke="#606060" stroke-width=".5" x="0" y="0" width="60" height="60"/>
  <use id="zoomplus" xlink:href="#zoomPlus" x="17" y="9" onmousedown="handleZoom(evt,'in')"/>
  <use id="zoomminus" xlink:href="#zoomMin" x="42" y="9" onmousedown="handleZoom(evt,'out')"/>
  <use id="reset" xlink:href="#resetDef" x="30" y="36" onmousedown="handleReset()"/>
   <use id="arrowup" xlink:href="#arrowUp" x="0" y="0" onmousedown="handlePan(0,-1)"/>
  <use id="arrowright" xlink:href="#arrowRight" x="0" y="0" onmousedown="handlePan(1,0)"/>
  <use id="arrowdown" xlink:href="#arrowDown" x="0" y="0" onmousedown="handlePan(0,1)"/>
  <use id="arrowleft" xlink:href="#arrowLeft" x="0" y="0" onmousedown="handlePan(-1,0)"/>
</g>
<svg viewBox="0 0 15 15" width="100%" height="30px" preserveAspectRatio="xMaxYMin meet">
 <g id="arrow_out" transform="scale(0.3 0.3)">
  <a xlink:href="led_8hpp_aa2d49caed8f5ce97778549e0ef0a03c6_icgraph_org.svg" target="_base">
   <rect id="button" ry="5" rx="5" y="6" x="6" height="38" width="38"
        fill="#f2f5e9" fill-opacity="0.5" stroke="#606060" stroke-width="1.0"/>
   <path id="arrow"
     d="M 11.500037,31.436501 C 11.940474,20.09759 22.043105,11.32322 32.158766,21.979434 L 37.068811,17.246167 C 37.068811,17.246167 37.088388,32 37.088388,32 L 22.160133,31.978069 C 22.160133,31.978069 26.997745,27.140456 26.997745,27.140456 C 18.528582,18.264221 13.291696,25.230495 11.500037,31.436501 z"
     style="fill:#404040;"/>
  </a>
 </g>
</svg>

<style type='text/css'>
<![CDATA[
[data-mouse-over-selected='false'] { opacity: 0.7; }
[data-mouse-over-selected='true']  { opacity: 1.0; }
]]>
</style>
<script type="application/ecmascript"><![CDATA[
document.addEventListener('DOMContentLoaded', (event) => {
  highlightEdges();
  highlightAdjacentNodes();
});
]]></script>
</svg>
