<?xml version="1.0" encoding="UTF-8" standalone="no"?>
<!DOCTYPE svg PUBLIC "-//W3C//DTD SVG 1.1//EN"
 "http://www.w3.org/Graphics/SVG/1.1/DTD/svg11.dtd">
<!-- Generated by graphviz version 2.43.0 (0)
 -->
<!-- Title: switchLEDToRedGreen Pages: 1 -->
<svg width="1346pt" height="255pt"
 viewBox="0.00 0.00 1346.00 254.79" xmlns="http://www.w3.org/2000/svg" xmlns:xlink="http://www.w3.org/1999/xlink">
<g id="graph0" class="graph" transform="scale(1 1) rotate(0) translate(4 250.79)">
<title>switchLEDToRedGreen</title>
<!-- Node1 -->
<g id="Node000001" class="node">
<title>Node1</title>
<g id="a_Node000001"><a xlink:title="La LED passe successivement du rouge au vert avec une fréquence de 1 seconde.">
<polygon fill="#999999" stroke="#666666" points="125,-57 0,-57 0,-38 125,-38 125,-57"/>
<text text-anchor="middle" x="62.5" y="-45" font-family="Helvetica,sans-Serif" font-size="10.00">switchLEDToRedGreen</text>
</a>
</g>
</g>
<!-- Node2 -->
<g id="Node000002" class="node">
<title>Node2</title>
<g id="a_Node000002"><a xlink:href="../../db/d17/led_8cpp.xhtml#aa2d49caed8f5ce97778549e0ef0a03c6" target="_top" xlink:title="Fait clignoter la LED en alternant entre deux couleurs avec une fréquence de 1 secondes pendant durat...">
<polygon fill="white" stroke="#666666" points="249,-131 169,-131 169,-112 249,-112 249,-131"/>
<text text-anchor="middle" x="209" y="-119" font-family="Helvetica,sans-Serif" font-size="10.00">initLEDTimer</text>
</a>
</g>
</g>
<!-- Node1&#45;&gt;Node2 -->
<g id="edge1_Node000001_Node000002" class="edge">
<title>Node1&#45;&gt;Node2</title>
<g id="a_edge1_Node000001_Node000002"><a xlink:title=" ">
<path fill="none" stroke="#63b8ff" d="M82.1,-57.02C106.89,-69.72 150.99,-92.3 179.86,-107.09"/>
<polygon fill="#63b8ff" stroke="#63b8ff" points="178.52,-110.34 189.02,-111.78 181.71,-104.11 178.52,-110.34"/>
</a>
</g>
</g>
<!-- Node16 -->
<g id="Node000016" class="node">
<title>Node16</title>
<g id="a_Node000016"><a xlink:href="../../db/d17/led_8cpp.xhtml#a1c1c60dba65e2b65592bf4a0fe46b91c" target="_top" xlink:title="Allume la LED en vert.">
<polygon fill="white" stroke="#666666" points="403,-57 296,-57 296,-38 403,-38 403,-57"/>
<text text-anchor="middle" x="349.5" y="-45" font-family="Helvetica,sans-Serif" font-size="10.00">switchLEDToGreen</text>
</a>
</g>
</g>
<!-- Node1&#45;&gt;Node16 -->
<g id="edge25_Node000001_Node000016" class="edge">
<title>Node1&#45;&gt;Node16</title>
<g id="a_edge25_Node000001_Node000016"><a xlink:title=" ">
<path fill="none" stroke="#63b8ff" d="M125.34,-47.5C172.77,-47.5 237.99,-47.5 285.67,-47.5"/>
<polygon fill="#63b8ff" stroke="#63b8ff" points="285.87,-51 295.87,-47.5 285.87,-44 285.87,-51"/>
</a>
</g>
</g>
<!-- Node19 -->
<g id="Node000019" class="node">
<title>Node19</title>
<g id="a_Node000019"><a xlink:href="../../db/d17/led_8cpp.xhtml#ae18cd762c6f843eb4421cd651a5d3940" target="_top" xlink:title="Allume la LED en rouge.">
<polygon fill="white" stroke="#666666" points="257,-19 161,-19 161,0 257,0 257,-19"/>
<text text-anchor="middle" x="209" y="-7" font-family="Helvetica,sans-Serif" font-size="10.00">switchLEDToRed</text>
</a>
</g>
</g>
<!-- Node1&#45;&gt;Node19 -->
<g id="edge26_Node000001_Node000019" class="edge">
<title>Node1&#45;&gt;Node19</title>
<g id="a_edge26_Node000001_Node000019"><a xlink:title=" ">
<path fill="none" stroke="#63b8ff" d="M99.96,-37.91C118.77,-32.96 141.91,-26.88 161.95,-21.61"/>
<polygon fill="#63b8ff" stroke="#63b8ff" points="163.02,-24.95 171.8,-19.02 161.24,-18.18 163.02,-24.95"/>
</a>
</g>
</g>
<!-- Node3 -->
<g id="Node000003" class="node">
<title>Node3</title>
<g id="a_Node000003"><a xlink:href="../../dc/de5/timer_8cpp.xhtml#a75f67483e2c676b6e8ea29bca518e6c7" target="_top" xlink:title="Crée une nouvelle instance du timer.">
<polygon fill="white" stroke="#666666" points="559,-210 477,-210 477,-191 559,-191 559,-210"/>
<text text-anchor="middle" x="518" y="-198" font-family="Helvetica,sans-Serif" font-size="10.00">createTimer2</text>
</a>
</g>
</g>
<!-- Node2&#45;&gt;Node3 -->
<g id="edge2_Node000002_Node000003" class="edge">
<title>Node2&#45;&gt;Node3</title>
<g id="a_edge2_Node000002_Node000003"><a xlink:title=" ">
<path fill="none" stroke="#63b8ff" d="M213.72,-131.33C222.99,-154.21 249.54,-210.73 293,-232.5 357.66,-264.89 445.15,-234.15 489.2,-214.33"/>
<polygon fill="#63b8ff" stroke="#63b8ff" points="490.83,-217.43 498.43,-210.05 487.88,-211.08 490.83,-217.43"/>
</a>
</g>
</g>
<!-- Node7 -->
<g id="Node000007" class="node">
<title>Node7</title>
<g id="a_Node000007"><a xlink:href="../../db/d17/led_8cpp.xhtml#ab88ba8c1c79f75d5caa97fa7939bc4fb" target="_top" xlink:title="Fonction exécutée à chaque interruption du timer 2.">
<polygon fill="white" stroke="#666666" points="388,-205 311,-205 311,-186 388,-186 388,-205"/>
<text text-anchor="middle" x="349.5" y="-193" font-family="Helvetica,sans-Serif" font-size="10.00">LEDInterrupt</text>
</a>
</g>
</g>
<!-- Node2&#45;&gt;Node7 -->
<g id="edge6_Node000002_Node000007" class="edge">
<title>Node2&#45;&gt;Node7</title>
<g id="a_edge6_Node000002_Node000007"><a xlink:title=" ">
<path fill="none" stroke="#63b8ff" d="M221.99,-131.19C237.57,-143.38 265.97,-164.32 293,-177.5 296.59,-179.25 300.38,-180.88 304.24,-182.4"/>
<polygon fill="#63b8ff" stroke="#63b8ff" points="303.27,-185.77 313.86,-185.92 305.67,-179.2 303.27,-185.77"/>
</a>
</g>
</g>
<!-- Node8 -->
<g id="Node000008" class="node">
<title>Node8</title>
<g id="a_Node000008"><a xlink:href="../../db/d17/led_8cpp.xhtml#a4f39000a638bc309a30f90d7fbb5a8a1" target="_top" xlink:title="Allume la LED en bleu.">
<polygon fill="white" stroke="#666666" points="399,-168 300,-168 300,-149 399,-149 399,-168"/>
<text text-anchor="middle" x="349.5" y="-156" font-family="Helvetica,sans-Serif" font-size="10.00">switchLEDToBlue</text>
</a>
</g>
</g>
<!-- Node2&#45;&gt;Node8 -->
<g id="edge9_Node000002_Node000008" class="edge">
<title>Node2&#45;&gt;Node8</title>
<g id="a_edge9_Node000002_Node000008"><a xlink:title=" ">
<path fill="none" stroke="#63b8ff" d="M245.67,-131.03C263.06,-135.67 284.18,-141.32 302.75,-146.28"/>
<polygon fill="#63b8ff" stroke="#63b8ff" points="301.91,-149.68 312.47,-148.88 303.71,-142.91 301.91,-149.68"/>
</a>
</g>
</g>
<!-- Node2&#45;&gt;Node16 -->
<g id="edge19_Node000002_Node000016" class="edge">
<title>Node2&#45;&gt;Node16</title>
<g id="a_edge19_Node000002_Node000016"><a xlink:title=" ">
<path fill="none" stroke="#63b8ff" d="M222.33,-111.86C238.03,-99.95 266.33,-79.63 293,-66.5 297.29,-64.39 301.86,-62.42 306.48,-60.6"/>
<polygon fill="#63b8ff" stroke="#63b8ff" points="307.78,-63.85 315.95,-57.09 305.35,-57.28 307.78,-63.85"/>
</a>
</g>
</g>
<!-- Node17 -->
<g id="Node000017" class="node">
<title>Node17</title>
<g id="a_Node000017"><a xlink:href="../../db/d17/led_8cpp.xhtml#aa58a00fd07d1ae6fd45c10c874766911" target="_top" xlink:title="Allume la LED en orange.">
<polygon fill="white" stroke="#666666" points="406,-131 293,-131 293,-112 406,-112 406,-131"/>
<text text-anchor="middle" x="349.5" y="-119" font-family="Helvetica,sans-Serif" font-size="10.00">switchLEDToOrange</text>
</a>
</g>
</g>
<!-- Node2&#45;&gt;Node17 -->
<g id="edge21_Node000002_Node000017" class="edge">
<title>Node2&#45;&gt;Node17</title>
<g id="a_edge21_Node000002_Node000017"><a xlink:title=" ">
<path fill="none" stroke="#63b8ff" d="M249.32,-121.5C259.67,-121.5 271.12,-121.5 282.46,-121.5"/>
<polygon fill="#63b8ff" stroke="#63b8ff" points="282.8,-125 292.8,-121.5 282.8,-118 282.8,-125"/>
</a>
</g>
</g>
<!-- Node18 -->
<g id="Node000018" class="node">
<title>Node18</title>
<g id="a_Node000018"><a xlink:href="../../db/d17/led_8cpp.xhtml#af8230cfc3cf386fa1253cd37b3cd215d" target="_top" xlink:title="Allume la LED en jaune.">
<polygon fill="white" stroke="#666666" points="403.5,-94 295.5,-94 295.5,-75 403.5,-75 403.5,-94"/>
<text text-anchor="middle" x="349.5" y="-82" font-family="Helvetica,sans-Serif" font-size="10.00">switchLEDToYellow</text>
</a>
</g>
</g>
<!-- Node2&#45;&gt;Node18 -->
<g id="edge23_Node000002_Node000018" class="edge">
<title>Node2&#45;&gt;Node18</title>
<g id="a_edge23_Node000002_Node000018"><a xlink:title=" ">
<path fill="none" stroke="#63b8ff" d="M245.67,-111.97C263.06,-107.33 284.18,-101.68 302.75,-96.72"/>
<polygon fill="#63b8ff" stroke="#63b8ff" points="303.71,-100.09 312.47,-94.12 301.91,-93.32 303.71,-100.09"/>
</a>
</g>
</g>
<!-- Node4 -->
<g id="Node000004" class="node">
<title>Node4</title>
<g id="a_Node000004"><a xlink:href="../../d5/df3/wiring_8c.xhtml#a6bc5f943544a887f8b23cadfb26a5e30" target="_top" xlink:title=" ">
<polygon fill="white" stroke="#666666" points="721.5,-210 677.5,-210 677.5,-191 721.5,-191 721.5,-210"/>
<text text-anchor="middle" x="699.5" y="-198" font-family="Helvetica,sans-Serif" font-size="10.00">delay</text>
</a>
</g>
</g>
<!-- Node3&#45;&gt;Node4 -->
<g id="edge3_Node000003_Node000004" class="edge">
<title>Node3&#45;&gt;Node4</title>
<g id="a_edge3_Node000003_Node000004"><a xlink:title=" ">
<path fill="none" stroke="#63b8ff" d="M559.28,-200.5C591.87,-200.5 637.12,-200.5 667.07,-200.5"/>
<polygon fill="#63b8ff" stroke="#63b8ff" points="667.36,-204 677.36,-200.5 667.36,-197 667.36,-204"/>
</a>
</g>
</g>
<!-- Node5 -->
<g id="Node000005" class="node">
<title>Node5</title>
<g id="a_Node000005"><a xlink:href="../../d5/df3/wiring_8c.xhtml#a8b24cbb7c3486e1bfa05c86db83ecb01" target="_top" xlink:title=" ">
<polygon fill="white" stroke="#666666" points="898,-219 848,-219 848,-200 898,-200 898,-219"/>
<text text-anchor="middle" x="873" y="-207" font-family="Helvetica,sans-Serif" font-size="10.00">micros</text>
</a>
</g>
</g>
<!-- Node4&#45;&gt;Node5 -->
<g id="edge4_Node000004_Node000005" class="edge">
<title>Node4&#45;&gt;Node5</title>
<g id="a_edge4_Node000004_Node000005"><a xlink:title=" ">
<path fill="none" stroke="#63b8ff" d="M721.53,-201.6C750.47,-203.12 802.92,-205.87 837.61,-207.7"/>
<polygon fill="#63b8ff" stroke="#63b8ff" points="837.59,-211.2 847.76,-208.23 837.96,-204.21 837.59,-211.2"/>
</a>
</g>
</g>
<!-- Node6 -->
<g id="Node000006" class="node">
<title>Node6</title>
<g id="a_Node000006"><a xlink:href="../../de/df0/Arduino_8h.xhtml#a7cb51f5c2b5cad3766f19eb69c92793b" target="_top" xlink:title=" ">
<polygon fill="white" stroke="#666666" points="893.5,-182 852.5,-182 852.5,-163 893.5,-163 893.5,-182"/>
<text text-anchor="middle" x="873" y="-170" font-family="Helvetica,sans-Serif" font-size="10.00">yield</text>
</a>
</g>
</g>
<!-- Node4&#45;&gt;Node6 -->
<g id="edge5_Node000004_Node000006" class="edge">
<title>Node4&#45;&gt;Node6</title>
<g id="a_edge5_Node000004_Node000006"><a xlink:title=" ">
<path fill="none" stroke="#63b8ff" d="M721.53,-197.07C751.85,-192.12 807.96,-182.95 842.44,-177.33"/>
<polygon fill="#63b8ff" stroke="#63b8ff" points="843.08,-180.77 852.39,-175.7 841.96,-173.86 843.08,-180.77"/>
</a>
</g>
</g>
<!-- Node7&#45;&gt;Node3 -->
<g id="edge7_Node000007_Node000003" class="edge">
<title>Node7&#45;&gt;Node3</title>
<g id="a_edge7_Node000007_Node000003"><a xlink:title=" ">
<path fill="none" stroke="#63b8ff" d="M388.28,-196.63C411.47,-197.33 441.45,-198.23 466.64,-198.99"/>
<polygon fill="#63b8ff" stroke="#63b8ff" points="466.65,-202.49 476.75,-199.29 466.86,-195.49 466.65,-202.49"/>
</a>
</g>
</g>
<!-- Node7&#45;&gt;Node7 -->
<g id="edge8_Node000007_Node000007" class="edge">
<title>Node7&#45;&gt;Node7</title>
<g id="a_edge8_Node000007_Node000007"><a xlink:title=" ">
<path fill="none" stroke="#63b8ff" d="M327.92,-205.08C317.42,-213.73 324.62,-223 349.5,-223 365.44,-223 374.12,-219.2 375.54,-214.19"/>
<polygon fill="#63b8ff" stroke="#63b8ff" points="378.62,-212.52 371.08,-205.08 372.34,-215.6 378.62,-212.52"/>
</a>
</g>
</g>
<!-- Node9 -->
<g id="Node000009" class="node">
<title>Node9</title>
<g id="a_Node000009"><a xlink:href="../../d5/dc9/classChainableLED.xhtml#a2b8a41a192a231e77cad268bdbaebd34" target="_top" xlink:title=" ">
<polygon fill="white" stroke="#666666" points="594,-94 442,-94 442,-75 594,-75 594,-94"/>
<text text-anchor="middle" x="518" y="-82" font-family="Helvetica,sans-Serif" font-size="10.00">ChainableLED::setColorRGB</text>
</a>
</g>
</g>
<!-- Node8&#45;&gt;Node9 -->
<g id="edge10_Node000008_Node000009" class="edge">
<title>Node8&#45;&gt;Node9</title>
<g id="a_edge10_Node000008_Node000009"><a xlink:title=" ">
<path fill="none" stroke="#63b8ff" d="M382.79,-148.95C390.48,-146.43 398.6,-143.55 406,-140.5 436.04,-128.14 469.12,-110.96 491.29,-98.89"/>
<polygon fill="#63b8ff" stroke="#63b8ff" points="493,-101.95 500.08,-94.07 489.63,-95.81 493,-101.95"/>
</a>
</g>
</g>
<!-- Node10 -->
<g id="Node000010" class="node">
<title>Node10</title>
<g id="a_Node000010"><a xlink:href="../../d5/dc9/classChainableLED.xhtml#af9dddebec83065625cbd6f8f05b992e7" target="_top" xlink:title=" ">
<polygon fill="white" stroke="#666666" points="941,-127 805,-127 805,-108 941,-108 941,-127"/>
<text text-anchor="middle" x="873" y="-115" font-family="Helvetica,sans-Serif" font-size="10.00">ChainableLED::sendByte</text>
</a>
</g>
</g>
<!-- Node9&#45;&gt;Node10 -->
<g id="edge11_Node000009_Node000010" class="edge">
<title>Node9&#45;&gt;Node10</title>
<g id="a_edge11_Node000009_Node000010"><a xlink:title=" ">
<path fill="none" stroke="#63b8ff" d="M567.46,-94C586.84,-97.49 609.41,-101.15 630,-103.5 684.83,-109.76 746.98,-113.28 794.57,-115.22"/>
<polygon fill="#63b8ff" stroke="#63b8ff" points="794.67,-118.73 804.8,-115.63 794.95,-111.74 794.67,-118.73"/>
</a>
</g>
</g>
<!-- Node15 -->
<g id="Node000015" class="node">
<title>Node15</title>
<g id="a_Node000015"><a xlink:href="../../d5/dc9/classChainableLED.xhtml#a7c5c2661fc02dee9f174485a2fadeb7a" target="_top" xlink:title=" ">
<polygon fill="white" stroke="#666666" points="769,-94 630,-94 630,-75 769,-75 769,-94"/>
<text text-anchor="middle" x="699.5" y="-82" font-family="Helvetica,sans-Serif" font-size="10.00">ChainableLED::sendColor</text>
</a>
</g>
</g>
<!-- Node9&#45;&gt;Node15 -->
<g id="edge17_Node000009_Node000015" class="edge">
<title>Node9&#45;&gt;Node15</title>
<g id="a_edge17_Node000009_Node000015"><a xlink:title=" ">
<path fill="none" stroke="#63b8ff" d="M594.08,-84.5C602.48,-84.5 611.06,-84.5 619.51,-84.5"/>
<polygon fill="#63b8ff" stroke="#63b8ff" points="619.73,-88 629.73,-84.5 619.73,-81 619.73,-88"/>
</a>
</g>
</g>
<!-- Node11 -->
<g id="Node000011" class="node">
<title>Node11</title>
<g id="a_Node000011"><a xlink:href="../../d5/dc9/classChainableLED.xhtml#af384841b6f083865c7fce288b039d275" target="_top" xlink:title=" ">
<polygon fill="white" stroke="#666666" points="1081,-146 977,-146 977,-127 1081,-127 1081,-146"/>
<text text-anchor="middle" x="1029" y="-134" font-family="Helvetica,sans-Serif" font-size="10.00">ChainableLED::clk</text>
</a>
</g>
</g>
<!-- Node10&#45;&gt;Node11 -->
<g id="edge12_Node000010_Node000011" class="edge">
<title>Node10&#45;&gt;Node11</title>
<g id="a_edge12_Node000010_Node000011"><a xlink:title=" ">
<path fill="none" stroke="#63b8ff" d="M941.1,-125.78C949.63,-126.83 958.32,-127.9 966.75,-128.94"/>
<polygon fill="#63b8ff" stroke="#63b8ff" points="966.52,-132.44 976.87,-130.19 967.38,-125.49 966.52,-132.44"/>
</a>
</g>
</g>
<!-- Node13 -->
<g id="Node000013" class="node">
<title>Node13</title>
<g id="a_Node000013"><a xlink:href="../../d5/d45/wiring__digital_8c.xhtml#a73b9b61feeaf7d790d107f2954a7fd93" target="_top" xlink:title=" ">
<polygon fill="white" stroke="#666666" points="1209,-109 1135,-109 1135,-90 1209,-90 1209,-109"/>
<text text-anchor="middle" x="1172" y="-97" font-family="Helvetica,sans-Serif" font-size="10.00">digitalWrite</text>
</a>
</g>
</g>
<!-- Node10&#45;&gt;Node13 -->
<g id="edge16_Node000010_Node000013" class="edge">
<title>Node10&#45;&gt;Node13</title>
<g id="a_edge16_Node000010_Node000013"><a xlink:title=" ">
<path fill="none" stroke="#63b8ff" d="M941.02,-113.44C997.09,-110.04 1075.59,-105.28 1124.85,-102.3"/>
<polygon fill="#63b8ff" stroke="#63b8ff" points="1125.12,-105.79 1134.89,-101.69 1124.7,-98.8 1125.12,-105.79"/>
</a>
</g>
</g>
<!-- Node12 -->
<g id="Node000012" class="node">
<title>Node12</title>
<g id="a_Node000012"><a xlink:href="../../d5/df3/wiring_8c.xhtml#a62e0a53bc261f9de8700cc5a92307e85" target="_top" xlink:title=" ">
<polygon fill="white" stroke="#666666" points="1227,-146 1117,-146 1117,-127 1227,-127 1227,-146"/>
<text text-anchor="middle" x="1172" y="-134" font-family="Helvetica,sans-Serif" font-size="10.00">delayMicroseconds</text>
</a>
</g>
</g>
<!-- Node11&#45;&gt;Node12 -->
<g id="edge13_Node000011_Node000012" class="edge">
<title>Node11&#45;&gt;Node12</title>
<g id="a_edge13_Node000011_Node000012"><a xlink:title=" ">
<path fill="none" stroke="#63b8ff" d="M1081.3,-136.5C1089.48,-136.5 1098.02,-136.5 1106.45,-136.5"/>
<polygon fill="#63b8ff" stroke="#63b8ff" points="1106.65,-140 1116.65,-136.5 1106.65,-133 1106.65,-140"/>
</a>
</g>
</g>
<!-- Node11&#45;&gt;Node13 -->
<g id="edge14_Node000011_Node000013" class="edge">
<title>Node11&#45;&gt;Node13</title>
<g id="a_edge14_Node000011_Node000013"><a xlink:title=" ">
<path fill="none" stroke="#63b8ff" d="M1066.31,-126.97C1084.24,-122.27 1106.06,-116.54 1125.13,-111.54"/>
<polygon fill="#63b8ff" stroke="#63b8ff" points="1126.03,-114.92 1134.81,-109 1124.25,-108.15 1126.03,-114.92"/>
</a>
</g>
</g>
<!-- Node14 -->
<g id="Node000014" class="node">
<title>Node14</title>
<g id="a_Node000014"><a xlink:href="../../d5/d45/wiring__digital_8c.xhtml#ae3d0bcbe4eb927ca8f5d5c21b7e4f224" target="_top" xlink:title=" ">
<polygon fill="white" stroke="#666666" points="1338,-109 1263,-109 1263,-90 1338,-90 1338,-109"/>
<text text-anchor="middle" x="1300.5" y="-97" font-family="Helvetica,sans-Serif" font-size="10.00">turnOffPWM</text>
</a>
</g>
</g>
<!-- Node13&#45;&gt;Node14 -->
<g id="edge15_Node000013_Node000014" class="edge">
<title>Node13&#45;&gt;Node14</title>
<g id="a_edge15_Node000013_Node000014"><a xlink:title=" ">
<path fill="none" stroke="#63b8ff" d="M1209.25,-99.5C1222.76,-99.5 1238.3,-99.5 1252.63,-99.5"/>
<polygon fill="#63b8ff" stroke="#63b8ff" points="1252.81,-103 1262.81,-99.5 1252.81,-96 1252.81,-103"/>
</a>
</g>
</g>
<!-- Node15&#45;&gt;Node10 -->
<g id="edge18_Node000015_Node000010" class="edge">
<title>Node15&#45;&gt;Node10</title>
<g id="a_edge18_Node000015_Node000010"><a xlink:title=" ">
<path fill="none" stroke="#63b8ff" d="M750.1,-94.04C769.57,-97.79 792.08,-102.12 812.41,-106.03"/>
<polygon fill="#63b8ff" stroke="#63b8ff" points="812.03,-109.52 822.51,-107.98 813.35,-102.65 812.03,-109.52"/>
</a>
</g>
</g>
<!-- Node16&#45;&gt;Node9 -->
<g id="edge20_Node000016_Node000009" class="edge">
<title>Node16&#45;&gt;Node9</title>
<g id="a_edge20_Node000016_Node000009"><a xlink:title=" ">
<path fill="none" stroke="#63b8ff" d="M393.38,-57.03C414.95,-61.82 441.29,-67.68 464.11,-72.75"/>
<polygon fill="#63b8ff" stroke="#63b8ff" points="463.46,-76.19 473.98,-74.94 464.98,-69.35 463.46,-76.19"/>
</a>
</g>
</g>
<!-- Node17&#45;&gt;Node9 -->
<g id="edge22_Node000017_Node000009" class="edge">
<title>Node17&#45;&gt;Node9</title>
<g id="a_edge22_Node000017_Node000009"><a xlink:title=" ">
<path fill="none" stroke="#63b8ff" d="M393.38,-111.97C414.95,-107.18 441.29,-101.32 464.11,-96.25"/>
<polygon fill="#63b8ff" stroke="#63b8ff" points="464.98,-99.65 473.98,-94.06 463.46,-92.81 464.98,-99.65"/>
</a>
</g>
</g>
<!-- Node18&#45;&gt;Node9 -->
<g id="edge24_Node000018_Node000009" class="edge">
<title>Node18&#45;&gt;Node9</title>
<g id="a_edge24_Node000018_Node000009"><a xlink:title=" ">
<path fill="none" stroke="#63b8ff" d="M403.64,-84.5C412.68,-84.5 422.27,-84.5 431.89,-84.5"/>
<polygon fill="#63b8ff" stroke="#63b8ff" points="431.91,-88 441.91,-84.5 431.91,-81 431.91,-88"/>
</a>
</g>
</g>
<!-- Node19&#45;&gt;Node9 -->
<g id="edge27_Node000019_Node000009" class="edge">
<title>Node19&#45;&gt;Node9</title>
<g id="a_edge27_Node000019_Node000009"><a xlink:title=" ">
<path fill="none" stroke="#63b8ff" d="M257.25,-9.23C297.53,-10.13 356.58,-14.19 406,-28.5 438.11,-37.8 471.99,-56.34 493.75,-69.54"/>
<polygon fill="#63b8ff" stroke="#63b8ff" points="491.95,-72.54 502.3,-74.83 495.63,-66.59 491.95,-72.54"/>
</a>
</g>
</g>
</g>
</svg>
