<?xml version="1.0" encoding="UTF-8" standalone="no"?>
<!DOCTYPE svg PUBLIC "-//W3C//DTD SVG 1.1//EN"
 "http://www.w3.org/Graphics/SVG/1.1/DTD/svg11.dtd">
<!-- Generated by graphviz version 2.43.0 (0)
 -->
<!-- Title: masterBootRecordSector Pages: 1 -->
<svg width="140pt" height="243pt"
 viewBox="0.00 0.00 140.00 243.00" xmlns="http://www.w3.org/2000/svg" xmlns:xlink="http://www.w3.org/1999/xlink">
<g id="graph0" class="graph" transform="scale(1 1) rotate(0) translate(4 239)">
<title>masterBootRecordSector</title>
<!-- Node1 -->
<g id="Node000001" class="node">
<title>Node1</title>
<g id="a_Node000001"><a xlink:title=" ">
<polygon fill="#999999" stroke="transparent" points="132,-64 0,-64 0,0 132,0 132,-64"/>
<text text-anchor="start" x="5" y="-52" font-family="Helvetica,sans-Serif" font-size="10.00">masterBootRecordSector</text>
<text text-anchor="start" x="10.5" y="-37" font-family="Helvetica,sans-Serif" font-size="10.00">+</text>
<text text-anchor="start" x="30" y="-37" font-family="Helvetica,sans-Serif" font-size="10.00">uint8_t bootCode</text>
<text text-anchor="start" x="10.5" y="-22" font-family="Helvetica,sans-Serif" font-size="10.00">+</text>
<text text-anchor="start" x="30" y="-22" font-family="Helvetica,sans-Serif" font-size="10.00">uint8_t signature</text>
<text text-anchor="start" x="64" y="-7" font-family="Helvetica,sans-Serif" font-size="10.00"> </text>
<polygon fill="#666666" stroke="#666666" points="0,-47 0,-47 132,-47 132,-47 0,-47"/>
<polygon fill="#666666" stroke="#666666" points="0,-17 0,-17 28,-17 28,-17 0,-17"/>
<polygon fill="#666666" stroke="#666666" points="28,-17 28,-17 132,-17 132,-17 28,-17"/>
<polygon fill="none" stroke="#666666" points="0,0 0,-64 132,-64 132,0 0,0"/>
</a>
</g>
</g>
<!-- Node2 -->
<g id="Node000002" class="node">
<title>Node2</title>
<g id="a_Node000002"><a xlink:href="../../d7/d77/structmbrPartition.xhtml" target="_top" xlink:title=" ">
<polygon fill="white" stroke="transparent" points="132,-235 0,-235 0,-111 132,-111 132,-235"/>
<text text-anchor="start" x="35.5" y="-223" font-family="Helvetica,sans-Serif" font-size="10.00">mbrPartition</text>
<text text-anchor="start" x="4" y="-208" font-family="Helvetica,sans-Serif" font-size="10.00">+</text>
<text text-anchor="start" x="17" y="-208" font-family="Helvetica,sans-Serif" font-size="10.00">uint8_t boot</text>
<text text-anchor="start" x="4" y="-193" font-family="Helvetica,sans-Serif" font-size="10.00">+</text>
<text text-anchor="start" x="17" y="-193" font-family="Helvetica,sans-Serif" font-size="10.00">uint8_t beginCHS</text>
<text text-anchor="start" x="4" y="-178" font-family="Helvetica,sans-Serif" font-size="10.00">+</text>
<text text-anchor="start" x="17" y="-178" font-family="Helvetica,sans-Serif" font-size="10.00">uint8_t type</text>
<text text-anchor="start" x="4" y="-163" font-family="Helvetica,sans-Serif" font-size="10.00">+</text>
<text text-anchor="start" x="17" y="-163" font-family="Helvetica,sans-Serif" font-size="10.00">uint8_t endCHS</text>
<text text-anchor="start" x="4" y="-148" font-family="Helvetica,sans-Serif" font-size="10.00">+</text>
<text text-anchor="start" x="17" y="-148" font-family="Helvetica,sans-Serif" font-size="10.00">uint8_t relativeSectors</text>
<text text-anchor="start" x="4" y="-133" font-family="Helvetica,sans-Serif" font-size="10.00">+</text>
<text text-anchor="start" x="17" y="-133" font-family="Helvetica,sans-Serif" font-size="10.00">uint8_t totalSectors</text>
<text text-anchor="start" x="64" y="-118" font-family="Helvetica,sans-Serif" font-size="10.00"> </text>
<polygon fill="#666666" stroke="#666666" points="0,-218 0,-218 132,-218 132,-218 0,-218"/>
<polygon fill="#666666" stroke="#666666" points="0,-128 0,-128 15,-128 15,-128 0,-128"/>
<polygon fill="#666666" stroke="#666666" points="15,-128 15,-128 132,-128 132,-128 15,-128"/>
<polygon fill="none" stroke="#666666" points="0,-111 0,-235 132,-235 132,-111 0,-111"/>
</a>
</g>
</g>
<!-- Node2&#45;&gt;Node1 -->
<g id="edge1_Node000001_Node000002" class="edge">
<title>Node2&#45;&gt;Node1</title>
<g id="a_edge1_Node000001_Node000002"><a xlink:title=" ">
<path fill="none" stroke="#63b8ff" d="M66,-110.63C66,-99.13 66,-87.33 66,-76.51"/>
<polygon fill="none" stroke="#63b8ff" points="66,-76.34 62,-70.34 66,-64.34 70,-70.34 66,-76.34"/>
</a>
</g>
<text text-anchor="middle" x="81.5" y="-85" font-family="Helvetica,sans-Serif" font-size="10.00" fill="grey"> +part</text>
</g>
</g>
</svg>
