<?xml version="1.0" encoding="UTF-8" standalone="no"?>
<!DOCTYPE svg PUBLIC "-//W3C//DTD SVG 1.1//EN"
 "http://www.w3.org/Graphics/SVG/1.1/DTD/svg11.dtd">
<!-- Generated by graphviz version 2.43.0 (0)
 -->
<!-- Title: unmount Pages: 1 -->
<!--zoomable 270 -->

<svg id="main" version="1.1" xmlns="http://www.w3.org/2000/svg" xmlns:xlink="http://www.w3.org/1999/xlink" xml:space="preserve" onload="init(evt)">
<style type="text/css"><![CDATA[
.node, .edge {opacity: 0.7;}
.node.selected, .edge.selected {opacity: 1;}
.edge:hover path { stroke: red; }
.edge:hover polygon { stroke: red; fill: red; }
]]></style>

<defs>
  <circle id="rim" cx="0" cy="0" r="7"/>
  <circle id="rim2" cx="0" cy="0" r="3.5"/>
  <g id="zoomPlus">
    <use xlink:href="#rim" fill="#404040"><set attributeName="fill" to="#808080" begin="zoomplus.mouseover" end="zoomplus.mouseout"/></use>
    <path d="M-4,0h8M0,-4v8" fill="none" stroke="white" stroke-width="1.5" pointer-events="none"/>
  </g>
  <g id="zoomMin">
    <use xlink:href="#rim" fill="#404040"><set attributeName="fill" to="#808080" begin="zoomminus.mouseover" end="zoomminus.mouseout"/></use>
    <path d="M-4,0h8" fill="none" stroke="white" stroke-width="1.5" pointer-events="none"/>
  </g>
  <g id="arrowUp" transform="translate(30 24)">
    <use xlink:href="#rim"/>
    <path pointer-events="none" fill="none" stroke="white" stroke-width="1.5" d="M0,-3.0v7 M-2.5,-0.5L0,-3.0L2.5,-0.5"/>
  </g>
  <g id="arrowRight" transform="rotate(90) translate(36 -43)">
    <use xlink:href="#rim"/>
    <path pointer-events="none" fill="none" stroke="white" stroke-width="1.5" d="M0,-3.0v7 M-2.5,-0.5L0,-3.0L2.5,-0.5"/>
  </g>
  <g id="arrowDown" transform="rotate(180) translate(-30 -48)">
    <use xlink:href="#rim"/>
    <path pointer-events="none" fill="none" stroke="white" stroke-width="1.5" d="M0,-3.0v7 M-2.5,-0.5L0,-3.0L2.5,-0.5"/>
  </g>
  <g id="arrowLeft" transform="rotate(270) translate(-36 17)">
    <use xlink:href="#rim"/>
    <path pointer-events="none" fill="none" stroke="white" stroke-width="1.5" d="M0,-3.0v7 M-2.5,-0.5L0,-3.0L2.5,-0.5"/>
  </g>
  <g id="resetDef">
    <use xlink:href="#rim2" fill="#404040"><set attributeName="fill" to="#808080" begin="reset.mouseover" end="reset.mouseout"/></use>
  </g>
</defs>
<script type="application/ecmascript">
var viewWidth = 1636;
var viewHeight = 270;
var sectionId = 'dynsection-0';
</script>
<script type="application/ecmascript" xlink:href="../../svg.min.js"/>
<svg id="graph" class="graph">
<g id="viewport">
<title>unmount</title>
<!-- Node1 -->
<g id="Node000001" class="node">
<title>Node1</title>
<g id="a_Node000001"><a xlink:title="Démontage de la carte SD.">
<polygon fill="#999999" stroke="#666666" points="60,-219.5 0,-219.5 0,-200.5 60,-200.5 60,-219.5"/>
<text text-anchor="middle" x="30" y="-207.5" font-family="Helvetica,sans-Serif" font-size="10.00">unmount</text>
</a>
</g>
</g>
<!-- Node2 -->
<g id="Node000002" class="node">
<title>Node2</title>
<g id="a_Node000002"><a xlink:href="../../da/d81/classSdBase_a944f39156d399e73c7d64744a7c27329.xhtml#a944f39156d399e73c7d64744a7c27329" target="_top" xlink:title=" ">
<polygon fill="white" stroke="#666666" points="173,-219.5 96,-219.5 96,-200.5 173,-200.5 173,-219.5"/>
<text text-anchor="middle" x="134.5" y="-207.5" font-family="Helvetica,sans-Serif" font-size="10.00">SdBase::end</text>
</a>
</g>
</g>
<!-- Node1&#45;&gt;Node2 -->
<g id="edge1_Node000001_Node000002" class="edge">
<title>Node1&#45;&gt;Node2</title>
<g id="a_edge1_Node000001_Node000002"><a xlink:title=" ">
<path fill="none" stroke="#63b8ff" d="M60.1,-210C68.1,-210 76.98,-210 85.74,-210"/>
<polygon fill="#63b8ff" stroke="#63b8ff" points="85.89,-213.5 95.89,-210 85.89,-206.5 85.89,-213.5"/>
</a>
</g>
</g>
<!-- Node3 -->
<g id="Node000003" class="node">
<title>Node3</title>
<g id="a_Node000003"><a xlink:href="../../d8/d7f/classSharedSpiCard_a9ab3c0bc923e828e66a5e15156cc0295.xhtml#a9ab3c0bc923e828e66a5e15156cc0295" target="_top" xlink:title=" ">
<polygon fill="white" stroke="#666666" points="321,-219.5 209,-219.5 209,-200.5 321,-200.5 321,-219.5"/>
<text text-anchor="middle" x="265" y="-207.5" font-family="Helvetica,sans-Serif" font-size="10.00">SharedSpiCard::end</text>
</a>
</g>
</g>
<!-- Node2&#45;&gt;Node3 -->
<g id="edge2_Node000002_Node000003" class="edge">
<title>Node2&#45;&gt;Node3</title>
<g id="a_edge2_Node000002_Node000003"><a xlink:title=" ">
<path fill="none" stroke="#63b8ff" d="M173.01,-210C181,-210 189.66,-210 198.35,-210"/>
<polygon fill="#63b8ff" stroke="#63b8ff" points="198.53,-213.5 208.53,-210 198.53,-206.5 198.53,-213.5"/>
</a>
</g>
</g>
<!-- Node4 -->
<g id="Node000004" class="node">
<title>Node4</title>
<g id="a_Node000004"><a xlink:href="../../d8/d7f/classSharedSpiCard_aea0aba4ad9333f2c5d9e2087fe901293.xhtml#aea0aba4ad9333f2c5d9e2087fe901293" target="_top" xlink:title=" ">
<polygon fill="white" stroke="#666666" points="495,-247.5 369,-247.5 369,-228.5 495,-228.5 495,-247.5"/>
<text text-anchor="middle" x="432" y="-235.5" font-family="Helvetica,sans-Serif" font-size="10.00">SharedSpiCard::spiEnd</text>
</a>
</g>
</g>
<!-- Node3&#45;&gt;Node4 -->
<g id="edge3_Node000003_Node000004" class="edge">
<title>Node3&#45;&gt;Node4</title>
<g id="a_edge3_Node000003_Node000004"><a xlink:title=" ">
<path fill="none" stroke="#63b8ff" d="M321.4,-219.4C335.4,-221.78 350.57,-224.35 365.03,-226.8"/>
<polygon fill="#63b8ff" stroke="#63b8ff" points="364.46,-230.26 374.9,-228.48 365.63,-223.36 364.46,-230.26"/>
</a>
</g>
</g>
<!-- Node6 -->
<g id="Node000006" class="node">
<title>Node6</title>
<g id="a_Node000006"><a xlink:href="../../d8/d7f/classSharedSpiCard_a2f181b3d6f27413a0f5ee883dfd94d87.xhtml#a2f181b3d6f27413a0f5ee883dfd94d87" target="_top" xlink:title=" ">
<polygon fill="white" stroke="#666666" points="507,-201.5 357,-201.5 357,-182.5 507,-182.5 507,-201.5"/>
<text text-anchor="middle" x="432" y="-189.5" font-family="Helvetica,sans-Serif" font-size="10.00">SharedSpiCard::syncDevice</text>
</a>
</g>
</g>
<!-- Node3&#45;&gt;Node6 -->
<g id="edge5_Node000003_Node000006" class="edge">
<title>Node3&#45;&gt;Node6</title>
<g id="a_edge5_Node000003_Node000006"><a xlink:title=" ">
<path fill="none" stroke="#63b8ff" d="M321.4,-203.96C329.61,-203.06 338.22,-202.12 346.86,-201.18"/>
<polygon fill="#63b8ff" stroke="#63b8ff" points="347.42,-204.64 356.99,-200.07 346.67,-197.68 347.42,-204.64"/>
</a>
</g>
</g>
<!-- Node5 -->
<g id="Node000005" class="node">
<title>Node5</title>
<g id="a_Node000005"><a xlink:href="../../d0/d25/classSdSpiArduinoDriver_a7f94ce98855bb3d1781bbad77741e494.xhtml#a7f94ce98855bb3d1781bbad77741e494" target="_top" xlink:title=" ">
<polygon fill="white" stroke="#666666" points="679,-257.5 544,-257.5 544,-238.5 679,-238.5 679,-257.5"/>
<text text-anchor="middle" x="611.5" y="-245.5" font-family="Helvetica,sans-Serif" font-size="10.00">SdSpiArduinoDriver::end</text>
</a>
</g>
</g>
<!-- Node4&#45;&gt;Node5 -->
<g id="edge4_Node000004_Node000005" class="edge">
<title>Node4&#45;&gt;Node5</title>
<g id="a_edge4_Node000004_Node000005"><a xlink:title=" ">
<path fill="none" stroke="#63b8ff" d="M495.08,-241.5C507.54,-242.2 520.78,-242.95 533.68,-243.67"/>
<polygon fill="#63b8ff" stroke="#63b8ff" points="533.74,-247.18 543.92,-244.25 534.14,-240.19 533.74,-247.18"/>
</a>
</g>
</g>
<!-- Node7 -->
<g id="Node000007" class="node">
<title>Node7</title>
<g id="a_Node000007"><a xlink:href="../../d8/d7f/classSharedSpiCard_ab33ad2aefbb9cff905cad0879dffc78b.xhtml#ab33ad2aefbb9cff905cad0879dffc78b" target="_top" xlink:title=" ">
<polygon fill="white" stroke="#666666" points="680,-220.5 543,-220.5 543,-201.5 680,-201.5 680,-220.5"/>
<text text-anchor="middle" x="611.5" y="-208.5" font-family="Helvetica,sans-Serif" font-size="10.00">SharedSpiCard::readStop</text>
</a>
</g>
</g>
<!-- Node6&#45;&gt;Node7 -->
<g id="edge6_Node000006_Node000007" class="edge">
<title>Node6&#45;&gt;Node7</title>
<g id="a_edge6_Node000006_Node000007"><a xlink:title=" ">
<path fill="none" stroke="#63b8ff" d="M507.25,-199.95C515.62,-200.84 524.17,-201.76 532.59,-202.66"/>
<polygon fill="#63b8ff" stroke="#63b8ff" points="532.46,-206.17 542.78,-203.75 533.21,-199.21 532.46,-206.17"/>
</a>
</g>
</g>
<!-- Node29 -->
<g id="Node000029" class="node">
<title>Node29</title>
<g id="a_Node000029"><a xlink:href="../../d8/d7f/classSharedSpiCard_ae9a34a573077e43e7c6028a16ae77fb3.xhtml#ae9a34a573077e43e7c6028a16ae77fb3" target="_top" xlink:title=" ">
<polygon fill="white" stroke="#666666" points="868.5,-182.5 728.5,-182.5 728.5,-163.5 868.5,-163.5 868.5,-182.5"/>
<text text-anchor="middle" x="798.5" y="-170.5" font-family="Helvetica,sans-Serif" font-size="10.00">SharedSpiCard::writeStop</text>
</a>
</g>
</g>
<!-- Node6&#45;&gt;Node29 -->
<g id="edge33_Node000006_Node000029" class="edge">
<title>Node6&#45;&gt;Node29</title>
<g id="a_edge33_Node000006_Node000029"><a xlink:title=" ">
<path fill="none" stroke="#63b8ff" d="M507.2,-188.13C568.52,-184.94 655.39,-180.41 718.1,-177.14"/>
<polygon fill="#63b8ff" stroke="#63b8ff" points="718.53,-180.62 728.34,-176.61 718.17,-173.63 718.53,-180.62"/>
</a>
</g>
</g>
<!-- Node8 -->
<g id="Node000008" class="node">
<title>Node8</title>
<g id="a_Node000008"><a xlink:href="../../d8/d7f/classSharedSpiCard_adda33199753fc2aec74fe317cbaabc06.xhtml#adda33199753fc2aec74fe317cbaabc06" target="_top" xlink:title=" ">
<polygon fill="white" stroke="#666666" points="881,-116.5 716,-116.5 716,-97.5 881,-97.5 881,-116.5"/>
<text text-anchor="middle" x="798.5" y="-104.5" font-family="Helvetica,sans-Serif" font-size="10.00">SharedSpiCard::cardCommand</text>
</a>
</g>
</g>
<!-- Node7&#45;&gt;Node8 -->
<g id="edge7_Node000007_Node000008" class="edge">
<title>Node7&#45;&gt;Node8</title>
<g id="a_edge7_Node000007_Node000008"><a xlink:title=" ">
<path fill="none" stroke="#63b8ff" d="M629.57,-201.4C662.06,-183.14 732.97,-143.28 771.43,-121.65"/>
<polygon fill="#63b8ff" stroke="#63b8ff" points="773.47,-124.53 780.47,-116.57 770.04,-118.42 773.47,-124.53"/>
</a>
</g>
</g>
<!-- Node24 -->
<g id="Node000024" class="node">
<title>Node24</title>
<g id="a_Node000024"><a xlink:href="../../d8/d7f/classSharedSpiCard_a747c3f0b962098cf0c097f3c4c2b4fd4.xhtml#a747c3f0b962098cf0c097f3c4c2b4fd4" target="_top" xlink:title=" ">
<polygon fill="white" stroke="#666666" points="1048.5,-258.5 931.5,-258.5 931.5,-239.5 1048.5,-239.5 1048.5,-258.5"/>
<text text-anchor="middle" x="990" y="-246.5" font-family="Helvetica,sans-Serif" font-size="10.00">SharedSpiCard::error</text>
</a>
</g>
</g>
<!-- Node7&#45;&gt;Node24 -->
<g id="edge26_Node000007_Node000024" class="edge">
<title>Node7&#45;&gt;Node24</title>
<g id="a_edge26_Node000007_Node000024"><a xlink:title=" ">
<path fill="none" stroke="#63b8ff" d="M679.53,-220.53C691.66,-222.12 704.2,-223.68 716,-225 785.89,-232.79 866.08,-239.59 921.37,-243.94"/>
<polygon fill="#63b8ff" stroke="#63b8ff" points="921.16,-247.43 931.4,-244.72 921.71,-240.45 921.16,-247.43"/>
</a>
</g>
</g>
<!-- Node25 -->
<g id="Node000025" class="node">
<title>Node25</title>
<g id="a_Node000025"><a xlink:href="../../d8/d7f/classSharedSpiCard_a0f511c39c50055a4fc97e720933aee3a.xhtml#a0f511c39c50055a4fc97e720933aee3a" target="_top" xlink:title=" ">
<polygon fill="white" stroke="#666666" points="1055,-221.5 925,-221.5 925,-202.5 1055,-202.5 1055,-221.5"/>
<text text-anchor="middle" x="990" y="-209.5" font-family="Helvetica,sans-Serif" font-size="10.00">SharedSpiCard::spiStop</text>
</a>
</g>
</g>
<!-- Node7&#45;&gt;Node25 -->
<g id="edge27_Node000007_Node000025" class="edge">
<title>Node7&#45;&gt;Node25</title>
<g id="a_edge27_Node000007_Node000025"><a xlink:title=" ">
<path fill="none" stroke="#63b8ff" d="M680.25,-211.18C746.3,-211.36 846.49,-211.62 914.7,-211.8"/>
<polygon fill="#63b8ff" stroke="#63b8ff" points="914.93,-215.3 924.94,-211.83 914.95,-208.3 914.93,-215.3"/>
</a>
</g>
</g>
<!-- Node8&#45;&gt;Node6 -->
<g id="edge20_Node000008_Node000006" class="edge">
<title>Node8&#45;&gt;Node6</title>
<g id="a_edge20_Node000008_Node000006"><a xlink:title=" ">
<path fill="none" stroke="#63b8ff" d="M756.73,-116.51C689.74,-132.13 556.56,-163.19 483.63,-180.19"/>
<polygon fill="#63b8ff" stroke="#63b8ff" points="482.7,-176.82 473.75,-182.5 484.29,-183.63 482.7,-176.82"/>
</a>
</g>
</g>
<!-- Node9 -->
<g id="Node000009" class="node">
<title>Node9</title>
<g id="a_Node000009"><a xlink:href="../../d8/d7f/classSharedSpiCard_a08363209d938db87521cca6a84146041.xhtml#a08363209d938db87521cca6a84146041" target="_top" xlink:title=" ">
<polygon fill="white" stroke="#666666" points="1253,-32.5 1106,-32.5 1106,-13.5 1253,-13.5 1253,-32.5"/>
<text text-anchor="middle" x="1179.5" y="-20.5" font-family="Helvetica,sans-Serif" font-size="10.00">SharedSpiCard::spiReceive</text>
</a>
</g>
</g>
<!-- Node8&#45;&gt;Node9 -->
<g id="edge8_Node000008_Node000009" class="edge">
<title>Node8&#45;&gt;Node9</title>
<g id="a_edge8_Node000008_Node000009"><a xlink:title=" ">
<path fill="none" stroke="#63b8ff" d="M812.4,-97.37C833.17,-82.45 875.88,-54.22 917,-42 975.09,-24.74 1043.47,-20.29 1095.74,-20"/>
<polygon fill="#63b8ff" stroke="#63b8ff" points="1095.98,-23.5 1105.98,-19.99 1095.97,-16.5 1095.98,-23.5"/>
</a>
</g>
</g>
<!-- Node11 -->
<g id="Node000011" class="node">
<title>Node11</title>
<g id="a_Node000011"><a xlink:href="../../d8/d7f/classSharedSpiCard_ab311b9ad8a250f06afbe091f7abb118b.xhtml#ab311b9ad8a250f06afbe091f7abb118b" target="_top" xlink:title=" ">
<polygon fill="white" stroke="#666666" points="1245.5,-182.5 1113.5,-182.5 1113.5,-163.5 1245.5,-163.5 1245.5,-182.5"/>
<text text-anchor="middle" x="1179.5" y="-170.5" font-family="Helvetica,sans-Serif" font-size="10.00">SharedSpiCard::spiSend</text>
</a>
</g>
</g>
<!-- Node8&#45;&gt;Node11 -->
<g id="edge10_Node000008_Node000011" class="edge">
<title>Node8&#45;&gt;Node11</title>
<g id="a_edge10_Node000008_Node000011"><a xlink:title=" ">
<path fill="none" stroke="#63b8ff" d="M854.21,-116.53C922.93,-128.49 1040.68,-149 1113.8,-161.73"/>
<polygon fill="#63b8ff" stroke="#63b8ff" points="1113.36,-165.21 1123.81,-163.48 1114.56,-158.31 1113.36,-165.21"/>
</a>
</g>
</g>
<!-- Node13 -->
<g id="Node000013" class="node">
<title>Node13</title>
<g id="a_Node000013"><a xlink:href="../../d8/d7f/classSharedSpiCard_aef2dfa72e8d5643c90720f9f8c6a4254.xhtml#aef2dfa72e8d5643c90720f9f8c6a4254" target="_top" xlink:title=" ">
<polygon fill="white" stroke="#666666" points="1055.5,-107.5 924.5,-107.5 924.5,-88.5 1055.5,-88.5 1055.5,-107.5"/>
<text text-anchor="middle" x="990" y="-95.5" font-family="Helvetica,sans-Serif" font-size="10.00">SharedSpiCard::spiStart</text>
</a>
</g>
</g>
<!-- Node8&#45;&gt;Node13 -->
<g id="edge12_Node000008_Node000013" class="edge">
<title>Node8&#45;&gt;Node13</title>
<g id="a_edge12_Node000008_Node000013"><a xlink:title=" ">
<path fill="none" stroke="#63b8ff" d="M881.24,-103.12C892.17,-102.6 903.34,-102.07 914.14,-101.56"/>
<polygon fill="#63b8ff" stroke="#63b8ff" points="914.55,-105.04 924.37,-101.07 914.22,-98.05 914.55,-105.04"/>
</a>
</g>
</g>
<!-- Node20 -->
<g id="Node000020" class="node">
<title>Node20</title>
<g id="a_Node000020"><a xlink:href="../../d8/d7f/classSharedSpiCard_ab3468397bb3b12d29dd2f31e45b3dcaf.xhtml#ab3468397bb3b12d29dd2f31e45b3dcaf" target="_top" xlink:title=" ">
<polygon fill="white" stroke="#666666" points="1063,-70.5 917,-70.5 917,-51.5 1063,-51.5 1063,-70.5"/>
<text text-anchor="middle" x="990" y="-58.5" font-family="Helvetica,sans-Serif" font-size="10.00">SharedSpiCard::waitReady</text>
</a>
</g>
</g>
<!-- Node8&#45;&gt;Node20 -->
<g id="edge21_Node000008_Node000020" class="edge">
<title>Node8&#45;&gt;Node20</title>
<g id="a_edge21_Node000008_Node000020"><a xlink:title=" ">
<path fill="none" stroke="#63b8ff" d="M838.76,-97.47C868.11,-90.35 908.42,-80.56 939.9,-72.92"/>
<polygon fill="#63b8ff" stroke="#63b8ff" points="940.89,-76.28 949.79,-70.52 939.24,-69.48 940.89,-76.28"/>
</a>
</g>
</g>
<!-- Node10 -->
<g id="Node000010" class="node">
<title>Node10</title>
<g id="a_Node000010"><a xlink:href="../../d0/d25/classSdSpiArduinoDriver_a8d6bc852a52e9d69c4b1e48ee062e8d1.xhtml#a8d6bc852a52e9d69c4b1e48ee062e8d1" target="_top" xlink:title=" ">
<polygon fill="white" stroke="#666666" points="1407,-30 1296,-30 1296,0 1407,0 1407,-30"/>
<text text-anchor="start" x="1304" y="-18" font-family="Helvetica,sans-Serif" font-size="10.00">SdSpiArduinoDriver</text>
<text text-anchor="middle" x="1351.5" y="-7" font-family="Helvetica,sans-Serif" font-size="10.00">::receive</text>
</a>
</g>
</g>
<!-- Node9&#45;&gt;Node10 -->
<g id="edge9_Node000009_Node000010" class="edge">
<title>Node9&#45;&gt;Node10</title>
<g id="a_edge9_Node000009_Node000010"><a xlink:title=" ">
<path fill="none" stroke="#63b8ff" d="M1253.09,-19.58C1263.96,-19.07 1275.11,-18.55 1285.81,-18.04"/>
<polygon fill="#63b8ff" stroke="#63b8ff" points="1286.07,-21.54 1295.9,-17.57 1285.75,-14.54 1286.07,-21.54"/>
</a>
</g>
</g>
<!-- Node12 -->
<g id="Node000012" class="node">
<title>Node12</title>
<g id="a_Node000012"><a xlink:href="../../d0/d25/classSdSpiArduinoDriver_a3c4842e47f98fe5d3799cd6028778ab5.xhtml#a3c4842e47f98fe5d3799cd6028778ab5" target="_top" xlink:title=" ">
<polygon fill="white" stroke="#666666" points="1407,-202 1296,-202 1296,-172 1407,-172 1407,-202"/>
<text text-anchor="start" x="1304" y="-190" font-family="Helvetica,sans-Serif" font-size="10.00">SdSpiArduinoDriver</text>
<text text-anchor="middle" x="1351.5" y="-179" font-family="Helvetica,sans-Serif" font-size="10.00">::send</text>
</a>
</g>
</g>
<!-- Node11&#45;&gt;Node12 -->
<g id="edge11_Node000011_Node000012" class="edge">
<title>Node11&#45;&gt;Node12</title>
<g id="a_edge11_Node000011_Node000012"><a xlink:title=" ">
<path fill="none" stroke="#63b8ff" d="M1245.74,-178.37C1258.82,-179.45 1272.56,-180.58 1285.62,-181.66"/>
<polygon fill="#63b8ff" stroke="#63b8ff" points="1285.68,-185.17 1295.93,-182.51 1286.25,-178.2 1285.68,-185.17"/>
</a>
</g>
</g>
<!-- Node13&#45;&gt;Node11 -->
<g id="edge19_Node000013_Node000011" class="edge">
<title>Node13&#45;&gt;Node11</title>
<g id="a_edge19_Node000013_Node000011"><a xlink:title=" ">
<path fill="none" stroke="#63b8ff" d="M1029.67,-107.6C1040.85,-111.23 1052.78,-115.99 1063,-122 1081.71,-133.01 1079.77,-144.93 1099,-155 1102.57,-156.87 1106.32,-158.54 1110.18,-160.04"/>
<polygon fill="#63b8ff" stroke="#63b8ff" points="1109.33,-163.45 1119.93,-163.43 1111.63,-156.84 1109.33,-163.45"/>
</a>
</g>
</g>
<!-- Node14 -->
<g id="Node000014" class="node">
<title>Node14</title>
<g id="a_Node000014"><a xlink:href="../../d8/d7f/classSharedSpiCard_a69ee2fe49dfaeea2347d8a265806d2b6.xhtml#a69ee2fe49dfaeea2347d8a265806d2b6" target="_top" xlink:title=" ">
<polygon fill="white" stroke="#666666" points="1254,-107.5 1105,-107.5 1105,-88.5 1254,-88.5 1254,-107.5"/>
<text text-anchor="middle" x="1179.5" y="-95.5" font-family="Helvetica,sans-Serif" font-size="10.00">SharedSpiCard::spiActivate</text>
</a>
</g>
</g>
<!-- Node13&#45;&gt;Node14 -->
<g id="edge13_Node000013_Node000014" class="edge">
<title>Node13&#45;&gt;Node14</title>
<g id="a_edge13_Node000013_Node000014"><a xlink:title=" ">
<path fill="none" stroke="#63b8ff" d="M1055.53,-98C1068.19,-98 1081.64,-98 1094.82,-98"/>
<polygon fill="#63b8ff" stroke="#63b8ff" points="1094.84,-101.5 1104.84,-98 1094.84,-94.5 1094.84,-101.5"/>
</a>
</g>
</g>
<!-- Node16 -->
<g id="Node000016" class="node">
<title>Node16</title>
<g id="a_Node000016"><a xlink:href="../../d8/d7f/classSharedSpiCard_a8c3088599862ff6e84ae79bfdf32aea8.xhtml#a8c3088599862ff6e84ae79bfdf32aea8" target="_top" xlink:title=" ">
<polygon fill="white" stroke="#666666" points="1248.5,-145.5 1110.5,-145.5 1110.5,-126.5 1248.5,-126.5 1248.5,-145.5"/>
<text text-anchor="middle" x="1179.5" y="-133.5" font-family="Helvetica,sans-Serif" font-size="10.00">SharedSpiCard::spiSelect</text>
</a>
</g>
</g>
<!-- Node13&#45;&gt;Node16 -->
<g id="edge15_Node000013_Node000016" class="edge">
<title>Node13&#45;&gt;Node16</title>
<g id="a_edge15_Node000013_Node000016"><a xlink:title=" ">
<path fill="none" stroke="#63b8ff" d="M1038.31,-107.59C1063.61,-112.72 1094.95,-119.07 1121.57,-124.46"/>
<polygon fill="#63b8ff" stroke="#63b8ff" points="1121.03,-127.92 1131.53,-126.48 1122.42,-121.06 1121.03,-127.92"/>
</a>
</g>
</g>
<!-- Node15 -->
<g id="Node000015" class="node">
<title>Node15</title>
<g id="a_Node000015"><a xlink:href="../../d0/d25/classSdSpiArduinoDriver_abb6b88c5c8b87fc344a69f23f6eab3d9.xhtml#abb6b88c5c8b87fc344a69f23f6eab3d9" target="_top" xlink:title=" ">
<polygon fill="white" stroke="#666666" points="1407,-116 1296,-116 1296,-86 1407,-86 1407,-116"/>
<text text-anchor="start" x="1304" y="-104" font-family="Helvetica,sans-Serif" font-size="10.00">SdSpiArduinoDriver</text>
<text text-anchor="middle" x="1351.5" y="-93" font-family="Helvetica,sans-Serif" font-size="10.00">::activate</text>
</a>
</g>
</g>
<!-- Node14&#45;&gt;Node15 -->
<g id="edge14_Node000014_Node000015" class="edge">
<title>Node14&#45;&gt;Node15</title>
<g id="a_edge14_Node000014_Node000015"><a xlink:title=" ">
<path fill="none" stroke="#63b8ff" d="M1254.08,-99.3C1264.57,-99.48 1275.31,-99.67 1285.63,-99.86"/>
<polygon fill="#63b8ff" stroke="#63b8ff" points="1285.72,-103.36 1295.78,-100.03 1285.84,-96.36 1285.72,-103.36"/>
</a>
</g>
</g>
<!-- Node17 -->
<g id="Node000017" class="node">
<title>Node17</title>
<g id="a_Node000017"><a xlink:href="../../d2/df0/SdSpiChipSelect_8cpp_ac469bbe2d31ffde9b00ffc68258d7428.xhtml#ac469bbe2d31ffde9b00ffc68258d7428" target="_top" xlink:title=" ">
<polygon fill="white" stroke="#666666" points="1384.5,-153.5 1318.5,-153.5 1318.5,-134.5 1384.5,-134.5 1384.5,-153.5"/>
<text text-anchor="middle" x="1351.5" y="-141.5" font-family="Helvetica,sans-Serif" font-size="10.00">sdCsWrite</text>
</a>
</g>
</g>
<!-- Node16&#45;&gt;Node17 -->
<g id="edge16_Node000016_Node000017" class="edge">
<title>Node16&#45;&gt;Node17</title>
<g id="a_edge16_Node000016_Node000017"><a xlink:title=" ">
<path fill="none" stroke="#63b8ff" d="M1248.67,-139.21C1268.74,-140.15 1290.12,-141.16 1308.09,-142"/>
<polygon fill="#63b8ff" stroke="#63b8ff" points="1308.08,-145.51 1318.23,-142.48 1308.41,-138.52 1308.08,-145.51"/>
</a>
</g>
</g>
<!-- Node18 -->
<g id="Node000018" class="node">
<title>Node18</title>
<g id="a_Node000018"><a xlink:href="../../d5/d45/wiring__digital_8c_a73b9b61feeaf7d790d107f2954a7fd93.xhtml#a73b9b61feeaf7d790d107f2954a7fd93" target="_top" xlink:title=" ">
<polygon fill="white" stroke="#666666" points="1517,-153.5 1443,-153.5 1443,-134.5 1517,-134.5 1517,-153.5"/>
<text text-anchor="middle" x="1480" y="-141.5" font-family="Helvetica,sans-Serif" font-size="10.00">digitalWrite</text>
</a>
</g>
</g>
<!-- Node17&#45;&gt;Node18 -->
<g id="edge17_Node000017_Node000018" class="edge">
<title>Node17&#45;&gt;Node18</title>
<g id="a_edge17_Node000017_Node000018"><a xlink:title=" ">
<path fill="none" stroke="#63b8ff" d="M1384.75,-144C1399.28,-144 1416.71,-144 1432.61,-144"/>
<polygon fill="#63b8ff" stroke="#63b8ff" points="1432.79,-147.5 1442.79,-144 1432.79,-140.5 1432.79,-147.5"/>
</a>
</g>
</g>
<!-- Node19 -->
<g id="Node000019" class="node">
<title>Node19</title>
<g id="a_Node000019"><a xlink:href="../../d5/d45/wiring__digital_8c_ae3d0bcbe4eb927ca8f5d5c21b7e4f224.xhtml#ae3d0bcbe4eb927ca8f5d5c21b7e4f224" target="_top" xlink:title=" ">
<polygon fill="white" stroke="#666666" points="1628,-153.5 1553,-153.5 1553,-134.5 1628,-134.5 1628,-153.5"/>
<text text-anchor="middle" x="1590.5" y="-141.5" font-family="Helvetica,sans-Serif" font-size="10.00">turnOffPWM</text>
</a>
</g>
</g>
<!-- Node18&#45;&gt;Node19 -->
<g id="edge18_Node000018_Node000019" class="edge">
<title>Node18&#45;&gt;Node19</title>
<g id="a_edge18_Node000018_Node000019"><a xlink:title=" ">
<path fill="none" stroke="#63b8ff" d="M1517.13,-144C1525.28,-144 1534.05,-144 1542.57,-144"/>
<polygon fill="#63b8ff" stroke="#63b8ff" points="1542.79,-147.5 1552.79,-144 1542.79,-140.5 1542.79,-147.5"/>
</a>
</g>
</g>
<!-- Node20&#45;&gt;Node9 -->
<g id="edge22_Node000020_Node000009" class="edge">
<title>Node20&#45;&gt;Node9</title>
<g id="a_edge22_Node000020_Node000009"><a xlink:title=" ">
<path fill="none" stroke="#63b8ff" d="M1038.31,-51.41C1063.61,-46.28 1094.95,-39.93 1121.57,-34.54"/>
<polygon fill="#63b8ff" stroke="#63b8ff" points="1122.42,-37.94 1131.53,-32.52 1121.03,-31.08 1122.42,-37.94"/>
</a>
</g>
</g>
<!-- Node21 -->
<g id="Node000021" class="node">
<title>Node21</title>
<g id="a_Node000021"><a xlink:href="../../db/df4/classTimeout_abbabe99f42e52472ddd3a7e9d22dce95.xhtml#abbabe99f42e52472ddd3a7e9d22dce95" target="_top" xlink:title=" ">
<polygon fill="white" stroke="#666666" points="1234,-70.5 1125,-70.5 1125,-51.5 1234,-51.5 1234,-70.5"/>
<text text-anchor="middle" x="1179.5" y="-58.5" font-family="Helvetica,sans-Serif" font-size="10.00">Timeout::timedOut</text>
</a>
</g>
</g>
<!-- Node20&#45;&gt;Node21 -->
<g id="edge23_Node000020_Node000021" class="edge">
<title>Node20&#45;&gt;Node21</title>
<g id="a_edge23_Node000020_Node000021"><a xlink:title=" ">
<path fill="none" stroke="#63b8ff" d="M1063.22,-61C1080.23,-61 1098.22,-61 1114.82,-61"/>
<polygon fill="#63b8ff" stroke="#63b8ff" points="1114.95,-64.5 1124.95,-61 1114.95,-57.5 1114.95,-64.5"/>
</a>
</g>
</g>
<!-- Node22 -->
<g id="Node000022" class="node">
<title>Node22</title>
<g id="a_Node000022"><a xlink:href="../../db/df4/classTimeout_a9a72ea0591f11452fb15bfaa1ae5108a.xhtml#a9a72ea0591f11452fb15bfaa1ae5108a" target="_top" xlink:title=" ">
<polygon fill="white" stroke="#666666" points="1402.5,-67.5 1300.5,-67.5 1300.5,-48.5 1402.5,-48.5 1402.5,-67.5"/>
<text text-anchor="middle" x="1351.5" y="-55.5" font-family="Helvetica,sans-Serif" font-size="10.00">Timeout::millis16</text>
</a>
</g>
</g>
<!-- Node21&#45;&gt;Node22 -->
<g id="edge24_Node000021_Node000022" class="edge">
<title>Node21&#45;&gt;Node22</title>
<g id="a_edge24_Node000021_Node000022"><a xlink:title=" ">
<path fill="none" stroke="#63b8ff" d="M1234.29,-60.05C1252.02,-59.74 1271.85,-59.39 1290.04,-59.07"/>
<polygon fill="#63b8ff" stroke="#63b8ff" points="1290.31,-62.56 1300.24,-58.89 1290.18,-55.56 1290.31,-62.56"/>
</a>
</g>
</g>
<!-- Node23 -->
<g id="Node000023" class="node">
<title>Node23</title>
<g id="a_Node000023"><a xlink:href="../../d5/df3/wiring_8c_a6ff7f2532a22366f0013bc41397129fd.xhtml#a6ff7f2532a22366f0013bc41397129fd" target="_top" xlink:title=" ">
<polygon fill="white" stroke="#666666" points="1502,-67.5 1458,-67.5 1458,-48.5 1502,-48.5 1502,-67.5"/>
<text text-anchor="middle" x="1480" y="-55.5" font-family="Helvetica,sans-Serif" font-size="10.00">millis</text>
</a>
</g>
</g>
<!-- Node22&#45;&gt;Node23 -->
<g id="edge25_Node000022_Node000023" class="edge">
<title>Node22&#45;&gt;Node23</title>
<g id="a_edge25_Node000022_Node000023"><a xlink:title=" ">
<path fill="none" stroke="#63b8ff" d="M1402.86,-58C1417.97,-58 1434.11,-58 1447.62,-58"/>
<polygon fill="#63b8ff" stroke="#63b8ff" points="1447.83,-61.5 1457.83,-58 1447.83,-54.5 1447.83,-61.5"/>
</a>
</g>
</g>
<!-- Node25&#45;&gt;Node11 -->
<g id="edge30_Node000025_Node000011" class="edge">
<title>Node25&#45;&gt;Node11</title>
<g id="a_edge30_Node000025_Node000011"><a xlink:title=" ">
<path fill="none" stroke="#63b8ff" d="M1036.87,-202.46C1062.84,-197.06 1095.52,-190.26 1122.94,-184.56"/>
<polygon fill="#63b8ff" stroke="#63b8ff" points="1123.7,-187.97 1132.78,-182.51 1122.28,-181.12 1123.7,-187.97"/>
</a>
</g>
</g>
<!-- Node26 -->
<g id="Node000026" class="node">
<title>Node26</title>
<g id="a_Node000026"><a xlink:href="../../d8/d7f/classSharedSpiCard_ac6acfca5a23337977d2e4436ab8ab39a.xhtml#ac6acfca5a23337977d2e4436ab8ab39a" target="_top" xlink:title=" ">
<polygon fill="white" stroke="#666666" points="1260,-256.5 1099,-256.5 1099,-237.5 1260,-237.5 1260,-256.5"/>
<text text-anchor="middle" x="1179.5" y="-244.5" font-family="Helvetica,sans-Serif" font-size="10.00">SharedSpiCard::spiDeactivate</text>
</a>
</g>
</g>
<!-- Node25&#45;&gt;Node26 -->
<g id="edge28_Node000025_Node000026" class="edge">
<title>Node25&#45;&gt;Node26</title>
<g id="a_edge28_Node000025_Node000026"><a xlink:title=" ">
<path fill="none" stroke="#63b8ff" d="M1042.24,-221.56C1065.49,-225.9 1093.17,-231.07 1117.49,-235.61"/>
<polygon fill="#63b8ff" stroke="#63b8ff" points="1116.85,-239.05 1127.33,-237.45 1118.14,-232.17 1116.85,-239.05"/>
</a>
</g>
</g>
<!-- Node28 -->
<g id="Node000028" class="node">
<title>Node28</title>
<g id="a_Node000028"><a xlink:href="../../d8/d7f/classSharedSpiCard_ad06a3278372300987b97876cf598c114.xhtml#ad06a3278372300987b97876cf598c114" target="_top" xlink:title=" ">
<polygon fill="white" stroke="#666666" points="1255,-219.5 1104,-219.5 1104,-200.5 1255,-200.5 1255,-219.5"/>
<text text-anchor="middle" x="1179.5" y="-207.5" font-family="Helvetica,sans-Serif" font-size="10.00">SharedSpiCard::spiUnselect</text>
</a>
</g>
</g>
<!-- Node25&#45;&gt;Node28 -->
<g id="edge31_Node000025_Node000028" class="edge">
<title>Node25&#45;&gt;Node28</title>
<g id="a_edge31_Node000025_Node000028"><a xlink:title=" ">
<path fill="none" stroke="#63b8ff" d="M1055,-211.32C1067.39,-211.19 1080.55,-211.04 1093.49,-210.91"/>
<polygon fill="#63b8ff" stroke="#63b8ff" points="1093.84,-214.4 1103.8,-210.8 1093.76,-207.4 1093.84,-214.4"/>
</a>
</g>
</g>
<!-- Node27 -->
<g id="Node000027" class="node">
<title>Node27</title>
<g id="a_Node000027"><a xlink:href="../../d0/d25/classSdSpiArduinoDriver_ae88a255f533e3acb41d1221025a69b55.xhtml#ae88a255f533e3acb41d1221025a69b55" target="_top" xlink:title=" ">
<polygon fill="white" stroke="#666666" points="1407,-262 1296,-262 1296,-232 1407,-232 1407,-262"/>
<text text-anchor="start" x="1304" y="-250" font-family="Helvetica,sans-Serif" font-size="10.00">SdSpiArduinoDriver</text>
<text text-anchor="middle" x="1351.5" y="-239" font-family="Helvetica,sans-Serif" font-size="10.00">::deactivate</text>
</a>
</g>
</g>
<!-- Node26&#45;&gt;Node27 -->
<g id="edge29_Node000026_Node000027" class="edge">
<title>Node26&#45;&gt;Node27</title>
<g id="a_edge29_Node000026_Node000027"><a xlink:title=" ">
<path fill="none" stroke="#63b8ff" d="M1260.02,-247C1268.63,-247 1277.3,-247 1285.7,-247"/>
<polygon fill="#63b8ff" stroke="#63b8ff" points="1285.78,-250.5 1295.78,-247 1285.78,-243.5 1285.78,-250.5"/>
</a>
</g>
</g>
<!-- Node28&#45;&gt;Node17 -->
<g id="edge32_Node000028_Node000017" class="edge">
<title>Node28&#45;&gt;Node17</title>
<g id="a_edge32_Node000028_Node000017"><a xlink:title=" ">
<path fill="none" stroke="#63b8ff" d="M1237.61,-200.4C1245.33,-198.15 1252.99,-195.39 1260,-192 1278.5,-183.06 1278.04,-172.97 1296,-163 1300,-160.78 1304.31,-158.75 1308.69,-156.9"/>
<polygon fill="#63b8ff" stroke="#63b8ff" points="1310.23,-160.06 1318.29,-153.18 1307.7,-153.53 1310.23,-160.06"/>
</a>
</g>
</g>
<!-- Node29&#45;&gt;Node11 -->
<g id="edge35_Node000029_Node000011" class="edge">
<title>Node29&#45;&gt;Node11</title>
<g id="a_edge35_Node000029_Node000011"><a xlink:title=" ">
<path fill="none" stroke="#63b8ff" d="M868.57,-173C934.88,-173 1034.78,-173 1103.12,-173"/>
<polygon fill="#63b8ff" stroke="#63b8ff" points="1103.38,-176.5 1113.38,-173 1103.38,-169.5 1103.38,-176.5"/>
</a>
</g>
</g>
<!-- Node29&#45;&gt;Node20 -->
<g id="edge37_Node000029_Node000020" class="edge">
<title>Node29&#45;&gt;Node20</title>
<g id="a_edge37_Node000029_Node000020"><a xlink:title=" ">
<path fill="none" stroke="#63b8ff" d="M820.32,-163.48C837.68,-154.92 862.47,-141.23 881,-125 900.53,-107.89 895.23,-93.14 917,-79 919.56,-77.33 922.27,-75.82 925.08,-74.45"/>
<polygon fill="#63b8ff" stroke="#63b8ff" points="926.46,-77.67 934.29,-70.53 923.72,-71.23 926.46,-77.67"/>
</a>
</g>
</g>
<!-- Node29&#45;&gt;Node24 -->
<g id="edge34_Node000029_Node000024" class="edge">
<title>Node29&#45;&gt;Node24</title>
<g id="a_edge34_Node000029_Node000024"><a xlink:title=" ">
<path fill="none" stroke="#63b8ff" d="M816.12,-182.63C838.44,-195.22 879.63,-217.28 917,-231 922.58,-233.05 928.49,-234.94 934.42,-236.67"/>
<polygon fill="#63b8ff" stroke="#63b8ff" points="933.81,-240.13 944.38,-239.42 935.67,-233.39 933.81,-240.13"/>
</a>
</g>
</g>
<!-- Node29&#45;&gt;Node25 -->
<g id="edge36_Node000029_Node000025" class="edge">
<title>Node29&#45;&gt;Node25</title>
<g id="a_edge36_Node000029_Node000025"><a xlink:title=" ">
<path fill="none" stroke="#63b8ff" d="M845.86,-182.54C872.11,-187.94 905.13,-194.74 932.85,-200.44"/>
<polygon fill="#63b8ff" stroke="#63b8ff" points="932.29,-203.9 942.79,-202.49 933.7,-197.05 932.29,-203.9"/>
</a>
</g>
</g>
</g>
</svg>

<g id="navigator" transform="translate(0 0)" fill="#404254">
  <rect fill="#f2f5e9" fill-opacity="0.5" stroke="#606060" stroke-width=".5" x="0" y="0" width="60" height="60"/>
  <use id="zoomplus" xlink:href="#zoomPlus" x="17" y="9" onmousedown="handleZoom(evt,'in')"/>
  <use id="zoomminus" xlink:href="#zoomMin" x="42" y="9" onmousedown="handleZoom(evt,'out')"/>
  <use id="reset" xlink:href="#resetDef" x="30" y="36" onmousedown="handleReset()"/>
   <use id="arrowup" xlink:href="#arrowUp" x="0" y="0" onmousedown="handlePan(0,-1)"/>
  <use id="arrowright" xlink:href="#arrowRight" x="0" y="0" onmousedown="handlePan(1,0)"/>
  <use id="arrowdown" xlink:href="#arrowDown" x="0" y="0" onmousedown="handlePan(0,1)"/>
  <use id="arrowleft" xlink:href="#arrowLeft" x="0" y="0" onmousedown="handlePan(-1,0)"/>
</g>
<svg viewBox="0 0 15 15" width="100%" height="30px" preserveAspectRatio="xMaxYMin meet">
 <g id="arrow_out" transform="scale(0.3 0.3)">
  <a xlink:href="sd_8cpp_a94be2d7d7541175d1036427eee4302d1_a94be2d7d7541175d1036427eee4302d1_cgraph_org.svg" target="_base">
   <rect id="button" ry="5" rx="5" y="6" x="6" height="38" width="38"
        fill="#f2f5e9" fill-opacity="0.5" stroke="#606060" stroke-width="1.0"/>
   <path id="arrow"
     d="M 11.500037,31.436501 C 11.940474,20.09759 22.043105,11.32322 32.158766,21.979434 L 37.068811,17.246167 C 37.068811,17.246167 37.088388,32 37.088388,32 L 22.160133,31.978069 C 22.160133,31.978069 26.997745,27.140456 26.997745,27.140456 C 18.528582,18.264221 13.291696,25.230495 11.500037,31.436501 z"
     style="fill:#404040;"/>
  </a>
 </g>
</svg>

<style type='text/css'>
<![CDATA[
[data-mouse-over-selected='false'] { opacity: 0.7; }
[data-mouse-over-selected='true']  { opacity: 1.0; }
]]>
</style>
<script type="application/ecmascript"><![CDATA[
document.addEventListener('DOMContentLoaded', (event) => {
  highlightEdges();
  highlightAdjacentNodes();
});
]]></script>
</svg>
