<?xml version="1.0" encoding="UTF-8" standalone="no"?>
<!DOCTYPE svg PUBLIC "-//W3C//DTD SVG 1.1//EN"
 "http://www.w3.org/Graphics/SVG/1.1/DTD/svg11.dtd">
<!-- Generated by graphviz version 2.43.0 (0)
 -->
<!-- Title: fsFmtField Pages: 1 -->
<svg width="1021pt" height="342pt"
 viewBox="0.00 0.00 1021.00 342.00" xmlns="http://www.w3.org/2000/svg" xmlns:xlink="http://www.w3.org/1999/xlink">
<g id="graph0" class="graph" transform="scale(1 1) rotate(0) translate(4 338)">
<title>fsFmtField</title>
<!-- Node1 -->
<g id="Node000001" class="node">
<title>Node1</title>
<g id="a_Node000001"><a xlink:title=" ">
<polygon fill="#999999" stroke="#666666" points="1013,-111 945,-111 945,-92 1013,-92 1013,-111"/>
<text text-anchor="middle" x="979" y="-99" font-family="Helvetica,sans-Serif" font-size="10.00">fsFmtField</text>
</a>
</g>
</g>
<!-- Node2 -->
<g id="Node000002" class="node">
<title>Node2</title>
<g id="a_Node000002"><a xlink:href="../../d3/d80/FsDateTime_8cpp.xhtml#a088d1d9eeb33fc81eafe27c05e0cc9ce" target="_top" xlink:title=" ">
<polygon fill="white" stroke="#666666" points="895.5,-185 827.5,-185 827.5,-166 895.5,-166 895.5,-185"/>
<text text-anchor="middle" x="861.5" y="-173" font-family="Helvetica,sans-Serif" font-size="10.00">fsFmtDate</text>
</a>
</g>
</g>
<!-- Node1&#45;&gt;Node2 -->
<g id="edge1_Node000001_Node000002" class="edge">
<title>Node1&#45;&gt;Node2</title>
<g id="a_edge1_Node000001_Node000002"><a xlink:title=" ">
<path fill="none" stroke="#63b8ff" d="M954.4,-116.62C931.41,-131.35 897.15,-153.3 877.6,-165.82"/>
<polygon fill="#63b8ff" stroke="#63b8ff" points="956.37,-119.52 962.9,-111.17 952.59,-113.62 956.37,-119.52"/>
</a>
</g>
</g>
<!-- Node22 -->
<g id="Node000022" class="node">
<title>Node22</title>
<g id="a_Node000022"><a xlink:href="../../d3/d80/FsDateTime_8cpp.xhtml#aa500940592fd8cbd147771e54243ac73" target="_top" xlink:title=" ">
<polygon fill="white" stroke="#666666" points="896.5,-93 826.5,-93 826.5,-74 896.5,-74 896.5,-93"/>
<text text-anchor="middle" x="861.5" y="-81" font-family="Helvetica,sans-Serif" font-size="10.00">fsFmtTime</text>
</a>
</g>
</g>
<!-- Node1&#45;&gt;Node22 -->
<g id="edge22_Node000001_Node000022" class="edge">
<title>Node1&#45;&gt;Node22</title>
<g id="a_edge22_Node000001_Node000022"><a xlink:title=" ">
<path fill="none" stroke="#63b8ff" d="M934.68,-94.75C922.17,-92.8 908.69,-90.7 896.81,-88.85"/>
<polygon fill="#63b8ff" stroke="#63b8ff" points="934.48,-98.26 944.9,-96.34 935.56,-91.34 934.48,-98.26"/>
</a>
</g>
</g>
<!-- Node23 -->
<g id="Node000023" class="node">
<title>Node23</title>
<g id="a_Node000023"><a xlink:href="../../d3/d80/FsDateTime_8cpp.xhtml#a69483858e6527f13f0e1b6206fc74741" target="_top" xlink:title=" ">
<polygon fill="white" stroke="#666666" points="764,-19 694,-19 694,0 764,0 764,-19"/>
<text text-anchor="middle" x="729" y="-7" font-family="Helvetica,sans-Serif" font-size="10.00">fsFmtTime</text>
</a>
</g>
</g>
<!-- Node1&#45;&gt;Node23 -->
<g id="edge28_Node000001_Node000023" class="edge">
<title>Node1&#45;&gt;Node23</title>
<g id="a_edge28_Node000001_Node000023"><a xlink:title=" ">
<path fill="none" stroke="#63b8ff" d="M953.5,-86.86C940.56,-79.52 924.24,-70.86 909,-64.5 859.94,-44.04 800.53,-27.28 764.01,-17.84"/>
<polygon fill="#63b8ff" stroke="#63b8ff" points="951.85,-89.95 962.26,-91.92 955.35,-83.89 951.85,-89.95"/>
</a>
</g>
</g>
<!-- Node26 -->
<g id="Node000026" class="node">
<title>Node26</title>
<g id="a_Node000026"><a xlink:href="../../d3/d80/FsDateTime_8cpp.xhtml#aff72c2e2bfa8dbe13aff0d1bcaee1aee" target="_top" xlink:title=" ">
<polygon fill="white" stroke="#666666" points="909,-130 814,-130 814,-111 909,-111 909,-130"/>
<text text-anchor="middle" x="861.5" y="-118" font-family="Helvetica,sans-Serif" font-size="10.00">fsFmtTimeZone</text>
</a>
</g>
</g>
<!-- Node1&#45;&gt;Node26 -->
<g id="edge29_Node000001_Node000026" class="edge">
<title>Node1&#45;&gt;Node26</title>
<g id="a_edge29_Node000001_Node000026"><a xlink:title=" ">
<path fill="none" stroke="#63b8ff" d="M934.99,-108.58C926.63,-109.95 917.84,-111.4 909.37,-112.79"/>
<polygon fill="#63b8ff" stroke="#63b8ff" points="935.6,-112.02 944.9,-106.94 934.47,-105.11 935.6,-112.02"/>
</a>
</g>
</g>
<!-- Node3 -->
<g id="Node000003" class="node">
<title>Node3</title>
<g id="a_Node000003"><a xlink:href="../../d3/d80/FsDateTime_8cpp.xhtml#a24d0b955f316cd7a160cb44f02588a32" target="_top" xlink:title=" ">
<polygon fill="white" stroke="#666666" points="764.5,-296 693.5,-296 693.5,-277 764.5,-277 764.5,-296"/>
<text text-anchor="middle" x="729" y="-284" font-family="Helvetica,sans-Serif" font-size="10.00">fsPrintDate</text>
</a>
</g>
</g>
<!-- Node2&#45;&gt;Node3 -->
<g id="edge2_Node000002_Node000003" class="edge">
<title>Node2&#45;&gt;Node3</title>
<g id="a_edge2_Node000002_Node000003"><a xlink:title=" ">
<path fill="none" stroke="#63b8ff" d="M841.11,-191.99C813.49,-215.48 763.7,-257.84 741.37,-276.83"/>
<polygon fill="#63b8ff" stroke="#63b8ff" points="843.57,-194.5 848.92,-185.35 839.03,-189.16 843.57,-194.5"/>
</a>
</g>
</g>
<!-- Node6 -->
<g id="Node000006" class="node">
<title>Node6</title>
<g id="a_Node000006"><a xlink:href="../../d3/d80/FsDateTime_8cpp.xhtml#a8eed4f2175da7c12f53ed62fccda5b12" target="_top" xlink:title=" ">
<polygon fill="white" stroke="#666666" points="777,-204 681,-204 681,-185 777,-185 777,-204"/>
<text text-anchor="middle" x="729" y="-192" font-family="Helvetica,sans-Serif" font-size="10.00">fsPrintDateTime</text>
</a>
</g>
</g>
<!-- Node2&#45;&gt;Node6 -->
<g id="edge5_Node000002_Node000006" class="edge">
<title>Node2&#45;&gt;Node6</title>
<g id="a_edge5_Node000002_Node000006"><a xlink:title=" ">
<path fill="none" stroke="#63b8ff" d="M817.31,-181.79C804.55,-183.65 790.51,-185.69 777.49,-187.59"/>
<polygon fill="#63b8ff" stroke="#63b8ff" points="817.84,-185.25 827.23,-180.34 816.83,-178.32 817.84,-185.25"/>
</a>
</g>
</g>
<!-- Node21 -->
<g id="Node000021" class="node">
<title>Node21</title>
<g id="a_Node000021"><a xlink:href="../../d3/d80/FsDateTime_8cpp.xhtml#a03dcde4088a9777bafb220b6970a5b76" target="_top" xlink:title=" ">
<polygon fill="white" stroke="#666666" points="777,-167 681,-167 681,-148 777,-148 777,-167"/>
<text text-anchor="middle" x="729" y="-155" font-family="Helvetica,sans-Serif" font-size="10.00">fsPrintDateTime</text>
</a>
</g>
</g>
<!-- Node2&#45;&gt;Node21 -->
<g id="edge21_Node000002_Node000021" class="edge">
<title>Node2&#45;&gt;Node21</title>
<g id="a_edge21_Node000002_Node000021"><a xlink:title=" ">
<path fill="none" stroke="#63b8ff" d="M817.31,-169.54C804.55,-167.78 790.51,-165.85 777.49,-164.05"/>
<polygon fill="#63b8ff" stroke="#63b8ff" points="816.85,-173.01 827.23,-170.91 817.8,-166.08 816.85,-173.01"/>
</a>
</g>
</g>
<!-- Node4 -->
<g id="Node000004" class="node">
<title>Node4</title>
<g id="a_Node000004"><a xlink:href="../../d3/db4/classFatFile.xhtml#a22be4c339d0bfa331f75415b74dd4f37" target="_top" xlink:title=" ">
<polygon fill="white" stroke="#666666" points="626,-334 492,-334 492,-315 626,-315 626,-334"/>
<text text-anchor="middle" x="559" y="-322" font-family="Helvetica,sans-Serif" font-size="10.00">FatFile::printAccessDate</text>
</a>
</g>
</g>
<!-- Node3&#45;&gt;Node4 -->
<g id="edge3_Node000003_Node000004" class="edge">
<title>Node3&#45;&gt;Node4</title>
<g id="a_edge3_Node000003_Node000004"><a xlink:title=" ">
<path fill="none" stroke="#63b8ff" d="M683.4,-297.32C670.68,-300.35 656.81,-303.6 644,-306.5 631.49,-309.33 617.9,-312.29 605.38,-314.97"/>
<polygon fill="#63b8ff" stroke="#63b8ff" points="684.39,-300.68 693.3,-294.95 682.76,-293.87 684.39,-300.68"/>
</a>
</g>
</g>
<!-- Node5 -->
<g id="Node000005" class="node">
<title>Node5</title>
<g id="a_Node000005"><a xlink:href="../../d3/db4/classFatFile.xhtml#a19b3196bb1f6a68a2447e53b09369aef" target="_top" xlink:title=" ">
<polygon fill="white" stroke="#666666" points="438,-334 280,-334 280,-315 438,-315 438,-334"/>
<text text-anchor="middle" x="359" y="-322" font-family="Helvetica,sans-Serif" font-size="10.00">FatFile::printAccessDateTime</text>
</a>
</g>
</g>
<!-- Node4&#45;&gt;Node5 -->
<g id="edge4_Node000004_Node000005" class="edge">
<title>Node4&#45;&gt;Node5</title>
<g id="a_edge4_Node000004_Node000005"><a xlink:title=" ">
<path fill="none" stroke="#63b8ff" d="M481.56,-324.5C467.33,-324.5 452.44,-324.5 438.15,-324.5"/>
<polygon fill="#63b8ff" stroke="#63b8ff" points="481.79,-328 491.79,-324.5 481.79,-321 481.79,-328"/>
</a>
</g>
</g>
<!-- Node7 -->
<g id="Node000007" class="node">
<title>Node7</title>
<g id="a_Node000007"><a xlink:href="../../d3/d80/FsDateTime_8cpp.xhtml#af2e88fd7293f989075db3f2808692202" target="_top" xlink:title=" ">
<polygon fill="white" stroke="#666666" points="607,-186 511,-186 511,-167 607,-167 607,-186"/>
<text text-anchor="middle" x="559" y="-174" font-family="Helvetica,sans-Serif" font-size="10.00">fsPrintDateTime</text>
</a>
</g>
</g>
<!-- Node6&#45;&gt;Node7 -->
<g id="edge6_Node000006_Node000007" class="edge">
<title>Node6&#45;&gt;Node7</title>
<g id="a_edge6_Node000006_Node000007"><a xlink:title=" ">
<path fill="none" stroke="#63b8ff" d="M670.81,-188.37C650.09,-186.15 626.94,-183.67 607.18,-181.56"/>
<polygon fill="#63b8ff" stroke="#63b8ff" points="670.44,-191.85 680.76,-189.44 671.19,-184.89 670.44,-191.85"/>
</a>
</g>
</g>
<!-- Node8 -->
<g id="Node000008" class="node">
<title>Node8</title>
<g id="a_Node000008"><a xlink:href="../../d6/d7f/classExFatFile.xhtml#ad9ba8aa00b9db683d40fc2989dbe1922" target="_top" xlink:title=" ">
<polygon fill="white" stroke="#666666" points="644,-149 474,-149 474,-130 644,-130 644,-149"/>
<text text-anchor="middle" x="559" y="-137" font-family="Helvetica,sans-Serif" font-size="10.00">ExFatFile::printAccessDateTime</text>
</a>
</g>
</g>
<!-- Node6&#45;&gt;Node8 -->
<g id="edge7_Node000006_Node000008" class="edge">
<title>Node6&#45;&gt;Node8</title>
<g id="a_edge7_Node000006_Node000008"><a xlink:title=" ">
<path fill="none" stroke="#63b8ff" d="M691.51,-181.28C687.6,-179.72 683.7,-178.11 680,-176.5 663.6,-169.35 660.85,-164.52 644,-158.5 633.58,-154.78 622.17,-151.62 611.2,-149.01"/>
<polygon fill="#63b8ff" stroke="#63b8ff" points="690.55,-184.66 701.14,-184.99 693.07,-178.13 690.55,-184.66"/>
</a>
</g>
</g>
<!-- Node9 -->
<g id="Node000009" class="node">
<title>Node9</title>
<g id="a_Node000009"><a xlink:href="../../d6/d7f/classExFatFile.xhtml#a7318b2d7594d6ba52421c413f5fc35cd" target="_top" xlink:title=" ">
<polygon fill="white" stroke="#666666" points="643.5,-112 474.5,-112 474.5,-93 643.5,-93 643.5,-112"/>
<text text-anchor="middle" x="559" y="-100" font-family="Helvetica,sans-Serif" font-size="10.00">ExFatFile::printCreateDateTime</text>
</a>
</g>
</g>
<!-- Node6&#45;&gt;Node9 -->
<g id="edge8_Node000006_Node000009" class="edge">
<title>Node6&#45;&gt;Node9</title>
<g id="a_edge8_Node000006_Node000009"><a xlink:title=" ">
<path fill="none" stroke="#63b8ff" d="M684.95,-180.02C683.22,-178.92 681.56,-177.75 680,-176.5 657.19,-158.24 668,-138.16 644,-121.5 638.47,-117.66 632.29,-114.59 625.86,-112.13"/>
<polygon fill="#63b8ff" stroke="#63b8ff" points="683.54,-183.23 694.01,-184.87 686.85,-177.06 683.54,-183.23"/>
</a>
</g>
</g>
<!-- Node10 -->
<g id="Node000010" class="node">
<title>Node10</title>
<g id="a_Node000010"><a xlink:href="../../d3/db4/classFatFile.xhtml#ab22396a285e27b53501a0047ddd97f59" target="_top" xlink:title=" ">
<polygon fill="white" stroke="#666666" points="637.5,-75 480.5,-75 480.5,-56 637.5,-56 637.5,-75"/>
<text text-anchor="middle" x="559" y="-63" font-family="Helvetica,sans-Serif" font-size="10.00">FatFile::printCreateDateTime</text>
</a>
</g>
</g>
<!-- Node6&#45;&gt;Node10 -->
<g id="edge9_Node000006_Node000010" class="edge">
<title>Node6&#45;&gt;Node10</title>
<g id="a_edge9_Node000006_Node000010"><a xlink:title=" ">
<path fill="none" stroke="#63b8ff" d="M683.4,-179.48C682.21,-178.55 681.07,-177.55 680,-176.5 648.73,-145.67 677.29,-113.12 644,-84.5 639.58,-80.7 634.55,-77.61 629.21,-75.12"/>
<polygon fill="#63b8ff" stroke="#63b8ff" points="681.58,-182.47 691.9,-184.87 685.32,-176.56 681.58,-182.47"/>
</a>
</g>
</g>
<!-- Node11 -->
<g id="Node000011" class="node">
<title>Node11</title>
<g id="a_Node000011"><a xlink:href="../../d2/d2b/ExFatDbg_8cpp.xhtml#a7f7a4b73b05a14880fcafc67b99b8141" target="_top" xlink:title=" ">
<polygon fill="white" stroke="#666666" points="602.5,-297 515.5,-297 515.5,-278 602.5,-278 602.5,-297"/>
<text text-anchor="middle" x="559" y="-285" font-family="Helvetica,sans-Serif" font-size="10.00">printDateTime</text>
</a>
</g>
</g>
<!-- Node6&#45;&gt;Node11 -->
<g id="edge10_Node000006_Node000011" class="edge">
<title>Node6&#45;&gt;Node11</title>
<g id="a_edge10_Node000006_Node000011"><a xlink:title=" ">
<path fill="none" stroke="#63b8ff" d="M713.64,-211.75C698.23,-229.07 672.16,-255.2 644,-269.5 631.37,-275.92 616.54,-280.05 602.89,-282.71"/>
<polygon fill="#63b8ff" stroke="#63b8ff" points="716.41,-213.89 720.3,-204.04 711.12,-209.31 716.41,-213.89"/>
</a>
</g>
</g>
<!-- Node14 -->
<g id="Node000014" class="node">
<title>Node14</title>
<g id="a_Node000014"><a xlink:href="../../d6/d7f/classExFatFile.xhtml#a16488d3e0d946f108240b7d6c536c6f4" target="_top" xlink:title=" ">
<polygon fill="white" stroke="#666666" points="644,-260 474,-260 474,-241 644,-241 644,-260"/>
<text text-anchor="middle" x="559" y="-248" font-family="Helvetica,sans-Serif" font-size="10.00">ExFatFile::printModifyDateTime</text>
</a>
</g>
</g>
<!-- Node6&#45;&gt;Node14 -->
<g id="edge13_Node000006_Node000014" class="edge">
<title>Node6&#45;&gt;Node14</title>
<g id="a_edge13_Node000006_Node000014"><a xlink:title=" ">
<path fill="none" stroke="#63b8ff" d="M700.42,-208.78C684.31,-216.66 663.39,-226.12 644,-232.5 634.08,-235.76 623.31,-238.59 612.89,-240.97"/>
<polygon fill="#63b8ff" stroke="#63b8ff" points="702.38,-211.71 709.77,-204.12 699.26,-205.45 702.38,-211.71"/>
</a>
</g>
</g>
<!-- Node16 -->
<g id="Node000016" class="node">
<title>Node16</title>
<g id="a_Node000016"><a xlink:href="../../d3/db4/classFatFile.xhtml#a43c8a1cabcae673e43c590f5db44c65a" target="_top" xlink:title=" ">
<polygon fill="white" stroke="#666666" points="638,-223 480,-223 480,-204 638,-204 638,-223"/>
<text text-anchor="middle" x="559" y="-211" font-family="Helvetica,sans-Serif" font-size="10.00">FatFile::printModifyDateTime</text>
</a>
</g>
</g>
<!-- Node6&#45;&gt;Node16 -->
<g id="edge15_Node000006_Node000016" class="edge">
<title>Node6&#45;&gt;Node16</title>
<g id="a_edge15_Node000006_Node000016"><a xlink:title=" ">
<path fill="none" stroke="#63b8ff" d="M670.52,-201C660.06,-202.18 648.99,-203.44 638.05,-204.67"/>
<polygon fill="#63b8ff" stroke="#63b8ff" points="671.21,-204.44 680.76,-199.84 670.43,-197.49 671.21,-204.44"/>
</a>
</g>
</g>
<!-- Node12 -->
<g id="Node000012" class="node">
<title>Node12</title>
<g id="a_Node000012"><a xlink:href="../../d2/d2b/ExFatDbg_8cpp.xhtml#ae03827835f2bd9f7e6f917762b68a18b" target="_top" xlink:title=" ">
<polygon fill="white" stroke="#666666" points="394.5,-297 323.5,-297 323.5,-278 394.5,-278 394.5,-297"/>
<text text-anchor="middle" x="359" y="-285" font-family="Helvetica,sans-Serif" font-size="10.00">printDirFile</text>
</a>
</g>
</g>
<!-- Node11&#45;&gt;Node12 -->
<g id="edge11_Node000011_Node000012" class="edge">
<title>Node11&#45;&gt;Node12</title>
<g id="a_edge11_Node000011_Node000012"><a xlink:title=" ">
<path fill="none" stroke="#63b8ff" d="M504.98,-287.5C469.99,-287.5 425.13,-287.5 394.65,-287.5"/>
<polygon fill="#63b8ff" stroke="#63b8ff" points="505.04,-291 515.04,-287.5 505.04,-284 505.04,-291"/>
</a>
</g>
</g>
<!-- Node13 -->
<g id="Node000013" class="node">
<title>Node13</title>
<g id="a_Node000013"><a xlink:href="../../d0/d63/classExFatPartition.xhtml#ac37fa630d5288803f46d3bb9ed3690b5" target="_top" xlink:title=" ">
<polygon fill="white" stroke="#666666" points="244,-297 118,-297 118,-278 244,-278 244,-297"/>
<text text-anchor="middle" x="181" y="-285" font-family="Helvetica,sans-Serif" font-size="10.00">ExFatPartition::printDir</text>
</a>
</g>
</g>
<!-- Node12&#45;&gt;Node13 -->
<g id="edge12_Node000012_Node000013" class="edge">
<title>Node12&#45;&gt;Node13</title>
<g id="a_edge12_Node000012_Node000013"><a xlink:title=" ">
<path fill="none" stroke="#63b8ff" d="M313.02,-287.5C292.09,-287.5 266.85,-287.5 244.13,-287.5"/>
<polygon fill="#63b8ff" stroke="#63b8ff" points="313.23,-291 323.23,-287.5 313.23,-284 313.23,-291"/>
</a>
</g>
</g>
<!-- Node15 -->
<g id="Node000015" class="node">
<title>Node15</title>
<g id="a_Node000015"><a xlink:href="../../d6/d7f/classExFatFile.xhtml#a09f8beb55f939874e93c1df6c8a046d4" target="_top" xlink:title=" ">
<polygon fill="white" stroke="#666666" points="396,-260 322,-260 322,-241 396,-241 396,-260"/>
<text text-anchor="middle" x="359" y="-248" font-family="Helvetica,sans-Serif" font-size="10.00">ExFatFile::ls</text>
</a>
</g>
</g>
<!-- Node14&#45;&gt;Node15 -->
<g id="edge14_Node000014_Node000015" class="edge">
<title>Node14&#45;&gt;Node15</title>
<g id="a_edge14_Node000014_Node000015"><a xlink:title=" ">
<path fill="none" stroke="#63b8ff" d="M463.51,-250.5C439.53,-250.5 415.2,-250.5 396.16,-250.5"/>
<polygon fill="#63b8ff" stroke="#63b8ff" points="463.74,-254 473.74,-250.5 463.74,-247 463.74,-254"/>
</a>
</g>
</g>
<!-- Node17 -->
<g id="Node000017" class="node">
<title>Node17</title>
<g id="a_Node000017"><a xlink:href="../../d3/db4/classFatFile.xhtml#a60ab9d16bcc778150a364c26de467de1" target="_top" xlink:title=" ">
<polygon fill="white" stroke="#666666" points="390,-205 328,-205 328,-186 390,-186 390,-205"/>
<text text-anchor="middle" x="359" y="-193" font-family="Helvetica,sans-Serif" font-size="10.00">FatFile::ls</text>
</a>
</g>
</g>
<!-- Node16&#45;&gt;Node17 -->
<g id="edge16_Node000016_Node000017" class="edge">
<title>Node16&#45;&gt;Node17</title>
<g id="a_edge16_Node000016_Node000017"><a xlink:title=" ">
<path fill="none" stroke="#63b8ff" d="M469.75,-205.48C441.29,-202.89 411.63,-200.19 390.33,-198.26"/>
<polygon fill="#63b8ff" stroke="#63b8ff" points="469.47,-208.97 479.75,-206.39 470.1,-201.99 469.47,-208.97"/>
</a>
</g>
</g>
<!-- Node17&#45;&gt;Node17 -->
<g id="edge20_Node000017_Node000017" class="edge">
<title>Node17&#45;&gt;Node17</title>
<g id="a_edge20_Node000017_Node000017"><a xlink:title=" ">
<path fill="none" stroke="#63b8ff" d="M392.31,-213.45C391.36,-218.82 380.26,-223 359,-223 327.36,-223 318.22,-213.73 331.57,-205.08"/>
<polygon fill="#63b8ff" stroke="#63b8ff" points="395.05,-211.26 386.43,-205.08 389.32,-215.28 395.05,-211.26"/>
</a>
</g>
</g>
<!-- Node18 -->
<g id="Node000018" class="node">
<title>Node18</title>
<g id="a_Node000018"><a xlink:href="../../d3/dd5/classFatVolume.xhtml#ac5fc83cac7fd3af0b140a7986b9472f8" target="_top" xlink:title=" ">
<polygon fill="white" stroke="#666666" points="222,-224 140,-224 140,-205 222,-205 222,-224"/>
<text text-anchor="middle" x="181" y="-212" font-family="Helvetica,sans-Serif" font-size="10.00">FatVolume::ls</text>
</a>
</g>
</g>
<!-- Node17&#45;&gt;Node18 -->
<g id="edge17_Node000017_Node000018" class="edge">
<title>Node17&#45;&gt;Node18</title>
<g id="a_edge17_Node000017_Node000018"><a xlink:title=" ">
<path fill="none" stroke="#63b8ff" d="M317.66,-199.86C289,-202.95 250.68,-207.09 222.07,-210.17"/>
<polygon fill="#63b8ff" stroke="#63b8ff" points="318.18,-203.32 327.74,-198.77 317.43,-196.36 318.18,-203.32"/>
</a>
</g>
</g>
<!-- Node19 -->
<g id="Node000019" class="node">
<title>Node19</title>
<g id="a_Node000019"><a xlink:href="../../d3/dd5/classFatVolume.xhtml#ae40964f357cfff4208812344a0e6f26f" target="_top" xlink:title=" ">
<polygon fill="white" stroke="#666666" points="222,-187 140,-187 140,-168 222,-168 222,-187"/>
<text text-anchor="middle" x="181" y="-175" font-family="Helvetica,sans-Serif" font-size="10.00">FatVolume::ls</text>
</a>
</g>
</g>
<!-- Node17&#45;&gt;Node19 -->
<g id="edge18_Node000017_Node000019" class="edge">
<title>Node17&#45;&gt;Node19</title>
<g id="a_edge18_Node000017_Node000019"><a xlink:title=" ">
<path fill="none" stroke="#63b8ff" d="M317.66,-191.37C289,-188.44 250.68,-184.52 222.07,-181.6"/>
<polygon fill="#63b8ff" stroke="#63b8ff" points="317.44,-194.87 327.74,-192.41 318.15,-187.91 317.44,-194.87"/>
</a>
</g>
</g>
<!-- Node20 -->
<g id="Node000020" class="node">
<title>Node20</title>
<g id="a_Node000020"><a xlink:href="../../d3/dd5/classFatVolume.xhtml#a455ad7b2a5b6b31551dca08087a3c404" target="_top" xlink:title=" ">
<polygon fill="white" stroke="#666666" points="82,-187 0,-187 0,-168 82,-168 82,-187"/>
<text text-anchor="middle" x="41" y="-175" font-family="Helvetica,sans-Serif" font-size="10.00">FatVolume::ls</text>
</a>
</g>
</g>
<!-- Node19&#45;&gt;Node20 -->
<g id="edge19_Node000019_Node000020" class="edge">
<title>Node19&#45;&gt;Node20</title>
<g id="a_edge19_Node000019_Node000020"><a xlink:title=" ">
<path fill="none" stroke="#63b8ff" d="M129.66,-177.5C114,-177.5 96.96,-177.5 82.1,-177.5"/>
<polygon fill="#63b8ff" stroke="#63b8ff" points="129.71,-181 139.71,-177.5 129.71,-174 129.71,-181"/>
</a>
</g>
</g>
<!-- Node22&#45;&gt;Node6 -->
<g id="edge24_Node000022_Node000006" class="edge">
<title>Node22&#45;&gt;Node6</title>
<g id="a_edge24_Node000022_Node000006"><a xlink:title=" ">
<path fill="none" stroke="#63b8ff" d="M819.35,-98.2C817.45,-99.52 815.65,-100.95 814,-102.5 787.31,-127.51 805.05,-151.88 778,-176.5 774.31,-179.85 769.94,-182.6 765.37,-184.85"/>
<polygon fill="#63b8ff" stroke="#63b8ff" points="821.25,-101.14 828.14,-93.09 817.73,-95.09 821.25,-101.14"/>
</a>
</g>
</g>
<!-- Node22&#45;&gt;Node21 -->
<g id="edge25_Node000022_Node000021" class="edge">
<title>Node22&#45;&gt;Node21</title>
<g id="a_edge25_Node000022_Node000021"><a xlink:title=" ">
<path fill="none" stroke="#63b8ff" d="M822.23,-97.61C819.37,-99.12 816.59,-100.75 814,-102.5 794.98,-115.33 797.21,-126.95 778,-139.5 772.93,-142.81 767.17,-145.63 761.44,-147.99"/>
<polygon fill="#63b8ff" stroke="#63b8ff" points="824,-100.64 831.52,-93.18 820.99,-94.32 824,-100.64"/>
</a>
</g>
</g>
<!-- Node22&#45;&gt;Node23 -->
<g id="edge23_Node000022_Node000023" class="edge">
<title>Node22&#45;&gt;Node23</title>
<g id="a_edge23_Node000022_Node000023"><a xlink:title=" ">
<path fill="none" stroke="#63b8ff" d="M840.32,-67.79C824.11,-55.69 800.44,-39.11 778,-27.5 771.99,-24.39 765.32,-21.54 758.91,-19.07"/>
<polygon fill="#63b8ff" stroke="#63b8ff" points="838.41,-70.74 848.49,-74 842.64,-65.17 838.41,-70.74"/>
</a>
</g>
</g>
<!-- Node24 -->
<g id="Node000024" class="node">
<title>Node24</title>
<g id="a_Node000024"><a xlink:href="../../d3/d80/FsDateTime_8cpp.xhtml#a5f66b5109d471a946861e2d70754c901" target="_top" xlink:title=" ">
<polygon fill="white" stroke="#666666" points="765.5,-56 692.5,-56 692.5,-37 765.5,-37 765.5,-56"/>
<text text-anchor="middle" x="729" y="-44" font-family="Helvetica,sans-Serif" font-size="10.00">fsPrintTime</text>
</a>
</g>
</g>
<!-- Node22&#45;&gt;Node24 -->
<g id="edge26_Node000022_Node000024" class="edge">
<title>Node22&#45;&gt;Node24</title>
<g id="a_edge26_Node000022_Node000024"><a xlink:title=" ">
<path fill="none" stroke="#63b8ff" d="M817.03,-71.17C799.74,-66.27 780.16,-60.72 763.95,-56.12"/>
<polygon fill="#63b8ff" stroke="#63b8ff" points="816.32,-74.61 826.89,-73.97 818.23,-67.88 816.32,-74.61"/>
</a>
</g>
</g>
<!-- Node25 -->
<g id="Node000025" class="node">
<title>Node25</title>
<g id="a_Node000025"><a xlink:href="../../d3/d80/FsDateTime_8cpp.xhtml#a439c7b9e8385c61a4b68d7bf36948f10" target="_top" xlink:title=" ">
<polygon fill="white" stroke="#666666" points="765.5,-93 692.5,-93 692.5,-74 765.5,-74 765.5,-93"/>
<text text-anchor="middle" x="729" y="-81" font-family="Helvetica,sans-Serif" font-size="10.00">fsPrintTime</text>
</a>
</g>
</g>
<!-- Node22&#45;&gt;Node25 -->
<g id="edge27_Node000022_Node000025" class="edge">
<title>Node22&#45;&gt;Node25</title>
<g id="a_edge27_Node000022_Node000025"><a xlink:title=" ">
<path fill="none" stroke="#63b8ff" d="M815.83,-83.5C799.53,-83.5 781.32,-83.5 765.88,-83.5"/>
<polygon fill="#63b8ff" stroke="#63b8ff" points="816.21,-87 826.21,-83.5 816.21,-80 816.21,-87"/>
</a>
</g>
</g>
<!-- Node26&#45;&gt;Node21 -->
<g id="edge30_Node000026_Node000021" class="edge">
<title>Node26&#45;&gt;Node21</title>
<g id="a_edge30_Node000026_Node000021"><a xlink:title=" ">
<path fill="none" stroke="#63b8ff" d="M817.03,-132.83C799.74,-137.73 780.16,-143.28 763.95,-147.88"/>
<polygon fill="#63b8ff" stroke="#63b8ff" points="818.23,-136.12 826.89,-130.03 816.32,-129.39 818.23,-136.12"/>
</a>
</g>
</g>
<!-- Node27 -->
<g id="Node000027" class="node">
<title>Node27</title>
<g id="a_Node000027"><a xlink:href="../../d3/d80/FsDateTime_8cpp.xhtml#a7d407c707c74809c554c19ae4bb9d065" target="_top" xlink:title=" ">
<polygon fill="white" stroke="#666666" points="778,-130 680,-130 680,-111 778,-111 778,-130"/>
<text text-anchor="middle" x="729" y="-118" font-family="Helvetica,sans-Serif" font-size="10.00">fsPrintTimeZone</text>
</a>
</g>
</g>
<!-- Node26&#45;&gt;Node27 -->
<g id="edge31_Node000026_Node000027" class="edge">
<title>Node26&#45;&gt;Node27</title>
<g id="a_edge31_Node000026_Node000027"><a xlink:title=" ">
<path fill="none" stroke="#63b8ff" d="M803.56,-120.5C795.1,-120.5 786.44,-120.5 778.18,-120.5"/>
<polygon fill="#63b8ff" stroke="#63b8ff" points="803.76,-124 813.76,-120.5 803.76,-117 803.76,-124"/>
</a>
</g>
</g>
</g>
</svg>
