<?xml version="1.0" encoding="UTF-8" standalone="no"?>
<!DOCTYPE svg PUBLIC "-//W3C//DTD SVG 1.1//EN"
 "http://www.w3.org/Graphics/SVG/1.1/DTD/svg11.dtd">
<!-- Generated by graphviz version 2.43.0 (0)
 -->
<!-- Title: fsFmtTime Pages: 1 -->
<svg width="394pt" height="46pt"
 viewBox="0.00 0.00 394.00 46.00" xmlns="http://www.w3.org/2000/svg" xmlns:xlink="http://www.w3.org/1999/xlink">
<g id="graph0" class="graph" transform="scale(1 1) rotate(0) translate(4 42)">
<title>fsFmtTime</title>
<!-- Node1 -->
<g id="Node000001" class="node">
<title>Node1</title>
<g id="a_Node000001"><a xlink:title=" ">
<polygon fill="#999999" stroke="#666666" points="70,-38 0,-38 0,-19 70,-19 70,-38"/>
<text text-anchor="middle" x="35" y="-26" font-family="Helvetica,sans-Serif" font-size="10.00">fsFmtTime</text>
</a>
</g>
</g>
<!-- Node2 -->
<g id="Node000002" class="node">
<title>Node2</title>
<g id="a_Node000002"><a xlink:href="../../d3/d80/FsDateTime_8cpp_a45cb92b5a748663234bb5213234105ce.xhtml#a45cb92b5a748663234bb5213234105ce" target="_top" xlink:title=" ">
<polygon fill="white" stroke="#666666" points="280,-38 212,-38 212,-19 280,-19 280,-38"/>
<text text-anchor="middle" x="246" y="-26" font-family="Helvetica,sans-Serif" font-size="10.00">fsFmtField</text>
</a>
</g>
</g>
<!-- Node1&#45;&gt;Node2 -->
<g id="edge1_Node000001_Node000002" class="edge">
<title>Node1&#45;&gt;Node2</title>
<g id="a_edge1_Node000001_Node000002"><a xlink:title=" ">
<path fill="none" stroke="#63b8ff" d="M70.04,-28.5C105.93,-28.5 162.58,-28.5 201.64,-28.5"/>
<polygon fill="#63b8ff" stroke="#63b8ff" points="201.66,-32 211.66,-28.5 201.66,-25 201.66,-32"/>
</a>
</g>
</g>
<!-- Node4 -->
<g id="Node000004" class="node">
<title>Node4</title>
<g id="a_Node000004"><a xlink:href="../../d3/d80/FsDateTime_8cpp_aa500940592fd8cbd147771e54243ac73.xhtml#aa500940592fd8cbd147771e54243ac73" target="_top" xlink:title=" ">
<polygon fill="white" stroke="#666666" points="176,-19 106,-19 106,0 176,0 176,-19"/>
<text text-anchor="middle" x="141" y="-7" font-family="Helvetica,sans-Serif" font-size="10.00">fsFmtTime</text>
</a>
</g>
</g>
<!-- Node1&#45;&gt;Node4 -->
<g id="edge3_Node000001_Node000004" class="edge">
<title>Node1&#45;&gt;Node4</title>
<g id="a_edge3_Node000001_Node000004"><a xlink:title=" ">
<path fill="none" stroke="#63b8ff" d="M70.05,-22.28C78.31,-20.77 87.26,-19.13 95.91,-17.55"/>
<polygon fill="#63b8ff" stroke="#63b8ff" points="96.66,-20.98 105.87,-15.74 95.4,-14.09 96.66,-20.98"/>
</a>
</g>
</g>
<!-- Node3 -->
<g id="Node000003" class="node">
<title>Node3</title>
<g id="a_Node000003"><a xlink:href="../../d4/d7f/FmtNumber_8cpp_af68574870cae526800333ab6a615f955.xhtml#af68574870cae526800333ab6a615f955" target="_top" xlink:title=" ">
<polygon fill="white" stroke="#666666" points="386,-38 316,-38 316,-19 386,-19 386,-38"/>
<text text-anchor="middle" x="351" y="-26" font-family="Helvetica,sans-Serif" font-size="10.00">fmtBase10</text>
</a>
</g>
</g>
<!-- Node2&#45;&gt;Node3 -->
<g id="edge2_Node000002_Node000003" class="edge">
<title>Node2&#45;&gt;Node3</title>
<g id="a_edge2_Node000002_Node000003"><a xlink:title=" ">
<path fill="none" stroke="#63b8ff" d="M280.16,-28.5C288.27,-28.5 297.08,-28.5 305.62,-28.5"/>
<polygon fill="#63b8ff" stroke="#63b8ff" points="305.84,-32 315.84,-28.5 305.84,-25 305.84,-32"/>
</a>
</g>
</g>
<!-- Node4&#45;&gt;Node2 -->
<g id="edge4_Node000004_Node000002" class="edge">
<title>Node4&#45;&gt;Node2</title>
<g id="a_edge4_Node000004_Node000002"><a xlink:title=" ">
<path fill="none" stroke="#63b8ff" d="M176.01,-15.77C184.27,-17.3 193.2,-18.94 201.82,-20.53"/>
<polygon fill="#63b8ff" stroke="#63b8ff" points="201.26,-23.99 211.73,-22.36 202.53,-17.11 201.26,-23.99"/>
</a>
</g>
</g>
</g>
</svg>
