<?xml version="1.0" encoding="UTF-8" standalone="no"?>
<!DOCTYPE svg PUBLIC "-//W3C//DTD SVG 1.1//EN"
 "http://www.w3.org/Graphics/SVG/1.1/DTD/svg11.dtd">
<!-- Generated by graphviz version 2.43.0 (0)
 -->
<!-- Title: BufferedPrint::println Pages: 1 -->
<svg width="586pt" height="27pt"
 viewBox="0.00 0.00 586.00 27.00" xmlns="http://www.w3.org/2000/svg" xmlns:xlink="http://www.w3.org/1999/xlink">
<g id="graph0" class="graph" transform="scale(1 1) rotate(0) translate(4 23)">
<title>BufferedPrint::println</title>
<!-- Node1 -->
<g id="Node000001" class="node">
<title>Node1</title>
<g id="a_Node000001"><a xlink:title=" ">
<polygon fill="#999999" stroke="#666666" points="118,-19 0,-19 0,0 118,0 118,-19"/>
<text text-anchor="middle" x="59" y="-7" font-family="Helvetica,sans-Serif" font-size="10.00">BufferedPrint::println</text>
</a>
</g>
</g>
<!-- Node2 -->
<g id="Node000002" class="node">
<title>Node2</title>
<g id="a_Node000002"><a xlink:href="../../d2/d1b/classBufferedPrint.xhtml#a69ea9541fb854448b9fe3aff44583975" target="_top" xlink:title=" ">
<polygon fill="white" stroke="#666666" points="286,-19 154,-19 154,0 286,0 286,-19"/>
<text text-anchor="middle" x="220" y="-7" font-family="Helvetica,sans-Serif" font-size="10.00">BufferedPrint::printField</text>
</a>
</g>
</g>
<!-- Node1&#45;&gt;Node2 -->
<g id="edge1_Node000001_Node000002" class="edge">
<title>Node1&#45;&gt;Node2</title>
<g id="a_edge1_Node000001_Node000002"><a xlink:title=" ">
<path fill="none" stroke="#63b8ff" d="M118.3,-9.5C126.65,-9.5 135.33,-9.5 143.94,-9.5"/>
<polygon fill="#63b8ff" stroke="#63b8ff" points="143.99,-13 153.99,-9.5 143.99,-6 143.99,-13"/>
</a>
</g>
</g>
<!-- Node3 -->
<g id="Node000003" class="node">
<title>Node3</title>
<g id="a_Node000003"><a xlink:href="../../d2/d1b/classBufferedPrint.xhtml#ab41de6eca77a04a49a6fc965b1950fc5" target="_top" xlink:title=" ">
<polygon fill="white" stroke="#666666" points="433,-19 322,-19 322,0 433,0 433,-19"/>
<text text-anchor="middle" x="377.5" y="-7" font-family="Helvetica,sans-Serif" font-size="10.00">BufferedPrint::write</text>
</a>
</g>
</g>
<!-- Node2&#45;&gt;Node3 -->
<g id="edge2_Node000002_Node000003" class="edge">
<title>Node2&#45;&gt;Node3</title>
<g id="a_edge2_Node000002_Node000003"><a xlink:title=" ">
<path fill="none" stroke="#63b8ff" d="M286.05,-9.5C294.45,-9.5 303.05,-9.5 311.45,-9.5"/>
<polygon fill="#63b8ff" stroke="#63b8ff" points="311.57,-13 321.57,-9.5 311.57,-6 311.57,-13"/>
</a>
</g>
</g>
<!-- Node4 -->
<g id="Node000004" class="node">
<title>Node4</title>
<g id="a_Node000004"><a xlink:href="../../d2/d1b/classBufferedPrint.xhtml#a2253d1e7f231b94b18eab1281c123a49" target="_top" xlink:title=" ">
<polygon fill="white" stroke="#666666" points="578,-19 469,-19 469,0 578,0 578,-19"/>
<text text-anchor="middle" x="523.5" y="-7" font-family="Helvetica,sans-Serif" font-size="10.00">BufferedPrint::sync</text>
</a>
</g>
</g>
<!-- Node3&#45;&gt;Node4 -->
<g id="edge3_Node000003_Node000004" class="edge">
<title>Node3&#45;&gt;Node4</title>
<g id="a_edge3_Node000003_Node000004"><a xlink:title=" ">
<path fill="none" stroke="#63b8ff" d="M433.35,-9.5C441.6,-9.5 450.17,-9.5 458.59,-9.5"/>
<polygon fill="#63b8ff" stroke="#63b8ff" points="458.75,-13 468.75,-9.5 458.75,-6 458.75,-13"/>
</a>
</g>
</g>
</g>
</svg>
