<?xml version="1.0" encoding="UTF-8" standalone="no"?>
<!DOCTYPE svg PUBLIC "-//W3C//DTD SVG 1.1//EN"
 "http://www.w3.org/Graphics/SVG/1.1/DTD/svg11.dtd">
<!-- Generated by graphviz version 2.43.0 (0)
 -->
<!-- Title: BufferedPrint::write Pages: 1 -->
<svg width="455pt" height="286pt"
 viewBox="0.00 0.00 455.00 286.00" xmlns="http://www.w3.org/2000/svg" xmlns:xlink="http://www.w3.org/1999/xlink">

<svg id="main" version="1.1" xmlns="http://www.w3.org/2000/svg" xmlns:xlink="http://www.w3.org/1999/xlink" xml:space="preserve" onload="init(evt)">
<style type="text/css"><![CDATA[
.node, .edge {opacity: 0.7;}
.node.selected, .edge.selected {opacity: 1;}
.edge:hover path { stroke: red; }
.edge:hover polygon { stroke: red; fill: red; }
]]></style>
<script type="application/ecmascript" xlink:href="../../svg.min.js"/>
<svg id="graph" class="graph">
<g id="graph0" class="graph" transform="scale(1 1) rotate(0) translate(4 282)">
<title>BufferedPrint::write</title>
<!-- Node1 -->
<g id="Node000001" class="node">
<title>Node1</title>
<g id="a_Node000001"><a xlink:title=" ">
<polygon fill="#999999" stroke="#666666" points="447,-111 336,-111 336,-92 447,-92 447,-111"/>
<text text-anchor="middle" x="391.5" y="-99" font-family="Helvetica,sans-Serif" font-size="10.00">BufferedPrint::write</text>
</a>
</g>
</g>
<!-- Node2 -->
<g id="Node000002" class="node">
<title>Node2</title>
<g id="a_Node000002"><a xlink:href="../../d2/d1b/classBufferedPrint.xhtml#a69ea9541fb854448b9fe3aff44583975" target="_top" xlink:title=" ">
<polygon fill="white" stroke="#666666" points="300,-167 168,-167 168,-148 300,-148 300,-167"/>
<text text-anchor="middle" x="234" y="-155" font-family="Helvetica,sans-Serif" font-size="10.00">BufferedPrint::printField</text>
</a>
</g>
</g>
<!-- Node1&#45;&gt;Node2 -->
<g id="edge1_Node000001_Node000002" class="edge">
<title>Node1&#45;&gt;Node2</title>
<g id="a_edge1_Node000001_Node000002"><a xlink:title=" ">
<path fill="none" stroke="#63b8ff" d="M360.81,-115.09C343.32,-122.82 320.65,-132.34 300,-139.5 291.26,-142.53 281.72,-145.41 272.72,-147.93"/>
<polygon fill="#63b8ff" stroke="#63b8ff" points="362.24,-118.29 369.94,-111.02 359.39,-111.9 362.24,-118.29"/>
</a>
</g>
</g>
<!-- Node6 -->
<g id="Node000006" class="node">
<title>Node6</title>
<g id="a_Node000006"><a xlink:href="../../d2/d1b/classBufferedPrint.xhtml#ac18cc8c86b73b073a28db85075215f4f" target="_top" xlink:title=" ">
<polygon fill="white" stroke="#666666" points="132,-278 0,-278 0,-259 132,-259 132,-278"/>
<text text-anchor="middle" x="66" y="-266" font-family="Helvetica,sans-Serif" font-size="10.00">BufferedPrint::printField</text>
</a>
</g>
</g>
<!-- Node1&#45;&gt;Node6 -->
<g id="edge10_Node000001_Node000006" class="edge">
<title>Node1&#45;&gt;Node6</title>
<g id="a_edge10_Node000001_Node000006"><a xlink:title=" ">
<path fill="none" stroke="#63b8ff" d="M373.25,-118.3C355.82,-134.65 327.6,-159.45 300,-176.5 230.59,-219.39 208.85,-223.1 132,-250.5 123.4,-253.57 114,-256.44 105.1,-258.94"/>
<polygon fill="#63b8ff" stroke="#63b8ff" points="376.06,-120.46 380.89,-111.03 371.23,-115.39 376.06,-120.46"/>
</a>
</g>
</g>
<!-- Node11 -->
<g id="Node000011" class="node">
<title>Node11</title>
<g id="a_Node000011"><a xlink:href="../../d2/d1b/classBufferedPrint.xhtml#ac49d0beb5fdad68e82f741bbaad4bb1b" target="_top" xlink:title=" ">
<polygon fill="white" stroke="#666666" points="300,-130 168,-130 168,-111 300,-111 300,-130"/>
<text text-anchor="middle" x="234" y="-118" font-family="Helvetica,sans-Serif" font-size="10.00">BufferedPrint::printField</text>
</a>
</g>
</g>
<!-- Node1&#45;&gt;Node11 -->
<g id="edge11_Node000001_Node000011" class="edge">
<title>Node1&#45;&gt;Node11</title>
<g id="a_edge11_Node000001_Node000011"><a xlink:title=" ">
<path fill="none" stroke="#63b8ff" d="M325.59,-109.43C317.21,-110.45 308.63,-111.5 300.25,-112.53"/>
<polygon fill="#63b8ff" stroke="#63b8ff" points="326.17,-112.89 335.68,-108.2 325.33,-105.94 326.17,-112.89"/>
</a>
</g>
</g>
<!-- Node12 -->
<g id="Node000012" class="node">
<title>Node12</title>
<g id="a_Node000012"><a xlink:href="../../d2/d1b/classBufferedPrint.xhtml#a5b5b11f01adf91a1854a44b131886219" target="_top" xlink:title=" ">
<polygon fill="white" stroke="#666666" points="300,-93 168,-93 168,-74 300,-74 300,-93"/>
<text text-anchor="middle" x="234" y="-81" font-family="Helvetica,sans-Serif" font-size="10.00">BufferedPrint::printField</text>
</a>
</g>
</g>
<!-- Node1&#45;&gt;Node12 -->
<g id="edge12_Node000001_Node000012" class="edge">
<title>Node1&#45;&gt;Node12</title>
<g id="a_edge12_Node000001_Node000012"><a xlink:title=" ">
<path fill="none" stroke="#63b8ff" d="M325.59,-93.99C317.21,-93.02 308.63,-92.02 300.25,-91.05"/>
<polygon fill="#63b8ff" stroke="#63b8ff" points="325.34,-97.48 335.68,-95.15 326.15,-90.53 325.34,-97.48"/>
</a>
</g>
</g>
<!-- Node13 -->
<g id="Node000013" class="node">
<title>Node13</title>
<g id="a_Node000013"><a xlink:href="../../d2/d1b/classBufferedPrint.xhtml#af680cf36170347287d20ed92ae5f6c9b" target="_top" xlink:title=" ">
<polygon fill="white" stroke="#666666" points="300,-56 168,-56 168,-37 300,-37 300,-56"/>
<text text-anchor="middle" x="234" y="-44" font-family="Helvetica,sans-Serif" font-size="10.00">BufferedPrint::printField</text>
</a>
</g>
</g>
<!-- Node1&#45;&gt;Node13 -->
<g id="edge13_Node000001_Node000013" class="edge">
<title>Node1&#45;&gt;Node13</title>
<g id="a_edge13_Node000001_Node000013"><a xlink:title=" ">
<path fill="none" stroke="#63b8ff" d="M358.48,-87.91C341.28,-80.83 319.65,-72.26 300,-65.5 290.33,-62.17 279.72,-58.91 269.94,-56.06"/>
<polygon fill="#63b8ff" stroke="#63b8ff" points="357.46,-91.27 368.03,-91.88 360.14,-84.81 357.46,-91.27"/>
</a>
</g>
</g>
<!-- Node14 -->
<g id="Node000014" class="node">
<title>Node14</title>
<g id="a_Node000014"><a xlink:href="../../d2/d1b/classBufferedPrint.xhtml#a7bd188ccc8b38b83cf44b96164a1d816" target="_top" xlink:title=" ">
<polygon fill="white" stroke="#666666" points="293,-19 175,-19 175,0 293,0 293,-19"/>
<text text-anchor="middle" x="234" y="-7" font-family="Helvetica,sans-Serif" font-size="10.00">BufferedPrint::println</text>
</a>
</g>
</g>
<!-- Node1&#45;&gt;Node14 -->
<g id="edge14_Node000001_Node000014" class="edge">
<title>Node1&#45;&gt;Node14</title>
<g id="a_edge14_Node000001_Node000014"><a xlink:title=" ">
<path fill="none" stroke="#63b8ff" d="M373.98,-84.34C356.92,-67.56 328.81,-42.42 300,-27.5 293.55,-24.16 286.42,-21.38 279.3,-19.09"/>
<polygon fill="#63b8ff" stroke="#63b8ff" points="371.89,-87.2 381.42,-91.82 376.85,-82.26 371.89,-87.2"/>
</a>
</g>
</g>
<!-- Node3 -->
<g id="Node000003" class="node">
<title>Node3</title>
<g id="a_Node000003"><a xlink:href="../../d2/d1b/classBufferedPrint.xhtml#a95f984c4702b0e20d781efd9d1ea8f27" target="_top" xlink:title=" ">
<polygon fill="white" stroke="#666666" points="120.5,-241 11.5,-241 11.5,-222 120.5,-222 120.5,-241"/>
<text text-anchor="middle" x="66" y="-229" font-family="Helvetica,sans-Serif" font-size="10.00">BufferedPrint::print</text>
</a>
</g>
</g>
<!-- Node2&#45;&gt;Node3 -->
<g id="edge2_Node000002_Node000003" class="edge">
<title>Node2&#45;&gt;Node3</title>
<g id="a_edge2_Node000002_Node000003"><a xlink:title=" ">
<path fill="none" stroke="#63b8ff" d="M209.45,-172.66C189.47,-185 159.72,-202.17 132,-213.5 124.2,-216.69 115.64,-219.51 107.37,-221.92"/>
<polygon fill="#63b8ff" stroke="#63b8ff" points="211.54,-175.48 218.16,-167.2 207.83,-169.54 211.54,-175.48"/>
</a>
</g>
</g>
<!-- Node4 -->
<g id="Node000004" class="node">
<title>Node4</title>
<g id="a_Node000004"><a xlink:href="../../d2/d1b/classBufferedPrint.xhtml#aeed86ef2ea320cd8ff47ee871663a8ce" target="_top" xlink:title=" ">
<polygon fill="white" stroke="#666666" points="120.5,-204 11.5,-204 11.5,-185 120.5,-185 120.5,-204"/>
<text text-anchor="middle" x="66" y="-192" font-family="Helvetica,sans-Serif" font-size="10.00">BufferedPrint::print</text>
</a>
</g>
</g>
<!-- Node2&#45;&gt;Node4 -->
<g id="edge3_Node000002_Node000004" class="edge">
<title>Node2&#45;&gt;Node4</title>
<g id="a_edge3_Node000002_Node000004"><a xlink:title=" ">
<path fill="none" stroke="#63b8ff" d="M180.42,-169.22C157.69,-174.29 131.42,-180.14 109.89,-184.94"/>
<polygon fill="#63b8ff" stroke="#63b8ff" points="181.25,-172.62 190.25,-167.03 179.73,-165.79 181.25,-172.62"/>
</a>
</g>
</g>
<!-- Node5 -->
<g id="Node000005" class="node">
<title>Node5</title>
<g id="a_Node000005"><a xlink:href="../../d2/d1b/classBufferedPrint.xhtml#ae9472f3acd3f7d3187500e60754963bb" target="_top" xlink:title=" ">
<polygon fill="white" stroke="#666666" points="120.5,-167 11.5,-167 11.5,-148 120.5,-148 120.5,-167"/>
<text text-anchor="middle" x="66" y="-155" font-family="Helvetica,sans-Serif" font-size="10.00">BufferedPrint::print</text>
</a>
</g>
</g>
<!-- Node2&#45;&gt;Node5 -->
<g id="edge4_Node000002_Node000005" class="edge">
<title>Node2&#45;&gt;Node5</title>
<g id="a_edge4_Node000002_Node000005"><a xlink:title=" ">
<path fill="none" stroke="#63b8ff" d="M157.51,-157.5C145.09,-157.5 132.45,-157.5 120.7,-157.5"/>
<polygon fill="#63b8ff" stroke="#63b8ff" points="157.87,-161 167.87,-157.5 157.87,-154 157.87,-161"/>
</a>
</g>
</g>
<!-- Node2&#45;&gt;Node6 -->
<g id="edge5_Node000002_Node000006" class="edge">
<title>Node2&#45;&gt;Node6</title>
<g id="a_edge5_Node000002_Node000006"><a xlink:title=" ">
<path fill="none" stroke="#63b8ff" d="M215.25,-173.89C186.44,-200.49 132.61,-250.16 132,-250.5 125.96,-253.86 119.25,-256.62 112.51,-258.89"/>
<polygon fill="#63b8ff" stroke="#63b8ff" points="217.68,-176.41 222.65,-167.06 212.93,-171.27 217.68,-176.41"/>
</a>
</g>
</g>
<!-- Node7 -->
<g id="Node000007" class="node">
<title>Node7</title>
<g id="a_Node000007"><a xlink:href="../../d2/d1b/classBufferedPrint.xhtml#a93369fc042366488ef40426f9fd3286d" target="_top" xlink:title=" ">
<polygon fill="white" stroke="#666666" points="132,-130 0,-130 0,-111 132,-111 132,-130"/>
<text text-anchor="middle" x="66" y="-118" font-family="Helvetica,sans-Serif" font-size="10.00">BufferedPrint::printField</text>
</a>
</g>
</g>
<!-- Node2&#45;&gt;Node7 -->
<g id="edge6_Node000002_Node000007" class="edge">
<title>Node2&#45;&gt;Node7</title>
<g id="a_edge6_Node000002_Node000007"><a xlink:title=" ">
<path fill="none" stroke="#63b8ff" d="M180.42,-145.78C157.69,-140.71 131.42,-134.86 109.89,-130.06"/>
<polygon fill="#63b8ff" stroke="#63b8ff" points="179.73,-149.21 190.25,-147.97 181.25,-142.38 179.73,-149.21"/>
</a>
</g>
</g>
<!-- Node8 -->
<g id="Node000008" class="node">
<title>Node8</title>
<g id="a_Node000008"><a xlink:href="../../d2/d1b/classBufferedPrint.xhtml#aaeaceb452361377ce73db0041edbcdff" target="_top" xlink:title=" ">
<polygon fill="white" stroke="#666666" points="125,-93 7,-93 7,-74 125,-74 125,-93"/>
<text text-anchor="middle" x="66" y="-81" font-family="Helvetica,sans-Serif" font-size="10.00">BufferedPrint::println</text>
</a>
</g>
</g>
<!-- Node2&#45;&gt;Node8 -->
<g id="edge7_Node000002_Node000008" class="edge">
<title>Node2&#45;&gt;Node8</title>
<g id="a_edge7_Node000002_Node000008"><a xlink:title=" ">
<path fill="none" stroke="#63b8ff" d="M177.33,-144.28C174.1,-142.84 170.96,-141.25 168,-139.5 148.26,-127.81 151.66,-114.33 132,-102.5 125.65,-98.68 118.49,-95.59 111.31,-93.1"/>
<polygon fill="#63b8ff" stroke="#63b8ff" points="176.06,-147.54 186.64,-147.94 178.62,-141.02 176.06,-147.54"/>
</a>
</g>
</g>
<!-- Node9 -->
<g id="Node000009" class="node">
<title>Node9</title>
<g id="a_Node000009"><a xlink:href="../../d2/d1b/classBufferedPrint.xhtml#afc449966c5c7357fde925c6888669698" target="_top" xlink:title=" ">
<polygon fill="white" stroke="#666666" points="125,-56 7,-56 7,-37 125,-37 125,-56"/>
<text text-anchor="middle" x="66" y="-44" font-family="Helvetica,sans-Serif" font-size="10.00">BufferedPrint::println</text>
</a>
</g>
</g>
<!-- Node2&#45;&gt;Node9 -->
<g id="edge8_Node000002_Node000009" class="edge">
<title>Node2&#45;&gt;Node9</title>
<g id="a_edge8_Node000002_Node000009"><a xlink:title=" ">
<path fill="none" stroke="#63b8ff" d="M172.9,-143.11C171.19,-141.99 169.55,-140.79 168,-139.5 139.89,-116.1 159.95,-89.1 132,-65.5 127.42,-61.63 122.08,-58.55 116.48,-56.1"/>
<polygon fill="#63b8ff" stroke="#63b8ff" points="171.44,-146.3 181.9,-147.99 174.78,-140.14 171.44,-146.3"/>
</a>
</g>
</g>
<!-- Node10 -->
<g id="Node000010" class="node">
<title>Node10</title>
<g id="a_Node000010"><a xlink:href="../../d2/d1b/classBufferedPrint.xhtml#a0945ed373bd17a309bb6661faad3be9c" target="_top" xlink:title=" ">
<polygon fill="white" stroke="#666666" points="125,-19 7,-19 7,0 125,0 125,-19"/>
<text text-anchor="middle" x="66" y="-7" font-family="Helvetica,sans-Serif" font-size="10.00">BufferedPrint::println</text>
</a>
</g>
</g>
<!-- Node2&#45;&gt;Node10 -->
<g id="edge9_Node000002_Node000010" class="edge">
<title>Node2&#45;&gt;Node10</title>
<g id="a_edge9_Node000002_Node000010"><a xlink:title=" ">
<path fill="none" stroke="#63b8ff" d="M171.49,-142.51C170.27,-141.57 169.11,-140.56 168,-139.5 130.28,-103.29 169.72,-63.71 132,-27.5 128.45,-24.09 124.32,-21.32 119.89,-19.07"/>
<polygon fill="#63b8ff" stroke="#63b8ff" points="169.78,-145.57 180.11,-147.93 173.51,-139.65 169.78,-145.57"/>
</a>
</g>
</g>
</g>
</svg>
</svg>

<style type='text/css'>
<![CDATA[
[data-mouse-over-selected='false'] { opacity: 0.7; }
[data-mouse-over-selected='true']  { opacity: 1.0; }
]]>
</style>
<script type="application/ecmascript"><![CDATA[
document.addEventListener('DOMContentLoaded', (event) => {
  highlightEdges();
  highlightAdjacentNodes();
});
]]></script>
</svg>
