<?xml version="1.0" encoding="UTF-8" standalone="no"?>
<!DOCTYPE svg PUBLIC "-//W3C//DTD SVG 1.1//EN"
 "http://www.w3.org/Graphics/SVG/1.1/DTD/svg11.dtd">
<!-- Generated by graphviz version 2.43.0 (0)
 -->
<!-- Title: bme.hpp Pages: 1 -->
<!--zoomable 412 -->

<svg id="main" version="1.1" xmlns="http://www.w3.org/2000/svg" xmlns:xlink="http://www.w3.org/1999/xlink" xml:space="preserve" onload="init(evt)">
<style type="text/css"><![CDATA[
.node, .edge {opacity: 0.7;}
.node.selected, .edge.selected {opacity: 1;}
.edge:hover path { stroke: red; }
.edge:hover polygon { stroke: red; fill: red; }
]]></style>

<defs>
  <circle id="rim" cx="0" cy="0" r="7"/>
  <circle id="rim2" cx="0" cy="0" r="3.5"/>
  <g id="zoomPlus">
    <use xlink:href="#rim" fill="#404040"><set attributeName="fill" to="#808080" begin="zoomplus.mouseover" end="zoomplus.mouseout"/></use>
    <path d="M-4,0h8M0,-4v8" fill="none" stroke="white" stroke-width="1.5" pointer-events="none"/>
  </g>
  <g id="zoomMin">
    <use xlink:href="#rim" fill="#404040"><set attributeName="fill" to="#808080" begin="zoomminus.mouseover" end="zoomminus.mouseout"/></use>
    <path d="M-4,0h8" fill="none" stroke="white" stroke-width="1.5" pointer-events="none"/>
  </g>
  <g id="arrowUp" transform="translate(30 24)">
    <use xlink:href="#rim"/>
    <path pointer-events="none" fill="none" stroke="white" stroke-width="1.5" d="M0,-3.0v7 M-2.5,-0.5L0,-3.0L2.5,-0.5"/>
  </g>
  <g id="arrowRight" transform="rotate(90) translate(36 -43)">
    <use xlink:href="#rim"/>
    <path pointer-events="none" fill="none" stroke="white" stroke-width="1.5" d="M0,-3.0v7 M-2.5,-0.5L0,-3.0L2.5,-0.5"/>
  </g>
  <g id="arrowDown" transform="rotate(180) translate(-30 -48)">
    <use xlink:href="#rim"/>
    <path pointer-events="none" fill="none" stroke="white" stroke-width="1.5" d="M0,-3.0v7 M-2.5,-0.5L0,-3.0L2.5,-0.5"/>
  </g>
  <g id="arrowLeft" transform="rotate(270) translate(-36 17)">
    <use xlink:href="#rim"/>
    <path pointer-events="none" fill="none" stroke="white" stroke-width="1.5" d="M0,-3.0v7 M-2.5,-0.5L0,-3.0L2.5,-0.5"/>
  </g>
  <g id="resetDef">
    <use xlink:href="#rim2" fill="#404040"><set attributeName="fill" to="#808080" begin="reset.mouseover" end="reset.mouseout"/></use>
  </g>
</defs>
<script type="application/ecmascript">
var viewWidth = 1443;
var viewHeight = 412;
var sectionId = 'dynsection-1';
</script>
<script type="application/ecmascript" xlink:href="../../svg.min.js"/>
<svg id="graph" class="graph">
<g id="viewport">
<title>bme.hpp</title>
<!-- Node1 -->
<g id="Node000001" class="node">
<title>Node1</title>
<g id="a_Node000001"><a xlink:title=" ">
<polygon fill="#999999" stroke="#666666" points="842,-404 783,-404 783,-385 842,-385 842,-404"/>
<text text-anchor="middle" x="812.5" y="-392" font-family="Helvetica,sans-Serif" font-size="10.00">bme.hpp</text>
</a>
</g>
</g>
<!-- Node2 -->
<g id="Node000002" class="node">
<title>Node2</title>
<g id="a_Node000002"><a xlink:href="../../d4/d82/bme_8cpp.xhtml" target="_top" xlink:title=" ">
<polygon fill="white" stroke="#666666" points="59,-349 0,-349 0,-330 59,-330 59,-349"/>
<text text-anchor="middle" x="29.5" y="-337" font-family="Helvetica,sans-Serif" font-size="10.00">bme.cpp</text>
</a>
</g>
</g>
<!-- Node1&#45;&gt;Node2 -->
<g id="edge1_Node000001_Node000002" class="edge">
<title>Node1&#45;&gt;Node2</title>
<g id="a_edge1_Node000001_Node000002"><a xlink:title=" ">
<path fill="none" stroke="#63b8ff" d="M772.73,-392.93C661.69,-390.95 339.1,-382.51 73.5,-349 68.87,-348.42 63.99,-347.64 59.24,-346.79"/>
<polygon fill="#63b8ff" stroke="#63b8ff" points="772.74,-396.43 782.8,-393.1 772.86,-389.43 772.74,-396.43"/>
</a>
</g>
</g>
<!-- Node3 -->
<g id="Node000003" class="node">
<title>Node3</title>
<g id="a_Node000003"><a xlink:href="../../de/d1e/humidity_8hpp.xhtml" target="_top" xlink:title=" ">
<polygon fill="white" stroke="#666666" points="852.5,-349 772.5,-349 772.5,-330 852.5,-330 852.5,-349"/>
<text text-anchor="middle" x="812.5" y="-337" font-family="Helvetica,sans-Serif" font-size="10.00">humidity.hpp</text>
</a>
</g>
</g>
<!-- Node1&#45;&gt;Node3 -->
<g id="edge2_Node000001_Node000003" class="edge">
<title>Node1&#45;&gt;Node3</title>
<g id="a_edge2_Node000001_Node000003"><a xlink:title=" ">
<path fill="none" stroke="#63b8ff" d="M812.5,-374.66C812.5,-365.93 812.5,-355.99 812.5,-349.09"/>
<polygon fill="#63b8ff" stroke="#63b8ff" points="809,-374.75 812.5,-384.75 816,-374.75 809,-374.75"/>
</a>
</g>
</g>
<!-- Node35 -->
<g id="Node000035" class="node">
<title>Node35</title>
<g id="a_Node000035"><a xlink:href="../../d5/ddb/pressure_8hpp.xhtml" target="_top" xlink:title=" ">
<polygon fill="white" stroke="#666666" points="1308.5,-239 1228.5,-239 1228.5,-220 1308.5,-220 1308.5,-239"/>
<text text-anchor="middle" x="1268.5" y="-227" font-family="Helvetica,sans-Serif" font-size="10.00">pressure.hpp</text>
</a>
</g>
</g>
<!-- Node1&#45;&gt;Node35 -->
<g id="edge59_Node000001_Node000035" class="edge">
<title>Node1&#45;&gt;Node35</title>
<g id="a_edge59_Node000001_Node000035"><a xlink:title=" ">
<path fill="none" stroke="#63b8ff" d="M845.83,-381.59C933.45,-350.26 1168.75,-266.16 1244.59,-239.05"/>
<polygon fill="#63b8ff" stroke="#63b8ff" points="844.61,-378.3 836.37,-384.97 846.97,-384.9 844.61,-378.3"/>
</a>
</g>
</g>
<!-- Node37 -->
<g id="Node000037" class="node">
<title>Node37</title>
<g id="a_Node000037"><a xlink:href="../../dc/d32/temperature_8hpp.xhtml" target="_top" xlink:title=" ">
<polygon fill="white" stroke="#666666" points="1424.5,-239 1326.5,-239 1326.5,-220 1424.5,-220 1424.5,-239"/>
<text text-anchor="middle" x="1375.5" y="-227" font-family="Helvetica,sans-Serif" font-size="10.00">temperature.hpp</text>
</a>
</g>
</g>
<!-- Node1&#45;&gt;Node37 -->
<g id="edge60_Node000001_Node000037" class="edge">
<title>Node1&#45;&gt;Node37</title>
<g id="a_edge60_Node000001_Node000037"><a xlink:title=" ">
<path fill="none" stroke="#63b8ff" d="M852.17,-383.2C885.86,-374.37 935.44,-361.19 978.5,-349 1117.6,-309.6 1283.01,-259.02 1347.66,-239.1"/>
<polygon fill="#63b8ff" stroke="#63b8ff" points="851.05,-379.88 842.26,-385.79 852.82,-386.65 851.05,-379.88"/>
</a>
</g>
</g>
<!-- Node4 -->
<g id="Node000004" class="node">
<title>Node4</title>
<g id="a_Node000004"><a xlink:href="../../dd/d8e/humidity_8cpp.xhtml" target="_top" xlink:title=" ">
<polygon fill="white" stroke="#666666" points="941,-294 862,-294 862,-275 941,-275 941,-294"/>
<text text-anchor="middle" x="901.5" y="-282" font-family="Helvetica,sans-Serif" font-size="10.00">humidity.cpp</text>
</a>
</g>
</g>
<!-- Node3&#45;&gt;Node4 -->
<g id="edge3_Node000003_Node000004" class="edge">
<title>Node3&#45;&gt;Node4</title>
<g id="a_edge3_Node000003_Node000004"><a xlink:title=" ">
<path fill="none" stroke="#63b8ff" d="M835.68,-324.7C851.89,-315.04 873.05,-302.44 886.94,-294.17"/>
<polygon fill="#63b8ff" stroke="#63b8ff" points="833.6,-321.86 826.8,-329.98 837.18,-327.88 833.6,-321.86"/>
</a>
</g>
</g>
<!-- Node5 -->
<g id="Node000005" class="node">
<title>Node5</title>
<g id="a_Node000005"><a xlink:href="../../d0/d00/main_8hpp.xhtml" target="_top" xlink:title=" ">
<polygon fill="white" stroke="#666666" points="843.5,-294 781.5,-294 781.5,-275 843.5,-275 843.5,-294"/>
<text text-anchor="middle" x="812.5" y="-282" font-family="Helvetica,sans-Serif" font-size="10.00">main.hpp</text>
</a>
</g>
</g>
<!-- Node3&#45;&gt;Node5 -->
<g id="edge4_Node000003_Node000005" class="edge">
<title>Node3&#45;&gt;Node5</title>
<g id="a_edge4_Node000003_Node000005"><a xlink:title=" ">
<path fill="none" stroke="#63b8ff" d="M806.01,-319.66C805.41,-310.93 805.86,-300.99 807.37,-294.09"/>
<polygon fill="#63b8ff" stroke="#63b8ff" points="802.56,-320.29 807.33,-329.75 809.5,-319.38 802.56,-320.29"/>
</a>
</g>
</g>
<!-- Node5&#45;&gt;Node3 -->
<g id="edge26_Node000005_Node000003" class="edge">
<title>Node5&#45;&gt;Node3</title>
<g id="a_edge26_Node000005_Node000003"><a xlink:title=" ">
<path fill="none" stroke="#63b8ff" d="M818.98,-304.13C819.6,-312.85 819.16,-322.8 817.67,-329.75"/>
<polygon fill="#63b8ff" stroke="#63b8ff" points="822.43,-303.53 817.63,-294.09 815.49,-304.47 822.43,-303.53"/>
</a>
</g>
</g>
<!-- Node6 -->
<g id="Node000006" class="node">
<title>Node6</title>
<g id="a_Node000006"><a xlink:href="../../db/d0c/acquisition_8hpp.xhtml" target="_top" xlink:title=" ">
<polygon fill="white" stroke="#666666" points="1098,-239 1007,-239 1007,-220 1098,-220 1098,-239"/>
<text text-anchor="middle" x="1052.5" y="-227" font-family="Helvetica,sans-Serif" font-size="10.00">acquisition.hpp</text>
</a>
</g>
</g>
<!-- Node5&#45;&gt;Node6 -->
<g id="edge5_Node000005_Node000006" class="edge">
<title>Node5&#45;&gt;Node6</title>
<g id="a_edge5_Node000005_Node000006"><a xlink:title=" ">
<path fill="none" stroke="#63b8ff" d="M853.88,-274.36C898.86,-264.43 970.15,-248.69 1013.97,-239.01"/>
<polygon fill="#63b8ff" stroke="#63b8ff" points="852.89,-271 843.88,-276.57 854.4,-277.83 852.89,-271"/>
</a>
</g>
</g>
<!-- Node8 -->
<g id="Node000008" class="node">
<title>Node8</title>
<g id="a_Node000008"><a xlink:href="../../d8/dc9/maintenance_8hpp.xhtml" target="_top" xlink:title=" ">
<polygon fill="white" stroke="#666666" points="1170,-129 1069,-129 1069,-110 1170,-110 1170,-129"/>
<text text-anchor="middle" x="1119.5" y="-117" font-family="Helvetica,sans-Serif" font-size="10.00">maintenance.hpp</text>
</a>
</g>
</g>
<!-- Node5&#45;&gt;Node8 -->
<g id="edge39_Node000005_Node000008" class="edge">
<title>Node5&#45;&gt;Node8</title>
<g id="a_edge39_Node000005_Node000008"><a xlink:title=" ">
<path fill="none" stroke="#63b8ff" d="M853.23,-273.64C916.58,-266.53 1060,-277.7 1097.5,-239 1127.02,-208.53 1117.6,-150.87 1117.29,-129.11"/>
<polygon fill="#63b8ff" stroke="#63b8ff" points="852.49,-270.21 843.08,-275.07 853.47,-277.14 852.49,-270.21"/>
</a>
</g>
</g>
<!-- Node10 -->
<g id="Node000010" class="node">
<title>Node10</title>
<g id="a_Node000010"><a xlink:href="../../d5/d98/sd_8hpp.xhtml" target="_top" xlink:title=" ">
<polygon fill="white" stroke="#666666" points="1222,-184 1173,-184 1173,-165 1222,-165 1222,-184"/>
<text text-anchor="middle" x="1197.5" y="-172" font-family="Helvetica,sans-Serif" font-size="10.00">sd.hpp</text>
</a>
</g>
</g>
<!-- Node5&#45;&gt;Node10 -->
<g id="edge53_Node000005_Node000010" class="edge">
<title>Node5&#45;&gt;Node10</title>
<g id="a_edge53_Node000005_Node000010"><a xlink:title=" ">
<path fill="none" stroke="#63b8ff" d="M853.36,-273.64C927.73,-264.89 1094.51,-274.14 1149.5,-239 1169.78,-226.04 1181.18,-198.39 1189.35,-184.24"/>
<polygon fill="#63b8ff" stroke="#63b8ff" points="852.5,-270.23 843.08,-275.07 853.47,-277.16 852.5,-270.23"/>
</a>
</g>
</g>
<!-- Node12 -->
<g id="Node000012" class="node">
<title>Node12</title>
<g id="a_Node000012"><a xlink:href="../../df/d04/standard_8hpp.xhtml" target="_top" xlink:title=" ">
<polygon fill="white" stroke="#666666" points="435.5,-74 355.5,-74 355.5,-55 435.5,-55 435.5,-74"/>
<text text-anchor="middle" x="395.5" y="-62" font-family="Helvetica,sans-Serif" font-size="10.00">standard.hpp</text>
</a>
</g>
</g>
<!-- Node5&#45;&gt;Node12 -->
<g id="edge55_Node000005_Node000012" class="edge">
<title>Node5&#45;&gt;Node12</title>
<g id="a_edge55_Node000005_Node000012"><a xlink:title=" ">
<path fill="none" stroke="#63b8ff" d="M770.98,-282.09C689.49,-278.59 512.65,-267.6 460.5,-239 398.48,-204.99 388.44,-104.85 392.22,-74.39"/>
<polygon fill="#63b8ff" stroke="#63b8ff" points="771.22,-285.6 781.36,-282.52 771.51,-278.61 771.22,-285.6"/>
</a>
</g>
</g>
<!-- Node14 -->
<g id="Node000014" class="node">
<title>Node14</title>
<g id="a_Node000014"><a xlink:href="../../de/d53/brightness_8hpp.xhtml" target="_top" xlink:title=" ">
<polygon fill="white" stroke="#666666" points="690,-239 601,-239 601,-220 690,-220 690,-239"/>
<text text-anchor="middle" x="645.5" y="-227" font-family="Helvetica,sans-Serif" font-size="10.00">brightness.hpp</text>
</a>
</g>
</g>
<!-- Node5&#45;&gt;Node14 -->
<g id="edge17_Node000005_Node000014" class="edge">
<title>Node5&#45;&gt;Node14</title>
<g id="a_edge17_Node000005_Node000014"><a xlink:title=" ">
<path fill="none" stroke="#63b8ff" d="M771.55,-272.29C738.65,-262.37 693.87,-248.11 667.39,-239.07"/>
<polygon fill="#63b8ff" stroke="#63b8ff" points="770.76,-275.71 781.34,-275.22 772.77,-269 770.76,-275.71"/>
</a>
</g>
</g>
<!-- Node16 -->
<g id="Node000016" class="node">
<title>Node16</title>
<g id="a_Node000016"><a xlink:href="../../dc/d0a/configuration_8hpp.xhtml" target="_top" xlink:title=" ">
<polygon fill="white" stroke="#666666" points="809,-239 708,-239 708,-220 809,-220 809,-239"/>
<text text-anchor="middle" x="758.5" y="-227" font-family="Helvetica,sans-Serif" font-size="10.00">configuration.hpp</text>
</a>
</g>
</g>
<!-- Node5&#45;&gt;Node16 -->
<g id="edge20_Node000005_Node000016" class="edge">
<title>Node5&#45;&gt;Node16</title>
<g id="a_edge20_Node000005_Node000016"><a xlink:title=" ">
<path fill="none" stroke="#63b8ff" d="M790.87,-268.32C780.21,-258.87 768.51,-247.06 762.19,-239.17"/>
<polygon fill="#63b8ff" stroke="#63b8ff" points="788.82,-271.18 798.71,-274.98 793.35,-265.84 788.82,-271.18"/>
</a>
</g>
</g>
<!-- Node18 -->
<g id="Node000018" class="node">
<title>Node18</title>
<g id="a_Node000018"><a xlink:href="../../d0/d42/economy_8hpp.xhtml" target="_top" xlink:title=" ">
<polygon fill="white" stroke="#666666" points="908,-239 827,-239 827,-220 908,-220 908,-239"/>
<text text-anchor="middle" x="867.5" y="-227" font-family="Helvetica,sans-Serif" font-size="10.00">economy.hpp</text>
</a>
</g>
</g>
<!-- Node5&#45;&gt;Node18 -->
<g id="edge23_Node000005_Node000018" class="edge">
<title>Node5&#45;&gt;Node18</title>
<g id="a_edge23_Node000005_Node000018"><a xlink:title=" ">
<path fill="none" stroke="#63b8ff" d="M823.09,-267.24C831.84,-257.95 843.92,-246.68 853.46,-239.09"/>
<polygon fill="#63b8ff" stroke="#63b8ff" points="820.45,-264.95 816.42,-274.75 825.68,-269.6 820.45,-264.95"/>
</a>
</g>
</g>
<!-- Node20 -->
<g id="Node000020" class="node">
<title>Node20</title>
<g id="a_Node000020"><a xlink:href="../../db/d42/interpreter_8hpp.xhtml" target="_top" xlink:title=" ">
<polygon fill="white" stroke="#666666" points="288,-239 199,-239 199,-220 288,-220 288,-239"/>
<text text-anchor="middle" x="243.5" y="-227" font-family="Helvetica,sans-Serif" font-size="10.00">interpreter.hpp</text>
</a>
</g>
</g>
<!-- Node5&#45;&gt;Node20 -->
<g id="edge27_Node000005_Node000020" class="edge">
<title>Node5&#45;&gt;Node20</title>
<g id="a_edge27_Node000005_Node000020"><a xlink:title=" ">
<path fill="none" stroke="#63b8ff" d="M771.3,-279.91C687.38,-272.55 490.61,-255.1 325.5,-239 313.39,-237.82 300.28,-236.49 288.18,-235.23"/>
<polygon fill="#63b8ff" stroke="#63b8ff" points="771.17,-283.41 781.44,-280.79 771.78,-276.43 771.17,-283.41"/>
</a>
</g>
</g>
<!-- Node22 -->
<g id="Node000022" class="node">
<title>Node22</title>
<g id="a_Node000022"><a xlink:href="../../d1/dc5/serial_8hpp.xhtml" target="_top" xlink:title=" ">
<polygon fill="white" stroke="#666666" points="181,-184 116,-184 116,-165 181,-165 181,-184"/>
<text text-anchor="middle" x="148.5" y="-172" font-family="Helvetica,sans-Serif" font-size="10.00">serial.hpp</text>
</a>
</g>
</g>
<!-- Node5&#45;&gt;Node22 -->
<g id="edge54_Node000005_Node000022" class="edge">
<title>Node5&#45;&gt;Node22</title>
<g id="a_edge54_Node000005_Node000022"><a xlink:title=" ">
<path fill="none" stroke="#63b8ff" d="M771.2,-282.67C640.15,-279.76 239.36,-268.51 189.5,-239 168.49,-226.57 156.37,-198.68 151.31,-184.36"/>
<polygon fill="#63b8ff" stroke="#63b8ff" points="771.17,-286.17 781.24,-282.89 771.32,-279.18 771.17,-286.17"/>
</a>
</g>
</g>
<!-- Node28 -->
<g id="Node000028" class="node">
<title>Node28</title>
<g id="a_Node000028"><a xlink:href="../../de/dfb/src_2main_8cpp.xhtml" target="_top" xlink:title=" ">
<polygon fill="white" stroke="#666666" points="988.5,-239 926.5,-239 926.5,-220 988.5,-220 988.5,-239"/>
<text text-anchor="middle" x="957.5" y="-227" font-family="Helvetica,sans-Serif" font-size="10.00">main.cpp</text>
</a>
</g>
</g>
<!-- Node5&#45;&gt;Node28 -->
<g id="edge38_Node000005_Node000028" class="edge">
<title>Node5&#45;&gt;Node28</title>
<g id="a_edge38_Node000005_Node000028"><a xlink:title=" ">
<path fill="none" stroke="#63b8ff" d="M845.19,-271.55C872.12,-261.71 909.66,-247.98 933.78,-239.17"/>
<polygon fill="#63b8ff" stroke="#63b8ff" points="843.99,-268.26 835.8,-274.98 846.39,-274.84 843.99,-268.26"/>
</a>
</g>
</g>
<!-- Node29 -->
<g id="Node000029" class="node">
<title>Node29</title>
<g id="a_Node000029"><a xlink:href="../../d1/dfa/mode_8hpp.xhtml" target="_top" xlink:title=" ">
<polygon fill="white" stroke="#666666" points="544,-239 479,-239 479,-220 544,-220 544,-239"/>
<text text-anchor="middle" x="511.5" y="-227" font-family="Helvetica,sans-Serif" font-size="10.00">mode.hpp</text>
</a>
</g>
</g>
<!-- Node5&#45;&gt;Node29 -->
<g id="edge40_Node000005_Node000029" class="edge">
<title>Node5&#45;&gt;Node29</title>
<g id="a_edge40_Node000005_Node000029"><a xlink:title=" ">
<path fill="none" stroke="#63b8ff" d="M770.97,-277.34C718.88,-268.81 627.43,-252.87 549.5,-239 547.7,-238.68 545.87,-238.35 544.02,-238.02"/>
<polygon fill="#63b8ff" stroke="#63b8ff" points="770.72,-280.85 781.15,-279 771.84,-273.94 770.72,-280.85"/>
</a>
</g>
</g>
<!-- Node5&#45;&gt;Node35 -->
<g id="edge50_Node000005_Node000035" class="edge">
<title>Node5&#45;&gt;Node35</title>
<g id="a_edge50_Node000005_Node000035"><a xlink:title=" ">
<path fill="none" stroke="#63b8ff" d="M853.24,-273.51C1005.12,-250.55 1048.58,-259.14 1205.5,-239 1212.84,-238.06 1220.72,-236.9 1228.39,-235.75"/>
<polygon fill="#63b8ff" stroke="#63b8ff" points="852.43,-270.09 843.08,-275.07 853.49,-277.01 852.43,-270.09"/>
</a>
</g>
</g>
<!-- Node5&#45;&gt;Node37 -->
<g id="edge56_Node000005_Node000037" class="edge">
<title>Node5&#45;&gt;Node37</title>
<g id="a_edge56_Node000005_Node000037"><a xlink:title=" ">
<path fill="none" stroke="#63b8ff" d="M853.19,-273.62C1050.49,-245.93 1105.92,-261.66 1308.5,-239 1314.26,-238.36 1320.34,-237.58 1326.4,-236.75"/>
<polygon fill="#63b8ff" stroke="#63b8ff" points="852.48,-270.19 843.08,-275.06 853.47,-277.12 852.48,-270.19"/>
</a>
</g>
</g>
<!-- Node7 -->
<g id="Node000007" class="node">
<title>Node7</title>
<g id="a_Node000007"><a xlink:href="../../d6/d30/acquisition_8cpp.xhtml" target="_top" xlink:title=" ">
<polygon fill="white" stroke="#666666" points="1060.5,-184 970.5,-184 970.5,-165 1060.5,-165 1060.5,-184"/>
<text text-anchor="middle" x="1015.5" y="-172" font-family="Helvetica,sans-Serif" font-size="10.00">acquisition.cpp</text>
</a>
</g>
</g>
<!-- Node6&#45;&gt;Node7 -->
<g id="edge6_Node000006_Node000007" class="edge">
<title>Node6&#45;&gt;Node7</title>
<g id="a_edge6_Node000006_Node000007"><a xlink:title=" ">
<path fill="none" stroke="#63b8ff" d="M1040.55,-211.39C1034.19,-202.27 1026.63,-191.45 1021.5,-184.09"/>
<polygon fill="#63b8ff" stroke="#63b8ff" points="1037.8,-213.55 1046.39,-219.75 1043.54,-209.55 1037.8,-213.55"/>
</a>
</g>
</g>
<!-- Node6&#45;&gt;Node8 -->
<g id="edge7_Node000006_Node000008" class="edge">
<title>Node6&#45;&gt;Node8</title>
<g id="a_edge7_Node000006_Node000008"><a xlink:title=" ">
<path fill="none" stroke="#63b8ff" d="M1063.31,-211.07C1077.85,-187.64 1103.13,-146.89 1114.13,-129.16"/>
<polygon fill="#63b8ff" stroke="#63b8ff" points="1060.28,-209.32 1057.98,-219.66 1066.23,-213.01 1060.28,-209.32"/>
</a>
</g>
</g>
<!-- Node6&#45;&gt;Node10 -->
<g id="edge10_Node000006_Node000010" class="edge">
<title>Node6&#45;&gt;Node10</title>
<g id="a_edge10_Node000006_Node000010"><a xlink:title=" ">
<path fill="none" stroke="#63b8ff" d="M1085.19,-216.55C1112.12,-206.71 1149.66,-192.98 1173.78,-184.17"/>
<polygon fill="#63b8ff" stroke="#63b8ff" points="1083.99,-213.26 1075.8,-219.98 1086.39,-219.84 1083.99,-213.26"/>
</a>
</g>
</g>
<!-- Node6&#45;&gt;Node12 -->
<g id="edge14_Node000006_Node000012" class="edge">
<title>Node6&#45;&gt;Node12</title>
<g id="a_edge14_Node000006_Node000012"><a xlink:title=" ">
<path fill="none" stroke="#63b8ff" d="M1025.33,-215.29C1007.23,-206.47 982.91,-194.59 961.5,-184 944.57,-175.63 941.39,-171.03 923.5,-165 747.15,-105.59 525,-78.35 435.53,-69.22"/>
<polygon fill="#63b8ff" stroke="#63b8ff" points="1024.17,-218.62 1034.69,-219.85 1027.23,-212.32 1024.17,-218.62"/>
</a>
</g>
</g>
<!-- Node8&#45;&gt;Node5 -->
<g id="edge8_Node000008_Node000005" class="edge">
<title>Node8&#45;&gt;Node5</title>
<g id="a_edge8_Node000008_Node000005"><a xlink:title=" ">
<path fill="none" stroke="#63b8ff" d="M1129.55,-138.83C1137.35,-164.86 1141.33,-212.34 1115.5,-239 1075.83,-279.94 917.64,-265.07 861.5,-275 855.77,-276.01 849.6,-277.25 843.58,-278.46"/>
<polygon fill="#63b8ff" stroke="#63b8ff" points="1132.73,-137.33 1126.05,-129.11 1126.15,-139.7 1132.73,-137.33"/>
</a>
</g>
</g>
<!-- Node9 -->
<g id="Node000009" class="node">
<title>Node9</title>
<g id="a_Node000009"><a xlink:href="../../d6/d46/maintenance_8cpp.xhtml" target="_top" xlink:title=" ">
<polygon fill="white" stroke="#666666" points="1170,-74 1069,-74 1069,-55 1170,-55 1170,-74"/>
<text text-anchor="middle" x="1119.5" y="-62" font-family="Helvetica,sans-Serif" font-size="10.00">maintenance.cpp</text>
</a>
</g>
</g>
<!-- Node8&#45;&gt;Node9 -->
<g id="edge9_Node000008_Node000009" class="edge">
<title>Node8&#45;&gt;Node9</title>
<g id="a_edge9_Node000008_Node000009"><a xlink:title=" ">
<path fill="none" stroke="#63b8ff" d="M1119.5,-99.66C1119.5,-90.93 1119.5,-80.99 1119.5,-74.09"/>
<polygon fill="#63b8ff" stroke="#63b8ff" points="1116,-99.75 1119.5,-109.75 1123,-99.75 1116,-99.75"/>
</a>
</g>
</g>
<!-- Node10&#45;&gt;Node5 -->
<g id="edge11_Node000010_Node000005" class="edge">
<title>Node10&#45;&gt;Node5</title>
<g id="a_edge11_Node000010_Node000005"><a xlink:title=" ">
<path fill="none" stroke="#63b8ff" d="M1198.43,-194.3C1194.18,-209.02 1183.66,-228.68 1167.5,-239 1109.8,-275.87 929.06,-263.87 861.5,-275 855.76,-275.95 849.59,-277.16 843.56,-278.37"/>
<polygon fill="#63b8ff" stroke="#63b8ff" points="1201.91,-194.73 1200.44,-184.24 1195.05,-193.36 1201.91,-194.73"/>
</a>
</g>
</g>
<!-- Node10&#45;&gt;Node8 -->
<g id="edge12_Node000010_Node000008" class="edge">
<title>Node10&#45;&gt;Node8</title>
<g id="a_edge12_Node000010_Node000008"><a xlink:title=" ">
<path fill="none" stroke="#63b8ff" d="M1176.38,-159.15C1162.29,-149.57 1144.21,-137.29 1132.26,-129.17"/>
<polygon fill="#63b8ff" stroke="#63b8ff" points="1174.73,-162.26 1184.97,-164.98 1178.66,-156.47 1174.73,-162.26"/>
</a>
</g>
</g>
<!-- Node11 -->
<g id="Node000011" class="node">
<title>Node11</title>
<g id="a_Node000011"><a xlink:href="../../d0/ded/sd_8cpp.xhtml" target="_top" xlink:title=" ">
<polygon fill="white" stroke="#666666" points="1236.5,-129 1188.5,-129 1188.5,-110 1236.5,-110 1236.5,-129"/>
<text text-anchor="middle" x="1212.5" y="-117" font-family="Helvetica,sans-Serif" font-size="10.00">sd.cpp</text>
</a>
</g>
</g>
<!-- Node10&#45;&gt;Node11 -->
<g id="edge13_Node000010_Node000011" class="edge">
<title>Node10&#45;&gt;Node11</title>
<g id="a_edge13_Node000010_Node000011"><a xlink:title=" ">
<path fill="none" stroke="#63b8ff" d="M1202.75,-154.95C1205.24,-146.15 1208.1,-136.06 1210.07,-129.09"/>
<polygon fill="#63b8ff" stroke="#63b8ff" points="1199.33,-154.17 1199.98,-164.75 1206.07,-156.08 1199.33,-154.17"/>
</a>
</g>
</g>
<!-- Node12&#45;&gt;Node5 -->
<g id="edge15_Node000012_Node000005" class="edge">
<title>Node12&#45;&gt;Node5</title>
<g id="a_edge15_Node000012_Node000005"><a xlink:title=" ">
<path fill="none" stroke="#63b8ff" d="M401.41,-84.19C408.66,-122.31 422.05,-208.04 478.5,-239 530.82,-267.69 708.64,-278.66 781.35,-282.12"/>
<polygon fill="#63b8ff" stroke="#63b8ff" points="404.84,-83.49 399.41,-74.39 397.98,-84.89 404.84,-83.49"/>
</a>
</g>
</g>
<!-- Node13 -->
<g id="Node000013" class="node">
<title>Node13</title>
<g id="a_Node000013"><a xlink:href="../../df/d92/standard_8cpp.xhtml" target="_top" xlink:title=" ">
<polygon fill="white" stroke="#666666" points="435.5,-19 355.5,-19 355.5,0 435.5,0 435.5,-19"/>
<text text-anchor="middle" x="395.5" y="-7" font-family="Helvetica,sans-Serif" font-size="10.00">standard.cpp</text>
</a>
</g>
</g>
<!-- Node12&#45;&gt;Node13 -->
<g id="edge16_Node000012_Node000013" class="edge">
<title>Node12&#45;&gt;Node13</title>
<g id="a_edge16_Node000012_Node000013"><a xlink:title=" ">
<path fill="none" stroke="#63b8ff" d="M395.5,-44.66C395.5,-35.93 395.5,-25.99 395.5,-19.09"/>
<polygon fill="#63b8ff" stroke="#63b8ff" points="392,-44.75 395.5,-54.75 399,-44.75 392,-44.75"/>
</a>
</g>
</g>
<!-- Node14&#45;&gt;Node5 -->
<g id="edge19_Node000014_Node000005" class="edge">
<title>Node14&#45;&gt;Node5</title>
<g id="a_edge19_Node000014_Node000005"><a xlink:title=" ">
<path fill="none" stroke="#63b8ff" d="M687.47,-242.02C720.35,-251.94 764.6,-266.05 790.78,-274.98"/>
<polygon fill="#63b8ff" stroke="#63b8ff" points="688.26,-238.6 677.67,-239.08 686.25,-245.3 688.26,-238.6"/>
</a>
</g>
</g>
<!-- Node15 -->
<g id="Node000015" class="node">
<title>Node15</title>
<g id="a_Node000015"><a xlink:href="../../d8/d9d/brightness_8cpp.xhtml" target="_top" xlink:title=" ">
<polygon fill="white" stroke="#666666" points="696.5,-184 608.5,-184 608.5,-165 696.5,-165 696.5,-184"/>
<text text-anchor="middle" x="652.5" y="-172" font-family="Helvetica,sans-Serif" font-size="10.00">brightness.cpp</text>
</a>
</g>
</g>
<!-- Node14&#45;&gt;Node15 -->
<g id="edge18_Node000014_Node000015" class="edge">
<title>Node14&#45;&gt;Node15</title>
<g id="a_edge18_Node000014_Node000015"><a xlink:title=" ">
<path fill="none" stroke="#63b8ff" d="M647.99,-209.66C649.14,-200.93 650.45,-190.99 651.37,-184.09"/>
<polygon fill="#63b8ff" stroke="#63b8ff" points="644.5,-209.38 646.66,-219.75 651.44,-210.29 644.5,-209.38"/>
</a>
</g>
</g>
<!-- Node16&#45;&gt;Node5 -->
<g id="edge22_Node000016_Node000005" class="edge">
<title>Node16&#45;&gt;Node5</title>
<g id="a_edge22_Node000016_Node000005"><a xlink:title=" ">
<path fill="none" stroke="#63b8ff" d="M780.19,-245.73C790.8,-255.14 802.42,-266.88 808.75,-274.75"/>
<polygon fill="#63b8ff" stroke="#63b8ff" points="782.27,-242.9 772.38,-239.09 777.73,-248.23 782.27,-242.9"/>
</a>
</g>
</g>
<!-- Node17 -->
<g id="Node000017" class="node">
<title>Node17</title>
<g id="a_Node000017"><a xlink:href="../../df/d22/configuration_8cpp.xhtml" target="_top" xlink:title=" ">
<polygon fill="white" stroke="#666666" points="816,-184 715,-184 715,-165 816,-165 816,-184"/>
<text text-anchor="middle" x="765.5" y="-172" font-family="Helvetica,sans-Serif" font-size="10.00">configuration.cpp</text>
</a>
</g>
</g>
<!-- Node16&#45;&gt;Node17 -->
<g id="edge21_Node000016_Node000017" class="edge">
<title>Node16&#45;&gt;Node17</title>
<g id="a_edge21_Node000016_Node000017"><a xlink:title=" ">
<path fill="none" stroke="#63b8ff" d="M760.99,-209.66C762.14,-200.93 763.45,-190.99 764.37,-184.09"/>
<polygon fill="#63b8ff" stroke="#63b8ff" points="757.5,-209.38 759.66,-219.75 764.44,-210.29 757.5,-209.38"/>
</a>
</g>
</g>
<!-- Node18&#45;&gt;Node5 -->
<g id="edge25_Node000018_Node000005" class="edge">
<title>Node18&#45;&gt;Node5</title>
<g id="a_edge25_Node000018_Node000005"><a xlink:title=" ">
<path fill="none" stroke="#63b8ff" d="M856.96,-246.71C848.18,-256.04 836.02,-267.38 826.45,-274.98"/>
<polygon fill="#63b8ff" stroke="#63b8ff" points="859.63,-248.97 863.65,-239.17 854.39,-244.32 859.63,-248.97"/>
</a>
</g>
</g>
<!-- Node19 -->
<g id="Node000019" class="node">
<title>Node19</title>
<g id="a_Node000019"><a xlink:href="../../d9/ddd/economy_8cpp.xhtml" target="_top" xlink:title=" ">
<polygon fill="white" stroke="#666666" points="914.5,-184 834.5,-184 834.5,-165 914.5,-165 914.5,-184"/>
<text text-anchor="middle" x="874.5" y="-172" font-family="Helvetica,sans-Serif" font-size="10.00">economy.cpp</text>
</a>
</g>
</g>
<!-- Node18&#45;&gt;Node19 -->
<g id="edge24_Node000018_Node000019" class="edge">
<title>Node18&#45;&gt;Node19</title>
<g id="a_edge24_Node000018_Node000019"><a xlink:title=" ">
<path fill="none" stroke="#63b8ff" d="M869.99,-209.66C871.14,-200.93 872.45,-190.99 873.37,-184.09"/>
<polygon fill="#63b8ff" stroke="#63b8ff" points="866.5,-209.38 868.66,-219.75 873.44,-210.29 866.5,-209.38"/>
</a>
</g>
</g>
<!-- Node21 -->
<g id="Node000021" class="node">
<title>Node21</title>
<g id="a_Node000021"><a xlink:href="../../d2/de2/interpreter_8cpp.xhtml" target="_top" xlink:title=" ">
<polygon fill="white" stroke="#666666" points="287.5,-184 199.5,-184 199.5,-165 287.5,-165 287.5,-184"/>
<text text-anchor="middle" x="243.5" y="-172" font-family="Helvetica,sans-Serif" font-size="10.00">interpreter.cpp</text>
</a>
</g>
</g>
<!-- Node20&#45;&gt;Node21 -->
<g id="edge28_Node000020_Node000021" class="edge">
<title>Node20&#45;&gt;Node21</title>
<g id="a_edge28_Node000020_Node000021"><a xlink:title=" ">
<path fill="none" stroke="#63b8ff" d="M243.5,-209.66C243.5,-200.93 243.5,-190.99 243.5,-184.09"/>
<polygon fill="#63b8ff" stroke="#63b8ff" points="240,-209.75 243.5,-219.75 247,-209.75 240,-209.75"/>
</a>
</g>
</g>
<!-- Node20&#45;&gt;Node22 -->
<g id="edge29_Node000020_Node000022" class="edge">
<title>Node20&#45;&gt;Node22</title>
<g id="a_edge29_Node000020_Node000022"><a xlink:title=" ">
<path fill="none" stroke="#63b8ff" d="M219.24,-214.97C201.87,-205.28 179.01,-192.52 164.04,-184.17"/>
<polygon fill="#63b8ff" stroke="#63b8ff" points="217.8,-218.17 228.24,-219.98 221.21,-212.06 217.8,-218.17"/>
</a>
</g>
</g>
<!-- Node22&#45;&gt;Node8 -->
<g id="edge36_Node000022_Node000008" class="edge">
<title>Node22&#45;&gt;Node8</title>
<g id="a_edge36_Node000022_Node000008"><a xlink:title=" ">
<path fill="none" stroke="#63b8ff" d="M191.48,-165.1C531.67,-123.47 930.14,-120.08 1068.92,-120.23"/>
<polygon fill="#63b8ff" stroke="#63b8ff" points="190.93,-161.64 181.44,-166.34 191.79,-168.59 190.93,-161.64"/>
</a>
</g>
</g>
<!-- Node23 -->
<g id="Node000023" class="node">
<title>Node23</title>
<g id="a_Node000023"><a xlink:href="../../d9/d99/error_8hpp.xhtml" target="_top" xlink:title=" ">
<polygon fill="white" stroke="#666666" points="274.5,-129 214.5,-129 214.5,-110 274.5,-110 274.5,-129"/>
<text text-anchor="middle" x="244.5" y="-117" font-family="Helvetica,sans-Serif" font-size="10.00">error.hpp</text>
</a>
</g>
</g>
<!-- Node22&#45;&gt;Node23 -->
<g id="edge30_Node000022_Node000023" class="edge">
<title>Node22&#45;&gt;Node23</title>
<g id="a_edge30_Node000022_Node000023"><a xlink:title=" ">
<path fill="none" stroke="#63b8ff" d="M173.02,-159.97C190.56,-150.28 213.67,-137.52 228.8,-129.17"/>
<polygon fill="#63b8ff" stroke="#63b8ff" points="170.99,-157.09 163.92,-164.98 174.37,-163.22 170.99,-157.09"/>
</a>
</g>
</g>
<!-- Node27 -->
<g id="Node000027" class="node">
<title>Node27</title>
<g id="a_Node000027"><a xlink:href="../../de/d25/serial_8cpp.xhtml" target="_top" xlink:title=" ">
<polygon fill="white" stroke="#666666" points="180.5,-129 116.5,-129 116.5,-110 180.5,-110 180.5,-129"/>
<text text-anchor="middle" x="148.5" y="-117" font-family="Helvetica,sans-Serif" font-size="10.00">serial.cpp</text>
</a>
</g>
</g>
<!-- Node22&#45;&gt;Node27 -->
<g id="edge37_Node000022_Node000027" class="edge">
<title>Node22&#45;&gt;Node27</title>
<g id="a_edge37_Node000022_Node000027"><a xlink:title=" ">
<path fill="none" stroke="#63b8ff" d="M148.5,-154.66C148.5,-145.93 148.5,-135.99 148.5,-129.09"/>
<polygon fill="#63b8ff" stroke="#63b8ff" points="145,-154.75 148.5,-164.75 152,-154.75 145,-154.75"/>
</a>
</g>
</g>
<!-- Node23&#45;&gt;Node1 -->
<g id="edge31_Node000023_Node000001" class="edge">
<title>Node23&#45;&gt;Node1</title>
<g id="a_edge31_Node000023_Node000001"><a xlink:title=" ">
<path fill="none" stroke="#63b8ff" d="M204.13,-129.13C168.53,-137.5 120.24,-150.96 106.5,-165 85.89,-186.05 87.5,-199.04 87.5,-228.5 87.5,-285.5 87.5,-285.5 87.5,-285.5 87.5,-357 646.3,-386.2 782.73,-392.26"/>
<polygon fill="#63b8ff" stroke="#63b8ff" points="205.29,-132.45 214.26,-126.8 203.73,-125.63 205.29,-132.45"/>
</a>
</g>
</g>
<!-- Node23&#45;&gt;Node12 -->
<g id="edge35_Node000023_Node000012" class="edge">
<title>Node23&#45;&gt;Node12</title>
<g id="a_edge35_Node000023_Node000012"><a xlink:title=" ">
<path fill="none" stroke="#63b8ff" d="M278.55,-106.55C306.59,-96.71 345.68,-82.98 370.8,-74.17"/>
<polygon fill="#63b8ff" stroke="#63b8ff" points="277.04,-103.37 268.76,-109.98 279.36,-109.98 277.04,-103.37"/>
</a>
</g>
</g>
<!-- Node24 -->
<g id="Node000024" class="node">
<title>Node24</title>
<g id="a_Node000024"><a xlink:href="../../dd/db1/error_8cpp.xhtml" target="_top" xlink:title=" ">
<polygon fill="white" stroke="#666666" points="261,-74 202,-74 202,-55 261,-55 261,-74"/>
<text text-anchor="middle" x="231.5" y="-62" font-family="Helvetica,sans-Serif" font-size="10.00">error.cpp</text>
</a>
</g>
</g>
<!-- Node23&#45;&gt;Node24 -->
<g id="edge32_Node000023_Node000024" class="edge">
<title>Node23&#45;&gt;Node24</title>
<g id="a_edge32_Node000023_Node000024"><a xlink:title=" ">
<path fill="none" stroke="#63b8ff" d="M239.95,-99.95C237.79,-91.15 235.32,-81.06 233.61,-74.09"/>
<polygon fill="#63b8ff" stroke="#63b8ff" points="236.57,-100.87 242.35,-109.75 243.37,-99.2 236.57,-100.87"/>
</a>
</g>
</g>
<!-- Node25 -->
<g id="Node000025" class="node">
<title>Node25</title>
<g id="a_Node000025"><a xlink:href="../../db/d45/gps_8hpp.xhtml" target="_top" xlink:title=" ">
<polygon fill="white" stroke="#666666" points="334,-74 279,-74 279,-55 334,-55 334,-74"/>
<text text-anchor="middle" x="306.5" y="-62" font-family="Helvetica,sans-Serif" font-size="10.00">gps.hpp</text>
</a>
</g>
</g>
<!-- Node23&#45;&gt;Node25 -->
<g id="edge33_Node000023_Node000025" class="edge">
<title>Node23&#45;&gt;Node25</title>
<g id="a_edge33_Node000023_Node000025"><a xlink:title=" ">
<path fill="none" stroke="#63b8ff" d="M262.25,-103.32C273.31,-93.87 287.13,-82.06 296.36,-74.17"/>
<polygon fill="#63b8ff" stroke="#63b8ff" points="259.79,-100.83 254.46,-109.98 264.34,-106.15 259.79,-100.83"/>
</a>
</g>
</g>
<!-- Node26 -->
<g id="Node000026" class="node">
<title>Node26</title>
<g id="a_Node000026"><a xlink:href="../../dc/d3d/gps_8cpp.xhtml" target="_top" xlink:title=" ">
<polygon fill="white" stroke="#666666" points="333.5,-19 279.5,-19 279.5,0 333.5,0 333.5,-19"/>
<text text-anchor="middle" x="306.5" y="-7" font-family="Helvetica,sans-Serif" font-size="10.00">gps.cpp</text>
</a>
</g>
</g>
<!-- Node25&#45;&gt;Node26 -->
<g id="edge34_Node000025_Node000026" class="edge">
<title>Node25&#45;&gt;Node26</title>
<g id="a_edge34_Node000025_Node000026"><a xlink:title=" ">
<path fill="none" stroke="#63b8ff" d="M306.5,-44.66C306.5,-35.93 306.5,-25.99 306.5,-19.09"/>
<polygon fill="#63b8ff" stroke="#63b8ff" points="303,-44.75 306.5,-54.75 310,-44.75 303,-44.75"/>
</a>
</g>
</g>
<!-- Node29&#45;&gt;Node5 -->
<g id="edge48_Node000029_Node000005" class="edge">
<title>Node29&#45;&gt;Node5</title>
<g id="a_edge48_Node000029_Node000005"><a xlink:title=" ">
<path fill="none" stroke="#63b8ff" d="M554.15,-236.62C558.69,-237.43 563.21,-238.24 567.5,-239 644.41,-252.69 734.49,-268.39 781.2,-277"/>
<polygon fill="#63b8ff" stroke="#63b8ff" points="554.7,-233.17 544.24,-234.89 553.49,-240.06 554.7,-233.17"/>
</a>
</g>
</g>
<!-- Node30 -->
<g id="Node000030" class="node">
<title>Node30</title>
<g id="a_Node000030"><a xlink:href="../../df/d0a/buttons_8hpp.xhtml" target="_top" xlink:title=" ">
<polygon fill="white" stroke="#666666" points="590.5,-184 516.5,-184 516.5,-165 590.5,-165 590.5,-184"/>
<text text-anchor="middle" x="553.5" y="-172" font-family="Helvetica,sans-Serif" font-size="10.00">buttons.hpp</text>
</a>
</g>
</g>
<!-- Node29&#45;&gt;Node30 -->
<g id="edge41_Node000029_Node000030" class="edge">
<title>Node29&#45;&gt;Node30</title>
<g id="a_edge41_Node000029_Node000030"><a xlink:title=" ">
<path fill="none" stroke="#63b8ff" d="M524.83,-211.67C532.11,-202.5 540.8,-191.52 546.69,-184.09"/>
<polygon fill="#63b8ff" stroke="#63b8ff" points="521.9,-209.74 518.44,-219.75 527.39,-214.08 521.9,-209.74"/>
</a>
</g>
</g>
<!-- Node32 -->
<g id="Node000032" class="node">
<title>Node32</title>
<g id="a_Node000032"><a xlink:href="../../d4/d76/led_8hpp.xhtml" target="_top" xlink:title=" ">
<polygon fill="white" stroke="#666666" points="358,-184 305,-184 305,-165 358,-165 358,-184"/>
<text text-anchor="middle" x="331.5" y="-172" font-family="Helvetica,sans-Serif" font-size="10.00">led.hpp</text>
</a>
</g>
</g>
<!-- Node29&#45;&gt;Node32 -->
<g id="edge44_Node000029_Node000032" class="edge">
<title>Node29&#45;&gt;Node32</title>
<g id="a_edge44_Node000029_Node000032"><a xlink:title=" ">
<path fill="none" stroke="#63b8ff" d="M472.8,-217.11C438.16,-206.91 388.3,-192.22 358,-183.3"/>
<polygon fill="#63b8ff" stroke="#63b8ff" points="472,-220.52 482.58,-219.98 473.98,-213.8 472,-220.52"/>
</a>
</g>
</g>
<!-- Node34 -->
<g id="Node000034" class="node">
<title>Node34</title>
<g id="a_Node000034"><a xlink:href="../../d9/d88/mode_8cpp.xhtml" target="_top" xlink:title=" ">
<polygon fill="white" stroke="#666666" points="498,-184 433,-184 433,-165 498,-165 498,-184"/>
<text text-anchor="middle" x="465.5" y="-172" font-family="Helvetica,sans-Serif" font-size="10.00">mode.cpp</text>
</a>
</g>
</g>
<!-- Node29&#45;&gt;Node34 -->
<g id="edge49_Node000029_Node000034" class="edge">
<title>Node29&#45;&gt;Node34</title>
<g id="a_edge49_Node000029_Node000034"><a xlink:title=" ">
<path fill="none" stroke="#63b8ff" d="M497.14,-211.96C489.13,-202.72 479.47,-191.6 472.95,-184.09"/>
<polygon fill="#63b8ff" stroke="#63b8ff" points="494.71,-214.49 503.9,-219.75 499.99,-209.9 494.71,-214.49"/>
</a>
</g>
</g>
<!-- Node30&#45;&gt;Node5 -->
<g id="edge43_Node000030_Node000005" class="edge">
<title>Node30&#45;&gt;Node5</title>
<g id="a_edge43_Node000030_Node000005"><a xlink:title=" ">
<path fill="none" stroke="#63b8ff" d="M559.59,-193.52C565.47,-208.08 575.8,-227.9 591.5,-239 621.71,-260.34 727.77,-274.43 781.22,-280.34"/>
<polygon fill="#63b8ff" stroke="#63b8ff" points="562.84,-192.22 556.09,-184.05 556.28,-194.65 562.84,-192.22"/>
</a>
</g>
</g>
<!-- Node31 -->
<g id="Node000031" class="node">
<title>Node31</title>
<g id="a_Node000031"><a xlink:href="../../d9/d52/buttons_8cpp.xhtml" target="_top" xlink:title=" ">
<polygon fill="white" stroke="#666666" points="590.5,-129 516.5,-129 516.5,-110 590.5,-110 590.5,-129"/>
<text text-anchor="middle" x="553.5" y="-117" font-family="Helvetica,sans-Serif" font-size="10.00">buttons.cpp</text>
</a>
</g>
</g>
<!-- Node30&#45;&gt;Node31 -->
<g id="edge42_Node000030_Node000031" class="edge">
<title>Node30&#45;&gt;Node31</title>
<g id="a_edge42_Node000030_Node000031"><a xlink:title=" ">
<path fill="none" stroke="#63b8ff" d="M553.5,-154.66C553.5,-145.93 553.5,-135.99 553.5,-129.09"/>
<polygon fill="#63b8ff" stroke="#63b8ff" points="550,-154.75 553.5,-164.75 557,-154.75 550,-154.75"/>
</a>
</g>
</g>
<!-- Node32&#45;&gt;Node5 -->
<g id="edge47_Node000032_Node000005" class="edge">
<title>Node32&#45;&gt;Node5</title>
<g id="a_edge47_Node000032_Node000005"><a xlink:title=" ">
<path fill="none" stroke="#63b8ff" d="M338.17,-193.96C344.57,-208.78 355.75,-228.75 372.5,-239 441.18,-281.03 692.69,-284.06 781.33,-283.78"/>
<polygon fill="#63b8ff" stroke="#63b8ff" points="341.28,-192.3 334.35,-184.29 334.77,-194.88 341.28,-192.3"/>
</a>
</g>
</g>
<!-- Node32&#45;&gt;Node23 -->
<g id="edge45_Node000032_Node000023" class="edge">
<title>Node32&#45;&gt;Node23</title>
<g id="a_edge45_Node000032_Node000023"><a xlink:title=" ">
<path fill="none" stroke="#63b8ff" d="M308.84,-159.7C292.99,-150.04 272.31,-137.44 258.73,-129.17"/>
<polygon fill="#63b8ff" stroke="#63b8ff" points="307.16,-162.77 317.52,-164.98 310.8,-156.79 307.16,-162.77"/>
</a>
</g>
</g>
<!-- Node33 -->
<g id="Node000033" class="node">
<title>Node33</title>
<g id="a_Node000033"><a xlink:href="../../db/d17/led_8cpp.xhtml" target="_top" xlink:title=" ">
<polygon fill="white" stroke="#666666" points="357.5,-129 305.5,-129 305.5,-110 357.5,-110 357.5,-129"/>
<text text-anchor="middle" x="331.5" y="-117" font-family="Helvetica,sans-Serif" font-size="10.00">led.cpp</text>
</a>
</g>
</g>
<!-- Node32&#45;&gt;Node33 -->
<g id="edge46_Node000032_Node000033" class="edge">
<title>Node32&#45;&gt;Node33</title>
<g id="a_edge46_Node000032_Node000033"><a xlink:title=" ">
<path fill="none" stroke="#63b8ff" d="M331.5,-154.66C331.5,-145.93 331.5,-135.99 331.5,-129.09"/>
<polygon fill="#63b8ff" stroke="#63b8ff" points="328,-154.75 331.5,-164.75 335,-154.75 328,-154.75"/>
</a>
</g>
</g>
<!-- Node35&#45;&gt;Node5 -->
<g id="edge51_Node000035_Node000005" class="edge">
<title>Node35&#45;&gt;Node5</title>
<g id="a_edge51_Node000035_Node000005"><a xlink:title=" ">
<path fill="none" stroke="#63b8ff" d="M1218.35,-239.62C1061.37,-259.21 1017.99,-250.67 861.5,-275 855.75,-275.89 849.58,-277.09 843.55,-278.3"/>
<polygon fill="#63b8ff" stroke="#63b8ff" points="1218.88,-243.08 1228.36,-238.36 1218,-236.14 1218.88,-243.08"/>
</a>
</g>
</g>
<!-- Node36 -->
<g id="Node000036" class="node">
<title>Node36</title>
<g id="a_Node000036"><a xlink:href="../../d8/ddf/pressure_8cpp.xhtml" target="_top" xlink:title=" ">
<polygon fill="white" stroke="#666666" points="1319,-184 1240,-184 1240,-165 1319,-165 1319,-184"/>
<text text-anchor="middle" x="1279.5" y="-172" font-family="Helvetica,sans-Serif" font-size="10.00">pressure.cpp</text>
</a>
</g>
</g>
<!-- Node35&#45;&gt;Node36 -->
<g id="edge52_Node000035_Node000036" class="edge">
<title>Node35&#45;&gt;Node36</title>
<g id="a_edge52_Node000035_Node000036"><a xlink:title=" ">
<path fill="none" stroke="#63b8ff" d="M1272.35,-209.95C1274.18,-201.15 1276.27,-191.06 1277.72,-184.09"/>
<polygon fill="#63b8ff" stroke="#63b8ff" points="1268.92,-209.25 1270.32,-219.75 1275.78,-210.67 1268.92,-209.25"/>
</a>
</g>
</g>
<!-- Node37&#45;&gt;Node5 -->
<g id="edge57_Node000037_Node000005" class="edge">
<title>Node37&#45;&gt;Node5</title>
<g id="a_edge57_Node000037_Node000005"><a xlink:title=" ">
<path fill="none" stroke="#63b8ff" d="M1316.65,-240.08C1118.67,-261.5 1063.25,-245.88 861.5,-275 855.74,-275.83 849.56,-277 843.54,-278.21"/>
<polygon fill="#63b8ff" stroke="#63b8ff" points="1317.25,-243.54 1326.8,-238.97 1316.48,-236.58 1317.25,-243.54"/>
</a>
</g>
</g>
<!-- Node38 -->
<g id="Node000038" class="node">
<title>Node38</title>
<g id="a_Node000038"><a xlink:href="../../d0/d3d/temperature_8cpp.xhtml" target="_top" xlink:title=" ">
<polygon fill="white" stroke="#666666" points="1434.5,-184 1336.5,-184 1336.5,-165 1434.5,-165 1434.5,-184"/>
<text text-anchor="middle" x="1385.5" y="-172" font-family="Helvetica,sans-Serif" font-size="10.00">temperature.cpp</text>
</a>
</g>
</g>
<!-- Node37&#45;&gt;Node38 -->
<g id="edge58_Node000037_Node000038" class="edge">
<title>Node37&#45;&gt;Node38</title>
<g id="a_edge58_Node000037_Node000038"><a xlink:title=" ">
<path fill="none" stroke="#63b8ff" d="M1379.05,-209.66C1380.7,-200.93 1382.58,-190.99 1383.88,-184.09"/>
<polygon fill="#63b8ff" stroke="#63b8ff" points="1375.57,-209.27 1377.15,-219.75 1382.44,-210.57 1375.57,-209.27"/>
</a>
</g>
</g>
</g>
</svg>

<g id="navigator" transform="translate(0 0)" fill="#404254">
  <rect fill="#f2f5e9" fill-opacity="0.5" stroke="#606060" stroke-width=".5" x="0" y="0" width="60" height="60"/>
  <use id="zoomplus" xlink:href="#zoomPlus" x="17" y="9" onmousedown="handleZoom(evt,'in')"/>
  <use id="zoomminus" xlink:href="#zoomMin" x="42" y="9" onmousedown="handleZoom(evt,'out')"/>
  <use id="reset" xlink:href="#resetDef" x="30" y="36" onmousedown="handleReset()"/>
   <use id="arrowup" xlink:href="#arrowUp" x="0" y="0" onmousedown="handlePan(0,-1)"/>
  <use id="arrowright" xlink:href="#arrowRight" x="0" y="0" onmousedown="handlePan(1,0)"/>
  <use id="arrowdown" xlink:href="#arrowDown" x="0" y="0" onmousedown="handlePan(0,1)"/>
  <use id="arrowleft" xlink:href="#arrowLeft" x="0" y="0" onmousedown="handlePan(-1,0)"/>
</g>
<svg viewBox="0 0 15 15" width="100%" height="30px" preserveAspectRatio="xMaxYMin meet">
 <g id="arrow_out" transform="scale(0.3 0.3)">
  <a xlink:href="bme_8hpp__dep__incl_org.svg" target="_base">
   <rect id="button" ry="5" rx="5" y="6" x="6" height="38" width="38"
        fill="#f2f5e9" fill-opacity="0.5" stroke="#606060" stroke-width="1.0"/>
   <path id="arrow"
     d="M 11.500037,31.436501 C 11.940474,20.09759 22.043105,11.32322 32.158766,21.979434 L 37.068811,17.246167 C 37.068811,17.246167 37.088388,32 37.088388,32 L 22.160133,31.978069 C 22.160133,31.978069 26.997745,27.140456 26.997745,27.140456 C 18.528582,18.264221 13.291696,25.230495 11.500037,31.436501 z"
     style="fill:#404040;"/>
  </a>
 </g>
</svg>

<style type='text/css'>
<![CDATA[
[data-mouse-over-selected='false'] { opacity: 0.7; }
[data-mouse-over-selected='true']  { opacity: 1.0; }
]]>
</style>
<script type="application/ecmascript"><![CDATA[
document.addEventListener('DOMContentLoaded', (event) => {
  highlightEdges();
  highlightAdjacentNodes();
});
]]></script>
</svg>
