<?xml version="1.0" encoding="UTF-8" standalone="no"?>
<!DOCTYPE svg PUBLIC "-//W3C//DTD SVG 1.1//EN"
 "http://www.w3.org/Graphics/SVG/1.1/DTD/svg11.dtd">
<!-- Generated by graphviz version 2.43.0 (0)
 -->
<!-- Title: ostream::fill_not_left Pages: 1 -->
<svg width="381pt" height="82pt"
 viewBox="0.00 0.00 381.00 82.00" xmlns="http://www.w3.org/2000/svg" xmlns:xlink="http://www.w3.org/1999/xlink">

<svg id="main" version="1.1" xmlns="http://www.w3.org/2000/svg" xmlns:xlink="http://www.w3.org/1999/xlink" xml:space="preserve" onload="init(evt)">
<style type="text/css"><![CDATA[
.node, .edge {opacity: 0.7;}
.node.selected, .edge.selected {opacity: 1;}
.edge:hover path { stroke: red; }
.edge:hover polygon { stroke: red; fill: red; }
]]></style>
<script type="application/ecmascript" xlink:href="../../svg.min.js"/>
<svg id="graph" class="graph">
<g id="graph0" class="graph" transform="scale(1 1) rotate(0) translate(4 78)">
<title>ostream::fill_not_left</title>
<!-- Node1 -->
<g id="Node000001" class="node">
<title>Node1</title>
<g id="a_Node000001"><a xlink:title=" ">
<polygon fill="#999999" stroke="#666666" points="117,-37 0,-37 0,-18 117,-18 117,-37"/>
<text text-anchor="middle" x="58.5" y="-25" font-family="Helvetica,sans-Serif" font-size="10.00">ostream::fill_not_left</text>
</a>
</g>
</g>
<!-- Node2 -->
<g id="Node000002" class="node">
<title>Node2</title>
<g id="a_Node000002"><a xlink:href="../../d0/d43/classostream.xhtml#a8056a7d45f558917c1362c3ede310ef9" target="_top" xlink:title=" ">
<polygon fill="white" stroke="#666666" points="245,-56 153,-56 153,-37 245,-37 245,-56"/>
<text text-anchor="middle" x="199" y="-44" font-family="Helvetica,sans-Serif" font-size="10.00">ostream::do_fill</text>
</a>
</g>
</g>
<!-- Node1&#45;&gt;Node2 -->
<g id="edge1_Node000001_Node000002" class="edge">
<title>Node1&#45;&gt;Node2</title>
<g id="a_edge1_Node000001_Node000002"><a xlink:title=" ">
<path fill="none" stroke="#63b8ff" d="M117.03,-35.39C125.49,-36.55 134.18,-37.75 142.59,-38.9"/>
<polygon fill="#63b8ff" stroke="#63b8ff" points="142.29,-42.39 152.67,-40.28 143.24,-35.46 142.29,-42.39"/>
</a>
</g>
</g>
<!-- Node5 -->
<g id="Node000005" class="node">
<title>Node5</title>
<g id="a_Node000005"><a xlink:href="../../d4/dc1/classios__base.xhtml#a2a73a30a8b157cc1cc92bb55b0a62e4a" target="_top" xlink:title=" ">
<polygon fill="white" stroke="#666666" points="243.5,-19 154.5,-19 154.5,0 243.5,0 243.5,-19"/>
<text text-anchor="middle" x="199" y="-7" font-family="Helvetica,sans-Serif" font-size="10.00">ios_base::flags</text>
</a>
</g>
</g>
<!-- Node1&#45;&gt;Node5 -->
<g id="edge4_Node000001_Node000005" class="edge">
<title>Node1&#45;&gt;Node5</title>
<g id="a_edge4_Node000001_Node000005"><a xlink:title=" ">
<path fill="none" stroke="#63b8ff" d="M117.03,-20.02C126.11,-18.84 135.45,-17.63 144.43,-16.46"/>
<polygon fill="#63b8ff" stroke="#63b8ff" points="144.91,-19.93 154.37,-15.17 144.01,-12.99 144.91,-19.93"/>
</a>
</g>
</g>
<!-- Node3 -->
<g id="Node000003" class="node">
<title>Node3</title>
<g id="a_Node000003"><a xlink:href="../../d4/dc1/classios__base.xhtml#ade5bd46462e075999c3a5c2cff2015f1" target="_top" xlink:title=" ">
<polygon fill="white" stroke="#666666" points="365.5,-74 288.5,-74 288.5,-55 365.5,-55 365.5,-74"/>
<text text-anchor="middle" x="327" y="-62" font-family="Helvetica,sans-Serif" font-size="10.00">ios_base::fill</text>
</a>
</g>
</g>
<!-- Node2&#45;&gt;Node3 -->
<g id="edge2_Node000002_Node000003" class="edge">
<title>Node2&#45;&gt;Node3</title>
<g id="a_edge2_Node000002_Node000003"><a xlink:title=" ">
<path fill="none" stroke="#63b8ff" d="M245.13,-52.95C255.84,-54.48 267.29,-56.11 278.11,-57.66"/>
<polygon fill="#63b8ff" stroke="#63b8ff" points="277.85,-61.16 288.24,-59.11 278.84,-54.23 277.85,-61.16"/>
</a>
</g>
</g>
<!-- Node4 -->
<g id="Node000004" class="node">
<title>Node4</title>
<g id="a_Node000004"><a xlink:href="../../d4/dc1/classios__base.xhtml#afa30e7644b4eae5928ad9c487ad387de" target="_top" xlink:title=" ">
<polygon fill="white" stroke="#666666" points="373,-37 281,-37 281,-18 373,-18 373,-37"/>
<text text-anchor="middle" x="327" y="-25" font-family="Helvetica,sans-Serif" font-size="10.00">ios_base::width</text>
</a>
</g>
</g>
<!-- Node2&#45;&gt;Node4 -->
<g id="edge3_Node000002_Node000004" class="edge">
<title>Node2&#45;&gt;Node4</title>
<g id="a_edge3_Node000002_Node000004"><a xlink:title=" ">
<path fill="none" stroke="#63b8ff" d="M245.13,-39.69C253.46,-38.44 262.23,-37.12 270.81,-35.82"/>
<polygon fill="#63b8ff" stroke="#63b8ff" points="271.39,-39.27 280.76,-34.32 270.35,-32.35 271.39,-39.27"/>
</a>
</g>
</g>
</g>
</svg>
</svg>

<style type='text/css'>
<![CDATA[
[data-mouse-over-selected='false'] { opacity: 0.7; }
[data-mouse-over-selected='true']  { opacity: 1.0; }
]]>
</style>
<script type="application/ecmascript"><![CDATA[
document.addEventListener('DOMContentLoaded', (event) => {
  highlightEdges();
  highlightAdjacentNodes();
});
]]></script>
</svg>
