<?xml version="1.0" encoding="UTF-8" standalone="no"?>
<!DOCTYPE svg PUBLIC "-//W3C//DTD SVG 1.1//EN"
 "http://www.w3.org/Graphics/SVG/1.1/DTD/svg11.dtd">
<!-- Generated by graphviz version 2.43.0 (0)
 -->
<!-- Title: ostream::operator&lt;&lt; Pages: 1 -->
<svg width="949pt" height="139pt"
 viewBox="0.00 0.00 949.00 139.35" xmlns="http://www.w3.org/2000/svg" xmlns:xlink="http://www.w3.org/1999/xlink">
<g id="graph0" class="graph" transform="scale(1 1) rotate(0) translate(4 135.35)">
<title>ostream::operator&lt;&lt;</title>
<!-- Node1 -->
<g id="Node000001" class="node">
<title>Node1</title>
<g id="a_Node000001"><a xlink:title=" ">
<polygon fill="#999999" stroke="#666666" points="121,-112.64 0,-112.64 0,-93.64 121,-93.64 121,-112.64"/>
<text text-anchor="middle" x="60.5" y="-100.64" font-family="Helvetica,sans-Serif" font-size="10.00">ostream::operator&lt;&lt;</text>
</a>
</g>
</g>
<!-- Node2 -->
<g id="Node000002" class="node">
<title>Node2</title>
<g id="a_Node000002"><a xlink:href="../../d0/d43/classostream_a9cb156e9728eee5ff9307a3a3ded4d58.xhtml#a9cb156e9728eee5ff9307a3a3ded4d58" target="_top" xlink:title=" ">
<polygon fill="white" stroke="#666666" points="258,-112.64 157,-112.64 157,-93.64 258,-93.64 258,-112.64"/>
<text text-anchor="middle" x="207.5" y="-100.64" font-family="Helvetica,sans-Serif" font-size="10.00">ostream::putBool</text>
</a>
</g>
</g>
<!-- Node1&#45;&gt;Node2 -->
<g id="edge1_Node000001_Node000002" class="edge">
<title>Node1&#45;&gt;Node2</title>
<g id="a_edge1_Node000001_Node000002"><a xlink:title=" ">
<path fill="none" stroke="#63b8ff" d="M121.31,-103.14C129.74,-103.14 138.41,-103.14 146.84,-103.14"/>
<polygon fill="#63b8ff" stroke="#63b8ff" points="146.97,-106.64 156.97,-103.14 146.97,-99.64 146.97,-106.64"/>
</a>
</g>
</g>
<!-- Node3 -->
<g id="Node000003" class="node">
<title>Node3</title>
<g id="a_Node000003"><a xlink:href="../../d4/dc1/classios__base_a2a73a30a8b157cc1cc92bb55b0a62e4a.xhtml#a2a73a30a8b157cc1cc92bb55b0a62e4a" target="_top" xlink:title=" ">
<polygon fill="white" stroke="#666666" points="811.5,-92.64 722.5,-92.64 722.5,-73.64 811.5,-73.64 811.5,-92.64"/>
<text text-anchor="middle" x="767" y="-80.64" font-family="Helvetica,sans-Serif" font-size="10.00">ios_base::flags</text>
</a>
</g>
</g>
<!-- Node2&#45;&gt;Node3 -->
<g id="edge2_Node000002_Node000003" class="edge">
<title>Node2&#45;&gt;Node3</title>
<g id="a_edge2_Node000002_Node000003"><a xlink:title=" ">
<path fill="none" stroke="#63b8ff" d="M258.09,-112.34C269.83,-114.22 282.33,-115.97 294,-117.14 466.98,-134.39 514.39,-140.46 685,-107.14 699.59,-104.29 715.33,-99.93 729.02,-95.71"/>
<polygon fill="#63b8ff" stroke="#63b8ff" points="730.11,-99.04 738.58,-92.68 727.99,-92.36 730.11,-99.04"/>
</a>
</g>
</g>
<!-- Node4 -->
<g id="Node000004" class="node">
<title>Node4</title>
<g id="a_Node000004"><a xlink:href="../../d0/d43/classostream_a274ada578ffd2335fa220c6ed74f3702.xhtml#a274ada578ffd2335fa220c6ed74f3702" target="_top" xlink:title=" ">
<polygon fill="white" stroke="#666666" points="532,-112.64 431,-112.64 431,-93.64 532,-93.64 532,-112.64"/>
<text text-anchor="middle" x="481.5" y="-100.64" font-family="Helvetica,sans-Serif" font-size="10.00">ostream::putChar</text>
</a>
</g>
</g>
<!-- Node2&#45;&gt;Node4 -->
<g id="edge3_Node000002_Node000004" class="edge">
<title>Node2&#45;&gt;Node4</title>
<g id="a_edge3_Node000002_Node000004"><a xlink:title=" ">
<path fill="none" stroke="#63b8ff" d="M258.07,-103.14C303.85,-103.14 371.94,-103.14 420.71,-103.14"/>
<polygon fill="#63b8ff" stroke="#63b8ff" points="420.81,-106.64 430.81,-103.14 420.81,-99.64 420.81,-106.64"/>
</a>
</g>
</g>
<!-- Node9 -->
<g id="Node000009" class="node">
<title>Node9</title>
<g id="a_Node000009"><a xlink:href="../../d0/d43/classostream_aa6c0ca9fc60d344bd0080be309c32ccb.xhtml#aa6c0ca9fc60d344bd0080be309c32ccb" target="_top" xlink:title=" ">
<polygon fill="white" stroke="#666666" points="395,-55.64 294,-55.64 294,-36.64 395,-36.64 395,-55.64"/>
<text text-anchor="middle" x="344.5" y="-43.64" font-family="Helvetica,sans-Serif" font-size="10.00">ostream::putPgm</text>
</a>
</g>
</g>
<!-- Node2&#45;&gt;Node9 -->
<g id="edge10_Node000002_Node000009" class="edge">
<title>Node2&#45;&gt;Node9</title>
<g id="a_edge10_Node000002_Node000009"><a xlink:title=" ">
<path fill="none" stroke="#63b8ff" d="M231.1,-93.6C253.1,-84.31 286.74,-70.1 311.49,-59.65"/>
<polygon fill="#63b8ff" stroke="#63b8ff" points="312.98,-62.82 320.83,-55.71 310.26,-56.38 312.98,-62.82"/>
</a>
</g>
</g>
<!-- Node5 -->
<g id="Node000005" class="node">
<title>Node5</title>
<g id="a_Node000005"><a xlink:href="../../d0/d43/classostream_a8056a7d45f558917c1362c3ede310ef9.xhtml#a8056a7d45f558917c1362c3ede310ef9" target="_top" xlink:title=" ">
<polygon fill="white" stroke="#666666" points="813,-55.64 721,-55.64 721,-36.64 813,-36.64 813,-55.64"/>
<text text-anchor="middle" x="767" y="-43.64" font-family="Helvetica,sans-Serif" font-size="10.00">ostream::do_fill</text>
</a>
</g>
</g>
<!-- Node4&#45;&gt;Node5 -->
<g id="edge4_Node000004_Node000005" class="edge">
<title>Node4&#45;&gt;Node5</title>
<g id="a_edge4_Node000004_Node000005"><a xlink:title=" ">
<path fill="none" stroke="#63b8ff" d="M532.21,-103.84C573.85,-103.16 634.41,-99.21 685,-84.14 702.34,-78.97 704.65,-72.89 721,-65.14 724.79,-63.34 728.8,-61.53 732.8,-59.77"/>
<polygon fill="#63b8ff" stroke="#63b8ff" points="734.2,-62.98 742.01,-55.82 731.44,-56.55 734.2,-62.98"/>
</a>
</g>
</g>
<!-- Node8 -->
<g id="Node000008" class="node">
<title>Node8</title>
<g id="a_Node000008"><a xlink:href="../../d0/d43/classostream_ad5027f5ab212cf912b795ba8a26b7808.xhtml#ad5027f5ab212cf912b795ba8a26b7808" target="_top" xlink:title=" ">
<polygon fill="white" stroke="#666666" points="685,-74.64 568,-74.64 568,-55.64 685,-55.64 685,-74.64"/>
<text text-anchor="middle" x="626.5" y="-62.64" font-family="Helvetica,sans-Serif" font-size="10.00">ostream::fill_not_left</text>
</a>
</g>
</g>
<!-- Node4&#45;&gt;Node8 -->
<g id="edge7_Node000004_Node000008" class="edge">
<title>Node4&#45;&gt;Node8</title>
<g id="a_edge7_Node000004_Node000008"><a xlink:title=" ">
<path fill="none" stroke="#63b8ff" d="M518.58,-93.55C537.13,-88.62 559.93,-82.56 579.7,-77.31"/>
<polygon fill="#63b8ff" stroke="#63b8ff" points="580.66,-80.68 589.43,-74.72 578.86,-73.91 580.66,-80.68"/>
</a>
</g>
</g>
<!-- Node6 -->
<g id="Node000006" class="node">
<title>Node6</title>
<g id="a_Node000006"><a xlink:href="../../d4/dc1/classios__base_ade5bd46462e075999c3a5c2cff2015f1.xhtml#ade5bd46462e075999c3a5c2cff2015f1" target="_top" xlink:title=" ">
<polygon fill="white" stroke="#666666" points="933.5,-74.64 856.5,-74.64 856.5,-55.64 933.5,-55.64 933.5,-74.64"/>
<text text-anchor="middle" x="895" y="-62.64" font-family="Helvetica,sans-Serif" font-size="10.00">ios_base::fill</text>
</a>
</g>
</g>
<!-- Node5&#45;&gt;Node6 -->
<g id="edge5_Node000005_Node000006" class="edge">
<title>Node5&#45;&gt;Node6</title>
<g id="a_edge5_Node000005_Node000006"><a xlink:title=" ">
<path fill="none" stroke="#63b8ff" d="M813.13,-52.94C823.84,-54.56 835.29,-56.29 846.11,-57.92"/>
<polygon fill="#63b8ff" stroke="#63b8ff" points="845.83,-61.42 856.24,-59.45 846.88,-54.49 845.83,-61.42"/>
</a>
</g>
</g>
<!-- Node7 -->
<g id="Node000007" class="node">
<title>Node7</title>
<g id="a_Node000007"><a xlink:href="../../d4/dc1/classios__base_afa30e7644b4eae5928ad9c487ad387de.xhtml#afa30e7644b4eae5928ad9c487ad387de" target="_top" xlink:title=" ">
<polygon fill="white" stroke="#666666" points="941,-37.64 849,-37.64 849,-18.64 941,-18.64 941,-37.64"/>
<text text-anchor="middle" x="895" y="-25.64" font-family="Helvetica,sans-Serif" font-size="10.00">ios_base::width</text>
</a>
</g>
</g>
<!-- Node5&#45;&gt;Node7 -->
<g id="edge6_Node000005_Node000007" class="edge">
<title>Node5&#45;&gt;Node7</title>
<g id="a_edge6_Node000005_Node000007"><a xlink:title=" ">
<path fill="none" stroke="#63b8ff" d="M813.13,-39.69C821.46,-38.5 830.23,-37.25 838.81,-36.02"/>
<polygon fill="#63b8ff" stroke="#63b8ff" points="839.35,-39.48 848.76,-34.6 838.36,-32.55 839.35,-39.48"/>
</a>
</g>
</g>
<!-- Node8&#45;&gt;Node3 -->
<g id="edge9_Node000008_Node000003" class="edge">
<title>Node8&#45;&gt;Node3</title>
<g id="a_edge9_Node000008_Node000003"><a xlink:title=" ">
<path fill="none" stroke="#63b8ff" d="M685.03,-72.62C694.11,-73.8 703.45,-75.01 712.43,-76.18"/>
<polygon fill="#63b8ff" stroke="#63b8ff" points="712.01,-79.65 722.37,-77.47 712.91,-72.71 712.01,-79.65"/>
</a>
</g>
</g>
<!-- Node8&#45;&gt;Node5 -->
<g id="edge8_Node000008_Node000005" class="edge">
<title>Node8&#45;&gt;Node5</title>
<g id="a_edge8_Node000008_Node000005"><a xlink:title=" ">
<path fill="none" stroke="#63b8ff" d="M685.03,-57.25C693.49,-56.09 702.18,-54.89 710.59,-53.74"/>
<polygon fill="#63b8ff" stroke="#63b8ff" points="711.24,-57.18 720.67,-52.36 710.29,-50.25 711.24,-57.18"/>
</a>
</g>
</g>
<!-- Node9&#45;&gt;Node5 -->
<g id="edge11_Node000009_Node000005" class="edge">
<title>Node9&#45;&gt;Node5</title>
<g id="a_edge11_Node000009_Node000005"><a xlink:title=" ">
<path fill="none" stroke="#63b8ff" d="M361.52,-36.57C378.2,-27.2 405.42,-13.57 431,-8.14 536.49,14.25 663.66,-15.27 726.66,-33.58"/>
<polygon fill="#63b8ff" stroke="#63b8ff" points="725.99,-37.03 736.57,-36.52 727.98,-30.32 725.99,-37.03"/>
</a>
</g>
</g>
<!-- Node9&#45;&gt;Node8 -->
<g id="edge12_Node000009_Node000008" class="edge">
<title>Node9&#45;&gt;Node8</title>
<g id="a_edge12_Node000009_Node000008"><a xlink:title=" ">
<path fill="none" stroke="#63b8ff" d="M395.24,-49.51C440.37,-52.58 507.33,-57.12 557.42,-60.52"/>
<polygon fill="#63b8ff" stroke="#63b8ff" points="557.31,-64.02 567.52,-61.2 557.78,-57.04 557.31,-64.02"/>
</a>
</g>
</g>
<!-- Node10 -->
<g id="Node000010" class="node">
<title>Node10</title>
<g id="a_Node000010"><a xlink:href="../../d0/d43/classostream_a435bd154f24800d721b7c2839943d6c5.xhtml#a435bd154f24800d721b7c2839943d6c5" target="_top" xlink:title=" ">
<polygon fill="white" stroke="#666666" points="527.5,-36.64 435.5,-36.64 435.5,-17.64 527.5,-17.64 527.5,-36.64"/>
<text text-anchor="middle" x="481.5" y="-24.64" font-family="Helvetica,sans-Serif" font-size="10.00">ostream::putStr</text>
</a>
</g>
</g>
<!-- Node9&#45;&gt;Node10 -->
<g id="edge13_Node000009_Node000010" class="edge">
<title>Node9&#45;&gt;Node10</title>
<g id="a_edge13_Node000009_Node000010"><a xlink:title=" ">
<path fill="none" stroke="#63b8ff" d="M395,-39.17C404.94,-37.77 415.43,-36.3 425.54,-34.87"/>
<polygon fill="#63b8ff" stroke="#63b8ff" points="426.06,-38.33 435.48,-33.48 425.09,-31.4 426.06,-38.33"/>
</a>
</g>
</g>
<!-- Node10&#45;&gt;Node5 -->
<g id="edge14_Node000010_Node000005" class="edge">
<title>Node10&#45;&gt;Node5</title>
<g id="a_edge14_Node000010_Node000005"><a xlink:title=" ">
<path fill="none" stroke="#63b8ff" d="M527.73,-30.17C577.42,-33.5 657.23,-38.85 710.62,-42.43"/>
<polygon fill="#63b8ff" stroke="#63b8ff" points="710.71,-45.94 720.93,-43.12 711.18,-38.96 710.71,-45.94"/>
</a>
</g>
</g>
<!-- Node10&#45;&gt;Node8 -->
<g id="edge15_Node000010_Node000008" class="edge">
<title>Node10&#45;&gt;Node8</title>
<g id="a_edge15_Node000010_Node000008"><a xlink:title=" ">
<path fill="none" stroke="#63b8ff" d="M518.58,-36.73C537.13,-41.66 559.93,-47.71 579.7,-52.97"/>
<polygon fill="#63b8ff" stroke="#63b8ff" points="578.86,-56.37 589.43,-55.55 580.66,-49.6 578.86,-56.37"/>
</a>
</g>
</g>
</g>
</svg>
