<?xml version="1.0" encoding="UTF-8" standalone="no"?>
<!DOCTYPE svg PUBLIC "-//W3C//DTD SVG 1.1//EN"
 "http://www.w3.org/Graphics/SVG/1.1/DTD/svg11.dtd">
<!-- Generated by graphviz version 2.43.0 (0)
 -->
<!-- Title: ostream::operator&lt;&lt; Pages: 1 -->
<svg width="666pt" height="82pt"
 viewBox="0.00 0.00 666.00 82.00" xmlns="http://www.w3.org/2000/svg" xmlns:xlink="http://www.w3.org/1999/xlink">
<g id="graph0" class="graph" transform="scale(1 1) rotate(0) translate(4 78)">
<title>ostream::operator&lt;&lt;</title>
<!-- Node1 -->
<g id="Node000001" class="node">
<title>Node1</title>
<g id="a_Node000001"><a xlink:title=" ">
<polygon fill="#999999" stroke="#666666" points="121,-38 0,-38 0,-19 121,-19 121,-38"/>
<text text-anchor="middle" x="60.5" y="-26" font-family="Helvetica,sans-Serif" font-size="10.00">ostream::operator&lt;&lt;</text>
</a>
</g>
</g>
<!-- Node2 -->
<g id="Node000002" class="node">
<title>Node2</title>
<g id="a_Node000002"><a xlink:href="../../d0/d43/classostream_a435bd154f24800d721b7c2839943d6c5.xhtml#a435bd154f24800d721b7c2839943d6c5" target="_top" xlink:title=" ">
<polygon fill="white" stroke="#666666" points="249,-38 157,-38 157,-19 249,-19 249,-38"/>
<text text-anchor="middle" x="203" y="-26" font-family="Helvetica,sans-Serif" font-size="10.00">ostream::putStr</text>
</a>
</g>
</g>
<!-- Node1&#45;&gt;Node2 -->
<g id="edge1_Node000001_Node000002" class="edge">
<title>Node1&#45;&gt;Node2</title>
<g id="a_edge1_Node000001_Node000002"><a xlink:title=" ">
<path fill="none" stroke="#63b8ff" d="M121.08,-28.5C129.59,-28.5 138.31,-28.5 146.73,-28.5"/>
<polygon fill="#63b8ff" stroke="#63b8ff" points="146.82,-32 156.82,-28.5 146.82,-25 146.82,-32"/>
</a>
</g>
</g>
<!-- Node3 -->
<g id="Node000003" class="node">
<title>Node3</title>
<g id="a_Node000003"><a xlink:href="../../d0/d43/classostream_a8056a7d45f558917c1362c3ede310ef9.xhtml#a8056a7d45f558917c1362c3ede310ef9" target="_top" xlink:title=" ">
<polygon fill="white" stroke="#666666" points="530,-56 438,-56 438,-37 530,-37 530,-56"/>
<text text-anchor="middle" x="484" y="-44" font-family="Helvetica,sans-Serif" font-size="10.00">ostream::do_fill</text>
</a>
</g>
</g>
<!-- Node2&#45;&gt;Node3 -->
<g id="edge2_Node000002_Node000003" class="edge">
<title>Node2&#45;&gt;Node3</title>
<g id="a_edge2_Node000002_Node000003"><a xlink:title=" ">
<path fill="none" stroke="#63b8ff" d="M249.14,-31.41C297.86,-34.56 375.5,-39.56 427.82,-42.94"/>
<polygon fill="#63b8ff" stroke="#63b8ff" points="427.72,-46.44 437.93,-43.59 428.17,-39.46 427.72,-46.44"/>
</a>
</g>
</g>
<!-- Node6 -->
<g id="Node000006" class="node">
<title>Node6</title>
<g id="a_Node000006"><a xlink:href="../../d0/d43/classostream_ad5027f5ab212cf912b795ba8a26b7808.xhtml#ad5027f5ab212cf912b795ba8a26b7808" target="_top" xlink:title=" ">
<polygon fill="white" stroke="#666666" points="402,-19 285,-19 285,0 402,0 402,-19"/>
<text text-anchor="middle" x="343.5" y="-7" font-family="Helvetica,sans-Serif" font-size="10.00">ostream::fill_not_left</text>
</a>
</g>
</g>
<!-- Node2&#45;&gt;Node6 -->
<g id="edge5_Node000002_Node000006" class="edge">
<title>Node2&#45;&gt;Node6</title>
<g id="a_edge5_Node000002_Node000006"><a xlink:title=" ">
<path fill="none" stroke="#63b8ff" d="M249.35,-22.28C257.52,-21.16 266.19,-19.97 274.82,-18.78"/>
<polygon fill="#63b8ff" stroke="#63b8ff" points="275.49,-22.23 284.92,-17.4 274.53,-15.29 275.49,-22.23"/>
</a>
</g>
</g>
<!-- Node4 -->
<g id="Node000004" class="node">
<title>Node4</title>
<g id="a_Node000004"><a xlink:href="../../d4/dc1/classios__base_ade5bd46462e075999c3a5c2cff2015f1.xhtml#ade5bd46462e075999c3a5c2cff2015f1" target="_top" xlink:title=" ">
<polygon fill="white" stroke="#666666" points="650.5,-74 573.5,-74 573.5,-55 650.5,-55 650.5,-74"/>
<text text-anchor="middle" x="612" y="-62" font-family="Helvetica,sans-Serif" font-size="10.00">ios_base::fill</text>
</a>
</g>
</g>
<!-- Node3&#45;&gt;Node4 -->
<g id="edge3_Node000003_Node000004" class="edge">
<title>Node3&#45;&gt;Node4</title>
<g id="a_edge3_Node000003_Node000004"><a xlink:title=" ">
<path fill="none" stroke="#63b8ff" d="M530.13,-52.95C540.84,-54.48 552.29,-56.11 563.11,-57.66"/>
<polygon fill="#63b8ff" stroke="#63b8ff" points="562.85,-61.16 573.24,-59.11 563.84,-54.23 562.85,-61.16"/>
</a>
</g>
</g>
<!-- Node5 -->
<g id="Node000005" class="node">
<title>Node5</title>
<g id="a_Node000005"><a xlink:href="../../d4/dc1/classios__base_afa30e7644b4eae5928ad9c487ad387de.xhtml#afa30e7644b4eae5928ad9c487ad387de" target="_top" xlink:title=" ">
<polygon fill="white" stroke="#666666" points="658,-37 566,-37 566,-18 658,-18 658,-37"/>
<text text-anchor="middle" x="612" y="-25" font-family="Helvetica,sans-Serif" font-size="10.00">ios_base::width</text>
</a>
</g>
</g>
<!-- Node3&#45;&gt;Node5 -->
<g id="edge4_Node000003_Node000005" class="edge">
<title>Node3&#45;&gt;Node5</title>
<g id="a_edge4_Node000003_Node000005"><a xlink:title=" ">
<path fill="none" stroke="#63b8ff" d="M530.13,-39.69C538.46,-38.44 547.23,-37.12 555.81,-35.82"/>
<polygon fill="#63b8ff" stroke="#63b8ff" points="556.39,-39.27 565.76,-34.32 555.35,-32.35 556.39,-39.27"/>
</a>
</g>
</g>
<!-- Node6&#45;&gt;Node3 -->
<g id="edge6_Node000006_Node000003" class="edge">
<title>Node6&#45;&gt;Node3</title>
<g id="a_edge6_Node000006_Node000003"><a xlink:title=" ">
<path fill="none" stroke="#63b8ff" d="M380.17,-19.03C397.56,-23.67 418.68,-29.32 437.25,-34.28"/>
<polygon fill="#63b8ff" stroke="#63b8ff" points="436.41,-37.68 446.97,-36.88 438.21,-30.91 436.41,-37.68"/>
</a>
</g>
</g>
<!-- Node7 -->
<g id="Node000007" class="node">
<title>Node7</title>
<g id="a_Node000007"><a xlink:href="../../d4/dc1/classios__base_a2a73a30a8b157cc1cc92bb55b0a62e4a.xhtml#a2a73a30a8b157cc1cc92bb55b0a62e4a" target="_top" xlink:title=" ">
<polygon fill="white" stroke="#666666" points="528.5,-19 439.5,-19 439.5,0 528.5,0 528.5,-19"/>
<text text-anchor="middle" x="484" y="-7" font-family="Helvetica,sans-Serif" font-size="10.00">ios_base::flags</text>
</a>
</g>
</g>
<!-- Node6&#45;&gt;Node7 -->
<g id="edge7_Node000006_Node000007" class="edge">
<title>Node6&#45;&gt;Node7</title>
<g id="a_edge7_Node000006_Node000007"><a xlink:title=" ">
<path fill="none" stroke="#63b8ff" d="M402.03,-9.5C411.01,-9.5 420.25,-9.5 429.14,-9.5"/>
<polygon fill="#63b8ff" stroke="#63b8ff" points="429.37,-13 439.37,-9.5 429.37,-6 429.37,-13"/>
</a>
</g>
</g>
</g>
</svg>
