<?xml version="1.0" encoding="UTF-8" standalone="no"?>
<!DOCTYPE svg PUBLIC "-//W3C//DTD SVG 1.1//EN"
 "http://www.w3.org/Graphics/SVG/1.1/DTD/svg11.dtd">
<!-- Generated by graphviz version 2.43.0 (0)
 -->
<!-- Title: ostream::putNum Pages: 1 -->
<svg width="333pt" height="175pt"
 viewBox="0.00 0.00 333.00 175.00" xmlns="http://www.w3.org/2000/svg" xmlns:xlink="http://www.w3.org/1999/xlink">
<g id="graph0" class="graph" transform="scale(1 1) rotate(0) translate(4 171)">
<title>ostream::putNum</title>
<!-- Node1 -->
<g id="Node000001" class="node">
<title>Node1</title>
<g id="a_Node000001"><a xlink:title=" ">
<polygon fill="#999999" stroke="#666666" points="102,-93 0,-93 0,-74 102,-74 102,-93"/>
<text text-anchor="middle" x="51" y="-81" font-family="Helvetica,sans-Serif" font-size="10.00">ostream::putNum</text>
</a>
</g>
</g>
<!-- Node2 -->
<g id="Node000002" class="node">
<title>Node2</title>
<g id="a_Node000002"><a xlink:href="../../df/dd5/ios_8h_a7bb2c9b489ecd6379fc33328a58c4a18.xhtml#a7bb2c9b489ecd6379fc33328a58c4a18" target="_top" xlink:title=" ">
<polygon fill="white" stroke="#666666" points="189,-167 154,-167 154,-148 189,-148 189,-167"/>
<text text-anchor="middle" x="171.5" y="-155" font-family="Helvetica,sans-Serif" font-size="10.00">hex</text>
</a>
</g>
</g>
<!-- Node1&#45;&gt;Node2 -->
<g id="edge1_Node000001_Node000002" class="edge">
<title>Node1&#45;&gt;Node2</title>
<g id="a_edge1_Node000001_Node000002"><a xlink:title=" ">
<path fill="none" stroke="#63b8ff" d="M66.11,-93.13C82.98,-104.55 112.2,-123.98 138,-139.5 140.22,-140.84 142.55,-142.2 144.9,-143.55"/>
<polygon fill="#63b8ff" stroke="#63b8ff" points="143.4,-146.72 153.84,-148.57 146.83,-140.62 143.4,-146.72"/>
</a>
</g>
</g>
<!-- Node4 -->
<g id="Node000004" class="node">
<title>Node4</title>
<g id="a_Node000004"><a xlink:href="../../df/dd5/ios_8h_a3cb70f4597036eace28e8557324175af.xhtml#a3cb70f4597036eace28e8557324175af" target="_top" xlink:title=" ">
<polygon fill="white" stroke="#666666" points="198.5,-130 144.5,-130 144.5,-111 198.5,-111 198.5,-130"/>
<text text-anchor="middle" x="171.5" y="-118" font-family="Helvetica,sans-Serif" font-size="10.00">internal</text>
</a>
</g>
</g>
<!-- Node1&#45;&gt;Node4 -->
<g id="edge3_Node000001_Node000004" class="edge">
<title>Node1&#45;&gt;Node4</title>
<g id="a_edge3_Node000001_Node000004"><a xlink:title=" ">
<path fill="none" stroke="#63b8ff" d="M82.52,-93.03C98.3,-97.96 117.68,-104.01 134.23,-109.18"/>
<polygon fill="#63b8ff" stroke="#63b8ff" points="133.52,-112.62 144.11,-112.26 135.61,-105.94 133.52,-112.62"/>
</a>
</g>
</g>
<!-- Node5 -->
<g id="Node000005" class="node">
<title>Node5</title>
<g id="a_Node000005"><a xlink:href="../../df/dd5/ios_8h_a8b43822d02cb2e22f814a10b556d92d8.xhtml#a8b43822d02cb2e22f814a10b556d92d8" target="_top" xlink:title=" ">
<polygon fill="white" stroke="#666666" points="204,-93 139,-93 139,-74 204,-74 204,-93"/>
<text text-anchor="middle" x="171.5" y="-81" font-family="Helvetica,sans-Serif" font-size="10.00">showbase</text>
</a>
</g>
</g>
<!-- Node1&#45;&gt;Node5 -->
<g id="edge5_Node000001_Node000005" class="edge">
<title>Node1&#45;&gt;Node5</title>
<g id="a_edge5_Node000001_Node000005"><a xlink:title=" ">
<path fill="none" stroke="#63b8ff" d="M102.25,-83.5C111.04,-83.5 120.1,-83.5 128.64,-83.5"/>
<polygon fill="#63b8ff" stroke="#63b8ff" points="128.73,-87 138.73,-83.5 128.73,-80 128.73,-87"/>
</a>
</g>
</g>
<!-- Node6 -->
<g id="Node000006" class="node">
<title>Node6</title>
<g id="a_Node000006"><a xlink:href="../../df/dd5/ios_8h_ac9f0758e8d1b42225180393e05098638.xhtml#ac9f0758e8d1b42225180393e05098638" target="_top" xlink:title=" ">
<polygon fill="white" stroke="#666666" points="201,-56 142,-56 142,-37 201,-37 201,-56"/>
<text text-anchor="middle" x="171.5" y="-44" font-family="Helvetica,sans-Serif" font-size="10.00">showpos</text>
</a>
</g>
</g>
<!-- Node1&#45;&gt;Node6 -->
<g id="edge7_Node000001_Node000006" class="edge">
<title>Node1&#45;&gt;Node6</title>
<g id="a_edge7_Node000001_Node000006"><a xlink:title=" ">
<path fill="none" stroke="#63b8ff" d="M82.52,-73.97C97.62,-69.25 116.02,-63.51 132.07,-58.5"/>
<polygon fill="#63b8ff" stroke="#63b8ff" points="133.22,-61.81 141.72,-55.49 131.13,-55.13 133.22,-61.81"/>
</a>
</g>
</g>
<!-- Node7 -->
<g id="Node000007" class="node">
<title>Node7</title>
<g id="a_Node000007"><a xlink:href="../../df/dd5/ios_8h_ac6a97e9c79afda291dd46380ca7d437e.xhtml#ac6a97e9c79afda291dd46380ca7d437e" target="_top" xlink:title=" ">
<polygon fill="white" stroke="#666666" points="205,-19 138,-19 138,0 205,0 205,-19"/>
<text text-anchor="middle" x="171.5" y="-7" font-family="Helvetica,sans-Serif" font-size="10.00">uppercase</text>
</a>
</g>
</g>
<!-- Node1&#45;&gt;Node7 -->
<g id="edge9_Node000001_Node000007" class="edge">
<title>Node1&#45;&gt;Node7</title>
<g id="a_edge9_Node000001_Node000007"><a xlink:title=" ">
<path fill="none" stroke="#63b8ff" d="M66.5,-73.98C83.5,-62.87 112.6,-44.04 138,-28.5 140.32,-27.08 142.75,-25.62 145.19,-24.16"/>
<polygon fill="#63b8ff" stroke="#63b8ff" points="147.05,-27.13 153.89,-19.04 143.5,-21.1 147.05,-27.13"/>
</a>
</g>
</g>
<!-- Node3 -->
<g id="Node000003" class="node">
<title>Node3</title>
<g id="a_Node000003"><a xlink:href="../../d4/dc1/classios__base_ab5db835cb45bba7684ebf72d9a3cccb4.xhtml#ab5db835cb45bba7684ebf72d9a3cccb4" target="_top" xlink:title=" ">
<polygon fill="white" stroke="#666666" points="325,-93 241,-93 241,-74 325,-74 325,-93"/>
<text text-anchor="middle" x="283" y="-81" font-family="Helvetica,sans-Serif" font-size="10.00">ios_base::setf</text>
</a>
</g>
</g>
<!-- Node2&#45;&gt;Node3 -->
<g id="edge2_Node000002_Node000003" class="edge">
<title>Node2&#45;&gt;Node3</title>
<g id="a_edge2_Node000002_Node000003"><a xlink:title=" ">
<path fill="none" stroke="#63b8ff" d="M189.26,-148.73C194.39,-145.91 200,-142.69 205,-139.5 224.81,-126.88 246.35,-111.01 261.6,-99.39"/>
<polygon fill="#63b8ff" stroke="#63b8ff" points="264,-101.97 269.79,-93.1 259.73,-96.42 264,-101.97"/>
</a>
</g>
</g>
<!-- Node4&#45;&gt;Node3 -->
<g id="edge4_Node000004_Node000003" class="edge">
<title>Node4&#45;&gt;Node3</title>
<g id="a_edge4_Node000004_Node000003"><a xlink:title=" ">
<path fill="none" stroke="#63b8ff" d="M198.73,-111.64C212.33,-107.04 229.18,-101.35 244.16,-96.29"/>
<polygon fill="#63b8ff" stroke="#63b8ff" points="245.33,-99.58 253.68,-93.07 243.09,-92.95 245.33,-99.58"/>
</a>
</g>
</g>
<!-- Node5&#45;&gt;Node3 -->
<g id="edge6_Node000005_Node000003" class="edge">
<title>Node5&#45;&gt;Node3</title>
<g id="a_edge6_Node000005_Node000003"><a xlink:title=" ">
<path fill="none" stroke="#63b8ff" d="M204.17,-83.5C212.43,-83.5 221.55,-83.5 230.55,-83.5"/>
<polygon fill="#63b8ff" stroke="#63b8ff" points="230.61,-87 240.61,-83.5 230.61,-80 230.61,-87"/>
</a>
</g>
</g>
<!-- Node6&#45;&gt;Node3 -->
<g id="edge8_Node000006_Node000003" class="edge">
<title>Node6&#45;&gt;Node3</title>
<g id="a_edge8_Node000006_Node000003"><a xlink:title=" ">
<path fill="none" stroke="#63b8ff" d="M200.7,-56.03C213.88,-60.48 229.77,-65.85 243.99,-70.66"/>
<polygon fill="#63b8ff" stroke="#63b8ff" points="242.92,-73.99 253.52,-73.88 245.16,-67.36 242.92,-73.99"/>
</a>
</g>
</g>
<!-- Node7&#45;&gt;Node3 -->
<g id="edge10_Node000007_Node000003" class="edge">
<title>Node7&#45;&gt;Node3</title>
<g id="a_edge10_Node000007_Node000003"><a xlink:title=" ">
<path fill="none" stroke="#63b8ff" d="M189.55,-19.07C194.58,-22.01 200.06,-25.3 205,-28.5 224.48,-41.11 245.91,-56.56 261.2,-67.86"/>
<polygon fill="#63b8ff" stroke="#63b8ff" points="259.33,-70.83 269.44,-73.99 263.51,-65.21 259.33,-70.83"/>
</a>
</g>
</g>
</g>
</svg>
