<?xml version="1.0" encoding="UTF-8" standalone="no"?>
<!DOCTYPE svg PUBLIC "-//W3C//DTD SVG 1.1//EN"
 "http://www.w3.org/Graphics/SVG/1.1/DTD/svg11.dtd">
<!-- Generated by graphviz version 2.43.0 (0)
 -->
<!-- Title: ios_base::flags Pages: 1 -->
<!--zoomable 628 -->

<svg id="main" version="1.1" xmlns="http://www.w3.org/2000/svg" xmlns:xlink="http://www.w3.org/1999/xlink" xml:space="preserve" onload="init(evt)">
<style type="text/css"><![CDATA[
.node, .edge {opacity: 0.7;}
.node.selected, .edge.selected {opacity: 1;}
.edge:hover path { stroke: red; }
.edge:hover polygon { stroke: red; fill: red; }
]]></style>

<defs>
  <circle id="rim" cx="0" cy="0" r="7"/>
  <circle id="rim2" cx="0" cy="0" r="3.5"/>
  <g id="zoomPlus">
    <use xlink:href="#rim" fill="#404040"><set attributeName="fill" to="#808080" begin="zoomplus.mouseover" end="zoomplus.mouseout"/></use>
    <path d="M-4,0h8M0,-4v8" fill="none" stroke="white" stroke-width="1.5" pointer-events="none"/>
  </g>
  <g id="zoomMin">
    <use xlink:href="#rim" fill="#404040"><set attributeName="fill" to="#808080" begin="zoomminus.mouseover" end="zoomminus.mouseout"/></use>
    <path d="M-4,0h8" fill="none" stroke="white" stroke-width="1.5" pointer-events="none"/>
  </g>
  <g id="arrowUp" transform="translate(30 24)">
    <use xlink:href="#rim"/>
    <path pointer-events="none" fill="none" stroke="white" stroke-width="1.5" d="M0,-3.0v7 M-2.5,-0.5L0,-3.0L2.5,-0.5"/>
  </g>
  <g id="arrowRight" transform="rotate(90) translate(36 -43)">
    <use xlink:href="#rim"/>
    <path pointer-events="none" fill="none" stroke="white" stroke-width="1.5" d="M0,-3.0v7 M-2.5,-0.5L0,-3.0L2.5,-0.5"/>
  </g>
  <g id="arrowDown" transform="rotate(180) translate(-30 -48)">
    <use xlink:href="#rim"/>
    <path pointer-events="none" fill="none" stroke="white" stroke-width="1.5" d="M0,-3.0v7 M-2.5,-0.5L0,-3.0L2.5,-0.5"/>
  </g>
  <g id="arrowLeft" transform="rotate(270) translate(-36 17)">
    <use xlink:href="#rim"/>
    <path pointer-events="none" fill="none" stroke="white" stroke-width="1.5" d="M0,-3.0v7 M-2.5,-0.5L0,-3.0L2.5,-0.5"/>
  </g>
  <g id="resetDef">
    <use xlink:href="#rim2" fill="#404040"><set attributeName="fill" to="#808080" begin="reset.mouseover" end="reset.mouseout"/></use>
  </g>
</defs>
<script type="application/ecmascript">
var viewWidth = 864;
var viewHeight = 628;
var sectionId = 'dynsection-3';
</script>
<script type="application/ecmascript" xlink:href="../../svg.min.js"/>
<svg id="graph" class="graph">
<g id="viewport">
<title>ios_base::flags</title>
<!-- Node1 -->
<g id="Node000001" class="node">
<title>Node1</title>
<g id="a_Node000001"><a xlink:title=" ">
<polygon fill="#999999" stroke="#666666" points="856,-334 767,-334 767,-315 856,-315 856,-334"/>
<text text-anchor="middle" x="811.5" y="-322" font-family="Helvetica,sans-Serif" font-size="10.00">ios_base::flags</text>
</a>
</g>
</g>
<!-- Node2 -->
<g id="Node000002" class="node">
<title>Node2</title>
<g id="a_Node000002"><a xlink:href="../../d0/d43/classostream.xhtml#ad5027f5ab212cf912b795ba8a26b7808" target="_top" xlink:title=" ">
<polygon fill="white" stroke="#666666" points="731,-429 614,-429 614,-410 731,-410 731,-429"/>
<text text-anchor="middle" x="672.5" y="-417" font-family="Helvetica,sans-Serif" font-size="10.00">ostream::fill_not_left</text>
</a>
</g>
</g>
<!-- Node1&#45;&gt;Node2 -->
<g id="edge1_Node000001_Node000002" class="edge">
<title>Node1&#45;&gt;Node2</title>
<g id="a_edge1_Node000001_Node000002"><a xlink:title=" ">
<path fill="none" stroke="#63b8ff" d="M788.1,-340.03C759.58,-359.81 711.15,-393.39 687.43,-409.84"/>
<polygon fill="#63b8ff" stroke="#63b8ff" points="790.39,-342.71 796.61,-334.13 786.4,-336.95 790.39,-342.71"/>
</a>
</g>
</g>
<!-- Node4 -->
<g id="Node000004" class="node">
<title>Node4</title>
<g id="a_Node000004"><a xlink:href="../../d0/d43/classostream.xhtml#a9cb156e9728eee5ff9307a3a3ded4d58" target="_top" xlink:title=" ">
<polygon fill="white" stroke="#666666" points="264,-615 163,-615 163,-596 264,-596 264,-615"/>
<text text-anchor="middle" x="213.5" y="-603" font-family="Helvetica,sans-Serif" font-size="10.00">ostream::putBool</text>
</a>
</g>
</g>
<!-- Node1&#45;&gt;Node4 -->
<g id="edge18_Node000001_Node000004" class="edge">
<title>Node1&#45;&gt;Node4</title>
<g id="a_edge18_Node000001_Node000004"><a xlink:title=" ">
<path fill="none" stroke="#63b8ff" d="M800.26,-342.92C772.15,-391.48 688.46,-523.03 578,-578.5 475.93,-629.76 337.08,-622.16 264.07,-613.22"/>
<polygon fill="#63b8ff" stroke="#63b8ff" points="803.37,-344.54 805.27,-334.12 797.28,-341.08 803.37,-344.54"/>
</a>
</g>
</g>
<!-- Node6 -->
<g id="Node000006" class="node">
<title>Node6</title>
<g id="a_Node000006"><a xlink:href="../../d0/d43/classostream.xhtml#a3a77bc22bce5cf5d09f2d3816a11dd18" target="_top" xlink:title=" ">
<polygon fill="white" stroke="#666666" points="270,-391 157,-391 157,-372 270,-372 270,-391"/>
<text text-anchor="middle" x="213.5" y="-379" font-family="Helvetica,sans-Serif" font-size="10.00">ostream::putDouble</text>
</a>
</g>
</g>
<!-- Node1&#45;&gt;Node6 -->
<g id="edge19_Node000001_Node000006" class="edge">
<title>Node1&#45;&gt;Node6</title>
<g id="a_edge19_Node000001_Node000006"><a xlink:title=" ">
<path fill="none" stroke="#63b8ff" d="M756.56,-329.66C643.89,-340.43 384.56,-365.24 270.29,-376.16"/>
<polygon fill="#63b8ff" stroke="#63b8ff" points="757.05,-333.13 766.67,-328.69 756.39,-326.16 757.05,-333.13"/>
</a>
</g>
</g>
<!-- Node13 -->
<g id="Node000013" class="node">
<title>Node13</title>
<g id="a_Node000013"><a xlink:href="../../d4/d07/classistream.xhtml#a9a14b9b12e82c1da3fc47095faec0685" target="_top" xlink:title=" ">
<polygon fill="white" stroke="#666666" points="569.5,-315 471.5,-315 471.5,-296 569.5,-296 569.5,-315"/>
<text text-anchor="middle" x="520.5" y="-303" font-family="Helvetica,sans-Serif" font-size="10.00">istream::getBool</text>
</a>
</g>
</g>
<!-- Node1&#45;&gt;Node13 -->
<g id="edge15_Node000001_Node000013" class="edge">
<title>Node1&#45;&gt;Node13</title>
<g id="a_edge15_Node000001_Node000013"><a xlink:title=" ">
<path fill="none" stroke="#63b8ff" d="M756.92,-320.98C703.27,-317.45 621.47,-312.07 569.78,-308.67"/>
<polygon fill="#63b8ff" stroke="#63b8ff" points="756.71,-324.47 766.92,-321.63 757.17,-317.49 756.71,-324.47"/>
</a>
</g>
</g>
<!-- Node15 -->
<g id="Node000015" class="node">
<title>Node15</title>
<g id="a_Node000015"><a xlink:href="../../d4/d07/classistream.xhtml#a89da8fbb6755690e1bfd198fae14f2a5" target="_top" xlink:title=" ">
<polygon fill="white" stroke="#666666" points="578,-277 463,-277 463,-258 578,-258 578,-277"/>
<text text-anchor="middle" x="520.5" y="-265" font-family="Helvetica,sans-Serif" font-size="10.00">istream::getNumber</text>
</a>
</g>
</g>
<!-- Node1&#45;&gt;Node15 -->
<g id="edge17_Node000001_Node000015" class="edge">
<title>Node1&#45;&gt;Node15</title>
<g id="a_edge17_Node000001_Node000015"><a xlink:title=" ">
<path fill="none" stroke="#63b8ff" d="M756.81,-312.85C748.19,-311.03 739.35,-309.19 731,-307.5 677.29,-296.63 615.66,-284.96 573.22,-277.05"/>
<polygon fill="#63b8ff" stroke="#63b8ff" points="756.29,-316.32 766.8,-314.97 757.74,-309.47 756.29,-316.32"/>
</a>
</g>
</g>
<!-- Node16 -->
<g id="Node000016" class="node">
<title>Node16</title>
<g id="a_Node000016"><a xlink:href="../../d4/d07/classistream.xhtml#ab675f55618058912ac1b9026eac8445e" target="_top" xlink:title=" ">
<polygon fill="white" stroke="#666666" points="724,-239 621,-239 621,-220 724,-220 724,-239"/>
<text text-anchor="middle" x="672.5" y="-227" font-family="Helvetica,sans-Serif" font-size="10.00">istream::readSkip</text>
</a>
</g>
</g>
<!-- Node1&#45;&gt;Node16 -->
<g id="edge20_Node000001_Node000016" class="edge">
<title>Node1&#45;&gt;Node16</title>
<g id="a_edge20_Node000001_Node000016"><a xlink:title=" ">
<path fill="none" stroke="#63b8ff" d="M794.47,-307.2C779.29,-291.59 755.27,-268.79 731,-253.5 721.94,-247.79 711.29,-242.91 701.63,-239.07"/>
<polygon fill="#63b8ff" stroke="#63b8ff" points="792.12,-309.81 801.56,-314.63 797.19,-304.98 792.12,-309.81"/>
</a>
</g>
</g>
<!-- Node3 -->
<g id="Node000003" class="node">
<title>Node3</title>
<g id="a_Node000003"><a xlink:href="../../d0/d43/classostream.xhtml#a274ada578ffd2335fa220c6ed74f3702" target="_top" xlink:title=" ">
<polygon fill="white" stroke="#666666" points="571,-569 470,-569 470,-550 571,-550 571,-569"/>
<text text-anchor="middle" x="520.5" y="-557" font-family="Helvetica,sans-Serif" font-size="10.00">ostream::putChar</text>
</a>
</g>
</g>
<!-- Node2&#45;&gt;Node3 -->
<g id="edge2_Node000002_Node000003" class="edge">
<title>Node2&#45;&gt;Node3</title>
<g id="a_edge2_Node000002_Node000003"><a xlink:title=" ">
<path fill="none" stroke="#63b8ff" d="M653.55,-436.25C621.89,-465.8 557.11,-526.26 531.88,-549.81"/>
<polygon fill="#63b8ff" stroke="#63b8ff" points="656.27,-438.5 661.19,-429.12 651.49,-433.39 656.27,-438.5"/>
</a>
</g>
</g>
<!-- Node2&#45;&gt;Node6 -->
<g id="edge5_Node000002_Node000006" class="edge">
<title>Node2&#45;&gt;Node6</title>
<g id="a_edge5_Node000002_Node000006"><a xlink:title=" ">
<path fill="none" stroke="#63b8ff" d="M603.45,-413.84C512.77,-406.3 354.03,-393.1 270.12,-386.13"/>
<polygon fill="#63b8ff" stroke="#63b8ff" points="603.36,-417.35 613.62,-414.69 603.95,-410.37 603.36,-417.35"/>
</a>
</g>
</g>
<!-- Node7 -->
<g id="Node000007" class="node">
<title>Node7</title>
<g id="a_Node000007"><a xlink:href="../../d0/d43/classostream.xhtml#aa6c0ca9fc60d344bd0080be309c32ccb" target="_top" xlink:title=" ">
<polygon fill="white" stroke="#666666" points="417,-429 316,-429 316,-410 417,-410 417,-429"/>
<text text-anchor="middle" x="366.5" y="-417" font-family="Helvetica,sans-Serif" font-size="10.00">ostream::putPgm</text>
</a>
</g>
</g>
<!-- Node2&#45;&gt;Node7 -->
<g id="edge6_Node000002_Node000007" class="edge">
<title>Node2&#45;&gt;Node7</title>
<g id="a_edge6_Node000002_Node000007"><a xlink:title=" ">
<path fill="none" stroke="#63b8ff" d="M603.69,-419.5C547.19,-419.5 468.03,-419.5 417.25,-419.5"/>
<polygon fill="#63b8ff" stroke="#63b8ff" points="603.96,-423 613.96,-419.5 603.96,-416 603.96,-423"/>
</a>
</g>
</g>
<!-- Node8 -->
<g id="Node000008" class="node">
<title>Node8</title>
<g id="a_Node000008"><a xlink:href="../../d0/d43/classostream.xhtml#a435bd154f24800d721b7c2839943d6c5" target="_top" xlink:title=" ">
<polygon fill="white" stroke="#666666" points="566.5,-485 474.5,-485 474.5,-466 566.5,-466 566.5,-485"/>
<text text-anchor="middle" x="520.5" y="-473" font-family="Helvetica,sans-Serif" font-size="10.00">ostream::putStr</text>
</a>
</g>
</g>
<!-- Node2&#45;&gt;Node8 -->
<g id="edge9_Node000002_Node000008" class="edge">
<title>Node2&#45;&gt;Node8</title>
<g id="a_edge9_Node000002_Node000008"><a xlink:title=" ">
<path fill="none" stroke="#63b8ff" d="M636.11,-432.71C608.72,-442.94 571.45,-456.85 546.95,-466"/>
<polygon fill="#63b8ff" stroke="#63b8ff" points="637.57,-435.9 645.71,-429.13 635.12,-429.35 637.57,-435.9"/>
</a>
</g>
</g>
<!-- Node3&#45;&gt;Node4 -->
<g id="edge3_Node000003_Node000004" class="edge">
<title>Node3&#45;&gt;Node4</title>
<g id="a_edge3_Node000003_Node000004"><a xlink:title=" ">
<path fill="none" stroke="#63b8ff" d="M482.01,-572.25C465.35,-577.44 445.38,-583.03 427,-586.5 371.86,-596.91 307.56,-601.65 264.25,-603.79"/>
<polygon fill="#63b8ff" stroke="#63b8ff" points="483.45,-575.46 491.91,-569.09 481.32,-568.79 483.45,-575.46"/>
</a>
</g>
</g>
<!-- Node5 -->
<g id="Node000005" class="node">
<title>Node5</title>
<g id="a_Node000005"><a xlink:href="../../d0/d43/classostream.xhtml#a015a48123dad8fa86071354e92209236" target="_top" xlink:title=" ">
<polygon fill="white" stroke="#666666" points="121,-615 0,-615 0,-596 121,-596 121,-615"/>
<text text-anchor="middle" x="60.5" y="-603" font-family="Helvetica,sans-Serif" font-size="10.00">ostream::operator&lt;&lt;</text>
</a>
</g>
</g>
<!-- Node4&#45;&gt;Node5 -->
<g id="edge4_Node000004_Node000005" class="edge">
<title>Node4&#45;&gt;Node5</title>
<g id="a_edge4_Node000004_Node000005"><a xlink:title=" ">
<path fill="none" stroke="#63b8ff" d="M152.46,-605.5C142.11,-605.5 131.36,-605.5 121.02,-605.5"/>
<polygon fill="#63b8ff" stroke="#63b8ff" points="152.64,-609 162.64,-605.5 152.64,-602 152.64,-609"/>
</a>
</g>
</g>
<!-- Node7&#45;&gt;Node4 -->
<g id="edge7_Node000007_Node000004" class="edge">
<title>Node7&#45;&gt;Node4</title>
<g id="a_edge7_Node000007_Node000004"><a xlink:title=" ">
<path fill="none" stroke="#63b8ff" d="M312.56,-433.87C310.25,-435.27 308.05,-436.81 306,-438.5 252.17,-482.87 224.92,-567.55 217,-595.95"/>
<polygon fill="#63b8ff" stroke="#63b8ff" points="314.57,-436.77 321.88,-429.1 311.38,-430.54 314.57,-436.77"/>
</a>
</g>
</g>
<!-- Node7&#45;&gt;Node6 -->
<g id="edge8_Node000007_Node000006" class="edge">
<title>Node7&#45;&gt;Node6</title>
<g id="a_edge8_Node000007_Node000006"><a xlink:title=" ">
<path fill="none" stroke="#63b8ff" d="M317.66,-407.46C296.56,-402.15 272.12,-396 252.33,-391.02"/>
<polygon fill="#63b8ff" stroke="#63b8ff" points="316.84,-410.86 327.4,-409.91 318.55,-404.08 316.84,-410.86"/>
</a>
</g>
</g>
<!-- Node8&#45;&gt;Node7 -->
<g id="edge14_Node000008_Node000007" class="edge">
<title>Node8&#45;&gt;Node7</title>
<g id="a_edge14_Node000008_Node000007"><a xlink:title=" ">
<path fill="none" stroke="#63b8ff" d="M487.56,-462.07C469.83,-454.78 447.33,-445.8 427,-438.5 417.92,-435.24 407.96,-431.95 398.83,-429.04"/>
<polygon fill="#63b8ff" stroke="#63b8ff" points="486.29,-465.33 496.86,-465.92 488.96,-458.86 486.29,-465.33"/>
</a>
</g>
</g>
<!-- Node9 -->
<g id="Node000009" class="node">
<title>Node9</title>
<g id="a_Node000009"><a xlink:href="../../d0/d43/classostream.xhtml#a0a485b42a84da315f0e358a02909ab3e" target="_top" xlink:title=" ">
<polygon fill="white" stroke="#666666" points="427,-577 306,-577 306,-558 427,-558 427,-577"/>
<text text-anchor="middle" x="366.5" y="-565" font-family="Helvetica,sans-Serif" font-size="10.00">ostream::operator&lt;&lt;</text>
</a>
</g>
</g>
<!-- Node8&#45;&gt;Node9 -->
<g id="edge10_Node000008_Node000009" class="edge">
<title>Node8&#45;&gt;Node9</title>
<g id="a_edge10_Node000008_Node000009"><a xlink:title=" ">
<path fill="none" stroke="#63b8ff" d="M502.94,-492.05C485.44,-508.7 456.36,-534.06 427,-549.5 420.7,-552.82 413.69,-555.62 406.76,-557.95"/>
<polygon fill="#63b8ff" stroke="#63b8ff" points="505.39,-494.55 510.13,-485.08 500.51,-489.53 505.39,-494.55"/>
</a>
</g>
</g>
<!-- Node10 -->
<g id="Node000010" class="node">
<title>Node10</title>
<g id="a_Node000010"><a xlink:href="../../d0/d43/classostream.xhtml#aa23ba231f5833b3db5c269e2bba045c7" target="_top" xlink:title=" ">
<polygon fill="white" stroke="#666666" points="427,-540 306,-540 306,-521 427,-521 427,-540"/>
<text text-anchor="middle" x="366.5" y="-528" font-family="Helvetica,sans-Serif" font-size="10.00">ostream::operator&lt;&lt;</text>
</a>
</g>
</g>
<!-- Node8&#45;&gt;Node10 -->
<g id="edge11_Node000008_Node000010" class="edge">
<title>Node8&#45;&gt;Node10</title>
<g id="a_edge11_Node000008_Node000010"><a xlink:title=" ">
<path fill="none" stroke="#63b8ff" d="M487.96,-488.91C470.19,-496.26 447.52,-505.31 427,-512.5 418.65,-515.43 409.54,-518.33 401.02,-520.91"/>
<polygon fill="#63b8ff" stroke="#63b8ff" points="489.39,-492.1 497.28,-485.02 486.7,-485.64 489.39,-492.1"/>
</a>
</g>
</g>
<!-- Node11 -->
<g id="Node000011" class="node">
<title>Node11</title>
<g id="a_Node000011"><a xlink:href="../../d0/d43/classostream.xhtml#ad3af6aa5fc14c67855bac04e72c51e0c" target="_top" xlink:title=" ">
<polygon fill="white" stroke="#666666" points="427,-503 306,-503 306,-484 427,-484 427,-503"/>
<text text-anchor="middle" x="366.5" y="-491" font-family="Helvetica,sans-Serif" font-size="10.00">ostream::operator&lt;&lt;</text>
</a>
</g>
</g>
<!-- Node8&#45;&gt;Node11 -->
<g id="edge12_Node000008_Node000011" class="edge">
<title>Node8&#45;&gt;Node11</title>
<g id="a_edge12_Node000008_Node000011"><a xlink:title=" ">
<path fill="none" stroke="#63b8ff" d="M464.36,-482.03C452.27,-483.46 439.42,-484.98 427.17,-486.43"/>
<polygon fill="#63b8ff" stroke="#63b8ff" points="464.79,-485.5 474.31,-480.85 463.96,-478.55 464.79,-485.5"/>
</a>
</g>
</g>
<!-- Node12 -->
<g id="Node000012" class="node">
<title>Node12</title>
<g id="a_Node000012"><a xlink:href="../../d0/d43/classostream.xhtml#a3d596fd32395a6fff88cce6a222425ea" target="_top" xlink:title=" ">
<polygon fill="white" stroke="#666666" points="427,-466 306,-466 306,-447 427,-447 427,-466"/>
<text text-anchor="middle" x="366.5" y="-454" font-family="Helvetica,sans-Serif" font-size="10.00">ostream::operator&lt;&lt;</text>
</a>
</g>
</g>
<!-- Node8&#45;&gt;Node12 -->
<g id="edge13_Node000008_Node000012" class="edge">
<title>Node8&#45;&gt;Node12</title>
<g id="a_edge13_Node000008_Node000012"><a xlink:title=" ">
<path fill="none" stroke="#63b8ff" d="M464.36,-468.61C452.27,-467.1 439.42,-465.49 427.17,-463.96"/>
<polygon fill="#63b8ff" stroke="#63b8ff" points="463.95,-472.08 474.31,-469.85 464.82,-465.14 463.95,-472.08"/>
</a>
</g>
</g>
<!-- Node14 -->
<g id="Node000014" class="node">
<title>Node14</title>
<g id="a_Node000014"><a xlink:href="../../d4/d07/classistream.xhtml#ad1cb81b7ee0b9bee9cb1793451c322b8" target="_top" xlink:title=" ">
<polygon fill="white" stroke="#666666" points="425.5,-315 307.5,-315 307.5,-296 425.5,-296 425.5,-315"/>
<text text-anchor="middle" x="366.5" y="-303" font-family="Helvetica,sans-Serif" font-size="10.00">istream::operator&gt;&gt;</text>
</a>
</g>
</g>
<!-- Node13&#45;&gt;Node14 -->
<g id="edge16_Node000013_Node000014" class="edge">
<title>Node13&#45;&gt;Node14</title>
<g id="a_edge16_Node000013_Node000014"><a xlink:title=" ">
<path fill="none" stroke="#63b8ff" d="M461.32,-305.5C449.64,-305.5 437.35,-305.5 425.67,-305.5"/>
<polygon fill="#63b8ff" stroke="#63b8ff" points="461.41,-309 471.41,-305.5 461.41,-302 461.41,-309"/>
</a>
</g>
</g>
<!-- Node16&#45;&gt;Node13 -->
<g id="edge21_Node000016_Node000013" class="edge">
<title>Node16&#45;&gt;Node13</title>
<g id="a_edge21_Node000016_Node000013"><a xlink:title=" ">
<path fill="none" stroke="#63b8ff" d="M649.49,-244.86C631.02,-257.27 603.62,-274.57 578,-286.5 570.4,-290.04 561.95,-293.24 553.96,-295.96"/>
<polygon fill="#63b8ff" stroke="#63b8ff" points="651.49,-247.73 657.79,-239.21 647.55,-241.94 651.49,-247.73"/>
</a>
</g>
</g>
<!-- Node16&#45;&gt;Node15 -->
<g id="edge29_Node000016_Node000015" class="edge">
<title>Node16&#45;&gt;Node15</title>
<g id="a_edge29_Node000016_Node000015"><a xlink:title=" ">
<path fill="none" stroke="#63b8ff" d="M623.69,-241.61C602.8,-246.9 578.65,-253.02 559.08,-257.98"/>
<polygon fill="#63b8ff" stroke="#63b8ff" points="624.81,-244.94 633.65,-239.09 623.1,-238.15 624.81,-244.94"/>
</a>
</g>
</g>
<!-- Node17 -->
<g id="Node000017" class="node">
<title>Node17</title>
<g id="a_Node000017"><a xlink:href="../../d4/d07/classistream.xhtml#a97190a6a14b97ae0c8e1409474d231db" target="_top" xlink:title=" ">
<polygon fill="white" stroke="#666666" points="569.5,-149 471.5,-149 471.5,-130 569.5,-130 569.5,-149"/>
<text text-anchor="middle" x="520.5" y="-137" font-family="Helvetica,sans-Serif" font-size="10.00">istream::getChar</text>
</a>
</g>
</g>
<!-- Node16&#45;&gt;Node17 -->
<g id="edge22_Node000016_Node000017" class="edge">
<title>Node16&#45;&gt;Node17</title>
<g id="a_edge22_Node000016_Node000017"><a xlink:title=" ">
<path fill="none" stroke="#63b8ff" d="M646.55,-214.53C615.54,-195.92 563.53,-164.72 537.44,-149.06"/>
<polygon fill="#63b8ff" stroke="#63b8ff" points="645.07,-217.72 655.45,-219.87 648.67,-211.72 645.07,-217.72"/>
</a>
</g>
</g>
<!-- Node21 -->
<g id="Node000021" class="node">
<title>Node21</title>
<g id="a_Node000021"><a xlink:href="../../d4/d07/classistream.xhtml#adf90e879a65ea616c39ab4e47779dfb9" target="_top" xlink:title=" ">
<polygon fill="white" stroke="#666666" points="575.5,-56 465.5,-56 465.5,-37 575.5,-37 575.5,-56"/>
<text text-anchor="middle" x="520.5" y="-44" font-family="Helvetica,sans-Serif" font-size="10.00">istream::getDouble</text>
</a>
</g>
</g>
<!-- Node16&#45;&gt;Node21 -->
<g id="edge26_Node000016_Node000021" class="edge">
<title>Node16&#45;&gt;Node21</title>
<g id="a_edge26_Node000016_Node000021"><a xlink:title=" ">
<path fill="none" stroke="#63b8ff" d="M657.02,-211.83C625.98,-173.97 553.9,-86.03 529.64,-56.43"/>
<polygon fill="#63b8ff" stroke="#63b8ff" points="654.6,-214.4 663.65,-219.92 660.01,-209.97 654.6,-214.4"/>
</a>
</g>
</g>
<!-- Node24 -->
<g id="Node000024" class="node">
<title>Node24</title>
<g id="a_Node000024"><a xlink:href="../../d4/d07/classistream.xhtml#a86905009b7c556cf3ac614379c700406" target="_top" xlink:title=" ">
<polygon fill="white" stroke="#666666" points="565,-239 476,-239 476,-220 565,-220 565,-239"/>
<text text-anchor="middle" x="520.5" y="-227" font-family="Helvetica,sans-Serif" font-size="10.00">istream::getStr</text>
</a>
</g>
</g>
<!-- Node16&#45;&gt;Node24 -->
<g id="edge30_Node000016_Node000024" class="edge">
<title>Node16&#45;&gt;Node24</title>
<g id="a_edge30_Node000016_Node000024"><a xlink:title=" ">
<path fill="none" stroke="#63b8ff" d="M610.39,-229.5C595.25,-229.5 579.33,-229.5 565.21,-229.5"/>
<polygon fill="#63b8ff" stroke="#63b8ff" points="610.72,-233 620.72,-229.5 610.72,-226 610.72,-233"/>
</a>
</g>
</g>
<!-- Node18 -->
<g id="Node000018" class="node">
<title>Node18</title>
<g id="a_Node000018"><a xlink:href="../../d4/d07/classistream.xhtml#a679ae010afb953bbb589c8eeaebebafd" target="_top" xlink:title=" ">
<polygon fill="white" stroke="#666666" points="425.5,-130 307.5,-130 307.5,-111 425.5,-111 425.5,-130"/>
<text text-anchor="middle" x="366.5" y="-118" font-family="Helvetica,sans-Serif" font-size="10.00">istream::operator&gt;&gt;</text>
</a>
</g>
</g>
<!-- Node17&#45;&gt;Node18 -->
<g id="edge23_Node000017_Node000018" class="edge">
<title>Node17&#45;&gt;Node18</title>
<g id="a_edge23_Node000017_Node000018"><a xlink:title=" ">
<path fill="none" stroke="#63b8ff" d="M461.32,-132.23C449.64,-130.77 437.35,-129.23 425.67,-127.77"/>
<polygon fill="#63b8ff" stroke="#63b8ff" points="461.05,-135.72 471.41,-133.49 461.92,-128.77 461.05,-135.72"/>
</a>
</g>
</g>
<!-- Node19 -->
<g id="Node000019" class="node">
<title>Node19</title>
<g id="a_Node000019"><a xlink:href="../../d4/d07/classistream.xhtml#a205e90330fff062ce326414788a32dab" target="_top" xlink:title=" ">
<polygon fill="white" stroke="#666666" points="425.5,-93 307.5,-93 307.5,-74 425.5,-74 425.5,-93"/>
<text text-anchor="middle" x="366.5" y="-81" font-family="Helvetica,sans-Serif" font-size="10.00">istream::operator&gt;&gt;</text>
</a>
</g>
</g>
<!-- Node17&#45;&gt;Node19 -->
<g id="edge24_Node000017_Node000019" class="edge">
<title>Node17&#45;&gt;Node19</title>
<g id="a_edge24_Node000017_Node000019"><a xlink:title=" ">
<path fill="none" stroke="#63b8ff" d="M488.35,-125.83C470.54,-118.24 447.7,-108.86 427,-101.5 418.66,-98.53 409.56,-95.62 401.04,-93.03"/>
<polygon fill="#63b8ff" stroke="#63b8ff" points="487.11,-129.1 497.68,-129.84 489.87,-122.67 487.11,-129.1"/>
</a>
</g>
</g>
<!-- Node20 -->
<g id="Node000020" class="node">
<title>Node20</title>
<g id="a_Node000020"><a xlink:href="../../d4/d07/classistream.xhtml#a0412869210fcb5c319da1f55eb047825" target="_top" xlink:title=" ">
<polygon fill="white" stroke="#666666" points="425.5,-167 307.5,-167 307.5,-148 425.5,-148 425.5,-167"/>
<text text-anchor="middle" x="366.5" y="-155" font-family="Helvetica,sans-Serif" font-size="10.00">istream::operator&gt;&gt;</text>
</a>
</g>
</g>
<!-- Node17&#45;&gt;Node20 -->
<g id="edge25_Node000017_Node000020" class="edge">
<title>Node17&#45;&gt;Node20</title>
<g id="a_edge25_Node000017_Node000020"><a xlink:title=" ">
<path fill="none" stroke="#63b8ff" d="M461.32,-146.39C449.64,-147.77 437.35,-149.23 425.67,-150.61"/>
<polygon fill="#63b8ff" stroke="#63b8ff" points="461.89,-149.85 471.41,-145.2 461.06,-142.9 461.89,-149.85"/>
</a>
</g>
</g>
<!-- Node22 -->
<g id="Node000022" class="node">
<title>Node22</title>
<g id="a_Node000022"><a xlink:href="../../d4/d07/classistream.xhtml#a1dc611d45252414ebfbec4898aa7d1ba" target="_top" xlink:title=" ">
<polygon fill="white" stroke="#666666" points="425.5,-56 307.5,-56 307.5,-37 425.5,-37 425.5,-56"/>
<text text-anchor="middle" x="366.5" y="-44" font-family="Helvetica,sans-Serif" font-size="10.00">istream::operator&gt;&gt;</text>
</a>
</g>
</g>
<!-- Node21&#45;&gt;Node22 -->
<g id="edge27_Node000021_Node000022" class="edge">
<title>Node21&#45;&gt;Node22</title>
<g id="a_edge27_Node000021_Node000022"><a xlink:title=" ">
<path fill="none" stroke="#63b8ff" d="M455.36,-46.5C445.53,-46.5 435.42,-46.5 425.73,-46.5"/>
<polygon fill="#63b8ff" stroke="#63b8ff" points="455.48,-50 465.48,-46.5 455.48,-43 455.48,-50"/>
</a>
</g>
</g>
<!-- Node23 -->
<g id="Node000023" class="node">
<title>Node23</title>
<g id="a_Node000023"><a xlink:href="../../d4/d07/classistream.xhtml#af937cf5104134941c2f5e2121f3634d2" target="_top" xlink:title=" ">
<polygon fill="white" stroke="#666666" points="425.5,-19 307.5,-19 307.5,0 425.5,0 425.5,-19"/>
<text text-anchor="middle" x="366.5" y="-7" font-family="Helvetica,sans-Serif" font-size="10.00">istream::operator&gt;&gt;</text>
</a>
</g>
</g>
<!-- Node21&#45;&gt;Node23 -->
<g id="edge28_Node000021_Node000023" class="edge">
<title>Node21&#45;&gt;Node23</title>
<g id="a_edge28_Node000021_Node000023"><a xlink:title=" ">
<path fill="none" stroke="#63b8ff" d="M470.51,-34.57C449.89,-29.56 426.22,-23.79 406.78,-19.06"/>
<polygon fill="#63b8ff" stroke="#63b8ff" points="469.81,-38.01 480.36,-36.97 471.47,-31.21 469.81,-38.01"/>
</a>
</g>
</g>
<!-- Node25 -->
<g id="Node000025" class="node">
<title>Node25</title>
<g id="a_Node000025"><a xlink:href="../../d4/d07/classistream.xhtml#a7f26af90b7de8d95553e346c059801a3" target="_top" xlink:title=" ">
<polygon fill="white" stroke="#666666" points="425.5,-278 307.5,-278 307.5,-259 425.5,-259 425.5,-278"/>
<text text-anchor="middle" x="366.5" y="-266" font-family="Helvetica,sans-Serif" font-size="10.00">istream::operator&gt;&gt;</text>
</a>
</g>
</g>
<!-- Node24&#45;&gt;Node25 -->
<g id="edge31_Node000024_Node000025" class="edge">
<title>Node24&#45;&gt;Node25</title>
<g id="a_edge31_Node000024_Node000025"><a xlink:title=" ">
<path fill="none" stroke="#63b8ff" d="M472.57,-241.54C450.7,-247.15 425.04,-253.74 404.56,-258.99"/>
<polygon fill="#63b8ff" stroke="#63b8ff" points="473.5,-244.92 482.32,-239.04 471.76,-238.14 473.5,-244.92"/>
</a>
</g>
</g>
<!-- Node26 -->
<g id="Node000026" class="node">
<title>Node26</title>
<g id="a_Node000026"><a xlink:href="../../d4/d07/classistream.xhtml#a44735a1432865ffab97e4b865b3e8157" target="_top" xlink:title=" ">
<polygon fill="white" stroke="#666666" points="425.5,-241 307.5,-241 307.5,-222 425.5,-222 425.5,-241"/>
<text text-anchor="middle" x="366.5" y="-229" font-family="Helvetica,sans-Serif" font-size="10.00">istream::operator&gt;&gt;</text>
</a>
</g>
</g>
<!-- Node24&#45;&gt;Node26 -->
<g id="edge32_Node000024_Node000026" class="edge">
<title>Node24&#45;&gt;Node26</title>
<g id="a_edge32_Node000024_Node000026"><a xlink:title=" ">
<path fill="none" stroke="#63b8ff" d="M465.74,-230.21C452.71,-230.38 438.73,-230.56 425.52,-230.74"/>
<polygon fill="#63b8ff" stroke="#63b8ff" points="465.99,-233.7 475.94,-230.07 465.9,-226.71 465.99,-233.7"/>
</a>
</g>
</g>
<!-- Node27 -->
<g id="Node000027" class="node">
<title>Node27</title>
<g id="a_Node000027"><a xlink:href="../../d4/d07/classistream.xhtml#acc838a1a815184e2a36fdf0fdb2a4a26" target="_top" xlink:title=" ">
<polygon fill="white" stroke="#666666" points="425.5,-204 307.5,-204 307.5,-185 425.5,-185 425.5,-204"/>
<text text-anchor="middle" x="366.5" y="-192" font-family="Helvetica,sans-Serif" font-size="10.00">istream::operator&gt;&gt;</text>
</a>
</g>
</g>
<!-- Node24&#45;&gt;Node27 -->
<g id="edge33_Node000024_Node000027" class="edge">
<title>Node24&#45;&gt;Node27</title>
<g id="a_edge33_Node000024_Node000027"><a xlink:title=" ">
<path fill="none" stroke="#63b8ff" d="M468.14,-217.67C448.87,-213.24 427.24,-208.26 408.98,-204.05"/>
<polygon fill="#63b8ff" stroke="#63b8ff" points="467.43,-221.1 477.97,-219.94 469.01,-214.28 467.43,-221.1"/>
</a>
</g>
</g>
</g>
</svg>

<g id="navigator" transform="translate(0 0)" fill="#404254">
  <rect fill="#f2f5e9" fill-opacity="0.5" stroke="#606060" stroke-width=".5" x="0" y="0" width="60" height="60"/>
  <use id="zoomplus" xlink:href="#zoomPlus" x="17" y="9" onmousedown="handleZoom(evt,'in')"/>
  <use id="zoomminus" xlink:href="#zoomMin" x="42" y="9" onmousedown="handleZoom(evt,'out')"/>
  <use id="reset" xlink:href="#resetDef" x="30" y="36" onmousedown="handleReset()"/>
   <use id="arrowup" xlink:href="#arrowUp" x="0" y="0" onmousedown="handlePan(0,-1)"/>
  <use id="arrowright" xlink:href="#arrowRight" x="0" y="0" onmousedown="handlePan(1,0)"/>
  <use id="arrowdown" xlink:href="#arrowDown" x="0" y="0" onmousedown="handlePan(0,1)"/>
  <use id="arrowleft" xlink:href="#arrowLeft" x="0" y="0" onmousedown="handlePan(-1,0)"/>
</g>
<svg viewBox="0 0 15 15" width="100%" height="30px" preserveAspectRatio="xMaxYMin meet">
 <g id="arrow_out" transform="scale(0.3 0.3)">
  <a xlink:href="classios__base_a2a73a30a8b157cc1cc92bb55b0a62e4a_icgraph_org.svg" target="_base">
   <rect id="button" ry="5" rx="5" y="6" x="6" height="38" width="38"
        fill="#f2f5e9" fill-opacity="0.5" stroke="#606060" stroke-width="1.0"/>
   <path id="arrow"
     d="M 11.500037,31.436501 C 11.940474,20.09759 22.043105,11.32322 32.158766,21.979434 L 37.068811,17.246167 C 37.068811,17.246167 37.088388,32 37.088388,32 L 22.160133,31.978069 C 22.160133,31.978069 26.997745,27.140456 26.997745,27.140456 C 18.528582,18.264221 13.291696,25.230495 11.500037,31.436501 z"
     style="fill:#404040;"/>
  </a>
 </g>
</svg>

<style type='text/css'>
<![CDATA[
[data-mouse-over-selected='false'] { opacity: 0.7; }
[data-mouse-over-selected='true']  { opacity: 1.0; }
]]>
</style>
<script type="application/ecmascript"><![CDATA[
document.addEventListener('DOMContentLoaded', (event) => {
  highlightEdges();
  highlightAdjacentNodes();
});
]]></script>
</svg>
