<?xml version="1.0" encoding="UTF-8" standalone="no"?>
<!DOCTYPE svg PUBLIC "-//W3C//DTD SVG 1.1//EN"
 "http://www.w3.org/Graphics/SVG/1.1/DTD/svg11.dtd">
<!-- Generated by graphviz version 2.43.0 (0)
 -->
<!-- Title: ios_base::flagsToBase Pages: 1 -->
<svg width="407pt" height="64pt"
 viewBox="0.00 0.00 407.00 64.00" xmlns="http://www.w3.org/2000/svg" xmlns:xlink="http://www.w3.org/1999/xlink">
<g id="graph0" class="graph" transform="scale(1 1) rotate(0) translate(4 60)">
<title>ios_base::flagsToBase</title>
<!-- Node1 -->
<g id="Node000001" class="node">
<title>Node1</title>
<g id="a_Node000001"><a xlink:title=" ">
<polygon fill="#999999" stroke="#666666" points="399,-19 276,-19 276,0 399,0 399,-19"/>
<text text-anchor="middle" x="337.5" y="-7" font-family="Helvetica,sans-Serif" font-size="10.00">ios_base::flagsToBase</text>
</a>
</g>
</g>
<!-- Node2 -->
<g id="Node000002" class="node">
<title>Node2</title>
<g id="a_Node000002"><a xlink:href="../../d0/d43/classostream_a2620fcbd24176bb159f22e1f054ec3f9.xhtml#a2620fcbd24176bb159f22e1f054ec3f9" target="_top" xlink:title=" ">
<polygon fill="white" stroke="#666666" points="240,-38 138,-38 138,-19 240,-19 240,-38"/>
<text text-anchor="middle" x="189" y="-26" font-family="Helvetica,sans-Serif" font-size="10.00">ostream::putNum</text>
</a>
</g>
</g>
<!-- Node1&#45;&gt;Node2 -->
<g id="edge1_Node000001_Node000002" class="edge">
<title>Node1&#45;&gt;Node2</title>
<g id="a_edge1_Node000001_Node000002"><a xlink:title=" ">
<path fill="none" stroke="#63b8ff" d="M265.62,-18.69C257.04,-19.81 248.41,-20.92 240.21,-21.99"/>
<polygon fill="#63b8ff" stroke="#63b8ff" points="266.18,-22.15 275.64,-17.39 265.28,-15.21 266.18,-22.15"/>
</a>
</g>
</g>
<!-- Node3 -->
<g id="Node000003" class="node">
<title>Node3</title>
<g id="a_Node000003"><a xlink:href="../../d0/d43/classostream_ac52196c3baa926cba3539c585464f4ac.xhtml#ac52196c3baa926cba3539c585464f4ac" target="_top" xlink:title=" ">
<polygon fill="white" stroke="#666666" points="102,-19 0,-19 0,0 102,0 102,-19"/>
<text text-anchor="middle" x="51" y="-7" font-family="Helvetica,sans-Serif" font-size="10.00">ostream::putNum</text>
</a>
</g>
</g>
<!-- Node1&#45;&gt;Node3 -->
<g id="edge4_Node000001_Node000003" class="edge">
<title>Node1&#45;&gt;Node3</title>
<g id="a_edge4_Node000001_Node000003"><a xlink:title=" ">
<path fill="none" stroke="#63b8ff" d="M265.56,-9.5C214.72,-9.5 147.49,-9.5 102.16,-9.5"/>
<polygon fill="#63b8ff" stroke="#63b8ff" points="265.82,-13 275.82,-9.5 265.82,-6 265.82,-13"/>
</a>
</g>
</g>
<!-- Node2&#45;&gt;Node2 -->
<g id="edge2_Node000002_Node000002" class="edge">
<title>Node2&#45;&gt;Node2</title>
<g id="a_edge2_Node000002_Node000002"><a xlink:title=" ">
<path fill="none" stroke="#63b8ff" d="M214.67,-47.19C213.27,-52.2 204.71,-56 189,-56 164.47,-56 157.38,-46.73 167.73,-38.08"/>
<polygon fill="#63b8ff" stroke="#63b8ff" points="217.77,-45.56 210.27,-38.08 211.47,-48.61 217.77,-45.56"/>
</a>
</g>
</g>
<!-- Node2&#45;&gt;Node3 -->
<g id="edge3_Node000002_Node000003" class="edge">
<title>Node2&#45;&gt;Node3</title>
<g id="a_edge3_Node000002_Node000003"><a xlink:title=" ">
<path fill="none" stroke="#63b8ff" d="M127.77,-20.09C119.18,-18.89 110.42,-17.66 102.05,-16.49"/>
<polygon fill="#63b8ff" stroke="#63b8ff" points="127.36,-23.56 137.75,-21.48 128.33,-16.63 127.36,-23.56"/>
</a>
</g>
</g>
</g>
</svg>
