<?xml version="1.0" encoding="UTF-8" standalone="no"?>
<!DOCTYPE svg PUBLIC "-//W3C//DTD SVG 1.1//EN"
 "http://www.w3.org/Graphics/SVG/1.1/DTD/svg11.dtd">
<!-- Generated by graphviz version 2.43.0 (0)
 -->
<!-- Title: ios_base::flagsToBase Pages: 1 -->
<svg width="322pt" height="64pt"
 viewBox="0.00 0.00 322.00 64.00" xmlns="http://www.w3.org/2000/svg" xmlns:xlink="http://www.w3.org/1999/xlink">
<g id="graph0" class="graph" transform="scale(1 1) rotate(0) translate(4 60)">
<title>ios_base::flagsToBase</title>
<!-- Node1 -->
<g id="Node000001" class="node">
<title>Node1</title>
<g id="a_Node000001"><a xlink:title=" ">
<polygon fill="#999999" stroke="#666666" points="123,-37 0,-37 0,-18 123,-18 123,-37"/>
<text text-anchor="middle" x="61.5" y="-25" font-family="Helvetica,sans-Serif" font-size="10.00">ios_base::flagsToBase</text>
</a>
</g>
</g>
<!-- Node2 -->
<g id="Node000002" class="node">
<title>Node2</title>
<g id="a_Node000002"><a xlink:href="../../df/dd5/ios_8h_a7bb2c9b489ecd6379fc33328a58c4a18.xhtml#a7bb2c9b489ecd6379fc33328a58c4a18" target="_top" xlink:title=" ">
<polygon fill="white" stroke="#666666" points="194,-56 159,-56 159,-37 194,-37 194,-56"/>
<text text-anchor="middle" x="176.5" y="-44" font-family="Helvetica,sans-Serif" font-size="10.00">hex</text>
</a>
</g>
</g>
<!-- Node1&#45;&gt;Node2 -->
<g id="edge1_Node000001_Node000002" class="edge">
<title>Node1&#45;&gt;Node2</title>
<g id="a_edge1_Node000001_Node000002"><a xlink:title=" ">
<path fill="none" stroke="#63b8ff" d="M119.33,-37.06C129.65,-38.79 139.95,-40.52 148.86,-42.02"/>
<polygon fill="#63b8ff" stroke="#63b8ff" points="148.5,-45.51 158.94,-43.72 149.66,-38.61 148.5,-45.51"/>
</a>
</g>
</g>
<!-- Node4 -->
<g id="Node000004" class="node">
<title>Node4</title>
<g id="a_Node000004"><a xlink:href="../../df/dd5/ios_8h_a7eff9a220e5cca326749c0df77a9ca19.xhtml#a7eff9a220e5cca326749c0df77a9ca19" target="_top" xlink:title=" ">
<polygon fill="white" stroke="#666666" points="192.5,-19 160.5,-19 160.5,0 192.5,0 192.5,-19"/>
<text text-anchor="middle" x="176.5" y="-7" font-family="Helvetica,sans-Serif" font-size="10.00">oct</text>
</a>
</g>
</g>
<!-- Node1&#45;&gt;Node4 -->
<g id="edge3_Node000001_Node000004" class="edge">
<title>Node1&#45;&gt;Node4</title>
<g id="a_edge3_Node000001_Node000004"><a xlink:title=" ">
<path fill="none" stroke="#63b8ff" d="M122.31,-17.97C132.17,-16.4 141.9,-14.85 150.29,-13.52"/>
<polygon fill="#63b8ff" stroke="#63b8ff" points="151.11,-16.93 160.44,-11.9 150.01,-10.02 151.11,-16.93"/>
</a>
</g>
</g>
<!-- Node3 -->
<g id="Node000003" class="node">
<title>Node3</title>
<g id="a_Node000003"><a xlink:href="../../d4/dc1/classios__base_ab5db835cb45bba7684ebf72d9a3cccb4.xhtml#ab5db835cb45bba7684ebf72d9a3cccb4" target="_top" xlink:title=" ">
<polygon fill="white" stroke="#666666" points="314,-37 230,-37 230,-18 314,-18 314,-37"/>
<text text-anchor="middle" x="272" y="-25" font-family="Helvetica,sans-Serif" font-size="10.00">ios_base::setf</text>
</a>
</g>
</g>
<!-- Node2&#45;&gt;Node3 -->
<g id="edge2_Node000002_Node000003" class="edge">
<title>Node2&#45;&gt;Node3</title>
<g id="a_edge2_Node000002_Node000003"><a xlink:title=" ">
<path fill="none" stroke="#63b8ff" d="M194.22,-43.1C201.55,-41.61 210.58,-39.78 219.85,-37.89"/>
<polygon fill="#63b8ff" stroke="#63b8ff" points="220.83,-41.27 229.93,-35.85 219.44,-34.41 220.83,-41.27"/>
</a>
</g>
</g>
<!-- Node4&#45;&gt;Node3 -->
<g id="edge4_Node000004_Node000003" class="edge">
<title>Node4&#45;&gt;Node3</title>
<g id="a_edge4_Node000004_Node000003"><a xlink:title=" ">
<path fill="none" stroke="#63b8ff" d="M192.52,-12.39C200.11,-13.85 209.81,-15.72 219.78,-17.64"/>
<polygon fill="#63b8ff" stroke="#63b8ff" points="219.3,-21.11 229.78,-19.56 220.62,-14.24 219.3,-21.11"/>
</a>
</g>
</g>
</g>
</svg>
