<?xml version="1.0" encoding="UTF-8" standalone="no"?>
<!DOCTYPE svg PUBLIC "-//W3C//DTD SVG 1.1//EN"
 "http://www.w3.org/Graphics/SVG/1.1/DTD/svg11.dtd">
<!-- Generated by graphviz version 2.43.0 (0)
 -->
<!-- Title: timer.hpp Pages: 1 -->
<!--zoomable 467 -->

<svg id="main" version="1.1" xmlns="http://www.w3.org/2000/svg" xmlns:xlink="http://www.w3.org/1999/xlink" xml:space="preserve" onload="init(evt)">
<style type="text/css"><![CDATA[
.node, .edge {opacity: 0.7;}
.node.selected, .edge.selected {opacity: 1;}
.edge:hover path { stroke: red; }
.edge:hover polygon { stroke: red; fill: red; }
]]></style>

<defs>
  <circle id="rim" cx="0" cy="0" r="7"/>
  <circle id="rim2" cx="0" cy="0" r="3.5"/>
  <g id="zoomPlus">
    <use xlink:href="#rim" fill="#404040"><set attributeName="fill" to="#808080" begin="zoomplus.mouseover" end="zoomplus.mouseout"/></use>
    <path d="M-4,0h8M0,-4v8" fill="none" stroke="white" stroke-width="1.5" pointer-events="none"/>
  </g>
  <g id="zoomMin">
    <use xlink:href="#rim" fill="#404040"><set attributeName="fill" to="#808080" begin="zoomminus.mouseover" end="zoomminus.mouseout"/></use>
    <path d="M-4,0h8" fill="none" stroke="white" stroke-width="1.5" pointer-events="none"/>
  </g>
  <g id="arrowUp" transform="translate(30 24)">
    <use xlink:href="#rim"/>
    <path pointer-events="none" fill="none" stroke="white" stroke-width="1.5" d="M0,-3.0v7 M-2.5,-0.5L0,-3.0L2.5,-0.5"/>
  </g>
  <g id="arrowRight" transform="rotate(90) translate(36 -43)">
    <use xlink:href="#rim"/>
    <path pointer-events="none" fill="none" stroke="white" stroke-width="1.5" d="M0,-3.0v7 M-2.5,-0.5L0,-3.0L2.5,-0.5"/>
  </g>
  <g id="arrowDown" transform="rotate(180) translate(-30 -48)">
    <use xlink:href="#rim"/>
    <path pointer-events="none" fill="none" stroke="white" stroke-width="1.5" d="M0,-3.0v7 M-2.5,-0.5L0,-3.0L2.5,-0.5"/>
  </g>
  <g id="arrowLeft" transform="rotate(270) translate(-36 17)">
    <use xlink:href="#rim"/>
    <path pointer-events="none" fill="none" stroke="white" stroke-width="1.5" d="M0,-3.0v7 M-2.5,-0.5L0,-3.0L2.5,-0.5"/>
  </g>
  <g id="resetDef">
    <use xlink:href="#rim2" fill="#404040"><set attributeName="fill" to="#808080" begin="reset.mouseover" end="reset.mouseout"/></use>
  </g>
</defs>
<script type="application/ecmascript">
var viewWidth = 1314;
var viewHeight = 467;
var sectionId = 'dynsection-1';
</script>
<script type="application/ecmascript" xlink:href="../../svg.min.js"/>
<svg id="graph" class="graph">
<g id="viewport">
<title>timer.hpp</title>
<!-- Node1 -->
<g id="Node000001" class="node">
<title>Node1</title>
<g id="a_Node000001"><a xlink:title=" ">
<polygon fill="#999999" stroke="#666666" points="1127.5,-459 1064.5,-459 1064.5,-440 1127.5,-440 1127.5,-459"/>
<text text-anchor="middle" x="1096" y="-447" font-family="Helvetica,sans-Serif" font-size="10.00">timer.hpp</text>
</a>
</g>
</g>
<!-- Node2 -->
<g id="Node000002" class="node">
<title>Node2</title>
<g id="a_Node000002"><a xlink:href="../../df/d0a/buttons_8hpp.xhtml" target="_top" xlink:title=" ">
<polygon fill="white" stroke="#666666" points="847,-404 773,-404 773,-385 847,-385 847,-404"/>
<text text-anchor="middle" x="810" y="-392" font-family="Helvetica,sans-Serif" font-size="10.00">buttons.hpp</text>
</a>
</g>
</g>
<!-- Node1&#45;&gt;Node2 -->
<g id="edge1_Node000001_Node000002" class="edge">
<title>Node1&#45;&gt;Node2</title>
<g id="a_edge1_Node000001_Node000002"><a xlink:title=" ">
<path fill="none" stroke="#63b8ff" d="M1054.41,-440.79C998.7,-430.47 900.67,-412.3 847.26,-402.4"/>
<polygon fill="#63b8ff" stroke="#63b8ff" points="1053.83,-444.24 1064.3,-442.63 1055.11,-437.36 1053.83,-444.24"/>
</a>
</g>
</g>
<!-- Node4 -->
<g id="Node000004" class="node">
<title>Node4</title>
<g id="a_Node000004"><a xlink:href="../../d0/d00/main_8hpp.xhtml" target="_top" xlink:title=" ">
<polygon fill="white" stroke="#666666" points="740,-349 678,-349 678,-330 740,-330 740,-349"/>
<text text-anchor="middle" x="709" y="-337" font-family="Helvetica,sans-Serif" font-size="10.00">main.hpp</text>
</a>
</g>
</g>
<!-- Node1&#45;&gt;Node4 -->
<g id="edge63_Node000001_Node000004" class="edge">
<title>Node1&#45;&gt;Node4</title>
<g id="a_edge63_Node000001_Node000004"><a xlink:title=" ">
<path fill="none" stroke="#63b8ff" d="M1055.39,-437.17C977.57,-415.45 808.99,-368.4 739.69,-349.07"/>
<polygon fill="#63b8ff" stroke="#63b8ff" points="1054.74,-440.62 1065.31,-439.94 1056.62,-433.88 1054.74,-440.62"/>
</a>
</g>
</g>
<!-- Node37 -->
<g id="Node000037" class="node">
<title>Node37</title>
<g id="a_Node000037"><a xlink:href="../../d4/d76/led_8hpp.xhtml" target="_top" xlink:title=" ">
<polygon fill="white" stroke="#666666" points="1120.5,-239 1067.5,-239 1067.5,-220 1120.5,-220 1120.5,-239"/>
<text text-anchor="middle" x="1094" y="-227" font-family="Helvetica,sans-Serif" font-size="10.00">led.hpp</text>
</a>
</g>
</g>
<!-- Node1&#45;&gt;Node37 -->
<g id="edge62_Node000001_Node000037" class="edge">
<title>Node1&#45;&gt;Node37</title>
<g id="a_edge62_Node000001_Node000037"><a xlink:title=" ">
<path fill="none" stroke="#63b8ff" d="M1115.96,-433.85C1154.75,-403.55 1233.36,-332.06 1196,-275 1187.32,-261.75 1147.9,-247.21 1120.69,-238.48"/>
<polygon fill="#63b8ff" stroke="#63b8ff" points="1113.73,-431.14 1107.91,-439.99 1117.98,-436.71 1113.73,-431.14"/>
</a>
</g>
</g>
<!-- Node40 -->
<g id="Node000040" class="node">
<title>Node40</title>
<g id="a_Node000040"><a xlink:href="../../dc/de5/timer_8cpp.xhtml" target="_top" xlink:title=" ">
<polygon fill="white" stroke="#666666" points="1306,-404 1244,-404 1244,-385 1306,-385 1306,-404"/>
<text text-anchor="middle" x="1275" y="-392" font-family="Helvetica,sans-Serif" font-size="10.00">timer.cpp</text>
</a>
</g>
</g>
<!-- Node1&#45;&gt;Node40 -->
<g id="edge64_Node000001_Node000040" class="edge">
<title>Node1&#45;&gt;Node40</title>
<g id="a_edge64_Node000001_Node000040"><a xlink:title=" ">
<path fill="none" stroke="#63b8ff" d="M1134.65,-437.06C1168.11,-427.15 1215.75,-413.04 1246.02,-404.08"/>
<polygon fill="#63b8ff" stroke="#63b8ff" points="1133.35,-433.79 1124.76,-439.98 1135.34,-440.5 1133.35,-433.79"/>
</a>
</g>
</g>
<!-- Node3 -->
<g id="Node000003" class="node">
<title>Node3</title>
<g id="a_Node000003"><a xlink:href="../../d9/d52/buttons_8cpp.xhtml" target="_top" xlink:title=" ">
<polygon fill="white" stroke="#666666" points="660,-349 586,-349 586,-330 660,-330 660,-349"/>
<text text-anchor="middle" x="623" y="-337" font-family="Helvetica,sans-Serif" font-size="10.00">buttons.cpp</text>
</a>
</g>
</g>
<!-- Node2&#45;&gt;Node3 -->
<g id="edge2_Node000002_Node000003" class="edge">
<title>Node2&#45;&gt;Node3</title>
<g id="a_edge2_Node000002_Node000003"><a xlink:title=" ">
<path fill="none" stroke="#63b8ff" d="M770.07,-382.18C735.1,-372.27 685.04,-358.08 653.28,-349.08"/>
<polygon fill="#63b8ff" stroke="#63b8ff" points="769.38,-385.63 779.96,-384.98 771.29,-378.89 769.38,-385.63"/>
</a>
</g>
</g>
<!-- Node2&#45;&gt;Node4 -->
<g id="edge3_Node000002_Node000004" class="edge">
<title>Node2&#45;&gt;Node4</title>
<g id="a_edge3_Node000002_Node000004"><a xlink:title=" ">
<path fill="none" stroke="#63b8ff" d="M784.72,-380.23C766.2,-370.51 741.58,-357.6 725.52,-349.17"/>
<polygon fill="#63b8ff" stroke="#63b8ff" points="783.29,-383.44 793.77,-384.98 786.54,-377.24 783.29,-383.44"/>
</a>
</g>
</g>
<!-- Node5 -->
<g id="Node000005" class="node">
<title>Node5</title>
<g id="a_Node000005"><a xlink:href="../../db/d0c/acquisition_8hpp.xhtml" target="_top" xlink:title=" ">
<polygon fill="white" stroke="#666666" points="177.5,-294 86.5,-294 86.5,-275 177.5,-275 177.5,-294"/>
<text text-anchor="middle" x="132" y="-282" font-family="Helvetica,sans-Serif" font-size="10.00">acquisition.hpp</text>
</a>
</g>
</g>
<!-- Node4&#45;&gt;Node5 -->
<g id="edge4_Node000004_Node000005" class="edge">
<title>Node4&#45;&gt;Node5</title>
<g id="a_edge4_Node000004_Node000005"><a xlink:title=" ">
<path fill="none" stroke="#63b8ff" d="M667.48,-329.97C456.79,-300.36 400.06,-316.56 192,-294 187.4,-293.5 182.61,-292.92 177.82,-292.31"/>
<polygon fill="#63b8ff" stroke="#63b8ff" points="667.23,-333.47 677.63,-331.42 668.22,-326.54 667.23,-333.47"/>
</a>
</g>
</g>
<!-- Node7 -->
<g id="Node000007" class="node">
<title>Node7</title>
<g id="a_Node000007"><a xlink:href="../../d8/dc9/maintenance_8hpp.xhtml" target="_top" xlink:title=" ">
<polygon fill="white" stroke="#666666" points="221.5,-184 120.5,-184 120.5,-165 221.5,-165 221.5,-184"/>
<text text-anchor="middle" x="171" y="-172" font-family="Helvetica,sans-Serif" font-size="10.00">maintenance.hpp</text>
</a>
</g>
</g>
<!-- Node4&#45;&gt;Node7 -->
<g id="edge48_Node000004_Node000007" class="edge">
<title>Node4&#45;&gt;Node7</title>
<g id="a_edge48_Node000004_Node000007"><a xlink:title=" ">
<path fill="none" stroke="#63b8ff" d="M668.03,-331.37C665.3,-330.87 662.61,-330.4 660,-330 498.92,-305.02 444.3,-359.43 295,-294 236.37,-268.3 185.6,-206.68 173.07,-184.04"/>
<polygon fill="#63b8ff" stroke="#63b8ff" points="667.47,-334.83 677.95,-333.29 668.8,-327.96 667.47,-334.83"/>
</a>
</g>
</g>
<!-- Node9 -->
<g id="Node000009" class="node">
<title>Node9</title>
<g id="a_Node000009"><a xlink:href="../../d5/d98/sd_8hpp.xhtml" target="_top" xlink:title=" ">
<polygon fill="white" stroke="#666666" points="195.5,-239 146.5,-239 146.5,-220 195.5,-220 195.5,-239"/>
<text text-anchor="middle" x="171" y="-227" font-family="Helvetica,sans-Serif" font-size="10.00">sd.hpp</text>
</a>
</g>
</g>
<!-- Node4&#45;&gt;Node9 -->
<g id="edge58_Node000004_Node000009" class="edge">
<title>Node4&#45;&gt;Node9</title>
<g id="a_edge58_Node000004_Node000009"><a xlink:title=" ">
<path fill="none" stroke="#63b8ff" d="M668.03,-331.33C665.3,-330.84 662.61,-330.39 660,-330 474.24,-302.43 412.87,-364.95 239,-294 209.16,-281.82 182.03,-253.82 172.88,-239.42"/>
<polygon fill="#63b8ff" stroke="#63b8ff" points="667.48,-334.79 677.96,-333.24 668.8,-327.92 667.48,-334.79"/>
</a>
</g>
</g>
<!-- Node11 -->
<g id="Node000011" class="node">
<title>Node11</title>
<g id="a_Node000011"><a xlink:href="../../df/d04/standard_8hpp.xhtml" target="_top" xlink:title=" ">
<polygon fill="white" stroke="#666666" points="367,-129 287,-129 287,-110 367,-110 367,-129"/>
<text text-anchor="middle" x="327" y="-117" font-family="Helvetica,sans-Serif" font-size="10.00">standard.hpp</text>
</a>
</g>
</g>
<!-- Node4&#45;&gt;Node11 -->
<g id="edge60_Node000004_Node000011" class="edge">
<title>Node4&#45;&gt;Node11</title>
<g id="a_edge60_Node000004_Node000011"><a xlink:title=" ">
<path fill="none" stroke="#63b8ff" d="M668.02,-331.42C665.29,-330.91 662.6,-330.42 660,-330 590.68,-318.69 396.79,-342.51 346,-294 298.78,-248.9 310.94,-157.96 321.46,-129.34"/>
<polygon fill="#63b8ff" stroke="#63b8ff" points="667.46,-334.87 677.94,-333.36 668.8,-328 667.46,-334.87"/>
</a>
</g>
</g>
<!-- Node13 -->
<g id="Node000013" class="node">
<title>Node13</title>
<g id="a_Node000013"><a xlink:href="../../de/d53/brightness_8hpp.xhtml" target="_top" xlink:title=" ">
<polygon fill="white" stroke="#666666" points="453.5,-294 364.5,-294 364.5,-275 453.5,-275 453.5,-294"/>
<text text-anchor="middle" x="409" y="-282" font-family="Helvetica,sans-Serif" font-size="10.00">brightness.hpp</text>
</a>
</g>
</g>
<!-- Node4&#45;&gt;Node13 -->
<g id="edge16_Node000004_Node000013" class="edge">
<title>Node4&#45;&gt;Node13</title>
<g id="a_edge16_Node000004_Node000013"><a xlink:title=" ">
<path fill="none" stroke="#63b8ff" d="M667.99,-331.57C665.27,-331.03 662.59,-330.5 660,-330 620.87,-322.5 514.82,-304.64 453.72,-293.96"/>
<polygon fill="#63b8ff" stroke="#63b8ff" points="667.41,-335.03 677.9,-333.58 668.79,-328.17 667.41,-335.03"/>
</a>
</g>
</g>
<!-- Node15 -->
<g id="Node000015" class="node">
<title>Node15</title>
<g id="a_Node000015"><a xlink:href="../../dc/d0a/configuration_8hpp.xhtml" target="_top" xlink:title=" ">
<polygon fill="white" stroke="#666666" points="572.5,-294 471.5,-294 471.5,-275 572.5,-275 572.5,-294"/>
<text text-anchor="middle" x="522" y="-282" font-family="Helvetica,sans-Serif" font-size="10.00">configuration.hpp</text>
</a>
</g>
</g>
<!-- Node4&#45;&gt;Node15 -->
<g id="edge19_Node000004_Node000015" class="edge">
<title>Node4&#45;&gt;Node15</title>
<g id="a_edge19_Node000004_Node000015"><a xlink:title=" ">
<path fill="none" stroke="#63b8ff" d="M667.78,-328.36C630.88,-318.42 578.15,-303.45 547.16,-294.08"/>
<polygon fill="#63b8ff" stroke="#63b8ff" points="667.17,-331.82 677.73,-331.02 668.97,-325.06 667.17,-331.82"/>
</a>
</g>
</g>
<!-- Node17 -->
<g id="Node000017" class="node">
<title>Node17</title>
<g id="a_Node000017"><a xlink:href="../../d0/d42/economy_8hpp.xhtml" target="_top" xlink:title=" ">
<polygon fill="white" stroke="#666666" points="671.5,-294 590.5,-294 590.5,-275 671.5,-275 671.5,-294"/>
<text text-anchor="middle" x="631" y="-282" font-family="Helvetica,sans-Serif" font-size="10.00">economy.hpp</text>
</a>
</g>
</g>
<!-- Node4&#45;&gt;Node17 -->
<g id="edge22_Node000004_Node000017" class="edge">
<title>Node4&#45;&gt;Node17</title>
<g id="a_edge22_Node000004_Node000017"><a xlink:title=" ">
<path fill="none" stroke="#63b8ff" d="M682.68,-324.7C667.25,-315.04 648.99,-302.44 638.61,-294.17"/>
<polygon fill="#63b8ff" stroke="#63b8ff" points="680.99,-327.77 691.35,-329.98 684.64,-321.79 680.99,-327.77"/>
</a>
</g>
</g>
<!-- Node19 -->
<g id="Node000019" class="node">
<title>Node19</title>
<g id="a_Node000019"><a xlink:href="../../de/d1e/humidity_8hpp.xhtml" target="_top" xlink:title=" ">
<polygon fill="white" stroke="#666666" points="709,-74 629,-74 629,-55 709,-55 709,-74"/>
<text text-anchor="middle" x="669" y="-62" font-family="Helvetica,sans-Serif" font-size="10.00">humidity.hpp</text>
</a>
</g>
</g>
<!-- Node4&#45;&gt;Node19 -->
<g id="edge25_Node000004_Node000019" class="edge">
<title>Node4&#45;&gt;Node19</title>
<g id="a_edge25_Node000004_Node000019"><a xlink:title=" ">
<path fill="none" stroke="#63b8ff" d="M702.65,-319.85C690.27,-266.09 668.07,-112.19 667.69,-74.11"/>
<polygon fill="#63b8ff" stroke="#63b8ff" points="699.3,-320.88 705.13,-329.73 706.08,-319.17 699.3,-320.88"/>
</a>
</g>
</g>
<!-- Node21 -->
<g id="Node000021" class="node">
<title>Node21</title>
<g id="a_Node000021"><a xlink:href="../../db/d42/interpreter_8hpp.xhtml" target="_top" xlink:title=" ">
<polygon fill="white" stroke="#666666" points="835.5,-294 746.5,-294 746.5,-275 835.5,-275 835.5,-294"/>
<text text-anchor="middle" x="791" y="-282" font-family="Helvetica,sans-Serif" font-size="10.00">interpreter.hpp</text>
</a>
</g>
</g>
<!-- Node4&#45;&gt;Node21 -->
<g id="edge28_Node000004_Node000021" class="edge">
<title>Node4&#45;&gt;Node21</title>
<g id="a_edge28_Node000004_Node000021"><a xlink:title=" ">
<path fill="none" stroke="#63b8ff" d="M730.78,-324.42C745.66,-314.81 764.91,-302.37 777.59,-294.17"/>
<polygon fill="#63b8ff" stroke="#63b8ff" points="728.67,-321.62 722.17,-329.98 732.47,-327.5 728.67,-321.62"/>
</a>
</g>
</g>
<!-- Node23 -->
<g id="Node000023" class="node">
<title>Node23</title>
<g id="a_Node000023"><a xlink:href="../../d1/dc5/serial_8hpp.xhtml" target="_top" xlink:title=" ">
<polygon fill="white" stroke="#666666" points="915.5,-239 850.5,-239 850.5,-220 915.5,-220 915.5,-239"/>
<text text-anchor="middle" x="883" y="-227" font-family="Helvetica,sans-Serif" font-size="10.00">serial.hpp</text>
</a>
</g>
</g>
<!-- Node4&#45;&gt;Node23 -->
<g id="edge59_Node000004_Node000023" class="edge">
<title>Node4&#45;&gt;Node23</title>
<g id="a_edge59_Node000004_Node000023"><a xlink:title=" ">
<path fill="none" stroke="#63b8ff" d="M750.18,-332.61C778.92,-326.78 816.85,-315.48 844,-294 862.67,-279.23 874.65,-252.89 879.91,-239.24"/>
<polygon fill="#63b8ff" stroke="#63b8ff" points="749.22,-329.22 740.04,-334.51 750.51,-336.1 749.22,-329.22"/>
</a>
</g>
</g>
<!-- Node27 -->
<g id="Node000027" class="node">
<title>Node27</title>
<g id="a_Node000027"><a xlink:href="../../d5/ddb/pressure_8hpp.xhtml" target="_top" xlink:title=" ">
<polygon fill="white" stroke="#666666" points="957,-74 877,-74 877,-55 957,-55 957,-74"/>
<text text-anchor="middle" x="917" y="-62" font-family="Helvetica,sans-Serif" font-size="10.00">pressure.hpp</text>
</a>
</g>
</g>
<!-- Node4&#45;&gt;Node27 -->
<g id="edge57_Node000004_Node000027" class="edge">
<title>Node4&#45;&gt;Node27</title>
<g id="a_edge57_Node000004_Node000027"><a xlink:title=" ">
<path fill="none" stroke="#63b8ff" d="M750.16,-334.1C802.14,-326.03 887.72,-303.24 915,-239 939.87,-180.45 918.99,-100.55 915.92,-74.27"/>
<polygon fill="#63b8ff" stroke="#63b8ff" points="749.64,-330.64 740.24,-335.53 750.63,-337.57 749.64,-330.64"/>
</a>
</g>
</g>
<!-- Node29 -->
<g id="Node000029" class="node">
<title>Node29</title>
<g id="a_Node000029"><a xlink:href="../../dc/d32/temperature_8hpp.xhtml" target="_top" xlink:title=" ">
<polygon fill="white" stroke="#666666" points="1073,-74 975,-74 975,-55 1073,-55 1073,-74"/>
<text text-anchor="middle" x="1024" y="-62" font-family="Helvetica,sans-Serif" font-size="10.00">temperature.hpp</text>
</a>
</g>
</g>
<!-- Node4&#45;&gt;Node29 -->
<g id="edge61_Node000004_Node000029" class="edge">
<title>Node4&#45;&gt;Node29</title>
<g id="a_edge61_Node000004_Node000029"><a xlink:title=" ">
<path fill="none" stroke="#63b8ff" d="M750.24,-337.38C791.68,-334.29 855.6,-324.36 902,-294 983.84,-240.45 1008.59,-109.07 1019.62,-74.14"/>
<polygon fill="#63b8ff" stroke="#63b8ff" points="749.96,-333.89 740.21,-338.03 750.41,-340.88 749.96,-333.89"/>
</a>
</g>
</g>
<!-- Node35 -->
<g id="Node000035" class="node">
<title>Node35</title>
<g id="a_Node000035"><a xlink:href="../../de/dfb/src_2main_8cpp.xhtml" target="_top" xlink:title=" ">
<polygon fill="white" stroke="#666666" points="1066,-294 1004,-294 1004,-275 1066,-275 1066,-294"/>
<text text-anchor="middle" x="1035" y="-282" font-family="Helvetica,sans-Serif" font-size="10.00">main.cpp</text>
</a>
</g>
</g>
<!-- Node4&#45;&gt;Node35 -->
<g id="edge47_Node000004_Node000035" class="edge">
<title>Node4&#45;&gt;Node35</title>
<g id="a_edge47_Node000004_Node000035"><a xlink:title=" ">
<path fill="none" stroke="#63b8ff" d="M750.26,-332.36C805.1,-324.1 904.96,-308.76 990,-294 994.39,-293.24 999.01,-292.4 1003.55,-291.56"/>
<polygon fill="#63b8ff" stroke="#63b8ff" points="749.61,-328.92 740.24,-333.86 750.65,-335.84 749.61,-328.92"/>
</a>
</g>
</g>
<!-- Node36 -->
<g id="Node000036" class="node">
<title>Node36</title>
<g id="a_Node000036"><a xlink:href="../../d1/dfa/mode_8hpp.xhtml" target="_top" xlink:title=" ">
<polygon fill="white" stroke="#666666" points="1187.5,-294 1122.5,-294 1122.5,-275 1187.5,-275 1187.5,-294"/>
<text text-anchor="middle" x="1155" y="-282" font-family="Helvetica,sans-Serif" font-size="10.00">mode.hpp</text>
</a>
</g>
</g>
<!-- Node4&#45;&gt;Node36 -->
<g id="edge49_Node000004_Node000036" class="edge">
<title>Node4&#45;&gt;Node36</title>
<g id="a_edge49_Node000004_Node000036"><a xlink:title=" ">
<path fill="none" stroke="#63b8ff" d="M750.37,-334.3C821.8,-327.38 972.23,-312.51 1099,-294 1106.47,-292.91 1114.56,-291.52 1122.3,-290.18"/>
<polygon fill="#63b8ff" stroke="#63b8ff" points="749.63,-330.85 740.01,-335.3 750.3,-337.82 749.63,-330.85"/>
</a>
</g>
</g>
<!-- Node6 -->
<g id="Node000006" class="node">
<title>Node6</title>
<g id="a_Node000006"><a xlink:href="../../d6/d30/acquisition_8cpp.xhtml" target="_top" xlink:title=" ">
<polygon fill="white" stroke="#666666" points="90,-239 0,-239 0,-220 90,-220 90,-239"/>
<text text-anchor="middle" x="45" y="-227" font-family="Helvetica,sans-Serif" font-size="10.00">acquisition.cpp</text>
</a>
</g>
</g>
<!-- Node5&#45;&gt;Node6 -->
<g id="edge5_Node000005_Node000006" class="edge">
<title>Node5&#45;&gt;Node6</title>
<g id="a_edge5_Node000005_Node000006"><a xlink:title=" ">
<path fill="none" stroke="#63b8ff" d="M109.34,-269.7C93.49,-260.04 72.81,-247.44 59.23,-239.17"/>
<polygon fill="#63b8ff" stroke="#63b8ff" points="107.66,-272.77 118.02,-274.98 111.3,-266.79 107.66,-272.77"/>
</a>
</g>
</g>
<!-- Node5&#45;&gt;Node7 -->
<g id="edge6_Node000005_Node000007" class="edge">
<title>Node5&#45;&gt;Node7</title>
<g id="a_edge6_Node000005_Node000007"><a xlink:title=" ">
<path fill="none" stroke="#63b8ff" d="M130.74,-264.89C130.5,-251.9 131.5,-234.38 137,-220 142.42,-205.83 153.86,-192.41 161.97,-184.08"/>
<polygon fill="#63b8ff" stroke="#63b8ff" points="127.24,-265.11 131.18,-274.95 134.24,-264.8 127.24,-265.11"/>
</a>
</g>
</g>
<!-- Node5&#45;&gt;Node9 -->
<g id="edge9_Node000005_Node000009" class="edge">
<title>Node5&#45;&gt;Node9</title>
<g id="a_edge9_Node000005_Node000009"><a xlink:title=" ">
<path fill="none" stroke="#63b8ff" d="M144.38,-266.67C151.14,-257.5 159.21,-246.52 164.68,-239.09"/>
<polygon fill="#63b8ff" stroke="#63b8ff" points="141.55,-264.62 138.44,-274.75 147.19,-268.77 141.55,-264.62"/>
</a>
</g>
</g>
<!-- Node5&#45;&gt;Node11 -->
<g id="edge13_Node000005_Node000011" class="edge">
<title>Node5&#45;&gt;Node11</title>
<g id="a_edge13_Node000005_Node000011"><a xlink:title=" ">
<path fill="none" stroke="#63b8ff" d="M156.87,-269.9C171.15,-261.65 189.15,-250.53 204,-239 251.31,-202.27 300.54,-149.72 319.21,-129.19"/>
<polygon fill="#63b8ff" stroke="#63b8ff" points="155.06,-266.9 148.09,-274.87 158.51,-272.99 155.06,-266.9"/>
</a>
</g>
</g>
<!-- Node7&#45;&gt;Node4 -->
<g id="edge7_Node000007_Node000004" class="edge">
<title>Node7&#45;&gt;Node4</title>
<g id="a_edge7_Node000007_Node000004"><a xlink:title=" ">
<path fill="none" stroke="#63b8ff" d="M188.49,-191.37C213.18,-217.92 259.86,-270.71 313,-294 462.3,-359.43 516.92,-305.02 678,-330 678.14,-330.02 678.28,-330.04 678.42,-330.07"/>
<polygon fill="#63b8ff" stroke="#63b8ff" points="190.97,-188.9 181.55,-184.04 185.88,-193.71 190.97,-188.9"/>
</a>
</g>
</g>
<!-- Node8 -->
<g id="Node000008" class="node">
<title>Node8</title>
<g id="a_Node000008"><a xlink:href="../../d6/d46/maintenance_8cpp.xhtml" target="_top" xlink:title=" ">
<polygon fill="white" stroke="#666666" points="221.5,-129 120.5,-129 120.5,-110 221.5,-110 221.5,-129"/>
<text text-anchor="middle" x="171" y="-117" font-family="Helvetica,sans-Serif" font-size="10.00">maintenance.cpp</text>
</a>
</g>
</g>
<!-- Node7&#45;&gt;Node8 -->
<g id="edge8_Node000007_Node000008" class="edge">
<title>Node7&#45;&gt;Node8</title>
<g id="a_edge8_Node000007_Node000008"><a xlink:title=" ">
<path fill="none" stroke="#63b8ff" d="M171,-154.66C171,-145.93 171,-135.99 171,-129.09"/>
<polygon fill="#63b8ff" stroke="#63b8ff" points="167.5,-154.75 171,-164.75 174.5,-154.75 167.5,-154.75"/>
</a>
</g>
</g>
<!-- Node9&#45;&gt;Node4 -->
<g id="edge10_Node000009_Node000004" class="edge">
<title>Node9&#45;&gt;Node4</title>
<g id="a_edge10_Node000009_Node000004"><a xlink:title=" ">
<path fill="none" stroke="#63b8ff" d="M191.12,-245.97C207.46,-261.14 231.22,-283.48 257,-294 430.87,-364.95 492.24,-302.43 678,-330 678.14,-330.02 678.28,-330.04 678.42,-330.06"/>
<polygon fill="#63b8ff" stroke="#63b8ff" points="193.46,-243.36 183.72,-239.18 188.72,-248.52 193.46,-243.36"/>
</a>
</g>
</g>
<!-- Node9&#45;&gt;Node7 -->
<g id="edge11_Node000009_Node000007" class="edge">
<title>Node9&#45;&gt;Node7</title>
<g id="a_edge11_Node000009_Node000007"><a xlink:title=" ">
<path fill="none" stroke="#63b8ff" d="M171,-209.66C171,-200.93 171,-190.99 171,-184.09"/>
<polygon fill="#63b8ff" stroke="#63b8ff" points="167.5,-209.75 171,-219.75 174.5,-209.75 167.5,-209.75"/>
</a>
</g>
</g>
<!-- Node10 -->
<g id="Node000010" class="node">
<title>Node10</title>
<g id="a_Node000010"><a xlink:href="../../d0/ded/sd_8cpp.xhtml" target="_top" xlink:title=" ">
<polygon fill="white" stroke="#666666" points="102,-184 54,-184 54,-165 102,-165 102,-184"/>
<text text-anchor="middle" x="78" y="-172" font-family="Helvetica,sans-Serif" font-size="10.00">sd.cpp</text>
</a>
</g>
</g>
<!-- Node9&#45;&gt;Node10 -->
<g id="edge12_Node000009_Node000010" class="edge">
<title>Node9&#45;&gt;Node10</title>
<g id="a_edge12_Node000009_Node000010"><a xlink:title=" ">
<path fill="none" stroke="#63b8ff" d="M147.25,-214.97C130.25,-205.28 107.87,-192.52 93.21,-184.17"/>
<polygon fill="#63b8ff" stroke="#63b8ff" points="145.64,-218.07 156.06,-219.98 149.1,-211.99 145.64,-218.07"/>
</a>
</g>
</g>
<!-- Node11&#45;&gt;Node4 -->
<g id="edge14_Node000011_Node000004" class="edge">
<title>Node11&#45;&gt;Node4</title>
<g id="a_edge14_Node000011_Node000004"><a xlink:title=" ">
<path fill="none" stroke="#63b8ff" d="M328.66,-139.4C327.13,-175.29 321.39,-253.3 364,-294 414.79,-342.51 608.68,-318.69 678,-330 678.14,-330.02 678.28,-330.05 678.42,-330.07"/>
<polygon fill="#63b8ff" stroke="#63b8ff" points="332.16,-139.43 328.94,-129.34 325.17,-139.23 332.16,-139.43"/>
</a>
</g>
</g>
<!-- Node12 -->
<g id="Node000012" class="node">
<title>Node12</title>
<g id="a_Node000012"><a xlink:href="../../df/d92/standard_8cpp.xhtml" target="_top" xlink:title=" ">
<polygon fill="white" stroke="#666666" points="367,-74 287,-74 287,-55 367,-55 367,-74"/>
<text text-anchor="middle" x="327" y="-62" font-family="Helvetica,sans-Serif" font-size="10.00">standard.cpp</text>
</a>
</g>
</g>
<!-- Node11&#45;&gt;Node12 -->
<g id="edge15_Node000011_Node000012" class="edge">
<title>Node11&#45;&gt;Node12</title>
<g id="a_edge15_Node000011_Node000012"><a xlink:title=" ">
<path fill="none" stroke="#63b8ff" d="M327,-99.66C327,-90.93 327,-80.99 327,-74.09"/>
<polygon fill="#63b8ff" stroke="#63b8ff" points="323.5,-99.75 327,-109.75 330.5,-99.75 323.5,-99.75"/>
</a>
</g>
</g>
<!-- Node13&#45;&gt;Node4 -->
<g id="edge18_Node000013_Node000004" class="edge">
<title>Node13&#45;&gt;Node4</title>
<g id="a_edge18_Node000013_Node000004"><a xlink:title=" ">
<path fill="none" stroke="#63b8ff" d="M463.55,-293.56C530.12,-304.18 638.38,-322.4 678,-330 678.14,-330.03 678.28,-330.05 678.42,-330.08"/>
<polygon fill="#63b8ff" stroke="#63b8ff" points="464.07,-290.1 453.64,-291.99 462.97,-297.01 464.07,-290.1"/>
</a>
</g>
</g>
<!-- Node14 -->
<g id="Node000014" class="node">
<title>Node14</title>
<g id="a_Node000014"><a xlink:href="../../d8/d9d/brightness_8cpp.xhtml" target="_top" xlink:title=" ">
<polygon fill="white" stroke="#666666" points="452,-239 364,-239 364,-220 452,-220 452,-239"/>
<text text-anchor="middle" x="408" y="-227" font-family="Helvetica,sans-Serif" font-size="10.00">brightness.cpp</text>
</a>
</g>
</g>
<!-- Node13&#45;&gt;Node14 -->
<g id="edge17_Node000013_Node000014" class="edge">
<title>Node13&#45;&gt;Node14</title>
<g id="a_edge17_Node000013_Node000014"><a xlink:title=" ">
<path fill="none" stroke="#63b8ff" d="M408.64,-264.66C408.48,-255.93 408.29,-245.99 408.16,-239.09"/>
<polygon fill="#63b8ff" stroke="#63b8ff" points="405.15,-264.82 408.83,-274.75 412.15,-264.68 405.15,-264.82"/>
</a>
</g>
</g>
<!-- Node15&#45;&gt;Node4 -->
<g id="edge21_Node000015_Node000004" class="edge">
<title>Node15&#45;&gt;Node4</title>
<g id="a_edge21_Node000015_Node000004"><a xlink:title=" ">
<path fill="none" stroke="#63b8ff" d="M567.38,-296.76C604.08,-306.7 654.26,-320.97 684.07,-329.98"/>
<polygon fill="#63b8ff" stroke="#63b8ff" points="567.98,-293.3 557.41,-294.08 566.16,-300.06 567.98,-293.3"/>
</a>
</g>
</g>
<!-- Node16 -->
<g id="Node000016" class="node">
<title>Node16</title>
<g id="a_Node000016"><a xlink:href="../../df/d22/configuration_8cpp.xhtml" target="_top" xlink:title=" ">
<polygon fill="white" stroke="#666666" points="571.5,-239 470.5,-239 470.5,-220 571.5,-220 571.5,-239"/>
<text text-anchor="middle" x="521" y="-227" font-family="Helvetica,sans-Serif" font-size="10.00">configuration.cpp</text>
</a>
</g>
</g>
<!-- Node15&#45;&gt;Node16 -->
<g id="edge20_Node000015_Node000016" class="edge">
<title>Node15&#45;&gt;Node16</title>
<g id="a_edge20_Node000015_Node000016"><a xlink:title=" ">
<path fill="none" stroke="#63b8ff" d="M521.64,-264.66C521.48,-255.93 521.29,-245.99 521.16,-239.09"/>
<polygon fill="#63b8ff" stroke="#63b8ff" points="518.15,-264.82 521.83,-274.75 525.15,-264.68 518.15,-264.82"/>
</a>
</g>
</g>
<!-- Node17&#45;&gt;Node4 -->
<g id="edge24_Node000017_Node000004" class="edge">
<title>Node17&#45;&gt;Node4</title>
<g id="a_edge24_Node000017_Node000004"><a xlink:title=" ">
<path fill="none" stroke="#63b8ff" d="M657.61,-299.49C673.08,-309.18 691.3,-321.77 701.58,-329.98"/>
<polygon fill="#63b8ff" stroke="#63b8ff" points="659.27,-296.39 648.91,-294.17 655.62,-302.37 659.27,-296.39"/>
</a>
</g>
</g>
<!-- Node18 -->
<g id="Node000018" class="node">
<title>Node18</title>
<g id="a_Node000018"><a xlink:href="../../d9/ddd/economy_8cpp.xhtml" target="_top" xlink:title=" ">
<polygon fill="white" stroke="#666666" points="670,-239 590,-239 590,-220 670,-220 670,-239"/>
<text text-anchor="middle" x="630" y="-227" font-family="Helvetica,sans-Serif" font-size="10.00">economy.cpp</text>
</a>
</g>
</g>
<!-- Node17&#45;&gt;Node18 -->
<g id="edge23_Node000017_Node000018" class="edge">
<title>Node17&#45;&gt;Node18</title>
<g id="a_edge23_Node000017_Node000018"><a xlink:title=" ">
<path fill="none" stroke="#63b8ff" d="M630.64,-264.66C630.48,-255.93 630.29,-245.99 630.16,-239.09"/>
<polygon fill="#63b8ff" stroke="#63b8ff" points="627.15,-264.82 630.83,-274.75 634.15,-264.68 627.15,-264.82"/>
</a>
</g>
</g>
<!-- Node19&#45;&gt;Node4 -->
<g id="edge27_Node000019_Node000004" class="edge">
<title>Node19&#45;&gt;Node4</title>
<g id="a_edge27_Node000019_Node000004"><a xlink:title=" ">
<path fill="none" stroke="#63b8ff" d="M675.3,-83.91C687.65,-137.38 709.86,-291.3 710.3,-329.73"/>
<polygon fill="#63b8ff" stroke="#63b8ff" points="678.67,-82.95 672.83,-74.11 671.88,-84.66 678.67,-82.95"/>
</a>
</g>
</g>
<!-- Node20 -->
<g id="Node000020" class="node">
<title>Node20</title>
<g id="a_Node000020"><a xlink:href="../../dd/d8e/humidity_8cpp.xhtml" target="_top" xlink:title=" ">
<polygon fill="white" stroke="#666666" points="708.5,-19 629.5,-19 629.5,0 708.5,0 708.5,-19"/>
<text text-anchor="middle" x="669" y="-7" font-family="Helvetica,sans-Serif" font-size="10.00">humidity.cpp</text>
</a>
</g>
</g>
<!-- Node19&#45;&gt;Node20 -->
<g id="edge26_Node000019_Node000020" class="edge">
<title>Node19&#45;&gt;Node20</title>
<g id="a_edge26_Node000019_Node000020"><a xlink:title=" ">
<path fill="none" stroke="#63b8ff" d="M669,-44.66C669,-35.93 669,-25.99 669,-19.09"/>
<polygon fill="#63b8ff" stroke="#63b8ff" points="665.5,-44.75 669,-54.75 672.5,-44.75 665.5,-44.75"/>
</a>
</g>
</g>
<!-- Node22 -->
<g id="Node000022" class="node">
<title>Node22</title>
<g id="a_Node000022"><a xlink:href="../../d2/de2/interpreter_8cpp.xhtml" target="_top" xlink:title=" ">
<polygon fill="white" stroke="#666666" points="832,-239 744,-239 744,-220 832,-220 832,-239"/>
<text text-anchor="middle" x="788" y="-227" font-family="Helvetica,sans-Serif" font-size="10.00">interpreter.cpp</text>
</a>
</g>
</g>
<!-- Node21&#45;&gt;Node22 -->
<g id="edge29_Node000021_Node000022" class="edge">
<title>Node21&#45;&gt;Node22</title>
<g id="a_edge29_Node000021_Node000022"><a xlink:title=" ">
<path fill="none" stroke="#63b8ff" d="M789.93,-264.66C789.44,-255.93 788.88,-245.99 788.49,-239.09"/>
<polygon fill="#63b8ff" stroke="#63b8ff" points="786.44,-264.96 790.5,-274.75 793.43,-264.57 786.44,-264.96"/>
</a>
</g>
</g>
<!-- Node21&#45;&gt;Node23 -->
<g id="edge30_Node000021_Node000023" class="edge">
<title>Node21&#45;&gt;Node23</title>
<g id="a_edge30_Node000021_Node000023"><a xlink:title=" ">
<path fill="none" stroke="#63b8ff" d="M814.49,-269.97C831.31,-260.28 853.45,-247.52 867.95,-239.17"/>
<polygon fill="#63b8ff" stroke="#63b8ff" points="812.7,-266.96 805.78,-274.98 816.19,-273.03 812.7,-266.96"/>
</a>
</g>
</g>
<!-- Node23&#45;&gt;Node7 -->
<g id="edge45_Node000023_Node000007" class="edge">
<title>Node23&#45;&gt;Node7</title>
<g id="a_edge45_Node000023_Node000007"><a xlink:title=" ">
<path fill="none" stroke="#63b8ff" d="M839.88,-220.05C603.24,-188.96 332.16,-179.37 221.66,-176.56"/>
<polygon fill="#63b8ff" stroke="#63b8ff" points="839.68,-223.55 850.06,-221.4 840.6,-216.61 839.68,-223.55"/>
</a>
</g>
</g>
<!-- Node24 -->
<g id="Node000024" class="node">
<title>Node24</title>
<g id="a_Node000024"><a xlink:href="../../d9/d99/error_8hpp.xhtml" target="_top" xlink:title=" ">
<polygon fill="white" stroke="#666666" points="913,-184 853,-184 853,-165 913,-165 913,-184"/>
<text text-anchor="middle" x="883" y="-172" font-family="Helvetica,sans-Serif" font-size="10.00">error.hpp</text>
</a>
</g>
</g>
<!-- Node23&#45;&gt;Node24 -->
<g id="edge31_Node000023_Node000024" class="edge">
<title>Node23&#45;&gt;Node24</title>
<g id="a_edge31_Node000023_Node000024"><a xlink:title=" ">
<path fill="none" stroke="#63b8ff" d="M883,-209.66C883,-200.93 883,-190.99 883,-184.09"/>
<polygon fill="#63b8ff" stroke="#63b8ff" points="879.5,-209.75 883,-219.75 886.5,-209.75 879.5,-209.75"/>
</a>
</g>
</g>
<!-- Node34 -->
<g id="Node000034" class="node">
<title>Node34</title>
<g id="a_Node000034"><a xlink:href="../../de/d25/serial_8cpp.xhtml" target="_top" xlink:title=" ">
<polygon fill="white" stroke="#666666" points="835,-184 771,-184 771,-165 835,-165 835,-184"/>
<text text-anchor="middle" x="803" y="-172" font-family="Helvetica,sans-Serif" font-size="10.00">serial.cpp</text>
</a>
</g>
</g>
<!-- Node23&#45;&gt;Node34 -->
<g id="edge46_Node000023_Node000034" class="edge">
<title>Node23&#45;&gt;Node34</title>
<g id="a_edge46_Node000023_Node000034"><a xlink:title=" ">
<path fill="none" stroke="#63b8ff" d="M861.75,-214.42C847.24,-204.81 828.46,-192.37 816.09,-184.17"/>
<polygon fill="#63b8ff" stroke="#63b8ff" points="859.88,-217.38 870.15,-219.98 863.74,-211.54 859.88,-217.38"/>
</a>
</g>
</g>
<!-- Node24&#45;&gt;Node11 -->
<g id="edge44_Node000024_Node000011" class="edge">
<title>Node24&#45;&gt;Node11</title>
<g id="a_edge44_Node000024_Node000011"><a xlink:title=" ">
<path fill="none" stroke="#63b8ff" d="M842.76,-165.01C659.75,-137.84 452.7,-126.18 367.1,-122.19"/>
<polygon fill="#63b8ff" stroke="#63b8ff" points="842.43,-168.5 852.84,-166.52 843.47,-161.58 842.43,-168.5"/>
</a>
</g>
</g>
<!-- Node25 -->
<g id="Node000025" class="node">
<title>Node25</title>
<g id="a_Node000025"><a xlink:href="../../d3/d42/bme_8hpp.xhtml" target="_top" xlink:title=" ">
<polygon fill="white" stroke="#666666" points="765.5,-129 706.5,-129 706.5,-110 765.5,-110 765.5,-129"/>
<text text-anchor="middle" x="736" y="-117" font-family="Helvetica,sans-Serif" font-size="10.00">bme.hpp</text>
</a>
</g>
</g>
<!-- Node24&#45;&gt;Node25 -->
<g id="edge32_Node000024_Node000025" class="edge">
<title>Node24&#45;&gt;Node25</title>
<g id="a_edge32_Node000024_Node000025"><a xlink:title=" ">
<path fill="none" stroke="#63b8ff" d="M849.86,-161.55C822.56,-151.71 784.5,-137.98 760.05,-129.17"/>
<polygon fill="#63b8ff" stroke="#63b8ff" points="848.79,-164.89 859.38,-164.98 851.16,-158.3 848.79,-164.89"/>
</a>
</g>
</g>
<!-- Node31 -->
<g id="Node000031" class="node">
<title>Node31</title>
<g id="a_Node000031"><a xlink:href="../../dd/db1/error_8cpp.xhtml" target="_top" xlink:title=" ">
<polygon fill="white" stroke="#666666" points="842.5,-129 783.5,-129 783.5,-110 842.5,-110 842.5,-129"/>
<text text-anchor="middle" x="813" y="-117" font-family="Helvetica,sans-Serif" font-size="10.00">error.cpp</text>
</a>
</g>
</g>
<!-- Node24&#45;&gt;Node31 -->
<g id="edge41_Node000024_Node000031" class="edge">
<title>Node24&#45;&gt;Node31</title>
<g id="a_edge41_Node000024_Node000031"><a xlink:title=" ">
<path fill="none" stroke="#63b8ff" d="M863.69,-158.88C851.09,-149.34 835.07,-137.21 824.45,-129.17"/>
<polygon fill="#63b8ff" stroke="#63b8ff" points="861.67,-161.74 871.75,-164.98 865.89,-156.16 861.67,-161.74"/>
</a>
</g>
</g>
<!-- Node32 -->
<g id="Node000032" class="node">
<title>Node32</title>
<g id="a_Node000032"><a xlink:href="../../db/d45/gps_8hpp.xhtml" target="_top" xlink:title=" ">
<polygon fill="white" stroke="#666666" points="915.5,-129 860.5,-129 860.5,-110 915.5,-110 915.5,-129"/>
<text text-anchor="middle" x="888" y="-117" font-family="Helvetica,sans-Serif" font-size="10.00">gps.hpp</text>
</a>
</g>
</g>
<!-- Node24&#45;&gt;Node32 -->
<g id="edge42_Node000024_Node000032" class="edge">
<title>Node24&#45;&gt;Node32</title>
<g id="a_edge42_Node000024_Node000032"><a xlink:title=" ">
<path fill="none" stroke="#63b8ff" d="M884.78,-154.66C885.6,-145.93 886.54,-135.99 887.19,-129.09"/>
<polygon fill="#63b8ff" stroke="#63b8ff" points="881.28,-154.46 883.83,-164.75 888.25,-155.12 881.28,-154.46"/>
</a>
</g>
</g>
<!-- Node25&#45;&gt;Node19 -->
<g id="edge34_Node000025_Node000019" class="edge">
<title>Node25&#45;&gt;Node19</title>
<g id="a_edge34_Node000025_Node000019"><a xlink:title=" ">
<path fill="none" stroke="#63b8ff" d="M717.17,-103.6C705.16,-94.11 690.03,-82.13 679.96,-74.17"/>
<polygon fill="#63b8ff" stroke="#63b8ff" points="715.22,-106.53 725.24,-109.98 719.56,-101.04 715.22,-106.53"/>
</a>
</g>
</g>
<!-- Node26 -->
<g id="Node000026" class="node">
<title>Node26</title>
<g id="a_Node000026"><a xlink:href="../../d4/d82/bme_8cpp.xhtml" target="_top" xlink:title=" ">
<polygon fill="white" stroke="#666666" points="786.5,-74 727.5,-74 727.5,-55 786.5,-55 786.5,-74"/>
<text text-anchor="middle" x="757" y="-62" font-family="Helvetica,sans-Serif" font-size="10.00">bme.cpp</text>
</a>
</g>
</g>
<!-- Node25&#45;&gt;Node26 -->
<g id="edge33_Node000025_Node000026" class="edge">
<title>Node25&#45;&gt;Node26</title>
<g id="a_edge33_Node000025_Node000026"><a xlink:title=" ">
<path fill="none" stroke="#63b8ff" d="M743.24,-100.24C746.75,-91.37 750.8,-81.14 753.6,-74.09"/>
<polygon fill="#63b8ff" stroke="#63b8ff" points="739.9,-99.16 739.47,-109.75 746.41,-101.74 739.9,-99.16"/>
</a>
</g>
</g>
<!-- Node25&#45;&gt;Node27 -->
<g id="edge35_Node000025_Node000027" class="edge">
<title>Node25&#45;&gt;Node27</title>
<g id="a_edge35_Node000025_Node000027"><a xlink:title=" ">
<path fill="none" stroke="#63b8ff" d="M775.08,-107.06C808.91,-97.15 857.08,-83.04 887.69,-74.08"/>
<polygon fill="#63b8ff" stroke="#63b8ff" points="773.69,-103.82 765.08,-109.98 775.66,-110.53 773.69,-103.82"/>
</a>
</g>
</g>
<!-- Node25&#45;&gt;Node29 -->
<g id="edge38_Node000025_Node000029" class="edge">
<title>Node25&#45;&gt;Node29</title>
<g id="a_edge38_Node000025_Node000029"><a xlink:title=" ">
<path fill="none" stroke="#63b8ff" d="M775.85,-109.69C850.25,-94.88 926.2,-81.75 974.55,-73.64"/>
<polygon fill="#63b8ff" stroke="#63b8ff" points="774.96,-106.3 765.84,-111.69 776.34,-113.16 774.96,-106.3"/>
</a>
</g>
</g>
<!-- Node27&#45;&gt;Node4 -->
<g id="edge36_Node000027_Node000004" class="edge">
<title>Node27&#45;&gt;Node4</title>
<g id="a_edge36_Node000027_Node000004"><a xlink:title=" ">
<path fill="none" stroke="#63b8ff" d="M927.86,-83.43C940.63,-115.95 955.44,-186.17 933,-239 901.81,-312.44 794.42,-331.71 740.32,-336.74"/>
<polygon fill="#63b8ff" stroke="#63b8ff" points="931.06,-82.02 923.84,-74.27 924.65,-84.83 931.06,-82.02"/>
</a>
</g>
</g>
<!-- Node28 -->
<g id="Node000028" class="node">
<title>Node28</title>
<g id="a_Node000028"><a xlink:href="../../d8/ddf/pressure_8cpp.xhtml" target="_top" xlink:title=" ">
<polygon fill="white" stroke="#666666" points="956.5,-19 877.5,-19 877.5,0 956.5,0 956.5,-19"/>
<text text-anchor="middle" x="917" y="-7" font-family="Helvetica,sans-Serif" font-size="10.00">pressure.cpp</text>
</a>
</g>
</g>
<!-- Node27&#45;&gt;Node28 -->
<g id="edge37_Node000027_Node000028" class="edge">
<title>Node27&#45;&gt;Node28</title>
<g id="a_edge37_Node000027_Node000028"><a xlink:title=" ">
<path fill="none" stroke="#63b8ff" d="M917,-44.66C917,-35.93 917,-25.99 917,-19.09"/>
<polygon fill="#63b8ff" stroke="#63b8ff" points="913.5,-44.75 917,-54.75 920.5,-44.75 913.5,-44.75"/>
</a>
</g>
</g>
<!-- Node29&#45;&gt;Node4 -->
<g id="edge39_Node000029_Node000004" class="edge">
<title>Node29&#45;&gt;Node4</title>
<g id="a_edge39_Node000029_Node000004"><a xlink:title=" ">
<path fill="none" stroke="#63b8ff" d="M1025.67,-84.3C1022.26,-129.61 995.29,-244.74 920,-294 864.56,-330.28 784.11,-337.38 740.13,-338.51"/>
<polygon fill="#63b8ff" stroke="#63b8ff" points="1029.17,-84.26 1026.04,-74.14 1022.18,-84.01 1029.17,-84.26"/>
</a>
</g>
</g>
<!-- Node30 -->
<g id="Node000030" class="node">
<title>Node30</title>
<g id="a_Node000030"><a xlink:href="../../d0/d3d/temperature_8cpp.xhtml" target="_top" xlink:title=" ">
<polygon fill="white" stroke="#666666" points="1073,-19 975,-19 975,0 1073,0 1073,-19"/>
<text text-anchor="middle" x="1024" y="-7" font-family="Helvetica,sans-Serif" font-size="10.00">temperature.cpp</text>
</a>
</g>
</g>
<!-- Node29&#45;&gt;Node30 -->
<g id="edge40_Node000029_Node000030" class="edge">
<title>Node29&#45;&gt;Node30</title>
<g id="a_edge40_Node000029_Node000030"><a xlink:title=" ">
<path fill="none" stroke="#63b8ff" d="M1024,-44.66C1024,-35.93 1024,-25.99 1024,-19.09"/>
<polygon fill="#63b8ff" stroke="#63b8ff" points="1020.5,-44.75 1024,-54.75 1027.5,-44.75 1020.5,-44.75"/>
</a>
</g>
</g>
<!-- Node33 -->
<g id="Node000033" class="node">
<title>Node33</title>
<g id="a_Node000033"><a xlink:href="../../dc/d3d/gps_8cpp.xhtml" target="_top" xlink:title=" ">
<polygon fill="white" stroke="#666666" points="859,-74 805,-74 805,-55 859,-55 859,-74"/>
<text text-anchor="middle" x="832" y="-62" font-family="Helvetica,sans-Serif" font-size="10.00">gps.cpp</text>
</a>
</g>
</g>
<!-- Node32&#45;&gt;Node33 -->
<g id="edge43_Node000032_Node000033" class="edge">
<title>Node32&#45;&gt;Node33</title>
<g id="a_edge43_Node000032_Node000033"><a xlink:title=" ">
<path fill="none" stroke="#63b8ff" d="M871.67,-103.04C861.74,-93.64 849.41,-81.98 841.16,-74.17"/>
<polygon fill="#63b8ff" stroke="#63b8ff" points="869.33,-105.65 879,-109.98 874.15,-100.57 869.33,-105.65"/>
</a>
</g>
</g>
<!-- Node36&#45;&gt;Node2 -->
<g id="edge50_Node000036_Node000002" class="edge">
<title>Node36&#45;&gt;Node2</title>
<g id="a_edge50_Node000036_Node000002"><a xlink:title=" ">
<path fill="none" stroke="#63b8ff" d="M1117.94,-297.1C1048.19,-318.94 898.88,-365.68 837.36,-384.94"/>
<polygon fill="#63b8ff" stroke="#63b8ff" points="1119.14,-300.39 1127.64,-294.07 1117.05,-293.71 1119.14,-300.39"/>
</a>
</g>
</g>
<!-- Node36&#45;&gt;Node4 -->
<g id="edge55_Node000036_Node000004" class="edge">
<title>Node36&#45;&gt;Node4</title>
<g id="a_edge55_Node000036_Node000004"><a xlink:title=" ">
<path fill="none" stroke="#63b8ff" d="M1112.02,-294.68C969.5,-315.14 807.36,-330.5 740.24,-336.15"/>
<polygon fill="#63b8ff" stroke="#63b8ff" points="1112.85,-298.1 1122.25,-293.2 1111.85,-291.17 1112.85,-298.1"/>
</a>
</g>
</g>
<!-- Node36&#45;&gt;Node37 -->
<g id="edge51_Node000036_Node000037" class="edge">
<title>Node36&#45;&gt;Node37</title>
<g id="a_edge51_Node000036_Node000037"><a xlink:title=" ">
<path fill="none" stroke="#63b8ff" d="M1137.53,-268.32C1126.66,-258.87 1113.06,-247.06 1103.98,-239.17"/>
<polygon fill="#63b8ff" stroke="#63b8ff" points="1135.35,-271.07 1145.2,-274.98 1139.95,-265.78 1135.35,-271.07"/>
</a>
</g>
</g>
<!-- Node39 -->
<g id="Node000039" class="node">
<title>Node39</title>
<g id="a_Node000039"><a xlink:href="../../d9/d88/mode_8cpp.xhtml" target="_top" xlink:title=" ">
<polygon fill="white" stroke="#666666" points="1203.5,-239 1138.5,-239 1138.5,-220 1203.5,-220 1203.5,-239"/>
<text text-anchor="middle" x="1171" y="-227" font-family="Helvetica,sans-Serif" font-size="10.00">mode.cpp</text>
</a>
</g>
</g>
<!-- Node36&#45;&gt;Node39 -->
<g id="edge56_Node000036_Node000039" class="edge">
<title>Node36&#45;&gt;Node39</title>
<g id="a_edge56_Node000036_Node000039"><a xlink:title=" ">
<path fill="none" stroke="#63b8ff" d="M1160.6,-264.95C1163.26,-256.15 1166.3,-246.06 1168.41,-239.09"/>
<polygon fill="#63b8ff" stroke="#63b8ff" points="1157.18,-264.16 1157.64,-274.75 1163.88,-266.19 1157.18,-264.16"/>
</a>
</g>
</g>
<!-- Node37&#45;&gt;Node4 -->
<g id="edge54_Node000037_Node000004" class="edge">
<title>Node37&#45;&gt;Node4</title>
<g id="a_edge54_Node000037_Node000004"><a xlink:title=" ">
<path fill="none" stroke="#63b8ff" d="M1093.63,-249.37C1092.26,-263.84 1087.91,-283.11 1075,-294 1024.72,-336.4 819.32,-339.4 740.24,-338.94"/>
<polygon fill="#63b8ff" stroke="#63b8ff" points="1097.14,-249.23 1094.19,-239.05 1090.15,-248.85 1097.14,-249.23"/>
</a>
</g>
</g>
<!-- Node37&#45;&gt;Node24 -->
<g id="edge52_Node000037_Node000024" class="edge">
<title>Node37&#45;&gt;Node24</title>
<g id="a_edge52_Node000037_Node000024"><a xlink:title=" ">
<path fill="none" stroke="#63b8ff" d="M1057.46,-219.32C1016.64,-209.07 951.32,-192.66 913.25,-183.1"/>
<polygon fill="#63b8ff" stroke="#63b8ff" points="1056.73,-222.75 1067.28,-221.79 1058.43,-215.96 1056.73,-222.75"/>
</a>
</g>
</g>
<!-- Node38 -->
<g id="Node000038" class="node">
<title>Node38</title>
<g id="a_Node000038"><a xlink:href="../../db/d17/led_8cpp.xhtml" target="_top" xlink:title=" ">
<polygon fill="white" stroke="#666666" points="1120,-184 1068,-184 1068,-165 1120,-165 1120,-184"/>
<text text-anchor="middle" x="1094" y="-172" font-family="Helvetica,sans-Serif" font-size="10.00">led.cpp</text>
</a>
</g>
</g>
<!-- Node37&#45;&gt;Node38 -->
<g id="edge53_Node000037_Node000038" class="edge">
<title>Node37&#45;&gt;Node38</title>
<g id="a_edge53_Node000037_Node000038"><a xlink:title=" ">
<path fill="none" stroke="#63b8ff" d="M1094,-209.66C1094,-200.93 1094,-190.99 1094,-184.09"/>
<polygon fill="#63b8ff" stroke="#63b8ff" points="1090.5,-209.75 1094,-219.75 1097.5,-209.75 1090.5,-209.75"/>
</a>
</g>
</g>
</g>
</svg>

<g id="navigator" transform="translate(0 0)" fill="#404254">
  <rect fill="#f2f5e9" fill-opacity="0.5" stroke="#606060" stroke-width=".5" x="0" y="0" width="60" height="60"/>
  <use id="zoomplus" xlink:href="#zoomPlus" x="17" y="9" onmousedown="handleZoom(evt,'in')"/>
  <use id="zoomminus" xlink:href="#zoomMin" x="42" y="9" onmousedown="handleZoom(evt,'out')"/>
  <use id="reset" xlink:href="#resetDef" x="30" y="36" onmousedown="handleReset()"/>
   <use id="arrowup" xlink:href="#arrowUp" x="0" y="0" onmousedown="handlePan(0,-1)"/>
  <use id="arrowright" xlink:href="#arrowRight" x="0" y="0" onmousedown="handlePan(1,0)"/>
  <use id="arrowdown" xlink:href="#arrowDown" x="0" y="0" onmousedown="handlePan(0,1)"/>
  <use id="arrowleft" xlink:href="#arrowLeft" x="0" y="0" onmousedown="handlePan(-1,0)"/>
</g>
<svg viewBox="0 0 15 15" width="100%" height="30px" preserveAspectRatio="xMaxYMin meet">
 <g id="arrow_out" transform="scale(0.3 0.3)">
  <a xlink:href="timer_8hpp__dep__incl_org.svg" target="_base">
   <rect id="button" ry="5" rx="5" y="6" x="6" height="38" width="38"
        fill="#f2f5e9" fill-opacity="0.5" stroke="#606060" stroke-width="1.0"/>
   <path id="arrow"
     d="M 11.500037,31.436501 C 11.940474,20.09759 22.043105,11.32322 32.158766,21.979434 L 37.068811,17.246167 C 37.068811,17.246167 37.088388,32 37.088388,32 L 22.160133,31.978069 C 22.160133,31.978069 26.997745,27.140456 26.997745,27.140456 C 18.528582,18.264221 13.291696,25.230495 11.500037,31.436501 z"
     style="fill:#404040;"/>
  </a>
 </g>
</svg>

<style type='text/css'>
<![CDATA[
[data-mouse-over-selected='false'] { opacity: 0.7; }
[data-mouse-over-selected='true']  { opacity: 1.0; }
]]>
</style>
<script type="application/ecmascript"><![CDATA[
document.addEventListener('DOMContentLoaded', (event) => {
  highlightEdges();
  highlightAdjacentNodes();
});
]]></script>
</svg>
