<?xml version="1.0" encoding="UTF-8" standalone="no"?>
<!DOCTYPE svg PUBLIC "-//W3C//DTD SVG 1.1//EN"
 "http://www.w3.org/Graphics/SVG/1.1/DTD/svg11.dtd">
<!-- Generated by graphviz version 2.43.0 (0)
 -->
<!-- Title: SharedSpiCard::eraseSingleSectorEnable Pages: 1 -->
<!--zoomable 360 -->

<svg id="main" version="1.1" xmlns="http://www.w3.org/2000/svg" xmlns:xlink="http://www.w3.org/1999/xlink" xml:space="preserve" onload="init(evt)">
<style type="text/css"><![CDATA[
.node, .edge {opacity: 0.7;}
.node.selected, .edge.selected {opacity: 1;}
.edge:hover path { stroke: red; }
.edge:hover polygon { stroke: red; fill: red; }
]]></style>

<defs>
  <circle id="rim" cx="0" cy="0" r="7"/>
  <circle id="rim2" cx="0" cy="0" r="3.5"/>
  <g id="zoomPlus">
    <use xlink:href="#rim" fill="#404040"><set attributeName="fill" to="#808080" begin="zoomplus.mouseover" end="zoomplus.mouseout"/></use>
    <path d="M-4,0h8M0,-4v8" fill="none" stroke="white" stroke-width="1.5" pointer-events="none"/>
  </g>
  <g id="zoomMin">
    <use xlink:href="#rim" fill="#404040"><set attributeName="fill" to="#808080" begin="zoomminus.mouseover" end="zoomminus.mouseout"/></use>
    <path d="M-4,0h8" fill="none" stroke="white" stroke-width="1.5" pointer-events="none"/>
  </g>
  <g id="arrowUp" transform="translate(30 24)">
    <use xlink:href="#rim"/>
    <path pointer-events="none" fill="none" stroke="white" stroke-width="1.5" d="M0,-3.0v7 M-2.5,-0.5L0,-3.0L2.5,-0.5"/>
  </g>
  <g id="arrowRight" transform="rotate(90) translate(36 -43)">
    <use xlink:href="#rim"/>
    <path pointer-events="none" fill="none" stroke="white" stroke-width="1.5" d="M0,-3.0v7 M-2.5,-0.5L0,-3.0L2.5,-0.5"/>
  </g>
  <g id="arrowDown" transform="rotate(180) translate(-30 -48)">
    <use xlink:href="#rim"/>
    <path pointer-events="none" fill="none" stroke="white" stroke-width="1.5" d="M0,-3.0v7 M-2.5,-0.5L0,-3.0L2.5,-0.5"/>
  </g>
  <g id="arrowLeft" transform="rotate(270) translate(-36 17)">
    <use xlink:href="#rim"/>
    <path pointer-events="none" fill="none" stroke="white" stroke-width="1.5" d="M0,-3.0v7 M-2.5,-0.5L0,-3.0L2.5,-0.5"/>
  </g>
  <g id="resetDef">
    <use xlink:href="#rim2" fill="#404040"><set attributeName="fill" to="#808080" begin="reset.mouseover" end="reset.mouseout"/></use>
  </g>
</defs>
<script type="application/ecmascript">
var viewWidth = 1833;
var viewHeight = 360;
var sectionId = 'dynsection-13';
</script>
<script type="application/ecmascript" xlink:href="../../svg.min.js"/>
<svg id="graph" class="graph">
<g id="viewport">
<title>SharedSpiCard::eraseSingleSectorEnable</title>
<!-- Node1 -->
<g id="Node000001" class="node">
<title>Node1</title>
<g id="a_Node000001"><a xlink:title=" ">
<polygon fill="#999999" stroke="#666666" points="151,-117.5 0,-117.5 0,-87.5 151,-87.5 151,-117.5"/>
<text text-anchor="start" x="8" y="-105.5" font-family="Helvetica,sans-Serif" font-size="10.00">SharedSpiCard::eraseSingle</text>
<text text-anchor="middle" x="75.5" y="-94.5" font-family="Helvetica,sans-Serif" font-size="10.00">SectorEnable</text>
</a>
</g>
</g>
<!-- Node2 -->
<g id="Node000002" class="node">
<title>Node2</title>
<g id="a_Node000002"><a xlink:href="../../d8/ded/structcsd__t.xhtml#ac47f033a9abc8ca12a977729b6d00a3e" target="_top" xlink:title=" ">
<polygon fill="white" stroke="#666666" points="321,-131 189,-131 189,-112 321,-112 321,-131"/>
<text text-anchor="middle" x="255" y="-119" font-family="Helvetica,sans-Serif" font-size="10.00">csd_t::eraseSingleBlock</text>
</a>
</g>
</g>
<!-- Node1&#45;&gt;Node2 -->
<g id="edge1_Node000001_Node000002" class="edge">
<title>Node1&#45;&gt;Node2</title>
<g id="a_edge1_Node000001_Node000002"><a xlink:title=" ">
<path fill="none" stroke="#63b8ff" d="M151,-110.48C160.27,-111.47 169.75,-112.48 179.02,-113.47"/>
<polygon fill="#63b8ff" stroke="#63b8ff" points="178.67,-116.96 188.99,-114.54 179.42,-110 178.67,-116.96"/>
</a>
</g>
</g>
<!-- Node3 -->
<g id="Node000003" class="node">
<title>Node3</title>
<g id="a_Node000003"><a xlink:href="../../d8/d7f/classSharedSpiCard.xhtml#aa28eccbfb63a43aada4ec199da69a38c" target="_top" xlink:title=" ">
<polygon fill="white" stroke="#666666" points="323,-94 187,-94 187,-75 323,-75 323,-94"/>
<text text-anchor="middle" x="255" y="-82" font-family="Helvetica,sans-Serif" font-size="10.00">SharedSpiCard::readCSD</text>
</a>
</g>
</g>
<!-- Node1&#45;&gt;Node3 -->
<g id="edge2_Node000001_Node000003" class="edge">
<title>Node1&#45;&gt;Node3</title>
<g id="a_edge2_Node000001_Node000003"><a xlink:title=" ">
<path fill="none" stroke="#63b8ff" d="M151,-94.94C159.53,-94.08 168.23,-93.2 176.79,-92.33"/>
<polygon fill="#63b8ff" stroke="#63b8ff" points="177.15,-95.81 186.75,-91.32 176.45,-88.85 177.15,-95.81"/>
</a>
</g>
</g>
<!-- Node4 -->
<g id="Node000004" class="node">
<title>Node4</title>
<g id="a_Node000004"><a xlink:href="../../d8/d7f/classSharedSpiCard.xhtml#a9107af8380369d08cd2db4824a8aceda" target="_top" xlink:title=" ">
<polygon fill="white" stroke="#666666" points="515,-94 359,-94 359,-75 515,-75 515,-94"/>
<text text-anchor="middle" x="437" y="-82" font-family="Helvetica,sans-Serif" font-size="10.00">SharedSpiCard::readRegister</text>
</a>
</g>
</g>
<!-- Node3&#45;&gt;Node4 -->
<g id="edge3_Node000003_Node000004" class="edge">
<title>Node3&#45;&gt;Node4</title>
<g id="a_edge3_Node000003_Node000004"><a xlink:title=" ">
<path fill="none" stroke="#63b8ff" d="M323.03,-84.5C331.43,-84.5 340.12,-84.5 348.78,-84.5"/>
<polygon fill="#63b8ff" stroke="#63b8ff" points="348.91,-88 358.91,-84.5 348.91,-81 348.91,-88"/>
</a>
</g>
</g>
<!-- Node5 -->
<g id="Node000005" class="node">
<title>Node5</title>
<g id="a_Node000005"><a xlink:href="../../d8/d7f/classSharedSpiCard.xhtml#adda33199753fc2aec74fe317cbaabc06" target="_top" xlink:title=" ">
<polygon fill="white" stroke="#666666" points="716,-227 551,-227 551,-208 716,-208 716,-227"/>
<text text-anchor="middle" x="633.5" y="-215" font-family="Helvetica,sans-Serif" font-size="10.00">SharedSpiCard::cardCommand</text>
</a>
</g>
</g>
<!-- Node4&#45;&gt;Node5 -->
<g id="edge4_Node000004_Node000005" class="edge">
<title>Node4&#45;&gt;Node5</title>
<g id="a_edge4_Node000004_Node000005"><a xlink:title=" ">
<path fill="none" stroke="#63b8ff" d="M451.99,-94.07C485.27,-116.82 569.41,-174.36 609.97,-202.09"/>
<polygon fill="#63b8ff" stroke="#63b8ff" points="608.15,-205.09 618.38,-207.84 612.1,-199.31 608.15,-205.09"/>
</a>
</g>
</g>
<!-- Node19 -->
<g id="Node000019" class="node">
<title>Node19</title>
<g id="a_Node000019"><a xlink:href="../../d8/d7f/classSharedSpiCard.xhtml#a747c3f0b962098cf0c097f3c4c2b4fd4" target="_top" xlink:title=" ">
<polygon fill="white" stroke="#666666" points="1245.5,-114 1128.5,-114 1128.5,-95 1245.5,-95 1245.5,-114"/>
<text text-anchor="middle" x="1187" y="-102" font-family="Helvetica,sans-Serif" font-size="10.00">SharedSpiCard::error</text>
</a>
</g>
</g>
<!-- Node4&#45;&gt;Node19 -->
<g id="edge37_Node000004_Node000019" class="edge">
<title>Node4&#45;&gt;Node19</title>
<g id="a_edge37_Node000004_Node000019"><a xlink:title=" ">
<path fill="none" stroke="#63b8ff" d="M515.47,-81.86C635.96,-78.49 875.48,-74.71 1078,-89.5 1091.09,-90.46 1105.01,-91.99 1118.35,-93.73"/>
<polygon fill="#63b8ff" stroke="#63b8ff" points="1118.04,-97.22 1128.42,-95.09 1118.97,-90.28 1118.04,-97.22"/>
</a>
</g>
</g>
<!-- Node20 -->
<g id="Node000020" class="node">
<title>Node20</title>
<g id="a_Node000020"><a xlink:href="../../d8/d7f/classSharedSpiCard.xhtml#a0f511c39c50055a4fc97e720933aee3a" target="_top" xlink:title=" ">
<polygon fill="white" stroke="#666666" points="1252,-151 1122,-151 1122,-132 1252,-132 1252,-151"/>
<text text-anchor="middle" x="1187" y="-139" font-family="Helvetica,sans-Serif" font-size="10.00">SharedSpiCard::spiStop</text>
</a>
</g>
</g>
<!-- Node4&#45;&gt;Node20 -->
<g id="edge40_Node000004_Node000020" class="edge">
<title>Node4&#45;&gt;Node20</title>
<g id="a_edge40_Node000004_Node000020"><a xlink:title=" ">
<path fill="none" stroke="#63b8ff" d="M515.25,-87.97C660.93,-94.71 971.18,-109.97 1078,-122.5 1094.6,-124.45 1112.51,-127.29 1128.89,-130.19"/>
<polygon fill="#63b8ff" stroke="#63b8ff" points="1128.4,-133.66 1138.86,-132 1129.64,-126.77 1128.4,-133.66"/>
</a>
</g>
</g>
<!-- Node29 -->
<g id="Node000029" class="node">
<title>Node29</title>
<g id="a_Node000029"><a xlink:href="../../d8/d7f/classSharedSpiCard.xhtml#abeae3cdc162f24c2d450abe4e1ed8340" target="_top" xlink:title=" ">
<polygon fill="white" stroke="#666666" points="703,-19 564,-19 564,0 703,0 703,-19"/>
<text text-anchor="middle" x="633.5" y="-7" font-family="Helvetica,sans-Serif" font-size="10.00">SharedSpiCard::readData</text>
</a>
</g>
</g>
<!-- Node4&#45;&gt;Node29 -->
<g id="edge38_Node000004_Node000029" class="edge">
<title>Node4&#45;&gt;Node29</title>
<g id="a_edge38_Node000004_Node000029"><a xlink:title=" ">
<path fill="none" stroke="#63b8ff" d="M463.03,-74.85C497.31,-61.63 559.03,-37.83 597.77,-22.89"/>
<polygon fill="#63b8ff" stroke="#63b8ff" points="599.5,-25.98 607.57,-19.11 596.98,-19.45 599.5,-25.98"/>
</a>
</g>
</g>
<!-- Node6 -->
<g id="Node000006" class="node">
<title>Node6</title>
<g id="a_Node000006"><a xlink:href="../../d8/d7f/classSharedSpiCard.xhtml#a08363209d938db87521cca6a84146041" target="_top" xlink:title=" ">
<polygon fill="white" stroke="#666666" points="1450,-341 1303,-341 1303,-322 1450,-322 1450,-341"/>
<text text-anchor="middle" x="1376.5" y="-329" font-family="Helvetica,sans-Serif" font-size="10.00">SharedSpiCard::spiReceive</text>
</a>
</g>
</g>
<!-- Node5&#45;&gt;Node6 -->
<g id="edge5_Node000005_Node000006" class="edge">
<title>Node5&#45;&gt;Node6</title>
<g id="a_edge5_Node000005_Node000006"><a xlink:title=" ">
<path fill="none" stroke="#63b8ff" d="M649.78,-227.02C671.57,-240.1 713.24,-263.27 752,-274.5 939.68,-328.88 1171.21,-335 1292.48,-333.81"/>
<polygon fill="#63b8ff" stroke="#63b8ff" points="1292.84,-337.31 1302.79,-333.69 1292.75,-330.31 1292.84,-337.31"/>
</a>
</g>
</g>
<!-- Node8 -->
<g id="Node000008" class="node">
<title>Node8</title>
<g id="a_Node000008"><a xlink:href="../../d8/d7f/classSharedSpiCard.xhtml#ab311b9ad8a250f06afbe091f7abb118b" target="_top" xlink:title=" ">
<polygon fill="white" stroke="#666666" points="1442.5,-191 1310.5,-191 1310.5,-172 1442.5,-172 1442.5,-191"/>
<text text-anchor="middle" x="1376.5" y="-179" font-family="Helvetica,sans-Serif" font-size="10.00">SharedSpiCard::spiSend</text>
</a>
</g>
</g>
<!-- Node5&#45;&gt;Node8 -->
<g id="edge7_Node000005_Node000008" class="edge">
<title>Node5&#45;&gt;Node8</title>
<g id="a_edge7_Node000005_Node000008"><a xlink:title=" ">
<path fill="none" stroke="#63b8ff" d="M716.08,-216.46C835.58,-214.49 1065.21,-209.02 1260,-194.5 1272.99,-193.53 1286.77,-192.23 1300.12,-190.81"/>
<polygon fill="#63b8ff" stroke="#63b8ff" points="1300.66,-194.27 1310.22,-189.72 1299.9,-187.32 1300.66,-194.27"/>
</a>
</g>
</g>
<!-- Node10 -->
<g id="Node000010" class="node">
<title>Node10</title>
<g id="a_Node000010"><a xlink:href="../../d8/d7f/classSharedSpiCard.xhtml#aef2dfa72e8d5643c90720f9f8c6a4254" target="_top" xlink:title=" ">
<polygon fill="white" stroke="#666666" points="1252.5,-265 1121.5,-265 1121.5,-246 1252.5,-246 1252.5,-265"/>
<text text-anchor="middle" x="1187" y="-253" font-family="Helvetica,sans-Serif" font-size="10.00">SharedSpiCard::spiStart</text>
</a>
</g>
</g>
<!-- Node5&#45;&gt;Node10 -->
<g id="edge9_Node000005_Node000010" class="edge">
<title>Node5&#45;&gt;Node10</title>
<g id="a_edge9_Node000005_Node000010"><a xlink:title=" ">
<path fill="none" stroke="#63b8ff" d="M708.39,-227.03C722.83,-228.69 737.88,-230.27 752,-231.5 877.83,-242.46 1024.64,-249.35 1111.21,-252.8"/>
<polygon fill="#63b8ff" stroke="#63b8ff" points="1111.07,-256.3 1121.2,-253.2 1111.35,-249.31 1111.07,-256.3"/>
</a>
</g>
</g>
<!-- Node17 -->
<g id="Node000017" class="node">
<title>Node17</title>
<g id="a_Node000017"><a xlink:href="../../d8/d7f/classSharedSpiCard.xhtml#a2f181b3d6f27413a0f5ee883dfd94d87" target="_top" xlink:title=" ">
<polygon fill="white" stroke="#666666" points="902,-189 752,-189 752,-170 902,-170 902,-189"/>
<text text-anchor="middle" x="827" y="-177" font-family="Helvetica,sans-Serif" font-size="10.00">SharedSpiCard::syncDevice</text>
</a>
</g>
</g>
<!-- Node5&#45;&gt;Node17 -->
<g id="edge17_Node000005_Node000017" class="edge">
<title>Node5&#45;&gt;Node17</title>
<g id="a_edge17_Node000005_Node000017"><a xlink:title=" ">
<path fill="none" stroke="#63b8ff" d="M682.82,-207.91C708.66,-202.78 740.67,-196.43 767.86,-191.04"/>
<polygon fill="#63b8ff" stroke="#63b8ff" points="768.9,-194.4 778.02,-189.02 767.53,-187.53 768.9,-194.4"/>
</a>
</g>
</g>
<!-- Node25 -->
<g id="Node000025" class="node">
<title>Node25</title>
<g id="a_Node000025"><a xlink:href="../../d8/d7f/classSharedSpiCard.xhtml#ab3468397bb3b12d29dd2f31e45b3dcaf" target="_top" xlink:title=" ">
<polygon fill="white" stroke="#666666" points="1260,-303 1114,-303 1114,-284 1260,-284 1260,-303"/>
<text text-anchor="middle" x="1187" y="-291" font-family="Helvetica,sans-Serif" font-size="10.00">SharedSpiCard::waitReady</text>
</a>
</g>
</g>
<!-- Node5&#45;&gt;Node25 -->
<g id="edge36_Node000005_Node000025" class="edge">
<title>Node5&#45;&gt;Node25</title>
<g id="a_edge36_Node000005_Node000025"><a xlink:title=" ">
<path fill="none" stroke="#63b8ff" d="M663.14,-227.06C686.73,-234.57 721.18,-244.69 752,-250.5 873.14,-273.33 1015.72,-284.51 1103.49,-289.63"/>
<polygon fill="#63b8ff" stroke="#63b8ff" points="1103.47,-293.13 1113.65,-290.21 1103.86,-286.15 1103.47,-293.13"/>
</a>
</g>
</g>
<!-- Node7 -->
<g id="Node000007" class="node">
<title>Node7</title>
<g id="a_Node000007"><a xlink:href="../../d0/d25/classSdSpiArduinoDriver.xhtml#a8d6bc852a52e9d69c4b1e48ee062e8d1" target="_top" xlink:title=" ">
<polygon fill="white" stroke="#666666" points="1604,-351.5 1493,-351.5 1493,-321.5 1604,-321.5 1604,-351.5"/>
<text text-anchor="start" x="1501" y="-339.5" font-family="Helvetica,sans-Serif" font-size="10.00">SdSpiArduinoDriver</text>
<text text-anchor="middle" x="1548.5" y="-328.5" font-family="Helvetica,sans-Serif" font-size="10.00">::receive</text>
</a>
</g>
</g>
<!-- Node6&#45;&gt;Node7 -->
<g id="edge6_Node000006_Node000007" class="edge">
<title>Node6&#45;&gt;Node7</title>
<g id="a_edge6_Node000006_Node000007"><a xlink:title=" ">
<path fill="none" stroke="#63b8ff" d="M1450.09,-333.63C1460.96,-333.95 1472.11,-334.28 1482.81,-334.6"/>
<polygon fill="#63b8ff" stroke="#63b8ff" points="1482.8,-338.1 1492.9,-334.89 1483.01,-331.1 1482.8,-338.1"/>
</a>
</g>
</g>
<!-- Node9 -->
<g id="Node000009" class="node">
<title>Node9</title>
<g id="a_Node000009"><a xlink:href="../../d0/d25/classSdSpiArduinoDriver.xhtml#a3c4842e47f98fe5d3799cd6028778ab5" target="_top" xlink:title=" ">
<polygon fill="white" stroke="#666666" points="1604,-203.5 1493,-203.5 1493,-173.5 1604,-173.5 1604,-203.5"/>
<text text-anchor="start" x="1501" y="-191.5" font-family="Helvetica,sans-Serif" font-size="10.00">SdSpiArduinoDriver</text>
<text text-anchor="middle" x="1548.5" y="-180.5" font-family="Helvetica,sans-Serif" font-size="10.00">::send</text>
</a>
</g>
</g>
<!-- Node8&#45;&gt;Node9 -->
<g id="edge8_Node000008_Node000009" class="edge">
<title>Node8&#45;&gt;Node9</title>
<g id="a_edge8_Node000008_Node000009"><a xlink:title=" ">
<path fill="none" stroke="#63b8ff" d="M1442.74,-184.19C1455.82,-184.72 1469.56,-185.29 1482.62,-185.83"/>
<polygon fill="#63b8ff" stroke="#63b8ff" points="1482.79,-189.34 1492.93,-186.25 1483.08,-182.34 1482.79,-189.34"/>
</a>
</g>
</g>
<!-- Node10&#45;&gt;Node8 -->
<g id="edge16_Node000010_Node000008" class="edge">
<title>Node10&#45;&gt;Node8</title>
<g id="a_edge16_Node000010_Node000008"><a xlink:title=" ">
<path fill="none" stroke="#63b8ff" d="M1226.24,-245.92C1237.52,-242.27 1249.62,-237.5 1260,-231.5 1278.53,-220.79 1276.96,-209.28 1296,-199.5 1299.75,-197.57 1303.71,-195.85 1307.77,-194.31"/>
<polygon fill="#63b8ff" stroke="#63b8ff" points="1309.05,-197.57 1317.4,-191.04 1306.8,-190.94 1309.05,-197.57"/>
</a>
</g>
</g>
<!-- Node11 -->
<g id="Node000011" class="node">
<title>Node11</title>
<g id="a_Node000011"><a xlink:href="../../d8/d7f/classSharedSpiCard.xhtml#a69ee2fe49dfaeea2347d8a265806d2b6" target="_top" xlink:title=" ">
<polygon fill="white" stroke="#666666" points="1451,-265 1302,-265 1302,-246 1451,-246 1451,-265"/>
<text text-anchor="middle" x="1376.5" y="-253" font-family="Helvetica,sans-Serif" font-size="10.00">SharedSpiCard::spiActivate</text>
</a>
</g>
</g>
<!-- Node10&#45;&gt;Node11 -->
<g id="edge10_Node000010_Node000011" class="edge">
<title>Node10&#45;&gt;Node11</title>
<g id="a_edge10_Node000010_Node000011"><a xlink:title=" ">
<path fill="none" stroke="#63b8ff" d="M1252.53,-255.5C1265.19,-255.5 1278.64,-255.5 1291.82,-255.5"/>
<polygon fill="#63b8ff" stroke="#63b8ff" points="1291.84,-259 1301.84,-255.5 1291.84,-252 1291.84,-259"/>
</a>
</g>
</g>
<!-- Node13 -->
<g id="Node000013" class="node">
<title>Node13</title>
<g id="a_Node000013"><a xlink:href="../../d8/d7f/classSharedSpiCard.xhtml#a8c3088599862ff6e84ae79bfdf32aea8" target="_top" xlink:title=" ">
<polygon fill="white" stroke="#666666" points="1445.5,-228 1307.5,-228 1307.5,-209 1445.5,-209 1445.5,-228"/>
<text text-anchor="middle" x="1376.5" y="-216" font-family="Helvetica,sans-Serif" font-size="10.00">SharedSpiCard::spiSelect</text>
</a>
</g>
</g>
<!-- Node10&#45;&gt;Node13 -->
<g id="edge12_Node000010_Node000013" class="edge">
<title>Node10&#45;&gt;Node13</title>
<g id="a_edge12_Node000010_Node000013"><a xlink:title=" ">
<path fill="none" stroke="#63b8ff" d="M1236.29,-245.97C1260.9,-241.11 1291.04,-235.17 1316.97,-230.05"/>
<polygon fill="#63b8ff" stroke="#63b8ff" points="1317.92,-233.43 1327.05,-228.06 1316.56,-226.56 1317.92,-233.43"/>
</a>
</g>
</g>
<!-- Node12 -->
<g id="Node000012" class="node">
<title>Node12</title>
<g id="a_Node000012"><a xlink:href="../../d0/d25/classSdSpiArduinoDriver.xhtml#abb6b88c5c8b87fc344a69f23f6eab3d9" target="_top" xlink:title=" ">
<polygon fill="white" stroke="#666666" points="1604,-265.5 1493,-265.5 1493,-235.5 1604,-235.5 1604,-265.5"/>
<text text-anchor="start" x="1501" y="-253.5" font-family="Helvetica,sans-Serif" font-size="10.00">SdSpiArduinoDriver</text>
<text text-anchor="middle" x="1548.5" y="-242.5" font-family="Helvetica,sans-Serif" font-size="10.00">::activate</text>
</a>
</g>
</g>
<!-- Node11&#45;&gt;Node12 -->
<g id="edge11_Node000011_Node000012" class="edge">
<title>Node11&#45;&gt;Node12</title>
<g id="a_edge11_Node000011_Node000012"><a xlink:title=" ">
<path fill="none" stroke="#63b8ff" d="M1451.08,-253.34C1461.57,-253.03 1472.31,-252.71 1482.63,-252.41"/>
<polygon fill="#63b8ff" stroke="#63b8ff" points="1482.89,-255.9 1492.78,-252.11 1482.68,-248.91 1482.89,-255.9"/>
</a>
</g>
</g>
<!-- Node14 -->
<g id="Node000014" class="node">
<title>Node14</title>
<g id="a_Node000014"><a xlink:href="../../d2/df0/SdSpiChipSelect_8cpp.xhtml#ac469bbe2d31ffde9b00ffc68258d7428" target="_top" xlink:title=" ">
<polygon fill="white" stroke="#666666" points="1581.5,-155 1515.5,-155 1515.5,-136 1581.5,-136 1581.5,-155"/>
<text text-anchor="middle" x="1548.5" y="-143" font-family="Helvetica,sans-Serif" font-size="10.00">sdCsWrite</text>
</a>
</g>
</g>
<!-- Node13&#45;&gt;Node14 -->
<g id="edge13_Node000013_Node000014" class="edge">
<title>Node13&#45;&gt;Node14</title>
<g id="a_edge13_Node000013_Node000014"><a xlink:title=" ">
<path fill="none" stroke="#63b8ff" d="M1434.08,-208.97C1442.04,-206.5 1449.91,-203.4 1457,-199.5 1476.55,-188.74 1474.02,-176.23 1493,-164.5 1497.05,-162 1501.47,-159.77 1505.99,-157.8"/>
<polygon fill="#63b8ff" stroke="#63b8ff" points="1507.3,-161.05 1515.31,-154.12 1504.72,-154.54 1507.3,-161.05"/>
</a>
</g>
</g>
<!-- Node15 -->
<g id="Node000015" class="node">
<title>Node15</title>
<g id="a_Node000015"><a xlink:href="../../d5/d45/wiring__digital_8c.xhtml#a73b9b61feeaf7d790d107f2954a7fd93" target="_top" xlink:title=" ">
<polygon fill="white" stroke="#666666" points="1714,-155 1640,-155 1640,-136 1714,-136 1714,-155"/>
<text text-anchor="middle" x="1677" y="-143" font-family="Helvetica,sans-Serif" font-size="10.00">digitalWrite</text>
</a>
</g>
</g>
<!-- Node14&#45;&gt;Node15 -->
<g id="edge14_Node000014_Node000015" class="edge">
<title>Node14&#45;&gt;Node15</title>
<g id="a_edge14_Node000014_Node000015"><a xlink:title=" ">
<path fill="none" stroke="#63b8ff" d="M1581.75,-145.5C1596.28,-145.5 1613.71,-145.5 1629.61,-145.5"/>
<polygon fill="#63b8ff" stroke="#63b8ff" points="1629.79,-149 1639.79,-145.5 1629.79,-142 1629.79,-149"/>
</a>
</g>
</g>
<!-- Node16 -->
<g id="Node000016" class="node">
<title>Node16</title>
<g id="a_Node000016"><a xlink:href="../../d5/d45/wiring__digital_8c.xhtml#ae3d0bcbe4eb927ca8f5d5c21b7e4f224" target="_top" xlink:title=" ">
<polygon fill="white" stroke="#666666" points="1825,-155 1750,-155 1750,-136 1825,-136 1825,-155"/>
<text text-anchor="middle" x="1787.5" y="-143" font-family="Helvetica,sans-Serif" font-size="10.00">turnOffPWM</text>
</a>
</g>
</g>
<!-- Node15&#45;&gt;Node16 -->
<g id="edge15_Node000015_Node000016" class="edge">
<title>Node15&#45;&gt;Node16</title>
<g id="a_edge15_Node000015_Node000016"><a xlink:title=" ">
<path fill="none" stroke="#63b8ff" d="M1714.13,-145.5C1722.28,-145.5 1731.05,-145.5 1739.57,-145.5"/>
<polygon fill="#63b8ff" stroke="#63b8ff" points="1739.79,-149 1749.79,-145.5 1739.79,-142 1739.79,-149"/>
</a>
</g>
</g>
<!-- Node18 -->
<g id="Node000018" class="node">
<title>Node18</title>
<g id="a_Node000018"><a xlink:href="../../d8/d7f/classSharedSpiCard.xhtml#ab33ad2aefbb9cff905cad0879dffc78b" target="_top" xlink:title=" ">
<polygon fill="white" stroke="#666666" points="1076.5,-151 939.5,-151 939.5,-132 1076.5,-132 1076.5,-151"/>
<text text-anchor="middle" x="1008" y="-139" font-family="Helvetica,sans-Serif" font-size="10.00">SharedSpiCard::readStop</text>
</a>
</g>
</g>
<!-- Node17&#45;&gt;Node18 -->
<g id="edge18_Node000017_Node000018" class="edge">
<title>Node17&#45;&gt;Node18</title>
<g id="a_edge18_Node000017_Node000018"><a xlink:title=" ">
<path fill="none" stroke="#63b8ff" d="M873.17,-169.91C897.22,-164.81 926.97,-158.49 952.32,-153.11"/>
<polygon fill="#63b8ff" stroke="#63b8ff" points="953.1,-156.52 962.16,-151.02 951.65,-149.67 953.1,-156.52"/>
</a>
</g>
</g>
<!-- Node24 -->
<g id="Node000024" class="node">
<title>Node24</title>
<g id="a_Node000024"><a xlink:href="../../d8/d7f/classSharedSpiCard.xhtml#ae9a34a573077e43e7c6028a16ae77fb3" target="_top" xlink:title=" ">
<polygon fill="white" stroke="#666666" points="1078,-189 938,-189 938,-170 1078,-170 1078,-189"/>
<text text-anchor="middle" x="1008" y="-177" font-family="Helvetica,sans-Serif" font-size="10.00">SharedSpiCard::writeStop</text>
</a>
</g>
</g>
<!-- Node17&#45;&gt;Node24 -->
<g id="edge27_Node000017_Node000024" class="edge">
<title>Node17&#45;&gt;Node24</title>
<g id="a_edge27_Node000017_Node000024"><a xlink:title=" ">
<path fill="none" stroke="#63b8ff" d="M902.1,-179.5C910.51,-179.5 919.11,-179.5 927.58,-179.5"/>
<polygon fill="#63b8ff" stroke="#63b8ff" points="927.84,-183 937.84,-179.5 927.84,-176 927.84,-183"/>
</a>
</g>
</g>
<!-- Node18&#45;&gt;Node5 -->
<g id="edge19_Node000018_Node000005" class="edge">
<title>Node18&#45;&gt;Node5</title>
<g id="a_edge19_Node000018_Node000005"><a xlink:title=" ">
<path fill="none" stroke="#63b8ff" d="M939.27,-139.68C887.2,-139.92 813.94,-143.82 752,-160.5 717.56,-169.77 681.07,-189.18 658.06,-202.76"/>
<polygon fill="#63b8ff" stroke="#63b8ff" points="656.12,-199.84 649.36,-208 659.73,-205.84 656.12,-199.84"/>
</a>
</g>
</g>
<!-- Node18&#45;&gt;Node19 -->
<g id="edge20_Node000018_Node000019" class="edge">
<title>Node18&#45;&gt;Node19</title>
<g id="a_edge20_Node000018_Node000019"><a xlink:title=" ">
<path fill="none" stroke="#63b8ff" d="M1054.58,-131.97C1077.72,-127.14 1106.02,-121.22 1130.42,-116.12"/>
<polygon fill="#63b8ff" stroke="#63b8ff" points="1131.19,-119.53 1140.27,-114.06 1129.76,-112.68 1131.19,-119.53"/>
</a>
</g>
</g>
<!-- Node18&#45;&gt;Node20 -->
<g id="edge21_Node000018_Node000020" class="edge">
<title>Node18&#45;&gt;Node20</title>
<g id="a_edge21_Node000018_Node000020"><a xlink:title=" ">
<path fill="none" stroke="#63b8ff" d="M1076.67,-141.5C1088.15,-141.5 1100.12,-141.5 1111.75,-141.5"/>
<polygon fill="#63b8ff" stroke="#63b8ff" points="1111.86,-145 1121.86,-141.5 1111.86,-138 1111.86,-145"/>
</a>
</g>
</g>
<!-- Node20&#45;&gt;Node8 -->
<g id="edge24_Node000020_Node000008" class="edge">
<title>Node20&#45;&gt;Node8</title>
<g id="a_edge24_Node000020_Node000008"><a xlink:title=" ">
<path fill="none" stroke="#63b8ff" d="M1232.91,-151.08C1259.35,-156.72 1292.98,-163.9 1320.94,-169.86"/>
<polygon fill="#63b8ff" stroke="#63b8ff" points="1320.45,-173.33 1330.96,-172 1321.91,-166.49 1320.45,-173.33"/>
</a>
</g>
</g>
<!-- Node21 -->
<g id="Node000021" class="node">
<title>Node21</title>
<g id="a_Node000021"><a xlink:href="../../d8/d7f/classSharedSpiCard.xhtml#ac6acfca5a23337977d2e4436ab8ab39a" target="_top" xlink:title=" ">
<polygon fill="white" stroke="#666666" points="1457,-115 1296,-115 1296,-96 1457,-96 1457,-115"/>
<text text-anchor="middle" x="1376.5" y="-103" font-family="Helvetica,sans-Serif" font-size="10.00">SharedSpiCard::spiDeactivate</text>
</a>
</g>
</g>
<!-- Node20&#45;&gt;Node21 -->
<g id="edge22_Node000020_Node000021" class="edge">
<title>Node20&#45;&gt;Node21</title>
<g id="a_edge22_Node000020_Node000021"><a xlink:title=" ">
<path fill="none" stroke="#63b8ff" d="M1237.75,-131.95C1261.69,-127.35 1290.57,-121.81 1315.69,-116.98"/>
<polygon fill="#63b8ff" stroke="#63b8ff" points="1316.68,-120.36 1325.84,-115.03 1315.36,-113.48 1316.68,-120.36"/>
</a>
</g>
</g>
<!-- Node23 -->
<g id="Node000023" class="node">
<title>Node23</title>
<g id="a_Node000023"><a xlink:href="../../d8/d7f/classSharedSpiCard.xhtml#ad06a3278372300987b97876cf598c114" target="_top" xlink:title=" ">
<polygon fill="white" stroke="#666666" points="1452,-153 1301,-153 1301,-134 1452,-134 1452,-153"/>
<text text-anchor="middle" x="1376.5" y="-141" font-family="Helvetica,sans-Serif" font-size="10.00">SharedSpiCard::spiUnselect</text>
</a>
</g>
</g>
<!-- Node20&#45;&gt;Node23 -->
<g id="edge25_Node000020_Node000023" class="edge">
<title>Node20&#45;&gt;Node23</title>
<g id="a_edge25_Node000020_Node000023"><a xlink:title=" ">
<path fill="none" stroke="#63b8ff" d="M1252,-142.18C1264.39,-142.31 1277.55,-142.46 1290.49,-142.59"/>
<polygon fill="#63b8ff" stroke="#63b8ff" points="1290.76,-146.1 1300.8,-142.7 1290.84,-139.1 1290.76,-146.1"/>
</a>
</g>
</g>
<!-- Node22 -->
<g id="Node000022" class="node">
<title>Node22</title>
<g id="a_Node000022"><a xlink:href="../../d0/d25/classSdSpiArduinoDriver.xhtml#ae88a255f533e3acb41d1221025a69b55" target="_top" xlink:title=" ">
<polygon fill="white" stroke="#666666" points="1604,-117.5 1493,-117.5 1493,-87.5 1604,-87.5 1604,-117.5"/>
<text text-anchor="start" x="1501" y="-105.5" font-family="Helvetica,sans-Serif" font-size="10.00">SdSpiArduinoDriver</text>
<text text-anchor="middle" x="1548.5" y="-94.5" font-family="Helvetica,sans-Serif" font-size="10.00">::deactivate</text>
</a>
</g>
</g>
<!-- Node21&#45;&gt;Node22 -->
<g id="edge23_Node000021_Node000022" class="edge">
<title>Node21&#45;&gt;Node22</title>
<g id="a_edge23_Node000021_Node000022"><a xlink:title=" ">
<path fill="none" stroke="#63b8ff" d="M1457.02,-104.1C1465.63,-103.94 1474.3,-103.79 1482.7,-103.64"/>
<polygon fill="#63b8ff" stroke="#63b8ff" points="1482.84,-107.14 1492.78,-103.47 1482.72,-100.14 1482.84,-107.14"/>
</a>
</g>
</g>
<!-- Node23&#45;&gt;Node14 -->
<g id="edge26_Node000023_Node000014" class="edge">
<title>Node23&#45;&gt;Node14</title>
<g id="a_edge26_Node000023_Node000014"><a xlink:title=" ">
<path fill="none" stroke="#63b8ff" d="M1452.06,-144.38C1470.21,-144.59 1489.01,-144.81 1505.07,-145"/>
<polygon fill="#63b8ff" stroke="#63b8ff" points="1505.15,-148.5 1515.19,-145.12 1505.23,-141.5 1505.15,-148.5"/>
</a>
</g>
</g>
<!-- Node24&#45;&gt;Node8 -->
<g id="edge29_Node000024_Node000008" class="edge">
<title>Node24&#45;&gt;Node8</title>
<g id="a_edge29_Node000024_Node000008"><a xlink:title=" ">
<path fill="none" stroke="#63b8ff" d="M1078.37,-179.88C1141.7,-180.22 1235.09,-180.73 1300.22,-181.09"/>
<polygon fill="#63b8ff" stroke="#63b8ff" points="1300.4,-184.59 1310.42,-181.14 1300.44,-177.59 1300.4,-184.59"/>
</a>
</g>
</g>
<!-- Node24&#45;&gt;Node19 -->
<g id="edge28_Node000024_Node000019" class="edge">
<title>Node24&#45;&gt;Node19</title>
<g id="a_edge28_Node000024_Node000019"><a xlink:title=" ">
<path fill="none" stroke="#63b8ff" d="M1054.58,-169.93C1062.69,-167.22 1070.84,-163.8 1078,-159.5 1097.67,-147.69 1094.11,-133.94 1114,-122.5 1117.05,-120.74 1120.27,-119.16 1123.59,-117.73"/>
<polygon fill="#63b8ff" stroke="#63b8ff" points="1125.05,-120.92 1133.15,-114.08 1122.56,-114.37 1125.05,-120.92"/>
</a>
</g>
</g>
<!-- Node24&#45;&gt;Node20 -->
<g id="edge30_Node000024_Node000020" class="edge">
<title>Node24&#45;&gt;Node20</title>
<g id="a_edge30_Node000024_Node000020"><a xlink:title=" ">
<path fill="none" stroke="#63b8ff" d="M1053.66,-169.91C1077.34,-164.83 1106.61,-158.54 1131.6,-153.18"/>
<polygon fill="#63b8ff" stroke="#63b8ff" points="1132.61,-156.54 1141.66,-151.02 1131.14,-149.7 1132.61,-156.54"/>
</a>
</g>
</g>
<!-- Node24&#45;&gt;Node25 -->
<g id="edge31_Node000024_Node000025" class="edge">
<title>Node24&#45;&gt;Node25</title>
<g id="a_edge31_Node000024_Node000025"><a xlink:title=" ">
<path fill="none" stroke="#63b8ff" d="M1016.87,-189.22C1032.99,-208.49 1071.86,-251.66 1114,-274.5 1118.18,-276.77 1122.65,-278.78 1127.24,-280.55"/>
<polygon fill="#63b8ff" stroke="#63b8ff" points="1126.17,-283.89 1136.76,-283.88 1128.48,-277.28 1126.17,-283.89"/>
</a>
</g>
</g>
<!-- Node25&#45;&gt;Node6 -->
<g id="edge32_Node000025_Node000006" class="edge">
<title>Node25&#45;&gt;Node6</title>
<g id="a_edge32_Node000025_Node000006"><a xlink:title=" ">
<path fill="none" stroke="#63b8ff" d="M1235.31,-303.09C1260.61,-308.22 1291.95,-314.57 1318.57,-319.96"/>
<polygon fill="#63b8ff" stroke="#63b8ff" points="1318.03,-323.42 1328.53,-321.98 1319.42,-316.56 1318.03,-323.42"/>
</a>
</g>
</g>
<!-- Node26 -->
<g id="Node000026" class="node">
<title>Node26</title>
<g id="a_Node000026"><a xlink:href="../../db/df4/classTimeout.xhtml#abbabe99f42e52472ddd3a7e9d22dce95" target="_top" xlink:title=" ">
<polygon fill="white" stroke="#666666" points="1431,-303 1322,-303 1322,-284 1431,-284 1431,-303"/>
<text text-anchor="middle" x="1376.5" y="-291" font-family="Helvetica,sans-Serif" font-size="10.00">Timeout::timedOut</text>
</a>
</g>
</g>
<!-- Node25&#45;&gt;Node26 -->
<g id="edge33_Node000025_Node000026" class="edge">
<title>Node25&#45;&gt;Node26</title>
<g id="a_edge33_Node000025_Node000026"><a xlink:title=" ">
<path fill="none" stroke="#63b8ff" d="M1260.22,-293.5C1277.23,-293.5 1295.22,-293.5 1311.82,-293.5"/>
<polygon fill="#63b8ff" stroke="#63b8ff" points="1311.95,-297 1321.95,-293.5 1311.95,-290 1311.95,-297"/>
</a>
</g>
</g>
<!-- Node27 -->
<g id="Node000027" class="node">
<title>Node27</title>
<g id="a_Node000027"><a xlink:href="../../db/df4/classTimeout.xhtml#a9a72ea0591f11452fb15bfaa1ae5108a" target="_top" xlink:title=" ">
<polygon fill="white" stroke="#666666" points="1599.5,-303 1497.5,-303 1497.5,-284 1599.5,-284 1599.5,-303"/>
<text text-anchor="middle" x="1548.5" y="-291" font-family="Helvetica,sans-Serif" font-size="10.00">Timeout::millis16</text>
</a>
</g>
</g>
<!-- Node26&#45;&gt;Node27 -->
<g id="edge34_Node000026_Node000027" class="edge">
<title>Node26&#45;&gt;Node27</title>
<g id="a_edge34_Node000026_Node000027"><a xlink:title=" ">
<path fill="none" stroke="#63b8ff" d="M1431.29,-293.5C1449.02,-293.5 1468.85,-293.5 1487.04,-293.5"/>
<polygon fill="#63b8ff" stroke="#63b8ff" points="1487.24,-297 1497.24,-293.5 1487.24,-290 1487.24,-297"/>
</a>
</g>
</g>
<!-- Node28 -->
<g id="Node000028" class="node">
<title>Node28</title>
<g id="a_Node000028"><a xlink:href="../../d5/df3/wiring_8c.xhtml#a6ff7f2532a22366f0013bc41397129fd" target="_top" xlink:title=" ">
<polygon fill="white" stroke="#666666" points="1699,-303 1655,-303 1655,-284 1699,-284 1699,-303"/>
<text text-anchor="middle" x="1677" y="-291" font-family="Helvetica,sans-Serif" font-size="10.00">millis</text>
</a>
</g>
</g>
<!-- Node27&#45;&gt;Node28 -->
<g id="edge35_Node000027_Node000028" class="edge">
<title>Node27&#45;&gt;Node28</title>
<g id="a_edge35_Node000027_Node000028"><a xlink:title=" ">
<path fill="none" stroke="#63b8ff" d="M1599.86,-293.5C1614.97,-293.5 1631.11,-293.5 1644.62,-293.5"/>
<polygon fill="#63b8ff" stroke="#63b8ff" points="1644.83,-297 1654.83,-293.5 1644.83,-290 1644.83,-297"/>
</a>
</g>
</g>
<!-- Node29&#45;&gt;Node29 -->
<g id="edge39_Node000029_Node000029" class="edge">
<title>Node29&#45;&gt;Node29</title>
<g id="a_edge39_Node000029_Node000029"><a xlink:title=" ">
<path fill="none" stroke="#63b8ff" d="M603.91,-19.08C589.51,-27.73 599.38,-37 633.5,-37 656.96,-37 668.95,-32.62 669.48,-27.07"/>
<polygon fill="#63b8ff" stroke="#63b8ff" points="672.07,-24.71 663.09,-19.08 666.61,-29.08 672.07,-24.71"/>
</a>
</g>
</g>
</g>
</svg>

<g id="navigator" transform="translate(0 0)" fill="#404254">
  <rect fill="#f2f5e9" fill-opacity="0.5" stroke="#606060" stroke-width=".5" x="0" y="0" width="60" height="60"/>
  <use id="zoomplus" xlink:href="#zoomPlus" x="17" y="9" onmousedown="handleZoom(evt,'in')"/>
  <use id="zoomminus" xlink:href="#zoomMin" x="42" y="9" onmousedown="handleZoom(evt,'out')"/>
  <use id="reset" xlink:href="#resetDef" x="30" y="36" onmousedown="handleReset()"/>
   <use id="arrowup" xlink:href="#arrowUp" x="0" y="0" onmousedown="handlePan(0,-1)"/>
  <use id="arrowright" xlink:href="#arrowRight" x="0" y="0" onmousedown="handlePan(1,0)"/>
  <use id="arrowdown" xlink:href="#arrowDown" x="0" y="0" onmousedown="handlePan(0,1)"/>
  <use id="arrowleft" xlink:href="#arrowLeft" x="0" y="0" onmousedown="handlePan(-1,0)"/>
</g>
<svg viewBox="0 0 15 15" width="100%" height="30px" preserveAspectRatio="xMaxYMin meet">
 <g id="arrow_out" transform="scale(0.3 0.3)">
  <a xlink:href="classSharedSpiCard_a42f70c0bffce374e014a42efda0bce4e_cgraph_org.svg" target="_base">
   <rect id="button" ry="5" rx="5" y="6" x="6" height="38" width="38"
        fill="#f2f5e9" fill-opacity="0.5" stroke="#606060" stroke-width="1.0"/>
   <path id="arrow"
     d="M 11.500037,31.436501 C 11.940474,20.09759 22.043105,11.32322 32.158766,21.979434 L 37.068811,17.246167 C 37.068811,17.246167 37.088388,32 37.088388,32 L 22.160133,31.978069 C 22.160133,31.978069 26.997745,27.140456 26.997745,27.140456 C 18.528582,18.264221 13.291696,25.230495 11.500037,31.436501 z"
     style="fill:#404040;"/>
  </a>
 </g>
</svg>

<style type='text/css'>
<![CDATA[
[data-mouse-over-selected='false'] { opacity: 0.7; }
[data-mouse-over-selected='true']  { opacity: 1.0; }
]]>
</style>
<script type="application/ecmascript"><![CDATA[
document.addEventListener('DOMContentLoaded', (event) => {
  highlightEdges();
  highlightAdjacentNodes();
});
]]></script>
</svg>
