<?xml version="1.0" encoding="UTF-8" standalone="no"?>
<!DOCTYPE svg PUBLIC "-//W3C//DTD SVG 1.1//EN"
 "http://www.w3.org/Graphics/SVG/1.1/DTD/svg11.dtd">
<!-- Generated by graphviz version 2.43.0 (0)
 -->
<!-- Title: SharedSpiCard::end Pages: 1 -->
<svg width="1427pt" height="270pt"
 viewBox="0.00 0.00 1427.00 270.00" xmlns="http://www.w3.org/2000/svg" xmlns:xlink="http://www.w3.org/1999/xlink">
<g id="graph0" class="graph" transform="scale(1 1) rotate(0) translate(4 266)">
<title>SharedSpiCard::end</title>
<!-- Node1 -->
<g id="Node000001" class="node">
<title>Node1</title>
<g id="a_Node000001"><a xlink:title=" ">
<polygon fill="#999999" stroke="#666666" points="112,-219.5 0,-219.5 0,-200.5 112,-200.5 112,-219.5"/>
<text text-anchor="middle" x="56" y="-207.5" font-family="Helvetica,sans-Serif" font-size="10.00">SharedSpiCard::end</text>
</a>
</g>
</g>
<!-- Node2 -->
<g id="Node000002" class="node">
<title>Node2</title>
<g id="a_Node000002"><a xlink:href="../../d8/d7f/classSharedSpiCard.xhtml#aea0aba4ad9333f2c5d9e2087fe901293" target="_top" xlink:title=" ">
<polygon fill="white" stroke="#666666" points="286,-247.5 160,-247.5 160,-228.5 286,-228.5 286,-247.5"/>
<text text-anchor="middle" x="223" y="-235.5" font-family="Helvetica,sans-Serif" font-size="10.00">SharedSpiCard::spiEnd</text>
</a>
</g>
</g>
<!-- Node1&#45;&gt;Node2 -->
<g id="edge1_Node000001_Node000002" class="edge">
<title>Node1&#45;&gt;Node2</title>
<g id="a_edge1_Node000001_Node000002"><a xlink:title=" ">
<path fill="none" stroke="#63b8ff" d="M112.4,-219.4C126.4,-221.78 141.57,-224.35 156.03,-226.8"/>
<polygon fill="#63b8ff" stroke="#63b8ff" points="155.46,-230.26 165.9,-228.48 156.63,-223.36 155.46,-230.26"/>
</a>
</g>
</g>
<!-- Node4 -->
<g id="Node000004" class="node">
<title>Node4</title>
<g id="a_Node000004"><a xlink:href="../../d8/d7f/classSharedSpiCard.xhtml#a2f181b3d6f27413a0f5ee883dfd94d87" target="_top" xlink:title=" ">
<polygon fill="white" stroke="#666666" points="298,-201.5 148,-201.5 148,-182.5 298,-182.5 298,-201.5"/>
<text text-anchor="middle" x="223" y="-189.5" font-family="Helvetica,sans-Serif" font-size="10.00">SharedSpiCard::syncDevice</text>
</a>
</g>
</g>
<!-- Node1&#45;&gt;Node4 -->
<g id="edge3_Node000001_Node000004" class="edge">
<title>Node1&#45;&gt;Node4</title>
<g id="a_edge3_Node000001_Node000004"><a xlink:title=" ">
<path fill="none" stroke="#63b8ff" d="M112.4,-203.96C120.61,-203.06 129.22,-202.12 137.86,-201.18"/>
<polygon fill="#63b8ff" stroke="#63b8ff" points="138.42,-204.64 147.99,-200.07 137.67,-197.68 138.42,-204.64"/>
</a>
</g>
</g>
<!-- Node3 -->
<g id="Node000003" class="node">
<title>Node3</title>
<g id="a_Node000003"><a xlink:href="../../d0/d25/classSdSpiArduinoDriver.xhtml#a7f94ce98855bb3d1781bbad77741e494" target="_top" xlink:title=" ">
<polygon fill="white" stroke="#666666" points="470,-257.5 335,-257.5 335,-238.5 470,-238.5 470,-257.5"/>
<text text-anchor="middle" x="402.5" y="-245.5" font-family="Helvetica,sans-Serif" font-size="10.00">SdSpiArduinoDriver::end</text>
</a>
</g>
</g>
<!-- Node2&#45;&gt;Node3 -->
<g id="edge2_Node000002_Node000003" class="edge">
<title>Node2&#45;&gt;Node3</title>
<g id="a_edge2_Node000002_Node000003"><a xlink:title=" ">
<path fill="none" stroke="#63b8ff" d="M286.08,-241.5C298.54,-242.2 311.78,-242.95 324.68,-243.67"/>
<polygon fill="#63b8ff" stroke="#63b8ff" points="324.74,-247.18 334.92,-244.25 325.14,-240.19 324.74,-247.18"/>
</a>
</g>
</g>
<!-- Node5 -->
<g id="Node000005" class="node">
<title>Node5</title>
<g id="a_Node000005"><a xlink:href="../../d8/d7f/classSharedSpiCard.xhtml#ab33ad2aefbb9cff905cad0879dffc78b" target="_top" xlink:title=" ">
<polygon fill="white" stroke="#666666" points="471,-220.5 334,-220.5 334,-201.5 471,-201.5 471,-220.5"/>
<text text-anchor="middle" x="402.5" y="-208.5" font-family="Helvetica,sans-Serif" font-size="10.00">SharedSpiCard::readStop</text>
</a>
</g>
</g>
<!-- Node4&#45;&gt;Node5 -->
<g id="edge4_Node000004_Node000005" class="edge">
<title>Node4&#45;&gt;Node5</title>
<g id="a_edge4_Node000004_Node000005"><a xlink:title=" ">
<path fill="none" stroke="#63b8ff" d="M298.25,-199.95C306.62,-200.84 315.17,-201.76 323.59,-202.66"/>
<polygon fill="#63b8ff" stroke="#63b8ff" points="323.46,-206.17 333.78,-203.75 324.21,-199.21 323.46,-206.17"/>
</a>
</g>
</g>
<!-- Node27 -->
<g id="Node000027" class="node">
<title>Node27</title>
<g id="a_Node000027"><a xlink:href="../../d8/d7f/classSharedSpiCard.xhtml#ae9a34a573077e43e7c6028a16ae77fb3" target="_top" xlink:title=" ">
<polygon fill="white" stroke="#666666" points="659.5,-182.5 519.5,-182.5 519.5,-163.5 659.5,-163.5 659.5,-182.5"/>
<text text-anchor="middle" x="589.5" y="-170.5" font-family="Helvetica,sans-Serif" font-size="10.00">SharedSpiCard::writeStop</text>
</a>
</g>
</g>
<!-- Node4&#45;&gt;Node27 -->
<g id="edge31_Node000004_Node000027" class="edge">
<title>Node4&#45;&gt;Node27</title>
<g id="a_edge31_Node000004_Node000027"><a xlink:title=" ">
<path fill="none" stroke="#63b8ff" d="M298.2,-188.13C359.52,-184.94 446.39,-180.41 509.1,-177.14"/>
<polygon fill="#63b8ff" stroke="#63b8ff" points="509.53,-180.62 519.34,-176.61 509.17,-173.63 509.53,-180.62"/>
</a>
</g>
</g>
<!-- Node6 -->
<g id="Node000006" class="node">
<title>Node6</title>
<g id="a_Node000006"><a xlink:href="../../d8/d7f/classSharedSpiCard.xhtml#adda33199753fc2aec74fe317cbaabc06" target="_top" xlink:title=" ">
<polygon fill="white" stroke="#666666" points="672,-116.5 507,-116.5 507,-97.5 672,-97.5 672,-116.5"/>
<text text-anchor="middle" x="589.5" y="-104.5" font-family="Helvetica,sans-Serif" font-size="10.00">SharedSpiCard::cardCommand</text>
</a>
</g>
</g>
<!-- Node5&#45;&gt;Node6 -->
<g id="edge5_Node000005_Node000006" class="edge">
<title>Node5&#45;&gt;Node6</title>
<g id="a_edge5_Node000005_Node000006"><a xlink:title=" ">
<path fill="none" stroke="#63b8ff" d="M420.57,-201.4C453.06,-183.14 523.97,-143.28 562.43,-121.65"/>
<polygon fill="#63b8ff" stroke="#63b8ff" points="564.47,-124.53 571.47,-116.57 561.04,-118.42 564.47,-124.53"/>
</a>
</g>
</g>
<!-- Node22 -->
<g id="Node000022" class="node">
<title>Node22</title>
<g id="a_Node000022"><a xlink:href="../../d8/d7f/classSharedSpiCard.xhtml#a747c3f0b962098cf0c097f3c4c2b4fd4" target="_top" xlink:title=" ">
<polygon fill="white" stroke="#666666" points="839.5,-258.5 722.5,-258.5 722.5,-239.5 839.5,-239.5 839.5,-258.5"/>
<text text-anchor="middle" x="781" y="-246.5" font-family="Helvetica,sans-Serif" font-size="10.00">SharedSpiCard::error</text>
</a>
</g>
</g>
<!-- Node5&#45;&gt;Node22 -->
<g id="edge24_Node000005_Node000022" class="edge">
<title>Node5&#45;&gt;Node22</title>
<g id="a_edge24_Node000005_Node000022"><a xlink:title=" ">
<path fill="none" stroke="#63b8ff" d="M470.53,-220.53C482.66,-222.12 495.2,-223.68 507,-225 576.89,-232.79 657.08,-239.59 712.37,-243.94"/>
<polygon fill="#63b8ff" stroke="#63b8ff" points="712.16,-247.43 722.4,-244.72 712.71,-240.45 712.16,-247.43"/>
</a>
</g>
</g>
<!-- Node23 -->
<g id="Node000023" class="node">
<title>Node23</title>
<g id="a_Node000023"><a xlink:href="../../d8/d7f/classSharedSpiCard.xhtml#a0f511c39c50055a4fc97e720933aee3a" target="_top" xlink:title=" ">
<polygon fill="white" stroke="#666666" points="846,-221.5 716,-221.5 716,-202.5 846,-202.5 846,-221.5"/>
<text text-anchor="middle" x="781" y="-209.5" font-family="Helvetica,sans-Serif" font-size="10.00">SharedSpiCard::spiStop</text>
</a>
</g>
</g>
<!-- Node5&#45;&gt;Node23 -->
<g id="edge25_Node000005_Node000023" class="edge">
<title>Node5&#45;&gt;Node23</title>
<g id="a_edge25_Node000005_Node000023"><a xlink:title=" ">
<path fill="none" stroke="#63b8ff" d="M471.25,-211.18C537.3,-211.36 637.49,-211.62 705.7,-211.8"/>
<polygon fill="#63b8ff" stroke="#63b8ff" points="705.93,-215.3 715.94,-211.83 705.95,-208.3 705.93,-215.3"/>
</a>
</g>
</g>
<!-- Node6&#45;&gt;Node4 -->
<g id="edge18_Node000006_Node000004" class="edge">
<title>Node6&#45;&gt;Node4</title>
<g id="a_edge18_Node000006_Node000004"><a xlink:title=" ">
<path fill="none" stroke="#63b8ff" d="M547.73,-116.51C480.74,-132.13 347.56,-163.19 274.63,-180.19"/>
<polygon fill="#63b8ff" stroke="#63b8ff" points="273.7,-176.82 264.75,-182.5 275.29,-183.63 273.7,-176.82"/>
</a>
</g>
</g>
<!-- Node7 -->
<g id="Node000007" class="node">
<title>Node7</title>
<g id="a_Node000007"><a xlink:href="../../d8/d7f/classSharedSpiCard.xhtml#a08363209d938db87521cca6a84146041" target="_top" xlink:title=" ">
<polygon fill="white" stroke="#666666" points="1044,-32.5 897,-32.5 897,-13.5 1044,-13.5 1044,-32.5"/>
<text text-anchor="middle" x="970.5" y="-20.5" font-family="Helvetica,sans-Serif" font-size="10.00">SharedSpiCard::spiReceive</text>
</a>
</g>
</g>
<!-- Node6&#45;&gt;Node7 -->
<g id="edge6_Node000006_Node000007" class="edge">
<title>Node6&#45;&gt;Node7</title>
<g id="a_edge6_Node000006_Node000007"><a xlink:title=" ">
<path fill="none" stroke="#63b8ff" d="M603.4,-97.37C624.17,-82.45 666.88,-54.22 708,-42 766.09,-24.74 834.47,-20.29 886.74,-20"/>
<polygon fill="#63b8ff" stroke="#63b8ff" points="886.98,-23.5 896.98,-19.99 886.97,-16.5 886.98,-23.5"/>
</a>
</g>
</g>
<!-- Node9 -->
<g id="Node000009" class="node">
<title>Node9</title>
<g id="a_Node000009"><a xlink:href="../../d8/d7f/classSharedSpiCard.xhtml#ab311b9ad8a250f06afbe091f7abb118b" target="_top" xlink:title=" ">
<polygon fill="white" stroke="#666666" points="1036.5,-182.5 904.5,-182.5 904.5,-163.5 1036.5,-163.5 1036.5,-182.5"/>
<text text-anchor="middle" x="970.5" y="-170.5" font-family="Helvetica,sans-Serif" font-size="10.00">SharedSpiCard::spiSend</text>
</a>
</g>
</g>
<!-- Node6&#45;&gt;Node9 -->
<g id="edge8_Node000006_Node000009" class="edge">
<title>Node6&#45;&gt;Node9</title>
<g id="a_edge8_Node000006_Node000009"><a xlink:title=" ">
<path fill="none" stroke="#63b8ff" d="M645.21,-116.53C713.93,-128.49 831.68,-149 904.8,-161.73"/>
<polygon fill="#63b8ff" stroke="#63b8ff" points="904.36,-165.21 914.81,-163.48 905.56,-158.31 904.36,-165.21"/>
</a>
</g>
</g>
<!-- Node11 -->
<g id="Node000011" class="node">
<title>Node11</title>
<g id="a_Node000011"><a xlink:href="../../d8/d7f/classSharedSpiCard.xhtml#aef2dfa72e8d5643c90720f9f8c6a4254" target="_top" xlink:title=" ">
<polygon fill="white" stroke="#666666" points="846.5,-107.5 715.5,-107.5 715.5,-88.5 846.5,-88.5 846.5,-107.5"/>
<text text-anchor="middle" x="781" y="-95.5" font-family="Helvetica,sans-Serif" font-size="10.00">SharedSpiCard::spiStart</text>
</a>
</g>
</g>
<!-- Node6&#45;&gt;Node11 -->
<g id="edge10_Node000006_Node000011" class="edge">
<title>Node6&#45;&gt;Node11</title>
<g id="a_edge10_Node000006_Node000011"><a xlink:title=" ">
<path fill="none" stroke="#63b8ff" d="M672.24,-103.12C683.17,-102.6 694.34,-102.07 705.14,-101.56"/>
<polygon fill="#63b8ff" stroke="#63b8ff" points="705.55,-105.04 715.37,-101.07 705.22,-98.05 705.55,-105.04"/>
</a>
</g>
</g>
<!-- Node18 -->
<g id="Node000018" class="node">
<title>Node18</title>
<g id="a_Node000018"><a xlink:href="../../d8/d7f/classSharedSpiCard.xhtml#ab3468397bb3b12d29dd2f31e45b3dcaf" target="_top" xlink:title=" ">
<polygon fill="white" stroke="#666666" points="854,-70.5 708,-70.5 708,-51.5 854,-51.5 854,-70.5"/>
<text text-anchor="middle" x="781" y="-58.5" font-family="Helvetica,sans-Serif" font-size="10.00">SharedSpiCard::waitReady</text>
</a>
</g>
</g>
<!-- Node6&#45;&gt;Node18 -->
<g id="edge19_Node000006_Node000018" class="edge">
<title>Node6&#45;&gt;Node18</title>
<g id="a_edge19_Node000006_Node000018"><a xlink:title=" ">
<path fill="none" stroke="#63b8ff" d="M629.76,-97.47C659.11,-90.35 699.42,-80.56 730.9,-72.92"/>
<polygon fill="#63b8ff" stroke="#63b8ff" points="731.89,-76.28 740.79,-70.52 730.24,-69.48 731.89,-76.28"/>
</a>
</g>
</g>
<!-- Node8 -->
<g id="Node000008" class="node">
<title>Node8</title>
<g id="a_Node000008"><a xlink:href="../../d0/d25/classSdSpiArduinoDriver.xhtml#a8d6bc852a52e9d69c4b1e48ee062e8d1" target="_top" xlink:title=" ">
<polygon fill="white" stroke="#666666" points="1198,-30 1087,-30 1087,0 1198,0 1198,-30"/>
<text text-anchor="start" x="1095" y="-18" font-family="Helvetica,sans-Serif" font-size="10.00">SdSpiArduinoDriver</text>
<text text-anchor="middle" x="1142.5" y="-7" font-family="Helvetica,sans-Serif" font-size="10.00">::receive</text>
</a>
</g>
</g>
<!-- Node7&#45;&gt;Node8 -->
<g id="edge7_Node000007_Node000008" class="edge">
<title>Node7&#45;&gt;Node8</title>
<g id="a_edge7_Node000007_Node000008"><a xlink:title=" ">
<path fill="none" stroke="#63b8ff" d="M1044.09,-19.58C1054.96,-19.07 1066.11,-18.55 1076.81,-18.04"/>
<polygon fill="#63b8ff" stroke="#63b8ff" points="1077.07,-21.54 1086.9,-17.57 1076.75,-14.54 1077.07,-21.54"/>
</a>
</g>
</g>
<!-- Node10 -->
<g id="Node000010" class="node">
<title>Node10</title>
<g id="a_Node000010"><a xlink:href="../../d0/d25/classSdSpiArduinoDriver.xhtml#a3c4842e47f98fe5d3799cd6028778ab5" target="_top" xlink:title=" ">
<polygon fill="white" stroke="#666666" points="1198,-202 1087,-202 1087,-172 1198,-172 1198,-202"/>
<text text-anchor="start" x="1095" y="-190" font-family="Helvetica,sans-Serif" font-size="10.00">SdSpiArduinoDriver</text>
<text text-anchor="middle" x="1142.5" y="-179" font-family="Helvetica,sans-Serif" font-size="10.00">::send</text>
</a>
</g>
</g>
<!-- Node9&#45;&gt;Node10 -->
<g id="edge9_Node000009_Node000010" class="edge">
<title>Node9&#45;&gt;Node10</title>
<g id="a_edge9_Node000009_Node000010"><a xlink:title=" ">
<path fill="none" stroke="#63b8ff" d="M1036.74,-178.37C1049.82,-179.45 1063.56,-180.58 1076.62,-181.66"/>
<polygon fill="#63b8ff" stroke="#63b8ff" points="1076.68,-185.17 1086.93,-182.51 1077.25,-178.2 1076.68,-185.17"/>
</a>
</g>
</g>
<!-- Node11&#45;&gt;Node9 -->
<g id="edge17_Node000011_Node000009" class="edge">
<title>Node11&#45;&gt;Node9</title>
<g id="a_edge17_Node000011_Node000009"><a xlink:title=" ">
<path fill="none" stroke="#63b8ff" d="M820.67,-107.6C831.85,-111.23 843.78,-115.99 854,-122 872.71,-133.01 870.77,-144.93 890,-155 893.57,-156.87 897.32,-158.54 901.18,-160.04"/>
<polygon fill="#63b8ff" stroke="#63b8ff" points="900.33,-163.45 910.93,-163.43 902.63,-156.84 900.33,-163.45"/>
</a>
</g>
</g>
<!-- Node12 -->
<g id="Node000012" class="node">
<title>Node12</title>
<g id="a_Node000012"><a xlink:href="../../d8/d7f/classSharedSpiCard.xhtml#a69ee2fe49dfaeea2347d8a265806d2b6" target="_top" xlink:title=" ">
<polygon fill="white" stroke="#666666" points="1045,-107.5 896,-107.5 896,-88.5 1045,-88.5 1045,-107.5"/>
<text text-anchor="middle" x="970.5" y="-95.5" font-family="Helvetica,sans-Serif" font-size="10.00">SharedSpiCard::spiActivate</text>
</a>
</g>
</g>
<!-- Node11&#45;&gt;Node12 -->
<g id="edge11_Node000011_Node000012" class="edge">
<title>Node11&#45;&gt;Node12</title>
<g id="a_edge11_Node000011_Node000012"><a xlink:title=" ">
<path fill="none" stroke="#63b8ff" d="M846.53,-98C859.19,-98 872.64,-98 885.82,-98"/>
<polygon fill="#63b8ff" stroke="#63b8ff" points="885.84,-101.5 895.84,-98 885.84,-94.5 885.84,-101.5"/>
</a>
</g>
</g>
<!-- Node14 -->
<g id="Node000014" class="node">
<title>Node14</title>
<g id="a_Node000014"><a xlink:href="../../d8/d7f/classSharedSpiCard.xhtml#a8c3088599862ff6e84ae79bfdf32aea8" target="_top" xlink:title=" ">
<polygon fill="white" stroke="#666666" points="1039.5,-145.5 901.5,-145.5 901.5,-126.5 1039.5,-126.5 1039.5,-145.5"/>
<text text-anchor="middle" x="970.5" y="-133.5" font-family="Helvetica,sans-Serif" font-size="10.00">SharedSpiCard::spiSelect</text>
</a>
</g>
</g>
<!-- Node11&#45;&gt;Node14 -->
<g id="edge13_Node000011_Node000014" class="edge">
<title>Node11&#45;&gt;Node14</title>
<g id="a_edge13_Node000011_Node000014"><a xlink:title=" ">
<path fill="none" stroke="#63b8ff" d="M829.31,-107.59C854.61,-112.72 885.95,-119.07 912.57,-124.46"/>
<polygon fill="#63b8ff" stroke="#63b8ff" points="912.03,-127.92 922.53,-126.48 913.42,-121.06 912.03,-127.92"/>
</a>
</g>
</g>
<!-- Node13 -->
<g id="Node000013" class="node">
<title>Node13</title>
<g id="a_Node000013"><a xlink:href="../../d0/d25/classSdSpiArduinoDriver.xhtml#abb6b88c5c8b87fc344a69f23f6eab3d9" target="_top" xlink:title=" ">
<polygon fill="white" stroke="#666666" points="1198,-116 1087,-116 1087,-86 1198,-86 1198,-116"/>
<text text-anchor="start" x="1095" y="-104" font-family="Helvetica,sans-Serif" font-size="10.00">SdSpiArduinoDriver</text>
<text text-anchor="middle" x="1142.5" y="-93" font-family="Helvetica,sans-Serif" font-size="10.00">::activate</text>
</a>
</g>
</g>
<!-- Node12&#45;&gt;Node13 -->
<g id="edge12_Node000012_Node000013" class="edge">
<title>Node12&#45;&gt;Node13</title>
<g id="a_edge12_Node000012_Node000013"><a xlink:title=" ">
<path fill="none" stroke="#63b8ff" d="M1045.08,-99.3C1055.57,-99.48 1066.31,-99.67 1076.63,-99.86"/>
<polygon fill="#63b8ff" stroke="#63b8ff" points="1076.72,-103.36 1086.78,-100.03 1076.84,-96.36 1076.72,-103.36"/>
</a>
</g>
</g>
<!-- Node15 -->
<g id="Node000015" class="node">
<title>Node15</title>
<g id="a_Node000015"><a xlink:href="../../d2/df0/SdSpiChipSelect_8cpp.xhtml#ac469bbe2d31ffde9b00ffc68258d7428" target="_top" xlink:title=" ">
<polygon fill="white" stroke="#666666" points="1175.5,-153.5 1109.5,-153.5 1109.5,-134.5 1175.5,-134.5 1175.5,-153.5"/>
<text text-anchor="middle" x="1142.5" y="-141.5" font-family="Helvetica,sans-Serif" font-size="10.00">sdCsWrite</text>
</a>
</g>
</g>
<!-- Node14&#45;&gt;Node15 -->
<g id="edge14_Node000014_Node000015" class="edge">
<title>Node14&#45;&gt;Node15</title>
<g id="a_edge14_Node000014_Node000015"><a xlink:title=" ">
<path fill="none" stroke="#63b8ff" d="M1039.67,-139.21C1059.74,-140.15 1081.12,-141.16 1099.09,-142"/>
<polygon fill="#63b8ff" stroke="#63b8ff" points="1099.08,-145.51 1109.23,-142.48 1099.41,-138.52 1099.08,-145.51"/>
</a>
</g>
</g>
<!-- Node16 -->
<g id="Node000016" class="node">
<title>Node16</title>
<g id="a_Node000016"><a xlink:href="../../d5/d45/wiring__digital_8c.xhtml#a73b9b61feeaf7d790d107f2954a7fd93" target="_top" xlink:title=" ">
<polygon fill="white" stroke="#666666" points="1308,-153.5 1234,-153.5 1234,-134.5 1308,-134.5 1308,-153.5"/>
<text text-anchor="middle" x="1271" y="-141.5" font-family="Helvetica,sans-Serif" font-size="10.00">digitalWrite</text>
</a>
</g>
</g>
<!-- Node15&#45;&gt;Node16 -->
<g id="edge15_Node000015_Node000016" class="edge">
<title>Node15&#45;&gt;Node16</title>
<g id="a_edge15_Node000015_Node000016"><a xlink:title=" ">
<path fill="none" stroke="#63b8ff" d="M1175.75,-144C1190.28,-144 1207.71,-144 1223.61,-144"/>
<polygon fill="#63b8ff" stroke="#63b8ff" points="1223.79,-147.5 1233.79,-144 1223.79,-140.5 1223.79,-147.5"/>
</a>
</g>
</g>
<!-- Node17 -->
<g id="Node000017" class="node">
<title>Node17</title>
<g id="a_Node000017"><a xlink:href="../../d5/d45/wiring__digital_8c.xhtml#ae3d0bcbe4eb927ca8f5d5c21b7e4f224" target="_top" xlink:title=" ">
<polygon fill="white" stroke="#666666" points="1419,-153.5 1344,-153.5 1344,-134.5 1419,-134.5 1419,-153.5"/>
<text text-anchor="middle" x="1381.5" y="-141.5" font-family="Helvetica,sans-Serif" font-size="10.00">turnOffPWM</text>
</a>
</g>
</g>
<!-- Node16&#45;&gt;Node17 -->
<g id="edge16_Node000016_Node000017" class="edge">
<title>Node16&#45;&gt;Node17</title>
<g id="a_edge16_Node000016_Node000017"><a xlink:title=" ">
<path fill="none" stroke="#63b8ff" d="M1308.13,-144C1316.28,-144 1325.05,-144 1333.57,-144"/>
<polygon fill="#63b8ff" stroke="#63b8ff" points="1333.79,-147.5 1343.79,-144 1333.79,-140.5 1333.79,-147.5"/>
</a>
</g>
</g>
<!-- Node18&#45;&gt;Node7 -->
<g id="edge20_Node000018_Node000007" class="edge">
<title>Node18&#45;&gt;Node7</title>
<g id="a_edge20_Node000018_Node000007"><a xlink:title=" ">
<path fill="none" stroke="#63b8ff" d="M829.31,-51.41C854.61,-46.28 885.95,-39.93 912.57,-34.54"/>
<polygon fill="#63b8ff" stroke="#63b8ff" points="913.42,-37.94 922.53,-32.52 912.03,-31.08 913.42,-37.94"/>
</a>
</g>
</g>
<!-- Node19 -->
<g id="Node000019" class="node">
<title>Node19</title>
<g id="a_Node000019"><a xlink:href="../../db/df4/classTimeout.xhtml#abbabe99f42e52472ddd3a7e9d22dce95" target="_top" xlink:title=" ">
<polygon fill="white" stroke="#666666" points="1025,-70.5 916,-70.5 916,-51.5 1025,-51.5 1025,-70.5"/>
<text text-anchor="middle" x="970.5" y="-58.5" font-family="Helvetica,sans-Serif" font-size="10.00">Timeout::timedOut</text>
</a>
</g>
</g>
<!-- Node18&#45;&gt;Node19 -->
<g id="edge21_Node000018_Node000019" class="edge">
<title>Node18&#45;&gt;Node19</title>
<g id="a_edge21_Node000018_Node000019"><a xlink:title=" ">
<path fill="none" stroke="#63b8ff" d="M854.22,-61C871.23,-61 889.22,-61 905.82,-61"/>
<polygon fill="#63b8ff" stroke="#63b8ff" points="905.95,-64.5 915.95,-61 905.95,-57.5 905.95,-64.5"/>
</a>
</g>
</g>
<!-- Node20 -->
<g id="Node000020" class="node">
<title>Node20</title>
<g id="a_Node000020"><a xlink:href="../../db/df4/classTimeout.xhtml#a9a72ea0591f11452fb15bfaa1ae5108a" target="_top" xlink:title=" ">
<polygon fill="white" stroke="#666666" points="1193.5,-67.5 1091.5,-67.5 1091.5,-48.5 1193.5,-48.5 1193.5,-67.5"/>
<text text-anchor="middle" x="1142.5" y="-55.5" font-family="Helvetica,sans-Serif" font-size="10.00">Timeout::millis16</text>
</a>
</g>
</g>
<!-- Node19&#45;&gt;Node20 -->
<g id="edge22_Node000019_Node000020" class="edge">
<title>Node19&#45;&gt;Node20</title>
<g id="a_edge22_Node000019_Node000020"><a xlink:title=" ">
<path fill="none" stroke="#63b8ff" d="M1025.29,-60.05C1043.02,-59.74 1062.85,-59.39 1081.04,-59.07"/>
<polygon fill="#63b8ff" stroke="#63b8ff" points="1081.31,-62.56 1091.24,-58.89 1081.18,-55.56 1081.31,-62.56"/>
</a>
</g>
</g>
<!-- Node21 -->
<g id="Node000021" class="node">
<title>Node21</title>
<g id="a_Node000021"><a xlink:href="../../d5/df3/wiring_8c.xhtml#a6ff7f2532a22366f0013bc41397129fd" target="_top" xlink:title=" ">
<polygon fill="white" stroke="#666666" points="1293,-67.5 1249,-67.5 1249,-48.5 1293,-48.5 1293,-67.5"/>
<text text-anchor="middle" x="1271" y="-55.5" font-family="Helvetica,sans-Serif" font-size="10.00">millis</text>
</a>
</g>
</g>
<!-- Node20&#45;&gt;Node21 -->
<g id="edge23_Node000020_Node000021" class="edge">
<title>Node20&#45;&gt;Node21</title>
<g id="a_edge23_Node000020_Node000021"><a xlink:title=" ">
<path fill="none" stroke="#63b8ff" d="M1193.86,-58C1208.97,-58 1225.11,-58 1238.62,-58"/>
<polygon fill="#63b8ff" stroke="#63b8ff" points="1238.83,-61.5 1248.83,-58 1238.83,-54.5 1238.83,-61.5"/>
</a>
</g>
</g>
<!-- Node23&#45;&gt;Node9 -->
<g id="edge28_Node000023_Node000009" class="edge">
<title>Node23&#45;&gt;Node9</title>
<g id="a_edge28_Node000023_Node000009"><a xlink:title=" ">
<path fill="none" stroke="#63b8ff" d="M827.87,-202.46C853.84,-197.06 886.52,-190.26 913.94,-184.56"/>
<polygon fill="#63b8ff" stroke="#63b8ff" points="914.7,-187.97 923.78,-182.51 913.28,-181.12 914.7,-187.97"/>
</a>
</g>
</g>
<!-- Node24 -->
<g id="Node000024" class="node">
<title>Node24</title>
<g id="a_Node000024"><a xlink:href="../../d8/d7f/classSharedSpiCard.xhtml#ac6acfca5a23337977d2e4436ab8ab39a" target="_top" xlink:title=" ">
<polygon fill="white" stroke="#666666" points="1051,-256.5 890,-256.5 890,-237.5 1051,-237.5 1051,-256.5"/>
<text text-anchor="middle" x="970.5" y="-244.5" font-family="Helvetica,sans-Serif" font-size="10.00">SharedSpiCard::spiDeactivate</text>
</a>
</g>
</g>
<!-- Node23&#45;&gt;Node24 -->
<g id="edge26_Node000023_Node000024" class="edge">
<title>Node23&#45;&gt;Node24</title>
<g id="a_edge26_Node000023_Node000024"><a xlink:title=" ">
<path fill="none" stroke="#63b8ff" d="M833.24,-221.56C856.49,-225.9 884.17,-231.07 908.49,-235.61"/>
<polygon fill="#63b8ff" stroke="#63b8ff" points="907.85,-239.05 918.33,-237.45 909.14,-232.17 907.85,-239.05"/>
</a>
</g>
</g>
<!-- Node26 -->
<g id="Node000026" class="node">
<title>Node26</title>
<g id="a_Node000026"><a xlink:href="../../d8/d7f/classSharedSpiCard.xhtml#ad06a3278372300987b97876cf598c114" target="_top" xlink:title=" ">
<polygon fill="white" stroke="#666666" points="1046,-219.5 895,-219.5 895,-200.5 1046,-200.5 1046,-219.5"/>
<text text-anchor="middle" x="970.5" y="-207.5" font-family="Helvetica,sans-Serif" font-size="10.00">SharedSpiCard::spiUnselect</text>
</a>
</g>
</g>
<!-- Node23&#45;&gt;Node26 -->
<g id="edge29_Node000023_Node000026" class="edge">
<title>Node23&#45;&gt;Node26</title>
<g id="a_edge29_Node000023_Node000026"><a xlink:title=" ">
<path fill="none" stroke="#63b8ff" d="M846,-211.32C858.39,-211.19 871.55,-211.04 884.49,-210.91"/>
<polygon fill="#63b8ff" stroke="#63b8ff" points="884.84,-214.4 894.8,-210.8 884.76,-207.4 884.84,-214.4"/>
</a>
</g>
</g>
<!-- Node25 -->
<g id="Node000025" class="node">
<title>Node25</title>
<g id="a_Node000025"><a xlink:href="../../d0/d25/classSdSpiArduinoDriver.xhtml#ae88a255f533e3acb41d1221025a69b55" target="_top" xlink:title=" ">
<polygon fill="white" stroke="#666666" points="1198,-262 1087,-262 1087,-232 1198,-232 1198,-262"/>
<text text-anchor="start" x="1095" y="-250" font-family="Helvetica,sans-Serif" font-size="10.00">SdSpiArduinoDriver</text>
<text text-anchor="middle" x="1142.5" y="-239" font-family="Helvetica,sans-Serif" font-size="10.00">::deactivate</text>
</a>
</g>
</g>
<!-- Node24&#45;&gt;Node25 -->
<g id="edge27_Node000024_Node000025" class="edge">
<title>Node24&#45;&gt;Node25</title>
<g id="a_edge27_Node000024_Node000025"><a xlink:title=" ">
<path fill="none" stroke="#63b8ff" d="M1051.02,-247C1059.63,-247 1068.3,-247 1076.7,-247"/>
<polygon fill="#63b8ff" stroke="#63b8ff" points="1076.78,-250.5 1086.78,-247 1076.78,-243.5 1076.78,-250.5"/>
</a>
</g>
</g>
<!-- Node26&#45;&gt;Node15 -->
<g id="edge30_Node000026_Node000015" class="edge">
<title>Node26&#45;&gt;Node15</title>
<g id="a_edge30_Node000026_Node000015"><a xlink:title=" ">
<path fill="none" stroke="#63b8ff" d="M1028.61,-200.4C1036.33,-198.15 1043.99,-195.39 1051,-192 1069.5,-183.06 1069.04,-172.97 1087,-163 1091,-160.78 1095.31,-158.75 1099.69,-156.9"/>
<polygon fill="#63b8ff" stroke="#63b8ff" points="1101.23,-160.06 1109.29,-153.18 1098.7,-153.53 1101.23,-160.06"/>
</a>
</g>
</g>
<!-- Node27&#45;&gt;Node9 -->
<g id="edge33_Node000027_Node000009" class="edge">
<title>Node27&#45;&gt;Node9</title>
<g id="a_edge33_Node000027_Node000009"><a xlink:title=" ">
<path fill="none" stroke="#63b8ff" d="M659.57,-173C725.88,-173 825.78,-173 894.12,-173"/>
<polygon fill="#63b8ff" stroke="#63b8ff" points="894.38,-176.5 904.38,-173 894.38,-169.5 894.38,-176.5"/>
</a>
</g>
</g>
<!-- Node27&#45;&gt;Node18 -->
<g id="edge35_Node000027_Node000018" class="edge">
<title>Node27&#45;&gt;Node18</title>
<g id="a_edge35_Node000027_Node000018"><a xlink:title=" ">
<path fill="none" stroke="#63b8ff" d="M611.32,-163.48C628.68,-154.92 653.47,-141.23 672,-125 691.53,-107.89 686.23,-93.14 708,-79 710.56,-77.33 713.27,-75.82 716.08,-74.45"/>
<polygon fill="#63b8ff" stroke="#63b8ff" points="717.46,-77.67 725.29,-70.53 714.72,-71.23 717.46,-77.67"/>
</a>
</g>
</g>
<!-- Node27&#45;&gt;Node22 -->
<g id="edge32_Node000027_Node000022" class="edge">
<title>Node27&#45;&gt;Node22</title>
<g id="a_edge32_Node000027_Node000022"><a xlink:title=" ">
<path fill="none" stroke="#63b8ff" d="M607.12,-182.63C629.44,-195.22 670.63,-217.28 708,-231 713.58,-233.05 719.49,-234.94 725.42,-236.67"/>
<polygon fill="#63b8ff" stroke="#63b8ff" points="724.81,-240.13 735.38,-239.42 726.67,-233.39 724.81,-240.13"/>
</a>
</g>
</g>
<!-- Node27&#45;&gt;Node23 -->
<g id="edge34_Node000027_Node000023" class="edge">
<title>Node27&#45;&gt;Node23</title>
<g id="a_edge34_Node000027_Node000023"><a xlink:title=" ">
<path fill="none" stroke="#63b8ff" d="M636.86,-182.54C663.11,-187.94 696.13,-194.74 723.85,-200.44"/>
<polygon fill="#63b8ff" stroke="#63b8ff" points="723.29,-203.9 733.79,-202.49 724.7,-197.05 723.29,-203.9"/>
</a>
</g>
</g>
</g>
</svg>
