<?xml version="1.0" encoding="UTF-8" standalone="no"?>
<!DOCTYPE svg PUBLIC "-//W3C//DTD SVG 1.1//EN"
 "http://www.w3.org/Graphics/SVG/1.1/DTD/svg11.dtd">
<!-- Generated by graphviz version 2.43.0 (0)
 -->
<!-- Title: SharedSpiCard::begin Pages: 1 -->
<svg width="1627pt" height="732pt"
 viewBox="0.00 0.00 1627.00 731.50" xmlns="http://www.w3.org/2000/svg" xmlns:xlink="http://www.w3.org/1999/xlink">
<g id="graph0" class="graph" transform="scale(1 1) rotate(0) translate(4 727.5)">
<title>SharedSpiCard::begin</title>
<!-- Node1 -->
<g id="Node000001" class="node">
<title>Node1</title>
<g id="a_Node000001"><a xlink:title=" ">
<polygon fill="#999999" stroke="#666666" points="121,-305 0,-305 0,-286 121,-286 121,-305"/>
<text text-anchor="middle" x="60.5" y="-293" font-family="Helvetica,sans-Serif" font-size="10.00">SharedSpiCard::begin</text>
</a>
</g>
</g>
<!-- Node2 -->
<g id="Node000002" class="node">
<title>Node2</title>
<g id="a_Node000002"><a xlink:href="../../d8/d7f/classSharedSpiCard_a943e9bdc39d4410d443fbdf22fd10f31.xhtml#a943e9bdc39d4410d443fbdf22fd10f31" target="_top" xlink:title=" ">
<polygon fill="white" stroke="#666666" points="300,-476 157,-476 157,-457 300,-457 300,-476"/>
<text text-anchor="middle" x="228.5" y="-464" font-family="Helvetica,sans-Serif" font-size="10.00">SharedSpiCard::cardAcmd</text>
</a>
</g>
</g>
<!-- Node1&#45;&gt;Node2 -->
<g id="edge1_Node000001_Node000002" class="edge">
<title>Node1&#45;&gt;Node2</title>
<g id="a_edge1_Node000001_Node000002"><a xlink:title=" ">
<path fill="none" stroke="#63b8ff" d="M66.19,-305.31C78.22,-329.56 112.35,-393.15 157,-431.5 167.14,-440.21 179.83,-447.38 191.64,-452.91"/>
<polygon fill="#63b8ff" stroke="#63b8ff" points="190.29,-456.14 200.85,-456.99 193.12,-449.74 190.29,-456.14"/>
</a>
</g>
</g>
<!-- Node3 -->
<g id="Node000003" class="node">
<title>Node3</title>
<g id="a_Node000003"><a xlink:href="../../d8/d7f/classSharedSpiCard_adda33199753fc2aec74fe317cbaabc06.xhtml#adda33199753fc2aec74fe317cbaabc06" target="_top" xlink:title=" ">
<polygon fill="white" stroke="#666666" points="501,-500 336,-500 336,-481 501,-481 501,-500"/>
<text text-anchor="middle" x="418.5" y="-488" font-family="Helvetica,sans-Serif" font-size="10.00">SharedSpiCard::cardCommand</text>
</a>
</g>
</g>
<!-- Node1&#45;&gt;Node3 -->
<g id="edge35_Node000001_Node000003" class="edge">
<title>Node1&#45;&gt;Node3</title>
<g id="a_edge35_Node000001_Node000003"><a xlink:title=" ">
<path fill="none" stroke="#63b8ff" d="M69.22,-305.11C84.33,-323.38 119.63,-363.46 157,-387.5 176.79,-400.23 315.58,-452.6 382.1,-477.38"/>
<polygon fill="#63b8ff" stroke="#63b8ff" points="381.16,-480.76 391.75,-480.97 383.6,-474.2 381.16,-480.76"/>
</a>
</g>
</g>
<!-- Node4 -->
<g id="Node000004" class="node">
<title>Node4</title>
<g id="a_Node000004"><a xlink:href="../../d8/d7f/classSharedSpiCard_a08363209d938db87521cca6a84146041.xhtml#a08363209d938db87521cca6a84146041" target="_top" xlink:title=" ">
<polygon fill="white" stroke="#666666" points="1244,-656 1097,-656 1097,-637 1244,-637 1244,-656"/>
<text text-anchor="middle" x="1170.5" y="-644" font-family="Helvetica,sans-Serif" font-size="10.00">SharedSpiCard::spiReceive</text>
</a>
</g>
</g>
<!-- Node1&#45;&gt;Node4 -->
<g id="edge44_Node000001_Node000004" class="edge">
<title>Node1&#45;&gt;Node4</title>
<g id="a_edge44_Node000001_Node000004"><a xlink:title=" ">
<path fill="none" stroke="#63b8ff" d="M61.25,-305.02C60.61,-348.79 63.76,-532.78 157,-632.5 240.75,-722.08 294.86,-723.5 417.5,-723.5 417.5,-723.5 417.5,-723.5 798.5,-723.5 923.33,-723.5 1066.94,-681.19 1132.91,-659.3"/>
<polygon fill="#63b8ff" stroke="#63b8ff" points="1134.08,-662.6 1142.44,-656.1 1131.85,-655.96 1134.08,-662.6"/>
</a>
</g>
</g>
<!-- Node8 -->
<g id="Node000008" class="node">
<title>Node8</title>
<g id="a_Node000008"><a xlink:href="../../d8/d7f/classSharedSpiCard_aef2dfa72e8d5643c90720f9f8c6a4254.xhtml#aef2dfa72e8d5643c90720f9f8c6a4254" target="_top" xlink:title=" ">
<polygon fill="white" stroke="#666666" points="677.5,-386 546.5,-386 546.5,-367 677.5,-367 677.5,-386"/>
<text text-anchor="middle" x="612" y="-374" font-family="Helvetica,sans-Serif" font-size="10.00">SharedSpiCard::spiStart</text>
</a>
</g>
</g>
<!-- Node1&#45;&gt;Node8 -->
<g id="edge48_Node000001_Node000008" class="edge">
<title>Node1&#45;&gt;Node8</title>
<g id="a_edge48_Node000001_Node000008"><a xlink:title=" ">
<path fill="none" stroke="#63b8ff" d="M74.6,-305.07C92.29,-317.4 125.26,-338.33 157,-347.5 286.32,-384.85 444.67,-385.33 536.08,-381.47"/>
<polygon fill="#63b8ff" stroke="#63b8ff" points="536.52,-384.95 546.35,-381 536.2,-377.96 536.52,-384.95"/>
</a>
</g>
</g>
<!-- Node11 -->
<g id="Node000011" class="node">
<title>Node11</title>
<g id="a_Node000011"><a xlink:href="../../d8/d7f/classSharedSpiCard_a8c3088599862ff6e84ae79bfdf32aea8.xhtml#a8c3088599862ff6e84ae79bfdf32aea8" target="_top" xlink:title=" ">
<polygon fill="white" stroke="#666666" points="866.5,-305 728.5,-305 728.5,-286 866.5,-286 866.5,-305"/>
<text text-anchor="middle" x="797.5" y="-293" font-family="Helvetica,sans-Serif" font-size="10.00">SharedSpiCard::spiSelect</text>
</a>
</g>
</g>
<!-- Node1&#45;&gt;Node11 -->
<g id="edge45_Node000001_Node000011" class="edge">
<title>Node1&#45;&gt;Node11</title>
<g id="a_edge45_Node000001_Node000011"><a xlink:title=" ">
<path fill="none" stroke="#63b8ff" d="M121.03,-295.5C253.02,-295.5 570.25,-295.5 718.14,-295.5"/>
<polygon fill="#63b8ff" stroke="#63b8ff" points="718.49,-299 728.49,-295.5 718.49,-292 718.49,-299"/>
</a>
</g>
</g>
<!-- Node17 -->
<g id="Node000017" class="node">
<title>Node17</title>
<g id="a_Node000017"><a xlink:href="../../d8/d7f/classSharedSpiCard_a747c3f0b962098cf0c097f3c4c2b4fd4.xhtml#a747c3f0b962098cf0c097f3c4c2b4fd4" target="_top" xlink:title=" ">
<polygon fill="white" stroke="#666666" points="1039.5,-618 922.5,-618 922.5,-599 1039.5,-599 1039.5,-618"/>
<text text-anchor="middle" x="981" y="-606" font-family="Helvetica,sans-Serif" font-size="10.00">SharedSpiCard::error</text>
</a>
</g>
</g>
<!-- Node1&#45;&gt;Node17 -->
<g id="edge36_Node000001_Node000017" class="edge">
<title>Node1&#45;&gt;Node17</title>
<g id="a_edge36_Node000001_Node000017"><a xlink:title=" ">
<path fill="none" stroke="#63b8ff" d="M62.31,-305.23C65.97,-343.41 84.11,-484.98 157,-567.5 241.15,-662.76 290.4,-685.5 417.5,-685.5 417.5,-685.5 417.5,-685.5 613,-685.5 736.28,-685.5 877.99,-643.37 943.41,-621.43"/>
<polygon fill="#63b8ff" stroke="#63b8ff" points="944.9,-624.63 953.24,-618.1 942.65,-618 944.9,-624.63"/>
</a>
</g>
</g>
<!-- Node18 -->
<g id="Node000018" class="node">
<title>Node18</title>
<g id="a_Node000018"><a xlink:href="../../d8/d7f/classSharedSpiCard_a0f511c39c50055a4fc97e720933aee3a.xhtml#a0f511c39c50055a4fc97e720933aee3a" target="_top" xlink:title=" ">
<polygon fill="white" stroke="#666666" points="1046,-581 916,-581 916,-562 1046,-562 1046,-581"/>
<text text-anchor="middle" x="981" y="-569" font-family="Helvetica,sans-Serif" font-size="10.00">SharedSpiCard::spiStop</text>
</a>
</g>
</g>
<!-- Node1&#45;&gt;Node18 -->
<g id="edge49_Node000001_Node000018" class="edge">
<title>Node1&#45;&gt;Node18</title>
<g id="a_edge49_Node000001_Node000018"><a xlink:title=" ">
<path fill="none" stroke="#63b8ff" d="M64.32,-305.29C73.36,-335.33 104.22,-427.71 157,-485.5 248.94,-586.17 281.16,-647.5 417.5,-647.5 417.5,-647.5 417.5,-647.5 613,-647.5 675.29,-647.5 849.7,-604.99 933.67,-583.55"/>
<polygon fill="#63b8ff" stroke="#63b8ff" points="934.63,-586.92 943.45,-581.05 932.89,-580.14 934.63,-586.92"/>
</a>
</g>
</g>
<!-- Node21 -->
<g id="Node000021" class="node">
<title>Node21</title>
<g id="a_Node000021"><a xlink:href="../../d8/d7f/classSharedSpiCard_ad06a3278372300987b97876cf598c114.xhtml#ad06a3278372300987b97876cf598c114" target="_top" xlink:title=" ">
<polygon fill="white" stroke="#666666" points="1246,-343 1095,-343 1095,-324 1246,-324 1246,-343"/>
<text text-anchor="middle" x="1170.5" y="-331" font-family="Helvetica,sans-Serif" font-size="10.00">SharedSpiCard::spiUnselect</text>
</a>
</g>
</g>
<!-- Node1&#45;&gt;Node21 -->
<g id="edge50_Node000001_Node000021" class="edge">
<title>Node1&#45;&gt;Node21</title>
<g id="a_edge50_Node000001_Node000021"><a xlink:title=" ">
<path fill="none" stroke="#63b8ff" d="M116.5,-305.04C186.28,-316.3 310.44,-333.5 417.5,-333.5 417.5,-333.5 417.5,-333.5 798.5,-333.5 896.62,-333.5 1009.33,-333.5 1084.53,-333.5"/>
<polygon fill="#63b8ff" stroke="#63b8ff" points="1084.89,-337 1094.89,-333.5 1084.89,-330 1084.89,-337"/>
</a>
</g>
</g>
<!-- Node24 -->
<g id="Node000024" class="node">
<title>Node24</title>
<g id="a_Node000024"><a xlink:href="../../db/df4/classTimeout_abbabe99f42e52472ddd3a7e9d22dce95.xhtml#abbabe99f42e52472ddd3a7e9d22dce95" target="_top" xlink:title=" ">
<polygon fill="white" stroke="#666666" points="1225,-267 1116,-267 1116,-248 1225,-248 1225,-267"/>
<text text-anchor="middle" x="1170.5" y="-255" font-family="Helvetica,sans-Serif" font-size="10.00">Timeout::timedOut</text>
</a>
</g>
</g>
<!-- Node1&#45;&gt;Node24 -->
<g id="edge51_Node000001_Node000024" class="edge">
<title>Node1&#45;&gt;Node24</title>
<g id="a_edge51_Node000001_Node000024"><a xlink:title=" ">
<path fill="none" stroke="#63b8ff" d="M116.5,-285.96C186.28,-274.7 310.44,-257.5 417.5,-257.5 417.5,-257.5 417.5,-257.5 798.5,-257.5 906.31,-257.5 1031.74,-257.5 1105.66,-257.5"/>
<polygon fill="#63b8ff" stroke="#63b8ff" points="1105.74,-261 1115.74,-257.5 1105.74,-254 1105.74,-261"/>
</a>
</g>
</g>
<!-- Node27 -->
<g id="Node000027" class="node">
<title>Node27</title>
<g id="a_Node000027"><a xlink:href="../../d8/d7f/classSharedSpiCard_a5e24da5925493acb9a0d56a3a6c6874d.xhtml#a5e24da5925493acb9a0d56a3a6c6874d" target="_top" xlink:title=" ">
<polygon fill="white" stroke="#666666" points="300,-229.5 157,-229.5 157,-199.5 300,-199.5 300,-229.5"/>
<text text-anchor="start" x="165" y="-217.5" font-family="Helvetica,sans-Serif" font-size="10.00">SharedSpiCard::initShared</text>
<text text-anchor="middle" x="228.5" y="-206.5" font-family="Helvetica,sans-Serif" font-size="10.00">SpiCard</text>
</a>
</g>
</g>
<!-- Node1&#45;&gt;Node27 -->
<g id="edge37_Node000001_Node000027" class="edge">
<title>Node1&#45;&gt;Node27</title>
<g id="a_edge37_Node000001_Node000027"><a xlink:title=" ">
<path fill="none" stroke="#63b8ff" d="M77.78,-285.93C96.57,-275.05 128.54,-257.05 157,-243.5 164.14,-240.1 171.79,-236.71 179.32,-233.5"/>
<polygon fill="#63b8ff" stroke="#63b8ff" points="180.88,-236.65 188.75,-229.56 178.17,-230.19 180.88,-236.65"/>
</a>
</g>
</g>
<!-- Node28 -->
<g id="Node000028" class="node">
<title>Node28</title>
<g id="a_Node000028"><a xlink:href="../../d2/df0/SdSpiChipSelect_8cpp_ad4854101780daaa378827ecb62ef86d9.xhtml#ad4854101780daaa378827ecb62ef86d9" target="_top" xlink:title=" ">
<polygon fill="white" stroke="#666666" points="256.5,-181 200.5,-181 200.5,-162 256.5,-162 256.5,-181"/>
<text text-anchor="middle" x="228.5" y="-169" font-family="Helvetica,sans-Serif" font-size="10.00">sdCsInit</text>
</a>
</g>
</g>
<!-- Node1&#45;&gt;Node28 -->
<g id="edge38_Node000001_Node000028" class="edge">
<title>Node1&#45;&gt;Node28</title>
<g id="a_edge38_Node000001_Node000028"><a xlink:title=" ">
<path fill="none" stroke="#63b8ff" d="M67.57,-285.69C81,-264.83 115.35,-215.92 157,-190.5 167.02,-184.38 179.03,-180.2 190.26,-177.36"/>
<polygon fill="#63b8ff" stroke="#63b8ff" points="191.29,-180.72 200.28,-175.11 189.76,-173.89 191.29,-180.72"/>
</a>
</g>
</g>
<!-- Node30 -->
<g id="Node000030" class="node">
<title>Node30</title>
<g id="a_Node000030"><a xlink:href="../../db/df4/classTimeout_ad6be1321fa75e9c633913376dfba3210.xhtml#ad6be1321fa75e9c633913376dfba3210" target="_top" xlink:title=" ">
<polygon fill="white" stroke="#666666" points="651,-165 573,-165 573,-146 651,-146 651,-165"/>
<text text-anchor="middle" x="612" y="-153" font-family="Helvetica,sans-Serif" font-size="10.00">Timeout::set</text>
</a>
</g>
</g>
<!-- Node1&#45;&gt;Node30 -->
<g id="edge40_Node000001_Node000030" class="edge">
<title>Node1&#45;&gt;Node30</title>
<g id="a_edge40_Node000001_Node000030"><a xlink:title=" ">
<path fill="none" stroke="#63b8ff" d="M64.43,-285.85C73.22,-258.86 102.2,-182.69 157,-153.5 226.02,-116.74 460.82,-138.17 562.93,-149.67"/>
<polygon fill="#63b8ff" stroke="#63b8ff" points="562.63,-153.15 572.97,-150.81 563.43,-146.2 562.63,-153.15"/>
</a>
</g>
</g>
<!-- Node31 -->
<g id="Node000031" class="node">
<title>Node31</title>
<g id="a_Node000031"><a xlink:href="../../d8/d7f/classSharedSpiCard_a666540f03e7b0a76c36f4c16770ad356.xhtml#a666540f03e7b0a76c36f4c16770ad356" target="_top" xlink:title=" ">
<polygon fill="white" stroke="#666666" points="296.5,-105 160.5,-105 160.5,-86 296.5,-86 296.5,-105"/>
<text text-anchor="middle" x="228.5" y="-93" font-family="Helvetica,sans-Serif" font-size="10.00">SharedSpiCard::spiBegin</text>
</a>
</g>
</g>
<!-- Node1&#45;&gt;Node31 -->
<g id="edge42_Node000001_Node000031" class="edge">
<title>Node1&#45;&gt;Node31</title>
<g id="a_edge42_Node000001_Node000031"><a xlink:title=" ">
<path fill="none" stroke="#63b8ff" d="M64,-285.9C72.14,-256.54 100.67,-167.03 157,-119.5 161.93,-115.34 167.61,-111.89 173.57,-109.03"/>
<polygon fill="#63b8ff" stroke="#63b8ff" points="175.24,-112.13 183.09,-105.01 172.52,-105.68 175.24,-112.13"/>
</a>
</g>
</g>
<!-- Node33 -->
<g id="Node000033" class="node">
<title>Node33</title>
<g id="a_Node000033"><a xlink:href="../../d8/d7f/classSharedSpiCard_a8a33a90afcd1527ba838a76517f83a0f.xhtml#a8a33a90afcd1527ba838a76517f83a0f" target="_top" xlink:title=" ">
<polygon fill="white" stroke="#666666" points="299,-67.5 158,-67.5 158,-37.5 299,-37.5 299,-67.5"/>
<text text-anchor="start" x="166" y="-55.5" font-family="Helvetica,sans-Serif" font-size="10.00">SharedSpiCard::spiSetSck</text>
<text text-anchor="middle" x="228.5" y="-44.5" font-family="Helvetica,sans-Serif" font-size="10.00">Speed</text>
</a>
</g>
</g>
<!-- Node1&#45;&gt;Node33 -->
<g id="edge46_Node000001_Node000033" class="edge">
<title>Node1&#45;&gt;Node33</title>
<g id="a_edge46_Node000001_Node000033"><a xlink:title=" ">
<path fill="none" stroke="#63b8ff" d="M62.94,-285.57C68.41,-251.37 91.07,-137.17 157,-76.5 158.28,-75.33 159.61,-74.21 161,-73.15"/>
<polygon fill="#63b8ff" stroke="#63b8ff" points="162.96,-76.05 169.41,-67.64 159.13,-70.19 162.96,-76.05"/>
</a>
</g>
</g>
<!-- Node35 -->
<g id="Node000035" class="node">
<title>Node35</title>
<g id="a_Node000035"><a xlink:href="../../d8/d7f/classSharedSpiCard_a7dac2190763d7b4b72163ed7131e8a87.xhtml#a7dac2190763d7b4b72163ed7131e8a87" target="_top" xlink:title=" ">
<polygon fill="white" stroke="#666666" points="286.5,-19 170.5,-19 170.5,0 286.5,0 286.5,-19"/>
<text text-anchor="middle" x="228.5" y="-7" font-family="Helvetica,sans-Serif" font-size="10.00">SharedSpiCard::type</text>
</a>
</g>
</g>
<!-- Node1&#45;&gt;Node35 -->
<g id="edge52_Node000001_Node000035" class="edge">
<title>Node1&#45;&gt;Node35</title>
<g id="a_edge52_Node000001_Node000035"><a xlink:title=" ">
<path fill="none" stroke="#63b8ff" d="M61.9,-285.77C64.02,-247 77.22,-102.12 157,-28.5 158.7,-26.93 160.52,-25.48 162.43,-24.16"/>
<polygon fill="#63b8ff" stroke="#63b8ff" points="164.38,-27.07 171.31,-19.06 160.9,-21 164.38,-27.07"/>
</a>
</g>
</g>
<!-- Node2&#45;&gt;Node3 -->
<g id="edge2_Node000002_Node000003" class="edge">
<title>Node2&#45;&gt;Node3</title>
<g id="a_edge2_Node000002_Node000003"><a xlink:title=" ">
<path fill="none" stroke="#63b8ff" d="M300.04,-475.5C310.73,-476.87 321.85,-478.29 332.8,-479.69"/>
<polygon fill="#63b8ff" stroke="#63b8ff" points="332.43,-483.17 342.79,-480.96 333.32,-476.22 332.43,-483.17"/>
</a>
</g>
</g>
<!-- Node3&#45;&gt;Node4 -->
<g id="edge3_Node000003_Node000004" class="edge">
<title>Node3&#45;&gt;Node4</title>
<g id="a_edge3_Node000003_Node000004"><a xlink:title=" ">
<path fill="none" stroke="#63b8ff" d="M429.13,-500.24C447.95,-518.62 491.77,-558.21 537,-576.5 722.55,-651.52 962.22,-655.42 1086.51,-651.29"/>
<polygon fill="#63b8ff" stroke="#63b8ff" points="1086.84,-654.78 1096.71,-650.92 1086.59,-647.78 1086.84,-654.78"/>
</a>
</g>
</g>
<!-- Node6 -->
<g id="Node000006" class="node">
<title>Node6</title>
<g id="a_Node000006"><a xlink:href="../../d8/d7f/classSharedSpiCard_ab311b9ad8a250f06afbe091f7abb118b.xhtml#ab311b9ad8a250f06afbe091f7abb118b" target="_top" xlink:title=" ">
<polygon fill="white" stroke="#666666" points="1236.5,-500 1104.5,-500 1104.5,-481 1236.5,-481 1236.5,-500"/>
<text text-anchor="middle" x="1170.5" y="-488" font-family="Helvetica,sans-Serif" font-size="10.00">SharedSpiCard::spiSend</text>
</a>
</g>
</g>
<!-- Node3&#45;&gt;Node6 -->
<g id="edge5_Node000003_Node000006" class="edge">
<title>Node3&#45;&gt;Node6</title>
<g id="a_edge5_Node000003_Node000006"><a xlink:title=" ">
<path fill="none" stroke="#63b8ff" d="M501.2,-484.84C622.1,-477.36 855.71,-466.38 1054,-477.5 1067,-478.23 1080.79,-479.42 1094.15,-480.79"/>
<polygon fill="#63b8ff" stroke="#63b8ff" points="1093.93,-484.28 1104.25,-481.86 1094.68,-477.32 1093.93,-484.28"/>
</a>
</g>
</g>
<!-- Node3&#45;&gt;Node8 -->
<g id="edge7_Node000003_Node000008" class="edge">
<title>Node3&#45;&gt;Node8</title>
<g id="a_edge7_Node000003_Node000008"><a xlink:title=" ">
<path fill="none" stroke="#63b8ff" d="M435.5,-480.98C468.94,-461.07 546.44,-414.93 586.32,-391.19"/>
<polygon fill="#63b8ff" stroke="#63b8ff" points="588.11,-394.2 594.91,-386.08 584.53,-388.18 588.11,-394.2"/>
</a>
</g>
</g>
<!-- Node15 -->
<g id="Node000015" class="node">
<title>Node15</title>
<g id="a_Node000015"><a xlink:href="../../d8/d7f/classSharedSpiCard_a2f181b3d6f27413a0f5ee883dfd94d87.xhtml#a2f181b3d6f27413a0f5ee883dfd94d87" target="_top" xlink:title=" ">
<polygon fill="white" stroke="#666666" points="687,-543 537,-543 537,-524 687,-524 687,-543"/>
<text text-anchor="middle" x="612" y="-531" font-family="Helvetica,sans-Serif" font-size="10.00">SharedSpiCard::syncDevice</text>
</a>
</g>
</g>
<!-- Node3&#45;&gt;Node15 -->
<g id="edge15_Node000003_Node000015" class="edge">
<title>Node3&#45;&gt;Node15</title>
<g id="a_edge15_Node000003_Node000015"><a xlink:title=" ">
<path fill="none" stroke="#63b8ff" d="M462,-500.04C490.51,-506.45 528.26,-514.92 558.63,-521.74"/>
<polygon fill="#63b8ff" stroke="#63b8ff" points="558.09,-525.21 568.62,-523.98 559.63,-518.38 558.09,-525.21"/>
</a>
</g>
</g>
<!-- Node23 -->
<g id="Node000023" class="node">
<title>Node23</title>
<g id="a_Node000023"><a xlink:href="../../d8/d7f/classSharedSpiCard_ab3468397bb3b12d29dd2f31e45b3dcaf.xhtml#ab3468397bb3b12d29dd2f31e45b3dcaf" target="_top" xlink:title=" ">
<polygon fill="white" stroke="#666666" points="1054,-505 908,-505 908,-486 1054,-486 1054,-505"/>
<text text-anchor="middle" x="981" y="-493" font-family="Helvetica,sans-Serif" font-size="10.00">SharedSpiCard::waitReady</text>
</a>
</g>
</g>
<!-- Node3&#45;&gt;Node23 -->
<g id="edge34_Node000003_Node000023" class="edge">
<title>Node3&#45;&gt;Node23</title>
<g id="a_edge34_Node000003_Node000023"><a xlink:title=" ">
<path fill="none" stroke="#63b8ff" d="M501,-491.23C607.04,-492.17 791.28,-493.82 897.7,-494.77"/>
<polygon fill="#63b8ff" stroke="#63b8ff" points="897.72,-498.27 907.75,-494.86 897.78,-491.27 897.72,-498.27"/>
</a>
</g>
</g>
<!-- Node5 -->
<g id="Node000005" class="node">
<title>Node5</title>
<g id="a_Node000005"><a xlink:href="../../d0/d25/classSdSpiArduinoDriver_a8d6bc852a52e9d69c4b1e48ee062e8d1.xhtml#a8d6bc852a52e9d69c4b1e48ee062e8d1" target="_top" xlink:title=" ">
<polygon fill="white" stroke="#666666" points="1398,-661.5 1287,-661.5 1287,-631.5 1398,-631.5 1398,-661.5"/>
<text text-anchor="start" x="1295" y="-649.5" font-family="Helvetica,sans-Serif" font-size="10.00">SdSpiArduinoDriver</text>
<text text-anchor="middle" x="1342.5" y="-638.5" font-family="Helvetica,sans-Serif" font-size="10.00">::receive</text>
</a>
</g>
</g>
<!-- Node4&#45;&gt;Node5 -->
<g id="edge4_Node000004_Node000005" class="edge">
<title>Node4&#45;&gt;Node5</title>
<g id="a_edge4_Node000004_Node000005"><a xlink:title=" ">
<path fill="none" stroke="#63b8ff" d="M1244.09,-646.5C1254.96,-646.5 1266.11,-646.5 1276.81,-646.5"/>
<polygon fill="#63b8ff" stroke="#63b8ff" points="1276.9,-650 1286.9,-646.5 1276.9,-643 1276.9,-650"/>
</a>
</g>
</g>
<!-- Node7 -->
<g id="Node000007" class="node">
<title>Node7</title>
<g id="a_Node000007"><a xlink:href="../../d0/d25/classSdSpiArduinoDriver_a3c4842e47f98fe5d3799cd6028778ab5.xhtml#a3c4842e47f98fe5d3799cd6028778ab5" target="_top" xlink:title=" ">
<polygon fill="white" stroke="#666666" points="1398,-505.5 1287,-505.5 1287,-475.5 1398,-475.5 1398,-505.5"/>
<text text-anchor="start" x="1295" y="-493.5" font-family="Helvetica,sans-Serif" font-size="10.00">SdSpiArduinoDriver</text>
<text text-anchor="middle" x="1342.5" y="-482.5" font-family="Helvetica,sans-Serif" font-size="10.00">::send</text>
</a>
</g>
</g>
<!-- Node6&#45;&gt;Node7 -->
<g id="edge6_Node000006_Node000007" class="edge">
<title>Node6&#45;&gt;Node7</title>
<g id="a_edge6_Node000006_Node000007"><a xlink:title=" ">
<path fill="none" stroke="#63b8ff" d="M1236.74,-490.5C1249.82,-490.5 1263.56,-490.5 1276.62,-490.5"/>
<polygon fill="#63b8ff" stroke="#63b8ff" points="1276.93,-494 1286.93,-490.5 1276.93,-487 1276.93,-494"/>
</a>
</g>
</g>
<!-- Node8&#45;&gt;Node6 -->
<g id="edge14_Node000008_Node000006" class="edge">
<title>Node8&#45;&gt;Node6</title>
<g id="a_edge14_Node000008_Node000006"><a xlink:title=" ">
<path fill="none" stroke="#63b8ff" d="M666.38,-386.02C684.35,-389.14 704.53,-392.57 723,-395.5 869.81,-418.82 910.55,-404.53 1054,-443.5 1084.53,-451.79 1117.84,-465.93 1140.81,-476.54"/>
<polygon fill="#63b8ff" stroke="#63b8ff" points="1139.44,-479.77 1149.98,-480.84 1142.41,-473.43 1139.44,-479.77"/>
</a>
</g>
</g>
<!-- Node9 -->
<g id="Node000009" class="node">
<title>Node9</title>
<g id="a_Node000009"><a xlink:href="../../d8/d7f/classSharedSpiCard_a69ee2fe49dfaeea2347d8a265806d2b6.xhtml#a69ee2fe49dfaeea2347d8a265806d2b6" target="_top" xlink:title=" ">
<polygon fill="white" stroke="#666666" points="872,-386 723,-386 723,-367 872,-367 872,-386"/>
<text text-anchor="middle" x="797.5" y="-374" font-family="Helvetica,sans-Serif" font-size="10.00">SharedSpiCard::spiActivate</text>
</a>
</g>
</g>
<!-- Node8&#45;&gt;Node9 -->
<g id="edge8_Node000008_Node000009" class="edge">
<title>Node8&#45;&gt;Node9</title>
<g id="a_edge8_Node000008_Node000009"><a xlink:title=" ">
<path fill="none" stroke="#63b8ff" d="M677.7,-376.5C689.03,-376.5 700.97,-376.5 712.73,-376.5"/>
<polygon fill="#63b8ff" stroke="#63b8ff" points="713,-380 723,-376.5 713,-373 713,-380"/>
</a>
</g>
</g>
<!-- Node8&#45;&gt;Node11 -->
<g id="edge10_Node000008_Node000011" class="edge">
<title>Node8&#45;&gt;Node11</title>
<g id="a_edge10_Node000008_Node000011"><a xlink:title=" ">
<path fill="none" stroke="#63b8ff" d="M634.77,-366.89C667.19,-352.58 728.31,-325.6 765.42,-309.22"/>
<polygon fill="#63b8ff" stroke="#63b8ff" points="767.02,-312.34 774.76,-305.1 764.2,-305.93 767.02,-312.34"/>
</a>
</g>
</g>
<!-- Node10 -->
<g id="Node000010" class="node">
<title>Node10</title>
<g id="a_Node000010"><a xlink:href="../../d0/d25/classSdSpiArduinoDriver_abb6b88c5c8b87fc344a69f23f6eab3d9.xhtml#abb6b88c5c8b87fc344a69f23f6eab3d9" target="_top" xlink:title=" ">
<polygon fill="white" stroke="#666666" points="1036.5,-391.5 925.5,-391.5 925.5,-361.5 1036.5,-361.5 1036.5,-391.5"/>
<text text-anchor="start" x="933.5" y="-379.5" font-family="Helvetica,sans-Serif" font-size="10.00">SdSpiArduinoDriver</text>
<text text-anchor="middle" x="981" y="-368.5" font-family="Helvetica,sans-Serif" font-size="10.00">::activate</text>
</a>
</g>
</g>
<!-- Node9&#45;&gt;Node10 -->
<g id="edge9_Node000009_Node000010" class="edge">
<title>Node9&#45;&gt;Node10</title>
<g id="a_edge9_Node000009_Node000010"><a xlink:title=" ">
<path fill="none" stroke="#63b8ff" d="M872.06,-376.5C886.37,-376.5 901.28,-376.5 915.28,-376.5"/>
<polygon fill="#63b8ff" stroke="#63b8ff" points="915.29,-380 925.29,-376.5 915.29,-373 915.29,-380"/>
</a>
</g>
</g>
<!-- Node12 -->
<g id="Node000012" class="node">
<title>Node12</title>
<g id="a_Node000012"><a xlink:href="../../d2/df0/SdSpiChipSelect_8cpp_ac469bbe2d31ffde9b00ffc68258d7428.xhtml#ac469bbe2d31ffde9b00ffc68258d7428" target="_top" xlink:title=" ">
<polygon fill="white" stroke="#666666" points="1375.5,-324 1309.5,-324 1309.5,-305 1375.5,-305 1375.5,-324"/>
<text text-anchor="middle" x="1342.5" y="-312" font-family="Helvetica,sans-Serif" font-size="10.00">sdCsWrite</text>
</a>
</g>
</g>
<!-- Node11&#45;&gt;Node12 -->
<g id="edge11_Node000011_Node000012" class="edge">
<title>Node11&#45;&gt;Node12</title>
<g id="a_edge11_Node000011_Node000012"><a xlink:title=" ">
<path fill="none" stroke="#63b8ff" d="M866.72,-297.89C980.41,-301.87 1205.36,-309.74 1299.02,-313.01"/>
<polygon fill="#63b8ff" stroke="#63b8ff" points="1299.13,-316.52 1309.25,-313.37 1299.38,-309.52 1299.13,-316.52"/>
</a>
</g>
</g>
<!-- Node13 -->
<g id="Node000013" class="node">
<title>Node13</title>
<g id="a_Node000013"><a xlink:href="../../d5/d45/wiring__digital_8c_a73b9b61feeaf7d790d107f2954a7fd93.xhtml#a73b9b61feeaf7d790d107f2954a7fd93" target="_top" xlink:title=" ">
<polygon fill="white" stroke="#666666" points="1508,-324 1434,-324 1434,-305 1508,-305 1508,-324"/>
<text text-anchor="middle" x="1471" y="-312" font-family="Helvetica,sans-Serif" font-size="10.00">digitalWrite</text>
</a>
</g>
</g>
<!-- Node12&#45;&gt;Node13 -->
<g id="edge12_Node000012_Node000013" class="edge">
<title>Node12&#45;&gt;Node13</title>
<g id="a_edge12_Node000012_Node000013"><a xlink:title=" ">
<path fill="none" stroke="#63b8ff" d="M1375.75,-314.5C1390.28,-314.5 1407.71,-314.5 1423.61,-314.5"/>
<polygon fill="#63b8ff" stroke="#63b8ff" points="1423.79,-318 1433.79,-314.5 1423.79,-311 1423.79,-318"/>
</a>
</g>
</g>
<!-- Node14 -->
<g id="Node000014" class="node">
<title>Node14</title>
<g id="a_Node000014"><a xlink:href="../../d5/d45/wiring__digital_8c_ae3d0bcbe4eb927ca8f5d5c21b7e4f224.xhtml#ae3d0bcbe4eb927ca8f5d5c21b7e4f224" target="_top" xlink:title=" ">
<polygon fill="white" stroke="#666666" points="1619,-324 1544,-324 1544,-305 1619,-305 1619,-324"/>
<text text-anchor="middle" x="1581.5" y="-312" font-family="Helvetica,sans-Serif" font-size="10.00">turnOffPWM</text>
</a>
</g>
</g>
<!-- Node13&#45;&gt;Node14 -->
<g id="edge13_Node000013_Node000014" class="edge">
<title>Node13&#45;&gt;Node14</title>
<g id="a_edge13_Node000013_Node000014"><a xlink:title=" ">
<path fill="none" stroke="#63b8ff" d="M1508.13,-314.5C1516.28,-314.5 1525.05,-314.5 1533.57,-314.5"/>
<polygon fill="#63b8ff" stroke="#63b8ff" points="1533.79,-318 1543.79,-314.5 1533.79,-311 1533.79,-318"/>
</a>
</g>
</g>
<!-- Node16 -->
<g id="Node000016" class="node">
<title>Node16</title>
<g id="a_Node000016"><a xlink:href="../../d8/d7f/classSharedSpiCard_ab33ad2aefbb9cff905cad0879dffc78b.xhtml#ab33ad2aefbb9cff905cad0879dffc78b" target="_top" xlink:title=" ">
<polygon fill="white" stroke="#666666" points="866,-581 729,-581 729,-562 866,-562 866,-581"/>
<text text-anchor="middle" x="797.5" y="-569" font-family="Helvetica,sans-Serif" font-size="10.00">SharedSpiCard::readStop</text>
</a>
</g>
</g>
<!-- Node15&#45;&gt;Node16 -->
<g id="edge16_Node000015_Node000016" class="edge">
<title>Node15&#45;&gt;Node16</title>
<g id="a_edge16_Node000015_Node000016"><a xlink:title=" ">
<path fill="none" stroke="#63b8ff" d="M659.3,-543.09C683.96,-548.19 714.46,-554.51 740.44,-559.89"/>
<polygon fill="#63b8ff" stroke="#63b8ff" points="740.03,-563.38 750.53,-561.98 741.45,-556.52 740.03,-563.38"/>
</a>
</g>
</g>
<!-- Node22 -->
<g id="Node000022" class="node">
<title>Node22</title>
<g id="a_Node000022"><a xlink:href="../../d8/d7f/classSharedSpiCard_ae9a34a573077e43e7c6028a16ae77fb3.xhtml#ae9a34a573077e43e7c6028a16ae77fb3" target="_top" xlink:title=" ">
<polygon fill="white" stroke="#666666" points="867.5,-543 727.5,-543 727.5,-524 867.5,-524 867.5,-543"/>
<text text-anchor="middle" x="797.5" y="-531" font-family="Helvetica,sans-Serif" font-size="10.00">SharedSpiCard::writeStop</text>
</a>
</g>
</g>
<!-- Node15&#45;&gt;Node22 -->
<g id="edge25_Node000015_Node000022" class="edge">
<title>Node15&#45;&gt;Node22</title>
<g id="a_edge25_Node000015_Node000022"><a xlink:title=" ">
<path fill="none" stroke="#63b8ff" d="M687.11,-533.5C697,-533.5 707.18,-533.5 717.15,-533.5"/>
<polygon fill="#63b8ff" stroke="#63b8ff" points="717.46,-537 727.46,-533.5 717.46,-530 717.46,-537"/>
</a>
</g>
</g>
<!-- Node16&#45;&gt;Node3 -->
<g id="edge17_Node000016_Node000003" class="edge">
<title>Node16&#45;&gt;Node3</title>
<g id="a_edge17_Node000016_Node000003"><a xlink:title=" ">
<path fill="none" stroke="#63b8ff" d="M728.78,-574.06C675.63,-574.29 600.29,-570.65 537,-552.5 501.53,-542.33 464.51,-520.66 441.73,-505.84"/>
<polygon fill="#63b8ff" stroke="#63b8ff" points="443.43,-502.76 433.16,-500.15 439.56,-508.59 443.43,-502.76"/>
</a>
</g>
</g>
<!-- Node16&#45;&gt;Node17 -->
<g id="edge18_Node000016_Node000017" class="edge">
<title>Node16&#45;&gt;Node17</title>
<g id="a_edge18_Node000016_Node000017"><a xlink:title=" ">
<path fill="none" stroke="#63b8ff" d="M845.24,-581.03C868.97,-585.86 897.99,-591.78 923.01,-596.88"/>
<polygon fill="#63b8ff" stroke="#63b8ff" points="922.6,-600.37 933.1,-598.94 924,-593.51 922.6,-600.37"/>
</a>
</g>
</g>
<!-- Node16&#45;&gt;Node18 -->
<g id="edge19_Node000016_Node000018" class="edge">
<title>Node16&#45;&gt;Node18</title>
<g id="a_edge19_Node000016_Node000018"><a xlink:title=" ">
<path fill="none" stroke="#63b8ff" d="M866.08,-571.5C878.97,-571.5 892.52,-571.5 905.6,-571.5"/>
<polygon fill="#63b8ff" stroke="#63b8ff" points="905.97,-575 915.97,-571.5 905.97,-568 905.97,-575"/>
</a>
</g>
</g>
<!-- Node18&#45;&gt;Node6 -->
<g id="edge22_Node000018_Node000006" class="edge">
<title>Node18&#45;&gt;Node6</title>
<g id="a_edge22_Node000018_Node000006"><a xlink:title=" ">
<path fill="none" stroke="#63b8ff" d="M1013.89,-561.91C1026.52,-557.84 1041.08,-552.81 1054,-547.5 1085.26,-534.65 1119.88,-517.1 1142.99,-504.88"/>
<polygon fill="#63b8ff" stroke="#63b8ff" points="1144.66,-507.95 1151.84,-500.16 1141.37,-501.77 1144.66,-507.95"/>
</a>
</g>
</g>
<!-- Node19 -->
<g id="Node000019" class="node">
<title>Node19</title>
<g id="a_Node000019"><a xlink:href="../../d8/d7f/classSharedSpiCard_ac6acfca5a23337977d2e4436ab8ab39a.xhtml#ac6acfca5a23337977d2e4436ab8ab39a" target="_top" xlink:title=" ">
<polygon fill="white" stroke="#666666" points="1251,-581 1090,-581 1090,-562 1251,-562 1251,-581"/>
<text text-anchor="middle" x="1170.5" y="-569" font-family="Helvetica,sans-Serif" font-size="10.00">SharedSpiCard::spiDeactivate</text>
</a>
</g>
</g>
<!-- Node18&#45;&gt;Node19 -->
<g id="edge20_Node000018_Node000019" class="edge">
<title>Node18&#45;&gt;Node19</title>
<g id="a_edge20_Node000018_Node000019"><a xlink:title=" ">
<path fill="none" stroke="#63b8ff" d="M1046,-571.5C1056.92,-571.5 1068.43,-571.5 1079.86,-571.5"/>
<polygon fill="#63b8ff" stroke="#63b8ff" points="1079.87,-575 1089.87,-571.5 1079.87,-568 1079.87,-575"/>
</a>
</g>
</g>
<!-- Node18&#45;&gt;Node21 -->
<g id="edge23_Node000018_Node000021" class="edge">
<title>Node18&#45;&gt;Node21</title>
<g id="a_edge23_Node000018_Node000021"><a xlink:title=" ">
<path fill="none" stroke="#63b8ff" d="M996.99,-561.84C1012.45,-551.4 1036.69,-533.67 1054,-514.5 1101.75,-461.63 1142.58,-386.81 1160.21,-352.29"/>
<polygon fill="#63b8ff" stroke="#63b8ff" points="1163.36,-353.81 1164.73,-343.3 1157.11,-350.66 1163.36,-353.81"/>
</a>
</g>
</g>
<!-- Node20 -->
<g id="Node000020" class="node">
<title>Node20</title>
<g id="a_Node000020"><a xlink:href="../../d0/d25/classSdSpiArduinoDriver_ae88a255f533e3acb41d1221025a69b55.xhtml#ae88a255f533e3acb41d1221025a69b55" target="_top" xlink:title=" ">
<polygon fill="white" stroke="#666666" points="1398,-586.5 1287,-586.5 1287,-556.5 1398,-556.5 1398,-586.5"/>
<text text-anchor="start" x="1295" y="-574.5" font-family="Helvetica,sans-Serif" font-size="10.00">SdSpiArduinoDriver</text>
<text text-anchor="middle" x="1342.5" y="-563.5" font-family="Helvetica,sans-Serif" font-size="10.00">::deactivate</text>
</a>
</g>
</g>
<!-- Node19&#45;&gt;Node20 -->
<g id="edge21_Node000019_Node000020" class="edge">
<title>Node19&#45;&gt;Node20</title>
<g id="a_edge21_Node000019_Node000020"><a xlink:title=" ">
<path fill="none" stroke="#63b8ff" d="M1251.02,-571.5C1259.63,-571.5 1268.3,-571.5 1276.7,-571.5"/>
<polygon fill="#63b8ff" stroke="#63b8ff" points="1276.78,-575 1286.78,-571.5 1276.78,-568 1276.78,-575"/>
</a>
</g>
</g>
<!-- Node21&#45;&gt;Node12 -->
<g id="edge24_Node000021_Node000012" class="edge">
<title>Node21&#45;&gt;Node12</title>
<g id="a_edge24_Node000021_Node000012"><a xlink:title=" ">
<path fill="none" stroke="#63b8ff" d="M1246.06,-325.17C1264.21,-323.14 1283.01,-321.04 1299.07,-319.24"/>
<polygon fill="#63b8ff" stroke="#63b8ff" points="1299.64,-322.7 1309.19,-318.11 1298.87,-315.74 1299.64,-322.7"/>
</a>
</g>
</g>
<!-- Node22&#45;&gt;Node6 -->
<g id="edge27_Node000022_Node000006" class="edge">
<title>Node22&#45;&gt;Node6</title>
<g id="a_edge27_Node000022_Node000006"><a xlink:title=" ">
<path fill="none" stroke="#63b8ff" d="M867.62,-530.81C919.18,-528.21 991.23,-523.32 1054,-514.5 1075.86,-511.43 1099.79,-506.69 1120.17,-502.23"/>
<polygon fill="#63b8ff" stroke="#63b8ff" points="1121.17,-505.59 1130.17,-500 1119.64,-498.76 1121.17,-505.59"/>
</a>
</g>
</g>
<!-- Node22&#45;&gt;Node17 -->
<g id="edge26_Node000022_Node000017" class="edge">
<title>Node22&#45;&gt;Node17</title>
<g id="a_edge26_Node000022_Node000017"><a xlink:title=" ">
<path fill="none" stroke="#63b8ff" d="M847.82,-543C856.21,-545.7 864.59,-549.14 872,-553.5 891.77,-565.15 888.11,-579.06 908,-590.5 911.05,-592.26 914.27,-593.84 917.59,-595.27"/>
<polygon fill="#63b8ff" stroke="#63b8ff" points="916.56,-598.63 927.15,-598.92 919.05,-592.08 916.56,-598.63"/>
</a>
</g>
</g>
<!-- Node22&#45;&gt;Node18 -->
<g id="edge28_Node000022_Node000018" class="edge">
<title>Node22&#45;&gt;Node18</title>
<g id="a_edge28_Node000022_Node000018"><a xlink:title=" ">
<path fill="none" stroke="#63b8ff" d="M844.3,-543.09C868.68,-548.19 898.86,-554.51 924.56,-559.89"/>
<polygon fill="#63b8ff" stroke="#63b8ff" points="924.02,-563.36 934.53,-561.98 925.46,-556.5 924.02,-563.36"/>
</a>
</g>
</g>
<!-- Node22&#45;&gt;Node23 -->
<g id="edge29_Node000022_Node000023" class="edge">
<title>Node22&#45;&gt;Node23</title>
<g id="a_edge29_Node000022_Node000023"><a xlink:title=" ">
<path fill="none" stroke="#63b8ff" d="M844.3,-523.91C868.68,-518.81 898.86,-512.49 924.56,-507.11"/>
<polygon fill="#63b8ff" stroke="#63b8ff" points="925.46,-510.5 934.53,-505.02 924.02,-503.64 925.46,-510.5"/>
</a>
</g>
</g>
<!-- Node23&#45;&gt;Node4 -->
<g id="edge30_Node000023_Node000004" class="edge">
<title>Node23&#45;&gt;Node4</title>
<g id="a_edge30_Node000023_Node000004"><a xlink:title=" ">
<path fill="none" stroke="#63b8ff" d="M994.87,-505.11C1009.58,-516.27 1034.18,-535.45 1054,-553.5 1070.96,-568.95 1072.55,-575.61 1090,-590.5 1107.77,-605.66 1129.56,-620.8 1145.83,-631.5"/>
<polygon fill="#63b8ff" stroke="#63b8ff" points="1143.95,-634.45 1154.24,-636.96 1147.76,-628.58 1143.95,-634.45"/>
</a>
</g>
</g>
<!-- Node23&#45;&gt;Node24 -->
<g id="edge31_Node000023_Node000024" class="edge">
<title>Node23&#45;&gt;Node24</title>
<g id="a_edge31_Node000023_Node000024"><a xlink:title=" ">
<path fill="none" stroke="#63b8ff" d="M990.65,-485.82C1005.13,-469.25 1034.62,-434 1054,-400.5 1074.55,-364.99 1064.51,-347.64 1090,-315.5 1104.24,-297.54 1125.39,-282.48 1142.3,-272.21"/>
<polygon fill="#63b8ff" stroke="#63b8ff" points="1144.32,-275.08 1151.18,-267 1140.78,-269.04 1144.32,-275.08"/>
</a>
</g>
</g>
<!-- Node25 -->
<g id="Node000025" class="node">
<title>Node25</title>
<g id="a_Node000025"><a xlink:href="../../db/df4/classTimeout_a9a72ea0591f11452fb15bfaa1ae5108a.xhtml#a9a72ea0591f11452fb15bfaa1ae5108a" target="_top" xlink:title=" ">
<polygon fill="white" stroke="#666666" points="1393.5,-248 1291.5,-248 1291.5,-229 1393.5,-229 1393.5,-248"/>
<text text-anchor="middle" x="1342.5" y="-236" font-family="Helvetica,sans-Serif" font-size="10.00">Timeout::millis16</text>
</a>
</g>
</g>
<!-- Node24&#45;&gt;Node25 -->
<g id="edge32_Node000024_Node000025" class="edge">
<title>Node24&#45;&gt;Node25</title>
<g id="a_edge32_Node000024_Node000025"><a xlink:title=" ">
<path fill="none" stroke="#63b8ff" d="M1225.29,-251.49C1243.1,-249.5 1263.03,-247.27 1281.29,-245.23"/>
<polygon fill="#63b8ff" stroke="#63b8ff" points="1281.69,-248.71 1291.24,-244.12 1280.91,-241.75 1281.69,-248.71"/>
</a>
</g>
</g>
<!-- Node26 -->
<g id="Node000026" class="node">
<title>Node26</title>
<g id="a_Node000026"><a xlink:href="../../d5/df3/wiring_8c_a6ff7f2532a22366f0013bc41397129fd.xhtml#a6ff7f2532a22366f0013bc41397129fd" target="_top" xlink:title=" ">
<polygon fill="white" stroke="#666666" points="1493,-248 1449,-248 1449,-229 1493,-229 1493,-248"/>
<text text-anchor="middle" x="1471" y="-236" font-family="Helvetica,sans-Serif" font-size="10.00">millis</text>
</a>
</g>
</g>
<!-- Node25&#45;&gt;Node26 -->
<g id="edge33_Node000025_Node000026" class="edge">
<title>Node25&#45;&gt;Node26</title>
<g id="a_edge33_Node000025_Node000026"><a xlink:title=" ">
<path fill="none" stroke="#63b8ff" d="M1393.86,-238.5C1408.97,-238.5 1425.11,-238.5 1438.62,-238.5"/>
<polygon fill="#63b8ff" stroke="#63b8ff" points="1438.83,-242 1448.83,-238.5 1438.83,-235 1438.83,-242"/>
</a>
</g>
</g>
<!-- Node29 -->
<g id="Node000029" class="node">
<title>Node29</title>
<g id="a_Node000029"><a xlink:href="../../d5/d45/wiring__digital_8c_abf453c1659ee9fafa5af689523ac71e7.xhtml#abf453c1659ee9fafa5af689523ac71e7" target="_top" xlink:title=" ">
<polygon fill="white" stroke="#666666" points="448,-181 389,-181 389,-162 448,-162 448,-181"/>
<text text-anchor="middle" x="418.5" y="-169" font-family="Helvetica,sans-Serif" font-size="10.00">pinMode</text>
</a>
</g>
</g>
<!-- Node28&#45;&gt;Node29 -->
<g id="edge39_Node000028_Node000029" class="edge">
<title>Node28&#45;&gt;Node29</title>
<g id="a_edge39_Node000028_Node000029"><a xlink:title=" ">
<path fill="none" stroke="#63b8ff" d="M256.84,-171.5C288.91,-171.5 342.31,-171.5 378.67,-171.5"/>
<polygon fill="#63b8ff" stroke="#63b8ff" points="378.9,-175 388.9,-171.5 378.9,-168 378.9,-175"/>
</a>
</g>
</g>
<!-- Node30&#45;&gt;Node25 -->
<g id="edge41_Node000030_Node000025" class="edge">
<title>Node30&#45;&gt;Node25</title>
<g id="a_edge41_Node000030_Node000025"><a xlink:title=" ">
<path fill="none" stroke="#63b8ff" d="M651.14,-159.85C770.22,-173.41 1135.78,-215.06 1281.06,-231.61"/>
<polygon fill="#63b8ff" stroke="#63b8ff" points="1280.8,-235.11 1291.13,-232.76 1281.59,-228.15 1280.8,-235.11"/>
</a>
</g>
</g>
<!-- Node32 -->
<g id="Node000032" class="node">
<title>Node32</title>
<g id="a_Node000032"><a xlink:href="../../d0/d25/classSdSpiArduinoDriver_ae837a6d51bfe5518cb4744581824db88.xhtml#ae837a6d51bfe5518cb4744581824db88" target="_top" xlink:title=" ">
<polygon fill="white" stroke="#666666" points="474,-105.5 363,-105.5 363,-75.5 474,-75.5 474,-105.5"/>
<text text-anchor="start" x="371" y="-93.5" font-family="Helvetica,sans-Serif" font-size="10.00">SdSpiArduinoDriver</text>
<text text-anchor="middle" x="418.5" y="-82.5" font-family="Helvetica,sans-Serif" font-size="10.00">::begin</text>
</a>
</g>
</g>
<!-- Node31&#45;&gt;Node32 -->
<g id="edge43_Node000031_Node000032" class="edge">
<title>Node31&#45;&gt;Node32</title>
<g id="a_edge43_Node000031_Node000032"><a xlink:title=" ">
<path fill="none" stroke="#63b8ff" d="M296.58,-93.72C314.82,-93.23 334.54,-92.71 352.66,-92.22"/>
<polygon fill="#63b8ff" stroke="#63b8ff" points="352.92,-95.72 362.83,-91.95 352.74,-88.72 352.92,-95.72"/>
</a>
</g>
</g>
<!-- Node34 -->
<g id="Node000034" class="node">
<title>Node34</title>
<g id="a_Node000034"><a xlink:href="../../d0/d25/classSdSpiArduinoDriver_acf0cc41d2bd80479237aa2799e119973.xhtml#acf0cc41d2bd80479237aa2799e119973" target="_top" xlink:title=" ">
<polygon fill="white" stroke="#666666" points="474,-57.5 363,-57.5 363,-27.5 474,-27.5 474,-57.5"/>
<text text-anchor="start" x="371" y="-45.5" font-family="Helvetica,sans-Serif" font-size="10.00">SdSpiArduinoDriver</text>
<text text-anchor="middle" x="418.5" y="-34.5" font-family="Helvetica,sans-Serif" font-size="10.00">::setSckSpeed</text>
</a>
</g>
</g>
<!-- Node33&#45;&gt;Node34 -->
<g id="edge47_Node000033_Node000034" class="edge">
<title>Node33&#45;&gt;Node34</title>
<g id="a_edge47_Node000033_Node000034"><a xlink:title=" ">
<path fill="none" stroke="#63b8ff" d="M299.24,-48.79C316.8,-47.86 335.57,-46.86 352.86,-45.94"/>
<polygon fill="#63b8ff" stroke="#63b8ff" points="353.05,-49.43 362.85,-45.41 352.68,-42.44 353.05,-49.43"/>
</a>
</g>
</g>
</g>
</svg>
