<?xml version="1.0" encoding="UTF-8" standalone="no"?>
<!DOCTYPE svg PUBLIC "-//W3C//DTD SVG 1.1//EN"
 "http://www.w3.org/Graphics/SVG/1.1/DTD/svg11.dtd">
<!-- Generated by graphviz version 2.43.0 (0)
 -->
<!-- Title: SharedSpiCard::setDedicatedSpi Pages: 1 -->
<svg width="532pt" height="64pt"
 viewBox="0.00 0.00 532.00 64.00" xmlns="http://www.w3.org/2000/svg" xmlns:xlink="http://www.w3.org/1999/xlink">
<g id="graph0" class="graph" transform="scale(1 1) rotate(0) translate(4 60)">
<title>SharedSpiCard::setDedicatedSpi</title>
<!-- Node1 -->
<g id="Node000001" class="node">
<title>Node1</title>
<g id="a_Node000001"><a xlink:title=" ">
<polygon fill="#999999" stroke="#666666" points="524,-37 351,-37 351,-18 524,-18 524,-37"/>
<text text-anchor="middle" x="437.5" y="-25" font-family="Helvetica,sans-Serif" font-size="10.00">SharedSpiCard::setDedicatedSpi</text>
</a>
</g>
</g>
<!-- Node2 -->
<g id="Node000002" class="node">
<title>Node2</title>
<g id="a_Node000002"><a xlink:href="../../da/d81/classSdBase_afb32cffe0f935923bdcc303a3dacdf51.xhtml#afb32cffe0f935923bdcc303a3dacdf51" target="_top" xlink:title=" ">
<polygon fill="white" stroke="#666666" points="315,-37 177,-37 177,-18 315,-18 315,-37"/>
<text text-anchor="middle" x="246" y="-25" font-family="Helvetica,sans-Serif" font-size="10.00">SdBase::setDedicatedSpi</text>
</a>
</g>
</g>
<!-- Node1&#45;&gt;Node2 -->
<g id="edge1_Node000001_Node000002" class="edge">
<title>Node1&#45;&gt;Node2</title>
<g id="a_edge1_Node000001_Node000002"><a xlink:title=" ">
<path fill="none" stroke="#63b8ff" d="M340.77,-27.5C332.14,-27.5 323.51,-27.5 315.18,-27.5"/>
<polygon fill="#63b8ff" stroke="#63b8ff" points="340.9,-31 350.9,-27.5 340.9,-24 340.9,-31"/>
</a>
</g>
</g>
<!-- Node3 -->
<g id="Node000003" class="node">
<title>Node3</title>
<g id="a_Node000003"><a xlink:href="../../da/d81/classSdBase_ae7c8ea488f296548f9aa5381bc0bfbcc.xhtml#ae7c8ea488f296548f9aa5381bc0bfbcc" target="_top" xlink:title=" ">
<polygon fill="white" stroke="#666666" points="116.5,-56 24.5,-56 24.5,-37 116.5,-37 116.5,-56"/>
<text text-anchor="middle" x="70.5" y="-44" font-family="Helvetica,sans-Serif" font-size="10.00">SdBase::format</text>
</a>
</g>
</g>
<!-- Node2&#45;&gt;Node3 -->
<g id="edge2_Node000002_Node000003" class="edge">
<title>Node2&#45;&gt;Node3</title>
<g id="a_edge2_Node000002_Node000003"><a xlink:title=" ">
<path fill="none" stroke="#63b8ff" d="M166.88,-36.05C149.69,-37.94 132.05,-39.87 116.68,-41.55"/>
<polygon fill="#63b8ff" stroke="#63b8ff" points="167.37,-39.52 176.93,-34.95 166.6,-32.56 167.37,-39.52"/>
</a>
</g>
</g>
<!-- Node4 -->
<g id="Node000004" class="node">
<title>Node4</title>
<g id="a_Node000004"><a xlink:href="../../da/d81/classSdBase_a252b97ab55d9abb8eeaeee2d26f564e6.xhtml#a252b97ab55d9abb8eeaeee2d26f564e6" target="_top" xlink:title=" ">
<polygon fill="white" stroke="#666666" points="141,-19 0,-19 0,0 141,0 141,-19"/>
<text text-anchor="middle" x="70.5" y="-7" font-family="Helvetica,sans-Serif" font-size="10.00">SdBase::freeClusterCount</text>
</a>
</g>
</g>
<!-- Node2&#45;&gt;Node4 -->
<g id="edge3_Node000002_Node000004" class="edge">
<title>Node2&#45;&gt;Node4</title>
<g id="a_edge3_Node000002_Node000004"><a xlink:title=" ">
<path fill="none" stroke="#63b8ff" d="M166.9,-19.4C158.3,-18.5 149.58,-17.6 141.09,-16.72"/>
<polygon fill="#63b8ff" stroke="#63b8ff" points="166.62,-22.89 176.93,-20.44 167.34,-15.92 166.62,-22.89"/>
</a>
</g>
</g>
</g>
</svg>
