<?xml version="1.0" encoding="UTF-8" standalone="no"?>
<!DOCTYPE svg PUBLIC "-//W3C//DTD SVG 1.1//EN"
 "http://www.w3.org/Graphics/SVG/1.1/DTD/svg11.dtd">
<!-- Generated by graphviz version 2.43.0 (0)
 -->
<!-- Title: SharedSpiCard::sectorCount Pages: 1 -->
<svg width="1834pt" height="360pt"
 viewBox="0.00 0.00 1834.00 359.50" xmlns="http://www.w3.org/2000/svg" xmlns:xlink="http://www.w3.org/1999/xlink">
<g id="graph0" class="graph" transform="scale(1 1) rotate(0) translate(4 355.5)">
<title>SharedSpiCard::sectorCount</title>
<!-- Node1 -->
<g id="Node000001" class="node">
<title>Node1</title>
<g id="a_Node000001"><a xlink:title=" ">
<polygon fill="#999999" stroke="#666666" points="152,-112 0,-112 0,-93 152,-93 152,-112"/>
<text text-anchor="middle" x="76" y="-100" font-family="Helvetica,sans-Serif" font-size="10.00">SharedSpiCard::sectorCount</text>
</a>
</g>
</g>
<!-- Node2 -->
<g id="Node000002" class="node">
<title>Node2</title>
<g id="a_Node000002"><a xlink:href="../../d8/ded/structcsd__t.xhtml#a2aaad0ee07f8a031de52424fee21b3d9" target="_top" xlink:title=" ">
<polygon fill="white" stroke="#666666" points="300.5,-131 211.5,-131 211.5,-112 300.5,-112 300.5,-131"/>
<text text-anchor="middle" x="256" y="-119" font-family="Helvetica,sans-Serif" font-size="10.00">csd_t::capacity</text>
</a>
</g>
</g>
<!-- Node1&#45;&gt;Node2 -->
<g id="edge1_Node000001_Node000002" class="edge">
<title>Node1&#45;&gt;Node2</title>
<g id="a_edge1_Node000001_Node000002"><a xlink:title=" ">
<path fill="none" stroke="#63b8ff" d="M152.23,-110.53C168.65,-112.28 185.71,-114.1 201.11,-115.75"/>
<polygon fill="#63b8ff" stroke="#63b8ff" points="201.15,-119.27 211.47,-116.85 201.9,-112.31 201.15,-119.27"/>
</a>
</g>
</g>
<!-- Node3 -->
<g id="Node000003" class="node">
<title>Node3</title>
<g id="a_Node000003"><a xlink:href="../../d8/d7f/classSharedSpiCard.xhtml#aa28eccbfb63a43aada4ec199da69a38c" target="_top" xlink:title=" ">
<polygon fill="white" stroke="#666666" points="324,-94 188,-94 188,-75 324,-75 324,-94"/>
<text text-anchor="middle" x="256" y="-82" font-family="Helvetica,sans-Serif" font-size="10.00">SharedSpiCard::readCSD</text>
</a>
</g>
</g>
<!-- Node1&#45;&gt;Node3 -->
<g id="edge2_Node000001_Node000003" class="edge">
<title>Node1&#45;&gt;Node3</title>
<g id="a_edge2_Node000001_Node000003"><a xlink:title=" ">
<path fill="none" stroke="#63b8ff" d="M152.23,-94.89C160.66,-94.04 169.26,-93.17 177.72,-92.31"/>
<polygon fill="#63b8ff" stroke="#63b8ff" points="178.35,-95.77 187.94,-91.28 177.64,-88.8 178.35,-95.77"/>
</a>
</g>
</g>
<!-- Node4 -->
<g id="Node000004" class="node">
<title>Node4</title>
<g id="a_Node000004"><a xlink:href="../../d8/d7f/classSharedSpiCard.xhtml#a9107af8380369d08cd2db4824a8aceda" target="_top" xlink:title=" ">
<polygon fill="white" stroke="#666666" points="516,-94 360,-94 360,-75 516,-75 516,-94"/>
<text text-anchor="middle" x="438" y="-82" font-family="Helvetica,sans-Serif" font-size="10.00">SharedSpiCard::readRegister</text>
</a>
</g>
</g>
<!-- Node3&#45;&gt;Node4 -->
<g id="edge3_Node000003_Node000004" class="edge">
<title>Node3&#45;&gt;Node4</title>
<g id="a_edge3_Node000003_Node000004"><a xlink:title=" ">
<path fill="none" stroke="#63b8ff" d="M324.03,-84.5C332.43,-84.5 341.12,-84.5 349.78,-84.5"/>
<polygon fill="#63b8ff" stroke="#63b8ff" points="349.91,-88 359.91,-84.5 349.91,-81 349.91,-88"/>
</a>
</g>
</g>
<!-- Node5 -->
<g id="Node000005" class="node">
<title>Node5</title>
<g id="a_Node000005"><a xlink:href="../../d8/d7f/classSharedSpiCard.xhtml#adda33199753fc2aec74fe317cbaabc06" target="_top" xlink:title=" ">
<polygon fill="white" stroke="#666666" points="717,-227 552,-227 552,-208 717,-208 717,-227"/>
<text text-anchor="middle" x="634.5" y="-215" font-family="Helvetica,sans-Serif" font-size="10.00">SharedSpiCard::cardCommand</text>
</a>
</g>
</g>
<!-- Node4&#45;&gt;Node5 -->
<g id="edge4_Node000004_Node000005" class="edge">
<title>Node4&#45;&gt;Node5</title>
<g id="a_edge4_Node000004_Node000005"><a xlink:title=" ">
<path fill="none" stroke="#63b8ff" d="M452.99,-94.07C486.27,-116.82 570.41,-174.36 610.97,-202.09"/>
<polygon fill="#63b8ff" stroke="#63b8ff" points="609.15,-205.09 619.38,-207.84 613.1,-199.31 609.15,-205.09"/>
</a>
</g>
</g>
<!-- Node19 -->
<g id="Node000019" class="node">
<title>Node19</title>
<g id="a_Node000019"><a xlink:href="../../d8/d7f/classSharedSpiCard.xhtml#a747c3f0b962098cf0c097f3c4c2b4fd4" target="_top" xlink:title=" ">
<polygon fill="white" stroke="#666666" points="1246.5,-114 1129.5,-114 1129.5,-95 1246.5,-95 1246.5,-114"/>
<text text-anchor="middle" x="1188" y="-102" font-family="Helvetica,sans-Serif" font-size="10.00">SharedSpiCard::error</text>
</a>
</g>
</g>
<!-- Node4&#45;&gt;Node19 -->
<g id="edge37_Node000004_Node000019" class="edge">
<title>Node4&#45;&gt;Node19</title>
<g id="a_edge37_Node000004_Node000019"><a xlink:title=" ">
<path fill="none" stroke="#63b8ff" d="M516.47,-81.86C636.96,-78.49 876.48,-74.71 1079,-89.5 1092.09,-90.46 1106.01,-91.99 1119.35,-93.73"/>
<polygon fill="#63b8ff" stroke="#63b8ff" points="1119.04,-97.22 1129.42,-95.09 1119.97,-90.28 1119.04,-97.22"/>
</a>
</g>
</g>
<!-- Node20 -->
<g id="Node000020" class="node">
<title>Node20</title>
<g id="a_Node000020"><a xlink:href="../../d8/d7f/classSharedSpiCard.xhtml#a0f511c39c50055a4fc97e720933aee3a" target="_top" xlink:title=" ">
<polygon fill="white" stroke="#666666" points="1253,-151 1123,-151 1123,-132 1253,-132 1253,-151"/>
<text text-anchor="middle" x="1188" y="-139" font-family="Helvetica,sans-Serif" font-size="10.00">SharedSpiCard::spiStop</text>
</a>
</g>
</g>
<!-- Node4&#45;&gt;Node20 -->
<g id="edge40_Node000004_Node000020" class="edge">
<title>Node4&#45;&gt;Node20</title>
<g id="a_edge40_Node000004_Node000020"><a xlink:title=" ">
<path fill="none" stroke="#63b8ff" d="M516.25,-87.97C661.93,-94.71 972.18,-109.97 1079,-122.5 1095.6,-124.45 1113.51,-127.29 1129.89,-130.19"/>
<polygon fill="#63b8ff" stroke="#63b8ff" points="1129.4,-133.66 1139.86,-132 1130.64,-126.77 1129.4,-133.66"/>
</a>
</g>
</g>
<!-- Node29 -->
<g id="Node000029" class="node">
<title>Node29</title>
<g id="a_Node000029"><a xlink:href="../../d8/d7f/classSharedSpiCard.xhtml#abeae3cdc162f24c2d450abe4e1ed8340" target="_top" xlink:title=" ">
<polygon fill="white" stroke="#666666" points="704,-19 565,-19 565,0 704,0 704,-19"/>
<text text-anchor="middle" x="634.5" y="-7" font-family="Helvetica,sans-Serif" font-size="10.00">SharedSpiCard::readData</text>
</a>
</g>
</g>
<!-- Node4&#45;&gt;Node29 -->
<g id="edge38_Node000004_Node000029" class="edge">
<title>Node4&#45;&gt;Node29</title>
<g id="a_edge38_Node000004_Node000029"><a xlink:title=" ">
<path fill="none" stroke="#63b8ff" d="M464.03,-74.85C498.31,-61.63 560.03,-37.83 598.77,-22.89"/>
<polygon fill="#63b8ff" stroke="#63b8ff" points="600.5,-25.98 608.57,-19.11 597.98,-19.45 600.5,-25.98"/>
</a>
</g>
</g>
<!-- Node6 -->
<g id="Node000006" class="node">
<title>Node6</title>
<g id="a_Node000006"><a xlink:href="../../d8/d7f/classSharedSpiCard.xhtml#a08363209d938db87521cca6a84146041" target="_top" xlink:title=" ">
<polygon fill="white" stroke="#666666" points="1451,-341 1304,-341 1304,-322 1451,-322 1451,-341"/>
<text text-anchor="middle" x="1377.5" y="-329" font-family="Helvetica,sans-Serif" font-size="10.00">SharedSpiCard::spiReceive</text>
</a>
</g>
</g>
<!-- Node5&#45;&gt;Node6 -->
<g id="edge5_Node000005_Node000006" class="edge">
<title>Node5&#45;&gt;Node6</title>
<g id="a_edge5_Node000005_Node000006"><a xlink:title=" ">
<path fill="none" stroke="#63b8ff" d="M650.78,-227.02C672.57,-240.1 714.24,-263.27 753,-274.5 940.68,-328.88 1172.21,-335 1293.48,-333.81"/>
<polygon fill="#63b8ff" stroke="#63b8ff" points="1293.84,-337.31 1303.79,-333.69 1293.75,-330.31 1293.84,-337.31"/>
</a>
</g>
</g>
<!-- Node8 -->
<g id="Node000008" class="node">
<title>Node8</title>
<g id="a_Node000008"><a xlink:href="../../d8/d7f/classSharedSpiCard.xhtml#ab311b9ad8a250f06afbe091f7abb118b" target="_top" xlink:title=" ">
<polygon fill="white" stroke="#666666" points="1443.5,-191 1311.5,-191 1311.5,-172 1443.5,-172 1443.5,-191"/>
<text text-anchor="middle" x="1377.5" y="-179" font-family="Helvetica,sans-Serif" font-size="10.00">SharedSpiCard::spiSend</text>
</a>
</g>
</g>
<!-- Node5&#45;&gt;Node8 -->
<g id="edge7_Node000005_Node000008" class="edge">
<title>Node5&#45;&gt;Node8</title>
<g id="a_edge7_Node000005_Node000008"><a xlink:title=" ">
<path fill="none" stroke="#63b8ff" d="M717.08,-216.46C836.58,-214.49 1066.21,-209.02 1261,-194.5 1273.99,-193.53 1287.77,-192.23 1301.12,-190.81"/>
<polygon fill="#63b8ff" stroke="#63b8ff" points="1301.66,-194.27 1311.22,-189.72 1300.9,-187.32 1301.66,-194.27"/>
</a>
</g>
</g>
<!-- Node10 -->
<g id="Node000010" class="node">
<title>Node10</title>
<g id="a_Node000010"><a xlink:href="../../d8/d7f/classSharedSpiCard.xhtml#aef2dfa72e8d5643c90720f9f8c6a4254" target="_top" xlink:title=" ">
<polygon fill="white" stroke="#666666" points="1253.5,-265 1122.5,-265 1122.5,-246 1253.5,-246 1253.5,-265"/>
<text text-anchor="middle" x="1188" y="-253" font-family="Helvetica,sans-Serif" font-size="10.00">SharedSpiCard::spiStart</text>
</a>
</g>
</g>
<!-- Node5&#45;&gt;Node10 -->
<g id="edge9_Node000005_Node000010" class="edge">
<title>Node5&#45;&gt;Node10</title>
<g id="a_edge9_Node000005_Node000010"><a xlink:title=" ">
<path fill="none" stroke="#63b8ff" d="M709.39,-227.03C723.83,-228.69 738.88,-230.27 753,-231.5 878.83,-242.46 1025.64,-249.35 1112.21,-252.8"/>
<polygon fill="#63b8ff" stroke="#63b8ff" points="1112.07,-256.3 1122.2,-253.2 1112.35,-249.31 1112.07,-256.3"/>
</a>
</g>
</g>
<!-- Node17 -->
<g id="Node000017" class="node">
<title>Node17</title>
<g id="a_Node000017"><a xlink:href="../../d8/d7f/classSharedSpiCard.xhtml#a2f181b3d6f27413a0f5ee883dfd94d87" target="_top" xlink:title=" ">
<polygon fill="white" stroke="#666666" points="903,-189 753,-189 753,-170 903,-170 903,-189"/>
<text text-anchor="middle" x="828" y="-177" font-family="Helvetica,sans-Serif" font-size="10.00">SharedSpiCard::syncDevice</text>
</a>
</g>
</g>
<!-- Node5&#45;&gt;Node17 -->
<g id="edge17_Node000005_Node000017" class="edge">
<title>Node5&#45;&gt;Node17</title>
<g id="a_edge17_Node000005_Node000017"><a xlink:title=" ">
<path fill="none" stroke="#63b8ff" d="M683.82,-207.91C709.66,-202.78 741.67,-196.43 768.86,-191.04"/>
<polygon fill="#63b8ff" stroke="#63b8ff" points="769.9,-194.4 779.02,-189.02 768.53,-187.53 769.9,-194.4"/>
</a>
</g>
</g>
<!-- Node25 -->
<g id="Node000025" class="node">
<title>Node25</title>
<g id="a_Node000025"><a xlink:href="../../d8/d7f/classSharedSpiCard.xhtml#ab3468397bb3b12d29dd2f31e45b3dcaf" target="_top" xlink:title=" ">
<polygon fill="white" stroke="#666666" points="1261,-303 1115,-303 1115,-284 1261,-284 1261,-303"/>
<text text-anchor="middle" x="1188" y="-291" font-family="Helvetica,sans-Serif" font-size="10.00">SharedSpiCard::waitReady</text>
</a>
</g>
</g>
<!-- Node5&#45;&gt;Node25 -->
<g id="edge36_Node000005_Node000025" class="edge">
<title>Node5&#45;&gt;Node25</title>
<g id="a_edge36_Node000005_Node000025"><a xlink:title=" ">
<path fill="none" stroke="#63b8ff" d="M664.14,-227.06C687.73,-234.57 722.18,-244.69 753,-250.5 874.14,-273.33 1016.72,-284.51 1104.49,-289.63"/>
<polygon fill="#63b8ff" stroke="#63b8ff" points="1104.47,-293.13 1114.65,-290.21 1104.86,-286.15 1104.47,-293.13"/>
</a>
</g>
</g>
<!-- Node7 -->
<g id="Node000007" class="node">
<title>Node7</title>
<g id="a_Node000007"><a xlink:href="../../d0/d25/classSdSpiArduinoDriver.xhtml#a8d6bc852a52e9d69c4b1e48ee062e8d1" target="_top" xlink:title=" ">
<polygon fill="white" stroke="#666666" points="1605,-351.5 1494,-351.5 1494,-321.5 1605,-321.5 1605,-351.5"/>
<text text-anchor="start" x="1502" y="-339.5" font-family="Helvetica,sans-Serif" font-size="10.00">SdSpiArduinoDriver</text>
<text text-anchor="middle" x="1549.5" y="-328.5" font-family="Helvetica,sans-Serif" font-size="10.00">::receive</text>
</a>
</g>
</g>
<!-- Node6&#45;&gt;Node7 -->
<g id="edge6_Node000006_Node000007" class="edge">
<title>Node6&#45;&gt;Node7</title>
<g id="a_edge6_Node000006_Node000007"><a xlink:title=" ">
<path fill="none" stroke="#63b8ff" d="M1451.09,-333.63C1461.96,-333.95 1473.11,-334.28 1483.81,-334.6"/>
<polygon fill="#63b8ff" stroke="#63b8ff" points="1483.8,-338.1 1493.9,-334.89 1484.01,-331.1 1483.8,-338.1"/>
</a>
</g>
</g>
<!-- Node9 -->
<g id="Node000009" class="node">
<title>Node9</title>
<g id="a_Node000009"><a xlink:href="../../d0/d25/classSdSpiArduinoDriver.xhtml#a3c4842e47f98fe5d3799cd6028778ab5" target="_top" xlink:title=" ">
<polygon fill="white" stroke="#666666" points="1605,-203.5 1494,-203.5 1494,-173.5 1605,-173.5 1605,-203.5"/>
<text text-anchor="start" x="1502" y="-191.5" font-family="Helvetica,sans-Serif" font-size="10.00">SdSpiArduinoDriver</text>
<text text-anchor="middle" x="1549.5" y="-180.5" font-family="Helvetica,sans-Serif" font-size="10.00">::send</text>
</a>
</g>
</g>
<!-- Node8&#45;&gt;Node9 -->
<g id="edge8_Node000008_Node000009" class="edge">
<title>Node8&#45;&gt;Node9</title>
<g id="a_edge8_Node000008_Node000009"><a xlink:title=" ">
<path fill="none" stroke="#63b8ff" d="M1443.74,-184.19C1456.82,-184.72 1470.56,-185.29 1483.62,-185.83"/>
<polygon fill="#63b8ff" stroke="#63b8ff" points="1483.79,-189.34 1493.93,-186.25 1484.08,-182.34 1483.79,-189.34"/>
</a>
</g>
</g>
<!-- Node10&#45;&gt;Node8 -->
<g id="edge16_Node000010_Node000008" class="edge">
<title>Node10&#45;&gt;Node8</title>
<g id="a_edge16_Node000010_Node000008"><a xlink:title=" ">
<path fill="none" stroke="#63b8ff" d="M1227.24,-245.92C1238.52,-242.27 1250.62,-237.5 1261,-231.5 1279.53,-220.79 1277.96,-209.28 1297,-199.5 1300.75,-197.57 1304.71,-195.85 1308.77,-194.31"/>
<polygon fill="#63b8ff" stroke="#63b8ff" points="1310.05,-197.57 1318.4,-191.04 1307.8,-190.94 1310.05,-197.57"/>
</a>
</g>
</g>
<!-- Node11 -->
<g id="Node000011" class="node">
<title>Node11</title>
<g id="a_Node000011"><a xlink:href="../../d8/d7f/classSharedSpiCard.xhtml#a69ee2fe49dfaeea2347d8a265806d2b6" target="_top" xlink:title=" ">
<polygon fill="white" stroke="#666666" points="1452,-265 1303,-265 1303,-246 1452,-246 1452,-265"/>
<text text-anchor="middle" x="1377.5" y="-253" font-family="Helvetica,sans-Serif" font-size="10.00">SharedSpiCard::spiActivate</text>
</a>
</g>
</g>
<!-- Node10&#45;&gt;Node11 -->
<g id="edge10_Node000010_Node000011" class="edge">
<title>Node10&#45;&gt;Node11</title>
<g id="a_edge10_Node000010_Node000011"><a xlink:title=" ">
<path fill="none" stroke="#63b8ff" d="M1253.53,-255.5C1266.19,-255.5 1279.64,-255.5 1292.82,-255.5"/>
<polygon fill="#63b8ff" stroke="#63b8ff" points="1292.84,-259 1302.84,-255.5 1292.84,-252 1292.84,-259"/>
</a>
</g>
</g>
<!-- Node13 -->
<g id="Node000013" class="node">
<title>Node13</title>
<g id="a_Node000013"><a xlink:href="../../d8/d7f/classSharedSpiCard.xhtml#a8c3088599862ff6e84ae79bfdf32aea8" target="_top" xlink:title=" ">
<polygon fill="white" stroke="#666666" points="1446.5,-228 1308.5,-228 1308.5,-209 1446.5,-209 1446.5,-228"/>
<text text-anchor="middle" x="1377.5" y="-216" font-family="Helvetica,sans-Serif" font-size="10.00">SharedSpiCard::spiSelect</text>
</a>
</g>
</g>
<!-- Node10&#45;&gt;Node13 -->
<g id="edge12_Node000010_Node000013" class="edge">
<title>Node10&#45;&gt;Node13</title>
<g id="a_edge12_Node000010_Node000013"><a xlink:title=" ">
<path fill="none" stroke="#63b8ff" d="M1237.29,-245.97C1261.9,-241.11 1292.04,-235.17 1317.97,-230.05"/>
<polygon fill="#63b8ff" stroke="#63b8ff" points="1318.92,-233.43 1328.05,-228.06 1317.56,-226.56 1318.92,-233.43"/>
</a>
</g>
</g>
<!-- Node12 -->
<g id="Node000012" class="node">
<title>Node12</title>
<g id="a_Node000012"><a xlink:href="../../d0/d25/classSdSpiArduinoDriver.xhtml#abb6b88c5c8b87fc344a69f23f6eab3d9" target="_top" xlink:title=" ">
<polygon fill="white" stroke="#666666" points="1605,-265.5 1494,-265.5 1494,-235.5 1605,-235.5 1605,-265.5"/>
<text text-anchor="start" x="1502" y="-253.5" font-family="Helvetica,sans-Serif" font-size="10.00">SdSpiArduinoDriver</text>
<text text-anchor="middle" x="1549.5" y="-242.5" font-family="Helvetica,sans-Serif" font-size="10.00">::activate</text>
</a>
</g>
</g>
<!-- Node11&#45;&gt;Node12 -->
<g id="edge11_Node000011_Node000012" class="edge">
<title>Node11&#45;&gt;Node12</title>
<g id="a_edge11_Node000011_Node000012"><a xlink:title=" ">
<path fill="none" stroke="#63b8ff" d="M1452.08,-253.34C1462.57,-253.03 1473.31,-252.71 1483.63,-252.41"/>
<polygon fill="#63b8ff" stroke="#63b8ff" points="1483.89,-255.9 1493.78,-252.11 1483.68,-248.91 1483.89,-255.9"/>
</a>
</g>
</g>
<!-- Node14 -->
<g id="Node000014" class="node">
<title>Node14</title>
<g id="a_Node000014"><a xlink:href="../../d2/df0/SdSpiChipSelect_8cpp.xhtml#ac469bbe2d31ffde9b00ffc68258d7428" target="_top" xlink:title=" ">
<polygon fill="white" stroke="#666666" points="1582.5,-155 1516.5,-155 1516.5,-136 1582.5,-136 1582.5,-155"/>
<text text-anchor="middle" x="1549.5" y="-143" font-family="Helvetica,sans-Serif" font-size="10.00">sdCsWrite</text>
</a>
</g>
</g>
<!-- Node13&#45;&gt;Node14 -->
<g id="edge13_Node000013_Node000014" class="edge">
<title>Node13&#45;&gt;Node14</title>
<g id="a_edge13_Node000013_Node000014"><a xlink:title=" ">
<path fill="none" stroke="#63b8ff" d="M1435.08,-208.97C1443.04,-206.5 1450.91,-203.4 1458,-199.5 1477.55,-188.74 1475.02,-176.23 1494,-164.5 1498.05,-162 1502.47,-159.77 1506.99,-157.8"/>
<polygon fill="#63b8ff" stroke="#63b8ff" points="1508.3,-161.05 1516.31,-154.12 1505.72,-154.54 1508.3,-161.05"/>
</a>
</g>
</g>
<!-- Node15 -->
<g id="Node000015" class="node">
<title>Node15</title>
<g id="a_Node000015"><a xlink:href="../../d5/d45/wiring__digital_8c.xhtml#a73b9b61feeaf7d790d107f2954a7fd93" target="_top" xlink:title=" ">
<polygon fill="white" stroke="#666666" points="1715,-155 1641,-155 1641,-136 1715,-136 1715,-155"/>
<text text-anchor="middle" x="1678" y="-143" font-family="Helvetica,sans-Serif" font-size="10.00">digitalWrite</text>
</a>
</g>
</g>
<!-- Node14&#45;&gt;Node15 -->
<g id="edge14_Node000014_Node000015" class="edge">
<title>Node14&#45;&gt;Node15</title>
<g id="a_edge14_Node000014_Node000015"><a xlink:title=" ">
<path fill="none" stroke="#63b8ff" d="M1582.75,-145.5C1597.28,-145.5 1614.71,-145.5 1630.61,-145.5"/>
<polygon fill="#63b8ff" stroke="#63b8ff" points="1630.79,-149 1640.79,-145.5 1630.79,-142 1630.79,-149"/>
</a>
</g>
</g>
<!-- Node16 -->
<g id="Node000016" class="node">
<title>Node16</title>
<g id="a_Node000016"><a xlink:href="../../d5/d45/wiring__digital_8c.xhtml#ae3d0bcbe4eb927ca8f5d5c21b7e4f224" target="_top" xlink:title=" ">
<polygon fill="white" stroke="#666666" points="1826,-155 1751,-155 1751,-136 1826,-136 1826,-155"/>
<text text-anchor="middle" x="1788.5" y="-143" font-family="Helvetica,sans-Serif" font-size="10.00">turnOffPWM</text>
</a>
</g>
</g>
<!-- Node15&#45;&gt;Node16 -->
<g id="edge15_Node000015_Node000016" class="edge">
<title>Node15&#45;&gt;Node16</title>
<g id="a_edge15_Node000015_Node000016"><a xlink:title=" ">
<path fill="none" stroke="#63b8ff" d="M1715.13,-145.5C1723.28,-145.5 1732.05,-145.5 1740.57,-145.5"/>
<polygon fill="#63b8ff" stroke="#63b8ff" points="1740.79,-149 1750.79,-145.5 1740.79,-142 1740.79,-149"/>
</a>
</g>
</g>
<!-- Node18 -->
<g id="Node000018" class="node">
<title>Node18</title>
<g id="a_Node000018"><a xlink:href="../../d8/d7f/classSharedSpiCard.xhtml#ab33ad2aefbb9cff905cad0879dffc78b" target="_top" xlink:title=" ">
<polygon fill="white" stroke="#666666" points="1077.5,-151 940.5,-151 940.5,-132 1077.5,-132 1077.5,-151"/>
<text text-anchor="middle" x="1009" y="-139" font-family="Helvetica,sans-Serif" font-size="10.00">SharedSpiCard::readStop</text>
</a>
</g>
</g>
<!-- Node17&#45;&gt;Node18 -->
<g id="edge18_Node000017_Node000018" class="edge">
<title>Node17&#45;&gt;Node18</title>
<g id="a_edge18_Node000017_Node000018"><a xlink:title=" ">
<path fill="none" stroke="#63b8ff" d="M874.17,-169.91C898.22,-164.81 927.97,-158.49 953.32,-153.11"/>
<polygon fill="#63b8ff" stroke="#63b8ff" points="954.1,-156.52 963.16,-151.02 952.65,-149.67 954.1,-156.52"/>
</a>
</g>
</g>
<!-- Node24 -->
<g id="Node000024" class="node">
<title>Node24</title>
<g id="a_Node000024"><a xlink:href="../../d8/d7f/classSharedSpiCard.xhtml#ae9a34a573077e43e7c6028a16ae77fb3" target="_top" xlink:title=" ">
<polygon fill="white" stroke="#666666" points="1079,-189 939,-189 939,-170 1079,-170 1079,-189"/>
<text text-anchor="middle" x="1009" y="-177" font-family="Helvetica,sans-Serif" font-size="10.00">SharedSpiCard::writeStop</text>
</a>
</g>
</g>
<!-- Node17&#45;&gt;Node24 -->
<g id="edge27_Node000017_Node000024" class="edge">
<title>Node17&#45;&gt;Node24</title>
<g id="a_edge27_Node000017_Node000024"><a xlink:title=" ">
<path fill="none" stroke="#63b8ff" d="M903.1,-179.5C911.51,-179.5 920.11,-179.5 928.58,-179.5"/>
<polygon fill="#63b8ff" stroke="#63b8ff" points="928.84,-183 938.84,-179.5 928.84,-176 928.84,-183"/>
</a>
</g>
</g>
<!-- Node18&#45;&gt;Node5 -->
<g id="edge19_Node000018_Node000005" class="edge">
<title>Node18&#45;&gt;Node5</title>
<g id="a_edge19_Node000018_Node000005"><a xlink:title=" ">
<path fill="none" stroke="#63b8ff" d="M940.27,-139.68C888.2,-139.92 814.94,-143.82 753,-160.5 718.56,-169.77 682.07,-189.18 659.06,-202.76"/>
<polygon fill="#63b8ff" stroke="#63b8ff" points="657.12,-199.84 650.36,-208 660.73,-205.84 657.12,-199.84"/>
</a>
</g>
</g>
<!-- Node18&#45;&gt;Node19 -->
<g id="edge20_Node000018_Node000019" class="edge">
<title>Node18&#45;&gt;Node19</title>
<g id="a_edge20_Node000018_Node000019"><a xlink:title=" ">
<path fill="none" stroke="#63b8ff" d="M1055.58,-131.97C1078.72,-127.14 1107.02,-121.22 1131.42,-116.12"/>
<polygon fill="#63b8ff" stroke="#63b8ff" points="1132.19,-119.53 1141.27,-114.06 1130.76,-112.68 1132.19,-119.53"/>
</a>
</g>
</g>
<!-- Node18&#45;&gt;Node20 -->
<g id="edge21_Node000018_Node000020" class="edge">
<title>Node18&#45;&gt;Node20</title>
<g id="a_edge21_Node000018_Node000020"><a xlink:title=" ">
<path fill="none" stroke="#63b8ff" d="M1077.67,-141.5C1089.15,-141.5 1101.12,-141.5 1112.75,-141.5"/>
<polygon fill="#63b8ff" stroke="#63b8ff" points="1112.86,-145 1122.86,-141.5 1112.86,-138 1112.86,-145"/>
</a>
</g>
</g>
<!-- Node20&#45;&gt;Node8 -->
<g id="edge24_Node000020_Node000008" class="edge">
<title>Node20&#45;&gt;Node8</title>
<g id="a_edge24_Node000020_Node000008"><a xlink:title=" ">
<path fill="none" stroke="#63b8ff" d="M1233.91,-151.08C1260.35,-156.72 1293.98,-163.9 1321.94,-169.86"/>
<polygon fill="#63b8ff" stroke="#63b8ff" points="1321.45,-173.33 1331.96,-172 1322.91,-166.49 1321.45,-173.33"/>
</a>
</g>
</g>
<!-- Node21 -->
<g id="Node000021" class="node">
<title>Node21</title>
<g id="a_Node000021"><a xlink:href="../../d8/d7f/classSharedSpiCard.xhtml#ac6acfca5a23337977d2e4436ab8ab39a" target="_top" xlink:title=" ">
<polygon fill="white" stroke="#666666" points="1458,-115 1297,-115 1297,-96 1458,-96 1458,-115"/>
<text text-anchor="middle" x="1377.5" y="-103" font-family="Helvetica,sans-Serif" font-size="10.00">SharedSpiCard::spiDeactivate</text>
</a>
</g>
</g>
<!-- Node20&#45;&gt;Node21 -->
<g id="edge22_Node000020_Node000021" class="edge">
<title>Node20&#45;&gt;Node21</title>
<g id="a_edge22_Node000020_Node000021"><a xlink:title=" ">
<path fill="none" stroke="#63b8ff" d="M1238.75,-131.95C1262.69,-127.35 1291.57,-121.81 1316.69,-116.98"/>
<polygon fill="#63b8ff" stroke="#63b8ff" points="1317.68,-120.36 1326.84,-115.03 1316.36,-113.48 1317.68,-120.36"/>
</a>
</g>
</g>
<!-- Node23 -->
<g id="Node000023" class="node">
<title>Node23</title>
<g id="a_Node000023"><a xlink:href="../../d8/d7f/classSharedSpiCard.xhtml#ad06a3278372300987b97876cf598c114" target="_top" xlink:title=" ">
<polygon fill="white" stroke="#666666" points="1453,-153 1302,-153 1302,-134 1453,-134 1453,-153"/>
<text text-anchor="middle" x="1377.5" y="-141" font-family="Helvetica,sans-Serif" font-size="10.00">SharedSpiCard::spiUnselect</text>
</a>
</g>
</g>
<!-- Node20&#45;&gt;Node23 -->
<g id="edge25_Node000020_Node000023" class="edge">
<title>Node20&#45;&gt;Node23</title>
<g id="a_edge25_Node000020_Node000023"><a xlink:title=" ">
<path fill="none" stroke="#63b8ff" d="M1253,-142.18C1265.39,-142.31 1278.55,-142.46 1291.49,-142.59"/>
<polygon fill="#63b8ff" stroke="#63b8ff" points="1291.76,-146.1 1301.8,-142.7 1291.84,-139.1 1291.76,-146.1"/>
</a>
</g>
</g>
<!-- Node22 -->
<g id="Node000022" class="node">
<title>Node22</title>
<g id="a_Node000022"><a xlink:href="../../d0/d25/classSdSpiArduinoDriver.xhtml#ae88a255f533e3acb41d1221025a69b55" target="_top" xlink:title=" ">
<polygon fill="white" stroke="#666666" points="1605,-117.5 1494,-117.5 1494,-87.5 1605,-87.5 1605,-117.5"/>
<text text-anchor="start" x="1502" y="-105.5" font-family="Helvetica,sans-Serif" font-size="10.00">SdSpiArduinoDriver</text>
<text text-anchor="middle" x="1549.5" y="-94.5" font-family="Helvetica,sans-Serif" font-size="10.00">::deactivate</text>
</a>
</g>
</g>
<!-- Node21&#45;&gt;Node22 -->
<g id="edge23_Node000021_Node000022" class="edge">
<title>Node21&#45;&gt;Node22</title>
<g id="a_edge23_Node000021_Node000022"><a xlink:title=" ">
<path fill="none" stroke="#63b8ff" d="M1458.02,-104.1C1466.63,-103.94 1475.3,-103.79 1483.7,-103.64"/>
<polygon fill="#63b8ff" stroke="#63b8ff" points="1483.84,-107.14 1493.78,-103.47 1483.72,-100.14 1483.84,-107.14"/>
</a>
</g>
</g>
<!-- Node23&#45;&gt;Node14 -->
<g id="edge26_Node000023_Node000014" class="edge">
<title>Node23&#45;&gt;Node14</title>
<g id="a_edge26_Node000023_Node000014"><a xlink:title=" ">
<path fill="none" stroke="#63b8ff" d="M1453.06,-144.38C1471.21,-144.59 1490.01,-144.81 1506.07,-145"/>
<polygon fill="#63b8ff" stroke="#63b8ff" points="1506.15,-148.5 1516.19,-145.12 1506.23,-141.5 1506.15,-148.5"/>
</a>
</g>
</g>
<!-- Node24&#45;&gt;Node8 -->
<g id="edge29_Node000024_Node000008" class="edge">
<title>Node24&#45;&gt;Node8</title>
<g id="a_edge29_Node000024_Node000008"><a xlink:title=" ">
<path fill="none" stroke="#63b8ff" d="M1079.37,-179.88C1142.7,-180.22 1236.09,-180.73 1301.22,-181.09"/>
<polygon fill="#63b8ff" stroke="#63b8ff" points="1301.4,-184.59 1311.42,-181.14 1301.44,-177.59 1301.4,-184.59"/>
</a>
</g>
</g>
<!-- Node24&#45;&gt;Node19 -->
<g id="edge28_Node000024_Node000019" class="edge">
<title>Node24&#45;&gt;Node19</title>
<g id="a_edge28_Node000024_Node000019"><a xlink:title=" ">
<path fill="none" stroke="#63b8ff" d="M1055.58,-169.93C1063.69,-167.22 1071.84,-163.8 1079,-159.5 1098.67,-147.69 1095.11,-133.94 1115,-122.5 1118.05,-120.74 1121.27,-119.16 1124.59,-117.73"/>
<polygon fill="#63b8ff" stroke="#63b8ff" points="1126.05,-120.92 1134.15,-114.08 1123.56,-114.37 1126.05,-120.92"/>
</a>
</g>
</g>
<!-- Node24&#45;&gt;Node20 -->
<g id="edge30_Node000024_Node000020" class="edge">
<title>Node24&#45;&gt;Node20</title>
<g id="a_edge30_Node000024_Node000020"><a xlink:title=" ">
<path fill="none" stroke="#63b8ff" d="M1054.66,-169.91C1078.34,-164.83 1107.61,-158.54 1132.6,-153.18"/>
<polygon fill="#63b8ff" stroke="#63b8ff" points="1133.61,-156.54 1142.66,-151.02 1132.14,-149.7 1133.61,-156.54"/>
</a>
</g>
</g>
<!-- Node24&#45;&gt;Node25 -->
<g id="edge31_Node000024_Node000025" class="edge">
<title>Node24&#45;&gt;Node25</title>
<g id="a_edge31_Node000024_Node000025"><a xlink:title=" ">
<path fill="none" stroke="#63b8ff" d="M1017.87,-189.22C1033.99,-208.49 1072.86,-251.66 1115,-274.5 1119.18,-276.77 1123.65,-278.78 1128.24,-280.55"/>
<polygon fill="#63b8ff" stroke="#63b8ff" points="1127.17,-283.89 1137.76,-283.88 1129.48,-277.28 1127.17,-283.89"/>
</a>
</g>
</g>
<!-- Node25&#45;&gt;Node6 -->
<g id="edge32_Node000025_Node000006" class="edge">
<title>Node25&#45;&gt;Node6</title>
<g id="a_edge32_Node000025_Node000006"><a xlink:title=" ">
<path fill="none" stroke="#63b8ff" d="M1236.31,-303.09C1261.61,-308.22 1292.95,-314.57 1319.57,-319.96"/>
<polygon fill="#63b8ff" stroke="#63b8ff" points="1319.03,-323.42 1329.53,-321.98 1320.42,-316.56 1319.03,-323.42"/>
</a>
</g>
</g>
<!-- Node26 -->
<g id="Node000026" class="node">
<title>Node26</title>
<g id="a_Node000026"><a xlink:href="../../db/df4/classTimeout.xhtml#abbabe99f42e52472ddd3a7e9d22dce95" target="_top" xlink:title=" ">
<polygon fill="white" stroke="#666666" points="1432,-303 1323,-303 1323,-284 1432,-284 1432,-303"/>
<text text-anchor="middle" x="1377.5" y="-291" font-family="Helvetica,sans-Serif" font-size="10.00">Timeout::timedOut</text>
</a>
</g>
</g>
<!-- Node25&#45;&gt;Node26 -->
<g id="edge33_Node000025_Node000026" class="edge">
<title>Node25&#45;&gt;Node26</title>
<g id="a_edge33_Node000025_Node000026"><a xlink:title=" ">
<path fill="none" stroke="#63b8ff" d="M1261.22,-293.5C1278.23,-293.5 1296.22,-293.5 1312.82,-293.5"/>
<polygon fill="#63b8ff" stroke="#63b8ff" points="1312.95,-297 1322.95,-293.5 1312.95,-290 1312.95,-297"/>
</a>
</g>
</g>
<!-- Node27 -->
<g id="Node000027" class="node">
<title>Node27</title>
<g id="a_Node000027"><a xlink:href="../../db/df4/classTimeout.xhtml#a9a72ea0591f11452fb15bfaa1ae5108a" target="_top" xlink:title=" ">
<polygon fill="white" stroke="#666666" points="1600.5,-303 1498.5,-303 1498.5,-284 1600.5,-284 1600.5,-303"/>
<text text-anchor="middle" x="1549.5" y="-291" font-family="Helvetica,sans-Serif" font-size="10.00">Timeout::millis16</text>
</a>
</g>
</g>
<!-- Node26&#45;&gt;Node27 -->
<g id="edge34_Node000026_Node000027" class="edge">
<title>Node26&#45;&gt;Node27</title>
<g id="a_edge34_Node000026_Node000027"><a xlink:title=" ">
<path fill="none" stroke="#63b8ff" d="M1432.29,-293.5C1450.02,-293.5 1469.85,-293.5 1488.04,-293.5"/>
<polygon fill="#63b8ff" stroke="#63b8ff" points="1488.24,-297 1498.24,-293.5 1488.24,-290 1488.24,-297"/>
</a>
</g>
</g>
<!-- Node28 -->
<g id="Node000028" class="node">
<title>Node28</title>
<g id="a_Node000028"><a xlink:href="../../d5/df3/wiring_8c.xhtml#a6ff7f2532a22366f0013bc41397129fd" target="_top" xlink:title=" ">
<polygon fill="white" stroke="#666666" points="1700,-303 1656,-303 1656,-284 1700,-284 1700,-303"/>
<text text-anchor="middle" x="1678" y="-291" font-family="Helvetica,sans-Serif" font-size="10.00">millis</text>
</a>
</g>
</g>
<!-- Node27&#45;&gt;Node28 -->
<g id="edge35_Node000027_Node000028" class="edge">
<title>Node27&#45;&gt;Node28</title>
<g id="a_edge35_Node000027_Node000028"><a xlink:title=" ">
<path fill="none" stroke="#63b8ff" d="M1600.86,-293.5C1615.97,-293.5 1632.11,-293.5 1645.62,-293.5"/>
<polygon fill="#63b8ff" stroke="#63b8ff" points="1645.83,-297 1655.83,-293.5 1645.83,-290 1645.83,-297"/>
</a>
</g>
</g>
<!-- Node29&#45;&gt;Node29 -->
<g id="edge39_Node000029_Node000029" class="edge">
<title>Node29&#45;&gt;Node29</title>
<g id="a_edge39_Node000029_Node000029"><a xlink:title=" ">
<path fill="none" stroke="#63b8ff" d="M604.91,-19.08C590.51,-27.73 600.38,-37 634.5,-37 657.96,-37 669.95,-32.62 670.48,-27.07"/>
<polygon fill="#63b8ff" stroke="#63b8ff" points="673.07,-24.71 664.09,-19.08 667.61,-29.08 673.07,-24.71"/>
</a>
</g>
</g>
</g>
</svg>
