<?xml version="1.0" encoding="UTF-8" standalone="no"?>
<!DOCTYPE svg PUBLIC "-//W3C//DTD SVG 1.1//EN"
 "http://www.w3.org/Graphics/SVG/1.1/DTD/svg11.dtd">
<!-- Generated by graphviz version 2.43.0 (0)
 -->
<!-- Title: SharedSpiCard::readData Pages: 1 -->
<svg width="895pt" height="191pt"
 viewBox="0.00 0.00 895.00 190.50" xmlns="http://www.w3.org/2000/svg" xmlns:xlink="http://www.w3.org/1999/xlink">
<g id="graph0" class="graph" transform="scale(1 1) rotate(0) translate(4 186.5)">
<title>SharedSpiCard::readData</title>
<!-- Node1 -->
<g id="Node000001" class="node">
<title>Node1</title>
<g id="a_Node000001"><a xlink:title=" ">
<polygon fill="#999999" stroke="#666666" points="139,-115 0,-115 0,-96 139,-96 139,-115"/>
<text text-anchor="middle" x="69.5" y="-103" font-family="Helvetica,sans-Serif" font-size="10.00">SharedSpiCard::readData</text>
</a>
</g>
</g>
<!-- Node2 -->
<g id="Node000002" class="node">
<title>Node2</title>
<g id="a_Node000002"><a xlink:href="../../d8/d7f/classSharedSpiCard.xhtml#a747c3f0b962098cf0c097f3c4c2b4fd4" target="_top" xlink:title=" ">
<polygon fill="white" stroke="#666666" points="307,-171 190,-171 190,-152 307,-152 307,-171"/>
<text text-anchor="middle" x="248.5" y="-159" font-family="Helvetica,sans-Serif" font-size="10.00">SharedSpiCard::error</text>
</a>
</g>
</g>
<!-- Node1&#45;&gt;Node2 -->
<g id="edge1_Node000001_Node000002" class="edge">
<title>Node1&#45;&gt;Node2</title>
<g id="a_edge1_Node000001_Node000002"><a xlink:title=" ">
<path fill="none" stroke="#63b8ff" d="M94.75,-115.14C115.77,-123.3 147.12,-135 175,-143.5 181.67,-145.53 188.73,-147.51 195.73,-149.36"/>
<polygon fill="#63b8ff" stroke="#63b8ff" points="195.33,-152.87 205.89,-151.97 197.07,-146.09 195.33,-152.87"/>
</a>
</g>
</g>
<!-- Node3 -->
<g id="Node000003" class="node">
<title>Node3</title>
<g id="a_Node000003"><a xlink:href="../../d8/d7f/classSharedSpiCard.xhtml#a08363209d938db87521cca6a84146041" target="_top" xlink:title=" ">
<polygon fill="white" stroke="#666666" points="322,-134 175,-134 175,-115 322,-115 322,-134"/>
<text text-anchor="middle" x="248.5" y="-122" font-family="Helvetica,sans-Serif" font-size="10.00">SharedSpiCard::spiReceive</text>
</a>
</g>
</g>
<!-- Node1&#45;&gt;Node3 -->
<g id="edge2_Node000001_Node000003" class="edge">
<title>Node1&#45;&gt;Node3</title>
<g id="a_edge2_Node000001_Node000003"><a xlink:title=" ">
<path fill="none" stroke="#63b8ff" d="M139.19,-112.87C147.57,-113.77 156.2,-114.7 164.76,-115.62"/>
<polygon fill="#63b8ff" stroke="#63b8ff" points="164.44,-119.1 174.75,-116.69 165.18,-112.14 164.44,-119.1"/>
</a>
</g>
</g>
<!-- Node5 -->
<g id="Node000005" class="node">
<title>Node5</title>
<g id="a_Node000005"><a xlink:href="../../d8/d7f/classSharedSpiCard.xhtml#a0f511c39c50055a4fc97e720933aee3a" target="_top" xlink:title=" ">
<polygon fill="white" stroke="#666666" points="313.5,-97 183.5,-97 183.5,-78 313.5,-78 313.5,-97"/>
<text text-anchor="middle" x="248.5" y="-85" font-family="Helvetica,sans-Serif" font-size="10.00">SharedSpiCard::spiStop</text>
</a>
</g>
</g>
<!-- Node1&#45;&gt;Node5 -->
<g id="edge4_Node000001_Node000005" class="edge">
<title>Node1&#45;&gt;Node5</title>
<g id="a_edge4_Node000001_Node000005"><a xlink:title=" ">
<path fill="none" stroke="#63b8ff" d="M139.19,-98.51C150.35,-97.38 161.95,-96.2 173.23,-95.05"/>
<polygon fill="#63b8ff" stroke="#63b8ff" points="173.89,-98.5 183.49,-94.01 173.19,-91.54 173.89,-98.5"/>
</a>
</g>
</g>
<!-- Node14 -->
<g id="Node000014" class="node">
<title>Node14</title>
<g id="a_Node000014"><a xlink:href="../../db/df4/classTimeout.xhtml#abbabe99f42e52472ddd3a7e9d22dce95" target="_top" xlink:title=" ">
<polygon fill="white" stroke="#666666" points="303,-42 194,-42 194,-23 303,-23 303,-42"/>
<text text-anchor="middle" x="248.5" y="-30" font-family="Helvetica,sans-Serif" font-size="10.00">Timeout::timedOut</text>
</a>
</g>
</g>
<!-- Node1&#45;&gt;Node14 -->
<g id="edge13_Node000001_Node000014" class="edge">
<title>Node1&#45;&gt;Node14</title>
<g id="a_edge13_Node000001_Node000014"><a xlink:title=" ">
<path fill="none" stroke="#63b8ff" d="M93.64,-95.96C124.65,-83.17 179.84,-60.41 215,-45.9"/>
<polygon fill="#63b8ff" stroke="#63b8ff" points="216.44,-49.09 224.35,-42.05 213.78,-42.62 216.44,-49.09"/>
</a>
</g>
</g>
<!-- Node4 -->
<g id="Node000004" class="node">
<title>Node4</title>
<g id="a_Node000004"><a xlink:href="../../d0/d25/classSdSpiArduinoDriver.xhtml#a8d6bc852a52e9d69c4b1e48ee062e8d1" target="_top" xlink:title=" ">
<polygon fill="white" stroke="#666666" points="494,-182.5 383,-182.5 383,-152.5 494,-152.5 494,-182.5"/>
<text text-anchor="start" x="391" y="-170.5" font-family="Helvetica,sans-Serif" font-size="10.00">SdSpiArduinoDriver</text>
<text text-anchor="middle" x="438.5" y="-159.5" font-family="Helvetica,sans-Serif" font-size="10.00">::receive</text>
</a>
</g>
</g>
<!-- Node3&#45;&gt;Node4 -->
<g id="edge3_Node000003_Node000004" class="edge">
<title>Node3&#45;&gt;Node4</title>
<g id="a_edge3_Node000003_Node000004"><a xlink:title=" ">
<path fill="none" stroke="#63b8ff" d="M291.22,-134.04C315.21,-139.53 345.86,-146.54 372.9,-152.73"/>
<polygon fill="#63b8ff" stroke="#63b8ff" points="372.16,-156.14 382.68,-154.96 373.72,-149.32 372.16,-156.14"/>
</a>
</g>
</g>
<!-- Node6 -->
<g id="Node000006" class="node">
<title>Node6</title>
<g id="a_Node000006"><a xlink:href="../../d8/d7f/classSharedSpiCard.xhtml#ac6acfca5a23337977d2e4436ab8ab39a" target="_top" xlink:title=" ">
<polygon fill="white" stroke="#666666" points="519,-134 358,-134 358,-115 519,-115 519,-134"/>
<text text-anchor="middle" x="438.5" y="-122" font-family="Helvetica,sans-Serif" font-size="10.00">SharedSpiCard::spiDeactivate</text>
</a>
</g>
</g>
<!-- Node5&#45;&gt;Node6 -->
<g id="edge5_Node000005_Node000006" class="edge">
<title>Node5&#45;&gt;Node6</title>
<g id="a_edge5_Node000005_Node000006"><a xlink:title=" ">
<path fill="none" stroke="#63b8ff" d="M297.91,-97.03C322.6,-101.89 352.82,-107.83 378.81,-112.95"/>
<polygon fill="#63b8ff" stroke="#63b8ff" points="378.44,-116.44 388.92,-114.94 379.79,-109.57 378.44,-116.44"/>
</a>
</g>
</g>
<!-- Node8 -->
<g id="Node000008" class="node">
<title>Node8</title>
<g id="a_Node000008"><a xlink:href="../../d8/d7f/classSharedSpiCard.xhtml#ab311b9ad8a250f06afbe091f7abb118b" target="_top" xlink:title=" ">
<polygon fill="white" stroke="#666666" points="504.5,-97 372.5,-97 372.5,-78 504.5,-78 504.5,-97"/>
<text text-anchor="middle" x="438.5" y="-85" font-family="Helvetica,sans-Serif" font-size="10.00">SharedSpiCard::spiSend</text>
</a>
</g>
</g>
<!-- Node5&#45;&gt;Node8 -->
<g id="edge7_Node000005_Node000008" class="edge">
<title>Node5&#45;&gt;Node8</title>
<g id="a_edge7_Node000005_Node000008"><a xlink:title=" ">
<path fill="none" stroke="#63b8ff" d="M313.67,-87.5C329.21,-87.5 345.95,-87.5 361.95,-87.5"/>
<polygon fill="#63b8ff" stroke="#63b8ff" points="362.34,-91 372.34,-87.5 362.34,-84 362.34,-91"/>
</a>
</g>
</g>
<!-- Node10 -->
<g id="Node000010" class="node">
<title>Node10</title>
<g id="a_Node000010"><a xlink:href="../../d8/d7f/classSharedSpiCard.xhtml#ad06a3278372300987b97876cf598c114" target="_top" xlink:title=" ">
<polygon fill="white" stroke="#666666" points="514,-57 363,-57 363,-38 514,-38 514,-57"/>
<text text-anchor="middle" x="438.5" y="-45" font-family="Helvetica,sans-Serif" font-size="10.00">SharedSpiCard::spiUnselect</text>
</a>
</g>
</g>
<!-- Node5&#45;&gt;Node10 -->
<g id="edge9_Node000005_Node000010" class="edge">
<title>Node5&#45;&gt;Node10</title>
<g id="a_edge9_Node000005_Node000010"><a xlink:title=" ">
<path fill="none" stroke="#63b8ff" d="M294.53,-77.92C321.04,-72.28 354.76,-65.1 382.79,-59.14"/>
<polygon fill="#63b8ff" stroke="#63b8ff" points="383.78,-62.51 392.84,-57 382.33,-55.66 383.78,-62.51"/>
</a>
</g>
</g>
<!-- Node7 -->
<g id="Node000007" class="node">
<title>Node7</title>
<g id="a_Node000007"><a xlink:href="../../d0/d25/classSdSpiArduinoDriver.xhtml#ae88a255f533e3acb41d1221025a69b55" target="_top" xlink:title=" ">
<polygon fill="white" stroke="#666666" points="666,-152.5 555,-152.5 555,-122.5 666,-122.5 666,-152.5"/>
<text text-anchor="start" x="563" y="-140.5" font-family="Helvetica,sans-Serif" font-size="10.00">SdSpiArduinoDriver</text>
<text text-anchor="middle" x="610.5" y="-129.5" font-family="Helvetica,sans-Serif" font-size="10.00">::deactivate</text>
</a>
</g>
</g>
<!-- Node6&#45;&gt;Node7 -->
<g id="edge6_Node000006_Node000007" class="edge">
<title>Node6&#45;&gt;Node7</title>
<g id="a_edge6_Node000006_Node000007"><a xlink:title=" ">
<path fill="none" stroke="#63b8ff" d="M519.02,-130.58C527.63,-131.24 536.3,-131.9 544.7,-132.54"/>
<polygon fill="#63b8ff" stroke="#63b8ff" points="544.54,-136.04 554.78,-133.32 545.07,-129.06 544.54,-136.04"/>
</a>
</g>
</g>
<!-- Node9 -->
<g id="Node000009" class="node">
<title>Node9</title>
<g id="a_Node000009"><a xlink:href="../../d0/d25/classSdSpiArduinoDriver.xhtml#a3c4842e47f98fe5d3799cd6028778ab5" target="_top" xlink:title=" ">
<polygon fill="white" stroke="#666666" points="666,-104.5 555,-104.5 555,-74.5 666,-74.5 666,-104.5"/>
<text text-anchor="start" x="563" y="-92.5" font-family="Helvetica,sans-Serif" font-size="10.00">SdSpiArduinoDriver</text>
<text text-anchor="middle" x="610.5" y="-81.5" font-family="Helvetica,sans-Serif" font-size="10.00">::send</text>
</a>
</g>
</g>
<!-- Node8&#45;&gt;Node9 -->
<g id="edge8_Node000008_Node000009" class="edge">
<title>Node8&#45;&gt;Node9</title>
<g id="a_edge8_Node000008_Node000009"><a xlink:title=" ">
<path fill="none" stroke="#63b8ff" d="M504.74,-88.27C517.82,-88.42 531.56,-88.58 544.62,-88.74"/>
<polygon fill="#63b8ff" stroke="#63b8ff" points="544.89,-92.24 554.93,-88.86 544.97,-85.24 544.89,-92.24"/>
</a>
</g>
</g>
<!-- Node11 -->
<g id="Node000011" class="node">
<title>Node11</title>
<g id="a_Node000011"><a xlink:href="../../d2/df0/SdSpiChipSelect_8cpp.xhtml#ac469bbe2d31ffde9b00ffc68258d7428" target="_top" xlink:title=" ">
<polygon fill="white" stroke="#666666" points="643.5,-56 577.5,-56 577.5,-37 643.5,-37 643.5,-56"/>
<text text-anchor="middle" x="610.5" y="-44" font-family="Helvetica,sans-Serif" font-size="10.00">sdCsWrite</text>
</a>
</g>
</g>
<!-- Node10&#45;&gt;Node11 -->
<g id="edge10_Node000010_Node000011" class="edge">
<title>Node10&#45;&gt;Node11</title>
<g id="a_edge10_Node000010_Node000011"><a xlink:title=" ">
<path fill="none" stroke="#63b8ff" d="M514.06,-47.06C532.21,-46.95 551.01,-46.84 567.07,-46.75"/>
<polygon fill="#63b8ff" stroke="#63b8ff" points="567.21,-50.25 577.19,-46.69 567.17,-43.25 567.21,-50.25"/>
</a>
</g>
</g>
<!-- Node12 -->
<g id="Node000012" class="node">
<title>Node12</title>
<g id="a_Node000012"><a xlink:href="../../d5/d45/wiring__digital_8c.xhtml#a73b9b61feeaf7d790d107f2954a7fd93" target="_top" xlink:title=" ">
<polygon fill="white" stroke="#666666" points="776,-56 702,-56 702,-37 776,-37 776,-56"/>
<text text-anchor="middle" x="739" y="-44" font-family="Helvetica,sans-Serif" font-size="10.00">digitalWrite</text>
</a>
</g>
</g>
<!-- Node11&#45;&gt;Node12 -->
<g id="edge11_Node000011_Node000012" class="edge">
<title>Node11&#45;&gt;Node12</title>
<g id="a_edge11_Node000011_Node000012"><a xlink:title=" ">
<path fill="none" stroke="#63b8ff" d="M643.75,-46.5C658.28,-46.5 675.71,-46.5 691.61,-46.5"/>
<polygon fill="#63b8ff" stroke="#63b8ff" points="691.79,-50 701.79,-46.5 691.79,-43 691.79,-50"/>
</a>
</g>
</g>
<!-- Node13 -->
<g id="Node000013" class="node">
<title>Node13</title>
<g id="a_Node000013"><a xlink:href="../../d5/d45/wiring__digital_8c.xhtml#ae3d0bcbe4eb927ca8f5d5c21b7e4f224" target="_top" xlink:title=" ">
<polygon fill="white" stroke="#666666" points="887,-56 812,-56 812,-37 887,-37 887,-56"/>
<text text-anchor="middle" x="849.5" y="-44" font-family="Helvetica,sans-Serif" font-size="10.00">turnOffPWM</text>
</a>
</g>
</g>
<!-- Node12&#45;&gt;Node13 -->
<g id="edge12_Node000012_Node000013" class="edge">
<title>Node12&#45;&gt;Node13</title>
<g id="a_edge12_Node000012_Node000013"><a xlink:title=" ">
<path fill="none" stroke="#63b8ff" d="M776.13,-46.5C784.28,-46.5 793.05,-46.5 801.57,-46.5"/>
<polygon fill="#63b8ff" stroke="#63b8ff" points="801.79,-50 811.79,-46.5 801.79,-43 801.79,-50"/>
</a>
</g>
</g>
<!-- Node15 -->
<g id="Node000015" class="node">
<title>Node15</title>
<g id="a_Node000015"><a xlink:href="../../db/df4/classTimeout.xhtml#a9a72ea0591f11452fb15bfaa1ae5108a" target="_top" xlink:title=" ">
<polygon fill="white" stroke="#666666" points="489.5,-20 387.5,-20 387.5,-1 489.5,-1 489.5,-20"/>
<text text-anchor="middle" x="438.5" y="-8" font-family="Helvetica,sans-Serif" font-size="10.00">Timeout::millis16</text>
</a>
</g>
</g>
<!-- Node14&#45;&gt;Node15 -->
<g id="edge14_Node000014_Node000015" class="edge">
<title>Node14&#45;&gt;Node15</title>
<g id="a_edge14_Node000014_Node000015"><a xlink:title=" ">
<path fill="none" stroke="#63b8ff" d="M303.12,-26.23C326.29,-23.51 353.51,-20.33 377.36,-17.54"/>
<polygon fill="#63b8ff" stroke="#63b8ff" points="377.83,-21.01 387.36,-16.37 377.02,-14.05 377.83,-21.01"/>
</a>
</g>
</g>
<!-- Node16 -->
<g id="Node000016" class="node">
<title>Node16</title>
<g id="a_Node000016"><a xlink:href="../../d5/df3/wiring_8c.xhtml#a6ff7f2532a22366f0013bc41397129fd" target="_top" xlink:title=" ">
<polygon fill="white" stroke="#666666" points="632.5,-19 588.5,-19 588.5,0 632.5,0 632.5,-19"/>
<text text-anchor="middle" x="610.5" y="-7" font-family="Helvetica,sans-Serif" font-size="10.00">millis</text>
</a>
</g>
</g>
<!-- Node15&#45;&gt;Node16 -->
<g id="edge15_Node000015_Node000016" class="edge">
<title>Node15&#45;&gt;Node16</title>
<g id="a_edge15_Node000015_Node000016"><a xlink:title=" ">
<path fill="none" stroke="#63b8ff" d="M489.59,-10.21C518.25,-10.04 553.33,-9.83 578.12,-9.68"/>
<polygon fill="#63b8ff" stroke="#63b8ff" points="578.42,-13.18 588.4,-9.62 578.38,-6.18 578.42,-13.18"/>
</a>
</g>
</g>
</g>
</svg>
