<?xml version="1.0" encoding="UTF-8" standalone="no"?>
<!DOCTYPE svg PUBLIC "-//W3C//DTD SVG 1.1//EN"
 "http://www.w3.org/Graphics/SVG/1.1/DTD/svg11.dtd">
<!-- Generated by graphviz version 2.43.0 (0)
 -->
<!-- Title: csd_t::eraseSingleBlock Pages: 1 -->
<svg width="327pt" height="76pt"
 viewBox="0.00 0.00 327.00 75.50" xmlns="http://www.w3.org/2000/svg" xmlns:xlink="http://www.w3.org/1999/xlink">
<g id="graph0" class="graph" transform="scale(1 1) rotate(0) translate(4 71.5)">
<title>csd_t::eraseSingleBlock</title>
<!-- Node1 -->
<g id="Node000001" class="node">
<title>Node1</title>
<g id="a_Node000001"><a xlink:title=" ">
<polygon fill="#999999" stroke="#666666" points="319,-45.5 187,-45.5 187,-26.5 319,-26.5 319,-45.5"/>
<text text-anchor="middle" x="253" y="-33.5" font-family="Helvetica,sans-Serif" font-size="10.00">csd_t::eraseSingleBlock</text>
</a>
</g>
</g>
<!-- Node2 -->
<g id="Node000002" class="node">
<title>Node2</title>
<g id="a_Node000002"><a xlink:href="../../d8/d7f/classSharedSpiCard_a47ecb042de6b3136bd47820864e3c127.xhtml#a47ecb042de6b3136bd47820864e3c127" target="_top" xlink:title=" ">
<polygon fill="white" stroke="#666666" points="136,-67.5 15,-67.5 15,-48.5 136,-48.5 136,-67.5"/>
<text text-anchor="middle" x="75.5" y="-55.5" font-family="Helvetica,sans-Serif" font-size="10.00">SharedSpiCard::erase</text>
</a>
</g>
</g>
<!-- Node1&#45;&gt;Node2 -->
<g id="edge1_Node000001_Node000002" class="edge">
<title>Node1&#45;&gt;Node2</title>
<g id="a_edge1_Node000001_Node000002"><a xlink:title=" ">
<path fill="none" stroke="#63b8ff" d="M176.43,-45.47C162.95,-47.16 149.07,-48.9 136.11,-50.53"/>
<polygon fill="#63b8ff" stroke="#63b8ff" points="177.16,-48.91 186.65,-44.19 176.29,-41.96 177.16,-48.91"/>
</a>
</g>
</g>
<!-- Node3 -->
<g id="Node000003" class="node">
<title>Node3</title>
<g id="a_Node000003"><a xlink:href="../../d8/d7f/classSharedSpiCard_a42f70c0bffce374e014a42efda0bce4e.xhtml#a42f70c0bffce374e014a42efda0bce4e" target="_top" xlink:title=" ">
<polygon fill="white" stroke="#666666" points="151,-30 0,-30 0,0 151,0 151,-30"/>
<text text-anchor="start" x="8" y="-18" font-family="Helvetica,sans-Serif" font-size="10.00">SharedSpiCard::eraseSingle</text>
<text text-anchor="middle" x="75.5" y="-7" font-family="Helvetica,sans-Serif" font-size="10.00">SectorEnable</text>
</a>
</g>
</g>
<!-- Node1&#45;&gt;Node3 -->
<g id="edge2_Node000001_Node000003" class="edge">
<title>Node1&#45;&gt;Node3</title>
<g id="a_edge2_Node000001_Node000003"><a xlink:title=" ">
<path fill="none" stroke="#63b8ff" d="M176.47,-26.96C168.05,-25.95 159.48,-24.93 151.07,-23.92"/>
<polygon fill="#63b8ff" stroke="#63b8ff" points="176.31,-30.47 186.65,-28.18 177.14,-23.52 176.31,-30.47"/>
</a>
</g>
</g>
</g>
</svg>
