<?xml version="1.0" encoding="UTF-8" standalone="no"?>
<!DOCTYPE svg PUBLIC "-//W3C//DTD SVG 1.1//EN"
 "http://www.w3.org/Graphics/SVG/1.1/DTD/svg11.dtd">
<!-- Generated by graphviz version 2.43.0 (0)
 -->
<!-- Title: /mnt/d/Cours/10. CESI A2/Blocs/01 &#45; Systeme embarque/Livrables/Station_Meteo_Groupe_1 &#45; Copy/libs/SdFat/src/common/FsCache.h Pages: 1 -->
<svg width="822pt" height="621pt"
 viewBox="0.00 0.00 821.50 621.00" xmlns="http://www.w3.org/2000/svg" xmlns:xlink="http://www.w3.org/1999/xlink">
<g id="graph0" class="graph" transform="scale(1 1) rotate(0) translate(4 617)">
<title>/mnt/d/Cours/10. CESI A2/Blocs/01 &#45; Systeme embarque/Livrables/Station_Meteo_Groupe_1 &#45; Copy/libs/SdFat/src/common/FsCache.h</title>
<!-- Node1 -->
<g id="Node000001" class="node">
<title>Node1</title>
<g id="a_Node000001"><a xlink:title="Common cache code for exFAT and FAT.">
<polygon fill="#999999" stroke="#666666" points="543,-613 381,-613 381,-550 543,-550 543,-613"/>
<text text-anchor="start" x="389" y="-601" font-family="Helvetica,sans-Serif" font-size="10.00">/mnt/d/Cours/10. CESI</text>
<text text-anchor="start" x="389" y="-590" font-family="Helvetica,sans-Serif" font-size="10.00"> A2/Blocs/01 &#45; Systeme</text>
<text text-anchor="start" x="389" y="-579" font-family="Helvetica,sans-Serif" font-size="10.00"> embarque/Livrables/Station</text>
<text text-anchor="start" x="389" y="-568" font-family="Helvetica,sans-Serif" font-size="10.00">_Meteo_Groupe_1 &#45; Copy/libs</text>
<text text-anchor="middle" x="462" y="-557" font-family="Helvetica,sans-Serif" font-size="10.00">/SdFat/src/common/FsCache.h</text>
</a>
</g>
</g>
<!-- Node2 -->
<g id="Node000002" class="node">
<title>Node2</title>
<g id="a_Node000002"><a xlink:href="../../d8/d4c/FsBlockDevice_8h.xhtml" target="_top" xlink:title=" ">
<polygon fill="white" stroke="#666666" points="473,-514 375,-514 375,-495 473,-495 473,-514"/>
<text text-anchor="middle" x="424" y="-502" font-family="Helvetica,sans-Serif" font-size="10.00">FsBlockDevice.h</text>
</a>
</g>
</g>
<!-- Node1&#45;&gt;Node2 -->
<g id="edge1_Node000001_Node000002" class="edge">
<title>Node1&#45;&gt;Node2</title>
<g id="a_edge1_Node000001_Node000002"><a xlink:title=" ">
<path fill="none" stroke="#63b8ff" d="M446.54,-549.99C441.92,-540.87 437.01,-531.17 432.95,-523.17"/>
<polygon fill="#63b8ff" stroke="#63b8ff" points="436,-521.44 428.36,-514.1 429.76,-524.61 436,-521.44"/>
</a>
</g>
</g>
<!-- Node7 -->
<g id="Node000007" class="node">
<title>Node7</title>
<g id="a_Node000007"><a xlink:href="../../d0/d1b/SysCall_8h.xhtml" target="_top" xlink:title="SysCall class.">
<polygon fill="white" stroke="#666666" points="550,-239 434,-239 434,-220 550,-220 550,-239"/>
<text text-anchor="middle" x="492" y="-227" font-family="Helvetica,sans-Serif" font-size="10.00">../common/SysCall.h</text>
</a>
</g>
</g>
<!-- Node1&#45;&gt;Node7 -->
<g id="edge37_Node000001_Node000007" class="edge">
<title>Node1&#45;&gt;Node7</title>
<g id="a_edge37_Node000001_Node000007"><a xlink:title=" ">
<path fill="none" stroke="#63b8ff" d="M543.02,-553.07C586.8,-532.57 632,-499.54 632,-450.5 632,-450.5 632,-450.5 632,-338.5 632,-287.63 573.34,-257.36 531.96,-242.34"/>
<polygon fill="#63b8ff" stroke="#63b8ff" points="532.97,-238.99 522.38,-239.02 530.68,-245.6 532.97,-238.99"/>
</a>
</g>
</g>
<!-- Node3 -->
<g id="Node000003" class="node">
<title>Node3</title>
<g id="a_Node000003"><a xlink:href="../../d5/d77/SdCard_8h.xhtml" target="_top" xlink:title="Top level include for SPI and SDIO cards.">
<polygon fill="white" stroke="#666666" points="341,-459 243,-459 243,-440 341,-440 341,-459"/>
<text text-anchor="middle" x="292" y="-447" font-family="Helvetica,sans-Serif" font-size="10.00">SdCard/SdCard.h</text>
</a>
</g>
</g>
<!-- Node2&#45;&gt;Node3 -->
<g id="edge2_Node000002_Node000003" class="edge">
<title>Node2&#45;&gt;Node3</title>
<g id="a_edge2_Node000002_Node000003"><a xlink:title=" ">
<path fill="none" stroke="#63b8ff" d="M402.79,-494.98C381.27,-486.34 347.72,-472.87 323.17,-463.02"/>
<polygon fill="#63b8ff" stroke="#63b8ff" points="324.18,-459.65 313.59,-459.17 321.57,-466.14 324.18,-459.65"/>
</a>
</g>
</g>
<!-- Node4 -->
<g id="Node000004" class="node">
<title>Node4</title>
<g id="a_Node000004"><a xlink:href="../../d5/dc1/SdSpiCard_8h.xhtml" target="_top" xlink:title="Classes for SPI access to SD/SDHC cards.">
<polygon fill="white" stroke="#666666" points="329.5,-404 254.5,-404 254.5,-385 329.5,-385 329.5,-404"/>
<text text-anchor="middle" x="292" y="-392" font-family="Helvetica,sans-Serif" font-size="10.00">SdSpiCard.h</text>
</a>
</g>
</g>
<!-- Node3&#45;&gt;Node4 -->
<g id="edge3_Node000003_Node000004" class="edge">
<title>Node3&#45;&gt;Node4</title>
<g id="a_edge3_Node000003_Node000004"><a xlink:title=" ">
<path fill="none" stroke="#63b8ff" d="M292,-439.75C292,-432.8 292,-422.85 292,-414.13"/>
<polygon fill="#63b8ff" stroke="#63b8ff" points="295.5,-414.09 292,-404.09 288.5,-414.09 295.5,-414.09"/>
</a>
</g>
</g>
<!-- Node26 -->
<g id="Node000026" class="node">
<title>Node26</title>
<g id="a_Node000026"><a xlink:href="../../d9/d0a/SdioCard_8h.xhtml" target="_top" xlink:title="Classes for SDIO cards.">
<polygon fill="white" stroke="#666666" points="193.5,-404 124.5,-404 124.5,-385 193.5,-385 193.5,-404"/>
<text text-anchor="middle" x="159" y="-392" font-family="Helvetica,sans-Serif" font-size="10.00">SdioCard.h</text>
</a>
</g>
</g>
<!-- Node3&#45;&gt;Node26 -->
<g id="edge34_Node000003_Node000026" class="edge">
<title>Node3&#45;&gt;Node26</title>
<g id="a_edge34_Node000003_Node000026"><a xlink:title=" ">
<path fill="none" stroke="#63b8ff" d="M270.63,-439.98C248.85,-431.3 214.84,-417.75 190.08,-407.88"/>
<polygon fill="#63b8ff" stroke="#63b8ff" points="191.34,-404.62 180.76,-404.17 188.75,-411.12 191.34,-404.62"/>
</a>
</g>
</g>
<!-- Node5 -->
<g id="Node000005" class="node">
<title>Node5</title>
<g id="a_Node000005"><a xlink:title=" ">
<polygon fill="#e0e0e0" stroke="#999999" points="252,-184 196,-184 196,-165 252,-165 252,-184"/>
<text text-anchor="middle" x="224" y="-172" font-family="Helvetica,sans-Serif" font-size="10.00">stddef.h</text>
</a>
</g>
</g>
<!-- Node4&#45;&gt;Node5 -->
<g id="edge4_Node000004_Node000005" class="edge">
<title>Node4&#45;&gt;Node5</title>
<g id="a_edge4_Node000004_Node000005"><a xlink:title=" ">
<path fill="none" stroke="#63b8ff" d="M286.61,-384.82C276.4,-367.98 254.28,-329.41 243,-294 232.08,-259.71 227.25,-217.74 225.26,-194.07"/>
<polygon fill="#63b8ff" stroke="#63b8ff" points="228.74,-193.74 224.49,-184.03 221.76,-194.27 228.74,-193.74"/>
</a>
</g>
</g>
<!-- Node6 -->
<g id="Node000006" class="node">
<title>Node6</title>
<g id="a_Node000006"><a xlink:href="../../df/d48/SdSpiDriver_8h.xhtml" target="_top" xlink:title="SpiDriver classes.">
<polygon fill="white" stroke="#666666" points="522.5,-349 383.5,-349 383.5,-330 522.5,-330 522.5,-349"/>
<text text-anchor="middle" x="453" y="-337" font-family="Helvetica,sans-Serif" font-size="10.00">../SpiDriver/SdSpiDriver.h</text>
</a>
</g>
</g>
<!-- Node4&#45;&gt;Node6 -->
<g id="edge5_Node000004_Node000006" class="edge">
<title>Node4&#45;&gt;Node6</title>
<g id="a_edge5_Node000004_Node000006"><a xlink:title=" ">
<path fill="none" stroke="#63b8ff" d="M317.87,-384.98C344.78,-376.13 387.12,-362.19 417.23,-352.28"/>
<polygon fill="#63b8ff" stroke="#63b8ff" points="418.53,-355.53 426.93,-349.08 416.34,-348.88 418.53,-355.53"/>
</a>
</g>
</g>
<!-- Node4&#45;&gt;Node7 -->
<g id="edge25_Node000004_Node000007" class="edge">
<title>Node4&#45;&gt;Node7</title>
<g id="a_edge25_Node000004_Node000007"><a xlink:title=" ">
<path fill="none" stroke="#63b8ff" d="M329.76,-391.01C389.47,-386.36 502.01,-374.4 532,-349 558,-326.98 567.32,-305.43 552,-275 545.31,-261.71 532.56,-251.39 520.53,-244.05"/>
<polygon fill="#63b8ff" stroke="#63b8ff" points="522.01,-240.87 511.58,-239.02 518.58,-246.97 522.01,-240.87"/>
</a>
</g>
</g>
<!-- Node23 -->
<g id="Node000023" class="node">
<title>Node23</title>
<g id="a_Node000023"><a xlink:href="../../d4/da0/SdCardInfo_8h.xhtml" target="_top" xlink:title="Definitions for SD cards.">
<polygon fill="white" stroke="#666666" points="331.5,-294 252.5,-294 252.5,-275 331.5,-275 331.5,-294"/>
<text text-anchor="middle" x="292" y="-282" font-family="Helvetica,sans-Serif" font-size="10.00">SdCardInfo.h</text>
</a>
</g>
</g>
<!-- Node4&#45;&gt;Node23 -->
<g id="edge26_Node000004_Node000023" class="edge">
<title>Node4&#45;&gt;Node23</title>
<g id="a_edge26_Node000004_Node000023"><a xlink:title=" ">
<path fill="none" stroke="#63b8ff" d="M292,-384.66C292,-367.17 292,-327.8 292,-304.27"/>
<polygon fill="#63b8ff" stroke="#63b8ff" points="295.5,-304.16 292,-294.16 288.5,-304.16 295.5,-304.16"/>
</a>
</g>
</g>
<!-- Node24 -->
<g id="Node000024" class="node">
<title>Node24</title>
<g id="a_Node000024"><a xlink:href="../../dd/d48/SdCardInterface_8h.xhtml" target="_top" xlink:title="Abstract interface for an SD card.">
<polygon fill="white" stroke="#666666" points="211,-349 107,-349 107,-330 211,-330 211,-349"/>
<text text-anchor="middle" x="159" y="-337" font-family="Helvetica,sans-Serif" font-size="10.00">SdCardInterface.h</text>
</a>
</g>
</g>
<!-- Node4&#45;&gt;Node24 -->
<g id="edge29_Node000004_Node000024" class="edge">
<title>Node4&#45;&gt;Node24</title>
<g id="a_edge29_Node000004_Node000024"><a xlink:title=" ">
<path fill="none" stroke="#63b8ff" d="M270.63,-384.98C248.85,-376.3 214.84,-362.75 190.08,-352.88"/>
<polygon fill="#63b8ff" stroke="#63b8ff" points="191.34,-349.62 180.76,-349.17 188.75,-356.12 191.34,-349.62"/>
</a>
</g>
</g>
<!-- Node6&#45;&gt;Node7 -->
<g id="edge6_Node000006_Node000007" class="edge">
<title>Node6&#45;&gt;Node7</title>
<g id="a_edge6_Node000006_Node000007"><a xlink:title=" ">
<path fill="none" stroke="#63b8ff" d="M486.4,-329.98C504.78,-323.4 526.02,-312.24 537,-294 547.5,-276.55 530.04,-257.64 513.9,-245.03"/>
<polygon fill="#63b8ff" stroke="#63b8ff" points="515.87,-242.14 505.73,-239.06 511.74,-247.79 515.87,-242.14"/>
</a>
</g>
</g>
<!-- Node20 -->
<g id="Node000020" class="node">
<title>Node20</title>
<g id="a_Node000020"><a xlink:title=" ">
<polygon fill="#e0e0e0" stroke="#999999" points="527.5,-294 486.5,-294 486.5,-275 527.5,-275 527.5,-294"/>
<text text-anchor="middle" x="507" y="-282" font-family="Helvetica,sans-Serif" font-size="10.00">SPI.h</text>
</a>
</g>
</g>
<!-- Node6&#45;&gt;Node20 -->
<g id="edge22_Node000006_Node000020" class="edge">
<title>Node6&#45;&gt;Node20</title>
<g id="a_edge22_Node000006_Node000020"><a xlink:title=" ">
<path fill="none" stroke="#63b8ff" d="M461.92,-329.75C469.78,-322.03 481.43,-310.6 490.92,-301.28"/>
<polygon fill="#63b8ff" stroke="#63b8ff" points="493.56,-303.59 498.25,-294.09 488.66,-298.6 493.56,-303.59"/>
</a>
</g>
</g>
<!-- Node21 -->
<g id="Node000021" class="node">
<title>Node21</title>
<g id="a_Node000021"><a xlink:href="../../da/de9/SdSpiArduinoDriver_8h.xhtml" target="_top" xlink:title="SpiDriver classes for Arduino compatible systems.">
<polygon fill="white" stroke="#666666" points="468.5,-294 349.5,-294 349.5,-275 468.5,-275 468.5,-294"/>
<text text-anchor="middle" x="409" y="-282" font-family="Helvetica,sans-Serif" font-size="10.00">SdSpiArduinoDriver.h</text>
</a>
</g>
</g>
<!-- Node6&#45;&gt;Node21 -->
<g id="edge23_Node000006_Node000021" class="edge">
<title>Node6&#45;&gt;Node21</title>
<g id="a_edge23_Node000006_Node000021"><a xlink:title=" ">
<path fill="none" stroke="#63b8ff" d="M445.73,-329.75C439.46,-322.18 430.21,-311.05 422.57,-301.84"/>
<polygon fill="#63b8ff" stroke="#63b8ff" points="425.21,-299.55 416.13,-294.09 419.83,-304.02 425.21,-299.55"/>
</a>
</g>
</g>
<!-- Node7&#45;&gt;Node5 -->
<g id="edge7_Node000007_Node000005" class="edge">
<title>Node7&#45;&gt;Node5</title>
<g id="a_edge7_Node000007_Node000005"><a xlink:title=" ">
<path fill="none" stroke="#63b8ff" d="M448.94,-219.98C397.28,-209.77 311.47,-192.8 262.11,-183.04"/>
<polygon fill="#63b8ff" stroke="#63b8ff" points="262.64,-179.57 252.15,-181.07 261.29,-186.44 262.64,-179.57"/>
</a>
</g>
</g>
<!-- Node8 -->
<g id="Node000008" class="node">
<title>Node8</title>
<g id="a_Node000008"><a xlink:title=" ">
<polygon fill="#e0e0e0" stroke="#999999" points="359.5,-129 306.5,-129 306.5,-110 359.5,-110 359.5,-129"/>
<text text-anchor="middle" x="333" y="-117" font-family="Helvetica,sans-Serif" font-size="10.00">stdint.h</text>
</a>
</g>
</g>
<!-- Node7&#45;&gt;Node8 -->
<g id="edge8_Node000007_Node000008" class="edge">
<title>Node7&#45;&gt;Node8</title>
<g id="a_edge8_Node000007_Node000008"><a xlink:title=" ">
<path fill="none" stroke="#63b8ff" d="M466.44,-219.95C445.8,-212.35 416.57,-199.98 394,-184 375.19,-170.69 357.39,-151.04 345.92,-137.13"/>
<polygon fill="#63b8ff" stroke="#63b8ff" points="348.64,-134.93 339.65,-129.32 343.18,-139.31 348.64,-134.93"/>
</a>
</g>
</g>
<!-- Node9 -->
<g id="Node000009" class="node">
<title>Node9</title>
<g id="a_Node000009"><a xlink:href="../../d4/d1f/SdFatConfig_8h.xhtml" target="_top" xlink:title="configuration definitions">
<polygon fill="white" stroke="#666666" points="495,-184 403,-184 403,-165 495,-165 495,-184"/>
<text text-anchor="middle" x="449" y="-172" font-family="Helvetica,sans-Serif" font-size="10.00">../SdFatConfig.h</text>
</a>
</g>
</g>
<!-- Node7&#45;&gt;Node9 -->
<g id="edge9_Node000007_Node000009" class="edge">
<title>Node7&#45;&gt;Node9</title>
<g id="a_edge9_Node000007_Node000009"><a xlink:title=" ">
<path fill="none" stroke="#63b8ff" d="M484.9,-219.75C478.83,-212.26 469.91,-201.28 462.49,-192.13"/>
<polygon fill="#63b8ff" stroke="#63b8ff" points="464.99,-189.65 455.97,-184.09 459.55,-194.06 464.99,-189.65"/>
</a>
</g>
</g>
<!-- Node9&#45;&gt;Node8 -->
<g id="edge10_Node000009_Node000008" class="edge">
<title>Node9&#45;&gt;Node8</title>
<g id="a_edge10_Node000009_Node000008"><a xlink:title=" ">
<path fill="none" stroke="#63b8ff" d="M430.36,-164.98C411.7,-156.46 382.75,-143.23 361.26,-133.41"/>
<polygon fill="#63b8ff" stroke="#63b8ff" points="362.53,-130.14 351.98,-129.17 359.62,-136.51 362.53,-130.14"/>
</a>
</g>
</g>
<!-- Node10 -->
<g id="Node000010" class="node">
<title>Node10</title>
<g id="a_Node000010"><a xlink:href="../../de/df0/Arduino_8h.xhtml" target="_top" xlink:title=" ">
<polygon fill="white" stroke="#666666" points="480.5,-129 417.5,-129 417.5,-110 480.5,-110 480.5,-129"/>
<text text-anchor="middle" x="449" y="-117" font-family="Helvetica,sans-Serif" font-size="10.00">Arduino.h</text>
</a>
</g>
</g>
<!-- Node9&#45;&gt;Node10 -->
<g id="edge11_Node000009_Node000010" class="edge">
<title>Node9&#45;&gt;Node10</title>
<g id="a_edge11_Node000009_Node000010"><a xlink:title=" ">
<path fill="none" stroke="#63b8ff" d="M449,-164.75C449,-157.8 449,-147.85 449,-139.13"/>
<polygon fill="#63b8ff" stroke="#63b8ff" points="452.5,-139.09 449,-129.09 445.5,-139.09 452.5,-139.09"/>
</a>
</g>
</g>
<!-- Node11 -->
<g id="Node000011" class="node">
<title>Node11</title>
<g id="a_Node000011"><a xlink:title=" ">
<polygon fill="#e0e0e0" stroke="#999999" points="199.5,-74 146.5,-74 146.5,-55 199.5,-55 199.5,-74"/>
<text text-anchor="middle" x="173" y="-62" font-family="Helvetica,sans-Serif" font-size="10.00">stdlib.h</text>
</a>
</g>
</g>
<!-- Node10&#45;&gt;Node11 -->
<g id="edge12_Node000010_Node000011" class="edge">
<title>Node10&#45;&gt;Node11</title>
<g id="a_edge12_Node000010_Node000011"><a xlink:title=" ">
<path fill="none" stroke="#63b8ff" d="M417.45,-113.15C373.28,-105.56 290.25,-90.88 209.53,-74.02"/>
<polygon fill="#63b8ff" stroke="#63b8ff" points="210.21,-70.59 199.7,-71.96 208.77,-77.44 210.21,-70.59"/>
</a>
</g>
</g>
<!-- Node12 -->
<g id="Node000012" class="node">
<title>Node12</title>
<g id="a_Node000012"><a xlink:title=" ">
<polygon fill="#e0e0e0" stroke="#999999" points="280,-74 218,-74 218,-55 280,-55 280,-74"/>
<text text-anchor="middle" x="249" y="-62" font-family="Helvetica,sans-Serif" font-size="10.00">stdbool.h</text>
</a>
</g>
</g>
<!-- Node10&#45;&gt;Node12 -->
<g id="edge13_Node000010_Node000012" class="edge">
<title>Node10&#45;&gt;Node12</title>
<g id="a_edge13_Node000010_Node000012"><a xlink:title=" ">
<path fill="none" stroke="#63b8ff" d="M417.31,-110.1C382.98,-101 328.07,-86.45 290.36,-76.46"/>
<polygon fill="#63b8ff" stroke="#63b8ff" points="290.78,-72.95 280.21,-73.77 288.98,-79.72 290.78,-72.95"/>
</a>
</g>
</g>
<!-- Node13 -->
<g id="Node000013" class="node">
<title>Node13</title>
<g id="a_Node000013"><a xlink:title=" ">
<polygon fill="#e0e0e0" stroke="#999999" points="351.5,-74 298.5,-74 298.5,-55 351.5,-55 351.5,-74"/>
<text text-anchor="middle" x="325" y="-62" font-family="Helvetica,sans-Serif" font-size="10.00">string.h</text>
</a>
</g>
</g>
<!-- Node10&#45;&gt;Node13 -->
<g id="edge14_Node000010_Node000013" class="edge">
<title>Node10&#45;&gt;Node13</title>
<g id="a_edge14_Node000010_Node000013"><a xlink:title=" ">
<path fill="none" stroke="#63b8ff" d="M429.08,-109.98C408.95,-101.38 377.62,-87.99 354.59,-78.15"/>
<polygon fill="#63b8ff" stroke="#63b8ff" points="355.86,-74.88 345.29,-74.17 353.1,-81.32 355.86,-74.88"/>
</a>
</g>
</g>
<!-- Node14 -->
<g id="Node000014" class="node">
<title>Node14</title>
<g id="a_Node000014"><a xlink:title=" ">
<polygon fill="#e0e0e0" stroke="#999999" points="420.5,-74 369.5,-74 369.5,-55 420.5,-55 420.5,-74"/>
<text text-anchor="middle" x="395" y="-62" font-family="Helvetica,sans-Serif" font-size="10.00">math.h</text>
</a>
</g>
</g>
<!-- Node10&#45;&gt;Node14 -->
<g id="edge15_Node000010_Node000014" class="edge">
<title>Node10&#45;&gt;Node14</title>
<g id="a_edge15_Node000010_Node000014"><a xlink:title=" ">
<path fill="none" stroke="#63b8ff" d="M440.08,-109.75C432.22,-102.03 420.57,-90.6 411.08,-81.28"/>
<polygon fill="#63b8ff" stroke="#63b8ff" points="413.34,-78.6 403.75,-74.09 408.44,-83.59 413.34,-78.6"/>
</a>
</g>
</g>
<!-- Node15 -->
<g id="Node000015" class="node">
<title>Node15</title>
<g id="a_Node000015"><a xlink:title=" ">
<polygon fill="#e0e0e0" stroke="#999999" points="532.5,-19 437.5,-19 437.5,0 532.5,0 532.5,-19"/>
<text text-anchor="middle" x="485" y="-7" font-family="Helvetica,sans-Serif" font-size="10.00">avr/pgmspace.h</text>
</a>
</g>
</g>
<!-- Node10&#45;&gt;Node15 -->
<g id="edge16_Node000010_Node000015" class="edge">
<title>Node10&#45;&gt;Node15</title>
<g id="a_edge16_Node000010_Node000015"><a xlink:title=" ">
<path fill="none" stroke="#63b8ff" d="M451.38,-109.81C454.8,-97.52 461.4,-74.39 468,-55 470.96,-46.29 474.56,-36.75 477.68,-28.74"/>
<polygon fill="#63b8ff" stroke="#63b8ff" points="480.99,-29.88 481.42,-19.29 474.48,-27.31 480.99,-29.88"/>
</a>
</g>
</g>
<!-- Node16 -->
<g id="Node000016" class="node">
<title>Node16</title>
<g id="a_Node000016"><a xlink:title=" ">
<polygon fill="#e0e0e0" stroke="#999999" points="635.5,-74 582.5,-74 582.5,-55 635.5,-55 635.5,-74"/>
<text text-anchor="middle" x="609" y="-62" font-family="Helvetica,sans-Serif" font-size="10.00">avr/io.h</text>
</a>
</g>
</g>
<!-- Node10&#45;&gt;Node16 -->
<g id="edge17_Node000010_Node000016" class="edge">
<title>Node10&#45;&gt;Node16</title>
<g id="a_edge17_Node000010_Node000016"><a xlink:title=" ">
<path fill="none" stroke="#63b8ff" d="M474.71,-109.98C501.45,-101.13 543.53,-87.19 573.45,-77.28"/>
<polygon fill="#63b8ff" stroke="#63b8ff" points="574.7,-80.55 583.09,-74.08 572.5,-73.9 574.7,-80.55"/>
</a>
</g>
</g>
<!-- Node17 -->
<g id="Node000017" class="node">
<title>Node17</title>
<g id="a_Node000017"><a xlink:title=" ">
<polygon fill="#e0e0e0" stroke="#999999" points="740,-74 654,-74 654,-55 740,-55 740,-74"/>
<text text-anchor="middle" x="697" y="-62" font-family="Helvetica,sans-Serif" font-size="10.00">avr/interrupt.h</text>
</a>
</g>
</g>
<!-- Node10&#45;&gt;Node17 -->
<g id="edge18_Node000010_Node000017" class="edge">
<title>Node10&#45;&gt;Node17</title>
<g id="a_edge18_Node000010_Node000017"><a xlink:title=" ">
<path fill="none" stroke="#63b8ff" d="M480.66,-111.73C522.69,-102.75 597.36,-86.8 647.03,-76.18"/>
<polygon fill="#63b8ff" stroke="#63b8ff" points="647.87,-79.58 656.92,-74.07 646.41,-72.73 647.87,-79.58"/>
</a>
</g>
</g>
<!-- Node18 -->
<g id="Node000018" class="node">
<title>Node18</title>
<g id="a_Node000018"><a xlink:href="../../d8/da4/binary_8h.xhtml" target="_top" xlink:title=" ">
<polygon fill="white" stroke="#666666" points="813.5,-74 758.5,-74 758.5,-55 813.5,-55 813.5,-74"/>
<text text-anchor="middle" x="786" y="-62" font-family="Helvetica,sans-Serif" font-size="10.00">binary.h</text>
</a>
</g>
</g>
<!-- Node10&#45;&gt;Node18 -->
<g id="edge19_Node000010_Node000018" class="edge">
<title>Node10&#45;&gt;Node18</title>
<g id="a_edge19_Node000010_Node000018"><a xlink:title=" ">
<path fill="none" stroke="#63b8ff" d="M480.67,-114.63C533.82,-107.97 644.53,-93.31 748.16,-74.02"/>
<polygon fill="#63b8ff" stroke="#63b8ff" points="748.99,-77.43 758.17,-72.14 747.69,-70.55 748.99,-77.43"/>
</a>
</g>
</g>
<!-- Node19 -->
<g id="Node000019" class="node">
<title>Node19</title>
<g id="a_Node000019"><a xlink:href="../../d1/dce/pins__arduino_8h.xhtml" target="_top" xlink:title=" ">
<polygon fill="white" stroke="#666666" points="565,-74 477,-74 477,-55 565,-55 565,-74"/>
<text text-anchor="middle" x="521" y="-62" font-family="Helvetica,sans-Serif" font-size="10.00">pins_arduino.h</text>
</a>
</g>
</g>
<!-- Node10&#45;&gt;Node19 -->
<g id="edge20_Node000010_Node000019" class="edge">
<title>Node10&#45;&gt;Node19</title>
<g id="a_edge20_Node000010_Node000019"><a xlink:title=" ">
<path fill="none" stroke="#63b8ff" d="M460.57,-109.98C471.42,-102 487.88,-89.88 500.88,-80.31"/>
<polygon fill="#63b8ff" stroke="#63b8ff" points="503.24,-82.92 509.22,-74.17 499.09,-77.28 503.24,-82.92"/>
</a>
</g>
</g>
<!-- Node19&#45;&gt;Node15 -->
<g id="edge21_Node000019_Node000015" class="edge">
<title>Node19&#45;&gt;Node15</title>
<g id="a_edge21_Node000019_Node000015"><a xlink:title=" ">
<path fill="none" stroke="#63b8ff" d="M515.06,-54.75C510.02,-47.34 502.66,-36.5 496.49,-27.41"/>
<polygon fill="#63b8ff" stroke="#63b8ff" points="499.35,-25.39 490.83,-19.09 493.56,-29.33 499.35,-25.39"/>
</a>
</g>
</g>
<!-- Node22 -->
<g id="Node000022" class="node">
<title>Node22</title>
<g id="a_Node000022"><a xlink:href="../../db/d6a/SdSpiLibDriver_8h.xhtml" target="_top" xlink:title="Class using only simple SPI library functions.">
<polygon fill="white" stroke="#666666" points="416,-239 320,-239 320,-220 416,-220 416,-239"/>
<text text-anchor="middle" x="368" y="-227" font-family="Helvetica,sans-Serif" font-size="10.00">SdSpiLibDriver.h</text>
</a>
</g>
</g>
<!-- Node21&#45;&gt;Node22 -->
<g id="edge24_Node000021_Node000022" class="edge">
<title>Node21&#45;&gt;Node22</title>
<g id="a_edge24_Node000021_Node000022"><a xlink:title=" ">
<path fill="none" stroke="#63b8ff" d="M402.23,-274.75C396.44,-267.26 387.94,-256.28 380.86,-247.13"/>
<polygon fill="#63b8ff" stroke="#63b8ff" points="383.53,-244.86 374.64,-239.09 377.99,-249.14 383.53,-244.86"/>
</a>
</g>
</g>
<!-- Node23&#45;&gt;Node7 -->
<g id="edge28_Node000023_Node000007" class="edge">
<title>Node23&#45;&gt;Node7</title>
<g id="a_edge28_Node000023_Node000007"><a xlink:title=" ">
<path fill="none" stroke="#63b8ff" d="M324.13,-274.98C358.15,-265.97 412,-251.7 449.5,-241.76"/>
<polygon fill="#63b8ff" stroke="#63b8ff" points="450.84,-245.03 459.61,-239.08 449.05,-238.26 450.84,-245.03"/>
</a>
</g>
</g>
<!-- Node23&#45;&gt;Node8 -->
<g id="edge27_Node000023_Node000008" class="edge">
<title>Node23&#45;&gt;Node8</title>
<g id="a_edge27_Node000023_Node000008"><a xlink:title=" ">
<path fill="none" stroke="#63b8ff" d="M294.2,-274.74C300.63,-249.2 319.43,-174.43 328.29,-139.23"/>
<polygon fill="#63b8ff" stroke="#63b8ff" points="331.74,-139.86 330.78,-129.31 324.95,-138.15 331.74,-139.86"/>
</a>
</g>
</g>
<!-- Node24&#45;&gt;Node23 -->
<g id="edge33_Node000024_Node000023" class="edge">
<title>Node24&#45;&gt;Node23</title>
<g id="a_edge33_Node000024_Node000023"><a xlink:title=" ">
<path fill="none" stroke="#63b8ff" d="M180.37,-329.98C202.15,-321.3 236.16,-307.75 260.92,-297.88"/>
<polygon fill="#63b8ff" stroke="#63b8ff" points="262.25,-301.12 270.24,-294.17 259.66,-294.62 262.25,-301.12"/>
</a>
</g>
</g>
<!-- Node25 -->
<g id="Node000025" class="node">
<title>Node25</title>
<g id="a_Node000025"><a xlink:href="../../dc/de5/FsBlockDeviceInterface_8h.xhtml" target="_top" xlink:title="FsBlockDeviceInterface include file.">
<polygon fill="white" stroke="#666666" points="196,-239 0,-239 0,-220 196,-220 196,-239"/>
<text text-anchor="middle" x="98" y="-227" font-family="Helvetica,sans-Serif" font-size="10.00">../common/FsBlockDeviceInterface.h</text>
</a>
</g>
</g>
<!-- Node24&#45;&gt;Node25 -->
<g id="edge30_Node000024_Node000025" class="edge">
<title>Node24&#45;&gt;Node25</title>
<g id="a_edge30_Node000024_Node000025"><a xlink:title=" ">
<path fill="none" stroke="#63b8ff" d="M154.01,-329.66C143.95,-311.85 121.08,-271.37 107.89,-248.01"/>
<polygon fill="#63b8ff" stroke="#63b8ff" points="110.86,-246.14 102.89,-239.16 104.76,-249.59 110.86,-246.14"/>
</a>
</g>
</g>
<!-- Node25&#45;&gt;Node5 -->
<g id="edge31_Node000025_Node000005" class="edge">
<title>Node25&#45;&gt;Node5</title>
<g id="a_edge31_Node000025_Node000005"><a xlink:title=" ">
<path fill="none" stroke="#63b8ff" d="M118.24,-219.98C138.7,-211.38 170.53,-197.99 193.93,-188.15"/>
<polygon fill="#63b8ff" stroke="#63b8ff" points="195.53,-191.27 203.39,-184.17 192.81,-184.82 195.53,-191.27"/>
</a>
</g>
</g>
<!-- Node25&#45;&gt;Node8 -->
<g id="edge32_Node000025_Node000008" class="edge">
<title>Node25&#45;&gt;Node8</title>
<g id="a_edge32_Node000025_Node000008"><a xlink:title=" ">
<path fill="none" stroke="#63b8ff" d="M107.73,-219.92C123.4,-206.49 155.67,-180.44 187,-165 222.4,-147.56 266.03,-135.35 296.33,-128.19"/>
<polygon fill="#63b8ff" stroke="#63b8ff" points="297.49,-131.51 306.45,-125.86 295.93,-124.69 297.49,-131.51"/>
</a>
</g>
</g>
<!-- Node26&#45;&gt;Node7 -->
<g id="edge35_Node000026_Node000007" class="edge">
<title>Node26&#45;&gt;Node7</title>
<g id="a_edge35_Node000026_Node000007"><a xlink:title=" ">
<path fill="none" stroke="#63b8ff" d="M139.58,-384.87C116.5,-373.36 82.89,-351.89 98,-330 137.15,-273.28 176.57,-293.36 243,-275 303.19,-258.36 373.34,-246.48 423.82,-239.2"/>
<polygon fill="#63b8ff" stroke="#63b8ff" points="424.55,-242.63 433.96,-237.76 423.57,-235.7 424.55,-242.63"/>
</a>
</g>
</g>
<!-- Node26&#45;&gt;Node24 -->
<g id="edge36_Node000026_Node000024" class="edge">
<title>Node26&#45;&gt;Node24</title>
<g id="a_edge36_Node000026_Node000024"><a xlink:title=" ">
<path fill="none" stroke="#63b8ff" d="M159,-384.75C159,-377.8 159,-367.85 159,-359.13"/>
<polygon fill="#63b8ff" stroke="#63b8ff" points="162.5,-359.09 159,-349.09 155.5,-359.09 162.5,-359.09"/>
</a>
</g>
</g>
</g>
</svg>
