<?xml version="1.0" encoding="UTF-8" standalone="no"?>
<!DOCTYPE svg PUBLIC "-//W3C//DTD SVG 1.1//EN"
 "http://www.w3.org/Graphics/SVG/1.1/DTD/svg11.dtd">
<!-- Generated by graphviz version 2.43.0 (0)
 -->
<!-- Title: fmtUnsigned Pages: 1 -->
<svg width="375pt" height="103pt"
 viewBox="0.00 0.00 375.00 103.00" xmlns="http://www.w3.org/2000/svg" xmlns:xlink="http://www.w3.org/1999/xlink">
<g id="graph0" class="graph" transform="scale(1 1) rotate(0) translate(4 99)">
<title>fmtUnsigned</title>
<!-- Node1 -->
<g id="Node000001" class="node">
<title>Node1</title>
<g id="a_Node000001"><a xlink:title=" ">
<polygon fill="#999999" stroke="#666666" points="367,-57 287,-57 287,-38 367,-38 367,-57"/>
<text text-anchor="middle" x="327" y="-45" font-family="Helvetica,sans-Serif" font-size="10.00">fmtUnsigned</text>
</a>
</g>
</g>
<!-- Node2 -->
<g id="Node000002" class="node">
<title>Node2</title>
<g id="a_Node000002"><a xlink:href="../../d4/d7f/FmtNumber_8cpp.xhtml#a5bfc80e146504b358e2b21e1bdd904c8" target="_top" xlink:title=" ">
<polygon fill="white" stroke="#666666" points="251,-95 184,-95 184,-76 251,-76 251,-95"/>
<text text-anchor="middle" x="217.5" y="-83" font-family="Helvetica,sans-Serif" font-size="10.00">fmtSigned</text>
</a>
</g>
</g>
<!-- Node1&#45;&gt;Node2 -->
<g id="edge1_Node000001_Node000002" class="edge">
<title>Node1&#45;&gt;Node2</title>
<g id="a_edge1_Node000001_Node000002"><a xlink:title=" ">
<path fill="none" stroke="#63b8ff" d="M289.3,-60.47C274.98,-65.53 258.86,-71.23 245.62,-75.91"/>
<polygon fill="#63b8ff" stroke="#63b8ff" points="290.61,-63.72 298.87,-57.09 288.28,-57.12 290.61,-63.72"/>
</a>
</g>
</g>
<!-- Node3 -->
<g id="Node000003" class="node">
<title>Node3</title>
<g id="a_Node000003"><a xlink:href="../../dc/db9/PrintTemplates_8h.xhtml#ad139f8bf9b6ead8bd28abf1dd412a8a4" target="_top" xlink:title=" ">
<polygon fill="white" stroke="#666666" points="148,-76 89,-76 89,-57 148,-57 148,-76"/>
<text text-anchor="middle" x="118.5" y="-64" font-family="Helvetica,sans-Serif" font-size="10.00">vmprintf</text>
</a>
</g>
</g>
<!-- Node1&#45;&gt;Node3 -->
<g id="edge7_Node000001_Node000003" class="edge">
<title>Node1&#45;&gt;Node3</title>
<g id="a_edge7_Node000001_Node000003"><a xlink:title=" ">
<path fill="none" stroke="#63b8ff" d="M276.55,-52.05C236.4,-55.74 181.19,-60.82 148.06,-63.87"/>
<polygon fill="#63b8ff" stroke="#63b8ff" points="277.04,-55.52 286.67,-51.12 276.39,-48.55 277.04,-55.52"/>
</a>
</g>
</g>
<!-- Node6 -->
<g id="Node000006" class="node">
<title>Node6</title>
<g id="a_Node000006"><a xlink:href="../../dc/db9/PrintTemplates_8h.xhtml#aa3bc14da82a850b0f8ce848a6d54045f" target="_top" xlink:title=" ">
<polygon fill="white" stroke="#666666" points="244,-19 191,-19 191,0 244,0 244,-19"/>
<text text-anchor="middle" x="217.5" y="-7" font-family="Helvetica,sans-Serif" font-size="10.00">vfprintf</text>
</a>
</g>
</g>
<!-- Node1&#45;&gt;Node6 -->
<g id="edge5_Node000001_Node000006" class="edge">
<title>Node1&#45;&gt;Node6</title>
<g id="a_edge5_Node000001_Node000006"><a xlink:title=" ">
<path fill="none" stroke="#63b8ff" d="M289.43,-34.57C274.54,-29.31 257.68,-23.35 244.14,-18.56"/>
<polygon fill="#63b8ff" stroke="#63b8ff" points="288.28,-37.88 298.87,-37.91 290.61,-31.28 288.28,-37.88"/>
</a>
</g>
</g>
<!-- Node2&#45;&gt;Node3 -->
<g id="edge2_Node000002_Node000003" class="edge">
<title>Node2&#45;&gt;Node3</title>
<g id="a_edge2_Node000002_Node000003"><a xlink:title=" ">
<path fill="none" stroke="#63b8ff" d="M173.92,-77.16C165.24,-75.46 156.3,-73.71 148.24,-72.13"/>
<polygon fill="#63b8ff" stroke="#63b8ff" points="173.44,-80.63 183.93,-79.12 174.79,-73.76 173.44,-80.63"/>
</a>
</g>
</g>
<!-- Node4 -->
<g id="Node000004" class="node">
<title>Node4</title>
<g id="a_Node000004"><a xlink:href="../../dc/db9/PrintTemplates_8h.xhtml#a5893e928fd47234a7a69049f9e769359" target="_top" xlink:title=" ">
<polygon fill="white" stroke="#666666" points="53,-95 0,-95 0,-76 53,-76 53,-95"/>
<text text-anchor="middle" x="26.5" y="-83" font-family="Helvetica,sans-Serif" font-size="10.00">mprintf</text>
</a>
</g>
</g>
<!-- Node3&#45;&gt;Node4 -->
<g id="edge3_Node000003_Node000004" class="edge">
<title>Node3&#45;&gt;Node4</title>
<g id="a_edge3_Node000003_Node000004"><a xlink:title=" ">
<path fill="none" stroke="#63b8ff" d="M78.61,-74.71C69.97,-76.53 61.02,-78.42 53.08,-80.1"/>
<polygon fill="#63b8ff" stroke="#63b8ff" points="79.47,-78.11 88.53,-72.62 78.02,-71.26 79.47,-78.11"/>
</a>
</g>
</g>
<!-- Node5 -->
<g id="Node000005" class="node">
<title>Node5</title>
<g id="a_Node000005"><a xlink:href="../../dc/db9/PrintTemplates_8h.xhtml#afceda1e76dbfc91ef2d06925a10eaea9" target="_top" xlink:title=" ">
<polygon fill="white" stroke="#666666" points="53,-58 0,-58 0,-39 53,-39 53,-58"/>
<text text-anchor="middle" x="26.5" y="-46" font-family="Helvetica,sans-Serif" font-size="10.00">mprintf</text>
</a>
</g>
</g>
<!-- Node3&#45;&gt;Node5 -->
<g id="edge4_Node000003_Node000005" class="edge">
<title>Node3&#45;&gt;Node5</title>
<g id="a_edge4_Node000003_Node000005"><a xlink:title=" ">
<path fill="none" stroke="#63b8ff" d="M78.61,-58.72C69.97,-56.99 61.02,-55.2 53.08,-53.62"/>
<polygon fill="#63b8ff" stroke="#63b8ff" points="78.04,-62.18 88.53,-60.71 79.41,-55.31 78.04,-62.18"/>
</a>
</g>
</g>
<!-- Node7 -->
<g id="Node000007" class="node">
<title>Node7</title>
<g id="a_Node000007"><a xlink:href="../../dc/db9/PrintTemplates_8h.xhtml#a3899b48e0eb6938ff58ca3accd53402a" target="_top" xlink:title=" ">
<polygon fill="white" stroke="#666666" points="142,-19 95,-19 95,0 142,0 142,-19"/>
<text text-anchor="middle" x="118.5" y="-7" font-family="Helvetica,sans-Serif" font-size="10.00">fprintf</text>
</a>
</g>
</g>
<!-- Node6&#45;&gt;Node7 -->
<g id="edge6_Node000006_Node000007" class="edge">
<title>Node6&#45;&gt;Node7</title>
<g id="a_edge6_Node000006_Node000007"><a xlink:title=" ">
<path fill="none" stroke="#63b8ff" d="M180.74,-9.5C167.79,-9.5 153.55,-9.5 142.05,-9.5"/>
<polygon fill="#63b8ff" stroke="#63b8ff" points="180.76,-13 190.76,-9.5 180.76,-6 180.76,-13"/>
</a>
</g>
</g>
</g>
</svg>
