<?xml version="1.0" encoding="UTF-8" standalone="no"?>
<!DOCTYPE svg PUBLIC "-//W3C//DTD SVG 1.1//EN"
 "http://www.w3.org/Graphics/SVG/1.1/DTD/svg11.dtd">
<!-- Generated by graphviz version 2.43.0 (0)
 -->
<!-- Title: DS1307::decToBcd Pages: 1 -->
<svg width="893pt" height="286pt"
 viewBox="0.00 0.00 893.00 286.00" xmlns="http://www.w3.org/2000/svg" xmlns:xlink="http://www.w3.org/1999/xlink">
<g id="graph0" class="graph" transform="scale(1 1) rotate(0) translate(4 282)">
<title>DS1307::decToBcd</title>
<!-- Node1 -->
<g id="Node000001" class="node">
<title>Node1</title>
<g id="a_Node000001"><a xlink:title=" ">
<polygon fill="#999999" stroke="#666666" points="885,-148 779,-148 779,-129 885,-129 885,-148"/>
<text text-anchor="middle" x="832" y="-136" font-family="Helvetica,sans-Serif" font-size="10.00">DS1307::decToBcd</text>
</a>
</g>
</g>
<!-- Node2 -->
<g id="Node000002" class="node">
<title>Node2</title>
<g id="a_Node000002"><a xlink:href="../../d8/da8/classDS1307_a4cab80ca2e496b7fe5b68611b0cb1831.xhtml#a4cab80ca2e496b7fe5b68611b0cb1831" target="_top" xlink:title=" ">
<polygon fill="white" stroke="#666666" points="743,-148 643,-148 643,-129 743,-129 743,-148"/>
<text text-anchor="middle" x="693" y="-136" font-family="Helvetica,sans-Serif" font-size="10.00">DS1307::setTime</text>
</a>
</g>
</g>
<!-- Node1&#45;&gt;Node2 -->
<g id="edge1_Node000001_Node000002" class="edge">
<title>Node1&#45;&gt;Node2</title>
<g id="a_edge1_Node000001_Node000002"><a xlink:title=" ">
<path fill="none" stroke="#63b8ff" d="M768.58,-138.5C760.12,-138.5 751.53,-138.5 743.33,-138.5"/>
<polygon fill="#63b8ff" stroke="#63b8ff" points="768.82,-142 778.82,-138.5 768.82,-135 768.82,-142"/>
</a>
</g>
</g>
<!-- Node3 -->
<g id="Node000003" class="node">
<title>Node3</title>
<g id="a_Node000003"><a xlink:href="../../da/d8a/clock_8cpp_ab234f32040a0417cf7e4052226570ea7.xhtml#ab234f32040a0417cf7e4052226570ea7" target="_top" xlink:title=" ">
<polygon fill="white" stroke="#666666" points="588,-278 537,-278 537,-259 588,-259 588,-278"/>
<text text-anchor="middle" x="562.5" y="-266" font-family="Helvetica,sans-Serif" font-size="10.00">setDay</text>
</a>
</g>
</g>
<!-- Node2&#45;&gt;Node3 -->
<g id="edge2_Node000002_Node000003" class="edge">
<title>Node2&#45;&gt;Node3</title>
<g id="a_edge2_Node000002_Node000003"><a xlink:title=" ">
<path fill="none" stroke="#63b8ff" d="M681.99,-157.25C668.1,-181.7 640.81,-224.43 607,-250.5 601.43,-254.79 594.7,-258.23 588.21,-260.91"/>
<polygon fill="#63b8ff" stroke="#63b8ff" points="685.18,-158.72 686.96,-148.27 679.05,-155.33 685.18,-158.72"/>
</a>
</g>
</g>
<!-- Node8 -->
<g id="Node000008" class="node">
<title>Node8</title>
<g id="a_Node000008"><a xlink:href="../../da/d8a/clock_8cpp_a267604a5694bbeec1f8bb522c02e30ea.xhtml#a267604a5694bbeec1f8bb522c02e30ea" target="_top" xlink:title=" ">
<polygon fill="white" stroke="#666666" points="607,-241 518,-241 518,-222 607,-222 607,-241"/>
<text text-anchor="middle" x="562.5" y="-229" font-family="Helvetica,sans-Serif" font-size="10.00">setDayOfWeek</text>
</a>
</g>
</g>
<!-- Node2&#45;&gt;Node8 -->
<g id="edge7_Node000002_Node000008" class="edge">
<title>Node2&#45;&gt;Node8</title>
<g id="a_edge7_Node000002_Node000008"><a xlink:title=" ">
<path fill="none" stroke="#63b8ff" d="M675.81,-155.78C659.62,-172.29 633.4,-197.03 607,-213.5 601.87,-216.7 596.07,-219.55 590.42,-222"/>
<polygon fill="#63b8ff" stroke="#63b8ff" points="678.49,-158.04 682.9,-148.41 673.45,-153.19 678.49,-158.04"/>
</a>
</g>
</g>
<!-- Node9 -->
<g id="Node000009" class="node">
<title>Node9</title>
<g id="a_Node000009"><a xlink:href="../../da/d8a/clock_8cpp_ac6daa7051c56f2758c8f1a555b38b54f.xhtml#ac6daa7051c56f2758c8f1a555b38b54f" target="_top" xlink:title=" ">
<polygon fill="white" stroke="#666666" points="590,-204 535,-204 535,-185 590,-185 590,-204"/>
<text text-anchor="middle" x="562.5" y="-192" font-family="Helvetica,sans-Serif" font-size="10.00">setHour</text>
</a>
</g>
</g>
<!-- Node2&#45;&gt;Node9 -->
<g id="edge9_Node000002_Node000009" class="edge">
<title>Node2&#45;&gt;Node9</title>
<g id="a_edge9_Node000002_Node000009"><a xlink:title=" ">
<path fill="none" stroke="#63b8ff" d="M661.63,-152.33C645.45,-159.63 625.2,-168.67 607,-176.5 600.54,-179.28 593.52,-182.22 587.03,-184.9"/>
<polygon fill="#63b8ff" stroke="#63b8ff" points="663.45,-155.35 671.11,-148.03 660.56,-148.97 663.45,-155.35"/>
</a>
</g>
</g>
<!-- Node10 -->
<g id="Node000010" class="node">
<title>Node10</title>
<g id="a_Node000010"><a xlink:href="../../da/d8a/clock_8cpp_a046d520d9db3b46e7914380f53b9cbc4.xhtml#a046d520d9db3b46e7914380f53b9cbc4" target="_top" xlink:title=" ">
<polygon fill="white" stroke="#666666" points="595,-167 530,-167 530,-148 595,-148 595,-167"/>
<text text-anchor="middle" x="562.5" y="-155" font-family="Helvetica,sans-Serif" font-size="10.00">setMinute</text>
</a>
</g>
</g>
<!-- Node2&#45;&gt;Node10 -->
<g id="edge11_Node000002_Node000010" class="edge">
<title>Node2&#45;&gt;Node10</title>
<g id="a_edge11_Node000002_Node000010"><a xlink:title=" ">
<path fill="none" stroke="#63b8ff" d="M632.43,-147.31C619.52,-149.22 606.36,-151.16 595.05,-152.84"/>
<polygon fill="#63b8ff" stroke="#63b8ff" points="633.31,-150.72 642.69,-145.79 632.28,-143.79 633.31,-150.72"/>
</a>
</g>
</g>
<!-- Node11 -->
<g id="Node000011" class="node">
<title>Node11</title>
<g id="a_Node000011"><a xlink:href="../../da/d8a/clock_8cpp_a0819a812360d2bf138d207150a04c1f5.xhtml#a0819a812360d2bf138d207150a04c1f5" target="_top" xlink:title=" ">
<polygon fill="white" stroke="#666666" points="593.5,-130 531.5,-130 531.5,-111 593.5,-111 593.5,-130"/>
<text text-anchor="middle" x="562.5" y="-118" font-family="Helvetica,sans-Serif" font-size="10.00">setMonth</text>
</a>
</g>
</g>
<!-- Node2&#45;&gt;Node11 -->
<g id="edge13_Node000002_Node000011" class="edge">
<title>Node2&#45;&gt;Node11</title>
<g id="a_edge13_Node000002_Node000011"><a xlink:title=" ">
<path fill="none" stroke="#63b8ff" d="M632.46,-130.16C618.96,-128.27 605.19,-126.34 593.54,-124.71"/>
<polygon fill="#63b8ff" stroke="#63b8ff" points="632.3,-133.67 642.69,-131.59 633.27,-126.74 632.3,-133.67"/>
</a>
</g>
</g>
<!-- Node12 -->
<g id="Node000012" class="node">
<title>Node12</title>
<g id="a_Node000012"><a xlink:href="../../da/d8a/clock_8cpp_a0bc46f276c5d52a4adecb25609a98c8c.xhtml#a0bc46f276c5d52a4adecb25609a98c8c" target="_top" xlink:title=" ">
<polygon fill="white" stroke="#666666" points="596,-93 529,-93 529,-74 596,-74 596,-93"/>
<text text-anchor="middle" x="562.5" y="-81" font-family="Helvetica,sans-Serif" font-size="10.00">setSecond</text>
</a>
</g>
</g>
<!-- Node2&#45;&gt;Node12 -->
<g id="edge15_Node000002_Node000012" class="edge">
<title>Node2&#45;&gt;Node12</title>
<g id="a_edge15_Node000002_Node000012"><a xlink:title=" ">
<path fill="none" stroke="#63b8ff" d="M660.26,-124.91C637.23,-115.06 606.63,-101.96 586.06,-93.16"/>
<polygon fill="#63b8ff" stroke="#63b8ff" points="659.05,-128.2 669.62,-128.92 661.8,-121.77 659.05,-128.2"/>
</a>
</g>
</g>
<!-- Node13 -->
<g id="Node000013" class="node">
<title>Node13</title>
<g id="a_Node000013"><a xlink:href="../../da/d8a/clock_8cpp_a2268b24626953c1eac1d5b18db74cc4b.xhtml#a2268b24626953c1eac1d5b18db74cc4b" target="_top" xlink:title=" ">
<polygon fill="white" stroke="#666666" points="588.5,-56 536.5,-56 536.5,-37 588.5,-37 588.5,-56"/>
<text text-anchor="middle" x="562.5" y="-44" font-family="Helvetica,sans-Serif" font-size="10.00">setYear</text>
</a>
</g>
</g>
<!-- Node2&#45;&gt;Node13 -->
<g id="edge17_Node000002_Node000013" class="edge">
<title>Node2&#45;&gt;Node13</title>
<g id="a_edge17_Node000002_Node000013"><a xlink:title=" ">
<path fill="none" stroke="#63b8ff" d="M675.65,-121.82C659.35,-105.86 633.05,-81.86 607,-65.5 601.28,-61.91 594.76,-58.67 588.54,-55.92"/>
<polygon fill="#63b8ff" stroke="#63b8ff" points="673.25,-124.37 682.8,-128.94 678.19,-119.41 673.25,-124.37"/>
</a>
</g>
</g>
<!-- Node14 -->
<g id="Node000014" class="node">
<title>Node14</title>
<g id="a_Node000014"><a xlink:href="../../da/d8a/clock_8cpp_af6cbeb88490e4d37173075da9a7b077b.xhtml#af6cbeb88490e4d37173075da9a7b077b" target="_top" xlink:title=" ">
<polygon fill="white" stroke="#666666" points="597,-19 528,-19 528,0 597,0 597,-19"/>
<text text-anchor="middle" x="562.5" y="-7" font-family="Helvetica,sans-Serif" font-size="10.00">setYearFull</text>
</a>
</g>
</g>
<!-- Node2&#45;&gt;Node14 -->
<g id="edge19_Node000002_Node000014" class="edge">
<title>Node2&#45;&gt;Node14</title>
<g id="a_edge19_Node000002_Node000014"><a xlink:title=" ">
<path fill="none" stroke="#63b8ff" d="M681.84,-120.19C667.77,-96.29 640.29,-54.46 607,-28.5 602.32,-24.85 596.83,-21.75 591.36,-19.18"/>
<polygon fill="#63b8ff" stroke="#63b8ff" points="678.85,-122.03 686.87,-128.96 684.93,-118.55 678.85,-122.03"/>
</a>
</g>
</g>
<!-- Node4 -->
<g id="Node000004" class="node">
<title>Node4</title>
<g id="a_Node000004"><a xlink:href="../../df/d22/configuration_8cpp_a109c8a943c63a9d6d5dbd7b5c423a11b.xhtml#a109c8a943c63a9d6d5dbd7b5c423a11b" target="_top" xlink:title=" ">
<polygon fill="white" stroke="#666666" points="482,-167 333,-167 333,-148 482,-148 482,-167"/>
<text text-anchor="middle" x="407.5" y="-155" font-family="Helvetica,sans-Serif" font-size="10.00">configurationRunCommand</text>
</a>
</g>
</g>
<!-- Node3&#45;&gt;Node4 -->
<g id="edge3_Node000003_Node000004" class="edge">
<title>Node3&#45;&gt;Node4</title>
<g id="a_edge3_Node000003_Node000004"><a xlink:title=" ">
<path fill="none" stroke="#63b8ff" d="M527.57,-255.69C524.27,-254.08 521.02,-252.34 518,-250.5 476.92,-225.41 435.54,-185.29 417.67,-167.07"/>
<polygon fill="#63b8ff" stroke="#63b8ff" points="526.36,-258.98 536.91,-259.89 529.22,-252.6 526.36,-258.98"/>
</a>
</g>
</g>
<!-- Node5 -->
<g id="Node000005" class="node">
<title>Node5</title>
<g id="a_Node000005"><a xlink:href="../../df/d22/configuration_8cpp_a007ee20d2ddf2c89e855b63e6e812b65.xhtml#a007ee20d2ddf2c89e855b63e6e812b65" target="_top" xlink:title=" ">
<polygon fill="white" stroke="#666666" points="297,-167 151,-167 151,-148 297,-148 297,-167"/>
<text text-anchor="middle" x="224" y="-155" font-family="Helvetica,sans-Serif" font-size="10.00">runConfigurationModeStep</text>
</a>
</g>
</g>
<!-- Node4&#45;&gt;Node5 -->
<g id="edge4_Node000004_Node000005" class="edge">
<title>Node4&#45;&gt;Node5</title>
<g id="a_edge4_Node000004_Node000005"><a xlink:title=" ">
<path fill="none" stroke="#63b8ff" d="M322.91,-157.5C314.32,-157.5 305.65,-157.5 297.19,-157.5"/>
<polygon fill="#63b8ff" stroke="#63b8ff" points="322.94,-161 332.94,-157.5 322.94,-154 322.94,-161"/>
</a>
</g>
</g>
<!-- Node6 -->
<g id="Node000006" class="node">
<title>Node6</title>
<g id="a_Node000006"><a xlink:href="../../de/dfb/src_2main_8cpp_afe461d27b9c48d5921c00d521181f12f.xhtml#afe461d27b9c48d5921c00d521181f12f" target="_top" xlink:title=" ">
<polygon fill="white" stroke="#666666" points="115,-167 77,-167 77,-148 115,-148 115,-167"/>
<text text-anchor="middle" x="96" y="-155" font-family="Helvetica,sans-Serif" font-size="10.00">loop</text>
</a>
</g>
</g>
<!-- Node5&#45;&gt;Node6 -->
<g id="edge5_Node000005_Node000006" class="edge">
<title>Node5&#45;&gt;Node6</title>
<g id="a_edge5_Node000005_Node000006"><a xlink:title=" ">
<path fill="none" stroke="#63b8ff" d="M140.74,-157.5C131.28,-157.5 122.45,-157.5 115.25,-157.5"/>
<polygon fill="#63b8ff" stroke="#63b8ff" points="140.8,-161 150.8,-157.5 140.8,-154 140.8,-161"/>
</a>
</g>
</g>
<!-- Node7 -->
<g id="Node000007" class="node">
<title>Node7</title>
<g id="a_Node000007"><a xlink:href="../../d2/d81/libs_2Arduino__AVR_2main_8cpp_a840291bc02cba5474a4cb46a9b9566fe.xhtml#a840291bc02cba5474a4cb46a9b9566fe" target="_top" xlink:title=" ">
<polygon fill="white" stroke="#666666" points="41,-167 0,-167 0,-148 41,-148 41,-167"/>
<text text-anchor="middle" x="20.5" y="-155" font-family="Helvetica,sans-Serif" font-size="10.00">main</text>
</a>
</g>
</g>
<!-- Node6&#45;&gt;Node7 -->
<g id="edge6_Node000006_Node000007" class="edge">
<title>Node6&#45;&gt;Node7</title>
<g id="a_edge6_Node000006_Node000007"><a xlink:title=" ">
<path fill="none" stroke="#63b8ff" d="M66.79,-157.5C58.18,-157.5 48.9,-157.5 41,-157.5"/>
<polygon fill="#63b8ff" stroke="#63b8ff" points="66.83,-161 76.83,-157.5 66.83,-154 66.83,-161"/>
</a>
</g>
</g>
<!-- Node8&#45;&gt;Node4 -->
<g id="edge8_Node000008_Node000004" class="edge">
<title>Node8&#45;&gt;Node4</title>
<g id="a_edge8_Node000008_Node000004"><a xlink:title=" ">
<path fill="none" stroke="#63b8ff" d="M527.97,-217.94C524.59,-216.48 521.21,-214.98 518,-213.5 485.04,-198.28 447.57,-178.58 426.11,-167.06"/>
<polygon fill="#63b8ff" stroke="#63b8ff" points="526.84,-221.27 537.42,-221.94 529.57,-214.82 526.84,-221.27"/>
</a>
</g>
</g>
<!-- Node9&#45;&gt;Node4 -->
<g id="edge10_Node000009_Node000004" class="edge">
<title>Node9&#45;&gt;Node4</title>
<g id="a_edge10_Node000009_Node000004"><a xlink:title=" ">
<path fill="none" stroke="#63b8ff" d="M525.04,-185.68C501.85,-180.08 471.82,-172.81 448.05,-167.06"/>
<polygon fill="#63b8ff" stroke="#63b8ff" points="524.31,-189.11 534.85,-188.06 525.95,-182.3 524.31,-189.11"/>
</a>
</g>
</g>
<!-- Node10&#45;&gt;Node4 -->
<g id="edge12_Node000010_Node000004" class="edge">
<title>Node10&#45;&gt;Node4</title>
<g id="a_edge12_Node000010_Node000004"><a xlink:title=" ">
<path fill="none" stroke="#63b8ff" d="M519.55,-157.5C507.94,-157.5 494.98,-157.5 482.12,-157.5"/>
<polygon fill="#63b8ff" stroke="#63b8ff" points="519.8,-161 529.8,-157.5 519.8,-154 519.8,-161"/>
</a>
</g>
</g>
<!-- Node11&#45;&gt;Node4 -->
<g id="edge14_Node000011_Node000004" class="edge">
<title>Node11&#45;&gt;Node4</title>
<g id="a_edge14_Node000011_Node000004"><a xlink:title=" ">
<path fill="none" stroke="#63b8ff" d="M521.3,-130.22C498.65,-135.7 470.48,-142.51 447.95,-147.96"/>
<polygon fill="#63b8ff" stroke="#63b8ff" points="522.38,-133.56 531.27,-127.81 520.73,-126.76 522.38,-133.56"/>
</a>
</g>
</g>
<!-- Node12&#45;&gt;Node4 -->
<g id="edge16_Node000012_Node000004" class="edge">
<title>Node12&#45;&gt;Node4</title>
<g id="a_edge16_Node000012_Node000004"><a xlink:title=" ">
<path fill="none" stroke="#63b8ff" d="M529.39,-97.29C525.54,-99.01 521.67,-100.78 518,-102.5 485.64,-117.68 448.6,-136.62 426.95,-147.85"/>
<polygon fill="#63b8ff" stroke="#63b8ff" points="531.08,-100.37 538.82,-93.13 528.26,-93.97 531.08,-100.37"/>
</a>
</g>
</g>
<!-- Node13&#45;&gt;Node4 -->
<g id="edge18_Node000013_Node000004" class="edge">
<title>Node13&#45;&gt;Node4</title>
<g id="a_edge18_Node000013_Node000004"><a xlink:title=" ">
<path fill="none" stroke="#63b8ff" d="M527.36,-60.28C524.13,-61.91 520.96,-63.66 518,-65.5 477.49,-90.63 436.15,-129.82 418.01,-147.84"/>
<polygon fill="#63b8ff" stroke="#63b8ff" points="528.94,-63.4 536.49,-55.96 525.95,-57.07 528.94,-63.4"/>
</a>
</g>
</g>
</g>
</svg>
