<?xml version="1.0" encoding="UTF-8" standalone="no"?>
<!DOCTYPE svg PUBLIC "-//W3C//DTD SVG 1.1//EN"
 "http://www.w3.org/Graphics/SVG/1.1/DTD/svg11.dtd">
<!-- Generated by graphviz version 2.43.0 (0)
 -->
<!-- Title: obufstream::obufstream Pages: 1 -->
<svg width="274pt" height="64pt"
 viewBox="0.00 0.00 274.00 64.00" xmlns="http://www.w3.org/2000/svg" xmlns:xlink="http://www.w3.org/1999/xlink">
<g id="graph0" class="graph" transform="scale(1 1) rotate(0) translate(4 60)">
<title>obufstream::obufstream</title>
<!-- Node1 -->
<g id="Node000001" class="node">
<title>Node1</title>
<g id="a_Node000001"><a xlink:title=" ">
<polygon fill="#999999" stroke="#666666" points="135,-37 0,-37 0,-18 135,-18 135,-37"/>
<text text-anchor="middle" x="67.5" y="-25" font-family="Helvetica,sans-Serif" font-size="10.00">obufstream::obufstream</text>
</a>
</g>
</g>
<!-- Node2 -->
<g id="Node000002" class="node">
<title>Node2</title>
<g id="a_Node000002"><a xlink:href="../../df/d20/classobufstream.xhtml#aa74e5dfe3a50a0ff39ee1e846b1e0deb" target="_top" xlink:title=" ">
<polygon fill="white" stroke="#666666" points="266,-56 171,-56 171,-37 266,-37 266,-56"/>
<text text-anchor="middle" x="218.5" y="-44" font-family="Helvetica,sans-Serif" font-size="10.00">obufstream::buf</text>
</a>
</g>
</g>
<!-- Node1&#45;&gt;Node2 -->
<g id="edge1_Node000001_Node000002" class="edge">
<title>Node1&#45;&gt;Node2</title>
<g id="a_edge1_Node000001_Node000002"><a xlink:title=" ">
<path fill="none" stroke="#63b8ff" d="M135.16,-36C143.75,-37.1 152.48,-38.21 160.89,-39.28"/>
<polygon fill="#63b8ff" stroke="#63b8ff" points="160.6,-42.77 170.96,-40.57 161.49,-35.83 160.6,-42.77"/>
</a>
</g>
</g>
<!-- Node3 -->
<g id="Node000003" class="node">
<title>Node3</title>
<g id="a_Node000003"><a xlink:href="../../d5/df3/wiring_8c.xhtml#a02fd73d861ef2e4aabb38c0c9ff82947" target="_top" xlink:title=" ">
<polygon fill="white" stroke="#666666" points="234.5,-19 202.5,-19 202.5,0 234.5,0 234.5,-19"/>
<text text-anchor="middle" x="218.5" y="-7" font-family="Helvetica,sans-Serif" font-size="10.00">init</text>
</a>
</g>
</g>
<!-- Node1&#45;&gt;Node3 -->
<g id="edge2_Node000001_Node000003" class="edge">
<title>Node1&#45;&gt;Node3</title>
<g id="a_edge2_Node000001_Node000003"><a xlink:title=" ">
<path fill="none" stroke="#63b8ff" d="M135.16,-19.45C155.43,-17 176.48,-14.46 192.23,-12.55"/>
<polygon fill="#63b8ff" stroke="#63b8ff" points="192.7,-16.02 202.2,-11.35 191.86,-9.07 192.7,-16.02"/>
</a>
</g>
</g>
</g>
</svg>
