<?xml version="1.0" encoding="UTF-8" standalone="no"?>
<!DOCTYPE svg PUBLIC "-//W3C//DTD SVG 1.1//EN"
 "http://www.w3.org/Graphics/SVG/1.1/DTD/svg11.dtd">
<!-- Generated by graphviz version 2.43.0 (0)
 -->
<!-- Title: istream::getStr Pages: 1 -->
<svg width="361pt" height="101pt"
 viewBox="0.00 0.00 361.00 101.00" xmlns="http://www.w3.org/2000/svg" xmlns:xlink="http://www.w3.org/1999/xlink">
<g id="graph0" class="graph" transform="scale(1 1) rotate(0) translate(4 97)">
<title>istream::getStr</title>
<!-- Node1 -->
<g id="Node000001" class="node">
<title>Node1</title>
<g id="a_Node000001"><a xlink:title=" ">
<polygon fill="#999999" stroke="#666666" points="89,-56 0,-56 0,-37 89,-37 89,-56"/>
<text text-anchor="middle" x="44.5" y="-44" font-family="Helvetica,sans-Serif" font-size="10.00">istream::getStr</text>
</a>
</g>
</g>
<!-- Node2 -->
<g id="Node000002" class="node">
<title>Node2</title>
<g id="a_Node000002"><a xlink:href="../../d4/d07/classistream.xhtml#ab675f55618058912ac1b9026eac8445e" target="_top" xlink:title=" ">
<polygon fill="white" stroke="#666666" points="228,-93 125,-93 125,-74 228,-74 228,-93"/>
<text text-anchor="middle" x="176.5" y="-81" font-family="Helvetica,sans-Serif" font-size="10.00">istream::readSkip</text>
</a>
</g>
</g>
<!-- Node1&#45;&gt;Node2 -->
<g id="edge1_Node000001_Node000002" class="edge">
<title>Node1&#45;&gt;Node2</title>
<g id="a_edge1_Node000001_Node000002"><a xlink:title=" ">
<path fill="none" stroke="#63b8ff" d="M78.98,-56.03C95.08,-60.61 114.58,-66.16 131.83,-71.07"/>
<polygon fill="#63b8ff" stroke="#63b8ff" points="131.11,-74.5 141.68,-73.88 133.02,-67.77 131.11,-74.5"/>
</a>
</g>
</g>
<!-- Node4 -->
<g id="Node000004" class="node">
<title>Node4</title>
<g id="a_Node000004"><a xlink:href="../../df/d02/classios.xhtml#aee5d194656bdfb0c8621b23ea2f51afb" target="_top" xlink:title=" ">
<polygon fill="white" stroke="#666666" points="215,-56 138,-56 138,-37 215,-37 215,-56"/>
<text text-anchor="middle" x="176.5" y="-44" font-family="Helvetica,sans-Serif" font-size="10.00">ios::setstate</text>
</a>
</g>
</g>
<!-- Node1&#45;&gt;Node4 -->
<g id="edge3_Node000001_Node000004" class="edge">
<title>Node1&#45;&gt;Node4</title>
<g id="a_edge3_Node000001_Node000004"><a xlink:title=" ">
<path fill="none" stroke="#63b8ff" d="M89.15,-46.5C101.48,-46.5 114.97,-46.5 127.54,-46.5"/>
<polygon fill="#63b8ff" stroke="#63b8ff" points="127.84,-50 137.84,-46.5 127.84,-43 127.84,-50"/>
</a>
</g>
</g>
<!-- Node5 -->
<g id="Node000005" class="node">
<title>Node5</title>
<g id="a_Node000005"><a xlink:href="../../d4/dc1/classios__base.xhtml#afa30e7644b4eae5928ad9c487ad387de" target="_top" xlink:title=" ">
<polygon fill="white" stroke="#666666" points="222.5,-19 130.5,-19 130.5,0 222.5,0 222.5,-19"/>
<text text-anchor="middle" x="176.5" y="-7" font-family="Helvetica,sans-Serif" font-size="10.00">ios_base::width</text>
</a>
</g>
</g>
<!-- Node1&#45;&gt;Node5 -->
<g id="edge4_Node000001_Node000005" class="edge">
<title>Node1&#45;&gt;Node5</title>
<g id="a_edge4_Node000001_Node000005"><a xlink:title=" ">
<path fill="none" stroke="#63b8ff" d="M78.98,-36.97C95.08,-32.39 114.58,-26.84 131.83,-21.93"/>
<polygon fill="#63b8ff" stroke="#63b8ff" points="133.02,-25.23 141.68,-19.12 131.11,-18.5 133.02,-25.23"/>
</a>
</g>
</g>
<!-- Node3 -->
<g id="Node000003" class="node">
<title>Node3</title>
<g id="a_Node000003"><a xlink:href="../../d4/dc1/classios__base.xhtml#a2a73a30a8b157cc1cc92bb55b0a62e4a" target="_top" xlink:title=" ">
<polygon fill="white" stroke="#666666" points="353,-93 264,-93 264,-74 353,-74 353,-93"/>
<text text-anchor="middle" x="308.5" y="-81" font-family="Helvetica,sans-Serif" font-size="10.00">ios_base::flags</text>
</a>
</g>
</g>
<!-- Node2&#45;&gt;Node3 -->
<g id="edge2_Node000002_Node000003" class="edge">
<title>Node2&#45;&gt;Node3</title>
<g id="a_edge2_Node000002_Node000003"><a xlink:title=" ">
<path fill="none" stroke="#63b8ff" d="M228.13,-83.5C236.55,-83.5 245.3,-83.5 253.79,-83.5"/>
<polygon fill="#63b8ff" stroke="#63b8ff" points="253.97,-87 263.97,-83.5 253.97,-80 253.97,-87"/>
</a>
</g>
</g>
</g>
</svg>
