<?xml version="1.0" encoding="UTF-8" standalone="no"?>
<!DOCTYPE svg PUBLIC "-//W3C//DTD SVG 1.1//EN"
 "http://www.w3.org/Graphics/SVG/1.1/DTD/svg11.dtd">
<!-- Generated by graphviz version 2.43.0 (0)
 -->
<!-- Title: SoftwareSerial.h Pages: 1 -->
<svg width="327pt" height="302pt"
 viewBox="0.00 0.00 326.68 302.00" xmlns="http://www.w3.org/2000/svg" xmlns:xlink="http://www.w3.org/1999/xlink">

<svg id="main" version="1.1" xmlns="http://www.w3.org/2000/svg" xmlns:xlink="http://www.w3.org/1999/xlink" xml:space="preserve" onload="init(evt)">
<style type="text/css"><![CDATA[
.node, .edge {opacity: 0.7;}
.node.selected, .edge.selected {opacity: 1;}
.edge:hover path { stroke: red; }
.edge:hover polygon { stroke: red; fill: red; }
]]></style>
<script type="application/ecmascript" xlink:href="../../svg.min.js"/>
<svg id="graph" class="graph">
<g id="graph0" class="graph" transform="scale(1 1) rotate(0) translate(4 298)">
<title>SoftwareSerial.h</title>
<!-- Node1 -->
<g id="Node000001" class="node">
<title>Node1</title>
<g id="a_Node000001"><a xlink:title=" ">
<polygon fill="#999999" stroke="#666666" points="297,-294 201,-294 201,-275 297,-275 297,-294"/>
<text text-anchor="middle" x="249" y="-282" font-family="Helvetica,sans-Serif" font-size="10.00">SoftwareSerial.h</text>
</a>
</g>
</g>
<!-- Node2 -->
<g id="Node000002" class="node">
<title>Node2</title>
<g id="a_Node000002"><a xlink:title=" ">
<polygon fill="#e0e0e0" stroke="#999999" points="302.5,-74 237.5,-74 237.5,-55 302.5,-55 302.5,-74"/>
<text text-anchor="middle" x="270" y="-62" font-family="Helvetica,sans-Serif" font-size="10.00">inttypes.h</text>
</a>
</g>
</g>
<!-- Node1&#45;&gt;Node2 -->
<g id="edge1_Node000001_Node000002" class="edge">
<title>Node1&#45;&gt;Node2</title>
<g id="a_edge1_Node000001_Node000002"><a xlink:title=" ">
<path fill="none" stroke="#63b8ff" d="M268.58,-274.98C282.67,-267.68 300.6,-255.68 309,-239 335.54,-186.27 300.67,-115.51 281.33,-83.08"/>
<polygon fill="#63b8ff" stroke="#63b8ff" points="284.14,-80.97 275.91,-74.3 278.19,-84.65 284.14,-80.97"/>
</a>
</g>
</g>
<!-- Node3 -->
<g id="Node000003" class="node">
<title>Node3</title>
<g id="a_Node000003"><a xlink:href="../../de/dd1/Stream_8h.xhtml" target="_top" xlink:title=" ">
<polygon fill="white" stroke="#666666" points="225.5,-184 164.5,-184 164.5,-165 225.5,-165 225.5,-184"/>
<text text-anchor="middle" x="195" y="-172" font-family="Helvetica,sans-Serif" font-size="10.00">Stream.h</text>
</a>
</g>
</g>
<!-- Node1&#45;&gt;Node3 -->
<g id="edge2_Node000001_Node000003" class="edge">
<title>Node1&#45;&gt;Node3</title>
<g id="a_edge2_Node000001_Node000003"><a xlink:title=" ">
<path fill="none" stroke="#63b8ff" d="M229.42,-274.98C215.33,-267.68 197.4,-255.68 189,-239 182,-225.09 184.5,-207.3 188.18,-194.09"/>
<polygon fill="#63b8ff" stroke="#63b8ff" points="191.61,-194.85 191.36,-184.26 184.95,-192.7 191.61,-194.85"/>
</a>
</g>
</g>
<!-- Node9 -->
<g id="Node000009" class="node">
<title>Node9</title>
<g id="a_Node000009"><a xlink:href="../../d7/d96/HardwareSerial_8h.xhtml" target="_top" xlink:title=" ">
<polygon fill="white" stroke="#666666" points="299.5,-239 198.5,-239 198.5,-220 299.5,-220 299.5,-239"/>
<text text-anchor="middle" x="249" y="-227" font-family="Helvetica,sans-Serif" font-size="10.00">HardwareSerial.h</text>
</a>
</g>
</g>
<!-- Node1&#45;&gt;Node9 -->
<g id="edge10_Node000001_Node000009" class="edge">
<title>Node1&#45;&gt;Node9</title>
<g id="a_edge10_Node000001_Node000009"><a xlink:title=" ">
<path fill="none" stroke="#63b8ff" d="M249,-274.75C249,-267.8 249,-257.85 249,-249.13"/>
<polygon fill="#63b8ff" stroke="#63b8ff" points="252.5,-249.09 249,-239.09 245.5,-249.09 252.5,-249.09"/>
</a>
</g>
</g>
<!-- Node3&#45;&gt;Node2 -->
<g id="edge3_Node000003_Node000002" class="edge">
<title>Node3&#45;&gt;Node2</title>
<g id="a_edge3_Node000003_Node000002"><a xlink:title=" ">
<path fill="none" stroke="#63b8ff" d="M201.14,-164.66C213.62,-146.69 242.12,-105.64 258.28,-82.38"/>
<polygon fill="#63b8ff" stroke="#63b8ff" points="261.16,-84.37 263.99,-74.16 255.41,-80.38 261.16,-84.37"/>
</a>
</g>
</g>
<!-- Node4 -->
<g id="Node000004" class="node">
<title>Node4</title>
<g id="a_Node000004"><a xlink:href="../../d8/d19/Print_8h.xhtml" target="_top" xlink:title=" ">
<polygon fill="white" stroke="#666666" points="204,-129 156,-129 156,-110 204,-110 204,-129"/>
<text text-anchor="middle" x="180" y="-117" font-family="Helvetica,sans-Serif" font-size="10.00">Print.h</text>
</a>
</g>
</g>
<!-- Node3&#45;&gt;Node4 -->
<g id="edge4_Node000003_Node000004" class="edge">
<title>Node3&#45;&gt;Node4</title>
<g id="a_edge4_Node000003_Node000004"><a xlink:title=" ">
<path fill="none" stroke="#63b8ff" d="M192.52,-164.75C190.54,-157.72 187.68,-147.62 185.19,-138.84"/>
<polygon fill="#63b8ff" stroke="#63b8ff" points="188.52,-137.76 182.43,-129.09 181.79,-139.66 188.52,-137.76"/>
</a>
</g>
</g>
<!-- Node4&#45;&gt;Node2 -->
<g id="edge5_Node000004_Node000002" class="edge">
<title>Node4&#45;&gt;Node2</title>
<g id="a_edge5_Node000004_Node000002"><a xlink:title=" ">
<path fill="none" stroke="#63b8ff" d="M194.46,-109.98C208.42,-101.77 229.79,-89.18 246.25,-79.49"/>
<polygon fill="#63b8ff" stroke="#63b8ff" points="248.44,-82.26 255.28,-74.17 244.88,-76.23 248.44,-82.26"/>
</a>
</g>
</g>
<!-- Node5 -->
<g id="Node000005" class="node">
<title>Node5</title>
<g id="a_Node000005"><a xlink:title=" ">
<polygon fill="#e0e0e0" stroke="#999999" points="50,-74 0,-74 0,-55 50,-55 50,-74"/>
<text text-anchor="middle" x="25" y="-62" font-family="Helvetica,sans-Serif" font-size="10.00">stdio.h</text>
</a>
</g>
</g>
<!-- Node4&#45;&gt;Node5 -->
<g id="edge6_Node000004_Node000005" class="edge">
<title>Node4&#45;&gt;Node5</title>
<g id="a_edge6_Node000004_Node000005"><a xlink:title=" ">
<path fill="none" stroke="#63b8ff" d="M155.78,-110.22C130.04,-101.42 89.09,-87.42 59.88,-77.43"/>
<polygon fill="#63b8ff" stroke="#63b8ff" points="60.67,-74 50.08,-74.07 58.41,-80.62 60.67,-74"/>
</a>
</g>
</g>
<!-- Node6 -->
<g id="Node000006" class="node">
<title>Node6</title>
<g id="a_Node000006"><a xlink:href="../../db/d8b/WString_8h.xhtml" target="_top" xlink:title=" ">
<polygon fill="white" stroke="#666666" points="132,-74 68,-74 68,-55 132,-55 132,-74"/>
<text text-anchor="middle" x="100" y="-62" font-family="Helvetica,sans-Serif" font-size="10.00">WString.h</text>
</a>
</g>
</g>
<!-- Node4&#45;&gt;Node6 -->
<g id="edge7_Node000004_Node000006" class="edge">
<title>Node4&#45;&gt;Node6</title>
<g id="a_edge7_Node000004_Node000006"><a xlink:title=" ">
<path fill="none" stroke="#63b8ff" d="M167.15,-109.98C154.86,-101.84 136.09,-89.41 121.52,-79.76"/>
<polygon fill="#63b8ff" stroke="#63b8ff" points="123.36,-76.78 113.09,-74.17 119.49,-82.61 123.36,-76.78"/>
</a>
</g>
</g>
<!-- Node7 -->
<g id="Node000007" class="node">
<title>Node7</title>
<g id="a_Node000007"><a xlink:href="../../d2/df2/Printable_8h.xhtml" target="_top" xlink:title=" ">
<polygon fill="white" stroke="#666666" points="219.5,-74 150.5,-74 150.5,-55 219.5,-55 219.5,-74"/>
<text text-anchor="middle" x="185" y="-62" font-family="Helvetica,sans-Serif" font-size="10.00">Printable.h</text>
</a>
</g>
</g>
<!-- Node4&#45;&gt;Node7 -->
<g id="edge8_Node000004_Node000007" class="edge">
<title>Node4&#45;&gt;Node7</title>
<g id="a_edge8_Node000004_Node000007"><a xlink:title=" ">
<path fill="none" stroke="#63b8ff" d="M180.83,-109.75C181.48,-102.8 182.42,-92.85 183.24,-84.13"/>
<polygon fill="#63b8ff" stroke="#63b8ff" points="186.73,-84.37 184.19,-74.09 179.77,-83.72 186.73,-84.37"/>
</a>
</g>
</g>
<!-- Node8 -->
<g id="Node000008" class="node">
<title>Node8</title>
<g id="a_Node000008"><a xlink:title=" ">
<polygon fill="#e0e0e0" stroke="#999999" points="211.5,-19 158.5,-19 158.5,0 211.5,0 211.5,-19"/>
<text text-anchor="middle" x="185" y="-7" font-family="Helvetica,sans-Serif" font-size="10.00">stdlib.h</text>
</a>
</g>
</g>
<!-- Node7&#45;&gt;Node8 -->
<g id="edge9_Node000007_Node000008" class="edge">
<title>Node7&#45;&gt;Node8</title>
<g id="a_edge9_Node000007_Node000008"><a xlink:title=" ">
<path fill="none" stroke="#63b8ff" d="M185,-54.75C185,-47.8 185,-37.85 185,-29.13"/>
<polygon fill="#63b8ff" stroke="#63b8ff" points="188.5,-29.09 185,-19.09 181.5,-29.09 188.5,-29.09"/>
</a>
</g>
</g>
<!-- Node9&#45;&gt;Node2 -->
<g id="edge11_Node000009_Node000002" class="edge">
<title>Node9&#45;&gt;Node2</title>
<g id="a_edge11_Node000009_Node000002"><a xlink:title=" ">
<path fill="none" stroke="#63b8ff" d="M250.13,-219.74C253.42,-194.2 263.05,-119.43 267.59,-84.23"/>
<polygon fill="#63b8ff" stroke="#63b8ff" points="271.06,-84.67 268.87,-74.31 264.12,-83.78 271.06,-84.67"/>
</a>
</g>
</g>
<!-- Node9&#45;&gt;Node3 -->
<g id="edge12_Node000009_Node000003" class="edge">
<title>Node9&#45;&gt;Node3</title>
<g id="a_edge12_Node000009_Node000003"><a xlink:title=" ">
<path fill="none" stroke="#63b8ff" d="M240.08,-219.75C232.22,-212.03 220.57,-200.6 211.08,-191.28"/>
<polygon fill="#63b8ff" stroke="#63b8ff" points="213.34,-188.6 203.75,-184.09 208.44,-193.59 213.34,-188.6"/>
</a>
</g>
</g>
</g>
</svg>
</svg>

<style type='text/css'>
<![CDATA[
[data-mouse-over-selected='false'] { opacity: 0.7; }
[data-mouse-over-selected='true']  { opacity: 1.0; }
]]>
</style>
<script type="application/ecmascript"><![CDATA[
document.addEventListener('DOMContentLoaded', (event) => {
  highlightEdges();
  highlightAdjacentNodes();
});
]]></script>
</svg>
