<?xml version="1.0" encoding="UTF-8" standalone="no"?>
<!DOCTYPE svg PUBLIC "-//W3C//DTD SVG 1.1//EN"
 "http://www.w3.org/Graphics/SVG/1.1/DTD/svg11.dtd">
<!-- Generated by graphviz version 2.43.0 (0)
 -->
<!-- Title: StdioStream::__attribute__ Pages: 1 -->
<svg width="427pt" height="45pt"
 viewBox="0.00 0.00 427.00 45.00" xmlns="http://www.w3.org/2000/svg" xmlns:xlink="http://www.w3.org/1999/xlink">
<g id="graph0" class="graph" transform="scale(1 1) rotate(0) translate(4 41)">
<title>StdioStream::__attribute__</title>
<!-- Node1 -->
<g id="Node000001" class="node">
<title>Node1</title>
<g id="a_Node000001"><a xlink:title=" ">
<polygon fill="#999999" stroke="#666666" points="146,-19 0,-19 0,0 146,0 146,-19"/>
<text text-anchor="middle" x="73" y="-7" font-family="Helvetica,sans-Serif" font-size="10.00">StdioStream::__attribute__</text>
</a>
</g>
</g>
<!-- Node2 -->
<g id="Node000002" class="node">
<title>Node2</title>
<g id="a_Node000002"><a xlink:href="../../da/d64/classStdioStream.xhtml#a525cecc51f31e964f7ef43b6cf6d8b38" target="_top" xlink:title=" ">
<polygon fill="white" stroke="#666666" points="304,-19 182,-19 182,0 304,0 304,-19"/>
<text text-anchor="middle" x="243" y="-7" font-family="Helvetica,sans-Serif" font-size="10.00">StdioStream::flushBuf</text>
</a>
</g>
</g>
<!-- Node1&#45;&gt;Node2 -->
<g id="edge1_Node000001_Node000002" class="edge">
<title>Node1&#45;&gt;Node2</title>
<g id="a_edge1_Node000001_Node000002"><a xlink:title=" ">
<path fill="none" stroke="#63b8ff" d="M146.22,-9.5C154.69,-9.5 163.33,-9.5 171.77,-9.5"/>
<polygon fill="#63b8ff" stroke="#63b8ff" points="171.96,-13 181.96,-9.5 171.96,-6 171.96,-13"/>
</a>
</g>
</g>
<!-- Node3 -->
<g id="Node000003" class="node">
<title>Node3</title>
<g id="a_Node000003"><a xlink:href="../../d3/db4/classFatFile.xhtml#a081dd810835f1ebf8c23ffe92706b485" target="_top" xlink:title=" ">
<polygon fill="white" stroke="#666666" points="419,-19 340,-19 340,0 419,0 419,-19"/>
<text text-anchor="middle" x="379.5" y="-7" font-family="Helvetica,sans-Serif" font-size="10.00">FatFile::write</text>
</a>
</g>
</g>
<!-- Node2&#45;&gt;Node3 -->
<g id="edge2_Node000002_Node000003" class="edge">
<title>Node2&#45;&gt;Node3</title>
<g id="a_edge2_Node000002_Node000003"><a xlink:title=" ">
<path fill="none" stroke="#63b8ff" d="M304.17,-9.5C312.73,-9.5 321.44,-9.5 329.74,-9.5"/>
<polygon fill="#63b8ff" stroke="#63b8ff" points="330,-13 340,-9.5 330,-6 330,-13"/>
</a>
</g>
</g>
<!-- Node3&#45;&gt;Node3 -->
<g id="edge3_Node000003_Node000003" class="edge">
<title>Node3&#45;&gt;Node3</title>
<g id="a_edge3_Node000003_Node000003"><a xlink:title=" ">
<path fill="none" stroke="#63b8ff" d="M358.54,-19.08C348.34,-27.73 355.33,-37 379.5,-37 394.99,-37 403.42,-33.2 404.8,-28.19"/>
<polygon fill="#63b8ff" stroke="#63b8ff" points="407.92,-26.61 400.46,-19.08 401.6,-29.62 407.92,-26.61"/>
</a>
</g>
</g>
</g>
</svg>
