<?xml version="1.0" encoding="UTF-8" standalone="no"?>
<!DOCTYPE svg PUBLIC "-//W3C//DTD SVG 1.1//EN"
 "http://www.w3.org/Graphics/SVG/1.1/DTD/svg11.dtd">
<!-- Generated by graphviz version 2.43.0 (0)
 -->
<!-- Title: StdioStream::fgets Pages: 1 -->
<svg width="535pt" height="100pt"
 viewBox="0.00 0.00 535.00 100.00" xmlns="http://www.w3.org/2000/svg" xmlns:xlink="http://www.w3.org/1999/xlink">
<g id="graph0" class="graph" transform="scale(1 1) rotate(0) translate(4 96)">
<title>StdioStream::fgets</title>
<!-- Node1 -->
<g id="Node000001" class="node">
<title>Node1</title>
<g id="a_Node000001"><a xlink:title=" ">
<polygon fill="#999999" stroke="#666666" points="107,-46 0,-46 0,-27 107,-27 107,-46"/>
<text text-anchor="middle" x="53.5" y="-34" font-family="Helvetica,sans-Serif" font-size="10.00">StdioStream::fgets</text>
</a>
</g>
</g>
<!-- Node2 -->
<g id="Node000002" class="node">
<title>Node2</title>
<g id="a_Node000002"><a xlink:href="../../da/d64/classStdioStream.xhtml#acdb0e26a73dae3dda8d07ed2a84fcdda" target="_top" xlink:title=" ">
<polygon fill="white" stroke="#666666" points="254,-46 143,-46 143,-27 254,-27 254,-46"/>
<text text-anchor="middle" x="198.5" y="-34" font-family="Helvetica,sans-Serif" font-size="10.00">StdioStream::fillBuf</text>
</a>
</g>
</g>
<!-- Node1&#45;&gt;Node2 -->
<g id="edge1_Node000001_Node000002" class="edge">
<title>Node1&#45;&gt;Node2</title>
<g id="a_edge1_Node000001_Node000002"><a xlink:title=" ">
<path fill="none" stroke="#63b8ff" d="M107.34,-36.5C115.6,-36.5 124.22,-36.5 132.7,-36.5"/>
<polygon fill="#63b8ff" stroke="#63b8ff" points="132.96,-40 142.96,-36.5 132.96,-33 132.96,-40"/>
</a>
</g>
</g>
<!-- Node3 -->
<g id="Node000003" class="node">
<title>Node3</title>
<g id="a_Node000003"><a xlink:href="../../da/d64/classStdioStream.xhtml#a525cecc51f31e964f7ef43b6cf6d8b38" target="_top" xlink:title=" ">
<polygon fill="white" stroke="#666666" points="412,-74 290,-74 290,-55 412,-55 412,-74"/>
<text text-anchor="middle" x="351" y="-62" font-family="Helvetica,sans-Serif" font-size="10.00">StdioStream::flushBuf</text>
</a>
</g>
</g>
<!-- Node2&#45;&gt;Node3 -->
<g id="edge2_Node000002_Node000003" class="edge">
<title>Node2&#45;&gt;Node3</title>
<g id="a_edge2_Node000002_Node000003"><a xlink:title=" ">
<path fill="none" stroke="#63b8ff" d="M250.87,-46.06C263.1,-48.33 276.27,-50.78 288.89,-53.13"/>
<polygon fill="#63b8ff" stroke="#63b8ff" points="288.39,-56.6 298.86,-54.99 289.67,-49.72 288.39,-56.6"/>
</a>
</g>
</g>
<!-- Node5 -->
<g id="Node000005" class="node">
<title>Node5</title>
<g id="a_Node000005"><a xlink:href="../../d3/db4/classFatFile.xhtml#a60ae55ff6fe158c2340071d702a363c5" target="_top" xlink:title=" ">
<polygon fill="white" stroke="#666666" points="389,-19 313,-19 313,0 389,0 389,-19"/>
<text text-anchor="middle" x="351" y="-7" font-family="Helvetica,sans-Serif" font-size="10.00">FatFile::read</text>
</a>
</g>
</g>
<!-- Node2&#45;&gt;Node5 -->
<g id="edge5_Node000002_Node000005" class="edge">
<title>Node2&#45;&gt;Node5</title>
<g id="a_edge5_Node000002_Node000005"><a xlink:title=" ">
<path fill="none" stroke="#63b8ff" d="M252.56,-26.98C268.94,-24.04 286.87,-20.83 302.83,-17.96"/>
<polygon fill="#63b8ff" stroke="#63b8ff" points="303.77,-21.35 312.99,-16.14 302.53,-14.46 303.77,-21.35"/>
</a>
</g>
</g>
<!-- Node4 -->
<g id="Node000004" class="node">
<title>Node4</title>
<g id="a_Node000004"><a xlink:href="../../d3/db4/classFatFile.xhtml#a081dd810835f1ebf8c23ffe92706b485" target="_top" xlink:title=" ">
<polygon fill="white" stroke="#666666" points="527,-74 448,-74 448,-55 527,-55 527,-74"/>
<text text-anchor="middle" x="487.5" y="-62" font-family="Helvetica,sans-Serif" font-size="10.00">FatFile::write</text>
</a>
</g>
</g>
<!-- Node3&#45;&gt;Node4 -->
<g id="edge3_Node000003_Node000004" class="edge">
<title>Node3&#45;&gt;Node4</title>
<g id="a_edge3_Node000003_Node000004"><a xlink:title=" ">
<path fill="none" stroke="#63b8ff" d="M412.17,-64.5C420.73,-64.5 429.44,-64.5 437.74,-64.5"/>
<polygon fill="#63b8ff" stroke="#63b8ff" points="438,-68 448,-64.5 438,-61 438,-68"/>
</a>
</g>
</g>
<!-- Node4&#45;&gt;Node4 -->
<g id="edge4_Node000004_Node000004" class="edge">
<title>Node4&#45;&gt;Node4</title>
<g id="a_edge4_Node000004_Node000004"><a xlink:title=" ">
<path fill="none" stroke="#63b8ff" d="M466.54,-74.08C456.34,-82.73 463.33,-92 487.5,-92 502.99,-92 511.42,-88.2 512.8,-83.19"/>
<polygon fill="#63b8ff" stroke="#63b8ff" points="515.92,-81.61 508.46,-74.08 509.6,-84.62 515.92,-81.61"/>
</a>
</g>
</g>
<!-- Node5&#45;&gt;Node5 -->
<g id="edge6_Node000005_Node000005" class="edge">
<title>Node5&#45;&gt;Node5</title>
<g id="a_edge6_Node000005_Node000005"><a xlink:title=" ">
<path fill="none" stroke="#63b8ff" d="M330.04,-19.08C319.84,-27.73 326.83,-37 351,-37 366.49,-37 374.92,-33.2 376.3,-28.19"/>
<polygon fill="#63b8ff" stroke="#63b8ff" points="379.42,-26.61 371.96,-19.08 373.1,-29.62 379.42,-26.61"/>
</a>
</g>
</g>
</g>
</svg>
