<?xml version="1.0" encoding="UTF-8" standalone="no"?>
<!DOCTYPE svg PUBLIC "-//W3C//DTD SVG 1.1//EN"
 "http://www.w3.org/Graphics/SVG/1.1/DTD/svg11.dtd">
<!-- Generated by graphviz version 2.43.0 (0)
 -->
<!-- Title: StdioStream::fwrite Pages: 1 -->
<svg width="534pt" height="45pt"
 viewBox="0.00 0.00 534.00 45.00" xmlns="http://www.w3.org/2000/svg" xmlns:xlink="http://www.w3.org/1999/xlink">
<g id="graph0" class="graph" transform="scale(1 1) rotate(0) translate(4 41)">
<title>StdioStream::fwrite</title>
<!-- Node1 -->
<g id="Node000001" class="node">
<title>Node1</title>
<g id="a_Node000001"><a xlink:title=" ">
<polygon fill="#999999" stroke="#666666" points="110,-19 0,-19 0,0 110,0 110,-19"/>
<text text-anchor="middle" x="55" y="-7" font-family="Helvetica,sans-Serif" font-size="10.00">StdioStream::fwrite</text>
</a>
</g>
</g>
<!-- Node2 -->
<g id="Node000002" class="node">
<title>Node2</title>
<g id="a_Node000002"><a xlink:href="../../da/d64/classStdioStream_ac1976bebf66840cc4c16f287d6f9ee79.xhtml#ac1976bebf66840cc4c16f287d6f9ee79" target="_top" xlink:title=" ">
<polygon fill="white" stroke="#666666" points="253,-19 146,-19 146,0 253,0 253,-19"/>
<text text-anchor="middle" x="199.5" y="-7" font-family="Helvetica,sans-Serif" font-size="10.00">StdioStream::write</text>
</a>
</g>
</g>
<!-- Node1&#45;&gt;Node2 -->
<g id="edge1_Node000001_Node000002" class="edge">
<title>Node1&#45;&gt;Node2</title>
<g id="a_edge1_Node000001_Node000002"><a xlink:title=" ">
<path fill="none" stroke="#63b8ff" d="M110.28,-9.5C118.56,-9.5 127.16,-9.5 135.6,-9.5"/>
<polygon fill="#63b8ff" stroke="#63b8ff" points="135.78,-13 145.78,-9.5 135.78,-6 135.78,-13"/>
</a>
</g>
</g>
<!-- Node3 -->
<g id="Node000003" class="node">
<title>Node3</title>
<g id="a_Node000003"><a xlink:href="../../da/d64/classStdioStream_a525cecc51f31e964f7ef43b6cf6d8b38.xhtml#a525cecc51f31e964f7ef43b6cf6d8b38" target="_top" xlink:title=" ">
<polygon fill="white" stroke="#666666" points="411,-19 289,-19 289,0 411,0 411,-19"/>
<text text-anchor="middle" x="350" y="-7" font-family="Helvetica,sans-Serif" font-size="10.00">StdioStream::flushBuf</text>
</a>
</g>
</g>
<!-- Node2&#45;&gt;Node3 -->
<g id="edge2_Node000002_Node000003" class="edge">
<title>Node2&#45;&gt;Node3</title>
<g id="a_edge2_Node000002_Node000003"><a xlink:title=" ">
<path fill="none" stroke="#63b8ff" d="M253.27,-9.5C261.54,-9.5 270.2,-9.5 278.79,-9.5"/>
<polygon fill="#63b8ff" stroke="#63b8ff" points="278.8,-13 288.8,-9.5 278.8,-6 278.8,-13"/>
</a>
</g>
</g>
<!-- Node4 -->
<g id="Node000004" class="node">
<title>Node4</title>
<g id="a_Node000004"><a xlink:href="../../d3/db4/classFatFile_a081dd810835f1ebf8c23ffe92706b485.xhtml#a081dd810835f1ebf8c23ffe92706b485" target="_top" xlink:title=" ">
<polygon fill="white" stroke="#666666" points="526,-19 447,-19 447,0 526,0 526,-19"/>
<text text-anchor="middle" x="486.5" y="-7" font-family="Helvetica,sans-Serif" font-size="10.00">FatFile::write</text>
</a>
</g>
</g>
<!-- Node3&#45;&gt;Node4 -->
<g id="edge3_Node000003_Node000004" class="edge">
<title>Node3&#45;&gt;Node4</title>
<g id="a_edge3_Node000003_Node000004"><a xlink:title=" ">
<path fill="none" stroke="#63b8ff" d="M411.17,-9.5C419.73,-9.5 428.44,-9.5 436.74,-9.5"/>
<polygon fill="#63b8ff" stroke="#63b8ff" points="437,-13 447,-9.5 437,-6 437,-13"/>
</a>
</g>
</g>
<!-- Node4&#45;&gt;Node4 -->
<g id="edge4_Node000004_Node000004" class="edge">
<title>Node4&#45;&gt;Node4</title>
<g id="a_edge4_Node000004_Node000004"><a xlink:title=" ">
<path fill="none" stroke="#63b8ff" d="M465.54,-19.08C455.34,-27.73 462.33,-37 486.5,-37 501.99,-37 510.42,-33.2 511.8,-28.19"/>
<polygon fill="#63b8ff" stroke="#63b8ff" points="514.92,-26.61 507.46,-19.08 508.6,-29.62 514.92,-26.61"/>
</a>
</g>
</g>
</g>
</svg>
