<?xml version="1.0" encoding="UTF-8" standalone="no"?>
<!DOCTYPE svg PUBLIC "-//W3C//DTD SVG 1.1//EN"
 "http://www.w3.org/Graphics/SVG/1.1/DTD/svg11.dtd">
<!-- Generated by graphviz version 2.43.0 (0)
 -->
<!-- Title: StdioStream::write Pages: 1 -->
<!--zoomable 175 -->

<svg id="main" version="1.1" xmlns="http://www.w3.org/2000/svg" xmlns:xlink="http://www.w3.org/1999/xlink" xml:space="preserve" onload="init(evt)">
<style type="text/css"><![CDATA[
.node, .edge {opacity: 0.7;}
.node.selected, .edge.selected {opacity: 1;}
.edge:hover path { stroke: red; }
.edge:hover polygon { stroke: red; fill: red; }
]]></style>

<defs>
  <circle id="rim" cx="0" cy="0" r="7"/>
  <circle id="rim2" cx="0" cy="0" r="3.5"/>
  <g id="zoomPlus">
    <use xlink:href="#rim" fill="#404040"><set attributeName="fill" to="#808080" begin="zoomplus.mouseover" end="zoomplus.mouseout"/></use>
    <path d="M-4,0h8M0,-4v8" fill="none" stroke="white" stroke-width="1.5" pointer-events="none"/>
  </g>
  <g id="zoomMin">
    <use xlink:href="#rim" fill="#404040"><set attributeName="fill" to="#808080" begin="zoomminus.mouseover" end="zoomminus.mouseout"/></use>
    <path d="M-4,0h8" fill="none" stroke="white" stroke-width="1.5" pointer-events="none"/>
  </g>
  <g id="arrowUp" transform="translate(30 24)">
    <use xlink:href="#rim"/>
    <path pointer-events="none" fill="none" stroke="white" stroke-width="1.5" d="M0,-3.0v7 M-2.5,-0.5L0,-3.0L2.5,-0.5"/>
  </g>
  <g id="arrowRight" transform="rotate(90) translate(36 -43)">
    <use xlink:href="#rim"/>
    <path pointer-events="none" fill="none" stroke="white" stroke-width="1.5" d="M0,-3.0v7 M-2.5,-0.5L0,-3.0L2.5,-0.5"/>
  </g>
  <g id="arrowDown" transform="rotate(180) translate(-30 -48)">
    <use xlink:href="#rim"/>
    <path pointer-events="none" fill="none" stroke="white" stroke-width="1.5" d="M0,-3.0v7 M-2.5,-0.5L0,-3.0L2.5,-0.5"/>
  </g>
  <g id="arrowLeft" transform="rotate(270) translate(-36 17)">
    <use xlink:href="#rim"/>
    <path pointer-events="none" fill="none" stroke="white" stroke-width="1.5" d="M0,-3.0v7 M-2.5,-0.5L0,-3.0L2.5,-0.5"/>
  </g>
  <g id="resetDef">
    <use xlink:href="#rim2" fill="#404040"><set attributeName="fill" to="#808080" begin="reset.mouseover" end="reset.mouseout"/></use>
  </g>
</defs>
<script type="application/ecmascript">
var viewWidth = 587;
var viewHeight = 175;
var sectionId = 'dynsection-1';
</script>
<script type="application/ecmascript" xlink:href="../../svg.min.js"/>
<svg id="graph" class="graph">
<g id="viewport">
<title>StdioStream::write</title>
<!-- Node1 -->
<g id="Node000001" class="node">
<title>Node1</title>
<g id="a_Node000001"><a xlink:title=" ">
<polygon fill="#999999" stroke="#666666" points="579,-93 472,-93 472,-74 579,-74 579,-93"/>
<text text-anchor="middle" x="525.5" y="-81" font-family="Helvetica,sans-Serif" font-size="10.00">StdioStream::write</text>
</a>
</g>
</g>
<!-- Node2 -->
<g id="Node000002" class="node">
<title>Node2</title>
<g id="a_Node000002"><a xlink:href="../../da/d64/classStdioStream_ad79465afb52579cbc801f4585c3f9c25.xhtml#ad79465afb52579cbc801f4585c3f9c25" target="_top" xlink:title=" ">
<polygon fill="white" stroke="#666666" points="428.5,-167 318.5,-167 318.5,-148 428.5,-148 428.5,-167"/>
<text text-anchor="middle" x="373.5" y="-155" font-family="Helvetica,sans-Serif" font-size="10.00">StdioStream::fwrite</text>
</a>
</g>
</g>
<!-- Node1&#45;&gt;Node2 -->
<g id="edge1_Node000001_Node000002" class="edge">
<title>Node1&#45;&gt;Node2</title>
<g id="a_edge1_Node000001_Node000002"><a xlink:title=" ">
<path fill="none" stroke="#63b8ff" d="M503.69,-99.03C486.33,-111.39 460.55,-128.41 436,-139.5 428.8,-142.75 420.87,-145.59 413.16,-147.98"/>
<polygon fill="#63b8ff" stroke="#63b8ff" points="505.91,-101.75 511.95,-93.05 501.8,-96.08 505.91,-101.75"/>
</a>
</g>
</g>
<!-- Node5 -->
<g id="Node000005" class="node">
<title>Node5</title>
<g id="a_Node000005"><a xlink:href="../../da/d64/classStdioStream_a6a09284b1c6d0769c27916a2e131e749.xhtml#a6a09284b1c6d0769c27916a2e131e749" target="_top" xlink:title=" ">
<polygon fill="white" stroke="#666666" points="435.5,-130 311.5,-130 311.5,-111 435.5,-111 435.5,-130"/>
<text text-anchor="middle" x="373.5" y="-118" font-family="Helvetica,sans-Serif" font-size="10.00">StdioStream::printDec</text>
</a>
</g>
</g>
<!-- Node1&#45;&gt;Node5 -->
<g id="edge4_Node000001_Node000005" class="edge">
<title>Node1&#45;&gt;Node5</title>
<g id="a_edge4_Node000001_Node000005"><a xlink:title=" ">
<path fill="none" stroke="#63b8ff" d="M476.16,-95.43C455.81,-100.44 432.45,-106.21 413.26,-110.94"/>
<polygon fill="#63b8ff" stroke="#63b8ff" points="477,-98.82 485.87,-93.03 475.32,-92.03 477,-98.82"/>
</a>
</g>
</g>
<!-- Node6 -->
<g id="Node000006" class="node">
<title>Node6</title>
<g id="a_Node000006"><a xlink:href="../../da/d64/classStdioStream_a90b2999af94a3578fff7579c2acf8e35.xhtml#a90b2999af94a3578fff7579c2acf8e35" target="_top" xlink:title=" ">
<polygon fill="white" stroke="#666666" points="435.5,-93 311.5,-93 311.5,-74 435.5,-74 435.5,-93"/>
<text text-anchor="middle" x="373.5" y="-81" font-family="Helvetica,sans-Serif" font-size="10.00">StdioStream::printDec</text>
</a>
</g>
</g>
<!-- Node1&#45;&gt;Node6 -->
<g id="edge5_Node000001_Node000006" class="edge">
<title>Node1&#45;&gt;Node6</title>
<g id="a_edge5_Node000001_Node000006"><a xlink:title=" ">
<path fill="none" stroke="#63b8ff" d="M461.36,-83.5C452.84,-83.5 444.11,-83.5 435.62,-83.5"/>
<polygon fill="#63b8ff" stroke="#63b8ff" points="461.62,-87 471.62,-83.5 461.62,-80 461.62,-87"/>
</a>
</g>
</g>
<!-- Node7 -->
<g id="Node000007" class="node">
<title>Node7</title>
<g id="a_Node000007"><a xlink:href="../../da/d64/classStdioStream_a8b6c2c80342abe45e6f564e9bd5bb7ea.xhtml#a8b6c2c80342abe45e6f564e9bd5bb7ea" target="_top" xlink:title=" ">
<polygon fill="white" stroke="#666666" points="435.5,-56 311.5,-56 311.5,-37 435.5,-37 435.5,-56"/>
<text text-anchor="middle" x="373.5" y="-44" font-family="Helvetica,sans-Serif" font-size="10.00">StdioStream::printDec</text>
</a>
</g>
</g>
<!-- Node1&#45;&gt;Node7 -->
<g id="edge6_Node000001_Node000007" class="edge">
<title>Node1&#45;&gt;Node7</title>
<g id="a_edge6_Node000001_Node000007"><a xlink:title=" ">
<path fill="none" stroke="#63b8ff" d="M476.16,-71.57C455.81,-66.56 432.45,-60.79 413.26,-56.06"/>
<polygon fill="#63b8ff" stroke="#63b8ff" points="475.32,-74.97 485.87,-73.97 477,-68.18 475.32,-74.97"/>
</a>
</g>
</g>
<!-- Node8 -->
<g id="Node000008" class="node">
<title>Node8</title>
<g id="a_Node000008"><a xlink:href="../../da/d64/classStdioStream_add39b2b4ec3daa7c8922e96ce5d368bc.xhtml#add39b2b4ec3daa7c8922e96ce5d368bc" target="_top" xlink:title=" ">
<polygon fill="white" stroke="#666666" points="436,-19 311,-19 311,0 436,0 436,-19"/>
<text text-anchor="middle" x="373.5" y="-7" font-family="Helvetica,sans-Serif" font-size="10.00">StdioStream::printHex</text>
</a>
</g>
</g>
<!-- Node1&#45;&gt;Node8 -->
<g id="edge7_Node000001_Node000008" class="edge">
<title>Node1&#45;&gt;Node8</title>
<g id="a_edge7_Node000001_Node000008"><a xlink:title=" ">
<path fill="none" stroke="#63b8ff" d="M503.69,-67.97C486.33,-55.61 460.55,-38.59 436,-27.5 428.8,-24.25 420.87,-21.41 413.16,-19.02"/>
<polygon fill="#63b8ff" stroke="#63b8ff" points="501.8,-70.92 511.95,-73.95 505.91,-65.25 501.8,-70.92"/>
</a>
</g>
</g>
<!-- Node3 -->
<g id="Node000003" class="node">
<title>Node3</title>
<g id="a_Node000003"><a xlink:href="../../da/d64/classStdioStream_a6adea52f55ef7d97cdb54e9e11fc2daa.xhtml#a6adea52f55ef7d97cdb54e9e11fc2daa" target="_top" xlink:title=" ">
<polygon fill="white" stroke="#666666" points="261.5,-167 154.5,-167 154.5,-148 261.5,-148 261.5,-167"/>
<text text-anchor="middle" x="208" y="-155" font-family="Helvetica,sans-Serif" font-size="10.00">StdioStream::fputs</text>
</a>
</g>
</g>
<!-- Node2&#45;&gt;Node3 -->
<g id="edge2_Node000002_Node000003" class="edge">
<title>Node2&#45;&gt;Node3</title>
<g id="a_edge2_Node000002_Node000003"><a xlink:title=" ">
<path fill="none" stroke="#63b8ff" d="M307.63,-157.5C292.33,-157.5 276.21,-157.5 261.54,-157.5"/>
<polygon fill="#63b8ff" stroke="#63b8ff" points="308.06,-161 318.06,-157.5 308.06,-154 308.06,-161"/>
</a>
</g>
</g>
<!-- Node4 -->
<g id="Node000004" class="node">
<title>Node4</title>
<g id="a_Node000004"><a xlink:href="../../da/d64/classStdioStream_a1158ea5f9bf041f21b1733b7811c9bb9.xhtml#a1158ea5f9bf041f21b1733b7811c9bb9" target="_top" xlink:title=" ">
<polygon fill="white" stroke="#666666" points="105,-167 0,-167 0,-148 105,-148 105,-167"/>
<text text-anchor="middle" x="52.5" y="-155" font-family="Helvetica,sans-Serif" font-size="10.00">StdioStream::print</text>
</a>
</g>
</g>
<!-- Node3&#45;&gt;Node4 -->
<g id="edge3_Node000003_Node000004" class="edge">
<title>Node3&#45;&gt;Node4</title>
<g id="a_edge3_Node000003_Node000004"><a xlink:title=" ">
<path fill="none" stroke="#63b8ff" d="M143.96,-157.5C131.04,-157.5 117.59,-157.5 105.13,-157.5"/>
<polygon fill="#63b8ff" stroke="#63b8ff" points="144.17,-161 154.17,-157.5 144.17,-154 144.17,-161"/>
</a>
</g>
</g>
<!-- Node9 -->
<g id="Node000009" class="node">
<title>Node9</title>
<g id="a_Node000009"><a xlink:href="../../da/d64/classStdioStream_aec6ebea511489b0ef6b61d9132d93af9.xhtml#aec6ebea511489b0ef6b61d9132d93af9" target="_top" xlink:title=" ">
<polygon fill="white" stroke="#666666" points="275,-19 141,-19 141,0 275,0 275,-19"/>
<text text-anchor="middle" x="208" y="-7" font-family="Helvetica,sans-Serif" font-size="10.00">StdioStream::printHexln</text>
</a>
</g>
</g>
<!-- Node8&#45;&gt;Node9 -->
<g id="edge8_Node000008_Node000009" class="edge">
<title>Node8&#45;&gt;Node9</title>
<g id="a_edge8_Node000008_Node000009"><a xlink:title=" ">
<path fill="none" stroke="#63b8ff" d="M300.53,-9.5C292.13,-9.5 283.59,-9.5 275.27,-9.5"/>
<polygon fill="#63b8ff" stroke="#63b8ff" points="300.69,-13 310.69,-9.5 300.69,-6 300.69,-13"/>
</a>
</g>
</g>
</g>
</svg>

<g id="navigator" transform="translate(0 0)" fill="#404254">
  <rect fill="#f2f5e9" fill-opacity="0.5" stroke="#606060" stroke-width=".5" x="0" y="0" width="60" height="60"/>
  <use id="zoomplus" xlink:href="#zoomPlus" x="17" y="9" onmousedown="handleZoom(evt,'in')"/>
  <use id="zoomminus" xlink:href="#zoomMin" x="42" y="9" onmousedown="handleZoom(evt,'out')"/>
  <use id="reset" xlink:href="#resetDef" x="30" y="36" onmousedown="handleReset()"/>
   <use id="arrowup" xlink:href="#arrowUp" x="0" y="0" onmousedown="handlePan(0,-1)"/>
  <use id="arrowright" xlink:href="#arrowRight" x="0" y="0" onmousedown="handlePan(1,0)"/>
  <use id="arrowdown" xlink:href="#arrowDown" x="0" y="0" onmousedown="handlePan(0,1)"/>
  <use id="arrowleft" xlink:href="#arrowLeft" x="0" y="0" onmousedown="handlePan(-1,0)"/>
</g>
<svg viewBox="0 0 15 15" width="100%" height="30px" preserveAspectRatio="xMaxYMin meet">
 <g id="arrow_out" transform="scale(0.3 0.3)">
  <a xlink:href="classStdioStream_ac1976bebf66840cc4c16f287d6f9ee79_ac1976bebf66840cc4c16f287d6f9ee79_icgraph_org.svg" target="_base">
   <rect id="button" ry="5" rx="5" y="6" x="6" height="38" width="38"
        fill="#f2f5e9" fill-opacity="0.5" stroke="#606060" stroke-width="1.0"/>
   <path id="arrow"
     d="M 11.500037,31.436501 C 11.940474,20.09759 22.043105,11.32322 32.158766,21.979434 L 37.068811,17.246167 C 37.068811,17.246167 37.088388,32 37.088388,32 L 22.160133,31.978069 C 22.160133,31.978069 26.997745,27.140456 26.997745,27.140456 C 18.528582,18.264221 13.291696,25.230495 11.500037,31.436501 z"
     style="fill:#404040;"/>
  </a>
 </g>
</svg>

<style type='text/css'>
<![CDATA[
[data-mouse-over-selected='false'] { opacity: 0.7; }
[data-mouse-over-selected='true']  { opacity: 1.0; }
]]>
</style>
<script type="application/ecmascript"><![CDATA[
document.addEventListener('DOMContentLoaded', (event) => {
  highlightEdges();
  highlightAdjacentNodes();
});
]]></script>
</svg>
