<?xml version="1.0" encoding="UTF-8" standalone="no"?>
<!DOCTYPE svg PUBLIC "-//W3C//DTD SVG 1.1//EN"
 "http://www.w3.org/Graphics/SVG/1.1/DTD/svg11.dtd">
<!-- Generated by graphviz version 2.43.0 (0)
 -->
<!-- Title: StdioStream::print Pages: 1 -->
<svg width="263pt" height="64pt"
 viewBox="0.00 0.00 263.00 64.00" xmlns="http://www.w3.org/2000/svg" xmlns:xlink="http://www.w3.org/1999/xlink">
<g id="graph0" class="graph" transform="scale(1 1) rotate(0) translate(4 60)">
<title>StdioStream::print</title>
<!-- Node1 -->
<g id="Node000001" class="node">
<title>Node1</title>
<g id="a_Node000001"><a xlink:title=" ">
<polygon fill="#999999" stroke="#666666" points="255,-37 150,-37 150,-18 255,-18 255,-37"/>
<text text-anchor="middle" x="202.5" y="-25" font-family="Helvetica,sans-Serif" font-size="10.00">StdioStream::print</text>
</a>
</g>
</g>
<!-- Node2 -->
<g id="Node000002" class="node">
<title>Node2</title>
<g id="a_Node000002"><a xlink:href="../../da/d64/classStdioStream.xhtml#a26f5b98560b6771225005b073166108b" target="_top" xlink:title=" ">
<polygon fill="white" stroke="#666666" points="109.5,-56 4.5,-56 4.5,-37 109.5,-37 109.5,-56"/>
<text text-anchor="middle" x="57" y="-44" font-family="Helvetica,sans-Serif" font-size="10.00">StdioStream::print</text>
</a>
</g>
</g>
<!-- Node1&#45;&gt;Node2 -->
<g id="edge1_Node000001_Node000002" class="edge">
<title>Node1&#45;&gt;Node2</title>
<g id="a_edge1_Node000001_Node000002"><a xlink:title=" ">
<path fill="none" stroke="#63b8ff" d="M139.48,-35.71C129.56,-37.03 119.38,-38.37 109.73,-39.65"/>
<polygon fill="#63b8ff" stroke="#63b8ff" points="140.24,-39.14 149.69,-34.36 139.32,-32.2 140.24,-39.14"/>
</a>
</g>
</g>
<!-- Node3 -->
<g id="Node000003" class="node">
<title>Node3</title>
<g id="a_Node000003"><a xlink:href="../../da/d64/classStdioStream.xhtml#a3b14532768d07e6ed89c762d04792c12" target="_top" xlink:title=" ">
<polygon fill="white" stroke="#666666" points="114,-19 0,-19 0,0 114,0 114,-19"/>
<text text-anchor="middle" x="57" y="-7" font-family="Helvetica,sans-Serif" font-size="10.00">StdioStream::println</text>
</a>
</g>
</g>
<!-- Node1&#45;&gt;Node3 -->
<g id="edge2_Node000001_Node000003" class="edge">
<title>Node1&#45;&gt;Node3</title>
<g id="a_edge2_Node000001_Node000003"><a xlink:title=" ">
<path fill="none" stroke="#63b8ff" d="M139.51,-19.72C131.06,-18.66 122.43,-17.58 114.1,-16.54"/>
<polygon fill="#63b8ff" stroke="#63b8ff" points="139.34,-23.23 149.69,-21 140.21,-16.28 139.34,-23.23"/>
</a>
</g>
</g>
</g>
</svg>
