<?xml version="1.0" encoding="UTF-8" standalone="no"?>
<!DOCTYPE svg PUBLIC "-//W3C//DTD SVG 1.1//EN"
 "http://www.w3.org/Graphics/SVG/1.1/DTD/svg11.dtd">
<!-- Generated by graphviz version 2.43.0 (0)
 -->
<!-- Title: digitalRead Pages: 1 -->
<svg width="623pt" height="140pt"
 viewBox="0.00 0.00 623.00 140.00" xmlns="http://www.w3.org/2000/svg" xmlns:xlink="http://www.w3.org/1999/xlink">
<g id="graph0" class="graph" transform="scale(1 1) rotate(0) translate(4 136)">
<title>digitalRead</title>
<!-- Node1 -->
<g id="Node000001" class="node">
<title>Node1</title>
<g id="a_Node000001"><a xlink:title=" ">
<polygon fill="#999999" stroke="#666666" points="615,-75 543,-75 543,-56 615,-56 615,-75"/>
<text text-anchor="middle" x="579" y="-63" font-family="Helvetica,sans-Serif" font-size="10.00">digitalRead</text>
</a>
</g>
</g>
<!-- Node2 -->
<g id="Node000002" class="node">
<title>Node2</title>
<g id="a_Node000002"><a xlink:href="../../d9/d52/buttons_8cpp.xhtml#a54d82e2e60914d150743dcfe6ddbbece" target="_top" xlink:title="Fonction appelée lors de l&#39;appui sur le bouton vert ou rouge.">
<polygon fill="white" stroke="#666666" points="504,-132 418,-132 418,-113 504,-113 504,-132"/>
<text text-anchor="middle" x="461" y="-120" font-family="Helvetica,sans-Serif" font-size="10.00">buttonPressed</text>
</a>
</g>
</g>
<!-- Node1&#45;&gt;Node2 -->
<g id="edge1_Node000001_Node000002" class="edge">
<title>Node1&#45;&gt;Node2</title>
<g id="a_edge1_Node000001_Node000002"><a xlink:title=" ">
<path fill="none" stroke="#63b8ff" d="M549.43,-79.54C528.3,-89.92 500.07,-103.79 481.48,-112.93"/>
<polygon fill="#63b8ff" stroke="#63b8ff" points="551.15,-82.59 558.58,-75.04 548.07,-76.31 551.15,-82.59"/>
</a>
</g>
</g>
<!-- Node4 -->
<g id="Node000004" class="node">
<title>Node4</title>
<g id="a_Node000004"><a xlink:href="../../de/dfb/src_2main_8cpp.xhtml#a4fc01d736fe50cf5b977f755b675f11d" target="_top" xlink:title=" ">
<polygon fill="white" stroke="#666666" points="165.5,-113 121.5,-113 121.5,-94 165.5,-94 165.5,-113"/>
<text text-anchor="middle" x="143.5" y="-101" font-family="Helvetica,sans-Serif" font-size="10.00">setup</text>
</a>
</g>
</g>
<!-- Node1&#45;&gt;Node4 -->
<g id="edge9_Node000001_Node000004" class="edge">
<title>Node1&#45;&gt;Node4</title>
<g id="a_edge9_Node000001_Node000004"><a xlink:title=" ">
<path fill="none" stroke="#63b8ff" d="M532.72,-69.47C440.21,-77.58 232.58,-95.78 165.7,-101.64"/>
<polygon fill="#63b8ff" stroke="#63b8ff" points="533.24,-72.94 542.89,-68.58 532.62,-65.96 533.24,-72.94"/>
</a>
</g>
</g>
<!-- Node6 -->
<g id="Node000006" class="node">
<title>Node6</title>
<g id="a_Node000006"><a xlink:href="../../d0/d46/group__digitalPin.xhtml#ga6a3da3dff38bded7a09020a222ec9ec7" target="_top" xlink:title=" ">
<polygon fill="white" stroke="#666666" points="507,-56 415,-56 415,-37 507,-37 507,-56"/>
<text text-anchor="middle" x="461" y="-44" font-family="Helvetica,sans-Serif" font-size="10.00">fastDigitalRead</text>
</a>
</g>
</g>
<!-- Node1&#45;&gt;Node6 -->
<g id="edge5_Node000001_Node000006" class="edge">
<title>Node1&#45;&gt;Node6</title>
<g id="a_edge5_Node000001_Node000006"><a xlink:title=" ">
<path fill="none" stroke="#63b8ff" d="M532.88,-58.11C524.48,-56.73 515.7,-55.3 507.3,-53.92"/>
<polygon fill="#63b8ff" stroke="#63b8ff" points="532.45,-61.59 542.88,-59.75 533.58,-54.68 532.45,-61.59"/>
</a>
</g>
</g>
<!-- Node10 -->
<g id="Node000010" class="node">
<title>Node10</title>
<g id="a_Node000010"><a xlink:href="../../dd/deb/wiring__shift_8c.xhtml#a1efecc975119046403adc60af645015d" target="_top" xlink:title=" ">
<polygon fill="white" stroke="#666666" points="484.5,-19 437.5,-19 437.5,0 484.5,0 484.5,-19"/>
<text text-anchor="middle" x="461" y="-7" font-family="Helvetica,sans-Serif" font-size="10.00">shiftIn</text>
</a>
</g>
</g>
<!-- Node1&#45;&gt;Node10 -->
<g id="edge10_Node000001_Node000010" class="edge">
<title>Node1&#45;&gt;Node10</title>
<g id="a_edge10_Node000001_Node000010"><a xlink:title=" ">
<path fill="none" stroke="#63b8ff" d="M552.29,-50.85C538.95,-43.48 522.3,-34.63 507,-27.5 499.83,-24.16 491.86,-20.85 484.64,-17.99"/>
<polygon fill="#63b8ff" stroke="#63b8ff" points="550.9,-54.08 561.34,-55.91 554.32,-47.97 550.9,-54.08"/>
</a>
</g>
</g>
<!-- Node3 -->
<g id="Node000003" class="node">
<title>Node3</title>
<g id="a_Node000003"><a xlink:href="../../d9/d52/buttons_8cpp.xhtml#a82677b3df6b653b673a4b1735af9d45d" target="_top" xlink:title="Initialise les interruptions sur les boutons.">
<polygon fill="white" stroke="#666666" points="368.5,-132 256.5,-132 256.5,-113 368.5,-113 368.5,-132"/>
<text text-anchor="middle" x="312.5" y="-120" font-family="Helvetica,sans-Serif" font-size="10.00">initButtonsInterrupt</text>
</a>
</g>
</g>
<!-- Node2&#45;&gt;Node3 -->
<g id="edge2_Node000002_Node000003" class="edge">
<title>Node2&#45;&gt;Node3</title>
<g id="a_edge2_Node000002_Node000003"><a xlink:title=" ">
<path fill="none" stroke="#63b8ff" d="M407.31,-122.5C394.74,-122.5 381.29,-122.5 368.61,-122.5"/>
<polygon fill="#63b8ff" stroke="#63b8ff" points="407.63,-126 417.63,-122.5 407.63,-119 407.63,-126"/>
</a>
</g>
</g>
<!-- Node3&#45;&gt;Node4 -->
<g id="edge3_Node000003_Node000004" class="edge">
<title>Node3&#45;&gt;Node4</title>
<g id="a_edge3_Node000003_Node000004"><a xlink:title=" ">
<path fill="none" stroke="#63b8ff" d="M246.38,-115.09C217.76,-111.84 186.11,-108.23 165.8,-105.92"/>
<polygon fill="#63b8ff" stroke="#63b8ff" points="246.02,-118.57 256.36,-116.23 246.81,-111.62 246.02,-118.57"/>
</a>
</g>
</g>
<!-- Node5 -->
<g id="Node000005" class="node">
<title>Node5</title>
<g id="a_Node000005"><a xlink:href="../../d2/d81/libs_2Arduino__AVR_2main_8cpp.xhtml#a840291bc02cba5474a4cb46a9b9566fe" target="_top" xlink:title=" ">
<polygon fill="white" stroke="#666666" points="41,-113 0,-113 0,-94 41,-94 41,-113"/>
<text text-anchor="middle" x="20.5" y="-101" font-family="Helvetica,sans-Serif" font-size="10.00">main</text>
</a>
</g>
</g>
<!-- Node4&#45;&gt;Node5 -->
<g id="edge4_Node000004_Node000005" class="edge">
<title>Node4&#45;&gt;Node5</title>
<g id="a_edge4_Node000004_Node000005"><a xlink:title=" ">
<path fill="none" stroke="#63b8ff" d="M111.18,-103.5C89.06,-103.5 60.08,-103.5 41.13,-103.5"/>
<polygon fill="#63b8ff" stroke="#63b8ff" points="111.42,-107 121.42,-103.5 111.42,-100 111.42,-107"/>
</a>
</g>
</g>
<!-- Node7 -->
<g id="Node000007" class="node">
<title>Node7</title>
<g id="a_Node000007"><a xlink:href="../../d8/d09/classDigitalPin.xhtml#a8db3de077c6fdc128f2a755ef44a4580" target="_top" xlink:title=" ">
<polygon fill="white" stroke="#666666" points="379,-56 246,-56 246,-37 379,-37 379,-56"/>
<text text-anchor="middle" x="312.5" y="-44" font-family="Helvetica,sans-Serif" font-size="10.00">DigitalPin::__attribute__</text>
</a>
</g>
</g>
<!-- Node6&#45;&gt;Node7 -->
<g id="edge6_Node000006_Node000007" class="edge">
<title>Node6&#45;&gt;Node7</title>
<g id="a_edge6_Node000006_Node000007"><a xlink:title=" ">
<path fill="none" stroke="#63b8ff" d="M404.57,-46.5C396.3,-46.5 387.7,-46.5 379.24,-46.5"/>
<polygon fill="#63b8ff" stroke="#63b8ff" points="404.85,-50 414.85,-46.5 404.85,-43 404.85,-50"/>
</a>
</g>
</g>
<!-- Node8 -->
<g id="Node000008" class="node">
<title>Node8</title>
<g id="a_Node000008"><a xlink:href="../../d0/d46/group__digitalPin.xhtml#gab94b2d5546c83bf3288ff5271406f07b" target="_top" xlink:title=" ">
<polygon fill="white" stroke="#666666" points="362,-19 263,-19 263,0 362,0 362,-19"/>
<text text-anchor="middle" x="312.5" y="-7" font-family="Helvetica,sans-Serif" font-size="10.00">fastDigitalToggle</text>
</a>
</g>
</g>
<!-- Node6&#45;&gt;Node8 -->
<g id="edge7_Node000006_Node000008" class="edge">
<title>Node6&#45;&gt;Node8</title>
<g id="a_edge7_Node000006_Node000008"><a xlink:title=" ">
<path fill="none" stroke="#63b8ff" d="M412.51,-34.51C392.7,-29.5 370.01,-23.77 351.35,-19.06"/>
<polygon fill="#63b8ff" stroke="#63b8ff" points="411.72,-37.92 422.27,-36.97 413.43,-31.13 411.72,-37.92"/>
</a>
</g>
</g>
<!-- Node9 -->
<g id="Node000009" class="node">
<title>Node9</title>
<g id="a_Node000009"><a xlink:href="../../d8/d09/classDigitalPin.xhtml#a2241ba366410e362e614e9e67c8c1c5a" target="_top" xlink:title=" ">
<polygon fill="white" stroke="#666666" points="210,-19 77,-19 77,0 210,0 210,-19"/>
<text text-anchor="middle" x="143.5" y="-7" font-family="Helvetica,sans-Serif" font-size="10.00">DigitalPin::__attribute__</text>
</a>
</g>
</g>
<!-- Node8&#45;&gt;Node9 -->
<g id="edge8_Node000008_Node000009" class="edge">
<title>Node8&#45;&gt;Node9</title>
<g id="a_edge8_Node000008_Node000009"><a xlink:title=" ">
<path fill="none" stroke="#63b8ff" d="M252.47,-9.5C238.75,-9.5 224.06,-9.5 210.08,-9.5"/>
<polygon fill="#63b8ff" stroke="#63b8ff" points="252.75,-13 262.75,-9.5 252.75,-6 252.75,-13"/>
</a>
</g>
</g>
</g>
</svg>
