<?xml version="1.0" encoding="UTF-8" standalone="no"?>
<!DOCTYPE svg PUBLIC "-//W3C//DTD SVG 1.1//EN"
 "http://www.w3.org/Graphics/SVG/1.1/DTD/svg11.dtd">
<!-- Generated by graphviz version 2.43.0 (0)
 -->
<!-- Title: BME280::BME280ReadS16LE Pages: 1 -->
<svg width="525pt" height="27pt"
 viewBox="0.00 0.00 525.00 27.00" xmlns="http://www.w3.org/2000/svg" xmlns:xlink="http://www.w3.org/1999/xlink">
<g id="graph0" class="graph" transform="scale(1 1) rotate(0) translate(4 23)">
<title>BME280::BME280ReadS16LE</title>
<!-- Node1 -->
<g id="Node000001" class="node">
<title>Node1</title>
<g id="a_Node000001"><a xlink:title=" ">
<polygon fill="#999999" stroke="#666666" points="156,-19 0,-19 0,0 156,0 156,-19"/>
<text text-anchor="middle" x="78" y="-7" font-family="Helvetica,sans-Serif" font-size="10.00">BME280::BME280ReadS16LE</text>
</a>
</g>
</g>
<!-- Node2 -->
<g id="Node000002" class="node">
<title>Node2</title>
<g id="a_Node000002"><a xlink:href="../../d6/d24/classBME280.xhtml#a6846cf01eac22e69dbf6516b1255d332" target="_top" xlink:title=" ">
<polygon fill="white" stroke="#666666" points="342,-19 192,-19 192,0 342,0 342,-19"/>
<text text-anchor="middle" x="267" y="-7" font-family="Helvetica,sans-Serif" font-size="10.00">BME280::BME280Read16LE</text>
</a>
</g>
</g>
<!-- Node1&#45;&gt;Node2 -->
<g id="edge1_Node000001_Node000002" class="edge">
<title>Node1&#45;&gt;Node2</title>
<g id="a_edge1_Node000001_Node000002"><a xlink:title=" ">
<path fill="none" stroke="#63b8ff" d="M156.14,-9.5C164.51,-9.5 173.06,-9.5 181.51,-9.5"/>
<polygon fill="#63b8ff" stroke="#63b8ff" points="181.75,-13 191.75,-9.5 181.75,-6 181.75,-13"/>
</a>
</g>
</g>
<!-- Node3 -->
<g id="Node000003" class="node">
<title>Node3</title>
<g id="a_Node000003"><a xlink:href="../../d6/d24/classBME280.xhtml#aa4fe8af66d6cd1cb5699ee359c71e190" target="_top" xlink:title=" ">
<polygon fill="white" stroke="#666666" points="517,-19 378,-19 378,0 517,0 517,-19"/>
<text text-anchor="middle" x="447.5" y="-7" font-family="Helvetica,sans-Serif" font-size="10.00">BME280::BME280Read16</text>
</a>
</g>
</g>
<!-- Node2&#45;&gt;Node3 -->
<g id="edge2_Node000002_Node000003" class="edge">
<title>Node2&#45;&gt;Node3</title>
<g id="a_edge2_Node000002_Node000003"><a xlink:title=" ">
<path fill="none" stroke="#63b8ff" d="M342.15,-9.5C350.53,-9.5 359.08,-9.5 367.52,-9.5"/>
<polygon fill="#63b8ff" stroke="#63b8ff" points="367.73,-13 377.73,-9.5 367.73,-6 367.73,-13"/>
</a>
</g>
</g>
</g>
</svg>
