<?xml version="1.0" encoding="UTF-8" standalone="no"?>
<!DOCTYPE svg PUBLIC "-//W3C//DTD SVG 1.1//EN"
 "http://www.w3.org/Graphics/SVG/1.1/DTD/svg11.dtd">
<!-- Generated by graphviz version 2.43.0 (0)
 -->
<!-- Title: BME280::init Pages: 1 -->
<svg width="639pt" height="161pt"
 viewBox="0.00 0.00 639.00 161.11" xmlns="http://www.w3.org/2000/svg" xmlns:xlink="http://www.w3.org/1999/xlink">
<g id="graph0" class="graph" transform="scale(1 1) rotate(0) translate(4 157.11)">
<title>BME280::init</title>
<!-- Node1 -->
<g id="Node000001" class="node">
<title>Node1</title>
<g id="a_Node000001"><a xlink:title=" ">
<polygon fill="#999999" stroke="#666666" points="78,-93 0,-93 0,-74 78,-74 78,-93"/>
<text text-anchor="middle" x="39" y="-81" font-family="Helvetica,sans-Serif" font-size="10.00">BME280::init</text>
</a>
</g>
</g>
<!-- Node2 -->
<g id="Node000002" class="node">
<title>Node2</title>
<g id="a_Node000002"><a xlink:href="../../d6/d24/classBME280.xhtml#a6846cf01eac22e69dbf6516b1255d332" target="_top" xlink:title=" ">
<polygon fill="white" stroke="#666666" points="456,-131 306,-131 306,-112 456,-112 456,-131"/>
<text text-anchor="middle" x="381" y="-119" font-family="Helvetica,sans-Serif" font-size="10.00">BME280::BME280Read16LE</text>
</a>
</g>
</g>
<!-- Node1&#45;&gt;Node2 -->
<g id="edge1_Node000001_Node000002" class="edge">
<title>Node1&#45;&gt;Node2</title>
<g id="a_edge1_Node000001_Node000002"><a xlink:title=" ">
<path fill="none" stroke="#63b8ff" d="M48.85,-93.39C61.66,-106.86 86.81,-130.37 114,-139.5 190.47,-165.17 286.09,-147.55 339.36,-133.68"/>
<polygon fill="#63b8ff" stroke="#63b8ff" points="340.36,-137.04 349.11,-131.06 338.54,-130.28 340.36,-137.04"/>
</a>
</g>
</g>
<!-- Node4 -->
<g id="Node000004" class="node">
<title>Node4</title>
<g id="a_Node000004"><a xlink:href="../../d6/d24/classBME280.xhtml#a266f0487e91104454224b14f689b6e55" target="_top" xlink:title=" ">
<polygon fill="white" stroke="#666666" points="258.5,-130 125.5,-130 125.5,-111 258.5,-111 258.5,-130"/>
<text text-anchor="middle" x="192" y="-118" font-family="Helvetica,sans-Serif" font-size="10.00">BME280::BME280Read8</text>
</a>
</g>
</g>
<!-- Node1&#45;&gt;Node4 -->
<g id="edge3_Node000001_Node000004" class="edge">
<title>Node1&#45;&gt;Node4</title>
<g id="a_edge3_Node000001_Node000004"><a xlink:title=" ">
<path fill="none" stroke="#63b8ff" d="M76.47,-93.03C88.42,-96.11 101.76,-99.5 114,-102.5 122.24,-104.52 130.99,-106.62 139.53,-108.63"/>
<polygon fill="#63b8ff" stroke="#63b8ff" points="138.87,-112.07 149.4,-110.95 140.47,-105.26 138.87,-112.07"/>
</a>
</g>
</g>
<!-- Node5 -->
<g id="Node000005" class="node">
<title>Node5</title>
<g id="a_Node000005"><a xlink:href="../../d6/d24/classBME280.xhtml#aad9d880a35154d473937450bc87152b0" target="_top" xlink:title=" ">
<polygon fill="white" stroke="#666666" points="270,-93 114,-93 114,-74 270,-74 270,-93"/>
<text text-anchor="middle" x="192" y="-81" font-family="Helvetica,sans-Serif" font-size="10.00">BME280::BME280ReadS16LE</text>
</a>
</g>
</g>
<!-- Node1&#45;&gt;Node5 -->
<g id="edge4_Node000001_Node000005" class="edge">
<title>Node1&#45;&gt;Node5</title>
<g id="a_edge4_Node000001_Node000005"><a xlink:title=" ">
<path fill="none" stroke="#63b8ff" d="M78.1,-83.5C86.04,-83.5 94.71,-83.5 103.61,-83.5"/>
<polygon fill="#63b8ff" stroke="#63b8ff" points="103.72,-87 113.72,-83.5 103.72,-80 103.72,-87"/>
</a>
</g>
</g>
<!-- Node6 -->
<g id="Node000006" class="node">
<title>Node6</title>
<g id="a_Node000006"><a xlink:href="../../d5/df3/wiring_8c.xhtml#a6bc5f943544a887f8b23cadfb26a5e30" target="_top" xlink:title=" ">
<polygon fill="white" stroke="#666666" points="214,-56 170,-56 170,-37 214,-37 214,-56"/>
<text text-anchor="middle" x="192" y="-44" font-family="Helvetica,sans-Serif" font-size="10.00">delay</text>
</a>
</g>
</g>
<!-- Node1&#45;&gt;Node6 -->
<g id="edge6_Node000001_Node000006" class="edge">
<title>Node1&#45;&gt;Node6</title>
<g id="a_edge6_Node000001_Node000006"><a xlink:title=" ">
<path fill="none" stroke="#63b8ff" d="M78.1,-74.16C103.37,-67.97 136.11,-59.95 159.83,-54.14"/>
<polygon fill="#63b8ff" stroke="#63b8ff" points="160.83,-57.5 169.71,-51.72 159.16,-50.7 160.83,-57.5"/>
</a>
</g>
</g>
<!-- Node9 -->
<g id="Node000009" class="node">
<title>Node9</title>
<g id="a_Node000009"><a xlink:href="../../d6/d24/classBME280.xhtml#a8d378248d5baa2cd07d9fd4be1386ff9" target="_top" xlink:title=" ">
<polygon fill="white" stroke="#666666" points="256,-19 128,-19 128,0 256,0 256,-19"/>
<text text-anchor="middle" x="192" y="-7" font-family="Helvetica,sans-Serif" font-size="10.00">BME280::writeRegister</text>
</a>
</g>
</g>
<!-- Node1&#45;&gt;Node9 -->
<g id="edge9_Node000001_Node000009" class="edge">
<title>Node1&#45;&gt;Node9</title>
<g id="a_edge9_Node000001_Node000009"><a xlink:title=" ">
<path fill="none" stroke="#63b8ff" d="M50.16,-73.84C63.67,-61.52 88.81,-40.38 114,-28.5 119.06,-26.11 124.45,-24.01 129.95,-22.15"/>
<polygon fill="#63b8ff" stroke="#63b8ff" points="131.37,-25.37 139.89,-19.07 129.3,-18.69 131.37,-25.37"/>
</a>
</g>
</g>
<!-- Node3 -->
<g id="Node000003" class="node">
<title>Node3</title>
<g id="a_Node000003"><a xlink:href="../../d6/d24/classBME280.xhtml#aa4fe8af66d6cd1cb5699ee359c71e190" target="_top" xlink:title=" ">
<polygon fill="white" stroke="#666666" points="631,-131 492,-131 492,-112 631,-112 631,-131"/>
<text text-anchor="middle" x="561.5" y="-119" font-family="Helvetica,sans-Serif" font-size="10.00">BME280::BME280Read16</text>
</a>
</g>
</g>
<!-- Node2&#45;&gt;Node3 -->
<g id="edge2_Node000002_Node000003" class="edge">
<title>Node2&#45;&gt;Node3</title>
<g id="a_edge2_Node000002_Node000003"><a xlink:title=" ">
<path fill="none" stroke="#63b8ff" d="M456.15,-121.5C464.53,-121.5 473.08,-121.5 481.52,-121.5"/>
<polygon fill="#63b8ff" stroke="#63b8ff" points="481.73,-125 491.73,-121.5 481.73,-118 481.73,-125"/>
</a>
</g>
</g>
<!-- Node5&#45;&gt;Node2 -->
<g id="edge5_Node000005_Node000002" class="edge">
<title>Node5&#45;&gt;Node2</title>
<g id="a_edge5_Node000005_Node000002"><a xlink:title=" ">
<path fill="none" stroke="#63b8ff" d="M240.19,-93.09C265.42,-98.22 296.67,-104.57 323.23,-109.96"/>
<polygon fill="#63b8ff" stroke="#63b8ff" points="322.65,-113.42 333.15,-111.98 324.05,-106.56 322.65,-113.42"/>
</a>
</g>
</g>
<!-- Node7 -->
<g id="Node000007" class="node">
<title>Node7</title>
<g id="a_Node000007"><a xlink:href="../../d5/df3/wiring_8c.xhtml#a8b24cbb7c3486e1bfa05c86db83ecb01" target="_top" xlink:title=" ">
<polygon fill="white" stroke="#666666" points="406,-75 356,-75 356,-56 406,-56 406,-75"/>
<text text-anchor="middle" x="381" y="-63" font-family="Helvetica,sans-Serif" font-size="10.00">micros</text>
</a>
</g>
</g>
<!-- Node6&#45;&gt;Node7 -->
<g id="edge7_Node000006_Node000007" class="edge">
<title>Node6&#45;&gt;Node7</title>
<g id="a_edge7_Node000006_Node000007"><a xlink:title=" ">
<path fill="none" stroke="#63b8ff" d="M214.09,-48.64C246.04,-51.89 307.07,-58.09 345.54,-62"/>
<polygon fill="#63b8ff" stroke="#63b8ff" points="345.45,-65.51 355.75,-63.04 346.15,-58.54 345.45,-65.51"/>
</a>
</g>
</g>
<!-- Node8 -->
<g id="Node000008" class="node">
<title>Node8</title>
<g id="a_Node000008"><a xlink:href="../../de/df0/Arduino_8h.xhtml#a7cb51f5c2b5cad3766f19eb69c92793b" target="_top" xlink:title=" ">
<polygon fill="white" stroke="#666666" points="401.5,-38 360.5,-38 360.5,-19 401.5,-19 401.5,-38"/>
<text text-anchor="middle" x="381" y="-26" font-family="Helvetica,sans-Serif" font-size="10.00">yield</text>
</a>
</g>
</g>
<!-- Node6&#45;&gt;Node8 -->
<g id="edge8_Node000006_Node000008" class="edge">
<title>Node6&#45;&gt;Node8</title>
<g id="a_edge8_Node000006_Node000008"><a xlink:title=" ">
<path fill="none" stroke="#63b8ff" d="M214.09,-44.47C247.3,-41.27 311.91,-35.05 349.96,-31.39"/>
<polygon fill="#63b8ff" stroke="#63b8ff" points="350.78,-34.83 360.4,-30.39 350.11,-27.86 350.78,-34.83"/>
</a>
</g>
</g>
</g>
</svg>
