<?xml version="1.0" encoding="UTF-8" standalone="no"?>
<!DOCTYPE svg PUBLIC "-//W3C//DTD SVG 1.1//EN"
 "http://www.w3.org/Graphics/SVG/1.1/DTD/svg11.dtd">
<!-- Generated by graphviz version 2.43.0 (0)
 -->
<!-- Title: cpplint.FileInfo.BaseName Pages: 1 -->
<svg width="685pt" height="27pt"
 viewBox="0.00 0.00 685.00 27.00" xmlns="http://www.w3.org/2000/svg" xmlns:xlink="http://www.w3.org/1999/xlink">
<g id="graph0" class="graph" transform="scale(1 1) rotate(0) translate(4 23)">
<title>cpplint.FileInfo.BaseName</title>
<!-- Node1 -->
<g id="Node000001" class="node">
<title>Node1</title>
<g id="a_Node000001"><a xlink:title=" ">
<polygon fill="#999999" stroke="#666666" points="145,-19 0,-19 0,0 145,0 145,-19"/>
<text text-anchor="middle" x="72.5" y="-7" font-family="Helvetica,sans-Serif" font-size="10.00">cpplint.FileInfo.BaseName</text>
</a>
</g>
</g>
<!-- Node2 -->
<g id="Node000002" class="node">
<title>Node2</title>
<g id="a_Node000002"><a xlink:href="../../d8/dfd/classcpplint_1_1FileInfo_a5e303a91249d059740177b183888e89a.xhtml#a5e303a91249d059740177b183888e89a" target="_top" xlink:title=" ">
<polygon fill="white" stroke="#666666" points="294,-19 181,-19 181,0 294,0 294,-19"/>
<text text-anchor="middle" x="237.5" y="-7" font-family="Helvetica,sans-Serif" font-size="10.00">cpplint.FileInfo.Split</text>
</a>
</g>
</g>
<!-- Node1&#45;&gt;Node2 -->
<g id="edge1_Node000001_Node000002" class="edge">
<title>Node1&#45;&gt;Node2</title>
<g id="a_edge1_Node000001_Node000002"><a xlink:title=" ">
<path fill="none" stroke="#63b8ff" d="M145.47,-9.5C153.74,-9.5 162.15,-9.5 170.35,-9.5"/>
<polygon fill="#63b8ff" stroke="#63b8ff" points="170.58,-13 180.58,-9.5 170.58,-6 170.58,-13"/>
</a>
</g>
</g>
<!-- Node3 -->
<g id="Node000003" class="node">
<title>Node3</title>
<g id="a_Node000003"><a xlink:href="../../d8/dfd/classcpplint_1_1FileInfo_a714480dc56e24fd965f3273edfb1b268.xhtml#a714480dc56e24fd965f3273edfb1b268" target="_top" xlink:title=" ">
<polygon fill="white" stroke="#666666" points="503,-19 330,-19 330,0 503,0 503,-19"/>
<text text-anchor="middle" x="416.5" y="-7" font-family="Helvetica,sans-Serif" font-size="10.00">cpplint.FileInfo.RepositoryName</text>
</a>
</g>
</g>
<!-- Node2&#45;&gt;Node3 -->
<g id="edge2_Node000002_Node000003" class="edge">
<title>Node2&#45;&gt;Node3</title>
<g id="a_edge2_Node000002_Node000003"><a xlink:title=" ">
<path fill="none" stroke="#63b8ff" d="M294.02,-9.5C302.18,-9.5 310.78,-9.5 319.47,-9.5"/>
<polygon fill="#63b8ff" stroke="#63b8ff" points="319.71,-13 329.71,-9.5 319.71,-6 319.71,-13"/>
</a>
</g>
</g>
<!-- Node4 -->
<g id="Node000004" class="node">
<title>Node4</title>
<g id="a_Node000004"><a xlink:href="../../d8/dfd/classcpplint_1_1FileInfo_a3e597152c0e09063f61a9fd82691991d.xhtml#a3e597152c0e09063f61a9fd82691991d" target="_top" xlink:title=" ">
<polygon fill="white" stroke="#666666" points="677,-19 539,-19 539,0 677,0 677,-19"/>
<text text-anchor="middle" x="608" y="-7" font-family="Helvetica,sans-Serif" font-size="10.00">cpplint.FileInfo.FullName</text>
</a>
</g>
</g>
<!-- Node3&#45;&gt;Node4 -->
<g id="edge3_Node000003_Node000004" class="edge">
<title>Node3&#45;&gt;Node4</title>
<g id="a_edge3_Node000003_Node000004"><a xlink:title=" ">
<path fill="none" stroke="#63b8ff" d="M503.1,-9.5C511.61,-9.5 520.22,-9.5 528.64,-9.5"/>
<polygon fill="#63b8ff" stroke="#63b8ff" points="528.82,-13 538.82,-9.5 528.82,-6 528.82,-13"/>
</a>
</g>
</g>
</g>
</svg>
