<?xml version="1.0" encoding="UTF-8" standalone="no"?>
<!DOCTYPE svg PUBLIC "-//W3C//DTD SVG 1.1//EN"
 "http://www.w3.org/Graphics/SVG/1.1/DTD/svg11.dtd">
<!-- Generated by graphviz version 2.43.0 (0)
 -->
<!-- Title: temperature.hpp Pages: 1 -->
<!--zoomable 412 -->

<svg id="main" version="1.1" xmlns="http://www.w3.org/2000/svg" xmlns:xlink="http://www.w3.org/1999/xlink" xml:space="preserve" onload="init(evt)">
<style type="text/css"><![CDATA[
.node, .edge {opacity: 0.7;}
.node.selected, .edge.selected {opacity: 1;}
.edge:hover path { stroke: red; }
.edge:hover polygon { stroke: red; fill: red; }
]]></style>

<defs>
  <circle id="rim" cx="0" cy="0" r="7"/>
  <circle id="rim2" cx="0" cy="0" r="3.5"/>
  <g id="zoomPlus">
    <use xlink:href="#rim" fill="#404040"><set attributeName="fill" to="#808080" begin="zoomplus.mouseover" end="zoomplus.mouseout"/></use>
    <path d="M-4,0h8M0,-4v8" fill="none" stroke="white" stroke-width="1.5" pointer-events="none"/>
  </g>
  <g id="zoomMin">
    <use xlink:href="#rim" fill="#404040"><set attributeName="fill" to="#808080" begin="zoomminus.mouseover" end="zoomminus.mouseout"/></use>
    <path d="M-4,0h8" fill="none" stroke="white" stroke-width="1.5" pointer-events="none"/>
  </g>
  <g id="arrowUp" transform="translate(30 24)">
    <use xlink:href="#rim"/>
    <path pointer-events="none" fill="none" stroke="white" stroke-width="1.5" d="M0,-3.0v7 M-2.5,-0.5L0,-3.0L2.5,-0.5"/>
  </g>
  <g id="arrowRight" transform="rotate(90) translate(36 -43)">
    <use xlink:href="#rim"/>
    <path pointer-events="none" fill="none" stroke="white" stroke-width="1.5" d="M0,-3.0v7 M-2.5,-0.5L0,-3.0L2.5,-0.5"/>
  </g>
  <g id="arrowDown" transform="rotate(180) translate(-30 -48)">
    <use xlink:href="#rim"/>
    <path pointer-events="none" fill="none" stroke="white" stroke-width="1.5" d="M0,-3.0v7 M-2.5,-0.5L0,-3.0L2.5,-0.5"/>
  </g>
  <g id="arrowLeft" transform="rotate(270) translate(-36 17)">
    <use xlink:href="#rim"/>
    <path pointer-events="none" fill="none" stroke="white" stroke-width="1.5" d="M0,-3.0v7 M-2.5,-0.5L0,-3.0L2.5,-0.5"/>
  </g>
  <g id="resetDef">
    <use xlink:href="#rim2" fill="#404040"><set attributeName="fill" to="#808080" begin="reset.mouseover" end="reset.mouseout"/></use>
  </g>
</defs>
<script type="application/ecmascript">
var viewWidth = 1349;
var viewHeight = 412;
var sectionId = 'dynsection-1';
</script>
<script type="application/ecmascript" xlink:href="../../svg.min.js"/>
<svg id="graph" class="graph">
<g id="viewport">
<title>temperature.hpp</title>
<!-- Node1 -->
<g id="Node000001" class="node">
<title>Node1</title>
<g id="a_Node000001"><a xlink:title=" ">
<polygon fill="#999999" stroke="#666666" points="990.45,-404 892.45,-404 892.45,-385 990.45,-385 990.45,-404"/>
<text text-anchor="middle" x="941.45" y="-392" font-family="Helvetica,sans-Serif" font-size="10.00">temperature.hpp</text>
</a>
</g>
</g>
<!-- Node2 -->
<g id="Node000002" class="node">
<title>Node2</title>
<g id="a_Node000002"><a xlink:href="../../d0/d00/main_8hpp.xhtml" target="_top" xlink:title=" ">
<polygon fill="white" stroke="#666666" points="699.45,-349 637.45,-349 637.45,-330 699.45,-330 699.45,-349"/>
<text text-anchor="middle" x="668.45" y="-337" font-family="Helvetica,sans-Serif" font-size="10.00">main.hpp</text>
</a>
</g>
</g>
<!-- Node1&#45;&gt;Node2 -->
<g id="edge1_Node000001_Node000002" class="edge">
<title>Node1&#45;&gt;Node2</title>
<g id="a_edge1_Node000001_Node000002"><a xlink:title=" ">
<path fill="none" stroke="#63b8ff" d="M882.3,-383.08C826.15,-372.55 744.05,-356.56 699.61,-347.47"/>
<polygon fill="#63b8ff" stroke="#63b8ff" points="882,-386.59 892.47,-384.98 883.28,-379.71 882,-386.59"/>
</a>
</g>
</g>
<!-- Node38 -->
<g id="Node000038" class="node">
<title>Node38</title>
<g id="a_Node000038"><a xlink:href="../../d0/d3d/temperature_8cpp.xhtml" target="_top" xlink:title=" ">
<polygon fill="white" stroke="#666666" points="1341.45,-349 1243.45,-349 1243.45,-330 1341.45,-330 1341.45,-349"/>
<text text-anchor="middle" x="1292.45" y="-337" font-family="Helvetica,sans-Serif" font-size="10.00">temperature.cpp</text>
</a>
</g>
</g>
<!-- Node1&#45;&gt;Node38 -->
<g id="edge60_Node000001_Node000038" class="edge">
<title>Node1&#45;&gt;Node38</title>
<g id="a_edge60_Node000001_Node000038"><a xlink:title=" ">
<path fill="none" stroke="#63b8ff" d="M1000.78,-384.54C1069,-374.24 1179.73,-357.52 1243.32,-347.92"/>
<polygon fill="#63b8ff" stroke="#63b8ff" points="999.99,-381.12 990.62,-386.07 1001.03,-388.04 999.99,-381.12"/>
</a>
</g>
</g>
<!-- Node2&#45;&gt;Node1 -->
<g id="edge59_Node000002_Node000001" class="edge">
<title>Node2&#45;&gt;Node1</title>
<g id="a_edge59_Node000002_Node000001"><a xlink:title=" ">
<path fill="none" stroke="#63b8ff" d="M709.4,-347.53C761.74,-357.2 851.44,-374.59 902.7,-384.98"/>
<polygon fill="#63b8ff" stroke="#63b8ff" points="709.92,-344.06 699.45,-345.7 708.66,-350.95 709.92,-344.06"/>
</a>
</g>
</g>
<!-- Node3 -->
<g id="Node000003" class="node">
<title>Node3</title>
<g id="a_Node000003"><a xlink:href="../../db/d0c/acquisition_8hpp.xhtml" target="_top" xlink:title=" ">
<polygon fill="white" stroke="#666666" points="201.95,-294 110.95,-294 110.95,-275 201.95,-275 201.95,-294"/>
<text text-anchor="middle" x="156.45" y="-282" font-family="Helvetica,sans-Serif" font-size="10.00">acquisition.hpp</text>
</a>
</g>
</g>
<!-- Node2&#45;&gt;Node3 -->
<g id="edge2_Node000002_Node000003" class="edge">
<title>Node2&#45;&gt;Node3</title>
<g id="a_edge2_Node000002_Node000003"><a xlink:title=" ">
<path fill="none" stroke="#63b8ff" d="M627.35,-335.04C547.87,-328.23 367.61,-312.14 216.45,-294 211.74,-293.44 206.84,-292.81 201.96,-292.15"/>
<polygon fill="#63b8ff" stroke="#63b8ff" points="627.17,-338.54 637.43,-335.91 627.77,-331.57 627.17,-338.54"/>
</a>
</g>
</g>
<!-- Node5 -->
<g id="Node000005" class="node">
<title>Node5</title>
<g id="a_Node000005"><a xlink:href="../../d8/dc9/maintenance_8hpp.xhtml" target="_top" xlink:title=" ">
<polygon fill="white" stroke="#666666" points="151.95,-184 50.95,-184 50.95,-165 151.95,-165 151.95,-184"/>
<text text-anchor="middle" x="101.45" y="-172" font-family="Helvetica,sans-Serif" font-size="10.00">maintenance.hpp</text>
</a>
</g>
</g>
<!-- Node2&#45;&gt;Node5 -->
<g id="edge44_Node000002_Node000005" class="edge">
<title>Node2&#45;&gt;Node5</title>
<g id="a_edge44_Node000002_Node000005"><a xlink:title=" ">
<path fill="none" stroke="#63b8ff" d="M627.1,-337.93C512.09,-335.87 191.17,-327.12 92.45,-294 44.64,-277.96 -19.77,-263.08 6.45,-220 17.54,-201.76 38.8,-190.67 58.49,-184.12"/>
<polygon fill="#63b8ff" stroke="#63b8ff" points="627.2,-341.43 637.26,-338.1 627.32,-334.43 627.2,-341.43"/>
</a>
</g>
</g>
<!-- Node7 -->
<g id="Node000007" class="node">
<title>Node7</title>
<g id="a_Node000007"><a xlink:href="../../d5/d98/sd_8hpp.xhtml" target="_top" xlink:title=" ">
<polygon fill="white" stroke="#666666" points="257.95,-239 208.95,-239 208.95,-220 257.95,-220 257.95,-239"/>
<text text-anchor="middle" x="233.45" y="-227" font-family="Helvetica,sans-Serif" font-size="10.00">sd.hpp</text>
</a>
</g>
</g>
<!-- Node2&#45;&gt;Node7 -->
<g id="edge56_Node000002_Node000007" class="edge">
<title>Node2&#45;&gt;Node7</title>
<g id="a_edge56_Node000002_Node000007"><a xlink:title=" ">
<path fill="none" stroke="#63b8ff" d="M626.97,-338.4C535.9,-337.54 322.57,-331.56 263.45,-294 243.13,-281.1 231.75,-253.42 230.49,-239.25"/>
<polygon fill="#63b8ff" stroke="#63b8ff" points="627.16,-341.9 637.19,-338.48 627.22,-334.9 627.16,-341.9"/>
</a>
</g>
</g>
<!-- Node9 -->
<g id="Node000009" class="node">
<title>Node9</title>
<g id="a_Node000009"><a xlink:href="../../df/d04/standard_8hpp.xhtml" target="_top" xlink:title=" ">
<polygon fill="white" stroke="#666666" points="335.45,-129 255.45,-129 255.45,-110 335.45,-110 335.45,-129"/>
<text text-anchor="middle" x="295.45" y="-117" font-family="Helvetica,sans-Serif" font-size="10.00">standard.hpp</text>
</a>
</g>
</g>
<!-- Node2&#45;&gt;Node9 -->
<g id="edge58_Node000002_Node000009" class="edge">
<title>Node2&#45;&gt;Node9</title>
<g id="a_edge58_Node000002_Node000009"><a xlink:title=" ">
<path fill="none" stroke="#63b8ff" d="M627.17,-336.13C554.48,-331.14 407.71,-317.96 363.45,-294 300.85,-260.12 289.07,-159.89 292.32,-129.4"/>
<polygon fill="#63b8ff" stroke="#63b8ff" points="627.13,-339.64 637.34,-336.81 627.6,-332.65 627.13,-339.64"/>
</a>
</g>
</g>
<!-- Node11 -->
<g id="Node000011" class="node">
<title>Node11</title>
<g id="a_Node000011"><a xlink:href="../../de/d53/brightness_8hpp.xhtml" target="_top" xlink:title=" ">
<polygon fill="white" stroke="#666666" points="832.95,-294 743.95,-294 743.95,-275 832.95,-275 832.95,-294"/>
<text text-anchor="middle" x="788.45" y="-282" font-family="Helvetica,sans-Serif" font-size="10.00">brightness.hpp</text>
</a>
</g>
</g>
<!-- Node2&#45;&gt;Node11 -->
<g id="edge14_Node000002_Node000011" class="edge">
<title>Node2&#45;&gt;Node11</title>
<g id="a_edge14_Node000002_Node000011"><a xlink:title=" ">
<path fill="none" stroke="#63b8ff" d="M691.69,-325.63C712.44,-315.87 742.47,-302.71 763.67,-294.17"/>
<polygon fill="#63b8ff" stroke="#63b8ff" points="690.12,-322.51 682.61,-329.98 693.14,-328.82 690.12,-322.51"/>
</a>
</g>
</g>
<!-- Node13 -->
<g id="Node000013" class="node">
<title>Node13</title>
<g id="a_Node000013"><a xlink:href="../../dc/d0a/configuration_8hpp.xhtml" target="_top" xlink:title=" ">
<polygon fill="white" stroke="#666666" points="1031.95,-294 930.95,-294 930.95,-275 1031.95,-275 1031.95,-294"/>
<text text-anchor="middle" x="981.45" y="-282" font-family="Helvetica,sans-Serif" font-size="10.00">configuration.hpp</text>
</a>
</g>
</g>
<!-- Node2&#45;&gt;Node13 -->
<g id="edge17_Node000002_Node000013" class="edge">
<title>Node2&#45;&gt;Node13</title>
<g id="a_edge17_Node000002_Node000013"><a xlink:title=" ">
<path fill="none" stroke="#63b8ff" d="M709.66,-330.68C766.67,-320.62 869.25,-303.25 930.83,-293.23"/>
<polygon fill="#63b8ff" stroke="#63b8ff" points="708.8,-327.28 699.57,-332.47 710.02,-334.17 708.8,-327.28"/>
</a>
</g>
</g>
<!-- Node15 -->
<g id="Node000015" class="node">
<title>Node15</title>
<g id="a_Node000015"><a xlink:href="../../d0/d42/economy_8hpp.xhtml" target="_top" xlink:title=" ">
<polygon fill="white" stroke="#666666" points="1130.95,-294 1049.95,-294 1049.95,-275 1130.95,-275 1130.95,-294"/>
<text text-anchor="middle" x="1090.45" y="-282" font-family="Helvetica,sans-Serif" font-size="10.00">economy.hpp</text>
</a>
</g>
</g>
<!-- Node2&#45;&gt;Node15 -->
<g id="edge20_Node000002_Node000015" class="edge">
<title>Node2&#45;&gt;Node15</title>
<g id="a_edge20_Node000002_Node000015"><a xlink:title=" ">
<path fill="none" stroke="#63b8ff" d="M710.03,-333.66C777.81,-326.23 915.76,-311.07 1032.45,-294 1038,-293.19 1043.89,-292.24 1049.74,-291.28"/>
<polygon fill="#63b8ff" stroke="#63b8ff" points="709.33,-330.21 699.77,-334.78 710.09,-337.17 709.33,-330.21"/>
</a>
</g>
</g>
<!-- Node17 -->
<g id="Node000017" class="node">
<title>Node17</title>
<g id="a_Node000017"><a xlink:href="../../de/d1e/humidity_8hpp.xhtml" target="_top" xlink:title=" ">
<polygon fill="white" stroke="#666666" points="735.45,-74 655.45,-74 655.45,-55 735.45,-55 735.45,-74"/>
<text text-anchor="middle" x="695.45" y="-62" font-family="Helvetica,sans-Serif" font-size="10.00">humidity.hpp</text>
</a>
</g>
</g>
<!-- Node2&#45;&gt;Node17 -->
<g id="edge23_Node000002_Node000017" class="edge">
<title>Node2&#45;&gt;Node17</title>
<g id="a_edge23_Node000002_Node000017"><a xlink:title=" ">
<path fill="none" stroke="#63b8ff" d="M666.67,-319.51C667.55,-265.44 683.08,-112.11 692.03,-74.11"/>
<polygon fill="#63b8ff" stroke="#63b8ff" points="663.17,-319.74 666.72,-329.73 670.17,-319.71 663.17,-319.74"/>
</a>
</g>
</g>
<!-- Node19 -->
<g id="Node000019" class="node">
<title>Node19</title>
<g id="a_Node000019"><a xlink:href="../../db/d42/interpreter_8hpp.xhtml" target="_top" xlink:title=" ">
<polygon fill="white" stroke="#666666" points="470.95,-294 381.95,-294 381.95,-275 470.95,-275 470.95,-294"/>
<text text-anchor="middle" x="426.45" y="-282" font-family="Helvetica,sans-Serif" font-size="10.00">interpreter.hpp</text>
</a>
</g>
</g>
<!-- Node2&#45;&gt;Node19 -->
<g id="edge26_Node000002_Node000019" class="edge">
<title>Node2&#45;&gt;Node19</title>
<g id="a_edge26_Node000002_Node000019"><a xlink:title=" ">
<path fill="none" stroke="#63b8ff" d="M627.53,-329.54C582.29,-319.63 509.94,-303.79 465.47,-294.05"/>
<polygon fill="#63b8ff" stroke="#63b8ff" points="626.79,-332.96 637.3,-331.68 628.28,-326.12 626.79,-332.96"/>
</a>
</g>
</g>
<!-- Node21 -->
<g id="Node000021" class="node">
<title>Node21</title>
<g id="a_Node000021"><a xlink:href="../../d1/dc5/serial_8hpp.xhtml" target="_top" xlink:title=" ">
<polygon fill="white" stroke="#666666" points="503.95,-239 438.95,-239 438.95,-220 503.95,-220 503.95,-239"/>
<text text-anchor="middle" x="471.45" y="-227" font-family="Helvetica,sans-Serif" font-size="10.00">serial.hpp</text>
</a>
</g>
</g>
<!-- Node2&#45;&gt;Node21 -->
<g id="edge57_Node000002_Node000021" class="edge">
<title>Node2&#45;&gt;Node21</title>
<g id="a_edge57_Node000002_Node000021"><a xlink:title=" ">
<path fill="none" stroke="#63b8ff" d="M627.34,-327.94C602.35,-320.52 570.37,-309.2 544.45,-294 517.78,-278.37 491.74,-252.4 479.19,-239.03"/>
<polygon fill="#63b8ff" stroke="#63b8ff" points="626.66,-331.38 637.24,-330.78 628.59,-324.66 626.66,-331.38"/>
</a>
</g>
</g>
<!-- Node25 -->
<g id="Node000025" class="node">
<title>Node25</title>
<g id="a_Node000025"><a xlink:href="../../d5/ddb/pressure_8hpp.xhtml" target="_top" xlink:title=" ">
<polygon fill="white" stroke="#666666" points="1208.45,-74 1128.45,-74 1128.45,-55 1208.45,-55 1208.45,-74"/>
<text text-anchor="middle" x="1168.45" y="-62" font-family="Helvetica,sans-Serif" font-size="10.00">pressure.hpp</text>
</a>
</g>
</g>
<!-- Node2&#45;&gt;Node25 -->
<g id="edge55_Node000002_Node000025" class="edge">
<title>Node2&#45;&gt;Node25</title>
<g id="a_edge55_Node000002_Node000025"><a xlink:title=" ">
<path fill="none" stroke="#63b8ff" d="M709.6,-336.81C816.68,-332.29 1097.32,-318.61 1131.45,-294 1156.46,-275.96 1159.45,-261.34 1159.45,-230.5 1159.45,-230.5 1159.45,-230.5 1159.45,-173.5 1159.45,-136.56 1159.45,-92.52 1163.55,-74.18"/>
<polygon fill="#63b8ff" stroke="#63b8ff" points="709.34,-333.31 699.5,-337.23 709.63,-340.31 709.34,-333.31"/>
</a>
</g>
</g>
<!-- Node31 -->
<g id="Node000031" class="node">
<title>Node31</title>
<g id="a_Node000031"><a xlink:href="../../de/dfb/src_2main_8cpp.xhtml" target="_top" xlink:title=" ">
<polygon fill="white" stroke="#666666" points="912.45,-294 850.45,-294 850.45,-275 912.45,-275 912.45,-294"/>
<text text-anchor="middle" x="881.45" y="-282" font-family="Helvetica,sans-Serif" font-size="10.00">main.cpp</text>
</a>
</g>
</g>
<!-- Node2&#45;&gt;Node31 -->
<g id="edge43_Node000002_Node000031" class="edge">
<title>Node2&#45;&gt;Node31</title>
<g id="a_edge43_Node000002_Node000031"><a xlink:title=" ">
<path fill="none" stroke="#63b8ff" d="M709.59,-328.26C750.71,-318.03 813.02,-302.53 850.23,-293.27"/>
<polygon fill="#63b8ff" stroke="#63b8ff" points="708.73,-324.87 699.87,-330.68 710.42,-331.66 708.73,-324.87"/>
</a>
</g>
</g>
<!-- Node32 -->
<g id="Node000032" class="node">
<title>Node32</title>
<g id="a_Node000032"><a xlink:href="../../d1/dfa/mode_8hpp.xhtml" target="_top" xlink:title=" ">
<polygon fill="white" stroke="#666666" points="630.95,-294 565.95,-294 565.95,-275 630.95,-275 630.95,-294"/>
<text text-anchor="middle" x="598.45" y="-282" font-family="Helvetica,sans-Serif" font-size="10.00">mode.hpp</text>
</a>
</g>
</g>
<!-- Node2&#45;&gt;Node32 -->
<g id="edge45_Node000002_Node000032" class="edge">
<title>Node2&#45;&gt;Node32</title>
<g id="a_edge45_Node000002_Node000032"><a xlink:title=" ">
<path fill="none" stroke="#63b8ff" d="M643.42,-324.15C629.62,-314.57 613.71,-302.29 604.75,-294.17"/>
<polygon fill="#63b8ff" stroke="#63b8ff" points="641.83,-327.3 652.08,-329.98 645.74,-321.5 641.83,-327.3"/>
</a>
</g>
</g>
<!-- Node4 -->
<g id="Node000004" class="node">
<title>Node4</title>
<g id="a_Node000004"><a xlink:href="../../d6/d30/acquisition_8cpp.xhtml" target="_top" xlink:title=" ">
<polygon fill="white" stroke="#666666" points="114.45,-239 24.45,-239 24.45,-220 114.45,-220 114.45,-239"/>
<text text-anchor="middle" x="69.45" y="-227" font-family="Helvetica,sans-Serif" font-size="10.00">acquisition.cpp</text>
</a>
</g>
</g>
<!-- Node3&#45;&gt;Node4 -->
<g id="edge3_Node000003_Node000004" class="edge">
<title>Node3&#45;&gt;Node4</title>
<g id="a_edge3_Node000003_Node000004"><a xlink:title=" ">
<path fill="none" stroke="#63b8ff" d="M133.79,-269.7C117.94,-260.04 97.26,-247.44 83.68,-239.17"/>
<polygon fill="#63b8ff" stroke="#63b8ff" points="132.11,-272.77 142.47,-274.98 135.75,-266.79 132.11,-272.77"/>
</a>
</g>
</g>
<!-- Node3&#45;&gt;Node5 -->
<g id="edge4_Node000003_Node000005" class="edge">
<title>Node3&#45;&gt;Node5</title>
<g id="a_edge4_Node000003_Node000005"><a xlink:title=" ">
<path fill="none" stroke="#63b8ff" d="M147.25,-265.44C135.27,-241.92 114.81,-201.73 105.85,-184.16"/>
<polygon fill="#63b8ff" stroke="#63b8ff" points="144.29,-267.34 151.94,-274.66 150.53,-264.16 144.29,-267.34"/>
</a>
</g>
</g>
<!-- Node3&#45;&gt;Node7 -->
<g id="edge7_Node000003_Node000007" class="edge">
<title>Node3&#45;&gt;Node7</title>
<g id="a_edge7_Node000003_Node000007"><a xlink:title=" ">
<path fill="none" stroke="#63b8ff" d="M177.29,-269.15C191.21,-259.57 209.05,-247.29 220.85,-239.17"/>
<polygon fill="#63b8ff" stroke="#63b8ff" points="175.07,-266.43 168.82,-274.98 179.04,-272.2 175.07,-266.43"/>
</a>
</g>
</g>
<!-- Node3&#45;&gt;Node9 -->
<g id="edge11_Node000003_Node000009" class="edge">
<title>Node3&#45;&gt;Node9</title>
<g id="a_edge11_Node000003_Node000009"><a xlink:title=" ">
<path fill="none" stroke="#63b8ff" d="M158.92,-264.73C163.18,-239.24 174.15,-193.56 200.45,-165 216.85,-147.18 241.85,-135.86 262.09,-129.11"/>
<polygon fill="#63b8ff" stroke="#63b8ff" points="155.42,-264.49 157.4,-274.9 162.34,-265.52 155.42,-264.49"/>
</a>
</g>
</g>
<!-- Node5&#45;&gt;Node2 -->
<g id="edge5_Node000005_Node000002" class="edge">
<title>Node5&#45;&gt;Node2</title>
<g id="a_edge5_Node000005_Node000002"><a xlink:title=" ">
<path fill="none" stroke="#63b8ff" d="M65.01,-187.91C49.79,-194.69 33.64,-204.9 24.45,-220 -1.77,-263.08 62.64,-277.96 110.45,-294 209.91,-327.37 534.93,-336 637.36,-337.97"/>
<polygon fill="#63b8ff" stroke="#63b8ff" points="66.36,-191.14 74.3,-184.12 63.72,-184.66 66.36,-191.14"/>
</a>
</g>
</g>
<!-- Node6 -->
<g id="Node000006" class="node">
<title>Node6</title>
<g id="a_Node000006"><a xlink:href="../../d6/d46/maintenance_8cpp.xhtml" target="_top" xlink:title=" ">
<polygon fill="white" stroke="#666666" points="151.95,-129 50.95,-129 50.95,-110 151.95,-110 151.95,-129"/>
<text text-anchor="middle" x="101.45" y="-117" font-family="Helvetica,sans-Serif" font-size="10.00">maintenance.cpp</text>
</a>
</g>
</g>
<!-- Node5&#45;&gt;Node6 -->
<g id="edge6_Node000005_Node000006" class="edge">
<title>Node5&#45;&gt;Node6</title>
<g id="a_edge6_Node000005_Node000006"><a xlink:title=" ">
<path fill="none" stroke="#63b8ff" d="M101.45,-154.66C101.45,-145.93 101.45,-135.99 101.45,-129.09"/>
<polygon fill="#63b8ff" stroke="#63b8ff" points="97.95,-154.75 101.45,-164.75 104.95,-154.75 97.95,-154.75"/>
</a>
</g>
</g>
<!-- Node7&#45;&gt;Node2 -->
<g id="edge8_Node000007_Node000002" class="edge">
<title>Node7&#45;&gt;Node2</title>
<g id="a_edge8_Node000007_Node000002"><a xlink:title=" ">
<path fill="none" stroke="#63b8ff" d="M246.56,-248.46C254.33,-263.28 264.94,-283.52 281.45,-294 340.86,-331.75 556.05,-337.6 637.29,-338.42"/>
<polygon fill="#63b8ff" stroke="#63b8ff" points="249.42,-246.39 241.59,-239.25 243.26,-249.72 249.42,-246.39"/>
</a>
</g>
</g>
<!-- Node7&#45;&gt;Node5 -->
<g id="edge9_Node000007_Node000005" class="edge">
<title>Node7&#45;&gt;Node5</title>
<g id="a_edge9_Node000007_Node000005"><a xlink:title=" ">
<path fill="none" stroke="#63b8ff" d="M202.71,-216.16C178.27,-206.35 144.7,-192.87 123.04,-184.17"/>
<polygon fill="#63b8ff" stroke="#63b8ff" points="201.65,-219.51 212.24,-219.98 204.26,-213.01 201.65,-219.51"/>
</a>
</g>
</g>
<!-- Node8 -->
<g id="Node000008" class="node">
<title>Node8</title>
<g id="a_Node000008"><a xlink:href="../../d0/ded/sd_8cpp.xhtml" target="_top" xlink:title=" ">
<polygon fill="white" stroke="#666666" points="257.45,-184 209.45,-184 209.45,-165 257.45,-165 257.45,-184"/>
<text text-anchor="middle" x="233.45" y="-172" font-family="Helvetica,sans-Serif" font-size="10.00">sd.cpp</text>
</a>
</g>
</g>
<!-- Node7&#45;&gt;Node8 -->
<g id="edge10_Node000007_Node000008" class="edge">
<title>Node7&#45;&gt;Node8</title>
<g id="a_edge10_Node000007_Node000008"><a xlink:title=" ">
<path fill="none" stroke="#63b8ff" d="M233.45,-209.66C233.45,-200.93 233.45,-190.99 233.45,-184.09"/>
<polygon fill="#63b8ff" stroke="#63b8ff" points="229.95,-209.75 233.45,-219.75 236.95,-209.75 229.95,-209.75"/>
</a>
</g>
</g>
<!-- Node9&#45;&gt;Node2 -->
<g id="edge12_Node000009_Node000002" class="edge">
<title>Node9&#45;&gt;Node2</title>
<g id="a_edge12_Node000009_Node000002"><a xlink:title=" ">
<path fill="none" stroke="#63b8ff" d="M301.68,-139.21C309.59,-177.37 324.47,-263.16 381.45,-294 425.72,-317.96 572.53,-331.14 637.4,-336.14"/>
<polygon fill="#63b8ff" stroke="#63b8ff" points="305.09,-138.41 299.51,-129.4 298.25,-139.92 305.09,-138.41"/>
</a>
</g>
</g>
<!-- Node10 -->
<g id="Node000010" class="node">
<title>Node10</title>
<g id="a_Node000010"><a xlink:href="../../df/d92/standard_8cpp.xhtml" target="_top" xlink:title=" ">
<polygon fill="white" stroke="#666666" points="335.45,-74 255.45,-74 255.45,-55 335.45,-55 335.45,-74"/>
<text text-anchor="middle" x="295.45" y="-62" font-family="Helvetica,sans-Serif" font-size="10.00">standard.cpp</text>
</a>
</g>
</g>
<!-- Node9&#45;&gt;Node10 -->
<g id="edge13_Node000009_Node000010" class="edge">
<title>Node9&#45;&gt;Node10</title>
<g id="a_edge13_Node000009_Node000010"><a xlink:title=" ">
<path fill="none" stroke="#63b8ff" d="M295.45,-99.66C295.45,-90.93 295.45,-80.99 295.45,-74.09"/>
<polygon fill="#63b8ff" stroke="#63b8ff" points="291.95,-99.75 295.45,-109.75 298.95,-99.75 291.95,-99.75"/>
</a>
</g>
</g>
<!-- Node11&#45;&gt;Node2 -->
<g id="edge16_Node000011_Node000002" class="edge">
<title>Node11&#45;&gt;Node2</title>
<g id="a_edge16_Node000011_Node000002"><a xlink:title=" ">
<path fill="none" stroke="#63b8ff" d="M764.82,-298.54C743.96,-308.35 713.93,-321.5 692.84,-329.98"/>
<polygon fill="#63b8ff" stroke="#63b8ff" points="766.45,-301.64 773.96,-294.17 763.43,-295.33 766.45,-301.64"/>
</a>
</g>
</g>
<!-- Node12 -->
<g id="Node000012" class="node">
<title>Node12</title>
<g id="a_Node000012"><a xlink:href="../../d8/d9d/brightness_8cpp.xhtml" target="_top" xlink:title=" ">
<polygon fill="white" stroke="#666666" points="912.45,-239 824.45,-239 824.45,-220 912.45,-220 912.45,-239"/>
<text text-anchor="middle" x="868.45" y="-227" font-family="Helvetica,sans-Serif" font-size="10.00">brightness.cpp</text>
</a>
</g>
</g>
<!-- Node11&#45;&gt;Node12 -->
<g id="edge15_Node000011_Node000012" class="edge">
<title>Node11&#45;&gt;Node12</title>
<g id="a_edge15_Node000011_Node000012"><a xlink:title=" ">
<path fill="none" stroke="#63b8ff" d="M809.69,-269.42C824.21,-259.81 842.99,-247.37 855.36,-239.17"/>
<polygon fill="#63b8ff" stroke="#63b8ff" points="807.7,-266.54 801.3,-274.98 811.57,-272.38 807.7,-266.54"/>
</a>
</g>
</g>
<!-- Node13&#45;&gt;Node2 -->
<g id="edge19_Node000013_Node000002" class="edge">
<title>Node13&#45;&gt;Node2</title>
<g id="a_edge19_Node000013_Node000002"><a xlink:title=" ">
<path fill="none" stroke="#63b8ff" d="M925.99,-295.82C860.08,-307.33 752.59,-325.45 699.69,-333.89"/>
<polygon fill="#63b8ff" stroke="#63b8ff" points="926.95,-299.2 936.19,-294.03 925.74,-292.31 926.95,-299.2"/>
</a>
</g>
</g>
<!-- Node14 -->
<g id="Node000014" class="node">
<title>Node14</title>
<g id="a_Node000014"><a xlink:href="../../df/d22/configuration_8cpp.xhtml" target="_top" xlink:title=" ">
<polygon fill="white" stroke="#666666" points="1031.95,-239 930.95,-239 930.95,-220 1031.95,-220 1031.95,-239"/>
<text text-anchor="middle" x="981.45" y="-227" font-family="Helvetica,sans-Serif" font-size="10.00">configuration.cpp</text>
</a>
</g>
</g>
<!-- Node13&#45;&gt;Node14 -->
<g id="edge18_Node000013_Node000014" class="edge">
<title>Node13&#45;&gt;Node14</title>
<g id="a_edge18_Node000013_Node000014"><a xlink:title=" ">
<path fill="none" stroke="#63b8ff" d="M981.45,-264.66C981.45,-255.93 981.45,-245.99 981.45,-239.09"/>
<polygon fill="#63b8ff" stroke="#63b8ff" points="977.95,-264.75 981.45,-274.75 984.95,-264.75 977.95,-264.75"/>
</a>
</g>
</g>
<!-- Node15&#45;&gt;Node2 -->
<g id="edge22_Node000015_Node000002" class="edge">
<title>Node15&#45;&gt;Node2</title>
<g id="a_edge22_Node000015_Node000002"><a xlink:title=" ">
<path fill="none" stroke="#63b8ff" d="M1040.17,-295.49C912.93,-313.79 763.82,-329.67 699.87,-335.8"/>
<polygon fill="#63b8ff" stroke="#63b8ff" points="1040.67,-298.95 1050.07,-294.06 1039.67,-292.03 1040.67,-298.95"/>
</a>
</g>
</g>
<!-- Node16 -->
<g id="Node000016" class="node">
<title>Node16</title>
<g id="a_Node000016"><a xlink:href="../../d9/ddd/economy_8cpp.xhtml" target="_top" xlink:title=" ">
<polygon fill="white" stroke="#666666" points="1130.45,-239 1050.45,-239 1050.45,-220 1130.45,-220 1130.45,-239"/>
<text text-anchor="middle" x="1090.45" y="-227" font-family="Helvetica,sans-Serif" font-size="10.00">economy.cpp</text>
</a>
</g>
</g>
<!-- Node15&#45;&gt;Node16 -->
<g id="edge21_Node000015_Node000016" class="edge">
<title>Node15&#45;&gt;Node16</title>
<g id="a_edge21_Node000015_Node000016"><a xlink:title=" ">
<path fill="none" stroke="#63b8ff" d="M1090.45,-264.66C1090.45,-255.93 1090.45,-245.99 1090.45,-239.09"/>
<polygon fill="#63b8ff" stroke="#63b8ff" points="1086.95,-264.75 1090.45,-274.75 1093.95,-264.75 1086.95,-264.75"/>
</a>
</g>
</g>
<!-- Node17&#45;&gt;Node2 -->
<g id="edge25_Node000017_Node000002" class="edge">
<title>Node17&#45;&gt;Node2</title>
<g id="a_edge25_Node000017_Node000002"><a xlink:title=" ">
<path fill="none" stroke="#63b8ff" d="M697.22,-84.25C696.38,-138.03 680.87,-291.38 671.9,-329.73"/>
<polygon fill="#63b8ff" stroke="#63b8ff" points="700.72,-84.08 697.16,-74.11 693.72,-84.13 700.72,-84.08"/>
</a>
</g>
</g>
<!-- Node18 -->
<g id="Node000018" class="node">
<title>Node18</title>
<g id="a_Node000018"><a xlink:href="../../dd/d8e/humidity_8cpp.xhtml" target="_top" xlink:title=" ">
<polygon fill="white" stroke="#666666" points="734.95,-19 655.95,-19 655.95,0 734.95,0 734.95,-19"/>
<text text-anchor="middle" x="695.45" y="-7" font-family="Helvetica,sans-Serif" font-size="10.00">humidity.cpp</text>
</a>
</g>
</g>
<!-- Node17&#45;&gt;Node18 -->
<g id="edge24_Node000017_Node000018" class="edge">
<title>Node17&#45;&gt;Node18</title>
<g id="a_edge24_Node000017_Node000018"><a xlink:title=" ">
<path fill="none" stroke="#63b8ff" d="M695.45,-44.66C695.45,-35.93 695.45,-25.99 695.45,-19.09"/>
<polygon fill="#63b8ff" stroke="#63b8ff" points="691.95,-44.75 695.45,-54.75 698.95,-44.75 691.95,-44.75"/>
</a>
</g>
</g>
<!-- Node20 -->
<g id="Node000020" class="node">
<title>Node20</title>
<g id="a_Node000020"><a xlink:href="../../d2/de2/interpreter_8cpp.xhtml" target="_top" xlink:title=" ">
<polygon fill="white" stroke="#666666" points="420.45,-239 332.45,-239 332.45,-220 420.45,-220 420.45,-239"/>
<text text-anchor="middle" x="376.45" y="-227" font-family="Helvetica,sans-Serif" font-size="10.00">interpreter.cpp</text>
</a>
</g>
</g>
<!-- Node19&#45;&gt;Node20 -->
<g id="edge27_Node000019_Node000020" class="edge">
<title>Node19&#45;&gt;Node20</title>
<g id="a_edge27_Node000019_Node000020"><a xlink:title=" ">
<path fill="none" stroke="#63b8ff" d="M411.1,-267.24C402.34,-257.95 391.71,-246.68 384.55,-239.09"/>
<polygon fill="#63b8ff" stroke="#63b8ff" points="408.78,-269.88 418.19,-274.75 413.87,-265.07 408.78,-269.88"/>
</a>
</g>
</g>
<!-- Node19&#45;&gt;Node21 -->
<g id="edge28_Node000019_Node000021" class="edge">
<title>Node19&#45;&gt;Node21</title>
<g id="a_edge28_Node000019_Node000021"><a xlink:title=" ">
<path fill="none" stroke="#63b8ff" d="M440.49,-266.96C448.33,-257.72 457.77,-246.6 464.15,-239.09"/>
<polygon fill="#63b8ff" stroke="#63b8ff" points="437.68,-264.86 433.88,-274.75 443.02,-269.39 437.68,-264.86"/>
</a>
</g>
</g>
<!-- Node21&#45;&gt;Node5 -->
<g id="edge41_Node000021_Node000005" class="edge">
<title>Node21&#45;&gt;Node5</title>
<g id="a_edge41_Node000021_Node000005"><a xlink:title=" ">
<path fill="none" stroke="#63b8ff" d="M428.85,-220.01C324.56,-202.6 214.74,-188.79 152.17,-181.35"/>
<polygon fill="#63b8ff" stroke="#63b8ff" points="428.48,-223.49 438.92,-221.7 429.64,-216.59 428.48,-223.49"/>
</a>
</g>
</g>
<!-- Node22 -->
<g id="Node000022" class="node">
<title>Node22</title>
<g id="a_Node000022"><a xlink:href="../../d9/d99/error_8hpp.xhtml" target="_top" xlink:title=" ">
<polygon fill="white" stroke="#666666" points="541.45,-184 481.45,-184 481.45,-165 541.45,-165 541.45,-184"/>
<text text-anchor="middle" x="511.45" y="-172" font-family="Helvetica,sans-Serif" font-size="10.00">error.hpp</text>
</a>
</g>
</g>
<!-- Node21&#45;&gt;Node22 -->
<g id="edge29_Node000021_Node000022" class="edge">
<title>Node21&#45;&gt;Node22</title>
<g id="a_edge29_Node000021_Node000022"><a xlink:title=" ">
<path fill="none" stroke="#63b8ff" d="M484.14,-211.67C491.07,-202.5 499.35,-191.52 504.96,-184.09"/>
<polygon fill="#63b8ff" stroke="#63b8ff" points="481.28,-209.66 478.05,-219.75 486.87,-213.87 481.28,-209.66"/>
</a>
</g>
</g>
<!-- Node30 -->
<g id="Node000030" class="node">
<title>Node30</title>
<g id="a_Node000030"><a xlink:href="../../de/d25/serial_8cpp.xhtml" target="_top" xlink:title=" ">
<polygon fill="white" stroke="#666666" points="463.45,-184 399.45,-184 399.45,-165 463.45,-165 463.45,-184"/>
<text text-anchor="middle" x="431.45" y="-172" font-family="Helvetica,sans-Serif" font-size="10.00">serial.cpp</text>
</a>
</g>
</g>
<!-- Node21&#45;&gt;Node30 -->
<g id="edge42_Node000021_Node000030" class="edge">
<title>Node21&#45;&gt;Node30</title>
<g id="a_edge42_Node000021_Node000030"><a xlink:title=" ">
<path fill="none" stroke="#63b8ff" d="M458.75,-211.67C451.82,-202.5 443.54,-191.52 437.93,-184.09"/>
<polygon fill="#63b8ff" stroke="#63b8ff" points="456.02,-213.87 464.84,-219.75 461.61,-209.66 456.02,-213.87"/>
</a>
</g>
</g>
<!-- Node22&#45;&gt;Node9 -->
<g id="edge40_Node000022_Node000009" class="edge">
<title>Node22&#45;&gt;Node9</title>
<g id="a_edge40_Node000022_Node000009"><a xlink:title=" ">
<path fill="none" stroke="#63b8ff" d="M471.6,-163.72C431.05,-153.77 368.84,-138.51 330.22,-129.03"/>
<polygon fill="#63b8ff" stroke="#63b8ff" points="470.87,-167.15 481.41,-166.13 472.53,-160.35 470.87,-167.15"/>
</a>
</g>
</g>
<!-- Node23 -->
<g id="Node000023" class="node">
<title>Node23</title>
<g id="a_Node000023"><a xlink:href="../../d3/d42/bme_8hpp.xhtml" target="_top" xlink:title=" ">
<polygon fill="white" stroke="#666666" points="961.95,-129 902.95,-129 902.95,-110 961.95,-110 961.95,-129"/>
<text text-anchor="middle" x="932.45" y="-117" font-family="Helvetica,sans-Serif" font-size="10.00">bme.hpp</text>
</a>
</g>
</g>
<!-- Node22&#45;&gt;Node23 -->
<g id="edge30_Node000022_Node000023" class="edge">
<title>Node22&#45;&gt;Node23</title>
<g id="a_edge30_Node000022_Node000023"><a xlink:title=" ">
<path fill="none" stroke="#63b8ff" d="M551.85,-164.92C688.46,-142.54 839.62,-128.39 902.59,-122.97"/>
<polygon fill="#63b8ff" stroke="#63b8ff" points="550.91,-161.53 541.62,-166.62 552.06,-168.43 550.91,-161.53"/>
</a>
</g>
</g>
<!-- Node27 -->
<g id="Node000027" class="node">
<title>Node27</title>
<g id="a_Node000027"><a xlink:href="../../dd/db1/error_8cpp.xhtml" target="_top" xlink:title=" ">
<polygon fill="white" stroke="#666666" points="578.95,-129 519.95,-129 519.95,-110 578.95,-110 578.95,-129"/>
<text text-anchor="middle" x="549.45" y="-117" font-family="Helvetica,sans-Serif" font-size="10.00">error.cpp</text>
</a>
</g>
</g>
<!-- Node22&#45;&gt;Node27 -->
<g id="edge37_Node000022_Node000027" class="edge">
<title>Node22&#45;&gt;Node27</title>
<g id="a_edge37_Node000022_Node000027"><a xlink:title=" ">
<path fill="none" stroke="#63b8ff" d="M523.71,-156.39C530.25,-147.27 538.01,-136.45 543.29,-129.09"/>
<polygon fill="#63b8ff" stroke="#63b8ff" points="520.7,-154.58 517.72,-164.75 526.39,-158.66 520.7,-154.58"/>
</a>
</g>
</g>
<!-- Node28 -->
<g id="Node000028" class="node">
<title>Node28</title>
<g id="a_Node000028"><a xlink:href="../../db/d45/gps_8hpp.xhtml" target="_top" xlink:title=" ">
<polygon fill="white" stroke="#666666" points="501.95,-129 446.95,-129 446.95,-110 501.95,-110 501.95,-129"/>
<text text-anchor="middle" x="474.45" y="-117" font-family="Helvetica,sans-Serif" font-size="10.00">gps.hpp</text>
</a>
</g>
</g>
<!-- Node22&#45;&gt;Node28 -->
<g id="edge38_Node000022_Node000028" class="edge">
<title>Node22&#45;&gt;Node28</title>
<g id="a_edge38_Node000022_Node000028"><a xlink:title=" ">
<path fill="none" stroke="#63b8ff" d="M499.5,-156.39C493.13,-147.27 485.58,-136.45 480.44,-129.09"/>
<polygon fill="#63b8ff" stroke="#63b8ff" points="496.74,-158.55 505.34,-164.75 502.48,-154.55 496.74,-158.55"/>
</a>
</g>
</g>
<!-- Node23&#45;&gt;Node1 -->
<g id="edge36_Node000023_Node000001" class="edge">
<title>Node23&#45;&gt;Node1</title>
<g id="a_edge36_Node000023_Node000001"><a xlink:title=" ">
<path fill="none" stroke="#63b8ff" d="M972.14,-127.09C1050.04,-141.14 1215.45,-177.04 1215.45,-228.5 1215.45,-285.5 1215.45,-285.5 1215.45,-285.5 1215.45,-333.69 1066.89,-369.47 988.55,-384.99"/>
<polygon fill="#63b8ff" stroke="#63b8ff" points="972.65,-123.62 962.2,-125.33 971.43,-130.52 972.65,-123.62"/>
</a>
</g>
</g>
<!-- Node23&#45;&gt;Node17 -->
<g id="edge32_Node000023_Node000017" class="edge">
<title>Node23&#45;&gt;Node17</title>
<g id="a_edge32_Node000023_Node000017"><a xlink:title=" ">
<path fill="none" stroke="#63b8ff" d="M893.08,-109.7C848.8,-99.8 777.37,-83.82 733.6,-74.03"/>
<polygon fill="#63b8ff" stroke="#63b8ff" points="892.39,-113.13 902.91,-111.89 893.91,-106.3 892.39,-113.13"/>
</a>
</g>
</g>
<!-- Node24 -->
<g id="Node000024" class="node">
<title>Node24</title>
<g id="a_Node000024"><a xlink:href="../../d4/d82/bme_8cpp.xhtml" target="_top" xlink:title=" ">
<polygon fill="white" stroke="#666666" points="961.95,-74 902.95,-74 902.95,-55 961.95,-55 961.95,-74"/>
<text text-anchor="middle" x="932.45" y="-62" font-family="Helvetica,sans-Serif" font-size="10.00">bme.cpp</text>
</a>
</g>
</g>
<!-- Node23&#45;&gt;Node24 -->
<g id="edge31_Node000023_Node000024" class="edge">
<title>Node23&#45;&gt;Node24</title>
<g id="a_edge31_Node000023_Node000024"><a xlink:title=" ">
<path fill="none" stroke="#63b8ff" d="M932.45,-99.66C932.45,-90.93 932.45,-80.99 932.45,-74.09"/>
<polygon fill="#63b8ff" stroke="#63b8ff" points="928.95,-99.75 932.45,-109.75 935.95,-99.75 928.95,-99.75"/>
</a>
</g>
</g>
<!-- Node23&#45;&gt;Node25 -->
<g id="edge33_Node000023_Node000025" class="edge">
<title>Node23&#45;&gt;Node25</title>
<g id="a_edge33_Node000023_Node000025"><a xlink:title=" ">
<path fill="none" stroke="#63b8ff" d="M972.12,-109.59C1016.16,-99.7 1086.76,-83.84 1130.22,-74.09"/>
<polygon fill="#63b8ff" stroke="#63b8ff" points="971.32,-106.18 962.33,-111.79 972.86,-113.01 971.32,-106.18"/>
</a>
</g>
</g>
<!-- Node25&#45;&gt;Node2 -->
<g id="edge34_Node000025_Node000002" class="edge">
<title>Node25&#45;&gt;Node2</title>
<g id="a_edge34_Node000025_Node000002"><a xlink:title=" ">
<path fill="none" stroke="#63b8ff" d="M1174.95,-84.23C1177.45,-105.77 1177.45,-142.19 1177.45,-173.5 1177.45,-230.5 1177.45,-230.5 1177.45,-230.5 1177.45,-261.34 1174.46,-275.96 1149.45,-294 1113.31,-320.06 800.71,-333.87 699.66,-337.51"/>
<polygon fill="#63b8ff" stroke="#63b8ff" points="1178.38,-83.5 1173.34,-74.18 1171.46,-84.61 1178.38,-83.5"/>
</a>
</g>
</g>
<!-- Node26 -->
<g id="Node000026" class="node">
<title>Node26</title>
<g id="a_Node000026"><a xlink:href="../../d8/ddf/pressure_8cpp.xhtml" target="_top" xlink:title=" ">
<polygon fill="white" stroke="#666666" points="1207.95,-19 1128.95,-19 1128.95,0 1207.95,0 1207.95,-19"/>
<text text-anchor="middle" x="1168.45" y="-7" font-family="Helvetica,sans-Serif" font-size="10.00">pressure.cpp</text>
</a>
</g>
</g>
<!-- Node25&#45;&gt;Node26 -->
<g id="edge35_Node000025_Node000026" class="edge">
<title>Node25&#45;&gt;Node26</title>
<g id="a_edge35_Node000025_Node000026"><a xlink:title=" ">
<path fill="none" stroke="#63b8ff" d="M1168.45,-44.66C1168.45,-35.93 1168.45,-25.99 1168.45,-19.09"/>
<polygon fill="#63b8ff" stroke="#63b8ff" points="1164.95,-44.75 1168.45,-54.75 1171.95,-44.75 1164.95,-44.75"/>
</a>
</g>
</g>
<!-- Node29 -->
<g id="Node000029" class="node">
<title>Node29</title>
<g id="a_Node000029"><a xlink:href="../../dc/d3d/gps_8cpp.xhtml" target="_top" xlink:title=" ">
<polygon fill="white" stroke="#666666" points="501.45,-74 447.45,-74 447.45,-55 501.45,-55 501.45,-74"/>
<text text-anchor="middle" x="474.45" y="-62" font-family="Helvetica,sans-Serif" font-size="10.00">gps.cpp</text>
</a>
</g>
</g>
<!-- Node28&#45;&gt;Node29 -->
<g id="edge39_Node000028_Node000029" class="edge">
<title>Node28&#45;&gt;Node29</title>
<g id="a_edge39_Node000028_Node000029"><a xlink:title=" ">
<path fill="none" stroke="#63b8ff" d="M474.45,-99.66C474.45,-90.93 474.45,-80.99 474.45,-74.09"/>
<polygon fill="#63b8ff" stroke="#63b8ff" points="470.95,-99.75 474.45,-109.75 477.95,-99.75 470.95,-99.75"/>
</a>
</g>
</g>
<!-- Node32&#45;&gt;Node2 -->
<g id="edge53_Node000032_Node000002" class="edge">
<title>Node32&#45;&gt;Node2</title>
<g id="a_edge53_Node000032_Node000002"><a xlink:title=" ">
<path fill="none" stroke="#63b8ff" d="M623.34,-299.76C637.25,-309.41 653.36,-321.84 662.31,-329.98"/>
<polygon fill="#63b8ff" stroke="#63b8ff" points="625.29,-296.85 615.05,-294.17 621.38,-302.66 625.29,-296.85"/>
</a>
</g>
</g>
<!-- Node33 -->
<g id="Node000033" class="node">
<title>Node33</title>
<g id="a_Node000033"><a xlink:href="../../df/d0a/buttons_8hpp.xhtml" target="_top" xlink:title=" ">
<polygon fill="white" stroke="#666666" points="806.45,-239 732.45,-239 732.45,-220 806.45,-220 806.45,-239"/>
<text text-anchor="middle" x="769.45" y="-227" font-family="Helvetica,sans-Serif" font-size="10.00">buttons.hpp</text>
</a>
</g>
</g>
<!-- Node32&#45;&gt;Node33 -->
<g id="edge46_Node000032_Node000033" class="edge">
<title>Node32&#45;&gt;Node33</title>
<g id="a_edge46_Node000032_Node000033"><a xlink:title=" ">
<path fill="none" stroke="#63b8ff" d="M635.78,-271.93C667.72,-262.03 712.96,-248.01 741.76,-239.08"/>
<polygon fill="#63b8ff" stroke="#63b8ff" points="634.43,-268.68 625.92,-274.98 636.51,-275.37 634.43,-268.68"/>
</a>
</g>
</g>
<!-- Node35 -->
<g id="Node000035" class="node">
<title>Node35</title>
<g id="a_Node000035"><a xlink:href="../../d4/d76/led_8hpp.xhtml" target="_top" xlink:title=" ">
<polygon fill="white" stroke="#666666" points="574.95,-239 521.95,-239 521.95,-220 574.95,-220 574.95,-239"/>
<text text-anchor="middle" x="548.45" y="-227" font-family="Helvetica,sans-Serif" font-size="10.00">led.hpp</text>
</a>
</g>
</g>
<!-- Node32&#45;&gt;Node35 -->
<g id="edge49_Node000032_Node000035" class="edge">
<title>Node32&#45;&gt;Node35</title>
<g id="a_edge49_Node000032_Node000035"><a xlink:title=" ">
<path fill="none" stroke="#63b8ff" d="M583.1,-267.24C574.34,-257.95 563.71,-246.68 556.55,-239.09"/>
<polygon fill="#63b8ff" stroke="#63b8ff" points="580.78,-269.88 590.19,-274.75 585.87,-265.07 580.78,-269.88"/>
</a>
</g>
</g>
<!-- Node37 -->
<g id="Node000037" class="node">
<title>Node37</title>
<g id="a_Node000037"><a xlink:href="../../d9/d88/mode_8cpp.xhtml" target="_top" xlink:title=" ">
<polygon fill="white" stroke="#666666" points="657.95,-239 592.95,-239 592.95,-220 657.95,-220 657.95,-239"/>
<text text-anchor="middle" x="625.45" y="-227" font-family="Helvetica,sans-Serif" font-size="10.00">mode.cpp</text>
</a>
</g>
</g>
<!-- Node32&#45;&gt;Node37 -->
<g id="edge54_Node000032_Node000037" class="edge">
<title>Node32&#45;&gt;Node37</title>
<g id="a_edge54_Node000032_Node000037"><a xlink:title=" ">
<path fill="none" stroke="#63b8ff" d="M607.45,-265.82C612.04,-256.82 617.4,-246.29 621.07,-239.09"/>
<polygon fill="#63b8ff" stroke="#63b8ff" points="604.32,-264.25 602.9,-274.75 610.56,-267.43 604.32,-264.25"/>
</a>
</g>
</g>
<!-- Node33&#45;&gt;Node2 -->
<g id="edge48_Node000033_Node000002" class="edge">
<title>Node33&#45;&gt;Node2</title>
<g id="a_edge48_Node000033_Node000002"><a xlink:title=" ">
<path fill="none" stroke="#63b8ff" d="M754.51,-246.47C732.93,-269.55 693.74,-311.46 676.71,-329.66"/>
<polygon fill="#63b8ff" stroke="#63b8ff" points="757.07,-248.85 761.35,-239.16 751.96,-244.07 757.07,-248.85"/>
</a>
</g>
</g>
<!-- Node34 -->
<g id="Node000034" class="node">
<title>Node34</title>
<g id="a_Node000034"><a xlink:href="../../d9/d52/buttons_8cpp.xhtml" target="_top" xlink:title=" ">
<polygon fill="white" stroke="#666666" points="806.45,-184 732.45,-184 732.45,-165 806.45,-165 806.45,-184"/>
<text text-anchor="middle" x="769.45" y="-172" font-family="Helvetica,sans-Serif" font-size="10.00">buttons.cpp</text>
</a>
</g>
</g>
<!-- Node33&#45;&gt;Node34 -->
<g id="edge47_Node000033_Node000034" class="edge">
<title>Node33&#45;&gt;Node34</title>
<g id="a_edge47_Node000033_Node000034"><a xlink:title=" ">
<path fill="none" stroke="#63b8ff" d="M769.45,-209.66C769.45,-200.93 769.45,-190.99 769.45,-184.09"/>
<polygon fill="#63b8ff" stroke="#63b8ff" points="765.95,-209.75 769.45,-219.75 772.95,-209.75 765.95,-209.75"/>
</a>
</g>
</g>
<!-- Node35&#45;&gt;Node2 -->
<g id="edge52_Node000035_Node000002" class="edge">
<title>Node35&#45;&gt;Node2</title>
<g id="a_edge52_Node000035_Node000002"><a xlink:title=" ">
<path fill="none" stroke="#63b8ff" d="M546.05,-249.59C545.38,-263.3 546.77,-281.51 556.45,-294 575.85,-319.06 611.52,-330.05 637.4,-334.84"/>
<polygon fill="#63b8ff" stroke="#63b8ff" points="549.56,-249.61 546.96,-239.34 542.59,-248.99 549.56,-249.61"/>
</a>
</g>
</g>
<!-- Node35&#45;&gt;Node22 -->
<g id="edge50_Node000035_Node000022" class="edge">
<title>Node35&#45;&gt;Node22</title>
<g id="a_edge50_Node000035_Node000022"><a xlink:title=" ">
<path fill="none" stroke="#63b8ff" d="M536.5,-211.39C530.13,-202.27 522.58,-191.45 517.44,-184.09"/>
<polygon fill="#63b8ff" stroke="#63b8ff" points="533.74,-213.55 542.34,-219.75 539.48,-209.55 533.74,-213.55"/>
</a>
</g>
</g>
<!-- Node36 -->
<g id="Node000036" class="node">
<title>Node36</title>
<g id="a_Node000036"><a xlink:href="../../db/d17/led_8cpp.xhtml" target="_top" xlink:title=" ">
<polygon fill="white" stroke="#666666" points="611.45,-184 559.45,-184 559.45,-165 611.45,-165 611.45,-184"/>
<text text-anchor="middle" x="585.45" y="-172" font-family="Helvetica,sans-Serif" font-size="10.00">led.cpp</text>
</a>
</g>
</g>
<!-- Node35&#45;&gt;Node36 -->
<g id="edge51_Node000035_Node000036" class="edge">
<title>Node35&#45;&gt;Node36</title>
<g id="a_edge51_Node000035_Node000036"><a xlink:title=" ">
<path fill="none" stroke="#63b8ff" d="M560.39,-211.39C566.76,-202.27 574.31,-191.45 579.45,-184.09"/>
<polygon fill="#63b8ff" stroke="#63b8ff" points="557.41,-209.55 554.56,-219.75 563.15,-213.55 557.41,-209.55"/>
</a>
</g>
</g>
</g>
</svg>

<g id="navigator" transform="translate(0 0)" fill="#404254">
  <rect fill="#f2f5e9" fill-opacity="0.5" stroke="#606060" stroke-width=".5" x="0" y="0" width="60" height="60"/>
  <use id="zoomplus" xlink:href="#zoomPlus" x="17" y="9" onmousedown="handleZoom(evt,'in')"/>
  <use id="zoomminus" xlink:href="#zoomMin" x="42" y="9" onmousedown="handleZoom(evt,'out')"/>
  <use id="reset" xlink:href="#resetDef" x="30" y="36" onmousedown="handleReset()"/>
   <use id="arrowup" xlink:href="#arrowUp" x="0" y="0" onmousedown="handlePan(0,-1)"/>
  <use id="arrowright" xlink:href="#arrowRight" x="0" y="0" onmousedown="handlePan(1,0)"/>
  <use id="arrowdown" xlink:href="#arrowDown" x="0" y="0" onmousedown="handlePan(0,1)"/>
  <use id="arrowleft" xlink:href="#arrowLeft" x="0" y="0" onmousedown="handlePan(-1,0)"/>
</g>
<svg viewBox="0 0 15 15" width="100%" height="30px" preserveAspectRatio="xMaxYMin meet">
 <g id="arrow_out" transform="scale(0.3 0.3)">
  <a xlink:href="temperature_8hpp__dep__incl_org.svg" target="_base">
   <rect id="button" ry="5" rx="5" y="6" x="6" height="38" width="38"
        fill="#f2f5e9" fill-opacity="0.5" stroke="#606060" stroke-width="1.0"/>
   <path id="arrow"
     d="M 11.500037,31.436501 C 11.940474,20.09759 22.043105,11.32322 32.158766,21.979434 L 37.068811,17.246167 C 37.068811,17.246167 37.088388,32 37.088388,32 L 22.160133,31.978069 C 22.160133,31.978069 26.997745,27.140456 26.997745,27.140456 C 18.528582,18.264221 13.291696,25.230495 11.500037,31.436501 z"
     style="fill:#404040;"/>
  </a>
 </g>
</svg>

<style type='text/css'>
<![CDATA[
[data-mouse-over-selected='false'] { opacity: 0.7; }
[data-mouse-over-selected='true']  { opacity: 1.0; }
]]>
</style>
<script type="application/ecmascript"><![CDATA[
document.addEventListener('DOMContentLoaded', (event) => {
  highlightEdges();
  highlightAdjacentNodes();
});
]]></script>
</svg>
