<?xml version="1.0" encoding="UTF-8" standalone="no"?>
<!DOCTYPE svg PUBLIC "-//W3C//DTD SVG 1.1//EN"
 "http://www.w3.org/Graphics/SVG/1.1/DTD/svg11.dtd">
<!-- Generated by graphviz version 2.43.0 (0)
 -->
<!-- Title: Stream::peekNextDigit Pages: 1 -->
<svg width="282pt" height="64pt"
 viewBox="0.00 0.00 282.00 64.00" xmlns="http://www.w3.org/2000/svg" xmlns:xlink="http://www.w3.org/1999/xlink">
<g id="graph0" class="graph" transform="scale(1 1) rotate(0) translate(4 60)">
<title>Stream::peekNextDigit</title>
<!-- Node1 -->
<g id="Node000001" class="node">
<title>Node1</title>
<g id="a_Node000001"><a xlink:title=" ">
<polygon fill="#999999" stroke="#666666" points="274,-37 146,-37 146,-18 274,-18 274,-37"/>
<text text-anchor="middle" x="210" y="-25" font-family="Helvetica,sans-Serif" font-size="10.00">Stream::peekNextDigit</text>
</a>
</g>
</g>
<!-- Node2 -->
<g id="Node000002" class="node">
<title>Node2</title>
<g id="a_Node000002"><a xlink:href="../../dc/de8/classStream_a685133574afc1c35223e31703543a0a7.xhtml#a685133574afc1c35223e31703543a0a7" target="_top" xlink:title=" ">
<polygon fill="white" stroke="#666666" points="110,-56 0,-56 0,-37 110,-37 110,-56"/>
<text text-anchor="middle" x="55" y="-44" font-family="Helvetica,sans-Serif" font-size="10.00">Stream::parseFloat</text>
</a>
</g>
</g>
<!-- Node1&#45;&gt;Node2 -->
<g id="edge1_Node000001_Node000002" class="edge">
<title>Node1&#45;&gt;Node2</title>
<g id="a_edge1_Node000001_Node000002"><a xlink:title=" ">
<path fill="none" stroke="#63b8ff" d="M135.81,-36.59C127.17,-37.66 118.49,-38.74 110.18,-39.77"/>
<polygon fill="#63b8ff" stroke="#63b8ff" points="136.39,-40.04 145.89,-35.34 135.53,-33.1 136.39,-40.04"/>
</a>
</g>
</g>
<!-- Node3 -->
<g id="Node000003" class="node">
<title>Node3</title>
<g id="a_Node000003"><a xlink:href="../../dc/de8/classStream_a8875d87ed4db36c36990b2fb22ca48da.xhtml#a8875d87ed4db36c36990b2fb22ca48da" target="_top" xlink:title=" ">
<polygon fill="white" stroke="#666666" points="104,-19 6,-19 6,0 104,0 104,-19"/>
<text text-anchor="middle" x="55" y="-7" font-family="Helvetica,sans-Serif" font-size="10.00">Stream::parseInt</text>
</a>
</g>
</g>
<!-- Node1&#45;&gt;Node3 -->
<g id="edge2_Node000001_Node000003" class="edge">
<title>Node1&#45;&gt;Node3</title>
<g id="a_edge2_Node000001_Node000003"><a xlink:title=" ">
<path fill="none" stroke="#63b8ff" d="M135.64,-18.87C124.89,-17.61 114.07,-16.33 104.01,-15.15"/>
<polygon fill="#63b8ff" stroke="#63b8ff" points="135.55,-22.38 145.89,-20.07 136.36,-15.43 135.55,-22.38"/>
</a>
</g>
</g>
</g>
</svg>
