<?xml version="1.0" encoding="UTF-8" standalone="no"?>
<!DOCTYPE svg PUBLIC "-//W3C//DTD SVG 1.1//EN"
 "http://www.w3.org/Graphics/SVG/1.1/DTD/svg11.dtd">
<!-- Generated by graphviz version 2.43.0 (0)
 -->
<!-- Title: Stream::readStringUntil Pages: 1 -->
<svg width="402pt" height="64pt"
 viewBox="0.00 0.00 402.00 64.00" xmlns="http://www.w3.org/2000/svg" xmlns:xlink="http://www.w3.org/1999/xlink">
<g id="graph0" class="graph" transform="scale(1 1) rotate(0) translate(4 60)">
<title>Stream::readStringUntil</title>
<!-- Node1 -->
<g id="Node000001" class="node">
<title>Node1</title>
<g id="a_Node000001"><a xlink:title=" ">
<polygon fill="#999999" stroke="#666666" points="131,-37 0,-37 0,-18 131,-18 131,-37"/>
<text text-anchor="middle" x="65.5" y="-25" font-family="Helvetica,sans-Serif" font-size="10.00">Stream::readStringUntil</text>
</a>
</g>
</g>
<!-- Node2 -->
<g id="Node000002" class="node">
<title>Node2</title>
<g id="a_Node000002"><a xlink:href="../../dc/de8/classStream_a416a0ada5ed3c9d27f1e72c7d73f0aa1.xhtml#a416a0ada5ed3c9d27f1e72c7d73f0aa1" target="_top" xlink:title=" ">
<polygon fill="white" stroke="#666666" points="278,-37 167,-37 167,-18 278,-18 278,-37"/>
<text text-anchor="middle" x="222.5" y="-25" font-family="Helvetica,sans-Serif" font-size="10.00">Stream::timedRead</text>
</a>
</g>
</g>
<!-- Node1&#45;&gt;Node2 -->
<g id="edge1_Node000001_Node000002" class="edge">
<title>Node1&#45;&gt;Node2</title>
<g id="a_edge1_Node000001_Node000002"><a xlink:title=" ">
<path fill="none" stroke="#63b8ff" d="M131.34,-27.5C139.71,-27.5 148.29,-27.5 156.66,-27.5"/>
<polygon fill="#63b8ff" stroke="#63b8ff" points="156.75,-31 166.75,-27.5 156.75,-24 156.75,-31"/>
</a>
</g>
</g>
<!-- Node3 -->
<g id="Node000003" class="node">
<title>Node3</title>
<g id="a_Node000003"><a xlink:href="../../d5/df3/wiring_8c_a6ff7f2532a22366f0013bc41397129fd.xhtml#a6ff7f2532a22366f0013bc41397129fd" target="_top" xlink:title=" ">
<polygon fill="white" stroke="#666666" points="376,-56 332,-56 332,-37 376,-37 376,-56"/>
<text text-anchor="middle" x="354" y="-44" font-family="Helvetica,sans-Serif" font-size="10.00">millis</text>
</a>
</g>
</g>
<!-- Node2&#45;&gt;Node3 -->
<g id="edge2_Node000002_Node000003" class="edge">
<title>Node2&#45;&gt;Node3</title>
<g id="a_edge2_Node000002_Node000003"><a xlink:title=" ">
<path fill="none" stroke="#63b8ff" d="M278.04,-35.5C292.99,-37.7 308.68,-40 321.82,-41.92"/>
<polygon fill="#63b8ff" stroke="#63b8ff" points="321.34,-45.39 331.75,-43.38 322.36,-38.47 321.34,-45.39"/>
</a>
</g>
</g>
<!-- Node4 -->
<g id="Node000004" class="node">
<title>Node4</title>
<g id="a_Node000004"><a xlink:href="../../dc/de8/classStream_aea5dee9fcb038148515b7c9212d38dc0.xhtml#aea5dee9fcb038148515b7c9212d38dc0" target="_top" xlink:title=" ">
<polygon fill="white" stroke="#666666" points="394,-19 314,-19 314,0 394,0 394,-19"/>
<text text-anchor="middle" x="354" y="-7" font-family="Helvetica,sans-Serif" font-size="10.00">Stream::read</text>
</a>
</g>
</g>
<!-- Node2&#45;&gt;Node4 -->
<g id="edge3_Node000002_Node000004" class="edge">
<title>Node2&#45;&gt;Node4</title>
<g id="a_edge3_Node000002_Node000004"><a xlink:title=" ">
<path fill="none" stroke="#63b8ff" d="M278.04,-19.92C286.6,-18.73 295.39,-17.51 303.81,-16.34"/>
<polygon fill="#63b8ff" stroke="#63b8ff" points="304.43,-19.78 313.86,-14.94 303.47,-12.85 304.43,-19.78"/>
</a>
</g>
</g>
</g>
</svg>
