<?xml version="1.0" encoding="UTF-8" standalone="no"?>
<!DOCTYPE svg PUBLIC "-//W3C//DTD SVG 1.1//EN"
 "http://www.w3.org/Graphics/SVG/1.1/DTD/svg11.dtd">
<!-- Generated by graphviz version 2.43.0 (0)
 -->
<!-- Title: Stream::timedRead Pages: 1 -->
<svg width="421pt" height="175pt"
 viewBox="0.00 0.00 421.00 175.00" xmlns="http://www.w3.org/2000/svg" xmlns:xlink="http://www.w3.org/1999/xlink">
<g id="graph0" class="graph" transform="scale(1 1) rotate(0) translate(4 171)">
<title>Stream::timedRead</title>
<!-- Node1 -->
<g id="Node000001" class="node">
<title>Node1</title>
<g id="a_Node000001"><a xlink:title=" ">
<polygon fill="#999999" stroke="#666666" points="413,-93 302,-93 302,-74 413,-74 413,-93"/>
<text text-anchor="middle" x="357.5" y="-81" font-family="Helvetica,sans-Serif" font-size="10.00">Stream::timedRead</text>
</a>
</g>
</g>
<!-- Node2 -->
<g id="Node000002" class="node">
<title>Node2</title>
<g id="a_Node000002"><a xlink:href="../../dc/de8/classStream.xhtml#a5fb669d95dbf5b7b8a8e900c53d62a1e" target="_top" xlink:title=" ">
<polygon fill="white" stroke="#666666" points="251,-167 150,-167 150,-148 251,-148 251,-167"/>
<text text-anchor="middle" x="200.5" y="-155" font-family="Helvetica,sans-Serif" font-size="10.00">Stream::findMulti</text>
</a>
</g>
</g>
<!-- Node1&#45;&gt;Node2 -->
<g id="edge1_Node000001_Node000002" class="edge">
<title>Node1&#45;&gt;Node2</title>
<g id="a_edge1_Node000001_Node000002"><a xlink:title=" ">
<path fill="none" stroke="#63b8ff" d="M335.2,-99.09C317.44,-111.48 291.07,-128.51 266,-139.5 258.55,-142.77 250.35,-145.59 242.37,-147.98"/>
<polygon fill="#63b8ff" stroke="#63b8ff" points="337.53,-101.73 343.66,-93.08 333.48,-96.02 337.53,-101.73"/>
</a>
</g>
</g>
<!-- Node4 -->
<g id="Node000004" class="node">
<title>Node4</title>
<g id="a_Node000004"><a xlink:href="../../dc/de8/classStream.xhtml#a45fd1336a323ea83b16e8507055f44ea" target="_top" xlink:title=" ">
<polygon fill="white" stroke="#666666" points="254,-130 147,-130 147,-111 254,-111 254,-130"/>
<text text-anchor="middle" x="200.5" y="-118" font-family="Helvetica,sans-Serif" font-size="10.00">Stream::readBytes</text>
</a>
</g>
</g>
<!-- Node1&#45;&gt;Node4 -->
<g id="edge3_Node000001_Node000004" class="edge">
<title>Node1&#45;&gt;Node4</title>
<g id="a_edge3_Node000001_Node000004"><a xlink:title=" ">
<path fill="none" stroke="#63b8ff" d="M306.83,-95.36C285.74,-100.39 261.47,-106.18 241.55,-110.94"/>
<polygon fill="#63b8ff" stroke="#63b8ff" points="307.67,-98.75 316.58,-93.03 306.04,-91.95 307.67,-98.75"/>
</a>
</g>
</g>
<!-- Node5 -->
<g id="Node000005" class="node">
<title>Node5</title>
<g id="a_Node000005"><a xlink:href="../../dc/de8/classStream.xhtml#af84672a4fb2620466958d3118d4fea00" target="_top" xlink:title=" ">
<polygon fill="white" stroke="#666666" points="266,-93 135,-93 135,-74 266,-74 266,-93"/>
<text text-anchor="middle" x="200.5" y="-81" font-family="Helvetica,sans-Serif" font-size="10.00">Stream::readBytesUntil</text>
</a>
</g>
</g>
<!-- Node1&#45;&gt;Node5 -->
<g id="edge4_Node000001_Node000005" class="edge">
<title>Node1&#45;&gt;Node5</title>
<g id="a_edge4_Node000001_Node000005"><a xlink:title=" ">
<path fill="none" stroke="#63b8ff" d="M291.64,-83.5C283.16,-83.5 274.47,-83.5 266,-83.5"/>
<polygon fill="#63b8ff" stroke="#63b8ff" points="291.85,-87 301.85,-83.5 291.85,-80 291.85,-87"/>
</a>
</g>
</g>
<!-- Node6 -->
<g id="Node000006" class="node">
<title>Node6</title>
<g id="a_Node000006"><a xlink:href="../../dc/de8/classStream.xhtml#a1c60bdda2b65d78e5a1362d51b856c5a" target="_top" xlink:title=" ">
<polygon fill="white" stroke="#666666" points="254.5,-56 146.5,-56 146.5,-37 254.5,-37 254.5,-56"/>
<text text-anchor="middle" x="200.5" y="-44" font-family="Helvetica,sans-Serif" font-size="10.00">Stream::readString</text>
</a>
</g>
</g>
<!-- Node1&#45;&gt;Node6 -->
<g id="edge5_Node000001_Node000006" class="edge">
<title>Node1&#45;&gt;Node6</title>
<g id="a_edge5_Node000001_Node000006"><a xlink:title=" ">
<path fill="none" stroke="#63b8ff" d="M306.83,-71.64C285.74,-66.61 261.47,-60.82 241.55,-56.06"/>
<polygon fill="#63b8ff" stroke="#63b8ff" points="306.04,-75.05 316.58,-73.97 307.67,-68.25 306.04,-75.05"/>
</a>
</g>
</g>
<!-- Node7 -->
<g id="Node000007" class="node">
<title>Node7</title>
<g id="a_Node000007"><a xlink:href="../../dc/de8/classStream.xhtml#a6a409da87c552909260d8cc428c5ca70" target="_top" xlink:title=" ">
<polygon fill="white" stroke="#666666" points="266,-19 135,-19 135,0 266,0 266,-19"/>
<text text-anchor="middle" x="200.5" y="-7" font-family="Helvetica,sans-Serif" font-size="10.00">Stream::readStringUntil</text>
</a>
</g>
</g>
<!-- Node1&#45;&gt;Node7 -->
<g id="edge6_Node000001_Node000007" class="edge">
<title>Node1&#45;&gt;Node7</title>
<g id="a_edge6_Node000001_Node000007"><a xlink:title=" ">
<path fill="none" stroke="#63b8ff" d="M334.81,-68.1C317,-56.01 290.77,-39.45 266,-28.5 257.78,-24.87 248.67,-21.7 239.95,-19.05"/>
<polygon fill="#63b8ff" stroke="#63b8ff" points="333.08,-71.16 343.3,-73.96 337.06,-65.4 333.08,-71.16"/>
</a>
</g>
</g>
<!-- Node3 -->
<g id="Node000003" class="node">
<title>Node3</title>
<g id="a_Node000003"><a xlink:href="../../dc/de8/classStream.xhtml#a3a9497de614792103ab8cb4759e01a69" target="_top" xlink:title=" ">
<polygon fill="white" stroke="#666666" points="99,-167 0,-167 0,-148 99,-148 99,-167"/>
<text text-anchor="middle" x="49.5" y="-155" font-family="Helvetica,sans-Serif" font-size="10.00">Stream::findUntil</text>
</a>
</g>
</g>
<!-- Node2&#45;&gt;Node3 -->
<g id="edge2_Node000002_Node000003" class="edge">
<title>Node2&#45;&gt;Node3</title>
<g id="a_edge2_Node000002_Node000003"><a xlink:title=" ">
<path fill="none" stroke="#63b8ff" d="M139.74,-157.5C126.25,-157.5 112.1,-157.5 99.14,-157.5"/>
<polygon fill="#63b8ff" stroke="#63b8ff" points="139.89,-161 149.89,-157.5 139.89,-154 139.89,-161"/>
</a>
</g>
</g>
</g>
</svg>
