<?xml version="1.0" encoding="UTF-8" standalone="no"?>
<!DOCTYPE svg PUBLIC "-//W3C//DTD SVG 1.1//EN"
 "http://www.w3.org/Graphics/SVG/1.1/DTD/svg11.dtd">
<!-- Generated by graphviz version 2.43.0 (0)
 -->
<!-- Title: Stream::parseInt Pages: 1 -->
<svg width="534pt" height="82pt"
 viewBox="0.00 0.00 534.00 82.00" xmlns="http://www.w3.org/2000/svg" xmlns:xlink="http://www.w3.org/1999/xlink">
<g id="graph0" class="graph" transform="scale(1 1) rotate(0) translate(4 78)">
<title>Stream::parseInt</title>
<!-- Node1 -->
<g id="Node000001" class="node">
<title>Node1</title>
<g id="a_Node000001"><a xlink:title=" ">
<polygon fill="#999999" stroke="#666666" points="98,-56 0,-56 0,-37 98,-37 98,-56"/>
<text text-anchor="middle" x="49" y="-44" font-family="Helvetica,sans-Serif" font-size="10.00">Stream::parseInt</text>
</a>
</g>
</g>
<!-- Node2 -->
<g id="Node000002" class="node">
<title>Node2</title>
<g id="a_Node000002"><a xlink:href="../../dc/de8/classStream_a3dbc4937689c81b76f4ab16e253e85e0.xhtml#a3dbc4937689c81b76f4ab16e253e85e0" target="_top" xlink:title=" ">
<polygon fill="white" stroke="#666666" points="262,-56 134,-56 134,-37 262,-37 262,-56"/>
<text text-anchor="middle" x="198" y="-44" font-family="Helvetica,sans-Serif" font-size="10.00">Stream::peekNextDigit</text>
</a>
</g>
</g>
<!-- Node1&#45;&gt;Node2 -->
<g id="edge1_Node000001_Node000002" class="edge">
<title>Node1&#45;&gt;Node2</title>
<g id="a_edge1_Node000001_Node000002"><a xlink:title=" ">
<path fill="none" stroke="#63b8ff" d="M98.13,-46.5C106.32,-46.5 114.98,-46.5 123.64,-46.5"/>
<polygon fill="#63b8ff" stroke="#63b8ff" points="123.78,-50 133.78,-46.5 123.78,-43 123.78,-50"/>
</a>
</g>
</g>
<!-- Node3 -->
<g id="Node000003" class="node">
<title>Node3</title>
<g id="a_Node000003"><a xlink:href="../../dc/de8/classStream_aea5dee9fcb038148515b7c9212d38dc0.xhtml#aea5dee9fcb038148515b7c9212d38dc0" target="_top" xlink:title=" ">
<polygon fill="white" stroke="#666666" points="393,-74 313,-74 313,-55 393,-55 393,-74"/>
<text text-anchor="middle" x="353" y="-62" font-family="Helvetica,sans-Serif" font-size="10.00">Stream::read</text>
</a>
</g>
</g>
<!-- Node1&#45;&gt;Node3 -->
<g id="edge6_Node000001_Node000003" class="edge">
<title>Node1&#45;&gt;Node3</title>
<g id="a_edge6_Node000001_Node000003"><a xlink:title=" ">
<path fill="none" stroke="#63b8ff" d="M84.04,-56.01C99.2,-59.77 117.36,-63.64 134,-65.5 191.63,-71.94 258.37,-70.31 302.66,-67.97"/>
<polygon fill="#63b8ff" stroke="#63b8ff" points="303.08,-71.45 312.87,-67.39 302.69,-64.46 303.08,-71.45"/>
</a>
</g>
</g>
<!-- Node4 -->
<g id="Node000004" class="node">
<title>Node4</title>
<g id="a_Node000004"><a xlink:href="../../dc/de8/classStream_ae326bf60a3c5276836526710871046fe.xhtml#ae326bf60a3c5276836526710871046fe" target="_top" xlink:title=" ">
<polygon fill="white" stroke="#666666" points="408,-37 298,-37 298,-18 408,-18 408,-37"/>
<text text-anchor="middle" x="353" y="-25" font-family="Helvetica,sans-Serif" font-size="10.00">Stream::timedPeek</text>
</a>
</g>
</g>
<!-- Node1&#45;&gt;Node4 -->
<g id="edge7_Node000001_Node000004" class="edge">
<title>Node1&#45;&gt;Node4</title>
<g id="a_edge7_Node000001_Node000004"><a xlink:title=" ">
<path fill="none" stroke="#63b8ff" d="M84.04,-36.99C99.2,-33.23 117.36,-29.36 134,-27.5 185.36,-21.76 243.96,-22.15 287.45,-23.75"/>
<polygon fill="#63b8ff" stroke="#63b8ff" points="287.48,-27.26 297.61,-24.16 287.76,-20.26 287.48,-27.26"/>
</a>
</g>
</g>
<!-- Node2&#45;&gt;Node3 -->
<g id="edge2_Node000002_Node000003" class="edge">
<title>Node2&#45;&gt;Node3</title>
<g id="a_edge2_Node000002_Node000003"><a xlink:title=" ">
<path fill="none" stroke="#63b8ff" d="M262.11,-53.93C275.62,-55.51 289.71,-57.17 302.61,-58.69"/>
<polygon fill="#63b8ff" stroke="#63b8ff" points="302.33,-62.18 312.67,-59.87 303.15,-55.23 302.33,-62.18"/>
</a>
</g>
</g>
<!-- Node2&#45;&gt;Node4 -->
<g id="edge3_Node000002_Node000004" class="edge">
<title>Node2&#45;&gt;Node4</title>
<g id="a_edge3_Node000002_Node000004"><a xlink:title=" ">
<path fill="none" stroke="#63b8ff" d="M262.11,-38.66C270.54,-37.62 279.19,-36.54 287.64,-35.49"/>
<polygon fill="#63b8ff" stroke="#63b8ff" points="288.32,-38.93 297.82,-34.23 287.46,-31.99 288.32,-38.93"/>
</a>
</g>
</g>
<!-- Node5 -->
<g id="Node000005" class="node">
<title>Node5</title>
<g id="a_Node000005"><a xlink:href="../../d5/df3/wiring_8c_a6ff7f2532a22366f0013bc41397129fd.xhtml#a6ff7f2532a22366f0013bc41397129fd" target="_top" xlink:title=" ">
<polygon fill="white" stroke="#666666" points="507,-56 463,-56 463,-37 507,-37 507,-56"/>
<text text-anchor="middle" x="485" y="-44" font-family="Helvetica,sans-Serif" font-size="10.00">millis</text>
</a>
</g>
</g>
<!-- Node4&#45;&gt;Node5 -->
<g id="edge4_Node000004_Node000005" class="edge">
<title>Node4&#45;&gt;Node5</title>
<g id="a_edge4_Node000004_Node000005"><a xlink:title=" ">
<path fill="none" stroke="#63b8ff" d="M408,-35.39C423.19,-37.61 439.21,-39.95 452.61,-41.91"/>
<polygon fill="#63b8ff" stroke="#63b8ff" points="452.32,-45.41 462.72,-43.39 453.33,-38.48 452.32,-45.41"/>
</a>
</g>
</g>
<!-- Node6 -->
<g id="Node000006" class="node">
<title>Node6</title>
<g id="a_Node000006"><a xlink:href="../../dc/de8/classStream_a30c3c212ec6ea67277a708c5ea2501a5.xhtml#a30c3c212ec6ea67277a708c5ea2501a5" target="_top" xlink:title=" ">
<polygon fill="white" stroke="#666666" points="526,-19 444,-19 444,0 526,0 526,-19"/>
<text text-anchor="middle" x="485" y="-7" font-family="Helvetica,sans-Serif" font-size="10.00">Stream::peek</text>
</a>
</g>
</g>
<!-- Node4&#45;&gt;Node6 -->
<g id="edge5_Node000004_Node000006" class="edge">
<title>Node4&#45;&gt;Node6</title>
<g id="a_edge5_Node000004_Node000006"><a xlink:title=" ">
<path fill="none" stroke="#63b8ff" d="M408,-20.02C416.53,-18.84 425.32,-17.62 433.76,-16.46"/>
<polygon fill="#63b8ff" stroke="#63b8ff" points="434.42,-19.9 443.84,-15.06 433.46,-12.96 434.42,-19.9"/>
</a>
</g>
</g>
</g>
</svg>
