<?xml version="1.0" encoding="UTF-8" standalone="no"?>
<!DOCTYPE svg PUBLIC "-//W3C//DTD SVG 1.1//EN"
 "http://www.w3.org/Graphics/SVG/1.1/DTD/svg11.dtd">
<!-- Generated by graphviz version 2.43.0 (0)
 -->
<!-- Title: SdExFat Pages: 1 -->
<!--zoomable 1698 -->

<svg id="main" version="1.1" xmlns="http://www.w3.org/2000/svg" xmlns:xlink="http://www.w3.org/1999/xlink" xml:space="preserve" onload="init(evt)">
<style type="text/css"><![CDATA[
.node, .edge {opacity: 0.7;}
.node.selected, .edge.selected {opacity: 1;}
.edge:hover path { stroke: red; }
.edge:hover polygon { stroke: red; fill: red; }
]]></style>

<defs>
  <circle id="rim" cx="0" cy="0" r="7"/>
  <circle id="rim2" cx="0" cy="0" r="3.5"/>
  <g id="zoomPlus">
    <use xlink:href="#rim" fill="#404040"><set attributeName="fill" to="#808080" begin="zoomplus.mouseover" end="zoomplus.mouseout"/></use>
    <path d="M-4,0h8M0,-4v8" fill="none" stroke="white" stroke-width="1.5" pointer-events="none"/>
  </g>
  <g id="zoomMin">
    <use xlink:href="#rim" fill="#404040"><set attributeName="fill" to="#808080" begin="zoomminus.mouseover" end="zoomminus.mouseout"/></use>
    <path d="M-4,0h8" fill="none" stroke="white" stroke-width="1.5" pointer-events="none"/>
  </g>
  <g id="arrowUp" transform="translate(30 24)">
    <use xlink:href="#rim"/>
    <path pointer-events="none" fill="none" stroke="white" stroke-width="1.5" d="M0,-3.0v7 M-2.5,-0.5L0,-3.0L2.5,-0.5"/>
  </g>
  <g id="arrowRight" transform="rotate(90) translate(36 -43)">
    <use xlink:href="#rim"/>
    <path pointer-events="none" fill="none" stroke="white" stroke-width="1.5" d="M0,-3.0v7 M-2.5,-0.5L0,-3.0L2.5,-0.5"/>
  </g>
  <g id="arrowDown" transform="rotate(180) translate(-30 -48)">
    <use xlink:href="#rim"/>
    <path pointer-events="none" fill="none" stroke="white" stroke-width="1.5" d="M0,-3.0v7 M-2.5,-0.5L0,-3.0L2.5,-0.5"/>
  </g>
  <g id="arrowLeft" transform="rotate(270) translate(-36 17)">
    <use xlink:href="#rim"/>
    <path pointer-events="none" fill="none" stroke="white" stroke-width="1.5" d="M0,-3.0v7 M-2.5,-0.5L0,-3.0L2.5,-0.5"/>
  </g>
  <g id="resetDef">
    <use xlink:href="#rim2" fill="#404040"><set attributeName="fill" to="#808080" begin="reset.mouseover" end="reset.mouseout"/></use>
  </g>
</defs>
<script type="application/ecmascript">
var viewWidth = 388;
var viewHeight = 1698;
var sectionId = 'dynsection-0';
</script>
<script type="application/ecmascript" xlink:href="../../svg.min.js"/>
<svg id="graph" class="graph">
<g id="viewport">
<title>SdExFat</title>
<!-- Node1 -->
<g id="Node000001" class="node">
<title>Node1</title>
<g id="a_Node000001"><a xlink:title="SD file system class for exFAT volumes.">
<polygon fill="#999999" stroke="transparent" points="196,-49 147,-49 147,0 196,0 196,-49"/>
<text text-anchor="start" x="152.5" y="-36.5" font-family="Helvetica,sans-Serif" font-size="10.00">SdExFat</text>
<text text-anchor="start" x="170" y="-21.5" font-family="Helvetica,sans-Serif" font-size="10.00"> </text>
<text text-anchor="start" x="170" y="-6.5" font-family="Helvetica,sans-Serif" font-size="10.00"> </text>
<polygon fill="#666666" stroke="#666666" points="147.5,-31.5 147.5,-31.5 196.5,-31.5 196.5,-31.5 147.5,-31.5"/>
<polygon fill="#666666" stroke="#666666" points="147.5,-16.5 147.5,-16.5 196.5,-16.5 196.5,-16.5 147.5,-16.5"/>
<polygon fill="none" stroke="#666666" points="147,0 147,-49 196,-49 196,0 147,0"/>
</a>
</g>
</g>
<!-- Node2 -->
<g id="Node000002" class="node">
<title>Node2</title>
<g id="a_Node000002"><a xlink:href="../../da/d81/classSdBase.xhtml" target="_top" xlink:title=" ">
<polygon fill="white" stroke="transparent" points="254.5,-399 88.5,-399 88.5,-86 254.5,-86 254.5,-399"/>
<text text-anchor="start" x="114.5" y="-386.5" font-family="Helvetica,sans-Serif" font-size="10.00">SdBase&lt; ExFatVolume,</text>
<text text-anchor="start" x="127" y="-375.5" font-family="Helvetica,sans-Serif" font-size="10.00"> ExFatFormatter &gt;</text>
<text text-anchor="start" x="95" y="-360.5" font-family="Helvetica,sans-Serif" font-size="10.00">&#45;</text>
<text text-anchor="start" x="105.5" y="-360.5" font-family="Helvetica,sans-Serif" font-size="10.00">SdCard * m_card</text>
<text text-anchor="start" x="95" y="-345.5" font-family="Helvetica,sans-Serif" font-size="10.00">&#45;</text>
<text text-anchor="start" x="105.5" y="-345.5" font-family="Helvetica,sans-Serif" font-size="10.00">SdCardFactory m_cardFactory</text>
<text text-anchor="start" x="92.5" y="-330.5" font-family="Helvetica,sans-Serif" font-size="10.00">+</text>
<text text-anchor="start" x="105.5" y="-330.5" font-family="Helvetica,sans-Serif" font-size="10.00">bool begin(SdCsPin</text>
<text text-anchor="start" x="105.5" y="-319.5" font-family="Helvetica,sans-Serif" font-size="10.00">_t csPin=SS)</text>
<text text-anchor="start" x="92.5" y="-304.5" font-family="Helvetica,sans-Serif" font-size="10.00">+</text>
<text text-anchor="start" x="105.5" y="-304.5" font-family="Helvetica,sans-Serif" font-size="10.00">bool begin(SdCsPin</text>
<text text-anchor="start" x="105.5" y="-293.5" font-family="Helvetica,sans-Serif" font-size="10.00">_t csPin, uint32_t maxSck)</text>
<text text-anchor="start" x="92.5" y="-278.5" font-family="Helvetica,sans-Serif" font-size="10.00">+</text>
<text text-anchor="start" x="105.5" y="-278.5" font-family="Helvetica,sans-Serif" font-size="10.00">bool begin(SdSpiConfig</text>
<text text-anchor="start" x="105.5" y="-267.5" font-family="Helvetica,sans-Serif" font-size="10.00"> spiConfig)</text>
<text text-anchor="start" x="92.5" y="-252.5" font-family="Helvetica,sans-Serif" font-size="10.00">+</text>
<text text-anchor="start" x="105.5" y="-252.5" font-family="Helvetica,sans-Serif" font-size="10.00">bool begin(SdioConfig</text>
<text text-anchor="start" x="105.5" y="-241.5" font-family="Helvetica,sans-Serif" font-size="10.00"> sdioConfig)</text>
<text text-anchor="start" x="92.5" y="-226.5" font-family="Helvetica,sans-Serif" font-size="10.00">+</text>
<text text-anchor="start" x="105.5" y="-226.5" font-family="Helvetica,sans-Serif" font-size="10.00">SdCard * card()</text>
<text text-anchor="start" x="92.5" y="-211.5" font-family="Helvetica,sans-Serif" font-size="10.00">+</text>
<text text-anchor="start" x="105.5" y="-211.5" font-family="Helvetica,sans-Serif" font-size="10.00">bool cardBegin(SdSpiConfig</text>
<text text-anchor="start" x="105.5" y="-200.5" font-family="Helvetica,sans-Serif" font-size="10.00"> spiConfig)</text>
<text text-anchor="start" x="92.5" y="-185.5" font-family="Helvetica,sans-Serif" font-size="10.00">+</text>
<text text-anchor="start" x="105.5" y="-185.5" font-family="Helvetica,sans-Serif" font-size="10.00">bool cardBegin(SdioConfig</text>
<text text-anchor="start" x="105.5" y="-174.5" font-family="Helvetica,sans-Serif" font-size="10.00"> sdioConfig)</text>
<text text-anchor="start" x="92.5" y="-159.5" font-family="Helvetica,sans-Serif" font-size="10.00">+</text>
<text text-anchor="start" x="105.5" y="-159.5" font-family="Helvetica,sans-Serif" font-size="10.00">void end()</text>
<text text-anchor="start" x="92.5" y="-144.5" font-family="Helvetica,sans-Serif" font-size="10.00">+</text>
<text text-anchor="start" x="105.5" y="-144.5" font-family="Helvetica,sans-Serif" font-size="10.00">void errorHalt(print</text>
<text text-anchor="start" x="105.5" y="-133.5" font-family="Helvetica,sans-Serif" font-size="10.00">_t *pr)</text>
<text text-anchor="start" x="92.5" y="-118.5" font-family="Helvetica,sans-Serif" font-size="10.00">+</text>
<text text-anchor="start" x="105.5" y="-118.5" font-family="Helvetica,sans-Serif" font-size="10.00">void errorHalt(print</text>
<text text-anchor="start" x="105.5" y="-107.5" font-family="Helvetica,sans-Serif" font-size="10.00">_t *pr, const char *msg)</text>
<text text-anchor="start" x="105.5" y="-92.5" font-family="Helvetica,sans-Serif" font-size="10.00">et 28 de plus...</text>
<polygon fill="#666666" stroke="#666666" points="88.5,-370.5 88.5,-370.5 254.5,-370.5 254.5,-370.5 88.5,-370.5"/>
<polygon fill="#666666" stroke="#666666" points="88.5,-340.5 88.5,-340.5 103.5,-340.5 103.5,-340.5 88.5,-340.5"/>
<polygon fill="#666666" stroke="#666666" points="103.5,-340.5 103.5,-340.5 254.5,-340.5 254.5,-340.5 103.5,-340.5"/>
<polygon fill="none" stroke="#666666" points="88.5,-86 88.5,-399 254.5,-399 254.5,-86 88.5,-86"/>
</a>
</g>
</g>
<!-- Node2&#45;&gt;Node1 -->
<g id="edge1_Node000001_Node000002" class="edge">
<title>Node2&#45;&gt;Node1</title>
<g id="a_edge1_Node000001_Node000002"><a xlink:title=" ">
<path fill="none" stroke="#63b8ff" d="M171.5,-75.7C171.5,-65.74 171.5,-56.71 171.5,-49.15"/>
<polygon fill="none" stroke="#63b8ff" points="168,-75.96 171.5,-85.96 175,-75.96 168,-75.96"/>
</a>
</g>
</g>
<!-- Node3 -->
<g id="Node000003" class="node">
<title>Node3</title>
<g id="a_Node000003"><a xlink:href="../../d9/dce/classExFatVolume.xhtml" target="_top" xlink:title="exFAT volume.">
<polygon fill="white" stroke="transparent" points="158.5,-837 10.5,-837 10.5,-446 158.5,-446 158.5,-837"/>
<text text-anchor="start" x="52.5" y="-824.5" font-family="Helvetica,sans-Serif" font-size="10.00">ExFatVolume</text>
<text text-anchor="start" x="17" y="-809.5" font-family="Helvetica,sans-Serif" font-size="10.00">&#45;</text>
<text text-anchor="start" x="27.5" y="-809.5" font-family="Helvetica,sans-Serif" font-size="10.00">friend ExFatFile</text>
<text text-anchor="start" x="17" y="-794.5" font-family="Helvetica,sans-Serif" font-size="10.00">&#45;</text>
<text text-anchor="start" x="27.5" y="-794.5" font-family="Helvetica,sans-Serif" font-size="10.00">ExFatFile m_vwd</text>
<text text-anchor="start" x="17" y="-779.5" font-family="Helvetica,sans-Serif" font-size="10.00">&#45;</text>
<text text-anchor="start" x="27.5" y="-779.5" font-family="Helvetica,sans-Serif" font-size="10.00">static ExFatVolume</text>
<text text-anchor="start" x="27.5" y="-768.5" font-family="Helvetica,sans-Serif" font-size="10.00"> * m_cwv</text>
<text text-anchor="start" x="14.5" y="-753.5" font-family="Helvetica,sans-Serif" font-size="10.00">+</text>
<text text-anchor="start" x="27.5" y="-753.5" font-family="Helvetica,sans-Serif" font-size="10.00">ExFatVolume()</text>
<text text-anchor="start" x="14.5" y="-738.5" font-family="Helvetica,sans-Serif" font-size="10.00">+</text>
<text text-anchor="start" x="27.5" y="-738.5" font-family="Helvetica,sans-Serif" font-size="10.00">int attrib(const char</text>
<text text-anchor="start" x="27.5" y="-727.5" font-family="Helvetica,sans-Serif" font-size="10.00"> *path)</text>
<text text-anchor="start" x="14.5" y="-712.5" font-family="Helvetica,sans-Serif" font-size="10.00">+</text>
<text text-anchor="start" x="27.5" y="-712.5" font-family="Helvetica,sans-Serif" font-size="10.00">bool attrib(const char</text>
<text text-anchor="start" x="27.5" y="-701.5" font-family="Helvetica,sans-Serif" font-size="10.00"> *path, uint8_t bits)</text>
<text text-anchor="start" x="14.5" y="-686.5" font-family="Helvetica,sans-Serif" font-size="10.00">+</text>
<text text-anchor="start" x="27.5" y="-686.5" font-family="Helvetica,sans-Serif" font-size="10.00">bool begin(FsBlockDevice</text>
<text text-anchor="start" x="27.5" y="-675.5" font-family="Helvetica,sans-Serif" font-size="10.00"> *dev, bool setCwv=true,</text>
<text text-anchor="start" x="27.5" y="-664.5" font-family="Helvetica,sans-Serif" font-size="10.00"> uint8_t part=1, uint32</text>
<text text-anchor="start" x="27.5" y="-653.5" font-family="Helvetica,sans-Serif" font-size="10.00">_t volStart=0)</text>
<text text-anchor="start" x="14.5" y="-638.5" font-family="Helvetica,sans-Serif" font-size="10.00">+</text>
<text text-anchor="start" x="27.5" y="-638.5" font-family="Helvetica,sans-Serif" font-size="10.00">bool chdir()</text>
<text text-anchor="start" x="14.5" y="-623.5" font-family="Helvetica,sans-Serif" font-size="10.00">+</text>
<text text-anchor="start" x="27.5" y="-623.5" font-family="Helvetica,sans-Serif" font-size="10.00">bool chdir(const char</text>
<text text-anchor="start" x="27.5" y="-612.5" font-family="Helvetica,sans-Serif" font-size="10.00"> *path)</text>
<text text-anchor="start" x="14.5" y="-597.5" font-family="Helvetica,sans-Serif" font-size="10.00">+</text>
<text text-anchor="start" x="27.5" y="-597.5" font-family="Helvetica,sans-Serif" font-size="10.00">void chvol()</text>
<text text-anchor="start" x="14.5" y="-582.5" font-family="Helvetica,sans-Serif" font-size="10.00">+</text>
<text text-anchor="start" x="27.5" y="-582.5" font-family="Helvetica,sans-Serif" font-size="10.00">bool exists(const char</text>
<text text-anchor="start" x="27.5" y="-571.5" font-family="Helvetica,sans-Serif" font-size="10.00"> *path)</text>
<text text-anchor="start" x="14.5" y="-556.5" font-family="Helvetica,sans-Serif" font-size="10.00">+</text>
<text text-anchor="start" x="27.5" y="-556.5" font-family="Helvetica,sans-Serif" font-size="10.00">bool ls(print_t *pr,</text>
<text text-anchor="start" x="27.5" y="-545.5" font-family="Helvetica,sans-Serif" font-size="10.00"> uint8_t flags=0)</text>
<text text-anchor="start" x="14.5" y="-530.5" font-family="Helvetica,sans-Serif" font-size="10.00">+</text>
<text text-anchor="start" x="27.5" y="-530.5" font-family="Helvetica,sans-Serif" font-size="10.00">bool ls(print_t *pr,</text>
<text text-anchor="start" x="27.5" y="-519.5" font-family="Helvetica,sans-Serif" font-size="10.00"> const char *path, uint8</text>
<text text-anchor="start" x="27.5" y="-508.5" font-family="Helvetica,sans-Serif" font-size="10.00">_t flags)</text>
<text text-anchor="start" x="27.5" y="-493.5" font-family="Helvetica,sans-Serif" font-size="10.00">et 17 de plus...</text>
<text text-anchor="start" x="17" y="-478.5" font-family="Helvetica,sans-Serif" font-size="10.00">&#45;</text>
<text text-anchor="start" x="27.5" y="-478.5" font-family="Helvetica,sans-Serif" font-size="10.00">ExFatFile * vwd()</text>
<text text-anchor="start" x="17" y="-463.5" font-family="Helvetica,sans-Serif" font-size="10.00">&#45;</text>
<text text-anchor="start" x="27.5" y="-463.5" font-family="Helvetica,sans-Serif" font-size="10.00">static ExFatVolume</text>
<text text-anchor="start" x="27.5" y="-452.5" font-family="Helvetica,sans-Serif" font-size="10.00"> * cwv()</text>
<polygon fill="#666666" stroke="#666666" points="10.5,-819.5 10.5,-819.5 158.5,-819.5 158.5,-819.5 10.5,-819.5"/>
<polygon fill="#666666" stroke="#666666" points="10.5,-763.5 10.5,-763.5 25.5,-763.5 25.5,-763.5 10.5,-763.5"/>
<polygon fill="#666666" stroke="#666666" points="25.5,-763.5 25.5,-763.5 158.5,-763.5 158.5,-763.5 25.5,-763.5"/>
<polygon fill="none" stroke="#666666" points="10.5,-446 10.5,-837 158.5,-837 158.5,-446 10.5,-446"/>
</a>
</g>
</g>
<!-- Node3&#45;&gt;Node2 -->
<g id="edge2_Node000002_Node000003" class="edge">
<title>Node3&#45;&gt;Node2</title>
<g id="a_edge2_Node000002_Node000003"><a xlink:title=" ">
<path fill="none" stroke="#63b8ff" d="M129.34,-435.9C132.03,-423.6 134.72,-411.32 137.37,-399.26"/>
<polygon fill="none" stroke="#63b8ff" points="125.89,-435.26 127.17,-445.78 132.73,-436.76 125.89,-435.26"/>
</a>
</g>
</g>
<!-- Node4 -->
<g id="Node000004" class="node">
<title>Node4</title>
<g id="a_Node000004"><a xlink:href="../../d0/d63/classExFatPartition.xhtml" target="_top" xlink:title="Access exFat partitions on raw file devices.">
<polygon fill="white" stroke="transparent" points="169,-1690 0,-1690 0,-874 169,-874 169,-1690"/>
<text text-anchor="start" x="51.5" y="-1678" font-family="Helvetica,sans-Serif" font-size="10.00">ExFatPartition</text>
<text text-anchor="start" x="7" y="-1663" font-family="Helvetica,sans-Serif" font-size="10.00">&#45;</text>
<text text-anchor="start" x="17.5" y="-1663" font-family="Helvetica,sans-Serif" font-size="10.00">FsCache m_dataCache</text>
<text text-anchor="start" x="7" y="-1648" font-family="Helvetica,sans-Serif" font-size="10.00">&#45;</text>
<text text-anchor="start" x="17.5" y="-1648" font-family="Helvetica,sans-Serif" font-size="10.00">uint32_t m_bitmapStart</text>
<text text-anchor="start" x="7" y="-1633" font-family="Helvetica,sans-Serif" font-size="10.00">&#45;</text>
<text text-anchor="start" x="17.5" y="-1633" font-family="Helvetica,sans-Serif" font-size="10.00">uint32_t m_fatStartSector</text>
<text text-anchor="start" x="7" y="-1618" font-family="Helvetica,sans-Serif" font-size="10.00">&#45;</text>
<text text-anchor="start" x="17.5" y="-1618" font-family="Helvetica,sans-Serif" font-size="10.00">uint32_t m_fatLength</text>
<text text-anchor="start" x="7" y="-1603" font-family="Helvetica,sans-Serif" font-size="10.00">&#45;</text>
<text text-anchor="start" x="17.5" y="-1603" font-family="Helvetica,sans-Serif" font-size="10.00">uint32_t m_clusterHeapStart</text>
<text text-anchor="start" x="17.5" y="-1592" font-family="Helvetica,sans-Serif" font-size="10.00">Sector</text>
<text text-anchor="start" x="7" y="-1577" font-family="Helvetica,sans-Serif" font-size="10.00">&#45;</text>
<text text-anchor="start" x="17.5" y="-1577" font-family="Helvetica,sans-Serif" font-size="10.00">uint32_t m_clusterCount</text>
<text text-anchor="start" x="7" y="-1562" font-family="Helvetica,sans-Serif" font-size="10.00">&#45;</text>
<text text-anchor="start" x="17.5" y="-1562" font-family="Helvetica,sans-Serif" font-size="10.00">uint32_t m_rootDirectory</text>
<text text-anchor="start" x="17.5" y="-1551" font-family="Helvetica,sans-Serif" font-size="10.00">Cluster</text>
<text text-anchor="start" x="7" y="-1536" font-family="Helvetica,sans-Serif" font-size="10.00">&#45;</text>
<text text-anchor="start" x="17.5" y="-1536" font-family="Helvetica,sans-Serif" font-size="10.00">uint32_t m_clusterMask</text>
<text text-anchor="start" x="7" y="-1521" font-family="Helvetica,sans-Serif" font-size="10.00">&#45;</text>
<text text-anchor="start" x="17.5" y="-1521" font-family="Helvetica,sans-Serif" font-size="10.00">uint32_t m_bytesPerCluster</text>
<text text-anchor="start" x="7" y="-1506" font-family="Helvetica,sans-Serif" font-size="10.00">&#45;</text>
<text text-anchor="start" x="17.5" y="-1506" font-family="Helvetica,sans-Serif" font-size="10.00">FsBlockDevice * m_blockDev</text>
<text text-anchor="start" x="7" y="-1491" font-family="Helvetica,sans-Serif" font-size="10.00">&#45;</text>
<text text-anchor="start" x="17.5" y="-1491" font-family="Helvetica,sans-Serif" font-size="10.00">uint8_t m_fatType</text>
<text text-anchor="start" x="7" y="-1476" font-family="Helvetica,sans-Serif" font-size="10.00">&#45;</text>
<text text-anchor="start" x="17.5" y="-1476" font-family="Helvetica,sans-Serif" font-size="10.00">uint8_t m_sectorsPerCluster</text>
<text text-anchor="start" x="17.5" y="-1465" font-family="Helvetica,sans-Serif" font-size="10.00">Shift</text>
<text text-anchor="start" x="7" y="-1450" font-family="Helvetica,sans-Serif" font-size="10.00">&#45;</text>
<text text-anchor="start" x="17.5" y="-1450" font-family="Helvetica,sans-Serif" font-size="10.00">static const uint8</text>
<text text-anchor="start" x="17.5" y="-1439" font-family="Helvetica,sans-Serif" font-size="10.00">_t m_bytesPerSectorShift</text>
<text text-anchor="start" x="7" y="-1424" font-family="Helvetica,sans-Serif" font-size="10.00">&#45;</text>
<text text-anchor="start" x="17.5" y="-1424" font-family="Helvetica,sans-Serif" font-size="10.00">static const uint16</text>
<text text-anchor="start" x="17.5" y="-1413" font-family="Helvetica,sans-Serif" font-size="10.00">_t m_bytesPerSector</text>
<text text-anchor="start" x="7" y="-1398" font-family="Helvetica,sans-Serif" font-size="10.00">&#45;</text>
<text text-anchor="start" x="17.5" y="-1398" font-family="Helvetica,sans-Serif" font-size="10.00">static const uint16</text>
<text text-anchor="start" x="17.5" y="-1387" font-family="Helvetica,sans-Serif" font-size="10.00">_t m_sectorMask</text>
<text text-anchor="start" x="4.5" y="-1372" font-family="Helvetica,sans-Serif" font-size="10.00">+</text>
<text text-anchor="start" x="17.5" y="-1372" font-family="Helvetica,sans-Serif" font-size="10.00">ExFatPartition()=default</text>
<text text-anchor="start" x="4.5" y="-1357" font-family="Helvetica,sans-Serif" font-size="10.00">+</text>
<text text-anchor="start" x="17.5" y="-1357" font-family="Helvetica,sans-Serif" font-size="10.00">uint32_t bytesPerCluster</text>
<text text-anchor="start" x="17.5" y="-1346" font-family="Helvetica,sans-Serif" font-size="10.00">() const</text>
<text text-anchor="start" x="4.5" y="-1331" font-family="Helvetica,sans-Serif" font-size="10.00">+</text>
<text text-anchor="start" x="17.5" y="-1331" font-family="Helvetica,sans-Serif" font-size="10.00">uint8_t bytesPerClusterShift</text>
<text text-anchor="start" x="17.5" y="-1320" font-family="Helvetica,sans-Serif" font-size="10.00">() const</text>
<text text-anchor="start" x="4.5" y="-1305" font-family="Helvetica,sans-Serif" font-size="10.00">+</text>
<text text-anchor="start" x="17.5" y="-1305" font-family="Helvetica,sans-Serif" font-size="10.00">uint16_t bytesPerSector</text>
<text text-anchor="start" x="17.5" y="-1294" font-family="Helvetica,sans-Serif" font-size="10.00">() const</text>
<text text-anchor="start" x="4.5" y="-1279" font-family="Helvetica,sans-Serif" font-size="10.00">+</text>
<text text-anchor="start" x="17.5" y="-1279" font-family="Helvetica,sans-Serif" font-size="10.00">uint8_t bytesPerSectorShift</text>
<text text-anchor="start" x="17.5" y="-1268" font-family="Helvetica,sans-Serif" font-size="10.00">() const</text>
<text text-anchor="start" x="4.5" y="-1253" font-family="Helvetica,sans-Serif" font-size="10.00">+</text>
<text text-anchor="start" x="17.5" y="-1253" font-family="Helvetica,sans-Serif" font-size="10.00">uint8_t * cacheClear()</text>
<text text-anchor="start" x="4.5" y="-1238" font-family="Helvetica,sans-Serif" font-size="10.00">+</text>
<text text-anchor="start" x="17.5" y="-1238" font-family="Helvetica,sans-Serif" font-size="10.00">uint32_t clusterCount</text>
<text text-anchor="start" x="17.5" y="-1227" font-family="Helvetica,sans-Serif" font-size="10.00">() const</text>
<text text-anchor="start" x="4.5" y="-1212" font-family="Helvetica,sans-Serif" font-size="10.00">+</text>
<text text-anchor="start" x="17.5" y="-1212" font-family="Helvetica,sans-Serif" font-size="10.00">uint32_t clusterHeapStart</text>
<text text-anchor="start" x="17.5" y="-1201" font-family="Helvetica,sans-Serif" font-size="10.00">Sector() const</text>
<text text-anchor="start" x="4.5" y="-1186" font-family="Helvetica,sans-Serif" font-size="10.00">+</text>
<text text-anchor="start" x="17.5" y="-1186" font-family="Helvetica,sans-Serif" font-size="10.00">uint8_t * end()</text>
<text text-anchor="start" x="4.5" y="-1171" font-family="Helvetica,sans-Serif" font-size="10.00">+</text>
<text text-anchor="start" x="17.5" y="-1171" font-family="Helvetica,sans-Serif" font-size="10.00">uint32_t fatLength</text>
<text text-anchor="start" x="17.5" y="-1160" font-family="Helvetica,sans-Serif" font-size="10.00">() const</text>
<text text-anchor="start" x="17.5" y="-1145" font-family="Helvetica,sans-Serif" font-size="10.00">et 19 de plus...</text>
<text text-anchor="start" x="7" y="-1130" font-family="Helvetica,sans-Serif" font-size="10.00">&#45;</text>
<text text-anchor="start" x="17.5" y="-1130" font-family="Helvetica,sans-Serif" font-size="10.00">uint32_t bitmapFind</text>
<text text-anchor="start" x="17.5" y="-1119" font-family="Helvetica,sans-Serif" font-size="10.00">(uint32_t cluster, uint32</text>
<text text-anchor="start" x="17.5" y="-1108" font-family="Helvetica,sans-Serif" font-size="10.00">_t count)</text>
<text text-anchor="start" x="7" y="-1093" font-family="Helvetica,sans-Serif" font-size="10.00">&#45;</text>
<text text-anchor="start" x="17.5" y="-1093" font-family="Helvetica,sans-Serif" font-size="10.00">bool bitmapModify(uint32</text>
<text text-anchor="start" x="17.5" y="-1082" font-family="Helvetica,sans-Serif" font-size="10.00">_t cluster, uint32_t count,</text>
<text text-anchor="start" x="17.5" y="-1071" font-family="Helvetica,sans-Serif" font-size="10.00"> bool value)</text>
<text text-anchor="start" x="7" y="-1056" font-family="Helvetica,sans-Serif" font-size="10.00">&#45;</text>
<text text-anchor="start" x="17.5" y="-1056" font-family="Helvetica,sans-Serif" font-size="10.00">uint8_t * bitmapCachePrepare</text>
<text text-anchor="start" x="17.5" y="-1045" font-family="Helvetica,sans-Serif" font-size="10.00">(uint32_t sector, uint8_t</text>
<text text-anchor="start" x="17.5" y="-1034" font-family="Helvetica,sans-Serif" font-size="10.00"> option)</text>
<text text-anchor="start" x="7" y="-1019" font-family="Helvetica,sans-Serif" font-size="10.00">&#45;</text>
<text text-anchor="start" x="17.5" y="-1019" font-family="Helvetica,sans-Serif" font-size="10.00">void cacheInit(FsBlockDevice</text>
<text text-anchor="start" x="17.5" y="-1008" font-family="Helvetica,sans-Serif" font-size="10.00"> *dev)</text>
<text text-anchor="start" x="7" y="-993" font-family="Helvetica,sans-Serif" font-size="10.00">&#45;</text>
<text text-anchor="start" x="17.5" y="-993" font-family="Helvetica,sans-Serif" font-size="10.00">bool cacheSync()</text>
<text text-anchor="start" x="7" y="-978" font-family="Helvetica,sans-Serif" font-size="10.00">&#45;</text>
<text text-anchor="start" x="17.5" y="-978" font-family="Helvetica,sans-Serif" font-size="10.00">void dataCacheDirty()</text>
<text text-anchor="start" x="7" y="-963" font-family="Helvetica,sans-Serif" font-size="10.00">&#45;</text>
<text text-anchor="start" x="17.5" y="-963" font-family="Helvetica,sans-Serif" font-size="10.00">void dataCacheInvalidate()</text>
<text text-anchor="start" x="7" y="-948" font-family="Helvetica,sans-Serif" font-size="10.00">&#45;</text>
<text text-anchor="start" x="17.5" y="-948" font-family="Helvetica,sans-Serif" font-size="10.00">uint8_t * dataCachePrepare</text>
<text text-anchor="start" x="17.5" y="-937" font-family="Helvetica,sans-Serif" font-size="10.00">(uint32_t sector, uint8</text>
<text text-anchor="start" x="17.5" y="-926" font-family="Helvetica,sans-Serif" font-size="10.00">_t option)</text>
<text text-anchor="start" x="7" y="-911" font-family="Helvetica,sans-Serif" font-size="10.00">&#45;</text>
<text text-anchor="start" x="17.5" y="-911" font-family="Helvetica,sans-Serif" font-size="10.00">uint32_t dataCacheSector()</text>
<text text-anchor="start" x="7" y="-896" font-family="Helvetica,sans-Serif" font-size="10.00">&#45;</text>
<text text-anchor="start" x="17.5" y="-896" font-family="Helvetica,sans-Serif" font-size="10.00">bool dataCacheSync()</text>
<text text-anchor="start" x="17.5" y="-881" font-family="Helvetica,sans-Serif" font-size="10.00">et 16 de plus...</text>
<polygon fill="#666666" stroke="#666666" points="0.5,-1673 0.5,-1673 169.5,-1673 169.5,-1673 0.5,-1673"/>
<polygon fill="#666666" stroke="#666666" points="0.5,-1382 0.5,-1382 15.5,-1382 15.5,-1382 0.5,-1382"/>
<polygon fill="#666666" stroke="#666666" points="15.5,-1382 15.5,-1382 169.5,-1382 169.5,-1382 15.5,-1382"/>
<polygon fill="none" stroke="#666666" points="0,-874 0,-1690 169,-1690 169,-874 0,-874"/>
</a>
</g>
</g>
<!-- Node4&#45;&gt;Node3 -->
<g id="edge3_Node000003_Node000004" class="edge">
<title>Node4&#45;&gt;Node3</title>
<g id="a_edge3_Node000003_Node000004"><a xlink:title=" ">
<path fill="none" stroke="#63b8ff" d="M84.5,-863.7C84.5,-854.7 84.5,-845.81 84.5,-837.07"/>
<polygon fill="none" stroke="#63b8ff" points="81,-863.92 84.5,-873.92 88,-863.92 81,-863.92"/>
</a>
</g>
</g>
<!-- Node5 -->
<g id="Node000005" class="node">
<title>Node5</title>
<g id="a_Node000005"><a xlink:href="../../da/d81/classSdBase.xhtml" target="_top" xlink:title="base SD file system template class.">
<polygon fill="white" stroke="transparent" points="342.5,-792.5 176.5,-792.5 176.5,-490.5 342.5,-490.5 342.5,-792.5"/>
<text text-anchor="start" x="209.5" y="-780.5" font-family="Helvetica,sans-Serif" font-size="10.00">SdBase&lt; Vol, Fmt &gt;</text>
<text text-anchor="start" x="183" y="-765.5" font-family="Helvetica,sans-Serif" font-size="10.00">&#45;</text>
<text text-anchor="start" x="193.5" y="-765.5" font-family="Helvetica,sans-Serif" font-size="10.00">SdCard * m_card</text>
<text text-anchor="start" x="183" y="-750.5" font-family="Helvetica,sans-Serif" font-size="10.00">&#45;</text>
<text text-anchor="start" x="193.5" y="-750.5" font-family="Helvetica,sans-Serif" font-size="10.00">SdCardFactory m_cardFactory</text>
<text text-anchor="start" x="180.5" y="-735.5" font-family="Helvetica,sans-Serif" font-size="10.00">+</text>
<text text-anchor="start" x="193.5" y="-735.5" font-family="Helvetica,sans-Serif" font-size="10.00">bool begin(SdCsPin</text>
<text text-anchor="start" x="193.5" y="-724.5" font-family="Helvetica,sans-Serif" font-size="10.00">_t csPin=SS)</text>
<text text-anchor="start" x="180.5" y="-709.5" font-family="Helvetica,sans-Serif" font-size="10.00">+</text>
<text text-anchor="start" x="193.5" y="-709.5" font-family="Helvetica,sans-Serif" font-size="10.00">bool begin(SdCsPin</text>
<text text-anchor="start" x="193.5" y="-698.5" font-family="Helvetica,sans-Serif" font-size="10.00">_t csPin, uint32_t maxSck)</text>
<text text-anchor="start" x="180.5" y="-683.5" font-family="Helvetica,sans-Serif" font-size="10.00">+</text>
<text text-anchor="start" x="193.5" y="-683.5" font-family="Helvetica,sans-Serif" font-size="10.00">bool begin(SdSpiConfig</text>
<text text-anchor="start" x="193.5" y="-672.5" font-family="Helvetica,sans-Serif" font-size="10.00"> spiConfig)</text>
<text text-anchor="start" x="180.5" y="-657.5" font-family="Helvetica,sans-Serif" font-size="10.00">+</text>
<text text-anchor="start" x="193.5" y="-657.5" font-family="Helvetica,sans-Serif" font-size="10.00">bool begin(SdioConfig</text>
<text text-anchor="start" x="193.5" y="-646.5" font-family="Helvetica,sans-Serif" font-size="10.00"> sdioConfig)</text>
<text text-anchor="start" x="180.5" y="-631.5" font-family="Helvetica,sans-Serif" font-size="10.00">+</text>
<text text-anchor="start" x="193.5" y="-631.5" font-family="Helvetica,sans-Serif" font-size="10.00">SdCard * card()</text>
<text text-anchor="start" x="180.5" y="-616.5" font-family="Helvetica,sans-Serif" font-size="10.00">+</text>
<text text-anchor="start" x="193.5" y="-616.5" font-family="Helvetica,sans-Serif" font-size="10.00">bool cardBegin(SdSpiConfig</text>
<text text-anchor="start" x="193.5" y="-605.5" font-family="Helvetica,sans-Serif" font-size="10.00"> spiConfig)</text>
<text text-anchor="start" x="180.5" y="-590.5" font-family="Helvetica,sans-Serif" font-size="10.00">+</text>
<text text-anchor="start" x="193.5" y="-590.5" font-family="Helvetica,sans-Serif" font-size="10.00">bool cardBegin(SdioConfig</text>
<text text-anchor="start" x="193.5" y="-579.5" font-family="Helvetica,sans-Serif" font-size="10.00"> sdioConfig)</text>
<text text-anchor="start" x="180.5" y="-564.5" font-family="Helvetica,sans-Serif" font-size="10.00">+</text>
<text text-anchor="start" x="193.5" y="-564.5" font-family="Helvetica,sans-Serif" font-size="10.00">void end()</text>
<text text-anchor="start" x="180.5" y="-549.5" font-family="Helvetica,sans-Serif" font-size="10.00">+</text>
<text text-anchor="start" x="193.5" y="-549.5" font-family="Helvetica,sans-Serif" font-size="10.00">void errorHalt(print</text>
<text text-anchor="start" x="193.5" y="-538.5" font-family="Helvetica,sans-Serif" font-size="10.00">_t *pr)</text>
<text text-anchor="start" x="180.5" y="-523.5" font-family="Helvetica,sans-Serif" font-size="10.00">+</text>
<text text-anchor="start" x="193.5" y="-523.5" font-family="Helvetica,sans-Serif" font-size="10.00">void errorHalt(print</text>
<text text-anchor="start" x="193.5" y="-512.5" font-family="Helvetica,sans-Serif" font-size="10.00">_t *pr, const char *msg)</text>
<text text-anchor="start" x="193.5" y="-497.5" font-family="Helvetica,sans-Serif" font-size="10.00">et 28 de plus...</text>
<polygon fill="#666666" stroke="#666666" points="176.5,-775.5 176.5,-775.5 342.5,-775.5 342.5,-775.5 176.5,-775.5"/>
<polygon fill="#666666" stroke="#666666" points="176.5,-745.5 176.5,-745.5 191.5,-745.5 191.5,-745.5 176.5,-745.5"/>
<polygon fill="#666666" stroke="#666666" points="191.5,-745.5 191.5,-745.5 342.5,-745.5 342.5,-745.5 191.5,-745.5"/>
<polygon fill="none" stroke="#666666" points="176.5,-490.5 176.5,-792.5 342.5,-792.5 342.5,-490.5 176.5,-490.5"/>
</a>
</g>
</g>
<!-- Node5&#45;&gt;Node2 -->
<g id="edge4_Node000002_Node000005" class="edge">
<title>Node5&#45;&gt;Node2</title>
<g id="a_edge4_Node000002_Node000005"><a xlink:title=" ">
<path fill="none" stroke="orange" d="M224.05,-480.56C218.09,-453.69 211.92,-425.84 205.99,-399.09"/>
<polygon fill="orange" stroke="orange" points="220.65,-481.41 226.23,-490.41 227.48,-479.89 220.65,-481.41"/>
</a>
</g>
<text text-anchor="middle" x="295" y="-420" font-family="Helvetica,sans-Serif" font-size="10.00" fill="grey"> &lt; ExFatVolume, ExFatFormatter &gt;</text>
</g>
<!-- Node6 -->
<g id="Node000006" class="node">
<title>Node6</title>
<g id="a_Node000006"><a xlink:title=" ">
<polygon fill="white" stroke="transparent" points="272.5,-1306.5 246.5,-1306.5 246.5,-1257.5 272.5,-1257.5 272.5,-1306.5"/>
<text text-anchor="start" x="251.5" y="-1294" font-family="Helvetica,sans-Serif" font-size="10.00">Vol</text>
<text text-anchor="start" x="257.5" y="-1279" font-family="Helvetica,sans-Serif" font-size="10.00"> </text>
<text text-anchor="start" x="257.5" y="-1264" font-family="Helvetica,sans-Serif" font-size="10.00"> </text>
<polygon fill="#666666" stroke="#666666" points="246.5,-1289 246.5,-1289 272.5,-1289 272.5,-1289 246.5,-1289"/>
<polygon fill="#666666" stroke="#666666" points="246.5,-1274 246.5,-1274 272.5,-1274 272.5,-1274 246.5,-1274"/>
<polygon fill="none" stroke="#666666" points="246.5,-1257.5 246.5,-1306.5 272.5,-1306.5 272.5,-1257.5 246.5,-1257.5"/>
</a>
</g>
</g>
<!-- Node6&#45;&gt;Node5 -->
<g id="edge5_Node000005_Node000006" class="edge">
<title>Node6&#45;&gt;Node5</title>
<g id="a_edge5_Node000005_Node000006"><a xlink:title=" ">
<path fill="none" stroke="#63b8ff" d="M259.5,-1246.92C259.5,-1163.09 259.5,-942.82 259.5,-792.67"/>
<polygon fill="none" stroke="#63b8ff" points="256,-1247.14 259.5,-1257.14 263,-1247.14 256,-1247.14"/>
</a>
</g>
</g>
</g>
</svg>

<g id="navigator" transform="translate(0 0)" fill="#404254">
  <rect fill="#f2f5e9" fill-opacity="0.5" stroke="#606060" stroke-width=".5" x="0" y="0" width="60" height="60"/>
  <use id="zoomplus" xlink:href="#zoomPlus" x="17" y="9" onmousedown="handleZoom(evt,'in')"/>
  <use id="zoomminus" xlink:href="#zoomMin" x="42" y="9" onmousedown="handleZoom(evt,'out')"/>
  <use id="reset" xlink:href="#resetDef" x="30" y="36" onmousedown="handleReset()"/>
   <use id="arrowup" xlink:href="#arrowUp" x="0" y="0" onmousedown="handlePan(0,-1)"/>
  <use id="arrowright" xlink:href="#arrowRight" x="0" y="0" onmousedown="handlePan(1,0)"/>
  <use id="arrowdown" xlink:href="#arrowDown" x="0" y="0" onmousedown="handlePan(0,1)"/>
  <use id="arrowleft" xlink:href="#arrowLeft" x="0" y="0" onmousedown="handlePan(-1,0)"/>
</g>
<svg viewBox="0 0 15 15" width="100%" height="30px" preserveAspectRatio="xMaxYMin meet">
 <g id="arrow_out" transform="scale(0.3 0.3)">
  <a xlink:href="classSdExFat__inherit__graph_org.svg" target="_base">
   <rect id="button" ry="5" rx="5" y="6" x="6" height="38" width="38"
        fill="#f2f5e9" fill-opacity="0.5" stroke="#606060" stroke-width="1.0"/>
   <path id="arrow"
     d="M 11.500037,31.436501 C 11.940474,20.09759 22.043105,11.32322 32.158766,21.979434 L 37.068811,17.246167 C 37.068811,17.246167 37.088388,32 37.088388,32 L 22.160133,31.978069 C 22.160133,31.978069 26.997745,27.140456 26.997745,27.140456 C 18.528582,18.264221 13.291696,25.230495 11.500037,31.436501 z"
     style="fill:#404040;"/>
  </a>
 </g>
</svg>

<style type='text/css'>
<![CDATA[
[data-mouse-over-selected='false'] { opacity: 0.7; }
[data-mouse-over-selected='true']  { opacity: 1.0; }
]]>
</style>
<script type="application/ecmascript"><![CDATA[
document.addEventListener('DOMContentLoaded', (event) => {
  highlightEdges();
  highlightAdjacentNodes();
});
]]></script>
</svg>
