<?xml version="1.0" encoding="UTF-8" standalone="no"?>
<!DOCTYPE svg PUBLIC "-//W3C//DTD SVG 1.1//EN"
 "http://www.w3.org/Graphics/SVG/1.1/DTD/svg11.dtd">
<!-- Generated by graphviz version 2.43.0 (0)
 -->
<!-- Title: /mnt/d/Cours/10. CESI A2/Blocs/01 &#45; Systeme embarque/Livrables/Station_Meteo_Groupe_1 &#45; Copy/libs/SdFat/src/iostream/ios.h Pages: 1 -->
<svg width="807pt" height="566pt"
 viewBox="0.00 0.00 807.00 566.00" xmlns="http://www.w3.org/2000/svg" xmlns:xlink="http://www.w3.org/1999/xlink">
<g id="graph0" class="graph" transform="scale(1 1) rotate(0) translate(4 562)">
<title>/mnt/d/Cours/10. CESI A2/Blocs/01 &#45; Systeme embarque/Livrables/Station_Meteo_Groupe_1 &#45; Copy/libs/SdFat/src/iostream/ios.h</title>
<!-- Node1 -->
<g id="Node000001" class="node">
<title>Node1</title>
<g id="a_Node000001"><a xlink:title="ios_base and ios classes">
<polygon fill="#999999" stroke="#666666" points="458,-558 299,-558 299,-495 458,-495 458,-558"/>
<text text-anchor="start" x="307" y="-546" font-family="Helvetica,sans-Serif" font-size="10.00">/mnt/d/Cours/10. CESI</text>
<text text-anchor="start" x="307" y="-535" font-family="Helvetica,sans-Serif" font-size="10.00"> A2/Blocs/01 &#45; Systeme</text>
<text text-anchor="start" x="307" y="-524" font-family="Helvetica,sans-Serif" font-size="10.00"> embarque/Livrables/Station</text>
<text text-anchor="start" x="307" y="-513" font-family="Helvetica,sans-Serif" font-size="10.00">_Meteo_Groupe_1 &#45; Copy/libs</text>
<text text-anchor="middle" x="378.5" y="-502" font-family="Helvetica,sans-Serif" font-size="10.00">/SdFat/src/iostream/ios.h</text>
</a>
</g>
</g>
<!-- Node2 -->
<g id="Node000002" class="node">
<title>Node2</title>
<g id="a_Node000002"><a xlink:href="../../d9/dcd/StdioStream_8h.xhtml" target="_top" xlink:title="StdioStream class.">
<polygon fill="white" stroke="#666666" points="280.5,-459 98.5,-459 98.5,-396 280.5,-396 280.5,-459"/>
<text text-anchor="start" x="106.5" y="-447" font-family="Helvetica,sans-Serif" font-size="10.00">/mnt/d/Cours/10. CESI</text>
<text text-anchor="start" x="106.5" y="-436" font-family="Helvetica,sans-Serif" font-size="10.00"> A2/Blocs/01 &#45; Systeme</text>
<text text-anchor="start" x="106.5" y="-425" font-family="Helvetica,sans-Serif" font-size="10.00"> embarque/Livrables/Station</text>
<text text-anchor="start" x="106.5" y="-414" font-family="Helvetica,sans-Serif" font-size="10.00">_Meteo_Groupe_1 &#45; Copy/libs</text>
<text text-anchor="middle" x="189.5" y="-403" font-family="Helvetica,sans-Serif" font-size="10.00">/SdFat/src/iostream/StdioStream.h</text>
</a>
</g>
</g>
<!-- Node1&#45;&gt;Node2 -->
<g id="edge1_Node000001_Node000002" class="edge">
<title>Node1&#45;&gt;Node2</title>
<g id="a_edge1_Node000001_Node000002"><a xlink:title=" ">
<path fill="none" stroke="#63b8ff" d="M309.93,-490.31C290,-480.08 268.4,-468.99 249.07,-459.07"/>
<polygon fill="#63b8ff" stroke="#63b8ff" points="308.46,-493.49 318.96,-494.94 311.66,-487.26 308.46,-493.49"/>
</a>
</g>
</g>
<!-- Node5 -->
<g id="Node000005" class="node">
<title>Node5</title>
<g id="a_Node000005"><a xlink:href="../../db/dc9/istream_8h.xhtml" target="_top" xlink:title="istream class">
<polygon fill="white" stroke="#666666" points="458,-459 299,-459 299,-396 458,-396 458,-459"/>
<text text-anchor="start" x="307" y="-447" font-family="Helvetica,sans-Serif" font-size="10.00">/mnt/d/Cours/10. CESI</text>
<text text-anchor="start" x="307" y="-436" font-family="Helvetica,sans-Serif" font-size="10.00"> A2/Blocs/01 &#45; Systeme</text>
<text text-anchor="start" x="307" y="-425" font-family="Helvetica,sans-Serif" font-size="10.00"> embarque/Livrables/Station</text>
<text text-anchor="start" x="307" y="-414" font-family="Helvetica,sans-Serif" font-size="10.00">_Meteo_Groupe_1 &#45; Copy/libs</text>
<text text-anchor="middle" x="378.5" y="-403" font-family="Helvetica,sans-Serif" font-size="10.00">/SdFat/src/iostream/istream.h</text>
</a>
</g>
</g>
<!-- Node1&#45;&gt;Node5 -->
<g id="edge4_Node000001_Node000005" class="edge">
<title>Node1&#45;&gt;Node5</title>
<g id="a_edge4_Node000001_Node000005"><a xlink:title=" ">
<path fill="none" stroke="#63b8ff" d="M378.5,-484.69C378.5,-476.2 378.5,-467.38 378.5,-459.32"/>
<polygon fill="#63b8ff" stroke="#63b8ff" points="375,-484.81 378.5,-494.81 382,-484.81 375,-484.81"/>
</a>
</g>
</g>
<!-- Node12 -->
<g id="Node000012" class="node">
<title>Node12</title>
<g id="a_Node000012"><a xlink:href="../../dc/d64/ostream_8h.xhtml" target="_top" xlink:title="ostream class">
<polygon fill="white" stroke="#666666" points="638.5,-459 476.5,-459 476.5,-396 638.5,-396 638.5,-459"/>
<text text-anchor="start" x="484.5" y="-447" font-family="Helvetica,sans-Serif" font-size="10.00">/mnt/d/Cours/10. CESI</text>
<text text-anchor="start" x="484.5" y="-436" font-family="Helvetica,sans-Serif" font-size="10.00"> A2/Blocs/01 &#45; Systeme</text>
<text text-anchor="start" x="484.5" y="-425" font-family="Helvetica,sans-Serif" font-size="10.00"> embarque/Livrables/Station</text>
<text text-anchor="start" x="484.5" y="-414" font-family="Helvetica,sans-Serif" font-size="10.00">_Meteo_Groupe_1 &#45; Copy/libs</text>
<text text-anchor="middle" x="557.5" y="-403" font-family="Helvetica,sans-Serif" font-size="10.00">/SdFat/src/iostream/ostream.h</text>
</a>
</g>
</g>
<!-- Node1&#45;&gt;Node12 -->
<g id="edge13_Node000001_Node000012" class="edge">
<title>Node1&#45;&gt;Node12</title>
<g id="a_edge13_Node000001_Node000012"><a xlink:title=" ">
<path fill="none" stroke="#63b8ff" d="M444.15,-489.93C462.77,-479.83 482.89,-468.93 500.92,-459.16"/>
<polygon fill="#63b8ff" stroke="#63b8ff" points="442.26,-486.97 435.14,-494.81 445.6,-493.12 442.26,-486.97"/>
</a>
</g>
</g>
<!-- Node3 -->
<g id="Node000003" class="node">
<title>Node3</title>
<g id="a_Node000003"><a xlink:href="../../df/d9a/StdioStream_8cpp.xhtml" target="_top" xlink:title=" ">
<polygon fill="white" stroke="#666666" points="193,-360 0,-360 0,-297 193,-297 193,-360"/>
<text text-anchor="start" x="8" y="-348" font-family="Helvetica,sans-Serif" font-size="10.00">/mnt/d/Cours/10. CESI</text>
<text text-anchor="start" x="8" y="-337" font-family="Helvetica,sans-Serif" font-size="10.00"> A2/Blocs/01 &#45; Systeme</text>
<text text-anchor="start" x="8" y="-326" font-family="Helvetica,sans-Serif" font-size="10.00"> embarque/Livrables/Station</text>
<text text-anchor="start" x="8" y="-315" font-family="Helvetica,sans-Serif" font-size="10.00">_Meteo_Groupe_1 &#45; Copy/libs</text>
<text text-anchor="middle" x="96.5" y="-304" font-family="Helvetica,sans-Serif" font-size="10.00">/SdFat/src/iostream/StdioStream.cpp</text>
</a>
</g>
</g>
<!-- Node2&#45;&gt;Node3 -->
<g id="edge2_Node000002_Node000003" class="edge">
<title>Node2&#45;&gt;Node3</title>
<g id="a_edge2_Node000002_Node000003"><a xlink:title=" ">
<path fill="none" stroke="#63b8ff" d="M153.04,-388.47C144.09,-379.14 134.63,-369.27 126.05,-360.32"/>
<polygon fill="#63b8ff" stroke="#63b8ff" points="150.63,-391.01 160.07,-395.81 155.68,-386.17 150.63,-391.01"/>
</a>
</g>
</g>
<!-- Node4 -->
<g id="Node000004" class="node">
<title>Node4</title>
<g id="a_Node000004"><a xlink:href="../../d8/d12/sdios_8h.xhtml" target="_top" xlink:title="C++ IO Streams features.">
<polygon fill="white" stroke="#666666" points="426,-63 267,-63 267,0 426,0 426,-63"/>
<text text-anchor="start" x="275" y="-51" font-family="Helvetica,sans-Serif" font-size="10.00">/mnt/d/Cours/10. CESI</text>
<text text-anchor="start" x="275" y="-40" font-family="Helvetica,sans-Serif" font-size="10.00"> A2/Blocs/01 &#45; Systeme</text>
<text text-anchor="start" x="275" y="-29" font-family="Helvetica,sans-Serif" font-size="10.00"> embarque/Livrables/Station</text>
<text text-anchor="start" x="275" y="-18" font-family="Helvetica,sans-Serif" font-size="10.00">_Meteo_Groupe_1 &#45; Copy/libs</text>
<text text-anchor="middle" x="346.5" y="-7" font-family="Helvetica,sans-Serif" font-size="10.00">/SdFat/src/sdios.h</text>
</a>
</g>
</g>
<!-- Node2&#45;&gt;Node4 -->
<g id="edge3_Node000002_Node000004" class="edge">
<title>Node2&#45;&gt;Node4</title>
<g id="a_edge3_Node000002_Node000004"><a xlink:title=" ">
<path fill="none" stroke="#63b8ff" d="M197.07,-385.67C198.58,-377.19 200.13,-368.31 201.5,-360 220.58,-244.27 176.28,-197.14 240.5,-99 249.96,-84.55 263.76,-72.66 278.3,-63.13"/>
<polygon fill="#63b8ff" stroke="#63b8ff" points="193.58,-385.28 195.25,-395.74 200.47,-386.52 193.58,-385.28"/>
</a>
</g>
</g>
<!-- Node6 -->
<g id="Node000006" class="node">
<title>Node6</title>
<g id="a_Node000006"><a xlink:href="../../dd/d27/iostream_8h.xhtml" target="_top" xlink:title="iostream class">
<polygon fill="white" stroke="#666666" points="608,-360 443,-360 443,-297 608,-297 608,-360"/>
<text text-anchor="start" x="451" y="-348" font-family="Helvetica,sans-Serif" font-size="10.00">/mnt/d/Cours/10. CESI</text>
<text text-anchor="start" x="451" y="-337" font-family="Helvetica,sans-Serif" font-size="10.00"> A2/Blocs/01 &#45; Systeme</text>
<text text-anchor="start" x="451" y="-326" font-family="Helvetica,sans-Serif" font-size="10.00"> embarque/Livrables/Station</text>
<text text-anchor="start" x="451" y="-315" font-family="Helvetica,sans-Serif" font-size="10.00">_Meteo_Groupe_1 &#45; Copy/libs</text>
<text text-anchor="middle" x="525.5" y="-304" font-family="Helvetica,sans-Serif" font-size="10.00">/SdFat/src/iostream/iostream.h</text>
</a>
</g>
</g>
<!-- Node5&#45;&gt;Node6 -->
<g id="edge5_Node000005_Node000006" class="edge">
<title>Node5&#45;&gt;Node6</title>
<g id="a_edge5_Node000005_Node000006"><a xlink:title=" ">
<path fill="none" stroke="#63b8ff" d="M433.66,-390.1C448.61,-380.24 464.63,-369.67 479.04,-360.16"/>
<polygon fill="#63b8ff" stroke="#63b8ff" points="431.43,-387.38 425.01,-395.81 435.29,-393.22 431.43,-387.38"/>
</a>
</g>
</g>
<!-- Node11 -->
<g id="Node000011" class="node">
<title>Node11</title>
<g id="a_Node000011"><a xlink:href="../../d7/d52/istream_8cpp.xhtml" target="_top" xlink:title=" ">
<polygon fill="white" stroke="#666666" points="424.5,-360 254.5,-360 254.5,-297 424.5,-297 424.5,-360"/>
<text text-anchor="start" x="262.5" y="-348" font-family="Helvetica,sans-Serif" font-size="10.00">/mnt/d/Cours/10. CESI</text>
<text text-anchor="start" x="262.5" y="-337" font-family="Helvetica,sans-Serif" font-size="10.00"> A2/Blocs/01 &#45; Systeme</text>
<text text-anchor="start" x="262.5" y="-326" font-family="Helvetica,sans-Serif" font-size="10.00"> embarque/Livrables/Station</text>
<text text-anchor="start" x="262.5" y="-315" font-family="Helvetica,sans-Serif" font-size="10.00">_Meteo_Groupe_1 &#45; Copy/libs</text>
<text text-anchor="middle" x="339.5" y="-304" font-family="Helvetica,sans-Serif" font-size="10.00">/SdFat/src/iostream/istream.cpp</text>
</a>
</g>
</g>
<!-- Node5&#45;&gt;Node11 -->
<g id="edge12_Node000005_Node000011" class="edge">
<title>Node5&#45;&gt;Node11</title>
<g id="a_edge12_Node000005_Node000011"><a xlink:title=" ">
<path fill="none" stroke="#63b8ff" d="M362.43,-386.52C358.91,-377.78 355.24,-368.65 351.89,-360.32"/>
<polygon fill="#63b8ff" stroke="#63b8ff" points="359.18,-387.84 366.16,-395.81 365.68,-385.22 359.18,-387.84"/>
</a>
</g>
</g>
<!-- Node7 -->
<g id="Node000007" class="node">
<title>Node7</title>
<g id="a_Node000007"><a xlink:href="../../d0/df5/bufstream_8h.xhtml" target="_top" xlink:title="ibufstream and obufstream classes">
<polygon fill="white" stroke="#666666" points="432.5,-261 260.5,-261 260.5,-198 432.5,-198 432.5,-261"/>
<text text-anchor="start" x="268.5" y="-249" font-family="Helvetica,sans-Serif" font-size="10.00">/mnt/d/Cours/10. CESI</text>
<text text-anchor="start" x="268.5" y="-238" font-family="Helvetica,sans-Serif" font-size="10.00"> A2/Blocs/01 &#45; Systeme</text>
<text text-anchor="start" x="268.5" y="-227" font-family="Helvetica,sans-Serif" font-size="10.00"> embarque/Livrables/Station</text>
<text text-anchor="start" x="268.5" y="-216" font-family="Helvetica,sans-Serif" font-size="10.00">_Meteo_Groupe_1 &#45; Copy/libs</text>
<text text-anchor="middle" x="346.5" y="-205" font-family="Helvetica,sans-Serif" font-size="10.00">/SdFat/src/iostream/bufstream.h</text>
</a>
</g>
</g>
<!-- Node6&#45;&gt;Node7 -->
<g id="edge6_Node000006_Node000007" class="edge">
<title>Node6&#45;&gt;Node7</title>
<g id="a_edge6_Node000006_Node000007"><a xlink:title=" ">
<path fill="none" stroke="#63b8ff" d="M459.85,-291.93C441.23,-281.83 421.11,-270.93 403.08,-261.16"/>
<polygon fill="#63b8ff" stroke="#63b8ff" points="458.4,-295.12 468.86,-296.81 461.74,-288.97 458.4,-295.12"/>
</a>
</g>
</g>
<!-- Node9 -->
<g id="Node000009" class="node">
<title>Node9</title>
<g id="a_Node000009"><a xlink:href="../../de/d25/fstream_8h.xhtml" target="_top" xlink:title="iostreams for files.">
<polygon fill="white" stroke="#666666" points="610.5,-261 450.5,-261 450.5,-198 610.5,-198 610.5,-261"/>
<text text-anchor="start" x="458.5" y="-249" font-family="Helvetica,sans-Serif" font-size="10.00">/mnt/d/Cours/10. CESI</text>
<text text-anchor="start" x="458.5" y="-238" font-family="Helvetica,sans-Serif" font-size="10.00"> A2/Blocs/01 &#45; Systeme</text>
<text text-anchor="start" x="458.5" y="-227" font-family="Helvetica,sans-Serif" font-size="10.00"> embarque/Livrables/Station</text>
<text text-anchor="start" x="458.5" y="-216" font-family="Helvetica,sans-Serif" font-size="10.00">_Meteo_Groupe_1 &#45; Copy/libs</text>
<text text-anchor="middle" x="530.5" y="-205" font-family="Helvetica,sans-Serif" font-size="10.00">/SdFat/src/iostream/fstream.h</text>
</a>
</g>
</g>
<!-- Node6&#45;&gt;Node9 -->
<g id="edge9_Node000006_Node000009" class="edge">
<title>Node6&#45;&gt;Node9</title>
<g id="a_edge9_Node000006_Node000009"><a xlink:title=" ">
<path fill="none" stroke="#63b8ff" d="M527.6,-286.69C528.04,-278.2 528.5,-269.38 528.91,-261.32"/>
<polygon fill="#63b8ff" stroke="#63b8ff" points="524.1,-286.64 527.08,-296.81 531.09,-287 524.1,-286.64"/>
</a>
</g>
</g>
<!-- Node8 -->
<g id="Node000008" class="node">
<title>Node8</title>
<g id="a_Node000008"><a xlink:href="../../d8/daa/ArduinoStream_8h.xhtml" target="_top" xlink:title="ArduinoInStream and ArduinoOutStream classes.">
<polygon fill="white" stroke="#666666" points="443.5,-162 249.5,-162 249.5,-99 443.5,-99 443.5,-162"/>
<text text-anchor="start" x="257.5" y="-150" font-family="Helvetica,sans-Serif" font-size="10.00">/mnt/d/Cours/10. CESI</text>
<text text-anchor="start" x="257.5" y="-139" font-family="Helvetica,sans-Serif" font-size="10.00"> A2/Blocs/01 &#45; Systeme</text>
<text text-anchor="start" x="257.5" y="-128" font-family="Helvetica,sans-Serif" font-size="10.00"> embarque/Livrables/Station</text>
<text text-anchor="start" x="257.5" y="-117" font-family="Helvetica,sans-Serif" font-size="10.00">_Meteo_Groupe_1 &#45; Copy/libs</text>
<text text-anchor="middle" x="346.5" y="-106" font-family="Helvetica,sans-Serif" font-size="10.00">/SdFat/src/iostream/ArduinoStream.h</text>
</a>
</g>
</g>
<!-- Node7&#45;&gt;Node8 -->
<g id="edge7_Node000007_Node000008" class="edge">
<title>Node7&#45;&gt;Node8</title>
<g id="a_edge7_Node000007_Node000008"><a xlink:title=" ">
<path fill="none" stroke="#63b8ff" d="M346.5,-187.69C346.5,-179.2 346.5,-170.38 346.5,-162.32"/>
<polygon fill="#63b8ff" stroke="#63b8ff" points="343,-187.81 346.5,-197.81 350,-187.81 343,-187.81"/>
</a>
</g>
</g>
<!-- Node8&#45;&gt;Node4 -->
<g id="edge8_Node000008_Node000004" class="edge">
<title>Node8&#45;&gt;Node4</title>
<g id="a_edge8_Node000008_Node000004"><a xlink:title=" ">
<path fill="none" stroke="#63b8ff" d="M346.5,-88.69C346.5,-80.2 346.5,-71.38 346.5,-63.32"/>
<polygon fill="#63b8ff" stroke="#63b8ff" points="343,-88.81 346.5,-98.81 350,-88.81 343,-88.81"/>
</a>
</g>
</g>
<!-- Node9&#45;&gt;Node4 -->
<g id="edge11_Node000009_Node000004" class="edge">
<title>Node9&#45;&gt;Node4</title>
<g id="a_edge11_Node000009_Node000004"><a xlink:title=" ">
<path fill="none" stroke="#63b8ff" d="M506.77,-189.05C483.91,-151.04 452.73,-99.24 452.5,-99 439.03,-85.28 422.2,-73.1 405.95,-63.03"/>
<polygon fill="#63b8ff" stroke="#63b8ff" points="503.94,-191.12 512.09,-197.89 509.94,-187.51 503.94,-191.12"/>
</a>
</g>
</g>
<!-- Node10 -->
<g id="Node000010" class="node">
<title>Node10</title>
<g id="a_Node000010"><a xlink:href="../../d7/d25/StreamBaseClass_8cpp.xhtml" target="_top" xlink:title=" ">
<polygon fill="white" stroke="#666666" points="717.5,-162 499.5,-162 499.5,-99 717.5,-99 717.5,-162"/>
<text text-anchor="start" x="507.5" y="-150" font-family="Helvetica,sans-Serif" font-size="10.00">/mnt/d/Cours/10. CESI</text>
<text text-anchor="start" x="507.5" y="-139" font-family="Helvetica,sans-Serif" font-size="10.00"> A2/Blocs/01 &#45; Systeme</text>
<text text-anchor="start" x="507.5" y="-128" font-family="Helvetica,sans-Serif" font-size="10.00"> embarque/Livrables/Station</text>
<text text-anchor="start" x="507.5" y="-117" font-family="Helvetica,sans-Serif" font-size="10.00">_Meteo_Groupe_1 &#45; Copy/libs</text>
<text text-anchor="middle" x="608.5" y="-106" font-family="Helvetica,sans-Serif" font-size="10.00">/SdFat/src/iostream/StreamBaseClass.cpp</text>
</a>
</g>
</g>
<!-- Node9&#45;&gt;Node10 -->
<g id="edge10_Node000009_Node000010" class="edge">
<title>Node9&#45;&gt;Node10</title>
<g id="a_edge10_Node000009_Node000010"><a xlink:title=" ">
<path fill="none" stroke="#63b8ff" d="M561.53,-189.92C568.9,-180.75 576.66,-171.09 583.71,-162.32"/>
<polygon fill="#63b8ff" stroke="#63b8ff" points="558.72,-187.82 555.18,-197.81 564.17,-192.21 558.72,-187.82"/>
</a>
</g>
</g>
<!-- Node12&#45;&gt;Node6 -->
<g id="edge14_Node000012_Node000006" class="edge">
<title>Node12&#45;&gt;Node6</title>
<g id="a_edge14_Node000012_Node000006"><a xlink:title=" ">
<path fill="none" stroke="#63b8ff" d="M544.22,-386.24C541.36,-377.58 538.39,-368.56 535.67,-360.32"/>
<polygon fill="#63b8ff" stroke="#63b8ff" points="540.92,-387.41 547.38,-395.81 547.57,-385.22 540.92,-387.41"/>
</a>
</g>
</g>
<!-- Node13 -->
<g id="Node000013" class="node">
<title>Node13</title>
<g id="a_Node000013"><a xlink:href="../../dd/d66/ostream_8cpp.xhtml" target="_top" xlink:title=" ">
<polygon fill="white" stroke="#666666" points="799,-360 626,-360 626,-297 799,-297 799,-360"/>
<text text-anchor="start" x="634" y="-348" font-family="Helvetica,sans-Serif" font-size="10.00">/mnt/d/Cours/10. CESI</text>
<text text-anchor="start" x="634" y="-337" font-family="Helvetica,sans-Serif" font-size="10.00"> A2/Blocs/01 &#45; Systeme</text>
<text text-anchor="start" x="634" y="-326" font-family="Helvetica,sans-Serif" font-size="10.00"> embarque/Livrables/Station</text>
<text text-anchor="start" x="634" y="-315" font-family="Helvetica,sans-Serif" font-size="10.00">_Meteo_Groupe_1 &#45; Copy/libs</text>
<text text-anchor="middle" x="712.5" y="-304" font-family="Helvetica,sans-Serif" font-size="10.00">/SdFat/src/iostream/ostream.cpp</text>
</a>
</g>
</g>
<!-- Node12&#45;&gt;Node13 -->
<g id="edge15_Node000012_Node000013" class="edge">
<title>Node12&#45;&gt;Node13</title>
<g id="a_edge15_Node000012_Node000013"><a xlink:title=" ">
<path fill="none" stroke="#63b8ff" d="M615.22,-390.38C631.11,-380.44 648.17,-369.76 663.51,-360.16"/>
<polygon fill="#63b8ff" stroke="#63b8ff" points="613.16,-387.54 606.54,-395.81 616.88,-393.47 613.16,-387.54"/>
</a>
</g>
</g>
</g>
</svg>
