<?xml version="1.0" encoding="UTF-8" standalone="no"?>
<!DOCTYPE svg PUBLIC "-//W3C//DTD SVG 1.1//EN"
 "http://www.w3.org/Graphics/SVG/1.1/DTD/svg11.dtd">
<!-- Generated by graphviz version 2.43.0 (0)
 -->
<!-- Title: /mnt/d/Cours/10. CESI A2/Blocs/01 &#45; Systeme embarque/Livrables/Station_Meteo_Groupe_1 &#45; Copy/libs/Arduino_AVR/Stream.h Pages: 1 -->
<svg width="320pt" height="236pt"
 viewBox="0.00 0.00 320.00 236.00" xmlns="http://www.w3.org/2000/svg" xmlns:xlink="http://www.w3.org/1999/xlink">
<g id="graph0" class="graph" transform="scale(1 1) rotate(0) translate(4 232)">
<title>/mnt/d/Cours/10. CESI A2/Blocs/01 &#45; Systeme embarque/Livrables/Station_Meteo_Groupe_1 &#45; Copy/libs/Arduino_AVR/Stream.h</title>
<!-- Node1 -->
<g id="Node000001" class="node">
<title>Node1</title>
<g id="a_Node000001"><a xlink:title=" ">
<polygon fill="#999999" stroke="#666666" points="159,-228 0,-228 0,-165 159,-165 159,-228"/>
<text text-anchor="start" x="8" y="-216" font-family="Helvetica,sans-Serif" font-size="10.00">/mnt/d/Cours/10. CESI</text>
<text text-anchor="start" x="8" y="-205" font-family="Helvetica,sans-Serif" font-size="10.00"> A2/Blocs/01 &#45; Systeme</text>
<text text-anchor="start" x="8" y="-194" font-family="Helvetica,sans-Serif" font-size="10.00"> embarque/Livrables/Station</text>
<text text-anchor="start" x="8" y="-183" font-family="Helvetica,sans-Serif" font-size="10.00">_Meteo_Groupe_1 &#45; Copy/libs</text>
<text text-anchor="middle" x="79.5" y="-172" font-family="Helvetica,sans-Serif" font-size="10.00">/Arduino_AVR/Stream.h</text>
</a>
</g>
</g>
<!-- Node2 -->
<g id="Node000002" class="node">
<title>Node2</title>
<g id="a_Node000002"><a xlink:title=" ">
<polygon fill="#e0e0e0" stroke="#999999" points="74,-74 9,-74 9,-55 74,-55 74,-74"/>
<text text-anchor="middle" x="41.5" y="-62" font-family="Helvetica,sans-Serif" font-size="10.00">inttypes.h</text>
</a>
</g>
</g>
<!-- Node1&#45;&gt;Node2 -->
<g id="edge1_Node000001_Node000002" class="edge">
<title>Node1&#45;&gt;Node2</title>
<g id="a_edge1_Node000001_Node000002"><a xlink:title=" ">
<path fill="none" stroke="#63b8ff" d="M70.49,-164.69C63.16,-139.62 53.06,-105.05 46.92,-84.04"/>
<polygon fill="#63b8ff" stroke="#63b8ff" points="50.2,-82.78 44.03,-74.16 43.48,-84.74 50.2,-82.78"/>
</a>
</g>
</g>
<!-- Node3 -->
<g id="Node000003" class="node">
<title>Node3</title>
<g id="a_Node000003"><a xlink:href="../../d8/d19/Print_8h.xhtml" target="_top" xlink:title=" ">
<polygon fill="white" stroke="#666666" points="141.5,-129 93.5,-129 93.5,-110 141.5,-110 141.5,-129"/>
<text text-anchor="middle" x="117.5" y="-117" font-family="Helvetica,sans-Serif" font-size="10.00">Print.h</text>
</a>
</g>
</g>
<!-- Node1&#45;&gt;Node3 -->
<g id="edge2_Node000001_Node000003" class="edge">
<title>Node1&#45;&gt;Node3</title>
<g id="a_edge2_Node000001_Node000003"><a xlink:title=" ">
<path fill="none" stroke="#63b8ff" d="M94.96,-164.99C99.58,-155.87 104.49,-146.17 108.55,-138.17"/>
<polygon fill="#63b8ff" stroke="#63b8ff" points="111.74,-139.61 113.14,-129.1 105.5,-136.44 111.74,-139.61"/>
</a>
</g>
</g>
<!-- Node3&#45;&gt;Node2 -->
<g id="edge3_Node000003_Node000002" class="edge">
<title>Node3&#45;&gt;Node2</title>
<g id="a_edge3_Node000003_Node000002"><a xlink:title=" ">
<path fill="none" stroke="#63b8ff" d="M105.29,-109.98C93.72,-101.92 76.12,-89.65 62.34,-80.03"/>
<polygon fill="#63b8ff" stroke="#63b8ff" points="64.14,-77.02 53.93,-74.17 60.13,-82.76 64.14,-77.02"/>
</a>
</g>
</g>
<!-- Node4 -->
<g id="Node000004" class="node">
<title>Node4</title>
<g id="a_Node000004"><a xlink:title=" ">
<polygon fill="#e0e0e0" stroke="#999999" points="142.5,-74 92.5,-74 92.5,-55 142.5,-55 142.5,-74"/>
<text text-anchor="middle" x="117.5" y="-62" font-family="Helvetica,sans-Serif" font-size="10.00">stdio.h</text>
</a>
</g>
</g>
<!-- Node3&#45;&gt;Node4 -->
<g id="edge4_Node000003_Node000004" class="edge">
<title>Node3&#45;&gt;Node4</title>
<g id="a_edge4_Node000003_Node000004"><a xlink:title=" ">
<path fill="none" stroke="#63b8ff" d="M117.5,-109.75C117.5,-102.8 117.5,-92.85 117.5,-84.13"/>
<polygon fill="#63b8ff" stroke="#63b8ff" points="121,-84.09 117.5,-74.09 114,-84.09 121,-84.09"/>
</a>
</g>
</g>
<!-- Node5 -->
<g id="Node000005" class="node">
<title>Node5</title>
<g id="a_Node000005"><a xlink:href="../../db/d8b/WString_8h.xhtml" target="_top" xlink:title=" ">
<polygon fill="white" stroke="#666666" points="224.5,-74 160.5,-74 160.5,-55 224.5,-55 224.5,-74"/>
<text text-anchor="middle" x="192.5" y="-62" font-family="Helvetica,sans-Serif" font-size="10.00">WString.h</text>
</a>
</g>
</g>
<!-- Node3&#45;&gt;Node5 -->
<g id="edge5_Node000003_Node000005" class="edge">
<title>Node3&#45;&gt;Node5</title>
<g id="a_edge5_Node000003_Node000005"><a xlink:title=" ">
<path fill="none" stroke="#63b8ff" d="M129.55,-109.98C140.96,-101.92 158.33,-89.65 171.93,-80.03"/>
<polygon fill="#63b8ff" stroke="#63b8ff" points="174.08,-82.8 180.23,-74.17 170.04,-77.08 174.08,-82.8"/>
</a>
</g>
</g>
<!-- Node6 -->
<g id="Node000006" class="node">
<title>Node6</title>
<g id="a_Node000006"><a xlink:href="../../d2/df2/Printable_8h.xhtml" target="_top" xlink:title=" ">
<polygon fill="white" stroke="#666666" points="312,-74 243,-74 243,-55 312,-55 312,-74"/>
<text text-anchor="middle" x="277.5" y="-62" font-family="Helvetica,sans-Serif" font-size="10.00">Printable.h</text>
</a>
</g>
</g>
<!-- Node3&#45;&gt;Node6 -->
<g id="edge6_Node000003_Node000006" class="edge">
<title>Node3&#45;&gt;Node6</title>
<g id="a_edge6_Node000003_Node000006"><a xlink:title=" ">
<path fill="none" stroke="#63b8ff" d="M141.8,-110.45C168.43,-101.63 211.39,-87.4 241.84,-77.31"/>
<polygon fill="#63b8ff" stroke="#63b8ff" points="243.25,-80.53 251.64,-74.07 241.05,-73.89 243.25,-80.53"/>
</a>
</g>
</g>
<!-- Node7 -->
<g id="Node000007" class="node">
<title>Node7</title>
<g id="a_Node000007"><a xlink:title=" ">
<polygon fill="#e0e0e0" stroke="#999999" points="304,-19 251,-19 251,0 304,0 304,-19"/>
<text text-anchor="middle" x="277.5" y="-7" font-family="Helvetica,sans-Serif" font-size="10.00">stdlib.h</text>
</a>
</g>
</g>
<!-- Node6&#45;&gt;Node7 -->
<g id="edge7_Node000006_Node000007" class="edge">
<title>Node6&#45;&gt;Node7</title>
<g id="a_edge7_Node000006_Node000007"><a xlink:title=" ">
<path fill="none" stroke="#63b8ff" d="M277.5,-54.75C277.5,-47.8 277.5,-37.85 277.5,-29.13"/>
<polygon fill="#63b8ff" stroke="#63b8ff" points="281,-29.09 277.5,-19.09 274,-29.09 281,-29.09"/>
</a>
</g>
</g>
</g>
</svg>
