<?xml version="1.0" encoding="UTF-8" standalone="no"?>
<!DOCTYPE svg PUBLIC "-//W3C//DTD SVG 1.1//EN"
 "http://www.w3.org/Graphics/SVG/1.1/DTD/svg11.dtd">
<!-- Generated by graphviz version 2.43.0 (0)
 -->
<!-- Title: switchToEconomyMode Pages: 1 -->
<svg width="899pt" height="102pt"
 viewBox="0.00 0.00 899.00 102.00" xmlns="http://www.w3.org/2000/svg" xmlns:xlink="http://www.w3.org/1999/xlink">
<g id="graph0" class="graph" transform="scale(1 1) rotate(0) translate(4 98)">
<title>switchToEconomyMode</title>
<!-- Node1 -->
<g id="Node000001" class="node">
<title>Node1</title>
<g id="a_Node000001"><a xlink:title="Passe en mode économique.">
<polygon fill="#999999" stroke="#666666" points="891,-74 760,-74 760,-55 891,-55 891,-74"/>
<text text-anchor="middle" x="825.5" y="-62" font-family="Helvetica,sans-Serif" font-size="10.00">switchToEconomyMode</text>
</a>
</g>
</g>
<!-- Node2 -->
<g id="Node000002" class="node">
<title>Node2</title>
<g id="a_Node000002"><a xlink:href="../../df/d22/configuration_8cpp.xhtml#a007ee20d2ddf2c89e855b63e6e812b65" target="_top" xlink:title="Exécute une étape de la boucle principale du mode de configuration.">
<polygon fill="white" stroke="#666666" points="724,-93 578,-93 578,-74 724,-74 724,-93"/>
<text text-anchor="middle" x="651" y="-81" font-family="Helvetica,sans-Serif" font-size="10.00">runConfigurationModeStep</text>
</a>
</g>
</g>
<!-- Node1&#45;&gt;Node2 -->
<g id="edge1_Node000001_Node000002" class="edge">
<title>Node1&#45;&gt;Node2</title>
<g id="a_edge1_Node000001_Node000002"><a xlink:title=" ">
<path fill="none" stroke="#63b8ff" d="M749.82,-72.73C741.27,-73.67 732.55,-74.63 724.03,-75.57"/>
<polygon fill="#63b8ff" stroke="#63b8ff" points="750.22,-76.2 759.78,-71.63 749.45,-69.24 750.22,-76.2"/>
</a>
</g>
</g>
<!-- Node5 -->
<g id="Node000005" class="node">
<title>Node5</title>
<g id="a_Node000005"><a xlink:href="../../d9/d88/mode_8cpp.xhtml#a5117cd9a1dd27db325ab6540d8d2c983" target="_top" xlink:title="Change le mode actuel.">
<polygon fill="white" stroke="#666666" points="694,-56 608,-56 608,-37 694,-37 694,-56"/>
<text text-anchor="middle" x="651" y="-44" font-family="Helvetica,sans-Serif" font-size="10.00">switchToMode</text>
</a>
</g>
</g>
<!-- Node1&#45;&gt;Node5 -->
<g id="edge4_Node000001_Node000005" class="edge">
<title>Node1&#45;&gt;Node5</title>
<g id="a_edge4_Node000001_Node000005"><a xlink:title=" ">
<path fill="none" stroke="#63b8ff" d="M749.61,-56.69C730.58,-54.7 710.8,-52.64 694.06,-50.89"/>
<polygon fill="#63b8ff" stroke="#63b8ff" points="749.47,-60.19 759.78,-57.75 750.19,-53.23 749.47,-60.19"/>
</a>
</g>
</g>
<!-- Node3 -->
<g id="Node000003" class="node">
<title>Node3</title>
<g id="a_Node000003"><a xlink:href="../../de/dfb/src_2main_8cpp.xhtml#afe461d27b9c48d5921c00d521181f12f" target="_top" xlink:title=" ">
<polygon fill="white" stroke="#666666" points="367,-94 329,-94 329,-75 367,-75 367,-94"/>
<text text-anchor="middle" x="348" y="-82" font-family="Helvetica,sans-Serif" font-size="10.00">loop</text>
</a>
</g>
</g>
<!-- Node2&#45;&gt;Node3 -->
<g id="edge2_Node000002_Node000003" class="edge">
<title>Node2&#45;&gt;Node3</title>
<g id="a_edge2_Node000002_Node000003"><a xlink:title=" ">
<path fill="none" stroke="#63b8ff" d="M567.5,-83.77C498.65,-84 405.77,-84.31 367.08,-84.44"/>
<polygon fill="#63b8ff" stroke="#63b8ff" points="567.91,-87.27 577.9,-83.74 567.89,-80.27 567.91,-87.27"/>
</a>
</g>
</g>
<!-- Node4 -->
<g id="Node000004" class="node">
<title>Node4</title>
<g id="a_Node000004"><a xlink:href="../../d2/d81/libs_2Arduino__AVR_2main_8cpp.xhtml#a840291bc02cba5474a4cb46a9b9566fe" target="_top" xlink:title=" ">
<polygon fill="white" stroke="#666666" points="41,-75 0,-75 0,-56 41,-56 41,-75"/>
<text text-anchor="middle" x="20.5" y="-63" font-family="Helvetica,sans-Serif" font-size="10.00">main</text>
</a>
</g>
</g>
<!-- Node3&#45;&gt;Node4 -->
<g id="edge3_Node000003_Node000004" class="edge">
<title>Node3&#45;&gt;Node4</title>
<g id="a_edge3_Node000003_Node000004"><a xlink:title=" ">
<path fill="none" stroke="#63b8ff" d="M318.26,-82.82C253.36,-79.03 96.81,-69.9 41.37,-66.66"/>
<polygon fill="#63b8ff" stroke="#63b8ff" points="318.38,-86.34 328.57,-83.42 318.79,-79.35 318.38,-86.34"/>
</a>
</g>
</g>
<!-- Node6 -->
<g id="Node000006" class="node">
<title>Node6</title>
<g id="a_Node000006"><a xlink:href="../../d9/d88/mode_8cpp.xhtml#aebf1ca4bb83f667202b4a32cc7d3e2a9" target="_top" xlink:title="Réalise le changement de mode lorsqu&#39;on appuie sur le bouton vert pendant BUTTON_DELAY.">
<polygon fill="white" stroke="#666666" points="542,-56 427,-56 427,-37 542,-37 542,-56"/>
<text text-anchor="middle" x="484.5" y="-44" font-family="Helvetica,sans-Serif" font-size="10.00">greenButtonPressed</text>
</a>
</g>
</g>
<!-- Node5&#45;&gt;Node6 -->
<g id="edge5_Node000005_Node000006" class="edge">
<title>Node5&#45;&gt;Node6</title>
<g id="a_edge5_Node000005_Node000006"><a xlink:title=" ">
<path fill="none" stroke="#63b8ff" d="M597.54,-46.5C579.93,-46.5 560.22,-46.5 542.29,-46.5"/>
<polygon fill="#63b8ff" stroke="#63b8ff" points="597.64,-50 607.64,-46.5 597.64,-43 597.64,-50"/>
</a>
</g>
</g>
<!-- Node10 -->
<g id="Node000010" class="node">
<title>Node10</title>
<g id="a_Node000010"><a xlink:href="../../d9/d88/mode_8cpp.xhtml#abfb388c3517fd2ecbd1a89e7e15e43fd" target="_top" xlink:title="Réalise le changement de mode lorsqu&#39;on appuie sur le bouton rouge pendant BUTTON_DELAY.">
<polygon fill="white" stroke="#666666" points="536,-19 433,-19 433,0 536,0 536,-19"/>
<text text-anchor="middle" x="484.5" y="-7" font-family="Helvetica,sans-Serif" font-size="10.00">redButtonPressed</text>
</a>
</g>
</g>
<!-- Node5&#45;&gt;Node10 -->
<g id="edge10_Node000005_Node000010" class="edge">
<title>Node5&#45;&gt;Node10</title>
<g id="a_edge10_Node000005_Node000010"><a xlink:title=" ">
<path fill="none" stroke="#63b8ff" d="M597.59,-34.71C575.13,-29.66 549.24,-23.84 528,-19.06"/>
<polygon fill="#63b8ff" stroke="#63b8ff" points="597.11,-38.19 607.64,-36.97 598.65,-31.36 597.11,-38.19"/>
</a>
</g>
</g>
<!-- Node7 -->
<g id="Node000007" class="node">
<title>Node7</title>
<g id="a_Node000007"><a xlink:href="../../d9/d52/buttons_8cpp.xhtml#a54d82e2e60914d150743dcfe6ddbbece" target="_top" xlink:title="Fonction appelée lors de l&#39;appui sur le bouton vert ou rouge.">
<polygon fill="white" stroke="#666666" points="391,-56 305,-56 305,-37 391,-37 391,-56"/>
<text text-anchor="middle" x="348" y="-44" font-family="Helvetica,sans-Serif" font-size="10.00">buttonPressed</text>
</a>
</g>
</g>
<!-- Node6&#45;&gt;Node7 -->
<g id="edge6_Node000006_Node000007" class="edge">
<title>Node6&#45;&gt;Node7</title>
<g id="a_edge6_Node000006_Node000007"><a xlink:title=" ">
<path fill="none" stroke="#63b8ff" d="M416.72,-46.5C408.06,-46.5 399.39,-46.5 391.28,-46.5"/>
<polygon fill="#63b8ff" stroke="#63b8ff" points="416.85,-50 426.85,-46.5 416.85,-43 416.85,-50"/>
</a>
</g>
</g>
<!-- Node8 -->
<g id="Node000008" class="node">
<title>Node8</title>
<g id="a_Node000008"><a xlink:href="../../d9/d52/buttons_8cpp.xhtml#a82677b3df6b653b673a4b1735af9d45d" target="_top" xlink:title="Initialise les interruptions sur les boutons.">
<polygon fill="white" stroke="#666666" points="269,-56 157,-56 157,-37 269,-37 269,-56"/>
<text text-anchor="middle" x="213" y="-44" font-family="Helvetica,sans-Serif" font-size="10.00">initButtonsInterrupt</text>
</a>
</g>
</g>
<!-- Node7&#45;&gt;Node8 -->
<g id="edge7_Node000007_Node000008" class="edge">
<title>Node7&#45;&gt;Node8</title>
<g id="a_edge7_Node000007_Node000008"><a xlink:title=" ">
<path fill="none" stroke="#63b8ff" d="M294.92,-46.5C286.56,-46.5 277.88,-46.5 269.44,-46.5"/>
<polygon fill="#63b8ff" stroke="#63b8ff" points="294.92,-50 304.92,-46.5 294.92,-43 294.92,-50"/>
</a>
</g>
</g>
<!-- Node9 -->
<g id="Node000009" class="node">
<title>Node9</title>
<g id="a_Node000009"><a xlink:href="../../de/dfb/src_2main_8cpp.xhtml#a4fc01d736fe50cf5b977f755b675f11d" target="_top" xlink:title=" ">
<polygon fill="white" stroke="#666666" points="121,-56 77,-56 77,-37 121,-37 121,-56"/>
<text text-anchor="middle" x="99" y="-44" font-family="Helvetica,sans-Serif" font-size="10.00">setup</text>
</a>
</g>
</g>
<!-- Node8&#45;&gt;Node9 -->
<g id="edge8_Node000008_Node000009" class="edge">
<title>Node8&#45;&gt;Node9</title>
<g id="a_edge8_Node000008_Node000009"><a xlink:title=" ">
<path fill="none" stroke="#63b8ff" d="M146.88,-46.5C137.65,-46.5 128.75,-46.5 121.24,-46.5"/>
<polygon fill="#63b8ff" stroke="#63b8ff" points="146.98,-50 156.98,-46.5 146.98,-43 146.98,-50"/>
</a>
</g>
</g>
<!-- Node9&#45;&gt;Node4 -->
<g id="edge9_Node000009_Node000004" class="edge">
<title>Node9&#45;&gt;Node4</title>
<g id="a_edge9_Node000009_Node000004"><a xlink:title=" ">
<path fill="none" stroke="#63b8ff" d="M66.83,-54.24C58.14,-56.4 48.94,-58.68 41.12,-60.63"/>
<polygon fill="#63b8ff" stroke="#63b8ff" points="67.83,-57.6 76.69,-51.79 66.14,-50.81 67.83,-57.6"/>
</a>
</g>
</g>
<!-- Node10&#45;&gt;Node7 -->
<g id="edge11_Node000010_Node000007" class="edge">
<title>Node10&#45;&gt;Node7</title>
<g id="a_edge11_Node000010_Node000007"><a xlink:title=" ">
<path fill="none" stroke="#63b8ff" d="M439.19,-21.69C421.26,-26.62 400.85,-32.24 383.99,-36.88"/>
<polygon fill="#63b8ff" stroke="#63b8ff" points="440.15,-25.06 448.86,-19.03 438.29,-18.31 440.15,-25.06"/>
</a>
</g>
</g>
</g>
</svg>
