<?xml version="1.0" encoding="UTF-8" standalone="no"?>
<!DOCTYPE svg PUBLIC "-//W3C//DTD SVG 1.1//EN"
 "http://www.w3.org/Graphics/SVG/1.1/DTD/svg11.dtd">
<!-- Generated by graphviz version 2.43.0 (0)
 -->
<!-- Title: HardwareSerial.h Pages: 1 -->
<svg width="311pt" height="247pt"
 viewBox="0.00 0.00 311.00 247.00" xmlns="http://www.w3.org/2000/svg" xmlns:xlink="http://www.w3.org/1999/xlink">

<svg id="main" version="1.1" xmlns="http://www.w3.org/2000/svg" xmlns:xlink="http://www.w3.org/1999/xlink" xml:space="preserve" onload="init(evt)">
<style type="text/css"><![CDATA[
.node, .edge {opacity: 0.7;}
.node.selected, .edge.selected {opacity: 1;}
.edge:hover path { stroke: red; }
.edge:hover polygon { stroke: red; fill: red; }
]]></style>
<script type="application/ecmascript" xlink:href="../../svg.min.js"/>
<svg id="graph" class="graph">
<g id="graph0" class="graph" transform="scale(1 1) rotate(0) translate(4 243)">
<title>HardwareSerial.h</title>
<!-- Node1 -->
<g id="Node000001" class="node">
<title>Node1</title>
<g id="a_Node000001"><a xlink:title=" ">
<polygon fill="#999999" stroke="#666666" points="105,-239 4,-239 4,-220 105,-220 105,-239"/>
<text text-anchor="middle" x="54.5" y="-227" font-family="Helvetica,sans-Serif" font-size="10.00">HardwareSerial.h</text>
</a>
</g>
</g>
<!-- Node2 -->
<g id="Node000002" class="node">
<title>Node2</title>
<g id="a_Node000002"><a xlink:title=" ">
<polygon fill="#e0e0e0" stroke="#999999" points="65,-74 0,-74 0,-55 65,-55 65,-74"/>
<text text-anchor="middle" x="32.5" y="-62" font-family="Helvetica,sans-Serif" font-size="10.00">inttypes.h</text>
</a>
</g>
</g>
<!-- Node1&#45;&gt;Node2 -->
<g id="edge1_Node000001_Node000002" class="edge">
<title>Node1&#45;&gt;Node2</title>
<g id="a_edge1_Node000001_Node000002"><a xlink:title=" ">
<path fill="none" stroke="#63b8ff" d="M52.19,-219.7C49.93,-210.76 46.53,-196.51 44.5,-184 38.83,-149.08 35.38,-107.9 33.71,-84.43"/>
<polygon fill="#63b8ff" stroke="#63b8ff" points="37.19,-83.91 33.02,-74.17 30.2,-84.38 37.19,-83.91"/>
</a>
</g>
</g>
<!-- Node3 -->
<g id="Node000003" class="node">
<title>Node3</title>
<g id="a_Node000003"><a xlink:href="../../de/dd1/Stream_8h.xhtml" target="_top" xlink:title=" ">
<polygon fill="white" stroke="#666666" points="115,-184 54,-184 54,-165 115,-165 115,-184"/>
<text text-anchor="middle" x="84.5" y="-172" font-family="Helvetica,sans-Serif" font-size="10.00">Stream.h</text>
</a>
</g>
</g>
<!-- Node1&#45;&gt;Node3 -->
<g id="edge2_Node000001_Node000003" class="edge">
<title>Node1&#45;&gt;Node3</title>
<g id="a_edge2_Node000001_Node000003"><a xlink:title=" ">
<path fill="none" stroke="#63b8ff" d="M59.45,-219.75C63.56,-212.49 69.53,-201.95 74.6,-192.98"/>
<polygon fill="#63b8ff" stroke="#63b8ff" points="77.76,-194.52 79.64,-184.09 71.67,-191.07 77.76,-194.52"/>
</a>
</g>
</g>
<!-- Node3&#45;&gt;Node2 -->
<g id="edge3_Node000003_Node000002" class="edge">
<title>Node3&#45;&gt;Node2</title>
<g id="a_edge3_Node000003_Node000002"><a xlink:title=" ">
<path fill="none" stroke="#63b8ff" d="M80.24,-164.66C71.71,-146.93 52.35,-106.73 41.08,-83.32"/>
<polygon fill="#63b8ff" stroke="#63b8ff" points="44.16,-81.65 36.67,-74.16 37.85,-84.69 44.16,-81.65"/>
</a>
</g>
</g>
<!-- Node4 -->
<g id="Node000004" class="node">
<title>Node4</title>
<g id="a_Node000004"><a xlink:href="../../d8/d19/Print_8h.xhtml" target="_top" xlink:title=" ">
<polygon fill="white" stroke="#666666" points="139.5,-129 91.5,-129 91.5,-110 139.5,-110 139.5,-129"/>
<text text-anchor="middle" x="115.5" y="-117" font-family="Helvetica,sans-Serif" font-size="10.00">Print.h</text>
</a>
</g>
</g>
<!-- Node3&#45;&gt;Node4 -->
<g id="edge4_Node000003_Node000004" class="edge">
<title>Node3&#45;&gt;Node4</title>
<g id="a_edge4_Node000003_Node000004"><a xlink:title=" ">
<path fill="none" stroke="#63b8ff" d="M89.62,-164.75C93.86,-157.49 100.03,-146.95 105.28,-137.98"/>
<polygon fill="#63b8ff" stroke="#63b8ff" points="108.45,-139.49 110.48,-129.09 102.41,-135.95 108.45,-139.49"/>
</a>
</g>
</g>
<!-- Node4&#45;&gt;Node2 -->
<g id="edge5_Node000004_Node000002" class="edge">
<title>Node4&#45;&gt;Node2</title>
<g id="a_edge5_Node000004_Node000002"><a xlink:title=" ">
<path fill="none" stroke="#63b8ff" d="M102.16,-109.98C89.41,-101.84 69.95,-89.41 54.83,-79.76"/>
<polygon fill="#63b8ff" stroke="#63b8ff" points="56.39,-76.6 46.08,-74.17 52.62,-82.5 56.39,-76.6"/>
</a>
</g>
</g>
<!-- Node5 -->
<g id="Node000005" class="node">
<title>Node5</title>
<g id="a_Node000005"><a xlink:title=" ">
<polygon fill="#e0e0e0" stroke="#999999" points="133.5,-74 83.5,-74 83.5,-55 133.5,-55 133.5,-74"/>
<text text-anchor="middle" x="108.5" y="-62" font-family="Helvetica,sans-Serif" font-size="10.00">stdio.h</text>
</a>
</g>
</g>
<!-- Node4&#45;&gt;Node5 -->
<g id="edge6_Node000004_Node000005" class="edge">
<title>Node4&#45;&gt;Node5</title>
<g id="a_edge6_Node000004_Node000005"><a xlink:title=" ">
<path fill="none" stroke="#63b8ff" d="M114.34,-109.75C113.43,-102.8 112.11,-92.85 110.96,-84.13"/>
<polygon fill="#63b8ff" stroke="#63b8ff" points="114.41,-83.54 109.63,-74.09 107.47,-84.46 114.41,-83.54"/>
</a>
</g>
</g>
<!-- Node6 -->
<g id="Node000006" class="node">
<title>Node6</title>
<g id="a_Node000006"><a xlink:href="../../db/d8b/WString_8h.xhtml" target="_top" xlink:title=" ">
<polygon fill="white" stroke="#666666" points="215.5,-74 151.5,-74 151.5,-55 215.5,-55 215.5,-74"/>
<text text-anchor="middle" x="183.5" y="-62" font-family="Helvetica,sans-Serif" font-size="10.00">WString.h</text>
</a>
</g>
</g>
<!-- Node4&#45;&gt;Node6 -->
<g id="edge7_Node000004_Node000006" class="edge">
<title>Node4&#45;&gt;Node6</title>
<g id="a_edge7_Node000004_Node000006"><a xlink:title=" ">
<path fill="none" stroke="#63b8ff" d="M126.43,-109.98C136.58,-102.07 151.92,-90.11 164.15,-80.58"/>
<polygon fill="#63b8ff" stroke="#63b8ff" points="166.64,-83.08 172.38,-74.17 162.34,-77.56 166.64,-83.08"/>
</a>
</g>
</g>
<!-- Node7 -->
<g id="Node000007" class="node">
<title>Node7</title>
<g id="a_Node000007"><a xlink:href="../../d2/df2/Printable_8h.xhtml" target="_top" xlink:title=" ">
<polygon fill="white" stroke="#666666" points="303,-74 234,-74 234,-55 303,-55 303,-74"/>
<text text-anchor="middle" x="268.5" y="-62" font-family="Helvetica,sans-Serif" font-size="10.00">Printable.h</text>
</a>
</g>
</g>
<!-- Node4&#45;&gt;Node7 -->
<g id="edge8_Node000004_Node000007" class="edge">
<title>Node4&#45;&gt;Node7</title>
<g id="a_edge8_Node000004_Node000007"><a xlink:title=" ">
<path fill="none" stroke="#63b8ff" d="M139.74,-110.1C165.22,-101.28 205.51,-87.32 234.23,-77.37"/>
<polygon fill="#63b8ff" stroke="#63b8ff" points="235.56,-80.61 243.86,-74.03 233.27,-74 235.56,-80.61"/>
</a>
</g>
</g>
<!-- Node8 -->
<g id="Node000008" class="node">
<title>Node8</title>
<g id="a_Node000008"><a xlink:title=" ">
<polygon fill="#e0e0e0" stroke="#999999" points="295,-19 242,-19 242,0 295,0 295,-19"/>
<text text-anchor="middle" x="268.5" y="-7" font-family="Helvetica,sans-Serif" font-size="10.00">stdlib.h</text>
</a>
</g>
</g>
<!-- Node7&#45;&gt;Node8 -->
<g id="edge9_Node000007_Node000008" class="edge">
<title>Node7&#45;&gt;Node8</title>
<g id="a_edge9_Node000007_Node000008"><a xlink:title=" ">
<path fill="none" stroke="#63b8ff" d="M268.5,-54.75C268.5,-47.8 268.5,-37.85 268.5,-29.13"/>
<polygon fill="#63b8ff" stroke="#63b8ff" points="272,-29.09 268.5,-19.09 265,-29.09 272,-29.09"/>
</a>
</g>
</g>
</g>
</svg>
</svg>

<style type='text/css'>
<![CDATA[
[data-mouse-over-selected='false'] { opacity: 0.7; }
[data-mouse-over-selected='true']  { opacity: 1.0; }
]]>
</style>
<script type="application/ecmascript"><![CDATA[
document.addEventListener('DOMContentLoaded', (event) => {
  highlightEdges();
  highlightAdjacentNodes();
});
]]></script>
</svg>
