<?xml version="1.0" encoding="UTF-8" standalone="no"?>
<!DOCTYPE svg PUBLIC "-//W3C//DTD SVG 1.1//EN"
 "http://www.w3.org/Graphics/SVG/1.1/DTD/svg11.dtd">
<!-- Generated by graphviz version 2.43.0 (0)
 -->
<!-- Title: saveData Pages: 1 -->
<svg width="384pt" height="64pt"
 viewBox="0.00 0.00 384.00 64.00" xmlns="http://www.w3.org/2000/svg" xmlns:xlink="http://www.w3.org/1999/xlink">

<svg id="main" version="1.1" xmlns="http://www.w3.org/2000/svg" xmlns:xlink="http://www.w3.org/1999/xlink" xml:space="preserve" onload="init(evt)">
<style type="text/css"><![CDATA[
.node, .edge {opacity: 0.7;}
.node.selected, .edge.selected {opacity: 1;}
.edge:hover path { stroke: red; }
.edge:hover polygon { stroke: red; fill: red; }
]]></style>
<script type="application/ecmascript" xlink:href="../../svg.min.js"/>
<svg id="graph" class="graph">
<g id="graph0" class="graph" transform="scale(1 1) rotate(0) translate(4 60)">
<title>saveData</title>
<!-- Node1 -->
<g id="Node000001" class="node">
<title>Node1</title>
<g id="a_Node000001"><a xlink:title="Sauvegarde des données sur la carte SD.">
<polygon fill="#999999" stroke="#666666" points="376,-37 313,-37 313,-18 376,-18 376,-37"/>
<text text-anchor="middle" x="344.5" y="-25" font-family="Helvetica,sans-Serif" font-size="10.00">saveData</text>
</a>
</g>
</g>
<!-- Node2 -->
<g id="Node000002" class="node">
<title>Node2</title>
<g id="a_Node000002"><a xlink:href="../../d9/ddd/economy_8cpp_a35740c7a73b48d918cb4e6d891d46bed.xhtml#a35740c7a73b48d918cb4e6d891d46bed" target="_top" xlink:title="Exécute une étape de la boucle principale du mode économique.">
<polygon fill="white" stroke="#666666" points="277,-56 151,-56 151,-37 277,-37 277,-56"/>
<text text-anchor="middle" x="214" y="-44" font-family="Helvetica,sans-Serif" font-size="10.00">runEconomyModeStep</text>
</a>
</g>
</g>
<!-- Node1&#45;&gt;Node2 -->
<g id="edge1_Node000001_Node000002" class="edge">
<title>Node1&#45;&gt;Node2</title>
<g id="a_edge1_Node000001_Node000002"><a xlink:title=" ">
<path fill="none" stroke="#63b8ff" d="M302.72,-33.53C294.54,-34.74 285.77,-36.04 277.05,-37.32"/>
<polygon fill="#63b8ff" stroke="#63b8ff" points="303.34,-36.98 312.72,-32.05 302.32,-30.05 303.34,-36.98"/>
</a>
</g>
</g>
<!-- Node5 -->
<g id="Node000005" class="node">
<title>Node5</title>
<g id="a_Node000005"><a xlink:href="../../df/d92/standard_8cpp_ad0b3e86793f7441084351fc2de4d4c45.xhtml#ad0b3e86793f7441084351fc2de4d4c45" target="_top" xlink:title="Exécute une étape de la boucle principale du mode standard.">
<polygon fill="white" stroke="#666666" points="276.5,-19 151.5,-19 151.5,0 276.5,0 276.5,-19"/>
<text text-anchor="middle" x="214" y="-7" font-family="Helvetica,sans-Serif" font-size="10.00">runStandardModeStep</text>
</a>
</g>
</g>
<!-- Node1&#45;&gt;Node5 -->
<g id="edge4_Node000001_Node000005" class="edge">
<title>Node1&#45;&gt;Node5</title>
<g id="a_edge4_Node000001_Node000005"><a xlink:title=" ">
<path fill="none" stroke="#63b8ff" d="M302.58,-21.77C294.28,-20.6 285.37,-19.36 276.54,-18.12"/>
<polygon fill="#63b8ff" stroke="#63b8ff" points="302.33,-25.27 312.72,-23.19 303.3,-18.34 302.33,-25.27"/>
</a>
</g>
</g>
<!-- Node3 -->
<g id="Node000003" class="node">
<title>Node3</title>
<g id="a_Node000003"><a xlink:href="../../de/dfb/src_2main_8cpp_afe461d27b9c48d5921c00d521181f12f.xhtml#afe461d27b9c48d5921c00d521181f12f" target="_top" xlink:title=" ">
<polygon fill="white" stroke="#666666" points="115,-37 77,-37 77,-18 115,-18 115,-37"/>
<text text-anchor="middle" x="96" y="-25" font-family="Helvetica,sans-Serif" font-size="10.00">loop</text>
</a>
</g>
</g>
<!-- Node2&#45;&gt;Node3 -->
<g id="edge2_Node000002_Node000003" class="edge">
<title>Node2&#45;&gt;Node3</title>
<g id="a_edge2_Node000002_Node000003"><a xlink:title=" ">
<path fill="none" stroke="#63b8ff" d="M144.63,-35.3C133.82,-33.53 123.5,-31.84 115.25,-30.49"/>
<polygon fill="#63b8ff" stroke="#63b8ff" points="144.23,-38.78 154.66,-36.94 145.36,-31.87 144.23,-38.78"/>
</a>
</g>
</g>
<!-- Node4 -->
<g id="Node000004" class="node">
<title>Node4</title>
<g id="a_Node000004"><a xlink:href="../../d2/d81/libs_2Arduino__AVR_2main_8cpp_a840291bc02cba5474a4cb46a9b9566fe.xhtml#a840291bc02cba5474a4cb46a9b9566fe" target="_top" xlink:title=" ">
<polygon fill="white" stroke="#666666" points="41,-37 0,-37 0,-18 41,-18 41,-37"/>
<text text-anchor="middle" x="20.5" y="-25" font-family="Helvetica,sans-Serif" font-size="10.00">main</text>
</a>
</g>
</g>
<!-- Node3&#45;&gt;Node4 -->
<g id="edge3_Node000003_Node000004" class="edge">
<title>Node3&#45;&gt;Node4</title>
<g id="a_edge3_Node000003_Node000004"><a xlink:title=" ">
<path fill="none" stroke="#63b8ff" d="M66.79,-27.5C58.18,-27.5 48.9,-27.5 41,-27.5"/>
<polygon fill="#63b8ff" stroke="#63b8ff" points="66.83,-31 76.83,-27.5 66.83,-24 66.83,-31"/>
</a>
</g>
</g>
<!-- Node5&#45;&gt;Node3 -->
<g id="edge5_Node000005_Node000003" class="edge">
<title>Node5&#45;&gt;Node3</title>
<g id="a_edge5_Node000005_Node000003"><a xlink:title=" ">
<path fill="none" stroke="#63b8ff" d="M141.44,-20.6C131.83,-22.1 122.74,-23.51 115.32,-24.66"/>
<polygon fill="#63b8ff" stroke="#63b8ff" points="142.26,-24.02 151.6,-19.03 141.18,-17.1 142.26,-24.02"/>
</a>
</g>
</g>
</g>
</svg>
</svg>

<style type='text/css'>
<![CDATA[
[data-mouse-over-selected='false'] { opacity: 0.7; }
[data-mouse-over-selected='true']  { opacity: 1.0; }
]]>
</style>
<script type="application/ecmascript"><![CDATA[
document.addEventListener('DOMContentLoaded', (event) => {
  highlightEdges();
  highlightAdjacentNodes();
});
]]></script>
</svg>
