<?xml version="1.0" encoding="UTF-8" standalone="no"?>
<!DOCTYPE svg PUBLIC "-//W3C//DTD SVG 1.1//EN"
 "http://www.w3.org/Graphics/SVG/1.1/DTD/svg11.dtd">
<!-- Generated by graphviz version 2.43.0 (0)
 -->
<!-- Title: /mnt/d/Cours/10. CESI A2/Blocs/01 &#45; Systeme embarque/Livrables/Station_Meteo_Groupe_1 &#45; Copy/libs/Arduino_AVR/Stream.h Pages: 1 -->
<svg width="1300pt" height="467pt"
 viewBox="0.00 0.00 1300.00 467.00" xmlns="http://www.w3.org/2000/svg" xmlns:xlink="http://www.w3.org/1999/xlink">
<g id="graph0" class="graph" transform="scale(1 1) rotate(0) translate(4 463)">
<title>/mnt/d/Cours/10. CESI A2/Blocs/01 &#45; Systeme embarque/Livrables/Station_Meteo_Groupe_1 &#45; Copy/libs/Arduino_AVR/Stream.h</title>
<!-- Node1 -->
<g id="Node000001" class="node">
<title>Node1</title>
<g id="a_Node000001"><a xlink:title=" ">
<polygon fill="#999999" stroke="#666666" points="890.5,-459 731.5,-459 731.5,-396 890.5,-396 890.5,-459"/>
<text text-anchor="start" x="739.5" y="-447" font-family="Helvetica,sans-Serif" font-size="10.00">/mnt/d/Cours/10. CESI</text>
<text text-anchor="start" x="739.5" y="-436" font-family="Helvetica,sans-Serif" font-size="10.00"> A2/Blocs/01 &#45; Systeme</text>
<text text-anchor="start" x="739.5" y="-425" font-family="Helvetica,sans-Serif" font-size="10.00"> embarque/Livrables/Station</text>
<text text-anchor="start" x="739.5" y="-414" font-family="Helvetica,sans-Serif" font-size="10.00">_Meteo_Groupe_1 &#45; Copy/libs</text>
<text text-anchor="middle" x="811" y="-403" font-family="Helvetica,sans-Serif" font-size="10.00">/Arduino_AVR/Stream.h</text>
</a>
</g>
</g>
<!-- Node2 -->
<g id="Node000002" class="node">
<title>Node2</title>
<g id="a_Node000002"><a xlink:href="../../d4/d20/Client_8h.xhtml" target="_top" xlink:title=" ">
<polygon fill="white" stroke="#666666" points="596.5,-360 437.5,-360 437.5,-297 596.5,-297 596.5,-360"/>
<text text-anchor="start" x="445.5" y="-348" font-family="Helvetica,sans-Serif" font-size="10.00">/mnt/d/Cours/10. CESI</text>
<text text-anchor="start" x="445.5" y="-337" font-family="Helvetica,sans-Serif" font-size="10.00"> A2/Blocs/01 &#45; Systeme</text>
<text text-anchor="start" x="445.5" y="-326" font-family="Helvetica,sans-Serif" font-size="10.00"> embarque/Livrables/Station</text>
<text text-anchor="start" x="445.5" y="-315" font-family="Helvetica,sans-Serif" font-size="10.00">_Meteo_Groupe_1 &#45; Copy/libs</text>
<text text-anchor="middle" x="517" y="-304" font-family="Helvetica,sans-Serif" font-size="10.00">/Arduino_AVR/Client.h</text>
</a>
</g>
</g>
<!-- Node1&#45;&gt;Node2 -->
<g id="edge1_Node000001_Node000002" class="edge">
<title>Node1&#45;&gt;Node2</title>
<g id="a_edge1_Node000001_Node000002"><a xlink:title=" ">
<path fill="none" stroke="#63b8ff" d="M721.58,-398.09C685.33,-386.46 643.11,-372.75 605,-360 602.24,-359.08 599.43,-358.13 596.6,-357.17"/>
<polygon fill="#63b8ff" stroke="#63b8ff" points="720.55,-401.44 731.14,-401.16 722.69,-394.77 720.55,-401.44"/>
</a>
</g>
</g>
<!-- Node3 -->
<g id="Node000003" class="node">
<title>Node3</title>
<g id="a_Node000003"><a xlink:href="../../d7/d96/HardwareSerial_8h.xhtml" target="_top" xlink:title=" ">
<polygon fill="white" stroke="#666666" points="783.5,-360 614.5,-360 614.5,-297 783.5,-297 783.5,-360"/>
<text text-anchor="start" x="622.5" y="-348" font-family="Helvetica,sans-Serif" font-size="10.00">/mnt/d/Cours/10. CESI</text>
<text text-anchor="start" x="622.5" y="-337" font-family="Helvetica,sans-Serif" font-size="10.00"> A2/Blocs/01 &#45; Systeme</text>
<text text-anchor="start" x="622.5" y="-326" font-family="Helvetica,sans-Serif" font-size="10.00"> embarque/Livrables/Station</text>
<text text-anchor="start" x="622.5" y="-315" font-family="Helvetica,sans-Serif" font-size="10.00">_Meteo_Groupe_1 &#45; Copy/libs</text>
<text text-anchor="middle" x="699" y="-304" font-family="Helvetica,sans-Serif" font-size="10.00">/Arduino_AVR/HardwareSerial.h</text>
</a>
</g>
</g>
<!-- Node1&#45;&gt;Node3 -->
<g id="edge2_Node000001_Node000003" class="edge">
<title>Node1&#45;&gt;Node3</title>
<g id="a_edge2_Node000001_Node000003"><a xlink:title=" ">
<path fill="none" stroke="#63b8ff" d="M767.73,-389.02C756.77,-379.53 745.12,-369.45 734.59,-360.32"/>
<polygon fill="#63b8ff" stroke="#63b8ff" points="765.71,-391.91 775.56,-395.81 770.29,-386.62 765.71,-391.91"/>
</a>
</g>
</g>
<!-- Node9 -->
<g id="Node000009" class="node">
<title>Node9</title>
<g id="a_Node000009"><a xlink:href="../../d1/de5/SoftwareSerial_8h.xhtml" target="_top" xlink:title=" ">
<polygon fill="white" stroke="#666666" points="1187.5,-261 1014.5,-261 1014.5,-198 1187.5,-198 1187.5,-261"/>
<text text-anchor="start" x="1022.5" y="-249" font-family="Helvetica,sans-Serif" font-size="10.00">/mnt/d/Cours/10. CESI</text>
<text text-anchor="start" x="1022.5" y="-238" font-family="Helvetica,sans-Serif" font-size="10.00"> A2/Blocs/01 &#45; Systeme</text>
<text text-anchor="start" x="1022.5" y="-227" font-family="Helvetica,sans-Serif" font-size="10.00"> embarque/Livrables/Station</text>
<text text-anchor="start" x="1022.5" y="-216" font-family="Helvetica,sans-Serif" font-size="10.00">_Meteo_Groupe_1 &#45; Copy/libs</text>
<text text-anchor="middle" x="1101" y="-205" font-family="Helvetica,sans-Serif" font-size="10.00">/SoftwareSerial/SoftwareSerial.h</text>
</a>
</g>
</g>
<!-- Node1&#45;&gt;Node9 -->
<g id="edge14_Node000001_Node000009" class="edge">
<title>Node1&#45;&gt;Node9</title>
<g id="a_edge14_Node000001_Node000009"><a xlink:title=" ">
<path fill="none" stroke="#63b8ff" d="M805.38,-385.81C803.86,-357.34 807.07,-320.37 829,-297 883.63,-238.78 927.73,-281.12 1005,-261 1008.05,-260.21 1011.14,-259.37 1014.26,-258.51"/>
<polygon fill="#63b8ff" stroke="#63b8ff" points="801.9,-386.16 806.13,-395.87 808.88,-385.64 801.9,-386.16"/>
</a>
</g>
</g>
<!-- Node13 -->
<g id="Node000013" class="node">
<title>Node13</title>
<g id="a_Node000013"><a xlink:href="../../dd/d8c/Stream_8cpp.xhtml" target="_top" xlink:title=" ">
<polygon fill="white" stroke="#666666" points="997.5,-360 838.5,-360 838.5,-297 997.5,-297 997.5,-360"/>
<text text-anchor="start" x="846.5" y="-348" font-family="Helvetica,sans-Serif" font-size="10.00">/mnt/d/Cours/10. CESI</text>
<text text-anchor="start" x="846.5" y="-337" font-family="Helvetica,sans-Serif" font-size="10.00"> A2/Blocs/01 &#45; Systeme</text>
<text text-anchor="start" x="846.5" y="-326" font-family="Helvetica,sans-Serif" font-size="10.00"> embarque/Livrables/Station</text>
<text text-anchor="start" x="846.5" y="-315" font-family="Helvetica,sans-Serif" font-size="10.00">_Meteo_Groupe_1 &#45; Copy/libs</text>
<text text-anchor="middle" x="918" y="-304" font-family="Helvetica,sans-Serif" font-size="10.00">/Arduino_AVR/Stream.cpp</text>
</a>
</g>
</g>
<!-- Node1&#45;&gt;Node13 -->
<g id="edge12_Node000001_Node000013" class="edge">
<title>Node1&#45;&gt;Node13</title>
<g id="a_edge12_Node000001_Node000013"><a xlink:title=" ">
<path fill="none" stroke="#63b8ff" d="M852.34,-389.02C862.81,-379.53 873.94,-369.45 884,-360.32"/>
<polygon fill="#63b8ff" stroke="#63b8ff" points="849.91,-386.5 844.86,-395.81 854.62,-391.69 849.91,-386.5"/>
</a>
</g>
</g>
<!-- Node14 -->
<g id="Node000014" class="node">
<title>Node14</title>
<g id="a_Node000014"><a xlink:href="../../d7/d7f/Udp_8h.xhtml" target="_top" xlink:title=" ">
<polygon fill="white" stroke="#666666" points="1174.5,-360 1015.5,-360 1015.5,-297 1174.5,-297 1174.5,-360"/>
<text text-anchor="start" x="1023.5" y="-348" font-family="Helvetica,sans-Serif" font-size="10.00">/mnt/d/Cours/10. CESI</text>
<text text-anchor="start" x="1023.5" y="-337" font-family="Helvetica,sans-Serif" font-size="10.00"> A2/Blocs/01 &#45; Systeme</text>
<text text-anchor="start" x="1023.5" y="-326" font-family="Helvetica,sans-Serif" font-size="10.00"> embarque/Livrables/Station</text>
<text text-anchor="start" x="1023.5" y="-315" font-family="Helvetica,sans-Serif" font-size="10.00">_Meteo_Groupe_1 &#45; Copy/libs</text>
<text text-anchor="middle" x="1095" y="-304" font-family="Helvetica,sans-Serif" font-size="10.00">/Arduino_AVR/Udp.h</text>
</a>
</g>
</g>
<!-- Node1&#45;&gt;Node14 -->
<g id="edge13_Node000001_Node000014" class="edge">
<title>Node1&#45;&gt;Node14</title>
<g id="a_edge13_Node000001_Node000014"><a xlink:title=" ">
<path fill="none" stroke="#63b8ff" d="M900.38,-396.05C933.56,-384.74 971.5,-371.79 1006,-360 1009.09,-358.94 1012.24,-357.87 1015.43,-356.78"/>
<polygon fill="#63b8ff" stroke="#63b8ff" points="899.04,-392.81 890.7,-399.35 901.3,-399.44 899.04,-392.81"/>
</a>
</g>
</g>
<!-- Node4 -->
<g id="Node000004" class="node">
<title>Node4</title>
<g id="a_Node000004"><a xlink:href="../../dd/d29/HardwareSerial_8cpp.xhtml" target="_top" xlink:title=" ">
<polygon fill="white" stroke="#666666" points="180,-261 0,-261 0,-198 180,-198 180,-261"/>
<text text-anchor="start" x="8" y="-249" font-family="Helvetica,sans-Serif" font-size="10.00">/mnt/d/Cours/10. CESI</text>
<text text-anchor="start" x="8" y="-238" font-family="Helvetica,sans-Serif" font-size="10.00"> A2/Blocs/01 &#45; Systeme</text>
<text text-anchor="start" x="8" y="-227" font-family="Helvetica,sans-Serif" font-size="10.00"> embarque/Livrables/Station</text>
<text text-anchor="start" x="8" y="-216" font-family="Helvetica,sans-Serif" font-size="10.00">_Meteo_Groupe_1 &#45; Copy/libs</text>
<text text-anchor="middle" x="90" y="-205" font-family="Helvetica,sans-Serif" font-size="10.00">/Arduino_AVR/HardwareSerial.cpp</text>
</a>
</g>
</g>
<!-- Node3&#45;&gt;Node4 -->
<g id="edge3_Node000003_Node000004" class="edge">
<title>Node3&#45;&gt;Node4</title>
<g id="a_edge3_Node000003_Node000004"><a xlink:title=" ">
<path fill="none" stroke="#63b8ff" d="M604.47,-297.1C421.25,-261.38 367.95,-295.9 189,-261 186.09,-260.43 183.14,-259.81 180.17,-259.14"/>
<polygon fill="#63b8ff" stroke="#63b8ff" points="603.94,-300.56 614.43,-299.08 605.31,-293.7 603.94,-300.56"/>
</a>
</g>
</g>
<!-- Node5 -->
<g id="Node000005" class="node">
<title>Node5</title>
<g id="a_Node000005"><a xlink:href="../../da/de9/HardwareSerial0_8cpp.xhtml" target="_top" xlink:title=" ">
<polygon fill="white" stroke="#666666" points="384,-261 198,-261 198,-198 384,-198 384,-261"/>
<text text-anchor="start" x="206" y="-249" font-family="Helvetica,sans-Serif" font-size="10.00">/mnt/d/Cours/10. CESI</text>
<text text-anchor="start" x="206" y="-238" font-family="Helvetica,sans-Serif" font-size="10.00"> A2/Blocs/01 &#45; Systeme</text>
<text text-anchor="start" x="206" y="-227" font-family="Helvetica,sans-Serif" font-size="10.00"> embarque/Livrables/Station</text>
<text text-anchor="start" x="206" y="-216" font-family="Helvetica,sans-Serif" font-size="10.00">_Meteo_Groupe_1 &#45; Copy/libs</text>
<text text-anchor="middle" x="291" y="-205" font-family="Helvetica,sans-Serif" font-size="10.00">/Arduino_AVR/HardwareSerial0.cpp</text>
</a>
</g>
</g>
<!-- Node3&#45;&gt;Node5 -->
<g id="edge4_Node000003_Node000005" class="edge">
<title>Node3&#45;&gt;Node5</title>
<g id="a_edge4_Node000003_Node000005"><a xlink:title=" ">
<path fill="none" stroke="#63b8ff" d="M604.43,-297.01C510.38,-274.73 482.98,-282.01 393,-261 390.12,-260.33 387.2,-259.62 384.26,-258.88"/>
<polygon fill="#63b8ff" stroke="#63b8ff" points="603.82,-300.46 614.36,-299.41 605.46,-293.66 603.82,-300.46"/>
</a>
</g>
</g>
<!-- Node6 -->
<g id="Node000006" class="node">
<title>Node6</title>
<g id="a_Node000006"><a xlink:href="../../d5/d3d/HardwareSerial1_8cpp.xhtml" target="_top" xlink:title=" ">
<polygon fill="white" stroke="#666666" points="588,-261 402,-261 402,-198 588,-198 588,-261"/>
<text text-anchor="start" x="410" y="-249" font-family="Helvetica,sans-Serif" font-size="10.00">/mnt/d/Cours/10. CESI</text>
<text text-anchor="start" x="410" y="-238" font-family="Helvetica,sans-Serif" font-size="10.00"> A2/Blocs/01 &#45; Systeme</text>
<text text-anchor="start" x="410" y="-227" font-family="Helvetica,sans-Serif" font-size="10.00"> embarque/Livrables/Station</text>
<text text-anchor="start" x="410" y="-216" font-family="Helvetica,sans-Serif" font-size="10.00">_Meteo_Groupe_1 &#45; Copy/libs</text>
<text text-anchor="middle" x="495" y="-205" font-family="Helvetica,sans-Serif" font-size="10.00">/Arduino_AVR/HardwareSerial1.cpp</text>
</a>
</g>
</g>
<!-- Node3&#45;&gt;Node6 -->
<g id="edge5_Node000003_Node000006" class="edge">
<title>Node3&#45;&gt;Node6</title>
<g id="a_edge5_Node000003_Node000006"><a xlink:title=" ">
<path fill="none" stroke="#63b8ff" d="M625.57,-292.59C603.9,-282.28 580.35,-271.08 559.29,-261.07"/>
<polygon fill="#63b8ff" stroke="#63b8ff" points="624.2,-295.81 634.73,-296.94 627.21,-289.49 624.2,-295.81"/>
</a>
</g>
</g>
<!-- Node7 -->
<g id="Node000007" class="node">
<title>Node7</title>
<g id="a_Node000007"><a xlink:href="../../d7/d0e/HardwareSerial2_8cpp.xhtml" target="_top" xlink:title=" ">
<polygon fill="white" stroke="#666666" points="792,-261 606,-261 606,-198 792,-198 792,-261"/>
<text text-anchor="start" x="614" y="-249" font-family="Helvetica,sans-Serif" font-size="10.00">/mnt/d/Cours/10. CESI</text>
<text text-anchor="start" x="614" y="-238" font-family="Helvetica,sans-Serif" font-size="10.00"> A2/Blocs/01 &#45; Systeme</text>
<text text-anchor="start" x="614" y="-227" font-family="Helvetica,sans-Serif" font-size="10.00"> embarque/Livrables/Station</text>
<text text-anchor="start" x="614" y="-216" font-family="Helvetica,sans-Serif" font-size="10.00">_Meteo_Groupe_1 &#45; Copy/libs</text>
<text text-anchor="middle" x="699" y="-205" font-family="Helvetica,sans-Serif" font-size="10.00">/Arduino_AVR/HardwareSerial2.cpp</text>
</a>
</g>
</g>
<!-- Node3&#45;&gt;Node7 -->
<g id="edge6_Node000003_Node000007" class="edge">
<title>Node3&#45;&gt;Node7</title>
<g id="a_edge6_Node000003_Node000007"><a xlink:title=" ">
<path fill="none" stroke="#63b8ff" d="M699,-286.69C699,-278.2 699,-269.38 699,-261.32"/>
<polygon fill="#63b8ff" stroke="#63b8ff" points="695.5,-286.81 699,-296.81 702.5,-286.81 695.5,-286.81"/>
</a>
</g>
</g>
<!-- Node8 -->
<g id="Node000008" class="node">
<title>Node8</title>
<g id="a_Node000008"><a xlink:href="../../d1/d0d/HardwareSerial3_8cpp.xhtml" target="_top" xlink:title=" ">
<polygon fill="white" stroke="#666666" points="996,-261 810,-261 810,-198 996,-198 996,-261"/>
<text text-anchor="start" x="818" y="-249" font-family="Helvetica,sans-Serif" font-size="10.00">/mnt/d/Cours/10. CESI</text>
<text text-anchor="start" x="818" y="-238" font-family="Helvetica,sans-Serif" font-size="10.00"> A2/Blocs/01 &#45; Systeme</text>
<text text-anchor="start" x="818" y="-227" font-family="Helvetica,sans-Serif" font-size="10.00"> embarque/Livrables/Station</text>
<text text-anchor="start" x="818" y="-216" font-family="Helvetica,sans-Serif" font-size="10.00">_Meteo_Groupe_1 &#45; Copy/libs</text>
<text text-anchor="middle" x="903" y="-205" font-family="Helvetica,sans-Serif" font-size="10.00">/Arduino_AVR/HardwareSerial3.cpp</text>
</a>
</g>
</g>
<!-- Node3&#45;&gt;Node8 -->
<g id="edge7_Node000003_Node000008" class="edge">
<title>Node3&#45;&gt;Node8</title>
<g id="a_edge7_Node000003_Node000008"><a xlink:title=" ">
<path fill="none" stroke="#63b8ff" d="M772.43,-292.59C794.1,-282.28 817.65,-271.08 838.71,-261.07"/>
<polygon fill="#63b8ff" stroke="#63b8ff" points="770.79,-289.49 763.27,-296.94 773.8,-295.81 770.79,-289.49"/>
</a>
</g>
</g>
<!-- Node3&#45;&gt;Node9 -->
<g id="edge8_Node000003_Node000009" class="edge">
<title>Node3&#45;&gt;Node9</title>
<g id="a_edge8_Node000003_Node000009"><a xlink:title=" ">
<path fill="none" stroke="#63b8ff" d="M793.25,-297.92C794.51,-297.61 795.76,-297.3 797,-297 888.21,-275.01 913.86,-283.26 1005,-261 1008.06,-260.25 1011.16,-259.46 1014.29,-258.63"/>
<polygon fill="#63b8ff" stroke="#63b8ff" points="792.34,-294.54 783.53,-300.44 794.09,-301.32 792.34,-294.54"/>
</a>
</g>
</g>
<!-- Node10 -->
<g id="Node000010" class="node">
<title>Node10</title>
<g id="a_Node000010"><a xlink:href="../../db/d45/gps_8hpp.xhtml" target="_top" xlink:title=" ">
<polygon fill="white" stroke="#666666" points="1089.5,-162 912.5,-162 912.5,-99 1089.5,-99 1089.5,-162"/>
<text text-anchor="start" x="920.5" y="-150" font-family="Helvetica,sans-Serif" font-size="10.00">/mnt/d/Cours/10. CESI</text>
<text text-anchor="start" x="920.5" y="-139" font-family="Helvetica,sans-Serif" font-size="10.00"> A2/Blocs/01 &#45; Systeme</text>
<text text-anchor="start" x="920.5" y="-128" font-family="Helvetica,sans-Serif" font-size="10.00"> embarque/Livrables/Station</text>
<text text-anchor="start" x="920.5" y="-117" font-family="Helvetica,sans-Serif" font-size="10.00">_Meteo_Groupe_1 &#45; Copy/include</text>
<text text-anchor="middle" x="1001" y="-106" font-family="Helvetica,sans-Serif" font-size="10.00">/peripherals/gps.hpp</text>
</a>
</g>
</g>
<!-- Node9&#45;&gt;Node10 -->
<g id="edge9_Node000009_Node000010" class="edge">
<title>Node9&#45;&gt;Node10</title>
<g id="a_edge9_Node000009_Node000010"><a xlink:title=" ">
<path fill="none" stroke="#63b8ff" d="M1062.08,-190.75C1052.38,-181.34 1042.09,-171.36 1032.78,-162.32"/>
<polygon fill="#63b8ff" stroke="#63b8ff" points="1059.74,-193.36 1069.36,-197.81 1064.62,-188.33 1059.74,-193.36"/>
</a>
</g>
</g>
<!-- Node12 -->
<g id="Node000012" class="node">
<title>Node12</title>
<g id="a_Node000012"><a xlink:href="../../d4/d73/SoftwareSerial_8cpp.xhtml" target="_top" xlink:title=" ">
<polygon fill="white" stroke="#666666" points="1292,-162 1108,-162 1108,-99 1292,-99 1292,-162"/>
<text text-anchor="start" x="1116" y="-150" font-family="Helvetica,sans-Serif" font-size="10.00">/mnt/d/Cours/10. CESI</text>
<text text-anchor="start" x="1116" y="-139" font-family="Helvetica,sans-Serif" font-size="10.00"> A2/Blocs/01 &#45; Systeme</text>
<text text-anchor="start" x="1116" y="-128" font-family="Helvetica,sans-Serif" font-size="10.00"> embarque/Livrables/Station</text>
<text text-anchor="start" x="1116" y="-117" font-family="Helvetica,sans-Serif" font-size="10.00">_Meteo_Groupe_1 &#45; Copy/libs</text>
<text text-anchor="middle" x="1200" y="-106" font-family="Helvetica,sans-Serif" font-size="10.00">/SoftwareSerial/SoftwareSerial.cpp</text>
</a>
</g>
</g>
<!-- Node9&#45;&gt;Node12 -->
<g id="edge11_Node000009_Node000012" class="edge">
<title>Node9&#45;&gt;Node12</title>
<g id="a_edge11_Node000009_Node000012"><a xlink:title=" ">
<path fill="none" stroke="#63b8ff" d="M1139.53,-190.75C1149.14,-181.34 1159.32,-171.36 1168.54,-162.32"/>
<polygon fill="#63b8ff" stroke="#63b8ff" points="1137.02,-188.31 1132.32,-197.81 1141.92,-193.31 1137.02,-188.31"/>
</a>
</g>
</g>
<!-- Node11 -->
<g id="Node000011" class="node">
<title>Node11</title>
<g id="a_Node000011"><a xlink:href="../../dc/d3d/gps_8cpp.xhtml" target="_top" xlink:title=" ">
<polygon fill="white" stroke="#666666" points="1079,-63 923,-63 923,0 1079,0 1079,-63"/>
<text text-anchor="start" x="931" y="-51" font-family="Helvetica,sans-Serif" font-size="10.00">/mnt/d/Cours/10. CESI</text>
<text text-anchor="start" x="931" y="-40" font-family="Helvetica,sans-Serif" font-size="10.00"> A2/Blocs/01 &#45; Systeme</text>
<text text-anchor="start" x="931" y="-29" font-family="Helvetica,sans-Serif" font-size="10.00"> embarque/Livrables/Station</text>
<text text-anchor="start" x="931" y="-18" font-family="Helvetica,sans-Serif" font-size="10.00">_Meteo_Groupe_1 &#45; Copy/src</text>
<text text-anchor="middle" x="1001" y="-7" font-family="Helvetica,sans-Serif" font-size="10.00">/peripherals/gps.cpp</text>
</a>
</g>
</g>
<!-- Node10&#45;&gt;Node11 -->
<g id="edge10_Node000010_Node000011" class="edge">
<title>Node10&#45;&gt;Node11</title>
<g id="a_edge10_Node000010_Node000011"><a xlink:title=" ">
<path fill="none" stroke="#63b8ff" d="M1001,-88.69C1001,-80.2 1001,-71.38 1001,-63.32"/>
<polygon fill="#63b8ff" stroke="#63b8ff" points="997.5,-88.81 1001,-98.81 1004.5,-88.81 997.5,-88.81"/>
</a>
</g>
</g>
</g>
</svg>
