<?xml version="1.0" encoding="UTF-8" standalone="no"?>
<!DOCTYPE svg PUBLIC "-//W3C//DTD SVG 1.1//EN"
 "http://www.w3.org/Graphics/SVG/1.1/DTD/svg11.dtd">
<!-- Generated by graphviz version 2.43.0 (0)
 -->
<!-- Title: fsFmtDate Pages: 1 -->
<!--zoomable 322 -->

<svg id="main" version="1.1" xmlns="http://www.w3.org/2000/svg" xmlns:xlink="http://www.w3.org/1999/xlink" xml:space="preserve" onload="init(evt)">
<style type="text/css"><![CDATA[
.node, .edge {opacity: 0.7;}
.node.selected, .edge.selected {opacity: 1;}
.edge:hover path { stroke: red; }
.edge:hover polygon { stroke: red; fill: red; }
]]></style>

<defs>
  <circle id="rim" cx="0" cy="0" r="7"/>
  <circle id="rim2" cx="0" cy="0" r="3.5"/>
  <g id="zoomPlus">
    <use xlink:href="#rim" fill="#404040"><set attributeName="fill" to="#808080" begin="zoomplus.mouseover" end="zoomplus.mouseout"/></use>
    <path d="M-4,0h8M0,-4v8" fill="none" stroke="white" stroke-width="1.5" pointer-events="none"/>
  </g>
  <g id="zoomMin">
    <use xlink:href="#rim" fill="#404040"><set attributeName="fill" to="#808080" begin="zoomminus.mouseover" end="zoomminus.mouseout"/></use>
    <path d="M-4,0h8" fill="none" stroke="white" stroke-width="1.5" pointer-events="none"/>
  </g>
  <g id="arrowUp" transform="translate(30 24)">
    <use xlink:href="#rim"/>
    <path pointer-events="none" fill="none" stroke="white" stroke-width="1.5" d="M0,-3.0v7 M-2.5,-0.5L0,-3.0L2.5,-0.5"/>
  </g>
  <g id="arrowRight" transform="rotate(90) translate(36 -43)">
    <use xlink:href="#rim"/>
    <path pointer-events="none" fill="none" stroke="white" stroke-width="1.5" d="M0,-3.0v7 M-2.5,-0.5L0,-3.0L2.5,-0.5"/>
  </g>
  <g id="arrowDown" transform="rotate(180) translate(-30 -48)">
    <use xlink:href="#rim"/>
    <path pointer-events="none" fill="none" stroke="white" stroke-width="1.5" d="M0,-3.0v7 M-2.5,-0.5L0,-3.0L2.5,-0.5"/>
  </g>
  <g id="arrowLeft" transform="rotate(270) translate(-36 17)">
    <use xlink:href="#rim"/>
    <path pointer-events="none" fill="none" stroke="white" stroke-width="1.5" d="M0,-3.0v7 M-2.5,-0.5L0,-3.0L2.5,-0.5"/>
  </g>
  <g id="resetDef">
    <use xlink:href="#rim2" fill="#404040"><set attributeName="fill" to="#808080" begin="reset.mouseover" end="reset.mouseout"/></use>
  </g>
</defs>
<script type="application/ecmascript">
var viewWidth = 888;
var viewHeight = 322;
var sectionId = 'dynsection-1';
</script>
<script type="application/ecmascript" xlink:href="../../svg.min.js"/>
<svg id="graph" class="graph">
<g id="viewport">
<title>fsFmtDate</title>
<!-- Node1 -->
<g id="Node000001" class="node">
<title>Node1</title>
<g id="a_Node000001"><a xlink:title=" ">
<polygon fill="#999999" stroke="#666666" points="880,-184 812,-184 812,-165 880,-165 880,-184"/>
<text text-anchor="middle" x="846" y="-172" font-family="Helvetica,sans-Serif" font-size="10.00">fsFmtDate</text>
</a>
</g>
</g>
<!-- Node2 -->
<g id="Node000002" class="node">
<title>Node2</title>
<g id="a_Node000002"><a xlink:href="../../d3/d80/FsDateTime_8cpp_a24d0b955f316cd7a160cb44f02588a32.xhtml#a24d0b955f316cd7a160cb44f02588a32" target="_top" xlink:title=" ">
<polygon fill="white" stroke="#666666" points="763.5,-267 692.5,-267 692.5,-248 763.5,-248 763.5,-267"/>
<text text-anchor="middle" x="728" y="-255" font-family="Helvetica,sans-Serif" font-size="10.00">fsPrintDate</text>
</a>
</g>
</g>
<!-- Node1&#45;&gt;Node2 -->
<g id="edge1_Node000001_Node000002" class="edge">
<title>Node1&#45;&gt;Node2</title>
<g id="a_edge1_Node000001_Node000002"><a xlink:title=" ">
<path fill="none" stroke="#63b8ff" d="M823.34,-190C799.63,-206.96 762.36,-233.63 742.51,-247.83"/>
<polygon fill="#63b8ff" stroke="#63b8ff" points="825.6,-192.69 831.69,-184.02 821.52,-186.99 825.6,-192.69"/>
</a>
</g>
</g>
<!-- Node5 -->
<g id="Node000005" class="node">
<title>Node5</title>
<g id="a_Node000005"><a xlink:href="../../d3/d80/FsDateTime_8cpp_a8eed4f2175da7c12f53ed62fccda5b12.xhtml#a8eed4f2175da7c12f53ed62fccda5b12" target="_top" xlink:title=" ">
<polygon fill="white" stroke="#666666" points="776,-184 680,-184 680,-165 776,-165 776,-184"/>
<text text-anchor="middle" x="728" y="-172" font-family="Helvetica,sans-Serif" font-size="10.00">fsPrintDateTime</text>
</a>
</g>
</g>
<!-- Node1&#45;&gt;Node5 -->
<g id="edge4_Node000001_Node000005" class="edge">
<title>Node1&#45;&gt;Node5</title>
<g id="a_edge4_Node000001_Node000005"><a xlink:title=" ">
<path fill="none" stroke="#63b8ff" d="M801.52,-174.5C793.22,-174.5 784.49,-174.5 776.08,-174.5"/>
<polygon fill="#63b8ff" stroke="#63b8ff" points="801.76,-178 811.76,-174.5 801.76,-171 801.76,-178"/>
</a>
</g>
</g>
<!-- Node20 -->
<g id="Node000020" class="node">
<title>Node20</title>
<g id="a_Node000020"><a xlink:href="../../d3/d80/FsDateTime_8cpp_a03dcde4088a9777bafb220b6970a5b76.xhtml#a03dcde4088a9777bafb220b6970a5b76" target="_top" xlink:title=" ">
<polygon fill="white" stroke="#666666" points="776,-147 680,-147 680,-128 776,-128 776,-147"/>
<text text-anchor="middle" x="728" y="-135" font-family="Helvetica,sans-Serif" font-size="10.00">fsPrintDateTime</text>
</a>
</g>
</g>
<!-- Node1&#45;&gt;Node20 -->
<g id="edge20_Node000001_Node000020" class="edge">
<title>Node1&#45;&gt;Node20</title>
<g id="a_edge20_Node000001_Node000020"><a xlink:title=" ">
<path fill="none" stroke="#63b8ff" d="M805.49,-161.9C790.34,-157.07 773.31,-151.63 759.17,-147.12"/>
<polygon fill="#63b8ff" stroke="#63b8ff" points="804.54,-165.27 815.13,-164.97 806.66,-158.6 804.54,-165.27"/>
</a>
</g>
</g>
<!-- Node3 -->
<g id="Node000003" class="node">
<title>Node3</title>
<g id="a_Node000003"><a xlink:href="../../d3/db4/classFatFile_a22be4c339d0bfa331f75415b74dd4f37.xhtml#a22be4c339d0bfa331f75415b74dd4f37" target="_top" xlink:title=" ">
<polygon fill="white" stroke="#666666" points="626,-314 492,-314 492,-295 626,-295 626,-314"/>
<text text-anchor="middle" x="559" y="-302" font-family="Helvetica,sans-Serif" font-size="10.00">FatFile::printAccessDate</text>
</a>
</g>
</g>
<!-- Node2&#45;&gt;Node3 -->
<g id="edge2_Node000002_Node000003" class="edge">
<title>Node2&#45;&gt;Node3</title>
<g id="a_edge2_Node000002_Node000003"><a xlink:title=" ">
<path fill="none" stroke="#63b8ff" d="M692.45,-270.66C677.66,-276 660.12,-281.98 644,-286.5 632.94,-289.6 620.94,-292.47 609.56,-294.96"/>
<polygon fill="#63b8ff" stroke="#63b8ff" points="694.02,-273.81 702.2,-267.08 691.6,-267.24 694.02,-273.81"/>
</a>
</g>
</g>
<!-- Node4 -->
<g id="Node000004" class="node">
<title>Node4</title>
<g id="a_Node000004"><a xlink:href="../../d3/db4/classFatFile_a19b3196bb1f6a68a2447e53b09369aef.xhtml#a19b3196bb1f6a68a2447e53b09369aef" target="_top" xlink:title=" ">
<polygon fill="white" stroke="#666666" points="438,-314 280,-314 280,-295 438,-295 438,-314"/>
<text text-anchor="middle" x="359" y="-302" font-family="Helvetica,sans-Serif" font-size="10.00">FatFile::printAccessDateTime</text>
</a>
</g>
</g>
<!-- Node3&#45;&gt;Node4 -->
<g id="edge3_Node000003_Node000004" class="edge">
<title>Node3&#45;&gt;Node4</title>
<g id="a_edge3_Node000003_Node000004"><a xlink:title=" ">
<path fill="none" stroke="#63b8ff" d="M481.56,-304.5C467.33,-304.5 452.44,-304.5 438.15,-304.5"/>
<polygon fill="#63b8ff" stroke="#63b8ff" points="481.79,-308 491.79,-304.5 481.79,-301 481.79,-308"/>
</a>
</g>
</g>
<!-- Node6 -->
<g id="Node000006" class="node">
<title>Node6</title>
<g id="a_Node000006"><a xlink:href="../../d3/d80/FsDateTime_8cpp_af2e88fd7293f989075db3f2808692202.xhtml#af2e88fd7293f989075db3f2808692202" target="_top" xlink:title=" ">
<polygon fill="white" stroke="#666666" points="607,-277 511,-277 511,-258 607,-258 607,-277"/>
<text text-anchor="middle" x="559" y="-265" font-family="Helvetica,sans-Serif" font-size="10.00">fsPrintDateTime</text>
</a>
</g>
</g>
<!-- Node5&#45;&gt;Node6 -->
<g id="edge5_Node000005_Node000006" class="edge">
<title>Node5&#45;&gt;Node6</title>
<g id="a_edge5_Node000005_Node000006"><a xlink:title=" ">
<path fill="none" stroke="#63b8ff" d="M712.85,-191.75C697.67,-209.08 671.93,-235.21 644,-249.5 632.71,-255.27 619.66,-259.2 607.26,-261.87"/>
<polygon fill="#63b8ff" stroke="#63b8ff" points="715.6,-193.92 719.42,-184.04 710.27,-189.38 715.6,-193.92"/>
</a>
</g>
</g>
<!-- Node7 -->
<g id="Node000007" class="node">
<title>Node7</title>
<g id="a_Node000007"><a xlink:href="../../d6/d7f/classExFatFile_ad9ba8aa00b9db683d40fc2989dbe1922.xhtml#ad9ba8aa00b9db683d40fc2989dbe1922" target="_top" xlink:title=" ">
<polygon fill="white" stroke="#666666" points="644,-240 474,-240 474,-221 644,-221 644,-240"/>
<text text-anchor="middle" x="559" y="-228" font-family="Helvetica,sans-Serif" font-size="10.00">ExFatFile::printAccessDateTime</text>
</a>
</g>
</g>
<!-- Node5&#45;&gt;Node7 -->
<g id="edge6_Node000005_Node000007" class="edge">
<title>Node5&#45;&gt;Node7</title>
<g id="a_edge6_Node000005_Node000007"><a xlink:title=" ">
<path fill="none" stroke="#63b8ff" d="M699.77,-188.8C683.85,-196.68 663.18,-206.14 644,-212.5 634.23,-215.74 623.63,-218.54 613.35,-220.9"/>
<polygon fill="#63b8ff" stroke="#63b8ff" points="701.66,-191.76 709,-184.13 698.5,-185.52 701.66,-191.76"/>
</a>
</g>
</g>
<!-- Node8 -->
<g id="Node000008" class="node">
<title>Node8</title>
<g id="a_Node000008"><a xlink:href="../../d6/d7f/classExFatFile_a7318b2d7594d6ba52421c413f5fc35cd.xhtml#a7318b2d7594d6ba52421c413f5fc35cd" target="_top" xlink:title=" ">
<polygon fill="white" stroke="#666666" points="643.5,-203 474.5,-203 474.5,-184 643.5,-184 643.5,-203"/>
<text text-anchor="middle" x="559" y="-191" font-family="Helvetica,sans-Serif" font-size="10.00">ExFatFile::printCreateDateTime</text>
</a>
</g>
</g>
<!-- Node5&#45;&gt;Node8 -->
<g id="edge7_Node000005_Node000008" class="edge">
<title>Node5&#45;&gt;Node8</title>
<g id="a_edge7_Node000005_Node000008"><a xlink:title=" ">
<path fill="none" stroke="#63b8ff" d="M669.56,-181.04C661.16,-181.99 652.36,-182.99 643.56,-183.99"/>
<polygon fill="#63b8ff" stroke="#63b8ff" points="670.05,-184.5 679.59,-179.89 669.26,-177.55 670.05,-184.5"/>
</a>
</g>
</g>
<!-- Node9 -->
<g id="Node000009" class="node">
<title>Node9</title>
<g id="a_Node000009"><a xlink:href="../../d3/db4/classFatFile_ab22396a285e27b53501a0047ddd97f59.xhtml#ab22396a285e27b53501a0047ddd97f59" target="_top" xlink:title=" ">
<polygon fill="white" stroke="#666666" points="637.5,-166 480.5,-166 480.5,-147 637.5,-147 637.5,-166"/>
<text text-anchor="middle" x="559" y="-154" font-family="Helvetica,sans-Serif" font-size="10.00">FatFile::printCreateDateTime</text>
</a>
</g>
</g>
<!-- Node5&#45;&gt;Node9 -->
<g id="edge8_Node000005_Node000009" class="edge">
<title>Node5&#45;&gt;Node9</title>
<g id="a_edge8_Node000005_Node000009"><a xlink:title=" ">
<path fill="none" stroke="#63b8ff" d="M669.51,-168.3C659.2,-167.19 648.3,-166.02 637.54,-164.86"/>
<polygon fill="#63b8ff" stroke="#63b8ff" points="669.27,-171.8 679.59,-169.39 670.02,-164.84 669.27,-171.8"/>
</a>
</g>
</g>
<!-- Node10 -->
<g id="Node000010" class="node">
<title>Node10</title>
<g id="a_Node000010"><a xlink:href="../../d2/d2b/ExFatDbg_8cpp_a7f7a4b73b05a14880fcafc67b99b8141.xhtml#a7f7a4b73b05a14880fcafc67b99b8141" target="_top" xlink:title=" ">
<polygon fill="white" stroke="#666666" points="602.5,-129 515.5,-129 515.5,-110 602.5,-110 602.5,-129"/>
<text text-anchor="middle" x="559" y="-117" font-family="Helvetica,sans-Serif" font-size="10.00">printDateTime</text>
</a>
</g>
</g>
<!-- Node5&#45;&gt;Node10 -->
<g id="edge9_Node000005_Node000010" class="edge">
<title>Node5&#45;&gt;Node10</title>
<g id="a_edge9_Node000005_Node000010"><a xlink:title=" ">
<path fill="none" stroke="#63b8ff" d="M691.14,-161.19C687.36,-159.66 683.59,-158.08 680,-156.5 663.63,-149.29 660.85,-144.52 644,-138.5 630.91,-133.82 616.24,-130.04 602.87,-127.11"/>
<polygon fill="#63b8ff" stroke="#63b8ff" points="689.88,-164.45 700.47,-164.86 692.44,-157.94 689.88,-164.45"/>
</a>
</g>
</g>
<!-- Node13 -->
<g id="Node000013" class="node">
<title>Node13</title>
<g id="a_Node000013"><a xlink:href="../../d6/d7f/classExFatFile_a16488d3e0d946f108240b7d6c536c6f4.xhtml#a16488d3e0d946f108240b7d6c536c6f4" target="_top" xlink:title=" ">
<polygon fill="white" stroke="#666666" points="644,-92 474,-92 474,-73 644,-73 644,-92"/>
<text text-anchor="middle" x="559" y="-80" font-family="Helvetica,sans-Serif" font-size="10.00">ExFatFile::printModifyDateTime</text>
</a>
</g>
</g>
<!-- Node5&#45;&gt;Node13 -->
<g id="edge12_Node000005_Node000013" class="edge">
<title>Node5&#45;&gt;Node13</title>
<g id="a_edge12_Node000005_Node000013"><a xlink:title=" ">
<path fill="none" stroke="#63b8ff" d="M684.85,-159.97C683.16,-158.89 681.53,-157.73 680,-156.5 657.26,-138.16 668,-118.16 644,-101.5 638.47,-97.66 632.29,-94.59 625.86,-92.13"/>
<polygon fill="#63b8ff" stroke="#63b8ff" points="683.25,-163.09 693.71,-164.79 686.6,-156.94 683.25,-163.09"/>
</a>
</g>
</g>
<!-- Node15 -->
<g id="Node000015" class="node">
<title>Node15</title>
<g id="a_Node000015"><a xlink:href="../../d3/db4/classFatFile_a43c8a1cabcae673e43c590f5db44c65a.xhtml#a43c8a1cabcae673e43c590f5db44c65a" target="_top" xlink:title=" ">
<polygon fill="white" stroke="#666666" points="638,-46 480,-46 480,-27 638,-27 638,-46"/>
<text text-anchor="middle" x="559" y="-34" font-family="Helvetica,sans-Serif" font-size="10.00">FatFile::printModifyDateTime</text>
</a>
</g>
</g>
<!-- Node5&#45;&gt;Node15 -->
<g id="edge14_Node000005_Node000015" class="edge">
<title>Node5&#45;&gt;Node15</title>
<g id="a_edge14_Node000005_Node000015"><a xlink:title=" ">
<path fill="none" stroke="#63b8ff" d="M682.98,-159.16C681.94,-158.32 680.94,-157.43 680,-156.5 648.84,-125.57 675.83,-94.74 644,-64.5 635.2,-56.14 623.83,-50.27 612.31,-46.15"/>
<polygon fill="#63b8ff" stroke="#63b8ff" points="681.35,-162.28 691.65,-164.77 685.15,-156.4 681.35,-162.28"/>
</a>
</g>
</g>
<!-- Node11 -->
<g id="Node000011" class="node">
<title>Node11</title>
<g id="a_Node000011"><a xlink:href="../../d2/d2b/ExFatDbg_8cpp_ae03827835f2bd9f7e6f917762b68a18b.xhtml#ae03827835f2bd9f7e6f917762b68a18b" target="_top" xlink:title=" ">
<polygon fill="white" stroke="#666666" points="394.5,-129 323.5,-129 323.5,-110 394.5,-110 394.5,-129"/>
<text text-anchor="middle" x="359" y="-117" font-family="Helvetica,sans-Serif" font-size="10.00">printDirFile</text>
</a>
</g>
</g>
<!-- Node10&#45;&gt;Node11 -->
<g id="edge10_Node000010_Node000011" class="edge">
<title>Node10&#45;&gt;Node11</title>
<g id="a_edge10_Node000010_Node000011"><a xlink:title=" ">
<path fill="none" stroke="#63b8ff" d="M504.98,-119.5C469.99,-119.5 425.13,-119.5 394.65,-119.5"/>
<polygon fill="#63b8ff" stroke="#63b8ff" points="505.04,-123 515.04,-119.5 505.04,-116 505.04,-123"/>
</a>
</g>
</g>
<!-- Node12 -->
<g id="Node000012" class="node">
<title>Node12</title>
<g id="a_Node000012"><a xlink:href="../../d0/d63/classExFatPartition_ac37fa630d5288803f46d3bb9ed3690b5.xhtml#ac37fa630d5288803f46d3bb9ed3690b5" target="_top" xlink:title=" ">
<polygon fill="white" stroke="#666666" points="244,-129 118,-129 118,-110 244,-110 244,-129"/>
<text text-anchor="middle" x="181" y="-117" font-family="Helvetica,sans-Serif" font-size="10.00">ExFatPartition::printDir</text>
</a>
</g>
</g>
<!-- Node11&#45;&gt;Node12 -->
<g id="edge11_Node000011_Node000012" class="edge">
<title>Node11&#45;&gt;Node12</title>
<g id="a_edge11_Node000011_Node000012"><a xlink:title=" ">
<path fill="none" stroke="#63b8ff" d="M313.02,-119.5C292.09,-119.5 266.85,-119.5 244.13,-119.5"/>
<polygon fill="#63b8ff" stroke="#63b8ff" points="313.23,-123 323.23,-119.5 313.23,-116 313.23,-123"/>
</a>
</g>
</g>
<!-- Node14 -->
<g id="Node000014" class="node">
<title>Node14</title>
<g id="a_Node000014"><a xlink:href="../../d6/d7f/classExFatFile_a09f8beb55f939874e93c1df6c8a046d4.xhtml#a09f8beb55f939874e93c1df6c8a046d4" target="_top" xlink:title=" ">
<polygon fill="white" stroke="#666666" points="396,-92 322,-92 322,-73 396,-73 396,-92"/>
<text text-anchor="middle" x="359" y="-80" font-family="Helvetica,sans-Serif" font-size="10.00">ExFatFile::ls</text>
</a>
</g>
</g>
<!-- Node13&#45;&gt;Node14 -->
<g id="edge13_Node000013_Node000014" class="edge">
<title>Node13&#45;&gt;Node14</title>
<g id="a_edge13_Node000013_Node000014"><a xlink:title=" ">
<path fill="none" stroke="#63b8ff" d="M463.51,-82.5C439.53,-82.5 415.2,-82.5 396.16,-82.5"/>
<polygon fill="#63b8ff" stroke="#63b8ff" points="463.74,-86 473.74,-82.5 463.74,-79 463.74,-86"/>
</a>
</g>
</g>
<!-- Node16 -->
<g id="Node000016" class="node">
<title>Node16</title>
<g id="a_Node000016"><a xlink:href="../../d3/db4/classFatFile_a60ab9d16bcc778150a364c26de467de1.xhtml#a60ab9d16bcc778150a364c26de467de1" target="_top" xlink:title=" ">
<polygon fill="white" stroke="#666666" points="390,-37 328,-37 328,-18 390,-18 390,-37"/>
<text text-anchor="middle" x="359" y="-25" font-family="Helvetica,sans-Serif" font-size="10.00">FatFile::ls</text>
</a>
</g>
</g>
<!-- Node15&#45;&gt;Node16 -->
<g id="edge15_Node000015_Node000016" class="edge">
<title>Node15&#45;&gt;Node16</title>
<g id="a_edge15_Node000015_Node000016"><a xlink:title=" ">
<path fill="none" stroke="#63b8ff" d="M469.75,-32.49C441.29,-31.19 411.63,-29.85 390.33,-28.88"/>
<polygon fill="#63b8ff" stroke="#63b8ff" points="469.6,-35.99 479.75,-32.94 469.91,-28.99 469.6,-35.99"/>
</a>
</g>
</g>
<!-- Node16&#45;&gt;Node16 -->
<g id="edge19_Node000016_Node000016" class="edge">
<title>Node16&#45;&gt;Node16</title>
<g id="a_edge19_Node000016_Node000016"><a xlink:title=" ">
<path fill="none" stroke="#63b8ff" d="M392.31,-45.45C391.36,-50.82 380.26,-55 359,-55 327.36,-55 318.22,-45.73 331.57,-37.08"/>
<polygon fill="#63b8ff" stroke="#63b8ff" points="395.05,-43.26 386.43,-37.08 389.32,-47.28 395.05,-43.26"/>
</a>
</g>
</g>
<!-- Node17 -->
<g id="Node000017" class="node">
<title>Node17</title>
<g id="a_Node000017"><a xlink:href="../../d3/dd5/classFatVolume_ac5fc83cac7fd3af0b140a7986b9472f8.xhtml#ac5fc83cac7fd3af0b140a7986b9472f8" target="_top" xlink:title=" ">
<polygon fill="white" stroke="#666666" points="222,-56 140,-56 140,-37 222,-37 222,-56"/>
<text text-anchor="middle" x="181" y="-44" font-family="Helvetica,sans-Serif" font-size="10.00">FatVolume::ls</text>
</a>
</g>
</g>
<!-- Node16&#45;&gt;Node17 -->
<g id="edge16_Node000016_Node000017" class="edge">
<title>Node16&#45;&gt;Node17</title>
<g id="a_edge16_Node000016_Node000017"><a xlink:title=" ">
<path fill="none" stroke="#63b8ff" d="M317.66,-31.86C289,-34.95 250.68,-39.09 222.07,-42.17"/>
<polygon fill="#63b8ff" stroke="#63b8ff" points="318.18,-35.32 327.74,-30.77 317.43,-28.36 318.18,-35.32"/>
</a>
</g>
</g>
<!-- Node18 -->
<g id="Node000018" class="node">
<title>Node18</title>
<g id="a_Node000018"><a xlink:href="../../d3/dd5/classFatVolume_ae40964f357cfff4208812344a0e6f26f.xhtml#ae40964f357cfff4208812344a0e6f26f" target="_top" xlink:title=" ">
<polygon fill="white" stroke="#666666" points="222,-19 140,-19 140,0 222,0 222,-19"/>
<text text-anchor="middle" x="181" y="-7" font-family="Helvetica,sans-Serif" font-size="10.00">FatVolume::ls</text>
</a>
</g>
</g>
<!-- Node16&#45;&gt;Node18 -->
<g id="edge17_Node000016_Node000018" class="edge">
<title>Node16&#45;&gt;Node18</title>
<g id="a_edge17_Node000016_Node000018"><a xlink:title=" ">
<path fill="none" stroke="#63b8ff" d="M317.66,-23.37C289,-20.44 250.68,-16.52 222.07,-13.6"/>
<polygon fill="#63b8ff" stroke="#63b8ff" points="317.44,-26.87 327.74,-24.41 318.15,-19.91 317.44,-26.87"/>
</a>
</g>
</g>
<!-- Node19 -->
<g id="Node000019" class="node">
<title>Node19</title>
<g id="a_Node000019"><a xlink:href="../../d3/dd5/classFatVolume_a455ad7b2a5b6b31551dca08087a3c404.xhtml#a455ad7b2a5b6b31551dca08087a3c404" target="_top" xlink:title=" ">
<polygon fill="white" stroke="#666666" points="82,-19 0,-19 0,0 82,0 82,-19"/>
<text text-anchor="middle" x="41" y="-7" font-family="Helvetica,sans-Serif" font-size="10.00">FatVolume::ls</text>
</a>
</g>
</g>
<!-- Node18&#45;&gt;Node19 -->
<g id="edge18_Node000018_Node000019" class="edge">
<title>Node18&#45;&gt;Node19</title>
<g id="a_edge18_Node000018_Node000019"><a xlink:title=" ">
<path fill="none" stroke="#63b8ff" d="M129.66,-9.5C114,-9.5 96.96,-9.5 82.1,-9.5"/>
<polygon fill="#63b8ff" stroke="#63b8ff" points="129.71,-13 139.71,-9.5 129.71,-6 129.71,-13"/>
</a>
</g>
</g>
</g>
</svg>

<g id="navigator" transform="translate(0 0)" fill="#404254">
  <rect fill="#f2f5e9" fill-opacity="0.5" stroke="#606060" stroke-width=".5" x="0" y="0" width="60" height="60"/>
  <use id="zoomplus" xlink:href="#zoomPlus" x="17" y="9" onmousedown="handleZoom(evt,'in')"/>
  <use id="zoomminus" xlink:href="#zoomMin" x="42" y="9" onmousedown="handleZoom(evt,'out')"/>
  <use id="reset" xlink:href="#resetDef" x="30" y="36" onmousedown="handleReset()"/>
   <use id="arrowup" xlink:href="#arrowUp" x="0" y="0" onmousedown="handlePan(0,-1)"/>
  <use id="arrowright" xlink:href="#arrowRight" x="0" y="0" onmousedown="handlePan(1,0)"/>
  <use id="arrowdown" xlink:href="#arrowDown" x="0" y="0" onmousedown="handlePan(0,1)"/>
  <use id="arrowleft" xlink:href="#arrowLeft" x="0" y="0" onmousedown="handlePan(-1,0)"/>
</g>
<svg viewBox="0 0 15 15" width="100%" height="30px" preserveAspectRatio="xMaxYMin meet">
 <g id="arrow_out" transform="scale(0.3 0.3)">
  <a xlink:href="FsDateTime_8h_a088d1d9eeb33fc81eafe27c05e0cc9ce_a088d1d9eeb33fc81eafe27c05e0cc9ce_icgraph_org.svg" target="_base">
   <rect id="button" ry="5" rx="5" y="6" x="6" height="38" width="38"
        fill="#f2f5e9" fill-opacity="0.5" stroke="#606060" stroke-width="1.0"/>
   <path id="arrow"
     d="M 11.500037,31.436501 C 11.940474,20.09759 22.043105,11.32322 32.158766,21.979434 L 37.068811,17.246167 C 37.068811,17.246167 37.088388,32 37.088388,32 L 22.160133,31.978069 C 22.160133,31.978069 26.997745,27.140456 26.997745,27.140456 C 18.528582,18.264221 13.291696,25.230495 11.500037,31.436501 z"
     style="fill:#404040;"/>
  </a>
 </g>
</svg>

<style type='text/css'>
<![CDATA[
[data-mouse-over-selected='false'] { opacity: 0.7; }
[data-mouse-over-selected='true']  { opacity: 1.0; }
]]>
</style>
<script type="application/ecmascript"><![CDATA[
document.addEventListener('DOMContentLoaded', (event) => {
  highlightEdges();
  highlightAdjacentNodes();
});
]]></script>
</svg>
