<?xml version="1.0" encoding="UTF-8" standalone="no"?>
<!DOCTYPE svg PUBLIC "-//W3C//DTD SVG 1.1//EN"
 "http://www.w3.org/Graphics/SVG/1.1/DTD/svg11.dtd">
<!-- Generated by graphviz version 2.43.0 (0)
 -->
<!-- Title: FsBaseFile::available Pages: 1 -->
<svg width="590pt" height="212pt"
 viewBox="0.00 0.00 590.00 212.00" xmlns="http://www.w3.org/2000/svg" xmlns:xlink="http://www.w3.org/1999/xlink">
<g id="graph0" class="graph" transform="scale(1 1) rotate(0) translate(4 208)">
<title>FsBaseFile::available</title>
<!-- Node1 -->
<g id="Node000001" class="node">
<title>Node1</title>
<g id="a_Node000001"><a xlink:title=" ">
<polygon fill="#999999" stroke="#666666" points="120,-102 0,-102 0,-83 120,-83 120,-102"/>
<text text-anchor="middle" x="60" y="-90" font-family="Helvetica,sans-Serif" font-size="10.00">FsBaseFile::available</text>
</a>
</g>
</g>
<!-- Node2 -->
<g id="Node000002" class="node">
<title>Node2</title>
<g id="a_Node000002"><a xlink:href="../../d6/d7f/classExFatFile_a1eae02704b69e903ea174c5d0744debb.xhtml#a1eae02704b69e903ea174c5d0744debb" target="_top" xlink:title=" ">
<polygon fill="white" stroke="#666666" points="267,-139 156,-139 156,-120 267,-120 267,-139"/>
<text text-anchor="middle" x="211.5" y="-127" font-family="Helvetica,sans-Serif" font-size="10.00">ExFatFile::available</text>
</a>
</g>
</g>
<!-- Node1&#45;&gt;Node2 -->
<g id="edge1_Node000001_Node000002" class="edge">
<title>Node1&#45;&gt;Node2</title>
<g id="a_edge1_Node000001_Node000002"><a xlink:title=" ">
<path fill="none" stroke="#63b8ff" d="M99.5,-102.03C118.52,-106.74 141.67,-112.47 161.9,-117.47"/>
<polygon fill="#63b8ff" stroke="#63b8ff" points="161.32,-120.93 171.87,-119.94 163,-114.14 161.32,-120.93"/>
</a>
</g>
</g>
<!-- Node7 -->
<g id="Node000007" class="node">
<title>Node7</title>
<g id="a_Node000007"><a xlink:href="../../d3/db4/classFatFile_a7b3cb9982c0e8e6e627f28d8ee552446.xhtml#a7b3cb9982c0e8e6e627f28d8ee552446" target="_top" xlink:title=" ">
<polygon fill="white" stroke="#666666" points="261,-84 162,-84 162,-65 261,-65 261,-84"/>
<text text-anchor="middle" x="211.5" y="-72" font-family="Helvetica,sans-Serif" font-size="10.00">FatFile::available</text>
</a>
</g>
</g>
<!-- Node1&#45;&gt;Node7 -->
<g id="edge6_Node000001_Node000007" class="edge">
<title>Node1&#45;&gt;Node7</title>
<g id="a_edge6_Node000001_Node000007"><a xlink:title=" ">
<path fill="none" stroke="#63b8ff" d="M120.09,-85.39C130.49,-84.13 141.32,-82.83 151.72,-81.58"/>
<polygon fill="#63b8ff" stroke="#63b8ff" points="152.43,-85.02 161.94,-80.35 151.6,-78.07 152.43,-85.02"/>
</a>
</g>
</g>
<!-- Node3 -->
<g id="Node000003" class="node">
<title>Node3</title>
<g id="a_Node000003"><a xlink:href="../../d6/d7f/classExFatFile_adcf47e15b819fe2d6faac2a027ab30f5.xhtml#adcf47e15b819fe2d6faac2a027ab30f5" target="_top" xlink:title=" ">
<polygon fill="white" stroke="#666666" points="426,-148 303,-148 303,-129 426,-129 426,-148"/>
<text text-anchor="middle" x="364.5" y="-136" font-family="Helvetica,sans-Serif" font-size="10.00">ExFatFile::available64</text>
</a>
</g>
</g>
<!-- Node2&#45;&gt;Node3 -->
<g id="edge2_Node000002_Node000003" class="edge">
<title>Node2&#45;&gt;Node3</title>
<g id="a_edge2_Node000002_Node000003"><a xlink:title=" ">
<path fill="none" stroke="#63b8ff" d="M267.01,-132.75C275.39,-133.25 284.15,-133.77 292.82,-134.29"/>
<polygon fill="#63b8ff" stroke="#63b8ff" points="292.73,-137.79 302.93,-134.89 293.15,-130.8 292.73,-137.79"/>
</a>
</g>
</g>
<!-- Node4 -->
<g id="Node000004" class="node">
<title>Node4</title>
<g id="a_Node000004"><a xlink:href="../../d6/d7f/classExFatFile_ab49396aad3f6500aa19f75490dc26719.xhtml#ab49396aad3f6500aa19f75490dc26719" target="_top" xlink:title=" ">
<polygon fill="white" stroke="#666666" points="582,-204 462,-204 462,-185 582,-185 582,-204"/>
<text text-anchor="middle" x="522" y="-192" font-family="Helvetica,sans-Serif" font-size="10.00">ExFatFile::curPosition</text>
</a>
</g>
</g>
<!-- Node3&#45;&gt;Node4 -->
<g id="edge3_Node000003_Node000004" class="edge">
<title>Node3&#45;&gt;Node4</title>
<g id="a_edge3_Node000003_Node000004"><a xlink:title=" ">
<path fill="none" stroke="#63b8ff" d="M388.32,-148.07C407.75,-156.09 436.5,-167.6 462,-176.5 467.25,-178.33 472.79,-180.16 478.29,-181.91"/>
<polygon fill="#63b8ff" stroke="#63b8ff" points="477.49,-185.33 488.08,-184.96 479.58,-178.64 477.49,-185.33"/>
</a>
</g>
</g>
<!-- Node5 -->
<g id="Node000005" class="node">
<title>Node5</title>
<g id="a_Node000005"><a xlink:href="../../d6/d7f/classExFatFile_a969337d7b3f94d97ff632629e882e8f6.xhtml#a969337d7b3f94d97ff632629e882e8f6" target="_top" xlink:title=" ">
<polygon fill="white" stroke="#666666" points="572.5,-167 471.5,-167 471.5,-148 572.5,-148 572.5,-167"/>
<text text-anchor="middle" x="522" y="-155" font-family="Helvetica,sans-Serif" font-size="10.00">ExFatFile::fileSize</text>
</a>
</g>
</g>
<!-- Node3&#45;&gt;Node5 -->
<g id="edge4_Node000003_Node000005" class="edge">
<title>Node3&#45;&gt;Node5</title>
<g id="a_edge4_Node000003_Node000005"><a xlink:title=" ">
<path fill="none" stroke="#63b8ff" d="M426.07,-145.9C437.67,-147.32 449.82,-148.8 461.4,-150.22"/>
<polygon fill="#63b8ff" stroke="#63b8ff" points="461.05,-153.7 471.4,-151.44 461.9,-146.75 461.05,-153.7"/>
</a>
</g>
</g>
<!-- Node6 -->
<g id="Node000006" class="node">
<title>Node6</title>
<g id="a_Node000006"><a xlink:href="../../d6/d7f/classExFatFile_af601285f95db8398c140b3927cf9111c.xhtml#af601285f95db8398c140b3927cf9111c" target="_top" xlink:title=" ">
<polygon fill="white" stroke="#666666" points="568,-130 476,-130 476,-111 568,-111 568,-130"/>
<text text-anchor="middle" x="522" y="-118" font-family="Helvetica,sans-Serif" font-size="10.00">ExFatFile::isFile</text>
</a>
</g>
</g>
<!-- Node3&#45;&gt;Node6 -->
<g id="edge5_Node000003_Node000006" class="edge">
<title>Node3&#45;&gt;Node6</title>
<g id="a_edge5_Node000003_Node000006"><a xlink:title=" ">
<path fill="none" stroke="#63b8ff" d="M426.07,-131.49C439.12,-129.98 452.85,-128.39 465.7,-126.9"/>
<polygon fill="#63b8ff" stroke="#63b8ff" points="466.24,-130.36 475.77,-125.74 465.44,-123.41 466.24,-130.36"/>
</a>
</g>
</g>
<!-- Node8 -->
<g id="Node000008" class="node">
<title>Node8</title>
<g id="a_Node000008"><a xlink:href="../../d3/db4/classFatFile_ac304e37e45f3871395780021bf84cea1.xhtml#ac304e37e45f3871395780021bf84cea1" target="_top" xlink:title=" ">
<polygon fill="white" stroke="#666666" points="420,-70 309,-70 309,-51 420,-51 420,-70"/>
<text text-anchor="middle" x="364.5" y="-58" font-family="Helvetica,sans-Serif" font-size="10.00">FatFile::available32</text>
</a>
</g>
</g>
<!-- Node7&#45;&gt;Node8 -->
<g id="edge7_Node000007_Node000008" class="edge">
<title>Node7&#45;&gt;Node8</title>
<g id="a_edge7_Node000007_Node000008"><a xlink:title=" ">
<path fill="none" stroke="#63b8ff" d="M261.11,-69.99C273.15,-68.88 286.24,-67.66 298.91,-66.49"/>
<polygon fill="#63b8ff" stroke="#63b8ff" points="299.32,-69.97 308.96,-65.56 298.68,-63 299.32,-69.97"/>
</a>
</g>
</g>
<!-- Node9 -->
<g id="Node000009" class="node">
<title>Node9</title>
<g id="a_Node000009"><a xlink:href="../../d3/db4/classFatFile_a97e0620949f97e9b9c91ed1094d728aa.xhtml#a97e0620949f97e9b9c91ed1094d728aa" target="_top" xlink:title=" ">
<polygon fill="white" stroke="#666666" points="576,-93 468,-93 468,-74 576,-74 576,-93"/>
<text text-anchor="middle" x="522" y="-81" font-family="Helvetica,sans-Serif" font-size="10.00">FatFile::curPosition</text>
</a>
</g>
</g>
<!-- Node8&#45;&gt;Node9 -->
<g id="edge8_Node000008_Node000009" class="edge">
<title>Node8&#45;&gt;Node9</title>
<g id="a_edge8_Node000008_Node000009"><a xlink:title=" ">
<path fill="none" stroke="#63b8ff" d="M420.32,-68.61C432.41,-70.4 445.32,-72.31 457.71,-74.14"/>
<polygon fill="#63b8ff" stroke="#63b8ff" points="457.57,-77.66 467.98,-75.66 458.6,-70.73 457.57,-77.66"/>
</a>
</g>
</g>
<!-- Node10 -->
<g id="Node000010" class="node">
<title>Node10</title>
<g id="a_Node000010"><a xlink:href="../../d3/db4/classFatFile_a874940574b9c99e763526465adf8dc28.xhtml#a874940574b9c99e763526465adf8dc28" target="_top" xlink:title=" ">
<polygon fill="white" stroke="#666666" points="566.5,-56 477.5,-56 477.5,-37 566.5,-37 566.5,-56"/>
<text text-anchor="middle" x="522" y="-44" font-family="Helvetica,sans-Serif" font-size="10.00">FatFile::fileSize</text>
</a>
</g>
</g>
<!-- Node8&#45;&gt;Node10 -->
<g id="edge9_Node000008_Node000010" class="edge">
<title>Node8&#45;&gt;Node10</title>
<g id="a_edge9_Node000008_Node000010"><a xlink:title=" ">
<path fill="none" stroke="#63b8ff" d="M420.32,-55.56C435.53,-54.2 452.02,-52.71 467.16,-51.35"/>
<polygon fill="#63b8ff" stroke="#63b8ff" points="467.76,-54.81 477.4,-50.43 467.13,-47.84 467.76,-54.81"/>
</a>
</g>
</g>
<!-- Node11 -->
<g id="Node000011" class="node">
<title>Node11</title>
<g id="a_Node000011"><a xlink:href="../../d3/db4/classFatFile_acc5a87da1a5c8cb9758bfeaa7ae47b57.xhtml#acc5a87da1a5c8cb9758bfeaa7ae47b57" target="_top" xlink:title=" ">
<polygon fill="white" stroke="#666666" points="562,-19 482,-19 482,0 562,0 562,-19"/>
<text text-anchor="middle" x="522" y="-7" font-family="Helvetica,sans-Serif" font-size="10.00">FatFile::isFile</text>
</a>
</g>
</g>
<!-- Node8&#45;&gt;Node11 -->
<g id="edge10_Node000008_Node000011" class="edge">
<title>Node8&#45;&gt;Node11</title>
<g id="a_edge10_Node000008_Node000011"><a xlink:title=" ">
<path fill="none" stroke="#63b8ff" d="M394.19,-50.91C413.37,-44.52 439.18,-35.96 462,-28.5 468.24,-26.46 474.86,-24.31 481.32,-22.23"/>
<polygon fill="#63b8ff" stroke="#63b8ff" points="482.83,-25.42 491.27,-19.02 480.68,-18.76 482.83,-25.42"/>
</a>
</g>
</g>
</g>
</svg>
