<?xml version="1.0" encoding="UTF-8" standalone="no"?>
<!DOCTYPE svg PUBLIC "-//W3C//DTD SVG 1.1//EN"
 "http://www.w3.org/Graphics/SVG/1.1/DTD/svg11.dtd">
<!-- Generated by graphviz version 2.43.0 (0)
 -->
<!-- Title: FsBaseFile::close Pages: 1 -->
<!--zoomable 323 -->

<svg id="main" version="1.1" xmlns="http://www.w3.org/2000/svg" xmlns:xlink="http://www.w3.org/1999/xlink" xml:space="preserve" onload="init(evt)">
<style type="text/css"><![CDATA[
.node, .edge {opacity: 0.7;}
.node.selected, .edge.selected {opacity: 1;}
.edge:hover path { stroke: red; }
.edge:hover polygon { stroke: red; fill: red; }
]]></style>

<defs>
  <circle id="rim" cx="0" cy="0" r="7"/>
  <circle id="rim2" cx="0" cy="0" r="3.5"/>
  <g id="zoomPlus">
    <use xlink:href="#rim" fill="#404040"><set attributeName="fill" to="#808080" begin="zoomplus.mouseover" end="zoomplus.mouseout"/></use>
    <path d="M-4,0h8M0,-4v8" fill="none" stroke="white" stroke-width="1.5" pointer-events="none"/>
  </g>
  <g id="zoomMin">
    <use xlink:href="#rim" fill="#404040"><set attributeName="fill" to="#808080" begin="zoomminus.mouseover" end="zoomminus.mouseout"/></use>
    <path d="M-4,0h8" fill="none" stroke="white" stroke-width="1.5" pointer-events="none"/>
  </g>
  <g id="arrowUp" transform="translate(30 24)">
    <use xlink:href="#rim"/>
    <path pointer-events="none" fill="none" stroke="white" stroke-width="1.5" d="M0,-3.0v7 M-2.5,-0.5L0,-3.0L2.5,-0.5"/>
  </g>
  <g id="arrowRight" transform="rotate(90) translate(36 -43)">
    <use xlink:href="#rim"/>
    <path pointer-events="none" fill="none" stroke="white" stroke-width="1.5" d="M0,-3.0v7 M-2.5,-0.5L0,-3.0L2.5,-0.5"/>
  </g>
  <g id="arrowDown" transform="rotate(180) translate(-30 -48)">
    <use xlink:href="#rim"/>
    <path pointer-events="none" fill="none" stroke="white" stroke-width="1.5" d="M0,-3.0v7 M-2.5,-0.5L0,-3.0L2.5,-0.5"/>
  </g>
  <g id="arrowLeft" transform="rotate(270) translate(-36 17)">
    <use xlink:href="#rim"/>
    <path pointer-events="none" fill="none" stroke="white" stroke-width="1.5" d="M0,-3.0v7 M-2.5,-0.5L0,-3.0L2.5,-0.5"/>
  </g>
  <g id="resetDef">
    <use xlink:href="#rim2" fill="#404040"><set attributeName="fill" to="#808080" begin="reset.mouseover" end="reset.mouseout"/></use>
  </g>
</defs>
<script type="application/ecmascript">
var viewWidth = 576;
var viewHeight = 323;
var sectionId = 'dynsection-10';
</script>
<script type="application/ecmascript" xlink:href="../../svg.min.js"/>
<svg id="graph" class="graph">
<g id="viewport">
<title>FsBaseFile::close</title>
<!-- Node1 -->
<g id="Node000001" class="node">
<title>Node1</title>
<g id="a_Node000001"><a xlink:title=" ">
<polygon fill="#999999" stroke="#666666" points="568,-167 467,-167 467,-148 568,-148 568,-167"/>
<text text-anchor="middle" x="517.5" y="-155" font-family="Helvetica,sans-Serif" font-size="10.00">FsBaseFile::close</text>
</a>
</g>
</g>
<!-- Node2 -->
<g id="Node000002" class="node">
<title>Node2</title>
<g id="a_Node000002"><a xlink:href="../../d0/db5/classFsBaseFile.xhtml#a8b7aa7f2c63882e483336dfe12ef6800" target="_top" xlink:title=" ">
<polygon fill="white" stroke="#666666" points="415,-315 311,-315 311,-296 415,-296 415,-315"/>
<text text-anchor="middle" x="363" y="-303" font-family="Helvetica,sans-Serif" font-size="10.00">FsBaseFile::mkdir</text>
</a>
</g>
</g>
<!-- Node1&#45;&gt;Node2 -->
<g id="edge1_Node000001_Node000002" class="edge">
<title>Node1&#45;&gt;Node2</title>
<g id="a_edge1_Node000001_Node000002"><a xlink:title=" ">
<path fill="none" stroke="#63b8ff" d="M509.14,-176.69C497.19,-205.28 470.8,-258.74 431,-287.5 426.22,-290.96 420.81,-293.75 415.19,-296.01"/>
<polygon fill="#63b8ff" stroke="#63b8ff" points="512.53,-177.64 513.02,-167.06 506.04,-175.03 512.53,-177.64"/>
</a>
</g>
</g>
<!-- Node3 -->
<g id="Node000003" class="node">
<title>Node3</title>
<g id="a_Node000003"><a xlink:href="../../d0/db5/classFsBaseFile.xhtml#aa767859d4a4b4716ebbc4ea42a6d74df" target="_top" xlink:title=" ">
<polygon fill="white" stroke="#666666" points="412.5,-278 313.5,-278 313.5,-259 412.5,-259 412.5,-278"/>
<text text-anchor="middle" x="363" y="-266" font-family="Helvetica,sans-Serif" font-size="10.00">FsBaseFile::open</text>
</a>
</g>
</g>
<!-- Node1&#45;&gt;Node3 -->
<g id="edge2_Node000001_Node000003" class="edge">
<title>Node1&#45;&gt;Node3</title>
<g id="a_edge2_Node000001_Node000003"><a xlink:title=" ">
<path fill="none" stroke="#63b8ff" d="M504.8,-175.44C490.08,-196.56 462.86,-231.19 431,-250.5 425.34,-253.93 419.01,-256.72 412.57,-258.99"/>
<polygon fill="#63b8ff" stroke="#63b8ff" points="507.77,-177.29 510.48,-167.05 501.97,-173.37 507.77,-177.29"/>
</a>
</g>
</g>
<!-- Node8 -->
<g id="Node000008" class="node">
<title>Node8</title>
<g id="a_Node000008"><a xlink:href="../../d0/db5/classFsBaseFile.xhtml#a4743d118f085f6a13692d12bdd3c4556" target="_top" xlink:title=" ">
<polygon fill="white" stroke="#666666" points="412.5,-241 313.5,-241 313.5,-222 412.5,-222 412.5,-241"/>
<text text-anchor="middle" x="363" y="-229" font-family="Helvetica,sans-Serif" font-size="10.00">FsBaseFile::open</text>
</a>
</g>
</g>
<!-- Node1&#45;&gt;Node8 -->
<g id="edge7_Node000001_Node000008" class="edge">
<title>Node1&#45;&gt;Node8</title>
<g id="a_edge7_Node000001_Node000008"><a xlink:title=" ">
<path fill="none" stroke="#63b8ff" d="M496.08,-173.56C479.4,-186 454.77,-202.85 431,-213.5 423.64,-216.8 415.54,-219.6 407.59,-221.95"/>
<polygon fill="#63b8ff" stroke="#63b8ff" points="498.64,-176.01 504.48,-167.17 494.4,-170.44 498.64,-176.01"/>
</a>
</g>
</g>
<!-- Node9 -->
<g id="Node000009" class="node">
<title>Node9</title>
<g id="a_Node000009"><a xlink:href="../../d0/db5/classFsBaseFile.xhtml#a0186e56b21fd584b02db4b763df05f64" target="_top" xlink:title=" ">
<polygon fill="white" stroke="#666666" points="412.5,-204 313.5,-204 313.5,-185 412.5,-185 412.5,-204"/>
<text text-anchor="middle" x="363" y="-192" font-family="Helvetica,sans-Serif" font-size="10.00">FsBaseFile::open</text>
</a>
</g>
</g>
<!-- Node1&#45;&gt;Node9 -->
<g id="edge8_Node000001_Node000009" class="edge">
<title>Node1&#45;&gt;Node9</title>
<g id="a_edge8_Node000001_Node000009"><a xlink:title=" ">
<path fill="none" stroke="#63b8ff" d="M467.35,-169.43C446.66,-174.44 422.91,-180.21 403.4,-184.94"/>
<polygon fill="#63b8ff" stroke="#63b8ff" points="468.33,-172.79 477.23,-167.03 466.68,-165.98 468.33,-172.79"/>
</a>
</g>
</g>
<!-- Node10 -->
<g id="Node000010" class="node">
<title>Node10</title>
<g id="a_Node000010"><a xlink:href="../../d0/db5/classFsBaseFile.xhtml#acdb7fd29ecf8db85d790e6b4acf24c9d" target="_top" xlink:title=" ">
<polygon fill="white" stroke="#666666" points="423,-167 303,-167 303,-148 423,-148 423,-167"/>
<text text-anchor="middle" x="363" y="-155" font-family="Helvetica,sans-Serif" font-size="10.00">FsBaseFile::openCwd</text>
</a>
</g>
</g>
<!-- Node1&#45;&gt;Node10 -->
<g id="edge9_Node000001_Node000010" class="edge">
<title>Node1&#45;&gt;Node10</title>
<g id="a_edge9_Node000001_Node000010"><a xlink:title=" ">
<path fill="none" stroke="#63b8ff" d="M456.94,-157.5C445.82,-157.5 434.21,-157.5 423.1,-157.5"/>
<polygon fill="#63b8ff" stroke="#63b8ff" points="456.99,-161 466.99,-157.5 456.99,-154 456.99,-161"/>
</a>
</g>
</g>
<!-- Node12 -->
<g id="Node000012" class="node">
<title>Node12</title>
<g id="a_Node000012"><a xlink:href="../../d0/db5/classFsBaseFile.xhtml#acb9b1075f4db76fa7e0521c9aff9c3df" target="_top" xlink:title=" ">
<polygon fill="white" stroke="#666666" points="424,-130 302,-130 302,-111 424,-111 424,-130"/>
<text text-anchor="middle" x="363" y="-118" font-family="Helvetica,sans-Serif" font-size="10.00">FsBaseFile::openNext</text>
</a>
</g>
</g>
<!-- Node1&#45;&gt;Node12 -->
<g id="edge11_Node000001_Node000012" class="edge">
<title>Node1&#45;&gt;Node12</title>
<g id="a_edge11_Node000001_Node000012"><a xlink:title=" ">
<path fill="none" stroke="#63b8ff" d="M467.35,-145.57C446.66,-140.56 422.91,-134.79 403.4,-130.06"/>
<polygon fill="#63b8ff" stroke="#63b8ff" points="466.68,-149.02 477.23,-147.97 468.33,-142.21 466.68,-149.02"/>
</a>
</g>
</g>
<!-- Node14 -->
<g id="Node000014" class="node">
<title>Node14</title>
<g id="a_Node000014"><a xlink:href="../../d0/db5/classFsBaseFile.xhtml#a0b4574665073272dd811224df9f0e23c" target="_top" xlink:title=" ">
<polygon fill="white" stroke="#666666" points="424,-93 302,-93 302,-74 424,-74 424,-93"/>
<text text-anchor="middle" x="363" y="-81" font-family="Helvetica,sans-Serif" font-size="10.00">FsBaseFile::openRoot</text>
</a>
</g>
</g>
<!-- Node1&#45;&gt;Node14 -->
<g id="edge13_Node000001_Node000014" class="edge">
<title>Node1&#45;&gt;Node14</title>
<g id="a_edge13_Node000001_Node000014"><a xlink:title=" ">
<path fill="none" stroke="#63b8ff" d="M496.08,-141.44C479.4,-129 454.77,-112.15 431,-101.5 423.64,-98.2 415.54,-95.4 407.59,-93.05"/>
<polygon fill="#63b8ff" stroke="#63b8ff" points="494.4,-144.56 504.48,-147.83 498.64,-138.99 494.4,-144.56"/>
</a>
</g>
</g>
<!-- Node15 -->
<g id="Node000015" class="node">
<title>Node15</title>
<g id="a_Node000015"><a xlink:href="../../d0/db5/classFsBaseFile.xhtml#ae4f6d168072bb4f2a61976f621659d20" target="_top" xlink:title=" ">
<polygon fill="white" stroke="#666666" points="425.5,-56 300.5,-56 300.5,-37 425.5,-37 425.5,-56"/>
<text text-anchor="middle" x="363" y="-44" font-family="Helvetica,sans-Serif" font-size="10.00">FsBaseFile::operator=</text>
</a>
</g>
</g>
<!-- Node1&#45;&gt;Node15 -->
<g id="edge14_Node000001_Node000015" class="edge">
<title>Node1&#45;&gt;Node15</title>
<g id="a_edge14_Node000001_Node000015"><a xlink:title=" ">
<path fill="none" stroke="#63b8ff" d="M504.8,-139.56C490.08,-118.44 462.86,-83.81 431,-64.5 425.34,-61.07 419.01,-58.28 412.57,-56.01"/>
<polygon fill="#63b8ff" stroke="#63b8ff" points="501.97,-141.63 510.48,-147.95 507.77,-137.71 501.97,-141.63"/>
</a>
</g>
</g>
<!-- Node16 -->
<g id="Node000016" class="node">
<title>Node16</title>
<g id="a_Node000016"><a xlink:href="../../d0/db5/classFsBaseFile.xhtml#ab148c0eb86197666a251a2f0a15f2a02" target="_top" xlink:title=" ">
<polygon fill="white" stroke="#666666" points="431,-19 295,-19 295,0 431,0 431,-19"/>
<text text-anchor="middle" x="363" y="-7" font-family="Helvetica,sans-Serif" font-size="10.00">FsBaseFile::~FsBaseFile</text>
</a>
</g>
</g>
<!-- Node1&#45;&gt;Node16 -->
<g id="edge15_Node000001_Node000016" class="edge">
<title>Node1&#45;&gt;Node16</title>
<g id="a_edge15_Node000001_Node000016"><a xlink:title=" ">
<path fill="none" stroke="#63b8ff" d="M509.14,-138.31C497.19,-109.72 470.8,-56.26 431,-27.5 426.31,-24.11 421.03,-21.36 415.54,-19.13"/>
<polygon fill="#63b8ff" stroke="#63b8ff" points="506.04,-139.97 513.02,-147.94 512.53,-137.36 506.04,-139.97"/>
</a>
</g>
</g>
<!-- Node4 -->
<g id="Node000004" class="node">
<title>Node4</title>
<g id="a_Node000004"><a xlink:href="../../d0/db5/classFsBaseFile.xhtml#a6034c6dfce320e2869901890398831b4" target="_top" xlink:title=" ">
<polygon fill="white" stroke="#666666" points="259,-315 131,-315 131,-296 259,-296 259,-315"/>
<text text-anchor="middle" x="195" y="-303" font-family="Helvetica,sans-Serif" font-size="10.00">FsBaseFile::FsBaseFile</text>
</a>
</g>
</g>
<!-- Node3&#45;&gt;Node4 -->
<g id="edge3_Node000003_Node000004" class="edge">
<title>Node3&#45;&gt;Node4</title>
<g id="a_edge3_Node000003_Node000004"><a xlink:title=" ">
<path fill="none" stroke="#63b8ff" d="M309.42,-280.22C286.69,-285.29 260.42,-291.14 238.89,-295.94"/>
<polygon fill="#63b8ff" stroke="#63b8ff" points="310.25,-283.62 319.25,-278.03 308.73,-276.79 310.25,-283.62"/>
</a>
</g>
</g>
<!-- Node5 -->
<g id="Node000005" class="node">
<title>Node5</title>
<g id="a_Node000005"><a xlink:href="../../d4/d27/classFsVolume.xhtml#ab429316ed9e57a52ecfb938aca7dff6c" target="_top" xlink:title=" ">
<polygon fill="white" stroke="#666666" points="234.5,-278 155.5,-278 155.5,-259 234.5,-259 234.5,-278"/>
<text text-anchor="middle" x="195" y="-266" font-family="Helvetica,sans-Serif" font-size="10.00">FsVolume::ls</text>
</a>
</g>
</g>
<!-- Node3&#45;&gt;Node5 -->
<g id="edge4_Node000003_Node000005" class="edge">
<title>Node3&#45;&gt;Node5</title>
<g id="a_edge4_Node000003_Node000005"><a xlink:title=" ">
<path fill="none" stroke="#63b8ff" d="M302.87,-268.5C280.16,-268.5 254.85,-268.5 234.57,-268.5"/>
<polygon fill="#63b8ff" stroke="#63b8ff" points="303.09,-272 313.09,-268.5 303.09,-265 303.09,-272"/>
</a>
</g>
</g>
<!-- Node6 -->
<g id="Node000006" class="node">
<title>Node6</title>
<g id="a_Node000006"><a xlink:href="../../d4/d27/classFsVolume.xhtml#a6d51ed047796f7d382384c60c7bfac75" target="_top" xlink:title=" ">
<polygon fill="white" stroke="#666666" points="242.5,-241 147.5,-241 147.5,-222 242.5,-222 242.5,-241"/>
<text text-anchor="middle" x="195" y="-229" font-family="Helvetica,sans-Serif" font-size="10.00">FsVolume::open</text>
</a>
</g>
</g>
<!-- Node3&#45;&gt;Node6 -->
<g id="edge5_Node000003_Node000006" class="edge">
<title>Node3&#45;&gt;Node6</title>
<g id="a_edge5_Node000003_Node000006"><a xlink:title=" ">
<path fill="none" stroke="#63b8ff" d="M309.42,-256.78C286.69,-251.71 260.42,-245.86 238.89,-241.06"/>
<polygon fill="#63b8ff" stroke="#63b8ff" points="308.73,-260.21 319.25,-258.97 310.25,-253.38 308.73,-260.21"/>
</a>
</g>
</g>
<!-- Node7 -->
<g id="Node000007" class="node">
<title>Node7</title>
<g id="a_Node000007"><a xlink:href="../../d4/d27/classFsVolume.xhtml#ad41f53fd35fa60aa8972ac2036dae4de" target="_top" xlink:title=" ">
<polygon fill="white" stroke="#666666" points="95,-241 0,-241 0,-222 95,-222 95,-241"/>
<text text-anchor="middle" x="47.5" y="-229" font-family="Helvetica,sans-Serif" font-size="10.00">FsVolume::open</text>
</a>
</g>
</g>
<!-- Node6&#45;&gt;Node7 -->
<g id="edge6_Node000006_Node000007" class="edge">
<title>Node6&#45;&gt;Node7</title>
<g id="a_edge6_Node000006_Node000007"><a xlink:title=" ">
<path fill="none" stroke="#63b8ff" d="M136.82,-231.5C123.04,-231.5 108.48,-231.5 95.25,-231.5"/>
<polygon fill="#63b8ff" stroke="#63b8ff" points="137.16,-235 147.16,-231.5 137.16,-228 137.16,-235"/>
</a>
</g>
</g>
<!-- Node11 -->
<g id="Node000011" class="node">
<title>Node11</title>
<g id="a_Node000011"><a xlink:href="../../d0/db5/classFsBaseFile.xhtml#a59568fad94a70ea88e167ac8fb4bd43c" target="_top" xlink:title=" ">
<polygon fill="white" stroke="#666666" points="244.5,-167 145.5,-167 145.5,-148 244.5,-148 244.5,-167"/>
<text text-anchor="middle" x="195" y="-155" font-family="Helvetica,sans-Serif" font-size="10.00">FsBaseFile::open</text>
</a>
</g>
</g>
<!-- Node10&#45;&gt;Node11 -->
<g id="edge10_Node000010_Node000011" class="edge">
<title>Node10&#45;&gt;Node11</title>
<g id="a_edge10_Node000010_Node000011"><a xlink:title=" ">
<path fill="none" stroke="#63b8ff" d="M292.16,-157.5C276.18,-157.5 259.54,-157.5 244.67,-157.5"/>
<polygon fill="#63b8ff" stroke="#63b8ff" points="292.54,-161 302.54,-157.5 292.54,-154 292.54,-161"/>
</a>
</g>
</g>
<!-- Node13 -->
<g id="Node000013" class="node">
<title>Node13</title>
<g id="a_Node000013"><a xlink:href="../../d5/d4f/classFsFile.xhtml#ab2f85961e3831d0d654da862becb7433" target="_top" xlink:title=" ">
<polygon fill="white" stroke="#666666" points="253,-130 137,-130 137,-111 253,-111 253,-130"/>
<text text-anchor="middle" x="195" y="-118" font-family="Helvetica,sans-Serif" font-size="10.00">FsFile::openNextFile</text>
</a>
</g>
</g>
<!-- Node12&#45;&gt;Node13 -->
<g id="edge12_Node000012_Node000013" class="edge">
<title>Node12&#45;&gt;Node13</title>
<g id="a_edge12_Node000012_Node000013"><a xlink:title=" ">
<path fill="none" stroke="#63b8ff" d="M291.43,-120.5C278.62,-120.5 265.4,-120.5 253.04,-120.5"/>
<polygon fill="#63b8ff" stroke="#63b8ff" points="291.6,-124 301.6,-120.5 291.6,-117 291.6,-124"/>
</a>
</g>
</g>
</g>
</svg>

<g id="navigator" transform="translate(0 0)" fill="#404254">
  <rect fill="#f2f5e9" fill-opacity="0.5" stroke="#606060" stroke-width=".5" x="0" y="0" width="60" height="60"/>
  <use id="zoomplus" xlink:href="#zoomPlus" x="17" y="9" onmousedown="handleZoom(evt,'in')"/>
  <use id="zoomminus" xlink:href="#zoomMin" x="42" y="9" onmousedown="handleZoom(evt,'out')"/>
  <use id="reset" xlink:href="#resetDef" x="30" y="36" onmousedown="handleReset()"/>
   <use id="arrowup" xlink:href="#arrowUp" x="0" y="0" onmousedown="handlePan(0,-1)"/>
  <use id="arrowright" xlink:href="#arrowRight" x="0" y="0" onmousedown="handlePan(1,0)"/>
  <use id="arrowdown" xlink:href="#arrowDown" x="0" y="0" onmousedown="handlePan(0,1)"/>
  <use id="arrowleft" xlink:href="#arrowLeft" x="0" y="0" onmousedown="handlePan(-1,0)"/>
</g>
<svg viewBox="0 0 15 15" width="100%" height="30px" preserveAspectRatio="xMaxYMin meet">
 <g id="arrow_out" transform="scale(0.3 0.3)">
  <a xlink:href="classFsBaseFile_aa669c695a839e68e417fb15eebe3de13_icgraph_org.svg" target="_base">
   <rect id="button" ry="5" rx="5" y="6" x="6" height="38" width="38"
        fill="#f2f5e9" fill-opacity="0.5" stroke="#606060" stroke-width="1.0"/>
   <path id="arrow"
     d="M 11.500037,31.436501 C 11.940474,20.09759 22.043105,11.32322 32.158766,21.979434 L 37.068811,17.246167 C 37.068811,17.246167 37.088388,32 37.088388,32 L 22.160133,31.978069 C 22.160133,31.978069 26.997745,27.140456 26.997745,27.140456 C 18.528582,18.264221 13.291696,25.230495 11.500037,31.436501 z"
     style="fill:#404040;"/>
  </a>
 </g>
</svg>

<style type='text/css'>
<![CDATA[
[data-mouse-over-selected='false'] { opacity: 0.7; }
[data-mouse-over-selected='true']  { opacity: 1.0; }
]]>
</style>
<script type="application/ecmascript"><![CDATA[
document.addEventListener('DOMContentLoaded', (event) => {
  highlightEdges();
  highlightAdjacentNodes();
});
]]></script>
</svg>
