<?xml version="1.0" encoding="UTF-8" standalone="no"?>
<!DOCTYPE svg PUBLIC "-//W3C//DTD SVG 1.1//EN"
 "http://www.w3.org/Graphics/SVG/1.1/DTD/svg11.dtd">
<!-- Generated by graphviz version 2.43.0 (0)
 -->
<!-- Title: FsBaseFile::available64 Pages: 1 -->
<svg width="455pt" height="212pt"
 viewBox="0.00 0.00 455.00 212.00" xmlns="http://www.w3.org/2000/svg" xmlns:xlink="http://www.w3.org/1999/xlink">

<svg id="main" version="1.1" xmlns="http://www.w3.org/2000/svg" xmlns:xlink="http://www.w3.org/1999/xlink" xml:space="preserve" onload="init(evt)">
<style type="text/css"><![CDATA[
.node, .edge {opacity: 0.7;}
.node.selected, .edge.selected {opacity: 1;}
.edge:hover path { stroke: red; }
.edge:hover polygon { stroke: red; fill: red; }
]]></style>
<script type="application/ecmascript" xlink:href="../../svg.min.js"/>
<svg id="graph" class="graph">
<g id="graph0" class="graph" transform="scale(1 1) rotate(0) translate(4 208)">
<title>FsBaseFile::available64</title>
<!-- Node1 -->
<g id="Node000001" class="node">
<title>Node1</title>
<g id="a_Node000001"><a xlink:title=" ">
<polygon fill="#999999" stroke="#666666" points="132,-102 0,-102 0,-83 132,-83 132,-102"/>
<text text-anchor="middle" x="66" y="-90" font-family="Helvetica,sans-Serif" font-size="10.00">FsBaseFile::available64</text>
</a>
</g>
</g>
<!-- Node2 -->
<g id="Node000002" class="node">
<title>Node2</title>
<g id="a_Node000002"><a xlink:href="../../d3/db4/classFatFile_ac304e37e45f3871395780021bf84cea1.xhtml#ac304e37e45f3871395780021bf84cea1" target="_top" xlink:title=" ">
<polygon fill="white" stroke="#666666" points="285,-139 174,-139 174,-120 285,-120 285,-139"/>
<text text-anchor="middle" x="229.5" y="-127" font-family="Helvetica,sans-Serif" font-size="10.00">FatFile::available32</text>
</a>
</g>
</g>
<!-- Node1&#45;&gt;Node2 -->
<g id="edge1_Node000001_Node000002" class="edge">
<title>Node1&#45;&gt;Node2</title>
<g id="a_edge1_Node000001_Node000002"><a xlink:title=" ">
<path fill="none" stroke="#63b8ff" d="M108.59,-102.03C129.42,-106.8 154.84,-112.62 176.9,-117.68"/>
<polygon fill="#63b8ff" stroke="#63b8ff" points="176.24,-121.12 186.77,-119.94 177.8,-114.29 176.24,-121.12"/>
</a>
</g>
</g>
<!-- Node6 -->
<g id="Node000006" class="node">
<title>Node6</title>
<g id="a_Node000006"><a xlink:href="../../d6/d7f/classExFatFile_adcf47e15b819fe2d6faac2a027ab30f5.xhtml#adcf47e15b819fe2d6faac2a027ab30f5" target="_top" xlink:title=" ">
<polygon fill="white" stroke="#666666" points="291,-84 168,-84 168,-65 291,-65 291,-84"/>
<text text-anchor="middle" x="229.5" y="-72" font-family="Helvetica,sans-Serif" font-size="10.00">ExFatFile::available64</text>
</a>
</g>
</g>
<!-- Node1&#45;&gt;Node6 -->
<g id="edge5_Node000001_Node000006" class="edge">
<title>Node1&#45;&gt;Node6</title>
<g id="a_edge5_Node000001_Node000006"><a xlink:title=" ">
<path fill="none" stroke="#63b8ff" d="M132.22,-85.23C140.72,-84.28 149.45,-83.31 158.03,-82.35"/>
<polygon fill="#63b8ff" stroke="#63b8ff" points="158.45,-85.83 168,-81.24 157.67,-78.87 158.45,-85.83"/>
</a>
</g>
</g>
<!-- Node3 -->
<g id="Node000003" class="node">
<title>Node3</title>
<g id="a_Node000003"><a xlink:href="../../d3/db4/classFatFile_a97e0620949f97e9b9c91ed1094d728aa.xhtml#a97e0620949f97e9b9c91ed1094d728aa" target="_top" xlink:title=" ">
<polygon fill="white" stroke="#666666" points="441,-204 333,-204 333,-185 441,-185 441,-204"/>
<text text-anchor="middle" x="387" y="-192" font-family="Helvetica,sans-Serif" font-size="10.00">FatFile::curPosition</text>
</a>
</g>
</g>
<!-- Node2&#45;&gt;Node3 -->
<g id="edge2_Node000002_Node000003" class="edge">
<title>Node2&#45;&gt;Node3</title>
<g id="a_edge2_Node000002_Node000003"><a xlink:title=" ">
<path fill="none" stroke="#63b8ff" d="M247.91,-139.01C266.95,-149.17 298.56,-165.32 327,-176.5 331.74,-178.36 336.75,-180.15 341.77,-181.84"/>
<polygon fill="#63b8ff" stroke="#63b8ff" points="340.78,-185.19 351.37,-184.93 342.92,-178.53 340.78,-185.19"/>
</a>
</g>
</g>
<!-- Node4 -->
<g id="Node000004" class="node">
<title>Node4</title>
<g id="a_Node000004"><a xlink:href="../../d3/db4/classFatFile_a874940574b9c99e763526465adf8dc28.xhtml#a874940574b9c99e763526465adf8dc28" target="_top" xlink:title=" ">
<polygon fill="white" stroke="#666666" points="431.5,-167 342.5,-167 342.5,-148 431.5,-148 431.5,-167"/>
<text text-anchor="middle" x="387" y="-155" font-family="Helvetica,sans-Serif" font-size="10.00">FatFile::fileSize</text>
</a>
</g>
</g>
<!-- Node2&#45;&gt;Node4 -->
<g id="edge3_Node000002_Node000004" class="edge">
<title>Node2&#45;&gt;Node4</title>
<g id="a_edge3_Node000002_Node000004"><a xlink:title=" ">
<path fill="none" stroke="#63b8ff" d="M283.58,-139.06C299.31,-141.89 316.55,-144.99 332.32,-147.83"/>
<polygon fill="#63b8ff" stroke="#63b8ff" points="331.98,-151.33 342.44,-149.66 333.22,-144.44 331.98,-151.33"/>
</a>
</g>
</g>
<!-- Node5 -->
<g id="Node000005" class="node">
<title>Node5</title>
<g id="a_Node000005"><a xlink:href="../../d3/db4/classFatFile_acc5a87da1a5c8cb9758bfeaa7ae47b57.xhtml#acc5a87da1a5c8cb9758bfeaa7ae47b57" target="_top" xlink:title=" ">
<polygon fill="white" stroke="#666666" points="427,-130 347,-130 347,-111 427,-111 427,-130"/>
<text text-anchor="middle" x="387" y="-118" font-family="Helvetica,sans-Serif" font-size="10.00">FatFile::isFile</text>
</a>
</g>
</g>
<!-- Node2&#45;&gt;Node5 -->
<g id="edge4_Node000002_Node000005" class="edge">
<title>Node2&#45;&gt;Node5</title>
<g id="a_edge4_Node000002_Node000005"><a xlink:title=" ">
<path fill="none" stroke="#63b8ff" d="M285.32,-126.33C301.96,-125.36 320.14,-124.31 336.42,-123.37"/>
<polygon fill="#63b8ff" stroke="#63b8ff" points="337.02,-126.84 346.8,-122.77 336.62,-119.85 337.02,-126.84"/>
</a>
</g>
</g>
<!-- Node7 -->
<g id="Node000007" class="node">
<title>Node7</title>
<g id="a_Node000007"><a xlink:href="../../d6/d7f/classExFatFile_ab49396aad3f6500aa19f75490dc26719.xhtml#ab49396aad3f6500aa19f75490dc26719" target="_top" xlink:title=" ">
<polygon fill="white" stroke="#666666" points="447,-93 327,-93 327,-74 447,-74 447,-93"/>
<text text-anchor="middle" x="387" y="-81" font-family="Helvetica,sans-Serif" font-size="10.00">ExFatFile::curPosition</text>
</a>
</g>
</g>
<!-- Node6&#45;&gt;Node7 -->
<g id="edge6_Node000006_Node000007" class="edge">
<title>Node6&#45;&gt;Node7</title>
<g id="a_edge6_Node000006_Node000007"><a xlink:title=" ">
<path fill="none" stroke="#63b8ff" d="M291.07,-78.01C299.52,-78.49 308.27,-79 316.87,-79.5"/>
<polygon fill="#63b8ff" stroke="#63b8ff" points="316.69,-82.99 326.88,-80.08 317.09,-76.01 316.69,-82.99"/>
</a>
</g>
</g>
<!-- Node8 -->
<g id="Node000008" class="node">
<title>Node8</title>
<g id="a_Node000008"><a xlink:href="../../d6/d7f/classExFatFile_a969337d7b3f94d97ff632629e882e8f6.xhtml#a969337d7b3f94d97ff632629e882e8f6" target="_top" xlink:title=" ">
<polygon fill="white" stroke="#666666" points="437.5,-56 336.5,-56 336.5,-37 437.5,-37 437.5,-56"/>
<text text-anchor="middle" x="387" y="-44" font-family="Helvetica,sans-Serif" font-size="10.00">ExFatFile::fileSize</text>
</a>
</g>
</g>
<!-- Node6&#45;&gt;Node8 -->
<g id="edge7_Node000006_Node000008" class="edge">
<title>Node6&#45;&gt;Node8</title>
<g id="a_edge7_Node000006_Node000008"><a xlink:title=" ">
<path fill="none" stroke="#63b8ff" d="M283.58,-64.94C297.31,-62.47 312.2,-59.79 326.25,-57.26"/>
<polygon fill="#63b8ff" stroke="#63b8ff" points="327.08,-60.67 336.3,-55.45 325.84,-53.78 327.08,-60.67"/>
</a>
</g>
</g>
<!-- Node9 -->
<g id="Node000009" class="node">
<title>Node9</title>
<g id="a_Node000009"><a xlink:href="../../d6/d7f/classExFatFile_af601285f95db8398c140b3927cf9111c.xhtml#af601285f95db8398c140b3927cf9111c" target="_top" xlink:title=" ">
<polygon fill="white" stroke="#666666" points="433,-19 341,-19 341,0 433,0 433,-19"/>
<text text-anchor="middle" x="387" y="-7" font-family="Helvetica,sans-Serif" font-size="10.00">ExFatFile::isFile</text>
</a>
</g>
</g>
<!-- Node6&#45;&gt;Node9 -->
<g id="edge8_Node000006_Node000009" class="edge">
<title>Node6&#45;&gt;Node9</title>
<g id="a_edge8_Node000006_Node000009"><a xlink:title=" ">
<path fill="none" stroke="#63b8ff" d="M248.68,-64.94C267.84,-55.07 299.06,-39.6 327,-28.5 332.45,-26.34 338.24,-24.23 344,-22.26"/>
<polygon fill="#63b8ff" stroke="#63b8ff" points="345.18,-25.56 353.57,-19.09 342.98,-18.91 345.18,-25.56"/>
</a>
</g>
</g>
</g>
</svg>
</svg>

<style type='text/css'>
<![CDATA[
[data-mouse-over-selected='false'] { opacity: 0.7; }
[data-mouse-over-selected='true']  { opacity: 1.0; }
]]>
</style>
<script type="application/ecmascript"><![CDATA[
document.addEventListener('DOMContentLoaded', (event) => {
  highlightEdges();
  highlightAdjacentNodes();
});
]]></script>
</svg>
