<?xml version="1.0" encoding="UTF-8" standalone="no"?>
<!DOCTYPE svg PUBLIC "-//W3C//DTD SVG 1.1//EN"
 "http://www.w3.org/Graphics/SVG/1.1/DTD/svg11.dtd">
<!-- Generated by graphviz version 2.43.0 (0)
 -->
<!-- Title: FsBaseFile::getWriteError Pages: 1 -->
<svg width="451pt" height="64pt"
 viewBox="0.00 0.00 451.00 64.00" xmlns="http://www.w3.org/2000/svg" xmlns:xlink="http://www.w3.org/1999/xlink">

<svg id="main" version="1.1" xmlns="http://www.w3.org/2000/svg" xmlns:xlink="http://www.w3.org/1999/xlink" xml:space="preserve" onload="init(evt)">
<style type="text/css"><![CDATA[
.node, .edge {opacity: 0.7;}
.node.selected, .edge.selected {opacity: 1;}
.edge:hover path { stroke: red; }
.edge:hover polygon { stroke: red; fill: red; }
]]></style>
<script type="application/ecmascript" xlink:href="../../svg.min.js"/>
<svg id="graph" class="graph">
<g id="graph0" class="graph" transform="scale(1 1) rotate(0) translate(4 60)">
<title>FsBaseFile::getWriteError</title>
<!-- Node1 -->
<g id="Node000001" class="node">
<title>Node1</title>
<g id="a_Node000001"><a xlink:title=" ">
<polygon fill="#999999" stroke="#666666" points="140,-37 0,-37 0,-18 140,-18 140,-37"/>
<text text-anchor="middle" x="70" y="-25" font-family="Helvetica,sans-Serif" font-size="10.00">FsBaseFile::getWriteError</text>
</a>
</g>
</g>
<!-- Node2 -->
<g id="Node000002" class="node">
<title>Node2</title>
<g id="a_Node000002"><a xlink:href="../../d6/d7f/classExFatFile_a0a2aa73760546fbe0fd90480813c212d.xhtml#a0a2aa73760546fbe0fd90480813c212d" target="_top" xlink:title=" ">
<polygon fill="white" stroke="#666666" points="307,-56 176,-56 176,-37 307,-37 307,-56"/>
<text text-anchor="middle" x="241.5" y="-44" font-family="Helvetica,sans-Serif" font-size="10.00">ExFatFile::getWriteError</text>
</a>
</g>
</g>
<!-- Node1&#45;&gt;Node2 -->
<g id="edge1_Node000001_Node000002" class="edge">
<title>Node1&#45;&gt;Node2</title>
<g id="a_edge1_Node000001_Node000002"><a xlink:title=" ">
<path fill="none" stroke="#63b8ff" d="M140.43,-35.28C148.75,-36.22 157.27,-37.17 165.67,-38.11"/>
<polygon fill="#63b8ff" stroke="#63b8ff" points="165.49,-41.61 175.81,-39.25 166.27,-34.66 165.49,-41.61"/>
</a>
</g>
</g>
<!-- Node4 -->
<g id="Node000004" class="node">
<title>Node4</title>
<g id="a_Node000004"><a xlink:href="../../d3/db4/classFatFile_ac5c7b5894ff8deee63b4db0663975321.xhtml#ac5c7b5894ff8deee63b4db0663975321" target="_top" xlink:title=" ">
<polygon fill="white" stroke="#666666" points="301,-19 182,-19 182,0 301,0 301,-19"/>
<text text-anchor="middle" x="241.5" y="-7" font-family="Helvetica,sans-Serif" font-size="10.00">FatFile::getWriteError</text>
</a>
</g>
</g>
<!-- Node1&#45;&gt;Node4 -->
<g id="edge3_Node000001_Node000004" class="edge">
<title>Node1&#45;&gt;Node4</title>
<g id="a_edge3_Node000001_Node000004"><a xlink:title=" ">
<path fill="none" stroke="#63b8ff" d="M140.43,-20.13C150.79,-19.03 161.45,-17.89 171.79,-16.8"/>
<polygon fill="#63b8ff" stroke="#63b8ff" points="172.42,-20.25 182,-15.71 171.68,-13.29 172.42,-20.25"/>
</a>
</g>
</g>
<!-- Node3 -->
<g id="Node000003" class="node">
<title>Node3</title>
<g id="a_Node000003"><a xlink:href="../../d6/d7f/classExFatFile_a804c34bbe3ebefe2b6c1d77ff8d49a35.xhtml#a804c34bbe3ebefe2b6c1d77ff8d49a35" target="_top" xlink:title=" ">
<polygon fill="white" stroke="#666666" points="443,-56 343,-56 343,-37 443,-37 443,-56"/>
<text text-anchor="middle" x="393" y="-44" font-family="Helvetica,sans-Serif" font-size="10.00">ExFatFile::isOpen</text>
</a>
</g>
</g>
<!-- Node2&#45;&gt;Node3 -->
<g id="edge2_Node000002_Node000003" class="edge">
<title>Node2&#45;&gt;Node3</title>
<g id="a_edge2_Node000002_Node000003"><a xlink:title=" ">
<path fill="none" stroke="#63b8ff" d="M307.2,-46.5C315.73,-46.5 324.44,-46.5 332.86,-46.5"/>
<polygon fill="#63b8ff" stroke="#63b8ff" points="332.98,-50 342.98,-46.5 332.98,-43 332.98,-50"/>
</a>
</g>
</g>
<!-- Node5 -->
<g id="Node000005" class="node">
<title>Node5</title>
<g id="a_Node000005"><a xlink:href="../../d3/db4/classFatFile_a8b8a2850c086d3ce79bee64a23fbf7a6.xhtml#a8b8a2850c086d3ce79bee64a23fbf7a6" target="_top" xlink:title=" ">
<polygon fill="white" stroke="#666666" points="437,-19 349,-19 349,0 437,0 437,-19"/>
<text text-anchor="middle" x="393" y="-7" font-family="Helvetica,sans-Serif" font-size="10.00">FatFile::isOpen</text>
</a>
</g>
</g>
<!-- Node4&#45;&gt;Node5 -->
<g id="edge4_Node000004_Node000005" class="edge">
<title>Node4&#45;&gt;Node5</title>
<g id="a_edge4_Node000004_Node000005"><a xlink:title=" ">
<path fill="none" stroke="#63b8ff" d="M301.16,-9.5C313.56,-9.5 326.57,-9.5 338.76,-9.5"/>
<polygon fill="#63b8ff" stroke="#63b8ff" points="338.77,-13 348.77,-9.5 338.77,-6 338.77,-13"/>
</a>
</g>
</g>
</g>
</svg>
</svg>

<style type='text/css'>
<![CDATA[
[data-mouse-over-selected='false'] { opacity: 0.7; }
[data-mouse-over-selected='true']  { opacity: 1.0; }
]]>
</style>
<script type="application/ecmascript"><![CDATA[
document.addEventListener('DOMContentLoaded', (event) => {
  highlightEdges();
  highlightAdjacentNodes();
});
]]></script>
</svg>
