<?xml version="1.0" encoding="UTF-8" standalone="no"?>
<!DOCTYPE svg PUBLIC "-//W3C//DTD SVG 1.1//EN"
 "http://www.w3.org/Graphics/SVG/1.1/DTD/svg11.dtd">
<!-- Generated by graphviz version 2.43.0 (0)
 -->
<!-- Title: FsBaseFile::getError Pages: 1 -->
<svg width="399pt" height="64pt"
 viewBox="0.00 0.00 399.00 64.00" xmlns="http://www.w3.org/2000/svg" xmlns:xlink="http://www.w3.org/1999/xlink">
<g id="graph0" class="graph" transform="scale(1 1) rotate(0) translate(4 60)">
<title>FsBaseFile::getError</title>
<!-- Node1 -->
<g id="Node000001" class="node">
<title>Node1</title>
<g id="a_Node000001"><a xlink:title=" ">
<polygon fill="#999999" stroke="#666666" points="114,-37 0,-37 0,-18 114,-18 114,-37"/>
<text text-anchor="middle" x="57" y="-25" font-family="Helvetica,sans-Serif" font-size="10.00">FsBaseFile::getError</text>
</a>
</g>
</g>
<!-- Node2 -->
<g id="Node000002" class="node">
<title>Node2</title>
<g id="a_Node000002"><a xlink:href="../../d6/d7f/classExFatFile_a2484ee9e92f9a8e36d0e68fc05b4c734.xhtml#a2484ee9e92f9a8e36d0e68fc05b4c734" target="_top" xlink:title=" ">
<polygon fill="white" stroke="#666666" points="255,-56 150,-56 150,-37 255,-37 255,-56"/>
<text text-anchor="middle" x="202.5" y="-44" font-family="Helvetica,sans-Serif" font-size="10.00">ExFatFile::getError</text>
</a>
</g>
</g>
<!-- Node1&#45;&gt;Node2 -->
<g id="edge1_Node000001_Node000002" class="edge">
<title>Node1&#45;&gt;Node2</title>
<g id="a_edge1_Node000001_Node000002"><a xlink:title=" ">
<path fill="none" stroke="#63b8ff" d="M114.3,-34.95C122.56,-36.05 131.11,-37.18 139.48,-38.29"/>
<polygon fill="#63b8ff" stroke="#63b8ff" points="139.2,-41.78 149.57,-39.62 140.12,-34.84 139.2,-41.78"/>
</a>
</g>
</g>
<!-- Node4 -->
<g id="Node000004" class="node">
<title>Node4</title>
<g id="a_Node000004"><a xlink:href="../../d3/db4/classFatFile_af732f14454c7e1468d8ed7cadcaef527.xhtml#af732f14454c7e1468d8ed7cadcaef527" target="_top" xlink:title=" ">
<polygon fill="white" stroke="#666666" points="249,-19 156,-19 156,0 249,0 249,-19"/>
<text text-anchor="middle" x="202.5" y="-7" font-family="Helvetica,sans-Serif" font-size="10.00">FatFile::getError</text>
</a>
</g>
</g>
<!-- Node1&#45;&gt;Node4 -->
<g id="edge3_Node000001_Node000004" class="edge">
<title>Node1&#45;&gt;Node4</title>
<g id="a_edge3_Node000001_Node000004"><a xlink:title=" ">
<path fill="none" stroke="#63b8ff" d="M114.3,-20.44C124.67,-19.14 135.48,-17.78 145.83,-16.48"/>
<polygon fill="#63b8ff" stroke="#63b8ff" points="146.5,-19.93 155.98,-15.21 145.63,-12.98 146.5,-19.93"/>
</a>
</g>
</g>
<!-- Node3 -->
<g id="Node000003" class="node">
<title>Node3</title>
<g id="a_Node000003"><a xlink:href="../../d6/d7f/classExFatFile_a804c34bbe3ebefe2b6c1d77ff8d49a35.xhtml#a804c34bbe3ebefe2b6c1d77ff8d49a35" target="_top" xlink:title=" ">
<polygon fill="white" stroke="#666666" points="391,-56 291,-56 291,-37 391,-37 391,-56"/>
<text text-anchor="middle" x="341" y="-44" font-family="Helvetica,sans-Serif" font-size="10.00">ExFatFile::isOpen</text>
</a>
</g>
</g>
<!-- Node2&#45;&gt;Node3 -->
<g id="edge2_Node000002_Node000003" class="edge">
<title>Node2&#45;&gt;Node3</title>
<g id="a_edge2_Node000002_Node000003"><a xlink:title=" ">
<path fill="none" stroke="#63b8ff" d="M255.1,-46.5C263.37,-46.5 271.98,-46.5 280.42,-46.5"/>
<polygon fill="#63b8ff" stroke="#63b8ff" points="280.58,-50 290.58,-46.5 280.58,-43 280.58,-50"/>
</a>
</g>
</g>
</g>
</svg>
