<?xml version="1.0" encoding="UTF-8" standalone="no"?>
<!DOCTYPE svg PUBLIC "-//W3C//DTD SVG 1.1//EN"
 "http://www.w3.org/Graphics/SVG/1.1/DTD/svg11.dtd">
<!-- Generated by graphviz version 2.43.0 (0)
 -->
<!-- Title: FsBaseFile::attrib Pages: 1 -->
<svg width="551pt" height="138pt"
 viewBox="0.00 0.00 551.00 138.00" xmlns="http://www.w3.org/2000/svg" xmlns:xlink="http://www.w3.org/1999/xlink">
<g id="graph0" class="graph" transform="scale(1 1) rotate(0) translate(4 134)">
<title>FsBaseFile::attrib</title>
<!-- Node1 -->
<g id="Node000001" class="node">
<title>Node1</title>
<g id="a_Node000001"><a xlink:title=" ">
<polygon fill="#999999" stroke="#666666" points="101,-74 0,-74 0,-55 101,-55 101,-74"/>
<text text-anchor="middle" x="50.5" y="-62" font-family="Helvetica,sans-Serif" font-size="10.00">FsBaseFile::attrib</text>
</a>
</g>
</g>
<!-- Node2 -->
<g id="Node000002" class="node">
<title>Node2</title>
<g id="a_Node000002"><a xlink:href="../../d6/d7f/classExFatFile.xhtml#a7cbb53da7a6ee80ce80f640e7303446e" target="_top" xlink:title=" ">
<polygon fill="white" stroke="#666666" points="229,-93 137,-93 137,-74 229,-74 229,-93"/>
<text text-anchor="middle" x="183" y="-81" font-family="Helvetica,sans-Serif" font-size="10.00">ExFatFile::attrib</text>
</a>
</g>
</g>
<!-- Node1&#45;&gt;Node2 -->
<g id="edge1_Node000001_Node000002" class="edge">
<title>Node1&#45;&gt;Node2</title>
<g id="a_edge1_Node000001_Node000002"><a xlink:title=" ">
<path fill="none" stroke="#63b8ff" d="M101.21,-71.74C109.5,-72.95 118.16,-74.2 126.58,-75.43"/>
<polygon fill="#63b8ff" stroke="#63b8ff" points="126.31,-78.93 136.71,-76.91 127.32,-72 126.31,-78.93"/>
</a>
</g>
</g>
<!-- Node6 -->
<g id="Node000006" class="node">
<title>Node6</title>
<g id="a_Node000006"><a xlink:href="../../d3/db4/classFatFile.xhtml#a2f40718e0e4923659a1b38e3cd24d0dd" target="_top" xlink:title=" ">
<polygon fill="white" stroke="#666666" points="223,-56 143,-56 143,-37 223,-37 223,-56"/>
<text text-anchor="middle" x="183" y="-44" font-family="Helvetica,sans-Serif" font-size="10.00">FatFile::attrib</text>
</a>
</g>
</g>
<!-- Node1&#45;&gt;Node6 -->
<g id="edge5_Node000001_Node000006" class="edge">
<title>Node1&#45;&gt;Node6</title>
<g id="a_edge5_Node000001_Node000006"><a xlink:title=" ">
<path fill="none" stroke="#63b8ff" d="M101.21,-57.64C111.58,-56.21 122.51,-54.71 132.86,-53.28"/>
<polygon fill="#63b8ff" stroke="#63b8ff" points="133.55,-56.72 142.98,-51.88 132.59,-49.78 133.55,-56.72"/>
</a>
</g>
</g>
<!-- Node3 -->
<g id="Node000003" class="node">
<title>Node3</title>
<g id="a_Node000003"><a xlink:href="../../d6/d7f/classExFatFile.xhtml#a439d6d60da81fc369235d8a297c2000d" target="_top" xlink:title=" ">
<polygon fill="white" stroke="#666666" points="400,-93 265,-93 265,-74 400,-74 400,-93"/>
<text text-anchor="middle" x="332.5" y="-81" font-family="Helvetica,sans-Serif" font-size="10.00">ExFatFile::isFileOrSubDir</text>
</a>
</g>
</g>
<!-- Node2&#45;&gt;Node3 -->
<g id="edge2_Node000002_Node000003" class="edge">
<title>Node2&#45;&gt;Node3</title>
<g id="a_edge2_Node000002_Node000003"><a xlink:title=" ">
<path fill="none" stroke="#63b8ff" d="M229.06,-83.5C237.3,-83.5 246.12,-83.5 254.99,-83.5"/>
<polygon fill="#63b8ff" stroke="#63b8ff" points="255,-87 265,-83.5 255,-80 255,-87"/>
</a>
</g>
</g>
<!-- Node4 -->
<g id="Node000004" class="node">
<title>Node4</title>
<g id="a_Node000004"><a xlink:href="../../d6/d7f/classExFatFile.xhtml#af601285f95db8398c140b3927cf9111c" target="_top" xlink:title=" ">
<polygon fill="white" stroke="#666666" points="535.5,-130 443.5,-130 443.5,-111 535.5,-111 535.5,-130"/>
<text text-anchor="middle" x="489.5" y="-118" font-family="Helvetica,sans-Serif" font-size="10.00">ExFatFile::isFile</text>
</a>
</g>
</g>
<!-- Node3&#45;&gt;Node4 -->
<g id="edge3_Node000003_Node000004" class="edge">
<title>Node3&#45;&gt;Node4</title>
<g id="a_edge3_Node000003_Node000004"><a xlink:title=" ">
<path fill="none" stroke="#63b8ff" d="M373.42,-93.03C393.32,-97.78 417.58,-103.57 438.69,-108.61"/>
<polygon fill="#63b8ff" stroke="#63b8ff" points="437.91,-112.02 448.45,-110.94 439.54,-105.21 437.91,-112.02"/>
</a>
</g>
</g>
<!-- Node5 -->
<g id="Node000005" class="node">
<title>Node5</title>
<g id="a_Node000005"><a xlink:href="../../d6/d7f/classExFatFile.xhtml#ad7e02a1db8fb5a90288bb4679e9ddcb9" target="_top" xlink:title=" ">
<polygon fill="white" stroke="#666666" points="543,-93 436,-93 436,-74 543,-74 543,-93"/>
<text text-anchor="middle" x="489.5" y="-81" font-family="Helvetica,sans-Serif" font-size="10.00">ExFatFile::isSubDir</text>
</a>
</g>
</g>
<!-- Node3&#45;&gt;Node5 -->
<g id="edge4_Node000003_Node000005" class="edge">
<title>Node3&#45;&gt;Node5</title>
<g id="a_edge4_Node000003_Node000005"><a xlink:title=" ">
<path fill="none" stroke="#63b8ff" d="M400.13,-83.5C408.65,-83.5 417.35,-83.5 425.8,-83.5"/>
<polygon fill="#63b8ff" stroke="#63b8ff" points="425.96,-87 435.96,-83.5 425.96,-80 425.96,-87"/>
</a>
</g>
</g>
<!-- Node7 -->
<g id="Node000007" class="node">
<title>Node7</title>
<g id="a_Node000007"><a xlink:href="../../d3/db4/classFatFile.xhtml#ae6917ba9b62b4de6fc77d356d1f077a9" target="_top" xlink:title=" ">
<polygon fill="white" stroke="#666666" points="394,-56 271,-56 271,-37 394,-37 394,-56"/>
<text text-anchor="middle" x="332.5" y="-44" font-family="Helvetica,sans-Serif" font-size="10.00">FatFile::isFileOrSubDir</text>
</a>
</g>
</g>
<!-- Node6&#45;&gt;Node7 -->
<g id="edge6_Node000006_Node000007" class="edge">
<title>Node6&#45;&gt;Node7</title>
<g id="a_edge6_Node000006_Node000007"><a xlink:title=" ">
<path fill="none" stroke="#63b8ff" d="M223.14,-46.5C234.66,-46.5 247.63,-46.5 260.49,-46.5"/>
<polygon fill="#63b8ff" stroke="#63b8ff" points="260.75,-50 270.75,-46.5 260.75,-43 260.75,-50"/>
</a>
</g>
</g>
<!-- Node8 -->
<g id="Node000008" class="node">
<title>Node8</title>
<g id="a_Node000008"><a xlink:href="../../d3/db4/classFatFile.xhtml#acc5a87da1a5c8cb9758bfeaa7ae47b57" target="_top" xlink:title=" ">
<polygon fill="white" stroke="#666666" points="529.5,-56 449.5,-56 449.5,-37 529.5,-37 529.5,-56"/>
<text text-anchor="middle" x="489.5" y="-44" font-family="Helvetica,sans-Serif" font-size="10.00">FatFile::isFile</text>
</a>
</g>
</g>
<!-- Node7&#45;&gt;Node8 -->
<g id="edge7_Node000007_Node000008" class="edge">
<title>Node7&#45;&gt;Node8</title>
<g id="a_edge7_Node000007_Node000008"><a xlink:title=" ">
<path fill="none" stroke="#63b8ff" d="M394.32,-46.5C409.19,-46.5 424.93,-46.5 439.2,-46.5"/>
<polygon fill="#63b8ff" stroke="#63b8ff" points="439.29,-50 449.29,-46.5 439.29,-43 439.29,-50"/>
</a>
</g>
</g>
<!-- Node9 -->
<g id="Node000009" class="node">
<title>Node9</title>
<g id="a_Node000009"><a xlink:href="../../d3/db4/classFatFile.xhtml#abfd02c5d26f7d4f8739a8610116a6660" target="_top" xlink:title=" ">
<polygon fill="white" stroke="#666666" points="537,-19 442,-19 442,0 537,0 537,-19"/>
<text text-anchor="middle" x="489.5" y="-7" font-family="Helvetica,sans-Serif" font-size="10.00">FatFile::isSubDir</text>
</a>
</g>
</g>
<!-- Node7&#45;&gt;Node9 -->
<g id="edge8_Node000007_Node000009" class="edge">
<title>Node7&#45;&gt;Node9</title>
<g id="a_edge8_Node000007_Node000009"><a xlink:title=" ">
<path fill="none" stroke="#63b8ff" d="M373.42,-36.97C393.32,-32.22 417.58,-26.43 438.69,-21.39"/>
<polygon fill="#63b8ff" stroke="#63b8ff" points="439.54,-24.79 448.45,-19.06 437.91,-17.98 439.54,-24.79"/>
</a>
</g>
</g>
</g>
</svg>
