<?xml version="1.0" encoding="UTF-8" standalone="no"?>
<!DOCTYPE svg PUBLIC "-//W3C//DTD SVG 1.1//EN"
 "http://www.w3.org/Graphics/SVG/1.1/DTD/svg11.dtd">
<!-- Generated by graphviz version 2.43.0 (0)
 -->
<!-- Title: ios::fail Pages: 1 -->
<!--zoomable 243 -->

<svg id="main" version="1.1" xmlns="http://www.w3.org/2000/svg" xmlns:xlink="http://www.w3.org/1999/xlink" xml:space="preserve" onload="init(evt)">
<style type="text/css"><![CDATA[
.node, .edge {opacity: 0.7;}
.node.selected, .edge.selected {opacity: 1;}
.edge:hover path { stroke: red; }
.edge:hover polygon { stroke: red; fill: red; }
]]></style>

<defs>
  <circle id="rim" cx="0" cy="0" r="7"/>
  <circle id="rim2" cx="0" cy="0" r="3.5"/>
  <g id="zoomPlus">
    <use xlink:href="#rim" fill="#404040"><set attributeName="fill" to="#808080" begin="zoomplus.mouseover" end="zoomplus.mouseout"/></use>
    <path d="M-4,0h8M0,-4v8" fill="none" stroke="white" stroke-width="1.5" pointer-events="none"/>
  </g>
  <g id="zoomMin">
    <use xlink:href="#rim" fill="#404040"><set attributeName="fill" to="#808080" begin="zoomminus.mouseover" end="zoomminus.mouseout"/></use>
    <path d="M-4,0h8" fill="none" stroke="white" stroke-width="1.5" pointer-events="none"/>
  </g>
  <g id="arrowUp" transform="translate(30 24)">
    <use xlink:href="#rim"/>
    <path pointer-events="none" fill="none" stroke="white" stroke-width="1.5" d="M0,-3.0v7 M-2.5,-0.5L0,-3.0L2.5,-0.5"/>
  </g>
  <g id="arrowRight" transform="rotate(90) translate(36 -43)">
    <use xlink:href="#rim"/>
    <path pointer-events="none" fill="none" stroke="white" stroke-width="1.5" d="M0,-3.0v7 M-2.5,-0.5L0,-3.0L2.5,-0.5"/>
  </g>
  <g id="arrowDown" transform="rotate(180) translate(-30 -48)">
    <use xlink:href="#rim"/>
    <path pointer-events="none" fill="none" stroke="white" stroke-width="1.5" d="M0,-3.0v7 M-2.5,-0.5L0,-3.0L2.5,-0.5"/>
  </g>
  <g id="arrowLeft" transform="rotate(270) translate(-36 17)">
    <use xlink:href="#rim"/>
    <path pointer-events="none" fill="none" stroke="white" stroke-width="1.5" d="M0,-3.0v7 M-2.5,-0.5L0,-3.0L2.5,-0.5"/>
  </g>
  <g id="resetDef">
    <use xlink:href="#rim2" fill="#404040"><set attributeName="fill" to="#808080" begin="reset.mouseover" end="reset.mouseout"/></use>
  </g>
</defs>
<script type="application/ecmascript">
var viewWidth = 530;
var viewHeight = 243;
var sectionId = 'dynsection-4';
</script>
<script type="application/ecmascript" xlink:href="../../svg.min.js"/>
<svg id="graph" class="graph">
<g id="viewport">
<title>ios::fail</title>
<!-- Node1 -->
<g id="Node000001" class="node">
<title>Node1</title>
<g id="a_Node000001"><a xlink:title=" ">
<polygon fill="#999999" stroke="#666666" points="522,-105 469,-105 469,-86 522,-86 522,-105"/>
<text text-anchor="middle" x="495.5" y="-93" font-family="Helvetica,sans-Serif" font-size="10.00">ios::fail</text>
</a>
</g>
</g>
<!-- Node2 -->
<g id="Node000002" class="node">
<title>Node2</title>
<g id="a_Node000002"><a xlink:href="../../d4/d07/classistream.xhtml#adf90e879a65ea616c39ab4e47779dfb9" target="_top" xlink:title=" ">
<polygon fill="white" stroke="#666666" points="422,-198 312,-198 312,-179 422,-179 422,-198"/>
<text text-anchor="middle" x="367" y="-186" font-family="Helvetica,sans-Serif" font-size="10.00">istream::getDouble</text>
</a>
</g>
</g>
<!-- Node1&#45;&gt;Node2 -->
<g id="edge1_Node000001_Node000002" class="edge">
<title>Node1&#45;&gt;Node2</title>
<g id="a_edge1_Node000001_Node000002"><a xlink:title=" ">
<path fill="none" stroke="#63b8ff" d="M477.66,-112.73C465.77,-124.41 449.14,-139.78 433,-151.5 418.5,-162.03 400.74,-171.96 387.46,-178.87"/>
<polygon fill="#63b8ff" stroke="#63b8ff" points="480.46,-114.87 485.07,-105.33 475.52,-109.92 480.46,-114.87"/>
</a>
</g>
</g>
<!-- Node5 -->
<g id="Node000005" class="node">
<title>Node5</title>
<g id="a_Node000005"><a xlink:href="../../d0/d4a/classStreamBaseClass.xhtml#ae35297f11506f154597015f9216b72df" target="_top" xlink:title=" ">
<polygon fill="white" stroke="#666666" points="433,-142 301,-142 301,-123 433,-123 433,-142"/>
<text text-anchor="middle" x="367" y="-130" font-family="Helvetica,sans-Serif" font-size="10.00">StreamBaseClass::open</text>
</a>
</g>
</g>
<!-- Node1&#45;&gt;Node5 -->
<g id="edge4_Node000001_Node000005" class="edge">
<title>Node1&#45;&gt;Node5</title>
<g id="a_edge4_Node000001_Node000005"><a xlink:title=" ">
<path fill="none" stroke="#63b8ff" d="M459.13,-106.62C450.59,-109.26 441.48,-112.02 433,-114.5 423.34,-117.33 412.83,-120.29 403.14,-122.97"/>
<polygon fill="#63b8ff" stroke="#63b8ff" points="460.3,-109.92 468.82,-103.62 458.23,-103.24 460.3,-109.92"/>
</a>
</g>
</g>
<!-- Node12 -->
<g id="Node000012" class="node">
<title>Node12</title>
<g id="a_Node000012"><a xlink:href="../../df/d02/classios.xhtml#a940890a2e7fb429fd32813b0ea7ed35d" target="_top" xlink:title=" ">
<polygon fill="white" stroke="#666666" points="418,-105 316,-105 316,-86 418,-86 418,-105"/>
<text text-anchor="middle" x="367" y="-93" font-family="Helvetica,sans-Serif" font-size="10.00">ios::operator bool</text>
</a>
</g>
</g>
<!-- Node1&#45;&gt;Node12 -->
<g id="edge11_Node000001_Node000012" class="edge">
<title>Node1&#45;&gt;Node12</title>
<g id="a_edge11_Node000001_Node000012"><a xlink:title=" ">
<path fill="none" stroke="#63b8ff" d="M458.79,-95.5C446.17,-95.5 431.73,-95.5 418.14,-95.5"/>
<polygon fill="#63b8ff" stroke="#63b8ff" points="458.9,-99 468.9,-95.5 458.9,-92 458.9,-99"/>
</a>
</g>
</g>
<!-- Node13 -->
<g id="Node000013" class="node">
<title>Node13</title>
<g id="a_Node000013"><a xlink:href="../../df/d02/classios.xhtml#aa919219fd2fa41d49c8573b36bb04418" target="_top" xlink:title=" ">
<polygon fill="white" stroke="#666666" points="420.5,-67.5 313.5,-67.5 313.5,-37.5 420.5,-37.5 420.5,-67.5"/>
<text text-anchor="start" x="321.5" y="-55.5" font-family="Helvetica,sans-Serif" font-size="10.00">ios::operator const</text>
<text text-anchor="middle" x="367" y="-44.5" font-family="Helvetica,sans-Serif" font-size="10.00"> void *</text>
</a>
</g>
</g>
<!-- Node1&#45;&gt;Node13 -->
<g id="edge12_Node000001_Node000013" class="edge">
<title>Node1&#45;&gt;Node13</title>
<g id="a_edge12_Node000001_Node000013"><a xlink:title=" ">
<path fill="none" stroke="#63b8ff" d="M459.27,-83.52C444.7,-78.57 427.65,-72.78 412.26,-67.54"/>
<polygon fill="#63b8ff" stroke="#63b8ff" points="458.31,-86.89 468.9,-86.8 460.56,-80.27 458.31,-86.89"/>
</a>
</g>
</g>
<!-- Node14 -->
<g id="Node000014" class="node">
<title>Node14</title>
<g id="a_Node000014"><a xlink:href="../../df/d02/classios.xhtml#aea64e05b9aa58bd75ca636692f881fb6" target="_top" xlink:title=" ">
<polygon fill="white" stroke="#666666" points="408,-19 326,-19 326,0 408,0 408,-19"/>
<text text-anchor="middle" x="367" y="-7" font-family="Helvetica,sans-Serif" font-size="10.00">ios::operator!</text>
</a>
</g>
</g>
<!-- Node1&#45;&gt;Node14 -->
<g id="edge13_Node000001_Node000014" class="edge">
<title>Node1&#45;&gt;Node14</title>
<g id="a_edge13_Node000001_Node000014"><a xlink:title=" ">
<path fill="none" stroke="#63b8ff" d="M482.1,-77.2C470.94,-62.06 453.21,-41.07 433,-28.5 425.51,-23.84 416.83,-20.29 408.3,-17.58"/>
<polygon fill="#63b8ff" stroke="#63b8ff" points="479.53,-79.62 488.17,-85.75 485.24,-75.57 479.53,-79.62"/>
</a>
</g>
</g>
<!-- Node3 -->
<g id="Node000003" class="node">
<title>Node3</title>
<g id="a_Node000003"><a xlink:href="../../d4/d07/classistream.xhtml#a1dc611d45252414ebfbec4898aa7d1ba" target="_top" xlink:title=" ">
<polygon fill="white" stroke="#666666" points="265,-235 147,-235 147,-216 265,-216 265,-235"/>
<text text-anchor="middle" x="206" y="-223" font-family="Helvetica,sans-Serif" font-size="10.00">istream::operator&gt;&gt;</text>
</a>
</g>
</g>
<!-- Node2&#45;&gt;Node3 -->
<g id="edge2_Node000002_Node000003" class="edge">
<title>Node2&#45;&gt;Node3</title>
<g id="a_edge2_Node000002_Node000003"><a xlink:title=" ">
<path fill="none" stroke="#63b8ff" d="M315.05,-200.36C293.41,-205.39 268.52,-211.18 248.08,-215.94"/>
<polygon fill="#63b8ff" stroke="#63b8ff" points="316.11,-203.7 325.05,-198.03 314.52,-196.89 316.11,-203.7"/>
</a>
</g>
</g>
<!-- Node4 -->
<g id="Node000004" class="node">
<title>Node4</title>
<g id="a_Node000004"><a xlink:href="../../d4/d07/classistream.xhtml#af937cf5104134941c2f5e2121f3634d2" target="_top" xlink:title=" ">
<polygon fill="white" stroke="#666666" points="265,-198 147,-198 147,-179 265,-179 265,-198"/>
<text text-anchor="middle" x="206" y="-186" font-family="Helvetica,sans-Serif" font-size="10.00">istream::operator&gt;&gt;</text>
</a>
</g>
</g>
<!-- Node2&#45;&gt;Node4 -->
<g id="edge3_Node000002_Node000004" class="edge">
<title>Node2&#45;&gt;Node4</title>
<g id="a_edge3_Node000002_Node000004"><a xlink:title=" ">
<path fill="none" stroke="#63b8ff" d="M301.7,-188.5C289.6,-188.5 277.01,-188.5 265.1,-188.5"/>
<polygon fill="#63b8ff" stroke="#63b8ff" points="301.73,-192 311.73,-188.5 301.73,-185 301.73,-192"/>
</a>
</g>
</g>
<!-- Node6 -->
<g id="Node000006" class="node">
<title>Node6</title>
<g id="a_Node000006"><a xlink:href="../../d0/d68/classifstream.xhtml#a169694d6535fd551fd6db48a2867590e" target="_top" xlink:title=" ">
<polygon fill="white" stroke="#666666" points="250,-161 162,-161 162,-142 250,-142 250,-161"/>
<text text-anchor="middle" x="206" y="-149" font-family="Helvetica,sans-Serif" font-size="10.00">ifstream::open</text>
</a>
</g>
</g>
<!-- Node5&#45;&gt;Node6 -->
<g id="edge5_Node000005_Node000006" class="edge">
<title>Node5&#45;&gt;Node6</title>
<g id="a_edge5_Node000005_Node000006"><a xlink:title=" ">
<path fill="none" stroke="#63b8ff" d="M290.84,-141.48C276.99,-143.14 262.97,-144.81 250.45,-146.31"/>
<polygon fill="#63b8ff" stroke="#63b8ff" points="291.36,-144.94 300.87,-140.28 290.53,-137.99 291.36,-144.94"/>
</a>
</g>
</g>
<!-- Node8 -->
<g id="Node000008" class="node">
<title>Node8</title>
<g id="a_Node000008"><a xlink:href="../../d7/df9/classfstream.xhtml#a85b24d94552991f33caf4c3a83420879" target="_top" xlink:title=" ">
<polygon fill="white" stroke="#666666" points="248.5,-124 163.5,-124 163.5,-105 248.5,-105 248.5,-124"/>
<text text-anchor="middle" x="206" y="-112" font-family="Helvetica,sans-Serif" font-size="10.00">fstream::open</text>
</a>
</g>
</g>
<!-- Node5&#45;&gt;Node8 -->
<g id="edge7_Node000005_Node000008" class="edge">
<title>Node5&#45;&gt;Node8</title>
<g id="a_edge7_Node000005_Node000008"><a xlink:title=" ">
<path fill="none" stroke="#63b8ff" d="M290.85,-123.99C276.3,-122.35 261.56,-120.68 248.58,-119.21"/>
<polygon fill="#63b8ff" stroke="#63b8ff" points="290.54,-127.48 300.87,-125.13 291.33,-120.52 290.54,-127.48"/>
</a>
</g>
</g>
<!-- Node10 -->
<g id="Node000010" class="node">
<title>Node10</title>
<g id="a_Node000010"><a xlink:href="../../d9/d93/classofstream.xhtml#a4b9d30c742fbe01baa336406c7afdcb2" target="_top" xlink:title=" ">
<polygon fill="white" stroke="#666666" points="251.5,-87 160.5,-87 160.5,-68 251.5,-68 251.5,-87"/>
<text text-anchor="middle" x="206" y="-75" font-family="Helvetica,sans-Serif" font-size="10.00">ofstream::open</text>
</a>
</g>
</g>
<!-- Node5&#45;&gt;Node10 -->
<g id="edge9_Node000005_Node000010" class="edge">
<title>Node5&#45;&gt;Node10</title>
<g id="a_edge9_Node000005_Node000010"><a xlink:title=" ">
<path fill="none" stroke="#63b8ff" d="M316.74,-120.07C311.37,-118.36 306.03,-116.5 301,-114.5 284.18,-107.82 281.71,-102.43 265,-95.5 257.5,-92.39 249.27,-89.52 241.42,-87.03"/>
<polygon fill="#63b8ff" stroke="#63b8ff" points="315.78,-123.44 326.37,-122.99 317.81,-116.74 315.78,-123.44"/>
</a>
</g>
</g>
<!-- Node7 -->
<g id="Node000007" class="node">
<title>Node7</title>
<g id="a_Node000007"><a xlink:href="../../d0/d68/classifstream.xhtml#a11f4bfaa5c37cfcf8878c367fd861a88" target="_top" xlink:title=" ">
<polygon fill="white" stroke="#666666" points="108,-161 3,-161 3,-142 108,-142 108,-161"/>
<text text-anchor="middle" x="55.5" y="-149" font-family="Helvetica,sans-Serif" font-size="10.00">ifstream::ifstream</text>
</a>
</g>
</g>
<!-- Node6&#45;&gt;Node7 -->
<g id="edge6_Node000006_Node000007" class="edge">
<title>Node6&#45;&gt;Node7</title>
<g id="a_edge6_Node000006_Node000007"><a xlink:title=" ">
<path fill="none" stroke="#63b8ff" d="M151.56,-151.5C137.38,-151.5 122.11,-151.5 108.04,-151.5"/>
<polygon fill="#63b8ff" stroke="#63b8ff" points="151.65,-155 161.65,-151.5 151.65,-148 151.65,-155"/>
</a>
</g>
</g>
<!-- Node9 -->
<g id="Node000009" class="node">
<title>Node9</title>
<g id="a_Node000009"><a xlink:href="../../d7/df9/classfstream.xhtml#aed23877c52f828cab8de7a23603b3b6c" target="_top" xlink:title=" ">
<polygon fill="white" stroke="#666666" points="105,-124 6,-124 6,-105 105,-105 105,-124"/>
<text text-anchor="middle" x="55.5" y="-112" font-family="Helvetica,sans-Serif" font-size="10.00">fstream::fstream</text>
</a>
</g>
</g>
<!-- Node8&#45;&gt;Node9 -->
<g id="edge8_Node000008_Node000009" class="edge">
<title>Node8&#45;&gt;Node9</title>
<g id="a_edge8_Node000008_Node000009"><a xlink:title=" ">
<path fill="none" stroke="#63b8ff" d="M153.2,-114.5C137.56,-114.5 120.45,-114.5 105.03,-114.5"/>
<polygon fill="#63b8ff" stroke="#63b8ff" points="153.24,-118 163.24,-114.5 153.24,-111 153.24,-118"/>
</a>
</g>
</g>
<!-- Node11 -->
<g id="Node000011" class="node">
<title>Node11</title>
<g id="a_Node000011"><a xlink:href="../../d9/d93/classofstream.xhtml#abd1a07c492699c44f149da45b8d593c1" target="_top" xlink:title=" ">
<polygon fill="white" stroke="#666666" points="111,-87 0,-87 0,-68 111,-68 111,-87"/>
<text text-anchor="middle" x="55.5" y="-75" font-family="Helvetica,sans-Serif" font-size="10.00">ofstream::ofstream</text>
</a>
</g>
</g>
<!-- Node10&#45;&gt;Node11 -->
<g id="edge10_Node000010_Node000011" class="edge">
<title>Node10&#45;&gt;Node11</title>
<g id="a_edge10_Node000010_Node000011"><a xlink:title=" ">
<path fill="none" stroke="#63b8ff" d="M150.36,-77.5C137.52,-77.5 123.84,-77.5 111,-77.5"/>
<polygon fill="#63b8ff" stroke="#63b8ff" points="150.45,-81 160.45,-77.5 150.45,-74 150.45,-81"/>
</a>
</g>
</g>
</g>
</svg>

<g id="navigator" transform="translate(0 0)" fill="#404254">
  <rect fill="#f2f5e9" fill-opacity="0.5" stroke="#606060" stroke-width=".5" x="0" y="0" width="60" height="60"/>
  <use id="zoomplus" xlink:href="#zoomPlus" x="17" y="9" onmousedown="handleZoom(evt,'in')"/>
  <use id="zoomminus" xlink:href="#zoomMin" x="42" y="9" onmousedown="handleZoom(evt,'out')"/>
  <use id="reset" xlink:href="#resetDef" x="30" y="36" onmousedown="handleReset()"/>
   <use id="arrowup" xlink:href="#arrowUp" x="0" y="0" onmousedown="handlePan(0,-1)"/>
  <use id="arrowright" xlink:href="#arrowRight" x="0" y="0" onmousedown="handlePan(1,0)"/>
  <use id="arrowdown" xlink:href="#arrowDown" x="0" y="0" onmousedown="handlePan(0,1)"/>
  <use id="arrowleft" xlink:href="#arrowLeft" x="0" y="0" onmousedown="handlePan(-1,0)"/>
</g>
<svg viewBox="0 0 15 15" width="100%" height="30px" preserveAspectRatio="xMaxYMin meet">
 <g id="arrow_out" transform="scale(0.3 0.3)">
  <a xlink:href="classios_a15269e67d05d4fe83a6cf344d542f8ae_icgraph_org.svg" target="_base">
   <rect id="button" ry="5" rx="5" y="6" x="6" height="38" width="38"
        fill="#f2f5e9" fill-opacity="0.5" stroke="#606060" stroke-width="1.0"/>
   <path id="arrow"
     d="M 11.500037,31.436501 C 11.940474,20.09759 22.043105,11.32322 32.158766,21.979434 L 37.068811,17.246167 C 37.068811,17.246167 37.088388,32 37.088388,32 L 22.160133,31.978069 C 22.160133,31.978069 26.997745,27.140456 26.997745,27.140456 C 18.528582,18.264221 13.291696,25.230495 11.500037,31.436501 z"
     style="fill:#404040;"/>
  </a>
 </g>
</svg>

<style type='text/css'>
<![CDATA[
[data-mouse-over-selected='false'] { opacity: 0.7; }
[data-mouse-over-selected='true']  { opacity: 1.0; }
]]>
</style>
<script type="application/ecmascript"><![CDATA[
document.addEventListener('DOMContentLoaded', (event) => {
  highlightEdges();
  highlightAdjacentNodes();
});
]]></script>
</svg>
