<?xml version="1.0" encoding="UTF-8" standalone="no"?>
<!DOCTYPE svg PUBLIC "-//W3C//DTD SVG 1.1//EN"
 "http://www.w3.org/Graphics/SVG/1.1/DTD/svg11.dtd">
<!-- Generated by graphviz version 2.43.0 (0)
 -->
<!-- Title: ExFatPartition::fatPut Pages: 1 -->
<svg width="2068pt" height="568pt"
 viewBox="0.00 0.00 2068.00 567.50" xmlns="http://www.w3.org/2000/svg" xmlns:xlink="http://www.w3.org/1999/xlink">
<g id="graph0" class="graph" transform="scale(1 1) rotate(0) translate(4 563.5)">
<title>ExFatPartition::fatPut</title>
<!-- Node1 -->
<g id="Node000001" class="node">
<title>Node1</title>
<g id="a_Node000001"><a xlink:title=" ">
<polygon fill="#999999" stroke="#666666" points="119,-374.5 0,-374.5 0,-355.5 119,-355.5 119,-374.5"/>
<text text-anchor="middle" x="59.5" y="-362.5" font-family="Helvetica,sans-Serif" font-size="10.00">ExFatPartition::fatPut</text>
</a>
</g>
</g>
<!-- Node2 -->
<g id="Node000002" class="node">
<title>Node2</title>
<g id="a_Node000002"><a xlink:href="../../d0/d63/classExFatPartition.xhtml#a236e1ae2dfd3e7acc8dfa0cbf4658453" target="_top" xlink:title=" ">
<polygon fill="white" stroke="#666666" points="296,-402 155,-402 155,-372 296,-372 296,-402"/>
<text text-anchor="start" x="163" y="-390" font-family="Helvetica,sans-Serif" font-size="10.00">ExFatPartition::dataCache</text>
<text text-anchor="middle" x="225.5" y="-379" font-family="Helvetica,sans-Serif" font-size="10.00">Prepare</text>
</a>
</g>
</g>
<!-- Node1&#45;&gt;Node2 -->
<g id="edge1_Node000001_Node000002" class="edge">
<title>Node1&#45;&gt;Node2</title>
<g id="a_edge1_Node000001_Node000002"><a xlink:title=" ">
<path fill="none" stroke="#63b8ff" d="M119.24,-372.88C127.57,-374 136.24,-375.16 144.88,-376.32"/>
<polygon fill="#63b8ff" stroke="#63b8ff" points="144.6,-379.81 154.98,-377.67 145.53,-372.88 144.6,-379.81"/>
</a>
</g>
</g>
<!-- Node35 -->
<g id="Node000035" class="node">
<title>Node35</title>
<g id="a_Node000035"><a xlink:href="../../dc/d87/FsStructs_8h.xhtml#a294114e9924b0436c1d110e692bef464" target="_top" xlink:title=" ">
<polygon fill="white" stroke="#666666" points="253,-353.5 198,-353.5 198,-334.5 253,-334.5 253,-353.5"/>
<text text-anchor="middle" x="225.5" y="-341.5" font-family="Helvetica,sans-Serif" font-size="10.00">setLe32</text>
</a>
</g>
</g>
<!-- Node1&#45;&gt;Node35 -->
<g id="edge56_Node000001_Node000035" class="edge">
<title>Node1&#45;&gt;Node35</title>
<g id="a_edge56_Node000001_Node000035"><a xlink:title=" ">
<path fill="none" stroke="#63b8ff" d="M119.24,-357.48C142.1,-354.55 167.58,-351.29 187.75,-348.71"/>
<polygon fill="#63b8ff" stroke="#63b8ff" points="188.29,-352.17 197.77,-347.42 187.4,-345.22 188.29,-352.17"/>
</a>
</g>
</g>
<!-- Node3 -->
<g id="Node000003" class="node">
<title>Node3</title>
<g id="a_Node000003"><a xlink:href="../../dd/db1/classFsCache.xhtml#a8c11f064a2ce0a380f522392f09d63cb" target="_top" xlink:title=" ">
<polygon fill="white" stroke="#666666" points="433,-396.5 332,-396.5 332,-377.5 433,-377.5 433,-396.5"/>
<text text-anchor="middle" x="382.5" y="-384.5" font-family="Helvetica,sans-Serif" font-size="10.00">FsCache::prepare</text>
</a>
</g>
</g>
<!-- Node2&#45;&gt;Node3 -->
<g id="edge2_Node000002_Node000003" class="edge">
<title>Node2&#45;&gt;Node3</title>
<g id="a_edge2_Node000002_Node000003"><a xlink:title=" ">
<path fill="none" stroke="#63b8ff" d="M296.29,-387C304.65,-387 313.14,-387 321.35,-387"/>
<polygon fill="#63b8ff" stroke="#63b8ff" points="321.57,-390.5 331.57,-387 321.57,-383.5 321.57,-390.5"/>
</a>
</g>
</g>
<!-- Node4 -->
<g id="Node000004" class="node">
<title>Node4</title>
<g id="a_Node000004"><a xlink:href="../../d8/d7f/classSharedSpiCard.xhtml#a61d86f4092f8ddbc7339d7cbcf6f70c0" target="_top" xlink:title=" ">
<polygon fill="white" stroke="#666666" points="746.5,-446.5 600.5,-446.5 600.5,-427.5 746.5,-427.5 746.5,-446.5"/>
<text text-anchor="middle" x="673.5" y="-434.5" font-family="Helvetica,sans-Serif" font-size="10.00">SharedSpiCard::readSector</text>
</a>
</g>
</g>
<!-- Node3&#45;&gt;Node4 -->
<g id="edge3_Node000003_Node000004" class="edge">
<title>Node3&#45;&gt;Node4</title>
<g id="a_edge3_Node000003_Node000004"><a xlink:title=" ">
<path fill="none" stroke="#63b8ff" d="M423.83,-396.55C438.06,-399.76 454.2,-403.23 469,-406 509.3,-413.54 554.34,-420.54 591.79,-425.98"/>
<polygon fill="#63b8ff" stroke="#63b8ff" points="591.74,-429.51 602.14,-427.47 592.74,-422.58 591.74,-429.51"/>
</a>
</g>
</g>
<!-- Node31 -->
<g id="Node000031" class="node">
<title>Node31</title>
<g id="a_Node000031"><a xlink:href="../../dd/db1/classFsCache.xhtml#a5b90e145400de8687d9f34536b134130" target="_top" xlink:title=" ">
<polygon fill="white" stroke="#666666" points="563,-396.5 469,-396.5 469,-377.5 563,-377.5 563,-396.5"/>
<text text-anchor="middle" x="516" y="-384.5" font-family="Helvetica,sans-Serif" font-size="10.00">FsCache::sector</text>
</a>
</g>
</g>
<!-- Node3&#45;&gt;Node31 -->
<g id="edge42_Node000003_Node000031" class="edge">
<title>Node3&#45;&gt;Node31</title>
<g id="a_edge42_Node000003_Node000031"><a xlink:title=" ">
<path fill="none" stroke="#63b8ff" d="M433.21,-387C441.49,-387 450.12,-387 458.55,-387"/>
<polygon fill="#63b8ff" stroke="#63b8ff" points="458.68,-390.5 468.68,-387 458.68,-383.5 458.68,-390.5"/>
</a>
</g>
</g>
<!-- Node32 -->
<g id="Node000032" class="node">
<title>Node32</title>
<g id="a_Node000032"><a xlink:href="../../dd/db1/classFsCache.xhtml#a5a2c8fb432d7b7590ebb43200ca21893" target="_top" xlink:title=" ">
<polygon fill="white" stroke="#666666" points="559,-340.5 473,-340.5 473,-321.5 559,-321.5 559,-340.5"/>
<text text-anchor="middle" x="516" y="-328.5" font-family="Helvetica,sans-Serif" font-size="10.00">FsCache::sync</text>
</a>
</g>
</g>
<!-- Node3&#45;&gt;Node32 -->
<g id="edge43_Node000003_Node000032" class="edge">
<title>Node3&#45;&gt;Node32</title>
<g id="a_edge43_Node000003_Node000032"><a xlink:title=" ">
<path fill="none" stroke="#63b8ff" d="M406.11,-377.37C427.4,-368.3 459.52,-354.63 483.36,-344.48"/>
<polygon fill="#63b8ff" stroke="#63b8ff" points="484.86,-347.64 492.69,-340.5 482.12,-341.2 484.86,-347.64"/>
</a>
</g>
</g>
<!-- Node5 -->
<g id="Node000005" class="node">
<title>Node5</title>
<g id="a_Node000005"><a xlink:href="../../d8/d7f/classSharedSpiCard.xhtml#adda33199753fc2aec74fe317cbaabc06" target="_top" xlink:title=" ">
<polygon fill="white" stroke="#666666" points="949,-218.5 784,-218.5 784,-199.5 949,-199.5 949,-218.5"/>
<text text-anchor="middle" x="866.5" y="-206.5" font-family="Helvetica,sans-Serif" font-size="10.00">SharedSpiCard::cardCommand</text>
</a>
</g>
</g>
<!-- Node4&#45;&gt;Node5 -->
<g id="edge4_Node000004_Node000005" class="edge">
<title>Node4&#45;&gt;Node5</title>
<g id="a_edge4_Node000004_Node000005"><a xlink:title=" ">
<path fill="none" stroke="#63b8ff" d="M682.46,-427.49C711.65,-392.66 813.01,-271.66 850.99,-226.33"/>
<polygon fill="#63b8ff" stroke="#63b8ff" points="853.76,-228.46 857.5,-218.55 848.4,-223.97 853.76,-228.46"/>
</a>
</g>
</g>
<!-- Node19 -->
<g id="Node000019" class="node">
<title>Node19</title>
<g id="a_Node000019"><a xlink:href="../../d8/d7f/classSharedSpiCard.xhtml#a747c3f0b962098cf0c097f3c4c2b4fd4" target="_top" xlink:title=" ">
<polygon fill="white" stroke="#666666" points="1480.5,-350.5 1363.5,-350.5 1363.5,-331.5 1480.5,-331.5 1480.5,-350.5"/>
<text text-anchor="middle" x="1422" y="-338.5" font-family="Helvetica,sans-Serif" font-size="10.00">SharedSpiCard::error</text>
</a>
</g>
</g>
<!-- Node4&#45;&gt;Node19 -->
<g id="edge37_Node000004_Node000019" class="edge">
<title>Node4&#45;&gt;Node19</title>
<g id="a_edge37_Node000004_Node000019"><a xlink:title=" ">
<path fill="none" stroke="#63b8ff" d="M700.48,-446.6C790.56,-478.21 1095.76,-571.45 1313,-470 1362,-447.12 1396.62,-389.85 1412.03,-359.91"/>
<polygon fill="#63b8ff" stroke="#63b8ff" points="1415.36,-361.07 1416.67,-350.56 1409.09,-357.96 1415.36,-361.07"/>
</a>
</g>
</g>
<!-- Node20 -->
<g id="Node000020" class="node">
<title>Node20</title>
<g id="a_Node000020"><a xlink:href="../../d8/d7f/classSharedSpiCard.xhtml#a0f511c39c50055a4fc97e720933aee3a" target="_top" xlink:title=" ">
<polygon fill="white" stroke="#666666" points="1487,-293.5 1357,-293.5 1357,-274.5 1487,-274.5 1487,-293.5"/>
<text text-anchor="middle" x="1422" y="-281.5" font-family="Helvetica,sans-Serif" font-size="10.00">SharedSpiCard::spiStop</text>
</a>
</g>
</g>
<!-- Node4&#45;&gt;Node20 -->
<g id="edge40_Node000004_Node000020" class="edge">
<title>Node4&#45;&gt;Node20</title>
<g id="a_edge40_Node000004_Node000020"><a xlink:title=" ">
<path fill="none" stroke="#63b8ff" d="M722.15,-446.51C835.18,-466.32 1124.17,-500.63 1313,-378 1337.5,-362.09 1327.5,-342.78 1349,-323 1360.11,-312.78 1374.4,-304.32 1387.31,-297.93"/>
<polygon fill="#63b8ff" stroke="#63b8ff" points="1388.85,-301.07 1396.41,-293.64 1385.87,-294.74 1388.85,-301.07"/>
</a>
</g>
</g>
<!-- Node29 -->
<g id="Node000029" class="node">
<title>Node29</title>
<g id="a_Node000029"><a xlink:href="../../d8/d7f/classSharedSpiCard.xhtml#abeae3cdc162f24c2d450abe4e1ed8340" target="_top" xlink:title=" ">
<polygon fill="white" stroke="#666666" points="936,-541.5 797,-541.5 797,-522.5 936,-522.5 936,-541.5"/>
<text text-anchor="middle" x="866.5" y="-529.5" font-family="Helvetica,sans-Serif" font-size="10.00">SharedSpiCard::readData</text>
</a>
</g>
</g>
<!-- Node4&#45;&gt;Node29 -->
<g id="edge38_Node000004_Node000029" class="edge">
<title>Node4&#45;&gt;Node29</title>
<g id="a_edge38_Node000004_Node000029"><a xlink:title=" ">
<path fill="none" stroke="#63b8ff" d="M686.62,-446.56C706.12,-461.53 746.12,-490.59 784,-508 793.65,-512.43 804.32,-516.27 814.67,-519.5"/>
<polygon fill="#63b8ff" stroke="#63b8ff" points="813.87,-522.91 824.45,-522.41 815.86,-516.2 813.87,-522.91"/>
</a>
</g>
</g>
<!-- Node30 -->
<g id="Node000030" class="node">
<title>Node30</title>
<g id="a_Node000030"><a xlink:href="../../d8/d7f/classSharedSpiCard.xhtml#a7dac2190763d7b4b72163ed7131e8a87" target="_top" xlink:title=" ">
<polygon fill="white" stroke="#666666" points="924.5,-427.5 808.5,-427.5 808.5,-408.5 924.5,-408.5 924.5,-427.5"/>
<text text-anchor="middle" x="866.5" y="-415.5" font-family="Helvetica,sans-Serif" font-size="10.00">SharedSpiCard::type</text>
</a>
</g>
</g>
<!-- Node4&#45;&gt;Node30 -->
<g id="edge41_Node000004_Node000030" class="edge">
<title>Node4&#45;&gt;Node30</title>
<g id="a_edge41_Node000004_Node000030"><a xlink:title=" ">
<path fill="none" stroke="#63b8ff" d="M746.71,-429.82C763.59,-428.14 781.51,-426.35 798.17,-424.7"/>
<polygon fill="#63b8ff" stroke="#63b8ff" points="798.76,-428.16 808.37,-423.68 798.07,-421.19 798.76,-428.16"/>
</a>
</g>
</g>
<!-- Node6 -->
<g id="Node000006" class="node">
<title>Node6</title>
<g id="a_Node000006"><a xlink:href="../../d8/d7f/classSharedSpiCard.xhtml#a08363209d938db87521cca6a84146041" target="_top" xlink:title=" ">
<polygon fill="white" stroke="#666666" points="1685,-79.5 1538,-79.5 1538,-60.5 1685,-60.5 1685,-79.5"/>
<text text-anchor="middle" x="1611.5" y="-67.5" font-family="Helvetica,sans-Serif" font-size="10.00">SharedSpiCard::spiReceive</text>
</a>
</g>
</g>
<!-- Node5&#45;&gt;Node6 -->
<g id="edge5_Node000005_Node000006" class="edge">
<title>Node5&#45;&gt;Node6</title>
<g id="a_edge5_Node000005_Node000006"><a xlink:title=" ">
<path fill="none" stroke="#63b8ff" d="M876.76,-199.34C895.27,-180.72 939.07,-140.19 985,-123 1169.4,-53.97 1405.07,-55.98 1527.8,-63.14"/>
<polygon fill="#63b8ff" stroke="#63b8ff" points="1527.68,-66.64 1537.87,-63.75 1528.11,-59.65 1527.68,-66.64"/>
</a>
</g>
</g>
<!-- Node8 -->
<g id="Node000008" class="node">
<title>Node8</title>
<g id="a_Node000008"><a xlink:href="../../d8/d7f/classSharedSpiCard.xhtml#ab311b9ad8a250f06afbe091f7abb118b" target="_top" xlink:title=" ">
<polygon fill="white" stroke="#666666" points="1677.5,-236.5 1545.5,-236.5 1545.5,-217.5 1677.5,-217.5 1677.5,-236.5"/>
<text text-anchor="middle" x="1611.5" y="-224.5" font-family="Helvetica,sans-Serif" font-size="10.00">SharedSpiCard::spiSend</text>
</a>
</g>
</g>
<!-- Node5&#45;&gt;Node8 -->
<g id="edge7_Node000005_Node000008" class="edge">
<title>Node5&#45;&gt;Node8</title>
<g id="a_edge7_Node000005_Node000008"><a xlink:title=" ">
<path fill="none" stroke="#63b8ff" d="M949.22,-207.84C1038.59,-206.89 1186.02,-206.23 1313,-210 1388.65,-212.24 1474.98,-217.47 1535.09,-221.55"/>
<polygon fill="#63b8ff" stroke="#63b8ff" points="1535.04,-225.05 1545.25,-222.24 1535.52,-218.07 1535.04,-225.05"/>
</a>
</g>
</g>
<!-- Node10 -->
<g id="Node000010" class="node">
<title>Node10</title>
<g id="a_Node000010"><a xlink:href="../../d8/d7f/classSharedSpiCard.xhtml#aef2dfa72e8d5643c90720f9f8c6a4254" target="_top" xlink:title=" ">
<polygon fill="white" stroke="#666666" points="1487.5,-161.5 1356.5,-161.5 1356.5,-142.5 1487.5,-142.5 1487.5,-161.5"/>
<text text-anchor="middle" x="1422" y="-149.5" font-family="Helvetica,sans-Serif" font-size="10.00">SharedSpiCard::spiStart</text>
</a>
</g>
</g>
<!-- Node5&#45;&gt;Node10 -->
<g id="edge9_Node000005_Node000010" class="edge">
<title>Node5&#45;&gt;Node10</title>
<g id="a_edge9_Node000005_Node000010"><a xlink:title=" ">
<path fill="none" stroke="#63b8ff" d="M895.13,-199.39C918.69,-191.64 953.65,-181.2 985,-176 1110.53,-155.18 1258.89,-151.34 1346.17,-151.17"/>
<polygon fill="#63b8ff" stroke="#63b8ff" points="1346.25,-154.67 1356.25,-151.17 1346.25,-147.67 1346.25,-154.67"/>
</a>
</g>
</g>
<!-- Node17 -->
<g id="Node000017" class="node">
<title>Node17</title>
<g id="a_Node000017"><a xlink:href="../../d8/d7f/classSharedSpiCard.xhtml#a2f181b3d6f27413a0f5ee883dfd94d87" target="_top" xlink:title=" ">
<polygon fill="white" stroke="#666666" points="1135,-237.5 985,-237.5 985,-218.5 1135,-218.5 1135,-237.5"/>
<text text-anchor="middle" x="1060" y="-225.5" font-family="Helvetica,sans-Serif" font-size="10.00">SharedSpiCard::syncDevice</text>
</a>
</g>
</g>
<!-- Node5&#45;&gt;Node17 -->
<g id="edge17_Node000005_Node000017" class="edge">
<title>Node5&#45;&gt;Node17</title>
<g id="a_edge17_Node000005_Node000017"><a xlink:title=" ">
<path fill="none" stroke="#63b8ff" d="M949.27,-217.11C957.65,-217.94 966.18,-218.79 974.59,-219.63"/>
<polygon fill="#63b8ff" stroke="#63b8ff" points="974.48,-223.13 984.78,-220.64 975.17,-216.17 974.48,-223.13"/>
</a>
</g>
</g>
<!-- Node25 -->
<g id="Node000025" class="node">
<title>Node25</title>
<g id="a_Node000025"><a xlink:href="../../d8/d7f/classSharedSpiCard.xhtml#ab3468397bb3b12d29dd2f31e45b3dcaf" target="_top" xlink:title=" ">
<polygon fill="white" stroke="#666666" points="1495,-123.5 1349,-123.5 1349,-104.5 1495,-104.5 1495,-123.5"/>
<text text-anchor="middle" x="1422" y="-111.5" font-family="Helvetica,sans-Serif" font-size="10.00">SharedSpiCard::waitReady</text>
</a>
</g>
</g>
<!-- Node5&#45;&gt;Node25 -->
<g id="edge36_Node000005_Node000025" class="edge">
<title>Node5&#45;&gt;Node25</title>
<g id="a_edge36_Node000005_Node000025"><a xlink:title=" ">
<path fill="none" stroke="#63b8ff" d="M883.57,-199.48C905.61,-186.93 946.84,-165.24 985,-155 1105.2,-122.73 1249.94,-114.97 1338.7,-113.56"/>
<polygon fill="#63b8ff" stroke="#63b8ff" points="1338.76,-117.06 1348.71,-113.43 1338.66,-110.06 1338.76,-117.06"/>
</a>
</g>
</g>
<!-- Node7 -->
<g id="Node000007" class="node">
<title>Node7</title>
<g id="a_Node000007"><a xlink:href="../../d0/d25/classSdSpiArduinoDriver.xhtml#a8d6bc852a52e9d69c4b1e48ee062e8d1" target="_top" xlink:title=" ">
<polygon fill="white" stroke="#666666" points="1839,-83 1728,-83 1728,-53 1839,-53 1839,-83"/>
<text text-anchor="start" x="1736" y="-71" font-family="Helvetica,sans-Serif" font-size="10.00">SdSpiArduinoDriver</text>
<text text-anchor="middle" x="1783.5" y="-60" font-family="Helvetica,sans-Serif" font-size="10.00">::receive</text>
</a>
</g>
</g>
<!-- Node6&#45;&gt;Node7 -->
<g id="edge6_Node000006_Node000007" class="edge">
<title>Node6&#45;&gt;Node7</title>
<g id="a_edge6_Node000006_Node000007"><a xlink:title=" ">
<path fill="none" stroke="#63b8ff" d="M1685.09,-69.15C1695.96,-69.02 1707.11,-68.89 1717.81,-68.76"/>
<polygon fill="#63b8ff" stroke="#63b8ff" points="1717.94,-72.26 1727.9,-68.64 1717.86,-65.26 1717.94,-72.26"/>
</a>
</g>
</g>
<!-- Node9 -->
<g id="Node000009" class="node">
<title>Node9</title>
<g id="a_Node000009"><a xlink:href="../../d0/d25/classSdSpiArduinoDriver.xhtml#a3c4842e47f98fe5d3799cd6028778ab5" target="_top" xlink:title=" ">
<polygon fill="white" stroke="#666666" points="1839,-255 1728,-255 1728,-225 1839,-225 1839,-255"/>
<text text-anchor="start" x="1736" y="-243" font-family="Helvetica,sans-Serif" font-size="10.00">SdSpiArduinoDriver</text>
<text text-anchor="middle" x="1783.5" y="-232" font-family="Helvetica,sans-Serif" font-size="10.00">::send</text>
</a>
</g>
</g>
<!-- Node8&#45;&gt;Node9 -->
<g id="edge8_Node000008_Node000009" class="edge">
<title>Node8&#45;&gt;Node9</title>
<g id="a_edge8_Node000008_Node000009"><a xlink:title=" ">
<path fill="none" stroke="#63b8ff" d="M1677.74,-231.99C1690.82,-232.99 1704.56,-234.04 1717.62,-235.04"/>
<polygon fill="#63b8ff" stroke="#63b8ff" points="1717.69,-238.55 1727.93,-235.83 1718.22,-231.57 1717.69,-238.55"/>
</a>
</g>
</g>
<!-- Node10&#45;&gt;Node8 -->
<g id="edge16_Node000010_Node000008" class="edge">
<title>Node10&#45;&gt;Node8</title>
<g id="a_edge16_Node000010_Node000008"><a xlink:title=" ">
<path fill="none" stroke="#63b8ff" d="M1461.67,-161.6C1472.85,-165.23 1484.78,-169.99 1495,-176 1513.71,-187.01 1511.77,-198.93 1531,-209 1534.57,-210.87 1538.32,-212.54 1542.18,-214.04"/>
<polygon fill="#63b8ff" stroke="#63b8ff" points="1541.33,-217.45 1551.93,-217.43 1543.63,-210.84 1541.33,-217.45"/>
</a>
</g>
</g>
<!-- Node11 -->
<g id="Node000011" class="node">
<title>Node11</title>
<g id="a_Node000011"><a xlink:href="../../d8/d7f/classSharedSpiCard.xhtml#a69ee2fe49dfaeea2347d8a265806d2b6" target="_top" xlink:title=" ">
<polygon fill="white" stroke="#666666" points="1686,-161.5 1537,-161.5 1537,-142.5 1686,-142.5 1686,-161.5"/>
<text text-anchor="middle" x="1611.5" y="-149.5" font-family="Helvetica,sans-Serif" font-size="10.00">SharedSpiCard::spiActivate</text>
</a>
</g>
</g>
<!-- Node10&#45;&gt;Node11 -->
<g id="edge10_Node000010_Node000011" class="edge">
<title>Node10&#45;&gt;Node11</title>
<g id="a_edge10_Node000010_Node000011"><a xlink:title=" ">
<path fill="none" stroke="#63b8ff" d="M1487.53,-152C1500.19,-152 1513.64,-152 1526.82,-152"/>
<polygon fill="#63b8ff" stroke="#63b8ff" points="1526.84,-155.5 1536.84,-152 1526.84,-148.5 1526.84,-155.5"/>
</a>
</g>
</g>
<!-- Node13 -->
<g id="Node000013" class="node">
<title>Node13</title>
<g id="a_Node000013"><a xlink:href="../../d8/d7f/classSharedSpiCard.xhtml#a8c3088599862ff6e84ae79bfdf32aea8" target="_top" xlink:title=" ">
<polygon fill="white" stroke="#666666" points="1680.5,-199.5 1542.5,-199.5 1542.5,-180.5 1680.5,-180.5 1680.5,-199.5"/>
<text text-anchor="middle" x="1611.5" y="-187.5" font-family="Helvetica,sans-Serif" font-size="10.00">SharedSpiCard::spiSelect</text>
</a>
</g>
</g>
<!-- Node10&#45;&gt;Node13 -->
<g id="edge12_Node000010_Node000013" class="edge">
<title>Node10&#45;&gt;Node13</title>
<g id="a_edge12_Node000010_Node000013"><a xlink:title=" ">
<path fill="none" stroke="#63b8ff" d="M1470.31,-161.59C1495.61,-166.72 1526.95,-173.07 1553.57,-178.46"/>
<polygon fill="#63b8ff" stroke="#63b8ff" points="1553.03,-181.92 1563.53,-180.48 1554.42,-175.06 1553.03,-181.92"/>
</a>
</g>
</g>
<!-- Node12 -->
<g id="Node000012" class="node">
<title>Node12</title>
<g id="a_Node000012"><a xlink:href="../../d0/d25/classSdSpiArduinoDriver.xhtml#abb6b88c5c8b87fc344a69f23f6eab3d9" target="_top" xlink:title=" ">
<polygon fill="white" stroke="#666666" points="1839,-169 1728,-169 1728,-139 1839,-139 1839,-169"/>
<text text-anchor="start" x="1736" y="-157" font-family="Helvetica,sans-Serif" font-size="10.00">SdSpiArduinoDriver</text>
<text text-anchor="middle" x="1783.5" y="-146" font-family="Helvetica,sans-Serif" font-size="10.00">::activate</text>
</a>
</g>
</g>
<!-- Node11&#45;&gt;Node12 -->
<g id="edge11_Node000011_Node000012" class="edge">
<title>Node11&#45;&gt;Node12</title>
<g id="a_edge11_Node000011_Node000012"><a xlink:title=" ">
<path fill="none" stroke="#63b8ff" d="M1686.08,-152.87C1696.57,-152.99 1707.31,-153.12 1717.63,-153.24"/>
<polygon fill="#63b8ff" stroke="#63b8ff" points="1717.74,-156.74 1727.78,-153.36 1717.82,-149.74 1717.74,-156.74"/>
</a>
</g>
</g>
<!-- Node14 -->
<g id="Node000014" class="node">
<title>Node14</title>
<g id="a_Node000014"><a xlink:href="../../d2/df0/SdSpiChipSelect_8cpp.xhtml#ac469bbe2d31ffde9b00ffc68258d7428" target="_top" xlink:title=" ">
<polygon fill="white" stroke="#666666" points="1816.5,-206.5 1750.5,-206.5 1750.5,-187.5 1816.5,-187.5 1816.5,-206.5"/>
<text text-anchor="middle" x="1783.5" y="-194.5" font-family="Helvetica,sans-Serif" font-size="10.00">sdCsWrite</text>
</a>
</g>
</g>
<!-- Node13&#45;&gt;Node14 -->
<g id="edge13_Node000013_Node000014" class="edge">
<title>Node13&#45;&gt;Node14</title>
<g id="a_edge13_Node000013_Node000014"><a xlink:title=" ">
<path fill="none" stroke="#63b8ff" d="M1680.67,-192.81C1700.74,-193.63 1722.12,-194.51 1740.09,-195.25"/>
<polygon fill="#63b8ff" stroke="#63b8ff" points="1740.1,-198.76 1750.23,-195.67 1740.38,-191.76 1740.1,-198.76"/>
</a>
</g>
</g>
<!-- Node15 -->
<g id="Node000015" class="node">
<title>Node15</title>
<g id="a_Node000015"><a xlink:href="../../d5/d45/wiring__digital_8c.xhtml#a73b9b61feeaf7d790d107f2954a7fd93" target="_top" xlink:title=" ">
<polygon fill="white" stroke="#666666" points="1949,-206.5 1875,-206.5 1875,-187.5 1949,-187.5 1949,-206.5"/>
<text text-anchor="middle" x="1912" y="-194.5" font-family="Helvetica,sans-Serif" font-size="10.00">digitalWrite</text>
</a>
</g>
</g>
<!-- Node14&#45;&gt;Node15 -->
<g id="edge14_Node000014_Node000015" class="edge">
<title>Node14&#45;&gt;Node15</title>
<g id="a_edge14_Node000014_Node000015"><a xlink:title=" ">
<path fill="none" stroke="#63b8ff" d="M1816.75,-197C1831.28,-197 1848.71,-197 1864.61,-197"/>
<polygon fill="#63b8ff" stroke="#63b8ff" points="1864.79,-200.5 1874.79,-197 1864.79,-193.5 1864.79,-200.5"/>
</a>
</g>
</g>
<!-- Node16 -->
<g id="Node000016" class="node">
<title>Node16</title>
<g id="a_Node000016"><a xlink:href="../../d5/d45/wiring__digital_8c.xhtml#ae3d0bcbe4eb927ca8f5d5c21b7e4f224" target="_top" xlink:title=" ">
<polygon fill="white" stroke="#666666" points="2060,-206.5 1985,-206.5 1985,-187.5 2060,-187.5 2060,-206.5"/>
<text text-anchor="middle" x="2022.5" y="-194.5" font-family="Helvetica,sans-Serif" font-size="10.00">turnOffPWM</text>
</a>
</g>
</g>
<!-- Node15&#45;&gt;Node16 -->
<g id="edge15_Node000015_Node000016" class="edge">
<title>Node15&#45;&gt;Node16</title>
<g id="a_edge15_Node000015_Node000016"><a xlink:title=" ">
<path fill="none" stroke="#63b8ff" d="M1949.13,-197C1957.28,-197 1966.05,-197 1974.57,-197"/>
<polygon fill="#63b8ff" stroke="#63b8ff" points="1974.79,-200.5 1984.79,-197 1974.79,-193.5 1974.79,-200.5"/>
</a>
</g>
</g>
<!-- Node18 -->
<g id="Node000018" class="node">
<title>Node18</title>
<g id="a_Node000018"><a xlink:href="../../d8/d7f/classSharedSpiCard.xhtml#ab33ad2aefbb9cff905cad0879dffc78b" target="_top" xlink:title=" ">
<polygon fill="white" stroke="#666666" points="1310.5,-274.5 1173.5,-274.5 1173.5,-255.5 1310.5,-255.5 1310.5,-274.5"/>
<text text-anchor="middle" x="1242" y="-262.5" font-family="Helvetica,sans-Serif" font-size="10.00">SharedSpiCard::readStop</text>
</a>
</g>
</g>
<!-- Node17&#45;&gt;Node18 -->
<g id="edge18_Node000017_Node000018" class="edge">
<title>Node17&#45;&gt;Node18</title>
<g id="a_edge18_Node000017_Node000018"><a xlink:title=" ">
<path fill="none" stroke="#63b8ff" d="M1107.35,-237.53C1130.88,-242.36 1159.66,-248.28 1184.48,-253.38"/>
<polygon fill="#63b8ff" stroke="#63b8ff" points="1183.99,-256.85 1194.49,-255.44 1185.4,-250 1183.99,-256.85"/>
</a>
</g>
</g>
<!-- Node24 -->
<g id="Node000024" class="node">
<title>Node24</title>
<g id="a_Node000024"><a xlink:href="../../d8/d7f/classSharedSpiCard.xhtml#ae9a34a573077e43e7c6028a16ae77fb3" target="_top" xlink:title=" ">
<polygon fill="white" stroke="#666666" points="1312,-237.5 1172,-237.5 1172,-218.5 1312,-218.5 1312,-237.5"/>
<text text-anchor="middle" x="1242" y="-225.5" font-family="Helvetica,sans-Serif" font-size="10.00">SharedSpiCard::writeStop</text>
</a>
</g>
</g>
<!-- Node17&#45;&gt;Node24 -->
<g id="edge27_Node000017_Node000024" class="edge">
<title>Node17&#45;&gt;Node24</title>
<g id="a_edge27_Node000017_Node000024"><a xlink:title=" ">
<path fill="none" stroke="#63b8ff" d="M1135.25,-228C1143.95,-228 1152.86,-228 1161.62,-228"/>
<polygon fill="#63b8ff" stroke="#63b8ff" points="1161.83,-231.5 1171.83,-228 1161.83,-224.5 1161.83,-231.5"/>
</a>
</g>
</g>
<!-- Node18&#45;&gt;Node5 -->
<g id="edge19_Node000018_Node000005" class="edge">
<title>Node18&#45;&gt;Node5</title>
<g id="a_edge19_Node000018_Node000005"><a xlink:title=" ">
<path fill="none" stroke="#63b8ff" d="M1173.31,-264.7C1121.37,-263.39 1048.09,-259.23 985,-247 955.9,-241.36 923.96,-230.73 900.74,-222.14"/>
<polygon fill="#63b8ff" stroke="#63b8ff" points="901.95,-218.86 891.35,-218.61 899.48,-225.41 901.95,-218.86"/>
</a>
</g>
</g>
<!-- Node18&#45;&gt;Node19 -->
<g id="edge20_Node000018_Node000019" class="edge">
<title>Node18&#45;&gt;Node19</title>
<g id="a_edge20_Node000018_Node000019"><a xlink:title=" ">
<path fill="none" stroke="#63b8ff" d="M1265.54,-274.63C1296.84,-287.99 1353.61,-312.23 1389.2,-327.42"/>
<polygon fill="#63b8ff" stroke="#63b8ff" points="1388.07,-330.74 1398.64,-331.45 1390.82,-324.31 1388.07,-330.74"/>
</a>
</g>
</g>
<!-- Node18&#45;&gt;Node20 -->
<g id="edge21_Node000018_Node000020" class="edge">
<title>Node18&#45;&gt;Node20</title>
<g id="a_edge21_Node000018_Node000020"><a xlink:title=" ">
<path fill="none" stroke="#63b8ff" d="M1310.55,-272.21C1322.38,-273.47 1334.75,-274.79 1346.75,-276.07"/>
<polygon fill="#63b8ff" stroke="#63b8ff" points="1346.41,-279.56 1356.73,-277.14 1347.16,-272.6 1346.41,-279.56"/>
</a>
</g>
</g>
<!-- Node20&#45;&gt;Node8 -->
<g id="edge24_Node000020_Node000008" class="edge">
<title>Node20&#45;&gt;Node8</title>
<g id="a_edge24_Node000020_Node000008"><a xlink:title=" ">
<path fill="none" stroke="#63b8ff" d="M1448.07,-274.35C1469.81,-266.18 1502.21,-254.48 1531,-246 1539.41,-243.52 1548.38,-241.14 1557.17,-238.94"/>
<polygon fill="#63b8ff" stroke="#63b8ff" points="1558.08,-242.32 1566.96,-236.54 1556.42,-235.52 1558.08,-242.32"/>
</a>
</g>
</g>
<!-- Node21 -->
<g id="Node000021" class="node">
<title>Node21</title>
<g id="a_Node000021"><a xlink:href="../../d8/d7f/classSharedSpiCard.xhtml#ac6acfca5a23337977d2e4436ab8ab39a" target="_top" xlink:title=" ">
<polygon fill="white" stroke="#666666" points="1692,-310.5 1531,-310.5 1531,-291.5 1692,-291.5 1692,-310.5"/>
<text text-anchor="middle" x="1611.5" y="-298.5" font-family="Helvetica,sans-Serif" font-size="10.00">SharedSpiCard::spiDeactivate</text>
</a>
</g>
</g>
<!-- Node20&#45;&gt;Node21 -->
<g id="edge22_Node000020_Node000021" class="edge">
<title>Node20&#45;&gt;Node21</title>
<g id="a_edge22_Node000020_Node000021"><a xlink:title=" ">
<path fill="none" stroke="#63b8ff" d="M1487,-289.8C1497.92,-290.79 1509.43,-291.84 1520.86,-292.87"/>
<polygon fill="#63b8ff" stroke="#63b8ff" points="1520.59,-296.36 1530.87,-293.78 1521.22,-289.39 1520.59,-296.36"/>
</a>
</g>
</g>
<!-- Node23 -->
<g id="Node000023" class="node">
<title>Node23</title>
<g id="a_Node000023"><a xlink:href="../../d8/d7f/classSharedSpiCard.xhtml#ad06a3278372300987b97876cf598c114" target="_top" xlink:title=" ">
<polygon fill="white" stroke="#666666" points="1687,-273.5 1536,-273.5 1536,-254.5 1687,-254.5 1687,-273.5"/>
<text text-anchor="middle" x="1611.5" y="-261.5" font-family="Helvetica,sans-Serif" font-size="10.00">SharedSpiCard::spiUnselect</text>
</a>
</g>
</g>
<!-- Node20&#45;&gt;Node23 -->
<g id="edge25_Node000020_Node000023" class="edge">
<title>Node20&#45;&gt;Node23</title>
<g id="a_edge25_Node000020_Node000023"><a xlink:title=" ">
<path fill="none" stroke="#63b8ff" d="M1487,-277.17C1499.39,-275.85 1512.55,-274.45 1525.49,-273.07"/>
<polygon fill="#63b8ff" stroke="#63b8ff" points="1526.23,-276.51 1535.8,-271.97 1525.49,-269.55 1526.23,-276.51"/>
</a>
</g>
</g>
<!-- Node22 -->
<g id="Node000022" class="node">
<title>Node22</title>
<g id="a_Node000022"><a xlink:href="../../d0/d25/classSdSpiArduinoDriver.xhtml#ae88a255f533e3acb41d1221025a69b55" target="_top" xlink:title=" ">
<polygon fill="white" stroke="#666666" points="1839,-316 1728,-316 1728,-286 1839,-286 1839,-316"/>
<text text-anchor="start" x="1736" y="-304" font-family="Helvetica,sans-Serif" font-size="10.00">SdSpiArduinoDriver</text>
<text text-anchor="middle" x="1783.5" y="-293" font-family="Helvetica,sans-Serif" font-size="10.00">::deactivate</text>
</a>
</g>
</g>
<!-- Node21&#45;&gt;Node22 -->
<g id="edge23_Node000021_Node000022" class="edge">
<title>Node21&#45;&gt;Node22</title>
<g id="a_edge23_Node000021_Node000022"><a xlink:title=" ">
<path fill="none" stroke="#63b8ff" d="M1692.02,-301C1700.63,-301 1709.3,-301 1717.7,-301"/>
<polygon fill="#63b8ff" stroke="#63b8ff" points="1717.78,-304.5 1727.78,-301 1717.78,-297.5 1717.78,-304.5"/>
</a>
</g>
</g>
<!-- Node23&#45;&gt;Node14 -->
<g id="edge26_Node000023_Node000014" class="edge">
<title>Node23&#45;&gt;Node14</title>
<g id="a_edge26_Node000023_Node000014"><a xlink:title=" ">
<path fill="none" stroke="#63b8ff" d="M1670.08,-254.38C1677.65,-252.14 1685.15,-249.38 1692,-246 1710.67,-236.78 1709.88,-226.26 1728,-216 1731.98,-213.75 1736.28,-211.69 1740.65,-209.84"/>
<polygon fill="#63b8ff" stroke="#63b8ff" points="1742.2,-212.99 1750.25,-206.1 1739.66,-206.47 1742.2,-212.99"/>
</a>
</g>
</g>
<!-- Node24&#45;&gt;Node8 -->
<g id="edge29_Node000024_Node000008" class="edge">
<title>Node24&#45;&gt;Node8</title>
<g id="a_edge29_Node000024_Node000008"><a xlink:title=" ">
<path fill="none" stroke="#63b8ff" d="M1312.12,-227.81C1375.67,-227.64 1469.68,-227.38 1535.14,-227.21"/>
<polygon fill="#63b8ff" stroke="#63b8ff" points="1535.4,-230.7 1545.39,-227.18 1535.38,-223.7 1535.4,-230.7"/>
</a>
</g>
</g>
<!-- Node24&#45;&gt;Node19 -->
<g id="edge28_Node000024_Node000019" class="edge">
<title>Node24&#45;&gt;Node19</title>
<g id="a_edge28_Node000024_Node000019"><a xlink:title=" ">
<path fill="none" stroke="#63b8ff" d="M1295.45,-237.59C1301.69,-240.05 1307.72,-243.13 1313,-247 1336.87,-264.49 1327.2,-282.99 1349,-303 1359.79,-312.9 1373.63,-321.01 1386.3,-327.16"/>
<polygon fill="#63b8ff" stroke="#63b8ff" points="1385.13,-330.48 1395.68,-331.47 1388.06,-324.12 1385.13,-330.48"/>
</a>
</g>
</g>
<!-- Node24&#45;&gt;Node20 -->
<g id="edge30_Node000024_Node000020" class="edge">
<title>Node24&#45;&gt;Node20</title>
<g id="a_edge30_Node000024_Node000020"><a xlink:title=" ">
<path fill="none" stroke="#63b8ff" d="M1279.82,-237.51C1290.56,-240.42 1302.29,-243.71 1313,-247 1337.21,-254.42 1364.16,-263.65 1385.08,-271.04"/>
<polygon fill="#63b8ff" stroke="#63b8ff" points="1383.93,-274.35 1394.53,-274.39 1386.27,-267.75 1383.93,-274.35"/>
</a>
</g>
</g>
<!-- Node24&#45;&gt;Node25 -->
<g id="edge31_Node000024_Node000025" class="edge">
<title>Node24&#45;&gt;Node25</title>
<g id="a_edge31_Node000024_Node000025"><a xlink:title=" ">
<path fill="none" stroke="#63b8ff" d="M1251.01,-218.44C1267.42,-199.46 1306.87,-156.92 1349,-134 1353.91,-131.33 1359.22,-128.99 1364.64,-126.94"/>
<polygon fill="#63b8ff" stroke="#63b8ff" points="1366.13,-130.13 1374.46,-123.58 1363.86,-123.51 1366.13,-130.13"/>
</a>
</g>
</g>
<!-- Node25&#45;&gt;Node6 -->
<g id="edge32_Node000025_Node000006" class="edge">
<title>Node25&#45;&gt;Node6</title>
<g id="a_edge32_Node000025_Node000006"><a xlink:title=" ">
<path fill="none" stroke="#63b8ff" d="M1463.68,-104.45C1491.94,-97.82 1529.79,-88.94 1559.98,-81.86"/>
<polygon fill="#63b8ff" stroke="#63b8ff" points="1560.96,-85.22 1569.89,-79.53 1559.36,-78.41 1560.96,-85.22"/>
</a>
</g>
</g>
<!-- Node26 -->
<g id="Node000026" class="node">
<title>Node26</title>
<g id="a_Node000026"><a xlink:href="../../db/df4/classTimeout.xhtml#abbabe99f42e52472ddd3a7e9d22dce95" target="_top" xlink:title=" ">
<polygon fill="white" stroke="#666666" points="1666,-121.5 1557,-121.5 1557,-102.5 1666,-102.5 1666,-121.5"/>
<text text-anchor="middle" x="1611.5" y="-109.5" font-family="Helvetica,sans-Serif" font-size="10.00">Timeout::timedOut</text>
</a>
</g>
</g>
<!-- Node25&#45;&gt;Node26 -->
<g id="edge33_Node000025_Node000026" class="edge">
<title>Node25&#45;&gt;Node26</title>
<g id="a_edge33_Node000025_Node000026"><a xlink:title=" ">
<path fill="none" stroke="#63b8ff" d="M1495.22,-113.23C1512.23,-113.05 1530.22,-112.86 1546.82,-112.68"/>
<polygon fill="#63b8ff" stroke="#63b8ff" points="1546.98,-116.18 1556.95,-112.57 1546.91,-109.18 1546.98,-116.18"/>
</a>
</g>
</g>
<!-- Node27 -->
<g id="Node000027" class="node">
<title>Node27</title>
<g id="a_Node000027"><a xlink:href="../../db/df4/classTimeout.xhtml#a9a72ea0591f11452fb15bfaa1ae5108a" target="_top" xlink:title=" ">
<polygon fill="white" stroke="#666666" points="1834.5,-120.5 1732.5,-120.5 1732.5,-101.5 1834.5,-101.5 1834.5,-120.5"/>
<text text-anchor="middle" x="1783.5" y="-108.5" font-family="Helvetica,sans-Serif" font-size="10.00">Timeout::millis16</text>
</a>
</g>
</g>
<!-- Node26&#45;&gt;Node27 -->
<g id="edge34_Node000026_Node000027" class="edge">
<title>Node26&#45;&gt;Node27</title>
<g id="a_edge34_Node000026_Node000027"><a xlink:title=" ">
<path fill="none" stroke="#63b8ff" d="M1666.29,-111.68C1684.02,-111.58 1703.85,-111.46 1722.04,-111.36"/>
<polygon fill="#63b8ff" stroke="#63b8ff" points="1722.26,-114.85 1732.24,-111.3 1722.22,-107.85 1722.26,-114.85"/>
</a>
</g>
</g>
<!-- Node28 -->
<g id="Node000028" class="node">
<title>Node28</title>
<g id="a_Node000028"><a xlink:href="../../d5/df3/wiring_8c.xhtml#a6ff7f2532a22366f0013bc41397129fd" target="_top" xlink:title=" ">
<polygon fill="white" stroke="#666666" points="1934,-120.5 1890,-120.5 1890,-101.5 1934,-101.5 1934,-120.5"/>
<text text-anchor="middle" x="1912" y="-108.5" font-family="Helvetica,sans-Serif" font-size="10.00">millis</text>
</a>
</g>
</g>
<!-- Node27&#45;&gt;Node28 -->
<g id="edge35_Node000027_Node000028" class="edge">
<title>Node27&#45;&gt;Node28</title>
<g id="a_edge35_Node000027_Node000028"><a xlink:title=" ">
<path fill="none" stroke="#63b8ff" d="M1834.86,-111C1849.97,-111 1866.11,-111 1879.62,-111"/>
<polygon fill="#63b8ff" stroke="#63b8ff" points="1879.83,-114.5 1889.83,-111 1879.83,-107.5 1879.83,-114.5"/>
</a>
</g>
</g>
<!-- Node29&#45;&gt;Node29 -->
<g id="edge39_Node000029_Node000029" class="edge">
<title>Node29&#45;&gt;Node29</title>
<g id="a_edge39_Node000029_Node000029"><a xlink:title=" ">
<path fill="none" stroke="#63b8ff" d="M836.91,-541.58C822.51,-550.23 832.38,-559.5 866.5,-559.5 889.96,-559.5 901.95,-555.12 902.48,-549.57"/>
<polygon fill="#63b8ff" stroke="#63b8ff" points="905.07,-547.21 896.09,-541.58 899.61,-551.58 905.07,-547.21"/>
</a>
</g>
</g>
<!-- Node33 -->
<g id="Node000033" class="node">
<title>Node33</title>
<g id="a_Node000033"><a xlink:href="../../d8/d7f/classSharedSpiCard.xhtml#adf2ce56ca0a56fe841fbdf75f7f3faee" target="_top" xlink:title=" ">
<polygon fill="white" stroke="#666666" points="748,-318.5 599,-318.5 599,-299.5 748,-299.5 748,-318.5"/>
<text text-anchor="middle" x="673.5" y="-306.5" font-family="Helvetica,sans-Serif" font-size="10.00">SharedSpiCard::writeSector</text>
</a>
</g>
</g>
<!-- Node32&#45;&gt;Node33 -->
<g id="edge44_Node000032_Node000033" class="edge">
<title>Node32&#45;&gt;Node33</title>
<g id="a_edge44_Node000032_Node000033"><a xlink:title=" ">
<path fill="none" stroke="#63b8ff" d="M559.08,-325.05C570.29,-323.46 582.77,-321.69 595.23,-319.93"/>
<polygon fill="#63b8ff" stroke="#63b8ff" points="595.79,-323.39 605.2,-318.52 594.81,-316.46 595.79,-323.39"/>
</a>
</g>
</g>
<!-- Node33&#45;&gt;Node5 -->
<g id="edge45_Node000033_Node000005" class="edge">
<title>Node33&#45;&gt;Node5</title>
<g id="a_edge45_Node000033_Node000005"><a xlink:title=" ">
<path fill="none" stroke="#63b8ff" d="M692.81,-299.41C726.47,-281.79 798.33,-244.17 837.91,-223.44"/>
<polygon fill="#63b8ff" stroke="#63b8ff" points="840.01,-226.3 847.24,-218.56 836.76,-220.1 840.01,-226.3"/>
</a>
</g>
</g>
<!-- Node33&#45;&gt;Node6 -->
<g id="edge47_Node000033_Node000006" class="edge">
<title>Node33&#45;&gt;Node6</title>
<g id="a_edge47_Node000033_Node000006"><a xlink:title=" ">
<path fill="none" stroke="#63b8ff" d="M677.61,-299.29C687.86,-268.66 723.47,-172.97 784,-119 883.4,-30.37 925.83,0 1059,0 1059,0 1059,0 1243,0 1364.39,0 1504.42,-37.31 1571.17,-57.45"/>
<polygon fill="#63b8ff" stroke="#63b8ff" points="1570.27,-60.84 1580.85,-60.41 1572.31,-54.15 1570.27,-60.84"/>
</a>
</g>
</g>
<!-- Node33&#45;&gt;Node19 -->
<g id="edge46_Node000033_Node000019" class="edge">
<title>Node33&#45;&gt;Node19</title>
<g id="a_edge46_Node000033_Node000019"><a xlink:title=" ">
<path fill="none" stroke="#63b8ff" d="M706.23,-318.51C799.67,-345.22 1081.76,-416.51 1313,-378 1340,-373.5 1369.31,-363.09 1390.57,-354.45"/>
<polygon fill="#63b8ff" stroke="#63b8ff" points="1392.14,-357.59 1400.02,-350.51 1389.45,-351.12 1392.14,-357.59"/>
</a>
</g>
</g>
<!-- Node33&#45;&gt;Node20 -->
<g id="edge48_Node000033_Node000020" class="edge">
<title>Node33&#45;&gt;Node20</title>
<g id="a_edge48_Node000033_Node000020"><a xlink:title=" ">
<path fill="none" stroke="#63b8ff" d="M748.12,-306.53C890.82,-301.76 1203.57,-291.28 1346.76,-286.49"/>
<polygon fill="#63b8ff" stroke="#63b8ff" points="1346.9,-289.98 1356.77,-286.15 1346.66,-282.99 1346.9,-289.98"/>
</a>
</g>
</g>
<!-- Node33&#45;&gt;Node25 -->
<g id="edge50_Node000033_Node000025" class="edge">
<title>Node33&#45;&gt;Node25</title>
<g id="a_edge50_Node000033_Node000025"><a xlink:title=" ">
<path fill="none" stroke="#63b8ff" d="M680.96,-299.23C696.23,-276.86 736.84,-221.53 784,-191 959.72,-77.25 1220.69,-89.01 1347.08,-103.3"/>
<polygon fill="#63b8ff" stroke="#63b8ff" points="1346.71,-106.78 1357.04,-104.47 1347.52,-99.83 1346.71,-106.78"/>
</a>
</g>
</g>
<!-- Node33&#45;&gt;Node30 -->
<g id="edge49_Node000033_Node000030" class="edge">
<title>Node33&#45;&gt;Node30</title>
<g id="a_edge49_Node000033_Node000030"><a xlink:title=" ">
<path fill="none" stroke="#63b8ff" d="M684.18,-318.6C702.27,-336.05 743.09,-373.05 784,-394 792.86,-398.54 802.72,-402.35 812.42,-405.51"/>
<polygon fill="#63b8ff" stroke="#63b8ff" points="811.46,-408.87 822.04,-408.45 813.5,-402.18 811.46,-408.87"/>
</a>
</g>
</g>
<!-- Node34 -->
<g id="Node000034" class="node">
<title>Node34</title>
<g id="a_Node000034"><a xlink:href="../../d8/d7f/classSharedSpiCard.xhtml#a5b6d7ad34f56d0d6a6c5059d920499ba" target="_top" xlink:title=" ">
<polygon fill="white" stroke="#666666" points="1313,-350.5 1171,-350.5 1171,-331.5 1313,-331.5 1313,-350.5"/>
<text text-anchor="middle" x="1242" y="-338.5" font-family="Helvetica,sans-Serif" font-size="10.00">SharedSpiCard::writeData</text>
</a>
</g>
</g>
<!-- Node33&#45;&gt;Node34 -->
<g id="edge51_Node000033_Node000034" class="edge">
<title>Node33&#45;&gt;Node34</title>
<g id="a_edge51_Node000033_Node000034"><a xlink:title=" ">
<path fill="none" stroke="#63b8ff" d="M748.1,-315.37C760.1,-316.32 772.39,-317.23 784,-318 915.99,-326.74 1069.61,-333.84 1160.89,-337.74"/>
<polygon fill="#63b8ff" stroke="#63b8ff" points="1160.75,-341.24 1170.89,-338.16 1161.05,-334.24 1160.75,-341.24"/>
</a>
</g>
</g>
<!-- Node34&#45;&gt;Node19 -->
<g id="edge52_Node000034_Node000019" class="edge">
<title>Node34&#45;&gt;Node19</title>
<g id="a_edge52_Node000034_Node000019"><a xlink:title=" ">
<path fill="none" stroke="#63b8ff" d="M1313.09,-341C1326.22,-341 1339.92,-341 1352.99,-341"/>
<polygon fill="#63b8ff" stroke="#63b8ff" points="1353.3,-344.5 1363.3,-341 1353.3,-337.5 1353.3,-344.5"/>
</a>
</g>
</g>
<!-- Node34&#45;&gt;Node20 -->
<g id="edge53_Node000034_Node000020" class="edge">
<title>Node34&#45;&gt;Node20</title>
<g id="a_edge53_Node000034_Node000020"><a xlink:title=" ">
<path fill="none" stroke="#63b8ff" d="M1272.79,-331.46C1302.57,-321.92 1348.53,-307.21 1381.37,-296.69"/>
<polygon fill="#63b8ff" stroke="#63b8ff" points="1382.65,-299.95 1391.11,-293.57 1380.52,-293.29 1382.65,-299.95"/>
</a>
</g>
</g>
<!-- Node34&#45;&gt;Node25 -->
<g id="edge54_Node000034_Node000025" class="edge">
<title>Node34&#45;&gt;Node25</title>
<g id="a_edge54_Node000034_Node000025"><a xlink:title=" ">
<path fill="none" stroke="#63b8ff" d="M1260.43,-331.36C1276.54,-321.55 1299.9,-304.83 1313,-284 1349.5,-225.97 1301.39,-183.33 1349,-134 1350.81,-132.12 1352.79,-130.41 1354.88,-128.86"/>
<polygon fill="#63b8ff" stroke="#63b8ff" points="1356.78,-131.81 1363.51,-123.63 1353.14,-125.83 1356.78,-131.81"/>
</a>
</g>
</g>
<!-- Node34&#45;&gt;Node34 -->
<g id="edge55_Node000034_Node000034" class="edge">
<title>Node34&#45;&gt;Node34</title>
<g id="a_edge55_Node000034_Node000034"><a xlink:title=" ">
<path fill="none" stroke="#63b8ff" d="M1214.26,-350.58C1200.76,-359.23 1210.01,-368.5 1242,-368.5 1263.49,-368.5 1274.72,-364.32 1275.68,-358.95"/>
<polygon fill="#63b8ff" stroke="#63b8ff" points="1278.39,-356.71 1269.74,-350.58 1272.68,-360.76 1278.39,-356.71"/>
</a>
</g>
</g>
</g>
</svg>
