<?xml version="1.0" encoding="UTF-8" standalone="no"?>
<!DOCTYPE svg PUBLIC "-//W3C//DTD SVG 1.1//EN"
 "http://www.w3.org/Graphics/SVG/1.1/DTD/svg11.dtd">
<!-- Generated by graphviz version 2.43.0 (0)
 -->
<!-- Title: ExFatPartition::bitmapFind Pages: 1 -->
<svg width="2106pt" height="568pt"
 viewBox="0.00 0.00 2106.00 567.50" xmlns="http://www.w3.org/2000/svg" xmlns:xlink="http://www.w3.org/1999/xlink">
<g id="graph0" class="graph" transform="scale(1 1) rotate(0) translate(4 563.5)">
<title>ExFatPartition::bitmapFind</title>
<!-- Node1 -->
<g id="Node000001" class="node">
<title>Node1</title>
<g id="a_Node000001"><a xlink:title=" ">
<polygon fill="#999999" stroke="#666666" points="144,-396.5 0,-396.5 0,-377.5 144,-377.5 144,-396.5"/>
<text text-anchor="middle" x="72" y="-384.5" font-family="Helvetica,sans-Serif" font-size="10.00">ExFatPartition::bitmapFind</text>
</a>
</g>
</g>
<!-- Node2 -->
<g id="Node000002" class="node">
<title>Node2</title>
<g id="a_Node000002"><a xlink:href="../../d0/d63/classExFatPartition.xhtml#a0299f160b40f231a6693231a061dcdda" target="_top" xlink:title=" ">
<polygon fill="white" stroke="#666666" points="334,-402 180,-402 180,-372 334,-372 334,-402"/>
<text text-anchor="start" x="188" y="-390" font-family="Helvetica,sans-Serif" font-size="10.00">ExFatPartition::bitmapCache</text>
<text text-anchor="middle" x="257" y="-379" font-family="Helvetica,sans-Serif" font-size="10.00">Prepare</text>
</a>
</g>
</g>
<!-- Node1&#45;&gt;Node2 -->
<g id="edge1_Node000001_Node000002" class="edge">
<title>Node1&#45;&gt;Node2</title>
<g id="a_edge1_Node000001_Node000002"><a xlink:title=" ">
<path fill="none" stroke="#63b8ff" d="M144.01,-387C152.46,-387 161.16,-387 169.79,-387"/>
<polygon fill="#63b8ff" stroke="#63b8ff" points="169.87,-390.5 179.87,-387 169.87,-383.5 169.87,-390.5"/>
</a>
</g>
</g>
<!-- Node3 -->
<g id="Node000003" class="node">
<title>Node3</title>
<g id="a_Node000003"><a xlink:href="../../dd/db1/classFsCache.xhtml#a8c11f064a2ce0a380f522392f09d63cb" target="_top" xlink:title=" ">
<polygon fill="white" stroke="#666666" points="471,-396.5 370,-396.5 370,-377.5 471,-377.5 471,-396.5"/>
<text text-anchor="middle" x="420.5" y="-384.5" font-family="Helvetica,sans-Serif" font-size="10.00">FsCache::prepare</text>
</a>
</g>
</g>
<!-- Node2&#45;&gt;Node3 -->
<g id="edge2_Node000002_Node000003" class="edge">
<title>Node2&#45;&gt;Node3</title>
<g id="a_edge2_Node000002_Node000003"><a xlink:title=" ">
<path fill="none" stroke="#63b8ff" d="M334.02,-387C342.63,-387 351.31,-387 359.67,-387"/>
<polygon fill="#63b8ff" stroke="#63b8ff" points="359.68,-390.5 369.68,-387 359.68,-383.5 359.68,-390.5"/>
</a>
</g>
</g>
<!-- Node4 -->
<g id="Node000004" class="node">
<title>Node4</title>
<g id="a_Node000004"><a xlink:href="../../d8/d7f/classSharedSpiCard.xhtml#a61d86f4092f8ddbc7339d7cbcf6f70c0" target="_top" xlink:title=" ">
<polygon fill="white" stroke="#666666" points="784.5,-446.5 638.5,-446.5 638.5,-427.5 784.5,-427.5 784.5,-446.5"/>
<text text-anchor="middle" x="711.5" y="-434.5" font-family="Helvetica,sans-Serif" font-size="10.00">SharedSpiCard::readSector</text>
</a>
</g>
</g>
<!-- Node3&#45;&gt;Node4 -->
<g id="edge3_Node000003_Node000004" class="edge">
<title>Node3&#45;&gt;Node4</title>
<g id="a_edge3_Node000003_Node000004"><a xlink:title=" ">
<path fill="none" stroke="#63b8ff" d="M461.83,-396.55C476.06,-399.76 492.2,-403.23 507,-406 547.3,-413.54 592.34,-420.54 629.79,-425.98"/>
<polygon fill="#63b8ff" stroke="#63b8ff" points="629.74,-429.51 640.14,-427.47 630.74,-422.58 629.74,-429.51"/>
</a>
</g>
</g>
<!-- Node31 -->
<g id="Node000031" class="node">
<title>Node31</title>
<g id="a_Node000031"><a xlink:href="../../dd/db1/classFsCache.xhtml#a5b90e145400de8687d9f34536b134130" target="_top" xlink:title=" ">
<polygon fill="white" stroke="#666666" points="601,-396.5 507,-396.5 507,-377.5 601,-377.5 601,-396.5"/>
<text text-anchor="middle" x="554" y="-384.5" font-family="Helvetica,sans-Serif" font-size="10.00">FsCache::sector</text>
</a>
</g>
</g>
<!-- Node3&#45;&gt;Node31 -->
<g id="edge42_Node000003_Node000031" class="edge">
<title>Node3&#45;&gt;Node31</title>
<g id="a_edge42_Node000003_Node000031"><a xlink:title=" ">
<path fill="none" stroke="#63b8ff" d="M471.21,-387C479.49,-387 488.12,-387 496.55,-387"/>
<polygon fill="#63b8ff" stroke="#63b8ff" points="496.68,-390.5 506.68,-387 496.68,-383.5 496.68,-390.5"/>
</a>
</g>
</g>
<!-- Node32 -->
<g id="Node000032" class="node">
<title>Node32</title>
<g id="a_Node000032"><a xlink:href="../../dd/db1/classFsCache.xhtml#a5a2c8fb432d7b7590ebb43200ca21893" target="_top" xlink:title=" ">
<polygon fill="white" stroke="#666666" points="597,-340.5 511,-340.5 511,-321.5 597,-321.5 597,-340.5"/>
<text text-anchor="middle" x="554" y="-328.5" font-family="Helvetica,sans-Serif" font-size="10.00">FsCache::sync</text>
</a>
</g>
</g>
<!-- Node3&#45;&gt;Node32 -->
<g id="edge43_Node000003_Node000032" class="edge">
<title>Node3&#45;&gt;Node32</title>
<g id="a_edge43_Node000003_Node000032"><a xlink:title=" ">
<path fill="none" stroke="#63b8ff" d="M444.11,-377.37C465.4,-368.3 497.52,-354.63 521.36,-344.48"/>
<polygon fill="#63b8ff" stroke="#63b8ff" points="522.86,-347.64 530.69,-340.5 520.12,-341.2 522.86,-347.64"/>
</a>
</g>
</g>
<!-- Node5 -->
<g id="Node000005" class="node">
<title>Node5</title>
<g id="a_Node000005"><a xlink:href="../../d8/d7f/classSharedSpiCard.xhtml#adda33199753fc2aec74fe317cbaabc06" target="_top" xlink:title=" ">
<polygon fill="white" stroke="#666666" points="987,-218.5 822,-218.5 822,-199.5 987,-199.5 987,-218.5"/>
<text text-anchor="middle" x="904.5" y="-206.5" font-family="Helvetica,sans-Serif" font-size="10.00">SharedSpiCard::cardCommand</text>
</a>
</g>
</g>
<!-- Node4&#45;&gt;Node5 -->
<g id="edge4_Node000004_Node000005" class="edge">
<title>Node4&#45;&gt;Node5</title>
<g id="a_edge4_Node000004_Node000005"><a xlink:title=" ">
<path fill="none" stroke="#63b8ff" d="M720.46,-427.49C749.65,-392.66 851.01,-271.66 888.99,-226.33"/>
<polygon fill="#63b8ff" stroke="#63b8ff" points="891.76,-228.46 895.5,-218.55 886.4,-223.97 891.76,-228.46"/>
</a>
</g>
</g>
<!-- Node19 -->
<g id="Node000019" class="node">
<title>Node19</title>
<g id="a_Node000019"><a xlink:href="../../d8/d7f/classSharedSpiCard.xhtml#a747c3f0b962098cf0c097f3c4c2b4fd4" target="_top" xlink:title=" ">
<polygon fill="white" stroke="#666666" points="1518.5,-350.5 1401.5,-350.5 1401.5,-331.5 1518.5,-331.5 1518.5,-350.5"/>
<text text-anchor="middle" x="1460" y="-338.5" font-family="Helvetica,sans-Serif" font-size="10.00">SharedSpiCard::error</text>
</a>
</g>
</g>
<!-- Node4&#45;&gt;Node19 -->
<g id="edge37_Node000004_Node000019" class="edge">
<title>Node4&#45;&gt;Node19</title>
<g id="a_edge37_Node000004_Node000019"><a xlink:title=" ">
<path fill="none" stroke="#63b8ff" d="M738.48,-446.6C828.56,-478.21 1133.76,-571.45 1351,-470 1400,-447.12 1434.62,-389.85 1450.03,-359.91"/>
<polygon fill="#63b8ff" stroke="#63b8ff" points="1453.36,-361.07 1454.67,-350.56 1447.09,-357.96 1453.36,-361.07"/>
</a>
</g>
</g>
<!-- Node20 -->
<g id="Node000020" class="node">
<title>Node20</title>
<g id="a_Node000020"><a xlink:href="../../d8/d7f/classSharedSpiCard.xhtml#a0f511c39c50055a4fc97e720933aee3a" target="_top" xlink:title=" ">
<polygon fill="white" stroke="#666666" points="1525,-293.5 1395,-293.5 1395,-274.5 1525,-274.5 1525,-293.5"/>
<text text-anchor="middle" x="1460" y="-281.5" font-family="Helvetica,sans-Serif" font-size="10.00">SharedSpiCard::spiStop</text>
</a>
</g>
</g>
<!-- Node4&#45;&gt;Node20 -->
<g id="edge40_Node000004_Node000020" class="edge">
<title>Node4&#45;&gt;Node20</title>
<g id="a_edge40_Node000004_Node000020"><a xlink:title=" ">
<path fill="none" stroke="#63b8ff" d="M760.15,-446.51C873.18,-466.32 1162.17,-500.63 1351,-378 1375.5,-362.09 1365.5,-342.78 1387,-323 1398.11,-312.78 1412.4,-304.32 1425.31,-297.93"/>
<polygon fill="#63b8ff" stroke="#63b8ff" points="1426.85,-301.07 1434.41,-293.64 1423.87,-294.74 1426.85,-301.07"/>
</a>
</g>
</g>
<!-- Node29 -->
<g id="Node000029" class="node">
<title>Node29</title>
<g id="a_Node000029"><a xlink:href="../../d8/d7f/classSharedSpiCard.xhtml#abeae3cdc162f24c2d450abe4e1ed8340" target="_top" xlink:title=" ">
<polygon fill="white" stroke="#666666" points="974,-541.5 835,-541.5 835,-522.5 974,-522.5 974,-541.5"/>
<text text-anchor="middle" x="904.5" y="-529.5" font-family="Helvetica,sans-Serif" font-size="10.00">SharedSpiCard::readData</text>
</a>
</g>
</g>
<!-- Node4&#45;&gt;Node29 -->
<g id="edge38_Node000004_Node000029" class="edge">
<title>Node4&#45;&gt;Node29</title>
<g id="a_edge38_Node000004_Node000029"><a xlink:title=" ">
<path fill="none" stroke="#63b8ff" d="M724.62,-446.56C744.12,-461.53 784.12,-490.59 822,-508 831.65,-512.43 842.32,-516.27 852.67,-519.5"/>
<polygon fill="#63b8ff" stroke="#63b8ff" points="851.87,-522.91 862.45,-522.41 853.86,-516.2 851.87,-522.91"/>
</a>
</g>
</g>
<!-- Node30 -->
<g id="Node000030" class="node">
<title>Node30</title>
<g id="a_Node000030"><a xlink:href="../../d8/d7f/classSharedSpiCard.xhtml#a7dac2190763d7b4b72163ed7131e8a87" target="_top" xlink:title=" ">
<polygon fill="white" stroke="#666666" points="962.5,-427.5 846.5,-427.5 846.5,-408.5 962.5,-408.5 962.5,-427.5"/>
<text text-anchor="middle" x="904.5" y="-415.5" font-family="Helvetica,sans-Serif" font-size="10.00">SharedSpiCard::type</text>
</a>
</g>
</g>
<!-- Node4&#45;&gt;Node30 -->
<g id="edge41_Node000004_Node000030" class="edge">
<title>Node4&#45;&gt;Node30</title>
<g id="a_edge41_Node000004_Node000030"><a xlink:title=" ">
<path fill="none" stroke="#63b8ff" d="M784.71,-429.82C801.59,-428.14 819.51,-426.35 836.17,-424.7"/>
<polygon fill="#63b8ff" stroke="#63b8ff" points="836.76,-428.16 846.37,-423.68 836.07,-421.19 836.76,-428.16"/>
</a>
</g>
</g>
<!-- Node6 -->
<g id="Node000006" class="node">
<title>Node6</title>
<g id="a_Node000006"><a xlink:href="../../d8/d7f/classSharedSpiCard.xhtml#a08363209d938db87521cca6a84146041" target="_top" xlink:title=" ">
<polygon fill="white" stroke="#666666" points="1723,-79.5 1576,-79.5 1576,-60.5 1723,-60.5 1723,-79.5"/>
<text text-anchor="middle" x="1649.5" y="-67.5" font-family="Helvetica,sans-Serif" font-size="10.00">SharedSpiCard::spiReceive</text>
</a>
</g>
</g>
<!-- Node5&#45;&gt;Node6 -->
<g id="edge5_Node000005_Node000006" class="edge">
<title>Node5&#45;&gt;Node6</title>
<g id="a_edge5_Node000005_Node000006"><a xlink:title=" ">
<path fill="none" stroke="#63b8ff" d="M914.76,-199.34C933.27,-180.72 977.07,-140.19 1023,-123 1207.4,-53.97 1443.07,-55.98 1565.8,-63.14"/>
<polygon fill="#63b8ff" stroke="#63b8ff" points="1565.68,-66.64 1575.87,-63.75 1566.11,-59.65 1565.68,-66.64"/>
</a>
</g>
</g>
<!-- Node8 -->
<g id="Node000008" class="node">
<title>Node8</title>
<g id="a_Node000008"><a xlink:href="../../d8/d7f/classSharedSpiCard.xhtml#ab311b9ad8a250f06afbe091f7abb118b" target="_top" xlink:title=" ">
<polygon fill="white" stroke="#666666" points="1715.5,-236.5 1583.5,-236.5 1583.5,-217.5 1715.5,-217.5 1715.5,-236.5"/>
<text text-anchor="middle" x="1649.5" y="-224.5" font-family="Helvetica,sans-Serif" font-size="10.00">SharedSpiCard::spiSend</text>
</a>
</g>
</g>
<!-- Node5&#45;&gt;Node8 -->
<g id="edge7_Node000005_Node000008" class="edge">
<title>Node5&#45;&gt;Node8</title>
<g id="a_edge7_Node000005_Node000008"><a xlink:title=" ">
<path fill="none" stroke="#63b8ff" d="M987.22,-207.84C1076.59,-206.89 1224.02,-206.23 1351,-210 1426.65,-212.24 1512.98,-217.47 1573.09,-221.55"/>
<polygon fill="#63b8ff" stroke="#63b8ff" points="1573.04,-225.05 1583.25,-222.24 1573.52,-218.07 1573.04,-225.05"/>
</a>
</g>
</g>
<!-- Node10 -->
<g id="Node000010" class="node">
<title>Node10</title>
<g id="a_Node000010"><a xlink:href="../../d8/d7f/classSharedSpiCard.xhtml#aef2dfa72e8d5643c90720f9f8c6a4254" target="_top" xlink:title=" ">
<polygon fill="white" stroke="#666666" points="1525.5,-161.5 1394.5,-161.5 1394.5,-142.5 1525.5,-142.5 1525.5,-161.5"/>
<text text-anchor="middle" x="1460" y="-149.5" font-family="Helvetica,sans-Serif" font-size="10.00">SharedSpiCard::spiStart</text>
</a>
</g>
</g>
<!-- Node5&#45;&gt;Node10 -->
<g id="edge9_Node000005_Node000010" class="edge">
<title>Node5&#45;&gt;Node10</title>
<g id="a_edge9_Node000005_Node000010"><a xlink:title=" ">
<path fill="none" stroke="#63b8ff" d="M933.13,-199.39C956.69,-191.64 991.65,-181.2 1023,-176 1148.53,-155.18 1296.89,-151.34 1384.17,-151.17"/>
<polygon fill="#63b8ff" stroke="#63b8ff" points="1384.25,-154.67 1394.25,-151.17 1384.25,-147.67 1384.25,-154.67"/>
</a>
</g>
</g>
<!-- Node17 -->
<g id="Node000017" class="node">
<title>Node17</title>
<g id="a_Node000017"><a xlink:href="../../d8/d7f/classSharedSpiCard.xhtml#a2f181b3d6f27413a0f5ee883dfd94d87" target="_top" xlink:title=" ">
<polygon fill="white" stroke="#666666" points="1173,-237.5 1023,-237.5 1023,-218.5 1173,-218.5 1173,-237.5"/>
<text text-anchor="middle" x="1098" y="-225.5" font-family="Helvetica,sans-Serif" font-size="10.00">SharedSpiCard::syncDevice</text>
</a>
</g>
</g>
<!-- Node5&#45;&gt;Node17 -->
<g id="edge17_Node000005_Node000017" class="edge">
<title>Node5&#45;&gt;Node17</title>
<g id="a_edge17_Node000005_Node000017"><a xlink:title=" ">
<path fill="none" stroke="#63b8ff" d="M987.27,-217.11C995.65,-217.94 1004.18,-218.79 1012.59,-219.63"/>
<polygon fill="#63b8ff" stroke="#63b8ff" points="1012.48,-223.13 1022.78,-220.64 1013.17,-216.17 1012.48,-223.13"/>
</a>
</g>
</g>
<!-- Node25 -->
<g id="Node000025" class="node">
<title>Node25</title>
<g id="a_Node000025"><a xlink:href="../../d8/d7f/classSharedSpiCard.xhtml#ab3468397bb3b12d29dd2f31e45b3dcaf" target="_top" xlink:title=" ">
<polygon fill="white" stroke="#666666" points="1533,-123.5 1387,-123.5 1387,-104.5 1533,-104.5 1533,-123.5"/>
<text text-anchor="middle" x="1460" y="-111.5" font-family="Helvetica,sans-Serif" font-size="10.00">SharedSpiCard::waitReady</text>
</a>
</g>
</g>
<!-- Node5&#45;&gt;Node25 -->
<g id="edge36_Node000005_Node000025" class="edge">
<title>Node5&#45;&gt;Node25</title>
<g id="a_edge36_Node000005_Node000025"><a xlink:title=" ">
<path fill="none" stroke="#63b8ff" d="M921.57,-199.48C943.61,-186.93 984.84,-165.24 1023,-155 1143.2,-122.73 1287.94,-114.97 1376.7,-113.56"/>
<polygon fill="#63b8ff" stroke="#63b8ff" points="1376.76,-117.06 1386.71,-113.43 1376.66,-110.06 1376.76,-117.06"/>
</a>
</g>
</g>
<!-- Node7 -->
<g id="Node000007" class="node">
<title>Node7</title>
<g id="a_Node000007"><a xlink:href="../../d0/d25/classSdSpiArduinoDriver.xhtml#a8d6bc852a52e9d69c4b1e48ee062e8d1" target="_top" xlink:title=" ">
<polygon fill="white" stroke="#666666" points="1877,-83 1766,-83 1766,-53 1877,-53 1877,-83"/>
<text text-anchor="start" x="1774" y="-71" font-family="Helvetica,sans-Serif" font-size="10.00">SdSpiArduinoDriver</text>
<text text-anchor="middle" x="1821.5" y="-60" font-family="Helvetica,sans-Serif" font-size="10.00">::receive</text>
</a>
</g>
</g>
<!-- Node6&#45;&gt;Node7 -->
<g id="edge6_Node000006_Node000007" class="edge">
<title>Node6&#45;&gt;Node7</title>
<g id="a_edge6_Node000006_Node000007"><a xlink:title=" ">
<path fill="none" stroke="#63b8ff" d="M1723.09,-69.15C1733.96,-69.02 1745.11,-68.89 1755.81,-68.76"/>
<polygon fill="#63b8ff" stroke="#63b8ff" points="1755.94,-72.26 1765.9,-68.64 1755.86,-65.26 1755.94,-72.26"/>
</a>
</g>
</g>
<!-- Node9 -->
<g id="Node000009" class="node">
<title>Node9</title>
<g id="a_Node000009"><a xlink:href="../../d0/d25/classSdSpiArduinoDriver.xhtml#a3c4842e47f98fe5d3799cd6028778ab5" target="_top" xlink:title=" ">
<polygon fill="white" stroke="#666666" points="1877,-255 1766,-255 1766,-225 1877,-225 1877,-255"/>
<text text-anchor="start" x="1774" y="-243" font-family="Helvetica,sans-Serif" font-size="10.00">SdSpiArduinoDriver</text>
<text text-anchor="middle" x="1821.5" y="-232" font-family="Helvetica,sans-Serif" font-size="10.00">::send</text>
</a>
</g>
</g>
<!-- Node8&#45;&gt;Node9 -->
<g id="edge8_Node000008_Node000009" class="edge">
<title>Node8&#45;&gt;Node9</title>
<g id="a_edge8_Node000008_Node000009"><a xlink:title=" ">
<path fill="none" stroke="#63b8ff" d="M1715.74,-231.99C1728.82,-232.99 1742.56,-234.04 1755.62,-235.04"/>
<polygon fill="#63b8ff" stroke="#63b8ff" points="1755.69,-238.55 1765.93,-235.83 1756.22,-231.57 1755.69,-238.55"/>
</a>
</g>
</g>
<!-- Node10&#45;&gt;Node8 -->
<g id="edge16_Node000010_Node000008" class="edge">
<title>Node10&#45;&gt;Node8</title>
<g id="a_edge16_Node000010_Node000008"><a xlink:title=" ">
<path fill="none" stroke="#63b8ff" d="M1499.67,-161.6C1510.85,-165.23 1522.78,-169.99 1533,-176 1551.71,-187.01 1549.77,-198.93 1569,-209 1572.57,-210.87 1576.32,-212.54 1580.18,-214.04"/>
<polygon fill="#63b8ff" stroke="#63b8ff" points="1579.33,-217.45 1589.93,-217.43 1581.63,-210.84 1579.33,-217.45"/>
</a>
</g>
</g>
<!-- Node11 -->
<g id="Node000011" class="node">
<title>Node11</title>
<g id="a_Node000011"><a xlink:href="../../d8/d7f/classSharedSpiCard.xhtml#a69ee2fe49dfaeea2347d8a265806d2b6" target="_top" xlink:title=" ">
<polygon fill="white" stroke="#666666" points="1724,-161.5 1575,-161.5 1575,-142.5 1724,-142.5 1724,-161.5"/>
<text text-anchor="middle" x="1649.5" y="-149.5" font-family="Helvetica,sans-Serif" font-size="10.00">SharedSpiCard::spiActivate</text>
</a>
</g>
</g>
<!-- Node10&#45;&gt;Node11 -->
<g id="edge10_Node000010_Node000011" class="edge">
<title>Node10&#45;&gt;Node11</title>
<g id="a_edge10_Node000010_Node000011"><a xlink:title=" ">
<path fill="none" stroke="#63b8ff" d="M1525.53,-152C1538.19,-152 1551.64,-152 1564.82,-152"/>
<polygon fill="#63b8ff" stroke="#63b8ff" points="1564.84,-155.5 1574.84,-152 1564.84,-148.5 1564.84,-155.5"/>
</a>
</g>
</g>
<!-- Node13 -->
<g id="Node000013" class="node">
<title>Node13</title>
<g id="a_Node000013"><a xlink:href="../../d8/d7f/classSharedSpiCard.xhtml#a8c3088599862ff6e84ae79bfdf32aea8" target="_top" xlink:title=" ">
<polygon fill="white" stroke="#666666" points="1718.5,-199.5 1580.5,-199.5 1580.5,-180.5 1718.5,-180.5 1718.5,-199.5"/>
<text text-anchor="middle" x="1649.5" y="-187.5" font-family="Helvetica,sans-Serif" font-size="10.00">SharedSpiCard::spiSelect</text>
</a>
</g>
</g>
<!-- Node10&#45;&gt;Node13 -->
<g id="edge12_Node000010_Node000013" class="edge">
<title>Node10&#45;&gt;Node13</title>
<g id="a_edge12_Node000010_Node000013"><a xlink:title=" ">
<path fill="none" stroke="#63b8ff" d="M1508.31,-161.59C1533.61,-166.72 1564.95,-173.07 1591.57,-178.46"/>
<polygon fill="#63b8ff" stroke="#63b8ff" points="1591.03,-181.92 1601.53,-180.48 1592.42,-175.06 1591.03,-181.92"/>
</a>
</g>
</g>
<!-- Node12 -->
<g id="Node000012" class="node">
<title>Node12</title>
<g id="a_Node000012"><a xlink:href="../../d0/d25/classSdSpiArduinoDriver.xhtml#abb6b88c5c8b87fc344a69f23f6eab3d9" target="_top" xlink:title=" ">
<polygon fill="white" stroke="#666666" points="1877,-169 1766,-169 1766,-139 1877,-139 1877,-169"/>
<text text-anchor="start" x="1774" y="-157" font-family="Helvetica,sans-Serif" font-size="10.00">SdSpiArduinoDriver</text>
<text text-anchor="middle" x="1821.5" y="-146" font-family="Helvetica,sans-Serif" font-size="10.00">::activate</text>
</a>
</g>
</g>
<!-- Node11&#45;&gt;Node12 -->
<g id="edge11_Node000011_Node000012" class="edge">
<title>Node11&#45;&gt;Node12</title>
<g id="a_edge11_Node000011_Node000012"><a xlink:title=" ">
<path fill="none" stroke="#63b8ff" d="M1724.08,-152.87C1734.57,-152.99 1745.31,-153.12 1755.63,-153.24"/>
<polygon fill="#63b8ff" stroke="#63b8ff" points="1755.74,-156.74 1765.78,-153.36 1755.82,-149.74 1755.74,-156.74"/>
</a>
</g>
</g>
<!-- Node14 -->
<g id="Node000014" class="node">
<title>Node14</title>
<g id="a_Node000014"><a xlink:href="../../d2/df0/SdSpiChipSelect_8cpp.xhtml#ac469bbe2d31ffde9b00ffc68258d7428" target="_top" xlink:title=" ">
<polygon fill="white" stroke="#666666" points="1854.5,-206.5 1788.5,-206.5 1788.5,-187.5 1854.5,-187.5 1854.5,-206.5"/>
<text text-anchor="middle" x="1821.5" y="-194.5" font-family="Helvetica,sans-Serif" font-size="10.00">sdCsWrite</text>
</a>
</g>
</g>
<!-- Node13&#45;&gt;Node14 -->
<g id="edge13_Node000013_Node000014" class="edge">
<title>Node13&#45;&gt;Node14</title>
<g id="a_edge13_Node000013_Node000014"><a xlink:title=" ">
<path fill="none" stroke="#63b8ff" d="M1718.67,-192.81C1738.74,-193.63 1760.12,-194.51 1778.09,-195.25"/>
<polygon fill="#63b8ff" stroke="#63b8ff" points="1778.1,-198.76 1788.23,-195.67 1778.38,-191.76 1778.1,-198.76"/>
</a>
</g>
</g>
<!-- Node15 -->
<g id="Node000015" class="node">
<title>Node15</title>
<g id="a_Node000015"><a xlink:href="../../d5/d45/wiring__digital_8c.xhtml#a73b9b61feeaf7d790d107f2954a7fd93" target="_top" xlink:title=" ">
<polygon fill="white" stroke="#666666" points="1987,-206.5 1913,-206.5 1913,-187.5 1987,-187.5 1987,-206.5"/>
<text text-anchor="middle" x="1950" y="-194.5" font-family="Helvetica,sans-Serif" font-size="10.00">digitalWrite</text>
</a>
</g>
</g>
<!-- Node14&#45;&gt;Node15 -->
<g id="edge14_Node000014_Node000015" class="edge">
<title>Node14&#45;&gt;Node15</title>
<g id="a_edge14_Node000014_Node000015"><a xlink:title=" ">
<path fill="none" stroke="#63b8ff" d="M1854.75,-197C1869.28,-197 1886.71,-197 1902.61,-197"/>
<polygon fill="#63b8ff" stroke="#63b8ff" points="1902.79,-200.5 1912.79,-197 1902.79,-193.5 1902.79,-200.5"/>
</a>
</g>
</g>
<!-- Node16 -->
<g id="Node000016" class="node">
<title>Node16</title>
<g id="a_Node000016"><a xlink:href="../../d5/d45/wiring__digital_8c.xhtml#ae3d0bcbe4eb927ca8f5d5c21b7e4f224" target="_top" xlink:title=" ">
<polygon fill="white" stroke="#666666" points="2098,-206.5 2023,-206.5 2023,-187.5 2098,-187.5 2098,-206.5"/>
<text text-anchor="middle" x="2060.5" y="-194.5" font-family="Helvetica,sans-Serif" font-size="10.00">turnOffPWM</text>
</a>
</g>
</g>
<!-- Node15&#45;&gt;Node16 -->
<g id="edge15_Node000015_Node000016" class="edge">
<title>Node15&#45;&gt;Node16</title>
<g id="a_edge15_Node000015_Node000016"><a xlink:title=" ">
<path fill="none" stroke="#63b8ff" d="M1987.13,-197C1995.28,-197 2004.05,-197 2012.57,-197"/>
<polygon fill="#63b8ff" stroke="#63b8ff" points="2012.79,-200.5 2022.79,-197 2012.79,-193.5 2012.79,-200.5"/>
</a>
</g>
</g>
<!-- Node18 -->
<g id="Node000018" class="node">
<title>Node18</title>
<g id="a_Node000018"><a xlink:href="../../d8/d7f/classSharedSpiCard.xhtml#ab33ad2aefbb9cff905cad0879dffc78b" target="_top" xlink:title=" ">
<polygon fill="white" stroke="#666666" points="1348.5,-274.5 1211.5,-274.5 1211.5,-255.5 1348.5,-255.5 1348.5,-274.5"/>
<text text-anchor="middle" x="1280" y="-262.5" font-family="Helvetica,sans-Serif" font-size="10.00">SharedSpiCard::readStop</text>
</a>
</g>
</g>
<!-- Node17&#45;&gt;Node18 -->
<g id="edge18_Node000017_Node000018" class="edge">
<title>Node17&#45;&gt;Node18</title>
<g id="a_edge18_Node000017_Node000018"><a xlink:title=" ">
<path fill="none" stroke="#63b8ff" d="M1145.35,-237.53C1168.88,-242.36 1197.66,-248.28 1222.48,-253.38"/>
<polygon fill="#63b8ff" stroke="#63b8ff" points="1221.99,-256.85 1232.49,-255.44 1223.4,-250 1221.99,-256.85"/>
</a>
</g>
</g>
<!-- Node24 -->
<g id="Node000024" class="node">
<title>Node24</title>
<g id="a_Node000024"><a xlink:href="../../d8/d7f/classSharedSpiCard.xhtml#ae9a34a573077e43e7c6028a16ae77fb3" target="_top" xlink:title=" ">
<polygon fill="white" stroke="#666666" points="1350,-237.5 1210,-237.5 1210,-218.5 1350,-218.5 1350,-237.5"/>
<text text-anchor="middle" x="1280" y="-225.5" font-family="Helvetica,sans-Serif" font-size="10.00">SharedSpiCard::writeStop</text>
</a>
</g>
</g>
<!-- Node17&#45;&gt;Node24 -->
<g id="edge27_Node000017_Node000024" class="edge">
<title>Node17&#45;&gt;Node24</title>
<g id="a_edge27_Node000017_Node000024"><a xlink:title=" ">
<path fill="none" stroke="#63b8ff" d="M1173.25,-228C1181.95,-228 1190.86,-228 1199.62,-228"/>
<polygon fill="#63b8ff" stroke="#63b8ff" points="1199.83,-231.5 1209.83,-228 1199.83,-224.5 1199.83,-231.5"/>
</a>
</g>
</g>
<!-- Node18&#45;&gt;Node5 -->
<g id="edge19_Node000018_Node000005" class="edge">
<title>Node18&#45;&gt;Node5</title>
<g id="a_edge19_Node000018_Node000005"><a xlink:title=" ">
<path fill="none" stroke="#63b8ff" d="M1211.31,-264.7C1159.37,-263.39 1086.09,-259.23 1023,-247 993.9,-241.36 961.96,-230.73 938.74,-222.14"/>
<polygon fill="#63b8ff" stroke="#63b8ff" points="939.95,-218.86 929.35,-218.61 937.48,-225.41 939.95,-218.86"/>
</a>
</g>
</g>
<!-- Node18&#45;&gt;Node19 -->
<g id="edge20_Node000018_Node000019" class="edge">
<title>Node18&#45;&gt;Node19</title>
<g id="a_edge20_Node000018_Node000019"><a xlink:title=" ">
<path fill="none" stroke="#63b8ff" d="M1303.54,-274.63C1334.84,-287.99 1391.61,-312.23 1427.2,-327.42"/>
<polygon fill="#63b8ff" stroke="#63b8ff" points="1426.07,-330.74 1436.64,-331.45 1428.82,-324.31 1426.07,-330.74"/>
</a>
</g>
</g>
<!-- Node18&#45;&gt;Node20 -->
<g id="edge21_Node000018_Node000020" class="edge">
<title>Node18&#45;&gt;Node20</title>
<g id="a_edge21_Node000018_Node000020"><a xlink:title=" ">
<path fill="none" stroke="#63b8ff" d="M1348.55,-272.21C1360.38,-273.47 1372.75,-274.79 1384.75,-276.07"/>
<polygon fill="#63b8ff" stroke="#63b8ff" points="1384.41,-279.56 1394.73,-277.14 1385.16,-272.6 1384.41,-279.56"/>
</a>
</g>
</g>
<!-- Node20&#45;&gt;Node8 -->
<g id="edge24_Node000020_Node000008" class="edge">
<title>Node20&#45;&gt;Node8</title>
<g id="a_edge24_Node000020_Node000008"><a xlink:title=" ">
<path fill="none" stroke="#63b8ff" d="M1486.07,-274.35C1507.81,-266.18 1540.21,-254.48 1569,-246 1577.41,-243.52 1586.38,-241.14 1595.17,-238.94"/>
<polygon fill="#63b8ff" stroke="#63b8ff" points="1596.08,-242.32 1604.96,-236.54 1594.42,-235.52 1596.08,-242.32"/>
</a>
</g>
</g>
<!-- Node21 -->
<g id="Node000021" class="node">
<title>Node21</title>
<g id="a_Node000021"><a xlink:href="../../d8/d7f/classSharedSpiCard.xhtml#ac6acfca5a23337977d2e4436ab8ab39a" target="_top" xlink:title=" ">
<polygon fill="white" stroke="#666666" points="1730,-310.5 1569,-310.5 1569,-291.5 1730,-291.5 1730,-310.5"/>
<text text-anchor="middle" x="1649.5" y="-298.5" font-family="Helvetica,sans-Serif" font-size="10.00">SharedSpiCard::spiDeactivate</text>
</a>
</g>
</g>
<!-- Node20&#45;&gt;Node21 -->
<g id="edge22_Node000020_Node000021" class="edge">
<title>Node20&#45;&gt;Node21</title>
<g id="a_edge22_Node000020_Node000021"><a xlink:title=" ">
<path fill="none" stroke="#63b8ff" d="M1525,-289.8C1535.92,-290.79 1547.43,-291.84 1558.86,-292.87"/>
<polygon fill="#63b8ff" stroke="#63b8ff" points="1558.59,-296.36 1568.87,-293.78 1559.22,-289.39 1558.59,-296.36"/>
</a>
</g>
</g>
<!-- Node23 -->
<g id="Node000023" class="node">
<title>Node23</title>
<g id="a_Node000023"><a xlink:href="../../d8/d7f/classSharedSpiCard.xhtml#ad06a3278372300987b97876cf598c114" target="_top" xlink:title=" ">
<polygon fill="white" stroke="#666666" points="1725,-273.5 1574,-273.5 1574,-254.5 1725,-254.5 1725,-273.5"/>
<text text-anchor="middle" x="1649.5" y="-261.5" font-family="Helvetica,sans-Serif" font-size="10.00">SharedSpiCard::spiUnselect</text>
</a>
</g>
</g>
<!-- Node20&#45;&gt;Node23 -->
<g id="edge25_Node000020_Node000023" class="edge">
<title>Node20&#45;&gt;Node23</title>
<g id="a_edge25_Node000020_Node000023"><a xlink:title=" ">
<path fill="none" stroke="#63b8ff" d="M1525,-277.17C1537.39,-275.85 1550.55,-274.45 1563.49,-273.07"/>
<polygon fill="#63b8ff" stroke="#63b8ff" points="1564.23,-276.51 1573.8,-271.97 1563.49,-269.55 1564.23,-276.51"/>
</a>
</g>
</g>
<!-- Node22 -->
<g id="Node000022" class="node">
<title>Node22</title>
<g id="a_Node000022"><a xlink:href="../../d0/d25/classSdSpiArduinoDriver.xhtml#ae88a255f533e3acb41d1221025a69b55" target="_top" xlink:title=" ">
<polygon fill="white" stroke="#666666" points="1877,-316 1766,-316 1766,-286 1877,-286 1877,-316"/>
<text text-anchor="start" x="1774" y="-304" font-family="Helvetica,sans-Serif" font-size="10.00">SdSpiArduinoDriver</text>
<text text-anchor="middle" x="1821.5" y="-293" font-family="Helvetica,sans-Serif" font-size="10.00">::deactivate</text>
</a>
</g>
</g>
<!-- Node21&#45;&gt;Node22 -->
<g id="edge23_Node000021_Node000022" class="edge">
<title>Node21&#45;&gt;Node22</title>
<g id="a_edge23_Node000021_Node000022"><a xlink:title=" ">
<path fill="none" stroke="#63b8ff" d="M1730.02,-301C1738.63,-301 1747.3,-301 1755.7,-301"/>
<polygon fill="#63b8ff" stroke="#63b8ff" points="1755.78,-304.5 1765.78,-301 1755.78,-297.5 1755.78,-304.5"/>
</a>
</g>
</g>
<!-- Node23&#45;&gt;Node14 -->
<g id="edge26_Node000023_Node000014" class="edge">
<title>Node23&#45;&gt;Node14</title>
<g id="a_edge26_Node000023_Node000014"><a xlink:title=" ">
<path fill="none" stroke="#63b8ff" d="M1708.08,-254.38C1715.65,-252.14 1723.15,-249.38 1730,-246 1748.67,-236.78 1747.88,-226.26 1766,-216 1769.98,-213.75 1774.28,-211.69 1778.65,-209.84"/>
<polygon fill="#63b8ff" stroke="#63b8ff" points="1780.2,-212.99 1788.25,-206.1 1777.66,-206.47 1780.2,-212.99"/>
</a>
</g>
</g>
<!-- Node24&#45;&gt;Node8 -->
<g id="edge29_Node000024_Node000008" class="edge">
<title>Node24&#45;&gt;Node8</title>
<g id="a_edge29_Node000024_Node000008"><a xlink:title=" ">
<path fill="none" stroke="#63b8ff" d="M1350.12,-227.81C1413.67,-227.64 1507.68,-227.38 1573.14,-227.21"/>
<polygon fill="#63b8ff" stroke="#63b8ff" points="1573.4,-230.7 1583.39,-227.18 1573.38,-223.7 1573.4,-230.7"/>
</a>
</g>
</g>
<!-- Node24&#45;&gt;Node19 -->
<g id="edge28_Node000024_Node000019" class="edge">
<title>Node24&#45;&gt;Node19</title>
<g id="a_edge28_Node000024_Node000019"><a xlink:title=" ">
<path fill="none" stroke="#63b8ff" d="M1333.45,-237.59C1339.69,-240.05 1345.72,-243.13 1351,-247 1374.87,-264.49 1365.2,-282.99 1387,-303 1397.79,-312.9 1411.63,-321.01 1424.3,-327.16"/>
<polygon fill="#63b8ff" stroke="#63b8ff" points="1423.13,-330.48 1433.68,-331.47 1426.06,-324.12 1423.13,-330.48"/>
</a>
</g>
</g>
<!-- Node24&#45;&gt;Node20 -->
<g id="edge30_Node000024_Node000020" class="edge">
<title>Node24&#45;&gt;Node20</title>
<g id="a_edge30_Node000024_Node000020"><a xlink:title=" ">
<path fill="none" stroke="#63b8ff" d="M1317.82,-237.51C1328.56,-240.42 1340.29,-243.71 1351,-247 1375.21,-254.42 1402.16,-263.65 1423.08,-271.04"/>
<polygon fill="#63b8ff" stroke="#63b8ff" points="1421.93,-274.35 1432.53,-274.39 1424.27,-267.75 1421.93,-274.35"/>
</a>
</g>
</g>
<!-- Node24&#45;&gt;Node25 -->
<g id="edge31_Node000024_Node000025" class="edge">
<title>Node24&#45;&gt;Node25</title>
<g id="a_edge31_Node000024_Node000025"><a xlink:title=" ">
<path fill="none" stroke="#63b8ff" d="M1289.01,-218.44C1305.42,-199.46 1344.87,-156.92 1387,-134 1391.91,-131.33 1397.22,-128.99 1402.64,-126.94"/>
<polygon fill="#63b8ff" stroke="#63b8ff" points="1404.13,-130.13 1412.46,-123.58 1401.86,-123.51 1404.13,-130.13"/>
</a>
</g>
</g>
<!-- Node25&#45;&gt;Node6 -->
<g id="edge32_Node000025_Node000006" class="edge">
<title>Node25&#45;&gt;Node6</title>
<g id="a_edge32_Node000025_Node000006"><a xlink:title=" ">
<path fill="none" stroke="#63b8ff" d="M1501.68,-104.45C1529.94,-97.82 1567.79,-88.94 1597.98,-81.86"/>
<polygon fill="#63b8ff" stroke="#63b8ff" points="1598.96,-85.22 1607.89,-79.53 1597.36,-78.41 1598.96,-85.22"/>
</a>
</g>
</g>
<!-- Node26 -->
<g id="Node000026" class="node">
<title>Node26</title>
<g id="a_Node000026"><a xlink:href="../../db/df4/classTimeout.xhtml#abbabe99f42e52472ddd3a7e9d22dce95" target="_top" xlink:title=" ">
<polygon fill="white" stroke="#666666" points="1704,-121.5 1595,-121.5 1595,-102.5 1704,-102.5 1704,-121.5"/>
<text text-anchor="middle" x="1649.5" y="-109.5" font-family="Helvetica,sans-Serif" font-size="10.00">Timeout::timedOut</text>
</a>
</g>
</g>
<!-- Node25&#45;&gt;Node26 -->
<g id="edge33_Node000025_Node000026" class="edge">
<title>Node25&#45;&gt;Node26</title>
<g id="a_edge33_Node000025_Node000026"><a xlink:title=" ">
<path fill="none" stroke="#63b8ff" d="M1533.22,-113.23C1550.23,-113.05 1568.22,-112.86 1584.82,-112.68"/>
<polygon fill="#63b8ff" stroke="#63b8ff" points="1584.98,-116.18 1594.95,-112.57 1584.91,-109.18 1584.98,-116.18"/>
</a>
</g>
</g>
<!-- Node27 -->
<g id="Node000027" class="node">
<title>Node27</title>
<g id="a_Node000027"><a xlink:href="../../db/df4/classTimeout.xhtml#a9a72ea0591f11452fb15bfaa1ae5108a" target="_top" xlink:title=" ">
<polygon fill="white" stroke="#666666" points="1872.5,-120.5 1770.5,-120.5 1770.5,-101.5 1872.5,-101.5 1872.5,-120.5"/>
<text text-anchor="middle" x="1821.5" y="-108.5" font-family="Helvetica,sans-Serif" font-size="10.00">Timeout::millis16</text>
</a>
</g>
</g>
<!-- Node26&#45;&gt;Node27 -->
<g id="edge34_Node000026_Node000027" class="edge">
<title>Node26&#45;&gt;Node27</title>
<g id="a_edge34_Node000026_Node000027"><a xlink:title=" ">
<path fill="none" stroke="#63b8ff" d="M1704.29,-111.68C1722.02,-111.58 1741.85,-111.46 1760.04,-111.36"/>
<polygon fill="#63b8ff" stroke="#63b8ff" points="1760.26,-114.85 1770.24,-111.3 1760.22,-107.85 1760.26,-114.85"/>
</a>
</g>
</g>
<!-- Node28 -->
<g id="Node000028" class="node">
<title>Node28</title>
<g id="a_Node000028"><a xlink:href="../../d5/df3/wiring_8c.xhtml#a6ff7f2532a22366f0013bc41397129fd" target="_top" xlink:title=" ">
<polygon fill="white" stroke="#666666" points="1972,-120.5 1928,-120.5 1928,-101.5 1972,-101.5 1972,-120.5"/>
<text text-anchor="middle" x="1950" y="-108.5" font-family="Helvetica,sans-Serif" font-size="10.00">millis</text>
</a>
</g>
</g>
<!-- Node27&#45;&gt;Node28 -->
<g id="edge35_Node000027_Node000028" class="edge">
<title>Node27&#45;&gt;Node28</title>
<g id="a_edge35_Node000027_Node000028"><a xlink:title=" ">
<path fill="none" stroke="#63b8ff" d="M1872.86,-111C1887.97,-111 1904.11,-111 1917.62,-111"/>
<polygon fill="#63b8ff" stroke="#63b8ff" points="1917.83,-114.5 1927.83,-111 1917.83,-107.5 1917.83,-114.5"/>
</a>
</g>
</g>
<!-- Node29&#45;&gt;Node29 -->
<g id="edge39_Node000029_Node000029" class="edge">
<title>Node29&#45;&gt;Node29</title>
<g id="a_edge39_Node000029_Node000029"><a xlink:title=" ">
<path fill="none" stroke="#63b8ff" d="M874.91,-541.58C860.51,-550.23 870.38,-559.5 904.5,-559.5 927.96,-559.5 939.95,-555.12 940.48,-549.57"/>
<polygon fill="#63b8ff" stroke="#63b8ff" points="943.07,-547.21 934.09,-541.58 937.61,-551.58 943.07,-547.21"/>
</a>
</g>
</g>
<!-- Node33 -->
<g id="Node000033" class="node">
<title>Node33</title>
<g id="a_Node000033"><a xlink:href="../../d8/d7f/classSharedSpiCard.xhtml#adf2ce56ca0a56fe841fbdf75f7f3faee" target="_top" xlink:title=" ">
<polygon fill="white" stroke="#666666" points="786,-318.5 637,-318.5 637,-299.5 786,-299.5 786,-318.5"/>
<text text-anchor="middle" x="711.5" y="-306.5" font-family="Helvetica,sans-Serif" font-size="10.00">SharedSpiCard::writeSector</text>
</a>
</g>
</g>
<!-- Node32&#45;&gt;Node33 -->
<g id="edge44_Node000032_Node000033" class="edge">
<title>Node32&#45;&gt;Node33</title>
<g id="a_edge44_Node000032_Node000033"><a xlink:title=" ">
<path fill="none" stroke="#63b8ff" d="M597.08,-325.05C608.29,-323.46 620.77,-321.69 633.23,-319.93"/>
<polygon fill="#63b8ff" stroke="#63b8ff" points="633.79,-323.39 643.2,-318.52 632.81,-316.46 633.79,-323.39"/>
</a>
</g>
</g>
<!-- Node33&#45;&gt;Node5 -->
<g id="edge45_Node000033_Node000005" class="edge">
<title>Node33&#45;&gt;Node5</title>
<g id="a_edge45_Node000033_Node000005"><a xlink:title=" ">
<path fill="none" stroke="#63b8ff" d="M730.81,-299.41C764.47,-281.79 836.33,-244.17 875.91,-223.44"/>
<polygon fill="#63b8ff" stroke="#63b8ff" points="878.01,-226.3 885.24,-218.56 874.76,-220.1 878.01,-226.3"/>
</a>
</g>
</g>
<!-- Node33&#45;&gt;Node6 -->
<g id="edge47_Node000033_Node000006" class="edge">
<title>Node33&#45;&gt;Node6</title>
<g id="a_edge47_Node000033_Node000006"><a xlink:title=" ">
<path fill="none" stroke="#63b8ff" d="M715.61,-299.29C725.86,-268.66 761.47,-172.97 822,-119 921.4,-30.37 963.83,0 1097,0 1097,0 1097,0 1281,0 1402.39,0 1542.42,-37.31 1609.17,-57.45"/>
<polygon fill="#63b8ff" stroke="#63b8ff" points="1608.27,-60.84 1618.85,-60.41 1610.31,-54.15 1608.27,-60.84"/>
</a>
</g>
</g>
<!-- Node33&#45;&gt;Node19 -->
<g id="edge46_Node000033_Node000019" class="edge">
<title>Node33&#45;&gt;Node19</title>
<g id="a_edge46_Node000033_Node000019"><a xlink:title=" ">
<path fill="none" stroke="#63b8ff" d="M744.23,-318.51C837.67,-345.22 1119.76,-416.51 1351,-378 1378,-373.5 1407.31,-363.09 1428.57,-354.45"/>
<polygon fill="#63b8ff" stroke="#63b8ff" points="1430.14,-357.59 1438.02,-350.51 1427.45,-351.12 1430.14,-357.59"/>
</a>
</g>
</g>
<!-- Node33&#45;&gt;Node20 -->
<g id="edge48_Node000033_Node000020" class="edge">
<title>Node33&#45;&gt;Node20</title>
<g id="a_edge48_Node000033_Node000020"><a xlink:title=" ">
<path fill="none" stroke="#63b8ff" d="M786.12,-306.53C928.82,-301.76 1241.57,-291.28 1384.76,-286.49"/>
<polygon fill="#63b8ff" stroke="#63b8ff" points="1384.9,-289.98 1394.77,-286.15 1384.66,-282.99 1384.9,-289.98"/>
</a>
</g>
</g>
<!-- Node33&#45;&gt;Node25 -->
<g id="edge50_Node000033_Node000025" class="edge">
<title>Node33&#45;&gt;Node25</title>
<g id="a_edge50_Node000033_Node000025"><a xlink:title=" ">
<path fill="none" stroke="#63b8ff" d="M718.96,-299.23C734.23,-276.86 774.84,-221.53 822,-191 997.72,-77.25 1258.69,-89.01 1385.08,-103.3"/>
<polygon fill="#63b8ff" stroke="#63b8ff" points="1384.71,-106.78 1395.04,-104.47 1385.52,-99.83 1384.71,-106.78"/>
</a>
</g>
</g>
<!-- Node33&#45;&gt;Node30 -->
<g id="edge49_Node000033_Node000030" class="edge">
<title>Node33&#45;&gt;Node30</title>
<g id="a_edge49_Node000033_Node000030"><a xlink:title=" ">
<path fill="none" stroke="#63b8ff" d="M722.18,-318.6C740.27,-336.05 781.09,-373.05 822,-394 830.86,-398.54 840.72,-402.35 850.42,-405.51"/>
<polygon fill="#63b8ff" stroke="#63b8ff" points="849.46,-408.87 860.04,-408.45 851.5,-402.18 849.46,-408.87"/>
</a>
</g>
</g>
<!-- Node34 -->
<g id="Node000034" class="node">
<title>Node34</title>
<g id="a_Node000034"><a xlink:href="../../d8/d7f/classSharedSpiCard.xhtml#a5b6d7ad34f56d0d6a6c5059d920499ba" target="_top" xlink:title=" ">
<polygon fill="white" stroke="#666666" points="1351,-350.5 1209,-350.5 1209,-331.5 1351,-331.5 1351,-350.5"/>
<text text-anchor="middle" x="1280" y="-338.5" font-family="Helvetica,sans-Serif" font-size="10.00">SharedSpiCard::writeData</text>
</a>
</g>
</g>
<!-- Node33&#45;&gt;Node34 -->
<g id="edge51_Node000033_Node000034" class="edge">
<title>Node33&#45;&gt;Node34</title>
<g id="a_edge51_Node000033_Node000034"><a xlink:title=" ">
<path fill="none" stroke="#63b8ff" d="M786.1,-315.37C798.1,-316.32 810.39,-317.23 822,-318 953.99,-326.74 1107.61,-333.84 1198.89,-337.74"/>
<polygon fill="#63b8ff" stroke="#63b8ff" points="1198.75,-341.24 1208.89,-338.16 1199.05,-334.24 1198.75,-341.24"/>
</a>
</g>
</g>
<!-- Node34&#45;&gt;Node19 -->
<g id="edge52_Node000034_Node000019" class="edge">
<title>Node34&#45;&gt;Node19</title>
<g id="a_edge52_Node000034_Node000019"><a xlink:title=" ">
<path fill="none" stroke="#63b8ff" d="M1351.09,-341C1364.22,-341 1377.92,-341 1390.99,-341"/>
<polygon fill="#63b8ff" stroke="#63b8ff" points="1391.3,-344.5 1401.3,-341 1391.3,-337.5 1391.3,-344.5"/>
</a>
</g>
</g>
<!-- Node34&#45;&gt;Node20 -->
<g id="edge53_Node000034_Node000020" class="edge">
<title>Node34&#45;&gt;Node20</title>
<g id="a_edge53_Node000034_Node000020"><a xlink:title=" ">
<path fill="none" stroke="#63b8ff" d="M1310.79,-331.46C1340.57,-321.92 1386.53,-307.21 1419.37,-296.69"/>
<polygon fill="#63b8ff" stroke="#63b8ff" points="1420.65,-299.95 1429.11,-293.57 1418.52,-293.29 1420.65,-299.95"/>
</a>
</g>
</g>
<!-- Node34&#45;&gt;Node25 -->
<g id="edge54_Node000034_Node000025" class="edge">
<title>Node34&#45;&gt;Node25</title>
<g id="a_edge54_Node000034_Node000025"><a xlink:title=" ">
<path fill="none" stroke="#63b8ff" d="M1298.43,-331.36C1314.54,-321.55 1337.9,-304.83 1351,-284 1387.5,-225.97 1339.39,-183.33 1387,-134 1388.81,-132.12 1390.79,-130.41 1392.88,-128.86"/>
<polygon fill="#63b8ff" stroke="#63b8ff" points="1394.78,-131.81 1401.51,-123.63 1391.14,-125.83 1394.78,-131.81"/>
</a>
</g>
</g>
<!-- Node34&#45;&gt;Node34 -->
<g id="edge55_Node000034_Node000034" class="edge">
<title>Node34&#45;&gt;Node34</title>
<g id="a_edge55_Node000034_Node000034"><a xlink:title=" ">
<path fill="none" stroke="#63b8ff" d="M1252.26,-350.58C1238.76,-359.23 1248.01,-368.5 1280,-368.5 1301.49,-368.5 1312.72,-364.32 1313.68,-358.95"/>
<polygon fill="#63b8ff" stroke="#63b8ff" points="1316.39,-356.71 1307.74,-350.58 1310.68,-360.76 1316.39,-356.71"/>
</a>
</g>
</g>
</g>
</svg>
