<?xml version="1.0" encoding="UTF-8" standalone="no"?>
<!DOCTYPE svg PUBLIC "-//W3C//DTD SVG 1.1//EN"
 "http://www.w3.org/Graphics/SVG/1.1/DTD/svg11.dtd">
<!-- Generated by graphviz version 2.43.0 (0)
 -->
<!-- Title: ExFatPartition::cacheSafeRead Pages: 1 -->
<!--zoomable 295 -->

<svg id="main" version="1.1" xmlns="http://www.w3.org/2000/svg" xmlns:xlink="http://www.w3.org/1999/xlink" xml:space="preserve" onload="init(evt)">
<style type="text/css"><![CDATA[
.node, .edge {opacity: 0.7;}
.node.selected, .edge.selected {opacity: 1;}
.edge:hover path { stroke: red; }
.edge:hover polygon { stroke: red; fill: red; }
]]></style>

<defs>
  <circle id="rim" cx="0" cy="0" r="7"/>
  <circle id="rim2" cx="0" cy="0" r="3.5"/>
  <g id="zoomPlus">
    <use xlink:href="#rim" fill="#404040"><set attributeName="fill" to="#808080" begin="zoomplus.mouseover" end="zoomplus.mouseout"/></use>
    <path d="M-4,0h8M0,-4v8" fill="none" stroke="white" stroke-width="1.5" pointer-events="none"/>
  </g>
  <g id="zoomMin">
    <use xlink:href="#rim" fill="#404040"><set attributeName="fill" to="#808080" begin="zoomminus.mouseover" end="zoomminus.mouseout"/></use>
    <path d="M-4,0h8" fill="none" stroke="white" stroke-width="1.5" pointer-events="none"/>
  </g>
  <g id="arrowUp" transform="translate(30 24)">
    <use xlink:href="#rim"/>
    <path pointer-events="none" fill="none" stroke="white" stroke-width="1.5" d="M0,-3.0v7 M-2.5,-0.5L0,-3.0L2.5,-0.5"/>
  </g>
  <g id="arrowRight" transform="rotate(90) translate(36 -43)">
    <use xlink:href="#rim"/>
    <path pointer-events="none" fill="none" stroke="white" stroke-width="1.5" d="M0,-3.0v7 M-2.5,-0.5L0,-3.0L2.5,-0.5"/>
  </g>
  <g id="arrowDown" transform="rotate(180) translate(-30 -48)">
    <use xlink:href="#rim"/>
    <path pointer-events="none" fill="none" stroke="white" stroke-width="1.5" d="M0,-3.0v7 M-2.5,-0.5L0,-3.0L2.5,-0.5"/>
  </g>
  <g id="arrowLeft" transform="rotate(270) translate(-36 17)">
    <use xlink:href="#rim"/>
    <path pointer-events="none" fill="none" stroke="white" stroke-width="1.5" d="M0,-3.0v7 M-2.5,-0.5L0,-3.0L2.5,-0.5"/>
  </g>
  <g id="resetDef">
    <use xlink:href="#rim2" fill="#404040"><set attributeName="fill" to="#808080" begin="reset.mouseover" end="reset.mouseout"/></use>
  </g>
</defs>
<script type="application/ecmascript">
var viewWidth = 1839;
var viewHeight = 295;
var sectionId = 'dynsection-18';
</script>
<script type="application/ecmascript" xlink:href="../../svg.min.js"/>
<svg id="graph" class="graph">
<g id="viewport">
<title>ExFatPartition::cacheSafeRead</title>
<!-- Node1 -->
<g id="Node000001" class="node">
<title>Node1</title>
<g id="a_Node000001"><a xlink:title=" ">
<polygon fill="#999999" stroke="#666666" points="164,-175.18 0,-175.18 0,-156.18 164,-156.18 164,-175.18"/>
<text text-anchor="middle" x="82" y="-163.18" font-family="Helvetica,sans-Serif" font-size="10.00">ExFatPartition::cacheSafeRead</text>
</a>
</g>
</g>
<!-- Node2 -->
<g id="Node000002" class="node">
<title>Node2</title>
<g id="a_Node000002"><a xlink:href="../../dd/db1/classFsCache.xhtml#abdfa349477d43542829c4d58b355efa6" target="_top" xlink:title=" ">
<polygon fill="white" stroke="#666666" points="339,-175.18 200,-175.18 200,-156.18 339,-156.18 339,-175.18"/>
<text text-anchor="middle" x="269.5" y="-163.18" font-family="Helvetica,sans-Serif" font-size="10.00">FsCache::cacheSafeRead</text>
</a>
</g>
</g>
<!-- Node1&#45;&gt;Node2 -->
<g id="edge1_Node000001_Node000002" class="edge">
<title>Node1&#45;&gt;Node2</title>
<g id="a_edge1_Node000001_Node000002"><a xlink:title=" ">
<path fill="none" stroke="#63b8ff" d="M164.09,-165.68C172.55,-165.68 181.14,-165.68 189.57,-165.68"/>
<polygon fill="#63b8ff" stroke="#63b8ff" points="189.76,-169.18 199.76,-165.68 189.76,-162.18 189.76,-169.18"/>
</a>
</g>
</g>
<!-- Node3 -->
<g id="Node000003" class="node">
<title>Node3</title>
<g id="a_Node000003"><a xlink:href="../../dd/db1/classFsCache.xhtml#a9d9880fe717b35c3dd46a2faf5172371" target="_top" xlink:title=" ">
<polygon fill="white" stroke="#666666" points="502,-213.18 394,-213.18 394,-194.18 502,-194.18 502,-213.18"/>
<text text-anchor="middle" x="448" y="-201.18" font-family="Helvetica,sans-Serif" font-size="10.00">FsCache::isCached</text>
</a>
</g>
</g>
<!-- Node2&#45;&gt;Node3 -->
<g id="edge2_Node000002_Node000003" class="edge">
<title>Node2&#45;&gt;Node3</title>
<g id="a_edge2_Node000002_Node000003"><a xlink:title=" ">
<path fill="none" stroke="#63b8ff" d="M315.04,-175.27C338.64,-180.35 367.83,-186.64 392.75,-192"/>
<polygon fill="#63b8ff" stroke="#63b8ff" points="392.27,-195.48 402.78,-194.16 393.74,-188.64 392.27,-195.48"/>
</a>
</g>
</g>
<!-- Node4 -->
<g id="Node000004" class="node">
<title>Node4</title>
<g id="a_Node000004"><a xlink:href="../../dd/db1/classFsCache.xhtml#a5b90e145400de8687d9f34536b134130" target="_top" xlink:title=" ">
<polygon fill="white" stroke="#666666" points="686.5,-213.18 592.5,-213.18 592.5,-194.18 686.5,-194.18 686.5,-213.18"/>
<text text-anchor="middle" x="639.5" y="-201.18" font-family="Helvetica,sans-Serif" font-size="10.00">FsCache::sector</text>
</a>
</g>
</g>
<!-- Node2&#45;&gt;Node4 -->
<g id="edge43_Node000002_Node000004" class="edge">
<title>Node2&#45;&gt;Node4</title>
<g id="a_edge43_Node000002_Node000004"><a xlink:title=" ">
<path fill="none" stroke="#63b8ff" d="M339.21,-169.82C389.62,-173.19 459.68,-178.55 521,-185.68 541.07,-188.02 562.98,-191.2 582.39,-194.24"/>
<polygon fill="#63b8ff" stroke="#63b8ff" points="581.86,-197.7 592.28,-195.81 582.96,-190.79 581.86,-197.7"/>
</a>
</g>
</g>
<!-- Node5 -->
<g id="Node000005" class="node">
<title>Node5</title>
<g id="a_Node000005"><a xlink:href="../../d8/d7f/classSharedSpiCard.xhtml#a61d86f4092f8ddbc7339d7cbcf6f70c0" target="_top" xlink:title=" ">
<polygon fill="white" stroke="#666666" points="521,-103.18 375,-103.18 375,-84.18 521,-84.18 521,-103.18"/>
<text text-anchor="middle" x="448" y="-91.18" font-family="Helvetica,sans-Serif" font-size="10.00">SharedSpiCard::readSector</text>
</a>
</g>
</g>
<!-- Node2&#45;&gt;Node5 -->
<g id="edge4_Node000002_Node000005" class="edge">
<title>Node2&#45;&gt;Node5</title>
<g id="a_edge4_Node000002_Node000005"><a xlink:title=" ">
<path fill="none" stroke="#63b8ff" d="M293.94,-156.12C324.79,-143.53 379.21,-121.34 414.16,-107.08"/>
<polygon fill="#63b8ff" stroke="#63b8ff" points="415.53,-110.3 423.47,-103.28 412.88,-103.82 415.53,-110.3"/>
</a>
</g>
</g>
<!-- Node3&#45;&gt;Node4 -->
<g id="edge3_Node000003_Node000004" class="edge">
<title>Node3&#45;&gt;Node4</title>
<g id="a_edge3_Node000003_Node000004"><a xlink:title=" ">
<path fill="none" stroke="#63b8ff" d="M502.04,-203.68C526.96,-203.68 556.7,-203.68 582.04,-203.68"/>
<polygon fill="#63b8ff" stroke="#63b8ff" points="582.24,-207.18 592.24,-203.68 582.24,-200.18 582.24,-207.18"/>
</a>
</g>
</g>
<!-- Node6 -->
<g id="Node000006" class="node">
<title>Node6</title>
<g id="a_Node000006"><a xlink:href="../../d8/d7f/classSharedSpiCard.xhtml#adda33199753fc2aec74fe317cbaabc06" target="_top" xlink:title=" ">
<polygon fill="white" stroke="#666666" points="722,-176.18 557,-176.18 557,-157.18 722,-157.18 722,-176.18"/>
<text text-anchor="middle" x="639.5" y="-164.18" font-family="Helvetica,sans-Serif" font-size="10.00">SharedSpiCard::cardCommand</text>
</a>
</g>
</g>
<!-- Node5&#45;&gt;Node6 -->
<g id="edge5_Node000005_Node000006" class="edge">
<title>Node5&#45;&gt;Node6</title>
<g id="a_edge5_Node000005_Node000006"><a xlink:title=" ">
<path fill="none" stroke="#63b8ff" d="M465.3,-103.36C485.99,-115.27 523.08,-135.44 557,-147.68 564.13,-150.25 571.73,-152.57 579.32,-154.62"/>
<polygon fill="#63b8ff" stroke="#63b8ff" points="578.7,-158.07 589.26,-157.17 580.44,-151.29 578.7,-158.07"/>
</a>
</g>
</g>
<!-- Node20 -->
<g id="Node000020" class="node">
<title>Node20</title>
<g id="a_Node000020"><a xlink:href="../../d8/d7f/classSharedSpiCard.xhtml#a747c3f0b962098cf0c097f3c4c2b4fd4" target="_top" xlink:title=" ">
<polygon fill="white" stroke="#666666" points="1251.5,-84.18 1134.5,-84.18 1134.5,-65.18 1251.5,-65.18 1251.5,-84.18"/>
<text text-anchor="middle" x="1193" y="-72.18" font-family="Helvetica,sans-Serif" font-size="10.00">SharedSpiCard::error</text>
</a>
</g>
</g>
<!-- Node5&#45;&gt;Node20 -->
<g id="edge38_Node000005_Node000020" class="edge">
<title>Node5&#45;&gt;Node20</title>
<g id="a_edge38_Node000005_Node000020"><a xlink:title=" ">
<path fill="none" stroke="#63b8ff" d="M469.55,-84.09C490.87,-74.71 525.46,-61.07 557,-55.68 787.88,-16.25 850.67,-35.31 1084,-55.68 1101.76,-57.23 1120.97,-60.19 1138.2,-63.32"/>
<polygon fill="#63b8ff" stroke="#63b8ff" points="1137.62,-66.77 1148.09,-65.17 1138.91,-59.89 1137.62,-66.77"/>
</a>
</g>
</g>
<!-- Node21 -->
<g id="Node000021" class="node">
<title>Node21</title>
<g id="a_Node000021"><a xlink:href="../../d8/d7f/classSharedSpiCard.xhtml#a0f511c39c50055a4fc97e720933aee3a" target="_top" xlink:title=" ">
<polygon fill="white" stroke="#666666" points="1258,-47.18 1128,-47.18 1128,-28.18 1258,-28.18 1258,-47.18"/>
<text text-anchor="middle" x="1193" y="-35.18" font-family="Helvetica,sans-Serif" font-size="10.00">SharedSpiCard::spiStop</text>
</a>
</g>
</g>
<!-- Node5&#45;&gt;Node21 -->
<g id="edge41_Node000005_Node000021" class="edge">
<title>Node5&#45;&gt;Node21</title>
<g id="a_edge41_Node000005_Node000021"><a xlink:title=" ">
<path fill="none" stroke="#63b8ff" d="M461.02,-83.97C480.04,-69.29 518.82,-42.07 557,-31.68 761.73,24 1017.49,-7.43 1131.87,-26.46"/>
<polygon fill="#63b8ff" stroke="#63b8ff" points="1131.39,-29.93 1141.83,-28.15 1132.56,-23.03 1131.39,-29.93"/>
</a>
</g>
</g>
<!-- Node30 -->
<g id="Node000030" class="node">
<title>Node30</title>
<g id="a_Node000030"><a xlink:href="../../d8/d7f/classSharedSpiCard.xhtml#abeae3cdc162f24c2d450abe4e1ed8340" target="_top" xlink:title=" ">
<polygon fill="white" stroke="#666666" points="709,-121.18 570,-121.18 570,-102.18 709,-102.18 709,-121.18"/>
<text text-anchor="middle" x="639.5" y="-109.18" font-family="Helvetica,sans-Serif" font-size="10.00">SharedSpiCard::readData</text>
</a>
</g>
</g>
<!-- Node5&#45;&gt;Node30 -->
<g id="edge39_Node000005_Node000030" class="edge">
<title>Node5&#45;&gt;Node30</title>
<g id="a_edge39_Node000005_Node000030"><a xlink:title=" ">
<path fill="none" stroke="#63b8ff" d="M521.18,-100.54C533.81,-101.74 547,-102.99 559.8,-104.21"/>
<polygon fill="#63b8ff" stroke="#63b8ff" points="559.67,-107.71 569.95,-105.17 560.33,-100.74 559.67,-107.71"/>
</a>
</g>
</g>
<!-- Node31 -->
<g id="Node000031" class="node">
<title>Node31</title>
<g id="a_Node000031"><a xlink:href="../../d8/d7f/classSharedSpiCard.xhtml#a7dac2190763d7b4b72163ed7131e8a87" target="_top" xlink:title=" ">
<polygon fill="white" stroke="#666666" points="697.5,-84.18 581.5,-84.18 581.5,-65.18 697.5,-65.18 697.5,-84.18"/>
<text text-anchor="middle" x="639.5" y="-72.18" font-family="Helvetica,sans-Serif" font-size="10.00">SharedSpiCard::type</text>
</a>
</g>
</g>
<!-- Node5&#45;&gt;Node31 -->
<g id="edge42_Node000005_Node000031" class="edge">
<title>Node5&#45;&gt;Node31</title>
<g id="a_edge42_Node000005_Node000031"><a xlink:title=" ">
<path fill="none" stroke="#63b8ff" d="M521.18,-86.45C537.48,-84.81 554.73,-83.08 570.84,-81.47"/>
<polygon fill="#63b8ff" stroke="#63b8ff" points="571.64,-84.9 581.24,-80.42 570.94,-77.94 571.64,-84.9"/>
</a>
</g>
</g>
<!-- Node7 -->
<g id="Node000007" class="node">
<title>Node7</title>
<g id="a_Node000007"><a xlink:href="../../d8/d7f/classSharedSpiCard.xhtml#a08363209d938db87521cca6a84146041" target="_top" xlink:title=" ">
<polygon fill="white" stroke="#666666" points="1456,-274.18 1309,-274.18 1309,-255.18 1456,-255.18 1456,-274.18"/>
<text text-anchor="middle" x="1382.5" y="-262.18" font-family="Helvetica,sans-Serif" font-size="10.00">SharedSpiCard::spiReceive</text>
</a>
</g>
</g>
<!-- Node6&#45;&gt;Node7 -->
<g id="edge6_Node000006_Node000007" class="edge">
<title>Node6&#45;&gt;Node7</title>
<g id="a_edge6_Node000006_Node000007"><a xlink:title=" ">
<path fill="none" stroke="#63b8ff" d="M694,-176.25C703.52,-178.77 713.2,-181.87 722,-185.68 739.65,-193.32 739.89,-203.21 758,-209.68 942.61,-275.73 1176.71,-276 1298.84,-270.4"/>
<polygon fill="#63b8ff" stroke="#63b8ff" points="1299.05,-273.89 1308.87,-269.91 1298.71,-266.9 1299.05,-273.89"/>
</a>
</g>
</g>
<!-- Node9 -->
<g id="Node000009" class="node">
<title>Node9</title>
<g id="a_Node000009"><a xlink:href="../../d8/d7f/classSharedSpiCard.xhtml#ab311b9ad8a250f06afbe091f7abb118b" target="_top" xlink:title=" ">
<polygon fill="white" stroke="#666666" points="1448.5,-122.18 1316.5,-122.18 1316.5,-103.18 1448.5,-103.18 1448.5,-122.18"/>
<text text-anchor="middle" x="1382.5" y="-110.18" font-family="Helvetica,sans-Serif" font-size="10.00">SharedSpiCard::spiSend</text>
</a>
</g>
</g>
<!-- Node6&#45;&gt;Node9 -->
<g id="edge8_Node000006_Node000009" class="edge">
<title>Node6&#45;&gt;Node9</title>
<g id="a_edge8_Node000006_Node000009"><a xlink:title=" ">
<path fill="none" stroke="#63b8ff" d="M722.08,-162.95C841.6,-157.14 1071.24,-144.7 1266,-126.68 1278.98,-125.48 1292.76,-124 1306.11,-122.45"/>
<polygon fill="#63b8ff" stroke="#63b8ff" points="1306.69,-125.9 1316.21,-121.25 1305.87,-118.95 1306.69,-125.9"/>
</a>
</g>
</g>
<!-- Node11 -->
<g id="Node000011" class="node">
<title>Node11</title>
<g id="a_Node000011"><a xlink:href="../../d8/d7f/classSharedSpiCard.xhtml#aef2dfa72e8d5643c90720f9f8c6a4254" target="_top" xlink:title=" ">
<polygon fill="white" stroke="#666666" points="1258.5,-198.18 1127.5,-198.18 1127.5,-179.18 1258.5,-179.18 1258.5,-198.18"/>
<text text-anchor="middle" x="1193" y="-186.18" font-family="Helvetica,sans-Serif" font-size="10.00">SharedSpiCard::spiStart</text>
</a>
</g>
</g>
<!-- Node6&#45;&gt;Node11 -->
<g id="edge10_Node000006_Node000011" class="edge">
<title>Node6&#45;&gt;Node11</title>
<g id="a_edge10_Node000006_Node000011"><a xlink:title=" ">
<path fill="none" stroke="#63b8ff" d="M722.17,-169.94C828.81,-174.19 1014,-181.58 1117.16,-185.7"/>
<polygon fill="#63b8ff" stroke="#63b8ff" points="1117.06,-189.2 1127.19,-186.1 1117.33,-182.2 1117.06,-189.2"/>
</a>
</g>
</g>
<!-- Node18 -->
<g id="Node000018" class="node">
<title>Node18</title>
<g id="a_Node000018"><a xlink:href="../../d8/d7f/classSharedSpiCard.xhtml#a2f181b3d6f27413a0f5ee883dfd94d87" target="_top" xlink:title=" ">
<polygon fill="white" stroke="#666666" points="908,-122.18 758,-122.18 758,-103.18 908,-103.18 908,-122.18"/>
<text text-anchor="middle" x="833" y="-110.18" font-family="Helvetica,sans-Serif" font-size="10.00">SharedSpiCard::syncDevice</text>
</a>
</g>
</g>
<!-- Node6&#45;&gt;Node18 -->
<g id="edge18_Node000006_Node000018" class="edge">
<title>Node6&#45;&gt;Node18</title>
<g id="a_edge18_Node000006_Node000018"><a xlink:title=" ">
<path fill="none" stroke="#63b8ff" d="M684.23,-157.16C696.5,-154.3 709.81,-151.04 722,-147.68 729.07,-145.74 763.96,-134.59 792.58,-125.39"/>
<polygon fill="#63b8ff" stroke="#63b8ff" points="793.94,-128.63 802.39,-122.24 791.8,-121.97 793.94,-128.63"/>
</a>
</g>
</g>
<!-- Node26 -->
<g id="Node000026" class="node">
<title>Node26</title>
<g id="a_Node000026"><a xlink:href="../../d8/d7f/classSharedSpiCard.xhtml#ab3468397bb3b12d29dd2f31e45b3dcaf" target="_top" xlink:title=" ">
<polygon fill="white" stroke="#666666" points="1266,-236.18 1120,-236.18 1120,-217.18 1266,-217.18 1266,-236.18"/>
<text text-anchor="middle" x="1193" y="-224.18" font-family="Helvetica,sans-Serif" font-size="10.00">SharedSpiCard::waitReady</text>
</a>
</g>
</g>
<!-- Node6&#45;&gt;Node26 -->
<g id="edge37_Node000006_Node000026" class="edge">
<title>Node6&#45;&gt;Node26</title>
<g id="a_edge37_Node000006_Node000026"><a xlink:title=" ">
<path fill="none" stroke="#63b8ff" d="M688.37,-176.21C709.63,-180.19 735,-184.6 758,-187.68 880.07,-204.04 1022.4,-215.37 1109.86,-221.44"/>
<polygon fill="#63b8ff" stroke="#63b8ff" points="1109.77,-224.95 1119.98,-222.14 1110.25,-217.96 1109.77,-224.95"/>
</a>
</g>
</g>
<!-- Node8 -->
<g id="Node000008" class="node">
<title>Node8</title>
<g id="a_Node000008"><a xlink:href="../../d0/d25/classSdSpiArduinoDriver.xhtml#a8d6bc852a52e9d69c4b1e48ee062e8d1" target="_top" xlink:title=" ">
<polygon fill="white" stroke="#666666" points="1610,-286.68 1499,-286.68 1499,-256.68 1610,-256.68 1610,-286.68"/>
<text text-anchor="start" x="1507" y="-274.68" font-family="Helvetica,sans-Serif" font-size="10.00">SdSpiArduinoDriver</text>
<text text-anchor="middle" x="1554.5" y="-263.68" font-family="Helvetica,sans-Serif" font-size="10.00">::receive</text>
</a>
</g>
</g>
<!-- Node7&#45;&gt;Node8 -->
<g id="edge7_Node000007_Node000008" class="edge">
<title>Node7&#45;&gt;Node8</title>
<g id="a_edge7_Node000007_Node000008"><a xlink:title=" ">
<path fill="none" stroke="#63b8ff" d="M1456.09,-267.67C1466.96,-268.12 1478.11,-268.58 1488.81,-269.02"/>
<polygon fill="#63b8ff" stroke="#63b8ff" points="1488.76,-272.52 1498.9,-269.43 1489.05,-265.53 1488.76,-272.52"/>
</a>
</g>
</g>
<!-- Node10 -->
<g id="Node000010" class="node">
<title>Node10</title>
<g id="a_Node000010"><a xlink:href="../../d0/d25/classSdSpiArduinoDriver.xhtml#a3c4842e47f98fe5d3799cd6028778ab5" target="_top" xlink:title=" ">
<polygon fill="white" stroke="#666666" points="1610,-114.68 1499,-114.68 1499,-84.68 1610,-84.68 1610,-114.68"/>
<text text-anchor="start" x="1507" y="-102.68" font-family="Helvetica,sans-Serif" font-size="10.00">SdSpiArduinoDriver</text>
<text text-anchor="middle" x="1554.5" y="-91.68" font-family="Helvetica,sans-Serif" font-size="10.00">::send</text>
</a>
</g>
</g>
<!-- Node9&#45;&gt;Node10 -->
<g id="edge9_Node000009_Node000010" class="edge">
<title>Node9&#45;&gt;Node10</title>
<g id="a_edge9_Node000009_Node000010"><a xlink:title=" ">
<path fill="none" stroke="#63b8ff" d="M1448.74,-107.69C1461.82,-106.69 1475.56,-105.64 1488.62,-104.64"/>
<polygon fill="#63b8ff" stroke="#63b8ff" points="1489.22,-108.11 1498.93,-103.86 1488.69,-101.13 1489.22,-108.11"/>
</a>
</g>
</g>
<!-- Node11&#45;&gt;Node9 -->
<g id="edge17_Node000011_Node000009" class="edge">
<title>Node11&#45;&gt;Node9</title>
<g id="a_edge17_Node000011_Node000009"><a xlink:title=" ">
<path fill="none" stroke="#63b8ff" d="M1232.67,-179.08C1243.85,-175.45 1255.78,-170.7 1266,-164.68 1284.71,-153.68 1282.83,-141.86 1302,-131.68 1306.32,-129.39 1310.91,-127.37 1315.63,-125.59"/>
<polygon fill="#63b8ff" stroke="#63b8ff" points="1317.09,-128.79 1325.44,-122.27 1314.84,-122.16 1317.09,-128.79"/>
</a>
</g>
</g>
<!-- Node12 -->
<g id="Node000012" class="node">
<title>Node12</title>
<g id="a_Node000012"><a xlink:href="../../d8/d7f/classSharedSpiCard.xhtml#a69ee2fe49dfaeea2347d8a265806d2b6" target="_top" xlink:title=" ">
<polygon fill="white" stroke="#666666" points="1457,-198.18 1308,-198.18 1308,-179.18 1457,-179.18 1457,-198.18"/>
<text text-anchor="middle" x="1382.5" y="-186.18" font-family="Helvetica,sans-Serif" font-size="10.00">SharedSpiCard::spiActivate</text>
</a>
</g>
</g>
<!-- Node11&#45;&gt;Node12 -->
<g id="edge11_Node000011_Node000012" class="edge">
<title>Node11&#45;&gt;Node12</title>
<g id="a_edge11_Node000011_Node000012"><a xlink:title=" ">
<path fill="none" stroke="#63b8ff" d="M1258.53,-188.68C1271.19,-188.68 1284.64,-188.68 1297.82,-188.68"/>
<polygon fill="#63b8ff" stroke="#63b8ff" points="1297.84,-192.18 1307.84,-188.68 1297.84,-185.18 1297.84,-192.18"/>
</a>
</g>
</g>
<!-- Node14 -->
<g id="Node000014" class="node">
<title>Node14</title>
<g id="a_Node000014"><a xlink:href="../../d8/d7f/classSharedSpiCard.xhtml#a8c3088599862ff6e84ae79bfdf32aea8" target="_top" xlink:title=" ">
<polygon fill="white" stroke="#666666" points="1451.5,-160.18 1313.5,-160.18 1313.5,-141.18 1451.5,-141.18 1451.5,-160.18"/>
<text text-anchor="middle" x="1382.5" y="-148.18" font-family="Helvetica,sans-Serif" font-size="10.00">SharedSpiCard::spiSelect</text>
</a>
</g>
</g>
<!-- Node11&#45;&gt;Node14 -->
<g id="edge13_Node000011_Node000014" class="edge">
<title>Node11&#45;&gt;Node14</title>
<g id="a_edge13_Node000011_Node000014"><a xlink:title=" ">
<path fill="none" stroke="#63b8ff" d="M1241.31,-179.09C1266.61,-173.97 1297.95,-167.62 1324.57,-162.22"/>
<polygon fill="#63b8ff" stroke="#63b8ff" points="1325.42,-165.62 1334.53,-160.2 1324.03,-158.76 1325.42,-165.62"/>
</a>
</g>
</g>
<!-- Node13 -->
<g id="Node000013" class="node">
<title>Node13</title>
<g id="a_Node000013"><a xlink:href="../../d0/d25/classSdSpiArduinoDriver.xhtml#abb6b88c5c8b87fc344a69f23f6eab3d9" target="_top" xlink:title=" ">
<polygon fill="white" stroke="#666666" points="1610,-200.68 1499,-200.68 1499,-170.68 1610,-170.68 1610,-200.68"/>
<text text-anchor="start" x="1507" y="-188.68" font-family="Helvetica,sans-Serif" font-size="10.00">SdSpiArduinoDriver</text>
<text text-anchor="middle" x="1554.5" y="-177.68" font-family="Helvetica,sans-Serif" font-size="10.00">::activate</text>
</a>
</g>
</g>
<!-- Node12&#45;&gt;Node13 -->
<g id="edge12_Node000012_Node000013" class="edge">
<title>Node12&#45;&gt;Node13</title>
<g id="a_edge12_Node000012_Node000013"><a xlink:title=" ">
<path fill="none" stroke="#63b8ff" d="M1457.08,-187.38C1467.57,-187.2 1478.31,-187.01 1488.63,-186.83"/>
<polygon fill="#63b8ff" stroke="#63b8ff" points="1488.84,-190.32 1498.78,-186.65 1488.72,-183.33 1488.84,-190.32"/>
</a>
</g>
</g>
<!-- Node15 -->
<g id="Node000015" class="node">
<title>Node15</title>
<g id="a_Node000015"><a xlink:href="../../d2/df0/SdSpiChipSelect_8cpp.xhtml#ac469bbe2d31ffde9b00ffc68258d7428" target="_top" xlink:title=" ">
<polygon fill="white" stroke="#666666" points="1587.5,-152.18 1521.5,-152.18 1521.5,-133.18 1587.5,-133.18 1587.5,-152.18"/>
<text text-anchor="middle" x="1554.5" y="-140.18" font-family="Helvetica,sans-Serif" font-size="10.00">sdCsWrite</text>
</a>
</g>
</g>
<!-- Node14&#45;&gt;Node15 -->
<g id="edge14_Node000014_Node000015" class="edge">
<title>Node14&#45;&gt;Node15</title>
<g id="a_edge14_Node000014_Node000015"><a xlink:title=" ">
<path fill="none" stroke="#63b8ff" d="M1451.67,-147.47C1471.74,-146.53 1493.12,-145.52 1511.09,-144.68"/>
<polygon fill="#63b8ff" stroke="#63b8ff" points="1511.41,-148.17 1521.23,-144.2 1511.08,-141.18 1511.41,-148.17"/>
</a>
</g>
</g>
<!-- Node16 -->
<g id="Node000016" class="node">
<title>Node16</title>
<g id="a_Node000016"><a xlink:href="../../d5/d45/wiring__digital_8c.xhtml#a73b9b61feeaf7d790d107f2954a7fd93" target="_top" xlink:title=" ">
<polygon fill="white" stroke="#666666" points="1720,-152.18 1646,-152.18 1646,-133.18 1720,-133.18 1720,-152.18"/>
<text text-anchor="middle" x="1683" y="-140.18" font-family="Helvetica,sans-Serif" font-size="10.00">digitalWrite</text>
</a>
</g>
</g>
<!-- Node15&#45;&gt;Node16 -->
<g id="edge15_Node000015_Node000016" class="edge">
<title>Node15&#45;&gt;Node16</title>
<g id="a_edge15_Node000015_Node000016"><a xlink:title=" ">
<path fill="none" stroke="#63b8ff" d="M1587.75,-142.68C1602.28,-142.68 1619.71,-142.68 1635.61,-142.68"/>
<polygon fill="#63b8ff" stroke="#63b8ff" points="1635.79,-146.18 1645.79,-142.68 1635.79,-139.18 1635.79,-146.18"/>
</a>
</g>
</g>
<!-- Node17 -->
<g id="Node000017" class="node">
<title>Node17</title>
<g id="a_Node000017"><a xlink:href="../../d5/d45/wiring__digital_8c.xhtml#ae3d0bcbe4eb927ca8f5d5c21b7e4f224" target="_top" xlink:title=" ">
<polygon fill="white" stroke="#666666" points="1831,-152.18 1756,-152.18 1756,-133.18 1831,-133.18 1831,-152.18"/>
<text text-anchor="middle" x="1793.5" y="-140.18" font-family="Helvetica,sans-Serif" font-size="10.00">turnOffPWM</text>
</a>
</g>
</g>
<!-- Node16&#45;&gt;Node17 -->
<g id="edge16_Node000016_Node000017" class="edge">
<title>Node16&#45;&gt;Node17</title>
<g id="a_edge16_Node000016_Node000017"><a xlink:title=" ">
<path fill="none" stroke="#63b8ff" d="M1720.13,-142.68C1728.28,-142.68 1737.05,-142.68 1745.57,-142.68"/>
<polygon fill="#63b8ff" stroke="#63b8ff" points="1745.79,-146.18 1755.79,-142.68 1745.79,-139.18 1745.79,-146.18"/>
</a>
</g>
</g>
<!-- Node19 -->
<g id="Node000019" class="node">
<title>Node19</title>
<g id="a_Node000019"><a xlink:href="../../d8/d7f/classSharedSpiCard.xhtml#ab33ad2aefbb9cff905cad0879dffc78b" target="_top" xlink:title=" ">
<polygon fill="white" stroke="#666666" points="1082.5,-84.18 945.5,-84.18 945.5,-65.18 1082.5,-65.18 1082.5,-84.18"/>
<text text-anchor="middle" x="1014" y="-72.18" font-family="Helvetica,sans-Serif" font-size="10.00">SharedSpiCard::readStop</text>
</a>
</g>
</g>
<!-- Node18&#45;&gt;Node19 -->
<g id="edge19_Node000018_Node000019" class="edge">
<title>Node18&#45;&gt;Node19</title>
<g id="a_edge19_Node000018_Node000019"><a xlink:title=" ">
<path fill="none" stroke="#63b8ff" d="M879.17,-103.09C903.22,-97.99 932.97,-91.67 958.32,-86.29"/>
<polygon fill="#63b8ff" stroke="#63b8ff" points="959.1,-89.7 968.16,-84.2 957.65,-82.86 959.1,-89.7"/>
</a>
</g>
</g>
<!-- Node25 -->
<g id="Node000025" class="node">
<title>Node25</title>
<g id="a_Node000025"><a xlink:href="../../d8/d7f/classSharedSpiCard.xhtml#ae9a34a573077e43e7c6028a16ae77fb3" target="_top" xlink:title=" ">
<polygon fill="white" stroke="#666666" points="1084,-122.18 944,-122.18 944,-103.18 1084,-103.18 1084,-122.18"/>
<text text-anchor="middle" x="1014" y="-110.18" font-family="Helvetica,sans-Serif" font-size="10.00">SharedSpiCard::writeStop</text>
</a>
</g>
</g>
<!-- Node18&#45;&gt;Node25 -->
<g id="edge28_Node000018_Node000025" class="edge">
<title>Node18&#45;&gt;Node25</title>
<g id="a_edge28_Node000018_Node000025"><a xlink:title=" ">
<path fill="none" stroke="#63b8ff" d="M908.1,-112.68C916.51,-112.68 925.11,-112.68 933.58,-112.68"/>
<polygon fill="#63b8ff" stroke="#63b8ff" points="933.84,-116.18 943.84,-112.68 933.84,-109.18 933.84,-116.18"/>
</a>
</g>
</g>
<!-- Node19&#45;&gt;Node6 -->
<g id="edge20_Node000019_Node000006" class="edge">
<title>Node19&#45;&gt;Node6</title>
<g id="a_edge20_Node000019_Node000006"><a xlink:title=" ">
<path fill="none" stroke="#63b8ff" d="M954.31,-65.16C899.67,-59.34 817.9,-58.7 758,-93.68 733.09,-108.23 745.71,-131.26 722,-147.68 719.11,-149.69 716.03,-151.48 712.83,-153.09"/>
<polygon fill="#63b8ff" stroke="#63b8ff" points="711.31,-149.94 703.54,-157.14 714.11,-156.35 711.31,-149.94"/>
</a>
</g>
</g>
<!-- Node19&#45;&gt;Node20 -->
<g id="edge21_Node000019_Node000020" class="edge">
<title>Node19&#45;&gt;Node20</title>
<g id="a_edge21_Node000019_Node000020"><a xlink:title=" ">
<path fill="none" stroke="#63b8ff" d="M1082.67,-74.68C1096.28,-74.68 1110.59,-74.68 1124.2,-74.68"/>
<polygon fill="#63b8ff" stroke="#63b8ff" points="1124.46,-78.18 1134.46,-74.68 1124.46,-71.18 1124.46,-78.18"/>
</a>
</g>
</g>
<!-- Node19&#45;&gt;Node21 -->
<g id="edge22_Node000019_Node000021" class="edge">
<title>Node19&#45;&gt;Node21</title>
<g id="a_edge22_Node000019_Node000021"><a xlink:title=" ">
<path fill="none" stroke="#63b8ff" d="M1060.58,-65.15C1083.72,-60.32 1112.02,-54.4 1136.42,-49.3"/>
<polygon fill="#63b8ff" stroke="#63b8ff" points="1137.19,-52.71 1146.27,-47.24 1135.76,-45.86 1137.19,-52.71"/>
</a>
</g>
</g>
<!-- Node21&#45;&gt;Node9 -->
<g id="edge25_Node000021_Node000009" class="edge">
<title>Node21&#45;&gt;Node9</title>
<g id="a_edge25_Node000021_Node000009"><a xlink:title=" ">
<path fill="none" stroke="#63b8ff" d="M1246.9,-47.19C1253.56,-49.45 1260.1,-52.24 1266,-55.68 1286.09,-67.42 1281.85,-82.05 1302,-93.68 1305.91,-95.94 1310.07,-97.93 1314.37,-99.68"/>
<polygon fill="#63b8ff" stroke="#63b8ff" points="1313.34,-103.03 1323.93,-103.15 1315.73,-96.45 1313.34,-103.03"/>
</a>
</g>
</g>
<!-- Node22 -->
<g id="Node000022" class="node">
<title>Node22</title>
<g id="a_Node000022"><a xlink:href="../../d8/d7f/classSharedSpiCard.xhtml#ac6acfca5a23337977d2e4436ab8ab39a" target="_top" xlink:title=" ">
<polygon fill="white" stroke="#666666" points="1463,-47.18 1302,-47.18 1302,-28.18 1463,-28.18 1463,-47.18"/>
<text text-anchor="middle" x="1382.5" y="-35.18" font-family="Helvetica,sans-Serif" font-size="10.00">SharedSpiCard::spiDeactivate</text>
</a>
</g>
</g>
<!-- Node21&#45;&gt;Node22 -->
<g id="edge23_Node000021_Node000022" class="edge">
<title>Node21&#45;&gt;Node22</title>
<g id="a_edge23_Node000021_Node000022"><a xlink:title=" ">
<path fill="none" stroke="#63b8ff" d="M1258,-37.68C1268.92,-37.68 1280.43,-37.68 1291.86,-37.68"/>
<polygon fill="#63b8ff" stroke="#63b8ff" points="1291.87,-41.18 1301.87,-37.68 1291.87,-34.18 1291.87,-41.18"/>
</a>
</g>
</g>
<!-- Node24 -->
<g id="Node000024" class="node">
<title>Node24</title>
<g id="a_Node000024"><a xlink:href="../../d8/d7f/classSharedSpiCard.xhtml#ad06a3278372300987b97876cf598c114" target="_top" xlink:title=" ">
<polygon fill="white" stroke="#666666" points="1458,-85.18 1307,-85.18 1307,-66.18 1458,-66.18 1458,-85.18"/>
<text text-anchor="middle" x="1382.5" y="-73.18" font-family="Helvetica,sans-Serif" font-size="10.00">SharedSpiCard::spiUnselect</text>
</a>
</g>
</g>
<!-- Node21&#45;&gt;Node24 -->
<g id="edge26_Node000021_Node000024" class="edge">
<title>Node21&#45;&gt;Node24</title>
<g id="a_edge26_Node000021_Node000024"><a xlink:title=" ">
<path fill="none" stroke="#63b8ff" d="M1241.31,-47.27C1266.61,-52.4 1297.95,-58.75 1324.57,-64.15"/>
<polygon fill="#63b8ff" stroke="#63b8ff" points="1324.03,-67.61 1334.53,-66.16 1325.42,-60.75 1324.03,-67.61"/>
</a>
</g>
</g>
<!-- Node23 -->
<g id="Node000023" class="node">
<title>Node23</title>
<g id="a_Node000023"><a xlink:href="../../d0/d25/classSdSpiArduinoDriver.xhtml#ae88a255f533e3acb41d1221025a69b55" target="_top" xlink:title=" ">
<polygon fill="white" stroke="#666666" points="1610,-52.68 1499,-52.68 1499,-22.68 1610,-22.68 1610,-52.68"/>
<text text-anchor="start" x="1507" y="-40.68" font-family="Helvetica,sans-Serif" font-size="10.00">SdSpiArduinoDriver</text>
<text text-anchor="middle" x="1554.5" y="-29.68" font-family="Helvetica,sans-Serif" font-size="10.00">::deactivate</text>
</a>
</g>
</g>
<!-- Node22&#45;&gt;Node23 -->
<g id="edge24_Node000022_Node000023" class="edge">
<title>Node22&#45;&gt;Node23</title>
<g id="a_edge24_Node000022_Node000023"><a xlink:title=" ">
<path fill="none" stroke="#63b8ff" d="M1463.02,-37.68C1471.63,-37.68 1480.3,-37.68 1488.7,-37.68"/>
<polygon fill="#63b8ff" stroke="#63b8ff" points="1488.78,-41.18 1498.78,-37.68 1488.78,-34.18 1488.78,-41.18"/>
</a>
</g>
</g>
<!-- Node24&#45;&gt;Node15 -->
<g id="edge27_Node000024_Node000015" class="edge">
<title>Node24&#45;&gt;Node15</title>
<g id="a_edge27_Node000024_Node000015"><a xlink:title=" ">
<path fill="none" stroke="#63b8ff" d="M1441.08,-85.3C1448.65,-87.54 1456.15,-90.3 1463,-93.68 1481.67,-102.9 1480.88,-113.42 1499,-123.68 1502.98,-125.94 1507.28,-127.99 1511.65,-129.85"/>
<polygon fill="#63b8ff" stroke="#63b8ff" points="1510.66,-133.22 1521.25,-133.59 1513.2,-126.69 1510.66,-133.22"/>
</a>
</g>
</g>
<!-- Node25&#45;&gt;Node9 -->
<g id="edge30_Node000025_Node000009" class="edge">
<title>Node25&#45;&gt;Node9</title>
<g id="a_edge30_Node000025_Node000009"><a xlink:title=" ">
<path fill="none" stroke="#63b8ff" d="M1084.37,-112.68C1147.7,-112.68 1241.09,-112.68 1306.22,-112.68"/>
<polygon fill="#63b8ff" stroke="#63b8ff" points="1306.42,-116.18 1316.42,-112.68 1306.42,-109.18 1306.42,-116.18"/>
</a>
</g>
</g>
<!-- Node25&#45;&gt;Node20 -->
<g id="edge29_Node000025_Node000020" class="edge">
<title>Node25&#45;&gt;Node20</title>
<g id="a_edge29_Node000025_Node000020"><a xlink:title=" ">
<path fill="none" stroke="#63b8ff" d="M1059.66,-103.09C1083.34,-98.01 1112.61,-91.73 1137.6,-86.36"/>
<polygon fill="#63b8ff" stroke="#63b8ff" points="1138.61,-89.72 1147.66,-84.2 1137.14,-82.88 1138.61,-89.72"/>
</a>
</g>
</g>
<!-- Node25&#45;&gt;Node21 -->
<g id="edge31_Node000025_Node000021" class="edge">
<title>Node25&#45;&gt;Node21</title>
<g id="a_edge31_Node000025_Node000021"><a xlink:title=" ">
<path fill="none" stroke="#63b8ff" d="M1060.58,-103.11C1068.69,-100.4 1076.84,-96.98 1084,-92.68 1103.67,-80.87 1100.11,-67.12 1120,-55.68 1123.05,-53.93 1126.27,-52.34 1129.59,-50.91"/>
<polygon fill="#63b8ff" stroke="#63b8ff" points="1131.05,-54.1 1139.15,-47.26 1128.56,-47.56 1131.05,-54.1"/>
</a>
</g>
</g>
<!-- Node25&#45;&gt;Node26 -->
<g id="edge32_Node000025_Node000026" class="edge">
<title>Node25&#45;&gt;Node26</title>
<g id="a_edge32_Node000025_Node000026"><a xlink:title=" ">
<path fill="none" stroke="#63b8ff" d="M1022.87,-122.4C1038.99,-141.68 1077.86,-184.84 1120,-207.68 1124.18,-209.95 1128.65,-211.96 1133.24,-213.74"/>
<polygon fill="#63b8ff" stroke="#63b8ff" points="1132.17,-217.07 1142.76,-217.07 1134.48,-210.46 1132.17,-217.07"/>
</a>
</g>
</g>
<!-- Node26&#45;&gt;Node7 -->
<g id="edge33_Node000026_Node000007" class="edge">
<title>Node26&#45;&gt;Node7</title>
<g id="a_edge33_Node000026_Node000007"><a xlink:title=" ">
<path fill="none" stroke="#63b8ff" d="M1241.31,-236.27C1266.61,-241.4 1297.95,-247.75 1324.57,-253.15"/>
<polygon fill="#63b8ff" stroke="#63b8ff" points="1324.03,-256.61 1334.53,-255.16 1325.42,-249.75 1324.03,-256.61"/>
</a>
</g>
</g>
<!-- Node27 -->
<g id="Node000027" class="node">
<title>Node27</title>
<g id="a_Node000027"><a xlink:href="../../db/df4/classTimeout.xhtml#abbabe99f42e52472ddd3a7e9d22dce95" target="_top" xlink:title=" ">
<polygon fill="white" stroke="#666666" points="1437,-236.18 1328,-236.18 1328,-217.18 1437,-217.18 1437,-236.18"/>
<text text-anchor="middle" x="1382.5" y="-224.18" font-family="Helvetica,sans-Serif" font-size="10.00">Timeout::timedOut</text>
</a>
</g>
</g>
<!-- Node26&#45;&gt;Node27 -->
<g id="edge34_Node000026_Node000027" class="edge">
<title>Node26&#45;&gt;Node27</title>
<g id="a_edge34_Node000026_Node000027"><a xlink:title=" ">
<path fill="none" stroke="#63b8ff" d="M1266.22,-226.68C1283.23,-226.68 1301.22,-226.68 1317.82,-226.68"/>
<polygon fill="#63b8ff" stroke="#63b8ff" points="1317.95,-230.18 1327.95,-226.68 1317.95,-223.18 1317.95,-230.18"/>
</a>
</g>
</g>
<!-- Node28 -->
<g id="Node000028" class="node">
<title>Node28</title>
<g id="a_Node000028"><a xlink:href="../../db/df4/classTimeout.xhtml#a9a72ea0591f11452fb15bfaa1ae5108a" target="_top" xlink:title=" ">
<polygon fill="white" stroke="#666666" points="1605.5,-238.18 1503.5,-238.18 1503.5,-219.18 1605.5,-219.18 1605.5,-238.18"/>
<text text-anchor="middle" x="1554.5" y="-226.18" font-family="Helvetica,sans-Serif" font-size="10.00">Timeout::millis16</text>
</a>
</g>
</g>
<!-- Node27&#45;&gt;Node28 -->
<g id="edge35_Node000027_Node000028" class="edge">
<title>Node27&#45;&gt;Node28</title>
<g id="a_edge35_Node000027_Node000028"><a xlink:title=" ">
<path fill="none" stroke="#63b8ff" d="M1437.29,-227.32C1455.02,-227.52 1474.85,-227.76 1493.04,-227.97"/>
<polygon fill="#63b8ff" stroke="#63b8ff" points="1493.2,-231.47 1503.24,-228.09 1493.28,-224.47 1493.2,-231.47"/>
</a>
</g>
</g>
<!-- Node29 -->
<g id="Node000029" class="node">
<title>Node29</title>
<g id="a_Node000029"><a xlink:href="../../d5/df3/wiring_8c.xhtml#a6ff7f2532a22366f0013bc41397129fd" target="_top" xlink:title=" ">
<polygon fill="white" stroke="#666666" points="1705,-238.18 1661,-238.18 1661,-219.18 1705,-219.18 1705,-238.18"/>
<text text-anchor="middle" x="1683" y="-226.18" font-family="Helvetica,sans-Serif" font-size="10.00">millis</text>
</a>
</g>
</g>
<!-- Node28&#45;&gt;Node29 -->
<g id="edge36_Node000028_Node000029" class="edge">
<title>Node28&#45;&gt;Node29</title>
<g id="a_edge36_Node000028_Node000029"><a xlink:title=" ">
<path fill="none" stroke="#63b8ff" d="M1605.86,-228.68C1620.97,-228.68 1637.11,-228.68 1650.62,-228.68"/>
<polygon fill="#63b8ff" stroke="#63b8ff" points="1650.83,-232.18 1660.83,-228.68 1650.83,-225.18 1650.83,-232.18"/>
</a>
</g>
</g>
<!-- Node30&#45;&gt;Node30 -->
<g id="edge40_Node000030_Node000030" class="edge">
<title>Node30&#45;&gt;Node30</title>
<g id="a_edge40_Node000030_Node000030"><a xlink:title=" ">
<path fill="none" stroke="#63b8ff" d="M610.22,-121.27C595.97,-129.92 605.73,-139.18 639.5,-139.18 662.72,-139.18 674.59,-134.8 675.11,-129.25"/>
<polygon fill="#63b8ff" stroke="#63b8ff" points="677.73,-126.93 668.78,-121.27 672.25,-131.28 677.73,-126.93"/>
</a>
</g>
</g>
</g>
</svg>

<g id="navigator" transform="translate(0 0)" fill="#404254">
  <rect fill="#f2f5e9" fill-opacity="0.5" stroke="#606060" stroke-width=".5" x="0" y="0" width="60" height="60"/>
  <use id="zoomplus" xlink:href="#zoomPlus" x="17" y="9" onmousedown="handleZoom(evt,'in')"/>
  <use id="zoomminus" xlink:href="#zoomMin" x="42" y="9" onmousedown="handleZoom(evt,'out')"/>
  <use id="reset" xlink:href="#resetDef" x="30" y="36" onmousedown="handleReset()"/>
   <use id="arrowup" xlink:href="#arrowUp" x="0" y="0" onmousedown="handlePan(0,-1)"/>
  <use id="arrowright" xlink:href="#arrowRight" x="0" y="0" onmousedown="handlePan(1,0)"/>
  <use id="arrowdown" xlink:href="#arrowDown" x="0" y="0" onmousedown="handlePan(0,1)"/>
  <use id="arrowleft" xlink:href="#arrowLeft" x="0" y="0" onmousedown="handlePan(-1,0)"/>
</g>
<svg viewBox="0 0 15 15" width="100%" height="30px" preserveAspectRatio="xMaxYMin meet">
 <g id="arrow_out" transform="scale(0.3 0.3)">
  <a xlink:href="classExFatPartition_a682d814b85f2fc47ad88ec10ed4826f2_cgraph_org.svg" target="_base">
   <rect id="button" ry="5" rx="5" y="6" x="6" height="38" width="38"
        fill="#f2f5e9" fill-opacity="0.5" stroke="#606060" stroke-width="1.0"/>
   <path id="arrow"
     d="M 11.500037,31.436501 C 11.940474,20.09759 22.043105,11.32322 32.158766,21.979434 L 37.068811,17.246167 C 37.068811,17.246167 37.088388,32 37.088388,32 L 22.160133,31.978069 C 22.160133,31.978069 26.997745,27.140456 26.997745,27.140456 C 18.528582,18.264221 13.291696,25.230495 11.500037,31.436501 z"
     style="fill:#404040;"/>
  </a>
 </g>
</svg>

<style type='text/css'>
<![CDATA[
[data-mouse-over-selected='false'] { opacity: 0.7; }
[data-mouse-over-selected='true']  { opacity: 1.0; }
]]>
</style>
<script type="application/ecmascript"><![CDATA[
document.addEventListener('DOMContentLoaded', (event) => {
  highlightEdges();
  highlightAdjacentNodes();
});
]]></script>
</svg>
