<?xml version="1.0" encoding="UTF-8" standalone="no"?>
<!DOCTYPE svg PUBLIC "-//W3C//DTD SVG 1.1//EN"
 "http://www.w3.org/Graphics/SVG/1.1/DTD/svg11.dtd">
<!-- Generated by graphviz version 2.43.0 (0)
 -->
<!-- Title: ExFatPartition::freeClusterCount Pages: 1 -->
<!--zoomable 568 -->

<svg id="main" version="1.1" xmlns="http://www.w3.org/2000/svg" xmlns:xlink="http://www.w3.org/1999/xlink" xml:space="preserve" onload="init(evt)">
<style type="text/css"><![CDATA[
.node, .edge {opacity: 0.7;}
.node.selected, .edge.selected {opacity: 1;}
.edge:hover path { stroke: red; }
.edge:hover polygon { stroke: red; fill: red; }
]]></style>

<defs>
  <circle id="rim" cx="0" cy="0" r="7"/>
  <circle id="rim2" cx="0" cy="0" r="3.5"/>
  <g id="zoomPlus">
    <use xlink:href="#rim" fill="#404040"><set attributeName="fill" to="#808080" begin="zoomplus.mouseover" end="zoomplus.mouseout"/></use>
    <path d="M-4,0h8M0,-4v8" fill="none" stroke="white" stroke-width="1.5" pointer-events="none"/>
  </g>
  <g id="zoomMin">
    <use xlink:href="#rim" fill="#404040"><set attributeName="fill" to="#808080" begin="zoomminus.mouseover" end="zoomminus.mouseout"/></use>
    <path d="M-4,0h8" fill="none" stroke="white" stroke-width="1.5" pointer-events="none"/>
  </g>
  <g id="arrowUp" transform="translate(30 24)">
    <use xlink:href="#rim"/>
    <path pointer-events="none" fill="none" stroke="white" stroke-width="1.5" d="M0,-3.0v7 M-2.5,-0.5L0,-3.0L2.5,-0.5"/>
  </g>
  <g id="arrowRight" transform="rotate(90) translate(36 -43)">
    <use xlink:href="#rim"/>
    <path pointer-events="none" fill="none" stroke="white" stroke-width="1.5" d="M0,-3.0v7 M-2.5,-0.5L0,-3.0L2.5,-0.5"/>
  </g>
  <g id="arrowDown" transform="rotate(180) translate(-30 -48)">
    <use xlink:href="#rim"/>
    <path pointer-events="none" fill="none" stroke="white" stroke-width="1.5" d="M0,-3.0v7 M-2.5,-0.5L0,-3.0L2.5,-0.5"/>
  </g>
  <g id="arrowLeft" transform="rotate(270) translate(-36 17)">
    <use xlink:href="#rim"/>
    <path pointer-events="none" fill="none" stroke="white" stroke-width="1.5" d="M0,-3.0v7 M-2.5,-0.5L0,-3.0L2.5,-0.5"/>
  </g>
  <g id="resetDef">
    <use xlink:href="#rim2" fill="#404040"><set attributeName="fill" to="#808080" begin="reset.mouseover" end="reset.mouseout"/></use>
  </g>
</defs>
<script type="application/ecmascript">
var viewWidth = 2092;
var viewHeight = 568;
var sectionId = 'dynsection-54';
</script>
<script type="application/ecmascript" xlink:href="../../svg.min.js"/>
<svg id="graph" class="graph">
<g id="viewport">
<title>ExFatPartition::freeClusterCount</title>
<!-- Node1 -->
<g id="Node000001" class="node">
<title>Node1</title>
<g id="a_Node000001"><a xlink:title=" ">
<polygon fill="#999999" stroke="#666666" points="143,-402 0,-402 0,-372 143,-372 143,-402"/>
<text text-anchor="start" x="8" y="-390" font-family="Helvetica,sans-Serif" font-size="10.00">ExFatPartition::freeCluster</text>
<text text-anchor="middle" x="71.5" y="-379" font-family="Helvetica,sans-Serif" font-size="10.00">Count</text>
</a>
</g>
</g>
<!-- Node2 -->
<g id="Node000002" class="node">
<title>Node2</title>
<g id="a_Node000002"><a xlink:href="../../d0/d63/classExFatPartition.xhtml#a236e1ae2dfd3e7acc8dfa0cbf4658453" target="_top" xlink:title=" ">
<polygon fill="white" stroke="#666666" points="320,-402 179,-402 179,-372 320,-372 320,-402"/>
<text text-anchor="start" x="187" y="-390" font-family="Helvetica,sans-Serif" font-size="10.00">ExFatPartition::dataCache</text>
<text text-anchor="middle" x="249.5" y="-379" font-family="Helvetica,sans-Serif" font-size="10.00">Prepare</text>
</a>
</g>
</g>
<!-- Node1&#45;&gt;Node2 -->
<g id="edge1_Node000001_Node000002" class="edge">
<title>Node1&#45;&gt;Node2</title>
<g id="a_edge1_Node000001_Node000002"><a xlink:title=" ">
<path fill="none" stroke="#63b8ff" d="M143.07,-387C151.43,-387 160.02,-387 168.5,-387"/>
<polygon fill="#63b8ff" stroke="#63b8ff" points="168.77,-390.5 178.77,-387 168.77,-383.5 168.77,-390.5"/>
</a>
</g>
</g>
<!-- Node3 -->
<g id="Node000003" class="node">
<title>Node3</title>
<g id="a_Node000003"><a xlink:href="../../dd/db1/classFsCache.xhtml#a8c11f064a2ce0a380f522392f09d63cb" target="_top" xlink:title=" ">
<polygon fill="white" stroke="#666666" points="457,-396.5 356,-396.5 356,-377.5 457,-377.5 457,-396.5"/>
<text text-anchor="middle" x="406.5" y="-384.5" font-family="Helvetica,sans-Serif" font-size="10.00">FsCache::prepare</text>
</a>
</g>
</g>
<!-- Node2&#45;&gt;Node3 -->
<g id="edge2_Node000002_Node000003" class="edge">
<title>Node2&#45;&gt;Node3</title>
<g id="a_edge2_Node000002_Node000003"><a xlink:title=" ">
<path fill="none" stroke="#63b8ff" d="M320.29,-387C328.65,-387 337.14,-387 345.35,-387"/>
<polygon fill="#63b8ff" stroke="#63b8ff" points="345.57,-390.5 355.57,-387 345.57,-383.5 345.57,-390.5"/>
</a>
</g>
</g>
<!-- Node4 -->
<g id="Node000004" class="node">
<title>Node4</title>
<g id="a_Node000004"><a xlink:href="../../d8/d7f/classSharedSpiCard.xhtml#a61d86f4092f8ddbc7339d7cbcf6f70c0" target="_top" xlink:title=" ">
<polygon fill="white" stroke="#666666" points="770.5,-446.5 624.5,-446.5 624.5,-427.5 770.5,-427.5 770.5,-446.5"/>
<text text-anchor="middle" x="697.5" y="-434.5" font-family="Helvetica,sans-Serif" font-size="10.00">SharedSpiCard::readSector</text>
</a>
</g>
</g>
<!-- Node3&#45;&gt;Node4 -->
<g id="edge3_Node000003_Node000004" class="edge">
<title>Node3&#45;&gt;Node4</title>
<g id="a_edge3_Node000003_Node000004"><a xlink:title=" ">
<path fill="none" stroke="#63b8ff" d="M447.83,-396.55C462.06,-399.76 478.2,-403.23 493,-406 533.3,-413.54 578.34,-420.54 615.79,-425.98"/>
<polygon fill="#63b8ff" stroke="#63b8ff" points="615.74,-429.51 626.14,-427.47 616.74,-422.58 615.74,-429.51"/>
</a>
</g>
</g>
<!-- Node31 -->
<g id="Node000031" class="node">
<title>Node31</title>
<g id="a_Node000031"><a xlink:href="../../dd/db1/classFsCache.xhtml#a5b90e145400de8687d9f34536b134130" target="_top" xlink:title=" ">
<polygon fill="white" stroke="#666666" points="587,-396.5 493,-396.5 493,-377.5 587,-377.5 587,-396.5"/>
<text text-anchor="middle" x="540" y="-384.5" font-family="Helvetica,sans-Serif" font-size="10.00">FsCache::sector</text>
</a>
</g>
</g>
<!-- Node3&#45;&gt;Node31 -->
<g id="edge42_Node000003_Node000031" class="edge">
<title>Node3&#45;&gt;Node31</title>
<g id="a_edge42_Node000003_Node000031"><a xlink:title=" ">
<path fill="none" stroke="#63b8ff" d="M457.21,-387C465.49,-387 474.12,-387 482.55,-387"/>
<polygon fill="#63b8ff" stroke="#63b8ff" points="482.68,-390.5 492.68,-387 482.68,-383.5 482.68,-390.5"/>
</a>
</g>
</g>
<!-- Node32 -->
<g id="Node000032" class="node">
<title>Node32</title>
<g id="a_Node000032"><a xlink:href="../../dd/db1/classFsCache.xhtml#a5a2c8fb432d7b7590ebb43200ca21893" target="_top" xlink:title=" ">
<polygon fill="white" stroke="#666666" points="583,-340.5 497,-340.5 497,-321.5 583,-321.5 583,-340.5"/>
<text text-anchor="middle" x="540" y="-328.5" font-family="Helvetica,sans-Serif" font-size="10.00">FsCache::sync</text>
</a>
</g>
</g>
<!-- Node3&#45;&gt;Node32 -->
<g id="edge43_Node000003_Node000032" class="edge">
<title>Node3&#45;&gt;Node32</title>
<g id="a_edge43_Node000003_Node000032"><a xlink:title=" ">
<path fill="none" stroke="#63b8ff" d="M430.11,-377.37C451.4,-368.3 483.52,-354.63 507.36,-344.48"/>
<polygon fill="#63b8ff" stroke="#63b8ff" points="508.86,-347.64 516.69,-340.5 506.12,-341.2 508.86,-347.64"/>
</a>
</g>
</g>
<!-- Node5 -->
<g id="Node000005" class="node">
<title>Node5</title>
<g id="a_Node000005"><a xlink:href="../../d8/d7f/classSharedSpiCard.xhtml#adda33199753fc2aec74fe317cbaabc06" target="_top" xlink:title=" ">
<polygon fill="white" stroke="#666666" points="973,-218.5 808,-218.5 808,-199.5 973,-199.5 973,-218.5"/>
<text text-anchor="middle" x="890.5" y="-206.5" font-family="Helvetica,sans-Serif" font-size="10.00">SharedSpiCard::cardCommand</text>
</a>
</g>
</g>
<!-- Node4&#45;&gt;Node5 -->
<g id="edge4_Node000004_Node000005" class="edge">
<title>Node4&#45;&gt;Node5</title>
<g id="a_edge4_Node000004_Node000005"><a xlink:title=" ">
<path fill="none" stroke="#63b8ff" d="M706.46,-427.49C735.65,-392.66 837.01,-271.66 874.99,-226.33"/>
<polygon fill="#63b8ff" stroke="#63b8ff" points="877.76,-228.46 881.5,-218.55 872.4,-223.97 877.76,-228.46"/>
</a>
</g>
</g>
<!-- Node19 -->
<g id="Node000019" class="node">
<title>Node19</title>
<g id="a_Node000019"><a xlink:href="../../d8/d7f/classSharedSpiCard.xhtml#a747c3f0b962098cf0c097f3c4c2b4fd4" target="_top" xlink:title=" ">
<polygon fill="white" stroke="#666666" points="1504.5,-350.5 1387.5,-350.5 1387.5,-331.5 1504.5,-331.5 1504.5,-350.5"/>
<text text-anchor="middle" x="1446" y="-338.5" font-family="Helvetica,sans-Serif" font-size="10.00">SharedSpiCard::error</text>
</a>
</g>
</g>
<!-- Node4&#45;&gt;Node19 -->
<g id="edge37_Node000004_Node000019" class="edge">
<title>Node4&#45;&gt;Node19</title>
<g id="a_edge37_Node000004_Node000019"><a xlink:title=" ">
<path fill="none" stroke="#63b8ff" d="M724.48,-446.6C814.56,-478.21 1119.76,-571.45 1337,-470 1386,-447.12 1420.62,-389.85 1436.03,-359.91"/>
<polygon fill="#63b8ff" stroke="#63b8ff" points="1439.36,-361.07 1440.67,-350.56 1433.09,-357.96 1439.36,-361.07"/>
</a>
</g>
</g>
<!-- Node20 -->
<g id="Node000020" class="node">
<title>Node20</title>
<g id="a_Node000020"><a xlink:href="../../d8/d7f/classSharedSpiCard.xhtml#a0f511c39c50055a4fc97e720933aee3a" target="_top" xlink:title=" ">
<polygon fill="white" stroke="#666666" points="1511,-293.5 1381,-293.5 1381,-274.5 1511,-274.5 1511,-293.5"/>
<text text-anchor="middle" x="1446" y="-281.5" font-family="Helvetica,sans-Serif" font-size="10.00">SharedSpiCard::spiStop</text>
</a>
</g>
</g>
<!-- Node4&#45;&gt;Node20 -->
<g id="edge40_Node000004_Node000020" class="edge">
<title>Node4&#45;&gt;Node20</title>
<g id="a_edge40_Node000004_Node000020"><a xlink:title=" ">
<path fill="none" stroke="#63b8ff" d="M746.15,-446.51C859.18,-466.32 1148.17,-500.63 1337,-378 1361.5,-362.09 1351.5,-342.78 1373,-323 1384.11,-312.78 1398.4,-304.32 1411.31,-297.93"/>
<polygon fill="#63b8ff" stroke="#63b8ff" points="1412.85,-301.07 1420.41,-293.64 1409.87,-294.74 1412.85,-301.07"/>
</a>
</g>
</g>
<!-- Node29 -->
<g id="Node000029" class="node">
<title>Node29</title>
<g id="a_Node000029"><a xlink:href="../../d8/d7f/classSharedSpiCard.xhtml#abeae3cdc162f24c2d450abe4e1ed8340" target="_top" xlink:title=" ">
<polygon fill="white" stroke="#666666" points="960,-541.5 821,-541.5 821,-522.5 960,-522.5 960,-541.5"/>
<text text-anchor="middle" x="890.5" y="-529.5" font-family="Helvetica,sans-Serif" font-size="10.00">SharedSpiCard::readData</text>
</a>
</g>
</g>
<!-- Node4&#45;&gt;Node29 -->
<g id="edge38_Node000004_Node000029" class="edge">
<title>Node4&#45;&gt;Node29</title>
<g id="a_edge38_Node000004_Node000029"><a xlink:title=" ">
<path fill="none" stroke="#63b8ff" d="M710.62,-446.56C730.12,-461.53 770.12,-490.59 808,-508 817.65,-512.43 828.32,-516.27 838.67,-519.5"/>
<polygon fill="#63b8ff" stroke="#63b8ff" points="837.87,-522.91 848.45,-522.41 839.86,-516.2 837.87,-522.91"/>
</a>
</g>
</g>
<!-- Node30 -->
<g id="Node000030" class="node">
<title>Node30</title>
<g id="a_Node000030"><a xlink:href="../../d8/d7f/classSharedSpiCard.xhtml#a7dac2190763d7b4b72163ed7131e8a87" target="_top" xlink:title=" ">
<polygon fill="white" stroke="#666666" points="948.5,-427.5 832.5,-427.5 832.5,-408.5 948.5,-408.5 948.5,-427.5"/>
<text text-anchor="middle" x="890.5" y="-415.5" font-family="Helvetica,sans-Serif" font-size="10.00">SharedSpiCard::type</text>
</a>
</g>
</g>
<!-- Node4&#45;&gt;Node30 -->
<g id="edge41_Node000004_Node000030" class="edge">
<title>Node4&#45;&gt;Node30</title>
<g id="a_edge41_Node000004_Node000030"><a xlink:title=" ">
<path fill="none" stroke="#63b8ff" d="M770.71,-429.82C787.59,-428.14 805.51,-426.35 822.17,-424.7"/>
<polygon fill="#63b8ff" stroke="#63b8ff" points="822.76,-428.16 832.37,-423.68 822.07,-421.19 822.76,-428.16"/>
</a>
</g>
</g>
<!-- Node6 -->
<g id="Node000006" class="node">
<title>Node6</title>
<g id="a_Node000006"><a xlink:href="../../d8/d7f/classSharedSpiCard.xhtml#a08363209d938db87521cca6a84146041" target="_top" xlink:title=" ">
<polygon fill="white" stroke="#666666" points="1709,-79.5 1562,-79.5 1562,-60.5 1709,-60.5 1709,-79.5"/>
<text text-anchor="middle" x="1635.5" y="-67.5" font-family="Helvetica,sans-Serif" font-size="10.00">SharedSpiCard::spiReceive</text>
</a>
</g>
</g>
<!-- Node5&#45;&gt;Node6 -->
<g id="edge5_Node000005_Node000006" class="edge">
<title>Node5&#45;&gt;Node6</title>
<g id="a_edge5_Node000005_Node000006"><a xlink:title=" ">
<path fill="none" stroke="#63b8ff" d="M900.76,-199.34C919.27,-180.72 963.07,-140.19 1009,-123 1193.4,-53.97 1429.07,-55.98 1551.8,-63.14"/>
<polygon fill="#63b8ff" stroke="#63b8ff" points="1551.68,-66.64 1561.87,-63.75 1552.11,-59.65 1551.68,-66.64"/>
</a>
</g>
</g>
<!-- Node8 -->
<g id="Node000008" class="node">
<title>Node8</title>
<g id="a_Node000008"><a xlink:href="../../d8/d7f/classSharedSpiCard.xhtml#ab311b9ad8a250f06afbe091f7abb118b" target="_top" xlink:title=" ">
<polygon fill="white" stroke="#666666" points="1701.5,-236.5 1569.5,-236.5 1569.5,-217.5 1701.5,-217.5 1701.5,-236.5"/>
<text text-anchor="middle" x="1635.5" y="-224.5" font-family="Helvetica,sans-Serif" font-size="10.00">SharedSpiCard::spiSend</text>
</a>
</g>
</g>
<!-- Node5&#45;&gt;Node8 -->
<g id="edge7_Node000005_Node000008" class="edge">
<title>Node5&#45;&gt;Node8</title>
<g id="a_edge7_Node000005_Node000008"><a xlink:title=" ">
<path fill="none" stroke="#63b8ff" d="M973.22,-207.84C1062.59,-206.89 1210.02,-206.23 1337,-210 1412.65,-212.24 1498.98,-217.47 1559.09,-221.55"/>
<polygon fill="#63b8ff" stroke="#63b8ff" points="1559.04,-225.05 1569.25,-222.24 1559.52,-218.07 1559.04,-225.05"/>
</a>
</g>
</g>
<!-- Node10 -->
<g id="Node000010" class="node">
<title>Node10</title>
<g id="a_Node000010"><a xlink:href="../../d8/d7f/classSharedSpiCard.xhtml#aef2dfa72e8d5643c90720f9f8c6a4254" target="_top" xlink:title=" ">
<polygon fill="white" stroke="#666666" points="1511.5,-161.5 1380.5,-161.5 1380.5,-142.5 1511.5,-142.5 1511.5,-161.5"/>
<text text-anchor="middle" x="1446" y="-149.5" font-family="Helvetica,sans-Serif" font-size="10.00">SharedSpiCard::spiStart</text>
</a>
</g>
</g>
<!-- Node5&#45;&gt;Node10 -->
<g id="edge9_Node000005_Node000010" class="edge">
<title>Node5&#45;&gt;Node10</title>
<g id="a_edge9_Node000005_Node000010"><a xlink:title=" ">
<path fill="none" stroke="#63b8ff" d="M919.13,-199.39C942.69,-191.64 977.65,-181.2 1009,-176 1134.53,-155.18 1282.89,-151.34 1370.17,-151.17"/>
<polygon fill="#63b8ff" stroke="#63b8ff" points="1370.25,-154.67 1380.25,-151.17 1370.25,-147.67 1370.25,-154.67"/>
</a>
</g>
</g>
<!-- Node17 -->
<g id="Node000017" class="node">
<title>Node17</title>
<g id="a_Node000017"><a xlink:href="../../d8/d7f/classSharedSpiCard.xhtml#a2f181b3d6f27413a0f5ee883dfd94d87" target="_top" xlink:title=" ">
<polygon fill="white" stroke="#666666" points="1159,-237.5 1009,-237.5 1009,-218.5 1159,-218.5 1159,-237.5"/>
<text text-anchor="middle" x="1084" y="-225.5" font-family="Helvetica,sans-Serif" font-size="10.00">SharedSpiCard::syncDevice</text>
</a>
</g>
</g>
<!-- Node5&#45;&gt;Node17 -->
<g id="edge17_Node000005_Node000017" class="edge">
<title>Node5&#45;&gt;Node17</title>
<g id="a_edge17_Node000005_Node000017"><a xlink:title=" ">
<path fill="none" stroke="#63b8ff" d="M973.27,-217.11C981.65,-217.94 990.18,-218.79 998.59,-219.63"/>
<polygon fill="#63b8ff" stroke="#63b8ff" points="998.48,-223.13 1008.78,-220.64 999.17,-216.17 998.48,-223.13"/>
</a>
</g>
</g>
<!-- Node25 -->
<g id="Node000025" class="node">
<title>Node25</title>
<g id="a_Node000025"><a xlink:href="../../d8/d7f/classSharedSpiCard.xhtml#ab3468397bb3b12d29dd2f31e45b3dcaf" target="_top" xlink:title=" ">
<polygon fill="white" stroke="#666666" points="1519,-123.5 1373,-123.5 1373,-104.5 1519,-104.5 1519,-123.5"/>
<text text-anchor="middle" x="1446" y="-111.5" font-family="Helvetica,sans-Serif" font-size="10.00">SharedSpiCard::waitReady</text>
</a>
</g>
</g>
<!-- Node5&#45;&gt;Node25 -->
<g id="edge36_Node000005_Node000025" class="edge">
<title>Node5&#45;&gt;Node25</title>
<g id="a_edge36_Node000005_Node000025"><a xlink:title=" ">
<path fill="none" stroke="#63b8ff" d="M907.57,-199.48C929.61,-186.93 970.84,-165.24 1009,-155 1129.2,-122.73 1273.94,-114.97 1362.7,-113.56"/>
<polygon fill="#63b8ff" stroke="#63b8ff" points="1362.76,-117.06 1372.71,-113.43 1362.66,-110.06 1362.76,-117.06"/>
</a>
</g>
</g>
<!-- Node7 -->
<g id="Node000007" class="node">
<title>Node7</title>
<g id="a_Node000007"><a xlink:href="../../d0/d25/classSdSpiArduinoDriver.xhtml#a8d6bc852a52e9d69c4b1e48ee062e8d1" target="_top" xlink:title=" ">
<polygon fill="white" stroke="#666666" points="1863,-83 1752,-83 1752,-53 1863,-53 1863,-83"/>
<text text-anchor="start" x="1760" y="-71" font-family="Helvetica,sans-Serif" font-size="10.00">SdSpiArduinoDriver</text>
<text text-anchor="middle" x="1807.5" y="-60" font-family="Helvetica,sans-Serif" font-size="10.00">::receive</text>
</a>
</g>
</g>
<!-- Node6&#45;&gt;Node7 -->
<g id="edge6_Node000006_Node000007" class="edge">
<title>Node6&#45;&gt;Node7</title>
<g id="a_edge6_Node000006_Node000007"><a xlink:title=" ">
<path fill="none" stroke="#63b8ff" d="M1709.09,-69.15C1719.96,-69.02 1731.11,-68.89 1741.81,-68.76"/>
<polygon fill="#63b8ff" stroke="#63b8ff" points="1741.94,-72.26 1751.9,-68.64 1741.86,-65.26 1741.94,-72.26"/>
</a>
</g>
</g>
<!-- Node9 -->
<g id="Node000009" class="node">
<title>Node9</title>
<g id="a_Node000009"><a xlink:href="../../d0/d25/classSdSpiArduinoDriver.xhtml#a3c4842e47f98fe5d3799cd6028778ab5" target="_top" xlink:title=" ">
<polygon fill="white" stroke="#666666" points="1863,-255 1752,-255 1752,-225 1863,-225 1863,-255"/>
<text text-anchor="start" x="1760" y="-243" font-family="Helvetica,sans-Serif" font-size="10.00">SdSpiArduinoDriver</text>
<text text-anchor="middle" x="1807.5" y="-232" font-family="Helvetica,sans-Serif" font-size="10.00">::send</text>
</a>
</g>
</g>
<!-- Node8&#45;&gt;Node9 -->
<g id="edge8_Node000008_Node000009" class="edge">
<title>Node8&#45;&gt;Node9</title>
<g id="a_edge8_Node000008_Node000009"><a xlink:title=" ">
<path fill="none" stroke="#63b8ff" d="M1701.74,-231.99C1714.82,-232.99 1728.56,-234.04 1741.62,-235.04"/>
<polygon fill="#63b8ff" stroke="#63b8ff" points="1741.69,-238.55 1751.93,-235.83 1742.22,-231.57 1741.69,-238.55"/>
</a>
</g>
</g>
<!-- Node10&#45;&gt;Node8 -->
<g id="edge16_Node000010_Node000008" class="edge">
<title>Node10&#45;&gt;Node8</title>
<g id="a_edge16_Node000010_Node000008"><a xlink:title=" ">
<path fill="none" stroke="#63b8ff" d="M1485.67,-161.6C1496.85,-165.23 1508.78,-169.99 1519,-176 1537.71,-187.01 1535.77,-198.93 1555,-209 1558.57,-210.87 1562.32,-212.54 1566.18,-214.04"/>
<polygon fill="#63b8ff" stroke="#63b8ff" points="1565.33,-217.45 1575.93,-217.43 1567.63,-210.84 1565.33,-217.45"/>
</a>
</g>
</g>
<!-- Node11 -->
<g id="Node000011" class="node">
<title>Node11</title>
<g id="a_Node000011"><a xlink:href="../../d8/d7f/classSharedSpiCard.xhtml#a69ee2fe49dfaeea2347d8a265806d2b6" target="_top" xlink:title=" ">
<polygon fill="white" stroke="#666666" points="1710,-161.5 1561,-161.5 1561,-142.5 1710,-142.5 1710,-161.5"/>
<text text-anchor="middle" x="1635.5" y="-149.5" font-family="Helvetica,sans-Serif" font-size="10.00">SharedSpiCard::spiActivate</text>
</a>
</g>
</g>
<!-- Node10&#45;&gt;Node11 -->
<g id="edge10_Node000010_Node000011" class="edge">
<title>Node10&#45;&gt;Node11</title>
<g id="a_edge10_Node000010_Node000011"><a xlink:title=" ">
<path fill="none" stroke="#63b8ff" d="M1511.53,-152C1524.19,-152 1537.64,-152 1550.82,-152"/>
<polygon fill="#63b8ff" stroke="#63b8ff" points="1550.84,-155.5 1560.84,-152 1550.84,-148.5 1550.84,-155.5"/>
</a>
</g>
</g>
<!-- Node13 -->
<g id="Node000013" class="node">
<title>Node13</title>
<g id="a_Node000013"><a xlink:href="../../d8/d7f/classSharedSpiCard.xhtml#a8c3088599862ff6e84ae79bfdf32aea8" target="_top" xlink:title=" ">
<polygon fill="white" stroke="#666666" points="1704.5,-199.5 1566.5,-199.5 1566.5,-180.5 1704.5,-180.5 1704.5,-199.5"/>
<text text-anchor="middle" x="1635.5" y="-187.5" font-family="Helvetica,sans-Serif" font-size="10.00">SharedSpiCard::spiSelect</text>
</a>
</g>
</g>
<!-- Node10&#45;&gt;Node13 -->
<g id="edge12_Node000010_Node000013" class="edge">
<title>Node10&#45;&gt;Node13</title>
<g id="a_edge12_Node000010_Node000013"><a xlink:title=" ">
<path fill="none" stroke="#63b8ff" d="M1494.31,-161.59C1519.61,-166.72 1550.95,-173.07 1577.57,-178.46"/>
<polygon fill="#63b8ff" stroke="#63b8ff" points="1577.03,-181.92 1587.53,-180.48 1578.42,-175.06 1577.03,-181.92"/>
</a>
</g>
</g>
<!-- Node12 -->
<g id="Node000012" class="node">
<title>Node12</title>
<g id="a_Node000012"><a xlink:href="../../d0/d25/classSdSpiArduinoDriver.xhtml#abb6b88c5c8b87fc344a69f23f6eab3d9" target="_top" xlink:title=" ">
<polygon fill="white" stroke="#666666" points="1863,-169 1752,-169 1752,-139 1863,-139 1863,-169"/>
<text text-anchor="start" x="1760" y="-157" font-family="Helvetica,sans-Serif" font-size="10.00">SdSpiArduinoDriver</text>
<text text-anchor="middle" x="1807.5" y="-146" font-family="Helvetica,sans-Serif" font-size="10.00">::activate</text>
</a>
</g>
</g>
<!-- Node11&#45;&gt;Node12 -->
<g id="edge11_Node000011_Node000012" class="edge">
<title>Node11&#45;&gt;Node12</title>
<g id="a_edge11_Node000011_Node000012"><a xlink:title=" ">
<path fill="none" stroke="#63b8ff" d="M1710.08,-152.87C1720.57,-152.99 1731.31,-153.12 1741.63,-153.24"/>
<polygon fill="#63b8ff" stroke="#63b8ff" points="1741.74,-156.74 1751.78,-153.36 1741.82,-149.74 1741.74,-156.74"/>
</a>
</g>
</g>
<!-- Node14 -->
<g id="Node000014" class="node">
<title>Node14</title>
<g id="a_Node000014"><a xlink:href="../../d2/df0/SdSpiChipSelect_8cpp.xhtml#ac469bbe2d31ffde9b00ffc68258d7428" target="_top" xlink:title=" ">
<polygon fill="white" stroke="#666666" points="1840.5,-206.5 1774.5,-206.5 1774.5,-187.5 1840.5,-187.5 1840.5,-206.5"/>
<text text-anchor="middle" x="1807.5" y="-194.5" font-family="Helvetica,sans-Serif" font-size="10.00">sdCsWrite</text>
</a>
</g>
</g>
<!-- Node13&#45;&gt;Node14 -->
<g id="edge13_Node000013_Node000014" class="edge">
<title>Node13&#45;&gt;Node14</title>
<g id="a_edge13_Node000013_Node000014"><a xlink:title=" ">
<path fill="none" stroke="#63b8ff" d="M1704.67,-192.81C1724.74,-193.63 1746.12,-194.51 1764.09,-195.25"/>
<polygon fill="#63b8ff" stroke="#63b8ff" points="1764.1,-198.76 1774.23,-195.67 1764.38,-191.76 1764.1,-198.76"/>
</a>
</g>
</g>
<!-- Node15 -->
<g id="Node000015" class="node">
<title>Node15</title>
<g id="a_Node000015"><a xlink:href="../../d5/d45/wiring__digital_8c.xhtml#a73b9b61feeaf7d790d107f2954a7fd93" target="_top" xlink:title=" ">
<polygon fill="white" stroke="#666666" points="1973,-206.5 1899,-206.5 1899,-187.5 1973,-187.5 1973,-206.5"/>
<text text-anchor="middle" x="1936" y="-194.5" font-family="Helvetica,sans-Serif" font-size="10.00">digitalWrite</text>
</a>
</g>
</g>
<!-- Node14&#45;&gt;Node15 -->
<g id="edge14_Node000014_Node000015" class="edge">
<title>Node14&#45;&gt;Node15</title>
<g id="a_edge14_Node000014_Node000015"><a xlink:title=" ">
<path fill="none" stroke="#63b8ff" d="M1840.75,-197C1855.28,-197 1872.71,-197 1888.61,-197"/>
<polygon fill="#63b8ff" stroke="#63b8ff" points="1888.79,-200.5 1898.79,-197 1888.79,-193.5 1888.79,-200.5"/>
</a>
</g>
</g>
<!-- Node16 -->
<g id="Node000016" class="node">
<title>Node16</title>
<g id="a_Node000016"><a xlink:href="../../d5/d45/wiring__digital_8c.xhtml#ae3d0bcbe4eb927ca8f5d5c21b7e4f224" target="_top" xlink:title=" ">
<polygon fill="white" stroke="#666666" points="2084,-206.5 2009,-206.5 2009,-187.5 2084,-187.5 2084,-206.5"/>
<text text-anchor="middle" x="2046.5" y="-194.5" font-family="Helvetica,sans-Serif" font-size="10.00">turnOffPWM</text>
</a>
</g>
</g>
<!-- Node15&#45;&gt;Node16 -->
<g id="edge15_Node000015_Node000016" class="edge">
<title>Node15&#45;&gt;Node16</title>
<g id="a_edge15_Node000015_Node000016"><a xlink:title=" ">
<path fill="none" stroke="#63b8ff" d="M1973.13,-197C1981.28,-197 1990.05,-197 1998.57,-197"/>
<polygon fill="#63b8ff" stroke="#63b8ff" points="1998.79,-200.5 2008.79,-197 1998.79,-193.5 1998.79,-200.5"/>
</a>
</g>
</g>
<!-- Node18 -->
<g id="Node000018" class="node">
<title>Node18</title>
<g id="a_Node000018"><a xlink:href="../../d8/d7f/classSharedSpiCard.xhtml#ab33ad2aefbb9cff905cad0879dffc78b" target="_top" xlink:title=" ">
<polygon fill="white" stroke="#666666" points="1334.5,-274.5 1197.5,-274.5 1197.5,-255.5 1334.5,-255.5 1334.5,-274.5"/>
<text text-anchor="middle" x="1266" y="-262.5" font-family="Helvetica,sans-Serif" font-size="10.00">SharedSpiCard::readStop</text>
</a>
</g>
</g>
<!-- Node17&#45;&gt;Node18 -->
<g id="edge18_Node000017_Node000018" class="edge">
<title>Node17&#45;&gt;Node18</title>
<g id="a_edge18_Node000017_Node000018"><a xlink:title=" ">
<path fill="none" stroke="#63b8ff" d="M1131.35,-237.53C1154.88,-242.36 1183.66,-248.28 1208.48,-253.38"/>
<polygon fill="#63b8ff" stroke="#63b8ff" points="1207.99,-256.85 1218.49,-255.44 1209.4,-250 1207.99,-256.85"/>
</a>
</g>
</g>
<!-- Node24 -->
<g id="Node000024" class="node">
<title>Node24</title>
<g id="a_Node000024"><a xlink:href="../../d8/d7f/classSharedSpiCard.xhtml#ae9a34a573077e43e7c6028a16ae77fb3" target="_top" xlink:title=" ">
<polygon fill="white" stroke="#666666" points="1336,-237.5 1196,-237.5 1196,-218.5 1336,-218.5 1336,-237.5"/>
<text text-anchor="middle" x="1266" y="-225.5" font-family="Helvetica,sans-Serif" font-size="10.00">SharedSpiCard::writeStop</text>
</a>
</g>
</g>
<!-- Node17&#45;&gt;Node24 -->
<g id="edge27_Node000017_Node000024" class="edge">
<title>Node17&#45;&gt;Node24</title>
<g id="a_edge27_Node000017_Node000024"><a xlink:title=" ">
<path fill="none" stroke="#63b8ff" d="M1159.25,-228C1167.95,-228 1176.86,-228 1185.62,-228"/>
<polygon fill="#63b8ff" stroke="#63b8ff" points="1185.83,-231.5 1195.83,-228 1185.83,-224.5 1185.83,-231.5"/>
</a>
</g>
</g>
<!-- Node18&#45;&gt;Node5 -->
<g id="edge19_Node000018_Node000005" class="edge">
<title>Node18&#45;&gt;Node5</title>
<g id="a_edge19_Node000018_Node000005"><a xlink:title=" ">
<path fill="none" stroke="#63b8ff" d="M1197.31,-264.7C1145.37,-263.39 1072.09,-259.23 1009,-247 979.9,-241.36 947.96,-230.73 924.74,-222.14"/>
<polygon fill="#63b8ff" stroke="#63b8ff" points="925.95,-218.86 915.35,-218.61 923.48,-225.41 925.95,-218.86"/>
</a>
</g>
</g>
<!-- Node18&#45;&gt;Node19 -->
<g id="edge20_Node000018_Node000019" class="edge">
<title>Node18&#45;&gt;Node19</title>
<g id="a_edge20_Node000018_Node000019"><a xlink:title=" ">
<path fill="none" stroke="#63b8ff" d="M1289.54,-274.63C1320.84,-287.99 1377.61,-312.23 1413.2,-327.42"/>
<polygon fill="#63b8ff" stroke="#63b8ff" points="1412.07,-330.74 1422.64,-331.45 1414.82,-324.31 1412.07,-330.74"/>
</a>
</g>
</g>
<!-- Node18&#45;&gt;Node20 -->
<g id="edge21_Node000018_Node000020" class="edge">
<title>Node18&#45;&gt;Node20</title>
<g id="a_edge21_Node000018_Node000020"><a xlink:title=" ">
<path fill="none" stroke="#63b8ff" d="M1334.55,-272.21C1346.38,-273.47 1358.75,-274.79 1370.75,-276.07"/>
<polygon fill="#63b8ff" stroke="#63b8ff" points="1370.41,-279.56 1380.73,-277.14 1371.16,-272.6 1370.41,-279.56"/>
</a>
</g>
</g>
<!-- Node20&#45;&gt;Node8 -->
<g id="edge24_Node000020_Node000008" class="edge">
<title>Node20&#45;&gt;Node8</title>
<g id="a_edge24_Node000020_Node000008"><a xlink:title=" ">
<path fill="none" stroke="#63b8ff" d="M1472.07,-274.35C1493.81,-266.18 1526.21,-254.48 1555,-246 1563.41,-243.52 1572.38,-241.14 1581.17,-238.94"/>
<polygon fill="#63b8ff" stroke="#63b8ff" points="1582.08,-242.32 1590.96,-236.54 1580.42,-235.52 1582.08,-242.32"/>
</a>
</g>
</g>
<!-- Node21 -->
<g id="Node000021" class="node">
<title>Node21</title>
<g id="a_Node000021"><a xlink:href="../../d8/d7f/classSharedSpiCard.xhtml#ac6acfca5a23337977d2e4436ab8ab39a" target="_top" xlink:title=" ">
<polygon fill="white" stroke="#666666" points="1716,-310.5 1555,-310.5 1555,-291.5 1716,-291.5 1716,-310.5"/>
<text text-anchor="middle" x="1635.5" y="-298.5" font-family="Helvetica,sans-Serif" font-size="10.00">SharedSpiCard::spiDeactivate</text>
</a>
</g>
</g>
<!-- Node20&#45;&gt;Node21 -->
<g id="edge22_Node000020_Node000021" class="edge">
<title>Node20&#45;&gt;Node21</title>
<g id="a_edge22_Node000020_Node000021"><a xlink:title=" ">
<path fill="none" stroke="#63b8ff" d="M1511,-289.8C1521.92,-290.79 1533.43,-291.84 1544.86,-292.87"/>
<polygon fill="#63b8ff" stroke="#63b8ff" points="1544.59,-296.36 1554.87,-293.78 1545.22,-289.39 1544.59,-296.36"/>
</a>
</g>
</g>
<!-- Node23 -->
<g id="Node000023" class="node">
<title>Node23</title>
<g id="a_Node000023"><a xlink:href="../../d8/d7f/classSharedSpiCard.xhtml#ad06a3278372300987b97876cf598c114" target="_top" xlink:title=" ">
<polygon fill="white" stroke="#666666" points="1711,-273.5 1560,-273.5 1560,-254.5 1711,-254.5 1711,-273.5"/>
<text text-anchor="middle" x="1635.5" y="-261.5" font-family="Helvetica,sans-Serif" font-size="10.00">SharedSpiCard::spiUnselect</text>
</a>
</g>
</g>
<!-- Node20&#45;&gt;Node23 -->
<g id="edge25_Node000020_Node000023" class="edge">
<title>Node20&#45;&gt;Node23</title>
<g id="a_edge25_Node000020_Node000023"><a xlink:title=" ">
<path fill="none" stroke="#63b8ff" d="M1511,-277.17C1523.39,-275.85 1536.55,-274.45 1549.49,-273.07"/>
<polygon fill="#63b8ff" stroke="#63b8ff" points="1550.23,-276.51 1559.8,-271.97 1549.49,-269.55 1550.23,-276.51"/>
</a>
</g>
</g>
<!-- Node22 -->
<g id="Node000022" class="node">
<title>Node22</title>
<g id="a_Node000022"><a xlink:href="../../d0/d25/classSdSpiArduinoDriver.xhtml#ae88a255f533e3acb41d1221025a69b55" target="_top" xlink:title=" ">
<polygon fill="white" stroke="#666666" points="1863,-316 1752,-316 1752,-286 1863,-286 1863,-316"/>
<text text-anchor="start" x="1760" y="-304" font-family="Helvetica,sans-Serif" font-size="10.00">SdSpiArduinoDriver</text>
<text text-anchor="middle" x="1807.5" y="-293" font-family="Helvetica,sans-Serif" font-size="10.00">::deactivate</text>
</a>
</g>
</g>
<!-- Node21&#45;&gt;Node22 -->
<g id="edge23_Node000021_Node000022" class="edge">
<title>Node21&#45;&gt;Node22</title>
<g id="a_edge23_Node000021_Node000022"><a xlink:title=" ">
<path fill="none" stroke="#63b8ff" d="M1716.02,-301C1724.63,-301 1733.3,-301 1741.7,-301"/>
<polygon fill="#63b8ff" stroke="#63b8ff" points="1741.78,-304.5 1751.78,-301 1741.78,-297.5 1741.78,-304.5"/>
</a>
</g>
</g>
<!-- Node23&#45;&gt;Node14 -->
<g id="edge26_Node000023_Node000014" class="edge">
<title>Node23&#45;&gt;Node14</title>
<g id="a_edge26_Node000023_Node000014"><a xlink:title=" ">
<path fill="none" stroke="#63b8ff" d="M1694.08,-254.38C1701.65,-252.14 1709.15,-249.38 1716,-246 1734.67,-236.78 1733.88,-226.26 1752,-216 1755.98,-213.75 1760.28,-211.69 1764.65,-209.84"/>
<polygon fill="#63b8ff" stroke="#63b8ff" points="1766.2,-212.99 1774.25,-206.1 1763.66,-206.47 1766.2,-212.99"/>
</a>
</g>
</g>
<!-- Node24&#45;&gt;Node8 -->
<g id="edge29_Node000024_Node000008" class="edge">
<title>Node24&#45;&gt;Node8</title>
<g id="a_edge29_Node000024_Node000008"><a xlink:title=" ">
<path fill="none" stroke="#63b8ff" d="M1336.12,-227.81C1399.67,-227.64 1493.68,-227.38 1559.14,-227.21"/>
<polygon fill="#63b8ff" stroke="#63b8ff" points="1559.4,-230.7 1569.39,-227.18 1559.38,-223.7 1559.4,-230.7"/>
</a>
</g>
</g>
<!-- Node24&#45;&gt;Node19 -->
<g id="edge28_Node000024_Node000019" class="edge">
<title>Node24&#45;&gt;Node19</title>
<g id="a_edge28_Node000024_Node000019"><a xlink:title=" ">
<path fill="none" stroke="#63b8ff" d="M1319.45,-237.59C1325.69,-240.05 1331.72,-243.13 1337,-247 1360.87,-264.49 1351.2,-282.99 1373,-303 1383.79,-312.9 1397.63,-321.01 1410.3,-327.16"/>
<polygon fill="#63b8ff" stroke="#63b8ff" points="1409.13,-330.48 1419.68,-331.47 1412.06,-324.12 1409.13,-330.48"/>
</a>
</g>
</g>
<!-- Node24&#45;&gt;Node20 -->
<g id="edge30_Node000024_Node000020" class="edge">
<title>Node24&#45;&gt;Node20</title>
<g id="a_edge30_Node000024_Node000020"><a xlink:title=" ">
<path fill="none" stroke="#63b8ff" d="M1303.82,-237.51C1314.56,-240.42 1326.29,-243.71 1337,-247 1361.21,-254.42 1388.16,-263.65 1409.08,-271.04"/>
<polygon fill="#63b8ff" stroke="#63b8ff" points="1407.93,-274.35 1418.53,-274.39 1410.27,-267.75 1407.93,-274.35"/>
</a>
</g>
</g>
<!-- Node24&#45;&gt;Node25 -->
<g id="edge31_Node000024_Node000025" class="edge">
<title>Node24&#45;&gt;Node25</title>
<g id="a_edge31_Node000024_Node000025"><a xlink:title=" ">
<path fill="none" stroke="#63b8ff" d="M1275.01,-218.44C1291.42,-199.46 1330.87,-156.92 1373,-134 1377.91,-131.33 1383.22,-128.99 1388.64,-126.94"/>
<polygon fill="#63b8ff" stroke="#63b8ff" points="1390.13,-130.13 1398.46,-123.58 1387.86,-123.51 1390.13,-130.13"/>
</a>
</g>
</g>
<!-- Node25&#45;&gt;Node6 -->
<g id="edge32_Node000025_Node000006" class="edge">
<title>Node25&#45;&gt;Node6</title>
<g id="a_edge32_Node000025_Node000006"><a xlink:title=" ">
<path fill="none" stroke="#63b8ff" d="M1487.68,-104.45C1515.94,-97.82 1553.79,-88.94 1583.98,-81.86"/>
<polygon fill="#63b8ff" stroke="#63b8ff" points="1584.96,-85.22 1593.89,-79.53 1583.36,-78.41 1584.96,-85.22"/>
</a>
</g>
</g>
<!-- Node26 -->
<g id="Node000026" class="node">
<title>Node26</title>
<g id="a_Node000026"><a xlink:href="../../db/df4/classTimeout.xhtml#abbabe99f42e52472ddd3a7e9d22dce95" target="_top" xlink:title=" ">
<polygon fill="white" stroke="#666666" points="1690,-121.5 1581,-121.5 1581,-102.5 1690,-102.5 1690,-121.5"/>
<text text-anchor="middle" x="1635.5" y="-109.5" font-family="Helvetica,sans-Serif" font-size="10.00">Timeout::timedOut</text>
</a>
</g>
</g>
<!-- Node25&#45;&gt;Node26 -->
<g id="edge33_Node000025_Node000026" class="edge">
<title>Node25&#45;&gt;Node26</title>
<g id="a_edge33_Node000025_Node000026"><a xlink:title=" ">
<path fill="none" stroke="#63b8ff" d="M1519.22,-113.23C1536.23,-113.05 1554.22,-112.86 1570.82,-112.68"/>
<polygon fill="#63b8ff" stroke="#63b8ff" points="1570.98,-116.18 1580.95,-112.57 1570.91,-109.18 1570.98,-116.18"/>
</a>
</g>
</g>
<!-- Node27 -->
<g id="Node000027" class="node">
<title>Node27</title>
<g id="a_Node000027"><a xlink:href="../../db/df4/classTimeout.xhtml#a9a72ea0591f11452fb15bfaa1ae5108a" target="_top" xlink:title=" ">
<polygon fill="white" stroke="#666666" points="1858.5,-120.5 1756.5,-120.5 1756.5,-101.5 1858.5,-101.5 1858.5,-120.5"/>
<text text-anchor="middle" x="1807.5" y="-108.5" font-family="Helvetica,sans-Serif" font-size="10.00">Timeout::millis16</text>
</a>
</g>
</g>
<!-- Node26&#45;&gt;Node27 -->
<g id="edge34_Node000026_Node000027" class="edge">
<title>Node26&#45;&gt;Node27</title>
<g id="a_edge34_Node000026_Node000027"><a xlink:title=" ">
<path fill="none" stroke="#63b8ff" d="M1690.29,-111.68C1708.02,-111.58 1727.85,-111.46 1746.04,-111.36"/>
<polygon fill="#63b8ff" stroke="#63b8ff" points="1746.26,-114.85 1756.24,-111.3 1746.22,-107.85 1746.26,-114.85"/>
</a>
</g>
</g>
<!-- Node28 -->
<g id="Node000028" class="node">
<title>Node28</title>
<g id="a_Node000028"><a xlink:href="../../d5/df3/wiring_8c.xhtml#a6ff7f2532a22366f0013bc41397129fd" target="_top" xlink:title=" ">
<polygon fill="white" stroke="#666666" points="1958,-120.5 1914,-120.5 1914,-101.5 1958,-101.5 1958,-120.5"/>
<text text-anchor="middle" x="1936" y="-108.5" font-family="Helvetica,sans-Serif" font-size="10.00">millis</text>
</a>
</g>
</g>
<!-- Node27&#45;&gt;Node28 -->
<g id="edge35_Node000027_Node000028" class="edge">
<title>Node27&#45;&gt;Node28</title>
<g id="a_edge35_Node000027_Node000028"><a xlink:title=" ">
<path fill="none" stroke="#63b8ff" d="M1858.86,-111C1873.97,-111 1890.11,-111 1903.62,-111"/>
<polygon fill="#63b8ff" stroke="#63b8ff" points="1903.83,-114.5 1913.83,-111 1903.83,-107.5 1903.83,-114.5"/>
</a>
</g>
</g>
<!-- Node29&#45;&gt;Node29 -->
<g id="edge39_Node000029_Node000029" class="edge">
<title>Node29&#45;&gt;Node29</title>
<g id="a_edge39_Node000029_Node000029"><a xlink:title=" ">
<path fill="none" stroke="#63b8ff" d="M860.91,-541.58C846.51,-550.23 856.38,-559.5 890.5,-559.5 913.96,-559.5 925.95,-555.12 926.48,-549.57"/>
<polygon fill="#63b8ff" stroke="#63b8ff" points="929.07,-547.21 920.09,-541.58 923.61,-551.58 929.07,-547.21"/>
</a>
</g>
</g>
<!-- Node33 -->
<g id="Node000033" class="node">
<title>Node33</title>
<g id="a_Node000033"><a xlink:href="../../d8/d7f/classSharedSpiCard.xhtml#adf2ce56ca0a56fe841fbdf75f7f3faee" target="_top" xlink:title=" ">
<polygon fill="white" stroke="#666666" points="772,-318.5 623,-318.5 623,-299.5 772,-299.5 772,-318.5"/>
<text text-anchor="middle" x="697.5" y="-306.5" font-family="Helvetica,sans-Serif" font-size="10.00">SharedSpiCard::writeSector</text>
</a>
</g>
</g>
<!-- Node32&#45;&gt;Node33 -->
<g id="edge44_Node000032_Node000033" class="edge">
<title>Node32&#45;&gt;Node33</title>
<g id="a_edge44_Node000032_Node000033"><a xlink:title=" ">
<path fill="none" stroke="#63b8ff" d="M583.08,-325.05C594.29,-323.46 606.77,-321.69 619.23,-319.93"/>
<polygon fill="#63b8ff" stroke="#63b8ff" points="619.79,-323.39 629.2,-318.52 618.81,-316.46 619.79,-323.39"/>
</a>
</g>
</g>
<!-- Node33&#45;&gt;Node5 -->
<g id="edge45_Node000033_Node000005" class="edge">
<title>Node33&#45;&gt;Node5</title>
<g id="a_edge45_Node000033_Node000005"><a xlink:title=" ">
<path fill="none" stroke="#63b8ff" d="M716.81,-299.41C750.47,-281.79 822.33,-244.17 861.91,-223.44"/>
<polygon fill="#63b8ff" stroke="#63b8ff" points="864.01,-226.3 871.24,-218.56 860.76,-220.1 864.01,-226.3"/>
</a>
</g>
</g>
<!-- Node33&#45;&gt;Node6 -->
<g id="edge47_Node000033_Node000006" class="edge">
<title>Node33&#45;&gt;Node6</title>
<g id="a_edge47_Node000033_Node000006"><a xlink:title=" ">
<path fill="none" stroke="#63b8ff" d="M701.61,-299.29C711.86,-268.66 747.47,-172.97 808,-119 907.4,-30.37 949.83,0 1083,0 1083,0 1083,0 1267,0 1388.39,0 1528.42,-37.31 1595.17,-57.45"/>
<polygon fill="#63b8ff" stroke="#63b8ff" points="1594.27,-60.84 1604.85,-60.41 1596.31,-54.15 1594.27,-60.84"/>
</a>
</g>
</g>
<!-- Node33&#45;&gt;Node19 -->
<g id="edge46_Node000033_Node000019" class="edge">
<title>Node33&#45;&gt;Node19</title>
<g id="a_edge46_Node000033_Node000019"><a xlink:title=" ">
<path fill="none" stroke="#63b8ff" d="M730.23,-318.51C823.67,-345.22 1105.76,-416.51 1337,-378 1364,-373.5 1393.31,-363.09 1414.57,-354.45"/>
<polygon fill="#63b8ff" stroke="#63b8ff" points="1416.14,-357.59 1424.02,-350.51 1413.45,-351.12 1416.14,-357.59"/>
</a>
</g>
</g>
<!-- Node33&#45;&gt;Node20 -->
<g id="edge48_Node000033_Node000020" class="edge">
<title>Node33&#45;&gt;Node20</title>
<g id="a_edge48_Node000033_Node000020"><a xlink:title=" ">
<path fill="none" stroke="#63b8ff" d="M772.12,-306.53C914.82,-301.76 1227.57,-291.28 1370.76,-286.49"/>
<polygon fill="#63b8ff" stroke="#63b8ff" points="1370.9,-289.98 1380.77,-286.15 1370.66,-282.99 1370.9,-289.98"/>
</a>
</g>
</g>
<!-- Node33&#45;&gt;Node25 -->
<g id="edge50_Node000033_Node000025" class="edge">
<title>Node33&#45;&gt;Node25</title>
<g id="a_edge50_Node000033_Node000025"><a xlink:title=" ">
<path fill="none" stroke="#63b8ff" d="M704.96,-299.23C720.23,-276.86 760.84,-221.53 808,-191 983.72,-77.25 1244.69,-89.01 1371.08,-103.3"/>
<polygon fill="#63b8ff" stroke="#63b8ff" points="1370.71,-106.78 1381.04,-104.47 1371.52,-99.83 1370.71,-106.78"/>
</a>
</g>
</g>
<!-- Node33&#45;&gt;Node30 -->
<g id="edge49_Node000033_Node000030" class="edge">
<title>Node33&#45;&gt;Node30</title>
<g id="a_edge49_Node000033_Node000030"><a xlink:title=" ">
<path fill="none" stroke="#63b8ff" d="M708.18,-318.6C726.27,-336.05 767.09,-373.05 808,-394 816.86,-398.54 826.72,-402.35 836.42,-405.51"/>
<polygon fill="#63b8ff" stroke="#63b8ff" points="835.46,-408.87 846.04,-408.45 837.5,-402.18 835.46,-408.87"/>
</a>
</g>
</g>
<!-- Node34 -->
<g id="Node000034" class="node">
<title>Node34</title>
<g id="a_Node000034"><a xlink:href="../../d8/d7f/classSharedSpiCard.xhtml#a5b6d7ad34f56d0d6a6c5059d920499ba" target="_top" xlink:title=" ">
<polygon fill="white" stroke="#666666" points="1337,-350.5 1195,-350.5 1195,-331.5 1337,-331.5 1337,-350.5"/>
<text text-anchor="middle" x="1266" y="-338.5" font-family="Helvetica,sans-Serif" font-size="10.00">SharedSpiCard::writeData</text>
</a>
</g>
</g>
<!-- Node33&#45;&gt;Node34 -->
<g id="edge51_Node000033_Node000034" class="edge">
<title>Node33&#45;&gt;Node34</title>
<g id="a_edge51_Node000033_Node000034"><a xlink:title=" ">
<path fill="none" stroke="#63b8ff" d="M772.1,-315.37C784.1,-316.32 796.39,-317.23 808,-318 939.99,-326.74 1093.61,-333.84 1184.89,-337.74"/>
<polygon fill="#63b8ff" stroke="#63b8ff" points="1184.75,-341.24 1194.89,-338.16 1185.05,-334.24 1184.75,-341.24"/>
</a>
</g>
</g>
<!-- Node34&#45;&gt;Node19 -->
<g id="edge52_Node000034_Node000019" class="edge">
<title>Node34&#45;&gt;Node19</title>
<g id="a_edge52_Node000034_Node000019"><a xlink:title=" ">
<path fill="none" stroke="#63b8ff" d="M1337.09,-341C1350.22,-341 1363.92,-341 1376.99,-341"/>
<polygon fill="#63b8ff" stroke="#63b8ff" points="1377.3,-344.5 1387.3,-341 1377.3,-337.5 1377.3,-344.5"/>
</a>
</g>
</g>
<!-- Node34&#45;&gt;Node20 -->
<g id="edge53_Node000034_Node000020" class="edge">
<title>Node34&#45;&gt;Node20</title>
<g id="a_edge53_Node000034_Node000020"><a xlink:title=" ">
<path fill="none" stroke="#63b8ff" d="M1296.79,-331.46C1326.57,-321.92 1372.53,-307.21 1405.37,-296.69"/>
<polygon fill="#63b8ff" stroke="#63b8ff" points="1406.65,-299.95 1415.11,-293.57 1404.52,-293.29 1406.65,-299.95"/>
</a>
</g>
</g>
<!-- Node34&#45;&gt;Node25 -->
<g id="edge54_Node000034_Node000025" class="edge">
<title>Node34&#45;&gt;Node25</title>
<g id="a_edge54_Node000034_Node000025"><a xlink:title=" ">
<path fill="none" stroke="#63b8ff" d="M1284.43,-331.36C1300.54,-321.55 1323.9,-304.83 1337,-284 1373.5,-225.97 1325.39,-183.33 1373,-134 1374.81,-132.12 1376.79,-130.41 1378.88,-128.86"/>
<polygon fill="#63b8ff" stroke="#63b8ff" points="1380.78,-131.81 1387.51,-123.63 1377.14,-125.83 1380.78,-131.81"/>
</a>
</g>
</g>
<!-- Node34&#45;&gt;Node34 -->
<g id="edge55_Node000034_Node000034" class="edge">
<title>Node34&#45;&gt;Node34</title>
<g id="a_edge55_Node000034_Node000034"><a xlink:title=" ">
<path fill="none" stroke="#63b8ff" d="M1238.26,-350.58C1224.76,-359.23 1234.01,-368.5 1266,-368.5 1287.49,-368.5 1298.72,-364.32 1299.68,-358.95"/>
<polygon fill="#63b8ff" stroke="#63b8ff" points="1302.39,-356.71 1293.74,-350.58 1296.68,-360.76 1302.39,-356.71"/>
</a>
</g>
</g>
</g>
</svg>

<g id="navigator" transform="translate(0 0)" fill="#404254">
  <rect fill="#f2f5e9" fill-opacity="0.5" stroke="#606060" stroke-width=".5" x="0" y="0" width="60" height="60"/>
  <use id="zoomplus" xlink:href="#zoomPlus" x="17" y="9" onmousedown="handleZoom(evt,'in')"/>
  <use id="zoomminus" xlink:href="#zoomMin" x="42" y="9" onmousedown="handleZoom(evt,'out')"/>
  <use id="reset" xlink:href="#resetDef" x="30" y="36" onmousedown="handleReset()"/>
   <use id="arrowup" xlink:href="#arrowUp" x="0" y="0" onmousedown="handlePan(0,-1)"/>
  <use id="arrowright" xlink:href="#arrowRight" x="0" y="0" onmousedown="handlePan(1,0)"/>
  <use id="arrowdown" xlink:href="#arrowDown" x="0" y="0" onmousedown="handlePan(0,1)"/>
  <use id="arrowleft" xlink:href="#arrowLeft" x="0" y="0" onmousedown="handlePan(-1,0)"/>
</g>
<svg viewBox="0 0 15 15" width="100%" height="30px" preserveAspectRatio="xMaxYMin meet">
 <g id="arrow_out" transform="scale(0.3 0.3)">
  <a xlink:href="classExFatPartition_a77e0945a27d44518f6bc10728bb11c74_cgraph_org.svg" target="_base">
   <rect id="button" ry="5" rx="5" y="6" x="6" height="38" width="38"
        fill="#f2f5e9" fill-opacity="0.5" stroke="#606060" stroke-width="1.0"/>
   <path id="arrow"
     d="M 11.500037,31.436501 C 11.940474,20.09759 22.043105,11.32322 32.158766,21.979434 L 37.068811,17.246167 C 37.068811,17.246167 37.088388,32 37.088388,32 L 22.160133,31.978069 C 22.160133,31.978069 26.997745,27.140456 26.997745,27.140456 C 18.528582,18.264221 13.291696,25.230495 11.500037,31.436501 z"
     style="fill:#404040;"/>
  </a>
 </g>
</svg>

<style type='text/css'>
<![CDATA[
[data-mouse-over-selected='false'] { opacity: 0.7; }
[data-mouse-over-selected='true']  { opacity: 1.0; }
]]>
</style>
<script type="application/ecmascript"><![CDATA[
document.addEventListener('DOMContentLoaded', (event) => {
  highlightEdges();
  highlightAdjacentNodes();
});
]]></script>
</svg>
