<?xml version="1.0" encoding="UTF-8" standalone="no"?>
<!DOCTYPE svg PUBLIC "-//W3C//DTD SVG 1.1//EN"
 "http://www.w3.org/Graphics/SVG/1.1/DTD/svg11.dtd">
<!-- Generated by graphviz version 2.43.0 (0)
 -->
<!-- Title: ExFatPartition::printVolInfo Pages: 1 -->
<svg width="2095pt" height="568pt"
 viewBox="0.00 0.00 2095.00 567.50" xmlns="http://www.w3.org/2000/svg" xmlns:xlink="http://www.w3.org/1999/xlink">
<g id="graph0" class="graph" transform="scale(1 1) rotate(0) translate(4 563.5)">
<title>ExFatPartition::printVolInfo</title>
<!-- Node1 -->
<g id="Node000001" class="node">
<title>Node1</title>
<g id="a_Node000001"><a xlink:title=" ">
<polygon fill="#999999" stroke="#666666" points="146,-307.5 0,-307.5 0,-288.5 146,-288.5 146,-307.5"/>
<text text-anchor="middle" x="73" y="-295.5" font-family="Helvetica,sans-Serif" font-size="10.00">ExFatPartition::printVolInfo</text>
</a>
</g>
</g>
<!-- Node2 -->
<g id="Node000002" class="node">
<title>Node2</title>
<g id="a_Node000002"><a xlink:href="../../d0/d63/classExFatPartition.xhtml#a236e1ae2dfd3e7acc8dfa0cbf4658453" target="_top" xlink:title=" ">
<polygon fill="white" stroke="#666666" points="323,-375 182,-375 182,-345 323,-345 323,-375"/>
<text text-anchor="start" x="190" y="-363" font-family="Helvetica,sans-Serif" font-size="10.00">ExFatPartition::dataCache</text>
<text text-anchor="middle" x="252.5" y="-352" font-family="Helvetica,sans-Serif" font-size="10.00">Prepare</text>
</a>
</g>
</g>
<!-- Node1&#45;&gt;Node2 -->
<g id="edge1_Node000001_Node000002" class="edge">
<title>Node1&#45;&gt;Node2</title>
<g id="a_edge1_Node000001_Node000002"><a xlink:title=" ">
<path fill="none" stroke="#63b8ff" d="M101.35,-307.55C127.17,-316.57 166.59,-330.34 198.56,-341.51"/>
<polygon fill="#63b8ff" stroke="#63b8ff" points="197.63,-344.89 208.22,-344.88 199.94,-338.28 197.63,-344.89"/>
</a>
</g>
</g>
<!-- Node35 -->
<g id="Node000035" class="node">
<title>Node35</title>
<g id="a_Node000035"><a xlink:href="../../dc/d87/FsStructs_8h.xhtml#a07fdcae728ab56cd53f71c6c17b1889c" target="_top" xlink:title=" ">
<polygon fill="white" stroke="#666666" points="437.5,-326.5 381.5,-326.5 381.5,-307.5 437.5,-307.5 437.5,-326.5"/>
<text text-anchor="middle" x="409.5" y="-314.5" font-family="Helvetica,sans-Serif" font-size="10.00">getLe32</text>
</a>
</g>
</g>
<!-- Node1&#45;&gt;Node35 -->
<g id="edge56_Node000001_Node000035" class="edge">
<title>Node1&#45;&gt;Node35</title>
<g id="a_edge56_Node000001_Node000035"><a xlink:title=" ">
<path fill="none" stroke="#63b8ff" d="M146.17,-302.1C215.31,-306.03 316.91,-311.8 371.15,-314.88"/>
<polygon fill="#63b8ff" stroke="#63b8ff" points="371.16,-318.38 381.34,-315.46 371.55,-311.4 371.16,-318.38"/>
</a>
</g>
</g>
<!-- Node36 -->
<g id="Node000036" class="node">
<title>Node36</title>
<g id="a_Node000036"><a xlink:href="../../d2/d2b/ExFatDbg_8cpp.xhtml#a0ac0d94135ef846b6853c511e174a0ab" target="_top" xlink:title=" ">
<polygon fill="white" stroke="#666666" points="296.5,-233.5 208.5,-233.5 208.5,-214.5 296.5,-214.5 296.5,-233.5"/>
<text text-anchor="middle" x="252.5" y="-221.5" font-family="Helvetica,sans-Serif" font-size="10.00">printExFatBoot</text>
</a>
</g>
</g>
<!-- Node1&#45;&gt;Node36 -->
<g id="edge57_Node000001_Node000036" class="edge">
<title>Node1&#45;&gt;Node36</title>
<g id="a_edge57_Node000001_Node000036"><a xlink:title=" ">
<path fill="none" stroke="#63b8ff" d="M96.84,-288.48C127.91,-275.53 183.66,-252.28 219.06,-237.52"/>
<polygon fill="#63b8ff" stroke="#63b8ff" points="220.58,-240.68 228.46,-233.6 217.89,-234.22 220.58,-240.68"/>
</a>
</g>
</g>
<!-- Node41 -->
<g id="Node000041" class="node">
<title>Node41</title>
<g id="a_Node000041"><a xlink:href="../../d2/d2b/ExFatDbg_8cpp.xhtml#a049d69791ea628d050711ca6e7dce105" target="_top" xlink:title=" ">
<polygon fill="white" stroke="#666666" points="281.5,-288.5 223.5,-288.5 223.5,-269.5 281.5,-269.5 281.5,-288.5"/>
<text text-anchor="middle" x="252.5" y="-276.5" font-family="Helvetica,sans-Serif" font-size="10.00">printMbr</text>
</a>
</g>
</g>
<!-- Node1&#45;&gt;Node41 -->
<g id="edge63_Node000001_Node000041" class="edge">
<title>Node1&#45;&gt;Node41</title>
<g id="a_edge63_Node000001_Node000041"><a xlink:title=" ">
<path fill="none" stroke="#63b8ff" d="M146.2,-290.27C169.14,-287.82 193.61,-285.2 213.19,-283.1"/>
<polygon fill="#63b8ff" stroke="#63b8ff" points="213.66,-286.57 223.23,-282.03 212.91,-279.61 213.66,-286.57"/>
</a>
</g>
</g>
<!-- Node3 -->
<g id="Node000003" class="node">
<title>Node3</title>
<g id="a_Node000003"><a xlink:href="../../dd/db1/classFsCache.xhtml#a8c11f064a2ce0a380f522392f09d63cb" target="_top" xlink:title=" ">
<polygon fill="white" stroke="#666666" points="460,-369.5 359,-369.5 359,-350.5 460,-350.5 460,-369.5"/>
<text text-anchor="middle" x="409.5" y="-357.5" font-family="Helvetica,sans-Serif" font-size="10.00">FsCache::prepare</text>
</a>
</g>
</g>
<!-- Node2&#45;&gt;Node3 -->
<g id="edge2_Node000002_Node000003" class="edge">
<title>Node2&#45;&gt;Node3</title>
<g id="a_edge2_Node000002_Node000003"><a xlink:title=" ">
<path fill="none" stroke="#63b8ff" d="M323.29,-360C331.65,-360 340.14,-360 348.35,-360"/>
<polygon fill="#63b8ff" stroke="#63b8ff" points="348.57,-363.5 358.57,-360 348.57,-356.5 348.57,-363.5"/>
</a>
</g>
</g>
<!-- Node4 -->
<g id="Node000004" class="node">
<title>Node4</title>
<g id="a_Node000004"><a xlink:href="../../d8/d7f/classSharedSpiCard.xhtml#a61d86f4092f8ddbc7339d7cbcf6f70c0" target="_top" xlink:title=" ">
<polygon fill="white" stroke="#666666" points="773.5,-446.5 627.5,-446.5 627.5,-427.5 773.5,-427.5 773.5,-446.5"/>
<text text-anchor="middle" x="700.5" y="-434.5" font-family="Helvetica,sans-Serif" font-size="10.00">SharedSpiCard::readSector</text>
</a>
</g>
</g>
<!-- Node3&#45;&gt;Node4 -->
<g id="edge3_Node000003_Node000004" class="edge">
<title>Node3&#45;&gt;Node4</title>
<g id="a_edge3_Node000003_Node000004"><a xlink:title=" ">
<path fill="none" stroke="#63b8ff" d="M446.23,-369.52C498.51,-383.45 595.89,-409.4 653.48,-424.74"/>
<polygon fill="#63b8ff" stroke="#63b8ff" points="652.84,-428.19 663.4,-427.38 654.64,-421.43 652.84,-428.19"/>
</a>
</g>
</g>
<!-- Node31 -->
<g id="Node000031" class="node">
<title>Node31</title>
<g id="a_Node000031"><a xlink:href="../../dd/db1/classFsCache.xhtml#a5b90e145400de8687d9f34536b134130" target="_top" xlink:title=" ">
<polygon fill="white" stroke="#666666" points="590,-369.5 496,-369.5 496,-350.5 590,-350.5 590,-369.5"/>
<text text-anchor="middle" x="543" y="-357.5" font-family="Helvetica,sans-Serif" font-size="10.00">FsCache::sector</text>
</a>
</g>
</g>
<!-- Node3&#45;&gt;Node31 -->
<g id="edge42_Node000003_Node000031" class="edge">
<title>Node3&#45;&gt;Node31</title>
<g id="a_edge42_Node000003_Node000031"><a xlink:title=" ">
<path fill="none" stroke="#63b8ff" d="M460.21,-360C468.49,-360 477.12,-360 485.55,-360"/>
<polygon fill="#63b8ff" stroke="#63b8ff" points="485.68,-363.5 495.68,-360 485.68,-356.5 485.68,-363.5"/>
</a>
</g>
</g>
<!-- Node32 -->
<g id="Node000032" class="node">
<title>Node32</title>
<g id="a_Node000032"><a xlink:href="../../dd/db1/classFsCache.xhtml#a5a2c8fb432d7b7590ebb43200ca21893" target="_top" xlink:title=" ">
<polygon fill="white" stroke="#666666" points="586,-332.5 500,-332.5 500,-313.5 586,-313.5 586,-332.5"/>
<text text-anchor="middle" x="543" y="-320.5" font-family="Helvetica,sans-Serif" font-size="10.00">FsCache::sync</text>
</a>
</g>
</g>
<!-- Node3&#45;&gt;Node32 -->
<g id="edge43_Node000003_Node000032" class="edge">
<title>Node3&#45;&gt;Node32</title>
<g id="a_edge43_Node000003_Node000032"><a xlink:title=" ">
<path fill="none" stroke="#63b8ff" d="M444.36,-350.47C460.65,-345.89 480.38,-340.34 497.83,-335.43"/>
<polygon fill="#63b8ff" stroke="#63b8ff" points="499.11,-338.7 507.79,-332.62 497.22,-331.96 499.11,-338.7"/>
</a>
</g>
</g>
<!-- Node5 -->
<g id="Node000005" class="node">
<title>Node5</title>
<g id="a_Node000005"><a xlink:href="../../d8/d7f/classSharedSpiCard.xhtml#adda33199753fc2aec74fe317cbaabc06" target="_top" xlink:title=" ">
<polygon fill="white" stroke="#666666" points="976,-218.5 811,-218.5 811,-199.5 976,-199.5 976,-218.5"/>
<text text-anchor="middle" x="893.5" y="-206.5" font-family="Helvetica,sans-Serif" font-size="10.00">SharedSpiCard::cardCommand</text>
</a>
</g>
</g>
<!-- Node4&#45;&gt;Node5 -->
<g id="edge4_Node000004_Node000005" class="edge">
<title>Node4&#45;&gt;Node5</title>
<g id="a_edge4_Node000004_Node000005"><a xlink:title=" ">
<path fill="none" stroke="#63b8ff" d="M709.46,-427.49C738.65,-392.66 840.01,-271.66 877.99,-226.33"/>
<polygon fill="#63b8ff" stroke="#63b8ff" points="880.76,-228.46 884.5,-218.55 875.4,-223.97 880.76,-228.46"/>
</a>
</g>
</g>
<!-- Node19 -->
<g id="Node000019" class="node">
<title>Node19</title>
<g id="a_Node000019"><a xlink:href="../../d8/d7f/classSharedSpiCard.xhtml#a747c3f0b962098cf0c097f3c4c2b4fd4" target="_top" xlink:title=" ">
<polygon fill="white" stroke="#666666" points="1507.5,-350.5 1390.5,-350.5 1390.5,-331.5 1507.5,-331.5 1507.5,-350.5"/>
<text text-anchor="middle" x="1449" y="-338.5" font-family="Helvetica,sans-Serif" font-size="10.00">SharedSpiCard::error</text>
</a>
</g>
</g>
<!-- Node4&#45;&gt;Node19 -->
<g id="edge37_Node000004_Node000019" class="edge">
<title>Node4&#45;&gt;Node19</title>
<g id="a_edge37_Node000004_Node000019"><a xlink:title=" ">
<path fill="none" stroke="#63b8ff" d="M727.48,-446.6C817.56,-478.21 1122.76,-571.45 1340,-470 1389,-447.12 1423.62,-389.85 1439.03,-359.91"/>
<polygon fill="#63b8ff" stroke="#63b8ff" points="1442.36,-361.07 1443.67,-350.56 1436.09,-357.96 1442.36,-361.07"/>
</a>
</g>
</g>
<!-- Node20 -->
<g id="Node000020" class="node">
<title>Node20</title>
<g id="a_Node000020"><a xlink:href="../../d8/d7f/classSharedSpiCard.xhtml#a0f511c39c50055a4fc97e720933aee3a" target="_top" xlink:title=" ">
<polygon fill="white" stroke="#666666" points="1514,-293.5 1384,-293.5 1384,-274.5 1514,-274.5 1514,-293.5"/>
<text text-anchor="middle" x="1449" y="-281.5" font-family="Helvetica,sans-Serif" font-size="10.00">SharedSpiCard::spiStop</text>
</a>
</g>
</g>
<!-- Node4&#45;&gt;Node20 -->
<g id="edge40_Node000004_Node000020" class="edge">
<title>Node4&#45;&gt;Node20</title>
<g id="a_edge40_Node000004_Node000020"><a xlink:title=" ">
<path fill="none" stroke="#63b8ff" d="M749.15,-446.51C862.18,-466.32 1151.17,-500.63 1340,-378 1364.5,-362.09 1354.5,-342.78 1376,-323 1387.11,-312.78 1401.4,-304.32 1414.31,-297.93"/>
<polygon fill="#63b8ff" stroke="#63b8ff" points="1415.85,-301.07 1423.41,-293.64 1412.87,-294.74 1415.85,-301.07"/>
</a>
</g>
</g>
<!-- Node29 -->
<g id="Node000029" class="node">
<title>Node29</title>
<g id="a_Node000029"><a xlink:href="../../d8/d7f/classSharedSpiCard.xhtml#abeae3cdc162f24c2d450abe4e1ed8340" target="_top" xlink:title=" ">
<polygon fill="white" stroke="#666666" points="963,-541.5 824,-541.5 824,-522.5 963,-522.5 963,-541.5"/>
<text text-anchor="middle" x="893.5" y="-529.5" font-family="Helvetica,sans-Serif" font-size="10.00">SharedSpiCard::readData</text>
</a>
</g>
</g>
<!-- Node4&#45;&gt;Node29 -->
<g id="edge38_Node000004_Node000029" class="edge">
<title>Node4&#45;&gt;Node29</title>
<g id="a_edge38_Node000004_Node000029"><a xlink:title=" ">
<path fill="none" stroke="#63b8ff" d="M713.62,-446.56C733.12,-461.53 773.12,-490.59 811,-508 820.65,-512.43 831.32,-516.27 841.67,-519.5"/>
<polygon fill="#63b8ff" stroke="#63b8ff" points="840.87,-522.91 851.45,-522.41 842.86,-516.2 840.87,-522.91"/>
</a>
</g>
</g>
<!-- Node30 -->
<g id="Node000030" class="node">
<title>Node30</title>
<g id="a_Node000030"><a xlink:href="../../d8/d7f/classSharedSpiCard.xhtml#a7dac2190763d7b4b72163ed7131e8a87" target="_top" xlink:title=" ">
<polygon fill="white" stroke="#666666" points="951.5,-427.5 835.5,-427.5 835.5,-408.5 951.5,-408.5 951.5,-427.5"/>
<text text-anchor="middle" x="893.5" y="-415.5" font-family="Helvetica,sans-Serif" font-size="10.00">SharedSpiCard::type</text>
</a>
</g>
</g>
<!-- Node4&#45;&gt;Node30 -->
<g id="edge41_Node000004_Node000030" class="edge">
<title>Node4&#45;&gt;Node30</title>
<g id="a_edge41_Node000004_Node000030"><a xlink:title=" ">
<path fill="none" stroke="#63b8ff" d="M773.71,-429.82C790.59,-428.14 808.51,-426.35 825.17,-424.7"/>
<polygon fill="#63b8ff" stroke="#63b8ff" points="825.76,-428.16 835.37,-423.68 825.07,-421.19 825.76,-428.16"/>
</a>
</g>
</g>
<!-- Node6 -->
<g id="Node000006" class="node">
<title>Node6</title>
<g id="a_Node000006"><a xlink:href="../../d8/d7f/classSharedSpiCard.xhtml#a08363209d938db87521cca6a84146041" target="_top" xlink:title=" ">
<polygon fill="white" stroke="#666666" points="1712,-80.5 1565,-80.5 1565,-61.5 1712,-61.5 1712,-80.5"/>
<text text-anchor="middle" x="1638.5" y="-68.5" font-family="Helvetica,sans-Serif" font-size="10.00">SharedSpiCard::spiReceive</text>
</a>
</g>
</g>
<!-- Node5&#45;&gt;Node6 -->
<g id="edge5_Node000005_Node000006" class="edge">
<title>Node5&#45;&gt;Node6</title>
<g id="a_edge5_Node000005_Node000006"><a xlink:title=" ">
<path fill="none" stroke="#63b8ff" d="M904.1,-199.29C922.87,-180.99 966.59,-141.75 1012,-125 1196.76,-56.85 1432.28,-58 1554.89,-64.57"/>
<polygon fill="#63b8ff" stroke="#63b8ff" points="1554.78,-68.07 1564.96,-65.14 1555.17,-61.08 1554.78,-68.07"/>
</a>
</g>
</g>
<!-- Node8 -->
<g id="Node000008" class="node">
<title>Node8</title>
<g id="a_Node000008"><a xlink:href="../../d8/d7f/classSharedSpiCard.xhtml#ab311b9ad8a250f06afbe091f7abb118b" target="_top" xlink:title=" ">
<polygon fill="white" stroke="#666666" points="1704.5,-236.5 1572.5,-236.5 1572.5,-217.5 1704.5,-217.5 1704.5,-236.5"/>
<text text-anchor="middle" x="1638.5" y="-224.5" font-family="Helvetica,sans-Serif" font-size="10.00">SharedSpiCard::spiSend</text>
</a>
</g>
</g>
<!-- Node5&#45;&gt;Node8 -->
<g id="edge7_Node000005_Node000008" class="edge">
<title>Node5&#45;&gt;Node8</title>
<g id="a_edge7_Node000005_Node000008"><a xlink:title=" ">
<path fill="none" stroke="#63b8ff" d="M976.22,-207.52C1065.59,-206.25 1213.02,-205.16 1340,-209 1415.66,-211.29 1502,-216.84 1562.1,-221.18"/>
<polygon fill="#63b8ff" stroke="#63b8ff" points="1562.03,-224.68 1572.26,-221.92 1562.54,-217.7 1562.03,-224.68"/>
</a>
</g>
</g>
<!-- Node10 -->
<g id="Node000010" class="node">
<title>Node10</title>
<g id="a_Node000010"><a xlink:href="../../d8/d7f/classSharedSpiCard.xhtml#aef2dfa72e8d5643c90720f9f8c6a4254" target="_top" xlink:title=" ">
<polygon fill="white" stroke="#666666" points="1514.5,-161.5 1383.5,-161.5 1383.5,-142.5 1514.5,-142.5 1514.5,-161.5"/>
<text text-anchor="middle" x="1449" y="-149.5" font-family="Helvetica,sans-Serif" font-size="10.00">SharedSpiCard::spiStart</text>
</a>
</g>
</g>
<!-- Node5&#45;&gt;Node10 -->
<g id="edge9_Node000005_Node000010" class="edge">
<title>Node5&#45;&gt;Node10</title>
<g id="a_edge9_Node000005_Node000010"><a xlink:title=" ">
<path fill="none" stroke="#63b8ff" d="M922.13,-199.39C945.69,-191.64 980.65,-181.2 1012,-176 1137.53,-155.18 1285.89,-151.34 1373.17,-151.17"/>
<polygon fill="#63b8ff" stroke="#63b8ff" points="1373.25,-154.67 1383.25,-151.17 1373.25,-147.67 1373.25,-154.67"/>
</a>
</g>
</g>
<!-- Node17 -->
<g id="Node000017" class="node">
<title>Node17</title>
<g id="a_Node000017"><a xlink:href="../../d8/d7f/classSharedSpiCard.xhtml#a2f181b3d6f27413a0f5ee883dfd94d87" target="_top" xlink:title=" ">
<polygon fill="white" stroke="#666666" points="1162,-237.5 1012,-237.5 1012,-218.5 1162,-218.5 1162,-237.5"/>
<text text-anchor="middle" x="1087" y="-225.5" font-family="Helvetica,sans-Serif" font-size="10.00">SharedSpiCard::syncDevice</text>
</a>
</g>
</g>
<!-- Node5&#45;&gt;Node17 -->
<g id="edge17_Node000005_Node000017" class="edge">
<title>Node5&#45;&gt;Node17</title>
<g id="a_edge17_Node000005_Node000017"><a xlink:title=" ">
<path fill="none" stroke="#63b8ff" d="M976.27,-217.11C984.65,-217.94 993.18,-218.79 1001.59,-219.63"/>
<polygon fill="#63b8ff" stroke="#63b8ff" points="1001.48,-223.13 1011.78,-220.64 1002.17,-216.17 1001.48,-223.13"/>
</a>
</g>
</g>
<!-- Node25 -->
<g id="Node000025" class="node">
<title>Node25</title>
<g id="a_Node000025"><a xlink:href="../../d8/d7f/classSharedSpiCard.xhtml#ab3468397bb3b12d29dd2f31e45b3dcaf" target="_top" xlink:title=" ">
<polygon fill="white" stroke="#666666" points="1522,-123.5 1376,-123.5 1376,-104.5 1522,-104.5 1522,-123.5"/>
<text text-anchor="middle" x="1449" y="-111.5" font-family="Helvetica,sans-Serif" font-size="10.00">SharedSpiCard::waitReady</text>
</a>
</g>
</g>
<!-- Node5&#45;&gt;Node25 -->
<g id="edge36_Node000005_Node000025" class="edge">
<title>Node5&#45;&gt;Node25</title>
<g id="a_edge36_Node000005_Node000025"><a xlink:title=" ">
<path fill="none" stroke="#63b8ff" d="M910.98,-199.46C933.14,-187.14 974.15,-166.06 1012,-156 1132.3,-124.01 1277.02,-115.76 1365.74,-113.97"/>
<polygon fill="#63b8ff" stroke="#63b8ff" points="1365.81,-117.47 1375.74,-113.79 1365.68,-110.47 1365.81,-117.47"/>
</a>
</g>
</g>
<!-- Node7 -->
<g id="Node000007" class="node">
<title>Node7</title>
<g id="a_Node000007"><a xlink:href="../../d0/d25/classSdSpiArduinoDriver.xhtml#a8d6bc852a52e9d69c4b1e48ee062e8d1" target="_top" xlink:title=" ">
<polygon fill="white" stroke="#666666" points="1866,-83 1755,-83 1755,-53 1866,-53 1866,-83"/>
<text text-anchor="start" x="1763" y="-71" font-family="Helvetica,sans-Serif" font-size="10.00">SdSpiArduinoDriver</text>
<text text-anchor="middle" x="1810.5" y="-60" font-family="Helvetica,sans-Serif" font-size="10.00">::receive</text>
</a>
</g>
</g>
<!-- Node6&#45;&gt;Node7 -->
<g id="edge6_Node000006_Node000007" class="edge">
<title>Node6&#45;&gt;Node7</title>
<g id="a_edge6_Node000006_Node000007"><a xlink:title=" ">
<path fill="none" stroke="#63b8ff" d="M1712.09,-69.72C1722.96,-69.53 1734.11,-69.33 1744.81,-69.14"/>
<polygon fill="#63b8ff" stroke="#63b8ff" points="1744.96,-72.64 1754.9,-68.96 1744.84,-65.64 1744.96,-72.64"/>
</a>
</g>
</g>
<!-- Node9 -->
<g id="Node000009" class="node">
<title>Node9</title>
<g id="a_Node000009"><a xlink:href="../../d0/d25/classSdSpiArduinoDriver.xhtml#a3c4842e47f98fe5d3799cd6028778ab5" target="_top" xlink:title=" ">
<polygon fill="white" stroke="#666666" points="1866,-255 1755,-255 1755,-225 1866,-225 1866,-255"/>
<text text-anchor="start" x="1763" y="-243" font-family="Helvetica,sans-Serif" font-size="10.00">SdSpiArduinoDriver</text>
<text text-anchor="middle" x="1810.5" y="-232" font-family="Helvetica,sans-Serif" font-size="10.00">::send</text>
</a>
</g>
</g>
<!-- Node8&#45;&gt;Node9 -->
<g id="edge8_Node000008_Node000009" class="edge">
<title>Node8&#45;&gt;Node9</title>
<g id="a_edge8_Node000008_Node000009"><a xlink:title=" ">
<path fill="none" stroke="#63b8ff" d="M1704.74,-231.99C1717.82,-232.99 1731.56,-234.04 1744.62,-235.04"/>
<polygon fill="#63b8ff" stroke="#63b8ff" points="1744.69,-238.55 1754.93,-235.83 1745.22,-231.57 1744.69,-238.55"/>
</a>
</g>
</g>
<!-- Node10&#45;&gt;Node8 -->
<g id="edge16_Node000010_Node000008" class="edge">
<title>Node10&#45;&gt;Node8</title>
<g id="a_edge16_Node000010_Node000008"><a xlink:title=" ">
<path fill="none" stroke="#63b8ff" d="M1488.24,-161.58C1499.52,-165.23 1511.62,-170 1522,-176 1540.53,-186.71 1539.02,-198.1 1558,-208 1562.52,-210.36 1567.35,-212.43 1572.29,-214.25"/>
<polygon fill="#63b8ff" stroke="#63b8ff" points="1571.32,-217.61 1581.91,-217.44 1573.52,-210.97 1571.32,-217.61"/>
</a>
</g>
</g>
<!-- Node11 -->
<g id="Node000011" class="node">
<title>Node11</title>
<g id="a_Node000011"><a xlink:href="../../d8/d7f/classSharedSpiCard.xhtml#a69ee2fe49dfaeea2347d8a265806d2b6" target="_top" xlink:title=" ">
<polygon fill="white" stroke="#666666" points="1713,-161.5 1564,-161.5 1564,-142.5 1713,-142.5 1713,-161.5"/>
<text text-anchor="middle" x="1638.5" y="-149.5" font-family="Helvetica,sans-Serif" font-size="10.00">SharedSpiCard::spiActivate</text>
</a>
</g>
</g>
<!-- Node10&#45;&gt;Node11 -->
<g id="edge10_Node000010_Node000011" class="edge">
<title>Node10&#45;&gt;Node11</title>
<g id="a_edge10_Node000010_Node000011"><a xlink:title=" ">
<path fill="none" stroke="#63b8ff" d="M1514.53,-152C1527.19,-152 1540.64,-152 1553.82,-152"/>
<polygon fill="#63b8ff" stroke="#63b8ff" points="1553.84,-155.5 1563.84,-152 1553.84,-148.5 1553.84,-155.5"/>
</a>
</g>
</g>
<!-- Node13 -->
<g id="Node000013" class="node">
<title>Node13</title>
<g id="a_Node000013"><a xlink:href="../../d8/d7f/classSharedSpiCard.xhtml#a8c3088599862ff6e84ae79bfdf32aea8" target="_top" xlink:title=" ">
<polygon fill="white" stroke="#666666" points="1707.5,-199.5 1569.5,-199.5 1569.5,-180.5 1707.5,-180.5 1707.5,-199.5"/>
<text text-anchor="middle" x="1638.5" y="-187.5" font-family="Helvetica,sans-Serif" font-size="10.00">SharedSpiCard::spiSelect</text>
</a>
</g>
</g>
<!-- Node10&#45;&gt;Node13 -->
<g id="edge12_Node000010_Node000013" class="edge">
<title>Node10&#45;&gt;Node13</title>
<g id="a_edge12_Node000010_Node000013"><a xlink:title=" ">
<path fill="none" stroke="#63b8ff" d="M1497.31,-161.59C1522.61,-166.72 1553.95,-173.07 1580.57,-178.46"/>
<polygon fill="#63b8ff" stroke="#63b8ff" points="1580.03,-181.92 1590.53,-180.48 1581.42,-175.06 1580.03,-181.92"/>
</a>
</g>
</g>
<!-- Node12 -->
<g id="Node000012" class="node">
<title>Node12</title>
<g id="a_Node000012"><a xlink:href="../../d0/d25/classSdSpiArduinoDriver.xhtml#abb6b88c5c8b87fc344a69f23f6eab3d9" target="_top" xlink:title=" ">
<polygon fill="white" stroke="#666666" points="1866,-169 1755,-169 1755,-139 1866,-139 1866,-169"/>
<text text-anchor="start" x="1763" y="-157" font-family="Helvetica,sans-Serif" font-size="10.00">SdSpiArduinoDriver</text>
<text text-anchor="middle" x="1810.5" y="-146" font-family="Helvetica,sans-Serif" font-size="10.00">::activate</text>
</a>
</g>
</g>
<!-- Node11&#45;&gt;Node12 -->
<g id="edge11_Node000011_Node000012" class="edge">
<title>Node11&#45;&gt;Node12</title>
<g id="a_edge11_Node000011_Node000012"><a xlink:title=" ">
<path fill="none" stroke="#63b8ff" d="M1713.08,-152.87C1723.57,-152.99 1734.31,-153.12 1744.63,-153.24"/>
<polygon fill="#63b8ff" stroke="#63b8ff" points="1744.74,-156.74 1754.78,-153.36 1744.82,-149.74 1744.74,-156.74"/>
</a>
</g>
</g>
<!-- Node14 -->
<g id="Node000014" class="node">
<title>Node14</title>
<g id="a_Node000014"><a xlink:href="../../d2/df0/SdSpiChipSelect_8cpp.xhtml#ac469bbe2d31ffde9b00ffc68258d7428" target="_top" xlink:title=" ">
<polygon fill="white" stroke="#666666" points="1843.5,-206.5 1777.5,-206.5 1777.5,-187.5 1843.5,-187.5 1843.5,-206.5"/>
<text text-anchor="middle" x="1810.5" y="-194.5" font-family="Helvetica,sans-Serif" font-size="10.00">sdCsWrite</text>
</a>
</g>
</g>
<!-- Node13&#45;&gt;Node14 -->
<g id="edge13_Node000013_Node000014" class="edge">
<title>Node13&#45;&gt;Node14</title>
<g id="a_edge13_Node000013_Node000014"><a xlink:title=" ">
<path fill="none" stroke="#63b8ff" d="M1707.67,-192.81C1727.74,-193.63 1749.12,-194.51 1767.09,-195.25"/>
<polygon fill="#63b8ff" stroke="#63b8ff" points="1767.1,-198.76 1777.23,-195.67 1767.38,-191.76 1767.1,-198.76"/>
</a>
</g>
</g>
<!-- Node15 -->
<g id="Node000015" class="node">
<title>Node15</title>
<g id="a_Node000015"><a xlink:href="../../d5/d45/wiring__digital_8c.xhtml#a73b9b61feeaf7d790d107f2954a7fd93" target="_top" xlink:title=" ">
<polygon fill="white" stroke="#666666" points="1976,-206.5 1902,-206.5 1902,-187.5 1976,-187.5 1976,-206.5"/>
<text text-anchor="middle" x="1939" y="-194.5" font-family="Helvetica,sans-Serif" font-size="10.00">digitalWrite</text>
</a>
</g>
</g>
<!-- Node14&#45;&gt;Node15 -->
<g id="edge14_Node000014_Node000015" class="edge">
<title>Node14&#45;&gt;Node15</title>
<g id="a_edge14_Node000014_Node000015"><a xlink:title=" ">
<path fill="none" stroke="#63b8ff" d="M1843.75,-197C1858.28,-197 1875.71,-197 1891.61,-197"/>
<polygon fill="#63b8ff" stroke="#63b8ff" points="1891.79,-200.5 1901.79,-197 1891.79,-193.5 1891.79,-200.5"/>
</a>
</g>
</g>
<!-- Node16 -->
<g id="Node000016" class="node">
<title>Node16</title>
<g id="a_Node000016"><a xlink:href="../../d5/d45/wiring__digital_8c.xhtml#ae3d0bcbe4eb927ca8f5d5c21b7e4f224" target="_top" xlink:title=" ">
<polygon fill="white" stroke="#666666" points="2087,-206.5 2012,-206.5 2012,-187.5 2087,-187.5 2087,-206.5"/>
<text text-anchor="middle" x="2049.5" y="-194.5" font-family="Helvetica,sans-Serif" font-size="10.00">turnOffPWM</text>
</a>
</g>
</g>
<!-- Node15&#45;&gt;Node16 -->
<g id="edge15_Node000015_Node000016" class="edge">
<title>Node15&#45;&gt;Node16</title>
<g id="a_edge15_Node000015_Node000016"><a xlink:title=" ">
<path fill="none" stroke="#63b8ff" d="M1976.13,-197C1984.28,-197 1993.05,-197 2001.57,-197"/>
<polygon fill="#63b8ff" stroke="#63b8ff" points="2001.79,-200.5 2011.79,-197 2001.79,-193.5 2001.79,-200.5"/>
</a>
</g>
</g>
<!-- Node18 -->
<g id="Node000018" class="node">
<title>Node18</title>
<g id="a_Node000018"><a xlink:href="../../d8/d7f/classSharedSpiCard.xhtml#ab33ad2aefbb9cff905cad0879dffc78b" target="_top" xlink:title=" ">
<polygon fill="white" stroke="#666666" points="1337.5,-274.5 1200.5,-274.5 1200.5,-255.5 1337.5,-255.5 1337.5,-274.5"/>
<text text-anchor="middle" x="1269" y="-262.5" font-family="Helvetica,sans-Serif" font-size="10.00">SharedSpiCard::readStop</text>
</a>
</g>
</g>
<!-- Node17&#45;&gt;Node18 -->
<g id="edge18_Node000017_Node000018" class="edge">
<title>Node17&#45;&gt;Node18</title>
<g id="a_edge18_Node000017_Node000018"><a xlink:title=" ">
<path fill="none" stroke="#63b8ff" d="M1134.35,-237.53C1157.88,-242.36 1186.66,-248.28 1211.48,-253.38"/>
<polygon fill="#63b8ff" stroke="#63b8ff" points="1210.99,-256.85 1221.49,-255.44 1212.4,-250 1210.99,-256.85"/>
</a>
</g>
</g>
<!-- Node24 -->
<g id="Node000024" class="node">
<title>Node24</title>
<g id="a_Node000024"><a xlink:href="../../d8/d7f/classSharedSpiCard.xhtml#ae9a34a573077e43e7c6028a16ae77fb3" target="_top" xlink:title=" ">
<polygon fill="white" stroke="#666666" points="1339,-237.5 1199,-237.5 1199,-218.5 1339,-218.5 1339,-237.5"/>
<text text-anchor="middle" x="1269" y="-225.5" font-family="Helvetica,sans-Serif" font-size="10.00">SharedSpiCard::writeStop</text>
</a>
</g>
</g>
<!-- Node17&#45;&gt;Node24 -->
<g id="edge27_Node000017_Node000024" class="edge">
<title>Node17&#45;&gt;Node24</title>
<g id="a_edge27_Node000017_Node000024"><a xlink:title=" ">
<path fill="none" stroke="#63b8ff" d="M1162.25,-228C1170.95,-228 1179.86,-228 1188.62,-228"/>
<polygon fill="#63b8ff" stroke="#63b8ff" points="1188.83,-231.5 1198.83,-228 1188.83,-224.5 1188.83,-231.5"/>
</a>
</g>
</g>
<!-- Node18&#45;&gt;Node5 -->
<g id="edge19_Node000018_Node000005" class="edge">
<title>Node18&#45;&gt;Node5</title>
<g id="a_edge19_Node000018_Node000005"><a xlink:title=" ">
<path fill="none" stroke="#63b8ff" d="M1200.34,-264.22C1148.4,-262.61 1075.14,-258.11 1012,-246 983.46,-240.52 952.11,-230.44 928.98,-222.17"/>
<polygon fill="#63b8ff" stroke="#63b8ff" points="929.88,-218.78 919.28,-218.65 927.48,-225.36 929.88,-218.78"/>
</a>
</g>
</g>
<!-- Node18&#45;&gt;Node19 -->
<g id="edge20_Node000018_Node000019" class="edge">
<title>Node18&#45;&gt;Node19</title>
<g id="a_edge20_Node000018_Node000019"><a xlink:title=" ">
<path fill="none" stroke="#63b8ff" d="M1292.54,-274.63C1323.84,-287.99 1380.61,-312.23 1416.2,-327.42"/>
<polygon fill="#63b8ff" stroke="#63b8ff" points="1415.07,-330.74 1425.64,-331.45 1417.82,-324.31 1415.07,-330.74"/>
</a>
</g>
</g>
<!-- Node18&#45;&gt;Node20 -->
<g id="edge21_Node000018_Node000020" class="edge">
<title>Node18&#45;&gt;Node20</title>
<g id="a_edge21_Node000018_Node000020"><a xlink:title=" ">
<path fill="none" stroke="#63b8ff" d="M1337.55,-272.21C1349.38,-273.47 1361.75,-274.79 1373.75,-276.07"/>
<polygon fill="#63b8ff" stroke="#63b8ff" points="1373.41,-279.56 1383.73,-277.14 1374.16,-272.6 1373.41,-279.56"/>
</a>
</g>
</g>
<!-- Node20&#45;&gt;Node8 -->
<g id="edge24_Node000020_Node000008" class="edge">
<title>Node20&#45;&gt;Node8</title>
<g id="a_edge24_Node000020_Node000008"><a xlink:title=" ">
<path fill="none" stroke="#63b8ff" d="M1473.74,-274.46C1495.44,-265.98 1528.53,-253.62 1558,-245 1565.45,-242.82 1573.36,-240.75 1581.18,-238.84"/>
<polygon fill="#63b8ff" stroke="#63b8ff" points="1582.09,-242.22 1591.01,-236.51 1580.47,-235.41 1582.09,-242.22"/>
</a>
</g>
</g>
<!-- Node21 -->
<g id="Node000021" class="node">
<title>Node21</title>
<g id="a_Node000021"><a xlink:href="../../d8/d7f/classSharedSpiCard.xhtml#ac6acfca5a23337977d2e4436ab8ab39a" target="_top" xlink:title=" ">
<polygon fill="white" stroke="#666666" points="1719,-310.5 1558,-310.5 1558,-291.5 1719,-291.5 1719,-310.5"/>
<text text-anchor="middle" x="1638.5" y="-298.5" font-family="Helvetica,sans-Serif" font-size="10.00">SharedSpiCard::spiDeactivate</text>
</a>
</g>
</g>
<!-- Node20&#45;&gt;Node21 -->
<g id="edge22_Node000020_Node000021" class="edge">
<title>Node20&#45;&gt;Node21</title>
<g id="a_edge22_Node000020_Node000021"><a xlink:title=" ">
<path fill="none" stroke="#63b8ff" d="M1514,-289.8C1524.92,-290.79 1536.43,-291.84 1547.86,-292.87"/>
<polygon fill="#63b8ff" stroke="#63b8ff" points="1547.59,-296.36 1557.87,-293.78 1548.22,-289.39 1547.59,-296.36"/>
</a>
</g>
</g>
<!-- Node23 -->
<g id="Node000023" class="node">
<title>Node23</title>
<g id="a_Node000023"><a xlink:href="../../d8/d7f/classSharedSpiCard.xhtml#ad06a3278372300987b97876cf598c114" target="_top" xlink:title=" ">
<polygon fill="white" stroke="#666666" points="1714,-273.5 1563,-273.5 1563,-254.5 1714,-254.5 1714,-273.5"/>
<text text-anchor="middle" x="1638.5" y="-261.5" font-family="Helvetica,sans-Serif" font-size="10.00">SharedSpiCard::spiUnselect</text>
</a>
</g>
</g>
<!-- Node20&#45;&gt;Node23 -->
<g id="edge25_Node000020_Node000023" class="edge">
<title>Node20&#45;&gt;Node23</title>
<g id="a_edge25_Node000020_Node000023"><a xlink:title=" ">
<path fill="none" stroke="#63b8ff" d="M1514,-277.17C1526.39,-275.85 1539.55,-274.45 1552.49,-273.07"/>
<polygon fill="#63b8ff" stroke="#63b8ff" points="1553.23,-276.51 1562.8,-271.97 1552.49,-269.55 1553.23,-276.51"/>
</a>
</g>
</g>
<!-- Node22 -->
<g id="Node000022" class="node">
<title>Node22</title>
<g id="a_Node000022"><a xlink:href="../../d0/d25/classSdSpiArduinoDriver.xhtml#ae88a255f533e3acb41d1221025a69b55" target="_top" xlink:title=" ">
<polygon fill="white" stroke="#666666" points="1866,-316 1755,-316 1755,-286 1866,-286 1866,-316"/>
<text text-anchor="start" x="1763" y="-304" font-family="Helvetica,sans-Serif" font-size="10.00">SdSpiArduinoDriver</text>
<text text-anchor="middle" x="1810.5" y="-293" font-family="Helvetica,sans-Serif" font-size="10.00">::deactivate</text>
</a>
</g>
</g>
<!-- Node21&#45;&gt;Node22 -->
<g id="edge23_Node000021_Node000022" class="edge">
<title>Node21&#45;&gt;Node22</title>
<g id="a_edge23_Node000021_Node000022"><a xlink:title=" ">
<path fill="none" stroke="#63b8ff" d="M1719.02,-301C1727.63,-301 1736.3,-301 1744.7,-301"/>
<polygon fill="#63b8ff" stroke="#63b8ff" points="1744.78,-304.5 1754.78,-301 1744.78,-297.5 1744.78,-304.5"/>
</a>
</g>
</g>
<!-- Node23&#45;&gt;Node14 -->
<g id="edge26_Node000023_Node000014" class="edge">
<title>Node23&#45;&gt;Node14</title>
<g id="a_edge26_Node000023_Node000014"><a xlink:title=" ">
<path fill="none" stroke="#63b8ff" d="M1693.66,-254.48C1702.37,-251.99 1711.1,-248.88 1719,-245 1737.44,-235.95 1737.04,-225.97 1755,-216 1759,-213.78 1763.31,-211.75 1767.69,-209.9"/>
<polygon fill="#63b8ff" stroke="#63b8ff" points="1769.23,-213.06 1777.29,-206.18 1766.7,-206.53 1769.23,-213.06"/>
</a>
</g>
</g>
<!-- Node24&#45;&gt;Node8 -->
<g id="edge29_Node000024_Node000008" class="edge">
<title>Node24&#45;&gt;Node8</title>
<g id="a_edge29_Node000024_Node000008"><a xlink:title=" ">
<path fill="none" stroke="#63b8ff" d="M1339.12,-227.81C1402.67,-227.64 1496.68,-227.38 1562.14,-227.21"/>
<polygon fill="#63b8ff" stroke="#63b8ff" points="1562.4,-230.7 1572.39,-227.18 1562.38,-223.7 1562.4,-230.7"/>
</a>
</g>
</g>
<!-- Node24&#45;&gt;Node19 -->
<g id="edge28_Node000024_Node000019" class="edge">
<title>Node24&#45;&gt;Node19</title>
<g id="a_edge28_Node000024_Node000019"><a xlink:title=" ">
<path fill="none" stroke="#63b8ff" d="M1324.61,-237.6C1330.09,-239.84 1335.33,-242.6 1340,-246 1364.22,-263.64 1354.01,-282.65 1376,-303 1386.67,-312.87 1400.37,-320.94 1412.96,-327.06"/>
<polygon fill="#63b8ff" stroke="#63b8ff" points="1411.76,-330.36 1422.3,-331.36 1414.69,-324 1411.76,-330.36"/>
</a>
</g>
</g>
<!-- Node24&#45;&gt;Node20 -->
<g id="edge30_Node000024_Node000020" class="edge">
<title>Node24&#45;&gt;Node20</title>
<g id="a_edge30_Node000024_Node000020"><a xlink:title=" ">
<path fill="none" stroke="#63b8ff" d="M1309.78,-237.59C1319.7,-240.16 1330.28,-243.04 1340,-246 1364.79,-253.53 1392.34,-263.25 1413.41,-270.97"/>
<polygon fill="#63b8ff" stroke="#63b8ff" points="1412.3,-274.29 1422.89,-274.47 1414.72,-267.72 1412.3,-274.29"/>
</a>
</g>
</g>
<!-- Node24&#45;&gt;Node25 -->
<g id="edge31_Node000024_Node000025" class="edge">
<title>Node24&#45;&gt;Node25</title>
<g id="a_edge31_Node000024_Node000025"><a xlink:title=" ">
<path fill="none" stroke="#63b8ff" d="M1277.96,-218.28C1294.28,-199.02 1333.58,-155.86 1376,-133 1380.26,-130.71 1384.81,-128.68 1389.47,-126.88"/>
<polygon fill="#63b8ff" stroke="#63b8ff" points="1390.86,-130.11 1399.16,-123.53 1388.57,-123.49 1390.86,-130.11"/>
</a>
</g>
</g>
<!-- Node25&#45;&gt;Node6 -->
<g id="edge32_Node000025_Node000006" class="edge">
<title>Node25&#45;&gt;Node6</title>
<g id="a_edge32_Node000025_Node000006"><a xlink:title=" ">
<path fill="none" stroke="#63b8ff" d="M1491.61,-104.46C1519.53,-98.05 1556.49,-89.58 1586.22,-82.76"/>
<polygon fill="#63b8ff" stroke="#63b8ff" points="1587.04,-86.16 1596,-80.52 1585.47,-79.34 1587.04,-86.16"/>
</a>
</g>
</g>
<!-- Node26 -->
<g id="Node000026" class="node">
<title>Node26</title>
<g id="a_Node000026"><a xlink:href="../../db/df4/classTimeout.xhtml#abbabe99f42e52472ddd3a7e9d22dce95" target="_top" xlink:title=" ">
<polygon fill="white" stroke="#666666" points="1693,-121.5 1584,-121.5 1584,-102.5 1693,-102.5 1693,-121.5"/>
<text text-anchor="middle" x="1638.5" y="-109.5" font-family="Helvetica,sans-Serif" font-size="10.00">Timeout::timedOut</text>
</a>
</g>
</g>
<!-- Node25&#45;&gt;Node26 -->
<g id="edge33_Node000025_Node000026" class="edge">
<title>Node25&#45;&gt;Node26</title>
<g id="a_edge33_Node000025_Node000026"><a xlink:title=" ">
<path fill="none" stroke="#63b8ff" d="M1522.22,-113.23C1539.23,-113.05 1557.22,-112.86 1573.82,-112.68"/>
<polygon fill="#63b8ff" stroke="#63b8ff" points="1573.98,-116.18 1583.95,-112.57 1573.91,-109.18 1573.98,-116.18"/>
</a>
</g>
</g>
<!-- Node27 -->
<g id="Node000027" class="node">
<title>Node27</title>
<g id="a_Node000027"><a xlink:href="../../db/df4/classTimeout.xhtml#a9a72ea0591f11452fb15bfaa1ae5108a" target="_top" xlink:title=" ">
<polygon fill="white" stroke="#666666" points="1861.5,-120.5 1759.5,-120.5 1759.5,-101.5 1861.5,-101.5 1861.5,-120.5"/>
<text text-anchor="middle" x="1810.5" y="-108.5" font-family="Helvetica,sans-Serif" font-size="10.00">Timeout::millis16</text>
</a>
</g>
</g>
<!-- Node26&#45;&gt;Node27 -->
<g id="edge34_Node000026_Node000027" class="edge">
<title>Node26&#45;&gt;Node27</title>
<g id="a_edge34_Node000026_Node000027"><a xlink:title=" ">
<path fill="none" stroke="#63b8ff" d="M1693.29,-111.68C1711.02,-111.58 1730.85,-111.46 1749.04,-111.36"/>
<polygon fill="#63b8ff" stroke="#63b8ff" points="1749.26,-114.85 1759.24,-111.3 1749.22,-107.85 1749.26,-114.85"/>
</a>
</g>
</g>
<!-- Node28 -->
<g id="Node000028" class="node">
<title>Node28</title>
<g id="a_Node000028"><a xlink:href="../../d5/df3/wiring_8c.xhtml#a6ff7f2532a22366f0013bc41397129fd" target="_top" xlink:title=" ">
<polygon fill="white" stroke="#666666" points="1961,-120.5 1917,-120.5 1917,-101.5 1961,-101.5 1961,-120.5"/>
<text text-anchor="middle" x="1939" y="-108.5" font-family="Helvetica,sans-Serif" font-size="10.00">millis</text>
</a>
</g>
</g>
<!-- Node27&#45;&gt;Node28 -->
<g id="edge35_Node000027_Node000028" class="edge">
<title>Node27&#45;&gt;Node28</title>
<g id="a_edge35_Node000027_Node000028"><a xlink:title=" ">
<path fill="none" stroke="#63b8ff" d="M1861.86,-111C1876.97,-111 1893.11,-111 1906.62,-111"/>
<polygon fill="#63b8ff" stroke="#63b8ff" points="1906.83,-114.5 1916.83,-111 1906.83,-107.5 1906.83,-114.5"/>
</a>
</g>
</g>
<!-- Node29&#45;&gt;Node29 -->
<g id="edge39_Node000029_Node000029" class="edge">
<title>Node29&#45;&gt;Node29</title>
<g id="a_edge39_Node000029_Node000029"><a xlink:title=" ">
<path fill="none" stroke="#63b8ff" d="M863.91,-541.58C849.51,-550.23 859.38,-559.5 893.5,-559.5 916.96,-559.5 928.95,-555.12 929.48,-549.57"/>
<polygon fill="#63b8ff" stroke="#63b8ff" points="932.07,-547.21 923.09,-541.58 926.61,-551.58 932.07,-547.21"/>
</a>
</g>
</g>
<!-- Node33 -->
<g id="Node000033" class="node">
<title>Node33</title>
<g id="a_Node000033"><a xlink:href="../../d8/d7f/classSharedSpiCard.xhtml#adf2ce56ca0a56fe841fbdf75f7f3faee" target="_top" xlink:title=" ">
<polygon fill="white" stroke="#666666" points="775,-332.5 626,-332.5 626,-313.5 775,-313.5 775,-332.5"/>
<text text-anchor="middle" x="700.5" y="-320.5" font-family="Helvetica,sans-Serif" font-size="10.00">SharedSpiCard::writeSector</text>
</a>
</g>
</g>
<!-- Node32&#45;&gt;Node33 -->
<g id="edge44_Node000032_Node000033" class="edge">
<title>Node32&#45;&gt;Node33</title>
<g id="a_edge44_Node000032_Node000033"><a xlink:title=" ">
<path fill="none" stroke="#63b8ff" d="M586.08,-323C595.32,-323 605.42,-323 615.66,-323"/>
<polygon fill="#63b8ff" stroke="#63b8ff" points="615.93,-326.5 625.93,-323 615.93,-319.5 615.93,-326.5"/>
</a>
</g>
</g>
<!-- Node33&#45;&gt;Node5 -->
<g id="edge45_Node000033_Node000005" class="edge">
<title>Node33&#45;&gt;Node5</title>
<g id="a_edge45_Node000033_Node000005"><a xlink:title=" ">
<path fill="none" stroke="#63b8ff" d="M717.46,-313.48C750.74,-293.61 827.78,-247.63 867.63,-223.84"/>
<polygon fill="#63b8ff" stroke="#63b8ff" points="869.66,-226.71 876.46,-218.58 866.07,-220.7 869.66,-226.71"/>
</a>
</g>
</g>
<!-- Node33&#45;&gt;Node6 -->
<g id="edge47_Node000033_Node000006" class="edge">
<title>Node33&#45;&gt;Node6</title>
<g id="a_edge47_Node000033_Node000006"><a xlink:title=" ">
<path fill="none" stroke="#63b8ff" d="M704.09,-313.37C713.21,-281.15 746.83,-175.86 811,-117 908.89,-27.22 953.18,0 1086,0 1086,0 1086,0 1270,0 1391.76,0 1532.17,-38.04 1598.69,-58.43"/>
<polygon fill="#63b8ff" stroke="#63b8ff" points="1597.75,-61.8 1608.34,-61.42 1599.82,-55.12 1597.75,-61.8"/>
</a>
</g>
</g>
<!-- Node33&#45;&gt;Node19 -->
<g id="edge46_Node000033_Node000019" class="edge">
<title>Node33&#45;&gt;Node19</title>
<g id="a_edge46_Node000033_Node000019"><a xlink:title=" ">
<path fill="none" stroke="#63b8ff" d="M738.11,-332.52C836.24,-356.67 1113.09,-415.79 1340,-378 1367,-373.5 1396.31,-363.09 1417.57,-354.45"/>
<polygon fill="#63b8ff" stroke="#63b8ff" points="1419.14,-357.59 1427.02,-350.51 1416.45,-351.12 1419.14,-357.59"/>
</a>
</g>
</g>
<!-- Node33&#45;&gt;Node20 -->
<g id="edge48_Node000033_Node000020" class="edge">
<title>Node33&#45;&gt;Node20</title>
<g id="a_edge48_Node000033_Node000020"><a xlink:title=" ">
<path fill="none" stroke="#63b8ff" d="M775.12,-319.15C917.82,-311.7 1230.57,-295.36 1373.76,-287.88"/>
<polygon fill="#63b8ff" stroke="#63b8ff" points="1373.97,-291.37 1383.77,-287.36 1373.6,-284.38 1373.97,-291.37"/>
</a>
</g>
</g>
<!-- Node33&#45;&gt;Node25 -->
<g id="edge50_Node000033_Node000025" class="edge">
<title>Node33&#45;&gt;Node25</title>
<g id="a_edge50_Node000033_Node000025"><a xlink:title=" ">
<path fill="none" stroke="#63b8ff" d="M706.77,-313.37C720.58,-289.03 760.31,-224.49 811,-190 987,-70.27 1255.26,-86.95 1379.92,-103.1"/>
<polygon fill="#63b8ff" stroke="#63b8ff" points="1379.71,-106.6 1390.09,-104.46 1380.64,-99.67 1379.71,-106.6"/>
</a>
</g>
</g>
<!-- Node33&#45;&gt;Node30 -->
<g id="edge49_Node000033_Node000030" class="edge">
<title>Node33&#45;&gt;Node30</title>
<g id="a_edge49_Node000033_Node000030"><a xlink:title=" ">
<path fill="none" stroke="#63b8ff" d="M713.62,-332.56C733.12,-347.53 773.12,-376.59 811,-394 820.65,-398.43 831.32,-402.27 841.67,-405.5"/>
<polygon fill="#63b8ff" stroke="#63b8ff" points="840.87,-408.91 851.45,-408.41 842.86,-402.2 840.87,-408.91"/>
</a>
</g>
</g>
<!-- Node34 -->
<g id="Node000034" class="node">
<title>Node34</title>
<g id="a_Node000034"><a xlink:href="../../d8/d7f/classSharedSpiCard.xhtml#a5b6d7ad34f56d0d6a6c5059d920499ba" target="_top" xlink:title=" ">
<polygon fill="white" stroke="#666666" points="1340,-350.5 1198,-350.5 1198,-331.5 1340,-331.5 1340,-350.5"/>
<text text-anchor="middle" x="1269" y="-338.5" font-family="Helvetica,sans-Serif" font-size="10.00">SharedSpiCard::writeData</text>
</a>
</g>
</g>
<!-- Node33&#45;&gt;Node34 -->
<g id="edge51_Node000033_Node000034" class="edge">
<title>Node33&#45;&gt;Node34</title>
<g id="a_edge51_Node000033_Node000034"><a xlink:title=" ">
<path fill="none" stroke="#63b8ff" d="M775.27,-325.34C881.77,-328.73 1077.83,-334.96 1187.8,-338.45"/>
<polygon fill="#63b8ff" stroke="#63b8ff" points="1187.74,-341.95 1197.85,-338.77 1187.96,-334.96 1187.74,-341.95"/>
</a>
</g>
</g>
<!-- Node34&#45;&gt;Node19 -->
<g id="edge52_Node000034_Node000019" class="edge">
<title>Node34&#45;&gt;Node19</title>
<g id="a_edge52_Node000034_Node000019"><a xlink:title=" ">
<path fill="none" stroke="#63b8ff" d="M1340.09,-341C1353.22,-341 1366.92,-341 1379.99,-341"/>
<polygon fill="#63b8ff" stroke="#63b8ff" points="1380.3,-344.5 1390.3,-341 1380.3,-337.5 1380.3,-344.5"/>
</a>
</g>
</g>
<!-- Node34&#45;&gt;Node20 -->
<g id="edge53_Node000034_Node000020" class="edge">
<title>Node34&#45;&gt;Node20</title>
<g id="a_edge53_Node000034_Node000020"><a xlink:title=" ">
<path fill="none" stroke="#63b8ff" d="M1299.79,-331.46C1329.57,-321.92 1375.53,-307.21 1408.37,-296.69"/>
<polygon fill="#63b8ff" stroke="#63b8ff" points="1409.65,-299.95 1418.11,-293.57 1407.52,-293.29 1409.65,-299.95"/>
</a>
</g>
</g>
<!-- Node34&#45;&gt;Node25 -->
<g id="edge54_Node000034_Node000025" class="edge">
<title>Node34&#45;&gt;Node25</title>
<g id="a_edge54_Node000034_Node000025"><a xlink:title=" ">
<path fill="none" stroke="#63b8ff" d="M1287.44,-331.37C1303.55,-321.56 1326.91,-304.84 1340,-284 1376.69,-225.57 1327.8,-182.37 1376,-133 1377.27,-131.7 1378.62,-130.48 1380.04,-129.34"/>
<polygon fill="#63b8ff" stroke="#63b8ff" points="1382.3,-132.05 1388.78,-123.67 1378.49,-126.18 1382.3,-132.05"/>
</a>
</g>
</g>
<!-- Node34&#45;&gt;Node34 -->
<g id="edge55_Node000034_Node000034" class="edge">
<title>Node34&#45;&gt;Node34</title>
<g id="a_edge55_Node000034_Node000034"><a xlink:title=" ">
<path fill="none" stroke="#63b8ff" d="M1241.26,-350.58C1227.76,-359.23 1237.01,-368.5 1269,-368.5 1290.49,-368.5 1301.72,-364.32 1302.68,-358.95"/>
<polygon fill="#63b8ff" stroke="#63b8ff" points="1305.39,-356.71 1296.74,-350.58 1299.68,-360.76 1305.39,-356.71"/>
</a>
</g>
</g>
<!-- Node36&#45;&gt;Node35 -->
<g id="edge59_Node000036_Node000035" class="edge">
<title>Node36&#45;&gt;Node35</title>
<g id="a_edge59_Node000036_Node000035"><a xlink:title=" ">
<path fill="none" stroke="#63b8ff" d="M276.91,-233.65C290.98,-240.03 308.85,-249.2 323,-260 341.76,-274.31 339.36,-285.93 359,-299 363.02,-301.68 367.49,-304.02 372.06,-306.04"/>
<polygon fill="#63b8ff" stroke="#63b8ff" points="370.85,-309.33 381.44,-309.77 373.44,-302.82 370.85,-309.33"/>
</a>
</g>
</g>
<!-- Node37 -->
<g id="Node000037" class="node">
<title>Node37</title>
<g id="a_Node000037"><a xlink:href="../../dc/d87/FsStructs_8h.xhtml#a89aef4aa8e8032eab2982d660e7b8a81" target="_top" xlink:title=" ">
<polygon fill="white" stroke="#666666" points="437.5,-252.5 381.5,-252.5 381.5,-233.5 437.5,-233.5 437.5,-252.5"/>
<text text-anchor="middle" x="409.5" y="-240.5" font-family="Helvetica,sans-Serif" font-size="10.00">getLe16</text>
</a>
</g>
</g>
<!-- Node36&#45;&gt;Node37 -->
<g id="edge58_Node000036_Node000037" class="edge">
<title>Node36&#45;&gt;Node37</title>
<g id="a_edge58_Node000036_Node000037"><a xlink:title=" ">
<path fill="none" stroke="#63b8ff" d="M296.68,-229.29C320.03,-232.16 348.59,-235.66 371.01,-238.4"/>
<polygon fill="#63b8ff" stroke="#63b8ff" points="370.8,-241.9 381.15,-239.65 371.65,-234.96 370.8,-241.9"/>
</a>
</g>
</g>
<!-- Node38 -->
<g id="Node000038" class="node">
<title>Node38</title>
<g id="a_Node000038"><a xlink:href="../../dc/d87/FsStructs_8h.xhtml#a25b748b219c3d782e4138208c54e70d9" target="_top" xlink:title=" ">
<polygon fill="white" stroke="#666666" points="437.5,-178.5 381.5,-178.5 381.5,-159.5 437.5,-159.5 437.5,-178.5"/>
<text text-anchor="middle" x="409.5" y="-166.5" font-family="Helvetica,sans-Serif" font-size="10.00">getLe64</text>
</a>
</g>
</g>
<!-- Node36&#45;&gt;Node38 -->
<g id="edge60_Node000036_Node000038" class="edge">
<title>Node36&#45;&gt;Node38</title>
<g id="a_edge60_Node000036_Node000038"><a xlink:title=" ">
<path fill="none" stroke="#63b8ff" d="M280.5,-214.42C305.87,-205.42 344.03,-191.88 372.09,-181.92"/>
<polygon fill="#63b8ff" stroke="#63b8ff" points="373.3,-185.21 381.55,-178.56 370.96,-178.61 373.3,-185.21"/>
</a>
</g>
</g>
<!-- Node39 -->
<g id="Node000039" class="node">
<title>Node39</title>
<g id="a_Node000039"><a xlink:href="../../d2/d2b/ExFatDbg_8cpp.xhtml#a493dd09bc96dd94a426e9aa49e660a9e" target="_top" xlink:title=" ">
<polygon fill="white" stroke="#666666" points="445,-141.5 374,-141.5 374,-122.5 445,-122.5 445,-141.5"/>
<text text-anchor="middle" x="409.5" y="-129.5" font-family="Helvetica,sans-Serif" font-size="10.00">printHex64</text>
</a>
</g>
</g>
<!-- Node36&#45;&gt;Node39 -->
<g id="edge61_Node000036_Node000039" class="edge">
<title>Node36&#45;&gt;Node39</title>
<g id="a_edge61_Node000036_Node000039"><a xlink:title=" ">
<path fill="none" stroke="#63b8ff" d="M264.87,-214.49C283.54,-199.25 322.29,-169.12 359,-150 362.14,-148.37 365.45,-146.82 368.83,-145.36"/>
<polygon fill="#63b8ff" stroke="#63b8ff" points="370.41,-148.5 378.38,-141.52 367.79,-142 370.41,-148.5"/>
</a>
</g>
</g>
<!-- Node40 -->
<g id="Node000040" class="node">
<title>Node40</title>
<g id="a_Node000040"><a xlink:href="../../d2/d2b/ExFatDbg_8cpp.xhtml#ad41fd2acf165b8571304d1690d92ffdb" target="_top" xlink:title=" ">
<polygon fill="white" stroke="#666666" points="439.5,-215.5 379.5,-215.5 379.5,-196.5 439.5,-196.5 439.5,-215.5"/>
<text text-anchor="middle" x="409.5" y="-203.5" font-family="Helvetica,sans-Serif" font-size="10.00">println64</text>
</a>
</g>
</g>
<!-- Node36&#45;&gt;Node40 -->
<g id="edge62_Node000036_Node000040" class="edge">
<title>Node36&#45;&gt;Node40</title>
<g id="a_edge62_Node000036_Node000040"><a xlink:title=" ">
<path fill="none" stroke="#63b8ff" d="M296.68,-218.99C319.41,-216.35 347.08,-213.13 369.21,-210.56"/>
<polygon fill="#63b8ff" stroke="#63b8ff" points="369.74,-214.02 379.27,-209.39 368.93,-207.07 369.74,-214.02"/>
</a>
</g>
</g>
<!-- Node41&#45;&gt;Node35 -->
<g id="edge65_Node000041_Node000035" class="edge">
<title>Node41&#45;&gt;Node35</title>
<g id="a_edge65_Node000041_Node000035"><a xlink:title=" ">
<path fill="none" stroke="#63b8ff" d="M281.57,-285.88C306.71,-292.05 343.76,-301.13 371.35,-307.89"/>
<polygon fill="#63b8ff" stroke="#63b8ff" points="370.87,-311.38 381.42,-310.36 372.54,-304.58 370.87,-311.38"/>
</a>
</g>
</g>
<!-- Node41&#45;&gt;Node37 -->
<g id="edge64_Node000041_Node000037" class="edge">
<title>Node41&#45;&gt;Node37</title>
<g id="a_edge64_Node000041_Node000037"><a xlink:title=" ">
<path fill="none" stroke="#63b8ff" d="M281.57,-272.48C306.71,-266.64 343.76,-258.04 371.35,-251.63"/>
<polygon fill="#63b8ff" stroke="#63b8ff" points="372.47,-254.96 381.42,-249.29 370.89,-248.14 372.47,-254.96"/>
</a>
</g>
</g>
<!-- Node42 -->
<g id="Node000042" class="node">
<title>Node42</title>
<g id="a_Node000042"><a xlink:href="../../d2/d2b/ExFatDbg_8cpp.xhtml#a55d1092a0a775f867ae2addf15861c3a" target="_top" xlink:title=" ">
<polygon fill="white" stroke="#666666" points="439,-289.5 380,-289.5 380,-270.5 439,-270.5 439,-289.5"/>
<text text-anchor="middle" x="409.5" y="-277.5" font-family="Helvetica,sans-Serif" font-size="10.00">printHex</text>
</a>
</g>
</g>
<!-- Node41&#45;&gt;Node42 -->
<g id="edge66_Node000041_Node000042" class="edge">
<title>Node41&#45;&gt;Node42</title>
<g id="a_edge66_Node000041_Node000042"><a xlink:title=" ">
<path fill="none" stroke="#63b8ff" d="M281.57,-279.18C306.25,-279.34 342.4,-279.57 369.81,-279.75"/>
<polygon fill="#63b8ff" stroke="#63b8ff" points="369.83,-283.25 379.85,-279.82 369.88,-276.25 369.83,-283.25"/>
</a>
</g>
</g>
</g>
</svg>
