<?xml version="1.0" encoding="UTF-8" standalone="no"?>
<!DOCTYPE svg PUBLIC "-//W3C//DTD SVG 1.1//EN"
 "http://www.w3.org/Graphics/SVG/1.1/DTD/svg11.dtd">
<!-- Generated by graphviz version 2.43.0 (0)
 -->
<!-- Title: ExFatPartition::isBusy Pages: 1 -->
<svg width="1040pt" height="229pt"
 viewBox="0.00 0.00 1040.00 229.00" xmlns="http://www.w3.org/2000/svg" xmlns:xlink="http://www.w3.org/1999/xlink">
<g id="graph0" class="graph" transform="scale(1 1) rotate(0) translate(4 225)">
<title>ExFatPartition::isBusy</title>
<!-- Node1 -->
<g id="Node000001" class="node">
<title>Node1</title>
<g id="a_Node000001"><a xlink:title=" ">
<polygon fill="#999999" stroke="#666666" points="122,-135.5 0,-135.5 0,-116.5 122,-116.5 122,-135.5"/>
<text text-anchor="middle" x="61" y="-123.5" font-family="Helvetica,sans-Serif" font-size="10.00">ExFatPartition::isBusy</text>
</a>
</g>
</g>
<!-- Node2 -->
<g id="Node000002" class="node">
<title>Node2</title>
<g id="a_Node000002"><a xlink:href="../../d8/d7f/classSharedSpiCard_adffd2b7ebd53250fd96069f9bece875d.xhtml#adffd2b7ebd53250fd96069f9bece875d" target="_top" xlink:title=" ">
<polygon fill="white" stroke="#666666" points="284,-135.5 158,-135.5 158,-116.5 284,-116.5 284,-135.5"/>
<text text-anchor="middle" x="221" y="-123.5" font-family="Helvetica,sans-Serif" font-size="10.00">SharedSpiCard::isBusy</text>
</a>
</g>
</g>
<!-- Node1&#45;&gt;Node2 -->
<g id="edge1_Node000001_Node000002" class="edge">
<title>Node1&#45;&gt;Node2</title>
<g id="a_edge1_Node000001_Node000002"><a xlink:title=" ">
<path fill="none" stroke="#63b8ff" d="M122.18,-126C130.58,-126 139.28,-126 147.87,-126"/>
<polygon fill="#63b8ff" stroke="#63b8ff" points="147.89,-129.5 157.89,-126 147.89,-122.5 147.89,-129.5"/>
</a>
</g>
</g>
<!-- Node3 -->
<g id="Node000003" class="node">
<title>Node3</title>
<g id="a_Node000003"><a xlink:href="../../d8/d7f/classSharedSpiCard_a08363209d938db87521cca6a84146041.xhtml#a08363209d938db87521cca6a84146041" target="_top" xlink:title=" ">
<polygon fill="white" stroke="#666666" points="467,-193.5 320,-193.5 320,-174.5 467,-174.5 467,-193.5"/>
<text text-anchor="middle" x="393.5" y="-181.5" font-family="Helvetica,sans-Serif" font-size="10.00">SharedSpiCard::spiReceive</text>
</a>
</g>
</g>
<!-- Node2&#45;&gt;Node3 -->
<g id="edge2_Node000002_Node000003" class="edge">
<title>Node2&#45;&gt;Node3</title>
<g id="a_edge2_Node000002_Node000003"><a xlink:title=" ">
<path fill="none" stroke="#63b8ff" d="M250.15,-135.58C278.66,-145.27 322.93,-160.33 354.53,-171.08"/>
<polygon fill="#63b8ff" stroke="#63b8ff" points="353.71,-174.5 364.3,-174.41 355.96,-167.87 353.71,-174.5"/>
</a>
</g>
</g>
<!-- Node5 -->
<g id="Node000005" class="node">
<title>Node5</title>
<g id="a_Node000005"><a xlink:href="../../d8/d7f/classSharedSpiCard_aef2dfa72e8d5643c90720f9f8c6a4254.xhtml#aef2dfa72e8d5643c90720f9f8c6a4254" target="_top" xlink:title=" ">
<polygon fill="white" stroke="#666666" points="459,-135.5 328,-135.5 328,-116.5 459,-116.5 459,-135.5"/>
<text text-anchor="middle" x="393.5" y="-123.5" font-family="Helvetica,sans-Serif" font-size="10.00">SharedSpiCard::spiStart</text>
</a>
</g>
</g>
<!-- Node2&#45;&gt;Node5 -->
<g id="edge4_Node000002_Node000005" class="edge">
<title>Node2&#45;&gt;Node5</title>
<g id="a_edge4_Node000002_Node000005"><a xlink:title=" ">
<path fill="none" stroke="#63b8ff" d="M284.04,-126C294.97,-126 306.46,-126 317.7,-126"/>
<polygon fill="#63b8ff" stroke="#63b8ff" points="317.93,-129.5 327.93,-126 317.93,-122.5 317.93,-129.5"/>
</a>
</g>
</g>
<!-- Node14 -->
<g id="Node000014" class="node">
<title>Node14</title>
<g id="a_Node000014"><a xlink:href="../../d8/d7f/classSharedSpiCard_a0f511c39c50055a4fc97e720933aee3a.xhtml#a0f511c39c50055a4fc97e720933aee3a" target="_top" xlink:title=" ">
<polygon fill="white" stroke="#666666" points="458.5,-80.5 328.5,-80.5 328.5,-61.5 458.5,-61.5 458.5,-80.5"/>
<text text-anchor="middle" x="393.5" y="-68.5" font-family="Helvetica,sans-Serif" font-size="10.00">SharedSpiCard::spiStop</text>
</a>
</g>
</g>
<!-- Node2&#45;&gt;Node14 -->
<g id="edge13_Node000002_Node000014" class="edge">
<title>Node2&#45;&gt;Node14</title>
<g id="a_edge13_Node000002_Node000014"><a xlink:title=" ">
<path fill="none" stroke="#63b8ff" d="M251.7,-116.42C279.85,-107.34 322.32,-93.64 353.25,-83.66"/>
<polygon fill="#63b8ff" stroke="#63b8ff" points="354.41,-86.96 362.86,-80.56 352.26,-80.3 354.41,-86.96"/>
</a>
</g>
</g>
<!-- Node4 -->
<g id="Node000004" class="node">
<title>Node4</title>
<g id="a_Node000004"><a xlink:href="../../d0/d25/classSdSpiArduinoDriver_a8d6bc852a52e9d69c4b1e48ee062e8d1.xhtml#a8d6bc852a52e9d69c4b1e48ee062e8d1" target="_top" xlink:title=" ">
<polygon fill="white" stroke="#666666" points="639,-221 528,-221 528,-191 639,-191 639,-221"/>
<text text-anchor="start" x="536" y="-209" font-family="Helvetica,sans-Serif" font-size="10.00">SdSpiArduinoDriver</text>
<text text-anchor="middle" x="583.5" y="-198" font-family="Helvetica,sans-Serif" font-size="10.00">::receive</text>
</a>
</g>
</g>
<!-- Node3&#45;&gt;Node4 -->
<g id="edge3_Node000003_Node000004" class="edge">
<title>Node3&#45;&gt;Node4</title>
<g id="a_edge3_Node000003_Node000004"><a xlink:title=" ">
<path fill="none" stroke="#63b8ff" d="M467.19,-192.51C483.87,-194.46 501.5,-196.52 517.82,-198.43"/>
<polygon fill="#63b8ff" stroke="#63b8ff" points="517.46,-201.91 527.8,-199.6 518.27,-194.96 517.46,-201.91"/>
</a>
</g>
</g>
<!-- Node6 -->
<g id="Node000006" class="node">
<title>Node6</title>
<g id="a_Node000006"><a xlink:href="../../d8/d7f/classSharedSpiCard_a69ee2fe49dfaeea2347d8a265806d2b6.xhtml#a69ee2fe49dfaeea2347d8a265806d2b6" target="_top" xlink:title=" ">
<polygon fill="white" stroke="#666666" points="658,-172.5 509,-172.5 509,-153.5 658,-153.5 658,-172.5"/>
<text text-anchor="middle" x="583.5" y="-160.5" font-family="Helvetica,sans-Serif" font-size="10.00">SharedSpiCard::spiActivate</text>
</a>
</g>
</g>
<!-- Node5&#45;&gt;Node6 -->
<g id="edge5_Node000005_Node000006" class="edge">
<title>Node5&#45;&gt;Node6</title>
<g id="a_edge5_Node000005_Node000006"><a xlink:title=" ">
<path fill="none" stroke="#63b8ff" d="M442.91,-135.53C467.6,-140.39 497.82,-146.33 523.81,-151.45"/>
<polygon fill="#63b8ff" stroke="#63b8ff" points="523.44,-154.94 533.92,-153.44 524.79,-148.07 523.44,-154.94"/>
</a>
</g>
</g>
<!-- Node8 -->
<g id="Node000008" class="node">
<title>Node8</title>
<g id="a_Node000008"><a xlink:href="../../d8/d7f/classSharedSpiCard_a8c3088599862ff6e84ae79bfdf32aea8.xhtml#a8c3088599862ff6e84ae79bfdf32aea8" target="_top" xlink:title=" ">
<polygon fill="white" stroke="#666666" points="652.5,-135.5 514.5,-135.5 514.5,-116.5 652.5,-116.5 652.5,-135.5"/>
<text text-anchor="middle" x="583.5" y="-123.5" font-family="Helvetica,sans-Serif" font-size="10.00">SharedSpiCard::spiSelect</text>
</a>
</g>
</g>
<!-- Node5&#45;&gt;Node8 -->
<g id="edge7_Node000005_Node000008" class="edge">
<title>Node5&#45;&gt;Node8</title>
<g id="a_edge7_Node000005_Node000008"><a xlink:title=" ">
<path fill="none" stroke="#63b8ff" d="M459.2,-126C473.7,-126 489.23,-126 504.21,-126"/>
<polygon fill="#63b8ff" stroke="#63b8ff" points="504.48,-129.5 514.48,-126 504.48,-122.5 504.48,-129.5"/>
</a>
</g>
</g>
<!-- Node12 -->
<g id="Node000012" class="node">
<title>Node12</title>
<g id="a_Node000012"><a xlink:href="../../d8/d7f/classSharedSpiCard_ab311b9ad8a250f06afbe091f7abb118b.xhtml#ab311b9ad8a250f06afbe091f7abb118b" target="_top" xlink:title=" ">
<polygon fill="white" stroke="#666666" points="649.5,-98.5 517.5,-98.5 517.5,-79.5 649.5,-79.5 649.5,-98.5"/>
<text text-anchor="middle" x="583.5" y="-86.5" font-family="Helvetica,sans-Serif" font-size="10.00">SharedSpiCard::spiSend</text>
</a>
</g>
</g>
<!-- Node5&#45;&gt;Node12 -->
<g id="edge11_Node000005_Node000012" class="edge">
<title>Node5&#45;&gt;Node12</title>
<g id="a_edge11_Node000005_Node000012"><a xlink:title=" ">
<path fill="none" stroke="#63b8ff" d="M442.91,-116.47C467.6,-111.61 497.82,-105.67 523.81,-100.55"/>
<polygon fill="#63b8ff" stroke="#63b8ff" points="524.79,-103.93 533.92,-98.56 523.44,-97.06 524.79,-103.93"/>
</a>
</g>
</g>
<!-- Node7 -->
<g id="Node000007" class="node">
<title>Node7</title>
<g id="a_Node000007"><a xlink:href="../../d0/d25/classSdSpiArduinoDriver_abb6b88c5c8b87fc344a69f23f6eab3d9.xhtml#abb6b88c5c8b87fc344a69f23f6eab3d9" target="_top" xlink:title=" ">
<polygon fill="white" stroke="#666666" points="811,-181 700,-181 700,-151 811,-151 811,-181"/>
<text text-anchor="start" x="708" y="-169" font-family="Helvetica,sans-Serif" font-size="10.00">SdSpiArduinoDriver</text>
<text text-anchor="middle" x="755.5" y="-158" font-family="Helvetica,sans-Serif" font-size="10.00">::activate</text>
</a>
</g>
</g>
<!-- Node6&#45;&gt;Node7 -->
<g id="edge6_Node000006_Node000007" class="edge">
<title>Node6&#45;&gt;Node7</title>
<g id="a_edge6_Node000006_Node000007"><a xlink:title=" ">
<path fill="none" stroke="#63b8ff" d="M658.08,-164.3C668.57,-164.48 679.31,-164.67 689.63,-164.86"/>
<polygon fill="#63b8ff" stroke="#63b8ff" points="689.72,-168.36 699.78,-165.03 689.84,-161.36 689.72,-168.36"/>
</a>
</g>
</g>
<!-- Node9 -->
<g id="Node000009" class="node">
<title>Node9</title>
<g id="a_Node000009"><a xlink:href="../../d2/df0/SdSpiChipSelect_8cpp_ac469bbe2d31ffde9b00ffc68258d7428.xhtml#ac469bbe2d31ffde9b00ffc68258d7428" target="_top" xlink:title=" ">
<polygon fill="white" stroke="#666666" points="788.5,-132.5 722.5,-132.5 722.5,-113.5 788.5,-113.5 788.5,-132.5"/>
<text text-anchor="middle" x="755.5" y="-120.5" font-family="Helvetica,sans-Serif" font-size="10.00">sdCsWrite</text>
</a>
</g>
</g>
<!-- Node8&#45;&gt;Node9 -->
<g id="edge8_Node000008_Node000009" class="edge">
<title>Node8&#45;&gt;Node9</title>
<g id="a_edge8_Node000008_Node000009"><a xlink:title=" ">
<path fill="none" stroke="#63b8ff" d="M652.67,-124.8C672.74,-124.44 694.12,-124.07 712.09,-123.75"/>
<polygon fill="#63b8ff" stroke="#63b8ff" points="712.29,-127.25 722.23,-123.57 712.17,-120.25 712.29,-127.25"/>
</a>
</g>
</g>
<!-- Node10 -->
<g id="Node000010" class="node">
<title>Node10</title>
<g id="a_Node000010"><a xlink:href="../../d5/d45/wiring__digital_8c_a73b9b61feeaf7d790d107f2954a7fd93.xhtml#a73b9b61feeaf7d790d107f2954a7fd93" target="_top" xlink:title=" ">
<polygon fill="white" stroke="#666666" points="921,-132.5 847,-132.5 847,-113.5 921,-113.5 921,-132.5"/>
<text text-anchor="middle" x="884" y="-120.5" font-family="Helvetica,sans-Serif" font-size="10.00">digitalWrite</text>
</a>
</g>
</g>
<!-- Node9&#45;&gt;Node10 -->
<g id="edge9_Node000009_Node000010" class="edge">
<title>Node9&#45;&gt;Node10</title>
<g id="a_edge9_Node000009_Node000010"><a xlink:title=" ">
<path fill="none" stroke="#63b8ff" d="M788.75,-123C803.28,-123 820.71,-123 836.61,-123"/>
<polygon fill="#63b8ff" stroke="#63b8ff" points="836.79,-126.5 846.79,-123 836.79,-119.5 836.79,-126.5"/>
</a>
</g>
</g>
<!-- Node11 -->
<g id="Node000011" class="node">
<title>Node11</title>
<g id="a_Node000011"><a xlink:href="../../d5/d45/wiring__digital_8c_ae3d0bcbe4eb927ca8f5d5c21b7e4f224.xhtml#ae3d0bcbe4eb927ca8f5d5c21b7e4f224" target="_top" xlink:title=" ">
<polygon fill="white" stroke="#666666" points="1032,-132.5 957,-132.5 957,-113.5 1032,-113.5 1032,-132.5"/>
<text text-anchor="middle" x="994.5" y="-120.5" font-family="Helvetica,sans-Serif" font-size="10.00">turnOffPWM</text>
</a>
</g>
</g>
<!-- Node10&#45;&gt;Node11 -->
<g id="edge10_Node000010_Node000011" class="edge">
<title>Node10&#45;&gt;Node11</title>
<g id="a_edge10_Node000010_Node000011"><a xlink:title=" ">
<path fill="none" stroke="#63b8ff" d="M921.13,-123C929.28,-123 938.05,-123 946.57,-123"/>
<polygon fill="#63b8ff" stroke="#63b8ff" points="946.79,-126.5 956.79,-123 946.79,-119.5 946.79,-126.5"/>
</a>
</g>
</g>
<!-- Node13 -->
<g id="Node000013" class="node">
<title>Node13</title>
<g id="a_Node000013"><a xlink:href="../../d0/d25/classSdSpiArduinoDriver_a3c4842e47f98fe5d3799cd6028778ab5.xhtml#a3c4842e47f98fe5d3799cd6028778ab5" target="_top" xlink:title=" ">
<polygon fill="white" stroke="#666666" points="811,-95 700,-95 700,-65 811,-65 811,-95"/>
<text text-anchor="start" x="708" y="-83" font-family="Helvetica,sans-Serif" font-size="10.00">SdSpiArduinoDriver</text>
<text text-anchor="middle" x="755.5" y="-72" font-family="Helvetica,sans-Serif" font-size="10.00">::send</text>
</a>
</g>
</g>
<!-- Node12&#45;&gt;Node13 -->
<g id="edge12_Node000012_Node000013" class="edge">
<title>Node12&#45;&gt;Node13</title>
<g id="a_edge12_Node000012_Node000013"><a xlink:title=" ">
<path fill="none" stroke="#63b8ff" d="M649.74,-85.55C662.82,-84.85 676.56,-84.13 689.62,-83.43"/>
<polygon fill="#63b8ff" stroke="#63b8ff" points="690.13,-86.91 699.93,-82.89 689.76,-79.92 690.13,-86.91"/>
</a>
</g>
</g>
<!-- Node14&#45;&gt;Node12 -->
<g id="edge16_Node000014_Node000012" class="edge">
<title>Node14&#45;&gt;Node12</title>
<g id="a_edge16_Node000014_Node000012"><a xlink:title=" ">
<path fill="none" stroke="#63b8ff" d="M458.67,-77.14C474.21,-78.63 490.95,-80.23 506.95,-81.77"/>
<polygon fill="#63b8ff" stroke="#63b8ff" points="507.05,-85.29 517.34,-82.76 507.72,-78.32 507.05,-85.29"/>
</a>
</g>
</g>
<!-- Node15 -->
<g id="Node000015" class="node">
<title>Node15</title>
<g id="a_Node000015"><a xlink:href="../../d8/d7f/classSharedSpiCard_ac6acfca5a23337977d2e4436ab8ab39a.xhtml#ac6acfca5a23337977d2e4436ab8ab39a" target="_top" xlink:title=" ">
<polygon fill="white" stroke="#666666" points="664,-24.5 503,-24.5 503,-5.5 664,-5.5 664,-24.5"/>
<text text-anchor="middle" x="583.5" y="-12.5" font-family="Helvetica,sans-Serif" font-size="10.00">SharedSpiCard::spiDeactivate</text>
</a>
</g>
</g>
<!-- Node14&#45;&gt;Node15 -->
<g id="edge14_Node000014_Node000015" class="edge">
<title>Node14&#45;&gt;Node15</title>
<g id="a_edge14_Node000014_Node000015"><a xlink:title=" ">
<path fill="none" stroke="#63b8ff" d="M419.23,-61.43C441.06,-53.2 473.84,-41.38 503,-33 510.46,-30.86 518.37,-28.81 526.2,-26.91"/>
<polygon fill="#63b8ff" stroke="#63b8ff" points="527.1,-30.29 536.03,-24.58 525.49,-23.48 527.1,-30.29"/>
</a>
</g>
</g>
<!-- Node17 -->
<g id="Node000017" class="node">
<title>Node17</title>
<g id="a_Node000017"><a xlink:href="../../d8/d7f/classSharedSpiCard_ad06a3278372300987b97876cf598c114.xhtml#ad06a3278372300987b97876cf598c114" target="_top" xlink:title=" ">
<polygon fill="white" stroke="#666666" points="659,-61.5 508,-61.5 508,-42.5 659,-42.5 659,-61.5"/>
<text text-anchor="middle" x="583.5" y="-49.5" font-family="Helvetica,sans-Serif" font-size="10.00">SharedSpiCard::spiUnselect</text>
</a>
</g>
</g>
<!-- Node14&#45;&gt;Node17 -->
<g id="edge17_Node000014_Node000017" class="edge">
<title>Node14&#45;&gt;Node17</title>
<g id="a_edge17_Node000014_Node000017"><a xlink:title=" ">
<path fill="none" stroke="#63b8ff" d="M458.67,-64.51C471.3,-63.24 484.73,-61.88 497.92,-60.55"/>
<polygon fill="#63b8ff" stroke="#63b8ff" points="498.33,-64.02 507.93,-59.54 497.63,-57.06 498.33,-64.02"/>
</a>
</g>
</g>
<!-- Node16 -->
<g id="Node000016" class="node">
<title>Node16</title>
<g id="a_Node000016"><a xlink:href="../../d0/d25/classSdSpiArduinoDriver_ae88a255f533e3acb41d1221025a69b55.xhtml#ae88a255f533e3acb41d1221025a69b55" target="_top" xlink:title=" ">
<polygon fill="white" stroke="#666666" points="811,-30 700,-30 700,0 811,0 811,-30"/>
<text text-anchor="start" x="708" y="-18" font-family="Helvetica,sans-Serif" font-size="10.00">SdSpiArduinoDriver</text>
<text text-anchor="middle" x="755.5" y="-7" font-family="Helvetica,sans-Serif" font-size="10.00">::deactivate</text>
</a>
</g>
</g>
<!-- Node15&#45;&gt;Node16 -->
<g id="edge15_Node000015_Node000016" class="edge">
<title>Node15&#45;&gt;Node16</title>
<g id="a_edge15_Node000015_Node000016"><a xlink:title=" ">
<path fill="none" stroke="#63b8ff" d="M664.02,-15C672.63,-15 681.3,-15 689.7,-15"/>
<polygon fill="#63b8ff" stroke="#63b8ff" points="689.78,-18.5 699.78,-15 689.78,-11.5 689.78,-18.5"/>
</a>
</g>
</g>
<!-- Node17&#45;&gt;Node9 -->
<g id="edge18_Node000017_Node000009" class="edge">
<title>Node17&#45;&gt;Node9</title>
<g id="a_edge18_Node000017_Node000009"><a xlink:title=" ">
<path fill="none" stroke="#63b8ff" d="M640.56,-61.59C648.68,-64.05 656.73,-67.14 664,-71 683.17,-81.18 681.37,-92.86 700,-104 704.09,-106.44 708.53,-108.63 713.06,-110.58"/>
<polygon fill="#63b8ff" stroke="#63b8ff" points="711.81,-113.85 722.4,-114.24 714.36,-107.33 711.81,-113.85"/>
</a>
</g>
</g>
</g>
</svg>
