<?xml version="1.0" encoding="UTF-8" standalone="no"?>
<!DOCTYPE svg PUBLIC "-//W3C//DTD SVG 1.1//EN"
 "http://www.w3.org/Graphics/SVG/1.1/DTD/svg11.dtd">
<!-- Generated by graphviz version 2.43.0 (0)
 -->
<!-- Title: ExFatPartition::printFat Pages: 1 -->
<svg width="2231pt" height="568pt"
 viewBox="0.00 0.00 2231.00 567.50" xmlns="http://www.w3.org/2000/svg" xmlns:xlink="http://www.w3.org/1999/xlink">
<g id="graph0" class="graph" transform="scale(1 1) rotate(0) translate(4 563.5)">
<title>ExFatPartition::printFat</title>
<!-- Node1 -->
<g id="Node000001" class="node">
<title>Node1</title>
<g id="a_Node000001"><a xlink:title=" ">
<polygon fill="#999999" stroke="#666666" points="126,-374.5 0,-374.5 0,-355.5 126,-355.5 126,-374.5"/>
<text text-anchor="middle" x="63" y="-362.5" font-family="Helvetica,sans-Serif" font-size="10.00">ExFatPartition::printFat</text>
</a>
</g>
</g>
<!-- Node2 -->
<g id="Node000002" class="node">
<title>Node2</title>
<g id="a_Node000002"><a xlink:href="../../d0/d63/classExFatPartition.xhtml#a0ab58594882246621e1601aafc6190fb" target="_top" xlink:title=" ">
<polygon fill="white" stroke="#666666" points="282,-374.5 162,-374.5 162,-355.5 282,-355.5 282,-374.5"/>
<text text-anchor="middle" x="222" y="-362.5" font-family="Helvetica,sans-Serif" font-size="10.00">ExFatPartition::fatGet</text>
</a>
</g>
</g>
<!-- Node1&#45;&gt;Node2 -->
<g id="edge1_Node000001_Node000002" class="edge">
<title>Node1&#45;&gt;Node2</title>
<g id="a_edge1_Node000001_Node000002"><a xlink:title=" ">
<path fill="none" stroke="#63b8ff" d="M126.05,-365C134.55,-365 143.32,-365 151.94,-365"/>
<polygon fill="#63b8ff" stroke="#63b8ff" points="151.96,-368.5 161.96,-365 151.96,-361.5 151.96,-368.5"/>
</a>
</g>
</g>
<!-- Node3 -->
<g id="Node000003" class="node">
<title>Node3</title>
<g id="a_Node000003"><a xlink:href="../../d0/d63/classExFatPartition.xhtml#a236e1ae2dfd3e7acc8dfa0cbf4658453" target="_top" xlink:title=" ">
<polygon fill="white" stroke="#666666" points="459,-402 318,-402 318,-372 459,-372 459,-402"/>
<text text-anchor="start" x="326" y="-390" font-family="Helvetica,sans-Serif" font-size="10.00">ExFatPartition::dataCache</text>
<text text-anchor="middle" x="388.5" y="-379" font-family="Helvetica,sans-Serif" font-size="10.00">Prepare</text>
</a>
</g>
</g>
<!-- Node2&#45;&gt;Node3 -->
<g id="edge2_Node000002_Node000003" class="edge">
<title>Node2&#45;&gt;Node3</title>
<g id="a_edge2_Node000002_Node000003"><a xlink:title=" ">
<path fill="none" stroke="#63b8ff" d="M282.39,-372.94C290.66,-374.05 299.26,-375.2 307.83,-376.34"/>
<polygon fill="#63b8ff" stroke="#63b8ff" points="307.47,-379.83 317.84,-377.68 308.39,-372.89 307.47,-379.83"/>
</a>
</g>
</g>
<!-- Node36 -->
<g id="Node000036" class="node">
<title>Node36</title>
<g id="a_Node000036"><a xlink:href="../../dc/d87/FsStructs_8h.xhtml#a07fdcae728ab56cd53f71c6c17b1889c" target="_top" xlink:title=" ">
<polygon fill="white" stroke="#666666" points="416.5,-353.5 360.5,-353.5 360.5,-334.5 416.5,-334.5 416.5,-353.5"/>
<text text-anchor="middle" x="388.5" y="-341.5" font-family="Helvetica,sans-Serif" font-size="10.00">getLe32</text>
</a>
</g>
</g>
<!-- Node2&#45;&gt;Node36 -->
<g id="edge57_Node000002_Node000036" class="edge">
<title>Node2&#45;&gt;Node36</title>
<g id="a_edge57_Node000002_Node000036"><a xlink:title=" ">
<path fill="none" stroke="#63b8ff" d="M282.39,-357.42C305.12,-354.52 330.37,-351.29 350.43,-348.73"/>
<polygon fill="#63b8ff" stroke="#63b8ff" points="350.93,-352.2 360.41,-347.46 350.04,-345.25 350.93,-352.2"/>
</a>
</g>
</g>
<!-- Node4 -->
<g id="Node000004" class="node">
<title>Node4</title>
<g id="a_Node000004"><a xlink:href="../../dd/db1/classFsCache.xhtml#a8c11f064a2ce0a380f522392f09d63cb" target="_top" xlink:title=" ">
<polygon fill="white" stroke="#666666" points="596,-396.5 495,-396.5 495,-377.5 596,-377.5 596,-396.5"/>
<text text-anchor="middle" x="545.5" y="-384.5" font-family="Helvetica,sans-Serif" font-size="10.00">FsCache::prepare</text>
</a>
</g>
</g>
<!-- Node3&#45;&gt;Node4 -->
<g id="edge3_Node000003_Node000004" class="edge">
<title>Node3&#45;&gt;Node4</title>
<g id="a_edge3_Node000003_Node000004"><a xlink:title=" ">
<path fill="none" stroke="#63b8ff" d="M459.29,-387C467.65,-387 476.14,-387 484.35,-387"/>
<polygon fill="#63b8ff" stroke="#63b8ff" points="484.57,-390.5 494.57,-387 484.57,-383.5 484.57,-390.5"/>
</a>
</g>
</g>
<!-- Node5 -->
<g id="Node000005" class="node">
<title>Node5</title>
<g id="a_Node000005"><a xlink:href="../../d8/d7f/classSharedSpiCard.xhtml#a61d86f4092f8ddbc7339d7cbcf6f70c0" target="_top" xlink:title=" ">
<polygon fill="white" stroke="#666666" points="909.5,-446.5 763.5,-446.5 763.5,-427.5 909.5,-427.5 909.5,-446.5"/>
<text text-anchor="middle" x="836.5" y="-434.5" font-family="Helvetica,sans-Serif" font-size="10.00">SharedSpiCard::readSector</text>
</a>
</g>
</g>
<!-- Node4&#45;&gt;Node5 -->
<g id="edge4_Node000004_Node000005" class="edge">
<title>Node4&#45;&gt;Node5</title>
<g id="a_edge4_Node000004_Node000005"><a xlink:title=" ">
<path fill="none" stroke="#63b8ff" d="M586.83,-396.55C601.06,-399.76 617.2,-403.23 632,-406 672.3,-413.54 717.34,-420.54 754.79,-425.98"/>
<polygon fill="#63b8ff" stroke="#63b8ff" points="754.74,-429.51 765.14,-427.47 755.74,-422.58 754.74,-429.51"/>
</a>
</g>
</g>
<!-- Node32 -->
<g id="Node000032" class="node">
<title>Node32</title>
<g id="a_Node000032"><a xlink:href="../../dd/db1/classFsCache.xhtml#a5b90e145400de8687d9f34536b134130" target="_top" xlink:title=" ">
<polygon fill="white" stroke="#666666" points="726,-396.5 632,-396.5 632,-377.5 726,-377.5 726,-396.5"/>
<text text-anchor="middle" x="679" y="-384.5" font-family="Helvetica,sans-Serif" font-size="10.00">FsCache::sector</text>
</a>
</g>
</g>
<!-- Node4&#45;&gt;Node32 -->
<g id="edge43_Node000004_Node000032" class="edge">
<title>Node4&#45;&gt;Node32</title>
<g id="a_edge43_Node000004_Node000032"><a xlink:title=" ">
<path fill="none" stroke="#63b8ff" d="M596.21,-387C604.49,-387 613.12,-387 621.55,-387"/>
<polygon fill="#63b8ff" stroke="#63b8ff" points="621.68,-390.5 631.68,-387 621.68,-383.5 621.68,-390.5"/>
</a>
</g>
</g>
<!-- Node33 -->
<g id="Node000033" class="node">
<title>Node33</title>
<g id="a_Node000033"><a xlink:href="../../dd/db1/classFsCache.xhtml#a5a2c8fb432d7b7590ebb43200ca21893" target="_top" xlink:title=" ">
<polygon fill="white" stroke="#666666" points="722,-340.5 636,-340.5 636,-321.5 722,-321.5 722,-340.5"/>
<text text-anchor="middle" x="679" y="-328.5" font-family="Helvetica,sans-Serif" font-size="10.00">FsCache::sync</text>
</a>
</g>
</g>
<!-- Node4&#45;&gt;Node33 -->
<g id="edge44_Node000004_Node000033" class="edge">
<title>Node4&#45;&gt;Node33</title>
<g id="a_edge44_Node000004_Node000033"><a xlink:title=" ">
<path fill="none" stroke="#63b8ff" d="M569.11,-377.37C590.4,-368.3 622.52,-354.63 646.36,-344.48"/>
<polygon fill="#63b8ff" stroke="#63b8ff" points="647.86,-347.64 655.69,-340.5 645.12,-341.2 647.86,-347.64"/>
</a>
</g>
</g>
<!-- Node6 -->
<g id="Node000006" class="node">
<title>Node6</title>
<g id="a_Node000006"><a xlink:href="../../d8/d7f/classSharedSpiCard.xhtml#adda33199753fc2aec74fe317cbaabc06" target="_top" xlink:title=" ">
<polygon fill="white" stroke="#666666" points="1112,-218.5 947,-218.5 947,-199.5 1112,-199.5 1112,-218.5"/>
<text text-anchor="middle" x="1029.5" y="-206.5" font-family="Helvetica,sans-Serif" font-size="10.00">SharedSpiCard::cardCommand</text>
</a>
</g>
</g>
<!-- Node5&#45;&gt;Node6 -->
<g id="edge5_Node000005_Node000006" class="edge">
<title>Node5&#45;&gt;Node6</title>
<g id="a_edge5_Node000005_Node000006"><a xlink:title=" ">
<path fill="none" stroke="#63b8ff" d="M845.46,-427.49C874.65,-392.66 976.01,-271.66 1013.99,-226.33"/>
<polygon fill="#63b8ff" stroke="#63b8ff" points="1016.76,-228.46 1020.5,-218.55 1011.4,-223.97 1016.76,-228.46"/>
</a>
</g>
</g>
<!-- Node20 -->
<g id="Node000020" class="node">
<title>Node20</title>
<g id="a_Node000020"><a xlink:href="../../d8/d7f/classSharedSpiCard.xhtml#a747c3f0b962098cf0c097f3c4c2b4fd4" target="_top" xlink:title=" ">
<polygon fill="white" stroke="#666666" points="1643.5,-350.5 1526.5,-350.5 1526.5,-331.5 1643.5,-331.5 1643.5,-350.5"/>
<text text-anchor="middle" x="1585" y="-338.5" font-family="Helvetica,sans-Serif" font-size="10.00">SharedSpiCard::error</text>
</a>
</g>
</g>
<!-- Node5&#45;&gt;Node20 -->
<g id="edge38_Node000005_Node000020" class="edge">
<title>Node5&#45;&gt;Node20</title>
<g id="a_edge38_Node000005_Node000020"><a xlink:title=" ">
<path fill="none" stroke="#63b8ff" d="M863.48,-446.6C953.56,-478.21 1258.76,-571.45 1476,-470 1525,-447.12 1559.62,-389.85 1575.03,-359.91"/>
<polygon fill="#63b8ff" stroke="#63b8ff" points="1578.36,-361.07 1579.67,-350.56 1572.09,-357.96 1578.36,-361.07"/>
</a>
</g>
</g>
<!-- Node21 -->
<g id="Node000021" class="node">
<title>Node21</title>
<g id="a_Node000021"><a xlink:href="../../d8/d7f/classSharedSpiCard.xhtml#a0f511c39c50055a4fc97e720933aee3a" target="_top" xlink:title=" ">
<polygon fill="white" stroke="#666666" points="1650,-293.5 1520,-293.5 1520,-274.5 1650,-274.5 1650,-293.5"/>
<text text-anchor="middle" x="1585" y="-281.5" font-family="Helvetica,sans-Serif" font-size="10.00">SharedSpiCard::spiStop</text>
</a>
</g>
</g>
<!-- Node5&#45;&gt;Node21 -->
<g id="edge41_Node000005_Node000021" class="edge">
<title>Node5&#45;&gt;Node21</title>
<g id="a_edge41_Node000005_Node000021"><a xlink:title=" ">
<path fill="none" stroke="#63b8ff" d="M885.15,-446.51C998.18,-466.32 1287.17,-500.63 1476,-378 1500.5,-362.09 1490.5,-342.78 1512,-323 1523.11,-312.78 1537.4,-304.32 1550.31,-297.93"/>
<polygon fill="#63b8ff" stroke="#63b8ff" points="1551.85,-301.07 1559.41,-293.64 1548.87,-294.74 1551.85,-301.07"/>
</a>
</g>
</g>
<!-- Node30 -->
<g id="Node000030" class="node">
<title>Node30</title>
<g id="a_Node000030"><a xlink:href="../../d8/d7f/classSharedSpiCard.xhtml#abeae3cdc162f24c2d450abe4e1ed8340" target="_top" xlink:title=" ">
<polygon fill="white" stroke="#666666" points="1099,-541.5 960,-541.5 960,-522.5 1099,-522.5 1099,-541.5"/>
<text text-anchor="middle" x="1029.5" y="-529.5" font-family="Helvetica,sans-Serif" font-size="10.00">SharedSpiCard::readData</text>
</a>
</g>
</g>
<!-- Node5&#45;&gt;Node30 -->
<g id="edge39_Node000005_Node000030" class="edge">
<title>Node5&#45;&gt;Node30</title>
<g id="a_edge39_Node000005_Node000030"><a xlink:title=" ">
<path fill="none" stroke="#63b8ff" d="M849.62,-446.56C869.12,-461.53 909.12,-490.59 947,-508 956.65,-512.43 967.32,-516.27 977.67,-519.5"/>
<polygon fill="#63b8ff" stroke="#63b8ff" points="976.87,-522.91 987.45,-522.41 978.86,-516.2 976.87,-522.91"/>
</a>
</g>
</g>
<!-- Node31 -->
<g id="Node000031" class="node">
<title>Node31</title>
<g id="a_Node000031"><a xlink:href="../../d8/d7f/classSharedSpiCard.xhtml#a7dac2190763d7b4b72163ed7131e8a87" target="_top" xlink:title=" ">
<polygon fill="white" stroke="#666666" points="1087.5,-427.5 971.5,-427.5 971.5,-408.5 1087.5,-408.5 1087.5,-427.5"/>
<text text-anchor="middle" x="1029.5" y="-415.5" font-family="Helvetica,sans-Serif" font-size="10.00">SharedSpiCard::type</text>
</a>
</g>
</g>
<!-- Node5&#45;&gt;Node31 -->
<g id="edge42_Node000005_Node000031" class="edge">
<title>Node5&#45;&gt;Node31</title>
<g id="a_edge42_Node000005_Node000031"><a xlink:title=" ">
<path fill="none" stroke="#63b8ff" d="M909.71,-429.82C926.59,-428.14 944.51,-426.35 961.17,-424.7"/>
<polygon fill="#63b8ff" stroke="#63b8ff" points="961.76,-428.16 971.37,-423.68 961.07,-421.19 961.76,-428.16"/>
</a>
</g>
</g>
<!-- Node7 -->
<g id="Node000007" class="node">
<title>Node7</title>
<g id="a_Node000007"><a xlink:href="../../d8/d7f/classSharedSpiCard.xhtml#a08363209d938db87521cca6a84146041" target="_top" xlink:title=" ">
<polygon fill="white" stroke="#666666" points="1848,-79.5 1701,-79.5 1701,-60.5 1848,-60.5 1848,-79.5"/>
<text text-anchor="middle" x="1774.5" y="-67.5" font-family="Helvetica,sans-Serif" font-size="10.00">SharedSpiCard::spiReceive</text>
</a>
</g>
</g>
<!-- Node6&#45;&gt;Node7 -->
<g id="edge6_Node000006_Node000007" class="edge">
<title>Node6&#45;&gt;Node7</title>
<g id="a_edge6_Node000006_Node000007"><a xlink:title=" ">
<path fill="none" stroke="#63b8ff" d="M1039.76,-199.34C1058.27,-180.72 1102.07,-140.19 1148,-123 1332.4,-53.97 1568.07,-55.98 1690.8,-63.14"/>
<polygon fill="#63b8ff" stroke="#63b8ff" points="1690.68,-66.64 1700.87,-63.75 1691.11,-59.65 1690.68,-66.64"/>
</a>
</g>
</g>
<!-- Node9 -->
<g id="Node000009" class="node">
<title>Node9</title>
<g id="a_Node000009"><a xlink:href="../../d8/d7f/classSharedSpiCard.xhtml#ab311b9ad8a250f06afbe091f7abb118b" target="_top" xlink:title=" ">
<polygon fill="white" stroke="#666666" points="1840.5,-236.5 1708.5,-236.5 1708.5,-217.5 1840.5,-217.5 1840.5,-236.5"/>
<text text-anchor="middle" x="1774.5" y="-224.5" font-family="Helvetica,sans-Serif" font-size="10.00">SharedSpiCard::spiSend</text>
</a>
</g>
</g>
<!-- Node6&#45;&gt;Node9 -->
<g id="edge8_Node000006_Node000009" class="edge">
<title>Node6&#45;&gt;Node9</title>
<g id="a_edge8_Node000006_Node000009"><a xlink:title=" ">
<path fill="none" stroke="#63b8ff" d="M1112.22,-207.84C1201.59,-206.89 1349.02,-206.23 1476,-210 1551.65,-212.24 1637.98,-217.47 1698.09,-221.55"/>
<polygon fill="#63b8ff" stroke="#63b8ff" points="1698.04,-225.05 1708.25,-222.24 1698.52,-218.07 1698.04,-225.05"/>
</a>
</g>
</g>
<!-- Node11 -->
<g id="Node000011" class="node">
<title>Node11</title>
<g id="a_Node000011"><a xlink:href="../../d8/d7f/classSharedSpiCard.xhtml#aef2dfa72e8d5643c90720f9f8c6a4254" target="_top" xlink:title=" ">
<polygon fill="white" stroke="#666666" points="1650.5,-161.5 1519.5,-161.5 1519.5,-142.5 1650.5,-142.5 1650.5,-161.5"/>
<text text-anchor="middle" x="1585" y="-149.5" font-family="Helvetica,sans-Serif" font-size="10.00">SharedSpiCard::spiStart</text>
</a>
</g>
</g>
<!-- Node6&#45;&gt;Node11 -->
<g id="edge10_Node000006_Node000011" class="edge">
<title>Node6&#45;&gt;Node11</title>
<g id="a_edge10_Node000006_Node000011"><a xlink:title=" ">
<path fill="none" stroke="#63b8ff" d="M1058.13,-199.39C1081.69,-191.64 1116.65,-181.2 1148,-176 1273.53,-155.18 1421.89,-151.34 1509.17,-151.17"/>
<polygon fill="#63b8ff" stroke="#63b8ff" points="1509.25,-154.67 1519.25,-151.17 1509.25,-147.67 1509.25,-154.67"/>
</a>
</g>
</g>
<!-- Node18 -->
<g id="Node000018" class="node">
<title>Node18</title>
<g id="a_Node000018"><a xlink:href="../../d8/d7f/classSharedSpiCard.xhtml#a2f181b3d6f27413a0f5ee883dfd94d87" target="_top" xlink:title=" ">
<polygon fill="white" stroke="#666666" points="1298,-237.5 1148,-237.5 1148,-218.5 1298,-218.5 1298,-237.5"/>
<text text-anchor="middle" x="1223" y="-225.5" font-family="Helvetica,sans-Serif" font-size="10.00">SharedSpiCard::syncDevice</text>
</a>
</g>
</g>
<!-- Node6&#45;&gt;Node18 -->
<g id="edge18_Node000006_Node000018" class="edge">
<title>Node6&#45;&gt;Node18</title>
<g id="a_edge18_Node000006_Node000018"><a xlink:title=" ">
<path fill="none" stroke="#63b8ff" d="M1112.27,-217.11C1120.65,-217.94 1129.18,-218.79 1137.59,-219.63"/>
<polygon fill="#63b8ff" stroke="#63b8ff" points="1137.48,-223.13 1147.78,-220.64 1138.17,-216.17 1137.48,-223.13"/>
</a>
</g>
</g>
<!-- Node26 -->
<g id="Node000026" class="node">
<title>Node26</title>
<g id="a_Node000026"><a xlink:href="../../d8/d7f/classSharedSpiCard.xhtml#ab3468397bb3b12d29dd2f31e45b3dcaf" target="_top" xlink:title=" ">
<polygon fill="white" stroke="#666666" points="1658,-123.5 1512,-123.5 1512,-104.5 1658,-104.5 1658,-123.5"/>
<text text-anchor="middle" x="1585" y="-111.5" font-family="Helvetica,sans-Serif" font-size="10.00">SharedSpiCard::waitReady</text>
</a>
</g>
</g>
<!-- Node6&#45;&gt;Node26 -->
<g id="edge37_Node000006_Node000026" class="edge">
<title>Node6&#45;&gt;Node26</title>
<g id="a_edge37_Node000006_Node000026"><a xlink:title=" ">
<path fill="none" stroke="#63b8ff" d="M1046.57,-199.48C1068.61,-186.93 1109.84,-165.24 1148,-155 1268.2,-122.73 1412.94,-114.97 1501.7,-113.56"/>
<polygon fill="#63b8ff" stroke="#63b8ff" points="1501.76,-117.06 1511.71,-113.43 1501.66,-110.06 1501.76,-117.06"/>
</a>
</g>
</g>
<!-- Node8 -->
<g id="Node000008" class="node">
<title>Node8</title>
<g id="a_Node000008"><a xlink:href="../../d0/d25/classSdSpiArduinoDriver.xhtml#a8d6bc852a52e9d69c4b1e48ee062e8d1" target="_top" xlink:title=" ">
<polygon fill="white" stroke="#666666" points="2002,-83 1891,-83 1891,-53 2002,-53 2002,-83"/>
<text text-anchor="start" x="1899" y="-71" font-family="Helvetica,sans-Serif" font-size="10.00">SdSpiArduinoDriver</text>
<text text-anchor="middle" x="1946.5" y="-60" font-family="Helvetica,sans-Serif" font-size="10.00">::receive</text>
</a>
</g>
</g>
<!-- Node7&#45;&gt;Node8 -->
<g id="edge7_Node000007_Node000008" class="edge">
<title>Node7&#45;&gt;Node8</title>
<g id="a_edge7_Node000007_Node000008"><a xlink:title=" ">
<path fill="none" stroke="#63b8ff" d="M1848.09,-69.15C1858.96,-69.02 1870.11,-68.89 1880.81,-68.76"/>
<polygon fill="#63b8ff" stroke="#63b8ff" points="1880.94,-72.26 1890.9,-68.64 1880.86,-65.26 1880.94,-72.26"/>
</a>
</g>
</g>
<!-- Node10 -->
<g id="Node000010" class="node">
<title>Node10</title>
<g id="a_Node000010"><a xlink:href="../../d0/d25/classSdSpiArduinoDriver.xhtml#a3c4842e47f98fe5d3799cd6028778ab5" target="_top" xlink:title=" ">
<polygon fill="white" stroke="#666666" points="2002,-255 1891,-255 1891,-225 2002,-225 2002,-255"/>
<text text-anchor="start" x="1899" y="-243" font-family="Helvetica,sans-Serif" font-size="10.00">SdSpiArduinoDriver</text>
<text text-anchor="middle" x="1946.5" y="-232" font-family="Helvetica,sans-Serif" font-size="10.00">::send</text>
</a>
</g>
</g>
<!-- Node9&#45;&gt;Node10 -->
<g id="edge9_Node000009_Node000010" class="edge">
<title>Node9&#45;&gt;Node10</title>
<g id="a_edge9_Node000009_Node000010"><a xlink:title=" ">
<path fill="none" stroke="#63b8ff" d="M1840.74,-231.99C1853.82,-232.99 1867.56,-234.04 1880.62,-235.04"/>
<polygon fill="#63b8ff" stroke="#63b8ff" points="1880.69,-238.55 1890.93,-235.83 1881.22,-231.57 1880.69,-238.55"/>
</a>
</g>
</g>
<!-- Node11&#45;&gt;Node9 -->
<g id="edge17_Node000011_Node000009" class="edge">
<title>Node11&#45;&gt;Node9</title>
<g id="a_edge17_Node000011_Node000009"><a xlink:title=" ">
<path fill="none" stroke="#63b8ff" d="M1624.67,-161.6C1635.85,-165.23 1647.78,-169.99 1658,-176 1676.71,-187.01 1674.77,-198.93 1694,-209 1697.57,-210.87 1701.32,-212.54 1705.18,-214.04"/>
<polygon fill="#63b8ff" stroke="#63b8ff" points="1704.33,-217.45 1714.93,-217.43 1706.63,-210.84 1704.33,-217.45"/>
</a>
</g>
</g>
<!-- Node12 -->
<g id="Node000012" class="node">
<title>Node12</title>
<g id="a_Node000012"><a xlink:href="../../d8/d7f/classSharedSpiCard.xhtml#a69ee2fe49dfaeea2347d8a265806d2b6" target="_top" xlink:title=" ">
<polygon fill="white" stroke="#666666" points="1849,-161.5 1700,-161.5 1700,-142.5 1849,-142.5 1849,-161.5"/>
<text text-anchor="middle" x="1774.5" y="-149.5" font-family="Helvetica,sans-Serif" font-size="10.00">SharedSpiCard::spiActivate</text>
</a>
</g>
</g>
<!-- Node11&#45;&gt;Node12 -->
<g id="edge11_Node000011_Node000012" class="edge">
<title>Node11&#45;&gt;Node12</title>
<g id="a_edge11_Node000011_Node000012"><a xlink:title=" ">
<path fill="none" stroke="#63b8ff" d="M1650.53,-152C1663.19,-152 1676.64,-152 1689.82,-152"/>
<polygon fill="#63b8ff" stroke="#63b8ff" points="1689.84,-155.5 1699.84,-152 1689.84,-148.5 1689.84,-155.5"/>
</a>
</g>
</g>
<!-- Node14 -->
<g id="Node000014" class="node">
<title>Node14</title>
<g id="a_Node000014"><a xlink:href="../../d8/d7f/classSharedSpiCard.xhtml#a8c3088599862ff6e84ae79bfdf32aea8" target="_top" xlink:title=" ">
<polygon fill="white" stroke="#666666" points="1843.5,-199.5 1705.5,-199.5 1705.5,-180.5 1843.5,-180.5 1843.5,-199.5"/>
<text text-anchor="middle" x="1774.5" y="-187.5" font-family="Helvetica,sans-Serif" font-size="10.00">SharedSpiCard::spiSelect</text>
</a>
</g>
</g>
<!-- Node11&#45;&gt;Node14 -->
<g id="edge13_Node000011_Node000014" class="edge">
<title>Node11&#45;&gt;Node14</title>
<g id="a_edge13_Node000011_Node000014"><a xlink:title=" ">
<path fill="none" stroke="#63b8ff" d="M1633.31,-161.59C1658.61,-166.72 1689.95,-173.07 1716.57,-178.46"/>
<polygon fill="#63b8ff" stroke="#63b8ff" points="1716.03,-181.92 1726.53,-180.48 1717.42,-175.06 1716.03,-181.92"/>
</a>
</g>
</g>
<!-- Node13 -->
<g id="Node000013" class="node">
<title>Node13</title>
<g id="a_Node000013"><a xlink:href="../../d0/d25/classSdSpiArduinoDriver.xhtml#abb6b88c5c8b87fc344a69f23f6eab3d9" target="_top" xlink:title=" ">
<polygon fill="white" stroke="#666666" points="2002,-169 1891,-169 1891,-139 2002,-139 2002,-169"/>
<text text-anchor="start" x="1899" y="-157" font-family="Helvetica,sans-Serif" font-size="10.00">SdSpiArduinoDriver</text>
<text text-anchor="middle" x="1946.5" y="-146" font-family="Helvetica,sans-Serif" font-size="10.00">::activate</text>
</a>
</g>
</g>
<!-- Node12&#45;&gt;Node13 -->
<g id="edge12_Node000012_Node000013" class="edge">
<title>Node12&#45;&gt;Node13</title>
<g id="a_edge12_Node000012_Node000013"><a xlink:title=" ">
<path fill="none" stroke="#63b8ff" d="M1849.08,-152.87C1859.57,-152.99 1870.31,-153.12 1880.63,-153.24"/>
<polygon fill="#63b8ff" stroke="#63b8ff" points="1880.74,-156.74 1890.78,-153.36 1880.82,-149.74 1880.74,-156.74"/>
</a>
</g>
</g>
<!-- Node15 -->
<g id="Node000015" class="node">
<title>Node15</title>
<g id="a_Node000015"><a xlink:href="../../d2/df0/SdSpiChipSelect_8cpp.xhtml#ac469bbe2d31ffde9b00ffc68258d7428" target="_top" xlink:title=" ">
<polygon fill="white" stroke="#666666" points="1979.5,-206.5 1913.5,-206.5 1913.5,-187.5 1979.5,-187.5 1979.5,-206.5"/>
<text text-anchor="middle" x="1946.5" y="-194.5" font-family="Helvetica,sans-Serif" font-size="10.00">sdCsWrite</text>
</a>
</g>
</g>
<!-- Node14&#45;&gt;Node15 -->
<g id="edge14_Node000014_Node000015" class="edge">
<title>Node14&#45;&gt;Node15</title>
<g id="a_edge14_Node000014_Node000015"><a xlink:title=" ">
<path fill="none" stroke="#63b8ff" d="M1843.67,-192.81C1863.74,-193.63 1885.12,-194.51 1903.09,-195.25"/>
<polygon fill="#63b8ff" stroke="#63b8ff" points="1903.1,-198.76 1913.23,-195.67 1903.38,-191.76 1903.1,-198.76"/>
</a>
</g>
</g>
<!-- Node16 -->
<g id="Node000016" class="node">
<title>Node16</title>
<g id="a_Node000016"><a xlink:href="../../d5/d45/wiring__digital_8c.xhtml#a73b9b61feeaf7d790d107f2954a7fd93" target="_top" xlink:title=" ">
<polygon fill="white" stroke="#666666" points="2112,-206.5 2038,-206.5 2038,-187.5 2112,-187.5 2112,-206.5"/>
<text text-anchor="middle" x="2075" y="-194.5" font-family="Helvetica,sans-Serif" font-size="10.00">digitalWrite</text>
</a>
</g>
</g>
<!-- Node15&#45;&gt;Node16 -->
<g id="edge15_Node000015_Node000016" class="edge">
<title>Node15&#45;&gt;Node16</title>
<g id="a_edge15_Node000015_Node000016"><a xlink:title=" ">
<path fill="none" stroke="#63b8ff" d="M1979.75,-197C1994.28,-197 2011.71,-197 2027.61,-197"/>
<polygon fill="#63b8ff" stroke="#63b8ff" points="2027.79,-200.5 2037.79,-197 2027.79,-193.5 2027.79,-200.5"/>
</a>
</g>
</g>
<!-- Node17 -->
<g id="Node000017" class="node">
<title>Node17</title>
<g id="a_Node000017"><a xlink:href="../../d5/d45/wiring__digital_8c.xhtml#ae3d0bcbe4eb927ca8f5d5c21b7e4f224" target="_top" xlink:title=" ">
<polygon fill="white" stroke="#666666" points="2223,-206.5 2148,-206.5 2148,-187.5 2223,-187.5 2223,-206.5"/>
<text text-anchor="middle" x="2185.5" y="-194.5" font-family="Helvetica,sans-Serif" font-size="10.00">turnOffPWM</text>
</a>
</g>
</g>
<!-- Node16&#45;&gt;Node17 -->
<g id="edge16_Node000016_Node000017" class="edge">
<title>Node16&#45;&gt;Node17</title>
<g id="a_edge16_Node000016_Node000017"><a xlink:title=" ">
<path fill="none" stroke="#63b8ff" d="M2112.13,-197C2120.28,-197 2129.05,-197 2137.57,-197"/>
<polygon fill="#63b8ff" stroke="#63b8ff" points="2137.79,-200.5 2147.79,-197 2137.79,-193.5 2137.79,-200.5"/>
</a>
</g>
</g>
<!-- Node19 -->
<g id="Node000019" class="node">
<title>Node19</title>
<g id="a_Node000019"><a xlink:href="../../d8/d7f/classSharedSpiCard.xhtml#ab33ad2aefbb9cff905cad0879dffc78b" target="_top" xlink:title=" ">
<polygon fill="white" stroke="#666666" points="1473.5,-274.5 1336.5,-274.5 1336.5,-255.5 1473.5,-255.5 1473.5,-274.5"/>
<text text-anchor="middle" x="1405" y="-262.5" font-family="Helvetica,sans-Serif" font-size="10.00">SharedSpiCard::readStop</text>
</a>
</g>
</g>
<!-- Node18&#45;&gt;Node19 -->
<g id="edge19_Node000018_Node000019" class="edge">
<title>Node18&#45;&gt;Node19</title>
<g id="a_edge19_Node000018_Node000019"><a xlink:title=" ">
<path fill="none" stroke="#63b8ff" d="M1270.35,-237.53C1293.88,-242.36 1322.66,-248.28 1347.48,-253.38"/>
<polygon fill="#63b8ff" stroke="#63b8ff" points="1346.99,-256.85 1357.49,-255.44 1348.4,-250 1346.99,-256.85"/>
</a>
</g>
</g>
<!-- Node25 -->
<g id="Node000025" class="node">
<title>Node25</title>
<g id="a_Node000025"><a xlink:href="../../d8/d7f/classSharedSpiCard.xhtml#ae9a34a573077e43e7c6028a16ae77fb3" target="_top" xlink:title=" ">
<polygon fill="white" stroke="#666666" points="1475,-237.5 1335,-237.5 1335,-218.5 1475,-218.5 1475,-237.5"/>
<text text-anchor="middle" x="1405" y="-225.5" font-family="Helvetica,sans-Serif" font-size="10.00">SharedSpiCard::writeStop</text>
</a>
</g>
</g>
<!-- Node18&#45;&gt;Node25 -->
<g id="edge28_Node000018_Node000025" class="edge">
<title>Node18&#45;&gt;Node25</title>
<g id="a_edge28_Node000018_Node000025"><a xlink:title=" ">
<path fill="none" stroke="#63b8ff" d="M1298.25,-228C1306.95,-228 1315.86,-228 1324.62,-228"/>
<polygon fill="#63b8ff" stroke="#63b8ff" points="1324.83,-231.5 1334.83,-228 1324.83,-224.5 1324.83,-231.5"/>
</a>
</g>
</g>
<!-- Node19&#45;&gt;Node6 -->
<g id="edge20_Node000019_Node000006" class="edge">
<title>Node19&#45;&gt;Node6</title>
<g id="a_edge20_Node000019_Node000006"><a xlink:title=" ">
<path fill="none" stroke="#63b8ff" d="M1336.31,-264.7C1284.37,-263.39 1211.09,-259.23 1148,-247 1118.9,-241.36 1086.96,-230.73 1063.74,-222.14"/>
<polygon fill="#63b8ff" stroke="#63b8ff" points="1064.95,-218.86 1054.35,-218.61 1062.48,-225.41 1064.95,-218.86"/>
</a>
</g>
</g>
<!-- Node19&#45;&gt;Node20 -->
<g id="edge21_Node000019_Node000020" class="edge">
<title>Node19&#45;&gt;Node20</title>
<g id="a_edge21_Node000019_Node000020"><a xlink:title=" ">
<path fill="none" stroke="#63b8ff" d="M1428.54,-274.63C1459.84,-287.99 1516.61,-312.23 1552.2,-327.42"/>
<polygon fill="#63b8ff" stroke="#63b8ff" points="1551.07,-330.74 1561.64,-331.45 1553.82,-324.31 1551.07,-330.74"/>
</a>
</g>
</g>
<!-- Node19&#45;&gt;Node21 -->
<g id="edge22_Node000019_Node000021" class="edge">
<title>Node19&#45;&gt;Node21</title>
<g id="a_edge22_Node000019_Node000021"><a xlink:title=" ">
<path fill="none" stroke="#63b8ff" d="M1473.55,-272.21C1485.38,-273.47 1497.75,-274.79 1509.75,-276.07"/>
<polygon fill="#63b8ff" stroke="#63b8ff" points="1509.41,-279.56 1519.73,-277.14 1510.16,-272.6 1509.41,-279.56"/>
</a>
</g>
</g>
<!-- Node21&#45;&gt;Node9 -->
<g id="edge25_Node000021_Node000009" class="edge">
<title>Node21&#45;&gt;Node9</title>
<g id="a_edge25_Node000021_Node000009"><a xlink:title=" ">
<path fill="none" stroke="#63b8ff" d="M1611.07,-274.35C1632.81,-266.18 1665.21,-254.48 1694,-246 1702.41,-243.52 1711.38,-241.14 1720.17,-238.94"/>
<polygon fill="#63b8ff" stroke="#63b8ff" points="1721.08,-242.32 1729.96,-236.54 1719.42,-235.52 1721.08,-242.32"/>
</a>
</g>
</g>
<!-- Node22 -->
<g id="Node000022" class="node">
<title>Node22</title>
<g id="a_Node000022"><a xlink:href="../../d8/d7f/classSharedSpiCard.xhtml#ac6acfca5a23337977d2e4436ab8ab39a" target="_top" xlink:title=" ">
<polygon fill="white" stroke="#666666" points="1855,-310.5 1694,-310.5 1694,-291.5 1855,-291.5 1855,-310.5"/>
<text text-anchor="middle" x="1774.5" y="-298.5" font-family="Helvetica,sans-Serif" font-size="10.00">SharedSpiCard::spiDeactivate</text>
</a>
</g>
</g>
<!-- Node21&#45;&gt;Node22 -->
<g id="edge23_Node000021_Node000022" class="edge">
<title>Node21&#45;&gt;Node22</title>
<g id="a_edge23_Node000021_Node000022"><a xlink:title=" ">
<path fill="none" stroke="#63b8ff" d="M1650,-289.8C1660.92,-290.79 1672.43,-291.84 1683.86,-292.87"/>
<polygon fill="#63b8ff" stroke="#63b8ff" points="1683.59,-296.36 1693.87,-293.78 1684.22,-289.39 1683.59,-296.36"/>
</a>
</g>
</g>
<!-- Node24 -->
<g id="Node000024" class="node">
<title>Node24</title>
<g id="a_Node000024"><a xlink:href="../../d8/d7f/classSharedSpiCard.xhtml#ad06a3278372300987b97876cf598c114" target="_top" xlink:title=" ">
<polygon fill="white" stroke="#666666" points="1850,-273.5 1699,-273.5 1699,-254.5 1850,-254.5 1850,-273.5"/>
<text text-anchor="middle" x="1774.5" y="-261.5" font-family="Helvetica,sans-Serif" font-size="10.00">SharedSpiCard::spiUnselect</text>
</a>
</g>
</g>
<!-- Node21&#45;&gt;Node24 -->
<g id="edge26_Node000021_Node000024" class="edge">
<title>Node21&#45;&gt;Node24</title>
<g id="a_edge26_Node000021_Node000024"><a xlink:title=" ">
<path fill="none" stroke="#63b8ff" d="M1650,-277.17C1662.39,-275.85 1675.55,-274.45 1688.49,-273.07"/>
<polygon fill="#63b8ff" stroke="#63b8ff" points="1689.23,-276.51 1698.8,-271.97 1688.49,-269.55 1689.23,-276.51"/>
</a>
</g>
</g>
<!-- Node23 -->
<g id="Node000023" class="node">
<title>Node23</title>
<g id="a_Node000023"><a xlink:href="../../d0/d25/classSdSpiArduinoDriver.xhtml#ae88a255f533e3acb41d1221025a69b55" target="_top" xlink:title=" ">
<polygon fill="white" stroke="#666666" points="2002,-316 1891,-316 1891,-286 2002,-286 2002,-316"/>
<text text-anchor="start" x="1899" y="-304" font-family="Helvetica,sans-Serif" font-size="10.00">SdSpiArduinoDriver</text>
<text text-anchor="middle" x="1946.5" y="-293" font-family="Helvetica,sans-Serif" font-size="10.00">::deactivate</text>
</a>
</g>
</g>
<!-- Node22&#45;&gt;Node23 -->
<g id="edge24_Node000022_Node000023" class="edge">
<title>Node22&#45;&gt;Node23</title>
<g id="a_edge24_Node000022_Node000023"><a xlink:title=" ">
<path fill="none" stroke="#63b8ff" d="M1855.02,-301C1863.63,-301 1872.3,-301 1880.7,-301"/>
<polygon fill="#63b8ff" stroke="#63b8ff" points="1880.78,-304.5 1890.78,-301 1880.78,-297.5 1880.78,-304.5"/>
</a>
</g>
</g>
<!-- Node24&#45;&gt;Node15 -->
<g id="edge27_Node000024_Node000015" class="edge">
<title>Node24&#45;&gt;Node15</title>
<g id="a_edge27_Node000024_Node000015"><a xlink:title=" ">
<path fill="none" stroke="#63b8ff" d="M1833.08,-254.38C1840.65,-252.14 1848.15,-249.38 1855,-246 1873.67,-236.78 1872.88,-226.26 1891,-216 1894.98,-213.75 1899.28,-211.69 1903.65,-209.84"/>
<polygon fill="#63b8ff" stroke="#63b8ff" points="1905.2,-212.99 1913.25,-206.1 1902.66,-206.47 1905.2,-212.99"/>
</a>
</g>
</g>
<!-- Node25&#45;&gt;Node9 -->
<g id="edge30_Node000025_Node000009" class="edge">
<title>Node25&#45;&gt;Node9</title>
<g id="a_edge30_Node000025_Node000009"><a xlink:title=" ">
<path fill="none" stroke="#63b8ff" d="M1475.12,-227.81C1538.67,-227.64 1632.68,-227.38 1698.14,-227.21"/>
<polygon fill="#63b8ff" stroke="#63b8ff" points="1698.4,-230.7 1708.39,-227.18 1698.38,-223.7 1698.4,-230.7"/>
</a>
</g>
</g>
<!-- Node25&#45;&gt;Node20 -->
<g id="edge29_Node000025_Node000020" class="edge">
<title>Node25&#45;&gt;Node20</title>
<g id="a_edge29_Node000025_Node000020"><a xlink:title=" ">
<path fill="none" stroke="#63b8ff" d="M1458.45,-237.59C1464.69,-240.05 1470.72,-243.13 1476,-247 1499.87,-264.49 1490.2,-282.99 1512,-303 1522.79,-312.9 1536.63,-321.01 1549.3,-327.16"/>
<polygon fill="#63b8ff" stroke="#63b8ff" points="1548.13,-330.48 1558.68,-331.47 1551.06,-324.12 1548.13,-330.48"/>
</a>
</g>
</g>
<!-- Node25&#45;&gt;Node21 -->
<g id="edge31_Node000025_Node000021" class="edge">
<title>Node25&#45;&gt;Node21</title>
<g id="a_edge31_Node000025_Node000021"><a xlink:title=" ">
<path fill="none" stroke="#63b8ff" d="M1442.82,-237.51C1453.56,-240.42 1465.29,-243.71 1476,-247 1500.21,-254.42 1527.16,-263.65 1548.08,-271.04"/>
<polygon fill="#63b8ff" stroke="#63b8ff" points="1546.93,-274.35 1557.53,-274.39 1549.27,-267.75 1546.93,-274.35"/>
</a>
</g>
</g>
<!-- Node25&#45;&gt;Node26 -->
<g id="edge32_Node000025_Node000026" class="edge">
<title>Node25&#45;&gt;Node26</title>
<g id="a_edge32_Node000025_Node000026"><a xlink:title=" ">
<path fill="none" stroke="#63b8ff" d="M1414.01,-218.44C1430.42,-199.46 1469.87,-156.92 1512,-134 1516.91,-131.33 1522.22,-128.99 1527.64,-126.94"/>
<polygon fill="#63b8ff" stroke="#63b8ff" points="1529.13,-130.13 1537.46,-123.58 1526.86,-123.51 1529.13,-130.13"/>
</a>
</g>
</g>
<!-- Node26&#45;&gt;Node7 -->
<g id="edge33_Node000026_Node000007" class="edge">
<title>Node26&#45;&gt;Node7</title>
<g id="a_edge33_Node000026_Node000007"><a xlink:title=" ">
<path fill="none" stroke="#63b8ff" d="M1626.68,-104.45C1654.94,-97.82 1692.79,-88.94 1722.98,-81.86"/>
<polygon fill="#63b8ff" stroke="#63b8ff" points="1723.96,-85.22 1732.89,-79.53 1722.36,-78.41 1723.96,-85.22"/>
</a>
</g>
</g>
<!-- Node27 -->
<g id="Node000027" class="node">
<title>Node27</title>
<g id="a_Node000027"><a xlink:href="../../db/df4/classTimeout.xhtml#abbabe99f42e52472ddd3a7e9d22dce95" target="_top" xlink:title=" ">
<polygon fill="white" stroke="#666666" points="1829,-121.5 1720,-121.5 1720,-102.5 1829,-102.5 1829,-121.5"/>
<text text-anchor="middle" x="1774.5" y="-109.5" font-family="Helvetica,sans-Serif" font-size="10.00">Timeout::timedOut</text>
</a>
</g>
</g>
<!-- Node26&#45;&gt;Node27 -->
<g id="edge34_Node000026_Node000027" class="edge">
<title>Node26&#45;&gt;Node27</title>
<g id="a_edge34_Node000026_Node000027"><a xlink:title=" ">
<path fill="none" stroke="#63b8ff" d="M1658.22,-113.23C1675.23,-113.05 1693.22,-112.86 1709.82,-112.68"/>
<polygon fill="#63b8ff" stroke="#63b8ff" points="1709.98,-116.18 1719.95,-112.57 1709.91,-109.18 1709.98,-116.18"/>
</a>
</g>
</g>
<!-- Node28 -->
<g id="Node000028" class="node">
<title>Node28</title>
<g id="a_Node000028"><a xlink:href="../../db/df4/classTimeout.xhtml#a9a72ea0591f11452fb15bfaa1ae5108a" target="_top" xlink:title=" ">
<polygon fill="white" stroke="#666666" points="1997.5,-120.5 1895.5,-120.5 1895.5,-101.5 1997.5,-101.5 1997.5,-120.5"/>
<text text-anchor="middle" x="1946.5" y="-108.5" font-family="Helvetica,sans-Serif" font-size="10.00">Timeout::millis16</text>
</a>
</g>
</g>
<!-- Node27&#45;&gt;Node28 -->
<g id="edge35_Node000027_Node000028" class="edge">
<title>Node27&#45;&gt;Node28</title>
<g id="a_edge35_Node000027_Node000028"><a xlink:title=" ">
<path fill="none" stroke="#63b8ff" d="M1829.29,-111.68C1847.02,-111.58 1866.85,-111.46 1885.04,-111.36"/>
<polygon fill="#63b8ff" stroke="#63b8ff" points="1885.26,-114.85 1895.24,-111.3 1885.22,-107.85 1885.26,-114.85"/>
</a>
</g>
</g>
<!-- Node29 -->
<g id="Node000029" class="node">
<title>Node29</title>
<g id="a_Node000029"><a xlink:href="../../d5/df3/wiring_8c.xhtml#a6ff7f2532a22366f0013bc41397129fd" target="_top" xlink:title=" ">
<polygon fill="white" stroke="#666666" points="2097,-120.5 2053,-120.5 2053,-101.5 2097,-101.5 2097,-120.5"/>
<text text-anchor="middle" x="2075" y="-108.5" font-family="Helvetica,sans-Serif" font-size="10.00">millis</text>
</a>
</g>
</g>
<!-- Node28&#45;&gt;Node29 -->
<g id="edge36_Node000028_Node000029" class="edge">
<title>Node28&#45;&gt;Node29</title>
<g id="a_edge36_Node000028_Node000029"><a xlink:title=" ">
<path fill="none" stroke="#63b8ff" d="M1997.86,-111C2012.97,-111 2029.11,-111 2042.62,-111"/>
<polygon fill="#63b8ff" stroke="#63b8ff" points="2042.83,-114.5 2052.83,-111 2042.83,-107.5 2042.83,-114.5"/>
</a>
</g>
</g>
<!-- Node30&#45;&gt;Node30 -->
<g id="edge40_Node000030_Node000030" class="edge">
<title>Node30&#45;&gt;Node30</title>
<g id="a_edge40_Node000030_Node000030"><a xlink:title=" ">
<path fill="none" stroke="#63b8ff" d="M999.91,-541.58C985.51,-550.23 995.38,-559.5 1029.5,-559.5 1052.96,-559.5 1064.95,-555.12 1065.48,-549.57"/>
<polygon fill="#63b8ff" stroke="#63b8ff" points="1068.07,-547.21 1059.09,-541.58 1062.61,-551.58 1068.07,-547.21"/>
</a>
</g>
</g>
<!-- Node34 -->
<g id="Node000034" class="node">
<title>Node34</title>
<g id="a_Node000034"><a xlink:href="../../d8/d7f/classSharedSpiCard.xhtml#adf2ce56ca0a56fe841fbdf75f7f3faee" target="_top" xlink:title=" ">
<polygon fill="white" stroke="#666666" points="911,-318.5 762,-318.5 762,-299.5 911,-299.5 911,-318.5"/>
<text text-anchor="middle" x="836.5" y="-306.5" font-family="Helvetica,sans-Serif" font-size="10.00">SharedSpiCard::writeSector</text>
</a>
</g>
</g>
<!-- Node33&#45;&gt;Node34 -->
<g id="edge45_Node000033_Node000034" class="edge">
<title>Node33&#45;&gt;Node34</title>
<g id="a_edge45_Node000033_Node000034"><a xlink:title=" ">
<path fill="none" stroke="#63b8ff" d="M722.08,-325.05C733.29,-323.46 745.77,-321.69 758.23,-319.93"/>
<polygon fill="#63b8ff" stroke="#63b8ff" points="758.79,-323.39 768.2,-318.52 757.81,-316.46 758.79,-323.39"/>
</a>
</g>
</g>
<!-- Node34&#45;&gt;Node6 -->
<g id="edge46_Node000034_Node000006" class="edge">
<title>Node34&#45;&gt;Node6</title>
<g id="a_edge46_Node000034_Node000006"><a xlink:title=" ">
<path fill="none" stroke="#63b8ff" d="M855.81,-299.41C889.47,-281.79 961.33,-244.17 1000.91,-223.44"/>
<polygon fill="#63b8ff" stroke="#63b8ff" points="1003.01,-226.3 1010.24,-218.56 999.76,-220.1 1003.01,-226.3"/>
</a>
</g>
</g>
<!-- Node34&#45;&gt;Node7 -->
<g id="edge48_Node000034_Node000007" class="edge">
<title>Node34&#45;&gt;Node7</title>
<g id="a_edge48_Node000034_Node000007"><a xlink:title=" ">
<path fill="none" stroke="#63b8ff" d="M840.61,-299.29C850.86,-268.66 886.47,-172.97 947,-119 1046.4,-30.37 1088.83,0 1222,0 1222,0 1222,0 1406,0 1527.39,0 1667.42,-37.31 1734.17,-57.45"/>
<polygon fill="#63b8ff" stroke="#63b8ff" points="1733.27,-60.84 1743.85,-60.41 1735.31,-54.15 1733.27,-60.84"/>
</a>
</g>
</g>
<!-- Node34&#45;&gt;Node20 -->
<g id="edge47_Node000034_Node000020" class="edge">
<title>Node34&#45;&gt;Node20</title>
<g id="a_edge47_Node000034_Node000020"><a xlink:title=" ">
<path fill="none" stroke="#63b8ff" d="M869.23,-318.51C962.67,-345.22 1244.76,-416.51 1476,-378 1503,-373.5 1532.31,-363.09 1553.57,-354.45"/>
<polygon fill="#63b8ff" stroke="#63b8ff" points="1555.14,-357.59 1563.02,-350.51 1552.45,-351.12 1555.14,-357.59"/>
</a>
</g>
</g>
<!-- Node34&#45;&gt;Node21 -->
<g id="edge49_Node000034_Node000021" class="edge">
<title>Node34&#45;&gt;Node21</title>
<g id="a_edge49_Node000034_Node000021"><a xlink:title=" ">
<path fill="none" stroke="#63b8ff" d="M911.12,-306.53C1053.82,-301.76 1366.57,-291.28 1509.76,-286.49"/>
<polygon fill="#63b8ff" stroke="#63b8ff" points="1509.9,-289.98 1519.77,-286.15 1509.66,-282.99 1509.9,-289.98"/>
</a>
</g>
</g>
<!-- Node34&#45;&gt;Node26 -->
<g id="edge51_Node000034_Node000026" class="edge">
<title>Node34&#45;&gt;Node26</title>
<g id="a_edge51_Node000034_Node000026"><a xlink:title=" ">
<path fill="none" stroke="#63b8ff" d="M843.96,-299.23C859.23,-276.86 899.84,-221.53 947,-191 1122.72,-77.25 1383.69,-89.01 1510.08,-103.3"/>
<polygon fill="#63b8ff" stroke="#63b8ff" points="1509.71,-106.78 1520.04,-104.47 1510.52,-99.83 1509.71,-106.78"/>
</a>
</g>
</g>
<!-- Node34&#45;&gt;Node31 -->
<g id="edge50_Node000034_Node000031" class="edge">
<title>Node34&#45;&gt;Node31</title>
<g id="a_edge50_Node000034_Node000031"><a xlink:title=" ">
<path fill="none" stroke="#63b8ff" d="M847.18,-318.6C865.27,-336.05 906.09,-373.05 947,-394 955.86,-398.54 965.72,-402.35 975.42,-405.51"/>
<polygon fill="#63b8ff" stroke="#63b8ff" points="974.46,-408.87 985.04,-408.45 976.5,-402.18 974.46,-408.87"/>
</a>
</g>
</g>
<!-- Node35 -->
<g id="Node000035" class="node">
<title>Node35</title>
<g id="a_Node000035"><a xlink:href="../../d8/d7f/classSharedSpiCard.xhtml#a5b6d7ad34f56d0d6a6c5059d920499ba" target="_top" xlink:title=" ">
<polygon fill="white" stroke="#666666" points="1476,-350.5 1334,-350.5 1334,-331.5 1476,-331.5 1476,-350.5"/>
<text text-anchor="middle" x="1405" y="-338.5" font-family="Helvetica,sans-Serif" font-size="10.00">SharedSpiCard::writeData</text>
</a>
</g>
</g>
<!-- Node34&#45;&gt;Node35 -->
<g id="edge52_Node000034_Node000035" class="edge">
<title>Node34&#45;&gt;Node35</title>
<g id="a_edge52_Node000034_Node000035"><a xlink:title=" ">
<path fill="none" stroke="#63b8ff" d="M911.1,-315.37C923.1,-316.32 935.39,-317.23 947,-318 1078.99,-326.74 1232.61,-333.84 1323.89,-337.74"/>
<polygon fill="#63b8ff" stroke="#63b8ff" points="1323.75,-341.24 1333.89,-338.16 1324.05,-334.24 1323.75,-341.24"/>
</a>
</g>
</g>
<!-- Node35&#45;&gt;Node20 -->
<g id="edge53_Node000035_Node000020" class="edge">
<title>Node35&#45;&gt;Node20</title>
<g id="a_edge53_Node000035_Node000020"><a xlink:title=" ">
<path fill="none" stroke="#63b8ff" d="M1476.09,-341C1489.22,-341 1502.92,-341 1515.99,-341"/>
<polygon fill="#63b8ff" stroke="#63b8ff" points="1516.3,-344.5 1526.3,-341 1516.3,-337.5 1516.3,-344.5"/>
</a>
</g>
</g>
<!-- Node35&#45;&gt;Node21 -->
<g id="edge54_Node000035_Node000021" class="edge">
<title>Node35&#45;&gt;Node21</title>
<g id="a_edge54_Node000035_Node000021"><a xlink:title=" ">
<path fill="none" stroke="#63b8ff" d="M1435.79,-331.46C1465.57,-321.92 1511.53,-307.21 1544.37,-296.69"/>
<polygon fill="#63b8ff" stroke="#63b8ff" points="1545.65,-299.95 1554.11,-293.57 1543.52,-293.29 1545.65,-299.95"/>
</a>
</g>
</g>
<!-- Node35&#45;&gt;Node26 -->
<g id="edge55_Node000035_Node000026" class="edge">
<title>Node35&#45;&gt;Node26</title>
<g id="a_edge55_Node000035_Node000026"><a xlink:title=" ">
<path fill="none" stroke="#63b8ff" d="M1423.43,-331.36C1439.54,-321.55 1462.9,-304.83 1476,-284 1512.5,-225.97 1464.39,-183.33 1512,-134 1513.81,-132.12 1515.79,-130.41 1517.88,-128.86"/>
<polygon fill="#63b8ff" stroke="#63b8ff" points="1519.78,-131.81 1526.51,-123.63 1516.14,-125.83 1519.78,-131.81"/>
</a>
</g>
</g>
<!-- Node35&#45;&gt;Node35 -->
<g id="edge56_Node000035_Node000035" class="edge">
<title>Node35&#45;&gt;Node35</title>
<g id="a_edge56_Node000035_Node000035"><a xlink:title=" ">
<path fill="none" stroke="#63b8ff" d="M1377.26,-350.58C1363.76,-359.23 1373.01,-368.5 1405,-368.5 1426.49,-368.5 1437.72,-364.32 1438.68,-358.95"/>
<polygon fill="#63b8ff" stroke="#63b8ff" points="1441.39,-356.71 1432.74,-350.58 1435.68,-360.76 1441.39,-356.71"/>
</a>
</g>
</g>
</g>
</svg>
