<?xml version="1.0" encoding="UTF-8" standalone="no"?>
<!DOCTYPE svg PUBLIC "-//W3C//DTD SVG 1.1//EN"
 "http://www.w3.org/Graphics/SVG/1.1/DTD/svg11.dtd">
<!-- Generated by graphviz version 2.43.0 (0)
 -->
<!-- Title: ExFatPartition::dmpSector Pages: 1 -->
<!--zoomable 568 -->

<svg id="main" version="1.1" xmlns="http://www.w3.org/2000/svg" xmlns:xlink="http://www.w3.org/1999/xlink" xml:space="preserve" onload="init(evt)">
<style type="text/css"><![CDATA[
.node, .edge {opacity: 0.7;}
.node.selected, .edge.selected {opacity: 1;}
.edge:hover path { stroke: red; }
.edge:hover polygon { stroke: red; fill: red; }
]]></style>

<defs>
  <circle id="rim" cx="0" cy="0" r="7"/>
  <circle id="rim2" cx="0" cy="0" r="3.5"/>
  <g id="zoomPlus">
    <use xlink:href="#rim" fill="#404040"><set attributeName="fill" to="#808080" begin="zoomplus.mouseover" end="zoomplus.mouseout"/></use>
    <path d="M-4,0h8M0,-4v8" fill="none" stroke="white" stroke-width="1.5" pointer-events="none"/>
  </g>
  <g id="zoomMin">
    <use xlink:href="#rim" fill="#404040"><set attributeName="fill" to="#808080" begin="zoomminus.mouseover" end="zoomminus.mouseout"/></use>
    <path d="M-4,0h8" fill="none" stroke="white" stroke-width="1.5" pointer-events="none"/>
  </g>
  <g id="arrowUp" transform="translate(30 24)">
    <use xlink:href="#rim"/>
    <path pointer-events="none" fill="none" stroke="white" stroke-width="1.5" d="M0,-3.0v7 M-2.5,-0.5L0,-3.0L2.5,-0.5"/>
  </g>
  <g id="arrowRight" transform="rotate(90) translate(36 -43)">
    <use xlink:href="#rim"/>
    <path pointer-events="none" fill="none" stroke="white" stroke-width="1.5" d="M0,-3.0v7 M-2.5,-0.5L0,-3.0L2.5,-0.5"/>
  </g>
  <g id="arrowDown" transform="rotate(180) translate(-30 -48)">
    <use xlink:href="#rim"/>
    <path pointer-events="none" fill="none" stroke="white" stroke-width="1.5" d="M0,-3.0v7 M-2.5,-0.5L0,-3.0L2.5,-0.5"/>
  </g>
  <g id="arrowLeft" transform="rotate(270) translate(-36 17)">
    <use xlink:href="#rim"/>
    <path pointer-events="none" fill="none" stroke="white" stroke-width="1.5" d="M0,-3.0v7 M-2.5,-0.5L0,-3.0L2.5,-0.5"/>
  </g>
  <g id="resetDef">
    <use xlink:href="#rim2" fill="#404040"><set attributeName="fill" to="#808080" begin="reset.mouseover" end="reset.mouseout"/></use>
  </g>
</defs>
<script type="application/ecmascript">
var viewWidth = 2091;
var viewHeight = 568;
var sectionId = 'dynsection-0';
</script>
<script type="application/ecmascript" xlink:href="../../svg.min.js"/>
<svg id="graph" class="graph">
<g id="viewport">
<title>ExFatPartition::dmpSector</title>
<!-- Node1 -->
<g id="Node000001" class="node">
<title>Node1</title>
<g id="a_Node000001"><a xlink:title=" ">
<polygon fill="#999999" stroke="#666666" points="142,-374.5 0,-374.5 0,-355.5 142,-355.5 142,-374.5"/>
<text text-anchor="middle" x="71" y="-362.5" font-family="Helvetica,sans-Serif" font-size="10.00">ExFatPartition::dmpSector</text>
</a>
</g>
</g>
<!-- Node2 -->
<g id="Node000002" class="node">
<title>Node2</title>
<g id="a_Node000002"><a xlink:href="../../d0/d63/classExFatPartition_a236e1ae2dfd3e7acc8dfa0cbf4658453.xhtml#a236e1ae2dfd3e7acc8dfa0cbf4658453" target="_top" xlink:title=" ">
<polygon fill="white" stroke="#666666" points="319,-402 178,-402 178,-372 319,-372 319,-402"/>
<text text-anchor="start" x="186" y="-390" font-family="Helvetica,sans-Serif" font-size="10.00">ExFatPartition::dataCache</text>
<text text-anchor="middle" x="248.5" y="-379" font-family="Helvetica,sans-Serif" font-size="10.00">Prepare</text>
</a>
</g>
</g>
<!-- Node1&#45;&gt;Node2 -->
<g id="edge1_Node000001_Node000002" class="edge">
<title>Node1&#45;&gt;Node2</title>
<g id="a_edge1_Node000001_Node000002"><a xlink:title=" ">
<path fill="none" stroke="#63b8ff" d="M142.12,-373.79C150.56,-374.85 159.23,-375.93 167.79,-377.01"/>
<polygon fill="#63b8ff" stroke="#63b8ff" points="167.42,-380.49 177.78,-378.26 168.29,-373.54 167.42,-380.49"/>
</a>
</g>
</g>
<!-- Node35 -->
<g id="Node000035" class="node">
<title>Node35</title>
<g id="a_Node000035"><a xlink:href="../../d2/d2b/ExFatDbg_8cpp_a55d1092a0a775f867ae2addf15861c3a.xhtml#a55d1092a0a775f867ae2addf15861c3a" target="_top" xlink:title=" ">
<polygon fill="white" stroke="#666666" points="278,-353.5 219,-353.5 219,-334.5 278,-334.5 278,-353.5"/>
<text text-anchor="middle" x="248.5" y="-341.5" font-family="Helvetica,sans-Serif" font-size="10.00">printHex</text>
</a>
</g>
</g>
<!-- Node1&#45;&gt;Node35 -->
<g id="edge56_Node000001_Node000035" class="edge">
<title>Node1&#45;&gt;Node35</title>
<g id="a_edge56_Node000001_Node000035"><a xlink:title=" ">
<path fill="none" stroke="#63b8ff" d="M142.12,-356.61C164.78,-353.9 189.08,-350.99 208.62,-348.65"/>
<polygon fill="#63b8ff" stroke="#63b8ff" points="209.15,-352.11 218.66,-347.45 208.32,-345.16 209.15,-352.11"/>
</a>
</g>
</g>
<!-- Node3 -->
<g id="Node000003" class="node">
<title>Node3</title>
<g id="a_Node000003"><a xlink:href="../../dd/db1/classFsCache_a8c11f064a2ce0a380f522392f09d63cb.xhtml#a8c11f064a2ce0a380f522392f09d63cb" target="_top" xlink:title=" ">
<polygon fill="white" stroke="#666666" points="456,-396.5 355,-396.5 355,-377.5 456,-377.5 456,-396.5"/>
<text text-anchor="middle" x="405.5" y="-384.5" font-family="Helvetica,sans-Serif" font-size="10.00">FsCache::prepare</text>
</a>
</g>
</g>
<!-- Node2&#45;&gt;Node3 -->
<g id="edge2_Node000002_Node000003" class="edge">
<title>Node2&#45;&gt;Node3</title>
<g id="a_edge2_Node000002_Node000003"><a xlink:title=" ">
<path fill="none" stroke="#63b8ff" d="M319.29,-387C327.65,-387 336.14,-387 344.35,-387"/>
<polygon fill="#63b8ff" stroke="#63b8ff" points="344.57,-390.5 354.57,-387 344.57,-383.5 344.57,-390.5"/>
</a>
</g>
</g>
<!-- Node4 -->
<g id="Node000004" class="node">
<title>Node4</title>
<g id="a_Node000004"><a xlink:href="../../d8/d7f/classSharedSpiCard_a61d86f4092f8ddbc7339d7cbcf6f70c0.xhtml#a61d86f4092f8ddbc7339d7cbcf6f70c0" target="_top" xlink:title=" ">
<polygon fill="white" stroke="#666666" points="769.5,-446.5 623.5,-446.5 623.5,-427.5 769.5,-427.5 769.5,-446.5"/>
<text text-anchor="middle" x="696.5" y="-434.5" font-family="Helvetica,sans-Serif" font-size="10.00">SharedSpiCard::readSector</text>
</a>
</g>
</g>
<!-- Node3&#45;&gt;Node4 -->
<g id="edge3_Node000003_Node000004" class="edge">
<title>Node3&#45;&gt;Node4</title>
<g id="a_edge3_Node000003_Node000004"><a xlink:title=" ">
<path fill="none" stroke="#63b8ff" d="M446.83,-396.55C461.06,-399.76 477.2,-403.23 492,-406 532.3,-413.54 577.34,-420.54 614.79,-425.98"/>
<polygon fill="#63b8ff" stroke="#63b8ff" points="614.74,-429.51 625.14,-427.47 615.74,-422.58 614.74,-429.51"/>
</a>
</g>
</g>
<!-- Node31 -->
<g id="Node000031" class="node">
<title>Node31</title>
<g id="a_Node000031"><a xlink:href="../../dd/db1/classFsCache_a5b90e145400de8687d9f34536b134130.xhtml#a5b90e145400de8687d9f34536b134130" target="_top" xlink:title=" ">
<polygon fill="white" stroke="#666666" points="586,-396.5 492,-396.5 492,-377.5 586,-377.5 586,-396.5"/>
<text text-anchor="middle" x="539" y="-384.5" font-family="Helvetica,sans-Serif" font-size="10.00">FsCache::sector</text>
</a>
</g>
</g>
<!-- Node3&#45;&gt;Node31 -->
<g id="edge42_Node000003_Node000031" class="edge">
<title>Node3&#45;&gt;Node31</title>
<g id="a_edge42_Node000003_Node000031"><a xlink:title=" ">
<path fill="none" stroke="#63b8ff" d="M456.21,-387C464.49,-387 473.12,-387 481.55,-387"/>
<polygon fill="#63b8ff" stroke="#63b8ff" points="481.68,-390.5 491.68,-387 481.68,-383.5 481.68,-390.5"/>
</a>
</g>
</g>
<!-- Node32 -->
<g id="Node000032" class="node">
<title>Node32</title>
<g id="a_Node000032"><a xlink:href="../../dd/db1/classFsCache_a5a2c8fb432d7b7590ebb43200ca21893.xhtml#a5a2c8fb432d7b7590ebb43200ca21893" target="_top" xlink:title=" ">
<polygon fill="white" stroke="#666666" points="582,-340.5 496,-340.5 496,-321.5 582,-321.5 582,-340.5"/>
<text text-anchor="middle" x="539" y="-328.5" font-family="Helvetica,sans-Serif" font-size="10.00">FsCache::sync</text>
</a>
</g>
</g>
<!-- Node3&#45;&gt;Node32 -->
<g id="edge43_Node000003_Node000032" class="edge">
<title>Node3&#45;&gt;Node32</title>
<g id="a_edge43_Node000003_Node000032"><a xlink:title=" ">
<path fill="none" stroke="#63b8ff" d="M429.11,-377.37C450.4,-368.3 482.52,-354.63 506.36,-344.48"/>
<polygon fill="#63b8ff" stroke="#63b8ff" points="507.86,-347.64 515.69,-340.5 505.12,-341.2 507.86,-347.64"/>
</a>
</g>
</g>
<!-- Node5 -->
<g id="Node000005" class="node">
<title>Node5</title>
<g id="a_Node000005"><a xlink:href="../../d8/d7f/classSharedSpiCard_adda33199753fc2aec74fe317cbaabc06.xhtml#adda33199753fc2aec74fe317cbaabc06" target="_top" xlink:title=" ">
<polygon fill="white" stroke="#666666" points="972,-218.5 807,-218.5 807,-199.5 972,-199.5 972,-218.5"/>
<text text-anchor="middle" x="889.5" y="-206.5" font-family="Helvetica,sans-Serif" font-size="10.00">SharedSpiCard::cardCommand</text>
</a>
</g>
</g>
<!-- Node4&#45;&gt;Node5 -->
<g id="edge4_Node000004_Node000005" class="edge">
<title>Node4&#45;&gt;Node5</title>
<g id="a_edge4_Node000004_Node000005"><a xlink:title=" ">
<path fill="none" stroke="#63b8ff" d="M705.46,-427.49C734.65,-392.66 836.01,-271.66 873.99,-226.33"/>
<polygon fill="#63b8ff" stroke="#63b8ff" points="876.76,-228.46 880.5,-218.55 871.4,-223.97 876.76,-228.46"/>
</a>
</g>
</g>
<!-- Node19 -->
<g id="Node000019" class="node">
<title>Node19</title>
<g id="a_Node000019"><a xlink:href="../../d8/d7f/classSharedSpiCard_a747c3f0b962098cf0c097f3c4c2b4fd4.xhtml#a747c3f0b962098cf0c097f3c4c2b4fd4" target="_top" xlink:title=" ">
<polygon fill="white" stroke="#666666" points="1503.5,-350.5 1386.5,-350.5 1386.5,-331.5 1503.5,-331.5 1503.5,-350.5"/>
<text text-anchor="middle" x="1445" y="-338.5" font-family="Helvetica,sans-Serif" font-size="10.00">SharedSpiCard::error</text>
</a>
</g>
</g>
<!-- Node4&#45;&gt;Node19 -->
<g id="edge37_Node000004_Node000019" class="edge">
<title>Node4&#45;&gt;Node19</title>
<g id="a_edge37_Node000004_Node000019"><a xlink:title=" ">
<path fill="none" stroke="#63b8ff" d="M723.48,-446.6C813.56,-478.21 1118.76,-571.45 1336,-470 1385,-447.12 1419.62,-389.85 1435.03,-359.91"/>
<polygon fill="#63b8ff" stroke="#63b8ff" points="1438.36,-361.07 1439.67,-350.56 1432.09,-357.96 1438.36,-361.07"/>
</a>
</g>
</g>
<!-- Node20 -->
<g id="Node000020" class="node">
<title>Node20</title>
<g id="a_Node000020"><a xlink:href="../../d8/d7f/classSharedSpiCard_a0f511c39c50055a4fc97e720933aee3a.xhtml#a0f511c39c50055a4fc97e720933aee3a" target="_top" xlink:title=" ">
<polygon fill="white" stroke="#666666" points="1510,-293.5 1380,-293.5 1380,-274.5 1510,-274.5 1510,-293.5"/>
<text text-anchor="middle" x="1445" y="-281.5" font-family="Helvetica,sans-Serif" font-size="10.00">SharedSpiCard::spiStop</text>
</a>
</g>
</g>
<!-- Node4&#45;&gt;Node20 -->
<g id="edge40_Node000004_Node000020" class="edge">
<title>Node4&#45;&gt;Node20</title>
<g id="a_edge40_Node000004_Node000020"><a xlink:title=" ">
<path fill="none" stroke="#63b8ff" d="M745.15,-446.51C858.18,-466.32 1147.17,-500.63 1336,-378 1360.5,-362.09 1350.5,-342.78 1372,-323 1383.11,-312.78 1397.4,-304.32 1410.31,-297.93"/>
<polygon fill="#63b8ff" stroke="#63b8ff" points="1411.85,-301.07 1419.41,-293.64 1408.87,-294.74 1411.85,-301.07"/>
</a>
</g>
</g>
<!-- Node29 -->
<g id="Node000029" class="node">
<title>Node29</title>
<g id="a_Node000029"><a xlink:href="../../d8/d7f/classSharedSpiCard_abeae3cdc162f24c2d450abe4e1ed8340.xhtml#abeae3cdc162f24c2d450abe4e1ed8340" target="_top" xlink:title=" ">
<polygon fill="white" stroke="#666666" points="959,-541.5 820,-541.5 820,-522.5 959,-522.5 959,-541.5"/>
<text text-anchor="middle" x="889.5" y="-529.5" font-family="Helvetica,sans-Serif" font-size="10.00">SharedSpiCard::readData</text>
</a>
</g>
</g>
<!-- Node4&#45;&gt;Node29 -->
<g id="edge38_Node000004_Node000029" class="edge">
<title>Node4&#45;&gt;Node29</title>
<g id="a_edge38_Node000004_Node000029"><a xlink:title=" ">
<path fill="none" stroke="#63b8ff" d="M709.62,-446.56C729.12,-461.53 769.12,-490.59 807,-508 816.65,-512.43 827.32,-516.27 837.67,-519.5"/>
<polygon fill="#63b8ff" stroke="#63b8ff" points="836.87,-522.91 847.45,-522.41 838.86,-516.2 836.87,-522.91"/>
</a>
</g>
</g>
<!-- Node30 -->
<g id="Node000030" class="node">
<title>Node30</title>
<g id="a_Node000030"><a xlink:href="../../d8/d7f/classSharedSpiCard_a7dac2190763d7b4b72163ed7131e8a87.xhtml#a7dac2190763d7b4b72163ed7131e8a87" target="_top" xlink:title=" ">
<polygon fill="white" stroke="#666666" points="947.5,-427.5 831.5,-427.5 831.5,-408.5 947.5,-408.5 947.5,-427.5"/>
<text text-anchor="middle" x="889.5" y="-415.5" font-family="Helvetica,sans-Serif" font-size="10.00">SharedSpiCard::type</text>
</a>
</g>
</g>
<!-- Node4&#45;&gt;Node30 -->
<g id="edge41_Node000004_Node000030" class="edge">
<title>Node4&#45;&gt;Node30</title>
<g id="a_edge41_Node000004_Node000030"><a xlink:title=" ">
<path fill="none" stroke="#63b8ff" d="M769.71,-429.82C786.59,-428.14 804.51,-426.35 821.17,-424.7"/>
<polygon fill="#63b8ff" stroke="#63b8ff" points="821.76,-428.16 831.37,-423.68 821.07,-421.19 821.76,-428.16"/>
</a>
</g>
</g>
<!-- Node6 -->
<g id="Node000006" class="node">
<title>Node6</title>
<g id="a_Node000006"><a xlink:href="../../d8/d7f/classSharedSpiCard_a08363209d938db87521cca6a84146041.xhtml#a08363209d938db87521cca6a84146041" target="_top" xlink:title=" ">
<polygon fill="white" stroke="#666666" points="1708,-79.5 1561,-79.5 1561,-60.5 1708,-60.5 1708,-79.5"/>
<text text-anchor="middle" x="1634.5" y="-67.5" font-family="Helvetica,sans-Serif" font-size="10.00">SharedSpiCard::spiReceive</text>
</a>
</g>
</g>
<!-- Node5&#45;&gt;Node6 -->
<g id="edge5_Node000005_Node000006" class="edge">
<title>Node5&#45;&gt;Node6</title>
<g id="a_edge5_Node000005_Node000006"><a xlink:title=" ">
<path fill="none" stroke="#63b8ff" d="M899.76,-199.34C918.27,-180.72 962.07,-140.19 1008,-123 1192.4,-53.97 1428.07,-55.98 1550.8,-63.14"/>
<polygon fill="#63b8ff" stroke="#63b8ff" points="1550.68,-66.64 1560.87,-63.75 1551.11,-59.65 1550.68,-66.64"/>
</a>
</g>
</g>
<!-- Node8 -->
<g id="Node000008" class="node">
<title>Node8</title>
<g id="a_Node000008"><a xlink:href="../../d8/d7f/classSharedSpiCard_ab311b9ad8a250f06afbe091f7abb118b.xhtml#ab311b9ad8a250f06afbe091f7abb118b" target="_top" xlink:title=" ">
<polygon fill="white" stroke="#666666" points="1700.5,-236.5 1568.5,-236.5 1568.5,-217.5 1700.5,-217.5 1700.5,-236.5"/>
<text text-anchor="middle" x="1634.5" y="-224.5" font-family="Helvetica,sans-Serif" font-size="10.00">SharedSpiCard::spiSend</text>
</a>
</g>
</g>
<!-- Node5&#45;&gt;Node8 -->
<g id="edge7_Node000005_Node000008" class="edge">
<title>Node5&#45;&gt;Node8</title>
<g id="a_edge7_Node000005_Node000008"><a xlink:title=" ">
<path fill="none" stroke="#63b8ff" d="M972.22,-207.84C1061.59,-206.89 1209.02,-206.23 1336,-210 1411.65,-212.24 1497.98,-217.47 1558.09,-221.55"/>
<polygon fill="#63b8ff" stroke="#63b8ff" points="1558.04,-225.05 1568.25,-222.24 1558.52,-218.07 1558.04,-225.05"/>
</a>
</g>
</g>
<!-- Node10 -->
<g id="Node000010" class="node">
<title>Node10</title>
<g id="a_Node000010"><a xlink:href="../../d8/d7f/classSharedSpiCard_aef2dfa72e8d5643c90720f9f8c6a4254.xhtml#aef2dfa72e8d5643c90720f9f8c6a4254" target="_top" xlink:title=" ">
<polygon fill="white" stroke="#666666" points="1510.5,-161.5 1379.5,-161.5 1379.5,-142.5 1510.5,-142.5 1510.5,-161.5"/>
<text text-anchor="middle" x="1445" y="-149.5" font-family="Helvetica,sans-Serif" font-size="10.00">SharedSpiCard::spiStart</text>
</a>
</g>
</g>
<!-- Node5&#45;&gt;Node10 -->
<g id="edge9_Node000005_Node000010" class="edge">
<title>Node5&#45;&gt;Node10</title>
<g id="a_edge9_Node000005_Node000010"><a xlink:title=" ">
<path fill="none" stroke="#63b8ff" d="M918.13,-199.39C941.69,-191.64 976.65,-181.2 1008,-176 1133.53,-155.18 1281.89,-151.34 1369.17,-151.17"/>
<polygon fill="#63b8ff" stroke="#63b8ff" points="1369.25,-154.67 1379.25,-151.17 1369.25,-147.67 1369.25,-154.67"/>
</a>
</g>
</g>
<!-- Node17 -->
<g id="Node000017" class="node">
<title>Node17</title>
<g id="a_Node000017"><a xlink:href="../../d8/d7f/classSharedSpiCard_a2f181b3d6f27413a0f5ee883dfd94d87.xhtml#a2f181b3d6f27413a0f5ee883dfd94d87" target="_top" xlink:title=" ">
<polygon fill="white" stroke="#666666" points="1158,-237.5 1008,-237.5 1008,-218.5 1158,-218.5 1158,-237.5"/>
<text text-anchor="middle" x="1083" y="-225.5" font-family="Helvetica,sans-Serif" font-size="10.00">SharedSpiCard::syncDevice</text>
</a>
</g>
</g>
<!-- Node5&#45;&gt;Node17 -->
<g id="edge17_Node000005_Node000017" class="edge">
<title>Node5&#45;&gt;Node17</title>
<g id="a_edge17_Node000005_Node000017"><a xlink:title=" ">
<path fill="none" stroke="#63b8ff" d="M972.27,-217.11C980.65,-217.94 989.18,-218.79 997.59,-219.63"/>
<polygon fill="#63b8ff" stroke="#63b8ff" points="997.48,-223.13 1007.78,-220.64 998.17,-216.17 997.48,-223.13"/>
</a>
</g>
</g>
<!-- Node25 -->
<g id="Node000025" class="node">
<title>Node25</title>
<g id="a_Node000025"><a xlink:href="../../d8/d7f/classSharedSpiCard_ab3468397bb3b12d29dd2f31e45b3dcaf.xhtml#ab3468397bb3b12d29dd2f31e45b3dcaf" target="_top" xlink:title=" ">
<polygon fill="white" stroke="#666666" points="1518,-123.5 1372,-123.5 1372,-104.5 1518,-104.5 1518,-123.5"/>
<text text-anchor="middle" x="1445" y="-111.5" font-family="Helvetica,sans-Serif" font-size="10.00">SharedSpiCard::waitReady</text>
</a>
</g>
</g>
<!-- Node5&#45;&gt;Node25 -->
<g id="edge36_Node000005_Node000025" class="edge">
<title>Node5&#45;&gt;Node25</title>
<g id="a_edge36_Node000005_Node000025"><a xlink:title=" ">
<path fill="none" stroke="#63b8ff" d="M906.57,-199.48C928.61,-186.93 969.84,-165.24 1008,-155 1128.2,-122.73 1272.94,-114.97 1361.7,-113.56"/>
<polygon fill="#63b8ff" stroke="#63b8ff" points="1361.76,-117.06 1371.71,-113.43 1361.66,-110.06 1361.76,-117.06"/>
</a>
</g>
</g>
<!-- Node7 -->
<g id="Node000007" class="node">
<title>Node7</title>
<g id="a_Node000007"><a xlink:href="../../d0/d25/classSdSpiArduinoDriver_a8d6bc852a52e9d69c4b1e48ee062e8d1.xhtml#a8d6bc852a52e9d69c4b1e48ee062e8d1" target="_top" xlink:title=" ">
<polygon fill="white" stroke="#666666" points="1862,-83 1751,-83 1751,-53 1862,-53 1862,-83"/>
<text text-anchor="start" x="1759" y="-71" font-family="Helvetica,sans-Serif" font-size="10.00">SdSpiArduinoDriver</text>
<text text-anchor="middle" x="1806.5" y="-60" font-family="Helvetica,sans-Serif" font-size="10.00">::receive</text>
</a>
</g>
</g>
<!-- Node6&#45;&gt;Node7 -->
<g id="edge6_Node000006_Node000007" class="edge">
<title>Node6&#45;&gt;Node7</title>
<g id="a_edge6_Node000006_Node000007"><a xlink:title=" ">
<path fill="none" stroke="#63b8ff" d="M1708.09,-69.15C1718.96,-69.02 1730.11,-68.89 1740.81,-68.76"/>
<polygon fill="#63b8ff" stroke="#63b8ff" points="1740.94,-72.26 1750.9,-68.64 1740.86,-65.26 1740.94,-72.26"/>
</a>
</g>
</g>
<!-- Node9 -->
<g id="Node000009" class="node">
<title>Node9</title>
<g id="a_Node000009"><a xlink:href="../../d0/d25/classSdSpiArduinoDriver_a3c4842e47f98fe5d3799cd6028778ab5.xhtml#a3c4842e47f98fe5d3799cd6028778ab5" target="_top" xlink:title=" ">
<polygon fill="white" stroke="#666666" points="1862,-255 1751,-255 1751,-225 1862,-225 1862,-255"/>
<text text-anchor="start" x="1759" y="-243" font-family="Helvetica,sans-Serif" font-size="10.00">SdSpiArduinoDriver</text>
<text text-anchor="middle" x="1806.5" y="-232" font-family="Helvetica,sans-Serif" font-size="10.00">::send</text>
</a>
</g>
</g>
<!-- Node8&#45;&gt;Node9 -->
<g id="edge8_Node000008_Node000009" class="edge">
<title>Node8&#45;&gt;Node9</title>
<g id="a_edge8_Node000008_Node000009"><a xlink:title=" ">
<path fill="none" stroke="#63b8ff" d="M1700.74,-231.99C1713.82,-232.99 1727.56,-234.04 1740.62,-235.04"/>
<polygon fill="#63b8ff" stroke="#63b8ff" points="1740.69,-238.55 1750.93,-235.83 1741.22,-231.57 1740.69,-238.55"/>
</a>
</g>
</g>
<!-- Node10&#45;&gt;Node8 -->
<g id="edge16_Node000010_Node000008" class="edge">
<title>Node10&#45;&gt;Node8</title>
<g id="a_edge16_Node000010_Node000008"><a xlink:title=" ">
<path fill="none" stroke="#63b8ff" d="M1484.67,-161.6C1495.85,-165.23 1507.78,-169.99 1518,-176 1536.71,-187.01 1534.77,-198.93 1554,-209 1557.57,-210.87 1561.32,-212.54 1565.18,-214.04"/>
<polygon fill="#63b8ff" stroke="#63b8ff" points="1564.33,-217.45 1574.93,-217.43 1566.63,-210.84 1564.33,-217.45"/>
</a>
</g>
</g>
<!-- Node11 -->
<g id="Node000011" class="node">
<title>Node11</title>
<g id="a_Node000011"><a xlink:href="../../d8/d7f/classSharedSpiCard_a69ee2fe49dfaeea2347d8a265806d2b6.xhtml#a69ee2fe49dfaeea2347d8a265806d2b6" target="_top" xlink:title=" ">
<polygon fill="white" stroke="#666666" points="1709,-161.5 1560,-161.5 1560,-142.5 1709,-142.5 1709,-161.5"/>
<text text-anchor="middle" x="1634.5" y="-149.5" font-family="Helvetica,sans-Serif" font-size="10.00">SharedSpiCard::spiActivate</text>
</a>
</g>
</g>
<!-- Node10&#45;&gt;Node11 -->
<g id="edge10_Node000010_Node000011" class="edge">
<title>Node10&#45;&gt;Node11</title>
<g id="a_edge10_Node000010_Node000011"><a xlink:title=" ">
<path fill="none" stroke="#63b8ff" d="M1510.53,-152C1523.19,-152 1536.64,-152 1549.82,-152"/>
<polygon fill="#63b8ff" stroke="#63b8ff" points="1549.84,-155.5 1559.84,-152 1549.84,-148.5 1549.84,-155.5"/>
</a>
</g>
</g>
<!-- Node13 -->
<g id="Node000013" class="node">
<title>Node13</title>
<g id="a_Node000013"><a xlink:href="../../d8/d7f/classSharedSpiCard_a8c3088599862ff6e84ae79bfdf32aea8.xhtml#a8c3088599862ff6e84ae79bfdf32aea8" target="_top" xlink:title=" ">
<polygon fill="white" stroke="#666666" points="1703.5,-199.5 1565.5,-199.5 1565.5,-180.5 1703.5,-180.5 1703.5,-199.5"/>
<text text-anchor="middle" x="1634.5" y="-187.5" font-family="Helvetica,sans-Serif" font-size="10.00">SharedSpiCard::spiSelect</text>
</a>
</g>
</g>
<!-- Node10&#45;&gt;Node13 -->
<g id="edge12_Node000010_Node000013" class="edge">
<title>Node10&#45;&gt;Node13</title>
<g id="a_edge12_Node000010_Node000013"><a xlink:title=" ">
<path fill="none" stroke="#63b8ff" d="M1493.31,-161.59C1518.61,-166.72 1549.95,-173.07 1576.57,-178.46"/>
<polygon fill="#63b8ff" stroke="#63b8ff" points="1576.03,-181.92 1586.53,-180.48 1577.42,-175.06 1576.03,-181.92"/>
</a>
</g>
</g>
<!-- Node12 -->
<g id="Node000012" class="node">
<title>Node12</title>
<g id="a_Node000012"><a xlink:href="../../d0/d25/classSdSpiArduinoDriver_abb6b88c5c8b87fc344a69f23f6eab3d9.xhtml#abb6b88c5c8b87fc344a69f23f6eab3d9" target="_top" xlink:title=" ">
<polygon fill="white" stroke="#666666" points="1862,-169 1751,-169 1751,-139 1862,-139 1862,-169"/>
<text text-anchor="start" x="1759" y="-157" font-family="Helvetica,sans-Serif" font-size="10.00">SdSpiArduinoDriver</text>
<text text-anchor="middle" x="1806.5" y="-146" font-family="Helvetica,sans-Serif" font-size="10.00">::activate</text>
</a>
</g>
</g>
<!-- Node11&#45;&gt;Node12 -->
<g id="edge11_Node000011_Node000012" class="edge">
<title>Node11&#45;&gt;Node12</title>
<g id="a_edge11_Node000011_Node000012"><a xlink:title=" ">
<path fill="none" stroke="#63b8ff" d="M1709.08,-152.87C1719.57,-152.99 1730.31,-153.12 1740.63,-153.24"/>
<polygon fill="#63b8ff" stroke="#63b8ff" points="1740.74,-156.74 1750.78,-153.36 1740.82,-149.74 1740.74,-156.74"/>
</a>
</g>
</g>
<!-- Node14 -->
<g id="Node000014" class="node">
<title>Node14</title>
<g id="a_Node000014"><a xlink:href="../../d2/df0/SdSpiChipSelect_8cpp_ac469bbe2d31ffde9b00ffc68258d7428.xhtml#ac469bbe2d31ffde9b00ffc68258d7428" target="_top" xlink:title=" ">
<polygon fill="white" stroke="#666666" points="1839.5,-206.5 1773.5,-206.5 1773.5,-187.5 1839.5,-187.5 1839.5,-206.5"/>
<text text-anchor="middle" x="1806.5" y="-194.5" font-family="Helvetica,sans-Serif" font-size="10.00">sdCsWrite</text>
</a>
</g>
</g>
<!-- Node13&#45;&gt;Node14 -->
<g id="edge13_Node000013_Node000014" class="edge">
<title>Node13&#45;&gt;Node14</title>
<g id="a_edge13_Node000013_Node000014"><a xlink:title=" ">
<path fill="none" stroke="#63b8ff" d="M1703.67,-192.81C1723.74,-193.63 1745.12,-194.51 1763.09,-195.25"/>
<polygon fill="#63b8ff" stroke="#63b8ff" points="1763.1,-198.76 1773.23,-195.67 1763.38,-191.76 1763.1,-198.76"/>
</a>
</g>
</g>
<!-- Node15 -->
<g id="Node000015" class="node">
<title>Node15</title>
<g id="a_Node000015"><a xlink:href="../../d5/d45/wiring__digital_8c_a73b9b61feeaf7d790d107f2954a7fd93.xhtml#a73b9b61feeaf7d790d107f2954a7fd93" target="_top" xlink:title=" ">
<polygon fill="white" stroke="#666666" points="1972,-206.5 1898,-206.5 1898,-187.5 1972,-187.5 1972,-206.5"/>
<text text-anchor="middle" x="1935" y="-194.5" font-family="Helvetica,sans-Serif" font-size="10.00">digitalWrite</text>
</a>
</g>
</g>
<!-- Node14&#45;&gt;Node15 -->
<g id="edge14_Node000014_Node000015" class="edge">
<title>Node14&#45;&gt;Node15</title>
<g id="a_edge14_Node000014_Node000015"><a xlink:title=" ">
<path fill="none" stroke="#63b8ff" d="M1839.75,-197C1854.28,-197 1871.71,-197 1887.61,-197"/>
<polygon fill="#63b8ff" stroke="#63b8ff" points="1887.79,-200.5 1897.79,-197 1887.79,-193.5 1887.79,-200.5"/>
</a>
</g>
</g>
<!-- Node16 -->
<g id="Node000016" class="node">
<title>Node16</title>
<g id="a_Node000016"><a xlink:href="../../d5/d45/wiring__digital_8c_ae3d0bcbe4eb927ca8f5d5c21b7e4f224.xhtml#ae3d0bcbe4eb927ca8f5d5c21b7e4f224" target="_top" xlink:title=" ">
<polygon fill="white" stroke="#666666" points="2083,-206.5 2008,-206.5 2008,-187.5 2083,-187.5 2083,-206.5"/>
<text text-anchor="middle" x="2045.5" y="-194.5" font-family="Helvetica,sans-Serif" font-size="10.00">turnOffPWM</text>
</a>
</g>
</g>
<!-- Node15&#45;&gt;Node16 -->
<g id="edge15_Node000015_Node000016" class="edge">
<title>Node15&#45;&gt;Node16</title>
<g id="a_edge15_Node000015_Node000016"><a xlink:title=" ">
<path fill="none" stroke="#63b8ff" d="M1972.13,-197C1980.28,-197 1989.05,-197 1997.57,-197"/>
<polygon fill="#63b8ff" stroke="#63b8ff" points="1997.79,-200.5 2007.79,-197 1997.79,-193.5 1997.79,-200.5"/>
</a>
</g>
</g>
<!-- Node18 -->
<g id="Node000018" class="node">
<title>Node18</title>
<g id="a_Node000018"><a xlink:href="../../d8/d7f/classSharedSpiCard_ab33ad2aefbb9cff905cad0879dffc78b.xhtml#ab33ad2aefbb9cff905cad0879dffc78b" target="_top" xlink:title=" ">
<polygon fill="white" stroke="#666666" points="1333.5,-274.5 1196.5,-274.5 1196.5,-255.5 1333.5,-255.5 1333.5,-274.5"/>
<text text-anchor="middle" x="1265" y="-262.5" font-family="Helvetica,sans-Serif" font-size="10.00">SharedSpiCard::readStop</text>
</a>
</g>
</g>
<!-- Node17&#45;&gt;Node18 -->
<g id="edge18_Node000017_Node000018" class="edge">
<title>Node17&#45;&gt;Node18</title>
<g id="a_edge18_Node000017_Node000018"><a xlink:title=" ">
<path fill="none" stroke="#63b8ff" d="M1130.35,-237.53C1153.88,-242.36 1182.66,-248.28 1207.48,-253.38"/>
<polygon fill="#63b8ff" stroke="#63b8ff" points="1206.99,-256.85 1217.49,-255.44 1208.4,-250 1206.99,-256.85"/>
</a>
</g>
</g>
<!-- Node24 -->
<g id="Node000024" class="node">
<title>Node24</title>
<g id="a_Node000024"><a xlink:href="../../d8/d7f/classSharedSpiCard_ae9a34a573077e43e7c6028a16ae77fb3.xhtml#ae9a34a573077e43e7c6028a16ae77fb3" target="_top" xlink:title=" ">
<polygon fill="white" stroke="#666666" points="1335,-237.5 1195,-237.5 1195,-218.5 1335,-218.5 1335,-237.5"/>
<text text-anchor="middle" x="1265" y="-225.5" font-family="Helvetica,sans-Serif" font-size="10.00">SharedSpiCard::writeStop</text>
</a>
</g>
</g>
<!-- Node17&#45;&gt;Node24 -->
<g id="edge27_Node000017_Node000024" class="edge">
<title>Node17&#45;&gt;Node24</title>
<g id="a_edge27_Node000017_Node000024"><a xlink:title=" ">
<path fill="none" stroke="#63b8ff" d="M1158.25,-228C1166.95,-228 1175.86,-228 1184.62,-228"/>
<polygon fill="#63b8ff" stroke="#63b8ff" points="1184.83,-231.5 1194.83,-228 1184.83,-224.5 1184.83,-231.5"/>
</a>
</g>
</g>
<!-- Node18&#45;&gt;Node5 -->
<g id="edge19_Node000018_Node000005" class="edge">
<title>Node18&#45;&gt;Node5</title>
<g id="a_edge19_Node000018_Node000005"><a xlink:title=" ">
<path fill="none" stroke="#63b8ff" d="M1196.31,-264.7C1144.37,-263.39 1071.09,-259.23 1008,-247 978.9,-241.36 946.96,-230.73 923.74,-222.14"/>
<polygon fill="#63b8ff" stroke="#63b8ff" points="924.95,-218.86 914.35,-218.61 922.48,-225.41 924.95,-218.86"/>
</a>
</g>
</g>
<!-- Node18&#45;&gt;Node19 -->
<g id="edge20_Node000018_Node000019" class="edge">
<title>Node18&#45;&gt;Node19</title>
<g id="a_edge20_Node000018_Node000019"><a xlink:title=" ">
<path fill="none" stroke="#63b8ff" d="M1288.54,-274.63C1319.84,-287.99 1376.61,-312.23 1412.2,-327.42"/>
<polygon fill="#63b8ff" stroke="#63b8ff" points="1411.07,-330.74 1421.64,-331.45 1413.82,-324.31 1411.07,-330.74"/>
</a>
</g>
</g>
<!-- Node18&#45;&gt;Node20 -->
<g id="edge21_Node000018_Node000020" class="edge">
<title>Node18&#45;&gt;Node20</title>
<g id="a_edge21_Node000018_Node000020"><a xlink:title=" ">
<path fill="none" stroke="#63b8ff" d="M1333.55,-272.21C1345.38,-273.47 1357.75,-274.79 1369.75,-276.07"/>
<polygon fill="#63b8ff" stroke="#63b8ff" points="1369.41,-279.56 1379.73,-277.14 1370.16,-272.6 1369.41,-279.56"/>
</a>
</g>
</g>
<!-- Node20&#45;&gt;Node8 -->
<g id="edge24_Node000020_Node000008" class="edge">
<title>Node20&#45;&gt;Node8</title>
<g id="a_edge24_Node000020_Node000008"><a xlink:title=" ">
<path fill="none" stroke="#63b8ff" d="M1471.07,-274.35C1492.81,-266.18 1525.21,-254.48 1554,-246 1562.41,-243.52 1571.38,-241.14 1580.17,-238.94"/>
<polygon fill="#63b8ff" stroke="#63b8ff" points="1581.08,-242.32 1589.96,-236.54 1579.42,-235.52 1581.08,-242.32"/>
</a>
</g>
</g>
<!-- Node21 -->
<g id="Node000021" class="node">
<title>Node21</title>
<g id="a_Node000021"><a xlink:href="../../d8/d7f/classSharedSpiCard_ac6acfca5a23337977d2e4436ab8ab39a.xhtml#ac6acfca5a23337977d2e4436ab8ab39a" target="_top" xlink:title=" ">
<polygon fill="white" stroke="#666666" points="1715,-310.5 1554,-310.5 1554,-291.5 1715,-291.5 1715,-310.5"/>
<text text-anchor="middle" x="1634.5" y="-298.5" font-family="Helvetica,sans-Serif" font-size="10.00">SharedSpiCard::spiDeactivate</text>
</a>
</g>
</g>
<!-- Node20&#45;&gt;Node21 -->
<g id="edge22_Node000020_Node000021" class="edge">
<title>Node20&#45;&gt;Node21</title>
<g id="a_edge22_Node000020_Node000021"><a xlink:title=" ">
<path fill="none" stroke="#63b8ff" d="M1510,-289.8C1520.92,-290.79 1532.43,-291.84 1543.86,-292.87"/>
<polygon fill="#63b8ff" stroke="#63b8ff" points="1543.59,-296.36 1553.87,-293.78 1544.22,-289.39 1543.59,-296.36"/>
</a>
</g>
</g>
<!-- Node23 -->
<g id="Node000023" class="node">
<title>Node23</title>
<g id="a_Node000023"><a xlink:href="../../d8/d7f/classSharedSpiCard_ad06a3278372300987b97876cf598c114.xhtml#ad06a3278372300987b97876cf598c114" target="_top" xlink:title=" ">
<polygon fill="white" stroke="#666666" points="1710,-273.5 1559,-273.5 1559,-254.5 1710,-254.5 1710,-273.5"/>
<text text-anchor="middle" x="1634.5" y="-261.5" font-family="Helvetica,sans-Serif" font-size="10.00">SharedSpiCard::spiUnselect</text>
</a>
</g>
</g>
<!-- Node20&#45;&gt;Node23 -->
<g id="edge25_Node000020_Node000023" class="edge">
<title>Node20&#45;&gt;Node23</title>
<g id="a_edge25_Node000020_Node000023"><a xlink:title=" ">
<path fill="none" stroke="#63b8ff" d="M1510,-277.17C1522.39,-275.85 1535.55,-274.45 1548.49,-273.07"/>
<polygon fill="#63b8ff" stroke="#63b8ff" points="1549.23,-276.51 1558.8,-271.97 1548.49,-269.55 1549.23,-276.51"/>
</a>
</g>
</g>
<!-- Node22 -->
<g id="Node000022" class="node">
<title>Node22</title>
<g id="a_Node000022"><a xlink:href="../../d0/d25/classSdSpiArduinoDriver_ae88a255f533e3acb41d1221025a69b55.xhtml#ae88a255f533e3acb41d1221025a69b55" target="_top" xlink:title=" ">
<polygon fill="white" stroke="#666666" points="1862,-316 1751,-316 1751,-286 1862,-286 1862,-316"/>
<text text-anchor="start" x="1759" y="-304" font-family="Helvetica,sans-Serif" font-size="10.00">SdSpiArduinoDriver</text>
<text text-anchor="middle" x="1806.5" y="-293" font-family="Helvetica,sans-Serif" font-size="10.00">::deactivate</text>
</a>
</g>
</g>
<!-- Node21&#45;&gt;Node22 -->
<g id="edge23_Node000021_Node000022" class="edge">
<title>Node21&#45;&gt;Node22</title>
<g id="a_edge23_Node000021_Node000022"><a xlink:title=" ">
<path fill="none" stroke="#63b8ff" d="M1715.02,-301C1723.63,-301 1732.3,-301 1740.7,-301"/>
<polygon fill="#63b8ff" stroke="#63b8ff" points="1740.78,-304.5 1750.78,-301 1740.78,-297.5 1740.78,-304.5"/>
</a>
</g>
</g>
<!-- Node23&#45;&gt;Node14 -->
<g id="edge26_Node000023_Node000014" class="edge">
<title>Node23&#45;&gt;Node14</title>
<g id="a_edge26_Node000023_Node000014"><a xlink:title=" ">
<path fill="none" stroke="#63b8ff" d="M1693.08,-254.38C1700.65,-252.14 1708.15,-249.38 1715,-246 1733.67,-236.78 1732.88,-226.26 1751,-216 1754.98,-213.75 1759.28,-211.69 1763.65,-209.84"/>
<polygon fill="#63b8ff" stroke="#63b8ff" points="1765.2,-212.99 1773.25,-206.1 1762.66,-206.47 1765.2,-212.99"/>
</a>
</g>
</g>
<!-- Node24&#45;&gt;Node8 -->
<g id="edge29_Node000024_Node000008" class="edge">
<title>Node24&#45;&gt;Node8</title>
<g id="a_edge29_Node000024_Node000008"><a xlink:title=" ">
<path fill="none" stroke="#63b8ff" d="M1335.12,-227.81C1398.67,-227.64 1492.68,-227.38 1558.14,-227.21"/>
<polygon fill="#63b8ff" stroke="#63b8ff" points="1558.4,-230.7 1568.39,-227.18 1558.38,-223.7 1558.4,-230.7"/>
</a>
</g>
</g>
<!-- Node24&#45;&gt;Node19 -->
<g id="edge28_Node000024_Node000019" class="edge">
<title>Node24&#45;&gt;Node19</title>
<g id="a_edge28_Node000024_Node000019"><a xlink:title=" ">
<path fill="none" stroke="#63b8ff" d="M1318.45,-237.59C1324.69,-240.05 1330.72,-243.13 1336,-247 1359.87,-264.49 1350.2,-282.99 1372,-303 1382.79,-312.9 1396.63,-321.01 1409.3,-327.16"/>
<polygon fill="#63b8ff" stroke="#63b8ff" points="1408.13,-330.48 1418.68,-331.47 1411.06,-324.12 1408.13,-330.48"/>
</a>
</g>
</g>
<!-- Node24&#45;&gt;Node20 -->
<g id="edge30_Node000024_Node000020" class="edge">
<title>Node24&#45;&gt;Node20</title>
<g id="a_edge30_Node000024_Node000020"><a xlink:title=" ">
<path fill="none" stroke="#63b8ff" d="M1302.82,-237.51C1313.56,-240.42 1325.29,-243.71 1336,-247 1360.21,-254.42 1387.16,-263.65 1408.08,-271.04"/>
<polygon fill="#63b8ff" stroke="#63b8ff" points="1406.93,-274.35 1417.53,-274.39 1409.27,-267.75 1406.93,-274.35"/>
</a>
</g>
</g>
<!-- Node24&#45;&gt;Node25 -->
<g id="edge31_Node000024_Node000025" class="edge">
<title>Node24&#45;&gt;Node25</title>
<g id="a_edge31_Node000024_Node000025"><a xlink:title=" ">
<path fill="none" stroke="#63b8ff" d="M1274.01,-218.44C1290.42,-199.46 1329.87,-156.92 1372,-134 1376.91,-131.33 1382.22,-128.99 1387.64,-126.94"/>
<polygon fill="#63b8ff" stroke="#63b8ff" points="1389.13,-130.13 1397.46,-123.58 1386.86,-123.51 1389.13,-130.13"/>
</a>
</g>
</g>
<!-- Node25&#45;&gt;Node6 -->
<g id="edge32_Node000025_Node000006" class="edge">
<title>Node25&#45;&gt;Node6</title>
<g id="a_edge32_Node000025_Node000006"><a xlink:title=" ">
<path fill="none" stroke="#63b8ff" d="M1486.68,-104.45C1514.94,-97.82 1552.79,-88.94 1582.98,-81.86"/>
<polygon fill="#63b8ff" stroke="#63b8ff" points="1583.96,-85.22 1592.89,-79.53 1582.36,-78.41 1583.96,-85.22"/>
</a>
</g>
</g>
<!-- Node26 -->
<g id="Node000026" class="node">
<title>Node26</title>
<g id="a_Node000026"><a xlink:href="../../db/df4/classTimeout_abbabe99f42e52472ddd3a7e9d22dce95.xhtml#abbabe99f42e52472ddd3a7e9d22dce95" target="_top" xlink:title=" ">
<polygon fill="white" stroke="#666666" points="1689,-121.5 1580,-121.5 1580,-102.5 1689,-102.5 1689,-121.5"/>
<text text-anchor="middle" x="1634.5" y="-109.5" font-family="Helvetica,sans-Serif" font-size="10.00">Timeout::timedOut</text>
</a>
</g>
</g>
<!-- Node25&#45;&gt;Node26 -->
<g id="edge33_Node000025_Node000026" class="edge">
<title>Node25&#45;&gt;Node26</title>
<g id="a_edge33_Node000025_Node000026"><a xlink:title=" ">
<path fill="none" stroke="#63b8ff" d="M1518.22,-113.23C1535.23,-113.05 1553.22,-112.86 1569.82,-112.68"/>
<polygon fill="#63b8ff" stroke="#63b8ff" points="1569.98,-116.18 1579.95,-112.57 1569.91,-109.18 1569.98,-116.18"/>
</a>
</g>
</g>
<!-- Node27 -->
<g id="Node000027" class="node">
<title>Node27</title>
<g id="a_Node000027"><a xlink:href="../../db/df4/classTimeout_a9a72ea0591f11452fb15bfaa1ae5108a.xhtml#a9a72ea0591f11452fb15bfaa1ae5108a" target="_top" xlink:title=" ">
<polygon fill="white" stroke="#666666" points="1857.5,-120.5 1755.5,-120.5 1755.5,-101.5 1857.5,-101.5 1857.5,-120.5"/>
<text text-anchor="middle" x="1806.5" y="-108.5" font-family="Helvetica,sans-Serif" font-size="10.00">Timeout::millis16</text>
</a>
</g>
</g>
<!-- Node26&#45;&gt;Node27 -->
<g id="edge34_Node000026_Node000027" class="edge">
<title>Node26&#45;&gt;Node27</title>
<g id="a_edge34_Node000026_Node000027"><a xlink:title=" ">
<path fill="none" stroke="#63b8ff" d="M1689.29,-111.68C1707.02,-111.58 1726.85,-111.46 1745.04,-111.36"/>
<polygon fill="#63b8ff" stroke="#63b8ff" points="1745.26,-114.85 1755.24,-111.3 1745.22,-107.85 1745.26,-114.85"/>
</a>
</g>
</g>
<!-- Node28 -->
<g id="Node000028" class="node">
<title>Node28</title>
<g id="a_Node000028"><a xlink:href="../../d5/df3/wiring_8c_a6ff7f2532a22366f0013bc41397129fd.xhtml#a6ff7f2532a22366f0013bc41397129fd" target="_top" xlink:title=" ">
<polygon fill="white" stroke="#666666" points="1957,-120.5 1913,-120.5 1913,-101.5 1957,-101.5 1957,-120.5"/>
<text text-anchor="middle" x="1935" y="-108.5" font-family="Helvetica,sans-Serif" font-size="10.00">millis</text>
</a>
</g>
</g>
<!-- Node27&#45;&gt;Node28 -->
<g id="edge35_Node000027_Node000028" class="edge">
<title>Node27&#45;&gt;Node28</title>
<g id="a_edge35_Node000027_Node000028"><a xlink:title=" ">
<path fill="none" stroke="#63b8ff" d="M1857.86,-111C1872.97,-111 1889.11,-111 1902.62,-111"/>
<polygon fill="#63b8ff" stroke="#63b8ff" points="1902.83,-114.5 1912.83,-111 1902.83,-107.5 1902.83,-114.5"/>
</a>
</g>
</g>
<!-- Node29&#45;&gt;Node29 -->
<g id="edge39_Node000029_Node000029" class="edge">
<title>Node29&#45;&gt;Node29</title>
<g id="a_edge39_Node000029_Node000029"><a xlink:title=" ">
<path fill="none" stroke="#63b8ff" d="M859.91,-541.58C845.51,-550.23 855.38,-559.5 889.5,-559.5 912.96,-559.5 924.95,-555.12 925.48,-549.57"/>
<polygon fill="#63b8ff" stroke="#63b8ff" points="928.07,-547.21 919.09,-541.58 922.61,-551.58 928.07,-547.21"/>
</a>
</g>
</g>
<!-- Node33 -->
<g id="Node000033" class="node">
<title>Node33</title>
<g id="a_Node000033"><a xlink:href="../../d8/d7f/classSharedSpiCard_adf2ce56ca0a56fe841fbdf75f7f3faee.xhtml#adf2ce56ca0a56fe841fbdf75f7f3faee" target="_top" xlink:title=" ">
<polygon fill="white" stroke="#666666" points="771,-318.5 622,-318.5 622,-299.5 771,-299.5 771,-318.5"/>
<text text-anchor="middle" x="696.5" y="-306.5" font-family="Helvetica,sans-Serif" font-size="10.00">SharedSpiCard::writeSector</text>
</a>
</g>
</g>
<!-- Node32&#45;&gt;Node33 -->
<g id="edge44_Node000032_Node000033" class="edge">
<title>Node32&#45;&gt;Node33</title>
<g id="a_edge44_Node000032_Node000033"><a xlink:title=" ">
<path fill="none" stroke="#63b8ff" d="M582.08,-325.05C593.29,-323.46 605.77,-321.69 618.23,-319.93"/>
<polygon fill="#63b8ff" stroke="#63b8ff" points="618.79,-323.39 628.2,-318.52 617.81,-316.46 618.79,-323.39"/>
</a>
</g>
</g>
<!-- Node33&#45;&gt;Node5 -->
<g id="edge45_Node000033_Node000005" class="edge">
<title>Node33&#45;&gt;Node5</title>
<g id="a_edge45_Node000033_Node000005"><a xlink:title=" ">
<path fill="none" stroke="#63b8ff" d="M715.81,-299.41C749.47,-281.79 821.33,-244.17 860.91,-223.44"/>
<polygon fill="#63b8ff" stroke="#63b8ff" points="863.01,-226.3 870.24,-218.56 859.76,-220.1 863.01,-226.3"/>
</a>
</g>
</g>
<!-- Node33&#45;&gt;Node6 -->
<g id="edge47_Node000033_Node000006" class="edge">
<title>Node33&#45;&gt;Node6</title>
<g id="a_edge47_Node000033_Node000006"><a xlink:title=" ">
<path fill="none" stroke="#63b8ff" d="M700.61,-299.29C710.86,-268.66 746.47,-172.97 807,-119 906.4,-30.37 948.83,0 1082,0 1082,0 1082,0 1266,0 1387.39,0 1527.42,-37.31 1594.17,-57.45"/>
<polygon fill="#63b8ff" stroke="#63b8ff" points="1593.27,-60.84 1603.85,-60.41 1595.31,-54.15 1593.27,-60.84"/>
</a>
</g>
</g>
<!-- Node33&#45;&gt;Node19 -->
<g id="edge46_Node000033_Node000019" class="edge">
<title>Node33&#45;&gt;Node19</title>
<g id="a_edge46_Node000033_Node000019"><a xlink:title=" ">
<path fill="none" stroke="#63b8ff" d="M729.23,-318.51C822.67,-345.22 1104.76,-416.51 1336,-378 1363,-373.5 1392.31,-363.09 1413.57,-354.45"/>
<polygon fill="#63b8ff" stroke="#63b8ff" points="1415.14,-357.59 1423.02,-350.51 1412.45,-351.12 1415.14,-357.59"/>
</a>
</g>
</g>
<!-- Node33&#45;&gt;Node20 -->
<g id="edge48_Node000033_Node000020" class="edge">
<title>Node33&#45;&gt;Node20</title>
<g id="a_edge48_Node000033_Node000020"><a xlink:title=" ">
<path fill="none" stroke="#63b8ff" d="M771.12,-306.53C913.82,-301.76 1226.57,-291.28 1369.76,-286.49"/>
<polygon fill="#63b8ff" stroke="#63b8ff" points="1369.9,-289.98 1379.77,-286.15 1369.66,-282.99 1369.9,-289.98"/>
</a>
</g>
</g>
<!-- Node33&#45;&gt;Node25 -->
<g id="edge50_Node000033_Node000025" class="edge">
<title>Node33&#45;&gt;Node25</title>
<g id="a_edge50_Node000033_Node000025"><a xlink:title=" ">
<path fill="none" stroke="#63b8ff" d="M703.96,-299.23C719.23,-276.86 759.84,-221.53 807,-191 982.72,-77.25 1243.69,-89.01 1370.08,-103.3"/>
<polygon fill="#63b8ff" stroke="#63b8ff" points="1369.71,-106.78 1380.04,-104.47 1370.52,-99.83 1369.71,-106.78"/>
</a>
</g>
</g>
<!-- Node33&#45;&gt;Node30 -->
<g id="edge49_Node000033_Node000030" class="edge">
<title>Node33&#45;&gt;Node30</title>
<g id="a_edge49_Node000033_Node000030"><a xlink:title=" ">
<path fill="none" stroke="#63b8ff" d="M707.18,-318.6C725.27,-336.05 766.09,-373.05 807,-394 815.86,-398.54 825.72,-402.35 835.42,-405.51"/>
<polygon fill="#63b8ff" stroke="#63b8ff" points="834.46,-408.87 845.04,-408.45 836.5,-402.18 834.46,-408.87"/>
</a>
</g>
</g>
<!-- Node34 -->
<g id="Node000034" class="node">
<title>Node34</title>
<g id="a_Node000034"><a xlink:href="../../d8/d7f/classSharedSpiCard_a5b6d7ad34f56d0d6a6c5059d920499ba.xhtml#a5b6d7ad34f56d0d6a6c5059d920499ba" target="_top" xlink:title=" ">
<polygon fill="white" stroke="#666666" points="1336,-350.5 1194,-350.5 1194,-331.5 1336,-331.5 1336,-350.5"/>
<text text-anchor="middle" x="1265" y="-338.5" font-family="Helvetica,sans-Serif" font-size="10.00">SharedSpiCard::writeData</text>
</a>
</g>
</g>
<!-- Node33&#45;&gt;Node34 -->
<g id="edge51_Node000033_Node000034" class="edge">
<title>Node33&#45;&gt;Node34</title>
<g id="a_edge51_Node000033_Node000034"><a xlink:title=" ">
<path fill="none" stroke="#63b8ff" d="M771.1,-315.37C783.1,-316.32 795.39,-317.23 807,-318 938.99,-326.74 1092.61,-333.84 1183.89,-337.74"/>
<polygon fill="#63b8ff" stroke="#63b8ff" points="1183.75,-341.24 1193.89,-338.16 1184.05,-334.24 1183.75,-341.24"/>
</a>
</g>
</g>
<!-- Node34&#45;&gt;Node19 -->
<g id="edge52_Node000034_Node000019" class="edge">
<title>Node34&#45;&gt;Node19</title>
<g id="a_edge52_Node000034_Node000019"><a xlink:title=" ">
<path fill="none" stroke="#63b8ff" d="M1336.09,-341C1349.22,-341 1362.92,-341 1375.99,-341"/>
<polygon fill="#63b8ff" stroke="#63b8ff" points="1376.3,-344.5 1386.3,-341 1376.3,-337.5 1376.3,-344.5"/>
</a>
</g>
</g>
<!-- Node34&#45;&gt;Node20 -->
<g id="edge53_Node000034_Node000020" class="edge">
<title>Node34&#45;&gt;Node20</title>
<g id="a_edge53_Node000034_Node000020"><a xlink:title=" ">
<path fill="none" stroke="#63b8ff" d="M1295.79,-331.46C1325.57,-321.92 1371.53,-307.21 1404.37,-296.69"/>
<polygon fill="#63b8ff" stroke="#63b8ff" points="1405.65,-299.95 1414.11,-293.57 1403.52,-293.29 1405.65,-299.95"/>
</a>
</g>
</g>
<!-- Node34&#45;&gt;Node25 -->
<g id="edge54_Node000034_Node000025" class="edge">
<title>Node34&#45;&gt;Node25</title>
<g id="a_edge54_Node000034_Node000025"><a xlink:title=" ">
<path fill="none" stroke="#63b8ff" d="M1283.43,-331.36C1299.54,-321.55 1322.9,-304.83 1336,-284 1372.5,-225.97 1324.39,-183.33 1372,-134 1373.81,-132.12 1375.79,-130.41 1377.88,-128.86"/>
<polygon fill="#63b8ff" stroke="#63b8ff" points="1379.78,-131.81 1386.51,-123.63 1376.14,-125.83 1379.78,-131.81"/>
</a>
</g>
</g>
<!-- Node34&#45;&gt;Node34 -->
<g id="edge55_Node000034_Node000034" class="edge">
<title>Node34&#45;&gt;Node34</title>
<g id="a_edge55_Node000034_Node000034"><a xlink:title=" ">
<path fill="none" stroke="#63b8ff" d="M1237.26,-350.58C1223.76,-359.23 1233.01,-368.5 1265,-368.5 1286.49,-368.5 1297.72,-364.32 1298.68,-358.95"/>
<polygon fill="#63b8ff" stroke="#63b8ff" points="1301.39,-356.71 1292.74,-350.58 1295.68,-360.76 1301.39,-356.71"/>
</a>
</g>
</g>
</g>
</svg>

<g id="navigator" transform="translate(0 0)" fill="#404254">
  <rect fill="#f2f5e9" fill-opacity="0.5" stroke="#606060" stroke-width=".5" x="0" y="0" width="60" height="60"/>
  <use id="zoomplus" xlink:href="#zoomPlus" x="17" y="9" onmousedown="handleZoom(evt,'in')"/>
  <use id="zoomminus" xlink:href="#zoomMin" x="42" y="9" onmousedown="handleZoom(evt,'out')"/>
  <use id="reset" xlink:href="#resetDef" x="30" y="36" onmousedown="handleReset()"/>
   <use id="arrowup" xlink:href="#arrowUp" x="0" y="0" onmousedown="handlePan(0,-1)"/>
  <use id="arrowright" xlink:href="#arrowRight" x="0" y="0" onmousedown="handlePan(1,0)"/>
  <use id="arrowdown" xlink:href="#arrowDown" x="0" y="0" onmousedown="handlePan(0,1)"/>
  <use id="arrowleft" xlink:href="#arrowLeft" x="0" y="0" onmousedown="handlePan(-1,0)"/>
</g>
<svg viewBox="0 0 15 15" width="100%" height="30px" preserveAspectRatio="xMaxYMin meet">
 <g id="arrow_out" transform="scale(0.3 0.3)">
  <a xlink:href="classExFatPartition_a1092830e46501f07f54afa9f654ede0c_a1092830e46501f07f54afa9f654ede0c_cgraph_org.svg" target="_base">
   <rect id="button" ry="5" rx="5" y="6" x="6" height="38" width="38"
        fill="#f2f5e9" fill-opacity="0.5" stroke="#606060" stroke-width="1.0"/>
   <path id="arrow"
     d="M 11.500037,31.436501 C 11.940474,20.09759 22.043105,11.32322 32.158766,21.979434 L 37.068811,17.246167 C 37.068811,17.246167 37.088388,32 37.088388,32 L 22.160133,31.978069 C 22.160133,31.978069 26.997745,27.140456 26.997745,27.140456 C 18.528582,18.264221 13.291696,25.230495 11.500037,31.436501 z"
     style="fill:#404040;"/>
  </a>
 </g>
</svg>

<style type='text/css'>
<![CDATA[
[data-mouse-over-selected='false'] { opacity: 0.7; }
[data-mouse-over-selected='true']  { opacity: 1.0; }
]]>
</style>
<script type="application/ecmascript"><![CDATA[
document.addEventListener('DOMContentLoaded', (event) => {
  highlightEdges();
  highlightAdjacentNodes();
});
]]></script>
</svg>
