<?xml version="1.0" encoding="UTF-8" standalone="no"?>
<!DOCTYPE svg PUBLIC "-//W3C//DTD SVG 1.1//EN"
 "http://www.w3.org/Graphics/SVG/1.1/DTD/svg11.dtd">
<!-- Generated by graphviz version 2.43.0 (0)
 -->
<!-- Title: ExFatPartition::dmpBitmap Pages: 1 -->
<svg width="2273pt" height="568pt"
 viewBox="0.00 0.00 2273.00 567.50" xmlns="http://www.w3.org/2000/svg" xmlns:xlink="http://www.w3.org/1999/xlink">
<g id="graph0" class="graph" transform="scale(1 1) rotate(0) translate(4 563.5)">
<title>ExFatPartition::dmpBitmap</title>
<!-- Node1 -->
<g id="Node000001" class="node">
<title>Node1</title>
<g id="a_Node000001"><a xlink:title=" ">
<polygon fill="#999999" stroke="#666666" points="146,-374.5 0,-374.5 0,-355.5 146,-355.5 146,-374.5"/>
<text text-anchor="middle" x="73" y="-362.5" font-family="Helvetica,sans-Serif" font-size="10.00">ExFatPartition::dmpBitmap</text>
</a>
</g>
</g>
<!-- Node2 -->
<g id="Node000002" class="node">
<title>Node2</title>
<g id="a_Node000002"><a xlink:href="../../d0/d63/classExFatPartition.xhtml#a1092830e46501f07f54afa9f654ede0c" target="_top" xlink:title=" ">
<polygon fill="white" stroke="#666666" points="324,-374.5 182,-374.5 182,-355.5 324,-355.5 324,-374.5"/>
<text text-anchor="middle" x="253" y="-362.5" font-family="Helvetica,sans-Serif" font-size="10.00">ExFatPartition::dmpSector</text>
</a>
</g>
</g>
<!-- Node1&#45;&gt;Node2 -->
<g id="edge1_Node000001_Node000002" class="edge">
<title>Node1&#45;&gt;Node2</title>
<g id="a_edge1_Node000001_Node000002"><a xlink:title=" ">
<path fill="none" stroke="#63b8ff" d="M146.14,-365C154.5,-365 163.07,-365 171.53,-365"/>
<polygon fill="#63b8ff" stroke="#63b8ff" points="171.77,-368.5 181.77,-365 171.77,-361.5 171.77,-368.5"/>
</a>
</g>
</g>
<!-- Node3 -->
<g id="Node000003" class="node">
<title>Node3</title>
<g id="a_Node000003"><a xlink:href="../../d0/d63/classExFatPartition.xhtml#a236e1ae2dfd3e7acc8dfa0cbf4658453" target="_top" xlink:title=" ">
<polygon fill="white" stroke="#666666" points="501,-402 360,-402 360,-372 501,-372 501,-402"/>
<text text-anchor="start" x="368" y="-390" font-family="Helvetica,sans-Serif" font-size="10.00">ExFatPartition::dataCache</text>
<text text-anchor="middle" x="430.5" y="-379" font-family="Helvetica,sans-Serif" font-size="10.00">Prepare</text>
</a>
</g>
</g>
<!-- Node2&#45;&gt;Node3 -->
<g id="edge2_Node000002_Node000003" class="edge">
<title>Node2&#45;&gt;Node3</title>
<g id="a_edge2_Node000002_Node000003"><a xlink:title=" ">
<path fill="none" stroke="#63b8ff" d="M324.12,-373.79C332.56,-374.85 341.23,-375.93 349.79,-377.01"/>
<polygon fill="#63b8ff" stroke="#63b8ff" points="349.42,-380.49 359.78,-378.26 350.29,-373.54 349.42,-380.49"/>
</a>
</g>
</g>
<!-- Node36 -->
<g id="Node000036" class="node">
<title>Node36</title>
<g id="a_Node000036"><a xlink:href="../../d2/d2b/ExFatDbg_8cpp.xhtml#a55d1092a0a775f867ae2addf15861c3a" target="_top" xlink:title=" ">
<polygon fill="white" stroke="#666666" points="460,-353.5 401,-353.5 401,-334.5 460,-334.5 460,-353.5"/>
<text text-anchor="middle" x="430.5" y="-341.5" font-family="Helvetica,sans-Serif" font-size="10.00">printHex</text>
</a>
</g>
</g>
<!-- Node2&#45;&gt;Node36 -->
<g id="edge57_Node000002_Node000036" class="edge">
<title>Node2&#45;&gt;Node36</title>
<g id="a_edge57_Node000002_Node000036"><a xlink:title=" ">
<path fill="none" stroke="#63b8ff" d="M324.12,-356.61C346.78,-353.9 371.08,-350.99 390.62,-348.65"/>
<polygon fill="#63b8ff" stroke="#63b8ff" points="391.15,-352.11 400.66,-347.45 390.32,-345.16 391.15,-352.11"/>
</a>
</g>
</g>
<!-- Node4 -->
<g id="Node000004" class="node">
<title>Node4</title>
<g id="a_Node000004"><a xlink:href="../../dd/db1/classFsCache.xhtml#a8c11f064a2ce0a380f522392f09d63cb" target="_top" xlink:title=" ">
<polygon fill="white" stroke="#666666" points="638,-396.5 537,-396.5 537,-377.5 638,-377.5 638,-396.5"/>
<text text-anchor="middle" x="587.5" y="-384.5" font-family="Helvetica,sans-Serif" font-size="10.00">FsCache::prepare</text>
</a>
</g>
</g>
<!-- Node3&#45;&gt;Node4 -->
<g id="edge3_Node000003_Node000004" class="edge">
<title>Node3&#45;&gt;Node4</title>
<g id="a_edge3_Node000003_Node000004"><a xlink:title=" ">
<path fill="none" stroke="#63b8ff" d="M501.29,-387C509.65,-387 518.14,-387 526.35,-387"/>
<polygon fill="#63b8ff" stroke="#63b8ff" points="526.57,-390.5 536.57,-387 526.57,-383.5 526.57,-390.5"/>
</a>
</g>
</g>
<!-- Node5 -->
<g id="Node000005" class="node">
<title>Node5</title>
<g id="a_Node000005"><a xlink:href="../../d8/d7f/classSharedSpiCard.xhtml#a61d86f4092f8ddbc7339d7cbcf6f70c0" target="_top" xlink:title=" ">
<polygon fill="white" stroke="#666666" points="951.5,-446.5 805.5,-446.5 805.5,-427.5 951.5,-427.5 951.5,-446.5"/>
<text text-anchor="middle" x="878.5" y="-434.5" font-family="Helvetica,sans-Serif" font-size="10.00">SharedSpiCard::readSector</text>
</a>
</g>
</g>
<!-- Node4&#45;&gt;Node5 -->
<g id="edge4_Node000004_Node000005" class="edge">
<title>Node4&#45;&gt;Node5</title>
<g id="a_edge4_Node000004_Node000005"><a xlink:title=" ">
<path fill="none" stroke="#63b8ff" d="M628.83,-396.55C643.06,-399.76 659.2,-403.23 674,-406 714.3,-413.54 759.34,-420.54 796.79,-425.98"/>
<polygon fill="#63b8ff" stroke="#63b8ff" points="796.74,-429.51 807.14,-427.47 797.74,-422.58 796.74,-429.51"/>
</a>
</g>
</g>
<!-- Node32 -->
<g id="Node000032" class="node">
<title>Node32</title>
<g id="a_Node000032"><a xlink:href="../../dd/db1/classFsCache.xhtml#a5b90e145400de8687d9f34536b134130" target="_top" xlink:title=" ">
<polygon fill="white" stroke="#666666" points="768,-396.5 674,-396.5 674,-377.5 768,-377.5 768,-396.5"/>
<text text-anchor="middle" x="721" y="-384.5" font-family="Helvetica,sans-Serif" font-size="10.00">FsCache::sector</text>
</a>
</g>
</g>
<!-- Node4&#45;&gt;Node32 -->
<g id="edge43_Node000004_Node000032" class="edge">
<title>Node4&#45;&gt;Node32</title>
<g id="a_edge43_Node000004_Node000032"><a xlink:title=" ">
<path fill="none" stroke="#63b8ff" d="M638.21,-387C646.49,-387 655.12,-387 663.55,-387"/>
<polygon fill="#63b8ff" stroke="#63b8ff" points="663.68,-390.5 673.68,-387 663.68,-383.5 663.68,-390.5"/>
</a>
</g>
</g>
<!-- Node33 -->
<g id="Node000033" class="node">
<title>Node33</title>
<g id="a_Node000033"><a xlink:href="../../dd/db1/classFsCache.xhtml#a5a2c8fb432d7b7590ebb43200ca21893" target="_top" xlink:title=" ">
<polygon fill="white" stroke="#666666" points="764,-340.5 678,-340.5 678,-321.5 764,-321.5 764,-340.5"/>
<text text-anchor="middle" x="721" y="-328.5" font-family="Helvetica,sans-Serif" font-size="10.00">FsCache::sync</text>
</a>
</g>
</g>
<!-- Node4&#45;&gt;Node33 -->
<g id="edge44_Node000004_Node000033" class="edge">
<title>Node4&#45;&gt;Node33</title>
<g id="a_edge44_Node000004_Node000033"><a xlink:title=" ">
<path fill="none" stroke="#63b8ff" d="M611.11,-377.37C632.4,-368.3 664.52,-354.63 688.36,-344.48"/>
<polygon fill="#63b8ff" stroke="#63b8ff" points="689.86,-347.64 697.69,-340.5 687.12,-341.2 689.86,-347.64"/>
</a>
</g>
</g>
<!-- Node6 -->
<g id="Node000006" class="node">
<title>Node6</title>
<g id="a_Node000006"><a xlink:href="../../d8/d7f/classSharedSpiCard.xhtml#adda33199753fc2aec74fe317cbaabc06" target="_top" xlink:title=" ">
<polygon fill="white" stroke="#666666" points="1154,-218.5 989,-218.5 989,-199.5 1154,-199.5 1154,-218.5"/>
<text text-anchor="middle" x="1071.5" y="-206.5" font-family="Helvetica,sans-Serif" font-size="10.00">SharedSpiCard::cardCommand</text>
</a>
</g>
</g>
<!-- Node5&#45;&gt;Node6 -->
<g id="edge5_Node000005_Node000006" class="edge">
<title>Node5&#45;&gt;Node6</title>
<g id="a_edge5_Node000005_Node000006"><a xlink:title=" ">
<path fill="none" stroke="#63b8ff" d="M887.46,-427.49C916.65,-392.66 1018.01,-271.66 1055.99,-226.33"/>
<polygon fill="#63b8ff" stroke="#63b8ff" points="1058.76,-228.46 1062.5,-218.55 1053.4,-223.97 1058.76,-228.46"/>
</a>
</g>
</g>
<!-- Node20 -->
<g id="Node000020" class="node">
<title>Node20</title>
<g id="a_Node000020"><a xlink:href="../../d8/d7f/classSharedSpiCard.xhtml#a747c3f0b962098cf0c097f3c4c2b4fd4" target="_top" xlink:title=" ">
<polygon fill="white" stroke="#666666" points="1685.5,-350.5 1568.5,-350.5 1568.5,-331.5 1685.5,-331.5 1685.5,-350.5"/>
<text text-anchor="middle" x="1627" y="-338.5" font-family="Helvetica,sans-Serif" font-size="10.00">SharedSpiCard::error</text>
</a>
</g>
</g>
<!-- Node5&#45;&gt;Node20 -->
<g id="edge38_Node000005_Node000020" class="edge">
<title>Node5&#45;&gt;Node20</title>
<g id="a_edge38_Node000005_Node000020"><a xlink:title=" ">
<path fill="none" stroke="#63b8ff" d="M905.48,-446.6C995.56,-478.21 1300.76,-571.45 1518,-470 1567,-447.12 1601.62,-389.85 1617.03,-359.91"/>
<polygon fill="#63b8ff" stroke="#63b8ff" points="1620.36,-361.07 1621.67,-350.56 1614.09,-357.96 1620.36,-361.07"/>
</a>
</g>
</g>
<!-- Node21 -->
<g id="Node000021" class="node">
<title>Node21</title>
<g id="a_Node000021"><a xlink:href="../../d8/d7f/classSharedSpiCard.xhtml#a0f511c39c50055a4fc97e720933aee3a" target="_top" xlink:title=" ">
<polygon fill="white" stroke="#666666" points="1692,-293.5 1562,-293.5 1562,-274.5 1692,-274.5 1692,-293.5"/>
<text text-anchor="middle" x="1627" y="-281.5" font-family="Helvetica,sans-Serif" font-size="10.00">SharedSpiCard::spiStop</text>
</a>
</g>
</g>
<!-- Node5&#45;&gt;Node21 -->
<g id="edge41_Node000005_Node000021" class="edge">
<title>Node5&#45;&gt;Node21</title>
<g id="a_edge41_Node000005_Node000021"><a xlink:title=" ">
<path fill="none" stroke="#63b8ff" d="M927.15,-446.51C1040.18,-466.32 1329.17,-500.63 1518,-378 1542.5,-362.09 1532.5,-342.78 1554,-323 1565.11,-312.78 1579.4,-304.32 1592.31,-297.93"/>
<polygon fill="#63b8ff" stroke="#63b8ff" points="1593.85,-301.07 1601.41,-293.64 1590.87,-294.74 1593.85,-301.07"/>
</a>
</g>
</g>
<!-- Node30 -->
<g id="Node000030" class="node">
<title>Node30</title>
<g id="a_Node000030"><a xlink:href="../../d8/d7f/classSharedSpiCard.xhtml#abeae3cdc162f24c2d450abe4e1ed8340" target="_top" xlink:title=" ">
<polygon fill="white" stroke="#666666" points="1141,-541.5 1002,-541.5 1002,-522.5 1141,-522.5 1141,-541.5"/>
<text text-anchor="middle" x="1071.5" y="-529.5" font-family="Helvetica,sans-Serif" font-size="10.00">SharedSpiCard::readData</text>
</a>
</g>
</g>
<!-- Node5&#45;&gt;Node30 -->
<g id="edge39_Node000005_Node000030" class="edge">
<title>Node5&#45;&gt;Node30</title>
<g id="a_edge39_Node000005_Node000030"><a xlink:title=" ">
<path fill="none" stroke="#63b8ff" d="M891.62,-446.56C911.12,-461.53 951.12,-490.59 989,-508 998.65,-512.43 1009.32,-516.27 1019.67,-519.5"/>
<polygon fill="#63b8ff" stroke="#63b8ff" points="1018.87,-522.91 1029.45,-522.41 1020.86,-516.2 1018.87,-522.91"/>
</a>
</g>
</g>
<!-- Node31 -->
<g id="Node000031" class="node">
<title>Node31</title>
<g id="a_Node000031"><a xlink:href="../../d8/d7f/classSharedSpiCard.xhtml#a7dac2190763d7b4b72163ed7131e8a87" target="_top" xlink:title=" ">
<polygon fill="white" stroke="#666666" points="1129.5,-427.5 1013.5,-427.5 1013.5,-408.5 1129.5,-408.5 1129.5,-427.5"/>
<text text-anchor="middle" x="1071.5" y="-415.5" font-family="Helvetica,sans-Serif" font-size="10.00">SharedSpiCard::type</text>
</a>
</g>
</g>
<!-- Node5&#45;&gt;Node31 -->
<g id="edge42_Node000005_Node000031" class="edge">
<title>Node5&#45;&gt;Node31</title>
<g id="a_edge42_Node000005_Node000031"><a xlink:title=" ">
<path fill="none" stroke="#63b8ff" d="M951.71,-429.82C968.59,-428.14 986.51,-426.35 1003.17,-424.7"/>
<polygon fill="#63b8ff" stroke="#63b8ff" points="1003.76,-428.16 1013.37,-423.68 1003.07,-421.19 1003.76,-428.16"/>
</a>
</g>
</g>
<!-- Node7 -->
<g id="Node000007" class="node">
<title>Node7</title>
<g id="a_Node000007"><a xlink:href="../../d8/d7f/classSharedSpiCard.xhtml#a08363209d938db87521cca6a84146041" target="_top" xlink:title=" ">
<polygon fill="white" stroke="#666666" points="1890,-79.5 1743,-79.5 1743,-60.5 1890,-60.5 1890,-79.5"/>
<text text-anchor="middle" x="1816.5" y="-67.5" font-family="Helvetica,sans-Serif" font-size="10.00">SharedSpiCard::spiReceive</text>
</a>
</g>
</g>
<!-- Node6&#45;&gt;Node7 -->
<g id="edge6_Node000006_Node000007" class="edge">
<title>Node6&#45;&gt;Node7</title>
<g id="a_edge6_Node000006_Node000007"><a xlink:title=" ">
<path fill="none" stroke="#63b8ff" d="M1081.76,-199.34C1100.27,-180.72 1144.07,-140.19 1190,-123 1374.4,-53.97 1610.07,-55.98 1732.8,-63.14"/>
<polygon fill="#63b8ff" stroke="#63b8ff" points="1732.68,-66.64 1742.87,-63.75 1733.11,-59.65 1732.68,-66.64"/>
</a>
</g>
</g>
<!-- Node9 -->
<g id="Node000009" class="node">
<title>Node9</title>
<g id="a_Node000009"><a xlink:href="../../d8/d7f/classSharedSpiCard.xhtml#ab311b9ad8a250f06afbe091f7abb118b" target="_top" xlink:title=" ">
<polygon fill="white" stroke="#666666" points="1882.5,-236.5 1750.5,-236.5 1750.5,-217.5 1882.5,-217.5 1882.5,-236.5"/>
<text text-anchor="middle" x="1816.5" y="-224.5" font-family="Helvetica,sans-Serif" font-size="10.00">SharedSpiCard::spiSend</text>
</a>
</g>
</g>
<!-- Node6&#45;&gt;Node9 -->
<g id="edge8_Node000006_Node000009" class="edge">
<title>Node6&#45;&gt;Node9</title>
<g id="a_edge8_Node000006_Node000009"><a xlink:title=" ">
<path fill="none" stroke="#63b8ff" d="M1154.22,-207.84C1243.59,-206.89 1391.02,-206.23 1518,-210 1593.65,-212.24 1679.98,-217.47 1740.09,-221.55"/>
<polygon fill="#63b8ff" stroke="#63b8ff" points="1740.04,-225.05 1750.25,-222.24 1740.52,-218.07 1740.04,-225.05"/>
</a>
</g>
</g>
<!-- Node11 -->
<g id="Node000011" class="node">
<title>Node11</title>
<g id="a_Node000011"><a xlink:href="../../d8/d7f/classSharedSpiCard.xhtml#aef2dfa72e8d5643c90720f9f8c6a4254" target="_top" xlink:title=" ">
<polygon fill="white" stroke="#666666" points="1692.5,-161.5 1561.5,-161.5 1561.5,-142.5 1692.5,-142.5 1692.5,-161.5"/>
<text text-anchor="middle" x="1627" y="-149.5" font-family="Helvetica,sans-Serif" font-size="10.00">SharedSpiCard::spiStart</text>
</a>
</g>
</g>
<!-- Node6&#45;&gt;Node11 -->
<g id="edge10_Node000006_Node000011" class="edge">
<title>Node6&#45;&gt;Node11</title>
<g id="a_edge10_Node000006_Node000011"><a xlink:title=" ">
<path fill="none" stroke="#63b8ff" d="M1100.13,-199.39C1123.69,-191.64 1158.65,-181.2 1190,-176 1315.53,-155.18 1463.89,-151.34 1551.17,-151.17"/>
<polygon fill="#63b8ff" stroke="#63b8ff" points="1551.25,-154.67 1561.25,-151.17 1551.25,-147.67 1551.25,-154.67"/>
</a>
</g>
</g>
<!-- Node18 -->
<g id="Node000018" class="node">
<title>Node18</title>
<g id="a_Node000018"><a xlink:href="../../d8/d7f/classSharedSpiCard.xhtml#a2f181b3d6f27413a0f5ee883dfd94d87" target="_top" xlink:title=" ">
<polygon fill="white" stroke="#666666" points="1340,-237.5 1190,-237.5 1190,-218.5 1340,-218.5 1340,-237.5"/>
<text text-anchor="middle" x="1265" y="-225.5" font-family="Helvetica,sans-Serif" font-size="10.00">SharedSpiCard::syncDevice</text>
</a>
</g>
</g>
<!-- Node6&#45;&gt;Node18 -->
<g id="edge18_Node000006_Node000018" class="edge">
<title>Node6&#45;&gt;Node18</title>
<g id="a_edge18_Node000006_Node000018"><a xlink:title=" ">
<path fill="none" stroke="#63b8ff" d="M1154.27,-217.11C1162.65,-217.94 1171.18,-218.79 1179.59,-219.63"/>
<polygon fill="#63b8ff" stroke="#63b8ff" points="1179.48,-223.13 1189.78,-220.64 1180.17,-216.17 1179.48,-223.13"/>
</a>
</g>
</g>
<!-- Node26 -->
<g id="Node000026" class="node">
<title>Node26</title>
<g id="a_Node000026"><a xlink:href="../../d8/d7f/classSharedSpiCard.xhtml#ab3468397bb3b12d29dd2f31e45b3dcaf" target="_top" xlink:title=" ">
<polygon fill="white" stroke="#666666" points="1700,-123.5 1554,-123.5 1554,-104.5 1700,-104.5 1700,-123.5"/>
<text text-anchor="middle" x="1627" y="-111.5" font-family="Helvetica,sans-Serif" font-size="10.00">SharedSpiCard::waitReady</text>
</a>
</g>
</g>
<!-- Node6&#45;&gt;Node26 -->
<g id="edge37_Node000006_Node000026" class="edge">
<title>Node6&#45;&gt;Node26</title>
<g id="a_edge37_Node000006_Node000026"><a xlink:title=" ">
<path fill="none" stroke="#63b8ff" d="M1088.57,-199.48C1110.61,-186.93 1151.84,-165.24 1190,-155 1310.2,-122.73 1454.94,-114.97 1543.7,-113.56"/>
<polygon fill="#63b8ff" stroke="#63b8ff" points="1543.76,-117.06 1553.71,-113.43 1543.66,-110.06 1543.76,-117.06"/>
</a>
</g>
</g>
<!-- Node8 -->
<g id="Node000008" class="node">
<title>Node8</title>
<g id="a_Node000008"><a xlink:href="../../d0/d25/classSdSpiArduinoDriver.xhtml#a8d6bc852a52e9d69c4b1e48ee062e8d1" target="_top" xlink:title=" ">
<polygon fill="white" stroke="#666666" points="2044,-83 1933,-83 1933,-53 2044,-53 2044,-83"/>
<text text-anchor="start" x="1941" y="-71" font-family="Helvetica,sans-Serif" font-size="10.00">SdSpiArduinoDriver</text>
<text text-anchor="middle" x="1988.5" y="-60" font-family="Helvetica,sans-Serif" font-size="10.00">::receive</text>
</a>
</g>
</g>
<!-- Node7&#45;&gt;Node8 -->
<g id="edge7_Node000007_Node000008" class="edge">
<title>Node7&#45;&gt;Node8</title>
<g id="a_edge7_Node000007_Node000008"><a xlink:title=" ">
<path fill="none" stroke="#63b8ff" d="M1890.09,-69.15C1900.96,-69.02 1912.11,-68.89 1922.81,-68.76"/>
<polygon fill="#63b8ff" stroke="#63b8ff" points="1922.94,-72.26 1932.9,-68.64 1922.86,-65.26 1922.94,-72.26"/>
</a>
</g>
</g>
<!-- Node10 -->
<g id="Node000010" class="node">
<title>Node10</title>
<g id="a_Node000010"><a xlink:href="../../d0/d25/classSdSpiArduinoDriver.xhtml#a3c4842e47f98fe5d3799cd6028778ab5" target="_top" xlink:title=" ">
<polygon fill="white" stroke="#666666" points="2044,-255 1933,-255 1933,-225 2044,-225 2044,-255"/>
<text text-anchor="start" x="1941" y="-243" font-family="Helvetica,sans-Serif" font-size="10.00">SdSpiArduinoDriver</text>
<text text-anchor="middle" x="1988.5" y="-232" font-family="Helvetica,sans-Serif" font-size="10.00">::send</text>
</a>
</g>
</g>
<!-- Node9&#45;&gt;Node10 -->
<g id="edge9_Node000009_Node000010" class="edge">
<title>Node9&#45;&gt;Node10</title>
<g id="a_edge9_Node000009_Node000010"><a xlink:title=" ">
<path fill="none" stroke="#63b8ff" d="M1882.74,-231.99C1895.82,-232.99 1909.56,-234.04 1922.62,-235.04"/>
<polygon fill="#63b8ff" stroke="#63b8ff" points="1922.69,-238.55 1932.93,-235.83 1923.22,-231.57 1922.69,-238.55"/>
</a>
</g>
</g>
<!-- Node11&#45;&gt;Node9 -->
<g id="edge17_Node000011_Node000009" class="edge">
<title>Node11&#45;&gt;Node9</title>
<g id="a_edge17_Node000011_Node000009"><a xlink:title=" ">
<path fill="none" stroke="#63b8ff" d="M1666.67,-161.6C1677.85,-165.23 1689.78,-169.99 1700,-176 1718.71,-187.01 1716.77,-198.93 1736,-209 1739.57,-210.87 1743.32,-212.54 1747.18,-214.04"/>
<polygon fill="#63b8ff" stroke="#63b8ff" points="1746.33,-217.45 1756.93,-217.43 1748.63,-210.84 1746.33,-217.45"/>
</a>
</g>
</g>
<!-- Node12 -->
<g id="Node000012" class="node">
<title>Node12</title>
<g id="a_Node000012"><a xlink:href="../../d8/d7f/classSharedSpiCard.xhtml#a69ee2fe49dfaeea2347d8a265806d2b6" target="_top" xlink:title=" ">
<polygon fill="white" stroke="#666666" points="1891,-161.5 1742,-161.5 1742,-142.5 1891,-142.5 1891,-161.5"/>
<text text-anchor="middle" x="1816.5" y="-149.5" font-family="Helvetica,sans-Serif" font-size="10.00">SharedSpiCard::spiActivate</text>
</a>
</g>
</g>
<!-- Node11&#45;&gt;Node12 -->
<g id="edge11_Node000011_Node000012" class="edge">
<title>Node11&#45;&gt;Node12</title>
<g id="a_edge11_Node000011_Node000012"><a xlink:title=" ">
<path fill="none" stroke="#63b8ff" d="M1692.53,-152C1705.19,-152 1718.64,-152 1731.82,-152"/>
<polygon fill="#63b8ff" stroke="#63b8ff" points="1731.84,-155.5 1741.84,-152 1731.84,-148.5 1731.84,-155.5"/>
</a>
</g>
</g>
<!-- Node14 -->
<g id="Node000014" class="node">
<title>Node14</title>
<g id="a_Node000014"><a xlink:href="../../d8/d7f/classSharedSpiCard.xhtml#a8c3088599862ff6e84ae79bfdf32aea8" target="_top" xlink:title=" ">
<polygon fill="white" stroke="#666666" points="1885.5,-199.5 1747.5,-199.5 1747.5,-180.5 1885.5,-180.5 1885.5,-199.5"/>
<text text-anchor="middle" x="1816.5" y="-187.5" font-family="Helvetica,sans-Serif" font-size="10.00">SharedSpiCard::spiSelect</text>
</a>
</g>
</g>
<!-- Node11&#45;&gt;Node14 -->
<g id="edge13_Node000011_Node000014" class="edge">
<title>Node11&#45;&gt;Node14</title>
<g id="a_edge13_Node000011_Node000014"><a xlink:title=" ">
<path fill="none" stroke="#63b8ff" d="M1675.31,-161.59C1700.61,-166.72 1731.95,-173.07 1758.57,-178.46"/>
<polygon fill="#63b8ff" stroke="#63b8ff" points="1758.03,-181.92 1768.53,-180.48 1759.42,-175.06 1758.03,-181.92"/>
</a>
</g>
</g>
<!-- Node13 -->
<g id="Node000013" class="node">
<title>Node13</title>
<g id="a_Node000013"><a xlink:href="../../d0/d25/classSdSpiArduinoDriver.xhtml#abb6b88c5c8b87fc344a69f23f6eab3d9" target="_top" xlink:title=" ">
<polygon fill="white" stroke="#666666" points="2044,-169 1933,-169 1933,-139 2044,-139 2044,-169"/>
<text text-anchor="start" x="1941" y="-157" font-family="Helvetica,sans-Serif" font-size="10.00">SdSpiArduinoDriver</text>
<text text-anchor="middle" x="1988.5" y="-146" font-family="Helvetica,sans-Serif" font-size="10.00">::activate</text>
</a>
</g>
</g>
<!-- Node12&#45;&gt;Node13 -->
<g id="edge12_Node000012_Node000013" class="edge">
<title>Node12&#45;&gt;Node13</title>
<g id="a_edge12_Node000012_Node000013"><a xlink:title=" ">
<path fill="none" stroke="#63b8ff" d="M1891.08,-152.87C1901.57,-152.99 1912.31,-153.12 1922.63,-153.24"/>
<polygon fill="#63b8ff" stroke="#63b8ff" points="1922.74,-156.74 1932.78,-153.36 1922.82,-149.74 1922.74,-156.74"/>
</a>
</g>
</g>
<!-- Node15 -->
<g id="Node000015" class="node">
<title>Node15</title>
<g id="a_Node000015"><a xlink:href="../../d2/df0/SdSpiChipSelect_8cpp.xhtml#ac469bbe2d31ffde9b00ffc68258d7428" target="_top" xlink:title=" ">
<polygon fill="white" stroke="#666666" points="2021.5,-206.5 1955.5,-206.5 1955.5,-187.5 2021.5,-187.5 2021.5,-206.5"/>
<text text-anchor="middle" x="1988.5" y="-194.5" font-family="Helvetica,sans-Serif" font-size="10.00">sdCsWrite</text>
</a>
</g>
</g>
<!-- Node14&#45;&gt;Node15 -->
<g id="edge14_Node000014_Node000015" class="edge">
<title>Node14&#45;&gt;Node15</title>
<g id="a_edge14_Node000014_Node000015"><a xlink:title=" ">
<path fill="none" stroke="#63b8ff" d="M1885.67,-192.81C1905.74,-193.63 1927.12,-194.51 1945.09,-195.25"/>
<polygon fill="#63b8ff" stroke="#63b8ff" points="1945.1,-198.76 1955.23,-195.67 1945.38,-191.76 1945.1,-198.76"/>
</a>
</g>
</g>
<!-- Node16 -->
<g id="Node000016" class="node">
<title>Node16</title>
<g id="a_Node000016"><a xlink:href="../../d5/d45/wiring__digital_8c.xhtml#a73b9b61feeaf7d790d107f2954a7fd93" target="_top" xlink:title=" ">
<polygon fill="white" stroke="#666666" points="2154,-206.5 2080,-206.5 2080,-187.5 2154,-187.5 2154,-206.5"/>
<text text-anchor="middle" x="2117" y="-194.5" font-family="Helvetica,sans-Serif" font-size="10.00">digitalWrite</text>
</a>
</g>
</g>
<!-- Node15&#45;&gt;Node16 -->
<g id="edge15_Node000015_Node000016" class="edge">
<title>Node15&#45;&gt;Node16</title>
<g id="a_edge15_Node000015_Node000016"><a xlink:title=" ">
<path fill="none" stroke="#63b8ff" d="M2021.75,-197C2036.28,-197 2053.71,-197 2069.61,-197"/>
<polygon fill="#63b8ff" stroke="#63b8ff" points="2069.79,-200.5 2079.79,-197 2069.79,-193.5 2069.79,-200.5"/>
</a>
</g>
</g>
<!-- Node17 -->
<g id="Node000017" class="node">
<title>Node17</title>
<g id="a_Node000017"><a xlink:href="../../d5/d45/wiring__digital_8c.xhtml#ae3d0bcbe4eb927ca8f5d5c21b7e4f224" target="_top" xlink:title=" ">
<polygon fill="white" stroke="#666666" points="2265,-206.5 2190,-206.5 2190,-187.5 2265,-187.5 2265,-206.5"/>
<text text-anchor="middle" x="2227.5" y="-194.5" font-family="Helvetica,sans-Serif" font-size="10.00">turnOffPWM</text>
</a>
</g>
</g>
<!-- Node16&#45;&gt;Node17 -->
<g id="edge16_Node000016_Node000017" class="edge">
<title>Node16&#45;&gt;Node17</title>
<g id="a_edge16_Node000016_Node000017"><a xlink:title=" ">
<path fill="none" stroke="#63b8ff" d="M2154.13,-197C2162.28,-197 2171.05,-197 2179.57,-197"/>
<polygon fill="#63b8ff" stroke="#63b8ff" points="2179.79,-200.5 2189.79,-197 2179.79,-193.5 2179.79,-200.5"/>
</a>
</g>
</g>
<!-- Node19 -->
<g id="Node000019" class="node">
<title>Node19</title>
<g id="a_Node000019"><a xlink:href="../../d8/d7f/classSharedSpiCard.xhtml#ab33ad2aefbb9cff905cad0879dffc78b" target="_top" xlink:title=" ">
<polygon fill="white" stroke="#666666" points="1515.5,-274.5 1378.5,-274.5 1378.5,-255.5 1515.5,-255.5 1515.5,-274.5"/>
<text text-anchor="middle" x="1447" y="-262.5" font-family="Helvetica,sans-Serif" font-size="10.00">SharedSpiCard::readStop</text>
</a>
</g>
</g>
<!-- Node18&#45;&gt;Node19 -->
<g id="edge19_Node000018_Node000019" class="edge">
<title>Node18&#45;&gt;Node19</title>
<g id="a_edge19_Node000018_Node000019"><a xlink:title=" ">
<path fill="none" stroke="#63b8ff" d="M1312.35,-237.53C1335.88,-242.36 1364.66,-248.28 1389.48,-253.38"/>
<polygon fill="#63b8ff" stroke="#63b8ff" points="1388.99,-256.85 1399.49,-255.44 1390.4,-250 1388.99,-256.85"/>
</a>
</g>
</g>
<!-- Node25 -->
<g id="Node000025" class="node">
<title>Node25</title>
<g id="a_Node000025"><a xlink:href="../../d8/d7f/classSharedSpiCard.xhtml#ae9a34a573077e43e7c6028a16ae77fb3" target="_top" xlink:title=" ">
<polygon fill="white" stroke="#666666" points="1517,-237.5 1377,-237.5 1377,-218.5 1517,-218.5 1517,-237.5"/>
<text text-anchor="middle" x="1447" y="-225.5" font-family="Helvetica,sans-Serif" font-size="10.00">SharedSpiCard::writeStop</text>
</a>
</g>
</g>
<!-- Node18&#45;&gt;Node25 -->
<g id="edge28_Node000018_Node000025" class="edge">
<title>Node18&#45;&gt;Node25</title>
<g id="a_edge28_Node000018_Node000025"><a xlink:title=" ">
<path fill="none" stroke="#63b8ff" d="M1340.25,-228C1348.95,-228 1357.86,-228 1366.62,-228"/>
<polygon fill="#63b8ff" stroke="#63b8ff" points="1366.83,-231.5 1376.83,-228 1366.83,-224.5 1366.83,-231.5"/>
</a>
</g>
</g>
<!-- Node19&#45;&gt;Node6 -->
<g id="edge20_Node000019_Node000006" class="edge">
<title>Node19&#45;&gt;Node6</title>
<g id="a_edge20_Node000019_Node000006"><a xlink:title=" ">
<path fill="none" stroke="#63b8ff" d="M1378.31,-264.7C1326.37,-263.39 1253.09,-259.23 1190,-247 1160.9,-241.36 1128.96,-230.73 1105.74,-222.14"/>
<polygon fill="#63b8ff" stroke="#63b8ff" points="1106.95,-218.86 1096.35,-218.61 1104.48,-225.41 1106.95,-218.86"/>
</a>
</g>
</g>
<!-- Node19&#45;&gt;Node20 -->
<g id="edge21_Node000019_Node000020" class="edge">
<title>Node19&#45;&gt;Node20</title>
<g id="a_edge21_Node000019_Node000020"><a xlink:title=" ">
<path fill="none" stroke="#63b8ff" d="M1470.54,-274.63C1501.84,-287.99 1558.61,-312.23 1594.2,-327.42"/>
<polygon fill="#63b8ff" stroke="#63b8ff" points="1593.07,-330.74 1603.64,-331.45 1595.82,-324.31 1593.07,-330.74"/>
</a>
</g>
</g>
<!-- Node19&#45;&gt;Node21 -->
<g id="edge22_Node000019_Node000021" class="edge">
<title>Node19&#45;&gt;Node21</title>
<g id="a_edge22_Node000019_Node000021"><a xlink:title=" ">
<path fill="none" stroke="#63b8ff" d="M1515.55,-272.21C1527.38,-273.47 1539.75,-274.79 1551.75,-276.07"/>
<polygon fill="#63b8ff" stroke="#63b8ff" points="1551.41,-279.56 1561.73,-277.14 1552.16,-272.6 1551.41,-279.56"/>
</a>
</g>
</g>
<!-- Node21&#45;&gt;Node9 -->
<g id="edge25_Node000021_Node000009" class="edge">
<title>Node21&#45;&gt;Node9</title>
<g id="a_edge25_Node000021_Node000009"><a xlink:title=" ">
<path fill="none" stroke="#63b8ff" d="M1653.07,-274.35C1674.81,-266.18 1707.21,-254.48 1736,-246 1744.41,-243.52 1753.38,-241.14 1762.17,-238.94"/>
<polygon fill="#63b8ff" stroke="#63b8ff" points="1763.08,-242.32 1771.96,-236.54 1761.42,-235.52 1763.08,-242.32"/>
</a>
</g>
</g>
<!-- Node22 -->
<g id="Node000022" class="node">
<title>Node22</title>
<g id="a_Node000022"><a xlink:href="../../d8/d7f/classSharedSpiCard.xhtml#ac6acfca5a23337977d2e4436ab8ab39a" target="_top" xlink:title=" ">
<polygon fill="white" stroke="#666666" points="1897,-310.5 1736,-310.5 1736,-291.5 1897,-291.5 1897,-310.5"/>
<text text-anchor="middle" x="1816.5" y="-298.5" font-family="Helvetica,sans-Serif" font-size="10.00">SharedSpiCard::spiDeactivate</text>
</a>
</g>
</g>
<!-- Node21&#45;&gt;Node22 -->
<g id="edge23_Node000021_Node000022" class="edge">
<title>Node21&#45;&gt;Node22</title>
<g id="a_edge23_Node000021_Node000022"><a xlink:title=" ">
<path fill="none" stroke="#63b8ff" d="M1692,-289.8C1702.92,-290.79 1714.43,-291.84 1725.86,-292.87"/>
<polygon fill="#63b8ff" stroke="#63b8ff" points="1725.59,-296.36 1735.87,-293.78 1726.22,-289.39 1725.59,-296.36"/>
</a>
</g>
</g>
<!-- Node24 -->
<g id="Node000024" class="node">
<title>Node24</title>
<g id="a_Node000024"><a xlink:href="../../d8/d7f/classSharedSpiCard.xhtml#ad06a3278372300987b97876cf598c114" target="_top" xlink:title=" ">
<polygon fill="white" stroke="#666666" points="1892,-273.5 1741,-273.5 1741,-254.5 1892,-254.5 1892,-273.5"/>
<text text-anchor="middle" x="1816.5" y="-261.5" font-family="Helvetica,sans-Serif" font-size="10.00">SharedSpiCard::spiUnselect</text>
</a>
</g>
</g>
<!-- Node21&#45;&gt;Node24 -->
<g id="edge26_Node000021_Node000024" class="edge">
<title>Node21&#45;&gt;Node24</title>
<g id="a_edge26_Node000021_Node000024"><a xlink:title=" ">
<path fill="none" stroke="#63b8ff" d="M1692,-277.17C1704.39,-275.85 1717.55,-274.45 1730.49,-273.07"/>
<polygon fill="#63b8ff" stroke="#63b8ff" points="1731.23,-276.51 1740.8,-271.97 1730.49,-269.55 1731.23,-276.51"/>
</a>
</g>
</g>
<!-- Node23 -->
<g id="Node000023" class="node">
<title>Node23</title>
<g id="a_Node000023"><a xlink:href="../../d0/d25/classSdSpiArduinoDriver.xhtml#ae88a255f533e3acb41d1221025a69b55" target="_top" xlink:title=" ">
<polygon fill="white" stroke="#666666" points="2044,-316 1933,-316 1933,-286 2044,-286 2044,-316"/>
<text text-anchor="start" x="1941" y="-304" font-family="Helvetica,sans-Serif" font-size="10.00">SdSpiArduinoDriver</text>
<text text-anchor="middle" x="1988.5" y="-293" font-family="Helvetica,sans-Serif" font-size="10.00">::deactivate</text>
</a>
</g>
</g>
<!-- Node22&#45;&gt;Node23 -->
<g id="edge24_Node000022_Node000023" class="edge">
<title>Node22&#45;&gt;Node23</title>
<g id="a_edge24_Node000022_Node000023"><a xlink:title=" ">
<path fill="none" stroke="#63b8ff" d="M1897.02,-301C1905.63,-301 1914.3,-301 1922.7,-301"/>
<polygon fill="#63b8ff" stroke="#63b8ff" points="1922.78,-304.5 1932.78,-301 1922.78,-297.5 1922.78,-304.5"/>
</a>
</g>
</g>
<!-- Node24&#45;&gt;Node15 -->
<g id="edge27_Node000024_Node000015" class="edge">
<title>Node24&#45;&gt;Node15</title>
<g id="a_edge27_Node000024_Node000015"><a xlink:title=" ">
<path fill="none" stroke="#63b8ff" d="M1875.08,-254.38C1882.65,-252.14 1890.15,-249.38 1897,-246 1915.67,-236.78 1914.88,-226.26 1933,-216 1936.98,-213.75 1941.28,-211.69 1945.65,-209.84"/>
<polygon fill="#63b8ff" stroke="#63b8ff" points="1947.2,-212.99 1955.25,-206.1 1944.66,-206.47 1947.2,-212.99"/>
</a>
</g>
</g>
<!-- Node25&#45;&gt;Node9 -->
<g id="edge30_Node000025_Node000009" class="edge">
<title>Node25&#45;&gt;Node9</title>
<g id="a_edge30_Node000025_Node000009"><a xlink:title=" ">
<path fill="none" stroke="#63b8ff" d="M1517.12,-227.81C1580.67,-227.64 1674.68,-227.38 1740.14,-227.21"/>
<polygon fill="#63b8ff" stroke="#63b8ff" points="1740.4,-230.7 1750.39,-227.18 1740.38,-223.7 1740.4,-230.7"/>
</a>
</g>
</g>
<!-- Node25&#45;&gt;Node20 -->
<g id="edge29_Node000025_Node000020" class="edge">
<title>Node25&#45;&gt;Node20</title>
<g id="a_edge29_Node000025_Node000020"><a xlink:title=" ">
<path fill="none" stroke="#63b8ff" d="M1500.45,-237.59C1506.69,-240.05 1512.72,-243.13 1518,-247 1541.87,-264.49 1532.2,-282.99 1554,-303 1564.79,-312.9 1578.63,-321.01 1591.3,-327.16"/>
<polygon fill="#63b8ff" stroke="#63b8ff" points="1590.13,-330.48 1600.68,-331.47 1593.06,-324.12 1590.13,-330.48"/>
</a>
</g>
</g>
<!-- Node25&#45;&gt;Node21 -->
<g id="edge31_Node000025_Node000021" class="edge">
<title>Node25&#45;&gt;Node21</title>
<g id="a_edge31_Node000025_Node000021"><a xlink:title=" ">
<path fill="none" stroke="#63b8ff" d="M1484.82,-237.51C1495.56,-240.42 1507.29,-243.71 1518,-247 1542.21,-254.42 1569.16,-263.65 1590.08,-271.04"/>
<polygon fill="#63b8ff" stroke="#63b8ff" points="1588.93,-274.35 1599.53,-274.39 1591.27,-267.75 1588.93,-274.35"/>
</a>
</g>
</g>
<!-- Node25&#45;&gt;Node26 -->
<g id="edge32_Node000025_Node000026" class="edge">
<title>Node25&#45;&gt;Node26</title>
<g id="a_edge32_Node000025_Node000026"><a xlink:title=" ">
<path fill="none" stroke="#63b8ff" d="M1456.01,-218.44C1472.42,-199.46 1511.87,-156.92 1554,-134 1558.91,-131.33 1564.22,-128.99 1569.64,-126.94"/>
<polygon fill="#63b8ff" stroke="#63b8ff" points="1571.13,-130.13 1579.46,-123.58 1568.86,-123.51 1571.13,-130.13"/>
</a>
</g>
</g>
<!-- Node26&#45;&gt;Node7 -->
<g id="edge33_Node000026_Node000007" class="edge">
<title>Node26&#45;&gt;Node7</title>
<g id="a_edge33_Node000026_Node000007"><a xlink:title=" ">
<path fill="none" stroke="#63b8ff" d="M1668.68,-104.45C1696.94,-97.82 1734.79,-88.94 1764.98,-81.86"/>
<polygon fill="#63b8ff" stroke="#63b8ff" points="1765.96,-85.22 1774.89,-79.53 1764.36,-78.41 1765.96,-85.22"/>
</a>
</g>
</g>
<!-- Node27 -->
<g id="Node000027" class="node">
<title>Node27</title>
<g id="a_Node000027"><a xlink:href="../../db/df4/classTimeout.xhtml#abbabe99f42e52472ddd3a7e9d22dce95" target="_top" xlink:title=" ">
<polygon fill="white" stroke="#666666" points="1871,-121.5 1762,-121.5 1762,-102.5 1871,-102.5 1871,-121.5"/>
<text text-anchor="middle" x="1816.5" y="-109.5" font-family="Helvetica,sans-Serif" font-size="10.00">Timeout::timedOut</text>
</a>
</g>
</g>
<!-- Node26&#45;&gt;Node27 -->
<g id="edge34_Node000026_Node000027" class="edge">
<title>Node26&#45;&gt;Node27</title>
<g id="a_edge34_Node000026_Node000027"><a xlink:title=" ">
<path fill="none" stroke="#63b8ff" d="M1700.22,-113.23C1717.23,-113.05 1735.22,-112.86 1751.82,-112.68"/>
<polygon fill="#63b8ff" stroke="#63b8ff" points="1751.98,-116.18 1761.95,-112.57 1751.91,-109.18 1751.98,-116.18"/>
</a>
</g>
</g>
<!-- Node28 -->
<g id="Node000028" class="node">
<title>Node28</title>
<g id="a_Node000028"><a xlink:href="../../db/df4/classTimeout.xhtml#a9a72ea0591f11452fb15bfaa1ae5108a" target="_top" xlink:title=" ">
<polygon fill="white" stroke="#666666" points="2039.5,-120.5 1937.5,-120.5 1937.5,-101.5 2039.5,-101.5 2039.5,-120.5"/>
<text text-anchor="middle" x="1988.5" y="-108.5" font-family="Helvetica,sans-Serif" font-size="10.00">Timeout::millis16</text>
</a>
</g>
</g>
<!-- Node27&#45;&gt;Node28 -->
<g id="edge35_Node000027_Node000028" class="edge">
<title>Node27&#45;&gt;Node28</title>
<g id="a_edge35_Node000027_Node000028"><a xlink:title=" ">
<path fill="none" stroke="#63b8ff" d="M1871.29,-111.68C1889.02,-111.58 1908.85,-111.46 1927.04,-111.36"/>
<polygon fill="#63b8ff" stroke="#63b8ff" points="1927.26,-114.85 1937.24,-111.3 1927.22,-107.85 1927.26,-114.85"/>
</a>
</g>
</g>
<!-- Node29 -->
<g id="Node000029" class="node">
<title>Node29</title>
<g id="a_Node000029"><a xlink:href="../../d5/df3/wiring_8c.xhtml#a6ff7f2532a22366f0013bc41397129fd" target="_top" xlink:title=" ">
<polygon fill="white" stroke="#666666" points="2139,-120.5 2095,-120.5 2095,-101.5 2139,-101.5 2139,-120.5"/>
<text text-anchor="middle" x="2117" y="-108.5" font-family="Helvetica,sans-Serif" font-size="10.00">millis</text>
</a>
</g>
</g>
<!-- Node28&#45;&gt;Node29 -->
<g id="edge36_Node000028_Node000029" class="edge">
<title>Node28&#45;&gt;Node29</title>
<g id="a_edge36_Node000028_Node000029"><a xlink:title=" ">
<path fill="none" stroke="#63b8ff" d="M2039.86,-111C2054.97,-111 2071.11,-111 2084.62,-111"/>
<polygon fill="#63b8ff" stroke="#63b8ff" points="2084.83,-114.5 2094.83,-111 2084.83,-107.5 2084.83,-114.5"/>
</a>
</g>
</g>
<!-- Node30&#45;&gt;Node30 -->
<g id="edge40_Node000030_Node000030" class="edge">
<title>Node30&#45;&gt;Node30</title>
<g id="a_edge40_Node000030_Node000030"><a xlink:title=" ">
<path fill="none" stroke="#63b8ff" d="M1041.91,-541.58C1027.51,-550.23 1037.38,-559.5 1071.5,-559.5 1094.96,-559.5 1106.95,-555.12 1107.48,-549.57"/>
<polygon fill="#63b8ff" stroke="#63b8ff" points="1110.07,-547.21 1101.09,-541.58 1104.61,-551.58 1110.07,-547.21"/>
</a>
</g>
</g>
<!-- Node34 -->
<g id="Node000034" class="node">
<title>Node34</title>
<g id="a_Node000034"><a xlink:href="../../d8/d7f/classSharedSpiCard.xhtml#adf2ce56ca0a56fe841fbdf75f7f3faee" target="_top" xlink:title=" ">
<polygon fill="white" stroke="#666666" points="953,-318.5 804,-318.5 804,-299.5 953,-299.5 953,-318.5"/>
<text text-anchor="middle" x="878.5" y="-306.5" font-family="Helvetica,sans-Serif" font-size="10.00">SharedSpiCard::writeSector</text>
</a>
</g>
</g>
<!-- Node33&#45;&gt;Node34 -->
<g id="edge45_Node000033_Node000034" class="edge">
<title>Node33&#45;&gt;Node34</title>
<g id="a_edge45_Node000033_Node000034"><a xlink:title=" ">
<path fill="none" stroke="#63b8ff" d="M764.08,-325.05C775.29,-323.46 787.77,-321.69 800.23,-319.93"/>
<polygon fill="#63b8ff" stroke="#63b8ff" points="800.79,-323.39 810.2,-318.52 799.81,-316.46 800.79,-323.39"/>
</a>
</g>
</g>
<!-- Node34&#45;&gt;Node6 -->
<g id="edge46_Node000034_Node000006" class="edge">
<title>Node34&#45;&gt;Node6</title>
<g id="a_edge46_Node000034_Node000006"><a xlink:title=" ">
<path fill="none" stroke="#63b8ff" d="M897.81,-299.41C931.47,-281.79 1003.33,-244.17 1042.91,-223.44"/>
<polygon fill="#63b8ff" stroke="#63b8ff" points="1045.01,-226.3 1052.24,-218.56 1041.76,-220.1 1045.01,-226.3"/>
</a>
</g>
</g>
<!-- Node34&#45;&gt;Node7 -->
<g id="edge48_Node000034_Node000007" class="edge">
<title>Node34&#45;&gt;Node7</title>
<g id="a_edge48_Node000034_Node000007"><a xlink:title=" ">
<path fill="none" stroke="#63b8ff" d="M882.61,-299.29C892.86,-268.66 928.47,-172.97 989,-119 1088.4,-30.37 1130.83,0 1264,0 1264,0 1264,0 1448,0 1569.39,0 1709.42,-37.31 1776.17,-57.45"/>
<polygon fill="#63b8ff" stroke="#63b8ff" points="1775.27,-60.84 1785.85,-60.41 1777.31,-54.15 1775.27,-60.84"/>
</a>
</g>
</g>
<!-- Node34&#45;&gt;Node20 -->
<g id="edge47_Node000034_Node000020" class="edge">
<title>Node34&#45;&gt;Node20</title>
<g id="a_edge47_Node000034_Node000020"><a xlink:title=" ">
<path fill="none" stroke="#63b8ff" d="M911.23,-318.51C1004.67,-345.22 1286.76,-416.51 1518,-378 1545,-373.5 1574.31,-363.09 1595.57,-354.45"/>
<polygon fill="#63b8ff" stroke="#63b8ff" points="1597.14,-357.59 1605.02,-350.51 1594.45,-351.12 1597.14,-357.59"/>
</a>
</g>
</g>
<!-- Node34&#45;&gt;Node21 -->
<g id="edge49_Node000034_Node000021" class="edge">
<title>Node34&#45;&gt;Node21</title>
<g id="a_edge49_Node000034_Node000021"><a xlink:title=" ">
<path fill="none" stroke="#63b8ff" d="M953.12,-306.53C1095.82,-301.76 1408.57,-291.28 1551.76,-286.49"/>
<polygon fill="#63b8ff" stroke="#63b8ff" points="1551.9,-289.98 1561.77,-286.15 1551.66,-282.99 1551.9,-289.98"/>
</a>
</g>
</g>
<!-- Node34&#45;&gt;Node26 -->
<g id="edge51_Node000034_Node000026" class="edge">
<title>Node34&#45;&gt;Node26</title>
<g id="a_edge51_Node000034_Node000026"><a xlink:title=" ">
<path fill="none" stroke="#63b8ff" d="M885.96,-299.23C901.23,-276.86 941.84,-221.53 989,-191 1164.72,-77.25 1425.69,-89.01 1552.08,-103.3"/>
<polygon fill="#63b8ff" stroke="#63b8ff" points="1551.71,-106.78 1562.04,-104.47 1552.52,-99.83 1551.71,-106.78"/>
</a>
</g>
</g>
<!-- Node34&#45;&gt;Node31 -->
<g id="edge50_Node000034_Node000031" class="edge">
<title>Node34&#45;&gt;Node31</title>
<g id="a_edge50_Node000034_Node000031"><a xlink:title=" ">
<path fill="none" stroke="#63b8ff" d="M889.18,-318.6C907.27,-336.05 948.09,-373.05 989,-394 997.86,-398.54 1007.72,-402.35 1017.42,-405.51"/>
<polygon fill="#63b8ff" stroke="#63b8ff" points="1016.46,-408.87 1027.04,-408.45 1018.5,-402.18 1016.46,-408.87"/>
</a>
</g>
</g>
<!-- Node35 -->
<g id="Node000035" class="node">
<title>Node35</title>
<g id="a_Node000035"><a xlink:href="../../d8/d7f/classSharedSpiCard.xhtml#a5b6d7ad34f56d0d6a6c5059d920499ba" target="_top" xlink:title=" ">
<polygon fill="white" stroke="#666666" points="1518,-350.5 1376,-350.5 1376,-331.5 1518,-331.5 1518,-350.5"/>
<text text-anchor="middle" x="1447" y="-338.5" font-family="Helvetica,sans-Serif" font-size="10.00">SharedSpiCard::writeData</text>
</a>
</g>
</g>
<!-- Node34&#45;&gt;Node35 -->
<g id="edge52_Node000034_Node000035" class="edge">
<title>Node34&#45;&gt;Node35</title>
<g id="a_edge52_Node000034_Node000035"><a xlink:title=" ">
<path fill="none" stroke="#63b8ff" d="M953.1,-315.37C965.1,-316.32 977.39,-317.23 989,-318 1120.99,-326.74 1274.61,-333.84 1365.89,-337.74"/>
<polygon fill="#63b8ff" stroke="#63b8ff" points="1365.75,-341.24 1375.89,-338.16 1366.05,-334.24 1365.75,-341.24"/>
</a>
</g>
</g>
<!-- Node35&#45;&gt;Node20 -->
<g id="edge53_Node000035_Node000020" class="edge">
<title>Node35&#45;&gt;Node20</title>
<g id="a_edge53_Node000035_Node000020"><a xlink:title=" ">
<path fill="none" stroke="#63b8ff" d="M1518.09,-341C1531.22,-341 1544.92,-341 1557.99,-341"/>
<polygon fill="#63b8ff" stroke="#63b8ff" points="1558.3,-344.5 1568.3,-341 1558.3,-337.5 1558.3,-344.5"/>
</a>
</g>
</g>
<!-- Node35&#45;&gt;Node21 -->
<g id="edge54_Node000035_Node000021" class="edge">
<title>Node35&#45;&gt;Node21</title>
<g id="a_edge54_Node000035_Node000021"><a xlink:title=" ">
<path fill="none" stroke="#63b8ff" d="M1477.79,-331.46C1507.57,-321.92 1553.53,-307.21 1586.37,-296.69"/>
<polygon fill="#63b8ff" stroke="#63b8ff" points="1587.65,-299.95 1596.11,-293.57 1585.52,-293.29 1587.65,-299.95"/>
</a>
</g>
</g>
<!-- Node35&#45;&gt;Node26 -->
<g id="edge55_Node000035_Node000026" class="edge">
<title>Node35&#45;&gt;Node26</title>
<g id="a_edge55_Node000035_Node000026"><a xlink:title=" ">
<path fill="none" stroke="#63b8ff" d="M1465.43,-331.36C1481.54,-321.55 1504.9,-304.83 1518,-284 1554.5,-225.97 1506.39,-183.33 1554,-134 1555.81,-132.12 1557.79,-130.41 1559.88,-128.86"/>
<polygon fill="#63b8ff" stroke="#63b8ff" points="1561.78,-131.81 1568.51,-123.63 1558.14,-125.83 1561.78,-131.81"/>
</a>
</g>
</g>
<!-- Node35&#45;&gt;Node35 -->
<g id="edge56_Node000035_Node000035" class="edge">
<title>Node35&#45;&gt;Node35</title>
<g id="a_edge56_Node000035_Node000035"><a xlink:title=" ">
<path fill="none" stroke="#63b8ff" d="M1419.26,-350.58C1405.76,-359.23 1415.01,-368.5 1447,-368.5 1468.49,-368.5 1479.72,-364.32 1480.68,-358.95"/>
<polygon fill="#63b8ff" stroke="#63b8ff" points="1483.39,-356.71 1474.74,-350.58 1477.68,-360.76 1483.39,-356.71"/>
</a>
</g>
</g>
</g>
</svg>
