<?xml version="1.0" encoding="UTF-8" standalone="no"?>
<!DOCTYPE svg PUBLIC "-//W3C//DTD SVG 1.1//EN"
 "http://www.w3.org/Graphics/SVG/1.1/DTD/svg11.dtd">
<!-- Generated by graphviz version 2.43.0 (0)
 -->
<!-- Title: StreamFile&lt; BaseFile, PosType &gt; Pages: 1 -->
<svg width="144pt" height="377pt"
 viewBox="0.00 0.00 144.00 377.00" xmlns="http://www.w3.org/2000/svg" xmlns:xlink="http://www.w3.org/1999/xlink">
<g id="graph0" class="graph" transform="scale(1 1) rotate(0) translate(4 373)">
<title>StreamFile&lt; BaseFile, PosType &gt;</title>
<!-- Node1 -->
<g id="Node000001" class="node">
<title>Node1</title>
<g id="a_Node000001"><a xlink:title="StreamFile class.">
<polygon fill="#999999" stroke="transparent" points="136,-284 0,-284 0,0 136,0 136,-284"/>
<text text-anchor="start" x="13.5" y="-272" font-family="Helvetica,sans-Serif" font-size="10.00">StreamFile&lt; BaseFile,</text>
<text text-anchor="start" x="40.5" y="-261" font-family="Helvetica,sans-Serif" font-size="10.00"> PosType &gt;</text>
<text text-anchor="start" x="66" y="-246" font-family="Helvetica,sans-Serif" font-size="10.00"> </text>
<text text-anchor="start" x="4" y="-231" font-family="Helvetica,sans-Serif" font-size="10.00">+</text>
<text text-anchor="start" x="17" y="-231" font-family="Helvetica,sans-Serif" font-size="10.00">StreamFile()</text>
<text text-anchor="start" x="4" y="-216" font-family="Helvetica,sans-Serif" font-size="10.00">+</text>
<text text-anchor="start" x="17" y="-216" font-family="Helvetica,sans-Serif" font-size="10.00">int available()</text>
<text text-anchor="start" x="4" y="-201" font-family="Helvetica,sans-Serif" font-size="10.00">+</text>
<text text-anchor="start" x="17" y="-201" font-family="Helvetica,sans-Serif" font-size="10.00">void flush()</text>
<text text-anchor="start" x="4" y="-186" font-family="Helvetica,sans-Serif" font-size="10.00">+</text>
<text text-anchor="start" x="17" y="-186" font-family="Helvetica,sans-Serif" font-size="10.00">bool isDirectory()</text>
<text text-anchor="start" x="4" y="-171" font-family="Helvetica,sans-Serif" font-size="10.00">+</text>
<text text-anchor="start" x="17" y="-171" font-family="Helvetica,sans-Serif" font-size="10.00">char * __attribute</text>
<text text-anchor="start" x="17" y="-160" font-family="Helvetica,sans-Serif" font-size="10.00">__((error(&quot;use getName</text>
<text text-anchor="start" x="17" y="-149" font-family="Helvetica,sans-Serif" font-size="10.00">(name, size)&quot;))) name()</text>
<text text-anchor="start" x="4" y="-134" font-family="Helvetica,sans-Serif" font-size="10.00">+</text>
<text text-anchor="start" x="17" y="-134" font-family="Helvetica,sans-Serif" font-size="10.00">int peek()</text>
<text text-anchor="start" x="4" y="-119" font-family="Helvetica,sans-Serif" font-size="10.00">+</text>
<text text-anchor="start" x="17" y="-119" font-family="Helvetica,sans-Serif" font-size="10.00">PosType position()</text>
<text text-anchor="start" x="4" y="-104" font-family="Helvetica,sans-Serif" font-size="10.00">+</text>
<text text-anchor="start" x="17" y="-104" font-family="Helvetica,sans-Serif" font-size="10.00">int read()</text>
<text text-anchor="start" x="4" y="-89" font-family="Helvetica,sans-Serif" font-size="10.00">+</text>
<text text-anchor="start" x="17" y="-89" font-family="Helvetica,sans-Serif" font-size="10.00">void rewindDirectory()</text>
<text text-anchor="start" x="4" y="-74" font-family="Helvetica,sans-Serif" font-size="10.00">+</text>
<text text-anchor="start" x="17" y="-74" font-family="Helvetica,sans-Serif" font-size="10.00">bool seek(PosType pos)</text>
<text text-anchor="start" x="4" y="-59" font-family="Helvetica,sans-Serif" font-size="10.00">+</text>
<text text-anchor="start" x="17" y="-59" font-family="Helvetica,sans-Serif" font-size="10.00">PosType size()</text>
<text text-anchor="start" x="4" y="-44" font-family="Helvetica,sans-Serif" font-size="10.00">+</text>
<text text-anchor="start" x="17" y="-44" font-family="Helvetica,sans-Serif" font-size="10.00">size_t write(uint8_t b)</text>
<text text-anchor="start" x="4" y="-29" font-family="Helvetica,sans-Serif" font-size="10.00">+</text>
<text text-anchor="start" x="17" y="-29" font-family="Helvetica,sans-Serif" font-size="10.00">size_t write(const</text>
<text text-anchor="start" x="17" y="-18" font-family="Helvetica,sans-Serif" font-size="10.00"> uint8_t *buffer, size</text>
<text text-anchor="start" x="17" y="-7" font-family="Helvetica,sans-Serif" font-size="10.00">_t size)</text>
<polygon fill="#666666" stroke="#666666" points="0,-256 0,-256 136,-256 136,-256 0,-256"/>
<polygon fill="#666666" stroke="#666666" points="0,-241 0,-241 136,-241 136,-241 0,-241"/>
<polygon fill="none" stroke="#666666" points="0,0 0,-284 136,-284 136,0 0,0"/>
</a>
</g>
</g>
<!-- Node2 -->
<g id="Node000002" class="node">
<title>Node2</title>
<g id="a_Node000002"><a xlink:title=" ">
<polygon fill="white" stroke="transparent" points="60,-369 6,-369 6,-320 60,-320 60,-369"/>
<text text-anchor="start" x="11" y="-356.5" font-family="Helvetica,sans-Serif" font-size="10.00">stream_t</text>
<text text-anchor="start" x="31" y="-341.5" font-family="Helvetica,sans-Serif" font-size="10.00"> </text>
<text text-anchor="start" x="31" y="-326.5" font-family="Helvetica,sans-Serif" font-size="10.00"> </text>
<polygon fill="#666666" stroke="#666666" points="6,-351.5 6,-351.5 60,-351.5 60,-351.5 6,-351.5"/>
<polygon fill="#666666" stroke="#666666" points="6,-336.5 6,-336.5 60,-336.5 60,-336.5 6,-336.5"/>
<polygon fill="none" stroke="#666666" points="6,-320 6,-369 60,-369 60,-320 6,-320"/>
</a>
</g>
</g>
<!-- Node2&#45;&gt;Node1 -->
<g id="edge1_Node000001_Node000002" class="edge">
<title>Node2&#45;&gt;Node1</title>
<g id="a_edge1_Node000001_Node000002"><a xlink:title=" ">
<path fill="none" stroke="#63b8ff" d="M38.88,-309.8C40.23,-302.07 41.75,-293.37 43.37,-284.11"/>
<polygon fill="none" stroke="#63b8ff" points="35.42,-309.26 37.15,-319.71 42.32,-310.46 35.42,-309.26"/>
</a>
</g>
</g>
<!-- Node3 -->
<g id="Node000003" class="node">
<title>Node3</title>
<g id="a_Node000003"><a xlink:title=" ">
<polygon fill="white" stroke="transparent" points="130,-369 78,-369 78,-320 130,-320 130,-369"/>
<text text-anchor="start" x="83" y="-356.5" font-family="Helvetica,sans-Serif" font-size="10.00">BaseFile</text>
<text text-anchor="start" x="102" y="-341.5" font-family="Helvetica,sans-Serif" font-size="10.00"> </text>
<text text-anchor="start" x="102" y="-326.5" font-family="Helvetica,sans-Serif" font-size="10.00"> </text>
<polygon fill="#666666" stroke="#666666" points="78,-351.5 78,-351.5 130,-351.5 130,-351.5 78,-351.5"/>
<polygon fill="#666666" stroke="#666666" points="78,-336.5 78,-336.5 130,-336.5 130,-336.5 78,-336.5"/>
<polygon fill="none" stroke="#666666" points="78,-320 78,-369 130,-369 130,-320 78,-320"/>
</a>
</g>
</g>
<!-- Node3&#45;&gt;Node1 -->
<g id="edge2_Node000001_Node000003" class="edge">
<title>Node3&#45;&gt;Node1</title>
<g id="a_edge2_Node000001_Node000003"><a xlink:title=" ">
<path fill="none" stroke="#63b8ff" d="M97.95,-309.8C96.56,-302.07 95,-293.37 93.34,-284.11"/>
<polygon fill="none" stroke="#63b8ff" points="94.52,-310.49 99.73,-319.71 101.41,-309.25 94.52,-310.49"/>
</a>
</g>
</g>
</g>
</svg>
