<?xml version="1.0" encoding="UTF-8" standalone="no"?>
<!DOCTYPE svg PUBLIC "-//W3C//DTD SVG 1.1//EN"
 "http://www.w3.org/Graphics/SVG/1.1/DTD/svg11.dtd">
<!-- Generated by graphviz version 2.43.0 (0)
 -->
<!-- Title: runMaintenanceModeStep Pages: 1 -->
<!--zoomable 538 -->

<svg id="main" version="1.1" xmlns="http://www.w3.org/2000/svg" xmlns:xlink="http://www.w3.org/1999/xlink" xml:space="preserve" onload="init(evt)">
<style type="text/css"><![CDATA[
.node, .edge {opacity: 0.7;}
.node.selected, .edge.selected {opacity: 1;}
.edge:hover path { stroke: red; }
.edge:hover polygon { stroke: red; fill: red; }
]]></style>

<defs>
  <circle id="rim" cx="0" cy="0" r="7"/>
  <circle id="rim2" cx="0" cy="0" r="3.5"/>
  <g id="zoomPlus">
    <use xlink:href="#rim" fill="#404040"><set attributeName="fill" to="#808080" begin="zoomplus.mouseover" end="zoomplus.mouseout"/></use>
    <path d="M-4,0h8M0,-4v8" fill="none" stroke="white" stroke-width="1.5" pointer-events="none"/>
  </g>
  <g id="zoomMin">
    <use xlink:href="#rim" fill="#404040"><set attributeName="fill" to="#808080" begin="zoomminus.mouseover" end="zoomminus.mouseout"/></use>
    <path d="M-4,0h8" fill="none" stroke="white" stroke-width="1.5" pointer-events="none"/>
  </g>
  <g id="arrowUp" transform="translate(30 24)">
    <use xlink:href="#rim"/>
    <path pointer-events="none" fill="none" stroke="white" stroke-width="1.5" d="M0,-3.0v7 M-2.5,-0.5L0,-3.0L2.5,-0.5"/>
  </g>
  <g id="arrowRight" transform="rotate(90) translate(36 -43)">
    <use xlink:href="#rim"/>
    <path pointer-events="none" fill="none" stroke="white" stroke-width="1.5" d="M0,-3.0v7 M-2.5,-0.5L0,-3.0L2.5,-0.5"/>
  </g>
  <g id="arrowDown" transform="rotate(180) translate(-30 -48)">
    <use xlink:href="#rim"/>
    <path pointer-events="none" fill="none" stroke="white" stroke-width="1.5" d="M0,-3.0v7 M-2.5,-0.5L0,-3.0L2.5,-0.5"/>
  </g>
  <g id="arrowLeft" transform="rotate(270) translate(-36 17)">
    <use xlink:href="#rim"/>
    <path pointer-events="none" fill="none" stroke="white" stroke-width="1.5" d="M0,-3.0v7 M-2.5,-0.5L0,-3.0L2.5,-0.5"/>
  </g>
  <g id="resetDef">
    <use xlink:href="#rim2" fill="#404040"><set attributeName="fill" to="#808080" begin="reset.mouseover" end="reset.mouseout"/></use>
  </g>
</defs>
<script type="application/ecmascript">
var viewWidth = 1958;
var viewHeight = 538;
var sectionId = 'dynsection-2';
</script>
<script type="application/ecmascript" xlink:href="../../svg.min.js"/>
<svg id="graph" class="graph">
<g id="viewport">
<title>runMaintenanceModeStep</title>
<!-- Node1 -->
<g id="Node000001" class="node">
<title>Node1</title>
<g id="a_Node000001"><a xlink:title="Exécute une étape de la boucle principale du mode maintenance.">
<polygon fill="#999999" stroke="#666666" points="144,-378 0,-378 0,-359 144,-359 144,-378"/>
<text text-anchor="middle" x="72" y="-366" font-family="Helvetica,sans-Serif" font-size="10.00">runMaintenanceModeStep</text>
</a>
</g>
</g>
<!-- Node2 -->
<g id="Node000002" class="node">
<title>Node2</title>
<g id="a_Node000002"><a xlink:href="../../d6/d30/acquisition_8cpp.xhtml#aa378a3751950c161e743d0fcac2044f2" target="_top" xlink:title="Fonction d&#39;acquisition des données.">
<polygon fill="white" stroke="#666666" points="250,-378 180,-378 180,-359 250,-359 250,-378"/>
<text text-anchor="middle" x="215" y="-366" font-family="Helvetica,sans-Serif" font-size="10.00">acquisition</text>
</a>
</g>
</g>
<!-- Node1&#45;&gt;Node2 -->
<g id="edge1_Node000001_Node000002" class="edge">
<title>Node1&#45;&gt;Node2</title>
<g id="a_edge1_Node000001_Node000002"><a xlink:title=" ">
<path fill="none" stroke="#63b8ff" d="M144.33,-368.5C153.07,-368.5 161.79,-368.5 169.96,-368.5"/>
<polygon fill="#63b8ff" stroke="#63b8ff" points="169.97,-372 179.97,-368.5 169.97,-365 169.97,-372"/>
</a>
</g>
</g>
<!-- Node3 -->
<g id="Node000003" class="node">
<title>Node3</title>
<g id="a_Node000003"><a xlink:href="../../d9/d84/debugTools_8cpp.xhtml#aac7b29dc45caaaca67299571f6a2dcc0" target="_top" xlink:title="Retourne la quantité de mémoire RAM libre.">
<polygon fill="white" stroke="#666666" points="358,-530 299,-530 299,-511 358,-511 358,-530"/>
<text text-anchor="middle" x="328.5" y="-518" font-family="Helvetica,sans-Serif" font-size="10.00">freeRam</text>
</a>
</g>
</g>
<!-- Node2&#45;&gt;Node3 -->
<g id="edge2_Node000002_Node000003" class="edge">
<title>Node2&#45;&gt;Node3</title>
<g id="a_edge2_Node000002_Node000003"><a xlink:title=" ">
<path fill="none" stroke="#63b8ff" d="M219.26,-378.3C227.34,-401.36 250.26,-459.89 286,-496.5 289.23,-499.81 293.01,-502.81 296.94,-505.48"/>
<polygon fill="#63b8ff" stroke="#63b8ff" points="295.31,-508.58 305.67,-510.79 298.95,-502.6 295.31,-508.58"/>
</a>
</g>
</g>
<!-- Node4 -->
<g id="Node000004" class="node">
<title>Node4</title>
<g id="a_Node000004"><a xlink:href="../../db/d17/led_8cpp.xhtml#aa2d49caed8f5ce97778549e0ef0a03c6" target="_top" xlink:title="Fait clignoter la LED en alternant entre deux couleurs avec une fréquence de 1 secondes pendant durat...">
<polygon fill="white" stroke="#666666" points="856,-398 776,-398 776,-379 856,-379 856,-398"/>
<text text-anchor="middle" x="816" y="-386" font-family="Helvetica,sans-Serif" font-size="10.00">initLEDTimer</text>
</a>
</g>
</g>
<!-- Node2&#45;&gt;Node4 -->
<g id="edge3_Node000002_Node000004" class="edge">
<title>Node2&#45;&gt;Node4</title>
<g id="a_edge3_Node000002_Node000004"><a xlink:title=" ">
<path fill="none" stroke="#63b8ff" d="M219.99,-378.21C228.63,-397.75 251.15,-441.45 286,-458.5 461.13,-544.16 705.81,-441.68 787.35,-402.5"/>
<polygon fill="#63b8ff" stroke="#63b8ff" points="789.01,-405.58 796.46,-398.05 785.94,-399.29 789.01,-405.58"/>
</a>
</g>
</g>
<!-- Node10 -->
<g id="Node000010" class="node">
<title>Node10</title>
<g id="a_Node000010"><a xlink:href="../../db/d17/led_8cpp.xhtml#a4f39000a638bc309a30f90d7fbb5a8a1" target="_top" xlink:title="Allume la LED en bleu.">
<polygon fill="white" stroke="#666666" points="1011,-452 912,-452 912,-433 1011,-433 1011,-452"/>
<text text-anchor="middle" x="961.5" y="-440" font-family="Helvetica,sans-Serif" font-size="10.00">switchLEDToBlue</text>
</a>
</g>
</g>
<!-- Node2&#45;&gt;Node10 -->
<g id="edge62_Node000002_Node000010" class="edge">
<title>Node2&#45;&gt;Node10</title>
<g id="a_edge62_Node000002_Node000010"><a xlink:title=" ">
<path fill="none" stroke="#63b8ff" d="M229.43,-378.11C242.98,-387.24 264.87,-400.42 286,-406.5 490.14,-465.22 550.81,-426.61 763,-436.5 809.55,-438.67 862.32,-440.23 901.59,-441.21"/>
<polygon fill="#63b8ff" stroke="#63b8ff" points="901.7,-444.71 911.78,-441.46 901.87,-437.72 901.7,-444.71"/>
</a>
</g>
</g>
<!-- Node21 -->
<g id="Node000021" class="node">
<title>Node21</title>
<g id="a_Node000021"><a xlink:href="../../d5/df3/wiring_8c.xhtml#a6ff7f2532a22366f0013bc41397129fd" target="_top" xlink:title=" ">
<polygon fill="white" stroke="#666666" points="350.5,-397 306.5,-397 306.5,-378 350.5,-378 350.5,-397"/>
<text text-anchor="middle" x="328.5" y="-385" font-family="Helvetica,sans-Serif" font-size="10.00">millis</text>
</a>
</g>
</g>
<!-- Node2&#45;&gt;Node21 -->
<g id="edge27_Node000002_Node000021" class="edge">
<title>Node2&#45;&gt;Node21</title>
<g id="a_edge27_Node000002_Node000021"><a xlink:title=" ">
<path fill="none" stroke="#63b8ff" d="M250.06,-374.3C264.8,-376.82 281.93,-379.74 296.33,-382.19"/>
<polygon fill="#63b8ff" stroke="#63b8ff" points="295.82,-385.65 306.26,-383.88 296.99,-378.75 295.82,-385.65"/>
</a>
</g>
</g>
<!-- Node22 -->
<g id="Node000022" class="node">
<title>Node22</title>
<g id="a_Node000022"><a xlink:href="../../dc/d3d/gps_8cpp.xhtml#a05a3d705d8063851304bb49200834d1b" target="_top" xlink:title="Lit les données GPS.">
<polygon fill="white" stroke="#666666" points="357.5,-360 299.5,-360 299.5,-341 357.5,-341 357.5,-360"/>
<text text-anchor="middle" x="328.5" y="-348" font-family="Helvetica,sans-Serif" font-size="10.00">readGPS</text>
</a>
</g>
</g>
<!-- Node2&#45;&gt;Node22 -->
<g id="edge28_Node000002_Node000022" class="edge">
<title>Node2&#45;&gt;Node22</title>
<g id="a_edge28_Node000002_Node000022"><a xlink:title=" ">
<path fill="none" stroke="#63b8ff" d="M250.06,-363C262.49,-360.99 276.63,-358.71 289.39,-356.65"/>
<polygon fill="#63b8ff" stroke="#63b8ff" points="289.95,-360.11 299.27,-355.06 288.84,-353.2 289.95,-360.11"/>
</a>
</g>
</g>
<!-- Node26 -->
<g id="Node000026" class="node">
<title>Node26</title>
<g id="a_Node000026"><a xlink:href="../../dd/db1/error_8cpp.xhtml#aa07018cc68b21b664b4ca75a67e679f0" target="_top" xlink:title=" ">
<polygon fill="white" stroke="#666666" points="530.5,-275 421.5,-275 421.5,-256 530.5,-256 530.5,-275"/>
<text text-anchor="middle" x="476" y="-263" font-family="Helvetica,sans-Serif" font-size="10.00">switchToErrorMode</text>
</a>
</g>
</g>
<!-- Node2&#45;&gt;Node26 -->
<g id="edge64_Node000002_Node000026" class="edge">
<title>Node2&#45;&gt;Node26</title>
<g id="a_edge64_Node000002_Node000026"><a xlink:title=" ">
<path fill="none" stroke="#63b8ff" d="M232.95,-358.97C246.94,-351.3 267.43,-340.52 286,-332.5 336.02,-310.89 395.52,-290.66 434.22,-278.2"/>
<polygon fill="#63b8ff" stroke="#63b8ff" points="435.61,-281.43 444.07,-275.05 433.48,-274.76 435.61,-281.43"/>
</a>
</g>
</g>
<!-- Node31 -->
<g id="Node000031" class="node">
<title>Node31</title>
<g id="a_Node000031"><a xlink:href="../../db/d17/led_8cpp.xhtml#ac69de171075f82d3c3f75385a54ce10a" target="_top" xlink:title="Allume la LED en blanc.">
<polygon fill="white" stroke="#666666" points="869,-57 763,-57 763,-38 869,-38 869,-57"/>
<text text-anchor="middle" x="816" y="-45" font-family="Helvetica,sans-Serif" font-size="10.00">switchLEDToWhite</text>
</a>
</g>
</g>
<!-- Node2&#45;&gt;Node31 -->
<g id="edge63_Node000002_Node000031" class="edge">
<title>Node2&#45;&gt;Node31</title>
<g id="a_edge63_Node000002_Node000031"><a xlink:title=" ">
<path fill="none" stroke="#63b8ff" d="M223.4,-358.95C257.96,-315.25 408.96,-133.55 581,-66.5 636.31,-44.94 704.42,-41.77 752.87,-43.03"/>
<polygon fill="#63b8ff" stroke="#63b8ff" points="752.79,-46.53 762.9,-43.36 753.02,-39.53 752.79,-46.53"/>
</a>
</g>
</g>
<!-- Node36 -->
<g id="Node000036" class="node">
<title>Node36</title>
<g id="a_Node000036"><a xlink:href="../../db/d17/led_8cpp.xhtml#ade03b648d9863694554588873dec8748" target="_top" xlink:title="Arrête le clignotement de la LED.">
<polygon fill="white" stroke="#666666" points="371,-19 286,-19 286,0 371,0 371,-19"/>
<text text-anchor="middle" x="328.5" y="-7" font-family="Helvetica,sans-Serif" font-size="10.00">stopLEDTimer</text>
</a>
</g>
</g>
<!-- Node2&#45;&gt;Node36 -->
<g id="edge60_Node000002_Node000036" class="edge">
<title>Node2&#45;&gt;Node36</title>
<g id="a_edge60_Node000002_Node000036"><a xlink:title=" ">
<path fill="none" stroke="#63b8ff" d="M216.97,-358.68C222.01,-309.28 246.48,-88.14 286,-33.5 288.4,-30.18 291.41,-27.25 294.71,-24.68"/>
<polygon fill="#63b8ff" stroke="#63b8ff" points="296.88,-27.45 303.32,-19.03 293.04,-21.59 296.88,-27.45"/>
</a>
</g>
</g>
<!-- Node5 -->
<g id="Node000005" class="node">
<title>Node5</title>
<g id="a_Node000005"><a xlink:href="../../dc/de5/timer_8cpp.xhtml#a75f67483e2c676b6e8ea29bca518e6c7" target="_top" xlink:title="Crée une nouvelle instance du timer.">
<polygon fill="white" stroke="#666666" points="1171,-359 1089,-359 1089,-340 1171,-340 1171,-359"/>
<text text-anchor="middle" x="1130" y="-347" font-family="Helvetica,sans-Serif" font-size="10.00">createTimer2</text>
</a>
</g>
</g>
<!-- Node4&#45;&gt;Node5 -->
<g id="edge4_Node000004_Node000005" class="edge">
<title>Node4&#45;&gt;Node5</title>
<g id="a_edge4_Node000004_Node000005"><a xlink:title=" ">
<path fill="none" stroke="#63b8ff" d="M856.23,-378.94C871.39,-375.54 888.93,-371.94 905,-369.5 964.27,-360.49 1033.02,-355.09 1078.56,-352.22"/>
<polygon fill="#63b8ff" stroke="#63b8ff" points="1079,-355.7 1088.76,-351.59 1078.57,-348.71 1079,-355.7"/>
</a>
</g>
</g>
<!-- Node9 -->
<g id="Node000009" class="node">
<title>Node9</title>
<g id="a_Node000009"><a xlink:href="../../db/d17/led_8cpp.xhtml#ab88ba8c1c79f75d5caa97fa7939bc4fb" target="_top" xlink:title="Fonction exécutée à chaque interruption du timer 2.">
<polygon fill="white" stroke="#666666" points="1000,-397 923,-397 923,-378 1000,-378 1000,-397"/>
<text text-anchor="middle" x="961.5" y="-385" font-family="Helvetica,sans-Serif" font-size="10.00">LEDInterrupt</text>
</a>
</g>
</g>
<!-- Node4&#45;&gt;Node9 -->
<g id="edge8_Node000004_Node000009" class="edge">
<title>Node4&#45;&gt;Node9</title>
<g id="a_edge8_Node000004_Node000009"><a xlink:title=" ">
<path fill="none" stroke="#63b8ff" d="M856.21,-388.23C873.64,-388.11 894.31,-387.96 912.63,-387.83"/>
<polygon fill="#63b8ff" stroke="#63b8ff" points="912.85,-391.33 922.82,-387.76 912.8,-384.33 912.85,-391.33"/>
</a>
</g>
</g>
<!-- Node4&#45;&gt;Node10 -->
<g id="edge11_Node000004_Node000010" class="edge">
<title>Node4&#45;&gt;Node10</title>
<g id="a_edge11_Node000004_Node000010"><a xlink:title=" ">
<path fill="none" stroke="#63b8ff" d="M839.24,-398.14C856.93,-405.67 882.37,-416.21 905,-424.5 909.81,-426.26 914.89,-428.03 919.94,-429.73"/>
<polygon fill="#63b8ff" stroke="#63b8ff" points="918.94,-433.09 929.54,-432.91 921.14,-426.44 918.94,-433.09"/>
</a>
</g>
</g>
<!-- Node18 -->
<g id="Node000018" class="node">
<title>Node18</title>
<g id="a_Node000018"><a xlink:href="../../db/d17/led_8cpp.xhtml#a1c1c60dba65e2b65592bf4a0fe46b91c" target="_top" xlink:title="Allume la LED en vert.">
<polygon fill="white" stroke="#666666" points="1015,-247 908,-247 908,-228 1015,-228 1015,-247"/>
<text text-anchor="middle" x="961.5" y="-235" font-family="Helvetica,sans-Serif" font-size="10.00">switchLEDToGreen</text>
</a>
</g>
</g>
<!-- Node4&#45;&gt;Node18 -->
<g id="edge21_Node000004_Node000018" class="edge">
<title>Node4&#45;&gt;Node18</title>
<g id="a_edge21_Node000004_Node000018"><a xlink:title=" ">
<path fill="none" stroke="#63b8ff" d="M848.33,-378.98C855.92,-375.45 863.43,-370.72 869,-364.5 902.74,-326.8 869.37,-292.42 905,-256.5 906.45,-255.04 908.02,-253.68 909.68,-252.44"/>
<polygon fill="#63b8ff" stroke="#63b8ff" points="911.87,-255.21 918.6,-247.03 908.24,-249.22 911.87,-255.21"/>
</a>
</g>
</g>
<!-- Node19 -->
<g id="Node000019" class="node">
<title>Node19</title>
<g id="a_Node000019"><a xlink:href="../../db/d17/led_8cpp.xhtml#aa58a00fd07d1ae6fd45c10c874766911" target="_top" xlink:title="Allume la LED en orange.">
<polygon fill="white" stroke="#666666" points="1018,-321 905,-321 905,-302 1018,-302 1018,-321"/>
<text text-anchor="middle" x="961.5" y="-309" font-family="Helvetica,sans-Serif" font-size="10.00">switchLEDToOrange</text>
</a>
</g>
</g>
<!-- Node4&#45;&gt;Node19 -->
<g id="edge23_Node000004_Node000019" class="edge">
<title>Node4&#45;&gt;Node19</title>
<g id="a_edge23_Node000004_Node000019"><a xlink:title=" ">
<path fill="none" stroke="#63b8ff" d="M840.93,-378.93C849.98,-374.93 860.21,-369.95 869,-364.5 886.46,-353.67 887.41,-346.12 905,-335.5 911.3,-331.7 918.32,-328.17 925.18,-325.07"/>
<polygon fill="#63b8ff" stroke="#63b8ff" points="926.57,-328.28 934.36,-321.1 923.79,-321.85 926.57,-328.28"/>
</a>
</g>
</g>
<!-- Node20 -->
<g id="Node000020" class="node">
<title>Node20</title>
<g id="a_Node000020"><a xlink:href="../../db/d17/led_8cpp.xhtml#af8230cfc3cf386fa1253cd37b3cd215d" target="_top" xlink:title="Allume la LED en jaune.">
<polygon fill="white" stroke="#666666" points="1015.5,-284 907.5,-284 907.5,-265 1015.5,-265 1015.5,-284"/>
<text text-anchor="middle" x="961.5" y="-272" font-family="Helvetica,sans-Serif" font-size="10.00">switchLEDToYellow</text>
</a>
</g>
</g>
<!-- Node4&#45;&gt;Node20 -->
<g id="edge25_Node000004_Node000020" class="edge">
<title>Node4&#45;&gt;Node20</title>
<g id="a_edge25_Node000004_Node000020"><a xlink:title=" ">
<path fill="none" stroke="#63b8ff" d="M846.65,-378.9C854.59,-375.31 862.7,-370.57 869,-364.5 894.47,-339.95 878.3,-316.71 905,-293.5 906.95,-291.8 909.06,-290.26 911.28,-288.85"/>
<polygon fill="#63b8ff" stroke="#63b8ff" points="913.08,-291.85 920.26,-284.06 909.78,-285.68 913.08,-291.85"/>
</a>
</g>
</g>
<!-- Node6 -->
<g id="Node000006" class="node">
<title>Node6</title>
<g id="a_Node000006"><a xlink:href="../../d5/df3/wiring_8c.xhtml#a6bc5f943544a887f8b23cadfb26a5e30" target="_top" xlink:title=" ">
<polygon fill="white" stroke="#666666" points="1333.5,-340 1289.5,-340 1289.5,-321 1333.5,-321 1333.5,-340"/>
<text text-anchor="middle" x="1311.5" y="-328" font-family="Helvetica,sans-Serif" font-size="10.00">delay</text>
</a>
</g>
</g>
<!-- Node5&#45;&gt;Node6 -->
<g id="edge5_Node000005_Node000006" class="edge">
<title>Node5&#45;&gt;Node6</title>
<g id="a_edge5_Node000005_Node000006"><a xlink:title=" ">
<path fill="none" stroke="#63b8ff" d="M1171.28,-345.24C1203.87,-341.79 1249.12,-337 1279.07,-333.83"/>
<polygon fill="#63b8ff" stroke="#63b8ff" points="1279.79,-337.27 1289.36,-332.74 1279.05,-330.31 1279.79,-337.27"/>
</a>
</g>
</g>
<!-- Node7 -->
<g id="Node000007" class="node">
<title>Node7</title>
<g id="a_Node000007"><a xlink:href="../../d5/df3/wiring_8c.xhtml#a8b24cbb7c3486e1bfa05c86db83ecb01" target="_top" xlink:title=" ">
<polygon fill="white" stroke="#666666" points="1510,-317 1460,-317 1460,-298 1510,-298 1510,-317"/>
<text text-anchor="middle" x="1485" y="-305" font-family="Helvetica,sans-Serif" font-size="10.00">micros</text>
</a>
</g>
</g>
<!-- Node6&#45;&gt;Node7 -->
<g id="edge6_Node000006_Node000007" class="edge">
<title>Node6&#45;&gt;Node7</title>
<g id="a_edge6_Node000006_Node000007"><a xlink:title=" ">
<path fill="none" stroke="#63b8ff" d="M1333.53,-327.68C1362.47,-323.8 1414.92,-316.76 1449.61,-312.11"/>
<polygon fill="#63b8ff" stroke="#63b8ff" points="1450.31,-315.55 1459.76,-310.75 1449.38,-308.61 1450.31,-315.55"/>
</a>
</g>
</g>
<!-- Node8 -->
<g id="Node000008" class="node">
<title>Node8</title>
<g id="a_Node000008"><a xlink:href="../../de/df0/Arduino_8h.xhtml#a7cb51f5c2b5cad3766f19eb69c92793b" target="_top" xlink:title=" ">
<polygon fill="white" stroke="#666666" points="1505.5,-354 1464.5,-354 1464.5,-335 1505.5,-335 1505.5,-354"/>
<text text-anchor="middle" x="1485" y="-342" font-family="Helvetica,sans-Serif" font-size="10.00">yield</text>
</a>
</g>
</g>
<!-- Node6&#45;&gt;Node8 -->
<g id="edge7_Node000006_Node000008" class="edge">
<title>Node6&#45;&gt;Node8</title>
<g id="a_edge7_Node000006_Node000008"><a xlink:title=" ">
<path fill="none" stroke="#63b8ff" d="M1333.53,-332.22C1363.71,-334.68 1419.48,-339.23 1453.99,-342.05"/>
<polygon fill="#63b8ff" stroke="#63b8ff" points="1454.14,-345.57 1464.39,-342.9 1454.71,-338.6 1454.14,-345.57"/>
</a>
</g>
</g>
<!-- Node9&#45;&gt;Node5 -->
<g id="edge9_Node000009_Node000005" class="edge">
<title>Node9&#45;&gt;Node5</title>
<g id="a_edge9_Node000009_Node000005"><a xlink:title=" ">
<path fill="none" stroke="#63b8ff" d="M1000.28,-378.88C1023.57,-373.56 1053.72,-366.68 1078.98,-360.92"/>
<polygon fill="#63b8ff" stroke="#63b8ff" points="1079.78,-364.32 1088.75,-358.69 1078.22,-357.5 1079.78,-364.32"/>
</a>
</g>
</g>
<!-- Node9&#45;&gt;Node9 -->
<g id="edge10_Node000009_Node000009" class="edge">
<title>Node9&#45;&gt;Node9</title>
<g id="a_edge10_Node000009_Node000009"><a xlink:title=" ">
<path fill="none" stroke="#63b8ff" d="M939.31,-397.08C928.51,-405.73 935.91,-415 961.5,-415 977.9,-415 986.82,-411.2 988.29,-406.19"/>
<polygon fill="#63b8ff" stroke="#63b8ff" points="991.32,-404.44 983.69,-397.08 985.07,-407.59 991.32,-404.44"/>
</a>
</g>
</g>
<!-- Node11 -->
<g id="Node000011" class="node">
<title>Node11</title>
<g id="a_Node000011"><a xlink:href="../../d5/dc9/classChainableLED.xhtml#a2b8a41a192a231e77cad268bdbaebd34" target="_top" xlink:title=" ">
<polygon fill="white" stroke="#666666" points="1206,-265 1054,-265 1054,-246 1206,-246 1206,-265"/>
<text text-anchor="middle" x="1130" y="-253" font-family="Helvetica,sans-Serif" font-size="10.00">ChainableLED::setColorRGB</text>
</a>
</g>
</g>
<!-- Node10&#45;&gt;Node11 -->
<g id="edge12_Node000010_Node000011" class="edge">
<title>Node10&#45;&gt;Node11</title>
<g id="a_edge12_Node000010_Node000011"><a xlink:title=" ">
<path fill="none" stroke="#63b8ff" d="M1005.61,-432.92C1010.13,-430.67 1014.39,-427.91 1018,-424.5 1050.2,-394.04 1029.93,-368.72 1054,-331.5 1069.09,-308.17 1092.22,-286.11 1108.8,-271.83"/>
<polygon fill="#63b8ff" stroke="#63b8ff" points="1111.39,-274.22 1116.8,-265.1 1106.89,-268.86 1111.39,-274.22"/>
</a>
</g>
</g>
<!-- Node12 -->
<g id="Node000012" class="node">
<title>Node12</title>
<g id="a_Node000012"><a xlink:href="../../d5/dc9/classChainableLED.xhtml#af9dddebec83065625cbd6f8f05b992e7" target="_top" xlink:title=" ">
<polygon fill="white" stroke="#666666" points="1553,-270 1417,-270 1417,-251 1553,-251 1553,-270"/>
<text text-anchor="middle" x="1485" y="-258" font-family="Helvetica,sans-Serif" font-size="10.00">ChainableLED::sendByte</text>
</a>
</g>
</g>
<!-- Node11&#45;&gt;Node12 -->
<g id="edge13_Node000011_Node000012" class="edge">
<title>Node11&#45;&gt;Node12</title>
<g id="a_edge13_Node000011_Node000012"><a xlink:title=" ">
<path fill="none" stroke="#63b8ff" d="M1206.29,-256.57C1265.34,-257.4 1347.22,-258.56 1406.77,-259.41"/>
<polygon fill="#63b8ff" stroke="#63b8ff" points="1406.82,-262.91 1416.87,-259.55 1406.92,-255.91 1406.82,-262.91"/>
</a>
</g>
</g>
<!-- Node17 -->
<g id="Node000017" class="node">
<title>Node17</title>
<g id="a_Node000017"><a xlink:href="../../d5/dc9/classChainableLED.xhtml#a7c5c2661fc02dee9f174485a2fadeb7a" target="_top" xlink:title=" ">
<polygon fill="white" stroke="#666666" points="1381,-246 1242,-246 1242,-227 1381,-227 1381,-246"/>
<text text-anchor="middle" x="1311.5" y="-234" font-family="Helvetica,sans-Serif" font-size="10.00">ChainableLED::sendColor</text>
</a>
</g>
</g>
<!-- Node11&#45;&gt;Node17 -->
<g id="edge19_Node000011_Node000017" class="edge">
<title>Node11&#45;&gt;Node17</title>
<g id="a_edge19_Node000011_Node000017"><a xlink:title=" ">
<path fill="none" stroke="#63b8ff" d="M1206.08,-247.55C1214.48,-246.66 1223.06,-245.76 1231.51,-244.86"/>
<polygon fill="#63b8ff" stroke="#63b8ff" points="1232.15,-248.31 1241.73,-243.78 1231.42,-241.35 1232.15,-248.31"/>
</a>
</g>
</g>
<!-- Node13 -->
<g id="Node000013" class="node">
<title>Node13</title>
<g id="a_Node000013"><a xlink:href="../../d5/dc9/classChainableLED.xhtml#af384841b6f083865c7fce288b039d275" target="_top" xlink:title=" ">
<polygon fill="white" stroke="#666666" points="1693,-289 1589,-289 1589,-270 1693,-270 1693,-289"/>
<text text-anchor="middle" x="1641" y="-277" font-family="Helvetica,sans-Serif" font-size="10.00">ChainableLED::clk</text>
</a>
</g>
</g>
<!-- Node12&#45;&gt;Node13 -->
<g id="edge14_Node000012_Node000013" class="edge">
<title>Node12&#45;&gt;Node13</title>
<g id="a_edge14_Node000012_Node000013"><a xlink:title=" ">
<path fill="none" stroke="#63b8ff" d="M1553.1,-268.78C1561.63,-269.83 1570.32,-270.9 1578.75,-271.94"/>
<polygon fill="#63b8ff" stroke="#63b8ff" points="1578.52,-275.44 1588.87,-273.19 1579.38,-268.49 1578.52,-275.44"/>
</a>
</g>
</g>
<!-- Node15 -->
<g id="Node000015" class="node">
<title>Node15</title>
<g id="a_Node000015"><a xlink:href="../../d5/d45/wiring__digital_8c.xhtml#a73b9b61feeaf7d790d107f2954a7fd93" target="_top" xlink:title=" ">
<polygon fill="white" stroke="#666666" points="1821,-252 1747,-252 1747,-233 1821,-233 1821,-252"/>
<text text-anchor="middle" x="1784" y="-240" font-family="Helvetica,sans-Serif" font-size="10.00">digitalWrite</text>
</a>
</g>
</g>
<!-- Node12&#45;&gt;Node15 -->
<g id="edge18_Node000012_Node000015" class="edge">
<title>Node12&#45;&gt;Node15</title>
<g id="a_edge18_Node000012_Node000015"><a xlink:title=" ">
<path fill="none" stroke="#63b8ff" d="M1553.02,-256.44C1609.09,-253.04 1687.59,-248.28 1736.85,-245.3"/>
<polygon fill="#63b8ff" stroke="#63b8ff" points="1737.12,-248.79 1746.89,-244.69 1736.7,-241.8 1737.12,-248.79"/>
</a>
</g>
</g>
<!-- Node14 -->
<g id="Node000014" class="node">
<title>Node14</title>
<g id="a_Node000014"><a xlink:href="../../d5/df3/wiring_8c.xhtml#a62e0a53bc261f9de8700cc5a92307e85" target="_top" xlink:title=" ">
<polygon fill="white" stroke="#666666" points="1839,-289 1729,-289 1729,-270 1839,-270 1839,-289"/>
<text text-anchor="middle" x="1784" y="-277" font-family="Helvetica,sans-Serif" font-size="10.00">delayMicroseconds</text>
</a>
</g>
</g>
<!-- Node13&#45;&gt;Node14 -->
<g id="edge15_Node000013_Node000014" class="edge">
<title>Node13&#45;&gt;Node14</title>
<g id="a_edge15_Node000013_Node000014"><a xlink:title=" ">
<path fill="none" stroke="#63b8ff" d="M1693.3,-279.5C1701.48,-279.5 1710.02,-279.5 1718.45,-279.5"/>
<polygon fill="#63b8ff" stroke="#63b8ff" points="1718.65,-283 1728.65,-279.5 1718.65,-276 1718.65,-283"/>
</a>
</g>
</g>
<!-- Node13&#45;&gt;Node15 -->
<g id="edge16_Node000013_Node000015" class="edge">
<title>Node13&#45;&gt;Node15</title>
<g id="a_edge16_Node000013_Node000015"><a xlink:title=" ">
<path fill="none" stroke="#63b8ff" d="M1678.31,-269.97C1696.24,-265.27 1718.06,-259.54 1737.13,-254.54"/>
<polygon fill="#63b8ff" stroke="#63b8ff" points="1738.03,-257.92 1746.81,-252 1736.25,-251.15 1738.03,-257.92"/>
</a>
</g>
</g>
<!-- Node16 -->
<g id="Node000016" class="node">
<title>Node16</title>
<g id="a_Node000016"><a xlink:href="../../d5/d45/wiring__digital_8c.xhtml#ae3d0bcbe4eb927ca8f5d5c21b7e4f224" target="_top" xlink:title=" ">
<polygon fill="white" stroke="#666666" points="1950,-252 1875,-252 1875,-233 1950,-233 1950,-252"/>
<text text-anchor="middle" x="1912.5" y="-240" font-family="Helvetica,sans-Serif" font-size="10.00">turnOffPWM</text>
</a>
</g>
</g>
<!-- Node15&#45;&gt;Node16 -->
<g id="edge17_Node000015_Node000016" class="edge">
<title>Node15&#45;&gt;Node16</title>
<g id="a_edge17_Node000015_Node000016"><a xlink:title=" ">
<path fill="none" stroke="#63b8ff" d="M1821.25,-242.5C1834.76,-242.5 1850.3,-242.5 1864.63,-242.5"/>
<polygon fill="#63b8ff" stroke="#63b8ff" points="1864.81,-246 1874.81,-242.5 1864.81,-239 1864.81,-246"/>
</a>
</g>
</g>
<!-- Node17&#45;&gt;Node12 -->
<g id="edge20_Node000017_Node000012" class="edge">
<title>Node17&#45;&gt;Node12</title>
<g id="a_edge20_Node000017_Node000012"><a xlink:title=" ">
<path fill="none" stroke="#63b8ff" d="M1380.77,-246.05C1389.3,-247.25 1398.07,-248.47 1406.72,-249.69"/>
<polygon fill="#63b8ff" stroke="#63b8ff" points="1406.41,-253.18 1416.8,-251.1 1407.38,-246.24 1406.41,-253.18"/>
</a>
</g>
</g>
<!-- Node18&#45;&gt;Node11 -->
<g id="edge22_Node000018_Node000011" class="edge">
<title>Node18&#45;&gt;Node11</title>
<g id="a_edge22_Node000018_Node000011"><a xlink:title=" ">
<path fill="none" stroke="#63b8ff" d="M1015.18,-243.2C1024.3,-244.18 1033.99,-245.23 1043.72,-246.28"/>
<polygon fill="#63b8ff" stroke="#63b8ff" points="1043.53,-249.78 1053.85,-247.38 1044.28,-242.82 1043.53,-249.78"/>
</a>
</g>
</g>
<!-- Node19&#45;&gt;Node11 -->
<g id="edge24_Node000019_Node000011" class="edge">
<title>Node19&#45;&gt;Node11</title>
<g id="a_edge24_Node000019_Node000011"><a xlink:title=" ">
<path fill="none" stroke="#63b8ff" d="M992.2,-301.97C1000.55,-299.26 1009.64,-296.29 1018,-293.5 1042.52,-285.33 1070.01,-275.92 1091.49,-268.51"/>
<polygon fill="#63b8ff" stroke="#63b8ff" points="1092.91,-271.72 1101.22,-265.15 1090.62,-265.11 1092.91,-271.72"/>
</a>
</g>
</g>
<!-- Node20&#45;&gt;Node11 -->
<g id="edge26_Node000020_Node000011" class="edge">
<title>Node20&#45;&gt;Node11</title>
<g id="a_edge26_Node000020_Node000011"><a xlink:title=" ">
<path fill="none" stroke="#63b8ff" d="M1015.64,-268.44C1024.68,-267.4 1034.27,-266.31 1043.89,-265.21"/>
<polygon fill="#63b8ff" stroke="#63b8ff" points="1044.37,-268.68 1053.91,-264.07 1043.58,-261.73 1044.37,-268.68"/>
</a>
</g>
</g>
<!-- Node23 -->
<g id="Node000023" class="node">
<title>Node23</title>
<g id="a_Node000023"><a xlink:href="../../d2/de7/classSoftwareSerial.xhtml#a4cbf77a4e90e15ca576972d7952659c5" target="_top" xlink:title=" ">
<polygon fill="white" stroke="#666666" points="545,-360 407,-360 407,-341 545,-341 545,-360"/>
<text text-anchor="middle" x="476" y="-348" font-family="Helvetica,sans-Serif" font-size="10.00">SoftwareSerial::available</text>
</a>
</g>
</g>
<!-- Node22&#45;&gt;Node23 -->
<g id="edge29_Node000022_Node000023" class="edge">
<title>Node22&#45;&gt;Node23</title>
<g id="a_edge29_Node000022_Node000023"><a xlink:title=" ">
<path fill="none" stroke="#63b8ff" d="M357.55,-350.5C368.92,-350.5 382.66,-350.5 396.67,-350.5"/>
<polygon fill="#63b8ff" stroke="#63b8ff" points="396.9,-354 406.9,-350.5 396.9,-347 396.9,-354"/>
</a>
</g>
</g>
<!-- Node25 -->
<g id="Node000025" class="node">
<title>Node25</title>
<g id="a_Node000025"><a xlink:href="../../d2/de7/classSoftwareSerial.xhtml#a2d0b2f2868d519c716114777f482705b" target="_top" xlink:title=" ">
<polygon fill="white" stroke="#666666" points="533.5,-397 418.5,-397 418.5,-378 533.5,-378 533.5,-397"/>
<text text-anchor="middle" x="476" y="-385" font-family="Helvetica,sans-Serif" font-size="10.00">SoftwareSerial::read</text>
</a>
</g>
</g>
<!-- Node22&#45;&gt;Node25 -->
<g id="edge31_Node000022_Node000025" class="edge">
<title>Node22&#45;&gt;Node25</title>
<g id="a_edge31_Node000022_Node000025"><a xlink:title=" ">
<path fill="none" stroke="#63b8ff" d="M357.55,-357.63C377.34,-362.66 404.32,-369.53 427.43,-375.4"/>
<polygon fill="#63b8ff" stroke="#63b8ff" points="426.85,-378.87 437.4,-377.94 428.57,-372.08 426.85,-378.87"/>
</a>
</g>
</g>
<!-- Node22&#45;&gt;Node26 -->
<g id="edge33_Node000022_Node000026" class="edge">
<title>Node22&#45;&gt;Node26</title>
<g id="a_edge33_Node000022_Node000026"><a xlink:title=" ">
<path fill="none" stroke="#63b8ff" d="M345.91,-340.91C371.12,-326.18 419.61,-297.86 449.45,-280.43"/>
<polygon fill="#63b8ff" stroke="#63b8ff" points="451.56,-283.25 458.43,-275.18 448.03,-277.2 451.56,-283.25"/>
</a>
</g>
</g>
<!-- Node24 -->
<g id="Node000024" class="node">
<title>Node24</title>
<g id="a_Node000024"><a xlink:href="../../d2/de7/classSoftwareSerial.xhtml#a7b3fb4a8f57d2b5f2233f841d71ef80f" target="_top" xlink:title=" ">
<polygon fill="white" stroke="#666666" points="727,-397 581,-397 581,-378 727,-378 727,-397"/>
<text text-anchor="middle" x="654" y="-385" font-family="Helvetica,sans-Serif" font-size="10.00">SoftwareSerial::isListening</text>
</a>
</g>
</g>
<!-- Node23&#45;&gt;Node24 -->
<g id="edge30_Node000023_Node000024" class="edge">
<title>Node23&#45;&gt;Node24</title>
<g id="a_edge30_Node000023_Node000024"><a xlink:title=" ">
<path fill="none" stroke="#63b8ff" d="M522.32,-360.03C545.33,-364.86 573.47,-370.78 597.74,-375.88"/>
<polygon fill="#63b8ff" stroke="#63b8ff" points="597.02,-379.31 607.52,-377.94 598.46,-372.46 597.02,-379.31"/>
</a>
</g>
</g>
<!-- Node25&#45;&gt;Node24 -->
<g id="edge32_Node000025_Node000024" class="edge">
<title>Node25&#45;&gt;Node24</title>
<g id="a_edge32_Node000025_Node000024"><a xlink:title=" ">
<path fill="none" stroke="#63b8ff" d="M533.66,-387.5C545.55,-387.5 558.32,-387.5 570.93,-387.5"/>
<polygon fill="#63b8ff" stroke="#63b8ff" points="570.99,-391 580.99,-387.5 570.99,-384 570.99,-391"/>
</a>
</g>
</g>
<!-- Node27 -->
<g id="Node000027" class="node">
<title>Node27</title>
<g id="a_Node000027"><a xlink:href="../../db/d17/led_8cpp.xhtml#a7ba25f44529972e627561bcf6efc192f" target="_top" xlink:title="La LED passe successivement du rouge au vert. La LED reste rouge pendant 1 seconde puis passe au vert...">
<polygon fill="white" stroke="#666666" points="719.5,-180 588.5,-180 588.5,-161 719.5,-161 719.5,-180"/>
<text text-anchor="middle" x="654" y="-168" font-family="Helvetica,sans-Serif" font-size="10.00">switchLEDToRed2Green</text>
</a>
</g>
</g>
<!-- Node26&#45;&gt;Node27 -->
<g id="edge34_Node000026_Node000027" class="edge">
<title>Node26&#45;&gt;Node27</title>
<g id="a_edge34_Node000026_Node000027"><a xlink:title=" ">
<path fill="none" stroke="#63b8ff" d="M494.84,-255.87C525.89,-239.11 590,-204.51 626.34,-184.89"/>
<polygon fill="#63b8ff" stroke="#63b8ff" points="628.23,-187.85 635.37,-180.02 624.91,-181.69 628.23,-187.85"/>
</a>
</g>
</g>
<!-- Node29 -->
<g id="Node000029" class="node">
<title>Node29</title>
<g id="a_Node000029"><a xlink:href="../../db/d17/led_8cpp.xhtml#ac050c3041978fab0c3028de0fdc31618" target="_top" xlink:title="La LED passe successivement du rouge au blanc. La LED reste rouge pendant 1 seconde puis passe au bla...">
<polygon fill="white" stroke="#666666" points="719.5,-95 588.5,-95 588.5,-76 719.5,-76 719.5,-95"/>
<text text-anchor="middle" x="654" y="-83" font-family="Helvetica,sans-Serif" font-size="10.00">switchLEDToRed2White</text>
</a>
</g>
</g>
<!-- Node26&#45;&gt;Node29 -->
<g id="edge39_Node000026_Node000029" class="edge">
<title>Node26&#45;&gt;Node29</title>
<g id="a_edge39_Node000026_Node000029"><a xlink:title=" ">
<path fill="none" stroke="#63b8ff" d="M480.34,-255.65C490.53,-227.22 523.98,-144.42 581,-103.5 582.91,-102.13 584.92,-100.86 587,-99.68"/>
<polygon fill="#63b8ff" stroke="#63b8ff" points="588.99,-102.61 596.49,-95.14 585.96,-96.3 588.99,-102.61"/>
</a>
</g>
</g>
<!-- Node32 -->
<g id="Node000032" class="node">
<title>Node32</title>
<g id="a_Node000032"><a xlink:href="../../db/d17/led_8cpp.xhtml#aa04c4b7972bc68200e4d2da56b097115" target="_top" xlink:title="La LED passe successivement du rouge au bleu avec une fréquence de 1 seconde.">
<polygon fill="white" stroke="#666666" points="713,-360 595,-360 595,-341 713,-341 713,-360"/>
<text text-anchor="middle" x="654" y="-348" font-family="Helvetica,sans-Serif" font-size="10.00">switchLEDToRedBlue</text>
</a>
</g>
</g>
<!-- Node26&#45;&gt;Node32 -->
<g id="edge45_Node000026_Node000032" class="edge">
<title>Node26&#45;&gt;Node32</title>
<g id="a_edge45_Node000026_Node000032"><a xlink:title=" ">
<path fill="none" stroke="#63b8ff" d="M493.64,-275.2C513.93,-286.86 549.44,-306.7 581,-321.5 592.82,-327.04 606,-332.54 617.83,-337.24"/>
<polygon fill="#63b8ff" stroke="#63b8ff" points="616.79,-340.59 627.38,-340.98 619.34,-334.07 616.79,-340.59"/>
</a>
</g>
</g>
<!-- Node33 -->
<g id="Node000033" class="node">
<title>Node33</title>
<g id="a_Node000033"><a xlink:href="../../db/d17/led_8cpp.xhtml#a59bf7437503d490ee53223c3bd20aa0c" target="_top" xlink:title="La LED passe successivement du rouge au vert avec une fréquence de 1 seconde.">
<polygon fill="white" stroke="#666666" points="716.5,-312 591.5,-312 591.5,-293 716.5,-293 716.5,-312"/>
<text text-anchor="middle" x="654" y="-300" font-family="Helvetica,sans-Serif" font-size="10.00">switchLEDToRedGreen</text>
</a>
</g>
</g>
<!-- Node26&#45;&gt;Node33 -->
<g id="edge49_Node000026_Node000033" class="edge">
<title>Node26&#45;&gt;Node33</title>
<g id="a_edge49_Node000026_Node000033"><a xlink:title=" ">
<path fill="none" stroke="#63b8ff" d="M522.32,-275.03C545.33,-279.86 573.47,-285.78 597.74,-290.88"/>
<polygon fill="#63b8ff" stroke="#63b8ff" points="597.02,-294.31 607.52,-292.94 598.46,-287.46 597.02,-294.31"/>
</a>
</g>
</g>
<!-- Node34 -->
<g id="Node000034" class="node">
<title>Node34</title>
<g id="a_Node000034"><a xlink:href="../../db/d17/led_8cpp.xhtml#a3f8b463c1fa4e1715beb1a4a6e4c36b3" target="_top" xlink:title="La LED passe successivement du rouge au blanc avec une fréquence de 1 seconde.">
<polygon fill="white" stroke="#666666" points="716.5,-132 591.5,-132 591.5,-113 716.5,-113 716.5,-132"/>
<text text-anchor="middle" x="654" y="-120" font-family="Helvetica,sans-Serif" font-size="10.00">switchLEDToRedWhite</text>
</a>
</g>
</g>
<!-- Node26&#45;&gt;Node34 -->
<g id="edge53_Node000026_Node000034" class="edge">
<title>Node26&#45;&gt;Node34</title>
<g id="a_edge53_Node000026_Node000034"><a xlink:title=" ">
<path fill="none" stroke="#63b8ff" d="M483.44,-255.91C498.27,-234.45 536.99,-182.07 581,-151.5 590.15,-145.14 600.9,-139.87 611.27,-135.64"/>
<polygon fill="#63b8ff" stroke="#63b8ff" points="612.54,-138.9 620.62,-132.05 610.03,-132.36 612.54,-138.9"/>
</a>
</g>
</g>
<!-- Node35 -->
<g id="Node000035" class="node">
<title>Node35</title>
<g id="a_Node000035"><a xlink:href="../../db/d17/led_8cpp.xhtml#a91398c440a9f9f48d59e14eb727e61ae" target="_top" xlink:title="La LED passe successivement du rouge au jaune avec une fréquence de 1 seconde.">
<polygon fill="white" stroke="#666666" points="717.5,-256 590.5,-256 590.5,-237 717.5,-237 717.5,-256"/>
<text text-anchor="middle" x="654" y="-244" font-family="Helvetica,sans-Serif" font-size="10.00">switchLEDToRedYellow</text>
</a>
</g>
</g>
<!-- Node26&#45;&gt;Node35 -->
<g id="edge56_Node000026_Node000035" class="edge">
<title>Node26&#45;&gt;Node35</title>
<g id="a_edge56_Node000026_Node000035"><a xlink:title=" ">
<path fill="none" stroke="#63b8ff" d="M530.76,-259.7C546.33,-258.02 563.6,-256.15 580.13,-254.37"/>
<polygon fill="#63b8ff" stroke="#63b8ff" points="580.74,-257.82 590.31,-253.27 579.99,-250.86 580.74,-257.82"/>
</a>
</g>
</g>
<!-- Node27&#45;&gt;Node4 -->
<g id="edge35_Node000027_Node000004" class="edge">
<title>Node27&#45;&gt;Node4</title>
<g id="a_edge35_Node000027_Node000004"><a xlink:title=" ">
<path fill="none" stroke="#63b8ff" d="M670.24,-180.16C685.9,-190.64 710.29,-208.57 727,-228.5 764.88,-273.68 794.17,-337.66 807.35,-369.28"/>
<polygon fill="#63b8ff" stroke="#63b8ff" points="804.17,-370.75 811.2,-378.69 810.65,-368.1 804.17,-370.75"/>
</a>
</g>
</g>
<!-- Node27&#45;&gt;Node18 -->
<g id="edge36_Node000027_Node000018" class="edge">
<title>Node27&#45;&gt;Node18</title>
<g id="a_edge36_Node000027_Node000018"><a xlink:title=" ">
<path fill="none" stroke="#63b8ff" d="M698.45,-180.03C753.26,-192.05 847.51,-212.72 906.79,-225.72"/>
<polygon fill="#63b8ff" stroke="#63b8ff" points="906.19,-229.17 916.71,-227.9 907.69,-222.34 906.19,-229.17"/>
</a>
</g>
</g>
<!-- Node28 -->
<g id="Node000028" class="node">
<title>Node28</title>
<g id="a_Node000028"><a xlink:href="../../db/d17/led_8cpp.xhtml#ae18cd762c6f843eb4421cd651a5d3940" target="_top" xlink:title="Allume la LED en rouge.">
<polygon fill="white" stroke="#666666" points="1009.5,-209 913.5,-209 913.5,-190 1009.5,-190 1009.5,-209"/>
<text text-anchor="middle" x="961.5" y="-197" font-family="Helvetica,sans-Serif" font-size="10.00">switchLEDToRed</text>
</a>
</g>
</g>
<!-- Node27&#45;&gt;Node28 -->
<g id="edge37_Node000027_Node000028" class="edge">
<title>Node27&#45;&gt;Node28</title>
<g id="a_edge37_Node000027_Node000028"><a xlink:title=" ">
<path fill="none" stroke="#63b8ff" d="M682.86,-160.9C724.17,-148.1 803.83,-128.99 869,-146.5 895.72,-153.68 922.7,-170.78 940.36,-183.63"/>
<polygon fill="#63b8ff" stroke="#63b8ff" points="938.6,-186.68 948.7,-189.88 942.8,-181.08 938.6,-186.68"/>
</a>
</g>
</g>
<!-- Node28&#45;&gt;Node11 -->
<g id="edge38_Node000028_Node000011" class="edge">
<title>Node28&#45;&gt;Node11</title>
<g id="a_edge38_Node000028_Node000011"><a xlink:title=" ">
<path fill="none" stroke="#63b8ff" d="M991.12,-209.13C1018.69,-218.4 1060.56,-232.48 1090.93,-242.7"/>
<polygon fill="#63b8ff" stroke="#63b8ff" points="1090.16,-246.13 1100.75,-246 1092.39,-239.49 1090.16,-246.13"/>
</a>
</g>
</g>
<!-- Node30 -->
<g id="Node000030" class="node">
<title>Node30</title>
<g id="a_Node000030"><a xlink:href="../../db/d17/led_8cpp.xhtml#a568e3f9750c24e5262ff1953d439acaa" target="_top" xlink:title="Initialise la boucle de clignotement de la LED.">
<polygon fill="white" stroke="#666666" points="853,-94 779,-94 779,-75 853,-75 853,-94"/>
<text text-anchor="middle" x="816" y="-82" font-family="Helvetica,sans-Serif" font-size="10.00">initLEDLoop</text>
</a>
</g>
</g>
<!-- Node29&#45;&gt;Node30 -->
<g id="edge40_Node000029_Node000030" class="edge">
<title>Node29&#45;&gt;Node30</title>
<g id="a_edge40_Node000029_Node000030"><a xlink:title=" ">
<path fill="none" stroke="#63b8ff" d="M719.62,-85.1C735.97,-84.99 753.2,-84.89 768.46,-84.79"/>
<polygon fill="#63b8ff" stroke="#63b8ff" points="768.7,-88.29 778.67,-84.73 768.65,-81.29 768.7,-88.29"/>
</a>
</g>
</g>
<!-- Node29&#45;&gt;Node31 -->
<g id="edge43_Node000029_Node000031" class="edge">
<title>Node29&#45;&gt;Node31</title>
<g id="a_edge43_Node000029_Node000031"><a xlink:title=" ">
<path fill="none" stroke="#63b8ff" d="M695.37,-75.91C716.49,-70.9 742.53,-64.71 764.92,-59.39"/>
<polygon fill="#63b8ff" stroke="#63b8ff" points="765.99,-62.74 774.92,-57.02 764.38,-55.93 765.99,-62.74"/>
</a>
</g>
</g>
<!-- Node30&#45;&gt;Node6 -->
<g id="edge41_Node000030_Node000006" class="edge">
<title>Node30&#45;&gt;Node6</title>
<g id="a_edge41_Node000030_Node000006"><a xlink:title=" ">
<path fill="none" stroke="#63b8ff" d="M853.02,-94.03C924.09,-113.81 1085.89,-163.7 1206,-237.5 1241.1,-259.07 1275.57,-292.89 1294.83,-313.25"/>
<polygon fill="#63b8ff" stroke="#63b8ff" points="1292.51,-315.9 1301.88,-320.83 1297.63,-311.13 1292.51,-315.9"/>
</a>
</g>
</g>
<!-- Node30&#45;&gt;Node28 -->
<g id="edge42_Node000030_Node000028" class="edge">
<title>Node30&#45;&gt;Node28</title>
<g id="a_edge42_Node000030_Node000028"><a xlink:title=" ">
<path fill="none" stroke="#63b8ff" d="M844.38,-94.11C852.79,-97.83 861.73,-102.62 869,-108.5 889.74,-125.26 886.29,-137.5 905,-156.5 914.89,-166.54 927.16,-176.29 937.66,-183.95"/>
<polygon fill="#63b8ff" stroke="#63b8ff" points="935.78,-186.91 945.96,-189.86 939.84,-181.21 935.78,-186.91"/>
</a>
</g>
</g>
<!-- Node31&#45;&gt;Node11 -->
<g id="edge44_Node000031_Node000011" class="edge">
<title>Node31&#45;&gt;Node11</title>
<g id="a_edge44_Node000031_Node000011"><a xlink:title=" ">
<path fill="none" stroke="#63b8ff" d="M849.53,-57.09C856.13,-59.49 862.91,-62.31 869,-65.5 967.71,-117.16 1070.28,-203.52 1110.9,-239.26"/>
<polygon fill="#63b8ff" stroke="#63b8ff" points="1108.58,-241.88 1118.39,-245.89 1113.22,-236.64 1108.58,-241.88"/>
</a>
</g>
</g>
<!-- Node32&#45;&gt;Node4 -->
<g id="edge46_Node000032_Node000004" class="edge">
<title>Node32&#45;&gt;Node4</title>
<g id="a_edge46_Node000032_Node000004"><a xlink:title=" ">
<path fill="none" stroke="#63b8ff" d="M695.37,-360.09C716.83,-365.18 743.36,-371.49 765.99,-376.86"/>
<polygon fill="#63b8ff" stroke="#63b8ff" points="765.21,-380.27 775.74,-379.18 766.82,-373.46 765.21,-380.27"/>
</a>
</g>
</g>
<!-- Node32&#45;&gt;Node10 -->
<g id="edge47_Node000032_Node000010" class="edge">
<title>Node32&#45;&gt;Node10</title>
<g id="a_edge47_Node000032_Node000010"><a xlink:title=" ">
<path fill="none" stroke="#63b8ff" d="M705.63,-360.03C713.08,-362.5 720.44,-365.61 727,-369.5 747.01,-381.37 742.52,-396.47 763,-407.5 805.82,-430.56 860.7,-438.87 901.74,-441.67"/>
<polygon fill="#63b8ff" stroke="#63b8ff" points="901.67,-445.17 911.86,-442.27 902.08,-438.18 901.67,-445.17"/>
</a>
</g>
</g>
<!-- Node32&#45;&gt;Node28 -->
<g id="edge48_Node000032_Node000028" class="edge">
<title>Node32&#45;&gt;Node28</title>
<g id="a_edge48_Node000032_Node000028"><a xlink:title=" ">
<path fill="none" stroke="#63b8ff" d="M698.21,-340.9C744.04,-329.14 816.88,-305.76 869,-266.5 890.02,-250.67 883.76,-235.03 905,-219.5 908.21,-217.15 911.72,-215.06 915.37,-213.19"/>
<polygon fill="#63b8ff" stroke="#63b8ff" points="916.96,-216.31 924.63,-209.01 914.08,-209.93 916.96,-216.31"/>
</a>
</g>
</g>
<!-- Node33&#45;&gt;Node4 -->
<g id="edge50_Node000033_Node000004" class="edge">
<title>Node33&#45;&gt;Node4</title>
<g id="a_edge50_Node000033_Node000004"><a xlink:title=" ">
<path fill="none" stroke="#63b8ff" d="M680.81,-312.01C694.75,-317.45 712.11,-324.73 727,-332.5 750.38,-344.69 775.64,-361.14 793.07,-373.05"/>
<polygon fill="#63b8ff" stroke="#63b8ff" points="791.2,-376.01 801.42,-378.81 795.18,-370.25 791.2,-376.01"/>
</a>
</g>
</g>
<!-- Node33&#45;&gt;Node18 -->
<g id="edge51_Node000033_Node000018" class="edge">
<title>Node33&#45;&gt;Node18</title>
<g id="a_edge51_Node000033_Node000018"><a xlink:title=" ">
<path fill="none" stroke="#63b8ff" d="M716.9,-308.84C760.99,-310.92 820.74,-308.68 869,-288.5 888.75,-280.24 886.51,-267.29 905,-256.5 908.61,-254.39 912.49,-252.47 916.46,-250.73"/>
<polygon fill="#63b8ff" stroke="#63b8ff" points="917.82,-253.96 925.81,-247 915.22,-247.46 917.82,-253.96"/>
</a>
</g>
</g>
<!-- Node33&#45;&gt;Node28 -->
<g id="edge52_Node000033_Node000028" class="edge">
<title>Node33&#45;&gt;Node28</title>
<g id="a_edge52_Node000033_Node000028"><a xlink:title=" ">
<path fill="none" stroke="#63b8ff" d="M689.89,-292.91C732.59,-280.87 806.9,-258.93 869,-235.5 885.38,-229.32 888.75,-226.03 905,-219.5 910.86,-217.14 917.12,-214.76 923.25,-212.5"/>
<polygon fill="#63b8ff" stroke="#63b8ff" points="924.48,-215.78 932.69,-209.08 922.09,-209.2 924.48,-215.78"/>
</a>
</g>
</g>
<!-- Node34&#45;&gt;Node30 -->
<g id="edge54_Node000034_Node000030" class="edge">
<title>Node34&#45;&gt;Node30</title>
<g id="a_edge54_Node000034_Node000030"><a xlink:title=" ">
<path fill="none" stroke="#63b8ff" d="M695.37,-112.91C717.71,-107.61 745.56,-100.99 768.77,-95.48"/>
<polygon fill="#63b8ff" stroke="#63b8ff" points="769.82,-98.83 778.74,-93.11 768.2,-92.02 769.82,-98.83"/>
</a>
</g>
</g>
<!-- Node34&#45;&gt;Node31 -->
<g id="edge55_Node000034_Node000031" class="edge">
<title>Node34&#45;&gt;Node31</title>
<g id="a_edge55_Node000034_Node000031"><a xlink:title=" ">
<path fill="none" stroke="#63b8ff" d="M705.63,-112.97C713.08,-110.5 720.44,-107.39 727,-103.5 747.01,-91.63 743.45,-78.11 763,-65.5 765.41,-63.95 767.97,-62.51 770.61,-61.18"/>
<polygon fill="#63b8ff" stroke="#63b8ff" points="772.08,-64.36 779.8,-57.1 769.24,-57.96 772.08,-64.36"/>
</a>
</g>
</g>
<!-- Node35&#45;&gt;Node4 -->
<g id="edge57_Node000035_Node000004" class="edge">
<title>Node35&#45;&gt;Node4</title>
<g id="a_edge57_Node000035_Node000004"><a xlink:title=" ">
<path fill="none" stroke="#63b8ff" d="M678.41,-256.08C693.2,-262.78 712.24,-272.63 727,-284.5 758.62,-309.91 787.36,-347.95 802.9,-370.29"/>
<polygon fill="#63b8ff" stroke="#63b8ff" points="800.19,-372.54 808.72,-378.83 805.98,-368.59 800.19,-372.54"/>
</a>
</g>
</g>
<!-- Node35&#45;&gt;Node20 -->
<g id="edge59_Node000035_Node000020" class="edge">
<title>Node35&#45;&gt;Node20</title>
<g id="a_edge59_Node000035_Node000020"><a xlink:title=" ">
<path fill="none" stroke="#63b8ff" d="M717.56,-252.23C769.93,-257.03 844.34,-263.85 896.97,-268.68"/>
<polygon fill="#63b8ff" stroke="#63b8ff" points="896.92,-272.19 907.2,-269.61 897.56,-265.22 896.92,-272.19"/>
</a>
</g>
</g>
<!-- Node35&#45;&gt;Node28 -->
<g id="edge58_Node000035_Node000028" class="edge">
<title>Node35&#45;&gt;Node28</title>
<g id="a_edge58_Node000035_Node000028"><a xlink:title=" ">
<path fill="none" stroke="#63b8ff" d="M716.82,-236.99C771.37,-228.6 850.23,-216.46 903.33,-208.3"/>
<polygon fill="#63b8ff" stroke="#63b8ff" points="903.91,-211.75 913.26,-206.77 902.85,-204.83 903.91,-211.75"/>
</a>
</g>
</g>
<!-- Node37 -->
<g id="Node000037" class="node">
<title>Node37</title>
<g id="a_Node000037"><a xlink:href="../../dc/de5/timer_8cpp.xhtml#acf94c4a2b4e9e1390da758b6da43d5f0" target="_top" xlink:title="Arrête le timer.">
<polygon fill="white" stroke="#666666" points="512,-19 440,-19 440,0 512,0 512,-19"/>
<text text-anchor="middle" x="476" y="-7" font-family="Helvetica,sans-Serif" font-size="10.00">stopTimer2</text>
</a>
</g>
</g>
<!-- Node36&#45;&gt;Node37 -->
<g id="edge61_Node000036_Node000037" class="edge">
<title>Node36&#45;&gt;Node37</title>
<g id="a_edge61_Node000036_Node000037"><a xlink:title=" ">
<path fill="none" stroke="#63b8ff" d="M371.19,-9.5C389.47,-9.5 410.98,-9.5 429.65,-9.5"/>
<polygon fill="#63b8ff" stroke="#63b8ff" points="429.7,-13 439.7,-9.5 429.7,-6 429.7,-13"/>
</a>
</g>
</g>
</g>
</svg>

<g id="navigator" transform="translate(0 0)" fill="#404254">
  <rect fill="#f2f5e9" fill-opacity="0.5" stroke="#606060" stroke-width=".5" x="0" y="0" width="60" height="60"/>
  <use id="zoomplus" xlink:href="#zoomPlus" x="17" y="9" onmousedown="handleZoom(evt,'in')"/>
  <use id="zoomminus" xlink:href="#zoomMin" x="42" y="9" onmousedown="handleZoom(evt,'out')"/>
  <use id="reset" xlink:href="#resetDef" x="30" y="36" onmousedown="handleReset()"/>
   <use id="arrowup" xlink:href="#arrowUp" x="0" y="0" onmousedown="handlePan(0,-1)"/>
  <use id="arrowright" xlink:href="#arrowRight" x="0" y="0" onmousedown="handlePan(1,0)"/>
  <use id="arrowdown" xlink:href="#arrowDown" x="0" y="0" onmousedown="handlePan(0,1)"/>
  <use id="arrowleft" xlink:href="#arrowLeft" x="0" y="0" onmousedown="handlePan(-1,0)"/>
</g>
<svg viewBox="0 0 15 15" width="100%" height="30px" preserveAspectRatio="xMaxYMin meet">
 <g id="arrow_out" transform="scale(0.3 0.3)">
  <a xlink:href="maintenance_8cpp_ae80c7faecffa585182b14e2ee396009e_cgraph_org.svg" target="_base">
   <rect id="button" ry="5" rx="5" y="6" x="6" height="38" width="38"
        fill="#f2f5e9" fill-opacity="0.5" stroke="#606060" stroke-width="1.0"/>
   <path id="arrow"
     d="M 11.500037,31.436501 C 11.940474,20.09759 22.043105,11.32322 32.158766,21.979434 L 37.068811,17.246167 C 37.068811,17.246167 37.088388,32 37.088388,32 L 22.160133,31.978069 C 22.160133,31.978069 26.997745,27.140456 26.997745,27.140456 C 18.528582,18.264221 13.291696,25.230495 11.500037,31.436501 z"
     style="fill:#404040;"/>
  </a>
 </g>
</svg>

<style type='text/css'>
<![CDATA[
[data-mouse-over-selected='false'] { opacity: 0.7; }
[data-mouse-over-selected='true']  { opacity: 1.0; }
]]>
</style>
<script type="application/ecmascript"><![CDATA[
document.addEventListener('DOMContentLoaded', (event) => {
  highlightEdges();
  highlightAdjacentNodes();
});
]]></script>
</svg>
