<?xml version="1.0" encoding="UTF-8" standalone="no"?>
<!DOCTYPE svg PUBLIC "-//W3C//DTD SVG 1.1//EN"
 "http://www.w3.org/Graphics/SVG/1.1/DTD/svg11.dtd">
<!-- Generated by graphviz version 2.43.0 (0)
 -->
<!-- Title: FsCache::invalidate Pages: 1 -->
<svg width="631pt" height="315pt"
 viewBox="0.00 0.00 631.00 315.00" xmlns="http://www.w3.org/2000/svg" xmlns:xlink="http://www.w3.org/1999/xlink">
<g id="graph0" class="graph" transform="scale(1 1) rotate(0) translate(4 311)">
<title>FsCache::invalidate</title>
<!-- Node1 -->
<g id="Node000001" class="node">
<title>Node1</title>
<g id="a_Node000001"><a xlink:title=" ">
<polygon fill="#999999" stroke="#666666" points="623,-136 510,-136 510,-117 623,-117 623,-136"/>
<text text-anchor="middle" x="566.5" y="-124" font-family="Helvetica,sans-Serif" font-size="10.00">FsCache::invalidate</text>
</a>
</g>
</g>
<!-- Node2 -->
<g id="Node000002" class="node">
<title>Node2</title>
<g id="a_Node000002"><a xlink:href="../../dd/db1/classFsCache.xhtml#a9f4dbc38bec3bb67e8a00ebcb6fd1c81" target="_top" xlink:title=" ">
<polygon fill="white" stroke="#666666" points="473.5,-227 333.5,-227 333.5,-208 473.5,-208 473.5,-227"/>
<text text-anchor="middle" x="403.5" y="-215" font-family="Helvetica,sans-Serif" font-size="10.00">FsCache::cacheSafeWrite</text>
</a>
</g>
</g>
<!-- Node1&#45;&gt;Node2 -->
<g id="edge1_Node000001_Node000002" class="edge">
<title>Node1&#45;&gt;Node2</title>
<g id="a_edge1_Node000001_Node000002"><a xlink:title=" ">
<path fill="none" stroke="#63b8ff" d="M542.28,-141.44C523.97,-153.05 497.67,-169.33 474,-182.5 457.59,-191.63 438.51,-201.17 424.5,-207.97"/>
<polygon fill="#63b8ff" stroke="#63b8ff" points="544.27,-144.33 550.83,-136 540.51,-138.42 544.27,-144.33"/>
</a>
</g>
</g>
<!-- Node9 -->
<g id="Node000009" class="node">
<title>Node9</title>
<g id="a_Node000009"><a xlink:href="../../dd/db1/classFsCache.xhtml#ab98f8564c715a9b081587c4ae8d343cc" target="_top" xlink:title=" ">
<polygon fill="white" stroke="#666666" points="473.5,-173 333.5,-173 333.5,-154 473.5,-154 473.5,-173"/>
<text text-anchor="middle" x="403.5" y="-161" font-family="Helvetica,sans-Serif" font-size="10.00">FsCache::cacheSafeWrite</text>
</a>
</g>
</g>
<!-- Node1&#45;&gt;Node9 -->
<g id="edge8_Node000001_Node000009" class="edge">
<title>Node1&#45;&gt;Node9</title>
<g id="a_edge8_Node000001_Node000009"><a xlink:title=" ">
<path fill="none" stroke="#63b8ff" d="M514.2,-138.29C492.23,-143.34 466.89,-149.16 446.1,-153.94"/>
<polygon fill="#63b8ff" stroke="#63b8ff" points="515.08,-141.68 524.04,-136.03 513.51,-134.86 515.08,-141.68"/>
</a>
</g>
</g>
<!-- Node10 -->
<g id="Node000010" class="node">
<title>Node10</title>
<g id="a_Node000010"><a xlink:href="../../dd/db1/classFsCache.xhtml#a1f06585b0a7d2646b6e375e618591d49" target="_top" xlink:title=" ">
<polygon fill="white" stroke="#666666" points="447.5,-136 359.5,-136 359.5,-117 447.5,-117 447.5,-136"/>
<text text-anchor="middle" x="403.5" y="-124" font-family="Helvetica,sans-Serif" font-size="10.00">FsCache::clear</text>
</a>
</g>
</g>
<!-- Node1&#45;&gt;Node10 -->
<g id="edge9_Node000001_Node000010" class="edge">
<title>Node1&#45;&gt;Node10</title>
<g id="a_edge9_Node000001_Node000010"><a xlink:title=" ">
<path fill="none" stroke="#63b8ff" d="M499.47,-126.5C481.96,-126.5 463.5,-126.5 447.57,-126.5"/>
<polygon fill="#63b8ff" stroke="#63b8ff" points="499.64,-130 509.64,-126.5 499.64,-123 499.64,-130"/>
</a>
</g>
</g>
<!-- Node15 -->
<g id="Node000015" class="node">
<title>Node15</title>
<g id="a_Node000015"><a xlink:href="../../d0/d63/classExFatPartition.xhtml#af9812cc04222dc4f95820cb0d55b8c91" target="_top" xlink:title=" ">
<polygon fill="white" stroke="#666666" points="474,-98.5 333,-98.5 333,-68.5 474,-68.5 474,-98.5"/>
<text text-anchor="start" x="341" y="-86.5" font-family="Helvetica,sans-Serif" font-size="10.00">ExFatPartition::dataCache</text>
<text text-anchor="middle" x="403.5" y="-75.5" font-family="Helvetica,sans-Serif" font-size="10.00">Invalidate</text>
</a>
</g>
</g>
<!-- Node1&#45;&gt;Node15 -->
<g id="edge14_Node000001_Node000015" class="edge">
<title>Node1&#45;&gt;Node15</title>
<g id="a_edge14_Node000001_Node000015"><a xlink:title=" ">
<path fill="none" stroke="#63b8ff" d="M519.88,-114.32C501.47,-109.4 480.04,-103.68 460.69,-98.51"/>
<polygon fill="#63b8ff" stroke="#63b8ff" points="519.2,-117.76 529.77,-116.96 521.01,-110.99 519.2,-117.76"/>
</a>
</g>
</g>
<!-- Node16 -->
<g id="Node000016" class="node">
<title>Node16</title>
<g id="a_Node000016"><a xlink:href="../../dd/db1/classFsCache.xhtml#a56724bd91ce82c962b7b6002185d01d3" target="_top" xlink:title=" ">
<polygon fill="white" stroke="#666666" points="443.5,-50 363.5,-50 363.5,-31 443.5,-31 443.5,-50"/>
<text text-anchor="middle" x="403.5" y="-38" font-family="Helvetica,sans-Serif" font-size="10.00">FsCache::init</text>
</a>
</g>
</g>
<!-- Node1&#45;&gt;Node16 -->
<g id="edge15_Node000001_Node000016" class="edge">
<title>Node1&#45;&gt;Node16</title>
<g id="a_edge15_Node000001_Node000016"><a xlink:title=" ">
<path fill="none" stroke="#63b8ff" d="M547.32,-110.04C529.74,-94.92 501.74,-72.88 474,-59.5 464.54,-54.93 453.8,-51.32 443.65,-48.52"/>
<polygon fill="#63b8ff" stroke="#63b8ff" points="545.25,-112.88 555.07,-116.84 549.87,-107.62 545.25,-112.88"/>
</a>
</g>
</g>
<!-- Node3 -->
<g id="Node000003" class="node">
<title>Node3</title>
<g id="a_Node000003"><a xlink:href="../../d8/d15/classFatPartition.xhtml#a9640699294eed1e5e2e0bd9179d06803" target="_top" xlink:title=" ">
<polygon fill="white" stroke="#666666" points="297,-307 143,-307 143,-288 297,-288 297,-307"/>
<text text-anchor="middle" x="220" y="-295" font-family="Helvetica,sans-Serif" font-size="10.00">FatPartition::cacheSafeWrite</text>
</a>
</g>
</g>
<!-- Node2&#45;&gt;Node3 -->
<g id="edge2_Node000002_Node000003" class="edge">
<title>Node2&#45;&gt;Node3</title>
<g id="a_edge2_Node000002_Node000003"><a xlink:title=" ">
<path fill="none" stroke="#63b8ff" d="M380.83,-232.86C360.17,-246.85 327.74,-267.15 297,-279.5 288.7,-282.84 279.62,-285.65 270.73,-287.98"/>
<polygon fill="#63b8ff" stroke="#63b8ff" points="382.93,-235.66 389.19,-227.11 378.96,-229.89 382.93,-235.66"/>
</a>
</g>
</g>
<!-- Node5 -->
<g id="Node000005" class="node">
<title>Node5</title>
<g id="a_Node000005"><a xlink:href="../../d8/d15/classFatPartition.xhtml#a44a9b0681e645f075187d242c9dfee77" target="_top" xlink:title=" ">
<polygon fill="white" stroke="#666666" points="297,-270 143,-270 143,-251 297,-251 297,-270"/>
<text text-anchor="middle" x="220" y="-258" font-family="Helvetica,sans-Serif" font-size="10.00">FatPartition::cacheSafeWrite</text>
</a>
</g>
</g>
<!-- Node2&#45;&gt;Node5 -->
<g id="edge4_Node000002_Node000005" class="edge">
<title>Node2&#45;&gt;Node5</title>
<g id="a_edge4_Node000002_Node000005"><a xlink:title=" ">
<path fill="none" stroke="#63b8ff" d="M352.37,-229.38C323.63,-236.19 288.05,-244.62 261.17,-250.98"/>
<polygon fill="#63b8ff" stroke="#63b8ff" points="353.3,-232.75 362.22,-227.04 351.68,-225.94 353.3,-232.75"/>
</a>
</g>
</g>
<!-- Node6 -->
<g id="Node000006" class="node">
<title>Node6</title>
<g id="a_Node000006"><a xlink:href="../../d0/d63/classExFatPartition.xhtml#a33643eb00cf691ec780d519775158a98" target="_top" xlink:title=" ">
<polygon fill="white" stroke="#666666" points="290,-232.5 150,-232.5 150,-202.5 290,-202.5 290,-232.5"/>
<text text-anchor="start" x="158" y="-220.5" font-family="Helvetica,sans-Serif" font-size="10.00">ExFatPartition::cacheSafe</text>
<text text-anchor="middle" x="220" y="-209.5" font-family="Helvetica,sans-Serif" font-size="10.00">Write</text>
</a>
</g>
</g>
<!-- Node2&#45;&gt;Node6 -->
<g id="edge5_Node000002_Node000006" class="edge">
<title>Node2&#45;&gt;Node6</title>
<g id="a_edge5_Node000002_Node000006"><a xlink:title=" ">
<path fill="none" stroke="#63b8ff" d="M323.33,-217.5C312.31,-217.5 301.06,-217.5 290.24,-217.5"/>
<polygon fill="#63b8ff" stroke="#63b8ff" points="323.36,-221 333.36,-217.5 323.36,-214 323.36,-221"/>
</a>
</g>
</g>
<!-- Node8 -->
<g id="Node000008" class="node">
<title>Node8</title>
<g id="a_Node000008"><a xlink:href="../../d0/d63/classExFatPartition.xhtml#af66019a5ccde85ce99dccff65f5e6d70" target="_top" xlink:title=" ">
<polygon fill="white" stroke="#666666" points="290,-184.5 150,-184.5 150,-154.5 290,-154.5 290,-184.5"/>
<text text-anchor="start" x="158" y="-172.5" font-family="Helvetica,sans-Serif" font-size="10.00">ExFatPartition::cacheSafe</text>
<text text-anchor="middle" x="220" y="-161.5" font-family="Helvetica,sans-Serif" font-size="10.00">Write</text>
</a>
</g>
</g>
<!-- Node2&#45;&gt;Node8 -->
<g id="edge7_Node000002_Node000008" class="edge">
<title>Node2&#45;&gt;Node8</title>
<g id="a_edge7_Node000002_Node000008"><a xlink:title=" ">
<path fill="none" stroke="#63b8ff" d="M356.35,-205.3C332.51,-198.99 303.2,-191.24 277.96,-184.56"/>
<polygon fill="#63b8ff" stroke="#63b8ff" points="355.64,-208.73 366.21,-207.9 357.43,-201.96 355.64,-208.73"/>
</a>
</g>
</g>
<!-- Node4 -->
<g id="Node000004" class="node">
<title>Node4</title>
<g id="a_Node000004"><a xlink:href="../../d3/db4/classFatFile.xhtml#a5d84d871ac904a22aa48308713d14682" target="_top" xlink:title=" ">
<polygon fill="white" stroke="#666666" points="93,-307 14,-307 14,-288 93,-288 93,-307"/>
<text text-anchor="middle" x="53.5" y="-295" font-family="Helvetica,sans-Serif" font-size="10.00">FatFile::write</text>
</a>
</g>
</g>
<!-- Node3&#45;&gt;Node4 -->
<g id="edge3_Node000003_Node000004" class="edge">
<title>Node3&#45;&gt;Node4</title>
<g id="a_edge3_Node000003_Node000004"><a xlink:title=" ">
<path fill="none" stroke="#63b8ff" d="M132.48,-297.5C118.7,-297.5 105.07,-297.5 93.16,-297.5"/>
<polygon fill="#63b8ff" stroke="#63b8ff" points="132.53,-301 142.53,-297.5 132.53,-294 132.53,-301"/>
</a>
</g>
</g>
<!-- Node7 -->
<g id="Node000007" class="node">
<title>Node7</title>
<g id="a_Node000007"><a xlink:href="../../d6/d7f/classExFatFile.xhtml#abc1423c7b550614d1067e7173f8b46a8" target="_top" xlink:title=" ">
<polygon fill="white" stroke="#666666" points="99,-227 8,-227 8,-208 99,-208 99,-227"/>
<text text-anchor="middle" x="53.5" y="-215" font-family="Helvetica,sans-Serif" font-size="10.00">ExFatFile::write</text>
</a>
</g>
</g>
<!-- Node6&#45;&gt;Node7 -->
<g id="edge6_Node000006_Node000007" class="edge">
<title>Node6&#45;&gt;Node7</title>
<g id="a_edge6_Node000006_Node000007"><a xlink:title=" ">
<path fill="none" stroke="#63b8ff" d="M139.67,-217.5C125.81,-217.5 111.85,-217.5 99.35,-217.5"/>
<polygon fill="#63b8ff" stroke="#63b8ff" points="139.71,-221 149.71,-217.5 139.71,-214 139.71,-221"/>
</a>
</g>
</g>
<!-- Node11 -->
<g id="Node000011" class="node">
<title>Node11</title>
<g id="a_Node000011"><a xlink:href="../../d0/d63/classExFatPartition.xhtml#afecfe9956ad97630adf149498c8a13c2" target="_top" xlink:title=" ">
<polygon fill="white" stroke="#666666" points="291.5,-136 148.5,-136 148.5,-117 291.5,-117 291.5,-136"/>
<text text-anchor="middle" x="220" y="-124" font-family="Helvetica,sans-Serif" font-size="10.00">ExFatPartition::cacheClear</text>
</a>
</g>
</g>
<!-- Node10&#45;&gt;Node11 -->
<g id="edge10_Node000010_Node000011" class="edge">
<title>Node10&#45;&gt;Node11</title>
<g id="a_edge10_Node000010_Node000011"><a xlink:title=" ">
<path fill="none" stroke="#63b8ff" d="M349.45,-126.5C331.4,-126.5 310.94,-126.5 291.73,-126.5"/>
<polygon fill="#63b8ff" stroke="#63b8ff" points="349.49,-130 359.49,-126.5 349.49,-123 349.49,-130"/>
</a>
</g>
</g>
<!-- Node13 -->
<g id="Node000013" class="node">
<title>Node13</title>
<g id="a_Node000013"><a xlink:href="../../d8/d15/classFatPartition.xhtml#aab9f89f931bad4391df06251efbe45ce" target="_top" xlink:title=" ">
<polygon fill="white" stroke="#666666" points="285.5,-99 154.5,-99 154.5,-80 285.5,-80 285.5,-99"/>
<text text-anchor="middle" x="220" y="-87" font-family="Helvetica,sans-Serif" font-size="10.00">FatPartition::cacheClear</text>
</a>
</g>
</g>
<!-- Node10&#45;&gt;Node13 -->
<g id="edge12_Node000010_Node000013" class="edge">
<title>Node10&#45;&gt;Node13</title>
<g id="a_edge12_Node000010_Node000013"><a xlink:title=" ">
<path fill="none" stroke="#63b8ff" d="M349.48,-115.69C323.63,-110.42 292.82,-104.14 267.84,-99.05"/>
<polygon fill="#63b8ff" stroke="#63b8ff" points="348.99,-119.16 359.49,-117.73 350.39,-112.3 348.99,-119.16"/>
</a>
</g>
</g>
<!-- Node12 -->
<g id="Node000012" class="node">
<title>Node12</title>
<g id="a_Node000012"><a xlink:href="../../d0/d63/classExFatPartition.xhtml#a4478cbd5c1424b32a91e2f1062554652" target="_top" xlink:title=" ">
<polygon fill="white" stroke="#666666" points="107,-136 0,-136 0,-117 107,-117 107,-136"/>
<text text-anchor="middle" x="53.5" y="-124" font-family="Helvetica,sans-Serif" font-size="10.00">ExFatPartition::end</text>
</a>
</g>
</g>
<!-- Node11&#45;&gt;Node12 -->
<g id="edge11_Node000011_Node000012" class="edge">
<title>Node11&#45;&gt;Node12</title>
<g id="a_edge11_Node000011_Node000012"><a xlink:title=" ">
<path fill="none" stroke="#63b8ff" d="M138.23,-126.5C127.71,-126.5 117.16,-126.5 107.27,-126.5"/>
<polygon fill="#63b8ff" stroke="#63b8ff" points="138.28,-130 148.28,-126.5 138.28,-123 138.28,-130"/>
</a>
</g>
</g>
<!-- Node14 -->
<g id="Node000014" class="node">
<title>Node14</title>
<g id="a_Node000014"><a xlink:href="../../d8/d15/classFatPartition.xhtml#a3f6bbc927971e6cc12012901d2178c84" target="_top" xlink:title=" ">
<polygon fill="white" stroke="#666666" points="101,-99 6,-99 6,-80 101,-80 101,-99"/>
<text text-anchor="middle" x="53.5" y="-87" font-family="Helvetica,sans-Serif" font-size="10.00">FatPartition::end</text>
</a>
</g>
</g>
<!-- Node13&#45;&gt;Node14 -->
<g id="edge13_Node000013_Node000014" class="edge">
<title>Node13&#45;&gt;Node14</title>
<g id="a_edge13_Node000013_Node000014"><a xlink:title=" ">
<path fill="none" stroke="#63b8ff" d="M144.33,-89.5C129.6,-89.5 114.54,-89.5 101.06,-89.5"/>
<polygon fill="#63b8ff" stroke="#63b8ff" points="144.46,-93 154.46,-89.5 144.46,-86 144.46,-93"/>
</a>
</g>
</g>
<!-- Node17 -->
<g id="Node000017" class="node">
<title>Node17</title>
<g id="a_Node000017"><a xlink:href="../../d0/d63/classExFatPartition.xhtml#a1117cbdd71bbb0de78ffacc7d4c9fcfd" target="_top" xlink:title=" ">
<polygon fill="white" stroke="#666666" points="287,-56 153,-56 153,-37 287,-37 287,-56"/>
<text text-anchor="middle" x="220" y="-44" font-family="Helvetica,sans-Serif" font-size="10.00">ExFatPartition::cacheInit</text>
</a>
</g>
</g>
<!-- Node16&#45;&gt;Node17 -->
<g id="edge16_Node000016_Node000017" class="edge">
<title>Node16&#45;&gt;Node17</title>
<g id="a_edge16_Node000016_Node000017"><a xlink:title=" ">
<path fill="none" stroke="#63b8ff" d="M352.85,-42.14C332.56,-42.81 308.8,-43.6 287.07,-44.32"/>
<polygon fill="#63b8ff" stroke="#63b8ff" points="353.24,-45.63 363.12,-41.8 353.01,-38.63 353.24,-45.63"/>
</a>
</g>
</g>
<!-- Node19 -->
<g id="Node000019" class="node">
<title>Node19</title>
<g id="a_Node000019"><a xlink:href="../../d8/d15/classFatPartition.xhtml#a3013b0d2a86b8fd90961412e315aebb7" target="_top" xlink:title=" ">
<polygon fill="white" stroke="#666666" points="266.5,-19 173.5,-19 173.5,0 266.5,0 266.5,-19"/>
<text text-anchor="middle" x="220" y="-7" font-family="Helvetica,sans-Serif" font-size="10.00">FatPartition::init</text>
</a>
</g>
</g>
<!-- Node16&#45;&gt;Node19 -->
<g id="edge18_Node000016_Node000019" class="edge">
<title>Node16&#45;&gt;Node19</title>
<g id="a_edge18_Node000016_Node000019"><a xlink:title=" ">
<path fill="none" stroke="#63b8ff" d="M353.12,-32.07C326.18,-27.47 293.06,-21.81 266.71,-17.31"/>
<polygon fill="#63b8ff" stroke="#63b8ff" points="352.67,-35.54 363.12,-33.77 353.85,-28.64 352.67,-35.54"/>
</a>
</g>
</g>
<!-- Node18 -->
<g id="Node000018" class="node">
<title>Node18</title>
<g id="a_Node000018"><a xlink:href="../../d0/d63/classExFatPartition.xhtml#a425d1ab1b7a10c3b0ed6ba744424690a" target="_top" xlink:title=" ">
<polygon fill="white" stroke="#666666" points="106,-56 1,-56 1,-37 106,-37 106,-56"/>
<text text-anchor="middle" x="53.5" y="-44" font-family="Helvetica,sans-Serif" font-size="10.00">ExFatPartition::init</text>
</a>
</g>
</g>
<!-- Node17&#45;&gt;Node18 -->
<g id="edge17_Node000017_Node000018" class="edge">
<title>Node17&#45;&gt;Node18</title>
<g id="a_edge17_Node000017_Node000018"><a xlink:title=" ">
<path fill="none" stroke="#63b8ff" d="M142.3,-46.5C129.99,-46.5 117.53,-46.5 106,-46.5"/>
<polygon fill="#63b8ff" stroke="#63b8ff" points="142.57,-50 152.57,-46.5 142.57,-43 142.57,-50"/>
</a>
</g>
</g>
</g>
</svg>
