<?xml version="1.0" encoding="UTF-8" standalone="no"?>
<!DOCTYPE svg PUBLIC "-//W3C//DTD SVG 1.1//EN"
 "http://www.w3.org/Graphics/SVG/1.1/DTD/svg11.dtd">
<!-- Generated by graphviz version 2.43.0 (0)
 -->
<!-- Title: printHeader Pages: 1 -->
<svg width="414pt" height="64pt"
 viewBox="0.00 0.00 414.00 64.00" xmlns="http://www.w3.org/2000/svg" xmlns:xlink="http://www.w3.org/1999/xlink">
<g id="graph0" class="graph" transform="scale(1 1) rotate(0) translate(4 60)">
<title>printHeader</title>
<!-- Node1 -->
<g id="Node000001" class="node">
<title>Node1</title>
<g id="a_Node000001"><a xlink:title=" ">
<polygon fill="#999999" stroke="#666666" points="74,-37 0,-37 0,-18 74,-18 74,-37"/>
<text text-anchor="middle" x="37" y="-25" font-family="Helvetica,sans-Serif" font-size="10.00">printHeader</text>
</a>
</g>
</g>
<!-- Node2 -->
<g id="Node000002" class="node">
<title>Node2</title>
<g id="a_Node000002"><a xlink:href="../../d9/df9/classPrint_a4fd286b325d3b1a786cfa35072a8ef52.xhtml#a4fd286b325d3b1a786cfa35072a8ef52" target="_top" xlink:title=" ">
<polygon fill="white" stroke="#666666" points="187,-37 110,-37 110,-18 187,-18 187,-37"/>
<text text-anchor="middle" x="148.5" y="-25" font-family="Helvetica,sans-Serif" font-size="10.00">Print::println</text>
</a>
</g>
</g>
<!-- Node1&#45;&gt;Node2 -->
<g id="edge1_Node000001_Node000002" class="edge">
<title>Node1&#45;&gt;Node2</title>
<g id="a_edge1_Node000001_Node000002"><a xlink:title=" ">
<path fill="none" stroke="#63b8ff" d="M74.16,-27.5C82.31,-27.5 91.08,-27.5 99.62,-27.5"/>
<polygon fill="#63b8ff" stroke="#63b8ff" points="99.88,-31 109.88,-27.5 99.88,-24 99.88,-31"/>
</a>
</g>
</g>
<!-- Node3 -->
<g id="Node000003" class="node">
<title>Node3</title>
<g id="a_Node000003"><a xlink:href="../../d9/df9/classPrint_ab8fa28ed8d61e57132ed82e8bf302070.xhtml#ab8fa28ed8d61e57132ed82e8bf302070" target="_top" xlink:title=" ">
<polygon fill="white" stroke="#666666" points="295.5,-56 227.5,-56 227.5,-37 295.5,-37 295.5,-56"/>
<text text-anchor="middle" x="261.5" y="-44" font-family="Helvetica,sans-Serif" font-size="10.00">Print::print</text>
</a>
</g>
</g>
<!-- Node2&#45;&gt;Node3 -->
<g id="edge2_Node000002_Node000003" class="edge">
<title>Node2&#45;&gt;Node3</title>
<g id="a_edge2_Node000002_Node000003"><a xlink:title=" ">
<path fill="none" stroke="#63b8ff" d="M187.08,-33.93C196.79,-35.59 207.32,-37.4 217.29,-39.1"/>
<polygon fill="#63b8ff" stroke="#63b8ff" points="216.97,-42.6 227.42,-40.84 218.16,-35.7 216.97,-42.6"/>
</a>
</g>
</g>
<!-- Node5 -->
<g id="Node000005" class="node">
<title>Node5</title>
<g id="a_Node000005"><a xlink:href="../../d9/df9/classPrint_a525b37c566658ff8113a067f6e8d5bf1.xhtml#a525b37c566658ff8113a067f6e8d5bf1" target="_top" xlink:title=" ">
<polygon fill="white" stroke="#666666" points="300,-19 223,-19 223,0 300,0 300,-19"/>
<text text-anchor="middle" x="261.5" y="-7" font-family="Helvetica,sans-Serif" font-size="10.00">Print::println</text>
</a>
</g>
</g>
<!-- Node2&#45;&gt;Node5 -->
<g id="edge4_Node000002_Node000005" class="edge">
<title>Node2&#45;&gt;Node5</title>
<g id="a_edge4_Node000002_Node000005"><a xlink:title=" ">
<path fill="none" stroke="#63b8ff" d="M187.08,-21.41C195.4,-20.06 204.32,-18.61 212.97,-17.21"/>
<polygon fill="#63b8ff" stroke="#63b8ff" points="213.65,-20.64 222.96,-15.59 212.53,-13.73 213.65,-20.64"/>
</a>
</g>
</g>
<!-- Node4 -->
<g id="Node000004" class="node">
<title>Node4</title>
<g id="a_Node000004"><a xlink:href="../../d9/df9/classPrint_a5be30d49adae2406a270c29ba9a3e0a3.xhtml#a5be30d49adae2406a270c29ba9a3e0a3" target="_top" xlink:title=" ">
<polygon fill="white" stroke="#666666" points="406,-37 336,-37 336,-18 406,-18 406,-37"/>
<text text-anchor="middle" x="371" y="-25" font-family="Helvetica,sans-Serif" font-size="10.00">Print::write</text>
</a>
</g>
</g>
<!-- Node3&#45;&gt;Node4 -->
<g id="edge3_Node000003_Node000004" class="edge">
<title>Node3&#45;&gt;Node4</title>
<g id="a_edge3_Node000003_Node000004"><a xlink:title=" ">
<path fill="none" stroke="#63b8ff" d="M295.63,-40.64C305.16,-38.96 315.71,-37.09 325.8,-35.31"/>
<polygon fill="#63b8ff" stroke="#63b8ff" points="326.44,-38.75 335.68,-33.57 325.22,-31.86 326.44,-38.75"/>
</a>
</g>
</g>
<!-- Node5&#45;&gt;Node4 -->
<g id="edge5_Node000005_Node000004" class="edge">
<title>Node5&#45;&gt;Node4</title>
<g id="a_edge5_Node000005_Node000004"><a xlink:title=" ">
<path fill="none" stroke="#63b8ff" d="M300.1,-15.8C308.45,-17.19 317.38,-18.69 325.97,-20.13"/>
<polygon fill="#63b8ff" stroke="#63b8ff" points="325.4,-23.58 335.84,-21.78 326.55,-16.68 325.4,-23.58"/>
</a>
</g>
</g>
</g>
</svg>
