<?xml version="1.0" encoding="UTF-8" standalone="no"?>
<!DOCTYPE svg PUBLIC "-//W3C//DTD SVG 1.1//EN"
 "http://www.w3.org/Graphics/SVG/1.1/DTD/svg11.dtd">
<!-- Generated by graphviz version 2.43.0 (0)
 -->
<!-- Title: readGPS Pages: 1 -->
<svg width="538pt" height="82pt"
 viewBox="0.00 0.00 538.00 82.00" xmlns="http://www.w3.org/2000/svg" xmlns:xlink="http://www.w3.org/1999/xlink">
<g id="graph0" class="graph" transform="scale(1 1) rotate(0) translate(4 78)">
<title>readGPS</title>
<!-- Node1 -->
<g id="Node000001" class="node">
<title>Node1</title>
<g id="a_Node000001"><a xlink:title="Lit les données GPS.">
<polygon fill="#999999" stroke="#666666" points="58,-55 0,-55 0,-36 58,-36 58,-55"/>
<text text-anchor="middle" x="29" y="-43" font-family="Helvetica,sans-Serif" font-size="10.00">readGPS</text>
</a>
</g>
</g>
<!-- Node2 -->
<g id="Node000002" class="node">
<title>Node2</title>
<g id="a_Node000002"><a xlink:href="../../d2/de7/classSoftwareSerial_a4cbf77a4e90e15ca576972d7952659c5.xhtml#a4cbf77a4e90e15ca576972d7952659c5" target="_top" xlink:title=" ">
<polygon fill="white" stroke="#666666" points="232,-74 94,-74 94,-55 232,-55 232,-74"/>
<text text-anchor="middle" x="163" y="-62" font-family="Helvetica,sans-Serif" font-size="10.00">SoftwareSerial::available</text>
</a>
</g>
</g>
<!-- Node1&#45;&gt;Node2 -->
<g id="edge1_Node000001_Node000002" class="edge">
<title>Node1&#45;&gt;Node2</title>
<g id="a_edge1_Node000001_Node000002"><a xlink:title=" ">
<path fill="none" stroke="#63b8ff" d="M58.32,-49.58C66.53,-50.76 75.9,-52.11 85.59,-53.5"/>
<polygon fill="#63b8ff" stroke="#63b8ff" points="85.36,-57 95.76,-54.96 86.36,-50.08 85.36,-57"/>
</a>
</g>
</g>
<!-- Node4 -->
<g id="Node000004" class="node">
<title>Node4</title>
<g id="a_Node000004"><a xlink:href="../../dc/de8/classStream_af84672a4fb2620466958d3118d4fea00.xhtml#af84672a4fb2620466958d3118d4fea00" target="_top" xlink:title=" ">
<polygon fill="white" stroke="#666666" points="228.5,-37 97.5,-37 97.5,-18 228.5,-18 228.5,-37"/>
<text text-anchor="middle" x="163" y="-25" font-family="Helvetica,sans-Serif" font-size="10.00">Stream::readBytesUntil</text>
</a>
</g>
</g>
<!-- Node1&#45;&gt;Node4 -->
<g id="edge3_Node000001_Node000004" class="edge">
<title>Node1&#45;&gt;Node4</title>
<g id="a_edge3_Node000001_Node000004"><a xlink:title=" ">
<path fill="none" stroke="#63b8ff" d="M58.32,-41.64C67.04,-40.45 77.09,-39.08 87.42,-37.67"/>
<polygon fill="#63b8ff" stroke="#63b8ff" points="87.95,-41.13 97.38,-36.31 87,-34.19 87.95,-41.13"/>
</a>
</g>
</g>
<!-- Node3 -->
<g id="Node000003" class="node">
<title>Node3</title>
<g id="a_Node000003"><a xlink:href="../../d2/de7/classSoftwareSerial_a7b3fb4a8f57d2b5f2233f841d71ef80f.xhtml#a7b3fb4a8f57d2b5f2233f841d71ef80f" target="_top" xlink:title=" ">
<polygon fill="white" stroke="#666666" points="414,-74 268,-74 268,-55 414,-55 414,-74"/>
<text text-anchor="middle" x="341" y="-62" font-family="Helvetica,sans-Serif" font-size="10.00">SoftwareSerial::isListening</text>
</a>
</g>
</g>
<!-- Node2&#45;&gt;Node3 -->
<g id="edge2_Node000002_Node000003" class="edge">
<title>Node2&#45;&gt;Node3</title>
<g id="a_edge2_Node000002_Node000003"><a xlink:title=" ">
<path fill="none" stroke="#63b8ff" d="M232.05,-64.5C240.46,-64.5 249.13,-64.5 257.72,-64.5"/>
<polygon fill="#63b8ff" stroke="#63b8ff" points="257.76,-68 267.76,-64.5 257.76,-61 257.76,-68"/>
</a>
</g>
</g>
<!-- Node5 -->
<g id="Node000005" class="node">
<title>Node5</title>
<g id="a_Node000005"><a xlink:href="../../dc/de8/classStream_a416a0ada5ed3c9d27f1e72c7d73f0aa1.xhtml#a416a0ada5ed3c9d27f1e72c7d73f0aa1" target="_top" xlink:title=" ">
<polygon fill="white" stroke="#666666" points="396.5,-37 285.5,-37 285.5,-18 396.5,-18 396.5,-37"/>
<text text-anchor="middle" x="341" y="-25" font-family="Helvetica,sans-Serif" font-size="10.00">Stream::timedRead</text>
</a>
</g>
</g>
<!-- Node4&#45;&gt;Node5 -->
<g id="edge4_Node000004_Node000005" class="edge">
<title>Node4&#45;&gt;Node5</title>
<g id="a_edge4_Node000004_Node000005"><a xlink:title=" ">
<path fill="none" stroke="#63b8ff" d="M228.54,-27.5C243.68,-27.5 259.83,-27.5 274.99,-27.5"/>
<polygon fill="#63b8ff" stroke="#63b8ff" points="275.31,-31 285.31,-27.5 275.31,-24 275.31,-31"/>
</a>
</g>
</g>
<!-- Node6 -->
<g id="Node000006" class="node">
<title>Node6</title>
<g id="a_Node000006"><a xlink:href="../../d5/df3/wiring_8c_a6ff7f2532a22366f0013bc41397129fd.xhtml#a6ff7f2532a22366f0013bc41397129fd" target="_top" xlink:title=" ">
<polygon fill="white" stroke="#666666" points="512,-56 468,-56 468,-37 512,-37 512,-56"/>
<text text-anchor="middle" x="490" y="-44" font-family="Helvetica,sans-Serif" font-size="10.00">millis</text>
</a>
</g>
</g>
<!-- Node5&#45;&gt;Node6 -->
<g id="edge5_Node000005_Node000006" class="edge">
<title>Node5&#45;&gt;Node6</title>
<g id="a_edge5_Node000005_Node000006"><a xlink:title=" ">
<path fill="none" stroke="#63b8ff" d="M396.74,-34.57C417.38,-37.24 440.15,-40.19 457.9,-42.48"/>
<polygon fill="#63b8ff" stroke="#63b8ff" points="457.61,-45.97 467.98,-43.78 458.51,-39.03 457.61,-45.97"/>
</a>
</g>
</g>
<!-- Node7 -->
<g id="Node000007" class="node">
<title>Node7</title>
<g id="a_Node000007"><a xlink:href="../../dc/de8/classStream_aea5dee9fcb038148515b7c9212d38dc0.xhtml#aea5dee9fcb038148515b7c9212d38dc0" target="_top" xlink:title=" ">
<polygon fill="white" stroke="#666666" points="530,-19 450,-19 450,0 530,0 530,-19"/>
<text text-anchor="middle" x="490" y="-7" font-family="Helvetica,sans-Serif" font-size="10.00">Stream::read</text>
</a>
</g>
</g>
<!-- Node5&#45;&gt;Node7 -->
<g id="edge6_Node000005_Node000007" class="edge">
<title>Node5&#45;&gt;Node7</title>
<g id="a_edge6_Node000005_Node000007"><a xlink:title=" ">
<path fill="none" stroke="#63b8ff" d="M396.74,-20.8C410.79,-19.08 425.82,-17.24 439.58,-15.55"/>
<polygon fill="#63b8ff" stroke="#63b8ff" points="440.32,-18.99 449.82,-14.3 439.47,-12.04 440.32,-18.99"/>
</a>
</g>
</g>
</g>
</svg>
