<?xml version="1.0" encoding="UTF-8" standalone="no"?>
<!DOCTYPE svg PUBLIC "-//W3C//DTD SVG 1.1//EN"
 "http://www.w3.org/Graphics/SVG/1.1/DTD/svg11.dtd">
<!-- Generated by graphviz version 2.43.0 (0)
 -->
<!-- Title: SdSpiSoftDriver Pages: 1 -->
<svg width="160pt" height="384pt"
 viewBox="0.00 0.00 160.00 384.00" xmlns="http://www.w3.org/2000/svg" xmlns:xlink="http://www.w3.org/1999/xlink">

<svg id="main" version="1.1" xmlns="http://www.w3.org/2000/svg" xmlns:xlink="http://www.w3.org/1999/xlink" xml:space="preserve" onload="init(evt)">
<style type="text/css"><![CDATA[
.node, .edge {opacity: 0.7;}
.node.selected, .edge.selected {opacity: 1;}
.edge:hover path { stroke: red; }
.edge:hover polygon { stroke: red; fill: red; }
]]></style>
<script type="application/ecmascript" xlink:href="../../svg.min.js"/>
<svg id="graph" class="graph">
<g id="graph0" class="graph" transform="scale(1 1) rotate(0) translate(4 380)">
<title>SdSpiSoftDriver</title>
<!-- Node1 -->
<g id="Node000001" class="node">
<title>Node1</title>
<g id="a_Node000001"><a xlink:title="Base class for external soft SPI.">
<polygon fill="#999999" stroke="transparent" points="151.5,-376 0.5,-376 0.5,-137 151.5,-137 151.5,-376"/>
<text text-anchor="start" x="38.5" y="-363.5" font-family="Helvetica,sans-Serif" font-size="10.00">SdSpiSoftDriver</text>
<text text-anchor="start" x="74.5" y="-348.5" font-family="Helvetica,sans-Serif" font-size="10.00"> </text>
<text text-anchor="start" x="5" y="-333.5" font-family="Helvetica,sans-Serif" font-size="10.00">+</text>
<text text-anchor="start" x="18" y="-333.5" font-family="Helvetica,sans-Serif" font-size="10.00">void activate()</text>
<text text-anchor="start" x="5" y="-318.5" font-family="Helvetica,sans-Serif" font-size="10.00">+</text>
<text text-anchor="start" x="18" y="-318.5" font-family="Helvetica,sans-Serif" font-size="10.00">virtual void begin()=0</text>
<text text-anchor="start" x="5" y="-303.5" font-family="Helvetica,sans-Serif" font-size="10.00">+</text>
<text text-anchor="start" x="18" y="-303.5" font-family="Helvetica,sans-Serif" font-size="10.00">void begin(SdSpiConfig</text>
<text text-anchor="start" x="18" y="-292.5" font-family="Helvetica,sans-Serif" font-size="10.00"> spiConfig)</text>
<text text-anchor="start" x="5" y="-277.5" font-family="Helvetica,sans-Serif" font-size="10.00">+</text>
<text text-anchor="start" x="18" y="-277.5" font-family="Helvetica,sans-Serif" font-size="10.00">void deactivate()</text>
<text text-anchor="start" x="5" y="-262.5" font-family="Helvetica,sans-Serif" font-size="10.00">+</text>
<text text-anchor="start" x="18" y="-262.5" font-family="Helvetica,sans-Serif" font-size="10.00">void end()</text>
<text text-anchor="start" x="5" y="-247.5" font-family="Helvetica,sans-Serif" font-size="10.00">+</text>
<text text-anchor="start" x="18" y="-247.5" font-family="Helvetica,sans-Serif" font-size="10.00">virtual uint8_t receive()=0</text>
<text text-anchor="start" x="5" y="-232.5" font-family="Helvetica,sans-Serif" font-size="10.00">+</text>
<text text-anchor="start" x="18" y="-232.5" font-family="Helvetica,sans-Serif" font-size="10.00">uint8_t receive(uint8</text>
<text text-anchor="start" x="18" y="-221.5" font-family="Helvetica,sans-Serif" font-size="10.00">_t *buf, size_t count)</text>
<text text-anchor="start" x="5" y="-206.5" font-family="Helvetica,sans-Serif" font-size="10.00">+</text>
<text text-anchor="start" x="18" y="-206.5" font-family="Helvetica,sans-Serif" font-size="10.00">virtual void send(uint8</text>
<text text-anchor="start" x="18" y="-195.5" font-family="Helvetica,sans-Serif" font-size="10.00">_t data)=0</text>
<text text-anchor="start" x="5" y="-180.5" font-family="Helvetica,sans-Serif" font-size="10.00">+</text>
<text text-anchor="start" x="18" y="-180.5" font-family="Helvetica,sans-Serif" font-size="10.00">void send(const uint8</text>
<text text-anchor="start" x="18" y="-169.5" font-family="Helvetica,sans-Serif" font-size="10.00">_t *buf, size_t count)</text>
<text text-anchor="start" x="5" y="-154.5" font-family="Helvetica,sans-Serif" font-size="10.00">+</text>
<text text-anchor="start" x="18" y="-154.5" font-family="Helvetica,sans-Serif" font-size="10.00">void setSckSpeed(uint32</text>
<text text-anchor="start" x="18" y="-143.5" font-family="Helvetica,sans-Serif" font-size="10.00">_t maxSck)</text>
<polygon fill="#666666" stroke="#666666" points="1,-358.5 1,-358.5 152,-358.5 152,-358.5 1,-358.5"/>
<polygon fill="#666666" stroke="#666666" points="1,-343.5 1,-343.5 152,-343.5 152,-343.5 1,-343.5"/>
<polygon fill="none" stroke="#666666" points="0.5,-137 0.5,-376 151.5,-376 151.5,-137 0.5,-137"/>
</a>
</g>
</g>
<!-- Node2 -->
<g id="Node000002" class="node">
<title>Node2</title>
<g id="a_Node000002"><a xlink:href="../../de/d80/classSoftSpiDriver.xhtml" target="_top" xlink:title="Class for external soft SPI.">
<polygon fill="white" stroke="transparent" points="152,-101 0,-101 0,0 152,0 152,-101"/>
<text text-anchor="start" x="17.5" y="-88.5" font-family="Helvetica,sans-Serif" font-size="10.00">SoftSpiDriver&lt; MisoPin,</text>
<text text-anchor="start" x="30.5" y="-77.5" font-family="Helvetica,sans-Serif" font-size="10.00"> MosiPin, SckPin &gt;</text>
<text text-anchor="start" x="6.5" y="-62.5" font-family="Helvetica,sans-Serif" font-size="10.00">&#45;</text>
<text text-anchor="start" x="17" y="-62.5" font-family="Helvetica,sans-Serif" font-size="10.00">SoftSPI&lt; MisoPin, MosiPin,</text>
<text text-anchor="start" x="17" y="-51.5" font-family="Helvetica,sans-Serif" font-size="10.00"> SckPin, 0 &gt; m_spi</text>
<text text-anchor="start" x="4" y="-36.5" font-family="Helvetica,sans-Serif" font-size="10.00">+</text>
<text text-anchor="start" x="17" y="-36.5" font-family="Helvetica,sans-Serif" font-size="10.00">void begin()</text>
<text text-anchor="start" x="4" y="-21.5" font-family="Helvetica,sans-Serif" font-size="10.00">+</text>
<text text-anchor="start" x="17" y="-21.5" font-family="Helvetica,sans-Serif" font-size="10.00">uint8_t receive()</text>
<text text-anchor="start" x="4" y="-6.5" font-family="Helvetica,sans-Serif" font-size="10.00">+</text>
<text text-anchor="start" x="17" y="-6.5" font-family="Helvetica,sans-Serif" font-size="10.00">void send(uint8_t data)</text>
<polygon fill="#666666" stroke="#666666" points="0,-72.5 0,-72.5 152,-72.5 152,-72.5 0,-72.5"/>
<polygon fill="#666666" stroke="#666666" points="0,-46.5 0,-46.5 15,-46.5 15,-46.5 0,-46.5"/>
<polygon fill="#666666" stroke="#666666" points="15,-46.5 15,-46.5 152,-46.5 152,-46.5 15,-46.5"/>
<polygon fill="none" stroke="#666666" points="0,0 0,-101 152,-101 152,0 0,0"/>
</a>
</g>
</g>
<!-- Node1&#45;&gt;Node2 -->
<g id="edge1_Node000001_Node000002" class="edge">
<title>Node1&#45;&gt;Node2</title>
<g id="a_edge1_Node000001_Node000002"><a xlink:title=" ">
<path fill="none" stroke="#63b8ff" d="M76,-126.71C76,-117.85 76,-109.27 76,-101.28"/>
<polygon fill="none" stroke="#63b8ff" points="72.5,-126.83 76,-136.83 79.5,-126.83 72.5,-126.83"/>
</a>
</g>
</g>
</g>
</svg>
</svg>

<style type='text/css'>
<![CDATA[
[data-mouse-over-selected='false'] { opacity: 0.7; }
[data-mouse-over-selected='true']  { opacity: 1.0; }
]]>
</style>
<script type="application/ecmascript"><![CDATA[
document.addEventListener('DOMContentLoaded', (event) => {
  highlightEdges();
  highlightAdjacentNodes();
});
]]></script>
</svg>
