<?xml version="1.0" encoding="UTF-8" standalone="no"?>
<!DOCTYPE svg PUBLIC "-//W3C//DTD SVG 1.1//EN"
 "http://www.w3.org/Graphics/SVG/1.1/DTD/svg11.dtd">
<!-- Generated by graphviz version 2.43.0 (0)
 -->
<!-- Title: TinyGPSLocation Pages: 1 -->
<svg width="166pt" height="440pt"
 viewBox="0.00 0.00 166.00 440.00" xmlns="http://www.w3.org/2000/svg" xmlns:xlink="http://www.w3.org/1999/xlink">
<g id="graph0" class="graph" transform="scale(1 1) rotate(0) translate(4 436)">
<title>TinyGPSLocation</title>
<!-- Node1 -->
<g id="Node000001" class="node">
<title>Node1</title>
<g id="a_Node000001"><a xlink:title=" ">
<polygon fill="#999999" stroke="transparent" points="146,-273 0,-273 0,0 146,0 146,-273"/>
<text text-anchor="start" x="32" y="-260.5" font-family="Helvetica,sans-Serif" font-size="10.00">TinyGPSLocation</text>
<text text-anchor="start" x="6.5" y="-245.5" font-family="Helvetica,sans-Serif" font-size="10.00">&#45;</text>
<text text-anchor="start" x="17" y="-245.5" font-family="Helvetica,sans-Serif" font-size="10.00">bool valid</text>
<text text-anchor="start" x="6.5" y="-230.5" font-family="Helvetica,sans-Serif" font-size="10.00">&#45;</text>
<text text-anchor="start" x="17" y="-230.5" font-family="Helvetica,sans-Serif" font-size="10.00">bool updated</text>
<text text-anchor="start" x="6.5" y="-215.5" font-family="Helvetica,sans-Serif" font-size="10.00">&#45;</text>
<text text-anchor="start" x="17" y="-215.5" font-family="Helvetica,sans-Serif" font-size="10.00">uint32_t lastCommitTime</text>
<text text-anchor="start" x="4" y="-200.5" font-family="Helvetica,sans-Serif" font-size="10.00">+</text>
<text text-anchor="start" x="17" y="-200.5" font-family="Helvetica,sans-Serif" font-size="10.00">bool isValid() const</text>
<text text-anchor="start" x="4" y="-185.5" font-family="Helvetica,sans-Serif" font-size="10.00">+</text>
<text text-anchor="start" x="17" y="-185.5" font-family="Helvetica,sans-Serif" font-size="10.00">bool isUpdated() const</text>
<text text-anchor="start" x="4" y="-170.5" font-family="Helvetica,sans-Serif" font-size="10.00">+</text>
<text text-anchor="start" x="17" y="-170.5" font-family="Helvetica,sans-Serif" font-size="10.00">uint32_t age() const</text>
<text text-anchor="start" x="4" y="-155.5" font-family="Helvetica,sans-Serif" font-size="10.00">+</text>
<text text-anchor="start" x="17" y="-155.5" font-family="Helvetica,sans-Serif" font-size="10.00">const RawDegrees &amp;</text>
<text text-anchor="start" x="17" y="-144.5" font-family="Helvetica,sans-Serif" font-size="10.00"> rawLat()</text>
<text text-anchor="start" x="4" y="-129.5" font-family="Helvetica,sans-Serif" font-size="10.00">+</text>
<text text-anchor="start" x="17" y="-129.5" font-family="Helvetica,sans-Serif" font-size="10.00">const RawDegrees &amp;</text>
<text text-anchor="start" x="17" y="-118.5" font-family="Helvetica,sans-Serif" font-size="10.00"> rawLng()</text>
<text text-anchor="start" x="4" y="-103.5" font-family="Helvetica,sans-Serif" font-size="10.00">+</text>
<text text-anchor="start" x="17" y="-103.5" font-family="Helvetica,sans-Serif" font-size="10.00">double lat()</text>
<text text-anchor="start" x="4" y="-88.5" font-family="Helvetica,sans-Serif" font-size="10.00">+</text>
<text text-anchor="start" x="17" y="-88.5" font-family="Helvetica,sans-Serif" font-size="10.00">double lng()</text>
<text text-anchor="start" x="4" y="-73.5" font-family="Helvetica,sans-Serif" font-size="10.00">+</text>
<text text-anchor="start" x="17" y="-73.5" font-family="Helvetica,sans-Serif" font-size="10.00">TinyGPSLocation()</text>
<text text-anchor="start" x="6.5" y="-58.5" font-family="Helvetica,sans-Serif" font-size="10.00">&#45;</text>
<text text-anchor="start" x="17" y="-58.5" font-family="Helvetica,sans-Serif" font-size="10.00">void commit()</text>
<text text-anchor="start" x="6.5" y="-43.5" font-family="Helvetica,sans-Serif" font-size="10.00">&#45;</text>
<text text-anchor="start" x="17" y="-43.5" font-family="Helvetica,sans-Serif" font-size="10.00">void setLatitude(const</text>
<text text-anchor="start" x="17" y="-32.5" font-family="Helvetica,sans-Serif" font-size="10.00"> char *term)</text>
<text text-anchor="start" x="6.5" y="-17.5" font-family="Helvetica,sans-Serif" font-size="10.00">&#45;</text>
<text text-anchor="start" x="17" y="-17.5" font-family="Helvetica,sans-Serif" font-size="10.00">void setLongitude(const</text>
<text text-anchor="start" x="17" y="-6.5" font-family="Helvetica,sans-Serif" font-size="10.00"> char *term)</text>
<polygon fill="#666666" stroke="#666666" points="0,-255.5 0,-255.5 146,-255.5 146,-255.5 0,-255.5"/>
<polygon fill="#666666" stroke="#666666" points="0,-210.5 0,-210.5 15,-210.5 15,-210.5 0,-210.5"/>
<polygon fill="#666666" stroke="#666666" points="15,-210.5 15,-210.5 146,-210.5 146,-210.5 15,-210.5"/>
<polygon fill="none" stroke="#666666" points="0,0 0,-273 146,-273 146,0 0,0"/>
</a>
</g>
</g>
<!-- Node2 -->
<g id="Node000002" class="node">
<title>Node2</title>
<g id="a_Node000002"><a xlink:href="../../da/da6/structRawDegrees.xhtml" target="_top" xlink:title=" ">
<polygon fill="white" stroke="transparent" points="127.5,-432 18.5,-432 18.5,-353 127.5,-353 127.5,-432"/>
<text text-anchor="start" x="42.5" y="-419.5" font-family="Helvetica,sans-Serif" font-size="10.00">RawDegrees</text>
<text text-anchor="start" x="23" y="-404.5" font-family="Helvetica,sans-Serif" font-size="10.00">+</text>
<text text-anchor="start" x="36" y="-404.5" font-family="Helvetica,sans-Serif" font-size="10.00">uint16_t deg</text>
<text text-anchor="start" x="23" y="-389.5" font-family="Helvetica,sans-Serif" font-size="10.00">+</text>
<text text-anchor="start" x="36" y="-389.5" font-family="Helvetica,sans-Serif" font-size="10.00">uint32_t billionths</text>
<text text-anchor="start" x="23" y="-374.5" font-family="Helvetica,sans-Serif" font-size="10.00">+</text>
<text text-anchor="start" x="36" y="-374.5" font-family="Helvetica,sans-Serif" font-size="10.00">bool negative</text>
<text text-anchor="start" x="23" y="-359.5" font-family="Helvetica,sans-Serif" font-size="10.00">+</text>
<text text-anchor="start" x="36" y="-359.5" font-family="Helvetica,sans-Serif" font-size="10.00">RawDegrees()</text>
<polygon fill="#666666" stroke="#666666" points="19,-414.5 19,-414.5 128,-414.5 128,-414.5 19,-414.5"/>
<polygon fill="#666666" stroke="#666666" points="19,-369.5 19,-369.5 34,-369.5 34,-369.5 19,-369.5"/>
<polygon fill="#666666" stroke="#666666" points="34,-369.5 34,-369.5 128,-369.5 128,-369.5 34,-369.5"/>
<polygon fill="none" stroke="#666666" points="18.5,-353 18.5,-432 127.5,-432 127.5,-353 18.5,-353"/>
</a>
</g>
</g>
<!-- Node2&#45;&gt;Node1 -->
<g id="edge1_Node000001_Node000002" class="edge">
<title>Node2&#45;&gt;Node1</title>
<g id="a_edge1_Node000001_Node000002"><a xlink:title=" ">
<path fill="none" stroke="#63b8ff" d="M73,-352.92C73,-334.2 73,-310.38 73,-285.46"/>
<polygon fill="none" stroke="#63b8ff" points="73,-285.15 69,-279.15 73,-273.15 77,-279.15 73,-285.15"/>
</a>
</g>
<text text-anchor="middle" x="115.5" y="-327" font-family="Helvetica,sans-Serif" font-size="10.00" fill="grey"> &#45;rawLatData</text>
<text text-anchor="middle" x="115.5" y="-316" font-family="Helvetica,sans-Serif" font-size="10.00" fill="grey">&#45;rawLngData</text>
<text text-anchor="middle" x="115.5" y="-305" font-family="Helvetica,sans-Serif" font-size="10.00" fill="grey">&#45;rawNewLatData</text>
<text text-anchor="middle" x="115.5" y="-294" font-family="Helvetica,sans-Serif" font-size="10.00" fill="grey">&#45;rawNewLngData</text>
</g>
</g>
</svg>
