<?xml version="1.0" encoding="UTF-8" standalone="no"?>
<!DOCTYPE svg PUBLIC "-//W3C//DTD SVG 1.1//EN"
 "http://www.w3.org/Graphics/SVG/1.1/DTD/svg11.dtd">
<!-- Generated by graphviz version 2.43.0 (0)
 -->
<!-- Title: initPressureSensor Pages: 1 -->
<!--zoomable 159 -->

<svg id="main" version="1.1" xmlns="http://www.w3.org/2000/svg" xmlns:xlink="http://www.w3.org/1999/xlink" xml:space="preserve" onload="init(evt)">
<style type="text/css"><![CDATA[
.node, .edge {opacity: 0.7;}
.node.selected, .edge.selected {opacity: 1;}
.edge:hover path { stroke: red; }
.edge:hover polygon { stroke: red; fill: red; }
]]></style>

<defs>
  <circle id="rim" cx="0" cy="0" r="7"/>
  <circle id="rim2" cx="0" cy="0" r="3.5"/>
  <g id="zoomPlus">
    <use xlink:href="#rim" fill="#404040"><set attributeName="fill" to="#808080" begin="zoomplus.mouseover" end="zoomplus.mouseout"/></use>
    <path d="M-4,0h8M0,-4v8" fill="none" stroke="white" stroke-width="1.5" pointer-events="none"/>
  </g>
  <g id="zoomMin">
    <use xlink:href="#rim" fill="#404040"><set attributeName="fill" to="#808080" begin="zoomminus.mouseover" end="zoomminus.mouseout"/></use>
    <path d="M-4,0h8" fill="none" stroke="white" stroke-width="1.5" pointer-events="none"/>
  </g>
  <g id="arrowUp" transform="translate(30 24)">
    <use xlink:href="#rim"/>
    <path pointer-events="none" fill="none" stroke="white" stroke-width="1.5" d="M0,-3.0v7 M-2.5,-0.5L0,-3.0L2.5,-0.5"/>
  </g>
  <g id="arrowRight" transform="rotate(90) translate(36 -43)">
    <use xlink:href="#rim"/>
    <path pointer-events="none" fill="none" stroke="white" stroke-width="1.5" d="M0,-3.0v7 M-2.5,-0.5L0,-3.0L2.5,-0.5"/>
  </g>
  <g id="arrowDown" transform="rotate(180) translate(-30 -48)">
    <use xlink:href="#rim"/>
    <path pointer-events="none" fill="none" stroke="white" stroke-width="1.5" d="M0,-3.0v7 M-2.5,-0.5L0,-3.0L2.5,-0.5"/>
  </g>
  <g id="arrowLeft" transform="rotate(270) translate(-36 17)">
    <use xlink:href="#rim"/>
    <path pointer-events="none" fill="none" stroke="white" stroke-width="1.5" d="M0,-3.0v7 M-2.5,-0.5L0,-3.0L2.5,-0.5"/>
  </g>
  <g id="resetDef">
    <use xlink:href="#rim2" fill="#404040"><set attributeName="fill" to="#808080" begin="reset.mouseover" end="reset.mouseout"/></use>
  </g>
</defs>
<script type="application/ecmascript">
var viewWidth = 950;
var viewHeight = 159;
var sectionId = 'dynsection-0';
</script>
<script type="application/ecmascript" xlink:href="../../svg.min.js"/>
<svg id="graph" class="graph">
<g id="viewport">
<title>initPressureSensor</title>
<!-- Node1 -->
<g id="Node000001" class="node">
<title>Node1</title>
<g id="a_Node000001"><a xlink:title=" ">
<polygon fill="#999999" stroke="#666666" points="107,-55 0,-55 0,-36 107,-36 107,-55"/>
<text text-anchor="middle" x="53.5" y="-43" font-family="Helvetica,sans-Serif" font-size="10.00">initPressureSensor</text>
</a>
</g>
</g>
<!-- Node2 -->
<g id="Node000002" class="node">
<title>Node2</title>
<g id="a_Node000002"><a xlink:href="../../d4/d82/bme_8cpp_a60b50a3dd4d18262c0376da53233f071.xhtml#a60b50a3dd4d18262c0376da53233f071" target="_top" xlink:title=" ">
<polygon fill="white" stroke="#666666" points="220.5,-74 166.5,-74 166.5,-55 220.5,-55 220.5,-74"/>
<text text-anchor="middle" x="193.5" y="-62" font-family="Helvetica,sans-Serif" font-size="10.00">initBME</text>
</a>
</g>
</g>
<!-- Node1&#45;&gt;Node2 -->
<g id="edge1_Node000001_Node000002" class="edge">
<title>Node1&#45;&gt;Node2</title>
<g id="a_edge1_Node000001_Node000002"><a xlink:title=" ">
<path fill="none" stroke="#63b8ff" d="M107.07,-52.74C123.53,-55 141.31,-57.45 156.38,-59.53"/>
<polygon fill="#63b8ff" stroke="#63b8ff" points="155.93,-63 166.32,-60.89 156.89,-56.06 155.93,-63"/>
</a>
</g>
</g>
<!-- Node13 -->
<g id="Node000013" class="node">
<title>Node13</title>
<g id="a_Node000013"><a xlink:href="../../d8/ddf/pressure_8cpp_a8b9be5c0b7e75437935f4c5b4a7fdde6.xhtml#a8b9be5c0b7e75437935f4c5b4a7fdde6" target="_top" xlink:title=" ">
<polygon fill="white" stroke="#666666" points="244,-37 143,-37 143,-18 244,-18 244,-37"/>
<text text-anchor="middle" x="193.5" y="-25" font-family="Helvetica,sans-Serif" font-size="10.00">measurePressure</text>
</a>
</g>
</g>
<!-- Node1&#45;&gt;Node13 -->
<g id="edge13_Node000001_Node000013" class="edge">
<title>Node1&#45;&gt;Node13</title>
<g id="a_edge13_Node000001_Node000013"><a xlink:title=" ">
<path fill="none" stroke="#63b8ff" d="M107.07,-38.64C115.5,-37.54 124.28,-36.4 132.86,-35.28"/>
<polygon fill="#63b8ff" stroke="#63b8ff" points="133.35,-38.75 142.81,-33.98 132.44,-31.8 133.35,-38.75"/>
</a>
</g>
</g>
<!-- Node3 -->
<g id="Node000003" class="node">
<title>Node3</title>
<g id="a_Node000003"><a xlink:href="../../d6/d24/classBME280_aff7bde27ccf8fbba0177b7be4c935220.xhtml#aff7bde27ccf8fbba0177b7be4c935220" target="_top" xlink:title=" ">
<polygon fill="white" stroke="#666666" points="373.5,-93 295.5,-93 295.5,-74 373.5,-74 373.5,-93"/>
<text text-anchor="middle" x="334.5" y="-81" font-family="Helvetica,sans-Serif" font-size="10.00">BME280::init</text>
</a>
</g>
</g>
<!-- Node2&#45;&gt;Node3 -->
<g id="edge2_Node000002_Node000003" class="edge">
<title>Node2&#45;&gt;Node3</title>
<g id="a_edge2_Node000002_Node000003"><a xlink:title=" ">
<path fill="none" stroke="#63b8ff" d="M220.64,-68.07C238.84,-70.56 263.63,-73.95 285.35,-76.92"/>
<polygon fill="#63b8ff" stroke="#63b8ff" points="285.02,-80.41 295.4,-78.29 285.96,-73.47 285.02,-80.41"/>
</a>
</g>
</g>
<!-- Node12 -->
<g id="Node000012" class="node">
<title>Node12</title>
<g id="a_Node000012"><a xlink:href="../../dd/db1/error_8cpp_aa07018cc68b21b664b4ca75a67e679f0.xhtml#aa07018cc68b21b664b4ca75a67e679f0" target="_top" xlink:title=" ">
<polygon fill="white" stroke="#666666" points="389,-56 280,-56 280,-37 389,-37 389,-56"/>
<text text-anchor="middle" x="334.5" y="-44" font-family="Helvetica,sans-Serif" font-size="10.00">switchToErrorMode</text>
</a>
</g>
</g>
<!-- Node2&#45;&gt;Node12 -->
<g id="edge12_Node000002_Node000012" class="edge">
<title>Node2&#45;&gt;Node12</title>
<g id="a_edge12_Node000002_Node000012"><a xlink:title=" ">
<path fill="none" stroke="#63b8ff" d="M220.64,-61.11C234.58,-59.31 252.39,-57 269.72,-54.76"/>
<polygon fill="#63b8ff" stroke="#63b8ff" points="270.37,-58.2 279.84,-53.45 269.47,-51.26 270.37,-58.2"/>
</a>
</g>
</g>
<!-- Node4 -->
<g id="Node000004" class="node">
<title>Node4</title>
<g id="a_Node000004"><a xlink:href="../../d6/d24/classBME280_a6846cf01eac22e69dbf6516b1255d332.xhtml#a6846cf01eac22e69dbf6516b1255d332" target="_top" xlink:title=" ">
<polygon fill="white" stroke="#666666" points="767,-131 617,-131 617,-112 767,-112 767,-131"/>
<text text-anchor="middle" x="692" y="-119" font-family="Helvetica,sans-Serif" font-size="10.00">BME280::BME280Read16LE</text>
</a>
</g>
</g>
<!-- Node3&#45;&gt;Node4 -->
<g id="edge3_Node000003_Node000004" class="edge">
<title>Node3&#45;&gt;Node4</title>
<g id="a_edge3_Node000003_Node000004"><a xlink:title=" ">
<path fill="none" stroke="#63b8ff" d="M346.36,-93.19C362.27,-106.68 393.46,-130.45 425,-139.5 500.86,-161.28 593.67,-146.06 647.2,-133.47"/>
<polygon fill="#63b8ff" stroke="#63b8ff" points="648.15,-136.84 657.04,-131.08 646.5,-130.03 648.15,-136.84"/>
</a>
</g>
</g>
<!-- Node6 -->
<g id="Node000006" class="node">
<title>Node6</title>
<g id="a_Node000006"><a xlink:href="../../d6/d24/classBME280_a266f0487e91104454224b14f689b6e55.xhtml#a266f0487e91104454224b14f689b6e55" target="_top" xlink:title=" ">
<polygon fill="white" stroke="#666666" points="569.5,-130 436.5,-130 436.5,-111 569.5,-111 569.5,-130"/>
<text text-anchor="middle" x="503" y="-118" font-family="Helvetica,sans-Serif" font-size="10.00">BME280::BME280Read8</text>
</a>
</g>
</g>
<!-- Node3&#45;&gt;Node6 -->
<g id="edge5_Node000003_Node000006" class="edge">
<title>Node3&#45;&gt;Node6</title>
<g id="a_edge5_Node000003_Node000006"><a xlink:title=" ">
<path fill="none" stroke="#63b8ff" d="M373.7,-91.99C396.06,-96.96 424.63,-103.31 449.13,-108.75"/>
<polygon fill="#63b8ff" stroke="#63b8ff" points="448.47,-112.19 458.99,-110.94 449.99,-105.36 448.47,-112.19"/>
</a>
</g>
</g>
<!-- Node7 -->
<g id="Node000007" class="node">
<title>Node7</title>
<g id="a_Node000007"><a xlink:href="../../d6/d24/classBME280_aad9d880a35154d473937450bc87152b0.xhtml#aad9d880a35154d473937450bc87152b0" target="_top" xlink:title=" ">
<polygon fill="white" stroke="#666666" points="581,-93 425,-93 425,-74 581,-74 581,-93"/>
<text text-anchor="middle" x="503" y="-81" font-family="Helvetica,sans-Serif" font-size="10.00">BME280::BME280ReadS16LE</text>
</a>
</g>
</g>
<!-- Node3&#45;&gt;Node7 -->
<g id="edge6_Node000003_Node000007" class="edge">
<title>Node3&#45;&gt;Node7</title>
<g id="a_edge6_Node000003_Node000007"><a xlink:title=" ">
<path fill="none" stroke="#63b8ff" d="M373.7,-83.5C386.1,-83.5 400.41,-83.5 414.88,-83.5"/>
<polygon fill="#63b8ff" stroke="#63b8ff" points="414.9,-87 424.9,-83.5 414.9,-80 414.9,-87"/>
</a>
</g>
</g>
<!-- Node8 -->
<g id="Node000008" class="node">
<title>Node8</title>
<g id="a_Node000008"><a xlink:href="../../d5/df3/wiring_8c_a6bc5f943544a887f8b23cadfb26a5e30.xhtml#a6bc5f943544a887f8b23cadfb26a5e30" target="_top" xlink:title=" ">
<polygon fill="white" stroke="#666666" points="525,-56 481,-56 481,-37 525,-37 525,-56"/>
<text text-anchor="middle" x="503" y="-44" font-family="Helvetica,sans-Serif" font-size="10.00">delay</text>
</a>
</g>
</g>
<!-- Node3&#45;&gt;Node8 -->
<g id="edge8_Node000003_Node000008" class="edge">
<title>Node3&#45;&gt;Node8</title>
<g id="a_edge8_Node000003_Node000008"><a xlink:title=" ">
<path fill="none" stroke="#63b8ff" d="M373.7,-75.01C403.15,-68.47 443.38,-59.53 470.89,-53.41"/>
<polygon fill="#63b8ff" stroke="#63b8ff" points="471.76,-56.81 480.76,-51.22 470.24,-49.97 471.76,-56.81"/>
</a>
</g>
</g>
<!-- Node11 -->
<g id="Node000011" class="node">
<title>Node11</title>
<g id="a_Node000011"><a xlink:href="../../d6/d24/classBME280_a8d378248d5baa2cd07d9fd4be1386ff9.xhtml#a8d378248d5baa2cd07d9fd4be1386ff9" target="_top" xlink:title=" ">
<polygon fill="white" stroke="#666666" points="567,-19 439,-19 439,0 567,0 567,-19"/>
<text text-anchor="middle" x="503" y="-7" font-family="Helvetica,sans-Serif" font-size="10.00">BME280::writeRegister</text>
</a>
</g>
</g>
<!-- Node3&#45;&gt;Node11 -->
<g id="edge11_Node000003_Node000011" class="edge">
<title>Node3&#45;&gt;Node11</title>
<g id="a_edge11_Node000003_Node000011"><a xlink:title=" ">
<path fill="none" stroke="#63b8ff" d="M371.68,-73.95C377.69,-71.64 383.69,-68.84 389,-65.5 408.42,-53.28 405.09,-39.91 425,-28.5 428.94,-26.24 433.14,-24.25 437.46,-22.5"/>
<polygon fill="#63b8ff" stroke="#63b8ff" points="438.88,-25.71 447.1,-19.02 436.5,-19.12 438.88,-25.71"/>
</a>
</g>
</g>
<!-- Node5 -->
<g id="Node000005" class="node">
<title>Node5</title>
<g id="a_Node000005"><a xlink:href="../../d6/d24/classBME280_aa4fe8af66d6cd1cb5699ee359c71e190.xhtml#aa4fe8af66d6cd1cb5699ee359c71e190" target="_top" xlink:title=" ">
<polygon fill="white" stroke="#666666" points="942,-131 803,-131 803,-112 942,-112 942,-131"/>
<text text-anchor="middle" x="872.5" y="-119" font-family="Helvetica,sans-Serif" font-size="10.00">BME280::BME280Read16</text>
</a>
</g>
</g>
<!-- Node4&#45;&gt;Node5 -->
<g id="edge4_Node000004_Node000005" class="edge">
<title>Node4&#45;&gt;Node5</title>
<g id="a_edge4_Node000004_Node000005"><a xlink:title=" ">
<path fill="none" stroke="#63b8ff" d="M767.15,-121.5C775.53,-121.5 784.08,-121.5 792.52,-121.5"/>
<polygon fill="#63b8ff" stroke="#63b8ff" points="792.73,-125 802.73,-121.5 792.73,-118 792.73,-125"/>
</a>
</g>
</g>
<!-- Node7&#45;&gt;Node4 -->
<g id="edge7_Node000007_Node000004" class="edge">
<title>Node7&#45;&gt;Node4</title>
<g id="a_edge7_Node000007_Node000004"><a xlink:title=" ">
<path fill="none" stroke="#63b8ff" d="M551.19,-93.09C576.42,-98.22 607.67,-104.57 634.23,-109.96"/>
<polygon fill="#63b8ff" stroke="#63b8ff" points="633.65,-113.42 644.15,-111.98 635.05,-106.56 633.65,-113.42"/>
</a>
</g>
</g>
<!-- Node9 -->
<g id="Node000009" class="node">
<title>Node9</title>
<g id="a_Node000009"><a xlink:href="../../d5/df3/wiring_8c_a8b24cbb7c3486e1bfa05c86db83ecb01.xhtml#a8b24cbb7c3486e1bfa05c86db83ecb01" target="_top" xlink:title=" ">
<polygon fill="white" stroke="#666666" points="717,-75 667,-75 667,-56 717,-56 717,-75"/>
<text text-anchor="middle" x="692" y="-63" font-family="Helvetica,sans-Serif" font-size="10.00">micros</text>
</a>
</g>
</g>
<!-- Node8&#45;&gt;Node9 -->
<g id="edge9_Node000008_Node000009" class="edge">
<title>Node8&#45;&gt;Node9</title>
<g id="a_edge9_Node000008_Node000009"><a xlink:title=" ">
<path fill="none" stroke="#63b8ff" d="M525.09,-48.64C557.04,-51.89 618.07,-58.09 656.54,-62"/>
<polygon fill="#63b8ff" stroke="#63b8ff" points="656.45,-65.51 666.75,-63.04 657.15,-58.54 656.45,-65.51"/>
</a>
</g>
</g>
<!-- Node10 -->
<g id="Node000010" class="node">
<title>Node10</title>
<g id="a_Node000010"><a xlink:href="../../de/df0/Arduino_8h_a7cb51f5c2b5cad3766f19eb69c92793b.xhtml#a7cb51f5c2b5cad3766f19eb69c92793b" target="_top" xlink:title=" ">
<polygon fill="white" stroke="#666666" points="712.5,-38 671.5,-38 671.5,-19 712.5,-19 712.5,-38"/>
<text text-anchor="middle" x="692" y="-26" font-family="Helvetica,sans-Serif" font-size="10.00">yield</text>
</a>
</g>
</g>
<!-- Node8&#45;&gt;Node10 -->
<g id="edge10_Node000008_Node000010" class="edge">
<title>Node8&#45;&gt;Node10</title>
<g id="a_edge10_Node000008_Node000010"><a xlink:title=" ">
<path fill="none" stroke="#63b8ff" d="M525.09,-44.47C558.3,-41.27 622.91,-35.05 660.96,-31.39"/>
<polygon fill="#63b8ff" stroke="#63b8ff" points="661.78,-34.83 671.4,-30.39 661.11,-27.86 661.78,-34.83"/>
</a>
</g>
</g>
</g>
</svg>

<g id="navigator" transform="translate(0 0)" fill="#404254">
  <rect fill="#f2f5e9" fill-opacity="0.5" stroke="#606060" stroke-width=".5" x="0" y="0" width="60" height="60"/>
  <use id="zoomplus" xlink:href="#zoomPlus" x="17" y="9" onmousedown="handleZoom(evt,'in')"/>
  <use id="zoomminus" xlink:href="#zoomMin" x="42" y="9" onmousedown="handleZoom(evt,'out')"/>
  <use id="reset" xlink:href="#resetDef" x="30" y="36" onmousedown="handleReset()"/>
   <use id="arrowup" xlink:href="#arrowUp" x="0" y="0" onmousedown="handlePan(0,-1)"/>
  <use id="arrowright" xlink:href="#arrowRight" x="0" y="0" onmousedown="handlePan(1,0)"/>
  <use id="arrowdown" xlink:href="#arrowDown" x="0" y="0" onmousedown="handlePan(0,1)"/>
  <use id="arrowleft" xlink:href="#arrowLeft" x="0" y="0" onmousedown="handlePan(-1,0)"/>
</g>
<svg viewBox="0 0 15 15" width="100%" height="30px" preserveAspectRatio="xMaxYMin meet">
 <g id="arrow_out" transform="scale(0.3 0.3)">
  <a xlink:href="pressure_8hpp_afeb7254ac3d1603fe28432de687313fb_afeb7254ac3d1603fe28432de687313fb_cgraph_org.svg" target="_base">
   <rect id="button" ry="5" rx="5" y="6" x="6" height="38" width="38"
        fill="#f2f5e9" fill-opacity="0.5" stroke="#606060" stroke-width="1.0"/>
   <path id="arrow"
     d="M 11.500037,31.436501 C 11.940474,20.09759 22.043105,11.32322 32.158766,21.979434 L 37.068811,17.246167 C 37.068811,17.246167 37.088388,32 37.088388,32 L 22.160133,31.978069 C 22.160133,31.978069 26.997745,27.140456 26.997745,27.140456 C 18.528582,18.264221 13.291696,25.230495 11.500037,31.436501 z"
     style="fill:#404040;"/>
  </a>
 </g>
</svg>

<style type='text/css'>
<![CDATA[
[data-mouse-over-selected='false'] { opacity: 0.7; }
[data-mouse-over-selected='true']  { opacity: 1.0; }
]]>
</style>
<script type="application/ecmascript"><![CDATA[
document.addEventListener('DOMContentLoaded', (event) => {
  highlightEdges();
  highlightAdjacentNodes();
});
]]></script>
</svg>
