<?xml version="1.0" encoding="UTF-8" standalone="no"?>
<!DOCTYPE svg PUBLIC "-//W3C//DTD SVG 1.1//EN"
 "http://www.w3.org/Graphics/SVG/1.1/DTD/svg11.dtd">
<!-- Generated by graphviz version 2.43.0 (0)
 -->
<!-- Title: StreamFile::size Pages: 1 -->
<!--zoomable 82 -->

<svg id="main" version="1.1" xmlns="http://www.w3.org/2000/svg" xmlns:xlink="http://www.w3.org/1999/xlink" xml:space="preserve" onload="init(evt)">
<style type="text/css"><![CDATA[
.node, .edge {opacity: 0.7;}
.node.selected, .edge.selected {opacity: 1;}
.edge:hover path { stroke: red; }
.edge:hover polygon { stroke: red; fill: red; }
]]></style>

<defs>
  <circle id="rim" cx="0" cy="0" r="7"/>
  <circle id="rim2" cx="0" cy="0" r="3.5"/>
  <g id="zoomPlus">
    <use xlink:href="#rim" fill="#404040"><set attributeName="fill" to="#808080" begin="zoomplus.mouseover" end="zoomplus.mouseout"/></use>
    <path d="M-4,0h8M0,-4v8" fill="none" stroke="white" stroke-width="1.5" pointer-events="none"/>
  </g>
  <g id="zoomMin">
    <use xlink:href="#rim" fill="#404040"><set attributeName="fill" to="#808080" begin="zoomminus.mouseover" end="zoomminus.mouseout"/></use>
    <path d="M-4,0h8" fill="none" stroke="white" stroke-width="1.5" pointer-events="none"/>
  </g>
  <g id="arrowUp" transform="translate(30 24)">
    <use xlink:href="#rim"/>
    <path pointer-events="none" fill="none" stroke="white" stroke-width="1.5" d="M0,-3.0v7 M-2.5,-0.5L0,-3.0L2.5,-0.5"/>
  </g>
  <g id="arrowRight" transform="rotate(90) translate(36 -43)">
    <use xlink:href="#rim"/>
    <path pointer-events="none" fill="none" stroke="white" stroke-width="1.5" d="M0,-3.0v7 M-2.5,-0.5L0,-3.0L2.5,-0.5"/>
  </g>
  <g id="arrowDown" transform="rotate(180) translate(-30 -48)">
    <use xlink:href="#rim"/>
    <path pointer-events="none" fill="none" stroke="white" stroke-width="1.5" d="M0,-3.0v7 M-2.5,-0.5L0,-3.0L2.5,-0.5"/>
  </g>
  <g id="arrowLeft" transform="rotate(270) translate(-36 17)">
    <use xlink:href="#rim"/>
    <path pointer-events="none" fill="none" stroke="white" stroke-width="1.5" d="M0,-3.0v7 M-2.5,-0.5L0,-3.0L2.5,-0.5"/>
  </g>
  <g id="resetDef">
    <use xlink:href="#rim2" fill="#404040"><set attributeName="fill" to="#808080" begin="reset.mouseover" end="reset.mouseout"/></use>
  </g>
</defs>
<script type="application/ecmascript">
var viewWidth = 552;
var viewHeight = 82;
var sectionId = 'dynsection-2';
</script>
<script type="application/ecmascript" xlink:href="../../svg.min.js"/>
<svg id="graph" class="graph">
<g id="viewport">
<title>StreamFile::size</title>
<!-- Node1 -->
<g id="Node000001" class="node">
<title>Node1</title>
<g id="a_Node000001"><a xlink:title=" ">
<polygon fill="#999999" stroke="#666666" points="544,-37 449,-37 449,-18 544,-18 544,-37"/>
<text text-anchor="middle" x="496.5" y="-25" font-family="Helvetica,sans-Serif" font-size="10.00">StreamFile::size</text>
</a>
</g>
</g>
<!-- Node2 -->
<g id="Node000002" class="node">
<title>Node2</title>
<g id="a_Node000002"><a xlink:href="../../d0/ded/sd_8cpp.xhtml#a5b86241374c9a379af845d4adaa170b5" target="_top" xlink:title="Sauvegarde des données sur la carte SD.">
<polygon fill="white" stroke="#666666" points="394.5,-56 331.5,-56 331.5,-37 394.5,-37 394.5,-56"/>
<text text-anchor="middle" x="363" y="-44" font-family="Helvetica,sans-Serif" font-size="10.00">saveData</text>
</a>
</g>
</g>
<!-- Node1&#45;&gt;Node2 -->
<g id="edge1_Node000001_Node000002" class="edge">
<title>Node1&#45;&gt;Node2</title>
<g id="a_edge1_Node000001_Node000002"><a xlink:title=" ">
<path fill="none" stroke="#63b8ff" d="M438.46,-35.74C423.36,-37.92 407.64,-40.19 394.56,-42.09"/>
<polygon fill="#63b8ff" stroke="#63b8ff" points="439.37,-39.15 448.77,-34.25 438.37,-32.22 439.37,-39.15"/>
</a>
</g>
</g>
<!-- Node7 -->
<g id="Node000007" class="node">
<title>Node7</title>
<g id="a_Node000007"><a xlink:href="../../d1/d9b/classStreamFile.xhtml#a0ace3aaaf6d0fb673a43059c0664fab6" target="_top" xlink:title=" ">
<polygon fill="white" stroke="#666666" points="413,-19 313,-19 313,0 413,0 413,-19"/>
<text text-anchor="middle" x="363" y="-7" font-family="Helvetica,sans-Serif" font-size="10.00">StreamFile::write</text>
</a>
</g>
</g>
<!-- Node1&#45;&gt;Node7 -->
<g id="edge7_Node000001_Node000007" class="edge">
<title>Node1&#45;&gt;Node7</title>
<g id="a_edge7_Node000001_Node000007"><a xlink:title=" ">
<path fill="none" stroke="#63b8ff" d="M438.61,-19.71C430.16,-18.56 421.52,-17.37 413.25,-16.24"/>
<polygon fill="#63b8ff" stroke="#63b8ff" points="438.39,-23.21 448.77,-21.1 439.33,-16.28 438.39,-23.21"/>
</a>
</g>
</g>
<!-- Node3 -->
<g id="Node000003" class="node">
<title>Node3</title>
<g id="a_Node000003"><a xlink:href="../../d9/ddd/economy_8cpp.xhtml#a35740c7a73b48d918cb4e6d891d46bed" target="_top" xlink:title="Exécute une étape de la boucle principale du mode économique.">
<polygon fill="white" stroke="#666666" points="277,-74 151,-74 151,-55 277,-55 277,-74"/>
<text text-anchor="middle" x="214" y="-62" font-family="Helvetica,sans-Serif" font-size="10.00">runEconomyModeStep</text>
</a>
</g>
</g>
<!-- Node2&#45;&gt;Node3 -->
<g id="edge2_Node000002_Node000003" class="edge">
<title>Node2&#45;&gt;Node3</title>
<g id="a_edge2_Node000002_Node000003"><a xlink:title=" ">
<path fill="none" stroke="#63b8ff" d="M321.19,-51.5C307.6,-53.16 292.13,-55.06 277.28,-56.87"/>
<polygon fill="#63b8ff" stroke="#63b8ff" points="321.68,-54.96 331.18,-50.27 320.83,-48.01 321.68,-54.96"/>
</a>
</g>
</g>
<!-- Node6 -->
<g id="Node000006" class="node">
<title>Node6</title>
<g id="a_Node000006"><a xlink:href="../../df/d92/standard_8cpp.xhtml#ad0b3e86793f7441084351fc2de4d4c45" target="_top" xlink:title="Exécute une étape de la boucle principale du mode standard.">
<polygon fill="white" stroke="#666666" points="276.5,-37 151.5,-37 151.5,-18 276.5,-18 276.5,-37"/>
<text text-anchor="middle" x="214" y="-25" font-family="Helvetica,sans-Serif" font-size="10.00">runStandardModeStep</text>
</a>
</g>
</g>
<!-- Node2&#45;&gt;Node6 -->
<g id="edge5_Node000002_Node000006" class="edge">
<title>Node2&#45;&gt;Node6</title>
<g id="a_edge5_Node000002_Node000006"><a xlink:title=" ">
<path fill="none" stroke="#63b8ff" d="M321.08,-41.21C307.33,-39.43 291.67,-37.41 276.68,-35.47"/>
<polygon fill="#63b8ff" stroke="#63b8ff" points="320.82,-44.71 331.18,-42.52 321.72,-37.76 320.82,-44.71"/>
</a>
</g>
</g>
<!-- Node4 -->
<g id="Node000004" class="node">
<title>Node4</title>
<g id="a_Node000004"><a xlink:href="../../de/dfb/src_2main_8cpp.xhtml#afe461d27b9c48d5921c00d521181f12f" target="_top" xlink:title=" ">
<polygon fill="white" stroke="#666666" points="115,-55 77,-55 77,-36 115,-36 115,-55"/>
<text text-anchor="middle" x="96" y="-43" font-family="Helvetica,sans-Serif" font-size="10.00">loop</text>
</a>
</g>
</g>
<!-- Node3&#45;&gt;Node4 -->
<g id="edge3_Node000003_Node000004" class="edge">
<title>Node3&#45;&gt;Node4</title>
<g id="a_edge3_Node000003_Node000004"><a xlink:title=" ">
<path fill="none" stroke="#63b8ff" d="M144.63,-53.3C133.82,-51.53 123.5,-49.84 115.25,-48.49"/>
<polygon fill="#63b8ff" stroke="#63b8ff" points="144.23,-56.78 154.66,-54.94 145.36,-49.87 144.23,-56.78"/>
</a>
</g>
</g>
<!-- Node5 -->
<g id="Node000005" class="node">
<title>Node5</title>
<g id="a_Node000005"><a xlink:href="../../d2/d81/libs_2Arduino__AVR_2main_8cpp.xhtml#a840291bc02cba5474a4cb46a9b9566fe" target="_top" xlink:title=" ">
<polygon fill="white" stroke="#666666" points="41,-55 0,-55 0,-36 41,-36 41,-55"/>
<text text-anchor="middle" x="20.5" y="-43" font-family="Helvetica,sans-Serif" font-size="10.00">main</text>
</a>
</g>
</g>
<!-- Node4&#45;&gt;Node5 -->
<g id="edge4_Node000004_Node000005" class="edge">
<title>Node4&#45;&gt;Node5</title>
<g id="a_edge4_Node000004_Node000005"><a xlink:title=" ">
<path fill="none" stroke="#63b8ff" d="M66.79,-45.5C58.18,-45.5 48.9,-45.5 41,-45.5"/>
<polygon fill="#63b8ff" stroke="#63b8ff" points="66.83,-49 76.83,-45.5 66.83,-42 66.83,-49"/>
</a>
</g>
</g>
<!-- Node6&#45;&gt;Node4 -->
<g id="edge6_Node000006_Node000004" class="edge">
<title>Node6&#45;&gt;Node4</title>
<g id="a_edge6_Node000006_Node000004"><a xlink:title=" ">
<path fill="none" stroke="#63b8ff" d="M141.44,-38.6C131.83,-40.1 122.74,-41.51 115.32,-42.66"/>
<polygon fill="#63b8ff" stroke="#63b8ff" points="142.26,-42.02 151.6,-37.03 141.18,-35.1 142.26,-42.02"/>
</a>
</g>
</g>
</g>
</svg>

<g id="navigator" transform="translate(0 0)" fill="#404254">
  <rect fill="#f2f5e9" fill-opacity="0.5" stroke="#606060" stroke-width=".5" x="0" y="0" width="60" height="60"/>
  <use id="zoomplus" xlink:href="#zoomPlus" x="17" y="9" onmousedown="handleZoom(evt,'in')"/>
  <use id="zoomminus" xlink:href="#zoomMin" x="42" y="9" onmousedown="handleZoom(evt,'out')"/>
  <use id="reset" xlink:href="#resetDef" x="30" y="36" onmousedown="handleReset()"/>
   <use id="arrowup" xlink:href="#arrowUp" x="0" y="0" onmousedown="handlePan(0,-1)"/>
  <use id="arrowright" xlink:href="#arrowRight" x="0" y="0" onmousedown="handlePan(1,0)"/>
  <use id="arrowdown" xlink:href="#arrowDown" x="0" y="0" onmousedown="handlePan(0,1)"/>
  <use id="arrowleft" xlink:href="#arrowLeft" x="0" y="0" onmousedown="handlePan(-1,0)"/>
</g>
<svg viewBox="0 0 15 15" width="100%" height="30px" preserveAspectRatio="xMaxYMin meet">
 <g id="arrow_out" transform="scale(0.3 0.3)">
  <a xlink:href="classStreamFile_a5813d451e7f7ba57a04d177caffc5a9f_icgraph_org.svg" target="_base">
   <rect id="button" ry="5" rx="5" y="6" x="6" height="38" width="38"
        fill="#f2f5e9" fill-opacity="0.5" stroke="#606060" stroke-width="1.0"/>
   <path id="arrow"
     d="M 11.500037,31.436501 C 11.940474,20.09759 22.043105,11.32322 32.158766,21.979434 L 37.068811,17.246167 C 37.068811,17.246167 37.088388,32 37.088388,32 L 22.160133,31.978069 C 22.160133,31.978069 26.997745,27.140456 26.997745,27.140456 C 18.528582,18.264221 13.291696,25.230495 11.500037,31.436501 z"
     style="fill:#404040;"/>
  </a>
 </g>
</svg>

<style type='text/css'>
<![CDATA[
[data-mouse-over-selected='false'] { opacity: 0.7; }
[data-mouse-over-selected='true']  { opacity: 1.0; }
]]>
</style>
<script type="application/ecmascript"><![CDATA[
document.addEventListener('DOMContentLoaded', (event) => {
  highlightEdges();
  highlightAdjacentNodes();
});
]]></script>
</svg>
