<?xml version="1.0" encoding="UTF-8" standalone="no"?>
<!DOCTYPE svg PUBLIC "-//W3C//DTD SVG 1.1//EN"
 "http://www.w3.org/Graphics/SVG/1.1/DTD/svg11.dtd">
<!-- Generated by graphviz version 2.43.0 (0)
 -->
<!-- Title: fmtBase10 Pages: 1 -->
<svg width="1198pt" height="585pt"
 viewBox="0.00 0.00 1198.00 585.00" xmlns="http://www.w3.org/2000/svg" xmlns:xlink="http://www.w3.org/1999/xlink">
<g id="graph0" class="graph" transform="scale(1 1) rotate(0) translate(4 581)">
<title>fmtBase10</title>
<!-- Node1 -->
<g id="Node000001" class="node">
<title>Node1</title>
<g id="a_Node000001"><a xlink:title=" ">
<polygon fill="#999999" stroke="#666666" points="1190,-297 1120,-297 1120,-278 1190,-278 1190,-297"/>
<text text-anchor="middle" x="1155" y="-285" font-family="Helvetica,sans-Serif" font-size="10.00">fmtBase10</text>
</a>
</g>
</g>
<!-- Node2 -->
<g id="Node000002" class="node">
<title>Node2</title>
<g id="a_Node000002"><a xlink:href="../../d4/d7f/FmtNumber_8cpp_a50a7eead509a2f9a10e506e46e50b857.xhtml#a50a7eead509a2f9a10e506e46e50b857" target="_top" xlink:title=" ">
<polygon fill="white" stroke="#666666" points="1053,-503 983,-503 983,-484 1053,-484 1053,-503"/>
<text text-anchor="middle" x="1018" y="-491" font-family="Helvetica,sans-Serif" font-size="10.00">fmtBase10</text>
</a>
</g>
</g>
<!-- Node1&#45;&gt;Node2 -->
<g id="edge1_Node000001_Node000002" class="edge">
<title>Node1&#45;&gt;Node2</title>
<g id="a_edge1_Node000001_Node000002"><a xlink:title=" ">
<path fill="none" stroke="#63b8ff" d="M1152.37,-307.78C1148.17,-346.26 1133.54,-430.06 1084,-475.5 1075.54,-483.26 1064.04,-487.71 1053.05,-490.26"/>
<polygon fill="#63b8ff" stroke="#63b8ff" points="1155.9,-307.67 1153.37,-297.39 1148.93,-307.01 1155.9,-307.67"/>
</a>
</g>
</g>
<!-- Node3 -->
<g id="Node000003" class="node">
<title>Node3</title>
<g id="a_Node000003"><a xlink:href="../../d4/d7f/FmtNumber_8cpp_aa406e3ddeb7cfe6c5bc9c681f1f68b02.xhtml#aa406e3ddeb7cfe6c5bc9c681f1f68b02" target="_top" xlink:title=" ">
<polygon fill="white" stroke="#666666" points="1052,-466 984,-466 984,-447 1052,-447 1052,-466"/>
<text text-anchor="middle" x="1018" y="-454" font-family="Helvetica,sans-Serif" font-size="10.00">fmtDouble</text>
</a>
</g>
</g>
<!-- Node1&#45;&gt;Node3 -->
<g id="edge2_Node000001_Node000003" class="edge">
<title>Node1&#45;&gt;Node3</title>
<g id="a_edge2_Node000001_Node000003"><a xlink:title=" ">
<path fill="none" stroke="#63b8ff" d="M1150.36,-307.37C1143.38,-339.73 1125,-403.72 1084,-438.5 1075.07,-446.07 1063.2,-450.48 1052.05,-453.03"/>
<polygon fill="#63b8ff" stroke="#63b8ff" points="1153.84,-307.83 1152.37,-297.33 1146.98,-306.45 1153.84,-307.83"/>
</a>
</g>
</g>
<!-- Node12 -->
<g id="Node000012" class="node">
<title>Node12</title>
<g id="a_Node000012"><a xlink:href="../../d4/d7f/FmtNumber_8cpp_ad3f303d345bb375cb4af15c0d1eb776a.xhtml#ad3f303d345bb375cb4af15c0d1eb776a" target="_top" xlink:title=" ">
<polygon fill="white" stroke="#666666" points="1052,-429 984,-429 984,-410 1052,-410 1052,-429"/>
<text text-anchor="middle" x="1018" y="-417" font-family="Helvetica,sans-Serif" font-size="10.00">fmtDouble</text>
</a>
</g>
</g>
<!-- Node1&#45;&gt;Node12 -->
<g id="edge11_Node000001_Node000012" class="edge">
<title>Node1&#45;&gt;Node12</title>
<g id="a_edge11_Node000001_Node000012"><a xlink:title=" ">
<path fill="none" stroke="#63b8ff" d="M1147.31,-306.79C1137.47,-332.32 1116.64,-376.94 1084,-401.5 1074.83,-408.4 1063.16,-412.66 1052.24,-415.28"/>
<polygon fill="#63b8ff" stroke="#63b8ff" points="1150.7,-307.73 1150.86,-297.14 1144.13,-305.32 1150.7,-307.73"/>
</a>
</g>
</g>
<!-- Node13 -->
<g id="Node000013" class="node">
<title>Node13</title>
<g id="a_Node000013"><a xlink:href="../../d4/d7f/FmtNumber_8cpp_afd52929adb87d037d77459773c1ce811.xhtml#afd52929adb87d037d77459773c1ce811" target="_top" xlink:title=" ">
<polygon fill="white" stroke="#666666" points="1058,-392 978,-392 978,-373 1058,-373 1058,-392"/>
<text text-anchor="middle" x="1018" y="-380" font-family="Helvetica,sans-Serif" font-size="10.00">fmtUnsigned</text>
</a>
</g>
</g>
<!-- Node1&#45;&gt;Node13 -->
<g id="edge12_Node000001_Node000013" class="edge">
<title>Node1&#45;&gt;Node13</title>
<g id="a_edge12_Node000001_Node000013"><a xlink:title=" ">
<path fill="none" stroke="#63b8ff" d="M1140.5,-305.06C1127.52,-320.92 1106.58,-343.93 1084,-358.5 1074.7,-364.5 1063.69,-369.29 1053.4,-372.96"/>
<polygon fill="#63b8ff" stroke="#63b8ff" points="1143.36,-307.09 1146.85,-297.09 1137.88,-302.73 1143.36,-307.09"/>
</a>
</g>
</g>
<!-- Node18 -->
<g id="Node000018" class="node">
<title>Node18</title>
<g id="a_Node000018"><a xlink:href="../../d3/d80/FsDateTime_8cpp_a45cb92b5a748663234bb5213234105ce.xhtml#a45cb92b5a748663234bb5213234105ce" target="_top" xlink:title=" ">
<polygon fill="white" stroke="#666666" points="1052,-94 984,-94 984,-75 1052,-75 1052,-94"/>
<text text-anchor="middle" x="1018" y="-82" font-family="Helvetica,sans-Serif" font-size="10.00">fsFmtField</text>
</a>
</g>
</g>
<!-- Node1&#45;&gt;Node18 -->
<g id="edge19_Node000001_Node000018" class="edge">
<title>Node1&#45;&gt;Node18</title>
<g id="a_edge19_Node000001_Node000018"><a xlink:title=" ">
<path fill="none" stroke="#63b8ff" d="M1152.17,-267.71C1147.64,-230.14 1132.46,-148.27 1084,-103.5 1075.28,-95.44 1063.32,-90.79 1052.04,-88.1"/>
<polygon fill="#63b8ff" stroke="#63b8ff" points="1148.72,-268.28 1153.26,-277.85 1155.68,-267.53 1148.72,-268.28"/>
</a>
</g>
</g>
<!-- Node45 -->
<g id="Node000045" class="node">
<title>Node45</title>
<g id="a_Node000045"><a xlink:href="../../da/d64/classStdioStream_a90b2999af94a3578fff7579c2acf8e35.xhtml#a90b2999af94a3578fff7579c2acf8e35" target="_top" xlink:title=" ">
<polygon fill="white" stroke="#666666" points="1080,-316 956,-316 956,-297 1080,-297 1080,-316"/>
<text text-anchor="middle" x="1018" y="-304" font-family="Helvetica,sans-Serif" font-size="10.00">StdioStream::printDec</text>
</a>
</g>
</g>
<!-- Node1&#45;&gt;Node45 -->
<g id="edge50_Node000001_Node000045" class="edge">
<title>Node1&#45;&gt;Node45</title>
<g id="a_edge50_Node000001_Node000045"><a xlink:title=" ">
<path fill="none" stroke="#63b8ff" d="M1109.92,-293.7C1100.4,-295.04 1090.17,-296.48 1080.12,-297.9"/>
<polygon fill="#63b8ff" stroke="#63b8ff" points="1110.52,-297.15 1119.93,-292.29 1109.54,-290.22 1110.52,-297.15"/>
</a>
</g>
</g>
<!-- Node46 -->
<g id="Node000046" class="node">
<title>Node46</title>
<g id="a_Node000046"><a xlink:href="../../da/d64/classStdioStream_a8b6c2c80342abe45e6f564e9bd5bb7ea.xhtml#a8b6c2c80342abe45e6f564e9bd5bb7ea" target="_top" xlink:title=" ">
<polygon fill="white" stroke="#666666" points="1080,-279 956,-279 956,-260 1080,-260 1080,-279"/>
<text text-anchor="middle" x="1018" y="-267" font-family="Helvetica,sans-Serif" font-size="10.00">StdioStream::printDec</text>
</a>
</g>
</g>
<!-- Node1&#45;&gt;Node46 -->
<g id="edge51_Node000001_Node000046" class="edge">
<title>Node1&#45;&gt;Node46</title>
<g id="a_edge51_Node000001_Node000046"><a xlink:title=" ">
<path fill="none" stroke="#63b8ff" d="M1109.92,-281.62C1100.4,-280.35 1090.17,-278.99 1080.12,-277.65"/>
<polygon fill="#63b8ff" stroke="#63b8ff" points="1109.56,-285.11 1119.93,-282.96 1110.48,-278.17 1109.56,-285.11"/>
</a>
</g>
</g>
<!-- Node47 -->
<g id="Node000047" class="node">
<title>Node47</title>
<g id="a_Node000047"><a xlink:href="../../d2/d1b/classBufferedPrint_af680cf36170347287d20ed92ae5f6c9b.xhtml#af680cf36170347287d20ed92ae5f6c9b" target="_top" xlink:title=" ">
<polygon fill="white" stroke="#666666" points="1084,-242 952,-242 952,-223 1084,-223 1084,-242"/>
<text text-anchor="middle" x="1018" y="-230" font-family="Helvetica,sans-Serif" font-size="10.00">BufferedPrint::printField</text>
</a>
</g>
</g>
<!-- Node1&#45;&gt;Node47 -->
<g id="edge52_Node000001_Node000047" class="edge">
<title>Node1&#45;&gt;Node47</title>
<g id="a_edge52_Node000001_Node000047"><a xlink:title=" ">
<path fill="none" stroke="#63b8ff" d="M1128.59,-272.94C1115.54,-265.85 1099.22,-257.57 1084,-251.5 1075.16,-247.97 1065.4,-244.77 1056.2,-242.05"/>
<polygon fill="#63b8ff" stroke="#63b8ff" points="1127,-276.07 1137.45,-277.85 1130.39,-269.94 1127,-276.07"/>
</a>
</g>
</g>
<!-- Node48 -->
<g id="Node000048" class="node">
<title>Node48</title>
<g id="a_Node000048"><a xlink:href="../../d6/d7f/classExFatFile_a9759c13e804c01ff9e7e2ac8fbabc5b8.xhtml#a9759c13e804c01ff9e7e2ac8fbabc5b8" target="_top" xlink:title=" ">
<polygon fill="white" stroke="#666666" points="1074,-205 962,-205 962,-186 1074,-186 1074,-205"/>
<text text-anchor="middle" x="1018" y="-193" font-family="Helvetica,sans-Serif" font-size="10.00">ExFatFile::printField</text>
</a>
</g>
</g>
<!-- Node1&#45;&gt;Node48 -->
<g id="edge53_Node000001_Node000048" class="edge">
<title>Node1&#45;&gt;Node48</title>
<g id="a_edge53_Node000001_Node000048"><a xlink:title=" ">
<path fill="none" stroke="#63b8ff" d="M1141.25,-269.59C1128.54,-253 1107.56,-228.79 1084,-214.5 1077.67,-210.66 1070.52,-207.56 1063.33,-205.06"/>
<polygon fill="#63b8ff" stroke="#63b8ff" points="1138.65,-271.96 1147.42,-277.91 1144.28,-267.79 1138.65,-271.96"/>
</a>
</g>
</g>
<!-- Node49 -->
<g id="Node000049" class="node">
<title>Node49</title>
<g id="a_Node000049"><a xlink:href="../../d3/db4/classFatFile_a8f906be79086f38943cb0911310d67bf.xhtml#a8f906be79086f38943cb0911310d67bf" target="_top" xlink:title=" ">
<polygon fill="white" stroke="#666666" points="1068,-168 968,-168 968,-149 1068,-149 1068,-168"/>
<text text-anchor="middle" x="1018" y="-156" font-family="Helvetica,sans-Serif" font-size="10.00">FatFile::printField</text>
</a>
</g>
</g>
<!-- Node1&#45;&gt;Node49 -->
<g id="edge54_Node000001_Node000049" class="edge">
<title>Node1&#45;&gt;Node49</title>
<g id="a_edge54_Node000001_Node000049"><a xlink:title=" ">
<path fill="none" stroke="#63b8ff" d="M1146.92,-268.58C1136.75,-243.96 1115.67,-201.29 1084,-177.5 1078.83,-173.62 1072.88,-170.52 1066.73,-168.06"/>
<polygon fill="#63b8ff" stroke="#63b8ff" points="1143.68,-269.9 1150.61,-277.92 1150.19,-267.33 1143.68,-269.9"/>
</a>
</g>
</g>
<!-- Node50 -->
<g id="Node000050" class="node">
<title>Node50</title>
<g id="a_Node000050"><a xlink:href="../../d1/d61/classRingBuf_a7a5552ac6361cebb8b911df2e5cdcff5.xhtml#a7a5552ac6361cebb8b911df2e5cdcff5" target="_top" xlink:title=" ">
<polygon fill="white" stroke="#666666" points="1071,-131 965,-131 965,-112 1071,-112 1071,-131"/>
<text text-anchor="middle" x="1018" y="-119" font-family="Helvetica,sans-Serif" font-size="10.00">RingBuf::printField</text>
</a>
</g>
</g>
<!-- Node1&#45;&gt;Node50 -->
<g id="edge55_Node000001_Node000050" class="edge">
<title>Node1&#45;&gt;Node50</title>
<g id="a_edge55_Node000001_Node000050"><a xlink:title=" ">
<path fill="none" stroke="#63b8ff" d="M1150.05,-267.8C1142.69,-236.24 1123.87,-174.45 1084,-140.5 1079.43,-136.61 1074.11,-133.52 1068.51,-131.06"/>
<polygon fill="#63b8ff" stroke="#63b8ff" points="1146.71,-268.93 1152.26,-277.95 1153.55,-267.44 1146.71,-268.93"/>
</a>
</g>
</g>
<!-- Node51 -->
<g id="Node000051" class="node">
<title>Node51</title>
<g id="a_Node000051"><a xlink:href="../../d3/db4/classFatFile_a12a5d2de2737c201aa39ca1bd2ab9c47.xhtml#a12a5d2de2737c201aa39ca1bd2ab9c47" target="_top" xlink:title=" ">
<polygon fill="white" stroke="#666666" points="907,-316 793,-316 793,-297 907,-297 907,-316"/>
<text text-anchor="middle" x="850" y="-304" font-family="Helvetica,sans-Serif" font-size="10.00">FatFile::printFileSize</text>
</a>
</g>
</g>
<!-- Node1&#45;&gt;Node51 -->
<g id="edge56_Node000001_Node000051" class="edge">
<title>Node1&#45;&gt;Node51</title>
<g id="a_edge56_Node000001_Node000051"><a xlink:title=" ">
<path fill="none" stroke="#63b8ff" d="M1132.48,-302.84C1119.2,-311.35 1101.42,-321.08 1084,-325.5 1014.77,-343.08 930.6,-327.51 884.76,-316.06"/>
<polygon fill="#63b8ff" stroke="#63b8ff" points="1134.52,-305.69 1140.9,-297.23 1130.64,-299.86 1134.52,-305.69"/>
</a>
</g>
</g>
<!-- Node4 -->
<g id="Node000004" class="node">
<title>Node4</title>
<g id="a_Node000004"><a xlink:href="../../da/d64/classStdioStream_a6a09284b1c6d0769c27916a2e131e749.xhtml#a6a09284b1c6d0769c27916a2e131e749" target="_top" xlink:title=" ">
<polygon fill="white" stroke="#666666" points="912,-577 788,-577 788,-558 912,-558 912,-577"/>
<text text-anchor="middle" x="850" y="-565" font-family="Helvetica,sans-Serif" font-size="10.00">StdioStream::printDec</text>
</a>
</g>
</g>
<!-- Node3&#45;&gt;Node4 -->
<g id="edge3_Node000003_Node000004" class="edge">
<title>Node3&#45;&gt;Node4</title>
<g id="a_edge3_Node000003_Node000004"><a xlink:title=" ">
<path fill="none" stroke="#63b8ff" d="M974.01,-463.56C966.08,-466.32 958.32,-470.16 952,-475.5 924.05,-499.1 944.11,-526.1 916,-549.5 911.86,-552.95 907.11,-555.73 902.1,-557.99"/>
<polygon fill="#63b8ff" stroke="#63b8ff" points="975.08,-466.89 983.68,-460.7 973.1,-460.18 975.08,-466.89"/>
</a>
</g>
</g>
<!-- Node5 -->
<g id="Node000005" class="node">
<title>Node5</title>
<g id="a_Node000005"><a xlink:href="../../d2/d1b/classBufferedPrint_a5b5b11f01adf91a1854a44b131886219.xhtml#a5b5b11f01adf91a1854a44b131886219" target="_top" xlink:title=" ">
<polygon fill="white" stroke="#666666" points="916,-540 784,-540 784,-521 916,-521 916,-540"/>
<text text-anchor="middle" x="850" y="-528" font-family="Helvetica,sans-Serif" font-size="10.00">BufferedPrint::printField</text>
</a>
</g>
</g>
<!-- Node3&#45;&gt;Node5 -->
<g id="edge4_Node000003_Node000005" class="edge">
<title>Node3&#45;&gt;Node5</title>
<g id="a_edge4_Node000003_Node000005"><a xlink:title=" ">
<path fill="none" stroke="#63b8ff" d="M974.23,-465.58C966.53,-468.15 958.8,-471.41 952,-475.5 932.34,-487.33 935.74,-500.81 916,-512.5 910.26,-515.9 903.85,-518.68 897.36,-520.94"/>
<polygon fill="#63b8ff" stroke="#63b8ff" points="975.33,-468.9 983.9,-462.67 973.31,-462.2 975.33,-468.9"/>
</a>
</g>
</g>
<!-- Node6 -->
<g id="Node000006" class="node">
<title>Node6</title>
<g id="a_Node000006"><a xlink:href="../../d6/d7f/classExFatFile_a496ac61e367a24665425d54956a46346.xhtml#a496ac61e367a24665425d54956a46346" target="_top" xlink:title=" ">
<polygon fill="white" stroke="#666666" points="906,-503 794,-503 794,-484 906,-484 906,-503"/>
<text text-anchor="middle" x="850" y="-491" font-family="Helvetica,sans-Serif" font-size="10.00">ExFatFile::printField</text>
</a>
</g>
</g>
<!-- Node3&#45;&gt;Node6 -->
<g id="edge5_Node000003_Node000006" class="edge">
<title>Node3&#45;&gt;Node6</title>
<g id="a_edge5_Node000003_Node000006"><a xlink:title=" ">
<path fill="none" stroke="#63b8ff" d="M974.01,-466.08C949.37,-471.58 918.54,-478.45 893.91,-483.93"/>
<polygon fill="#63b8ff" stroke="#63b8ff" points="974.81,-469.49 983.81,-463.9 973.28,-462.66 974.81,-469.49"/>
</a>
</g>
</g>
<!-- Node8 -->
<g id="Node000008" class="node">
<title>Node8</title>
<g id="a_Node000008"><a xlink:href="../../d3/db4/classFatFile_aa4a61a0cca1813d2ad0f6fe99cc4e41d.xhtml#aa4a61a0cca1813d2ad0f6fe99cc4e41d" target="_top" xlink:title=" ">
<polygon fill="white" stroke="#666666" points="900,-466 800,-466 800,-447 900,-447 900,-466"/>
<text text-anchor="middle" x="850" y="-454" font-family="Helvetica,sans-Serif" font-size="10.00">FatFile::printField</text>
</a>
</g>
</g>
<!-- Node3&#45;&gt;Node8 -->
<g id="edge7_Node000003_Node000008" class="edge">
<title>Node3&#45;&gt;Node8</title>
<g id="a_edge7_Node000003_Node000008"><a xlink:title=" ">
<path fill="none" stroke="#63b8ff" d="M973.53,-456.5C951.03,-456.5 923.47,-456.5 900.19,-456.5"/>
<polygon fill="#63b8ff" stroke="#63b8ff" points="973.81,-460 983.81,-456.5 973.81,-453 973.81,-460"/>
</a>
</g>
</g>
<!-- Node10 -->
<g id="Node000010" class="node">
<title>Node10</title>
<g id="a_Node000010"><a xlink:href="../../dc/db9/PrintTemplates_8h_aa3bc14da82a850b0f8ce848a6d54045f.xhtml#aa3bc14da82a850b0f8ce848a6d54045f" target="_top" xlink:title=" ">
<polygon fill="white" stroke="#666666" points="876.5,-429 823.5,-429 823.5,-410 876.5,-410 876.5,-429"/>
<text text-anchor="middle" x="850" y="-417" font-family="Helvetica,sans-Serif" font-size="10.00">vfprintf</text>
</a>
</g>
</g>
<!-- Node3&#45;&gt;Node10 -->
<g id="edge9_Node000003_Node000010" class="edge">
<title>Node3&#45;&gt;Node10</title>
<g id="a_edge9_Node000003_Node000010"><a xlink:title=" ">
<path fill="none" stroke="#63b8ff" d="M973.74,-446.86C942.87,-439.98 902.39,-430.96 876.54,-425.19"/>
<polygon fill="#63b8ff" stroke="#63b8ff" points="973.28,-450.34 983.81,-449.1 974.81,-443.51 973.28,-450.34"/>
</a>
</g>
</g>
<!-- Node7 -->
<g id="Node000007" class="node">
<title>Node7</title>
<g id="a_Node000007"><a xlink:href="../../d6/d7f/classExFatFile_a70eda4191df90f608694c1faede7fb33.xhtml#a70eda4191df90f608694c1faede7fb33" target="_top" xlink:title=" ">
<polygon fill="white" stroke="#666666" points="748,-503 636,-503 636,-484 748,-484 748,-503"/>
<text text-anchor="middle" x="692" y="-491" font-family="Helvetica,sans-Serif" font-size="10.00">ExFatFile::printField</text>
</a>
</g>
</g>
<!-- Node6&#45;&gt;Node7 -->
<g id="edge6_Node000006_Node000007" class="edge">
<title>Node6&#45;&gt;Node7</title>
<g id="a_edge6_Node000006_Node000007"><a xlink:title=" ">
<path fill="none" stroke="#63b8ff" d="M783.41,-493.5C771.71,-493.5 759.63,-493.5 748.26,-493.5"/>
<polygon fill="#63b8ff" stroke="#63b8ff" points="783.56,-497 793.56,-493.5 783.56,-490 783.56,-497"/>
</a>
</g>
</g>
<!-- Node9 -->
<g id="Node000009" class="node">
<title>Node9</title>
<g id="a_Node000009"><a xlink:href="../../d3/db4/classFatFile_a90ccef676afd62bbe7c773dd863a56e0.xhtml#a90ccef676afd62bbe7c773dd863a56e0" target="_top" xlink:title=" ">
<polygon fill="white" stroke="#666666" points="742,-466 642,-466 642,-447 742,-447 742,-466"/>
<text text-anchor="middle" x="692" y="-454" font-family="Helvetica,sans-Serif" font-size="10.00">FatFile::printField</text>
</a>
</g>
</g>
<!-- Node8&#45;&gt;Node9 -->
<g id="edge8_Node000008_Node000009" class="edge">
<title>Node8&#45;&gt;Node9</title>
<g id="a_edge8_Node000008_Node000009"><a xlink:title=" ">
<path fill="none" stroke="#63b8ff" d="M789.52,-456.5C773.84,-456.5 757.1,-456.5 742.04,-456.5"/>
<polygon fill="#63b8ff" stroke="#63b8ff" points="789.64,-460 799.64,-456.5 789.64,-453 789.64,-460"/>
</a>
</g>
</g>
<!-- Node11 -->
<g id="Node000011" class="node">
<title>Node11</title>
<g id="a_Node000011"><a xlink:href="../../dc/db9/PrintTemplates_8h_a3899b48e0eb6938ff58ca3accd53402a.xhtml#a3899b48e0eb6938ff58ca3accd53402a" target="_top" xlink:title=" ">
<polygon fill="white" stroke="#666666" points="715.5,-429 668.5,-429 668.5,-410 715.5,-410 715.5,-429"/>
<text text-anchor="middle" x="692" y="-417" font-family="Helvetica,sans-Serif" font-size="10.00">fprintf</text>
</a>
</g>
</g>
<!-- Node10&#45;&gt;Node11 -->
<g id="edge10_Node000010_Node000011" class="edge">
<title>Node10&#45;&gt;Node11</title>
<g id="a_edge10_Node000010_Node000011"><a xlink:title=" ">
<path fill="none" stroke="#63b8ff" d="M813.18,-419.5C783.2,-419.5 741.33,-419.5 715.75,-419.5"/>
<polygon fill="#63b8ff" stroke="#63b8ff" points="813.24,-423 823.24,-419.5 813.24,-416 813.24,-423"/>
</a>
</g>
</g>
<!-- Node13&#45;&gt;Node10 -->
<g id="edge17_Node000013_Node000010" class="edge">
<title>Node13&#45;&gt;Node10</title>
<g id="a_edge17_Node000013_Node000010"><a xlink:title=" ">
<path fill="none" stroke="#63b8ff" d="M967.81,-393.46C937.87,-400.14 900.86,-408.39 876.63,-413.79"/>
<polygon fill="#63b8ff" stroke="#63b8ff" points="968.66,-396.86 977.66,-391.27 967.14,-390.03 968.66,-396.86"/>
</a>
</g>
</g>
<!-- Node14 -->
<g id="Node000014" class="node">
<title>Node14</title>
<g id="a_Node000014"><a xlink:href="../../d4/d7f/FmtNumber_8cpp_a5bfc80e146504b358e2b21e1bdd904c8.xhtml#a5bfc80e146504b358e2b21e1bdd904c8" target="_top" xlink:title=" ">
<polygon fill="white" stroke="#666666" points="883.5,-392 816.5,-392 816.5,-373 883.5,-373 883.5,-392"/>
<text text-anchor="middle" x="850" y="-380" font-family="Helvetica,sans-Serif" font-size="10.00">fmtSigned</text>
</a>
</g>
</g>
<!-- Node13&#45;&gt;Node14 -->
<g id="edge13_Node000013_Node000014" class="edge">
<title>Node13&#45;&gt;Node14</title>
<g id="a_edge13_Node000013_Node000014"><a xlink:title=" ">
<path fill="none" stroke="#63b8ff" d="M967.57,-382.5C940.44,-382.5 907.56,-382.5 883.64,-382.5"/>
<polygon fill="#63b8ff" stroke="#63b8ff" points="967.66,-386 977.66,-382.5 967.66,-379 967.66,-386"/>
</a>
</g>
</g>
<!-- Node15 -->
<g id="Node000015" class="node">
<title>Node15</title>
<g id="a_Node000015"><a xlink:href="../../dc/db9/PrintTemplates_8h_ad139f8bf9b6ead8bd28abf1dd412a8a4.xhtml#ad139f8bf9b6ead8bd28abf1dd412a8a4" target="_top" xlink:title=" ">
<polygon fill="white" stroke="#666666" points="721.5,-373 662.5,-373 662.5,-354 721.5,-354 721.5,-373"/>
<text text-anchor="middle" x="692" y="-361" font-family="Helvetica,sans-Serif" font-size="10.00">vmprintf</text>
</a>
</g>
</g>
<!-- Node13&#45;&gt;Node15 -->
<g id="edge18_Node000013_Node000015" class="edge">
<title>Node13&#45;&gt;Node15</title>
<g id="a_edge18_Node000013_Node000015"><a xlink:title=" ">
<path fill="none" stroke="#63b8ff" d="M967.94,-372.01C951.51,-368.97 933.04,-366.05 916,-364.5 846.4,-358.19 764.09,-360.28 721.59,-362.06"/>
<polygon fill="#63b8ff" stroke="#63b8ff" points="967.4,-375.47 977.88,-373.91 968.72,-368.59 967.4,-375.47"/>
</a>
</g>
</g>
<!-- Node14&#45;&gt;Node15 -->
<g id="edge14_Node000014_Node000015" class="edge">
<title>Node14&#45;&gt;Node15</title>
<g id="a_edge14_Node000014_Node000015"><a xlink:title=" ">
<path fill="none" stroke="#63b8ff" d="M806.02,-377.26C779.17,-374 745.34,-369.88 721.73,-367"/>
<polygon fill="#63b8ff" stroke="#63b8ff" points="805.95,-380.78 816.3,-378.52 806.79,-373.83 805.95,-380.78"/>
</a>
</g>
</g>
<!-- Node16 -->
<g id="Node000016" class="node">
<title>Node16</title>
<g id="a_Node000016"><a xlink:href="../../dc/db9/PrintTemplates_8h_a5893e928fd47234a7a69049f9e769359.xhtml#a5893e928fd47234a7a69049f9e769359" target="_top" xlink:title=" ">
<polygon fill="white" stroke="#666666" points="541.5,-364 488.5,-364 488.5,-345 541.5,-345 541.5,-364"/>
<text text-anchor="middle" x="515" y="-352" font-family="Helvetica,sans-Serif" font-size="10.00">mprintf</text>
</a>
</g>
</g>
<!-- Node15&#45;&gt;Node16 -->
<g id="edge15_Node000015_Node000016" class="edge">
<title>Node15&#45;&gt;Node16</title>
<g id="a_edge15_Node000015_Node000016"><a xlink:title=" ">
<path fill="none" stroke="#63b8ff" d="M652.1,-361.5C618.44,-359.77 570.72,-357.31 541.64,-355.82"/>
<polygon fill="#63b8ff" stroke="#63b8ff" points="652.33,-365.02 662.49,-362.03 652.69,-358.02 652.33,-365.02"/>
</a>
</g>
</g>
<!-- Node17 -->
<g id="Node000017" class="node">
<title>Node17</title>
<g id="a_Node000017"><a xlink:href="../../dc/db9/PrintTemplates_8h_afceda1e76dbfc91ef2d06925a10eaea9.xhtml#afceda1e76dbfc91ef2d06925a10eaea9" target="_top" xlink:title=" ">
<polygon fill="white" stroke="#666666" points="541.5,-401 488.5,-401 488.5,-382 541.5,-382 541.5,-401"/>
<text text-anchor="middle" x="515" y="-389" font-family="Helvetica,sans-Serif" font-size="10.00">mprintf</text>
</a>
</g>
</g>
<!-- Node15&#45;&gt;Node17 -->
<g id="edge16_Node000015_Node000017" class="edge">
<title>Node15&#45;&gt;Node17</title>
<g id="a_edge16_Node000015_Node000017"><a xlink:title=" ">
<path fill="none" stroke="#63b8ff" d="M652.54,-369.65C618.85,-375.04 570.84,-382.73 541.64,-387.4"/>
<polygon fill="#63b8ff" stroke="#63b8ff" points="653.17,-373.1 662.49,-368.06 652.07,-366.18 653.17,-373.1"/>
</a>
</g>
</g>
<!-- Node19 -->
<g id="Node000019" class="node">
<title>Node19</title>
<g id="a_Node000019"><a xlink:href="../../d3/d80/FsDateTime_8cpp_a088d1d9eeb33fc81eafe27c05e0cc9ce.xhtml#a088d1d9eeb33fc81eafe27c05e0cc9ce" target="_top" xlink:title=" ">
<polygon fill="white" stroke="#666666" points="884,-204 816,-204 816,-185 884,-185 884,-204"/>
<text text-anchor="middle" x="850" y="-192" font-family="Helvetica,sans-Serif" font-size="10.00">fsFmtDate</text>
</a>
</g>
</g>
<!-- Node18&#45;&gt;Node19 -->
<g id="edge20_Node000018_Node000019" class="edge">
<title>Node18&#45;&gt;Node19</title>
<g id="a_edge20_Node000018_Node000019"><a xlink:title=" ">
<path fill="none" stroke="#63b8ff" d="M974.03,-91.59C966.1,-94.35 958.34,-98.18 952,-103.5 924.3,-126.76 943.87,-153.43 916,-176.5 907.07,-183.89 895.33,-188.26 884.28,-190.83"/>
<polygon fill="#63b8ff" stroke="#63b8ff" points="975.11,-94.92 983.7,-88.73 973.12,-88.21 975.11,-94.92"/>
</a>
</g>
</g>
<!-- Node39 -->
<g id="Node000039" class="node">
<title>Node39</title>
<g id="a_Node000039"><a xlink:href="../../d3/d80/FsDateTime_8cpp_aa500940592fd8cbd147771e54243ac73.xhtml#aa500940592fd8cbd147771e54243ac73" target="_top" xlink:title=" ">
<polygon fill="white" stroke="#666666" points="885,-93 815,-93 815,-74 885,-74 885,-93"/>
<text text-anchor="middle" x="850" y="-81" font-family="Helvetica,sans-Serif" font-size="10.00">fsFmtTime</text>
</a>
</g>
</g>
<!-- Node18&#45;&gt;Node39 -->
<g id="edge40_Node000018_Node000039" class="edge">
<title>Node18&#45;&gt;Node39</title>
<g id="a_edge40_Node000018_Node000039"><a xlink:title=" ">
<path fill="none" stroke="#63b8ff" d="M973.65,-84.24C946.08,-84.07 910.89,-83.86 885.28,-83.71"/>
<polygon fill="#63b8ff" stroke="#63b8ff" points="973.79,-87.74 983.81,-84.3 973.83,-80.74 973.79,-87.74"/>
</a>
</g>
</g>
<!-- Node40 -->
<g id="Node000040" class="node">
<title>Node40</title>
<g id="a_Node000040"><a xlink:href="../../d3/d80/FsDateTime_8cpp_a69483858e6527f13f0e1b6206fc74741.xhtml#a69483858e6527f13f0e1b6206fc74741" target="_top" xlink:title=" ">
<polygon fill="white" stroke="#666666" points="727,-19 657,-19 657,0 727,0 727,-19"/>
<text text-anchor="middle" x="692" y="-7" font-family="Helvetica,sans-Serif" font-size="10.00">fsFmtTime</text>
</a>
</g>
</g>
<!-- Node18&#45;&gt;Node40 -->
<g id="edge46_Node000018_Node000040" class="edge">
<title>Node18&#45;&gt;Node40</title>
<g id="a_edge46_Node000018_Node000040"><a xlink:title=" ">
<path fill="none" stroke="#63b8ff" d="M973.91,-74.53C908.84,-59.46 786.79,-31.21 727.32,-17.44"/>
<polygon fill="#63b8ff" stroke="#63b8ff" points="973.32,-77.98 983.85,-76.83 974.9,-71.16 973.32,-77.98"/>
</a>
</g>
</g>
<!-- Node43 -->
<g id="Node000043" class="node">
<title>Node43</title>
<g id="a_Node000043"><a xlink:href="../../d3/d80/FsDateTime_8cpp_aff72c2e2bfa8dbe13aff0d1bcaee1aee.xhtml#aff72c2e2bfa8dbe13aff0d1bcaee1aee" target="_top" xlink:title=" ">
<polygon fill="white" stroke="#666666" points="897.5,-167 802.5,-167 802.5,-148 897.5,-148 897.5,-167"/>
<text text-anchor="middle" x="850" y="-155" font-family="Helvetica,sans-Serif" font-size="10.00">fsFmtTimeZone</text>
</a>
</g>
</g>
<!-- Node18&#45;&gt;Node43 -->
<g id="edge47_Node000018_Node000043" class="edge">
<title>Node18&#45;&gt;Node43</title>
<g id="a_edge47_Node000018_Node000043"><a xlink:title=" ">
<path fill="none" stroke="#63b8ff" d="M974.14,-95.66C966.67,-97.99 959.04,-100.63 952,-103.5 920.52,-116.35 886.03,-136.13 866.6,-147.84"/>
<polygon fill="#63b8ff" stroke="#63b8ff" points="975.23,-98.99 983.81,-92.77 973.23,-92.28 975.23,-98.99"/>
</a>
</g>
</g>
<!-- Node20 -->
<g id="Node000020" class="node">
<title>Node20</title>
<g id="a_Node000020"><a xlink:href="../../d3/d80/FsDateTime_8cpp_a24d0b955f316cd7a160cb44f02588a32.xhtml#a24d0b955f316cd7a160cb44f02588a32" target="_top" xlink:title=" ">
<polygon fill="white" stroke="#666666" points="727.5,-260 656.5,-260 656.5,-241 727.5,-241 727.5,-260"/>
<text text-anchor="middle" x="692" y="-248" font-family="Helvetica,sans-Serif" font-size="10.00">fsPrintDate</text>
</a>
</g>
</g>
<!-- Node19&#45;&gt;Node20 -->
<g id="edge21_Node000019_Node000020" class="edge">
<title>Node19&#45;&gt;Node20</title>
<g id="a_edge21_Node000019_Node000020"><a xlink:title=" ">
<path fill="none" stroke="#63b8ff" d="M812.57,-207.58C784.05,-217.81 745.06,-231.81 719.47,-241"/>
<polygon fill="#63b8ff" stroke="#63b8ff" points="813.95,-210.8 822.18,-204.13 811.59,-204.21 813.95,-210.8"/>
</a>
</g>
</g>
<!-- Node23 -->
<g id="Node000023" class="node">
<title>Node23</title>
<g id="a_Node000023"><a xlink:href="../../d3/d80/FsDateTime_8cpp_a8eed4f2175da7c12f53ed62fccda5b12.xhtml#a8eed4f2175da7c12f53ed62fccda5b12" target="_top" xlink:title=" ">
<polygon fill="white" stroke="#666666" points="740,-130 644,-130 644,-111 740,-111 740,-130"/>
<text text-anchor="middle" x="692" y="-118" font-family="Helvetica,sans-Serif" font-size="10.00">fsPrintDateTime</text>
</a>
</g>
</g>
<!-- Node19&#45;&gt;Node23 -->
<g id="edge24_Node000019_Node000023" class="edge">
<title>Node19&#45;&gt;Node23</title>
<g id="a_edge24_Node000019_Node000023"><a xlink:title=" ">
<path fill="none" stroke="#63b8ff" d="M806.24,-186.14C798.53,-183.68 790.8,-180.53 784,-176.5 764.26,-164.81 767.37,-151.8 748,-139.5 742.03,-135.71 735.21,-132.57 728.46,-130.01"/>
<polygon fill="#63b8ff" stroke="#63b8ff" points="805.32,-189.52 815.9,-188.91 807.25,-182.79 805.32,-189.52"/>
</a>
</g>
</g>
<!-- Node38 -->
<g id="Node000038" class="node">
<title>Node38</title>
<g id="a_Node000038"><a xlink:href="../../d3/d80/FsDateTime_8cpp_a03dcde4088a9777bafb220b6970a5b76.xhtml#a03dcde4088a9777bafb220b6970a5b76" target="_top" xlink:title=" ">
<polygon fill="white" stroke="#666666" points="740,-204 644,-204 644,-185 740,-185 740,-204"/>
<text text-anchor="middle" x="692" y="-192" font-family="Helvetica,sans-Serif" font-size="10.00">fsPrintDateTime</text>
</a>
</g>
</g>
<!-- Node19&#45;&gt;Node38 -->
<g id="edge39_Node000019_Node000038" class="edge">
<title>Node19&#45;&gt;Node38</title>
<g id="a_edge39_Node000019_Node000038"><a xlink:title=" ">
<path fill="none" stroke="#63b8ff" d="M805.68,-194.5C785.34,-194.5 761.05,-194.5 740.24,-194.5"/>
<polygon fill="#63b8ff" stroke="#63b8ff" points="805.92,-198 815.92,-194.5 805.92,-191 805.92,-198"/>
</a>
</g>
</g>
<!-- Node21 -->
<g id="Node000021" class="node">
<title>Node21</title>
<g id="a_Node000021"><a xlink:href="../../d3/db4/classFatFile_a22be4c339d0bfa331f75415b74dd4f37.xhtml#a22be4c339d0bfa331f75415b74dd4f37" target="_top" xlink:title=" ">
<polygon fill="white" stroke="#666666" points="582,-278 448,-278 448,-259 582,-259 582,-278"/>
<text text-anchor="middle" x="515" y="-266" font-family="Helvetica,sans-Serif" font-size="10.00">FatFile::printAccessDate</text>
</a>
</g>
</g>
<!-- Node20&#45;&gt;Node21 -->
<g id="edge22_Node000020_Node000021" class="edge">
<title>Node20&#45;&gt;Node21</title>
<g id="a_edge22_Node000020_Node000021"><a xlink:title=" ">
<path fill="none" stroke="#63b8ff" d="M646.3,-255.1C626.78,-257.11 603.49,-259.5 582.03,-261.71"/>
<polygon fill="#63b8ff" stroke="#63b8ff" points="646.84,-258.56 656.43,-254.06 646.12,-251.6 646.84,-258.56"/>
</a>
</g>
</g>
<!-- Node22 -->
<g id="Node000022" class="node">
<title>Node22</title>
<g id="a_Node000022"><a xlink:href="../../d3/db4/classFatFile_a19b3196bb1f6a68a2447e53b09369aef.xhtml#a19b3196bb1f6a68a2447e53b09369aef" target="_top" xlink:title=" ">
<polygon fill="white" stroke="#666666" points="394,-296 236,-296 236,-277 394,-277 394,-296"/>
<text text-anchor="middle" x="315" y="-284" font-family="Helvetica,sans-Serif" font-size="10.00">FatFile::printAccessDateTime</text>
</a>
</g>
</g>
<!-- Node21&#45;&gt;Node22 -->
<g id="edge23_Node000021_Node000022" class="edge">
<title>Node21&#45;&gt;Node22</title>
<g id="a_edge23_Node000021_Node000022"><a xlink:title=" ">
<path fill="none" stroke="#63b8ff" d="M437.56,-275.45C423.33,-276.74 408.44,-278.1 394.15,-279.4"/>
<polygon fill="#63b8ff" stroke="#63b8ff" points="438.15,-278.91 447.79,-274.52 437.52,-271.94 438.15,-278.91"/>
</a>
</g>
</g>
<!-- Node24 -->
<g id="Node000024" class="node">
<title>Node24</title>
<g id="a_Node000024"><a xlink:href="../../d3/d80/FsDateTime_8cpp_af2e88fd7293f989075db3f2808692202.xhtml#af2e88fd7293f989075db3f2808692202" target="_top" xlink:title=" ">
<polygon fill="white" stroke="#666666" points="563,-93 467,-93 467,-74 563,-74 563,-93"/>
<text text-anchor="middle" x="515" y="-81" font-family="Helvetica,sans-Serif" font-size="10.00">fsPrintDateTime</text>
</a>
</g>
</g>
<!-- Node23&#45;&gt;Node24 -->
<g id="edge25_Node000023_Node000024" class="edge">
<title>Node23&#45;&gt;Node24</title>
<g id="a_edge25_Node000023_Node000024"><a xlink:title=" ">
<path fill="none" stroke="#63b8ff" d="M635.89,-108.85C611.85,-103.77 584.01,-97.88 561.22,-93.06"/>
<polygon fill="#63b8ff" stroke="#63b8ff" points="635.43,-112.33 645.93,-110.97 636.87,-105.48 635.43,-112.33"/>
</a>
</g>
</g>
<!-- Node25 -->
<g id="Node000025" class="node">
<title>Node25</title>
<g id="a_Node000025"><a xlink:href="../../d6/d7f/classExFatFile_ad9ba8aa00b9db683d40fc2989dbe1922.xhtml#ad9ba8aa00b9db683d40fc2989dbe1922" target="_top" xlink:title=" ">
<polygon fill="white" stroke="#666666" points="600,-56 430,-56 430,-37 600,-37 600,-56"/>
<text text-anchor="middle" x="515" y="-44" font-family="Helvetica,sans-Serif" font-size="10.00">ExFatFile::printAccessDateTime</text>
</a>
</g>
</g>
<!-- Node23&#45;&gt;Node25 -->
<g id="edge26_Node000023_Node000025" class="edge">
<title>Node23&#45;&gt;Node25</title>
<g id="a_edge26_Node000023_Node000025"><a xlink:title=" ">
<path fill="none" stroke="#63b8ff" d="M643.78,-106.83C641.08,-105.5 638.47,-104.06 636,-102.5 616.34,-90.06 620.28,-75.89 600,-64.5 593.89,-61.07 587.19,-58.29 580.32,-56.04"/>
<polygon fill="#63b8ff" stroke="#63b8ff" points="642.62,-110.13 653.18,-110.9 645.4,-103.71 642.62,-110.13"/>
</a>
</g>
</g>
<!-- Node26 -->
<g id="Node000026" class="node">
<title>Node26</title>
<g id="a_Node000026"><a xlink:href="../../d6/d7f/classExFatFile_a7318b2d7594d6ba52421c413f5fc35cd.xhtml#a7318b2d7594d6ba52421c413f5fc35cd" target="_top" xlink:title=" ">
<polygon fill="white" stroke="#666666" points="599.5,-19 430.5,-19 430.5,0 599.5,0 599.5,-19"/>
<text text-anchor="middle" x="515" y="-7" font-family="Helvetica,sans-Serif" font-size="10.00">ExFatFile::printCreateDateTime</text>
</a>
</g>
</g>
<!-- Node23&#45;&gt;Node26 -->
<g id="edge27_Node000023_Node000026" class="edge">
<title>Node23&#45;&gt;Node26</title>
<g id="a_edge27_Node000023_Node000026"><a xlink:title=" ">
<path fill="none" stroke="#63b8ff" d="M640.27,-105.82C638.78,-104.79 637.35,-103.68 636,-102.5 608.2,-78.13 629.05,-50.38 600,-27.5 595.78,-24.18 591.09,-21.43 586.14,-19.17"/>
<polygon fill="#63b8ff" stroke="#63b8ff" points="638.95,-109.1 649.37,-110.99 642.4,-103.01 638.95,-109.1"/>
</a>
</g>
</g>
<!-- Node27 -->
<g id="Node000027" class="node">
<title>Node27</title>
<g id="a_Node000027"><a xlink:href="../../d3/db4/classFatFile_ab22396a285e27b53501a0047ddd97f59.xhtml#ab22396a285e27b53501a0047ddd97f59" target="_top" xlink:title=" ">
<polygon fill="white" stroke="#666666" points="593.5,-204 436.5,-204 436.5,-185 593.5,-185 593.5,-204"/>
<text text-anchor="middle" x="515" y="-192" font-family="Helvetica,sans-Serif" font-size="10.00">FatFile::printCreateDateTime</text>
</a>
</g>
</g>
<!-- Node23&#45;&gt;Node27 -->
<g id="edge28_Node000023_Node000027" class="edge">
<title>Node23&#45;&gt;Node27</title>
<g id="a_edge28_Node000023_Node000027"><a xlink:title=" ">
<path fill="none" stroke="#63b8ff" d="M646.1,-134C642.58,-135.66 639.17,-137.49 636,-139.5 616.63,-151.8 620.08,-165.4 600,-176.5 593.87,-179.89 587.15,-182.65 580.28,-184.88"/>
<polygon fill="#63b8ff" stroke="#63b8ff" points="647.69,-137.12 655.54,-130.01 644.97,-130.68 647.69,-137.12"/>
</a>
</g>
</g>
<!-- Node28 -->
<g id="Node000028" class="node">
<title>Node28</title>
<g id="a_Node000028"><a xlink:href="../../d2/d2b/ExFatDbg_8cpp_a7f7a4b73b05a14880fcafc67b99b8141.xhtml#a7f7a4b73b05a14880fcafc67b99b8141" target="_top" xlink:title=" ">
<polygon fill="white" stroke="#666666" points="558.5,-130 471.5,-130 471.5,-111 558.5,-111 558.5,-130"/>
<text text-anchor="middle" x="515" y="-118" font-family="Helvetica,sans-Serif" font-size="10.00">printDateTime</text>
</a>
</g>
</g>
<!-- Node23&#45;&gt;Node28 -->
<g id="edge29_Node000023_Node000028" class="edge">
<title>Node23&#45;&gt;Node28</title>
<g id="a_edge29_Node000023_Node000028"><a xlink:title=" ">
<path fill="none" stroke="#63b8ff" d="M633.43,-120.5C609.03,-120.5 581.11,-120.5 558.61,-120.5"/>
<polygon fill="#63b8ff" stroke="#63b8ff" points="633.64,-124 643.64,-120.5 633.64,-117 633.64,-124"/>
</a>
</g>
</g>
<!-- Node31 -->
<g id="Node000031" class="node">
<title>Node31</title>
<g id="a_Node000031"><a xlink:href="../../d6/d7f/classExFatFile_a16488d3e0d946f108240b7d6c536c6f4.xhtml#a16488d3e0d946f108240b7d6c536c6f4" target="_top" xlink:title=" ">
<polygon fill="white" stroke="#666666" points="600,-167 430,-167 430,-148 600,-148 600,-167"/>
<text text-anchor="middle" x="515" y="-155" font-family="Helvetica,sans-Serif" font-size="10.00">ExFatFile::printModifyDateTime</text>
</a>
</g>
</g>
<!-- Node23&#45;&gt;Node31 -->
<g id="edge31_Node000023_Node000031" class="edge">
<title>Node23&#45;&gt;Node31</title>
<g id="a_edge31_Node000023_Node000031"><a xlink:title=" ">
<path fill="none" stroke="#63b8ff" d="M635.89,-132.15C611.85,-137.23 584.01,-143.12 561.22,-147.94"/>
<polygon fill="#63b8ff" stroke="#63b8ff" points="636.87,-135.52 645.93,-130.03 635.43,-128.67 636.87,-135.52"/>
</a>
</g>
</g>
<!-- Node33 -->
<g id="Node000033" class="node">
<title>Node33</title>
<g id="a_Node000033"><a xlink:href="../../d3/db4/classFatFile_a43c8a1cabcae673e43c590f5db44c65a.xhtml#a43c8a1cabcae673e43c590f5db44c65a" target="_top" xlink:title=" ">
<polygon fill="white" stroke="#666666" points="594,-241 436,-241 436,-222 594,-222 594,-241"/>
<text text-anchor="middle" x="515" y="-229" font-family="Helvetica,sans-Serif" font-size="10.00">FatFile::printModifyDateTime</text>
</a>
</g>
</g>
<!-- Node23&#45;&gt;Node33 -->
<g id="edge33_Node000023_Node000033" class="edge">
<title>Node23&#45;&gt;Node33</title>
<g id="a_edge33_Node000023_Node000033"><a xlink:title=" ">
<path fill="none" stroke="#63b8ff" d="M642.18,-134.84C640,-136.25 637.92,-137.8 636,-139.5 608.63,-163.76 628.79,-190.94 600,-213.5 595.66,-216.9 590.81,-219.7 585.71,-221.99"/>
<polygon fill="#63b8ff" stroke="#63b8ff" points="643.93,-137.87 651.06,-130.04 640.6,-131.72 643.93,-137.87"/>
</a>
</g>
</g>
<!-- Node29 -->
<g id="Node000029" class="node">
<title>Node29</title>
<g id="a_Node000029"><a xlink:href="../../d2/d2b/ExFatDbg_8cpp_ae03827835f2bd9f7e6f917762b68a18b.xhtml#ae03827835f2bd9f7e6f917762b68a18b" target="_top" xlink:title=" ">
<polygon fill="#fff0f0" stroke="red" points="350.5,-130 279.5,-130 279.5,-111 350.5,-111 350.5,-130"/>
<text text-anchor="middle" x="315" y="-118" font-family="Helvetica,sans-Serif" font-size="10.00">printDirFile</text>
</a>
</g>
</g>
<!-- Node28&#45;&gt;Node29 -->
<g id="edge30_Node000028_Node000029" class="edge">
<title>Node28&#45;&gt;Node29</title>
<g id="a_edge30_Node000028_Node000029"><a xlink:title=" ">
<path fill="none" stroke="#63b8ff" d="M460.98,-120.5C425.99,-120.5 381.13,-120.5 350.65,-120.5"/>
<polygon fill="#63b8ff" stroke="#63b8ff" points="461.04,-124 471.04,-120.5 461.04,-117 461.04,-124"/>
</a>
</g>
</g>
<!-- Node32 -->
<g id="Node000032" class="node">
<title>Node32</title>
<g id="a_Node000032"><a xlink:href="../../d6/d7f/classExFatFile_a09f8beb55f939874e93c1df6c8a046d4.xhtml#a09f8beb55f939874e93c1df6c8a046d4" target="_top" xlink:title=" ">
<polygon fill="white" stroke="#666666" points="352,-167 278,-167 278,-148 352,-148 352,-167"/>
<text text-anchor="middle" x="315" y="-155" font-family="Helvetica,sans-Serif" font-size="10.00">ExFatFile::ls</text>
</a>
</g>
</g>
<!-- Node31&#45;&gt;Node32 -->
<g id="edge32_Node000031_Node000032" class="edge">
<title>Node31&#45;&gt;Node32</title>
<g id="a_edge32_Node000031_Node000032"><a xlink:title=" ">
<path fill="none" stroke="#63b8ff" d="M419.51,-157.5C395.53,-157.5 371.2,-157.5 352.16,-157.5"/>
<polygon fill="#63b8ff" stroke="#63b8ff" points="419.74,-161 429.74,-157.5 419.74,-154 419.74,-161"/>
</a>
</g>
</g>
<!-- Node34 -->
<g id="Node000034" class="node">
<title>Node34</title>
<g id="a_Node000034"><a xlink:href="../../d3/db4/classFatFile_a60ab9d16bcc778150a364c26de467de1.xhtml#a60ab9d16bcc778150a364c26de467de1" target="_top" xlink:title=" ">
<polygon fill="white" stroke="#666666" points="346,-241 284,-241 284,-222 346,-222 346,-241"/>
<text text-anchor="middle" x="315" y="-229" font-family="Helvetica,sans-Serif" font-size="10.00">FatFile::ls</text>
</a>
</g>
</g>
<!-- Node33&#45;&gt;Node34 -->
<g id="edge34_Node000033_Node000034" class="edge">
<title>Node33&#45;&gt;Node34</title>
<g id="a_edge34_Node000033_Node000034"><a xlink:title=" ">
<path fill="none" stroke="#63b8ff" d="M425.37,-231.5C397.03,-231.5 367.54,-231.5 346.33,-231.5"/>
<polygon fill="#63b8ff" stroke="#63b8ff" points="425.75,-235 435.75,-231.5 425.75,-228 425.75,-235"/>
</a>
</g>
</g>
<!-- Node34&#45;&gt;Node34 -->
<g id="edge38_Node000034_Node000034" class="edge">
<title>Node34&#45;&gt;Node34</title>
<g id="a_edge38_Node000034_Node000034"><a xlink:title=" ">
<path fill="none" stroke="#63b8ff" d="M344.12,-249.82C342.9,-255.01 333.2,-259 315,-259 287.27,-259 279.26,-249.73 290.96,-241.08"/>
<polygon fill="#63b8ff" stroke="#63b8ff" points="347.09,-247.97 339.04,-241.08 341.04,-251.49 347.09,-247.97"/>
</a>
</g>
</g>
<!-- Node35 -->
<g id="Node000035" class="node">
<title>Node35</title>
<g id="a_Node000035"><a xlink:href="../../d3/dd5/classFatVolume_ac5fc83cac7fd3af0b140a7986b9472f8.xhtml#ac5fc83cac7fd3af0b140a7986b9472f8" target="_top" xlink:title=" ">
<polygon fill="white" stroke="#666666" points="200,-260 118,-260 118,-241 200,-241 200,-260"/>
<text text-anchor="middle" x="159" y="-248" font-family="Helvetica,sans-Serif" font-size="10.00">FatVolume::ls</text>
</a>
</g>
</g>
<!-- Node34&#45;&gt;Node35 -->
<g id="edge35_Node000034_Node000035" class="edge">
<title>Node34&#45;&gt;Node35</title>
<g id="a_edge35_Node000034_Node000035"><a xlink:title=" ">
<path fill="none" stroke="#63b8ff" d="M273.94,-236.44C251.24,-239.24 222.91,-242.74 200.19,-245.54"/>
<polygon fill="#63b8ff" stroke="#63b8ff" points="274.45,-239.91 283.94,-235.21 273.59,-232.96 274.45,-239.91"/>
</a>
</g>
</g>
<!-- Node36 -->
<g id="Node000036" class="node">
<title>Node36</title>
<g id="a_Node000036"><a xlink:href="../../d3/dd5/classFatVolume_ae40964f357cfff4208812344a0e6f26f.xhtml#ae40964f357cfff4208812344a0e6f26f" target="_top" xlink:title=" ">
<polygon fill="white" stroke="#666666" points="200,-223 118,-223 118,-204 200,-204 200,-223"/>
<text text-anchor="middle" x="159" y="-211" font-family="Helvetica,sans-Serif" font-size="10.00">FatVolume::ls</text>
</a>
</g>
</g>
<!-- Node34&#45;&gt;Node36 -->
<g id="edge36_Node000034_Node000036" class="edge">
<title>Node34&#45;&gt;Node36</title>
<g id="a_edge36_Node000034_Node000036"><a xlink:title=" ">
<path fill="none" stroke="#63b8ff" d="M273.94,-226.82C251.24,-224.16 222.91,-220.85 200.19,-218.2"/>
<polygon fill="#63b8ff" stroke="#63b8ff" points="273.6,-230.3 283.94,-227.99 274.42,-223.35 273.6,-230.3"/>
</a>
</g>
</g>
<!-- Node37 -->
<g id="Node000037" class="node">
<title>Node37</title>
<g id="a_Node000037"><a xlink:href="../../d3/dd5/classFatVolume_a455ad7b2a5b6b31551dca08087a3c404.xhtml#a455ad7b2a5b6b31551dca08087a3c404" target="_top" xlink:title=" ">
<polygon fill="white" stroke="#666666" points="82,-223 0,-223 0,-204 82,-204 82,-223"/>
<text text-anchor="middle" x="41" y="-211" font-family="Helvetica,sans-Serif" font-size="10.00">FatVolume::ls</text>
</a>
</g>
</g>
<!-- Node36&#45;&gt;Node37 -->
<g id="edge37_Node000036_Node000037" class="edge">
<title>Node36&#45;&gt;Node37</title>
<g id="a_edge37_Node000036_Node000037"><a xlink:title=" ">
<path fill="none" stroke="#63b8ff" d="M107.56,-213.5C99.07,-213.5 90.36,-213.5 82.17,-213.5"/>
<polygon fill="#63b8ff" stroke="#63b8ff" points="107.75,-217 117.75,-213.5 107.75,-210 107.75,-217"/>
</a>
</g>
</g>
<!-- Node39&#45;&gt;Node23 -->
<g id="edge42_Node000039_Node000023" class="edge">
<title>Node39&#45;&gt;Node23</title>
<g id="a_edge42_Node000039_Node000023"><a xlink:title=" ">
<path fill="none" stroke="#63b8ff" d="M804.79,-93.99C782.29,-99.32 755.14,-105.76 733.23,-110.96"/>
<polygon fill="#63b8ff" stroke="#63b8ff" points="805.84,-97.33 814.77,-91.62 804.23,-90.52 805.84,-97.33"/>
</a>
</g>
</g>
<!-- Node39&#45;&gt;Node38 -->
<g id="edge43_Node000039_Node000038" class="edge">
<title>Node39&#45;&gt;Node38</title>
<g id="a_edge43_Node000039_Node000038"><a xlink:title=" ">
<path fill="none" stroke="#63b8ff" d="M829.32,-99.68C816.22,-110.64 798.77,-125.6 784,-139.5 767.29,-155.23 767.47,-164.36 748,-176.5 742.63,-179.85 736.57,-182.64 730.49,-184.95"/>
<polygon fill="#63b8ff" stroke="#63b8ff" points="831.77,-102.2 837.22,-93.11 827.3,-96.81 831.77,-102.2"/>
</a>
</g>
</g>
<!-- Node39&#45;&gt;Node40 -->
<g id="edge41_Node000039_Node000040" class="edge">
<title>Node39&#45;&gt;Node40</title>
<g id="a_edge41_Node000039_Node000040"><a xlink:title=" ">
<path fill="none" stroke="#63b8ff" d="M824.96,-68.46C804.9,-56.34 775.29,-39.4 748,-27.5 740.91,-24.41 733.11,-21.55 725.67,-19.06"/>
<polygon fill="#63b8ff" stroke="#63b8ff" points="823.37,-71.59 833.72,-73.82 827.02,-65.62 823.37,-71.59"/>
</a>
</g>
</g>
<!-- Node41 -->
<g id="Node000041" class="node">
<title>Node41</title>
<g id="a_Node000041"><a xlink:href="../../d3/d80/FsDateTime_8cpp_a5f66b5109d471a946861e2d70754c901.xhtml#a5f66b5109d471a946861e2d70754c901" target="_top" xlink:title=" ">
<polygon fill="white" stroke="#666666" points="728.5,-93 655.5,-93 655.5,-74 728.5,-74 728.5,-93"/>
<text text-anchor="middle" x="692" y="-81" font-family="Helvetica,sans-Serif" font-size="10.00">fsPrintTime</text>
</a>
</g>
</g>
<!-- Node39&#45;&gt;Node41 -->
<g id="edge44_Node000039_Node000041" class="edge">
<title>Node39&#45;&gt;Node41</title>
<g id="a_edge44_Node000039_Node000041"><a xlink:title=" ">
<path fill="none" stroke="#63b8ff" d="M804.46,-83.5C780.37,-83.5 751.04,-83.5 728.51,-83.5"/>
<polygon fill="#63b8ff" stroke="#63b8ff" points="804.77,-87 814.77,-83.5 804.77,-80 804.77,-87"/>
</a>
</g>
</g>
<!-- Node42 -->
<g id="Node000042" class="node">
<title>Node42</title>
<g id="a_Node000042"><a xlink:href="../../d3/d80/FsDateTime_8cpp_a439c7b9e8385c61a4b68d7bf36948f10.xhtml#a439c7b9e8385c61a4b68d7bf36948f10" target="_top" xlink:title=" ">
<polygon fill="white" stroke="#666666" points="728.5,-56 655.5,-56 655.5,-37 728.5,-37 728.5,-56"/>
<text text-anchor="middle" x="692" y="-44" font-family="Helvetica,sans-Serif" font-size="10.00">fsPrintTime</text>
</a>
</g>
</g>
<!-- Node39&#45;&gt;Node42 -->
<g id="edge45_Node000039_Node000042" class="edge">
<title>Node39&#45;&gt;Node42</title>
<g id="a_edge45_Node000039_Node000042"><a xlink:title=" ">
<path fill="none" stroke="#63b8ff" d="M804.78,-73.01C780.64,-67.29 751.14,-60.29 728.51,-54.92"/>
<polygon fill="#63b8ff" stroke="#63b8ff" points="804.23,-76.48 814.77,-75.38 805.84,-69.67 804.23,-76.48"/>
</a>
</g>
</g>
<!-- Node43&#45;&gt;Node38 -->
<g id="edge48_Node000043_Node000038" class="edge">
<title>Node43&#45;&gt;Node38</title>
<g id="a_edge48_Node000043_Node000038"><a xlink:title=" ">
<path fill="none" stroke="#63b8ff" d="M799.01,-169.36C777.78,-174.39 753.36,-180.18 733.31,-184.94"/>
<polygon fill="#63b8ff" stroke="#63b8ff" points="799.9,-172.74 808.83,-167.03 798.29,-165.93 799.9,-172.74"/>
</a>
</g>
</g>
<!-- Node44 -->
<g id="Node000044" class="node">
<title>Node44</title>
<g id="a_Node000044"><a xlink:href="../../d3/d80/FsDateTime_8cpp_a7d407c707c74809c554c19ae4bb9d065.xhtml#a7d407c707c74809c554c19ae4bb9d065" target="_top" xlink:title=" ">
<polygon fill="white" stroke="#666666" points="741,-167 643,-167 643,-148 741,-148 741,-167"/>
<text text-anchor="middle" x="692" y="-155" font-family="Helvetica,sans-Serif" font-size="10.00">fsPrintTimeZone</text>
</a>
</g>
</g>
<!-- Node43&#45;&gt;Node44 -->
<g id="edge49_Node000043_Node000044" class="edge">
<title>Node43&#45;&gt;Node44</title>
<g id="a_edge49_Node000043_Node000044"><a xlink:title=" ">
<path fill="none" stroke="#63b8ff" d="M792.01,-157.5C775.3,-157.5 757.21,-157.5 741.12,-157.5"/>
<polygon fill="#63b8ff" stroke="#63b8ff" points="792.19,-161 802.19,-157.5 792.19,-154 792.19,-161"/>
</a>
</g>
</g>
<!-- Node51&#45;&gt;Node34 -->
<g id="edge57_Node000051_Node000034" class="edge">
<title>Node51&#45;&gt;Node34</title>
<g id="a_edge57_Node000051_Node000034"><a xlink:title=" ">
<path fill="none" stroke="#63b8ff" d="M782.76,-312.29C698.99,-317.63 551.08,-320.42 430,-287.5 412.54,-282.75 410.18,-276.6 394,-268.5 374.84,-258.9 352.74,-248.48 336.97,-241.15"/>
<polygon fill="#63b8ff" stroke="#63b8ff" points="783.16,-315.77 792.9,-311.61 782.69,-308.79 783.16,-315.77"/>
</a>
</g>
</g>
</g>
</svg>
