<?xml version="1.0" encoding="UTF-8" standalone="no"?>
<!DOCTYPE svg PUBLIC "-//W3C//DTD SVG 1.1//EN"
 "http://www.w3.org/Graphics/SVG/1.1/DTD/svg11.dtd">
<!-- Generated by graphviz version 2.43.0 (0)
 -->
<!-- Title: Tone.cpp Pages: 1 -->
<svg width="686pt" height="192pt"
 viewBox="0.00 0.00 686.49 192.00" xmlns="http://www.w3.org/2000/svg" xmlns:xlink="http://www.w3.org/1999/xlink">
<g id="graph0" class="graph" transform="scale(1 1) rotate(0) translate(4 188)">
<title>Tone.cpp</title>
<!-- Node1 -->
<g id="Node000001" class="node">
<title>Node1</title>
<g id="a_Node000001"><a xlink:title=" ">
<polygon fill="#999999" stroke="#666666" points="530.5,-184 471.5,-184 471.5,-165 530.5,-165 530.5,-184"/>
<text text-anchor="middle" x="501" y="-172" font-family="Helvetica,sans-Serif" font-size="10.00">Tone.cpp</text>
</a>
</g>
</g>
<!-- Node2 -->
<g id="Node000002" class="node">
<title>Node2</title>
<g id="a_Node000002"><a xlink:title=" ">
<polygon fill="#e0e0e0" stroke="#999999" points="86,-74 0,-74 0,-55 86,-55 86,-74"/>
<text text-anchor="middle" x="43" y="-62" font-family="Helvetica,sans-Serif" font-size="10.00">avr/interrupt.h</text>
</a>
</g>
</g>
<!-- Node1&#45;&gt;Node2 -->
<g id="edge1_Node000001_Node000002" class="edge">
<title>Node1&#45;&gt;Node2</title>
<g id="a_edge1_Node000001_Node000002"><a xlink:title=" ">
<path fill="none" stroke="#63b8ff" d="M471.26,-166.94C432.66,-158.39 363.23,-142.89 304,-129 227.6,-111.08 138.86,-89.28 87.02,-76.44"/>
<polygon fill="#63b8ff" stroke="#63b8ff" points="87.71,-73.01 77.16,-74 86.02,-79.8 87.71,-73.01"/>
</a>
</g>
</g>
<!-- Node3 -->
<g id="Node000003" class="node">
<title>Node3</title>
<g id="a_Node000003"><a xlink:title=" ">
<polygon fill="#e0e0e0" stroke="#999999" points="669.5,-19 574.5,-19 574.5,0 669.5,0 669.5,-19"/>
<text text-anchor="middle" x="622" y="-7" font-family="Helvetica,sans-Serif" font-size="10.00">avr/pgmspace.h</text>
</a>
</g>
</g>
<!-- Node1&#45;&gt;Node3 -->
<g id="edge2_Node000001_Node000003" class="edge">
<title>Node1&#45;&gt;Node3</title>
<g id="a_edge2_Node000001_Node000003"><a xlink:title=" ">
<path fill="none" stroke="#63b8ff" d="M530.62,-166.44C571.53,-154.91 643.83,-127.73 675,-74 685.89,-55.24 665.47,-36.5 646.9,-24.3"/>
<polygon fill="#63b8ff" stroke="#63b8ff" points="648.69,-21.3 638.35,-19.02 645.02,-27.25 648.69,-21.3"/>
</a>
</g>
</g>
<!-- Node4 -->
<g id="Node000004" class="node">
<title>Node4</title>
<g id="a_Node000004"><a xlink:href="../../de/df0/Arduino_8h.xhtml" target="_top" xlink:title=" ">
<polygon fill="white" stroke="#666666" points="376.5,-129 313.5,-129 313.5,-110 376.5,-110 376.5,-129"/>
<text text-anchor="middle" x="345" y="-117" font-family="Helvetica,sans-Serif" font-size="10.00">Arduino.h</text>
</a>
</g>
</g>
<!-- Node1&#45;&gt;Node4 -->
<g id="edge3_Node000001_Node000004" class="edge">
<title>Node1&#45;&gt;Node4</title>
<g id="a_edge3_Node000001_Node000004"><a xlink:title=" ">
<path fill="none" stroke="#63b8ff" d="M475.94,-164.98C449.97,-156.16 409.19,-142.31 380.04,-132.41"/>
<polygon fill="#63b8ff" stroke="#63b8ff" points="380.85,-128.99 370.26,-129.08 378.6,-135.61 380.85,-128.99"/>
</a>
</g>
</g>
<!-- Node11 -->
<g id="Node000011" class="node">
<title>Node11</title>
<g id="a_Node000011"><a xlink:href="../../d1/dce/pins__arduino_8h.xhtml" target="_top" xlink:title=" ">
<polygon fill="white" stroke="#666666" points="666,-74 578,-74 578,-55 666,-55 666,-74"/>
<text text-anchor="middle" x="622" y="-62" font-family="Helvetica,sans-Serif" font-size="10.00">pins_arduino.h</text>
</a>
</g>
</g>
<!-- Node1&#45;&gt;Node11 -->
<g id="edge14_Node000001_Node000011" class="edge">
<title>Node1&#45;&gt;Node11</title>
<g id="a_edge14_Node000001_Node000011"><a xlink:title=" ">
<path fill="none" stroke="#63b8ff" d="M510.9,-164.66C531.48,-146.3 579.07,-103.81 604.78,-80.87"/>
<polygon fill="#63b8ff" stroke="#63b8ff" points="607.17,-83.43 612.3,-74.16 602.51,-78.21 607.17,-83.43"/>
</a>
</g>
</g>
<!-- Node4&#45;&gt;Node2 -->
<g id="edge10_Node000004_Node000002" class="edge">
<title>Node4&#45;&gt;Node2</title>
<g id="a_edge10_Node000004_Node000002"><a xlink:title=" ">
<path fill="none" stroke="#63b8ff" d="M313.25,-112.93C261.68,-103.88 159.16,-85.88 96.27,-74.85"/>
<polygon fill="#63b8ff" stroke="#63b8ff" points="96.61,-71.35 86.15,-73.07 95.4,-78.25 96.61,-71.35"/>
</a>
</g>
</g>
<!-- Node4&#45;&gt;Node3 -->
<g id="edge8_Node000004_Node000003" class="edge">
<title>Node4&#45;&gt;Node3</title>
<g id="a_edge8_Node000004_Node000003"><a xlink:title=" ">
<path fill="none" stroke="#63b8ff" d="M313.22,-116.59C259.72,-112.64 155.34,-101.52 133,-74 127.68,-67.44 127.31,-61.24 133,-55 161.58,-23.7 440.96,-14.17 564.15,-11.48"/>
<polygon fill="#63b8ff" stroke="#63b8ff" points="564.24,-14.98 574.16,-11.27 564.09,-7.98 564.24,-14.98"/>
</a>
</g>
</g>
<!-- Node5 -->
<g id="Node000005" class="node">
<title>Node5</title>
<g id="a_Node000005"><a xlink:title=" ">
<polygon fill="#e0e0e0" stroke="#999999" points="479.5,-74 426.5,-74 426.5,-55 479.5,-55 479.5,-74"/>
<text text-anchor="middle" x="453" y="-62" font-family="Helvetica,sans-Serif" font-size="10.00">stdlib.h</text>
</a>
</g>
</g>
<!-- Node4&#45;&gt;Node5 -->
<g id="edge4_Node000004_Node000005" class="edge">
<title>Node4&#45;&gt;Node5</title>
<g id="a_edge4_Node000004_Node000005"><a xlink:title=" ">
<path fill="none" stroke="#63b8ff" d="M362.35,-109.98C379.57,-101.54 406.2,-88.47 426.15,-78.68"/>
<polygon fill="#63b8ff" stroke="#63b8ff" points="427.9,-81.72 435.33,-74.17 424.81,-75.43 427.9,-81.72"/>
</a>
</g>
</g>
<!-- Node6 -->
<g id="Node000006" class="node">
<title>Node6</title>
<g id="a_Node000006"><a xlink:title=" ">
<polygon fill="#e0e0e0" stroke="#999999" points="560,-74 498,-74 498,-55 560,-55 560,-74"/>
<text text-anchor="middle" x="529" y="-62" font-family="Helvetica,sans-Serif" font-size="10.00">stdbool.h</text>
</a>
</g>
</g>
<!-- Node4&#45;&gt;Node6 -->
<g id="edge5_Node000004_Node000006" class="edge">
<title>Node4&#45;&gt;Node6</title>
<g id="a_edge5_Node000004_Node000006"><a xlink:title=" ">
<path fill="none" stroke="#63b8ff" d="M374.56,-109.98C405.72,-101.01 454.97,-86.82 489.46,-76.89"/>
<polygon fill="#63b8ff" stroke="#63b8ff" points="490.57,-80.21 499.21,-74.08 488.63,-73.49 490.57,-80.21"/>
</a>
</g>
</g>
<!-- Node7 -->
<g id="Node000007" class="node">
<title>Node7</title>
<g id="a_Node000007"><a xlink:title=" ">
<polygon fill="#e0e0e0" stroke="#999999" points="195.5,-74 142.5,-74 142.5,-55 195.5,-55 195.5,-74"/>
<text text-anchor="middle" x="169" y="-62" font-family="Helvetica,sans-Serif" font-size="10.00">string.h</text>
</a>
</g>
</g>
<!-- Node4&#45;&gt;Node7 -->
<g id="edge6_Node000004_Node000007" class="edge">
<title>Node4&#45;&gt;Node7</title>
<g id="a_edge6_Node000004_Node000007"><a xlink:title=" ">
<path fill="none" stroke="#63b8ff" d="M316.72,-109.98C286.52,-100.89 238.54,-86.44 205.5,-76.49"/>
<polygon fill="#63b8ff" stroke="#63b8ff" points="206.35,-73.09 195.76,-73.56 204.33,-79.79 206.35,-73.09"/>
</a>
</g>
</g>
<!-- Node8 -->
<g id="Node000008" class="node">
<title>Node8</title>
<g id="a_Node000008"><a xlink:title=" ">
<polygon fill="#e0e0e0" stroke="#999999" points="264.5,-74 213.5,-74 213.5,-55 264.5,-55 264.5,-74"/>
<text text-anchor="middle" x="239" y="-62" font-family="Helvetica,sans-Serif" font-size="10.00">math.h</text>
</a>
</g>
</g>
<!-- Node4&#45;&gt;Node8 -->
<g id="edge7_Node000004_Node000008" class="edge">
<title>Node4&#45;&gt;Node8</title>
<g id="a_edge7_Node000004_Node000008"><a xlink:title=" ">
<path fill="none" stroke="#63b8ff" d="M327.97,-109.98C311.07,-101.54 284.94,-88.47 265.36,-78.68"/>
<polygon fill="#63b8ff" stroke="#63b8ff" points="266.85,-75.51 256.34,-74.17 263.72,-81.77 266.85,-75.51"/>
</a>
</g>
</g>
<!-- Node9 -->
<g id="Node000009" class="node">
<title>Node9</title>
<g id="a_Node000009"><a xlink:title=" ">
<polygon fill="#e0e0e0" stroke="#999999" points="335.5,-74 282.5,-74 282.5,-55 335.5,-55 335.5,-74"/>
<text text-anchor="middle" x="309" y="-62" font-family="Helvetica,sans-Serif" font-size="10.00">avr/io.h</text>
</a>
</g>
</g>
<!-- Node4&#45;&gt;Node9 -->
<g id="edge9_Node000004_Node000009" class="edge">
<title>Node4&#45;&gt;Node9</title>
<g id="a_edge9_Node000004_Node000009"><a xlink:title=" ">
<path fill="none" stroke="#63b8ff" d="M339.06,-109.75C334.02,-102.34 326.66,-91.5 320.49,-82.41"/>
<polygon fill="#63b8ff" stroke="#63b8ff" points="323.35,-80.39 314.83,-74.09 317.56,-84.33 323.35,-80.39"/>
</a>
</g>
</g>
<!-- Node10 -->
<g id="Node000010" class="node">
<title>Node10</title>
<g id="a_Node000010"><a xlink:href="../../d8/da4/binary_8h.xhtml" target="_top" xlink:title=" ">
<polygon fill="white" stroke="#666666" points="408.5,-74 353.5,-74 353.5,-55 408.5,-55 408.5,-74"/>
<text text-anchor="middle" x="381" y="-62" font-family="Helvetica,sans-Serif" font-size="10.00">binary.h</text>
</a>
</g>
</g>
<!-- Node4&#45;&gt;Node10 -->
<g id="edge11_Node000004_Node000010" class="edge">
<title>Node4&#45;&gt;Node10</title>
<g id="a_edge11_Node000004_Node000010"><a xlink:title=" ">
<path fill="none" stroke="#63b8ff" d="M350.94,-109.75C355.98,-102.34 363.34,-91.5 369.51,-82.41"/>
<polygon fill="#63b8ff" stroke="#63b8ff" points="372.44,-84.33 375.17,-74.09 366.65,-80.39 372.44,-84.33"/>
</a>
</g>
</g>
<!-- Node4&#45;&gt;Node11 -->
<g id="edge12_Node000004_Node000011" class="edge">
<title>Node4&#45;&gt;Node11</title>
<g id="a_edge12_Node000004_Node000011"><a xlink:title=" ">
<path fill="none" stroke="#63b8ff" d="M376.51,-112.47C423.06,-103.56 510.84,-86.77 567.84,-75.86"/>
<polygon fill="#63b8ff" stroke="#63b8ff" points="568.6,-79.28 577.76,-73.96 567.28,-72.41 568.6,-79.28"/>
</a>
</g>
</g>
<!-- Node11&#45;&gt;Node3 -->
<g id="edge13_Node000011_Node000003" class="edge">
<title>Node11&#45;&gt;Node3</title>
<g id="a_edge13_Node000011_Node000003"><a xlink:title=" ">
<path fill="none" stroke="#63b8ff" d="M622,-54.75C622,-47.8 622,-37.85 622,-29.13"/>
<polygon fill="#63b8ff" stroke="#63b8ff" points="625.5,-29.09 622,-19.09 618.5,-29.09 625.5,-29.09"/>
</a>
</g>
</g>
</g>
</svg>
