<?xml version="1.0" encoding="UTF-8" standalone="no"?>
<!DOCTYPE svg PUBLIC "-//W3C//DTD SVG 1.1//EN"
 "http://www.w3.org/Graphics/SVG/1.1/DTD/svg11.dtd">
<!-- Generated by graphviz version 2.43.0 (0)
 -->
<!-- Title: createTimer2 Pages: 1 -->
<svg width="256pt" height="64pt"
 viewBox="0.00 0.00 256.00 64.00" xmlns="http://www.w3.org/2000/svg" xmlns:xlink="http://www.w3.org/1999/xlink">

<svg id="main" version="1.1" xmlns="http://www.w3.org/2000/svg" xmlns:xlink="http://www.w3.org/1999/xlink" xml:space="preserve" onload="init(evt)">
<style type="text/css"><![CDATA[
.node, .edge {opacity: 0.7;}
.node.selected, .edge.selected {opacity: 1;}
.edge:hover path { stroke: red; }
.edge:hover polygon { stroke: red; fill: red; }
]]></style>
<script type="application/ecmascript" xlink:href="../../svg.min.js"/>
<svg id="graph" class="graph">
<g id="graph0" class="graph" transform="scale(1 1) rotate(0) translate(4 60)">
<title>createTimer2</title>
<!-- Node1 -->
<g id="Node000001" class="node">
<title>Node1</title>
<g id="a_Node000001"><a xlink:title="Crée une nouvelle instance du timer.">
<polygon fill="#999999" stroke="#666666" points="82,-37 0,-37 0,-18 82,-18 82,-37"/>
<text text-anchor="middle" x="41" y="-25" font-family="Helvetica,sans-Serif" font-size="10.00">createTimer2</text>
</a>
</g>
</g>
<!-- Node2 -->
<g id="Node000002" class="node">
<title>Node2</title>
<g id="a_Node000002"><a xlink:href="../../d5/df3/wiring_8c.xhtml#a6bc5f943544a887f8b23cadfb26a5e30" target="_top" xlink:title=" ">
<polygon fill="white" stroke="#666666" points="162,-37 118,-37 118,-18 162,-18 162,-37"/>
<text text-anchor="middle" x="140" y="-25" font-family="Helvetica,sans-Serif" font-size="10.00">delay</text>
</a>
</g>
</g>
<!-- Node1&#45;&gt;Node2 -->
<g id="edge1_Node000001_Node000002" class="edge">
<title>Node1&#45;&gt;Node2</title>
<g id="a_edge1_Node000001_Node000002"><a xlink:title=" ">
<path fill="none" stroke="#63b8ff" d="M82.01,-27.5C90.58,-27.5 99.51,-27.5 107.68,-27.5"/>
<polygon fill="#63b8ff" stroke="#63b8ff" points="107.91,-31 117.91,-27.5 107.91,-24 107.91,-31"/>
</a>
</g>
</g>
<!-- Node3 -->
<g id="Node000003" class="node">
<title>Node3</title>
<g id="a_Node000003"><a xlink:href="../../d5/df3/wiring_8c.xhtml#a8b24cbb7c3486e1bfa05c86db83ecb01" target="_top" xlink:title=" ">
<polygon fill="white" stroke="#666666" points="248,-56 198,-56 198,-37 248,-37 248,-56"/>
<text text-anchor="middle" x="223" y="-44" font-family="Helvetica,sans-Serif" font-size="10.00">micros</text>
</a>
</g>
</g>
<!-- Node2&#45;&gt;Node3 -->
<g id="edge2_Node000002_Node000003" class="edge">
<title>Node2&#45;&gt;Node3</title>
<g id="a_edge2_Node000002_Node000003"><a xlink:title=" ">
<path fill="none" stroke="#63b8ff" d="M162.28,-32.49C170.1,-34.33 179.16,-36.45 187.82,-38.48"/>
<polygon fill="#63b8ff" stroke="#63b8ff" points="187.18,-41.93 197.71,-40.8 188.77,-35.11 187.18,-41.93"/>
</a>
</g>
</g>
<!-- Node4 -->
<g id="Node000004" class="node">
<title>Node4</title>
<g id="a_Node000004"><a xlink:href="../../de/df0/Arduino_8h.xhtml#a7cb51f5c2b5cad3766f19eb69c92793b" target="_top" xlink:title=" ">
<polygon fill="white" stroke="#666666" points="243.5,-19 202.5,-19 202.5,0 243.5,0 243.5,-19"/>
<text text-anchor="middle" x="223" y="-7" font-family="Helvetica,sans-Serif" font-size="10.00">yield</text>
</a>
</g>
</g>
<!-- Node2&#45;&gt;Node4 -->
<g id="edge3_Node000002_Node000004" class="edge">
<title>Node2&#45;&gt;Node4</title>
<g id="a_edge3_Node000002_Node000004"><a xlink:title=" ">
<path fill="none" stroke="#63b8ff" d="M162.28,-22.77C171.47,-20.73 182.37,-18.31 192.32,-16.09"/>
<polygon fill="#63b8ff" stroke="#63b8ff" points="193.25,-19.47 202.25,-13.89 191.73,-12.64 193.25,-19.47"/>
</a>
</g>
</g>
</g>
</svg>
</svg>

<style type='text/css'>
<![CDATA[
[data-mouse-over-selected='false'] { opacity: 0.7; }
[data-mouse-over-selected='true']  { opacity: 1.0; }
]]>
</style>
<script type="application/ecmascript"><![CDATA[
document.addEventListener('DOMContentLoaded', (event) => {
  highlightEdges();
  highlightAdjacentNodes();
});
]]></script>
</svg>
