<?xml version="1.0" encoding="UTF-8" standalone="no"?>
<!DOCTYPE svg PUBLIC "-//W3C//DTD SVG 1.1//EN"
 "http://www.w3.org/Graphics/SVG/1.1/DTD/svg11.dtd">
<!-- Generated by graphviz version 2.43.0 (0)
 -->
<!-- Title: stopTimer Pages: 1 -->
<svg width="501pt" height="64pt"
 viewBox="0.00 0.00 501.00 64.00" xmlns="http://www.w3.org/2000/svg" xmlns:xlink="http://www.w3.org/1999/xlink">
<g id="graph0" class="graph" transform="scale(1 1) rotate(0) translate(4 60)">
<title>stopTimer</title>
<!-- Node1 -->
<g id="Node000001" class="node">
<title>Node1</title>
<g id="a_Node000001"><a xlink:title="Arrête le timer.">
<polygon fill="#999999" stroke="#666666" points="493,-37 427,-37 427,-18 493,-18 493,-37"/>
<text text-anchor="middle" x="460" y="-25" font-family="Helvetica,sans-Serif" font-size="10.00">stopTimer</text>
</a>
</g>
</g>
<!-- Node2 -->
<g id="Node000002" class="node">
<title>Node2</title>
<g id="a_Node000002"><a xlink:href="../../d9/d52/buttons_8cpp_a54d82e2e60914d150743dcfe6ddbbece.xhtml#a54d82e2e60914d150743dcfe6ddbbece" target="_top" xlink:title="Fonction appelée lors de l&#39;appui sur le bouton vert ou rouge.">
<polygon fill="white" stroke="#666666" points="391,-56 305,-56 305,-37 391,-37 391,-56"/>
<text text-anchor="middle" x="348" y="-44" font-family="Helvetica,sans-Serif" font-size="10.00">buttonPressed</text>
</a>
</g>
</g>
<!-- Node1&#45;&gt;Node2 -->
<g id="edge1_Node000001_Node000002" class="edge">
<title>Node1&#45;&gt;Node2</title>
<g id="a_edge1_Node000001_Node000002"><a xlink:title=" ">
<path fill="none" stroke="#63b8ff" d="M416.88,-34.77C408.46,-36.23 399.61,-37.76 391.18,-39.21"/>
<polygon fill="#63b8ff" stroke="#63b8ff" points="417.63,-38.2 426.89,-33.05 416.44,-31.3 417.63,-38.2"/>
</a>
</g>
</g>
<!-- Node6 -->
<g id="Node000006" class="node">
<title>Node6</title>
<g id="a_Node000006"><a xlink:href="../../dc/de5/timer_8cpp_ad39420cdd896dd12c68e36313139d0a5.xhtml#ad39420cdd896dd12c68e36313139d0a5" target="_top" xlink:title="Fonction exécutée à chaque interruption du timer.">
<polygon fill="white" stroke="#666666" points="364,-19 332,-19 332,0 364,0 364,-19"/>
<text text-anchor="middle" x="348" y="-7" font-family="Helvetica,sans-Serif" font-size="10.00">ISR</text>
</a>
</g>
</g>
<!-- Node1&#45;&gt;Node6 -->
<g id="edge5_Node000001_Node000006" class="edge">
<title>Node1&#45;&gt;Node6</title>
<g id="a_edge5_Node000001_Node000006"><a xlink:title=" ">
<path fill="none" stroke="#63b8ff" d="M416.87,-20.61C398.35,-17.58 377.77,-14.21 364.18,-11.98"/>
<polygon fill="#63b8ff" stroke="#63b8ff" points="416.45,-24.08 426.89,-22.25 417.58,-17.18 416.45,-24.08"/>
</a>
</g>
</g>
<!-- Node3 -->
<g id="Node000003" class="node">
<title>Node3</title>
<g id="a_Node000003"><a xlink:href="../../d9/d52/buttons_8cpp_a82677b3df6b653b673a4b1735af9d45d.xhtml#a82677b3df6b653b673a4b1735af9d45d" target="_top" xlink:title="Initialise les interruptions sur les boutons.">
<polygon fill="white" stroke="#666666" points="269,-56 157,-56 157,-37 269,-37 269,-56"/>
<text text-anchor="middle" x="213" y="-44" font-family="Helvetica,sans-Serif" font-size="10.00">initButtonsInterrupt</text>
</a>
</g>
</g>
<!-- Node2&#45;&gt;Node3 -->
<g id="edge2_Node000002_Node000003" class="edge">
<title>Node2&#45;&gt;Node3</title>
<g id="a_edge2_Node000002_Node000003"><a xlink:title=" ">
<path fill="none" stroke="#63b8ff" d="M294.92,-46.5C286.56,-46.5 277.88,-46.5 269.44,-46.5"/>
<polygon fill="#63b8ff" stroke="#63b8ff" points="294.92,-50 304.92,-46.5 294.92,-43 294.92,-50"/>
</a>
</g>
</g>
<!-- Node4 -->
<g id="Node000004" class="node">
<title>Node4</title>
<g id="a_Node000004"><a xlink:href="../../de/dfb/src_2main_8cpp_a4fc01d736fe50cf5b977f755b675f11d.xhtml#a4fc01d736fe50cf5b977f755b675f11d" target="_top" xlink:title=" ">
<polygon fill="white" stroke="#666666" points="121,-56 77,-56 77,-37 121,-37 121,-56"/>
<text text-anchor="middle" x="99" y="-44" font-family="Helvetica,sans-Serif" font-size="10.00">setup</text>
</a>
</g>
</g>
<!-- Node3&#45;&gt;Node4 -->
<g id="edge3_Node000003_Node000004" class="edge">
<title>Node3&#45;&gt;Node4</title>
<g id="a_edge3_Node000003_Node000004"><a xlink:title=" ">
<path fill="none" stroke="#63b8ff" d="M146.88,-46.5C137.65,-46.5 128.75,-46.5 121.24,-46.5"/>
<polygon fill="#63b8ff" stroke="#63b8ff" points="146.98,-50 156.98,-46.5 146.98,-43 146.98,-50"/>
</a>
</g>
</g>
<!-- Node5 -->
<g id="Node000005" class="node">
<title>Node5</title>
<g id="a_Node000005"><a xlink:href="../../d2/d81/libs_2Arduino__AVR_2main_8cpp_a840291bc02cba5474a4cb46a9b9566fe.xhtml#a840291bc02cba5474a4cb46a9b9566fe" target="_top" xlink:title=" ">
<polygon fill="white" stroke="#666666" points="41,-56 0,-56 0,-37 41,-37 41,-56"/>
<text text-anchor="middle" x="20.5" y="-44" font-family="Helvetica,sans-Serif" font-size="10.00">main</text>
</a>
</g>
</g>
<!-- Node4&#45;&gt;Node5 -->
<g id="edge4_Node000004_Node000005" class="edge">
<title>Node4&#45;&gt;Node5</title>
<g id="a_edge4_Node000004_Node000005"><a xlink:title=" ">
<path fill="none" stroke="#63b8ff" d="M66.55,-46.5C57.94,-46.5 48.86,-46.5 41.12,-46.5"/>
<polygon fill="#63b8ff" stroke="#63b8ff" points="66.69,-50 76.69,-46.5 66.69,-43 66.69,-50"/>
</a>
</g>
</g>
</g>
</svg>
