<?xml version="1.0" encoding="UTF-8" standalone="no"?>
<!DOCTYPE svg PUBLIC "-//W3C//DTD SVG 1.1//EN"
 "http://www.w3.org/Graphics/SVG/1.1/DTD/svg11.dtd">
<!-- Generated by graphviz version 2.43.0 (0)
 -->
<!-- Title: isFatFile Pages: 1 -->
<svg width="841pt" height="156pt"
 viewBox="0.00 0.00 841.00 156.00" xmlns="http://www.w3.org/2000/svg" xmlns:xlink="http://www.w3.org/1999/xlink">
<g id="graph0" class="graph" transform="scale(1 1) rotate(0) translate(4 152)">
<title>isFatFile</title>
<!-- Node1 -->
<g id="Node000001" class="node">
<title>Node1</title>
<g id="a_Node000001"><a xlink:title=" ">
<polygon fill="#999999" stroke="#666666" points="833,-73 777,-73 777,-54 833,-54 833,-73"/>
<text text-anchor="middle" x="805" y="-61" font-family="Helvetica,sans-Serif" font-size="10.00">isFatFile</text>
</a>
</g>
</g>
<!-- Node2 -->
<g id="Node000002" class="node">
<title>Node2</title>
<g id="a_Node000002"><a xlink:href="../../d3/db4/classFatFile.xhtml#ad39f3c4d83135ad181c58306b23df0aa" target="_top" xlink:title=" ">
<polygon fill="white" stroke="#666666" points="741,-101 601,-101 601,-82 741,-82 741,-101"/>
<text text-anchor="middle" x="671" y="-89" font-family="Helvetica,sans-Serif" font-size="10.00">FatFile::openCachedEntry</text>
</a>
</g>
</g>
<!-- Node1&#45;&gt;Node2 -->
<g id="edge1_Node000001_Node000002" class="edge">
<title>Node1&#45;&gt;Node2</title>
<g id="a_edge1_Node000001_Node000002"><a xlink:title=" ">
<path fill="none" stroke="#63b8ff" d="M767.17,-71.31C751.59,-74.62 733.29,-78.5 716.93,-81.97"/>
<polygon fill="#63b8ff" stroke="#63b8ff" points="767.91,-74.73 776.97,-69.23 766.46,-67.89 767.91,-74.73"/>
</a>
</g>
</g>
<!-- Node14 -->
<g id="Node000014" class="node">
<title>Node14</title>
<g id="a_Node000014"><a xlink:href="../../d3/db4/classFatFile.xhtml#a8aa6e2d722bdf14ef34671beb23488ea" target="_top" xlink:title=" ">
<polygon fill="white" stroke="#666666" points="720,-55 622,-55 622,-36 720,-36 720,-55"/>
<text text-anchor="middle" x="671" y="-43" font-family="Helvetica,sans-Serif" font-size="10.00">FatFile::openSFN</text>
</a>
</g>
</g>
<!-- Node1&#45;&gt;Node14 -->
<g id="edge14_Node000001_Node000014" class="edge">
<title>Node1&#45;&gt;Node14</title>
<g id="a_edge14_Node000001_Node000014"><a xlink:title=" ">
<path fill="none" stroke="#63b8ff" d="M766.86,-58.44C752.35,-56.46 735.51,-54.16 720.08,-52.06"/>
<polygon fill="#63b8ff" stroke="#63b8ff" points="766.59,-61.93 776.97,-59.81 767.53,-54.99 766.59,-61.93"/>
</a>
</g>
</g>
<!-- Node3 -->
<g id="Node000003" class="node">
<title>Node3</title>
<g id="a_Node000003"><a xlink:href="../../d3/db4/classFatFile.xhtml#aa729447d16ce34a9a575c27ac58dbb12" target="_top" xlink:title=" ">
<polygon fill="white" stroke="#666666" points="535.5,-148 457.5,-148 457.5,-129 535.5,-129 535.5,-148"/>
<text text-anchor="middle" x="496.5" y="-136" font-family="Helvetica,sans-Serif" font-size="10.00">FatFile::open</text>
</a>
</g>
</g>
<!-- Node2&#45;&gt;Node3 -->
<g id="edge2_Node000002_Node000003" class="edge">
<title>Node2&#45;&gt;Node3</title>
<g id="a_edge2_Node000002_Node000003"><a xlink:title=" ">
<path fill="none" stroke="#63b8ff" d="M625.75,-103.81C607.02,-109 584.96,-115.08 565,-120.5 554.82,-123.26 543.76,-126.23 533.6,-128.94"/>
<polygon fill="#63b8ff" stroke="#63b8ff" points="626.8,-107.16 635.5,-101.11 624.93,-100.41 626.8,-107.16"/>
</a>
</g>
</g>
<!-- Node4 -->
<g id="Node000004" class="node">
<title>Node4</title>
<g id="a_Node000004"><a xlink:href="../../d3/db4/classFatFile.xhtml#aefd095e898758e6008f33cca17e92b72" target="_top" xlink:title=" ">
<polygon fill="white" stroke="#666666" points="535.5,-111 457.5,-111 457.5,-92 535.5,-92 535.5,-111"/>
<text text-anchor="middle" x="496.5" y="-99" font-family="Helvetica,sans-Serif" font-size="10.00">FatFile::open</text>
</a>
</g>
</g>
<!-- Node2&#45;&gt;Node4 -->
<g id="edge3_Node000002_Node000004" class="edge">
<title>Node2&#45;&gt;Node4</title>
<g id="a_edge3_Node000002_Node000004"><a xlink:title=" ">
<path fill="none" stroke="#63b8ff" d="M590.63,-96.1C571.6,-97.2 552.12,-98.33 535.92,-99.27"/>
<polygon fill="#63b8ff" stroke="#63b8ff" points="591.05,-99.58 600.83,-95.51 590.65,-92.59 591.05,-99.58"/>
</a>
</g>
</g>
<!-- Node5 -->
<g id="Node000005" class="node">
<title>Node5</title>
<g id="a_Node000005"><a xlink:href="../../d3/db4/classFatFile.xhtml#acda9b1bf547d43e183e657bee053a48d" target="_top" xlink:title=" ">
<polygon fill="white" stroke="#666666" points="547,-74 446,-74 446,-55 547,-55 547,-74"/>
<text text-anchor="middle" x="496.5" y="-62" font-family="Helvetica,sans-Serif" font-size="10.00">FatFile::openNext</text>
</a>
</g>
</g>
<!-- Node2&#45;&gt;Node5 -->
<g id="edge4_Node000002_Node000005" class="edge">
<title>Node2&#45;&gt;Node5</title>
<g id="a_edge4_Node000002_Node000005"><a xlink:title=" ">
<path fill="none" stroke="#63b8ff" d="M599.06,-80.4C581.66,-77.67 563.41,-74.82 547.25,-72.29"/>
<polygon fill="#63b8ff" stroke="#63b8ff" points="598.76,-83.89 609.18,-81.98 599.84,-76.98 598.76,-83.89"/>
</a>
</g>
</g>
<!-- Node6 -->
<g id="Node000006" class="node">
<title>Node6</title>
<g id="a_Node000006"><a xlink:href="../../d3/db4/classFatFile.xhtml#a60ab9d16bcc778150a364c26de467de1" target="_top" xlink:title=" ">
<polygon fill="white" stroke="#666666" points="362,-130 300,-130 300,-111 362,-111 362,-130"/>
<text text-anchor="middle" x="331" y="-118" font-family="Helvetica,sans-Serif" font-size="10.00">FatFile::ls</text>
</a>
</g>
</g>
<!-- Node5&#45;&gt;Node6 -->
<g id="edge5_Node000005_Node000006" class="edge">
<title>Node5&#45;&gt;Node6</title>
<g id="a_edge5_Node000005_Node000006"><a xlink:title=" ">
<path fill="none" stroke="#63b8ff" d="M446.37,-77.01C440.12,-78.99 433.86,-81.16 428,-83.5 411.2,-90.21 408.74,-95.65 392,-102.5 382.54,-106.37 371.94,-109.83 362.31,-112.65"/>
<polygon fill="#63b8ff" stroke="#63b8ff" points="447.56,-80.31 456.13,-74.07 445.54,-73.6 447.56,-80.31"/>
</a>
</g>
</g>
<!-- Node10 -->
<g id="Node000010" class="node">
<title>Node10</title>
<g id="a_Node000010"><a xlink:href="../../d3/db4/classFatFile.xhtml#a5318ee7a7700ff23721497945fba363d" target="_top" xlink:title=" ">
<polygon fill="white" stroke="#666666" points="370,-93 292,-93 292,-74 370,-74 370,-93"/>
<text text-anchor="middle" x="331" y="-81" font-family="Helvetica,sans-Serif" font-size="10.00">FatFile::open</text>
</a>
</g>
</g>
<!-- Node5&#45;&gt;Node10 -->
<g id="edge10_Node000005_Node000010" class="edge">
<title>Node5&#45;&gt;Node10</title>
<g id="a_edge10_Node000005_Node000010"><a xlink:title=" ">
<path fill="none" stroke="#63b8ff" d="M435.4,-71.48C413.61,-74.02 389.61,-76.81 370.22,-79.06"/>
<polygon fill="#63b8ff" stroke="#63b8ff" points="436.03,-74.93 445.56,-70.3 435.22,-67.98 436.03,-74.93"/>
</a>
</g>
</g>
<!-- Node11 -->
<g id="Node000011" class="node">
<title>Node11</title>
<g id="a_Node000011"><a xlink:href="../../d0/db5/classFsBaseFile.xhtml#acb9b1075f4db76fa7e0521c9aff9c3df" target="_top" xlink:title=" ">
<polygon fill="white" stroke="#666666" points="392,-56 270,-56 270,-37 392,-37 392,-56"/>
<text text-anchor="middle" x="331" y="-44" font-family="Helvetica,sans-Serif" font-size="10.00">FsBaseFile::openNext</text>
</a>
</g>
</g>
<!-- Node5&#45;&gt;Node11 -->
<g id="edge11_Node000005_Node000011" class="edge">
<title>Node5&#45;&gt;Node11</title>
<g id="a_edge11_Node000005_Node000011"><a xlink:title=" ">
<path fill="none" stroke="#63b8ff" d="M435.49,-57.89C421.4,-56.34 406.39,-54.69 392.29,-53.14"/>
<polygon fill="#63b8ff" stroke="#63b8ff" points="435.23,-61.39 445.56,-59 436,-54.43 435.23,-61.39"/>
</a>
</g>
</g>
<!-- Node13 -->
<g id="Node000013" class="node">
<title>Node13</title>
<g id="a_Node000013"><a xlink:href="../../d6/d53/classFile32.xhtml#adc01f4a1ebc44ef36f3ffb8295c8d779" target="_top" xlink:title=" ">
<polygon fill="white" stroke="#666666" points="389,-19 273,-19 273,0 389,0 389,-19"/>
<text text-anchor="middle" x="331" y="-7" font-family="Helvetica,sans-Serif" font-size="10.00">File32::openNextFile</text>
</a>
</g>
</g>
<!-- Node5&#45;&gt;Node13 -->
<g id="edge13_Node000005_Node000013" class="edge">
<title>Node5&#45;&gt;Node13</title>
<g id="a_edge13_Node000005_Node000013"><a xlink:title=" ">
<path fill="none" stroke="#63b8ff" d="M446.89,-52.01C440.48,-50.02 434.04,-47.83 428,-45.5 411.32,-39.05 408.63,-34.09 392,-27.5 384.22,-24.41 375.69,-21.55 367.56,-19.07"/>
<polygon fill="#63b8ff" stroke="#63b8ff" points="446.31,-55.49 456.89,-54.99 448.3,-48.78 446.31,-55.49"/>
</a>
</g>
</g>
<!-- Node6&#45;&gt;Node6 -->
<g id="edge9_Node000006_Node000006" class="edge">
<title>Node6&#45;&gt;Node6</title>
<g id="a_edge9_Node000006_Node000006"><a xlink:title=" ">
<path fill="none" stroke="#63b8ff" d="M359.75,-138.82C358.54,-144.01 348.96,-148 331,-148 303.63,-148 295.72,-138.73 307.26,-130.08"/>
<polygon fill="#63b8ff" stroke="#63b8ff" points="362.75,-137.02 354.74,-130.08 356.67,-140.5 362.75,-137.02"/>
</a>
</g>
</g>
<!-- Node7 -->
<g id="Node000007" class="node">
<title>Node7</title>
<g id="a_Node000007"><a xlink:href="../../d3/dd5/classFatVolume.xhtml#ac5fc83cac7fd3af0b140a7986b9472f8" target="_top" xlink:title=" ">
<polygon fill="white" stroke="#666666" points="217,-148 135,-148 135,-129 217,-129 217,-148"/>
<text text-anchor="middle" x="176" y="-136" font-family="Helvetica,sans-Serif" font-size="10.00">FatVolume::ls</text>
</a>
</g>
</g>
<!-- Node6&#45;&gt;Node7 -->
<g id="edge6_Node000006_Node000007" class="edge">
<title>Node6&#45;&gt;Node7</title>
<g id="a_edge6_Node000006_Node000007"><a xlink:title=" ">
<path fill="none" stroke="#63b8ff" d="M289.57,-125.26C267.15,-127.89 239.38,-131.16 217.02,-133.79"/>
<polygon fill="#63b8ff" stroke="#63b8ff" points="290.25,-128.7 299.77,-124.06 289.43,-121.75 290.25,-128.7"/>
</a>
</g>
</g>
<!-- Node8 -->
<g id="Node000008" class="node">
<title>Node8</title>
<g id="a_Node000008"><a xlink:href="../../d3/dd5/classFatVolume.xhtml#ae40964f357cfff4208812344a0e6f26f" target="_top" xlink:title=" ">
<polygon fill="white" stroke="#666666" points="217,-111 135,-111 135,-92 217,-92 217,-111"/>
<text text-anchor="middle" x="176" y="-99" font-family="Helvetica,sans-Serif" font-size="10.00">FatVolume::ls</text>
</a>
</g>
</g>
<!-- Node6&#45;&gt;Node8 -->
<g id="edge7_Node000006_Node000008" class="edge">
<title>Node6&#45;&gt;Node8</title>
<g id="a_edge7_Node000006_Node000008"><a xlink:title=" ">
<path fill="none" stroke="#63b8ff" d="M289.57,-115.48C267.15,-112.7 239.38,-109.25 217.02,-106.47"/>
<polygon fill="#63b8ff" stroke="#63b8ff" points="289.42,-118.99 299.77,-116.75 290.28,-112.04 289.42,-118.99"/>
</a>
</g>
</g>
<!-- Node9 -->
<g id="Node000009" class="node">
<title>Node9</title>
<g id="a_Node000009"><a xlink:href="../../d3/dd5/classFatVolume.xhtml#a455ad7b2a5b6b31551dca08087a3c404" target="_top" xlink:title=" ">
<polygon fill="white" stroke="#666666" points="82,-111 0,-111 0,-92 82,-92 82,-111"/>
<text text-anchor="middle" x="41" y="-99" font-family="Helvetica,sans-Serif" font-size="10.00">FatVolume::ls</text>
</a>
</g>
</g>
<!-- Node8&#45;&gt;Node9 -->
<g id="edge8_Node000008_Node000009" class="edge">
<title>Node8&#45;&gt;Node9</title>
<g id="a_edge8_Node000008_Node000009"><a xlink:title=" ">
<path fill="none" stroke="#63b8ff" d="M124.71,-101.5C110.63,-101.5 95.53,-101.5 82.13,-101.5"/>
<polygon fill="#63b8ff" stroke="#63b8ff" points="124.73,-105 134.73,-101.5 124.73,-98 124.73,-105"/>
</a>
</g>
</g>
<!-- Node12 -->
<g id="Node000012" class="node">
<title>Node12</title>
<g id="a_Node000012"><a xlink:href="../../d5/d4f/classFsFile.xhtml#ab2f85961e3831d0d654da862becb7433" target="_top" xlink:title=" ">
<polygon fill="white" stroke="#666666" points="234,-56 118,-56 118,-37 234,-37 234,-56"/>
<text text-anchor="middle" x="176" y="-44" font-family="Helvetica,sans-Serif" font-size="10.00">FsFile::openNextFile</text>
</a>
</g>
</g>
<!-- Node11&#45;&gt;Node12 -->
<g id="edge12_Node000011_Node000012" class="edge">
<title>Node11&#45;&gt;Node12</title>
<g id="a_edge12_Node000011_Node000012"><a xlink:title=" ">
<path fill="none" stroke="#63b8ff" d="M259.7,-46.5C251.21,-46.5 242.62,-46.5 234.36,-46.5"/>
<polygon fill="#63b8ff" stroke="#63b8ff" points="259.97,-50 269.97,-46.5 259.97,-43 259.97,-50"/>
</a>
</g>
</g>
<!-- Node15 -->
<g id="Node000015" class="node">
<title>Node15</title>
<g id="a_Node000015"><a xlink:href="../../d3/db4/classFatFile.xhtml#a4ca76086a89af45d2cae451b55e6f20f" target="_top" xlink:title=" ">
<polygon fill="white" stroke="#666666" points="565,-37 428,-37 428,-18 565,-18 565,-37"/>
<text text-anchor="middle" x="496.5" y="-25" font-family="Helvetica,sans-Serif" font-size="10.00">FatFile::openExistingSFN</text>
</a>
</g>
</g>
<!-- Node14&#45;&gt;Node15 -->
<g id="edge15_Node000014_Node000015" class="edge">
<title>Node14&#45;&gt;Node15</title>
<g id="a_edge15_Node000014_Node000015"><a xlink:title=" ">
<path fill="none" stroke="#63b8ff" d="M611.83,-39.43C596.88,-37.87 580.66,-36.18 565.27,-34.57"/>
<polygon fill="#63b8ff" stroke="#63b8ff" points="611.64,-42.93 621.95,-40.49 612.37,-35.97 611.64,-42.93"/>
</a>
</g>
</g>
</g>
</svg>
