<?xml version="1.0" encoding="UTF-8" standalone="no"?>
<!DOCTYPE svg PUBLIC "-//W3C//DTD SVG 1.1//EN"
 "http://www.w3.org/Graphics/SVG/1.1/DTD/svg11.dtd">
<!-- Generated by graphviz version 2.43.0 (0)
 -->
<!-- Title: isFatLongName Pages: 1 -->
<svg width="707pt" height="230pt"
 viewBox="0.00 0.00 707.00 230.00" xmlns="http://www.w3.org/2000/svg" xmlns:xlink="http://www.w3.org/1999/xlink">
<g id="graph0" class="graph" transform="scale(1 1) rotate(0) translate(4 226)">
<title>isFatLongName</title>
<!-- Node1 -->
<g id="Node000001" class="node">
<title>Node1</title>
<g id="a_Node000001"><a xlink:title=" ">
<polygon fill="#999999" stroke="#666666" points="699,-111 607,-111 607,-92 699,-92 699,-111"/>
<text text-anchor="middle" x="653" y="-99" font-family="Helvetica,sans-Serif" font-size="10.00">isFatLongName</text>
</a>
</g>
</g>
<!-- Node2 -->
<g id="Node000002" class="node">
<title>Node2</title>
<g id="a_Node000002"><a xlink:href="../../d3/db4/classFatFile.xhtml#aa729447d16ce34a9a575c27ac58dbb12" target="_top" xlink:title=" ">
<polygon fill="white" stroke="#666666" points="559.5,-185 481.5,-185 481.5,-166 559.5,-166 559.5,-185"/>
<text text-anchor="middle" x="520.5" y="-173" font-family="Helvetica,sans-Serif" font-size="10.00">FatFile::open</text>
</a>
</g>
</g>
<!-- Node1&#45;&gt;Node2 -->
<g id="edge1_Node000001_Node000002" class="edge">
<title>Node1&#45;&gt;Node2</title>
<g id="a_edge1_Node000001_Node000002"><a xlink:title=" ">
<path fill="none" stroke="#63b8ff" d="M632.26,-117.3C616.39,-129.45 593.17,-146.05 571,-157.5 564.91,-160.65 558.14,-163.5 551.61,-165.95"/>
<polygon fill="#63b8ff" stroke="#63b8ff" points="634.52,-119.97 640.26,-111.06 630.22,-114.44 634.52,-119.97"/>
</a>
</g>
</g>
<!-- Node3 -->
<g id="Node000003" class="node">
<title>Node3</title>
<g id="a_Node000003"><a xlink:href="../../d3/db4/classFatFile.xhtml#aefd095e898758e6008f33cca17e92b72" target="_top" xlink:title=" ">
<polygon fill="white" stroke="#666666" points="559.5,-148 481.5,-148 481.5,-129 559.5,-129 559.5,-148"/>
<text text-anchor="middle" x="520.5" y="-136" font-family="Helvetica,sans-Serif" font-size="10.00">FatFile::open</text>
</a>
</g>
</g>
<!-- Node1&#45;&gt;Node3 -->
<g id="edge2_Node000001_Node000003" class="edge">
<title>Node1&#45;&gt;Node3</title>
<g id="a_edge2_Node000001_Node000003"><a xlink:title=" ">
<path fill="none" stroke="#63b8ff" d="M608.53,-113.83C591.24,-118.73 571.66,-124.28 555.45,-128.88"/>
<polygon fill="#63b8ff" stroke="#63b8ff" points="609.73,-117.12 618.39,-111.03 607.82,-110.39 609.73,-117.12"/>
</a>
</g>
</g>
<!-- Node4 -->
<g id="Node000004" class="node">
<title>Node4</title>
<g id="a_Node000004"><a xlink:href="../../d3/db4/classFatFile.xhtml#acda9b1bf547d43e183e657bee053a48d" target="_top" xlink:title=" ">
<polygon fill="white" stroke="#666666" points="571,-111 470,-111 470,-92 571,-92 571,-111"/>
<text text-anchor="middle" x="520.5" y="-99" font-family="Helvetica,sans-Serif" font-size="10.00">FatFile::openNext</text>
</a>
</g>
</g>
<!-- Node1&#45;&gt;Node4 -->
<g id="edge3_Node000001_Node000004" class="edge">
<title>Node1&#45;&gt;Node4</title>
<g id="a_edge3_Node000001_Node000004"><a xlink:title=" ">
<path fill="none" stroke="#63b8ff" d="M596.57,-101.5C588.13,-101.5 579.46,-101.5 571.15,-101.5"/>
<polygon fill="#63b8ff" stroke="#63b8ff" points="596.72,-105 606.72,-101.5 596.72,-98 596.72,-105"/>
</a>
</g>
</g>
<!-- Node13 -->
<g id="Node000013" class="node">
<title>Node13</title>
<g id="a_Node000013"><a xlink:href="../../d3/db4/classFatFile.xhtml#a8aa6e2d722bdf14ef34671beb23488ea" target="_top" xlink:title=" ">
<polygon fill="white" stroke="#666666" points="569.5,-74 471.5,-74 471.5,-55 569.5,-55 569.5,-74"/>
<text text-anchor="middle" x="520.5" y="-62" font-family="Helvetica,sans-Serif" font-size="10.00">FatFile::openSFN</text>
</a>
</g>
</g>
<!-- Node1&#45;&gt;Node13 -->
<g id="edge13_Node000001_Node000013" class="edge">
<title>Node1&#45;&gt;Node13</title>
<g id="a_edge13_Node000001_Node000013"><a xlink:title=" ">
<path fill="none" stroke="#63b8ff" d="M608.53,-89.17C591.24,-84.27 571.66,-78.72 555.45,-74.12"/>
<polygon fill="#63b8ff" stroke="#63b8ff" points="607.82,-92.61 618.39,-91.97 609.73,-85.88 607.82,-92.61"/>
</a>
</g>
</g>
<!-- Node15 -->
<g id="Node000015" class="node">
<title>Node15</title>
<g id="a_Node000015"><a xlink:href="../../d4/df1/FatDbg_8cpp.xhtml#a5afaaddc4da2b3b746042bf8c7ba19a4" target="_top" xlink:title=" ">
<polygon fill="white" stroke="#666666" points="554.5,-37 486.5,-37 486.5,-18 554.5,-18 554.5,-37"/>
<text text-anchor="middle" x="520.5" y="-25" font-family="Helvetica,sans-Serif" font-size="10.00">printFatDir</text>
</a>
</g>
</g>
<!-- Node1&#45;&gt;Node15 -->
<g id="edge15_Node000001_Node000015" class="edge">
<title>Node1&#45;&gt;Node15</title>
<g id="a_edge15_Node000001_Node000015"><a xlink:title=" ">
<path fill="none" stroke="#63b8ff" d="M632.26,-85.7C616.39,-73.55 593.17,-56.95 571,-45.5 564.91,-42.35 558.14,-39.5 551.61,-37.05"/>
<polygon fill="#63b8ff" stroke="#63b8ff" points="630.22,-88.56 640.26,-91.94 634.52,-83.03 630.22,-88.56"/>
</a>
</g>
</g>
<!-- Node5 -->
<g id="Node000005" class="node">
<title>Node5</title>
<g id="a_Node000005"><a xlink:href="../../d3/db4/classFatFile.xhtml#a60ab9d16bcc778150a364c26de467de1" target="_top" xlink:title=" ">
<polygon fill="white" stroke="#666666" points="393,-204 331,-204 331,-185 393,-185 393,-204"/>
<text text-anchor="middle" x="362" y="-192" font-family="Helvetica,sans-Serif" font-size="10.00">FatFile::ls</text>
</a>
</g>
</g>
<!-- Node4&#45;&gt;Node5 -->
<g id="edge4_Node000004_Node000005" class="edge">
<title>Node4&#45;&gt;Node5</title>
<g id="a_edge4_Node000004_Node000005"><a xlink:title=" ">
<path fill="none" stroke="#63b8ff" d="M476.87,-115.72C474.45,-117.17 472.14,-118.76 470,-120.5 447.05,-139.17 458.01,-159.22 434,-176.5 422.13,-185.04 406.6,-189.54 393.09,-191.91"/>
<polygon fill="#63b8ff" stroke="#63b8ff" points="478.68,-118.72 485.96,-111.03 475.47,-112.5 478.68,-118.72"/>
</a>
</g>
</g>
<!-- Node9 -->
<g id="Node000009" class="node">
<title>Node9</title>
<g id="a_Node000009"><a xlink:href="../../d3/db4/classFatFile.xhtml#a5318ee7a7700ff23721497945fba363d" target="_top" xlink:title=" ">
<polygon fill="white" stroke="#666666" points="401,-167 323,-167 323,-148 401,-148 401,-167"/>
<text text-anchor="middle" x="362" y="-155" font-family="Helvetica,sans-Serif" font-size="10.00">FatFile::open</text>
</a>
</g>
</g>
<!-- Node4&#45;&gt;Node9 -->
<g id="edge9_Node000004_Node000009" class="edge">
<title>Node4&#45;&gt;Node9</title>
<g id="a_edge9_Node000004_Node000009"><a xlink:title=" ">
<path fill="none" stroke="#63b8ff" d="M483.15,-114.88C478.69,-116.69 474.22,-118.59 470,-120.5 453.53,-127.98 450.89,-133.01 434,-139.5 423.55,-143.51 411.9,-146.9 401.1,-149.61"/>
<polygon fill="#63b8ff" stroke="#63b8ff" points="484.78,-118 492.8,-111.08 482.21,-111.49 484.78,-118"/>
</a>
</g>
</g>
<!-- Node10 -->
<g id="Node000010" class="node">
<title>Node10</title>
<g id="a_Node000010"><a xlink:href="../../d0/db5/classFsBaseFile.xhtml#acb9b1075f4db76fa7e0521c9aff9c3df" target="_top" xlink:title=" ">
<polygon fill="white" stroke="#666666" points="423,-130 301,-130 301,-111 423,-111 423,-130"/>
<text text-anchor="middle" x="362" y="-118" font-family="Helvetica,sans-Serif" font-size="10.00">FsBaseFile::openNext</text>
</a>
</g>
</g>
<!-- Node4&#45;&gt;Node10 -->
<g id="edge10_Node000004_Node000010" class="edge">
<title>Node4&#45;&gt;Node10</title>
<g id="a_edge10_Node000004_Node000010"><a xlink:title=" ">
<path fill="none" stroke="#63b8ff" d="M460.02,-108.72C447.96,-110.19 435.26,-111.73 423.17,-113.19"/>
<polygon fill="#63b8ff" stroke="#63b8ff" points="460.48,-112.19 469.98,-107.51 459.63,-105.24 460.48,-112.19"/>
</a>
</g>
</g>
<!-- Node12 -->
<g id="Node000012" class="node">
<title>Node12</title>
<g id="a_Node000012"><a xlink:href="../../d6/d53/classFile32.xhtml#adc01f4a1ebc44ef36f3ffb8295c8d779" target="_top" xlink:title=" ">
<polygon fill="white" stroke="#666666" points="420,-93 304,-93 304,-74 420,-74 420,-93"/>
<text text-anchor="middle" x="362" y="-81" font-family="Helvetica,sans-Serif" font-size="10.00">File32::openNextFile</text>
</a>
</g>
</g>
<!-- Node4&#45;&gt;Node12 -->
<g id="edge12_Node000004_Node000012" class="edge">
<title>Node4&#45;&gt;Node12</title>
<g id="a_edge12_Node000004_Node000012"><a xlink:title=" ">
<path fill="none" stroke="#63b8ff" d="M459.74,-94.63C446.73,-93.13 433.01,-91.55 420.11,-90.07"/>
<polygon fill="#63b8ff" stroke="#63b8ff" points="459.65,-98.14 469.98,-95.8 460.45,-91.18 459.65,-98.14"/>
</a>
</g>
</g>
<!-- Node5&#45;&gt;Node5 -->
<g id="edge8_Node000005_Node000005" class="edge">
<title>Node5&#45;&gt;Node5</title>
<g id="a_edge8_Node000005_Node000005"><a xlink:title=" ">
<path fill="none" stroke="#63b8ff" d="M391.49,-212.82C390.26,-218.01 380.43,-222 362,-222 333.92,-222 325.8,-212.73 337.65,-204.08"/>
<polygon fill="#63b8ff" stroke="#63b8ff" points="394.44,-210.93 386.35,-204.08 388.41,-214.48 394.44,-210.93"/>
</a>
</g>
</g>
<!-- Node6 -->
<g id="Node000006" class="node">
<title>Node6</title>
<g id="a_Node000006"><a xlink:href="../../d3/dd5/classFatVolume.xhtml#ac5fc83cac7fd3af0b140a7986b9472f8" target="_top" xlink:title=" ">
<polygon fill="white" stroke="#666666" points="227,-222 145,-222 145,-203 227,-203 227,-222"/>
<text text-anchor="middle" x="186" y="-210" font-family="Helvetica,sans-Serif" font-size="10.00">FatVolume::ls</text>
</a>
</g>
</g>
<!-- Node5&#45;&gt;Node6 -->
<g id="edge5_Node000005_Node000006" class="edge">
<title>Node5&#45;&gt;Node6</title>
<g id="a_edge5_Node000005_Node000006"><a xlink:title=" ">
<path fill="none" stroke="#63b8ff" d="M320.41,-198.7C292.3,-201.61 255.07,-205.46 227.08,-208.35"/>
<polygon fill="#63b8ff" stroke="#63b8ff" points="321.1,-202.15 330.69,-197.64 320.38,-195.18 321.1,-202.15"/>
</a>
</g>
</g>
<!-- Node7 -->
<g id="Node000007" class="node">
<title>Node7</title>
<g id="a_Node000007"><a xlink:href="../../d3/dd5/classFatVolume.xhtml#ae40964f357cfff4208812344a0e6f26f" target="_top" xlink:title=" ">
<polygon fill="white" stroke="#666666" points="227,-185 145,-185 145,-166 227,-166 227,-185"/>
<text text-anchor="middle" x="186" y="-173" font-family="Helvetica,sans-Serif" font-size="10.00">FatVolume::ls</text>
</a>
</g>
</g>
<!-- Node5&#45;&gt;Node7 -->
<g id="edge6_Node000005_Node000007" class="edge">
<title>Node5&#45;&gt;Node7</title>
<g id="a_edge6_Node000005_Node000007"><a xlink:title=" ">
<path fill="none" stroke="#63b8ff" d="M320.41,-190.07C292.3,-187 255.07,-182.93 227.08,-179.88"/>
<polygon fill="#63b8ff" stroke="#63b8ff" points="320.37,-193.58 330.69,-191.19 321.13,-186.63 320.37,-193.58"/>
</a>
</g>
</g>
<!-- Node8 -->
<g id="Node000008" class="node">
<title>Node8</title>
<g id="a_Node000008"><a xlink:href="../../d3/dd5/classFatVolume.xhtml#a455ad7b2a5b6b31551dca08087a3c404" target="_top" xlink:title=" ">
<polygon fill="white" stroke="#666666" points="82,-185 0,-185 0,-166 82,-166 82,-185"/>
<text text-anchor="middle" x="41" y="-173" font-family="Helvetica,sans-Serif" font-size="10.00">FatVolume::ls</text>
</a>
</g>
</g>
<!-- Node7&#45;&gt;Node8 -->
<g id="edge7_Node000007_Node000008" class="edge">
<title>Node7&#45;&gt;Node8</title>
<g id="a_edge7_Node000007_Node000008"><a xlink:title=" ">
<path fill="none" stroke="#63b8ff" d="M134.43,-175.5C117.37,-175.5 98.57,-175.5 82.41,-175.5"/>
<polygon fill="#63b8ff" stroke="#63b8ff" points="134.79,-179 144.79,-175.5 134.79,-172 134.79,-179"/>
</a>
</g>
</g>
<!-- Node11 -->
<g id="Node000011" class="node">
<title>Node11</title>
<g id="a_Node000011"><a xlink:href="../../d5/d4f/classFsFile.xhtml#ab2f85961e3831d0d654da862becb7433" target="_top" xlink:title=" ">
<polygon fill="white" stroke="#666666" points="244,-130 128,-130 128,-111 244,-111 244,-130"/>
<text text-anchor="middle" x="186" y="-118" font-family="Helvetica,sans-Serif" font-size="10.00">FsFile::openNextFile</text>
</a>
</g>
</g>
<!-- Node10&#45;&gt;Node11 -->
<g id="edge11_Node000010_Node000011" class="edge">
<title>Node10&#45;&gt;Node11</title>
<g id="a_edge11_Node000010_Node000011"><a xlink:title=" ">
<path fill="none" stroke="#63b8ff" d="M290.59,-120.5C275.12,-120.5 258.91,-120.5 244.04,-120.5"/>
<polygon fill="#63b8ff" stroke="#63b8ff" points="290.63,-124 300.63,-120.5 290.63,-117 290.63,-124"/>
</a>
</g>
</g>
<!-- Node14 -->
<g id="Node000014" class="node">
<title>Node14</title>
<g id="a_Node000014"><a xlink:href="../../d3/db4/classFatFile.xhtml#a4ca76086a89af45d2cae451b55e6f20f" target="_top" xlink:title=" ">
<polygon fill="white" stroke="#666666" points="430.5,-56 293.5,-56 293.5,-37 430.5,-37 430.5,-56"/>
<text text-anchor="middle" x="362" y="-44" font-family="Helvetica,sans-Serif" font-size="10.00">FatFile::openExistingSFN</text>
</a>
</g>
</g>
<!-- Node13&#45;&gt;Node14 -->
<g id="edge14_Node000013_Node000014" class="edge">
<title>Node13&#45;&gt;Node14</title>
<g id="a_edge14_Node000013_Node000014"><a xlink:title=" ">
<path fill="none" stroke="#63b8ff" d="M461.11,-57.78C451.18,-56.64 440.78,-55.45 430.64,-54.28"/>
<polygon fill="#63b8ff" stroke="#63b8ff" points="460.93,-61.29 471.27,-58.95 461.73,-54.33 460.93,-61.29"/>
</a>
</g>
</g>
<!-- Node16 -->
<g id="Node000016" class="node">
<title>Node16</title>
<g id="a_Node000016"><a xlink:href="../../d8/d15/classFatPartition.xhtml#a78301eeff42c78bc6b45a503e2980f2b" target="_top" xlink:title=" ">
<polygon fill="white" stroke="#666666" points="434,-19 290,-19 290,0 434,0 434,-19"/>
<text text-anchor="middle" x="362" y="-7" font-family="Helvetica,sans-Serif" font-size="10.00">FatPartition::dmpDirSector</text>
</a>
</g>
</g>
<!-- Node15&#45;&gt;Node16 -->
<g id="edge16_Node000015_Node000016" class="edge">
<title>Node15&#45;&gt;Node16</title>
<g id="a_edge16_Node000015_Node000016"><a xlink:title=" ">
<path fill="none" stroke="#63b8ff" d="M476.23,-22.52C463.18,-21.02 448.5,-19.33 434.14,-17.68"/>
<polygon fill="#63b8ff" stroke="#63b8ff" points="475.98,-26.02 486.31,-23.68 476.78,-19.06 475.98,-26.02"/>
</a>
</g>
</g>
<!-- Node17 -->
<g id="Node000017" class="node">
<title>Node17</title>
<g id="a_Node000017"><a xlink:href="../../d8/d15/classFatPartition.xhtml#a76a90edef95322699729f539903ca8b3" target="_top" xlink:title=" ">
<polygon fill="white" stroke="#666666" points="254,-19 118,-19 118,0 254,0 254,-19"/>
<text text-anchor="middle" x="186" y="-7" font-family="Helvetica,sans-Serif" font-size="10.00">FatPartition::dmpRootDir</text>
</a>
</g>
</g>
<!-- Node16&#45;&gt;Node17 -->
<g id="edge17_Node000016_Node000017" class="edge">
<title>Node16&#45;&gt;Node17</title>
<g id="a_edge17_Node000016_Node000017"><a xlink:title=" ">
<path fill="none" stroke="#63b8ff" d="M279.91,-9.5C271.29,-9.5 262.59,-9.5 254.15,-9.5"/>
<polygon fill="#63b8ff" stroke="#63b8ff" points="279.98,-13 289.98,-9.5 279.98,-6 279.98,-13"/>
</a>
</g>
</g>
</g>
</svg>
