<?xml version="1.0" encoding="UTF-8" standalone="no"?>
<!DOCTYPE svg PUBLIC "-//W3C//DTD SVG 1.1//EN"
 "http://www.w3.org/Graphics/SVG/1.1/DTD/svg11.dtd">
<!-- Generated by graphviz version 2.43.0 (0)
 -->
<!-- Title: isFatFileOrSubdir Pages: 1 -->
<svg width="904pt" height="361pt"
 viewBox="0.00 0.00 904.00 360.97" xmlns="http://www.w3.org/2000/svg" xmlns:xlink="http://www.w3.org/1999/xlink">
<g id="graph0" class="graph" transform="scale(1 1) rotate(0) translate(4 356.97)">
<title>isFatFileOrSubdir</title>
<!-- Node1 -->
<g id="Node000001" class="node">
<title>Node1</title>
<g id="a_Node000001"><a xlink:title=" ">
<polygon fill="#999999" stroke="#666666" points="896,-190.62 798,-190.62 798,-171.62 896,-171.62 896,-190.62"/>
<text text-anchor="middle" x="847" y="-178.62" font-family="Helvetica,sans-Serif" font-size="10.00">isFatFileOrSubdir</text>
</a>
</g>
</g>
<!-- Node2 -->
<g id="Node000002" class="node">
<title>Node2</title>
<g id="a_Node000002"><a xlink:href="../../d3/db4/classFatFile_afa1b89789fd86994d0518c69247d8c27.xhtml#afa1b89789fd86994d0518c69247d8c27" target="_top" xlink:title=" ">
<polygon fill="white" stroke="#666666" points="757.5,-322.62 626.5,-322.62 626.5,-303.62 757.5,-303.62 757.5,-322.62"/>
<text text-anchor="middle" x="692" y="-310.62" font-family="Helvetica,sans-Serif" font-size="10.00">FatFile::makeUniqueSfn</text>
</a>
</g>
</g>
<!-- Node1&#45;&gt;Node2 -->
<g id="edge1_Node000001_Node000002" class="edge">
<title>Node1&#45;&gt;Node2</title>
<g id="a_edge1_Node000001_Node000002"><a xlink:title=" ">
<path fill="none" stroke="#63b8ff" d="M837.33,-199.82C824.52,-225.33 798.12,-270.65 762,-295.12 756.98,-298.52 751.35,-301.28 745.53,-303.52"/>
<polygon fill="#63b8ff" stroke="#63b8ff" points="840.49,-201.33 841.7,-190.81 834.19,-198.28 840.49,-201.33"/>
</a>
</g>
</g>
<!-- Node3 -->
<g id="Node000003" class="node">
<title>Node3</title>
<g id="a_Node000003"><a xlink:href="../../d3/db4/classFatFile_aa729447d16ce34a9a575c27ac58dbb12.xhtml#aa729447d16ce34a9a575c27ac58dbb12" target="_top" xlink:title=" ">
<polygon fill="white" stroke="#666666" points="553,-322.62 475,-322.62 475,-303.62 553,-303.62 553,-322.62"/>
<text text-anchor="middle" x="514" y="-310.62" font-family="Helvetica,sans-Serif" font-size="10.00">FatFile::open</text>
</a>
</g>
</g>
<!-- Node1&#45;&gt;Node3 -->
<g id="edge3_Node000001_Node000003" class="edge">
<title>Node1&#45;&gt;Node3</title>
<g id="a_edge3_Node000001_Node000003"><a xlink:title=" ">
<path fill="none" stroke="#63b8ff" d="M841.75,-201.01C833.29,-235.01 810.79,-303.43 762,-332.12 689.15,-374.96 582.61,-340.84 537.02,-322.66"/>
<polygon fill="#63b8ff" stroke="#63b8ff" points="845.24,-201.43 844.1,-190.9 838.43,-199.85 845.24,-201.43"/>
</a>
</g>
</g>
<!-- Node4 -->
<g id="Node000004" class="node">
<title>Node4</title>
<g id="a_Node000004"><a xlink:href="../../d3/db4/classFatFile_aefd095e898758e6008f33cca17e92b72.xhtml#aefd095e898758e6008f33cca17e92b72" target="_top" xlink:title=" ">
<polygon fill="white" stroke="#666666" points="553,-282.62 475,-282.62 475,-263.62 553,-263.62 553,-282.62"/>
<text text-anchor="middle" x="514" y="-270.62" font-family="Helvetica,sans-Serif" font-size="10.00">FatFile::open</text>
</a>
</g>
</g>
<!-- Node1&#45;&gt;Node4 -->
<g id="edge4_Node000001_Node000004" class="edge">
<title>Node1&#45;&gt;Node4</title>
<g id="a_edge4_Node000001_Node000004"><a xlink:title=" ">
<path fill="none" stroke="#63b8ff" d="M815.66,-194.72C799.87,-201.46 780.13,-209.36 762,-215.12 689.37,-238.19 602.11,-256.57 553.15,-266.06"/>
<polygon fill="#63b8ff" stroke="#63b8ff" points="817.14,-197.89 824.93,-190.71 814.36,-191.47 817.14,-197.89"/>
</a>
</g>
</g>
<!-- Node5 -->
<g id="Node000005" class="node">
<title>Node5</title>
<g id="a_Node000005"><a xlink:href="../../d3/db4/classFatFile_ad39f3c4d83135ad181c58306b23df0aa.xhtml#ad39f3c4d83135ad181c58306b23df0aa" target="_top" xlink:title=" ">
<polygon fill="white" stroke="#666666" points="762,-285.62 622,-285.62 622,-266.62 762,-266.62 762,-285.62"/>
<text text-anchor="middle" x="692" y="-273.62" font-family="Helvetica,sans-Serif" font-size="10.00">FatFile::openCachedEntry</text>
</a>
</g>
</g>
<!-- Node1&#45;&gt;Node5 -->
<g id="edge5_Node000001_Node000005" class="edge">
<title>Node1&#45;&gt;Node5</title>
<g id="a_edge5_Node000001_Node000005"><a xlink:title=" ">
<path fill="none" stroke="#63b8ff" d="M829.62,-198.19C813.63,-214.02 787.99,-237.3 762,-252.12 751.64,-258.03 739.59,-262.83 728.48,-266.55"/>
<polygon fill="#63b8ff" stroke="#63b8ff" points="832.51,-200.25 837.05,-190.68 827.53,-195.33 832.51,-200.25"/>
</a>
</g>
</g>
<!-- Node6 -->
<g id="Node000006" class="node">
<title>Node6</title>
<g id="a_Node000006"><a xlink:href="../../d3/db4/classFatFile_acda9b1bf547d43e183e657bee053a48d.xhtml#acda9b1bf547d43e183e657bee053a48d" target="_top" xlink:title=" ">
<polygon fill="white" stroke="#666666" points="564.5,-234.62 463.5,-234.62 463.5,-215.62 564.5,-215.62 564.5,-234.62"/>
<text text-anchor="middle" x="514" y="-222.62" font-family="Helvetica,sans-Serif" font-size="10.00">FatFile::openNext</text>
</a>
</g>
</g>
<!-- Node1&#45;&gt;Node6 -->
<g id="edge18_Node000001_Node000006" class="edge">
<title>Node1&#45;&gt;Node6</title>
<g id="a_edge18_Node000001_Node000006"><a xlink:title=" ">
<path fill="none" stroke="#63b8ff" d="M787.64,-188.88C724.29,-197.3 624.21,-210.6 564.54,-218.53"/>
<polygon fill="#63b8ff" stroke="#63b8ff" points="788.42,-192.31 797.87,-187.52 787.5,-185.37 788.42,-192.31"/>
</a>
</g>
</g>
<!-- Node15 -->
<g id="Node000015" class="node">
<title>Node15</title>
<g id="a_Node000015"><a xlink:href="../../d3/db4/classFatFile_a8aa6e2d722bdf14ef34671beb23488ea.xhtml#a8aa6e2d722bdf14ef34671beb23488ea" target="_top" xlink:title=" ">
<polygon fill="white" stroke="#666666" points="741,-171.62 643,-171.62 643,-152.62 741,-152.62 741,-171.62"/>
<text text-anchor="middle" x="692" y="-159.62" font-family="Helvetica,sans-Serif" font-size="10.00">FatFile::openSFN</text>
</a>
</g>
</g>
<!-- Node1&#45;&gt;Node15 -->
<g id="edge19_Node000001_Node000015" class="edge">
<title>Node1&#45;&gt;Node15</title>
<g id="a_edge19_Node000001_Node000015"><a xlink:title=" ">
<path fill="none" stroke="#63b8ff" d="M787.66,-173.88C772.28,-171.97 755.87,-169.93 741.1,-168.09"/>
<polygon fill="#63b8ff" stroke="#63b8ff" points="787.23,-177.35 797.59,-175.11 788.1,-170.4 787.23,-177.35"/>
</a>
</g>
</g>
<!-- Node17 -->
<g id="Node000017" class="node">
<title>Node17</title>
<g id="a_Node000017"><a xlink:href="../../d4/df1/FatDbg_8cpp_a5afaaddc4da2b3b746042bf8c7ba19a4.xhtml#a5afaaddc4da2b3b746042bf8c7ba19a4" target="_top" xlink:title=" ">
<polygon fill="white" stroke="#666666" points="726,-134.62 658,-134.62 658,-115.62 726,-115.62 726,-134.62"/>
<text text-anchor="middle" x="692" y="-122.62" font-family="Helvetica,sans-Serif" font-size="10.00">printFatDir</text>
</a>
</g>
</g>
<!-- Node1&#45;&gt;Node17 -->
<g id="edge21_Node000001_Node000017" class="edge">
<title>Node1&#45;&gt;Node17</title>
<g id="a_edge21_Node000001_Node000017"><a xlink:title=" ">
<path fill="none" stroke="#63b8ff" d="M816.97,-167.08C800.98,-159.66 780.65,-150.76 762,-144.12 750.53,-140.04 737.73,-136.3 726.3,-133.24"/>
<polygon fill="#63b8ff" stroke="#63b8ff" points="815.77,-170.38 826.3,-171.46 818.74,-164.04 815.77,-170.38"/>
</a>
</g>
</g>
<!-- Node20 -->
<g id="Node000020" class="node">
<title>Node20</title>
<g id="a_Node000020"><a xlink:href="../../d3/db4/classFatFile_a29502cd34ef186763d2196daef27df1f.xhtml#a29502cd34ef186763d2196daef27df1f" target="_top" xlink:title=" ">
<polygon fill="white" stroke="#666666" points="737,-97.62 647,-97.62 647,-78.62 737,-78.62 737,-97.62"/>
<text text-anchor="middle" x="692" y="-85.62" font-family="Helvetica,sans-Serif" font-size="10.00">FatFile::readDir</text>
</a>
</g>
</g>
<!-- Node1&#45;&gt;Node20 -->
<g id="edge24_Node000001_Node000020" class="edge">
<title>Node1&#45;&gt;Node20</title>
<g id="a_edge24_Node000001_Node000020"><a xlink:title=" ">
<path fill="none" stroke="#63b8ff" d="M831.26,-163.85C815.72,-146.73 789.69,-120.96 762,-106.12 754.36,-102.03 745.74,-98.83 737.25,-96.34"/>
<polygon fill="#63b8ff" stroke="#63b8ff" points="828.76,-166.31 838.01,-171.48 834,-161.67 828.76,-166.31"/>
</a>
</g>
</g>
<!-- Node21 -->
<g id="Node000021" class="node">
<title>Node21</title>
<g id="a_Node000021"><a xlink:href="../../d3/db4/classFatFile_a9515bac181d33e7f0125e88fa2ccd283.xhtml#a9515bac181d33e7f0125e88fa2ccd283" target="_top" xlink:title=" ">
<polygon fill="white" stroke="#666666" points="732,-60.62 652,-60.62 652,-41.62 732,-41.62 732,-60.62"/>
<text text-anchor="middle" x="692" y="-48.62" font-family="Helvetica,sans-Serif" font-size="10.00">FatFile::rmdir</text>
</a>
</g>
</g>
<!-- Node1&#45;&gt;Node21 -->
<g id="edge25_Node000001_Node000021" class="edge">
<title>Node1&#45;&gt;Node21</title>
<g id="a_edge25_Node000001_Node000021"><a xlink:title=" ">
<path fill="none" stroke="#63b8ff" d="M837.07,-162.41C824.1,-137.29 797.65,-93.05 762,-69.12 753.16,-63.19 742.47,-59.21 732.18,-56.54"/>
<polygon fill="#63b8ff" stroke="#63b8ff" points="834.06,-164.22 841.65,-171.6 840.32,-161.09 834.06,-164.22"/>
</a>
</g>
</g>
<!-- Node24 -->
<g id="Node000024" class="node">
<title>Node24</title>
<g id="a_Node000024"><a xlink:href="../../d3/db4/classFatFile_ac780a80526f86d3def701ecdc99d8bfe.xhtml#ac780a80526f86d3def701ecdc99d8bfe" target="_top" xlink:title=" ">
<polygon fill="white" stroke="#666666" points="563,-23.62 465,-23.62 465,-4.62 563,-4.62 563,-23.62"/>
<text text-anchor="middle" x="514" y="-11.62" font-family="Helvetica,sans-Serif" font-size="10.00">FatFile::rmRfStar</text>
</a>
</g>
</g>
<!-- Node1&#45;&gt;Node24 -->
<g id="edge29_Node000001_Node000024" class="edge">
<title>Node1&#45;&gt;Node24</title>
<g id="a_edge29_Node000001_Node000024"><a xlink:title=" ">
<path fill="none" stroke="#63b8ff" d="M841.32,-161.37C832.29,-128.2 809.09,-61.98 762,-32.12 701.9,5.98 616.28,2.34 563.25,-4.99"/>
<polygon fill="#63b8ff" stroke="#63b8ff" points="837.98,-162.44 843.85,-171.26 844.76,-160.7 837.98,-162.44"/>
</a>
</g>
</g>
<!-- Node2&#45;&gt;Node3 -->
<g id="edge2_Node000002_Node000003" class="edge">
<title>Node2&#45;&gt;Node3</title>
<g id="a_edge2_Node000002_Node000003"><a xlink:title=" ">
<path fill="none" stroke="#63b8ff" d="M616.24,-313.12C594.49,-313.12 571.64,-313.12 553.17,-313.12"/>
<polygon fill="#63b8ff" stroke="#63b8ff" points="616.46,-316.62 626.46,-313.12 616.46,-309.62 616.46,-316.62"/>
</a>
</g>
</g>
<!-- Node5&#45;&gt;Node3 -->
<g id="edge6_Node000005_Node000003" class="edge">
<title>Node5&#45;&gt;Node3</title>
<g id="a_edge6_Node000005_Node000003"><a xlink:title=" ">
<path fill="none" stroke="#63b8ff" d="M635.63,-287.76C608.76,-293.41 577.15,-300.06 553.03,-305.13"/>
<polygon fill="#63b8ff" stroke="#63b8ff" points="636.61,-291.13 645.68,-285.65 635.17,-284.28 636.61,-291.13"/>
</a>
</g>
</g>
<!-- Node5&#45;&gt;Node4 -->
<g id="edge7_Node000005_Node000004" class="edge">
<title>Node5&#45;&gt;Node4</title>
<g id="a_edge7_Node000005_Node000004"><a xlink:title=" ">
<path fill="none" stroke="#63b8ff" d="M611.74,-274.77C591.47,-274.42 570.57,-274.07 553.41,-273.78"/>
<polygon fill="#63b8ff" stroke="#63b8ff" points="611.89,-278.27 621.95,-274.94 612.01,-271.27 611.89,-278.27"/>
</a>
</g>
</g>
<!-- Node5&#45;&gt;Node6 -->
<g id="edge8_Node000005_Node000006" class="edge">
<title>Node5&#45;&gt;Node6</title>
<g id="a_edge8_Node000005_Node000006"><a xlink:title=" ">
<path fill="none" stroke="#63b8ff" d="M648.26,-263.74C617.39,-254.79 576.3,-242.88 547.96,-234.67"/>
<polygon fill="#63b8ff" stroke="#63b8ff" points="647.32,-267.11 657.9,-266.53 649.27,-260.38 647.32,-267.11"/>
</a>
</g>
</g>
<!-- Node7 -->
<g id="Node000007" class="node">
<title>Node7</title>
<g id="a_Node000007"><a xlink:href="../../d3/db4/classFatFile_a60ab9d16bcc778150a364c26de467de1.xhtml#a60ab9d16bcc778150a364c26de467de1" target="_top" xlink:title=" ">
<polygon fill="white" stroke="#666666" points="369,-176.62 307,-176.62 307,-157.62 369,-157.62 369,-176.62"/>
<text text-anchor="middle" x="338" y="-164.62" font-family="Helvetica,sans-Serif" font-size="10.00">FatFile::ls</text>
</a>
</g>
</g>
<!-- Node6&#45;&gt;Node7 -->
<g id="edge9_Node000006_Node000007" class="edge">
<title>Node6&#45;&gt;Node7</title>
<g id="a_edge9_Node000006_Node000007"><a xlink:title=" ">
<path fill="none" stroke="#63b8ff" d="M474.71,-212.36C442.45,-201.6 397.01,-186.46 367.78,-176.71"/>
<polygon fill="#63b8ff" stroke="#63b8ff" points="473.67,-215.7 484.27,-215.54 475.89,-209.06 473.67,-215.7"/>
</a>
</g>
</g>
<!-- Node11 -->
<g id="Node000011" class="node">
<title>Node11</title>
<g id="a_Node000011"><a xlink:href="../../d3/db4/classFatFile_a5318ee7a7700ff23721497945fba363d.xhtml#a5318ee7a7700ff23721497945fba363d" target="_top" xlink:title=" ">
<polygon fill="white" stroke="#666666" points="377,-305.62 299,-305.62 299,-286.62 377,-286.62 377,-305.62"/>
<text text-anchor="middle" x="338" y="-293.62" font-family="Helvetica,sans-Serif" font-size="10.00">FatFile::open</text>
</a>
</g>
</g>
<!-- Node6&#45;&gt;Node11 -->
<g id="edge14_Node000006_Node000011" class="edge">
<title>Node6&#45;&gt;Node11</title>
<g id="a_edge14_Node000006_Node000011"><a xlink:title=" ">
<path fill="none" stroke="#63b8ff" d="M478.11,-238.49C466.43,-243.32 453.47,-249.09 442,-255.12 425.2,-263.96 423.37,-270.46 406,-278.12 396.96,-282.11 386.84,-285.39 377.26,-288"/>
<polygon fill="#63b8ff" stroke="#63b8ff" points="479.6,-241.66 487.55,-234.66 476.97,-235.17 479.6,-241.66"/>
</a>
</g>
</g>
<!-- Node12 -->
<g id="Node000012" class="node">
<title>Node12</title>
<g id="a_Node000012"><a xlink:href="../../d0/db5/classFsBaseFile_acb9b1075f4db76fa7e0521c9aff9c3df.xhtml#acb9b1075f4db76fa7e0521c9aff9c3df" target="_top" xlink:title=" ">
<polygon fill="white" stroke="#666666" points="399,-268.62 277,-268.62 277,-249.62 399,-249.62 399,-268.62"/>
<text text-anchor="middle" x="338" y="-256.62" font-family="Helvetica,sans-Serif" font-size="10.00">FsBaseFile::openNext</text>
</a>
</g>
</g>
<!-- Node6&#45;&gt;Node12 -->
<g id="edge15_Node000006_Node000012" class="edge">
<title>Node6&#45;&gt;Node12</title>
<g id="a_edge15_Node000006_Node000012"><a xlink:title=" ">
<path fill="none" stroke="#63b8ff" d="M454.06,-236.64C432.52,-240.85 408.42,-245.55 387.87,-249.57"/>
<polygon fill="#63b8ff" stroke="#63b8ff" points="454.93,-240.03 464.07,-234.68 453.58,-233.16 454.93,-240.03"/>
</a>
</g>
</g>
<!-- Node14 -->
<g id="Node000014" class="node">
<title>Node14</title>
<g id="a_Node000014"><a xlink:href="../../d6/d53/classFile32_adc01f4a1ebc44ef36f3ffb8295c8d779.xhtml#adc01f4a1ebc44ef36f3ffb8295c8d779" target="_top" xlink:title=" ">
<polygon fill="white" stroke="#666666" points="396,-231.62 280,-231.62 280,-212.62 396,-212.62 396,-231.62"/>
<text text-anchor="middle" x="338" y="-219.62" font-family="Helvetica,sans-Serif" font-size="10.00">File32::openNextFile</text>
</a>
</g>
</g>
<!-- Node6&#45;&gt;Node14 -->
<g id="edge17_Node000006_Node000014" class="edge">
<title>Node6&#45;&gt;Node14</title>
<g id="a_edge17_Node000006_Node000014"><a xlink:title=" ">
<path fill="none" stroke="#63b8ff" d="M453.11,-224.09C434.69,-223.77 414.47,-223.42 396.23,-223.11"/>
<polygon fill="#63b8ff" stroke="#63b8ff" points="453.08,-227.59 463.14,-224.26 453.2,-220.59 453.08,-227.59"/>
</a>
</g>
</g>
<!-- Node7&#45;&gt;Node7 -->
<g id="edge13_Node000007_Node000007" class="edge">
<title>Node7&#45;&gt;Node7</title>
<g id="a_edge13_Node000007_Node000007"><a xlink:title=" ">
<path fill="none" stroke="#63b8ff" d="M368.24,-185.44C366.98,-190.63 356.9,-194.62 338,-194.62 309.21,-194.62 300.88,-185.35 313.03,-176.7"/>
<polygon fill="#63b8ff" stroke="#63b8ff" points="371.13,-183.46 362.97,-176.7 365.14,-187.07 371.13,-183.46"/>
</a>
</g>
</g>
<!-- Node8 -->
<g id="Node000008" class="node">
<title>Node8</title>
<g id="a_Node000008"><a xlink:href="../../d3/dd5/classFatVolume_ac5fc83cac7fd3af0b140a7986b9472f8.xhtml#ac5fc83cac7fd3af0b140a7986b9472f8" target="_top" xlink:title=" ">
<polygon fill="white" stroke="#666666" points="217,-194.62 135,-194.62 135,-175.62 217,-175.62 217,-194.62"/>
<text text-anchor="middle" x="176" y="-182.62" font-family="Helvetica,sans-Serif" font-size="10.00">FatVolume::ls</text>
</a>
</g>
</g>
<!-- Node7&#45;&gt;Node8 -->
<g id="edge10_Node000007_Node000008" class="edge">
<title>Node7&#45;&gt;Node8</title>
<g id="a_edge10_Node000007_Node000008"><a xlink:title=" ">
<path fill="none" stroke="#63b8ff" d="M296.92,-171.63C272.57,-174.37 241.6,-177.85 217.23,-180.59"/>
<polygon fill="#63b8ff" stroke="#63b8ff" points="297.36,-175.1 306.91,-170.51 296.58,-168.15 297.36,-175.1"/>
</a>
</g>
</g>
<!-- Node9 -->
<g id="Node000009" class="node">
<title>Node9</title>
<g id="a_Node000009"><a xlink:href="../../d3/dd5/classFatVolume_ae40964f357cfff4208812344a0e6f26f.xhtml#ae40964f357cfff4208812344a0e6f26f" target="_top" xlink:title=" ">
<polygon fill="white" stroke="#666666" points="217,-157.62 135,-157.62 135,-138.62 217,-138.62 217,-157.62"/>
<text text-anchor="middle" x="176" y="-145.62" font-family="Helvetica,sans-Serif" font-size="10.00">FatVolume::ls</text>
</a>
</g>
</g>
<!-- Node7&#45;&gt;Node9 -->
<g id="edge11_Node000007_Node000009" class="edge">
<title>Node7&#45;&gt;Node9</title>
<g id="a_edge11_Node000007_Node000009"><a xlink:title=" ">
<path fill="none" stroke="#63b8ff" d="M296.92,-162.36C272.57,-159.47 241.6,-155.79 217.23,-152.9"/>
<polygon fill="#63b8ff" stroke="#63b8ff" points="296.56,-165.84 306.91,-163.55 297.39,-158.89 296.56,-165.84"/>
</a>
</g>
</g>
<!-- Node10 -->
<g id="Node000010" class="node">
<title>Node10</title>
<g id="a_Node000010"><a xlink:href="../../d3/dd5/classFatVolume_a455ad7b2a5b6b31551dca08087a3c404.xhtml#a455ad7b2a5b6b31551dca08087a3c404" target="_top" xlink:title=" ">
<polygon fill="white" stroke="#666666" points="82,-157.62 0,-157.62 0,-138.62 82,-138.62 82,-157.62"/>
<text text-anchor="middle" x="41" y="-145.62" font-family="Helvetica,sans-Serif" font-size="10.00">FatVolume::ls</text>
</a>
</g>
</g>
<!-- Node9&#45;&gt;Node10 -->
<g id="edge12_Node000009_Node000010" class="edge">
<title>Node9&#45;&gt;Node10</title>
<g id="a_edge12_Node000009_Node000010"><a xlink:title=" ">
<path fill="none" stroke="#63b8ff" d="M124.71,-148.12C110.63,-148.12 95.53,-148.12 82.13,-148.12"/>
<polygon fill="#63b8ff" stroke="#63b8ff" points="124.73,-151.62 134.73,-148.12 124.73,-144.62 124.73,-151.62"/>
</a>
</g>
</g>
<!-- Node13 -->
<g id="Node000013" class="node">
<title>Node13</title>
<g id="a_Node000013"><a xlink:href="../../d5/d4f/classFsFile_ab2f85961e3831d0d654da862becb7433.xhtml#ab2f85961e3831d0d654da862becb7433" target="_top" xlink:title=" ">
<polygon fill="white" stroke="#666666" points="234,-268.62 118,-268.62 118,-249.62 234,-249.62 234,-268.62"/>
<text text-anchor="middle" x="176" y="-256.62" font-family="Helvetica,sans-Serif" font-size="10.00">FsFile::openNextFile</text>
</a>
</g>
</g>
<!-- Node12&#45;&gt;Node13 -->
<g id="edge16_Node000012_Node000013" class="edge">
<title>Node12&#45;&gt;Node13</title>
<g id="a_edge16_Node000012_Node000013"><a xlink:title=" ">
<path fill="none" stroke="#63b8ff" d="M266.66,-259.12C255.81,-259.12 244.71,-259.12 234.19,-259.12"/>
<polygon fill="#63b8ff" stroke="#63b8ff" points="266.97,-262.62 276.97,-259.12 266.97,-255.62 266.97,-262.62"/>
</a>
</g>
</g>
<!-- Node16 -->
<g id="Node000016" class="node">
<title>Node16</title>
<g id="a_Node000016"><a xlink:href="../../d3/db4/classFatFile_a4ca76086a89af45d2cae451b55e6f20f.xhtml#a4ca76086a89af45d2cae451b55e6f20f" target="_top" xlink:title=" ">
<polygon fill="white" stroke="#666666" points="582.5,-171.62 445.5,-171.62 445.5,-152.62 582.5,-152.62 582.5,-171.62"/>
<text text-anchor="middle" x="514" y="-159.62" font-family="Helvetica,sans-Serif" font-size="10.00">FatFile::openExistingSFN</text>
</a>
</g>
</g>
<!-- Node15&#45;&gt;Node16 -->
<g id="edge20_Node000015_Node000016" class="edge">
<title>Node15&#45;&gt;Node16</title>
<g id="a_edge20_Node000015_Node000016"><a xlink:title=" ">
<path fill="none" stroke="#63b8ff" d="M632.66,-162.12C616.7,-162.12 599.27,-162.12 582.83,-162.12"/>
<polygon fill="#63b8ff" stroke="#63b8ff" points="632.91,-165.62 642.91,-162.12 632.91,-158.62 632.91,-165.62"/>
</a>
</g>
</g>
<!-- Node18 -->
<g id="Node000018" class="node">
<title>Node18</title>
<g id="a_Node000018"><a xlink:href="../../d8/d15/classFatPartition_a78301eeff42c78bc6b45a503e2980f2b.xhtml#a78301eeff42c78bc6b45a503e2980f2b" target="_top" xlink:title=" ">
<polygon fill="white" stroke="#666666" points="586,-134.62 442,-134.62 442,-115.62 586,-115.62 586,-134.62"/>
<text text-anchor="middle" x="514" y="-122.62" font-family="Helvetica,sans-Serif" font-size="10.00">FatPartition::dmpDirSector</text>
</a>
</g>
</g>
<!-- Node17&#45;&gt;Node18 -->
<g id="edge22_Node000017_Node000018" class="edge">
<title>Node17&#45;&gt;Node18</title>
<g id="a_edge22_Node000017_Node000018"><a xlink:title=" ">
<path fill="none" stroke="#63b8ff" d="M647.72,-125.12C629.19,-125.12 607.06,-125.12 586.23,-125.12"/>
<polygon fill="#63b8ff" stroke="#63b8ff" points="647.9,-128.62 657.9,-125.12 647.9,-121.62 647.9,-128.62"/>
</a>
</g>
</g>
<!-- Node19 -->
<g id="Node000019" class="node">
<title>Node19</title>
<g id="a_Node000019"><a xlink:href="../../d8/d15/classFatPartition_a76a90edef95322699729f539903ca8b3.xhtml#a76a90edef95322699729f539903ca8b3" target="_top" xlink:title=" ">
<polygon fill="white" stroke="#666666" points="406,-134.62 270,-134.62 270,-115.62 406,-115.62 406,-134.62"/>
<text text-anchor="middle" x="338" y="-122.62" font-family="Helvetica,sans-Serif" font-size="10.00">FatPartition::dmpRootDir</text>
</a>
</g>
</g>
<!-- Node18&#45;&gt;Node19 -->
<g id="edge23_Node000018_Node000019" class="edge">
<title>Node18&#45;&gt;Node19</title>
<g id="a_edge23_Node000018_Node000019"><a xlink:title=" ">
<path fill="none" stroke="#63b8ff" d="M431.91,-125.12C423.29,-125.12 414.59,-125.12 406.15,-125.12"/>
<polygon fill="#63b8ff" stroke="#63b8ff" points="431.98,-128.62 441.98,-125.12 431.98,-121.62 431.98,-128.62"/>
</a>
</g>
</g>
<!-- Node22 -->
<g id="Node000022" class="node">
<title>Node22</title>
<g id="a_Node000022"><a xlink:href="../../d0/db5/classFsBaseFile_ac47870fd89b0849cda33f2780918a286.xhtml#ac47870fd89b0849cda33f2780918a286" target="_top" xlink:title=" ">
<polygon fill="white" stroke="#666666" points="564.5,-97.62 463.5,-97.62 463.5,-78.62 564.5,-78.62 564.5,-97.62"/>
<text text-anchor="middle" x="514" y="-85.62" font-family="Helvetica,sans-Serif" font-size="10.00">FsBaseFile::rmdir</text>
</a>
</g>
</g>
<!-- Node21&#45;&gt;Node22 -->
<g id="edge26_Node000021_Node000022" class="edge">
<title>Node21&#45;&gt;Node22</title>
<g id="a_edge26_Node000021_Node000022"><a xlink:title=" ">
<path fill="none" stroke="#63b8ff" d="M642.09,-61.4C616.55,-66.77 585.5,-73.3 560.49,-78.56"/>
<polygon fill="#63b8ff" stroke="#63b8ff" points="642.87,-64.81 651.94,-59.33 641.43,-57.96 642.87,-64.81"/>
</a>
</g>
</g>
<!-- Node23 -->
<g id="Node000023" class="node">
<title>Node23</title>
<g id="a_Node000023"><a xlink:href="../../d3/dd5/classFatVolume_af1181990bcece7dbb7d19293dd4fe11a.xhtml#af1181990bcece7dbb7d19293dd4fe11a" target="_top" xlink:title=" ">
<polygon fill="white" stroke="#666666" points="564,-60.62 464,-60.62 464,-41.62 564,-41.62 564,-60.62"/>
<text text-anchor="middle" x="514" y="-48.62" font-family="Helvetica,sans-Serif" font-size="10.00">FatVolume::rmdir</text>
</a>
</g>
</g>
<!-- Node21&#45;&gt;Node23 -->
<g id="edge27_Node000021_Node000023" class="edge">
<title>Node21&#45;&gt;Node23</title>
<g id="a_edge27_Node000021_Node000023"><a xlink:title=" ">
<path fill="none" stroke="#63b8ff" d="M641.86,-51.12C617.56,-51.12 588.31,-51.12 564.03,-51.12"/>
<polygon fill="#63b8ff" stroke="#63b8ff" points="641.94,-54.62 651.94,-51.12 641.94,-47.62 641.94,-54.62"/>
</a>
</g>
</g>
<!-- Node21&#45;&gt;Node24 -->
<g id="edge28_Node000021_Node000024" class="edge">
<title>Node21&#45;&gt;Node24</title>
<g id="a_edge28_Node000021_Node000024"><a xlink:title=" ">
<path fill="none" stroke="#63b8ff" d="M642.09,-40.84C616.55,-35.47 585.5,-28.94 560.49,-23.68"/>
<polygon fill="#63b8ff" stroke="#63b8ff" points="641.43,-44.28 651.94,-42.91 642.87,-37.43 641.43,-44.28"/>
</a>
</g>
</g>
</g>
</svg>
