<?xml version="1.0" encoding="UTF-8" standalone="no"?>
<!DOCTYPE svg PUBLIC "-//W3C//DTD SVG 1.1//EN"
 "http://www.w3.org/Graphics/SVG/1.1/DTD/svg11.dtd">
<!-- Generated by graphviz version 2.43.0 (0)
 -->
<!-- Title: ISR Pages: 1 -->
<svg width="354pt" height="64pt"
 viewBox="0.00 0.00 354.00 64.00" xmlns="http://www.w3.org/2000/svg" xmlns:xlink="http://www.w3.org/1999/xlink">
<g id="graph0" class="graph" transform="scale(1 1) rotate(0) translate(4 60)">
<title>ISR</title>
<!-- Node1 -->
<g id="Node000001" class="node">
<title>Node1</title>
<g id="a_Node000001"><a xlink:title=" ">
<polygon fill="#999999" stroke="#666666" points="32,-37 0,-37 0,-18 32,-18 32,-37"/>
<text text-anchor="middle" x="16" y="-25" font-family="Helvetica,sans-Serif" font-size="10.00">ISR</text>
</a>
</g>
</g>
<!-- Node2 -->
<g id="Node000002" class="node">
<title>Node2</title>
<g id="a_Node000002"><a xlink:href="../../dd/d0c/Tone_8cpp_aeb6515d3e5c6a2079e5bccb03fc6c4f7.xhtml#aeb6515d3e5c6a2079e5bccb03fc6c4f7" target="_top" xlink:title=" ">
<polygon fill="white" stroke="#666666" points="119,-37 68,-37 68,-18 119,-18 119,-37"/>
<text text-anchor="middle" x="93.5" y="-25" font-family="Helvetica,sans-Serif" font-size="10.00">noTone</text>
</a>
</g>
</g>
<!-- Node1&#45;&gt;Node2 -->
<g id="edge1_Node000001_Node000002" class="edge">
<title>Node1&#45;&gt;Node2</title>
<g id="a_edge1_Node000001_Node000002"><a xlink:title=" ">
<path fill="none" stroke="#63b8ff" d="M32.28,-27.5C39.59,-27.5 48.66,-27.5 57.53,-27.5"/>
<polygon fill="#63b8ff" stroke="#63b8ff" points="57.73,-31 67.73,-27.5 57.73,-24 57.73,-31"/>
</a>
</g>
</g>
<!-- Node3 -->
<g id="Node000003" class="node">
<title>Node3</title>
<g id="a_Node000003"><a xlink:href="../../d5/d45/wiring__digital_8c_a73b9b61feeaf7d790d107f2954a7fd93.xhtml#a73b9b61feeaf7d790d107f2954a7fd93" target="_top" xlink:title=" ">
<polygon fill="white" stroke="#666666" points="232,-56 158,-56 158,-37 232,-37 232,-56"/>
<text text-anchor="middle" x="195" y="-44" font-family="Helvetica,sans-Serif" font-size="10.00">digitalWrite</text>
</a>
</g>
</g>
<!-- Node2&#45;&gt;Node3 -->
<g id="edge2_Node000002_Node000003" class="edge">
<title>Node2&#45;&gt;Node3</title>
<g id="a_edge2_Node000002_Node000003"><a xlink:title=" ">
<path fill="none" stroke="#63b8ff" d="M119.1,-32.2C127.72,-33.84 137.72,-35.75 147.55,-37.63"/>
<polygon fill="#63b8ff" stroke="#63b8ff" points="147.18,-41.12 157.66,-39.56 148.49,-34.25 147.18,-41.12"/>
</a>
</g>
</g>
<!-- Node5 -->
<g id="Node000005" class="node">
<title>Node5</title>
<g id="a_Node000005"><a xlink:href="../../dd/d0c/Tone_8cpp_a3768cb4f8fbed3025c554248a60ce202.xhtml#a3768cb4f8fbed3025c554248a60ce202" target="_top" xlink:title=" ">
<polygon fill="white" stroke="#666666" points="235,-19 155,-19 155,0 235,0 235,-19"/>
<text text-anchor="middle" x="195" y="-7" font-family="Helvetica,sans-Serif" font-size="10.00">disableTimer</text>
</a>
</g>
</g>
<!-- Node2&#45;&gt;Node5 -->
<g id="edge4_Node000002_Node000005" class="edge">
<title>Node2&#45;&gt;Node5</title>
<g id="a_edge4_Node000002_Node000005"><a xlink:title=" ">
<path fill="none" stroke="#63b8ff" d="M119.1,-23.05C126.96,-21.63 135.95,-20 144.92,-18.38"/>
<polygon fill="#63b8ff" stroke="#63b8ff" points="145.76,-21.78 154.97,-16.56 144.51,-14.9 145.76,-21.78"/>
</a>
</g>
</g>
<!-- Node4 -->
<g id="Node000004" class="node">
<title>Node4</title>
<g id="a_Node000004"><a xlink:href="../../d5/d45/wiring__digital_8c_ae3d0bcbe4eb927ca8f5d5c21b7e4f224.xhtml#ae3d0bcbe4eb927ca8f5d5c21b7e4f224" target="_top" xlink:title=" ">
<polygon fill="white" stroke="#666666" points="346,-56 271,-56 271,-37 346,-37 346,-56"/>
<text text-anchor="middle" x="308.5" y="-44" font-family="Helvetica,sans-Serif" font-size="10.00">turnOffPWM</text>
</a>
</g>
</g>
<!-- Node3&#45;&gt;Node4 -->
<g id="edge3_Node000003_Node000004" class="edge">
<title>Node3&#45;&gt;Node4</title>
<g id="a_edge3_Node000003_Node000004"><a xlink:title=" ">
<path fill="none" stroke="#63b8ff" d="M232.2,-46.5C241.26,-46.5 251.11,-46.5 260.6,-46.5"/>
<polygon fill="#63b8ff" stroke="#63b8ff" points="260.72,-50 270.72,-46.5 260.72,-43 260.72,-50"/>
</a>
</g>
</g>
</g>
</svg>
