<?xml version="1.0" encoding="UTF-8" standalone="no"?>
<!DOCTYPE svg PUBLIC "-//W3C//DTD SVG 1.1//EN"
 "http://www.w3.org/Graphics/SVG/1.1/DTD/svg11.dtd">
<!-- Generated by graphviz version 2.43.0 (0)
 -->
<!-- Title: Print::print Pages: 1 -->
<svg width="325pt" height="103pt"
 viewBox="0.00 0.00 325.00 103.00" xmlns="http://www.w3.org/2000/svg" xmlns:xlink="http://www.w3.org/1999/xlink">
<g id="graph0" class="graph" transform="scale(1 1) rotate(0) translate(4 99)">
<title>Print::print</title>
<!-- Node1 -->
<g id="Node000001" class="node">
<title>Node1</title>
<g id="a_Node000001"><a xlink:title=" ">
<polygon fill="#999999" stroke="#666666" points="68,-57 0,-57 0,-38 68,-38 68,-57"/>
<text text-anchor="middle" x="34" y="-45" font-family="Helvetica,sans-Serif" font-size="10.00">Print::print</text>
</a>
</g>
</g>
<!-- Node2 -->
<g id="Node000002" class="node">
<title>Node2</title>
<g id="a_Node000002"><a xlink:href="../../d9/df9/classPrint.xhtml#ab8fa28ed8d61e57132ed82e8bf302070" target="_top" xlink:title=" ">
<polygon fill="white" stroke="#666666" points="191.5,-95 123.5,-95 123.5,-76 191.5,-76 191.5,-95"/>
<text text-anchor="middle" x="157.5" y="-83" font-family="Helvetica,sans-Serif" font-size="10.00">Print::print</text>
</a>
</g>
</g>
<!-- Node1&#45;&gt;Node2 -->
<g id="edge1_Node000001_Node000002" class="edge">
<title>Node1&#45;&gt;Node2</title>
<g id="a_edge1_Node000001_Node000002"><a xlink:title=" ">
<path fill="none" stroke="#63b8ff" d="M65.66,-57.09C80.91,-61.86 99.55,-67.69 115.97,-72.82"/>
<polygon fill="#63b8ff" stroke="#63b8ff" points="115.26,-76.27 125.85,-75.91 117.35,-69.59 115.26,-76.27"/>
</a>
</g>
</g>
<!-- Node3 -->
<g id="Node000003" class="node">
<title>Node3</title>
<g id="a_Node000003"><a xlink:href="../../d9/df9/classPrint.xhtml#a5be30d49adae2406a270c29ba9a3e0a3" target="_top" xlink:title=" ">
<polygon fill="white" stroke="#666666" points="317,-57 247,-57 247,-38 317,-38 317,-57"/>
<text text-anchor="middle" x="282" y="-45" font-family="Helvetica,sans-Serif" font-size="10.00">Print::write</text>
</a>
</g>
</g>
<!-- Node1&#45;&gt;Node3 -->
<g id="edge5_Node000001_Node000003" class="edge">
<title>Node1&#45;&gt;Node3</title>
<g id="a_edge5_Node000001_Node000003"><a xlink:title=" ">
<path fill="none" stroke="#63b8ff" d="M68.18,-47.5C111.67,-47.5 188.12,-47.5 236.58,-47.5"/>
<polygon fill="#63b8ff" stroke="#63b8ff" points="236.77,-51 246.77,-47.5 236.77,-44 236.77,-51"/>
</a>
</g>
</g>
<!-- Node4 -->
<g id="Node000004" class="node">
<title>Node4</title>
<g id="a_Node000004"><a xlink:href="../../d9/df9/classPrint.xhtml#abe7ee1c0946399820a61e1ec39419ee2" target="_top" xlink:title=" ">
<polygon fill="white" stroke="#666666" points="211,-19 104,-19 104,0 211,0 211,-19"/>
<text text-anchor="middle" x="157.5" y="-7" font-family="Helvetica,sans-Serif" font-size="10.00">Print::printNumber</text>
</a>
</g>
</g>
<!-- Node1&#45;&gt;Node4 -->
<g id="edge3_Node000001_Node000004" class="edge">
<title>Node1&#45;&gt;Node4</title>
<g id="a_edge3_Node000001_Node000004"><a xlink:title=" ">
<path fill="none" stroke="#63b8ff" d="M65.66,-37.91C80.91,-33.14 99.55,-27.31 115.97,-22.18"/>
<polygon fill="#63b8ff" stroke="#63b8ff" points="117.35,-25.41 125.85,-19.09 115.26,-18.73 117.35,-25.41"/>
</a>
</g>
</g>
<!-- Node2&#45;&gt;Node3 -->
<g id="edge2_Node000002_Node000003" class="edge">
<title>Node2&#45;&gt;Node3</title>
<g id="a_edge2_Node000002_Node000003"><a xlink:title=" ">
<path fill="none" stroke="#63b8ff" d="M189.41,-75.91C204.79,-71.14 223.58,-65.31 240.13,-60.18"/>
<polygon fill="#63b8ff" stroke="#63b8ff" points="241.58,-63.39 250.1,-57.09 239.51,-56.71 241.58,-63.39"/>
</a>
</g>
</g>
<!-- Node4&#45;&gt;Node3 -->
<g id="edge4_Node000004_Node000003" class="edge">
<title>Node4&#45;&gt;Node3</title>
<g id="a_edge4_Node000004_Node000003"><a xlink:title=" ">
<path fill="none" stroke="#63b8ff" d="M189.41,-19.09C204.79,-23.86 223.58,-29.69 240.13,-34.82"/>
<polygon fill="#63b8ff" stroke="#63b8ff" points="239.51,-38.29 250.1,-37.91 241.58,-31.61 239.51,-38.29"/>
</a>
</g>
</g>
</g>
</svg>
