<?xml version="1.0" encoding="UTF-8" standalone="no"?>
<!DOCTYPE svg PUBLIC "-//W3C//DTD SVG 1.1//EN"
 "http://www.w3.org/Graphics/SVG/1.1/DTD/svg11.dtd">
<!-- Generated by graphviz version 2.43.0 (0)
 -->
<!-- Title: Tiny_BME280::readAltitude Pages: 1 -->
<svg width="711pt" height="46pt"
 viewBox="0.00 0.00 711.00 46.00" xmlns="http://www.w3.org/2000/svg" xmlns:xlink="http://www.w3.org/1999/xlink">
<g id="graph0" class="graph" transform="scale(1 1) rotate(0) translate(4 42)">
<title>Tiny_BME280::readAltitude</title>
<!-- Node1 -->
<g id="Node000001" class="node">
<title>Node1</title>
<g id="a_Node000001"><a xlink:title=" ">
<polygon fill="#999999" stroke="#666666" points="149,-38 0,-38 0,-19 149,-19 149,-38"/>
<text text-anchor="middle" x="74.5" y="-26" font-family="Helvetica,sans-Serif" font-size="10.00">Tiny_BME280::readAltitude</text>
</a>
</g>
</g>
<!-- Node2 -->
<g id="Node000002" class="node">
<title>Node2</title>
<g id="a_Node000002"><a xlink:href="../../d4/d1b/classTiny__BME280_a6d9bd7e6e3ec84d4dbaaf4fd0292344f.xhtml#a6d9bd7e6e3ec84d4dbaaf4fd0292344f" target="_top" xlink:title="Returns the pressure from the sensor.">
<polygon fill="white" stroke="#666666" points="337,-38 185,-38 185,-19 337,-19 337,-38"/>
<text text-anchor="middle" x="261" y="-26" font-family="Helvetica,sans-Serif" font-size="10.00">Tiny_BME280::readPressure</text>
</a>
</g>
</g>
<!-- Node1&#45;&gt;Node2 -->
<g id="edge1_Node000001_Node000002" class="edge">
<title>Node1&#45;&gt;Node2</title>
<g id="a_edge1_Node000001_Node000002"><a xlink:title=" ">
<path fill="none" stroke="#63b8ff" d="M149.21,-28.5C157.66,-28.5 166.31,-28.5 174.89,-28.5"/>
<polygon fill="#63b8ff" stroke="#63b8ff" points="174.89,-32 184.89,-28.5 174.89,-25 174.89,-32"/>
</a>
</g>
</g>
<!-- Node3 -->
<g id="Node000003" class="node">
<title>Node3</title>
<g id="a_Node000003"><a xlink:href="../../d4/d1b/classTiny__BME280_ab2b70e2d8fb9580e63f5c4288e041a42.xhtml#ab2b70e2d8fb9580e63f5c4288e041a42" target="_top" xlink:title="Reads a 24 bit value over I2C.">
<polygon fill="white" stroke="#666666" points="703,-38 581,-38 581,-19 703,-19 703,-38"/>
<text text-anchor="middle" x="642" y="-26" font-family="Helvetica,sans-Serif" font-size="10.00">Tiny_BME280::read24</text>
</a>
</g>
</g>
<!-- Node2&#45;&gt;Node3 -->
<g id="edge2_Node000002_Node000003" class="edge">
<title>Node2&#45;&gt;Node3</title>
<g id="a_edge2_Node000002_Node000003"><a xlink:title=" ">
<path fill="none" stroke="#63b8ff" d="M337.33,-28.5C405.16,-28.5 504.09,-28.5 570.42,-28.5"/>
<polygon fill="#63b8ff" stroke="#63b8ff" points="570.77,-32 580.77,-28.5 570.77,-25 570.77,-32"/>
</a>
</g>
</g>
<!-- Node4 -->
<g id="Node000004" class="node">
<title>Node4</title>
<g id="a_Node000004"><a xlink:href="../../d4/d1b/classTiny__BME280_a106df67231caaea5cf96824d908efff0.xhtml#a106df67231caaea5cf96824d908efff0" target="_top" xlink:title="Returns the temperature from the sensor.">
<polygon fill="white" stroke="#666666" points="545,-19 373,-19 373,0 545,0 545,-19"/>
<text text-anchor="middle" x="459" y="-7" font-family="Helvetica,sans-Serif" font-size="10.00">Tiny_BME280::readTemperature</text>
</a>
</g>
</g>
<!-- Node2&#45;&gt;Node4 -->
<g id="edge3_Node000002_Node000004" class="edge">
<title>Node2&#45;&gt;Node4</title>
<g id="a_edge3_Node000002_Node000004"><a xlink:title=" ">
<path fill="none" stroke="#63b8ff" d="M337.22,-21.21C345.6,-20.4 354.21,-19.56 362.8,-18.73"/>
<polygon fill="#63b8ff" stroke="#63b8ff" points="363.24,-22.2 372.85,-17.75 362.56,-15.24 363.24,-22.2"/>
</a>
</g>
</g>
<!-- Node4&#45;&gt;Node3 -->
<g id="edge4_Node000004_Node000003" class="edge">
<title>Node4&#45;&gt;Node3</title>
<g id="a_edge4_Node000004_Node000003"><a xlink:title=" ">
<path fill="none" stroke="#63b8ff" d="M545.2,-18.44C553.74,-19.34 562.34,-20.24 570.7,-21.12"/>
<polygon fill="#63b8ff" stroke="#63b8ff" points="570.45,-24.61 580.76,-22.18 571.18,-17.65 570.45,-24.61"/>
</a>
</g>
</g>
</g>
</svg>
