<?xml version="1.0" encoding="UTF-8" standalone="no"?>
<!DOCTYPE svg PUBLIC "-//W3C//DTD SVG 1.1//EN"
 "http://www.w3.org/Graphics/SVG/1.1/DTD/svg11.dtd">
<!-- Generated by graphviz version 2.43.0 (0)
 -->
<!-- Title: Tiny_BME280::setSampling Pages: 1 -->
<svg width="351pt" height="138pt"
 viewBox="0.00 0.00 351.00 138.00" xmlns="http://www.w3.org/2000/svg" xmlns:xlink="http://www.w3.org/1999/xlink">
<g id="graph0" class="graph" transform="scale(1 1) rotate(0) translate(4 134)">
<title>Tiny_BME280::setSampling</title>
<!-- Node1 -->
<g id="Node000001" class="node">
<title>Node1</title>
<g id="a_Node000001"><a xlink:title="setup sensor with given parameters / settings">
<polygon fill="#999999" stroke="#666666" points="149,-74 0,-74 0,-55 149,-55 149,-74"/>
<text text-anchor="middle" x="74.5" y="-62" font-family="Helvetica,sans-Serif" font-size="10.00">Tiny_BME280::setSampling</text>
</a>
</g>
</g>
<!-- Node2 -->
<g id="Node000002" class="node">
<title>Node2</title>
<g id="a_Node000002"><a xlink:href="../../d6/dd8/structTiny__BME280_1_1config_adef36b57c517713fcec45159134408d2.xhtml#adef36b57c517713fcec45159134408d2" target="_top" xlink:title=" ">
<polygon fill="white" stroke="#666666" points="334,-130 194,-130 194,-111 334,-111 334,-130"/>
<text text-anchor="middle" x="264" y="-118" font-family="Helvetica,sans-Serif" font-size="10.00">Tiny_BME280::config::get</text>
</a>
</g>
</g>
<!-- Node1&#45;&gt;Node2 -->
<g id="edge1_Node000001_Node000002" class="edge">
<title>Node1&#45;&gt;Node2</title>
<g id="a_edge1_Node000001_Node000002"><a xlink:title=" ">
<path fill="none" stroke="#63b8ff" d="M100.48,-74.03C122.52,-82.23 155.61,-94.04 185,-102.5 192.42,-104.64 200.29,-106.69 208.07,-108.6"/>
<polygon fill="#63b8ff" stroke="#63b8ff" points="207.29,-112.02 217.83,-110.94 208.92,-105.21 207.29,-112.02"/>
</a>
</g>
</g>
<!-- Node3 -->
<g id="Node000003" class="node">
<title>Node3</title>
<g id="a_Node000003"><a xlink:href="../../d6/d58/structTiny__BME280_1_1ctrl__meas_a696b8d72794d352a5b33b92dcc575200.xhtml#a696b8d72794d352a5b33b92dcc575200" target="_top" xlink:title=" ">
<polygon fill="white" stroke="#666666" points="343,-93 185,-93 185,-74 343,-74 343,-93"/>
<text text-anchor="middle" x="264" y="-81" font-family="Helvetica,sans-Serif" font-size="10.00">Tiny_BME280::ctrl_meas::get</text>
</a>
</g>
</g>
<!-- Node1&#45;&gt;Node3 -->
<g id="edge2_Node000001_Node000003" class="edge">
<title>Node1&#45;&gt;Node3</title>
<g id="a_edge2_Node000001_Node000003"><a xlink:title=" ">
<path fill="none" stroke="#63b8ff" d="M149.07,-71.95C157.47,-72.81 166.11,-73.68 174.68,-74.55"/>
<polygon fill="#63b8ff" stroke="#63b8ff" points="174.4,-78.04 184.7,-75.57 175.1,-71.08 174.4,-78.04"/>
</a>
</g>
</g>
<!-- Node4 -->
<g id="Node000004" class="node">
<title>Node4</title>
<g id="a_Node000004"><a xlink:href="../../d6/d11/structTiny__BME280_1_1ctrl__hum_a53f85d87bdf492d40cb651a0674ce59a.xhtml#a53f85d87bdf492d40cb651a0674ce59a" target="_top" xlink:title=" ">
<polygon fill="white" stroke="#666666" points="340.5,-56 187.5,-56 187.5,-37 340.5,-37 340.5,-56"/>
<text text-anchor="middle" x="264" y="-44" font-family="Helvetica,sans-Serif" font-size="10.00">Tiny_BME280::ctrl_hum::get</text>
</a>
</g>
</g>
<!-- Node1&#45;&gt;Node4 -->
<g id="edge3_Node000001_Node000004" class="edge">
<title>Node1&#45;&gt;Node4</title>
<g id="a_edge3_Node000001_Node000004"><a xlink:title=" ">
<path fill="none" stroke="#63b8ff" d="M149.07,-57.44C158.33,-56.55 167.88,-55.63 177.31,-54.73"/>
<polygon fill="#63b8ff" stroke="#63b8ff" points="177.87,-58.19 187.49,-53.75 177.2,-51.22 177.87,-58.19"/>
</a>
</g>
</g>
<!-- Node5 -->
<g id="Node000005" class="node">
<title>Node5</title>
<g id="a_Node000005"><a xlink:href="../../d4/d1b/classTiny__BME280_ad9a42aed9801eb95065745eabdf7e670.xhtml#ad9a42aed9801eb95065745eabdf7e670" target="_top" xlink:title="Writes an 8 bit value over I2C.">
<polygon fill="white" stroke="#666666" points="323.5,-19 204.5,-19 204.5,0 323.5,0 323.5,-19"/>
<text text-anchor="middle" x="264" y="-7" font-family="Helvetica,sans-Serif" font-size="10.00">Tiny_BME280::write8</text>
</a>
</g>
</g>
<!-- Node1&#45;&gt;Node5 -->
<g id="edge4_Node000001_Node000005" class="edge">
<title>Node1&#45;&gt;Node5</title>
<g id="a_edge4_Node000001_Node000005"><a xlink:title=" ">
<path fill="none" stroke="#63b8ff" d="M102.77,-54.87C124.81,-47.25 156.71,-36.58 185,-28.5 193.47,-26.08 202.51,-23.7 211.33,-21.48"/>
<polygon fill="#63b8ff" stroke="#63b8ff" points="212.28,-24.85 221.15,-19.05 210.6,-18.05 212.28,-24.85"/>
</a>
</g>
</g>
</g>
</svg>
