<?xml version="1.0" encoding="UTF-8" standalone="no"?>
<!DOCTYPE svg PUBLIC "-//W3C//DTD SVG 1.1//EN"
 "http://www.w3.org/Graphics/SVG/1.1/DTD/svg11.dtd">
<!-- Generated by graphviz version 2.43.0 (0)
 -->
<!-- Title: Tiny_BME280::begin Pages: 1 -->
<!--zoomable 325 -->

<svg id="main" version="1.1" xmlns="http://www.w3.org/2000/svg" xmlns:xlink="http://www.w3.org/1999/xlink" xml:space="preserve" onload="init(evt)">
<style type="text/css"><![CDATA[
.node, .edge {opacity: 0.7;}
.node.selected, .edge.selected {opacity: 1;}
.edge:hover path { stroke: red; }
.edge:hover polygon { stroke: red; fill: red; }
]]></style>

<defs>
  <circle id="rim" cx="0" cy="0" r="7"/>
  <circle id="rim2" cx="0" cy="0" r="3.5"/>
  <g id="zoomPlus">
    <use xlink:href="#rim" fill="#404040"><set attributeName="fill" to="#808080" begin="zoomplus.mouseover" end="zoomplus.mouseout"/></use>
    <path d="M-4,0h8M0,-4v8" fill="none" stroke="white" stroke-width="1.5" pointer-events="none"/>
  </g>
  <g id="zoomMin">
    <use xlink:href="#rim" fill="#404040"><set attributeName="fill" to="#808080" begin="zoomminus.mouseover" end="zoomminus.mouseout"/></use>
    <path d="M-4,0h8" fill="none" stroke="white" stroke-width="1.5" pointer-events="none"/>
  </g>
  <g id="arrowUp" transform="translate(30 24)">
    <use xlink:href="#rim"/>
    <path pointer-events="none" fill="none" stroke="white" stroke-width="1.5" d="M0,-3.0v7 M-2.5,-0.5L0,-3.0L2.5,-0.5"/>
  </g>
  <g id="arrowRight" transform="rotate(90) translate(36 -43)">
    <use xlink:href="#rim"/>
    <path pointer-events="none" fill="none" stroke="white" stroke-width="1.5" d="M0,-3.0v7 M-2.5,-0.5L0,-3.0L2.5,-0.5"/>
  </g>
  <g id="arrowDown" transform="rotate(180) translate(-30 -48)">
    <use xlink:href="#rim"/>
    <path pointer-events="none" fill="none" stroke="white" stroke-width="1.5" d="M0,-3.0v7 M-2.5,-0.5L0,-3.0L2.5,-0.5"/>
  </g>
  <g id="arrowLeft" transform="rotate(270) translate(-36 17)">
    <use xlink:href="#rim"/>
    <path pointer-events="none" fill="none" stroke="white" stroke-width="1.5" d="M0,-3.0v7 M-2.5,-0.5L0,-3.0L2.5,-0.5"/>
  </g>
  <g id="resetDef">
    <use xlink:href="#rim2" fill="#404040"><set attributeName="fill" to="#808080" begin="reset.mouseover" end="reset.mouseout"/></use>
  </g>
</defs>
<script type="application/ecmascript">
var viewWidth = 1017;
var viewHeight = 325;
var sectionId = 'dynsection-1';
</script>
<script type="application/ecmascript" xlink:href="../../svg.min.js"/>
<svg id="graph" class="graph">
<g id="viewport">
<title>Tiny_BME280::begin</title>
<!-- Node1 -->
<g id="Node000001" class="node">
<title>Node1</title>
<g id="a_Node000001"><a xlink:title="Initialise sensor with given parameters / settings.">
<polygon fill="#999999" stroke="#666666" points="116,-186 0,-186 0,-167 116,-167 116,-186"/>
<text text-anchor="middle" x="58" y="-174" font-family="Helvetica,sans-Serif" font-size="10.00">Tiny_BME280::begin</text>
</a>
</g>
</g>
<!-- Node2 -->
<g id="Node000002" class="node">
<title>Node2</title>
<g id="a_Node000002"><a xlink:href="../../d4/d1b/classTiny__BME280.xhtml#a5b3b5a5e1edf6e327c19e40367dc7e46" target="_top" xlink:title="Initialise sensor with given parameters / settings.">
<polygon fill="white" stroke="#666666" points="256,-186 152,-186 152,-167 256,-167 256,-186"/>
<text text-anchor="middle" x="204" y="-174" font-family="Helvetica,sans-Serif" font-size="10.00">Tiny_BME280::init</text>
</a>
</g>
</g>
<!-- Node1&#45;&gt;Node2 -->
<g id="edge1_Node000001_Node000002" class="edge">
<title>Node1&#45;&gt;Node2</title>
<g id="a_edge1_Node000001_Node000002"><a xlink:title=" ">
<path fill="none" stroke="#63b8ff" d="M116.33,-176.5C124.69,-176.5 133.33,-176.5 141.77,-176.5"/>
<polygon fill="#63b8ff" stroke="#63b8ff" points="141.93,-180 151.93,-176.5 141.93,-173 141.93,-180"/>
</a>
</g>
</g>
<!-- Node3 -->
<g id="Node000003" class="node">
<title>Node3</title>
<g id="a_Node000003"><a xlink:href="../../d5/df3/wiring_8c.xhtml#a6bc5f943544a887f8b23cadfb26a5e30" target="_top" xlink:title=" ">
<polygon fill="white" stroke="#666666" points="409,-280 365,-280 365,-261 409,-261 409,-280"/>
<text text-anchor="middle" x="387" y="-268" font-family="Helvetica,sans-Serif" font-size="10.00">delay</text>
</a>
</g>
</g>
<!-- Node2&#45;&gt;Node3 -->
<g id="edge2_Node000002_Node000003" class="edge">
<title>Node2&#45;&gt;Node3</title>
<g id="a_edge2_Node000002_Node000003"><a xlink:title=" ">
<path fill="none" stroke="#63b8ff" d="M212.98,-186.24C227.08,-202.74 258.11,-235.98 292,-252.5 311.57,-262.04 335.73,-266.53 354.65,-268.64"/>
<polygon fill="#63b8ff" stroke="#63b8ff" points="354.56,-272.15 364.84,-269.61 355.22,-265.18 354.56,-272.15"/>
</a>
</g>
</g>
<!-- Node6 -->
<g id="Node000006" class="node">
<title>Node6</title>
<g id="a_Node000006"><a xlink:href="../../d4/d1b/classTiny__BME280.xhtml#ab9df818cc5d654495a403dbe121d5322" target="_top" xlink:title="return true if chip is busy reading cal data">
<polygon fill="white" stroke="#666666" points="482,-243 292,-243 292,-224 482,-224 482,-243"/>
<text text-anchor="middle" x="387" y="-231" font-family="Helvetica,sans-Serif" font-size="10.00">Tiny_BME280::isReadingCalibration</text>
</a>
</g>
</g>
<!-- Node2&#45;&gt;Node6 -->
<g id="edge5_Node000002_Node000006" class="edge">
<title>Node2&#45;&gt;Node6</title>
<g id="a_edge5_Node000002_Node000006"><a xlink:title=" ">
<path fill="none" stroke="#63b8ff" d="M228.01,-186.04C245.41,-193.05 269.97,-202.54 292,-209.5 305.7,-213.83 320.7,-217.94 334.62,-221.5"/>
<polygon fill="#63b8ff" stroke="#63b8ff" points="333.98,-224.94 344.54,-223.98 335.69,-218.15 333.98,-224.94"/>
</a>
</g>
</g>
<!-- Node7 -->
<g id="Node000007" class="node">
<title>Node7</title>
<g id="a_Node000007"><a xlink:href="../../d4/d1b/classTiny__BME280.xhtml#a631cc94459e8f0cdb46caacf6266eb57" target="_top" xlink:title="Reads an 8 bit value over I2C.">
<polygon fill="white" stroke="#666666" points="655,-243 539,-243 539,-224 655,-224 655,-243"/>
<text text-anchor="middle" x="597" y="-231" font-family="Helvetica,sans-Serif" font-size="10.00">Tiny_BME280::read8</text>
</a>
</g>
</g>
<!-- Node2&#45;&gt;Node7 -->
<g id="edge7_Node000002_Node000007" class="edge">
<title>Node2&#45;&gt;Node7</title>
<g id="a_edge7_Node000002_Node000007"><a xlink:title=" ">
<path fill="none" stroke="#63b8ff" d="M256.09,-183.43C311.7,-191.04 403.23,-203.74 482,-215.5 497.2,-217.77 513.52,-220.3 528.94,-222.72"/>
<polygon fill="#63b8ff" stroke="#63b8ff" points="528.49,-226.19 538.91,-224.29 529.58,-219.28 528.49,-226.19"/>
</a>
</g>
</g>
<!-- Node8 -->
<g id="Node000008" class="node">
<title>Node8</title>
<g id="a_Node000008"><a xlink:href="../../d4/d1b/classTiny__BME280.xhtml#ab43c5a7fdfa831563e9b588c2928ed8e" target="_top" xlink:title="Reads the factory&#45;set coefficients.">
<polygon fill="white" stroke="#666666" points="471,-167 303,-167 303,-148 471,-148 471,-167"/>
<text text-anchor="middle" x="387" y="-155" font-family="Helvetica,sans-Serif" font-size="10.00">Tiny_BME280::readCoefficients</text>
</a>
</g>
</g>
<!-- Node2&#45;&gt;Node8 -->
<g id="edge8_Node000002_Node000008" class="edge">
<title>Node2&#45;&gt;Node8</title>
<g id="a_edge8_Node000002_Node000008"><a xlink:title=" ">
<path fill="none" stroke="#63b8ff" d="M256.38,-171.11C267.85,-169.9 280.35,-168.59 292.91,-167.27"/>
<polygon fill="#63b8ff" stroke="#63b8ff" points="293.41,-170.74 302.99,-166.21 292.68,-163.78 293.41,-170.74"/>
</a>
</g>
</g>
<!-- Node12 -->
<g id="Node000012" class="node">
<title>Node12</title>
<g id="a_Node000012"><a xlink:href="../../d4/d1b/classTiny__BME280.xhtml#a5ef48ff16d11914ebd34628df02c63f9" target="_top" xlink:title="setup sensor with given parameters / settings">
<polygon fill="white" stroke="#666666" points="461.5,-93 312.5,-93 312.5,-74 461.5,-74 461.5,-93"/>
<text text-anchor="middle" x="387" y="-81" font-family="Helvetica,sans-Serif" font-size="10.00">Tiny_BME280::setSampling</text>
</a>
</g>
</g>
<!-- Node2&#45;&gt;Node12 -->
<g id="edge14_Node000002_Node000012" class="edge">
<title>Node2&#45;&gt;Node12</title>
<g id="a_edge14_Node000002_Node000012"><a xlink:title=" ">
<path fill="none" stroke="#63b8ff" d="M223.69,-166.9C255.61,-150.5 320.8,-117 358.12,-97.83"/>
<polygon fill="#63b8ff" stroke="#63b8ff" points="360.12,-100.73 367.41,-93.05 356.92,-94.51 360.12,-100.73"/>
</a>
</g>
</g>
<!-- Node16 -->
<g id="Node000016" class="node">
<title>Node16</title>
<g id="a_Node000016"><a xlink:href="../../d4/d1b/classTiny__BME280.xhtml#ad9a42aed9801eb95065745eabdf7e670" target="_top" xlink:title="Writes an 8 bit value over I2C.">
<polygon fill="white" stroke="#666666" points="656.5,-19 537.5,-19 537.5,0 656.5,0 656.5,-19"/>
<text text-anchor="middle" x="597" y="-7" font-family="Helvetica,sans-Serif" font-size="10.00">Tiny_BME280::write8</text>
</a>
</g>
</g>
<!-- Node2&#45;&gt;Node16 -->
<g id="edge19_Node000002_Node000016" class="edge">
<title>Node2&#45;&gt;Node16</title>
<g id="a_edge19_Node000002_Node000016"><a xlink:title=" ">
<path fill="none" stroke="#63b8ff" d="M209.49,-166.86C220.27,-144.87 249.89,-90.98 292,-65.5 364.13,-21.86 462.21,-10.69 527.23,-8.58"/>
<polygon fill="#63b8ff" stroke="#63b8ff" points="527.47,-12.07 537.38,-8.31 527.29,-5.07 527.47,-12.07"/>
</a>
</g>
</g>
<!-- Node4 -->
<g id="Node000004" class="node">
<title>Node4</title>
<g id="a_Node000004"><a xlink:href="../../d5/df3/wiring_8c.xhtml#a8b24cbb7c3486e1bfa05c86db83ecb01" target="_top" xlink:title=" ">
<polygon fill="white" stroke="#666666" points="622,-317 572,-317 572,-298 622,-298 622,-317"/>
<text text-anchor="middle" x="597" y="-305" font-family="Helvetica,sans-Serif" font-size="10.00">micros</text>
</a>
</g>
</g>
<!-- Node3&#45;&gt;Node4 -->
<g id="edge3_Node000003_Node000004" class="edge">
<title>Node3&#45;&gt;Node4</title>
<g id="a_edge3_Node000003_Node000004"><a xlink:title=" ">
<path fill="none" stroke="#63b8ff" d="M409.09,-274.25C445.06,-280.65 518.58,-293.73 561.92,-301.44"/>
<polygon fill="#63b8ff" stroke="#63b8ff" points="561.53,-304.92 571.99,-303.23 562.76,-298.03 561.53,-304.92"/>
</a>
</g>
</g>
<!-- Node5 -->
<g id="Node000005" class="node">
<title>Node5</title>
<g id="a_Node000005"><a xlink:href="../../de/df0/Arduino_8h.xhtml#a7cb51f5c2b5cad3766f19eb69c92793b" target="_top" xlink:title=" ">
<polygon fill="white" stroke="#666666" points="617.5,-280 576.5,-280 576.5,-261 617.5,-261 617.5,-280"/>
<text text-anchor="middle" x="597" y="-268" font-family="Helvetica,sans-Serif" font-size="10.00">yield</text>
</a>
</g>
</g>
<!-- Node3&#45;&gt;Node5 -->
<g id="edge4_Node000003_Node000005" class="edge">
<title>Node3&#45;&gt;Node5</title>
<g id="a_edge4_Node000003_Node000005"><a xlink:title=" ">
<path fill="none" stroke="#63b8ff" d="M409.09,-270.5C446.32,-270.5 523.77,-270.5 566.35,-270.5"/>
<polygon fill="#63b8ff" stroke="#63b8ff" points="566.38,-274 576.38,-270.5 566.38,-267 566.38,-274"/>
</a>
</g>
</g>
<!-- Node6&#45;&gt;Node7 -->
<g id="edge6_Node000006_Node000007" class="edge">
<title>Node6&#45;&gt;Node7</title>
<g id="a_edge6_Node000006_Node000007"><a xlink:title=" ">
<path fill="none" stroke="#63b8ff" d="M482.26,-233.5C497.98,-233.5 514,-233.5 528.87,-233.5"/>
<polygon fill="#63b8ff" stroke="#63b8ff" points="528.96,-237 538.96,-233.5 528.96,-230 528.96,-237"/>
</a>
</g>
</g>
<!-- Node8&#45;&gt;Node7 -->
<g id="edge11_Node000008_Node000007" class="edge">
<title>Node8&#45;&gt;Node7</title>
<g id="a_edge11_Node000008_Node000007"><a xlink:title=" ">
<path fill="none" stroke="#63b8ff" d="M441.07,-167.01C454.81,-170.55 469.29,-175.28 482,-181.5 500.2,-190.42 500.02,-200.14 518,-209.5 526.58,-213.97 536.14,-217.76 545.53,-220.91"/>
<polygon fill="#63b8ff" stroke="#63b8ff" points="544.63,-224.3 555.22,-223.98 546.74,-217.63 544.63,-224.3"/>
</a>
</g>
</g>
<!-- Node9 -->
<g id="Node000009" class="node">
<title>Node9</title>
<g id="a_Node000009"><a xlink:href="../../d4/d1b/classTiny__BME280.xhtml#a91c6dd90a0518655c27d12d0f7d462fe" target="_top" xlink:title="Reads a signed 16 bit little endian value over I2C.">
<polygon fill="white" stroke="#666666" points="851,-186 712,-186 712,-167 851,-167 851,-186"/>
<text text-anchor="middle" x="781.5" y="-174" font-family="Helvetica,sans-Serif" font-size="10.00">Tiny_BME280::read16_LE</text>
</a>
</g>
</g>
<!-- Node8&#45;&gt;Node9 -->
<g id="edge9_Node000008_Node000009" class="edge">
<title>Node8&#45;&gt;Node9</title>
<g id="a_edge9_Node000008_Node000009"><a xlink:title=" ">
<path fill="none" stroke="#63b8ff" d="M440.94,-167.01C464.45,-170.78 492.52,-174.65 518,-176.5 579.57,-180.98 649.49,-180.71 701.67,-179.48"/>
<polygon fill="#63b8ff" stroke="#63b8ff" points="701.96,-182.97 711.87,-179.22 701.78,-175.97 701.96,-182.97"/>
</a>
</g>
</g>
<!-- Node11 -->
<g id="Node000011" class="node">
<title>Node11</title>
<g id="a_Node000011"><a xlink:href="../../d4/d1b/classTiny__BME280.xhtml#a91b268f8bf722d5f317e5d6029116d7a" target="_top" xlink:title="Reads a signed little endian 16 bit value over I2C.">
<polygon fill="white" stroke="#666666" points="669.5,-167 524.5,-167 524.5,-148 669.5,-148 669.5,-167"/>
<text text-anchor="middle" x="597" y="-155" font-family="Helvetica,sans-Serif" font-size="10.00">Tiny_BME280::readS16_LE</text>
</a>
</g>
</g>
<!-- Node8&#45;&gt;Node11 -->
<g id="edge12_Node000008_Node000011" class="edge">
<title>Node8&#45;&gt;Node11</title>
<g id="a_edge12_Node000008_Node000011"><a xlink:title=" ">
<path fill="none" stroke="#63b8ff" d="M471.1,-157.5C485.31,-157.5 500.06,-157.5 514.23,-157.5"/>
<polygon fill="#63b8ff" stroke="#63b8ff" points="514.43,-161 524.43,-157.5 514.42,-154 514.43,-161"/>
</a>
</g>
</g>
<!-- Node10 -->
<g id="Node000010" class="node">
<title>Node10</title>
<g id="a_Node000010"><a xlink:href="../../d4/d1b/classTiny__BME280.xhtml#a336e34f6d83b30ea2fd7da60954cccb1" target="_top" xlink:title="Reads a 16 bit value over I2C.">
<polygon fill="white" stroke="#666666" points="1009,-186 887,-186 887,-167 1009,-167 1009,-186"/>
<text text-anchor="middle" x="948" y="-174" font-family="Helvetica,sans-Serif" font-size="10.00">Tiny_BME280::read16</text>
</a>
</g>
</g>
<!-- Node9&#45;&gt;Node10 -->
<g id="edge10_Node000009_Node000010" class="edge">
<title>Node9&#45;&gt;Node10</title>
<g id="a_edge10_Node000009_Node000010"><a xlink:title=" ">
<path fill="none" stroke="#63b8ff" d="M851.31,-176.5C859.7,-176.5 868.28,-176.5 876.68,-176.5"/>
<polygon fill="#63b8ff" stroke="#63b8ff" points="876.83,-180 886.83,-176.5 876.83,-173 876.83,-180"/>
</a>
</g>
</g>
<!-- Node11&#45;&gt;Node9 -->
<g id="edge13_Node000011_Node000009" class="edge">
<title>Node11&#45;&gt;Node9</title>
<g id="a_edge13_Node000011_Node000009"><a xlink:title=" ">
<path fill="none" stroke="#63b8ff" d="M669.61,-164.95C680.12,-166.05 691.01,-167.18 701.66,-168.29"/>
<polygon fill="#63b8ff" stroke="#63b8ff" points="701.48,-171.79 711.79,-169.35 702.2,-164.83 701.48,-171.79"/>
</a>
</g>
</g>
<!-- Node13 -->
<g id="Node000013" class="node">
<title>Node13</title>
<g id="a_Node000013"><a xlink:href="../../d6/dd8/structTiny__BME280_1_1config.xhtml#adef36b57c517713fcec45159134408d2" target="_top" xlink:title=" ">
<polygon fill="white" stroke="#666666" points="667,-130 527,-130 527,-111 667,-111 667,-130"/>
<text text-anchor="middle" x="597" y="-118" font-family="Helvetica,sans-Serif" font-size="10.00">Tiny_BME280::config::get</text>
</a>
</g>
</g>
<!-- Node12&#45;&gt;Node13 -->
<g id="edge15_Node000012_Node000013" class="edge">
<title>Node12&#45;&gt;Node13</title>
<g id="a_edge15_Node000012_Node000013"><a xlink:title=" ">
<path fill="none" stroke="#63b8ff" d="M441.57,-93.03C469.24,-97.95 503.2,-103.99 532.21,-109.15"/>
<polygon fill="#63b8ff" stroke="#63b8ff" points="531.8,-112.63 542.26,-110.94 533.02,-105.74 531.8,-112.63"/>
</a>
</g>
</g>
<!-- Node14 -->
<g id="Node000014" class="node">
<title>Node14</title>
<g id="a_Node000014"><a xlink:href="../../d6/d58/structTiny__BME280_1_1ctrl__meas.xhtml#a696b8d72794d352a5b33b92dcc575200" target="_top" xlink:title=" ">
<polygon fill="white" stroke="#666666" points="676,-93 518,-93 518,-74 676,-74 676,-93"/>
<text text-anchor="middle" x="597" y="-81" font-family="Helvetica,sans-Serif" font-size="10.00">Tiny_BME280::ctrl_meas::get</text>
</a>
</g>
</g>
<!-- Node12&#45;&gt;Node14 -->
<g id="edge16_Node000012_Node000014" class="edge">
<title>Node12&#45;&gt;Node14</title>
<g id="a_edge16_Node000012_Node000014"><a xlink:title=" ">
<path fill="none" stroke="#63b8ff" d="M461.63,-83.5C476.58,-83.5 492.45,-83.5 507.85,-83.5"/>
<polygon fill="#63b8ff" stroke="#63b8ff" points="507.89,-87 517.89,-83.5 507.89,-80 507.89,-87"/>
</a>
</g>
</g>
<!-- Node15 -->
<g id="Node000015" class="node">
<title>Node15</title>
<g id="a_Node000015"><a xlink:href="../../d6/d11/structTiny__BME280_1_1ctrl__hum.xhtml#a53f85d87bdf492d40cb651a0674ce59a" target="_top" xlink:title=" ">
<polygon fill="white" stroke="#666666" points="673.5,-56 520.5,-56 520.5,-37 673.5,-37 673.5,-56"/>
<text text-anchor="middle" x="597" y="-44" font-family="Helvetica,sans-Serif" font-size="10.00">Tiny_BME280::ctrl_hum::get</text>
</a>
</g>
</g>
<!-- Node12&#45;&gt;Node15 -->
<g id="edge17_Node000012_Node000015" class="edge">
<title>Node12&#45;&gt;Node15</title>
<g id="a_edge17_Node000012_Node000015"><a xlink:title=" ">
<path fill="none" stroke="#63b8ff" d="M441.57,-73.97C469.24,-69.05 503.2,-63.01 532.21,-57.85"/>
<polygon fill="#63b8ff" stroke="#63b8ff" points="533.02,-61.26 542.26,-56.06 531.8,-54.37 533.02,-61.26"/>
</a>
</g>
</g>
<!-- Node12&#45;&gt;Node16 -->
<g id="edge18_Node000012_Node000016" class="edge">
<title>Node12&#45;&gt;Node16</title>
<g id="a_edge18_Node000012_Node000016"><a xlink:title=" ">
<path fill="none" stroke="#63b8ff" d="M408.98,-73.91C440.01,-59.83 496.75,-34.47 518,-27.5 524.48,-25.38 531.34,-23.41 538.19,-21.61"/>
<polygon fill="#63b8ff" stroke="#63b8ff" points="539.34,-24.93 548.19,-19.1 537.64,-18.14 539.34,-24.93"/>
</a>
</g>
</g>
</g>
</svg>

<g id="navigator" transform="translate(0 0)" fill="#404254">
  <rect fill="#f2f5e9" fill-opacity="0.5" stroke="#606060" stroke-width=".5" x="0" y="0" width="60" height="60"/>
  <use id="zoomplus" xlink:href="#zoomPlus" x="17" y="9" onmousedown="handleZoom(evt,'in')"/>
  <use id="zoomminus" xlink:href="#zoomMin" x="42" y="9" onmousedown="handleZoom(evt,'out')"/>
  <use id="reset" xlink:href="#resetDef" x="30" y="36" onmousedown="handleReset()"/>
   <use id="arrowup" xlink:href="#arrowUp" x="0" y="0" onmousedown="handlePan(0,-1)"/>
  <use id="arrowright" xlink:href="#arrowRight" x="0" y="0" onmousedown="handlePan(1,0)"/>
  <use id="arrowdown" xlink:href="#arrowDown" x="0" y="0" onmousedown="handlePan(0,1)"/>
  <use id="arrowleft" xlink:href="#arrowLeft" x="0" y="0" onmousedown="handlePan(-1,0)"/>
</g>
<svg viewBox="0 0 15 15" width="100%" height="30px" preserveAspectRatio="xMaxYMin meet">
 <g id="arrow_out" transform="scale(0.3 0.3)">
  <a xlink:href="classTiny__BME280_a0fbe17b84233a7c87a29ade4f72469ea_cgraph_org.svg" target="_base">
   <rect id="button" ry="5" rx="5" y="6" x="6" height="38" width="38"
        fill="#f2f5e9" fill-opacity="0.5" stroke="#606060" stroke-width="1.0"/>
   <path id="arrow"
     d="M 11.500037,31.436501 C 11.940474,20.09759 22.043105,11.32322 32.158766,21.979434 L 37.068811,17.246167 C 37.068811,17.246167 37.088388,32 37.088388,32 L 22.160133,31.978069 C 22.160133,31.978069 26.997745,27.140456 26.997745,27.140456 C 18.528582,18.264221 13.291696,25.230495 11.500037,31.436501 z"
     style="fill:#404040;"/>
  </a>
 </g>
</svg>

<style type='text/css'>
<![CDATA[
[data-mouse-over-selected='false'] { opacity: 0.7; }
[data-mouse-over-selected='true']  { opacity: 1.0; }
]]>
</style>
<script type="application/ecmascript"><![CDATA[
document.addEventListener('DOMContentLoaded', (event) => {
  highlightEdges();
  highlightAdjacentNodes();
});
]]></script>
</svg>
