<?xml version="1.0" encoding="UTF-8" standalone="no"?>
<!DOCTYPE svg PUBLIC "-//W3C//DTD SVG 1.1//EN"
 "http://www.w3.org/Graphics/SVG/1.1/DTD/svg11.dtd">
<!-- Generated by graphviz version 2.43.0 (0)
 -->
<!-- Title: Tiny_BME280::readCoefficients Pages: 1 -->
<svg width="690pt" height="78pt"
 viewBox="0.00 0.00 690.00 77.67" xmlns="http://www.w3.org/2000/svg" xmlns:xlink="http://www.w3.org/1999/xlink">
<g id="graph0" class="graph" transform="scale(1 1) rotate(0) translate(4 73.67)">
<title>Tiny_BME280::readCoefficients</title>
<!-- Node1 -->
<g id="Node000001" class="node">
<title>Node1</title>
<g id="a_Node000001"><a xlink:title="Reads the factory&#45;set coefficients.">
<polygon fill="#999999" stroke="#666666" points="168,-56 0,-56 0,-37 168,-37 168,-56"/>
<text text-anchor="middle" x="84" y="-44" font-family="Helvetica,sans-Serif" font-size="10.00">Tiny_BME280::readCoefficients</text>
</a>
</g>
</g>
<!-- Node2 -->
<g id="Node000002" class="node">
<title>Node2</title>
<g id="a_Node000002"><a xlink:href="../../d4/d1b/classTiny__BME280_a91c6dd90a0518655c27d12d0f7d462fe.xhtml#a91c6dd90a0518655c27d12d0f7d462fe" target="_top" xlink:title="Reads a signed 16 bit little endian value over I2C.">
<polygon fill="white" stroke="#666666" points="524,-56 385,-56 385,-37 524,-37 524,-56"/>
<text text-anchor="middle" x="454.5" y="-44" font-family="Helvetica,sans-Serif" font-size="10.00">Tiny_BME280::read16_LE</text>
</a>
</g>
</g>
<!-- Node1&#45;&gt;Node2 -->
<g id="edge1_Node000001_Node000002" class="edge">
<title>Node1&#45;&gt;Node2</title>
<g id="a_edge1_Node000001_Node000002"><a xlink:title=" ">
<path fill="none" stroke="#63b8ff" d="M133.43,-56.01C154.94,-59.78 180.64,-63.65 204,-65.5 268.24,-70.6 284.82,-71.29 349,-65.5 366.03,-63.96 384.44,-61.05 400.99,-57.95"/>
<polygon fill="#63b8ff" stroke="#63b8ff" points="401.87,-61.35 411.03,-56.01 400.55,-54.47 401.87,-61.35"/>
</a>
</g>
</g>
<!-- Node4 -->
<g id="Node000004" class="node">
<title>Node4</title>
<g id="a_Node000004"><a xlink:href="../../d4/d1b/classTiny__BME280_a631cc94459e8f0cdb46caacf6266eb57.xhtml#a631cc94459e8f0cdb46caacf6266eb57" target="_top" xlink:title="Reads an 8 bit value over I2C.">
<polygon fill="white" stroke="#666666" points="334.5,-56 218.5,-56 218.5,-37 334.5,-37 334.5,-56"/>
<text text-anchor="middle" x="276.5" y="-44" font-family="Helvetica,sans-Serif" font-size="10.00">Tiny_BME280::read8</text>
</a>
</g>
</g>
<!-- Node1&#45;&gt;Node4 -->
<g id="edge3_Node000001_Node000004" class="edge">
<title>Node1&#45;&gt;Node4</title>
<g id="a_edge3_Node000001_Node000004"><a xlink:title=" ">
<path fill="none" stroke="#63b8ff" d="M168,-46.5C181.37,-46.5 195.07,-46.5 208.02,-46.5"/>
<polygon fill="#63b8ff" stroke="#63b8ff" points="208.22,-50 218.22,-46.5 208.22,-43 208.22,-50"/>
</a>
</g>
</g>
<!-- Node5 -->
<g id="Node000005" class="node">
<title>Node5</title>
<g id="a_Node000005"><a xlink:href="../../d4/d1b/classTiny__BME280_a91b268f8bf722d5f317e5d6029116d7a.xhtml#a91b268f8bf722d5f317e5d6029116d7a" target="_top" xlink:title="Reads a signed little endian 16 bit value over I2C.">
<polygon fill="white" stroke="#666666" points="349,-19 204,-19 204,0 349,0 349,-19"/>
<text text-anchor="middle" x="276.5" y="-7" font-family="Helvetica,sans-Serif" font-size="10.00">Tiny_BME280::readS16_LE</text>
</a>
</g>
</g>
<!-- Node1&#45;&gt;Node5 -->
<g id="edge4_Node000001_Node000005" class="edge">
<title>Node1&#45;&gt;Node5</title>
<g id="a_edge4_Node000001_Node000005"><a xlink:title=" ">
<path fill="none" stroke="#63b8ff" d="M134.06,-36.97C159.18,-32.09 189.96,-26.11 216.38,-20.98"/>
<polygon fill="#63b8ff" stroke="#63b8ff" points="217.13,-24.4 226.28,-19.06 215.79,-17.53 217.13,-24.4"/>
</a>
</g>
</g>
<!-- Node3 -->
<g id="Node000003" class="node">
<title>Node3</title>
<g id="a_Node000003"><a xlink:href="../../d4/d1b/classTiny__BME280_a336e34f6d83b30ea2fd7da60954cccb1.xhtml#a336e34f6d83b30ea2fd7da60954cccb1" target="_top" xlink:title="Reads a 16 bit value over I2C.">
<polygon fill="white" stroke="#666666" points="682,-56 560,-56 560,-37 682,-37 682,-56"/>
<text text-anchor="middle" x="621" y="-44" font-family="Helvetica,sans-Serif" font-size="10.00">Tiny_BME280::read16</text>
</a>
</g>
</g>
<!-- Node2&#45;&gt;Node3 -->
<g id="edge2_Node000002_Node000003" class="edge">
<title>Node2&#45;&gt;Node3</title>
<g id="a_edge2_Node000002_Node000003"><a xlink:title=" ">
<path fill="none" stroke="#63b8ff" d="M524.31,-46.5C532.7,-46.5 541.28,-46.5 549.68,-46.5"/>
<polygon fill="#63b8ff" stroke="#63b8ff" points="549.83,-50 559.83,-46.5 549.83,-43 549.83,-50"/>
</a>
</g>
</g>
<!-- Node5&#45;&gt;Node2 -->
<g id="edge5_Node000005_Node000002" class="edge">
<title>Node5&#45;&gt;Node2</title>
<g id="a_edge5_Node000005_Node000002"><a xlink:title=" ">
<path fill="none" stroke="#63b8ff" d="M322.82,-19.03C345.83,-23.86 373.97,-29.78 398.24,-34.88"/>
<polygon fill="#63b8ff" stroke="#63b8ff" points="397.52,-38.31 408.02,-36.94 398.96,-31.46 397.52,-38.31"/>
</a>
</g>
</g>
</g>
</svg>
