<?xml version="1.0" encoding="UTF-8" standalone="no"?>
<!DOCTYPE svg PUBLIC "-//W3C//DTD SVG 1.1//EN"
 "http://www.w3.org/Graphics/SVG/1.1/DTD/svg11.dtd">
<!-- Generated by graphviz version 2.43.0 (0)
 -->
<!-- Title: Tiny_BME280::init Pages: 1 -->
<!--zoomable 325 -->

<svg id="main" version="1.1" xmlns="http://www.w3.org/2000/svg" xmlns:xlink="http://www.w3.org/1999/xlink" xml:space="preserve" onload="init(evt)">
<style type="text/css"><![CDATA[
.node, .edge {opacity: 0.7;}
.node.selected, .edge.selected {opacity: 1;}
.edge:hover path { stroke: red; }
.edge:hover polygon { stroke: red; fill: red; }
]]></style>

<defs>
  <circle id="rim" cx="0" cy="0" r="7"/>
  <circle id="rim2" cx="0" cy="0" r="3.5"/>
  <g id="zoomPlus">
    <use xlink:href="#rim" fill="#404040"><set attributeName="fill" to="#808080" begin="zoomplus.mouseover" end="zoomplus.mouseout"/></use>
    <path d="M-4,0h8M0,-4v8" fill="none" stroke="white" stroke-width="1.5" pointer-events="none"/>
  </g>
  <g id="zoomMin">
    <use xlink:href="#rim" fill="#404040"><set attributeName="fill" to="#808080" begin="zoomminus.mouseover" end="zoomminus.mouseout"/></use>
    <path d="M-4,0h8" fill="none" stroke="white" stroke-width="1.5" pointer-events="none"/>
  </g>
  <g id="arrowUp" transform="translate(30 24)">
    <use xlink:href="#rim"/>
    <path pointer-events="none" fill="none" stroke="white" stroke-width="1.5" d="M0,-3.0v7 M-2.5,-0.5L0,-3.0L2.5,-0.5"/>
  </g>
  <g id="arrowRight" transform="rotate(90) translate(36 -43)">
    <use xlink:href="#rim"/>
    <path pointer-events="none" fill="none" stroke="white" stroke-width="1.5" d="M0,-3.0v7 M-2.5,-0.5L0,-3.0L2.5,-0.5"/>
  </g>
  <g id="arrowDown" transform="rotate(180) translate(-30 -48)">
    <use xlink:href="#rim"/>
    <path pointer-events="none" fill="none" stroke="white" stroke-width="1.5" d="M0,-3.0v7 M-2.5,-0.5L0,-3.0L2.5,-0.5"/>
  </g>
  <g id="arrowLeft" transform="rotate(270) translate(-36 17)">
    <use xlink:href="#rim"/>
    <path pointer-events="none" fill="none" stroke="white" stroke-width="1.5" d="M0,-3.0v7 M-2.5,-0.5L0,-3.0L2.5,-0.5"/>
  </g>
  <g id="resetDef">
    <use xlink:href="#rim2" fill="#404040"><set attributeName="fill" to="#808080" begin="reset.mouseover" end="reset.mouseout"/></use>
  </g>
</defs>
<script type="application/ecmascript">
var viewWidth = 865;
var viewHeight = 325;
var sectionId = 'dynsection-2';
</script>
<script type="application/ecmascript" xlink:href="../../svg.min.js"/>
<svg id="graph" class="graph">
<g id="viewport">
<title>Tiny_BME280::init</title>
<!-- Node1 -->
<g id="Node000001" class="node">
<title>Node1</title>
<g id="a_Node000001"><a xlink:title="Initialise sensor with given parameters / settings.">
<polygon fill="#999999" stroke="#666666" points="104,-186 0,-186 0,-167 104,-167 104,-186"/>
<text text-anchor="middle" x="52" y="-174" font-family="Helvetica,sans-Serif" font-size="10.00">Tiny_BME280::init</text>
</a>
</g>
</g>
<!-- Node2 -->
<g id="Node000002" class="node">
<title>Node2</title>
<g id="a_Node000002"><a xlink:href="../../d5/df3/wiring_8c.xhtml#a6bc5f943544a887f8b23cadfb26a5e30" target="_top" xlink:title=" ">
<polygon fill="white" stroke="#666666" points="257,-280 213,-280 213,-261 257,-261 257,-280"/>
<text text-anchor="middle" x="235" y="-268" font-family="Helvetica,sans-Serif" font-size="10.00">delay</text>
</a>
</g>
</g>
<!-- Node1&#45;&gt;Node2 -->
<g id="edge1_Node000001_Node000002" class="edge">
<title>Node1&#45;&gt;Node2</title>
<g id="a_edge1_Node000001_Node000002"><a xlink:title=" ">
<path fill="none" stroke="#63b8ff" d="M60.98,-186.24C75.08,-202.74 106.11,-235.98 140,-252.5 159.57,-262.04 183.73,-266.53 202.65,-268.64"/>
<polygon fill="#63b8ff" stroke="#63b8ff" points="202.56,-272.15 212.84,-269.61 203.22,-265.18 202.56,-272.15"/>
</a>
</g>
</g>
<!-- Node5 -->
<g id="Node000005" class="node">
<title>Node5</title>
<g id="a_Node000005"><a xlink:href="../../d4/d1b/classTiny__BME280.xhtml#ab9df818cc5d654495a403dbe121d5322" target="_top" xlink:title="return true if chip is busy reading cal data">
<polygon fill="white" stroke="#666666" points="330,-243 140,-243 140,-224 330,-224 330,-243"/>
<text text-anchor="middle" x="235" y="-231" font-family="Helvetica,sans-Serif" font-size="10.00">Tiny_BME280::isReadingCalibration</text>
</a>
</g>
</g>
<!-- Node1&#45;&gt;Node5 -->
<g id="edge4_Node000001_Node000005" class="edge">
<title>Node1&#45;&gt;Node5</title>
<g id="a_edge4_Node000001_Node000005"><a xlink:title=" ">
<path fill="none" stroke="#63b8ff" d="M76.01,-186.04C93.41,-193.05 117.97,-202.54 140,-209.5 153.7,-213.83 168.7,-217.94 182.62,-221.5"/>
<polygon fill="#63b8ff" stroke="#63b8ff" points="181.98,-224.94 192.54,-223.98 183.69,-218.15 181.98,-224.94"/>
</a>
</g>
</g>
<!-- Node6 -->
<g id="Node000006" class="node">
<title>Node6</title>
<g id="a_Node000006"><a xlink:href="../../d4/d1b/classTiny__BME280.xhtml#a631cc94459e8f0cdb46caacf6266eb57" target="_top" xlink:title="Reads an 8 bit value over I2C.">
<polygon fill="white" stroke="#666666" points="503,-243 387,-243 387,-224 503,-224 503,-243"/>
<text text-anchor="middle" x="445" y="-231" font-family="Helvetica,sans-Serif" font-size="10.00">Tiny_BME280::read8</text>
</a>
</g>
</g>
<!-- Node1&#45;&gt;Node6 -->
<g id="edge6_Node000001_Node000006" class="edge">
<title>Node1&#45;&gt;Node6</title>
<g id="a_edge6_Node000001_Node000006"><a xlink:title=" ">
<path fill="none" stroke="#63b8ff" d="M104.09,-183.43C159.7,-191.04 251.23,-203.74 330,-215.5 345.2,-217.77 361.52,-220.3 376.94,-222.72"/>
<polygon fill="#63b8ff" stroke="#63b8ff" points="376.49,-226.19 386.91,-224.29 377.58,-219.28 376.49,-226.19"/>
</a>
</g>
</g>
<!-- Node7 -->
<g id="Node000007" class="node">
<title>Node7</title>
<g id="a_Node000007"><a xlink:href="../../d4/d1b/classTiny__BME280.xhtml#ab43c5a7fdfa831563e9b588c2928ed8e" target="_top" xlink:title="Reads the factory&#45;set coefficients.">
<polygon fill="white" stroke="#666666" points="319,-167 151,-167 151,-148 319,-148 319,-167"/>
<text text-anchor="middle" x="235" y="-155" font-family="Helvetica,sans-Serif" font-size="10.00">Tiny_BME280::readCoefficients</text>
</a>
</g>
</g>
<!-- Node1&#45;&gt;Node7 -->
<g id="edge7_Node000001_Node000007" class="edge">
<title>Node1&#45;&gt;Node7</title>
<g id="a_edge7_Node000001_Node000007"><a xlink:title=" ">
<path fill="none" stroke="#63b8ff" d="M104.38,-171.11C115.85,-169.9 128.35,-168.59 140.91,-167.27"/>
<polygon fill="#63b8ff" stroke="#63b8ff" points="141.41,-170.74 150.99,-166.21 140.68,-163.78 141.41,-170.74"/>
</a>
</g>
</g>
<!-- Node11 -->
<g id="Node000011" class="node">
<title>Node11</title>
<g id="a_Node000011"><a xlink:href="../../d4/d1b/classTiny__BME280.xhtml#a5ef48ff16d11914ebd34628df02c63f9" target="_top" xlink:title="setup sensor with given parameters / settings">
<polygon fill="white" stroke="#666666" points="309.5,-93 160.5,-93 160.5,-74 309.5,-74 309.5,-93"/>
<text text-anchor="middle" x="235" y="-81" font-family="Helvetica,sans-Serif" font-size="10.00">Tiny_BME280::setSampling</text>
</a>
</g>
</g>
<!-- Node1&#45;&gt;Node11 -->
<g id="edge13_Node000001_Node000011" class="edge">
<title>Node1&#45;&gt;Node11</title>
<g id="a_edge13_Node000001_Node000011"><a xlink:title=" ">
<path fill="none" stroke="#63b8ff" d="M71.69,-166.9C103.61,-150.5 168.8,-117 206.12,-97.83"/>
<polygon fill="#63b8ff" stroke="#63b8ff" points="208.12,-100.73 215.41,-93.05 204.92,-94.51 208.12,-100.73"/>
</a>
</g>
</g>
<!-- Node15 -->
<g id="Node000015" class="node">
<title>Node15</title>
<g id="a_Node000015"><a xlink:href="../../d4/d1b/classTiny__BME280.xhtml#ad9a42aed9801eb95065745eabdf7e670" target="_top" xlink:title="Writes an 8 bit value over I2C.">
<polygon fill="white" stroke="#666666" points="504.5,-19 385.5,-19 385.5,0 504.5,0 504.5,-19"/>
<text text-anchor="middle" x="445" y="-7" font-family="Helvetica,sans-Serif" font-size="10.00">Tiny_BME280::write8</text>
</a>
</g>
</g>
<!-- Node1&#45;&gt;Node15 -->
<g id="edge18_Node000001_Node000015" class="edge">
<title>Node1&#45;&gt;Node15</title>
<g id="a_edge18_Node000001_Node000015"><a xlink:title=" ">
<path fill="none" stroke="#63b8ff" d="M57.49,-166.86C68.27,-144.87 97.89,-90.98 140,-65.5 212.13,-21.86 310.21,-10.69 375.23,-8.58"/>
<polygon fill="#63b8ff" stroke="#63b8ff" points="375.47,-12.07 385.38,-8.31 375.29,-5.07 375.47,-12.07"/>
</a>
</g>
</g>
<!-- Node3 -->
<g id="Node000003" class="node">
<title>Node3</title>
<g id="a_Node000003"><a xlink:href="../../d5/df3/wiring_8c.xhtml#a8b24cbb7c3486e1bfa05c86db83ecb01" target="_top" xlink:title=" ">
<polygon fill="white" stroke="#666666" points="470,-317 420,-317 420,-298 470,-298 470,-317"/>
<text text-anchor="middle" x="445" y="-305" font-family="Helvetica,sans-Serif" font-size="10.00">micros</text>
</a>
</g>
</g>
<!-- Node2&#45;&gt;Node3 -->
<g id="edge2_Node000002_Node000003" class="edge">
<title>Node2&#45;&gt;Node3</title>
<g id="a_edge2_Node000002_Node000003"><a xlink:title=" ">
<path fill="none" stroke="#63b8ff" d="M257.09,-274.25C293.06,-280.65 366.58,-293.73 409.92,-301.44"/>
<polygon fill="#63b8ff" stroke="#63b8ff" points="409.53,-304.92 419.99,-303.23 410.76,-298.03 409.53,-304.92"/>
</a>
</g>
</g>
<!-- Node4 -->
<g id="Node000004" class="node">
<title>Node4</title>
<g id="a_Node000004"><a xlink:href="../../de/df0/Arduino_8h.xhtml#a7cb51f5c2b5cad3766f19eb69c92793b" target="_top" xlink:title=" ">
<polygon fill="white" stroke="#666666" points="465.5,-280 424.5,-280 424.5,-261 465.5,-261 465.5,-280"/>
<text text-anchor="middle" x="445" y="-268" font-family="Helvetica,sans-Serif" font-size="10.00">yield</text>
</a>
</g>
</g>
<!-- Node2&#45;&gt;Node4 -->
<g id="edge3_Node000002_Node000004" class="edge">
<title>Node2&#45;&gt;Node4</title>
<g id="a_edge3_Node000002_Node000004"><a xlink:title=" ">
<path fill="none" stroke="#63b8ff" d="M257.09,-270.5C294.32,-270.5 371.77,-270.5 414.35,-270.5"/>
<polygon fill="#63b8ff" stroke="#63b8ff" points="414.38,-274 424.38,-270.5 414.38,-267 414.38,-274"/>
</a>
</g>
</g>
<!-- Node5&#45;&gt;Node6 -->
<g id="edge5_Node000005_Node000006" class="edge">
<title>Node5&#45;&gt;Node6</title>
<g id="a_edge5_Node000005_Node000006"><a xlink:title=" ">
<path fill="none" stroke="#63b8ff" d="M330.26,-233.5C345.98,-233.5 362,-233.5 376.87,-233.5"/>
<polygon fill="#63b8ff" stroke="#63b8ff" points="376.96,-237 386.96,-233.5 376.96,-230 376.96,-237"/>
</a>
</g>
</g>
<!-- Node7&#45;&gt;Node6 -->
<g id="edge10_Node000007_Node000006" class="edge">
<title>Node7&#45;&gt;Node6</title>
<g id="a_edge10_Node000007_Node000006"><a xlink:title=" ">
<path fill="none" stroke="#63b8ff" d="M289.07,-167.01C302.81,-170.55 317.29,-175.28 330,-181.5 348.2,-190.42 348.02,-200.14 366,-209.5 374.58,-213.97 384.14,-217.76 393.53,-220.91"/>
<polygon fill="#63b8ff" stroke="#63b8ff" points="392.63,-224.3 403.22,-223.98 394.74,-217.63 392.63,-224.3"/>
</a>
</g>
</g>
<!-- Node8 -->
<g id="Node000008" class="node">
<title>Node8</title>
<g id="a_Node000008"><a xlink:href="../../d4/d1b/classTiny__BME280.xhtml#a91c6dd90a0518655c27d12d0f7d462fe" target="_top" xlink:title="Reads a signed 16 bit little endian value over I2C.">
<polygon fill="white" stroke="#666666" points="699,-186 560,-186 560,-167 699,-167 699,-186"/>
<text text-anchor="middle" x="629.5" y="-174" font-family="Helvetica,sans-Serif" font-size="10.00">Tiny_BME280::read16_LE</text>
</a>
</g>
</g>
<!-- Node7&#45;&gt;Node8 -->
<g id="edge8_Node000007_Node000008" class="edge">
<title>Node7&#45;&gt;Node8</title>
<g id="a_edge8_Node000007_Node000008"><a xlink:title=" ">
<path fill="none" stroke="#63b8ff" d="M288.94,-167.01C312.45,-170.78 340.52,-174.65 366,-176.5 427.57,-180.98 497.49,-180.71 549.67,-179.48"/>
<polygon fill="#63b8ff" stroke="#63b8ff" points="549.96,-182.97 559.87,-179.22 549.78,-175.97 549.96,-182.97"/>
</a>
</g>
</g>
<!-- Node10 -->
<g id="Node000010" class="node">
<title>Node10</title>
<g id="a_Node000010"><a xlink:href="../../d4/d1b/classTiny__BME280.xhtml#a91b268f8bf722d5f317e5d6029116d7a" target="_top" xlink:title="Reads a signed little endian 16 bit value over I2C.">
<polygon fill="white" stroke="#666666" points="517.5,-167 372.5,-167 372.5,-148 517.5,-148 517.5,-167"/>
<text text-anchor="middle" x="445" y="-155" font-family="Helvetica,sans-Serif" font-size="10.00">Tiny_BME280::readS16_LE</text>
</a>
</g>
</g>
<!-- Node7&#45;&gt;Node10 -->
<g id="edge11_Node000007_Node000010" class="edge">
<title>Node7&#45;&gt;Node10</title>
<g id="a_edge11_Node000007_Node000010"><a xlink:title=" ">
<path fill="none" stroke="#63b8ff" d="M319.1,-157.5C333.31,-157.5 348.06,-157.5 362.23,-157.5"/>
<polygon fill="#63b8ff" stroke="#63b8ff" points="362.43,-161 372.43,-157.5 362.42,-154 362.43,-161"/>
</a>
</g>
</g>
<!-- Node9 -->
<g id="Node000009" class="node">
<title>Node9</title>
<g id="a_Node000009"><a xlink:href="../../d4/d1b/classTiny__BME280.xhtml#a336e34f6d83b30ea2fd7da60954cccb1" target="_top" xlink:title="Reads a 16 bit value over I2C.">
<polygon fill="white" stroke="#666666" points="857,-186 735,-186 735,-167 857,-167 857,-186"/>
<text text-anchor="middle" x="796" y="-174" font-family="Helvetica,sans-Serif" font-size="10.00">Tiny_BME280::read16</text>
</a>
</g>
</g>
<!-- Node8&#45;&gt;Node9 -->
<g id="edge9_Node000008_Node000009" class="edge">
<title>Node8&#45;&gt;Node9</title>
<g id="a_edge9_Node000008_Node000009"><a xlink:title=" ">
<path fill="none" stroke="#63b8ff" d="M699.31,-176.5C707.7,-176.5 716.28,-176.5 724.68,-176.5"/>
<polygon fill="#63b8ff" stroke="#63b8ff" points="724.83,-180 734.83,-176.5 724.83,-173 724.83,-180"/>
</a>
</g>
</g>
<!-- Node10&#45;&gt;Node8 -->
<g id="edge12_Node000010_Node000008" class="edge">
<title>Node10&#45;&gt;Node8</title>
<g id="a_edge12_Node000010_Node000008"><a xlink:title=" ">
<path fill="none" stroke="#63b8ff" d="M517.61,-164.95C528.12,-166.05 539.01,-167.18 549.66,-168.29"/>
<polygon fill="#63b8ff" stroke="#63b8ff" points="549.48,-171.79 559.79,-169.35 550.2,-164.83 549.48,-171.79"/>
</a>
</g>
</g>
<!-- Node12 -->
<g id="Node000012" class="node">
<title>Node12</title>
<g id="a_Node000012"><a xlink:href="../../d6/dd8/structTiny__BME280_1_1config.xhtml#adef36b57c517713fcec45159134408d2" target="_top" xlink:title=" ">
<polygon fill="white" stroke="#666666" points="515,-130 375,-130 375,-111 515,-111 515,-130"/>
<text text-anchor="middle" x="445" y="-118" font-family="Helvetica,sans-Serif" font-size="10.00">Tiny_BME280::config::get</text>
</a>
</g>
</g>
<!-- Node11&#45;&gt;Node12 -->
<g id="edge14_Node000011_Node000012" class="edge">
<title>Node11&#45;&gt;Node12</title>
<g id="a_edge14_Node000011_Node000012"><a xlink:title=" ">
<path fill="none" stroke="#63b8ff" d="M289.57,-93.03C317.24,-97.95 351.2,-103.99 380.21,-109.15"/>
<polygon fill="#63b8ff" stroke="#63b8ff" points="379.8,-112.63 390.26,-110.94 381.02,-105.74 379.8,-112.63"/>
</a>
</g>
</g>
<!-- Node13 -->
<g id="Node000013" class="node">
<title>Node13</title>
<g id="a_Node000013"><a xlink:href="../../d6/d58/structTiny__BME280_1_1ctrl__meas.xhtml#a696b8d72794d352a5b33b92dcc575200" target="_top" xlink:title=" ">
<polygon fill="white" stroke="#666666" points="524,-93 366,-93 366,-74 524,-74 524,-93"/>
<text text-anchor="middle" x="445" y="-81" font-family="Helvetica,sans-Serif" font-size="10.00">Tiny_BME280::ctrl_meas::get</text>
</a>
</g>
</g>
<!-- Node11&#45;&gt;Node13 -->
<g id="edge15_Node000011_Node000013" class="edge">
<title>Node11&#45;&gt;Node13</title>
<g id="a_edge15_Node000011_Node000013"><a xlink:title=" ">
<path fill="none" stroke="#63b8ff" d="M309.63,-83.5C324.58,-83.5 340.45,-83.5 355.85,-83.5"/>
<polygon fill="#63b8ff" stroke="#63b8ff" points="355.89,-87 365.89,-83.5 355.89,-80 355.89,-87"/>
</a>
</g>
</g>
<!-- Node14 -->
<g id="Node000014" class="node">
<title>Node14</title>
<g id="a_Node000014"><a xlink:href="../../d6/d11/structTiny__BME280_1_1ctrl__hum.xhtml#a53f85d87bdf492d40cb651a0674ce59a" target="_top" xlink:title=" ">
<polygon fill="white" stroke="#666666" points="521.5,-56 368.5,-56 368.5,-37 521.5,-37 521.5,-56"/>
<text text-anchor="middle" x="445" y="-44" font-family="Helvetica,sans-Serif" font-size="10.00">Tiny_BME280::ctrl_hum::get</text>
</a>
</g>
</g>
<!-- Node11&#45;&gt;Node14 -->
<g id="edge16_Node000011_Node000014" class="edge">
<title>Node11&#45;&gt;Node14</title>
<g id="a_edge16_Node000011_Node000014"><a xlink:title=" ">
<path fill="none" stroke="#63b8ff" d="M289.57,-73.97C317.24,-69.05 351.2,-63.01 380.21,-57.85"/>
<polygon fill="#63b8ff" stroke="#63b8ff" points="381.02,-61.26 390.26,-56.06 379.8,-54.37 381.02,-61.26"/>
</a>
</g>
</g>
<!-- Node11&#45;&gt;Node15 -->
<g id="edge17_Node000011_Node000015" class="edge">
<title>Node11&#45;&gt;Node15</title>
<g id="a_edge17_Node000011_Node000015"><a xlink:title=" ">
<path fill="none" stroke="#63b8ff" d="M256.98,-73.91C288.01,-59.83 344.75,-34.47 366,-27.5 372.48,-25.38 379.34,-23.41 386.19,-21.61"/>
<polygon fill="#63b8ff" stroke="#63b8ff" points="387.34,-24.93 396.19,-19.1 385.64,-18.14 387.34,-24.93"/>
</a>
</g>
</g>
</g>
</svg>

<g id="navigator" transform="translate(0 0)" fill="#404254">
  <rect fill="#f2f5e9" fill-opacity="0.5" stroke="#606060" stroke-width=".5" x="0" y="0" width="60" height="60"/>
  <use id="zoomplus" xlink:href="#zoomPlus" x="17" y="9" onmousedown="handleZoom(evt,'in')"/>
  <use id="zoomminus" xlink:href="#zoomMin" x="42" y="9" onmousedown="handleZoom(evt,'out')"/>
  <use id="reset" xlink:href="#resetDef" x="30" y="36" onmousedown="handleReset()"/>
   <use id="arrowup" xlink:href="#arrowUp" x="0" y="0" onmousedown="handlePan(0,-1)"/>
  <use id="arrowright" xlink:href="#arrowRight" x="0" y="0" onmousedown="handlePan(1,0)"/>
  <use id="arrowdown" xlink:href="#arrowDown" x="0" y="0" onmousedown="handlePan(0,1)"/>
  <use id="arrowleft" xlink:href="#arrowLeft" x="0" y="0" onmousedown="handlePan(-1,0)"/>
</g>
<svg viewBox="0 0 15 15" width="100%" height="30px" preserveAspectRatio="xMaxYMin meet">
 <g id="arrow_out" transform="scale(0.3 0.3)">
  <a xlink:href="classTiny__BME280_a5b3b5a5e1edf6e327c19e40367dc7e46_cgraph_org.svg" target="_base">
   <rect id="button" ry="5" rx="5" y="6" x="6" height="38" width="38"
        fill="#f2f5e9" fill-opacity="0.5" stroke="#606060" stroke-width="1.0"/>
   <path id="arrow"
     d="M 11.500037,31.436501 C 11.940474,20.09759 22.043105,11.32322 32.158766,21.979434 L 37.068811,17.246167 C 37.068811,17.246167 37.088388,32 37.088388,32 L 22.160133,31.978069 C 22.160133,31.978069 26.997745,27.140456 26.997745,27.140456 C 18.528582,18.264221 13.291696,25.230495 11.500037,31.436501 z"
     style="fill:#404040;"/>
  </a>
 </g>
</svg>

<style type='text/css'>
<![CDATA[
[data-mouse-over-selected='false'] { opacity: 0.7; }
[data-mouse-over-selected='true']  { opacity: 1.0; }
]]>
</style>
<script type="application/ecmascript"><![CDATA[
document.addEventListener('DOMContentLoaded', (event) => {
  highlightEdges();
  highlightAdjacentNodes();
});
]]></script>
</svg>
