<?xml version="1.0" encoding="UTF-8" standalone="no"?>
<!DOCTYPE svg PUBLIC "-//W3C//DTD SVG 1.1//EN"
 "http://www.w3.org/Graphics/SVG/1.1/DTD/svg11.dtd">
<!-- Generated by graphviz version 2.43.0 (0)
 -->
<!-- Title: SoftwareSerial::isListening Pages: 1 -->
<!--zoomable 175 -->

<svg id="main" version="1.1" xmlns="http://www.w3.org/2000/svg" xmlns:xlink="http://www.w3.org/1999/xlink" xml:space="preserve" onload="init(evt)">
<style type="text/css"><![CDATA[
.node, .edge {opacity: 0.7;}
.node.selected, .edge.selected {opacity: 1;}
.edge:hover path { stroke: red; }
.edge:hover polygon { stroke: red; fill: red; }
]]></style>

<defs>
  <circle id="rim" cx="0" cy="0" r="7"/>
  <circle id="rim2" cx="0" cy="0" r="3.5"/>
  <g id="zoomPlus">
    <use xlink:href="#rim" fill="#404040"><set attributeName="fill" to="#808080" begin="zoomplus.mouseover" end="zoomplus.mouseout"/></use>
    <path d="M-4,0h8M0,-4v8" fill="none" stroke="white" stroke-width="1.5" pointer-events="none"/>
  </g>
  <g id="zoomMin">
    <use xlink:href="#rim" fill="#404040"><set attributeName="fill" to="#808080" begin="zoomminus.mouseover" end="zoomminus.mouseout"/></use>
    <path d="M-4,0h8" fill="none" stroke="white" stroke-width="1.5" pointer-events="none"/>
  </g>
  <g id="arrowUp" transform="translate(30 24)">
    <use xlink:href="#rim"/>
    <path pointer-events="none" fill="none" stroke="white" stroke-width="1.5" d="M0,-3.0v7 M-2.5,-0.5L0,-3.0L2.5,-0.5"/>
  </g>
  <g id="arrowRight" transform="rotate(90) translate(36 -43)">
    <use xlink:href="#rim"/>
    <path pointer-events="none" fill="none" stroke="white" stroke-width="1.5" d="M0,-3.0v7 M-2.5,-0.5L0,-3.0L2.5,-0.5"/>
  </g>
  <g id="arrowDown" transform="rotate(180) translate(-30 -48)">
    <use xlink:href="#rim"/>
    <path pointer-events="none" fill="none" stroke="white" stroke-width="1.5" d="M0,-3.0v7 M-2.5,-0.5L0,-3.0L2.5,-0.5"/>
  </g>
  <g id="arrowLeft" transform="rotate(270) translate(-36 17)">
    <use xlink:href="#rim"/>
    <path pointer-events="none" fill="none" stroke="white" stroke-width="1.5" d="M0,-3.0v7 M-2.5,-0.5L0,-3.0L2.5,-0.5"/>
  </g>
  <g id="resetDef">
    <use xlink:href="#rim2" fill="#404040"><set attributeName="fill" to="#808080" begin="reset.mouseover" end="reset.mouseout"/></use>
  </g>
</defs>
<script type="application/ecmascript">
var viewWidth = 859;
var viewHeight = 175;
var sectionId = 'dynsection-0';
</script>
<script type="application/ecmascript" xlink:href="../../svg.min.js"/>
<svg id="graph" class="graph">
<g id="viewport">
<title>SoftwareSerial::isListening</title>
<!-- Node1 -->
<g id="Node000001" class="node">
<title>Node1</title>
<g id="a_Node000001"><a xlink:title=" ">
<polygon fill="#999999" stroke="#666666" points="851,-74 705,-74 705,-55 851,-55 851,-74"/>
<text text-anchor="middle" x="778" y="-62" font-family="Helvetica,sans-Serif" font-size="10.00">SoftwareSerial::isListening</text>
</a>
</g>
</g>
<!-- Node2 -->
<g id="Node000002" class="node">
<title>Node2</title>
<g id="a_Node000002"><a xlink:href="../../d2/de7/classSoftwareSerial_a4cbf77a4e90e15ca576972d7952659c5.xhtml#a4cbf77a4e90e15ca576972d7952659c5" target="_top" xlink:title=" ">
<polygon fill="white" stroke="#666666" points="669,-130 531,-130 531,-111 669,-111 669,-130"/>
<text text-anchor="middle" x="600" y="-118" font-family="Helvetica,sans-Serif" font-size="10.00">SoftwareSerial::available</text>
</a>
</g>
</g>
<!-- Node1&#45;&gt;Node2 -->
<g id="edge1_Node000001_Node000002" class="edge">
<title>Node1&#45;&gt;Node2</title>
<g id="a_edge1_Node000001_Node000002"><a xlink:title=" ">
<path fill="none" stroke="#63b8ff" d="M741.97,-77.62C720.95,-85.29 693.6,-94.93 669,-102.5 659.43,-105.45 649.01,-108.35 639.27,-110.94"/>
<polygon fill="#63b8ff" stroke="#63b8ff" points="743.26,-80.87 751.44,-74.14 740.85,-74.3 743.26,-80.87"/>
</a>
</g>
</g>
<!-- Node10 -->
<g id="Node000010" class="node">
<title>Node10</title>
<g id="a_Node000010"><a xlink:href="../../d2/de7/classSoftwareSerial_a9a46db376a19fc958e011e38799b902c.xhtml#a9a46db376a19fc958e011e38799b902c" target="_top" xlink:title=" ">
<polygon fill="white" stroke="#666666" points="658,-93 542,-93 542,-74 658,-74 658,-93"/>
<text text-anchor="middle" x="600" y="-81" font-family="Helvetica,sans-Serif" font-size="10.00">SoftwareSerial::flush</text>
</a>
</g>
</g>
<!-- Node1&#45;&gt;Node10 -->
<g id="edge11_Node000001_Node000010" class="edge">
<title>Node1&#45;&gt;Node10</title>
<g id="a_edge11_Node000001_Node000010"><a xlink:title=" ">
<path fill="none" stroke="#63b8ff" d="M694.61,-73.39C682.29,-74.72 669.82,-76.07 658.18,-77.33"/>
<polygon fill="#63b8ff" stroke="#63b8ff" points="695.34,-76.84 704.91,-72.28 694.59,-69.88 695.34,-76.84"/>
</a>
</g>
</g>
<!-- Node11 -->
<g id="Node000011" class="node">
<title>Node11</title>
<g id="a_Node000011"><a xlink:href="../../d2/de7/classSoftwareSerial_a51c2d2e79f0d982b1ef9cc9ac4453648.xhtml#a51c2d2e79f0d982b1ef9cc9ac4453648" target="_top" xlink:title=" ">
<polygon fill="white" stroke="#666666" points="658.5,-56 541.5,-56 541.5,-37 658.5,-37 658.5,-56"/>
<text text-anchor="middle" x="600" y="-44" font-family="Helvetica,sans-Serif" font-size="10.00">SoftwareSerial::peek</text>
</a>
</g>
</g>
<!-- Node1&#45;&gt;Node11 -->
<g id="edge12_Node000001_Node000011" class="edge">
<title>Node1&#45;&gt;Node11</title>
<g id="a_edge12_Node000001_Node000011"><a xlink:title=" ">
<path fill="none" stroke="#63b8ff" d="M694.74,-56.09C682.57,-54.84 670.25,-53.58 658.72,-52.4"/>
<polygon fill="#63b8ff" stroke="#63b8ff" points="694.6,-59.59 704.91,-57.13 695.31,-52.63 694.6,-59.59"/>
</a>
</g>
</g>
<!-- Node12 -->
<g id="Node000012" class="node">
<title>Node12</title>
<g id="a_Node000012"><a xlink:href="../../d2/de7/classSoftwareSerial_a2d0b2f2868d519c716114777f482705b.xhtml#a2d0b2f2868d519c716114777f482705b" target="_top" xlink:title=" ">
<polygon fill="white" stroke="#666666" points="657.5,-19 542.5,-19 542.5,0 657.5,0 657.5,-19"/>
<text text-anchor="middle" x="600" y="-7" font-family="Helvetica,sans-Serif" font-size="10.00">SoftwareSerial::read</text>
</a>
</g>
</g>
<!-- Node1&#45;&gt;Node12 -->
<g id="edge13_Node000001_Node000012" class="edge">
<title>Node1&#45;&gt;Node12</title>
<g id="a_edge13_Node000001_Node000012"><a xlink:title=" ">
<path fill="none" stroke="#63b8ff" d="M739.89,-51.63C719.12,-44.55 692.71,-35.76 669,-28.5 658.45,-25.27 646.92,-21.96 636.39,-19.03"/>
<polygon fill="#63b8ff" stroke="#63b8ff" points="739,-55.02 749.6,-54.95 741.27,-48.4 739,-55.02"/>
</a>
</g>
</g>
<!-- Node3 -->
<g id="Node000003" class="node">
<title>Node3</title>
<g id="a_Node000003"><a xlink:href="../../dc/d3d/gps_8cpp_a05a3d705d8063851304bb49200834d1b.xhtml#a05a3d705d8063851304bb49200834d1b" target="_top" xlink:title="Lit les données GPS.">
<polygon fill="white" stroke="#666666" points="495,-130 437,-130 437,-111 495,-111 495,-130"/>
<text text-anchor="middle" x="466" y="-118" font-family="Helvetica,sans-Serif" font-size="10.00">readGPS</text>
</a>
</g>
</g>
<!-- Node2&#45;&gt;Node3 -->
<g id="edge2_Node000002_Node000003" class="edge">
<title>Node2&#45;&gt;Node3</title>
<g id="a_edge2_Node000002_Node000003"><a xlink:title=" ">
<path fill="none" stroke="#63b8ff" d="M520.42,-120.5C511.42,-120.5 502.75,-120.5 495.1,-120.5"/>
<polygon fill="#63b8ff" stroke="#63b8ff" points="520.68,-124 530.68,-120.5 520.68,-117 520.68,-124"/>
</a>
</g>
</g>
<!-- Node4 -->
<g id="Node000004" class="node">
<title>Node4</title>
<g id="a_Node000004"><a xlink:href="../../d6/d30/acquisition_8cpp_aa378a3751950c161e743d0fcac2044f2.xhtml#aa378a3751950c161e743d0fcac2044f2" target="_top" xlink:title="Fonction d&#39;acquisition des données.">
<polygon fill="white" stroke="#666666" points="401,-130 331,-130 331,-111 401,-111 401,-130"/>
<text text-anchor="middle" x="366" y="-118" font-family="Helvetica,sans-Serif" font-size="10.00">acquisition</text>
</a>
</g>
</g>
<!-- Node3&#45;&gt;Node4 -->
<g id="edge3_Node000003_Node000004" class="edge">
<title>Node3&#45;&gt;Node4</title>
<g id="a_edge3_Node000003_Node000004"><a xlink:title=" ">
<path fill="none" stroke="#63b8ff" d="M426.66,-120.5C418.31,-120.5 409.53,-120.5 401.36,-120.5"/>
<polygon fill="#63b8ff" stroke="#63b8ff" points="426.92,-124 436.92,-120.5 426.92,-117 426.92,-124"/>
</a>
</g>
</g>
<!-- Node5 -->
<g id="Node000005" class="node">
<title>Node5</title>
<g id="a_Node000005"><a xlink:href="../../d9/ddd/economy_8cpp_a35740c7a73b48d918cb4e6d891d46bed.xhtml#a35740c7a73b48d918cb4e6d891d46bed" target="_top" xlink:title="Exécute une étape de la boucle principale du mode économique.">
<polygon fill="white" stroke="#666666" points="286,-167 160,-167 160,-148 286,-148 286,-167"/>
<text text-anchor="middle" x="223" y="-155" font-family="Helvetica,sans-Serif" font-size="10.00">runEconomyModeStep</text>
</a>
</g>
</g>
<!-- Node4&#45;&gt;Node5 -->
<g id="edge4_Node000004_Node000005" class="edge">
<title>Node4&#45;&gt;Node5</title>
<g id="a_edge4_Node000004_Node000005"><a xlink:title=" ">
<path fill="none" stroke="#63b8ff" d="M320.97,-132.57C312.36,-134.9 303.4,-137.29 295,-139.5 284.3,-142.31 272.67,-145.29 261.98,-148"/>
<polygon fill="#63b8ff" stroke="#63b8ff" points="322.12,-135.89 330.85,-129.89 320.28,-129.13 322.12,-135.89"/>
</a>
</g>
</g>
<!-- Node8 -->
<g id="Node000008" class="node">
<title>Node8</title>
<g id="a_Node000008"><a xlink:href="../../d6/d46/maintenance_8cpp_ae80c7faecffa585182b14e2ee396009e.xhtml#ae80c7faecffa585182b14e2ee396009e" target="_top" xlink:title="Exécute une étape de la boucle principale du mode maintenance.">
<polygon fill="white" stroke="#666666" points="295,-130 151,-130 151,-111 295,-111 295,-130"/>
<text text-anchor="middle" x="223" y="-118" font-family="Helvetica,sans-Serif" font-size="10.00">runMaintenanceModeStep</text>
</a>
</g>
</g>
<!-- Node4&#45;&gt;Node8 -->
<g id="edge7_Node000004_Node000008" class="edge">
<title>Node4&#45;&gt;Node8</title>
<g id="a_edge7_Node000004_Node000008"><a xlink:title=" ">
<path fill="none" stroke="#63b8ff" d="M320.84,-120.5C312.65,-120.5 303.91,-120.5 295.16,-120.5"/>
<polygon fill="#63b8ff" stroke="#63b8ff" points="320.87,-124 330.87,-120.5 320.87,-117 320.87,-124"/>
</a>
</g>
</g>
<!-- Node9 -->
<g id="Node000009" class="node">
<title>Node9</title>
<g id="a_Node000009"><a xlink:href="../../df/d92/standard_8cpp_ad0b3e86793f7441084351fc2de4d4c45.xhtml#ad0b3e86793f7441084351fc2de4d4c45" target="_top" xlink:title="Exécute une étape de la boucle principale du mode standard.">
<polygon fill="white" stroke="#666666" points="285.5,-93 160.5,-93 160.5,-74 285.5,-74 285.5,-93"/>
<text text-anchor="middle" x="223" y="-81" font-family="Helvetica,sans-Serif" font-size="10.00">runStandardModeStep</text>
</a>
</g>
</g>
<!-- Node4&#45;&gt;Node9 -->
<g id="edge9_Node000004_Node000009" class="edge">
<title>Node4&#45;&gt;Node9</title>
<g id="a_edge9_Node000004_Node000009"><a xlink:title=" ">
<path fill="none" stroke="#63b8ff" d="M320.99,-108.95C301.48,-103.83 278.8,-97.88 260.28,-93.02"/>
<polygon fill="#63b8ff" stroke="#63b8ff" points="320.31,-112.39 330.87,-111.54 322.08,-105.62 320.31,-112.39"/>
</a>
</g>
</g>
<!-- Node6 -->
<g id="Node000006" class="node">
<title>Node6</title>
<g id="a_Node000006"><a xlink:href="../../de/dfb/src_2main_8cpp_afe461d27b9c48d5921c00d521181f12f.xhtml#afe461d27b9c48d5921c00d521181f12f" target="_top" xlink:title=" ">
<polygon fill="white" stroke="#666666" points="115,-130 77,-130 77,-111 115,-111 115,-130"/>
<text text-anchor="middle" x="96" y="-118" font-family="Helvetica,sans-Serif" font-size="10.00">loop</text>
</a>
</g>
</g>
<!-- Node5&#45;&gt;Node6 -->
<g id="edge5_Node000005_Node000006" class="edge">
<title>Node5&#45;&gt;Node6</title>
<g id="a_edge5_Node000005_Node000006"><a xlink:title=" ">
<path fill="none" stroke="#63b8ff" d="M171.58,-145.32C164.64,-143.46 157.62,-141.5 151,-139.5 139.01,-135.88 125.74,-131.22 115.36,-127.42"/>
<polygon fill="#63b8ff" stroke="#63b8ff" points="171.09,-148.8 181.65,-147.94 172.86,-142.03 171.09,-148.8"/>
</a>
</g>
</g>
<!-- Node7 -->
<g id="Node000007" class="node">
<title>Node7</title>
<g id="a_Node000007"><a xlink:href="../../d2/d81/libs_2Arduino__AVR_2main_8cpp_a840291bc02cba5474a4cb46a9b9566fe.xhtml#a840291bc02cba5474a4cb46a9b9566fe" target="_top" xlink:title=" ">
<polygon fill="white" stroke="#666666" points="41,-130 0,-130 0,-111 41,-111 41,-130"/>
<text text-anchor="middle" x="20.5" y="-118" font-family="Helvetica,sans-Serif" font-size="10.00">main</text>
</a>
</g>
</g>
<!-- Node6&#45;&gt;Node7 -->
<g id="edge6_Node000006_Node000007" class="edge">
<title>Node6&#45;&gt;Node7</title>
<g id="a_edge6_Node000006_Node000007"><a xlink:title=" ">
<path fill="none" stroke="#63b8ff" d="M66.79,-120.5C58.18,-120.5 48.9,-120.5 41,-120.5"/>
<polygon fill="#63b8ff" stroke="#63b8ff" points="66.83,-124 76.83,-120.5 66.83,-117 66.83,-124"/>
</a>
</g>
</g>
<!-- Node8&#45;&gt;Node6 -->
<g id="edge8_Node000008_Node000006" class="edge">
<title>Node8&#45;&gt;Node6</title>
<g id="a_edge8_Node000008_Node000006"><a xlink:title=" ">
<path fill="none" stroke="#63b8ff" d="M140.71,-120.5C131.26,-120.5 122.45,-120.5 115.24,-120.5"/>
<polygon fill="#63b8ff" stroke="#63b8ff" points="140.74,-124 150.74,-120.5 140.74,-117 140.74,-124"/>
</a>
</g>
</g>
<!-- Node9&#45;&gt;Node6 -->
<g id="edge10_Node000009_Node000006" class="edge">
<title>Node9&#45;&gt;Node6</title>
<g id="a_edge10_Node000009_Node000006"><a xlink:title=" ">
<path fill="none" stroke="#63b8ff" d="M174.75,-95.72C166.8,-97.9 158.65,-100.2 151,-102.5 139.07,-106.08 125.81,-110.5 115.41,-114.06"/>
<polygon fill="#63b8ff" stroke="#63b8ff" points="175.92,-99.03 184.66,-93.04 174.1,-92.27 175.92,-99.03"/>
</a>
</g>
</g>
</g>
</svg>

<g id="navigator" transform="translate(0 0)" fill="#404254">
  <rect fill="#f2f5e9" fill-opacity="0.5" stroke="#606060" stroke-width=".5" x="0" y="0" width="60" height="60"/>
  <use id="zoomplus" xlink:href="#zoomPlus" x="17" y="9" onmousedown="handleZoom(evt,'in')"/>
  <use id="zoomminus" xlink:href="#zoomMin" x="42" y="9" onmousedown="handleZoom(evt,'out')"/>
  <use id="reset" xlink:href="#resetDef" x="30" y="36" onmousedown="handleReset()"/>
   <use id="arrowup" xlink:href="#arrowUp" x="0" y="0" onmousedown="handlePan(0,-1)"/>
  <use id="arrowright" xlink:href="#arrowRight" x="0" y="0" onmousedown="handlePan(1,0)"/>
  <use id="arrowdown" xlink:href="#arrowDown" x="0" y="0" onmousedown="handlePan(0,1)"/>
  <use id="arrowleft" xlink:href="#arrowLeft" x="0" y="0" onmousedown="handlePan(-1,0)"/>
</g>
<svg viewBox="0 0 15 15" width="100%" height="30px" preserveAspectRatio="xMaxYMin meet">
 <g id="arrow_out" transform="scale(0.3 0.3)">
  <a xlink:href="classSoftwareSerial_a7b3fb4a8f57d2b5f2233f841d71ef80f_a7b3fb4a8f57d2b5f2233f841d71ef80f_icgraph_org.svg" target="_base">
   <rect id="button" ry="5" rx="5" y="6" x="6" height="38" width="38"
        fill="#f2f5e9" fill-opacity="0.5" stroke="#606060" stroke-width="1.0"/>
   <path id="arrow"
     d="M 11.500037,31.436501 C 11.940474,20.09759 22.043105,11.32322 32.158766,21.979434 L 37.068811,17.246167 C 37.068811,17.246167 37.088388,32 37.088388,32 L 22.160133,31.978069 C 22.160133,31.978069 26.997745,27.140456 26.997745,27.140456 C 18.528582,18.264221 13.291696,25.230495 11.500037,31.436501 z"
     style="fill:#404040;"/>
  </a>
 </g>
</svg>

<style type='text/css'>
<![CDATA[
[data-mouse-over-selected='false'] { opacity: 0.7; }
[data-mouse-over-selected='true']  { opacity: 1.0; }
]]>
</style>
<script type="application/ecmascript"><![CDATA[
document.addEventListener('DOMContentLoaded', (event) => {
  highlightEdges();
  highlightAdjacentNodes();
});
]]></script>
</svg>
