<?xml version="1.0" encoding="UTF-8" standalone="no"?>
<!DOCTYPE svg PUBLIC "-//W3C//DTD SVG 1.1//EN"
 "http://www.w3.org/Graphics/SVG/1.1/DTD/svg11.dtd">
<!-- Generated by graphviz version 2.43.0 (0)
 -->
<!-- Title: SoftwareSerial::setTX Pages: 1 -->
<svg width="350pt" height="64pt"
 viewBox="0.00 0.00 350.00 64.00" xmlns="http://www.w3.org/2000/svg" xmlns:xlink="http://www.w3.org/1999/xlink">

<svg id="main" version="1.1" xmlns="http://www.w3.org/2000/svg" xmlns:xlink="http://www.w3.org/1999/xlink" xml:space="preserve" onload="init(evt)">
<style type="text/css"><![CDATA[
.node, .edge {opacity: 0.7;}
.node.selected, .edge.selected {opacity: 1;}
.edge:hover path { stroke: red; }
.edge:hover polygon { stroke: red; fill: red; }
]]></style>
<script type="application/ecmascript" xlink:href="../../svg.min.js"/>
<svg id="graph" class="graph">
<g id="graph0" class="graph" transform="scale(1 1) rotate(0) translate(4 60)">
<title>SoftwareSerial::setTX</title>
<!-- Node1 -->
<g id="Node000001" class="node">
<title>Node1</title>
<g id="a_Node000001"><a xlink:title=" ">
<polygon fill="#999999" stroke="#666666" points="121,-37 0,-37 0,-18 121,-18 121,-37"/>
<text text-anchor="middle" x="60.5" y="-25" font-family="Helvetica,sans-Serif" font-size="10.00">SoftwareSerial::setTX</text>
</a>
</g>
</g>
<!-- Node2 -->
<g id="Node000002" class="node">
<title>Node2</title>
<g id="a_Node000002"><a xlink:href="../../d5/d45/wiring__digital_8c.xhtml#a73b9b61feeaf7d790d107f2954a7fd93" target="_top" xlink:title=" ">
<polygon fill="white" stroke="#666666" points="231,-56 157,-56 157,-37 231,-37 231,-56"/>
<text text-anchor="middle" x="194" y="-44" font-family="Helvetica,sans-Serif" font-size="10.00">digitalWrite</text>
</a>
</g>
</g>
<!-- Node1&#45;&gt;Node2 -->
<g id="edge1_Node000001_Node000002" class="edge">
<title>Node1&#45;&gt;Node2</title>
<g id="a_edge1_Node000001_Node000002"><a xlink:title=" ">
<path fill="none" stroke="#63b8ff" d="M121.09,-36.11C129.79,-37.37 138.63,-38.64 147,-39.85"/>
<polygon fill="#63b8ff" stroke="#63b8ff" points="146.54,-43.32 156.94,-41.29 147.54,-36.4 146.54,-43.32"/>
</a>
</g>
</g>
<!-- Node4 -->
<g id="Node000004" class="node">
<title>Node4</title>
<g id="a_Node000004"><a xlink:href="../../d5/d45/wiring__digital_8c.xhtml#abf453c1659ee9fafa5af689523ac71e7" target="_top" xlink:title=" ">
<polygon fill="white" stroke="#666666" points="223.5,-19 164.5,-19 164.5,0 223.5,0 223.5,-19"/>
<text text-anchor="middle" x="194" y="-7" font-family="Helvetica,sans-Serif" font-size="10.00">pinMode</text>
</a>
</g>
</g>
<!-- Node1&#45;&gt;Node4 -->
<g id="edge3_Node000001_Node000004" class="edge">
<title>Node1&#45;&gt;Node4</title>
<g id="a_edge3_Node000001_Node000004"><a xlink:title=" ">
<path fill="none" stroke="#63b8ff" d="M121.09,-19.34C132.41,-17.79 143.97,-16.21 154.42,-14.78"/>
<polygon fill="#63b8ff" stroke="#63b8ff" points="155.01,-18.23 164.45,-13.41 154.06,-11.3 155.01,-18.23"/>
</a>
</g>
</g>
<!-- Node3 -->
<g id="Node000003" class="node">
<title>Node3</title>
<g id="a_Node000003"><a xlink:href="../../d5/d45/wiring__digital_8c.xhtml#ae3d0bcbe4eb927ca8f5d5c21b7e4f224" target="_top" xlink:title=" ">
<polygon fill="white" stroke="#666666" points="342,-56 267,-56 267,-37 342,-37 342,-56"/>
<text text-anchor="middle" x="304.5" y="-44" font-family="Helvetica,sans-Serif" font-size="10.00">turnOffPWM</text>
</a>
</g>
</g>
<!-- Node2&#45;&gt;Node3 -->
<g id="edge2_Node000002_Node000003" class="edge">
<title>Node2&#45;&gt;Node3</title>
<g id="a_edge2_Node000002_Node000003"><a xlink:title=" ">
<path fill="none" stroke="#63b8ff" d="M231.13,-46.5C239.28,-46.5 248.05,-46.5 256.57,-46.5"/>
<polygon fill="#63b8ff" stroke="#63b8ff" points="256.79,-50 266.79,-46.5 256.79,-43 256.79,-50"/>
</a>
</g>
</g>
</g>
</svg>
</svg>

<style type='text/css'>
<![CDATA[
[data-mouse-over-selected='false'] { opacity: 0.7; }
[data-mouse-over-selected='true']  { opacity: 1.0; }
]]>
</style>
<script type="application/ecmascript"><![CDATA[
document.addEventListener('DOMContentLoaded', (event) => {
  highlightEdges();
  highlightAdjacentNodes();
});
]]></script>
</svg>
