<?xml version="1.0" encoding="UTF-8" standalone="no"?>
<!DOCTYPE svg PUBLIC "-//W3C//DTD SVG 1.1//EN"
 "http://www.w3.org/Graphics/SVG/1.1/DTD/svg11.dtd">
<!-- Generated by graphviz version 2.43.0 (0)
 -->
<!-- Title: SoftwareSerial::handle_interrupt Pages: 1 -->
<svg width="635pt" height="131pt"
 viewBox="0.00 0.00 635.00 131.00" xmlns="http://www.w3.org/2000/svg" xmlns:xlink="http://www.w3.org/1999/xlink">
<g id="graph0" class="graph" transform="scale(1 1) rotate(0) translate(4 127)">
<title>SoftwareSerial::handle_interrupt</title>
<!-- Node1 -->
<g id="Node000001" class="node">
<title>Node1</title>
<g id="a_Node000001"><a xlink:title=" ">
<polygon fill="#999999" stroke="#666666" points="126,-85.5 0,-85.5 0,-55.5 126,-55.5 126,-85.5"/>
<text text-anchor="start" x="8" y="-73.5" font-family="Helvetica,sans-Serif" font-size="10.00">SoftwareSerial::handle</text>
<text text-anchor="middle" x="63" y="-62.5" font-family="Helvetica,sans-Serif" font-size="10.00">_interrupt</text>
</a>
</g>
</g>
<!-- Node2 -->
<g id="Node000002" class="node">
<title>Node2</title>
<g id="a_Node000002"><a xlink:href="../../d2/de7/classSoftwareSerial_a2153a6baf91debb96431c0703c2c276a.xhtml#a2153a6baf91debb96431c0703c2c276a" target="_top" xlink:title=" ">
<polygon fill="white" stroke="#666666" points="276,-80 162,-80 162,-61 276,-61 276,-80"/>
<text text-anchor="middle" x="219" y="-68" font-family="Helvetica,sans-Serif" font-size="10.00">SoftwareSerial::recv</text>
</a>
</g>
</g>
<!-- Node1&#45;&gt;Node2 -->
<g id="edge1_Node000001_Node000002" class="edge">
<title>Node1&#45;&gt;Node2</title>
<g id="a_edge1_Node000001_Node000002"><a xlink:title=" ">
<path fill="none" stroke="#63b8ff" d="M126.19,-70.5C134.5,-70.5 143.05,-70.5 151.43,-70.5"/>
<polygon fill="#63b8ff" stroke="#63b8ff" points="151.54,-74 161.54,-70.5 151.54,-67 151.54,-74"/>
</a>
</g>
</g>
<!-- Node3 -->
<g id="Node000003" class="node">
<title>Node3</title>
<g id="a_Node000003"><a xlink:href="../../d4/d73/SoftwareSerial_8cpp_a7ba959374e79d3320d69af12f7307f44.xhtml#a7ba959374e79d3320d69af12f7307f44" target="_top" xlink:title=" ">
<polygon fill="white" stroke="#666666" points="423.5,-123 349.5,-123 349.5,-104 423.5,-104 423.5,-123"/>
<text text-anchor="middle" x="386.5" y="-111" font-family="Helvetica,sans-Serif" font-size="10.00">DebugPulse</text>
</a>
</g>
</g>
<!-- Node2&#45;&gt;Node3 -->
<g id="edge2_Node000002_Node000003" class="edge">
<title>Node2&#45;&gt;Node3</title>
<g id="a_edge2_Node000002_Node000003"><a xlink:title=" ">
<path fill="none" stroke="#63b8ff" d="M256.71,-80.1C273.55,-84.49 293.79,-89.77 312,-94.5 320.9,-96.81 330.41,-99.27 339.53,-101.63"/>
<polygon fill="#63b8ff" stroke="#63b8ff" points="338.68,-105.03 349.23,-104.14 340.43,-98.25 338.68,-105.03"/>
</a>
</g>
</g>
<!-- Node4 -->
<g id="Node000004" class="node">
<title>Node4</title>
<g id="a_Node000004"><a xlink:href="../../d2/de7/classSoftwareSerial_a2dddb75a3a268984ac5e96265825a305.xhtml#a2dddb75a3a268984ac5e96265825a305" target="_top" xlink:title=" ">
<polygon fill="white" stroke="#666666" points="438,-85.5 335,-85.5 335,-55.5 438,-55.5 438,-85.5"/>
<text text-anchor="start" x="343" y="-73.5" font-family="Helvetica,sans-Serif" font-size="10.00">SoftwareSerial::rx</text>
<text text-anchor="middle" x="386.5" y="-62.5" font-family="Helvetica,sans-Serif" font-size="10.00">_pin_read</text>
</a>
</g>
</g>
<!-- Node2&#45;&gt;Node4 -->
<g id="edge3_Node000002_Node000004" class="edge">
<title>Node2&#45;&gt;Node4</title>
<g id="a_edge3_Node000002_Node000004"><a xlink:title=" ">
<path fill="none" stroke="#63b8ff" d="M276.03,-70.5C291.65,-70.5 308.68,-70.5 324.57,-70.5"/>
<polygon fill="#63b8ff" stroke="#63b8ff" points="324.81,-74 334.81,-70.5 324.81,-67 324.81,-74"/>
</a>
</g>
</g>
<!-- Node5 -->
<g id="Node000005" class="node">
<title>Node5</title>
<g id="a_Node000005"><a xlink:href="../../d2/de7/classSoftwareSerial_a1dc4448e5fdf2516f47439fb4f62f4be.xhtml#a1dc4448e5fdf2516f47439fb4f62f4be" target="_top" xlink:title=" ">
<polygon fill="white" stroke="#666666" points="461,-37 312,-37 312,-18 461,-18 461,-37"/>
<text text-anchor="middle" x="386.5" y="-25" font-family="Helvetica,sans-Serif" font-size="10.00">SoftwareSerial::tunedDelay</text>
</a>
</g>
</g>
<!-- Node2&#45;&gt;Node5 -->
<g id="edge4_Node000002_Node000005" class="edge">
<title>Node2&#45;&gt;Node5</title>
<g id="a_edge4_Node000002_Node000005"><a xlink:title=" ">
<path fill="none" stroke="#63b8ff" d="M256.71,-60.9C273.55,-56.51 293.79,-51.23 312,-46.5 320.62,-44.26 329.81,-41.88 338.67,-39.59"/>
<polygon fill="#63b8ff" stroke="#63b8ff" points="339.68,-42.94 348.48,-37.05 337.92,-36.17 339.68,-42.94"/>
</a>
</g>
</g>
<!-- Node6 -->
<g id="Node000006" class="node">
<title>Node6</title>
<g id="a_Node000006"><a xlink:href="../../d5/df3/wiring_8c_a6bc5f943544a887f8b23cadfb26a5e30.xhtml#a6bc5f943544a887f8b23cadfb26a5e30" target="_top" xlink:title=" ">
<polygon fill="white" stroke="#666666" points="541,-37 497,-37 497,-18 541,-18 541,-37"/>
<text text-anchor="middle" x="519" y="-25" font-family="Helvetica,sans-Serif" font-size="10.00">delay</text>
</a>
</g>
</g>
<!-- Node5&#45;&gt;Node6 -->
<g id="edge5_Node000005_Node000006" class="edge">
<title>Node5&#45;&gt;Node6</title>
<g id="a_edge5_Node000005_Node000006"><a xlink:title=" ">
<path fill="none" stroke="#63b8ff" d="M461.14,-27.5C470.12,-27.5 478.89,-27.5 486.75,-27.5"/>
<polygon fill="#63b8ff" stroke="#63b8ff" points="486.83,-31 496.83,-27.5 486.83,-24 486.83,-31"/>
</a>
</g>
</g>
<!-- Node7 -->
<g id="Node000007" class="node">
<title>Node7</title>
<g id="a_Node000007"><a xlink:href="../../d5/df3/wiring_8c_a8b24cbb7c3486e1bfa05c86db83ecb01.xhtml#a8b24cbb7c3486e1bfa05c86db83ecb01" target="_top" xlink:title=" ">
<polygon fill="white" stroke="#666666" points="627,-56 577,-56 577,-37 627,-37 627,-56"/>
<text text-anchor="middle" x="602" y="-44" font-family="Helvetica,sans-Serif" font-size="10.00">micros</text>
</a>
</g>
</g>
<!-- Node6&#45;&gt;Node7 -->
<g id="edge6_Node000006_Node000007" class="edge">
<title>Node6&#45;&gt;Node7</title>
<g id="a_edge6_Node000006_Node000007"><a xlink:title=" ">
<path fill="none" stroke="#63b8ff" d="M541.28,-32.49C549.1,-34.33 558.16,-36.45 566.82,-38.48"/>
<polygon fill="#63b8ff" stroke="#63b8ff" points="566.18,-41.93 576.71,-40.8 567.77,-35.11 566.18,-41.93"/>
</a>
</g>
</g>
<!-- Node8 -->
<g id="Node000008" class="node">
<title>Node8</title>
<g id="a_Node000008"><a xlink:href="../../de/df0/Arduino_8h_a7cb51f5c2b5cad3766f19eb69c92793b.xhtml#a7cb51f5c2b5cad3766f19eb69c92793b" target="_top" xlink:title=" ">
<polygon fill="white" stroke="#666666" points="622.5,-19 581.5,-19 581.5,0 622.5,0 622.5,-19"/>
<text text-anchor="middle" x="602" y="-7" font-family="Helvetica,sans-Serif" font-size="10.00">yield</text>
</a>
</g>
</g>
<!-- Node6&#45;&gt;Node8 -->
<g id="edge7_Node000006_Node000008" class="edge">
<title>Node6&#45;&gt;Node8</title>
<g id="a_edge7_Node000006_Node000008"><a xlink:title=" ">
<path fill="none" stroke="#63b8ff" d="M541.28,-22.77C550.47,-20.73 561.37,-18.31 571.32,-16.09"/>
<polygon fill="#63b8ff" stroke="#63b8ff" points="572.25,-19.47 581.25,-13.89 570.73,-12.64 572.25,-19.47"/>
</a>
</g>
</g>
</g>
</svg>
