<?xml version="1.0" encoding="UTF-8" standalone="no"?>
<!DOCTYPE svg PUBLIC "-//W3C//DTD SVG 1.1//EN"
 "http://www.w3.org/Graphics/SVG/1.1/DTD/svg11.dtd">
<!-- Generated by graphviz version 2.43.0 (0)
 -->
<!-- Title: SoftwareSerial::recv Pages: 1 -->
<svg width="473pt" height="131pt"
 viewBox="0.00 0.00 473.00 131.00" xmlns="http://www.w3.org/2000/svg" xmlns:xlink="http://www.w3.org/1999/xlink">
<g id="graph0" class="graph" transform="scale(1 1) rotate(0) translate(4 127)">
<title>SoftwareSerial::recv</title>
<!-- Node1 -->
<g id="Node000001" class="node">
<title>Node1</title>
<g id="a_Node000001"><a xlink:title=" ">
<polygon fill="#999999" stroke="#666666" points="114,-80 0,-80 0,-61 114,-61 114,-80"/>
<text text-anchor="middle" x="57" y="-68" font-family="Helvetica,sans-Serif" font-size="10.00">SoftwareSerial::recv</text>
</a>
</g>
</g>
<!-- Node2 -->
<g id="Node000002" class="node">
<title>Node2</title>
<g id="a_Node000002"><a xlink:href="../../d4/d73/SoftwareSerial_8cpp_a7ba959374e79d3320d69af12f7307f44.xhtml#a7ba959374e79d3320d69af12f7307f44" target="_top" xlink:title=" ">
<polygon fill="white" stroke="#666666" points="261.5,-123 187.5,-123 187.5,-104 261.5,-104 261.5,-123"/>
<text text-anchor="middle" x="224.5" y="-111" font-family="Helvetica,sans-Serif" font-size="10.00">DebugPulse</text>
</a>
</g>
</g>
<!-- Node1&#45;&gt;Node2 -->
<g id="edge1_Node000001_Node000002" class="edge">
<title>Node1&#45;&gt;Node2</title>
<g id="a_edge1_Node000001_Node000002"><a xlink:title=" ">
<path fill="none" stroke="#63b8ff" d="M94.71,-80.1C111.55,-84.49 131.79,-89.77 150,-94.5 158.9,-96.81 168.41,-99.27 177.53,-101.63"/>
<polygon fill="#63b8ff" stroke="#63b8ff" points="176.68,-105.03 187.23,-104.14 178.43,-98.25 176.68,-105.03"/>
</a>
</g>
</g>
<!-- Node3 -->
<g id="Node000003" class="node">
<title>Node3</title>
<g id="a_Node000003"><a xlink:href="../../d2/de7/classSoftwareSerial_a2dddb75a3a268984ac5e96265825a305.xhtml#a2dddb75a3a268984ac5e96265825a305" target="_top" xlink:title=" ">
<polygon fill="white" stroke="#666666" points="276,-85.5 173,-85.5 173,-55.5 276,-55.5 276,-85.5"/>
<text text-anchor="start" x="181" y="-73.5" font-family="Helvetica,sans-Serif" font-size="10.00">SoftwareSerial::rx</text>
<text text-anchor="middle" x="224.5" y="-62.5" font-family="Helvetica,sans-Serif" font-size="10.00">_pin_read</text>
</a>
</g>
</g>
<!-- Node1&#45;&gt;Node3 -->
<g id="edge2_Node000001_Node000003" class="edge">
<title>Node1&#45;&gt;Node3</title>
<g id="a_edge2_Node000001_Node000003"><a xlink:title=" ">
<path fill="none" stroke="#63b8ff" d="M114.03,-70.5C129.65,-70.5 146.68,-70.5 162.57,-70.5"/>
<polygon fill="#63b8ff" stroke="#63b8ff" points="162.81,-74 172.81,-70.5 162.81,-67 162.81,-74"/>
</a>
</g>
</g>
<!-- Node4 -->
<g id="Node000004" class="node">
<title>Node4</title>
<g id="a_Node000004"><a xlink:href="../../d2/de7/classSoftwareSerial_a1dc4448e5fdf2516f47439fb4f62f4be.xhtml#a1dc4448e5fdf2516f47439fb4f62f4be" target="_top" xlink:title=" ">
<polygon fill="white" stroke="#666666" points="299,-37 150,-37 150,-18 299,-18 299,-37"/>
<text text-anchor="middle" x="224.5" y="-25" font-family="Helvetica,sans-Serif" font-size="10.00">SoftwareSerial::tunedDelay</text>
</a>
</g>
</g>
<!-- Node1&#45;&gt;Node4 -->
<g id="edge3_Node000001_Node000004" class="edge">
<title>Node1&#45;&gt;Node4</title>
<g id="a_edge3_Node000001_Node000004"><a xlink:title=" ">
<path fill="none" stroke="#63b8ff" d="M94.71,-60.9C111.55,-56.51 131.79,-51.23 150,-46.5 158.62,-44.26 167.81,-41.88 176.67,-39.59"/>
<polygon fill="#63b8ff" stroke="#63b8ff" points="177.68,-42.94 186.48,-37.05 175.92,-36.17 177.68,-42.94"/>
</a>
</g>
</g>
<!-- Node5 -->
<g id="Node000005" class="node">
<title>Node5</title>
<g id="a_Node000005"><a xlink:href="../../d5/df3/wiring_8c_a6bc5f943544a887f8b23cadfb26a5e30.xhtml#a6bc5f943544a887f8b23cadfb26a5e30" target="_top" xlink:title=" ">
<polygon fill="white" stroke="#666666" points="379,-37 335,-37 335,-18 379,-18 379,-37"/>
<text text-anchor="middle" x="357" y="-25" font-family="Helvetica,sans-Serif" font-size="10.00">delay</text>
</a>
</g>
</g>
<!-- Node4&#45;&gt;Node5 -->
<g id="edge4_Node000004_Node000005" class="edge">
<title>Node4&#45;&gt;Node5</title>
<g id="a_edge4_Node000004_Node000005"><a xlink:title=" ">
<path fill="none" stroke="#63b8ff" d="M299.14,-27.5C308.12,-27.5 316.89,-27.5 324.75,-27.5"/>
<polygon fill="#63b8ff" stroke="#63b8ff" points="324.83,-31 334.83,-27.5 324.83,-24 324.83,-31"/>
</a>
</g>
</g>
<!-- Node6 -->
<g id="Node000006" class="node">
<title>Node6</title>
<g id="a_Node000006"><a xlink:href="../../d5/df3/wiring_8c_a8b24cbb7c3486e1bfa05c86db83ecb01.xhtml#a8b24cbb7c3486e1bfa05c86db83ecb01" target="_top" xlink:title=" ">
<polygon fill="white" stroke="#666666" points="465,-56 415,-56 415,-37 465,-37 465,-56"/>
<text text-anchor="middle" x="440" y="-44" font-family="Helvetica,sans-Serif" font-size="10.00">micros</text>
</a>
</g>
</g>
<!-- Node5&#45;&gt;Node6 -->
<g id="edge5_Node000005_Node000006" class="edge">
<title>Node5&#45;&gt;Node6</title>
<g id="a_edge5_Node000005_Node000006"><a xlink:title=" ">
<path fill="none" stroke="#63b8ff" d="M379.28,-32.49C387.1,-34.33 396.16,-36.45 404.82,-38.48"/>
<polygon fill="#63b8ff" stroke="#63b8ff" points="404.18,-41.93 414.71,-40.8 405.77,-35.11 404.18,-41.93"/>
</a>
</g>
</g>
<!-- Node7 -->
<g id="Node000007" class="node">
<title>Node7</title>
<g id="a_Node000007"><a xlink:href="../../de/df0/Arduino_8h_a7cb51f5c2b5cad3766f19eb69c92793b.xhtml#a7cb51f5c2b5cad3766f19eb69c92793b" target="_top" xlink:title=" ">
<polygon fill="white" stroke="#666666" points="460.5,-19 419.5,-19 419.5,0 460.5,0 460.5,-19"/>
<text text-anchor="middle" x="440" y="-7" font-family="Helvetica,sans-Serif" font-size="10.00">yield</text>
</a>
</g>
</g>
<!-- Node5&#45;&gt;Node7 -->
<g id="edge6_Node000005_Node000007" class="edge">
<title>Node5&#45;&gt;Node7</title>
<g id="a_edge6_Node000005_Node000007"><a xlink:title=" ">
<path fill="none" stroke="#63b8ff" d="M379.28,-22.77C388.47,-20.73 399.37,-18.31 409.32,-16.09"/>
<polygon fill="#63b8ff" stroke="#63b8ff" points="410.25,-19.47 419.25,-13.89 408.73,-12.64 410.25,-19.47"/>
</a>
</g>
</g>
</g>
</svg>
