<?xml version="1.0" encoding="UTF-8" standalone="no"?>
<!DOCTYPE svg PUBLIC "-//W3C//DTD SVG 1.1//EN"
 "http://www.w3.org/Graphics/SVG/1.1/DTD/svg11.dtd">
<!-- Generated by graphviz version 2.43.0 (0)
 -->
<!-- Title: FatVolume::open Pages: 1 -->
<svg width="553pt" height="82pt"
 viewBox="0.00 0.00 553.00 82.00" xmlns="http://www.w3.org/2000/svg" xmlns:xlink="http://www.w3.org/1999/xlink">
<g id="graph0" class="graph" transform="scale(1 1) rotate(0) translate(4 78)">
<title>FatVolume::open</title>
<!-- Node1 -->
<g id="Node000001" class="node">
<title>Node1</title>
<g id="a_Node000001"><a xlink:title=" ">
<polygon fill="#999999" stroke="#666666" points="545,-55 447,-55 447,-36 545,-36 545,-55"/>
<text text-anchor="middle" x="496" y="-43" font-family="Helvetica,sans-Serif" font-size="10.00">FatVolume::open</text>
</a>
</g>
</g>
<!-- Node2 -->
<g id="Node000002" class="node">
<title>Node2</title>
<g id="a_Node000002"><a xlink:href="../../d3/dd5/classFatVolume.xhtml#a0df7015cd9c918718948e6746d3c5161" target="_top" xlink:title=" ">
<polygon fill="white" stroke="#666666" points="411,-74 313,-74 313,-55 411,-55 411,-74"/>
<text text-anchor="middle" x="362" y="-62" font-family="Helvetica,sans-Serif" font-size="10.00">FatVolume::open</text>
</a>
</g>
</g>
<!-- Node1&#45;&gt;Node2 -->
<g id="edge1_Node000001_Node000002" class="edge">
<title>Node1&#45;&gt;Node2</title>
<g id="a_edge1_Node000001_Node000002"><a xlink:title=" ">
<path fill="none" stroke="#63b8ff" d="M436.99,-53.85C428.38,-55.09 419.59,-56.35 411.21,-57.56"/>
<polygon fill="#63b8ff" stroke="#63b8ff" points="437.57,-57.3 446.97,-52.41 436.57,-50.37 437.57,-57.3"/>
</a>
</g>
</g>
<!-- Node3 -->
<g id="Node000003" class="node">
<title>Node3</title>
<g id="a_Node000003"><a xlink:href="../../d0/ded/sd_8cpp.xhtml#a5b86241374c9a379af845d4adaa170b5" target="_top" xlink:title="Sauvegarde des données sur la carte SD.">
<polygon fill="white" stroke="#666666" points="393.5,-37 330.5,-37 330.5,-18 393.5,-18 393.5,-37"/>
<text text-anchor="middle" x="362" y="-25" font-family="Helvetica,sans-Serif" font-size="10.00">saveData</text>
</a>
</g>
</g>
<!-- Node1&#45;&gt;Node3 -->
<g id="edge2_Node000001_Node000003" class="edge">
<title>Node1&#45;&gt;Node3</title>
<g id="a_edge2_Node000001_Node000003"><a xlink:title=" ">
<path fill="none" stroke="#63b8ff" d="M436.78,-37.56C421.87,-35.53 406.42,-33.42 393.54,-31.67"/>
<polygon fill="#63b8ff" stroke="#63b8ff" points="436.59,-41.07 446.97,-38.95 437.54,-34.13 436.59,-41.07"/>
</a>
</g>
</g>
<!-- Node4 -->
<g id="Node000004" class="node">
<title>Node4</title>
<g id="a_Node000004"><a xlink:href="../../d9/ddd/economy_8cpp.xhtml#a35740c7a73b48d918cb4e6d891d46bed" target="_top" xlink:title="Exécute une étape de la boucle principale du mode économique.">
<polygon fill="white" stroke="#666666" points="277,-56 151,-56 151,-37 277,-37 277,-56"/>
<text text-anchor="middle" x="214" y="-44" font-family="Helvetica,sans-Serif" font-size="10.00">runEconomyModeStep</text>
</a>
</g>
</g>
<!-- Node3&#45;&gt;Node4 -->
<g id="edge3_Node000003_Node000004" class="edge">
<title>Node3&#45;&gt;Node4</title>
<g id="a_edge3_Node000003_Node000004"><a xlink:title=" ">
<path fill="none" stroke="#63b8ff" d="M320.13,-32.82C306.8,-34.55 291.68,-36.52 277.15,-38.41"/>
<polygon fill="#63b8ff" stroke="#63b8ff" points="320.93,-36.24 330.39,-31.48 320.03,-29.3 320.93,-36.24"/>
</a>
</g>
</g>
<!-- Node7 -->
<g id="Node000007" class="node">
<title>Node7</title>
<g id="a_Node000007"><a xlink:href="../../df/d92/standard_8cpp.xhtml#ad0b3e86793f7441084351fc2de4d4c45" target="_top" xlink:title="Exécute une étape de la boucle principale du mode standard.">
<polygon fill="white" stroke="#666666" points="276.5,-19 151.5,-19 151.5,0 276.5,0 276.5,-19"/>
<text text-anchor="middle" x="214" y="-7" font-family="Helvetica,sans-Serif" font-size="10.00">runStandardModeStep</text>
</a>
</g>
</g>
<!-- Node3&#45;&gt;Node7 -->
<g id="edge6_Node000003_Node000007" class="edge">
<title>Node3&#45;&gt;Node7</title>
<g id="a_edge6_Node000003_Node000007"><a xlink:title=" ">
<path fill="none" stroke="#63b8ff" d="M320.42,-22.5C306.83,-20.82 291.37,-18.92 276.56,-17.09"/>
<polygon fill="#63b8ff" stroke="#63b8ff" points="320.04,-25.98 330.39,-23.73 320.9,-19.03 320.04,-25.98"/>
</a>
</g>
</g>
<!-- Node5 -->
<g id="Node000005" class="node">
<title>Node5</title>
<g id="a_Node000005"><a xlink:href="../../de/dfb/src_2main_8cpp.xhtml#afe461d27b9c48d5921c00d521181f12f" target="_top" xlink:title=" ">
<polygon fill="white" stroke="#666666" points="115,-37 77,-37 77,-18 115,-18 115,-37"/>
<text text-anchor="middle" x="96" y="-25" font-family="Helvetica,sans-Serif" font-size="10.00">loop</text>
</a>
</g>
</g>
<!-- Node4&#45;&gt;Node5 -->
<g id="edge4_Node000004_Node000005" class="edge">
<title>Node4&#45;&gt;Node5</title>
<g id="a_edge4_Node000004_Node000005"><a xlink:title=" ">
<path fill="none" stroke="#63b8ff" d="M144.63,-35.3C133.82,-33.53 123.5,-31.84 115.25,-30.49"/>
<polygon fill="#63b8ff" stroke="#63b8ff" points="144.23,-38.78 154.66,-36.94 145.36,-31.87 144.23,-38.78"/>
</a>
</g>
</g>
<!-- Node6 -->
<g id="Node000006" class="node">
<title>Node6</title>
<g id="a_Node000006"><a xlink:href="../../d2/d81/libs_2Arduino__AVR_2main_8cpp.xhtml#a840291bc02cba5474a4cb46a9b9566fe" target="_top" xlink:title=" ">
<polygon fill="white" stroke="#666666" points="41,-37 0,-37 0,-18 41,-18 41,-37"/>
<text text-anchor="middle" x="20.5" y="-25" font-family="Helvetica,sans-Serif" font-size="10.00">main</text>
</a>
</g>
</g>
<!-- Node5&#45;&gt;Node6 -->
<g id="edge5_Node000005_Node000006" class="edge">
<title>Node5&#45;&gt;Node6</title>
<g id="a_edge5_Node000005_Node000006"><a xlink:title=" ">
<path fill="none" stroke="#63b8ff" d="M66.79,-27.5C58.18,-27.5 48.9,-27.5 41,-27.5"/>
<polygon fill="#63b8ff" stroke="#63b8ff" points="66.83,-31 76.83,-27.5 66.83,-24 66.83,-31"/>
</a>
</g>
</g>
<!-- Node7&#45;&gt;Node5 -->
<g id="edge7_Node000007_Node000005" class="edge">
<title>Node7&#45;&gt;Node5</title>
<g id="a_edge7_Node000007_Node000005"><a xlink:title=" ">
<path fill="none" stroke="#63b8ff" d="M141.44,-20.6C131.83,-22.1 122.74,-23.51 115.32,-24.66"/>
<polygon fill="#63b8ff" stroke="#63b8ff" points="142.26,-24.02 151.6,-19.03 141.18,-17.1 142.26,-24.02"/>
</a>
</g>
</g>
</g>
</svg>
