<?xml version="1.0" encoding="UTF-8" standalone="no"?>
<!DOCTYPE svg PUBLIC "-//W3C//DTD SVG 1.1//EN"
 "http://www.w3.org/Graphics/SVG/1.1/DTD/svg11.dtd">
<!-- Generated by graphviz version 2.43.0 (0)
 -->
<!-- Title: switchToErrorMode Pages: 1 -->
<svg width="1507pt" height="442pt"
 viewBox="0.00 0.00 1507.00 442.09" xmlns="http://www.w3.org/2000/svg" xmlns:xlink="http://www.w3.org/1999/xlink">
<g id="graph0" class="graph" transform="scale(1 1) rotate(0) translate(4 438.09)">
<title>switchToErrorMode</title>
<!-- Node1 -->
<g id="Node000001" class="node">
<title>Node1</title>
<g id="a_Node000001"><a xlink:title=" ">
<polygon fill="#999999" stroke="#666666" points="109,-229 0,-229 0,-210 109,-210 109,-229"/>
<text text-anchor="middle" x="54.5" y="-217" font-family="Helvetica,sans-Serif" font-size="10.00">switchToErrorMode</text>
</a>
</g>
</g>
<!-- Node2 -->
<g id="Node000002" class="node">
<title>Node2</title>
<g id="a_Node000002"><a xlink:href="../../db/d17/led_8cpp.xhtml#a7ba25f44529972e627561bcf6efc192f" target="_top" xlink:title="La LED passe successivement du rouge au vert. La LED reste rouge pendant 1 seconde puis passe au vert...">
<polygon fill="white" stroke="#666666" points="276,-211 145,-211 145,-192 276,-192 276,-211"/>
<text text-anchor="middle" x="210.5" y="-199" font-family="Helvetica,sans-Serif" font-size="10.00">switchLEDToRed2Green</text>
</a>
</g>
</g>
<!-- Node1&#45;&gt;Node2 -->
<g id="edge1_Node000001_Node000002" class="edge">
<title>Node1&#45;&gt;Node2</title>
<g id="a_edge1_Node000001_Node000002"><a xlink:title=" ">
<path fill="none" stroke="#63b8ff" d="M109.36,-213.2C117.59,-212.24 126.21,-211.24 134.79,-210.23"/>
<polygon fill="#63b8ff" stroke="#63b8ff" points="135.29,-213.7 144.82,-209.06 134.48,-206.74 135.29,-213.7"/>
</a>
</g>
</g>
<!-- Node21 -->
<g id="Node000021" class="node">
<title>Node21</title>
<g id="a_Node000021"><a xlink:href="../../db/d17/led_8cpp.xhtml#ac050c3041978fab0c3028de0fdc31618" target="_top" xlink:title="La LED passe successivement du rouge au blanc. La LED reste rouge pendant 1 seconde puis passe au bla...">
<polygon fill="white" stroke="#666666" points="276,-75 145,-75 145,-56 276,-56 276,-75"/>
<text text-anchor="middle" x="210.5" y="-63" font-family="Helvetica,sans-Serif" font-size="10.00">switchLEDToRed2White</text>
</a>
</g>
</g>
<!-- Node1&#45;&gt;Node21 -->
<g id="edge29_Node000001_Node000021" class="edge">
<title>Node1&#45;&gt;Node21</title>
<g id="a_edge29_Node000001_Node000021"><a xlink:title=" ">
<path fill="none" stroke="#63b8ff" d="M65.13,-209.87C90.63,-184.37 160.12,-114.88 192.49,-82.51"/>
<polygon fill="#63b8ff" stroke="#63b8ff" points="195.27,-84.68 199.87,-75.13 190.32,-79.73 195.27,-84.68"/>
</a>
</g>
</g>
<!-- Node24 -->
<g id="Node000024" class="node">
<title>Node24</title>
<g id="a_Node000024"><a xlink:href="../../db/d17/led_8cpp.xhtml#aa04c4b7972bc68200e4d2da56b097115" target="_top" xlink:title="La LED passe successivement du rouge au bleu avec une fréquence de 1 seconde.">
<polygon fill="white" stroke="#666666" points="269.5,-357 151.5,-357 151.5,-338 269.5,-338 269.5,-357"/>
<text text-anchor="middle" x="210.5" y="-345" font-family="Helvetica,sans-Serif" font-size="10.00">switchLEDToRedBlue</text>
</a>
</g>
</g>
<!-- Node1&#45;&gt;Node24 -->
<g id="edge35_Node000001_Node000024" class="edge">
<title>Node1&#45;&gt;Node24</title>
<g id="a_edge35_Node000001_Node000024"><a xlink:title=" ">
<path fill="none" stroke="#63b8ff" d="M61.49,-229.12C74.4,-249.14 106.82,-295.67 145,-322.5 151.49,-327.06 158.93,-330.94 166.4,-334.17"/>
<polygon fill="#63b8ff" stroke="#63b8ff" points="165.21,-337.47 175.8,-337.93 167.81,-330.97 165.21,-337.47"/>
</a>
</g>
</g>
<!-- Node25 -->
<g id="Node000025" class="node">
<title>Node25</title>
<g id="a_Node000025"><a xlink:href="../../db/d17/led_8cpp.xhtml#a59bf7437503d490ee53223c3bd20aa0c" target="_top" xlink:title="La LED passe successivement du rouge au vert avec une fréquence de 1 seconde.">
<polygon fill="white" stroke="#666666" points="273,-267 148,-267 148,-248 273,-248 273,-267"/>
<text text-anchor="middle" x="210.5" y="-255" font-family="Helvetica,sans-Serif" font-size="10.00">switchLEDToRedGreen</text>
</a>
</g>
</g>
<!-- Node1&#45;&gt;Node25 -->
<g id="edge39_Node000001_Node000025" class="edge">
<title>Node1&#45;&gt;Node25</title>
<g id="a_edge39_Node000001_Node000025"><a xlink:title=" ">
<path fill="none" stroke="#63b8ff" d="M94.36,-229.09C114.59,-234.08 139.52,-240.23 161,-245.53"/>
<polygon fill="#63b8ff" stroke="#63b8ff" points="160.37,-248.98 170.92,-247.98 162.05,-242.19 160.37,-248.98"/>
</a>
</g>
</g>
<!-- Node26 -->
<g id="Node000026" class="node">
<title>Node26</title>
<g id="a_Node000026"><a xlink:href="../../db/d17/led_8cpp.xhtml#a3f8b463c1fa4e1715beb1a4a6e4c36b3" target="_top" xlink:title="La LED passe successivement du rouge au blanc avec une fréquence de 1 seconde.">
<polygon fill="white" stroke="#666666" points="273,-38 148,-38 148,-19 273,-19 273,-38"/>
<text text-anchor="middle" x="210.5" y="-26" font-family="Helvetica,sans-Serif" font-size="10.00">switchLEDToRedWhite</text>
</a>
</g>
</g>
<!-- Node1&#45;&gt;Node26 -->
<g id="edge43_Node000001_Node000026" class="edge">
<title>Node1&#45;&gt;Node26</title>
<g id="a_edge43_Node000001_Node000026"><a xlink:title=" ">
<path fill="none" stroke="#63b8ff" d="M57.59,-209.93C64.5,-180.69 89.38,-91.73 145,-46.5 146.59,-45.21 148.27,-44.01 150.01,-42.89"/>
<polygon fill="#63b8ff" stroke="#63b8ff" points="152.01,-45.79 159.2,-38.01 148.73,-39.61 152.01,-45.79"/>
</a>
</g>
</g>
<!-- Node27 -->
<g id="Node000027" class="node">
<title>Node27</title>
<g id="a_Node000027"><a xlink:href="../../db/d17/led_8cpp.xhtml#a91398c440a9f9f48d59e14eb727e61ae" target="_top" xlink:title="La LED passe successivement du rouge au jaune avec une fréquence de 1 seconde.">
<polygon fill="white" stroke="#666666" points="274,-314 147,-314 147,-295 274,-295 274,-314"/>
<text text-anchor="middle" x="210.5" y="-302" font-family="Helvetica,sans-Serif" font-size="10.00">switchLEDToRedYellow</text>
</a>
</g>
</g>
<!-- Node1&#45;&gt;Node27 -->
<g id="edge46_Node000001_Node000027" class="edge">
<title>Node1&#45;&gt;Node27</title>
<g id="a_edge46_Node000001_Node000027"><a xlink:title=" ">
<path fill="none" stroke="#63b8ff" d="M69.41,-229.04C86.71,-240.7 117.36,-260.73 145,-275.5 155.09,-280.89 166.39,-286.2 176.67,-290.78"/>
<polygon fill="#63b8ff" stroke="#63b8ff" points="175.58,-294.12 186.15,-294.91 178.38,-287.71 175.58,-294.12"/>
</a>
</g>
</g>
<!-- Node3 -->
<g id="Node000003" class="node">
<title>Node3</title>
<g id="a_Node000003"><a xlink:href="../../db/d17/led_8cpp.xhtml#aa2d49caed8f5ce97778549e0ef0a03c6" target="_top" xlink:title="Fait clignoter la LED en alternant entre deux couleurs avec une fréquence de 1 secondes pendant durat...">
<polygon fill="white" stroke="#666666" points="405,-360 325,-360 325,-341 405,-341 405,-360"/>
<text text-anchor="middle" x="365" y="-348" font-family="Helvetica,sans-Serif" font-size="10.00">initLEDTimer</text>
</a>
</g>
</g>
<!-- Node2&#45;&gt;Node3 -->
<g id="edge2_Node000002_Node000003" class="edge">
<title>Node2&#45;&gt;Node3</title>
<g id="a_edge2_Node000002_Node000003"><a xlink:title=" ">
<path fill="none" stroke="#63b8ff" d="M232.87,-211.14C246.11,-217.72 263.01,-227.27 276,-238.5 308.56,-266.64 337.51,-308.28 352.72,-332.06"/>
<polygon fill="#63b8ff" stroke="#63b8ff" points="349.92,-334.18 358.2,-340.79 355.85,-330.46 349.92,-334.18"/>
</a>
</g>
</g>
<!-- Node17 -->
<g id="Node000017" class="node">
<title>Node17</title>
<g id="a_Node000017"><a xlink:href="../../db/d17/led_8cpp.xhtml#a1c1c60dba65e2b65592bf4a0fe46b91c" target="_top" xlink:title="Allume la LED en vert.">
<polygon fill="white" stroke="#666666" points="564,-249 457,-249 457,-230 564,-230 564,-249"/>
<text text-anchor="middle" x="510.5" y="-237" font-family="Helvetica,sans-Serif" font-size="10.00">switchLEDToGreen</text>
</a>
</g>
</g>
<!-- Node2&#45;&gt;Node17 -->
<g id="edge26_Node000002_Node000017" class="edge">
<title>Node2&#45;&gt;Node17</title>
<g id="a_edge26_Node000002_Node000017"><a xlink:title=" ">
<path fill="none" stroke="#63b8ff" d="M276.16,-209.75C326.77,-216.2 396.73,-225.12 446.82,-231.51"/>
<polygon fill="#63b8ff" stroke="#63b8ff" points="446.52,-235 456.88,-232.79 447.4,-228.05 446.52,-235"/>
</a>
</g>
</g>
<!-- Node20 -->
<g id="Node000020" class="node">
<title>Node20</title>
<g id="a_Node000020"><a xlink:href="../../db/d17/led_8cpp.xhtml#ae18cd762c6f843eb4421cd651a5d3940" target="_top" xlink:title="Allume la LED en rouge.">
<polygon fill="white" stroke="#666666" points="558.5,-165 462.5,-165 462.5,-146 558.5,-146 558.5,-165"/>
<text text-anchor="middle" x="510.5" y="-153" font-family="Helvetica,sans-Serif" font-size="10.00">switchLEDToRed</text>
</a>
</g>
</g>
<!-- Node2&#45;&gt;Node20 -->
<g id="edge27_Node000002_Node000020" class="edge">
<title>Node2&#45;&gt;Node20</title>
<g id="a_edge27_Node000002_Node000020"><a xlink:title=" ">
<path fill="none" stroke="#63b8ff" d="M217.89,-191.99C232.02,-171.91 268.17,-125.67 312,-108.5 355.87,-91.32 372.21,-97.43 418,-108.5 431.44,-111.75 462.11,-128.27 484.24,-140.81"/>
<polygon fill="#63b8ff" stroke="#63b8ff" points="482.71,-143.97 493.13,-145.9 486.18,-137.89 482.71,-143.97"/>
</a>
</g>
</g>
<!-- Node4 -->
<g id="Node000004" class="node">
<title>Node4</title>
<g id="a_Node000004"><a xlink:href="../../dc/de5/timer_8cpp.xhtml#a75f67483e2c676b6e8ea29bca518e6c7" target="_top" xlink:title="Crée une nouvelle instance du timer.">
<polygon fill="white" stroke="#666666" points="720,-397 638,-397 638,-378 720,-378 720,-397"/>
<text text-anchor="middle" x="679" y="-385" font-family="Helvetica,sans-Serif" font-size="10.00">createTimer2</text>
</a>
</g>
</g>
<!-- Node3&#45;&gt;Node4 -->
<g id="edge3_Node000003_Node000004" class="edge">
<title>Node3&#45;&gt;Node4</title>
<g id="a_edge3_Node000003_Node000004"><a xlink:title=" ">
<path fill="none" stroke="#63b8ff" d="M373.43,-360.13C387.15,-377.04 418.37,-411.51 454,-424.5 521.34,-449.05 606.03,-420.06 649.45,-401.2"/>
<polygon fill="#63b8ff" stroke="#63b8ff" points="651.12,-404.29 658.81,-397.01 648.26,-397.9 651.12,-404.29"/>
</a>
</g>
</g>
<!-- Node8 -->
<g id="Node000008" class="node">
<title>Node8</title>
<g id="a_Node000008"><a xlink:href="../../db/d17/led_8cpp.xhtml#ab88ba8c1c79f75d5caa97fa7939bc4fb" target="_top" xlink:title="Fonction exécutée à chaque interruption du timer 2.">
<polygon fill="white" stroke="#666666" points="549,-397 472,-397 472,-378 549,-378 549,-397"/>
<text text-anchor="middle" x="510.5" y="-385" font-family="Helvetica,sans-Serif" font-size="10.00">LEDInterrupt</text>
</a>
</g>
</g>
<!-- Node3&#45;&gt;Node8 -->
<g id="edge7_Node000003_Node000008" class="edge">
<title>Node3&#45;&gt;Node8</title>
<g id="a_edge7_Node000003_Node000008"><a xlink:title=" ">
<path fill="none" stroke="#63b8ff" d="M402.95,-360.03C421.06,-364.7 443.06,-370.37 462.36,-375.35"/>
<polygon fill="#63b8ff" stroke="#63b8ff" points="461.61,-378.77 472.17,-377.88 463.36,-371.99 461.61,-378.77"/>
</a>
</g>
</g>
<!-- Node9 -->
<g id="Node000009" class="node">
<title>Node9</title>
<g id="a_Node000009"><a xlink:href="../../db/d17/led_8cpp.xhtml#a4f39000a638bc309a30f90d7fbb5a8a1" target="_top" xlink:title="Allume la LED en bleu.">
<polygon fill="white" stroke="#666666" points="560,-360 461,-360 461,-341 560,-341 560,-360"/>
<text text-anchor="middle" x="510.5" y="-348" font-family="Helvetica,sans-Serif" font-size="10.00">switchLEDToBlue</text>
</a>
</g>
</g>
<!-- Node3&#45;&gt;Node9 -->
<g id="edge10_Node000003_Node000009" class="edge">
<title>Node3&#45;&gt;Node9</title>
<g id="a_edge10_Node000003_Node000009"><a xlink:title=" ">
<path fill="none" stroke="#63b8ff" d="M405.21,-350.5C419.17,-350.5 435.21,-350.5 450.46,-350.5"/>
<polygon fill="#63b8ff" stroke="#63b8ff" points="450.85,-354 460.85,-350.5 450.85,-347 450.85,-354"/>
</a>
</g>
</g>
<!-- Node3&#45;&gt;Node17 -->
<g id="edge20_Node000003_Node000017" class="edge">
<title>Node3&#45;&gt;Node17</title>
<g id="a_edge20_Node000003_Node000017"><a xlink:title=" ">
<path fill="none" stroke="#63b8ff" d="M374.09,-340.8C392.07,-319.46 435.21,-269.37 454,-257.5 456.57,-255.88 459.3,-254.38 462.12,-253.02"/>
<polygon fill="#63b8ff" stroke="#63b8ff" points="463.53,-256.22 471.34,-249.07 460.77,-249.79 463.53,-256.22"/>
</a>
</g>
</g>
<!-- Node18 -->
<g id="Node000018" class="node">
<title>Node18</title>
<g id="a_Node000018"><a xlink:href="../../db/d17/led_8cpp.xhtml#aa58a00fd07d1ae6fd45c10c874766911" target="_top" xlink:title="Allume la LED en orange.">
<polygon fill="white" stroke="#666666" points="567,-323 454,-323 454,-304 567,-304 567,-323"/>
<text text-anchor="middle" x="510.5" y="-311" font-family="Helvetica,sans-Serif" font-size="10.00">switchLEDToOrange</text>
</a>
</g>
</g>
<!-- Node3&#45;&gt;Node18 -->
<g id="edge22_Node000003_Node000018" class="edge">
<title>Node3&#45;&gt;Node18</title>
<g id="a_edge22_Node000003_Node000018"><a xlink:title=" ">
<path fill="none" stroke="#63b8ff" d="M402.95,-340.97C421.06,-336.3 443.06,-330.63 462.36,-325.65"/>
<polygon fill="#63b8ff" stroke="#63b8ff" points="463.36,-329.01 472.17,-323.12 461.61,-322.23 463.36,-329.01"/>
</a>
</g>
</g>
<!-- Node19 -->
<g id="Node000019" class="node">
<title>Node19</title>
<g id="a_Node000019"><a xlink:href="../../db/d17/led_8cpp.xhtml#af8230cfc3cf386fa1253cd37b3cd215d" target="_top" xlink:title="Allume la LED en jaune.">
<polygon fill="white" stroke="#666666" points="564.5,-286 456.5,-286 456.5,-267 564.5,-267 564.5,-286"/>
<text text-anchor="middle" x="510.5" y="-274" font-family="Helvetica,sans-Serif" font-size="10.00">switchLEDToYellow</text>
</a>
</g>
</g>
<!-- Node3&#45;&gt;Node19 -->
<g id="edge24_Node000003_Node000019" class="edge">
<title>Node3&#45;&gt;Node19</title>
<g id="a_edge24_Node000003_Node000019"><a xlink:title=" ">
<path fill="none" stroke="#63b8ff" d="M390.6,-340.92C399.54,-336.99 409.51,-332.05 418,-326.5 435.91,-314.78 435.42,-305.14 454,-294.5 456.99,-292.79 460.17,-291.21 463.43,-289.77"/>
<polygon fill="#63b8ff" stroke="#63b8ff" points="464.77,-293 472.75,-286.04 462.17,-286.5 464.77,-293"/>
</a>
</g>
</g>
<!-- Node5 -->
<g id="Node000005" class="node">
<title>Node5</title>
<g id="a_Node000005"><a xlink:href="../../d5/df3/wiring_8c.xhtml#a6bc5f943544a887f8b23cadfb26a5e30" target="_top" xlink:title=" ">
<polygon fill="white" stroke="#666666" points="882.5,-360 838.5,-360 838.5,-341 882.5,-341 882.5,-360"/>
<text text-anchor="middle" x="860.5" y="-348" font-family="Helvetica,sans-Serif" font-size="10.00">delay</text>
</a>
</g>
</g>
<!-- Node4&#45;&gt;Node5 -->
<g id="edge4_Node000004_Node000005" class="edge">
<title>Node4&#45;&gt;Node5</title>
<g id="a_edge4_Node000004_Node000005"><a xlink:title=" ">
<path fill="none" stroke="#63b8ff" d="M720.28,-379.2C753.02,-372.45 798.51,-363.07 828.46,-356.9"/>
<polygon fill="#63b8ff" stroke="#63b8ff" points="829.28,-360.3 838.36,-354.86 827.86,-353.45 829.28,-360.3"/>
</a>
</g>
</g>
<!-- Node6 -->
<g id="Node000006" class="node">
<title>Node6</title>
<g id="a_Node000006"><a xlink:href="../../d5/df3/wiring_8c.xhtml#a8b24cbb7c3486e1bfa05c86db83ecb01" target="_top" xlink:title=" ">
<polygon fill="white" stroke="#666666" points="1059,-341 1009,-341 1009,-322 1059,-322 1059,-341"/>
<text text-anchor="middle" x="1034" y="-329" font-family="Helvetica,sans-Serif" font-size="10.00">micros</text>
</a>
</g>
</g>
<!-- Node5&#45;&gt;Node6 -->
<g id="edge5_Node000005_Node000006" class="edge">
<title>Node5&#45;&gt;Node6</title>
<g id="a_edge5_Node000005_Node000006"><a xlink:title=" ">
<path fill="none" stroke="#63b8ff" d="M882.53,-348.17C911.47,-344.96 963.92,-339.15 998.61,-335.31"/>
<polygon fill="#63b8ff" stroke="#63b8ff" points="999.2,-338.77 1008.76,-334.19 998.43,-331.81 999.2,-338.77"/>
</a>
</g>
</g>
<!-- Node7 -->
<g id="Node000007" class="node">
<title>Node7</title>
<g id="a_Node000007"><a xlink:href="../../de/df0/Arduino_8h.xhtml#a7cb51f5c2b5cad3766f19eb69c92793b" target="_top" xlink:title=" ">
<polygon fill="white" stroke="#666666" points="1054.5,-378 1013.5,-378 1013.5,-359 1054.5,-359 1054.5,-378"/>
<text text-anchor="middle" x="1034" y="-366" font-family="Helvetica,sans-Serif" font-size="10.00">yield</text>
</a>
</g>
</g>
<!-- Node5&#45;&gt;Node7 -->
<g id="edge6_Node000005_Node000007" class="edge">
<title>Node5&#45;&gt;Node7</title>
<g id="a_edge6_Node000005_Node000007"><a xlink:title=" ">
<path fill="none" stroke="#63b8ff" d="M882.53,-352.71C912.85,-355.89 968.96,-361.78 1003.44,-365.4"/>
<polygon fill="#63b8ff" stroke="#63b8ff" points="1003.08,-368.88 1013.39,-366.44 1003.81,-361.92 1003.08,-368.88"/>
</a>
</g>
</g>
<!-- Node8&#45;&gt;Node4 -->
<g id="edge8_Node000008_Node000004" class="edge">
<title>Node8&#45;&gt;Node4</title>
<g id="a_edge8_Node000008_Node000004"><a xlink:title=" ">
<path fill="none" stroke="#63b8ff" d="M549.28,-387.5C572.47,-387.5 602.45,-387.5 627.64,-387.5"/>
<polygon fill="#63b8ff" stroke="#63b8ff" points="627.75,-391 637.75,-387.5 627.75,-384 627.75,-391"/>
</a>
</g>
</g>
<!-- Node8&#45;&gt;Node8 -->
<g id="edge9_Node000008_Node000008" class="edge">
<title>Node8&#45;&gt;Node8</title>
<g id="a_edge9_Node000008_Node000008"><a xlink:title=" ">
<path fill="none" stroke="#63b8ff" d="M488.31,-397.08C477.51,-405.73 484.91,-415 510.5,-415 526.9,-415 535.82,-411.2 537.29,-406.19"/>
<polygon fill="#63b8ff" stroke="#63b8ff" points="540.32,-404.44 532.69,-397.08 534.07,-407.59 540.32,-404.44"/>
</a>
</g>
</g>
<!-- Node10 -->
<g id="Node000010" class="node">
<title>Node10</title>
<g id="a_Node000010"><a xlink:href="../../d5/dc9/classChainableLED.xhtml#a2b8a41a192a231e77cad268bdbaebd34" target="_top" xlink:title=" ">
<polygon fill="white" stroke="#666666" points="755,-267 603,-267 603,-248 755,-248 755,-267"/>
<text text-anchor="middle" x="679" y="-255" font-family="Helvetica,sans-Serif" font-size="10.00">ChainableLED::setColorRGB</text>
</a>
</g>
</g>
<!-- Node9&#45;&gt;Node10 -->
<g id="edge11_Node000009_Node000010" class="edge">
<title>Node9&#45;&gt;Node10</title>
<g id="a_edge11_Node000009_Node000010"><a xlink:title=" ">
<path fill="none" stroke="#63b8ff" d="M544.06,-340.92C551.74,-338.24 559.79,-335.06 567,-331.5 600.76,-314.82 636.42,-289.47 657.94,-273.2"/>
<polygon fill="#63b8ff" stroke="#63b8ff" points="660.17,-275.9 665.99,-267.04 655.92,-270.34 660.17,-275.9"/>
</a>
</g>
</g>
<!-- Node11 -->
<g id="Node000011" class="node">
<title>Node11</title>
<g id="a_Node000011"><a xlink:href="../../d5/dc9/classChainableLED.xhtml#af9dddebec83065625cbd6f8f05b992e7" target="_top" xlink:title=" ">
<polygon fill="white" stroke="#666666" points="1102,-267 966,-267 966,-248 1102,-248 1102,-267"/>
<text text-anchor="middle" x="1034" y="-255" font-family="Helvetica,sans-Serif" font-size="10.00">ChainableLED::sendByte</text>
</a>
</g>
</g>
<!-- Node10&#45;&gt;Node11 -->
<g id="edge12_Node000010_Node000011" class="edge">
<title>Node10&#45;&gt;Node11</title>
<g id="a_edge12_Node000010_Node000011"><a xlink:title=" ">
<path fill="none" stroke="#63b8ff" d="M755.29,-257.5C814.34,-257.5 896.22,-257.5 955.77,-257.5"/>
<polygon fill="#63b8ff" stroke="#63b8ff" points="955.87,-261 965.87,-257.5 955.87,-254 955.87,-261"/>
</a>
</g>
</g>
<!-- Node16 -->
<g id="Node000016" class="node">
<title>Node16</title>
<g id="a_Node000016"><a xlink:href="../../d5/dc9/classChainableLED.xhtml#a7c5c2661fc02dee9f174485a2fadeb7a" target="_top" xlink:title=" ">
<polygon fill="white" stroke="#666666" points="930,-286 791,-286 791,-267 930,-267 930,-286"/>
<text text-anchor="middle" x="860.5" y="-274" font-family="Helvetica,sans-Serif" font-size="10.00">ChainableLED::sendColor</text>
</a>
</g>
</g>
<!-- Node10&#45;&gt;Node16 -->
<g id="edge18_Node000010_Node000016" class="edge">
<title>Node10&#45;&gt;Node16</title>
<g id="a_edge18_Node000010_Node000016"><a xlink:title=" ">
<path fill="none" stroke="#63b8ff" d="M755.08,-265.45C763.48,-266.34 772.06,-267.24 780.51,-268.14"/>
<polygon fill="#63b8ff" stroke="#63b8ff" points="780.42,-271.65 790.73,-269.22 781.15,-264.69 780.42,-271.65"/>
</a>
</g>
</g>
<!-- Node12 -->
<g id="Node000012" class="node">
<title>Node12</title>
<g id="a_Node000012"><a xlink:href="../../d5/dc9/classChainableLED.xhtml#af384841b6f083865c7fce288b039d275" target="_top" xlink:title=" ">
<polygon fill="white" stroke="#666666" points="1242,-286 1138,-286 1138,-267 1242,-267 1242,-286"/>
<text text-anchor="middle" x="1190" y="-274" font-family="Helvetica,sans-Serif" font-size="10.00">ChainableLED::clk</text>
</a>
</g>
</g>
<!-- Node11&#45;&gt;Node12 -->
<g id="edge13_Node000011_Node000012" class="edge">
<title>Node11&#45;&gt;Node12</title>
<g id="a_edge13_Node000011_Node000012"><a xlink:title=" ">
<path fill="none" stroke="#63b8ff" d="M1102.1,-265.78C1110.63,-266.83 1119.32,-267.9 1127.75,-268.94"/>
<polygon fill="#63b8ff" stroke="#63b8ff" points="1127.52,-272.44 1137.87,-270.19 1128.38,-265.49 1127.52,-272.44"/>
</a>
</g>
</g>
<!-- Node14 -->
<g id="Node000014" class="node">
<title>Node14</title>
<g id="a_Node000014"><a xlink:href="../../d5/d45/wiring__digital_8c.xhtml#a73b9b61feeaf7d790d107f2954a7fd93" target="_top" xlink:title=" ">
<polygon fill="white" stroke="#666666" points="1370,-249 1296,-249 1296,-230 1370,-230 1370,-249"/>
<text text-anchor="middle" x="1333" y="-237" font-family="Helvetica,sans-Serif" font-size="10.00">digitalWrite</text>
</a>
</g>
</g>
<!-- Node11&#45;&gt;Node14 -->
<g id="edge17_Node000011_Node000014" class="edge">
<title>Node11&#45;&gt;Node14</title>
<g id="a_edge17_Node000011_Node000014"><a xlink:title=" ">
<path fill="none" stroke="#63b8ff" d="M1102.02,-253.44C1158.09,-250.04 1236.59,-245.28 1285.85,-242.3"/>
<polygon fill="#63b8ff" stroke="#63b8ff" points="1286.12,-245.79 1295.89,-241.69 1285.7,-238.8 1286.12,-245.79"/>
</a>
</g>
</g>
<!-- Node13 -->
<g id="Node000013" class="node">
<title>Node13</title>
<g id="a_Node000013"><a xlink:href="../../d5/df3/wiring_8c.xhtml#a62e0a53bc261f9de8700cc5a92307e85" target="_top" xlink:title=" ">
<polygon fill="white" stroke="#666666" points="1388,-286 1278,-286 1278,-267 1388,-267 1388,-286"/>
<text text-anchor="middle" x="1333" y="-274" font-family="Helvetica,sans-Serif" font-size="10.00">delayMicroseconds</text>
</a>
</g>
</g>
<!-- Node12&#45;&gt;Node13 -->
<g id="edge14_Node000012_Node000013" class="edge">
<title>Node12&#45;&gt;Node13</title>
<g id="a_edge14_Node000012_Node000013"><a xlink:title=" ">
<path fill="none" stroke="#63b8ff" d="M1242.3,-276.5C1250.48,-276.5 1259.02,-276.5 1267.45,-276.5"/>
<polygon fill="#63b8ff" stroke="#63b8ff" points="1267.65,-280 1277.65,-276.5 1267.65,-273 1267.65,-280"/>
</a>
</g>
</g>
<!-- Node12&#45;&gt;Node14 -->
<g id="edge15_Node000012_Node000014" class="edge">
<title>Node12&#45;&gt;Node14</title>
<g id="a_edge15_Node000012_Node000014"><a xlink:title=" ">
<path fill="none" stroke="#63b8ff" d="M1227.31,-266.97C1245.24,-262.27 1267.06,-256.54 1286.13,-251.54"/>
<polygon fill="#63b8ff" stroke="#63b8ff" points="1287.03,-254.92 1295.81,-249 1285.25,-248.15 1287.03,-254.92"/>
</a>
</g>
</g>
<!-- Node15 -->
<g id="Node000015" class="node">
<title>Node15</title>
<g id="a_Node000015"><a xlink:href="../../d5/d45/wiring__digital_8c.xhtml#ae3d0bcbe4eb927ca8f5d5c21b7e4f224" target="_top" xlink:title=" ">
<polygon fill="white" stroke="#666666" points="1499,-249 1424,-249 1424,-230 1499,-230 1499,-249"/>
<text text-anchor="middle" x="1461.5" y="-237" font-family="Helvetica,sans-Serif" font-size="10.00">turnOffPWM</text>
</a>
</g>
</g>
<!-- Node14&#45;&gt;Node15 -->
<g id="edge16_Node000014_Node000015" class="edge">
<title>Node14&#45;&gt;Node15</title>
<g id="a_edge16_Node000014_Node000015"><a xlink:title=" ">
<path fill="none" stroke="#63b8ff" d="M1370.25,-239.5C1383.76,-239.5 1399.3,-239.5 1413.63,-239.5"/>
<polygon fill="#63b8ff" stroke="#63b8ff" points="1413.81,-243 1423.81,-239.5 1413.81,-236 1413.81,-243"/>
</a>
</g>
</g>
<!-- Node16&#45;&gt;Node11 -->
<g id="edge19_Node000016_Node000011" class="edge">
<title>Node16&#45;&gt;Node11</title>
<g id="a_edge19_Node000016_Node000011"><a xlink:title=" ">
<path fill="none" stroke="#63b8ff" d="M930.27,-268.88C938.71,-267.95 947.37,-266.99 955.93,-266.04"/>
<polygon fill="#63b8ff" stroke="#63b8ff" points="956.34,-269.51 965.89,-264.93 955.57,-262.56 956.34,-269.51"/>
</a>
</g>
</g>
<!-- Node17&#45;&gt;Node10 -->
<g id="edge21_Node000017_Node000010" class="edge">
<title>Node17&#45;&gt;Node10</title>
<g id="a_edge21_Node000017_Node000010"><a xlink:title=" ">
<path fill="none" stroke="#63b8ff" d="M564.18,-245.2C573.3,-246.18 582.99,-247.23 592.72,-248.28"/>
<polygon fill="#63b8ff" stroke="#63b8ff" points="592.53,-251.78 602.85,-249.38 593.28,-244.82 592.53,-251.78"/>
</a>
</g>
</g>
<!-- Node18&#45;&gt;Node10 -->
<g id="edge23_Node000018_Node000010" class="edge">
<title>Node18&#45;&gt;Node10</title>
<g id="a_edge23_Node000018_Node000010"><a xlink:title=" ">
<path fill="none" stroke="#63b8ff" d="M540.12,-303.87C567.69,-294.6 609.56,-280.52 639.93,-270.3"/>
<polygon fill="#63b8ff" stroke="#63b8ff" points="641.39,-273.51 649.75,-267 639.16,-266.87 641.39,-273.51"/>
</a>
</g>
</g>
<!-- Node19&#45;&gt;Node10 -->
<g id="edge25_Node000019_Node000010" class="edge">
<title>Node19&#45;&gt;Node10</title>
<g id="a_edge25_Node000019_Node000010"><a xlink:title=" ">
<path fill="none" stroke="#63b8ff" d="M564.64,-270.44C573.68,-269.4 583.27,-268.31 592.89,-267.21"/>
<polygon fill="#63b8ff" stroke="#63b8ff" points="593.37,-270.68 602.91,-266.07 592.58,-263.73 593.37,-270.68"/>
</a>
</g>
</g>
<!-- Node20&#45;&gt;Node10 -->
<g id="edge28_Node000020_Node000010" class="edge">
<title>Node20&#45;&gt;Node10</title>
<g id="a_edge28_Node000020_Node000010"><a xlink:title=" ">
<path fill="none" stroke="#63b8ff" d="M527.16,-165.1C556.29,-182.94 618.98,-221.35 653.67,-242.6"/>
<polygon fill="#63b8ff" stroke="#63b8ff" points="651.9,-245.62 662.26,-247.86 655.56,-239.65 651.9,-245.62"/>
</a>
</g>
</g>
<!-- Node22 -->
<g id="Node000022" class="node">
<title>Node22</title>
<g id="a_Node000022"><a xlink:href="../../db/d17/led_8cpp.xhtml#a568e3f9750c24e5262ff1953d439acaa" target="_top" xlink:title="Initialise la boucle de clignotement de la LED.">
<polygon fill="white" stroke="#666666" points="402,-56 328,-56 328,-37 402,-37 402,-56"/>
<text text-anchor="middle" x="365" y="-44" font-family="Helvetica,sans-Serif" font-size="10.00">initLEDLoop</text>
</a>
</g>
</g>
<!-- Node21&#45;&gt;Node22 -->
<g id="edge30_Node000021_Node000022" class="edge">
<title>Node21&#45;&gt;Node22</title>
<g id="a_edge30_Node000021_Node000022"><a xlink:title=" ">
<path fill="none" stroke="#63b8ff" d="M276.17,-57.44C290.14,-55.7 304.63,-53.9 317.72,-52.27"/>
<polygon fill="#63b8ff" stroke="#63b8ff" points="318.4,-55.71 327.89,-51 317.53,-48.76 318.4,-55.71"/>
</a>
</g>
</g>
<!-- Node23 -->
<g id="Node000023" class="node">
<title>Node23</title>
<g id="a_Node000023"><a xlink:href="../../db/d17/led_8cpp.xhtml#ac69de171075f82d3c3f75385a54ce10a" target="_top" xlink:title="Allume la LED en blanc.">
<polygon fill="white" stroke="#666666" points="418,-19 312,-19 312,0 418,0 418,-19"/>
<text text-anchor="middle" x="365" y="-7" font-family="Helvetica,sans-Serif" font-size="10.00">switchLEDToWhite</text>
</a>
</g>
</g>
<!-- Node21&#45;&gt;Node23 -->
<g id="edge33_Node000021_Node000023" class="edge">
<title>Node21&#45;&gt;Node23</title>
<g id="a_edge33_Node000021_Node000023"><a xlink:title=" ">
<path fill="none" stroke="#63b8ff" d="M248.43,-55.99C257.57,-53.27 267.24,-50.06 276,-46.5 292.76,-39.69 295.4,-34.7 312,-27.5 315.94,-25.79 320.11,-24.12 324.29,-22.54"/>
<polygon fill="#63b8ff" stroke="#63b8ff" points="325.8,-25.72 334,-19.01 323.41,-19.14 325.8,-25.72"/>
</a>
</g>
</g>
<!-- Node22&#45;&gt;Node5 -->
<g id="edge31_Node000022_Node000005" class="edge">
<title>Node22&#45;&gt;Node5</title>
<g id="a_edge31_Node000022_Node000005"><a xlink:title=" ">
<path fill="none" stroke="#63b8ff" d="M400.3,-56.06C473.22,-77.82 645.85,-137.17 755,-238.5 776.68,-258.63 771.3,-272.42 791,-294.5 804.72,-309.88 822.87,-324.52 837.04,-334.97"/>
<polygon fill="#63b8ff" stroke="#63b8ff" points="835.12,-337.9 845.28,-340.9 839.21,-332.22 835.12,-337.9"/>
</a>
</g>
</g>
<!-- Node22&#45;&gt;Node20 -->
<g id="edge32_Node000022_Node000020" class="edge">
<title>Node22&#45;&gt;Node20</title>
<g id="a_edge32_Node000022_Node000020"><a xlink:title=" ">
<path fill="none" stroke="#63b8ff" d="M393.79,-56.06C402.12,-59.76 410.92,-64.55 418,-70.5 439.52,-88.58 433.45,-103.32 454,-122.5 461.6,-129.6 470.98,-135.88 479.86,-141.01"/>
<polygon fill="#63b8ff" stroke="#63b8ff" points="478.37,-144.19 488.82,-145.93 481.74,-138.05 478.37,-144.19"/>
</a>
</g>
</g>
<!-- Node23&#45;&gt;Node10 -->
<g id="edge34_Node000023_Node000010" class="edge">
<title>Node23&#45;&gt;Node10</title>
<g id="a_edge34_Node000023_Node000010"><a xlink:title=" ">
<path fill="none" stroke="#63b8ff" d="M398.53,-19.08C405.13,-21.49 411.91,-24.31 418,-27.5 490.69,-65.56 505.86,-81.78 567,-136.5 604.65,-170.19 643.37,-215.23 663.63,-239.75"/>
<polygon fill="#63b8ff" stroke="#63b8ff" points="661.18,-242.29 670.23,-247.8 666.6,-237.85 661.18,-242.29"/>
</a>
</g>
</g>
<!-- Node24&#45;&gt;Node3 -->
<g id="edge36_Node000024_Node000003" class="edge">
<title>Node24&#45;&gt;Node3</title>
<g id="a_edge36_Node000024_Node000003"><a xlink:title=" ">
<path fill="none" stroke="#63b8ff" d="M269.59,-348.64C284.49,-348.94 300.37,-349.25 314.78,-349.53"/>
<polygon fill="#63b8ff" stroke="#63b8ff" points="314.9,-353.03 324.97,-349.73 315.04,-346.04 314.9,-353.03"/>
</a>
</g>
</g>
<!-- Node24&#45;&gt;Node9 -->
<g id="edge37_Node000024_Node000009" class="edge">
<title>Node24&#45;&gt;Node9</title>
<g id="a_edge37_Node000024_Node000009"><a xlink:title=" ">
<path fill="none" stroke="#63b8ff" d="M246.08,-357C265.32,-361.8 289.8,-367.1 312,-369.5 358.84,-374.57 371.14,-374.31 418,-369.5 432.55,-368.01 448.19,-365.21 462.36,-362.21"/>
<polygon fill="#63b8ff" stroke="#63b8ff" points="463.36,-365.57 472.37,-360.01 461.86,-358.74 463.36,-365.57"/>
</a>
</g>
</g>
<!-- Node24&#45;&gt;Node20 -->
<g id="edge38_Node000024_Node000020" class="edge">
<title>Node24&#45;&gt;Node20</title>
<g id="a_edge38_Node000024_Node000020"><a xlink:title=" ">
<path fill="none" stroke="#63b8ff" d="M240.77,-337.92C252.06,-333.78 264.91,-328.49 276,-322.5 361.2,-276.47 451.58,-204.11 490.2,-171.9"/>
<polygon fill="#63b8ff" stroke="#63b8ff" points="492.64,-174.42 498.05,-165.31 488.14,-169.06 492.64,-174.42"/>
</a>
</g>
</g>
<!-- Node25&#45;&gt;Node3 -->
<g id="edge40_Node000025_Node000003" class="edge">
<title>Node25&#45;&gt;Node3</title>
<g id="a_edge40_Node000025_Node000003"><a xlink:title=" ">
<path fill="none" stroke="#63b8ff" d="M237.26,-267.12C249.34,-272.02 263.73,-278.43 276,-285.5 300.94,-299.88 327.2,-320.02 344.47,-334.05"/>
<polygon fill="#63b8ff" stroke="#63b8ff" points="342.68,-337.12 352.63,-340.78 347.14,-331.72 342.68,-337.12"/>
</a>
</g>
</g>
<!-- Node25&#45;&gt;Node17 -->
<g id="edge41_Node000025_Node000017" class="edge">
<title>Node25&#45;&gt;Node17</title>
<g id="a_edge41_Node000025_Node000017"><a xlink:title=" ">
<path fill="none" stroke="#63b8ff" d="M273.25,-253.77C323.96,-250.71 395.51,-246.39 446.55,-243.3"/>
<polygon fill="#63b8ff" stroke="#63b8ff" points="447.03,-246.78 456.8,-242.68 446.6,-239.79 447.03,-246.78"/>
</a>
</g>
</g>
<!-- Node25&#45;&gt;Node20 -->
<g id="edge42_Node000025_Node000020" class="edge">
<title>Node25&#45;&gt;Node20</title>
<g id="a_edge42_Node000025_Node000020"><a xlink:title=" ">
<path fill="none" stroke="#63b8ff" d="M234.64,-247.94C248.05,-241.49 264.5,-231.88 276,-219.5 300.61,-192.99 281.28,-165.6 312,-146.5 361.68,-115.61 432.76,-129.84 474.72,-142.81"/>
<polygon fill="#63b8ff" stroke="#63b8ff" points="473.88,-146.21 484.47,-145.96 476.03,-139.55 473.88,-146.21"/>
</a>
</g>
</g>
<!-- Node26&#45;&gt;Node22 -->
<g id="edge44_Node000026_Node000022" class="edge">
<title>Node26&#45;&gt;Node22</title>
<g id="a_edge44_Node000026_Node000022"><a xlink:title=" ">
<path fill="none" stroke="#63b8ff" d="M273.09,-35.77C287.84,-37.51 303.36,-39.34 317.31,-40.99"/>
<polygon fill="#63b8ff" stroke="#63b8ff" points="317.3,-44.51 327.64,-42.21 318.12,-37.56 317.3,-44.51"/>
</a>
</g>
</g>
<!-- Node26&#45;&gt;Node23 -->
<g id="edge45_Node000026_Node000023" class="edge">
<title>Node26&#45;&gt;Node23</title>
<g id="a_edge45_Node000026_Node000023"><a xlink:title=" ">
<path fill="none" stroke="#63b8ff" d="M273.09,-20.83C282.56,-19.65 292.34,-18.43 301.83,-17.25"/>
<polygon fill="#63b8ff" stroke="#63b8ff" points="302.48,-20.69 311.97,-15.98 301.61,-13.75 302.48,-20.69"/>
</a>
</g>
</g>
<!-- Node27&#45;&gt;Node3 -->
<g id="edge47_Node000027_Node000003" class="edge">
<title>Node27&#45;&gt;Node3</title>
<g id="a_edge47_Node000027_Node000003"><a xlink:title=" ">
<path fill="none" stroke="#63b8ff" d="M243.1,-314.03C266.2,-321 297.76,-330.52 322.83,-338.08"/>
<polygon fill="#63b8ff" stroke="#63b8ff" points="321.86,-341.44 332.44,-340.98 323.88,-334.74 321.86,-341.44"/>
</a>
</g>
</g>
<!-- Node27&#45;&gt;Node19 -->
<g id="edge49_Node000027_Node000019" class="edge">
<title>Node27&#45;&gt;Node19</title>
<g id="a_edge49_Node000027_Node000019"><a xlink:title=" ">
<path fill="none" stroke="#63b8ff" d="M274.33,-298.6C324.82,-293.85 395.41,-287.22 446.05,-282.46"/>
<polygon fill="#63b8ff" stroke="#63b8ff" points="446.59,-285.93 456.22,-281.51 445.94,-278.96 446.59,-285.93"/>
</a>
</g>
</g>
<!-- Node27&#45;&gt;Node20 -->
<g id="edge48_Node000027_Node000020" class="edge">
<title>Node27&#45;&gt;Node20</title>
<g id="a_edge48_Node000027_Node000020"><a xlink:title=" ">
<path fill="none" stroke="#63b8ff" d="M241.72,-294.92C253.26,-290.28 266.03,-283.87 276,-275.5 297.81,-257.19 289.34,-239.75 312,-222.5 353.34,-191.03 410.39,-173.79 452.55,-164.71"/>
<polygon fill="#63b8ff" stroke="#63b8ff" points="453.3,-168.13 462.39,-162.69 451.88,-161.28 453.3,-168.13"/>
</a>
</g>
</g>
</g>
</svg>
